<?xml version="1.0" encoding="UTF-8"?>
<svg xmlns="http://www.w3.org/2000/svg" xmlns:xlink="http://www.w3.org/1999/xlink" width="117" height="117" viewBox="0 0 117 117">
<path fill="none" stroke-width="0.79701" stroke-linecap="butt" stroke-linejoin="miter" stroke="rgb(100%, 0%, 0%)" stroke-opacity="1" stroke-miterlimit="10" d="M -0.00191833 0.0011875 C -0.00191833 0.0011875 0.0801105 0.0011875 0.11136 0.0011875 C 0.146515 0.0011875 0.193388 0.0011875 0.228544 0.0011875 C 0.259793 0.0011875 0.306666 0.00509375 0.341821 0.00509375 C 0.37307 0.00509375 0.419944 0.00509375 0.455099 0.00509375 C 0.486348 0.009 0.533222 0.009 0.568377 0.0129063 C 0.599626 0.0129063 0.650406 0.0129063 0.681655 0.0168125 C 0.712904 0.0168125 0.763684 0.0207188 0.794933 0.0207188 C 0.826182 0.024625 0.876962 0.0285313 0.908211 0.0285313 C 0.93946 0.0324375 0.990239 0.0324375 1.021488 0.0363438 C 1.052738 0.04025 1.103517 0.0441563 1.134766 0.0441563 C 1.166015 0.0480625 1.216795 0.0519688 1.248044 0.055875 C 1.279293 0.055875 1.330073 0.0636875 1.361322 0.0636875 C 1.392571 0.0675938 1.443351 0.0715 1.4746 0.0754063 C 1.505849 0.0793125 1.556629 0.087125 1.587878 0.087125 C 1.619127 0.0910313 1.669907 0.0988438 1.701156 0.10275 C 1.732405 0.106656 1.783184 0.110563 1.814433 0.114469 C 1.845682 0.118375 1.896462 0.126188 1.927711 0.130094 C 1.95896 0.134 2.00974 0.141813 2.040989 0.145719 C 2.072238 0.149625 2.123018 0.157438 2.154267 0.16525 C 2.185516 0.169156 2.236296 0.176969 2.267545 0.180875 C 2.298794 0.184781 2.349574 0.192594 2.380823 0.200406 C 2.412072 0.204313 2.462851 0.212125 2.494101 0.219938 C 2.52535 0.223844 2.576129 0.235563 2.607378 0.239469 C 2.638627 0.247281 2.689407 0.255094 2.720656 0.259 C 2.751905 0.266813 2.802685 0.278531 2.833934 0.282438 C 2.865183 0.29025 2.915963 0.298063 2.947212 0.305875 C 2.978461 0.313688 3.029241 0.3215 3.06049 0.329313 C 3.091739 0.337125 3.142519 0.348844 3.173768 0.356656 C 3.205017 0.360563 3.255796 0.372281 3.287045 0.380094 C 3.318295 0.387906 3.369074 0.399625 3.400323 0.407438 C 3.431572 0.41525 3.482352 0.426969 3.513601 0.434781 C 3.54485 0.442594 3.59563 0.454313 3.626879 0.462125 C 3.658128 0.469938 3.708908 0.485563 3.740157 0.493375 C 3.771406 0.501188 3.822186 0.512906 3.853435 0.524625 C 3.884684 0.532438 3.935464 0.548063 3.966713 0.555875 C 3.997962 0.563688 4.048741 0.579313 4.07999 0.587125 C 4.11124 0.594938 4.162019 0.610563 4.193268 0.618375 C 4.224517 0.630094 4.275297 0.645719 4.306546 0.653531 C 4.337795 0.66525 4.388575 0.680875 4.419824 0.688688 C 4.451073 0.700406 4.501853 0.716031 4.533102 0.723844 C 4.564351 0.735563 4.615131 0.751188 4.64638 0.762906 C 4.677629 0.770719 4.728409 0.79025 4.759658 0.798063 C 4.790907 0.809781 4.841686 0.825406 4.872935 0.837125 C 4.904184 0.848844 4.954964 0.864469 4.986213 0.876188 C 5.017462 0.887906 5.068242 0.907438 5.099491 0.919156 C 5.13074 0.926969 5.18152 0.9465 5.212769 0.958219 C 5.244018 0.969938 5.294798 0.989469 5.326047 1.001188 C 5.357296 1.012906 5.408076 1.032438 5.439325 1.044156 C 5.470574 1.055875 5.521353 1.075406 5.552603 1.087125 C 5.583852 1.098844 5.634631 1.118375 5.66588 1.134 C 5.697129 1.145719 5.747909 1.16525 5.779158 1.176969 C 5.810407 1.192594 5.861187 1.212125 5.892436 1.223844 C 5.923685 1.239469 5.974465 1.259 6.005714 1.270719 C 6.036963 1.286344 6.087743 1.305875 6.118992 1.3215 C 6.150241 1.333219 6.201021 1.356656 6.23227 1.368375 C 6.263519 1.384 6.314298 1.407438 6.345547 1.419156 C 6.376797 1.434781 6.427576 1.458219 6.458825 1.473844 C 6.490074 1.485563 6.540854 1.509 6.572103 1.524625 C 6.603352 1.54025 6.654132 1.563688 6.685381 1.575406 C 6.71663 1.591031 6.76741 1.614469 6.798659 1.630094 C 6.829908 1.645719 6.880688 1.669156 6.911937 1.684781 C 6.943186 1.700406 6.993966 1.723844 7.025215 1.739469 C 7.056464 1.755094 7.107243 1.782438 7.138492 1.798063 C 7.169742 1.813688 7.220521 1.841031 7.25177 1.856656 C 7.283019 1.872281 7.333799 1.895719 7.365048 1.91525 C 7.396297 1.930875 7.447077 1.958219 7.478326 1.973844 C 7.509575 1.989469 7.560355 2.016813 7.591604 2.032438 C 7.622853 2.051969 7.673633 2.079313 7.704882 2.094938 C 7.736131 2.110563 7.786911 2.137906 7.81816 2.157438 C 7.849409 2.173063 7.900188 2.200406 7.931437 2.219938 C 7.962686 2.235563 8.013466 2.266813 8.044715 2.282438 C 8.075964 2.301969 8.126744 2.329313 8.157993 2.348844 C 8.189242 2.364469 8.240022 2.395719 8.271271 2.41525 C 8.30252 2.430875 8.3533 2.462125 8.384549 2.481656 C 8.415798 2.497281 8.466578 2.528531 8.497827 2.548063 C 8.529076 2.567594 8.579855 2.598844 8.611105 2.614469 C 8.642354 2.634 8.693133 2.66525 8.724382 2.684781 C 8.755631 2.704313 8.806411 2.735563 8.83766 2.755094 C 8.868909 2.774625 8.919689 2.805875 8.950938 2.825406 C 8.982187 2.848844 9.032967 2.880094 9.064216 2.899625 C 9.095465 2.919156 9.146245 2.950406 9.177494 2.973844 C 9.212649 2.993375 9.259523 3.024625 9.290772 3.044156 C 9.325927 3.067594 9.3728 3.098844 9.404049 3.122281 C 9.439205 3.141813 9.486078 3.176969 9.517327 3.1965 C 9.552483 3.216031 9.599356 3.251188 9.634511 3.274625 C 9.66576 3.294156 9.712634 3.329313 9.747789 3.348844 C 9.779038 3.372281 9.825912 3.407438 9.861067 3.426969 C 9.892316 3.450406 9.943096 3.485563 9.974345 3.509 C 10.005594 3.528531 10.056374 3.567594 10.087623 3.587125 C 10.118872 3.610563 10.169652 3.645719 10.200901 3.669156 C 10.23215 3.692594 10.282929 3.72775 10.314178 3.751188 C 10.345427 3.774625 10.396207 3.809781 10.427456 3.833219 C 10.458705 3.856656 10.509485 3.895719 10.540734 3.919156 C 10.571983 3.942594 10.622763 3.97775 10.654012 4.001188 C 10.685261 4.028531 10.736041 4.063688 10.76729 4.087125 C 10.798539 4.114469 10.849319 4.149625 10.880568 4.176969 C 10.911817 4.200406 10.962596 4.239469 10.993846 4.262906 C 11.025095 4.286344 11.075874 4.325406 11.107123 4.35275 C 11.138372 4.376188 11.189152 4.41525 11.220401 4.438688 C 11.25165 4.466031 11.30243 4.505094 11.333679 4.528531 C 11.364928 4.555875 11.415708 4.594938 11.446957 4.622281 C 11.478206 4.645719 11.528986 4.688688 11.560235 4.712125 C 11.591484 4.739469 11.642264 4.782438 11.673513 4.805875 C 11.704762 4.833219 11.755541 4.872281 11.786791 4.899625 C 11.81804 4.926969 11.868819 4.969938 11.900068 4.993375 C 11.931317 5.020719 11.982097 5.063688 12.013346 5.091031 C 12.044595 5.118375 12.095375 5.161344 12.126624 5.184781 C 12.157873 5.212125 12.208653 5.259 12.239902 5.282438 C 12.271151 5.309781 12.321931 5.356656 12.35318 5.384 C 12.384429 5.411344 12.435209 5.454313 12.466458 5.481656 C 12.497707 5.509 12.548486 5.555875 12.579735 5.583219 C 12.610985 5.610563 12.661764 5.653531 12.693013 5.680875 C 12.724262 5.712125 12.775042 5.755094 12.806291 5.786344 C 12.83754 5.813688 12.88832 5.860563 12.919569 5.887906 C 12.950818 5.91525 13.001598 5.962125 13.032847 5.993375 C 13.064096 6.020719 13.114876 6.067594 13.146125 6.094938 C 13.177374 6.126188 13.228154 6.173063 13.259403 6.200406 C 13.290652 6.231656 13.341431 6.278531 13.37268 6.309781 C 13.403929 6.337125 13.454709 6.384 13.485958 6.41525 C 13.517207 6.4465 13.567987 6.493375 13.599236 6.524625 C 13.630485 6.551969 13.681265 6.60275 13.712514 6.634 C 13.743763 6.66525 13.794543 6.712125 13.825792 6.743375 C 13.857041 6.774625 13.907821 6.8215 13.93907 6.85275 C 13.970319 6.884 14.021098 6.934781 14.052348 6.966031 C 14.083597 6.997281 14.134376 7.048063 14.165625 7.079313 C 14.196874 7.110563 14.247654 7.161344 14.278903 7.192594 C 14.310152 7.223844 14.360932 7.274625 14.392181 7.305875 C 14.42343 7.337125 14.47421 7.391813 14.505459 7.423063 C 14.536708 7.454313 14.587488 7.505094 14.618737 7.54025 C 14.649986 7.5715 14.700766 7.622281 14.732015 7.657438 C 14.763264 7.688688 14.814043 7.743375 14.845293 7.774625 C 14.876542 7.805875 14.927321 7.860563 14.95857 7.895719 C 14.989819 7.926969 15.040599 7.981656 15.071848 8.012906 C 15.103097 8.048063 15.153877 8.10275 15.185126 8.134 C 15.216375 8.169156 15.267155 8.223844 15.298404 8.255094 C 15.329653 8.29025 15.380433 8.344938 15.411682 8.380094 C 15.442931 8.41525 15.493711 8.469938 15.52496 8.505094 C 15.556209 8.536344 15.606988 8.594938 15.638237 8.626188 C 15.669487 8.661344 15.720266 8.719938 15.751515 8.755094 C 15.782764 8.786344 15.833544 8.844938 15.864793 8.880094 C 15.896042 8.91525 15.946822 8.969938 15.978071 9.005094 C 16.00932 9.04025 16.0601 9.098844 16.091349 9.134 C 16.122598 9.169156 16.173378 9.22775 16.204627 9.262906 C 16.235876 9.301969 16.286656 9.356656 16.317905 9.395719 C 16.349154 9.430875 16.399933 9.489469 16.431182 9.524625 C 16.462431 9.563688 16.513211 9.618375 16.54446 9.657438 C 16.575709 9.692594 16.626489 9.751188 16.657738 9.79025 C 16.688987 9.825406 16.739767 9.887906 16.771016 9.923063 C 16.802265 9.962125 16.853045 10.020719 16.884294 10.055875 C 16.915543 10.094938 16.966323 10.157438 16.997572 10.192594 C 17.028821 10.231656 17.0796 10.29025 17.11085 10.329313 C 17.142099 10.368375 17.192878 10.426969 17.224127 10.466031 C 17.255376 10.505094 17.306156 10.567594 17.337405 10.606656 C 17.368654 10.645719 17.419434 10.704313 17.450683 10.743375 C 17.481932 10.782438 17.532712 10.844938 17.563961 10.884 C 17.59521 10.923063 17.64599 10.985563 17.677239 11.024625 C 17.708488 11.063688 17.759268 11.126188 17.790517 11.16525 C 17.821766 11.204313 17.872545 11.270719 17.903794 11.309781 C 17.935044 11.348844 17.985823 11.411344 18.017072 11.454313 C 18.048321 11.493375 18.099101 11.555875 18.13035 11.598844 C 18.161599 11.637906 18.212379 11.704313 18.243628 11.743375 C 18.274877 11.782438 18.325657 11.848844 18.356906 11.887906 C 18.388155 11.930875 18.438935 11.997281 18.470184 12.036344 C 18.505339 12.079313 18.552213 12.145719 18.583462 12.184781 C 18.618617 12.22775 18.66549 12.294156 18.696739 12.333219 C 18.731895 12.376188 18.778768 12.442594 18.810017 12.485563 C 18.845173 12.524625 18.892046 12.591031 18.927201 12.634 C 18.95845 12.676969 19.005324 12.743375 19.040479 12.786344 C 19.071728 12.829313 19.118602 12.895719 19.153757 12.938688 C 19.185006 12.981656 19.23188 13.051969 19.267035 13.091031 C 19.298284 13.134 19.345158 13.204313 19.380313 13.247281 C 19.411562 13.29025 19.462341 13.360563 19.493591 13.403531 C 19.52484 13.4465 19.575619 13.516813 19.606868 13.559781 C 19.638117 13.60275 19.688897 13.673063 19.720146 13.716031 C 19.751395 13.759 19.802175 13.829313 19.833424 13.876188 C 19.864673 13.919156 19.915453 13.989469 19.946702 14.032438 C 19.977951 14.079313 20.028731 14.149625 20.05998 14.192594 C 20.091229 14.239469 20.142009 14.309781 20.173258 14.35275 C 20.204507 14.399625 20.255286 14.469938 20.286536 14.516813 C 20.317785 14.559781 20.368564 14.634 20.399813 14.676969 C 20.431062 14.723844 20.481842 14.798063 20.513091 14.841031 C 20.54434 14.887906 20.59512 14.962125 20.626369 15.005094 C 20.657618 15.051969 20.708398 15.126188 20.739647 15.173063 C 20.770896 15.219938 20.821676 15.29025 20.852925 15.337125 C 20.884174 15.384 20.934954 15.458219 20.966203 15.505094 C 20.997452 15.551969 21.048231 15.626188 21.07948 15.673063 C 21.11073 15.719938 21.161509 15.794156 21.192758 15.841031 C 21.224007 15.887906 21.274787 15.966031 21.306036 16.012906 C 21.337285 16.059781 21.388065 16.134 21.419314 16.184781 C 21.450563 16.231656 21.501343 16.305875 21.532592 16.356656 C 21.563841 16.403531 21.614621 16.47775 21.64587 16.528531 C 21.677119 16.575406 21.727899 16.653531 21.759148 16.700406 C 21.790397 16.751188 21.841176 16.825406 21.872425 16.876188 C 21.903674 16.923063 21.954454 17.001188 21.985703 17.051969 C 22.016952 17.098844 22.067732 17.176969 22.098981 17.22775 C 22.13023 17.274625 22.18101 17.356656 22.212259 17.403531 C 22.243508 17.454313 22.294288 17.532438 22.325537 17.583219 C 22.356786 17.630094 22.407566 17.712125 22.438815 17.762906 C 22.470064 17.809781 22.520843 17.891813 22.552093 17.942594 C 22.583342 17.989469 22.634121 18.0715 22.66537 18.122281 C 22.696619 18.173063 22.747399 18.251188 22.778648 18.301969 C 22.809897 18.35275 22.860677 18.434781 22.891926 18.485563 C 22.923175 18.536344 22.973955 18.618375 23.005204 18.669156 C 23.036453 18.719938 23.087233 18.801969 23.118482 18.85275 C 23.149731 18.903531 23.200511 18.989469 23.23176 19.04025 C 23.263009 19.091031 23.313788 19.173063 23.345038 19.223844 C 23.376287 19.278531 23.427066 19.360563 23.458315 19.411344 C 23.489564 19.466031 23.540344 19.548063 23.571593 19.598844 C 23.602842 19.653531 23.653622 19.735563 23.684871 19.79025 C 23.71612 19.841031 23.7669 19.926969 23.798149 19.97775 C 23.829398 20.032438 23.880178 20.118375 23.911427 20.169156 C 23.942676 20.223844 23.993456 20.309781 24.024705 20.360563 C 24.055954 20.41525 24.106733 20.501188 24.137982 20.555875 C 24.169232 20.606656 24.220011 20.692594 24.25126 20.747281 C 24.282509 20.801969 24.333289 20.887906 24.364538 20.942594 C 24.395787 20.997281 24.446567 21.083219 24.477816 21.137906 C 24.509065 21.192594 24.559845 21.278531 24.591094 21.333219 C 24.622343 21.387906 24.673123 21.473844 24.704372 21.528531 C 24.735621 21.587125 24.786401 21.673063 24.81765 21.72775 C 24.848899 21.782438 24.899678 21.872281 24.930927 21.926969 C 24.962176 21.981656 25.012956 22.0715 25.044205 22.126188 C 25.075454 22.184781 25.126234 22.270719 25.157483 22.329313 C 25.188732 22.384 25.239512 22.473844 25.270761 22.528531 C 25.30201 22.587125 25.35279 22.676969 25.384039 22.731656 C 25.415288 22.786344 25.466068 22.880094 25.497317 22.934781 C 25.528566 22.993375 25.579345 23.083219 25.610595 23.141813 C 25.641844 23.1965 25.692623 23.286344 25.723872 23.344938 C 25.755121 23.403531 25.805901 23.493375 25.83715 23.551969 C 25.868399 23.606656 25.919179 23.700406 25.950428 23.759 C 25.981677 23.813688 26.032457 23.907438 26.063706 23.966031 C 26.094955 24.024625 26.145735 24.118375 26.176984 24.173063 C 26.208233 24.231656 26.259013 24.325406 26.290262 24.384 C 26.321511 24.442594 26.37229 24.536344 26.40354 24.594938 C 26.434789 24.653531 26.485568 24.747281 26.516817 24.805875 C 26.548066 24.864469 26.598846 24.962125 26.630095 25.020719 C 26.661344 25.079313 26.712124 25.173063 26.743373 25.231656 C 26.774622 25.294156 26.825402 25.387906 26.856651 25.4465 C 26.8879 25.505094 26.93868 25.60275 26.969929 25.661344 C 27.001178 25.723844 27.051958 25.817594 27.083207 25.880094 C 27.114456 25.938688 27.165235 26.036344 27.196484 26.094938 C 27.227734 26.157438 27.278513 26.251188 27.309762 26.313688 C 27.341011 26.372281 27.391791 26.469938 27.42304 26.532438 C 27.454289 26.594938 27.505069 26.692594 27.536318 26.751188 C 27.567567 26.813688 27.618347 26.911344 27.649596 26.973844 C 27.680845 27.032438 27.731625 27.134 27.762874 27.192594 C 27.794123 27.255094 27.844903 27.35275 27.876152 27.41525 C 27.911307 27.47775 27.95818 27.579313 27.989429 27.641813 C 28.024585 27.700406 28.071458 27.801969 28.102707 27.864469 C 28.137862 27.926969 28.184736 28.028531 28.215985 28.091031 C 28.25114 28.153531 28.298014 28.251188 28.333169 28.317594 C 28.364418 28.380094 28.411292 28.47775 28.446447 28.544156 C 28.477696 28.606656 28.52457 28.708219 28.559725 28.770719 C 28.590974 28.833219 28.637847 28.934781 28.673003 28.997281 C 28.704252 29.063688 28.755031 29.16525 28.786281 29.22775 C 28.81753 29.294156 28.868309 29.395719 28.899558 29.458219 C 28.930807 29.524625 28.981587 29.626188 29.012836 29.692594 C 29.044085 29.755094 29.094865 29.860563 29.126114 29.923063 C 29.157363 29.989469 29.208143 30.091031 29.239392 30.157438 C 29.270641 30.219938 29.321421 30.325406 29.35267 30.391813 C 29.383919 30.454313 29.434699 30.559781 29.465948 30.626188 C 29.497197 30.692594 29.547976 30.798063 29.579225 30.860563 C 29.610475 30.926969 29.661254 31.032438 29.692503 31.098844 C 29.723752 31.16525 29.774532 31.270719 29.805781 31.337125 C 29.83703 31.403531 29.88781 31.509 29.919059 31.575406 C 29.950308 31.641813 30.001088 31.747281 30.032337 31.813688 C 30.063586 31.880094 30.114366 31.989469 30.145615 32.055875 C 30.176864 32.122281 30.227644 32.231656 30.258893 32.298063 C 30.290142 32.364469 30.340921 32.473844 30.37217 32.54025 C 30.40342 32.606656 30.454199 32.716031 30.485448 32.782438 C 30.516697 32.848844 30.567477 32.958219 30.598726 33.028531 C 30.629975 33.094938 30.680755 33.204313 30.712004 33.270719 C 30.743253 33.341031 30.794033 33.450406 30.825282 33.516813 C 30.856531 33.587125 30.907311 33.6965 30.93856 33.766813 C 30.969809 33.833219 31.020588 33.942594 31.051838 34.012906 C 31.083087 34.083219 31.133866 34.192594 31.165115 34.262906 C 31.196364 34.329313 31.247144 34.442594 31.278393 34.512906 C 31.309642 34.579313 31.360422 34.692594 31.391671 34.762906 C 31.42292 34.833219 31.4737 34.942594 31.504949 35.012906 C 31.536198 35.083219 31.586978 35.1965 31.618227 35.266813 C 31.649476 35.337125 31.700256 35.450406 31.731505 35.520719 C 31.762754 35.591031 31.813533 35.704313 31.844783 35.774625 C 31.876032 35.844938 31.926811 35.958219 31.95806 36.028531 C 31.989309 36.098844 32.040089 36.212125 32.071338 36.282438 C 32.102587 36.356656 32.153367 36.469938 32.184616 36.54025 C 32.215865 36.614469 32.266645 36.72775 32.297894 36.798063 C 32.329143 36.872281 32.379923 36.985563 32.411172 37.055875 C 32.442421 37.130094 32.493201 37.243375 32.52445 37.317594 C 32.555699 37.387906 32.606478 37.505094 32.637727 37.579313 C 32.668977 37.649625 32.719756 37.766813 32.751005 37.837125 C 32.782254 37.911344 32.833034 38.028531 32.864283 38.10275 C 32.895532 38.173063 32.946312 38.29025 32.977561 38.364469 C 33.00881 38.438688 33.05959 38.555875 33.090839 38.630094 C 33.122088 38.700406 33.172868 38.8215 33.204117 38.895719 C 33.235366 38.966031 33.286146 39.087125 33.317395 39.161344 C 33.348644 39.235563 33.399423 39.35275 33.430672 39.426969 C 33.461922 39.501188 33.512701 39.618375 33.54395 39.692594 C 33.575199 39.770719 33.625979 39.887906 33.657228 39.962125 C 33.688477 40.036344 33.739257 40.157438 33.770506 40.231656 C 33.801755 40.305875 33.852535 40.426969 33.883784 40.501188 C 33.915033 40.579313 33.965813 40.700406 33.997062 40.774625 C 34.028311 40.848844 34.07909 40.969938 34.11034 41.048063 C 34.141589 41.122281 34.192368 41.243375 34.223617 41.3215 C 34.254866 41.395719 34.305646 41.516813 34.336895 41.594938 C 34.368144 41.669156 34.418924 41.794156 34.450173 41.868375 C 34.481422 41.9465 34.532202 42.067594 34.563451 42.145719 C 34.5947 42.219938 34.64548 42.344938 34.676729 42.423063 C 34.707978 42.497281 34.758758 42.622281 34.790007 42.700406 C 34.821256 42.774625 34.872035 42.899625 34.903285 42.97775 C 34.934534 43.055875 34.985313 43.180875 35.016562 43.259 C 35.047811 43.337125 35.098591 43.458219 35.12984 43.536344 C 35.161089 43.614469 35.211869 43.739469 35.243118 43.817594 C 35.274367 43.895719 35.325147 44.024625 35.356396 44.10275 C 35.387645 44.180875 35.438425 44.305875 35.469674 44.384 C 35.500923 44.462125 35.551703 44.591031 35.582952 44.669156 C 35.614201 44.747281 35.66498 44.876188 35.696229 44.954313 C 35.727479 45.032438 35.778258 45.161344 35.809507 45.239469 C 35.840756 45.317594 35.891536 45.4465 35.922785 45.524625 C 35.954034 45.606656 36.004814 45.735563 36.036063 45.813688 C 36.067312 45.895719 36.118092 46.020719 36.149341 46.10275 C 36.18059 46.180875 36.23137 46.313688 36.262619 46.391813 C 36.293868 46.473844 36.344648 46.60275 36.375897 46.680875 C 36.407146 46.762906 36.457925 46.891813 36.489174 46.973844 C 36.520423 47.055875 36.571203 47.184781 36.602452 47.266813 C 36.633701 47.348844 36.684481 47.47775 36.71573 47.559781 C 36.746979 47.641813 36.797759 47.770719 36.829008 47.85275 C 36.860257 47.934781 36.911037 48.067594 36.942286 48.149625 C 36.973535 48.231656 37.024315 48.360563 37.055564 48.442594 C 37.086813 48.524625 37.137592 48.657438 37.168842 48.739469 C 37.200091 48.8215 37.25087 48.954313 37.282119 49.04025 C 37.317275 49.122281 37.364148 49.255094 37.395397 49.337125 C 37.430552 49.419156 37.477426 49.551969 37.508675 49.637906 C 37.54383 49.719938 37.590704 49.85275 37.621953 49.938688 C 37.657108 50.020719 37.703982 50.153531 37.739137 50.239469 C 37.770386 50.3215 37.81726 50.458219 37.852415 50.54025 C 37.883664 50.626188 37.930537 50.759 37.965693 50.844938 C 37.996942 50.926969 38.043815 51.063688 38.07897 51.145719 C 38.11022 51.231656 38.160999 51.368375 38.192248 51.450406 C 38.223497 51.536344 38.274277 51.673063 38.305526 51.759 C 38.336775 51.841031 38.387555 51.981656 38.418804 52.063688 C 38.450053 52.149625 38.500833 52.286344 38.532082 52.372281 C 38.563331 52.458219 38.614111 52.594938 38.64536 52.680875 C 38.676609 52.766813 38.727389 52.903531 38.758638 52.989469 C 38.789887 53.075406 38.840666 53.216031 38.871915 53.301969 C 38.903165 53.387906 38.953944 53.524625 38.985193 53.610563 C 39.016442 53.700406 39.067222 53.837125 39.098471 53.923063 C 39.12972 54.009 39.1805 54.149625 39.211749 54.235563 C 39.242998 54.325406 39.293778 54.462125 39.325027 54.551969 C 39.356276 54.637906 39.407056 54.778531 39.438305 54.864469 C 39.469554 54.954313 39.520333 55.094938 39.551583 55.180875 C 39.582832 55.270719 39.633611 55.411344 39.66486 55.497281 C 39.696109 55.587125 39.746889 55.72775 39.778138 55.817594 C 39.809387 55.903531 39.860167 56.048063 39.891416 56.134 C 39.922665 56.223844 39.973445 56.364469 40.004694 56.454313 C 40.035943 56.544156 40.086723 56.684781 40.117972 56.774625 C 40.149221 56.864469 40.200001 57.005094 40.23125 57.094938 C 40.262499 57.184781 40.313278 57.329313 40.344528 57.419156 C 40.375777 57.509 40.426556 57.649625 40.457805 57.739469 C 40.489054 57.829313 40.539834 57.973844 40.571083 58.063688 C 40.602332 58.153531 40.653112 58.298063 40.684361 58.387906 C 40.71561 58.481656 40.76639 58.626188 40.797639 58.716031 C 40.828888 58.805875 40.879668 58.950406 40.910917 59.04025 C 40.942166 59.134 40.992946 59.278531 41.024195 59.368375 C 41.055444 59.462125 41.106223 59.606656 41.137472 59.6965 C 41.168722 59.79025 41.219501 59.934781 41.25075 60.028531 C 41.281999 60.118375 41.332779 60.266813 41.364028 60.356656 C 41.395277 60.450406 41.446057 60.594938 41.477306 60.688688 C 41.508555 60.782438 41.559335 60.926969 41.590584 61.020719 C 41.621833 61.114469 41.672613 61.262906 41.703862 61.35275 C 41.735111 61.4465 41.785891 61.594938 41.81714 61.688688 C 41.848389 61.778531 41.899168 61.930875 41.930417 62.020719 C 41.961667 62.114469 42.012446 62.266813 42.043695 62.356656 C 42.074944 62.450406 42.125724 62.60275 42.156973 62.6965 C 42.188222 62.786344 42.239002 62.938688 42.270251 63.032438 C 42.3015 63.126188 42.35228 63.278531 42.383529 63.372281 C 42.414778 63.466031 42.465558 63.614469 42.496807 63.712125 C 42.528056 63.805875 42.578835 63.954313 42.610085 64.051969 C 42.641334 64.145719 42.692113 64.298063 42.723362 64.391813 C 42.754611 64.485563 42.805391 64.637906 42.83664 64.735563 C 42.867889 64.829313 42.918669 64.981656 42.949918 65.075406 C 42.981167 65.173063 43.031947 65.325406 43.063196 65.419156 C 43.094445 65.516813 43.145225 65.669156 43.176474 65.766813 C 43.207723 65.860563 43.258503 66.012906 43.289752 66.110563 C 43.321001 66.208219 43.37178 66.360563 43.40303 66.458219 C 43.434279 66.551969 43.485058 66.708219 43.516307 66.805875 C 43.547556 66.903531 43.598336 67.055875 43.629585 67.153531 C 43.660834 67.251188 43.711614 67.407438 43.742863 67.501188 C 43.774112 67.598844 43.824892 67.755094 43.856141 67.85275 C 43.88739 67.950406 43.93817 68.106656 43.969419 68.204313 C 44.000668 68.301969 44.051448 68.458219 44.082697 68.555875 C 44.113946 68.653531 44.164725 68.809781 44.195974 68.907438 C 44.227224 69.005094 44.278003 69.16525 44.309252 69.262906 C 44.340501 69.360563 44.391281 69.520719 44.42253 69.618375 C 44.453779 69.716031 44.504559 69.872281 44.535808 69.973844 C 44.567057 70.0715 44.617837 70.231656 44.649086 70.329313 C 44.680335 70.426969 44.731115 70.587125 44.762364 70.688688 C 44.793613 70.786344 44.844393 70.9465 44.875642 71.044156 C 44.906891 71.145719 44.95767 71.305875 44.988919 71.403531 C 45.020169 71.505094 45.070948 71.66525 45.102197 71.766813 C 45.133446 71.864469 45.184226 72.024625 45.215475 72.126188 C 45.246724 72.22775 45.297504 72.387906 45.328753 72.489469 C 45.360002 72.587125 45.410782 72.751188 45.442031 72.848844 C 45.47328 72.950406 45.52406 73.114469 45.555309 73.216031 C 45.586558 73.313688 45.637337 73.47775 45.668587 73.579313 C 45.699836 73.680875 45.750615 73.844938 45.781864 73.9465 C 45.813113 74.048063 45.863893 74.208219 45.895142 74.309781 C 45.926391 74.411344 45.977171 74.575406 46.00842 74.680875 C 46.039669 74.782438 46.090449 74.9465 46.121698 75.048063 C 46.152947 75.149625 46.203727 75.313688 46.234976 75.41525 C 46.266225 75.520719 46.317005 75.684781 46.348254 75.786344 C 46.379503 75.887906 46.430282 76.055875 46.461532 76.157438 C 46.492781 76.259 46.54356 76.426969 46.574809 76.528531 C 46.606058 76.634 46.656838 76.798063 46.688087 76.903531 C 46.723242 77.005094 46.770116 77.173063 46.801365 77.274625 C 46.83652 77.380094 46.883394 77.548063 46.914643 77.649625 C 46.949798 77.755094 46.996672 77.923063 47.027921 78.024625 C 47.063076 78.130094 47.10995 78.298063 47.145105 78.403531 C 47.176354 78.509 47.223227 78.676969 47.258383 78.778531 C 47.289632 78.884 47.336505 79.051969 47.37166 79.157438 C 47.40291 79.262906 47.449783 79.430875 47.484938 79.536344 C 47.516187 79.641813 47.566967 79.813688 47.598216 79.919156 C 47.629465 80.024625 47.680245 80.192594 47.711494 80.298063 C 47.742743 80.403531 47.793523 80.575406 47.824772 80.680875 C 47.856021 80.786344 47.906801 80.958219 47.93805 81.063688 C 47.969299 81.169156 48.020079 81.341031 48.051328 81.4465 C 48.082577 81.555875 48.133356 81.723844 48.164605 81.833219 C 48.195854 81.938688 48.246634 82.110563 48.277883 82.216031 C 48.309132 82.325406 48.359912 82.497281 48.391161 82.60275 C 48.42241 82.712125 48.47319 82.884 48.504439 82.993375 C 48.535688 83.098844 48.586468 83.270719 48.617717 83.380094 C 48.648966 83.489469 48.699746 83.661344 48.730995 83.766813 C 48.762244 83.876188 48.813023 84.051969 48.844273 84.157438 C 48.875522 84.266813 48.926301 84.442594 48.95755 84.548063 C 48.988799 84.657438 49.039579 84.833219 49.070828 84.942594 C 49.102077 85.051969 49.152857 85.223844 49.184106 85.333219 C 49.215355 85.442594 49.266135 85.618375 49.297384 85.72775 C 49.328633 85.837125 49.379413 86.012906 49.410662 86.122281 C 49.441911 86.231656 49.492691 86.407438 49.52394 86.516813 C 49.555189 86.630094 49.605968 86.805875 49.637217 86.91525 C 49.668467 87.024625 49.719246 87.200406 49.750495 87.313688 C 49.781744 87.423063 49.832524 87.598844 49.863773 87.712125 C 49.895022 87.8215 49.945802 87.997281 49.977051 88.110563 C 50.0083 88.219938 50.05908 88.399625 50.090329 88.509 C 50.121578 88.622281 50.172358 88.798063 50.203607 88.911344 C 50.234856 89.020719 50.285636 89.200406 50.316885 89.313688 C 50.348134 89.423063 50.398913 89.60275 50.430162 89.716031 C 50.461412 89.825406 50.512191 90.005094 50.54344 90.118375 C 50.574689 90.231656 50.625469 90.411344 50.656718 90.524625 C 50.687967 90.634 50.738747 90.817594 50.769996 90.930875 C 50.801245 91.04025 50.852025 91.223844 50.883274 91.333219 C 50.914523 91.4465 50.965303 91.630094 50.996552 91.743375 C 51.027801 91.856656 51.078581 92.036344 51.10983 92.149625 C 51.141079 92.262906 51.191858 92.4465 51.223107 92.559781 C 51.254356 92.673063 51.305136 92.856656 51.336385 92.969938 C 51.367634 93.083219 51.418414 93.266813 51.449663 93.380094 C 51.480912 93.493375 51.531692 93.676969 51.562941 93.794156 C 51.59419 93.907438 51.64497 94.091031 51.676219 94.204313 C 51.707468 94.3215 51.758248 94.505094 51.789497 94.618375 C 51.820746 94.735563 51.871525 94.919156 51.902775 95.032438 C 51.934024 95.149625 51.984803 95.333219 52.016052 95.450406 C 52.047301 95.563688 52.098081 95.751188 52.12933 95.864469 C 52.160579 95.981656 52.211359 96.16525 52.242608 96.282438 C 52.273857 96.399625 52.324637 96.583219 52.355886 96.700406 C 52.387135 96.817594 52.437915 97.005094 52.469164 97.118375 C 52.500413 97.235563 52.551193 97.423063 52.582442 97.54025 C 52.613691 97.657438 52.66447 97.844938 52.695719 97.962125 C 52.726969 98.079313 52.777748 98.266813 52.808997 98.384 C 52.840246 98.501188 52.891026 98.688688 52.922275 98.805875 C 52.953524 98.923063 53.004304 99.110563 53.035553 99.22775 C 53.066802 99.344938 53.117582 99.536344 53.148831 99.653531 C 53.18008 99.770719 53.23086 99.962125 53.262109 100.079313 C 53.293358 100.1965 53.344138 100.387906 53.375387 100.505094 C 53.406636 100.622281 53.457415 100.813688 53.488664 100.930875 C 53.519914 101.051969 53.570693 101.243375 53.601942 101.360563 C 53.633191 101.47775 53.683971 101.669156 53.71522 101.79025 C 53.746469 101.907438 53.797249 102.098844 53.828498 102.219938 C 53.859747 102.337125 53.910527 102.532438 53.941776 102.649625 C 53.973025 102.770719 54.023805 102.962125 54.055054 103.083219 C 54.086303 103.200406 54.137082 103.395719 54.168332 103.512906 C 54.199581 103.634 54.25036 103.829313 54.281609 103.9465 C 54.312858 104.067594 54.363638 104.262906 54.394887 104.384 C 54.426136 104.505094 54.476916 104.6965 54.508165 104.817594 C 54.539414 104.938688 54.590194 105.134 54.621443 105.255094 C 54.652692 105.376188 54.703472 105.5715 54.734721 105.692594 C 54.76597 105.813688 54.81675 106.009 54.847999 106.130094 C 54.879248 106.251188 54.930027 106.4465 54.961277 106.567594 C 54.992526 106.688688 55.043305 106.887906 55.074554 107.009 C 55.105803 107.130094 55.156583 107.325406 55.187832 107.450406 C 55.219081 107.5715 55.269861 107.766813 55.30111 107.891813 C 55.332359 108.012906 55.383139 108.212125 55.414388 108.333219 C 55.445637 108.458219 55.496417 108.653531 55.527666 108.778531 C 55.558915 108.899625 55.609695 109.098844 55.640944 109.223844 C 55.672193 109.344938 55.722972 109.544156 55.754221 109.66525 C 55.785471 109.79025 55.83625 109.989469 55.867499 110.114469 C 55.898748 110.235563 55.949528 110.434781 55.980777 110.559781 C 56.012026 110.684781 56.062806 110.884 56.094055 111.009 C 56.12921 111.134 56.176084 111.333219 56.207333 111.458219 C 56.242488 111.583219 56.289362 111.782438 56.320611 111.907438 C 56.355766 112.032438 56.40264 112.231656 56.433889 112.356656 C 56.469044 112.481656 56.515917 112.684781 56.551073 112.809781 C 56.582322 112.934781 56.66435 113.262906 56.66435 113.262906 " transform="matrix(1.00003, 0, 0, -1, 58.9902, 115.384)"/>
<path fill="none" stroke-width="0.79701" stroke-linecap="butt" stroke-linejoin="miter" stroke="rgb(0%, 0%, 100%)" stroke-opacity="1" stroke-miterlimit="10" d="M -56.69553 113.387906 C -56.69553 113.387906 -56.613501 113.059781 -56.578346 112.934781 C -56.547097 112.809781 -56.500223 112.606656 -56.465068 112.481656 C -56.433819 112.356656 -56.386946 112.157438 -56.35179 112.032438 C -56.320541 111.907438 -56.273668 111.704313 -56.238512 111.579313 C -56.207263 111.454313 -56.156484 111.255094 -56.125235 111.130094 C -56.093986 111.009 -56.043206 110.805875 -56.011957 110.684781 C -55.980708 110.559781 -55.929928 110.360563 -55.898679 110.235563 C -55.86743 110.110563 -55.81665 109.91525 -55.785401 109.79025 C -55.754152 109.66525 -55.703372 109.466031 -55.672123 109.344938 C -55.640874 109.219938 -55.590094 109.020719 -55.558845 108.899625 C -55.527596 108.774625 -55.476817 108.579313 -55.445568 108.454313 C -55.414318 108.333219 -55.363539 108.134 -55.33229 108.012906 C -55.301041 107.887906 -55.250261 107.692594 -55.219012 107.5715 C -55.187763 107.4465 -55.136983 107.251188 -55.105734 107.130094 C -55.074485 107.009 -55.023705 106.809781 -54.992456 106.688688 C -54.961207 106.567594 -54.910427 106.372281 -54.879178 106.251188 C -54.847929 106.130094 -54.797149 105.934781 -54.7659 105.813688 C -54.734651 105.688688 -54.683872 105.497281 -54.652623 105.376188 C -54.621373 105.255094 -54.570594 105.059781 -54.539345 104.938688 C -54.508096 104.817594 -54.457316 104.622281 -54.426067 104.501188 C -54.394818 104.380094 -54.344038 104.188688 -54.312789 104.067594 C -54.28154 103.9465 -54.23076 103.755094 -54.199511 103.634 C -54.168262 103.512906 -54.117482 103.3215 -54.086233 103.200406 C -54.054984 103.079313 -54.004205 102.887906 -53.972955 102.770719 C -53.941706 102.649625 -53.890927 102.458219 -53.859678 102.337125 C -53.828429 102.219938 -53.777649 102.028531 -53.7464 101.907438 C -53.715151 101.79025 -53.664371 101.598844 -53.633122 101.47775 C -53.601873 101.360563 -53.551093 101.169156 -53.519844 101.048063 C -53.488595 100.930875 -53.437815 100.739469 -53.406566 100.622281 C -53.375317 100.505094 -53.324537 100.313688 -53.293288 100.1965 C -53.262039 100.079313 -53.21126 99.887906 -53.18001 99.770719 C -53.148761 99.653531 -53.097982 99.462125 -53.066733 99.344938 C -53.035484 99.22775 -52.984704 99.04025 -52.953455 98.923063 C -52.922206 98.801969 -52.871426 98.614469 -52.840177 98.497281 C -52.808928 98.380094 -52.758148 98.192594 -52.726899 98.075406 C -52.69565 97.958219 -52.64487 97.770719 -52.613621 97.653531 C -52.582372 97.54025 -52.531592 97.35275 -52.500343 97.235563 C -52.469094 97.118375 -52.418315 96.930875 -52.387066 96.817594 C -52.355816 96.700406 -52.305037 96.512906 -52.273788 96.395719 C -52.242539 96.282438 -52.191759 96.094938 -52.16051 95.981656 C -52.129261 95.864469 -52.078481 95.676969 -52.047232 95.563688 C -52.015983 95.4465 -51.965203 95.262906 -51.933954 95.145719 C -51.902705 95.032438 -51.851925 94.848844 -51.820676 94.731656 C -51.789427 94.618375 -51.738647 94.434781 -51.707398 94.317594 C -51.676149 94.204313 -51.62537 94.020719 -51.594121 93.907438 C -51.562872 93.79025 -51.512092 93.606656 -51.480843 93.493375 C -51.449594 93.380094 -51.398814 93.1965 -51.367565 93.083219 C -51.336316 92.969938 -51.285536 92.786344 -51.254287 92.673063 C -51.223038 92.559781 -51.172258 92.376188 -51.141009 92.262906 C -51.10976 92.149625 -51.05898 91.966031 -51.027731 91.85275 C -50.996482 91.743375 -50.945703 91.559781 -50.914453 91.4465 C -50.883204 91.333219 -50.832425 91.153531 -50.801176 91.04025 C -50.769927 90.926969 -50.719147 90.747281 -50.687898 90.634 C -50.656649 90.520719 -50.605869 90.341031 -50.57462 90.231656 C -50.543371 90.118375 -50.492591 89.938688 -50.461342 89.825406 C -50.430093 89.712125 -50.379313 89.536344 -50.348064 89.423063 C -50.316815 89.309781 -50.266035 89.134 -50.234786 89.020719 C -50.203537 88.911344 -50.152758 88.731656 -50.121508 88.618375 C -50.090259 88.509 -50.03948 88.329313 -50.008231 88.219938 C -49.976982 88.110563 -49.926202 87.930875 -49.894953 87.8215 C -49.863704 87.708219 -49.812924 87.532438 -49.781675 87.423063 C -49.750426 87.309781 -49.699646 87.134 -49.668397 87.024625 C -49.637148 86.91525 -49.586368 86.735563 -49.555119 86.626188 C -49.52387 86.516813 -49.47309 86.341031 -49.441841 86.231656 C -49.410592 86.122281 -49.359813 85.9465 -49.328564 85.837125 C -49.297314 85.72775 -49.246535 85.551969 -49.215286 85.442594 C -49.184037 85.333219 -49.133257 85.157438 -49.102008 85.048063 C -49.070759 84.938688 -49.019979 84.766813 -48.98873 84.657438 C -48.957481 84.548063 -48.906701 84.376188 -48.875452 84.266813 C -48.844203 84.157438 -48.793423 83.985563 -48.762174 83.876188 C -48.730925 83.766813 -48.680145 83.594938 -48.648896 83.485563 C -48.617647 83.380094 -48.566868 83.204313 -48.535619 83.098844 C -48.50437 82.989469 -48.45359 82.817594 -48.422341 82.712125 C -48.391092 82.60275 -48.340312 82.430875 -48.309063 82.325406 C -48.277814 82.216031 -48.227034 82.044156 -48.195785 81.938688 C -48.164536 81.829313 -48.113756 81.661344 -48.082507 81.551969 C -48.051258 81.4465 -48.000478 81.274625 -47.969229 81.169156 C -47.93798 81.063688 -47.887201 80.891813 -47.855951 80.786344 C -47.824702 80.680875 -47.773923 80.509 -47.742674 80.403531 C -47.711425 80.298063 -47.660645 80.130094 -47.629396 80.020719 C -47.594241 79.91525 -47.547367 79.747281 -47.516118 79.641813 C -47.480963 79.536344 -47.434089 79.368375 -47.40284 79.262906 C -47.367685 79.157438 -47.320811 78.989469 -47.289562 78.884 C -47.254407 78.778531 -47.207533 78.610563 -47.172378 78.505094 C -47.141129 78.403531 -47.094256 78.235563 -47.0591 78.130094 C -47.027851 78.024625 -46.980978 77.856656 -46.945823 77.755094 C -46.914573 77.649625 -46.8677 77.481656 -46.832545 77.380094 C -46.801296 77.274625 -46.750516 77.110563 -46.719267 77.005094 C -46.688018 76.899625 -46.637238 76.735563 -46.605989 76.630094 C -46.57474 76.528531 -46.52396 76.364469 -46.492711 76.259 C -46.461462 76.157438 -46.410682 75.989469 -46.379433 75.887906 C -46.348184 75.786344 -46.297404 75.622281 -46.266155 75.516813 C -46.234906 75.41525 -46.184127 75.251188 -46.152878 75.149625 C -46.121628 75.048063 -46.070849 74.884 -46.0396 74.778531 C -46.008351 74.676969 -45.957571 74.512906 -45.926322 74.411344 C -45.895073 74.309781 -45.844293 74.145719 -45.813044 74.044156 C -45.781795 73.942594 -45.731015 73.782438 -45.699766 73.680875 C -45.668517 73.579313 -45.617737 73.41525 -45.586488 73.313688 C -45.555239 73.212125 -45.50446 73.051969 -45.47321 72.950406 C -45.441961 72.848844 -45.391182 72.688688 -45.359933 72.587125 C -45.328684 72.485563 -45.277904 72.325406 -45.246655 72.223844 C -45.215406 72.126188 -45.164626 71.966031 -45.133377 71.864469 C -45.102128 71.762906 -45.051348 71.60275 -45.020099 71.505094 C -44.98885 71.403531 -44.93807 71.243375 -44.906821 71.145719 C -44.875572 71.044156 -44.824792 70.884 -44.793543 70.786344 C -44.762294 70.684781 -44.711515 70.528531 -44.680265 70.426969 C -44.649016 70.329313 -44.598237 70.169156 -44.566988 70.0715 C -44.535739 69.969938 -44.484959 69.813688 -44.45371 69.716031 C -44.422461 69.618375 -44.371681 69.458219 -44.340432 69.360563 C -44.309183 69.262906 -44.258403 69.10275 -44.227154 69.005094 C -44.195905 68.907438 -44.145125 68.751188 -44.113876 68.653531 C -44.082627 68.555875 -44.031847 68.399625 -44.000598 68.301969 C -43.969349 68.204313 -43.91857 68.048063 -43.887321 67.950406 C -43.856071 67.85275 -43.805292 67.6965 -43.774043 67.598844 C -43.742794 67.501188 -43.692014 67.344938 -43.660765 67.251188 C -43.629516 67.153531 -43.578736 66.997281 -43.547487 66.899625 C -43.516238 66.805875 -43.465458 66.649625 -43.434209 66.551969 C -43.40296 66.458219 -43.35218 66.301969 -43.320931 66.204313 C -43.289682 66.110563 -43.238902 65.954313 -43.207653 65.860563 C -43.176404 65.762906 -43.125625 65.610563 -43.094376 65.512906 C -43.063126 65.419156 -43.012347 65.266813 -42.981098 65.169156 C -42.949849 65.075406 -42.899069 64.923063 -42.86782 64.829313 C -42.836571 64.731656 -42.785791 64.579313 -42.754542 64.485563 C -42.723293 64.391813 -42.672513 64.239469 -42.641264 64.145719 C -42.610015 64.048063 -42.559235 63.899625 -42.527986 63.801969 C -42.496737 63.708219 -42.445958 63.559781 -42.414708 63.462125 C -42.383459 63.368375 -42.33268 63.219938 -42.301431 63.126188 C -42.270182 63.032438 -42.219402 62.880094 -42.188153 62.786344 C -42.156904 62.692594 -42.106124 62.544156 -42.074875 62.450406 C -42.043626 62.356656 -41.992846 62.208219 -41.961597 62.114469 C -41.930348 62.020719 -41.879568 61.872281 -41.848319 61.778531 C -41.81707 61.684781 -41.76629 61.536344 -41.735041 61.4465 C -41.703792 61.35275 -41.653013 61.204313 -41.621763 61.110563 C -41.590514 61.020719 -41.539735 60.872281 -41.508486 60.778531 C -41.477237 60.688688 -41.426457 60.54025 -41.395208 60.450406 C -41.363959 60.356656 -41.313179 60.208219 -41.28193 60.118375 C -41.250681 60.024625 -41.199901 59.880094 -41.168652 59.79025 C -41.137403 59.6965 -41.086623 59.551969 -41.055374 59.458219 C -41.024125 59.368375 -40.973345 59.223844 -40.942096 59.130094 C -40.910847 59.04025 -40.860068 58.895719 -40.828819 58.805875 C -40.797569 58.716031 -40.74679 58.567594 -40.715541 58.47775 C -40.684292 58.387906 -40.633512 58.243375 -40.602263 58.153531 C -40.571014 58.063688 -40.520234 57.919156 -40.488985 57.829313 C -40.457736 57.739469 -40.406956 57.594938 -40.375707 57.505094 C -40.344458 57.41525 -40.293678 57.274625 -40.262429 57.184781 C -40.23118 57.094938 -40.1804 56.950406 -40.149151 56.860563 C -40.117902 56.774625 -40.067123 56.630094 -40.035874 56.54025 C -40.004625 56.454313 -39.953845 56.309781 -39.922596 56.223844 C -39.891347 56.134 -39.840567 55.993375 -39.809318 55.903531 C -39.778069 55.813688 -39.727289 55.673063 -39.69604 55.587125 C -39.664791 55.497281 -39.614011 55.356656 -39.582762 55.270719 C -39.551513 55.180875 -39.500733 55.04025 -39.469484 54.954313 C -39.438235 54.864469 -39.387456 54.723844 -39.356206 54.637906 C -39.324957 54.551969 -39.274178 54.411344 -39.242929 54.3215 C -39.21168 54.235563 -39.1609 54.098844 -39.129651 54.009 C -39.098402 53.923063 -39.047622 53.786344 -39.016373 53.6965 C -38.985124 53.610563 -38.934344 53.473844 -38.903095 53.387906 C -38.871846 53.298063 -38.821066 53.161344 -38.789817 53.075406 C -38.758568 52.989469 -38.707788 52.85275 -38.676539 52.766813 C -38.64529 52.680875 -38.594511 52.544156 -38.563261 52.458219 C -38.532012 52.372281 -38.481233 52.235563 -38.449984 52.149625 C -38.418735 52.063688 -38.367955 51.926969 -38.336706 51.841031 C -38.305457 51.759 -38.254677 51.622281 -38.223428 51.536344 C -38.188273 51.450406 -38.141399 51.313688 -38.11015 51.231656 C -38.074995 51.145719 -38.028121 51.012906 -37.996872 50.926969 C -37.961717 50.841031 -37.914843 50.708219 -37.883594 50.622281 C -37.848439 50.54025 -37.801566 50.403531 -37.76641 50.3215 C -37.735161 50.235563 -37.688288 50.10275 -37.653133 50.020719 C -37.621883 49.934781 -37.57501 49.801969 -37.539855 49.719938 C -37.508606 49.634 -37.461732 49.501188 -37.426577 49.419156 C -37.395328 49.337125 -37.344548 49.204313 -37.313299 49.118375 C -37.28205 49.036344 -37.23127 48.903531 -37.200021 48.8215 C -37.168772 48.739469 -37.117992 48.606656 -37.086743 48.524625 C -37.055494 48.442594 -37.004714 48.309781 -36.973465 48.22775 C -36.942216 48.145719 -36.891437 48.016813 -36.860188 47.934781 C -36.828939 47.85275 -36.778159 47.719938 -36.74691 47.641813 C -36.715661 47.559781 -36.664881 47.426969 -36.633632 47.344938 C -36.602383 47.266813 -36.551603 47.134 -36.520354 47.055875 C -36.489105 46.973844 -36.438325 46.844938 -36.407076 46.762906 C -36.375827 46.680875 -36.325047 46.551969 -36.293798 46.469938 C -36.262549 46.391813 -36.21177 46.262906 -36.18052 46.180875 C -36.149271 46.10275 -36.098492 45.973844 -36.067243 45.891813 C -36.035994 45.813688 -35.985214 45.684781 -35.953965 45.606656 C -35.922716 45.524625 -35.871936 45.399625 -35.840687 45.317594 C -35.809438 45.239469 -35.758658 45.110563 -35.727409 45.032438 C -35.69616 44.954313 -35.64538 44.825406 -35.614131 44.747281 C -35.582882 44.669156 -35.532102 44.54025 -35.500853 44.462125 C -35.469604 44.384 -35.418825 44.259 -35.387576 44.180875 C -35.356326 44.10275 -35.305547 43.973844 -35.274298 43.895719 C -35.243049 43.817594 -35.192269 43.692594 -35.16102 43.614469 C -35.129771 43.536344 -35.078991 43.411344 -35.047742 43.333219 C -35.016493 43.255094 -34.965713 43.134 -34.934464 43.055875 C -34.903215 42.97775 -34.852435 42.85275 -34.821186 42.774625 C -34.789937 42.700406 -34.739157 42.575406 -34.707908 42.497281 C -34.676659 42.419156 -34.62588 42.298063 -34.594631 42.219938 C -34.563381 42.145719 -34.512602 42.020719 -34.481353 41.942594 C -34.450104 41.868375 -34.399324 41.747281 -34.368075 41.669156 C -34.336826 41.594938 -34.286046 41.469938 -34.254797 41.395719 C -34.223548 41.317594 -34.172768 41.1965 -34.141519 41.122281 C -34.11027 41.044156 -34.05949 40.923063 -34.028241 40.848844 C -33.996992 40.774625 -33.946213 40.653531 -33.914963 40.575406 C -33.883714 40.501188 -33.832935 40.380094 -33.801686 40.305875 C -33.770437 40.231656 -33.719657 40.110563 -33.688408 40.036344 C -33.657159 39.962125 -33.606379 39.841031 -33.57513 39.766813 C -33.543881 39.692594 -33.493101 39.575406 -33.461852 39.501188 C -33.430603 39.426969 -33.379823 39.305875 -33.348574 39.231656 C -33.317325 39.157438 -33.266545 39.04025 -33.235296 38.966031 C -33.204047 38.891813 -33.153268 38.774625 -33.122018 38.700406 C -33.090769 38.626188 -33.03999 38.509 -33.008741 38.438688 C -32.977492 38.364469 -32.926712 38.247281 -32.895463 38.173063 C -32.864214 38.098844 -32.813434 37.985563 -32.782185 37.911344 C -32.750936 37.837125 -32.700156 37.719938 -32.668907 37.649625 C -32.637658 37.575406 -32.586878 37.462125 -32.555629 37.387906 C -32.52438 37.317594 -32.4736 37.200406 -32.442351 37.130094 C -32.411102 37.055875 -32.360323 36.942594 -32.329074 36.868375 C -32.297824 36.798063 -32.247045 36.684781 -32.215796 36.610563 C -32.184547 36.54025 -32.133767 36.426969 -32.102518 36.356656 C -32.071269 36.282438 -32.020489 36.169156 -31.98924 36.098844 C -31.957991 36.028531 -31.907211 35.91525 -31.875962 35.844938 C -31.844713 35.770719 -31.793933 35.657438 -31.762684 35.587125 C -31.731435 35.516813 -31.680655 35.407438 -31.649406 35.337125 C -31.618157 35.266813 -31.567378 35.153531 -31.536129 35.083219 C -31.504879 35.012906 -31.4541 34.899625 -31.422851 34.829313 C -31.391602 34.762906 -31.340822 34.649625 -31.309573 34.579313 C -31.278324 34.509 -31.227544 34.399625 -31.196295 34.329313 C -31.165046 34.259 -31.114266 34.149625 -31.083017 34.083219 C -31.051768 34.012906 -31.000988 33.903531 -30.969739 33.833219 C -30.93849 33.762906 -30.887711 33.653531 -30.856461 33.587125 C -30.825212 33.516813 -30.774433 33.407438 -30.743184 33.341031 C -30.711935 33.270719 -30.661155 33.161344 -30.629906 33.094938 C -30.598657 33.024625 -30.547877 32.919156 -30.516628 32.848844 C -30.485379 32.782438 -30.434599 32.673063 -30.40335 32.606656 C -30.372101 32.54025 -30.321321 32.430875 -30.290072 32.364469 C -30.258823 32.298063 -30.208043 32.188688 -30.176794 32.122281 C -30.145545 32.055875 -30.094766 31.9465 -30.063516 31.880094 C -30.032267 31.813688 -29.981488 31.708219 -29.950239 31.641813 C -29.91899 31.575406 -29.86821 31.469938 -29.836961 31.403531 C -29.805712 31.337125 -29.754932 31.231656 -29.723683 31.16525 C -29.692434 31.098844 -29.641654 30.993375 -29.610405 30.926969 C -29.579156 30.860563 -29.528376 30.755094 -29.497127 30.692594 C -29.465878 30.626188 -29.415098 30.520719 -29.383849 30.454313 C -29.3526 30.391813 -29.301821 30.286344 -29.270572 30.219938 C -29.239322 30.157438 -29.188543 30.051969 -29.157294 29.985563 C -29.126045 29.923063 -29.075265 29.817594 -29.044016 29.755094 C -29.012767 29.688688 -28.961987 29.587125 -28.930738 29.524625 C -28.899489 29.458219 -28.848709 29.356656 -28.81746 29.29025 C -28.782305 29.22775 -28.735431 29.126188 -28.704182 29.063688 C -28.669027 28.997281 -28.622153 28.895719 -28.590904 28.833219 C -28.555749 28.770719 -28.508876 28.669156 -28.477627 28.606656 C -28.442471 28.54025 -28.395598 28.442594 -28.360443 28.376188 C -28.329194 28.313688 -28.28232 28.212125 -28.247165 28.149625 C -28.215916 28.087125 -28.169042 27.989469 -28.133887 27.926969 C -28.102638 27.864469 -28.055764 27.762906 -28.020609 27.700406 C -27.98936 27.637906 -27.93858 27.54025 -27.907331 27.47775 C -27.876082 27.41525 -27.825302 27.317594 -27.794053 27.255094 C -27.762804 27.192594 -27.712025 27.094938 -27.680775 27.032438 C -27.649526 26.973844 -27.598747 26.872281 -27.567498 26.813688 C -27.536249 26.751188 -27.485469 26.653531 -27.45422 26.591031 C -27.422971 26.532438 -27.372191 26.434781 -27.340942 26.372281 C -27.309693 26.313688 -27.258913 26.216031 -27.227664 26.153531 C -27.196415 26.094938 -27.145635 25.997281 -27.114386 25.938688 C -27.083137 25.876188 -27.032357 25.782438 -27.001108 25.719938 C -26.969859 25.661344 -26.91908 25.567594 -26.887831 25.505094 C -26.856581 25.4465 -26.805802 25.35275 -26.774553 25.29025 C -26.743304 25.231656 -26.692524 25.137906 -26.661275 25.079313 C -26.630026 25.020719 -26.579246 24.923063 -26.547997 24.864469 C -26.516748 24.805875 -26.465968 24.712125 -26.434719 24.653531 C -26.40347 24.594938 -26.35269 24.501188 -26.321441 24.442594 C -26.290192 24.384 -26.239412 24.29025 -26.208163 24.231656 C -26.176914 24.173063 -26.126135 24.083219 -26.094886 24.024625 C -26.063636 23.966031 -26.012857 23.872281 -25.981608 23.813688 C -25.950359 23.759 -25.899579 23.66525 -25.86833 23.606656 C -25.837081 23.551969 -25.786301 23.458219 -25.755052 23.403531 C -25.723803 23.344938 -25.673023 23.251188 -25.641774 23.1965 C -25.610525 23.137906 -25.559745 23.048063 -25.528496 22.993375 C -25.497247 22.934781 -25.446467 22.844938 -25.415218 22.786344 C -25.383969 22.731656 -25.33319 22.641813 -25.301941 22.583219 C -25.270692 22.528531 -25.219912 22.438688 -25.188663 22.384 C -25.157414 22.329313 -25.106634 22.239469 -25.075385 22.180875 C -25.044136 22.126188 -24.993356 22.036344 -24.962107 21.981656 C -24.930858 21.926969 -24.880078 21.837125 -24.848829 21.782438 C -24.81758 21.72775 -24.7668 21.637906 -24.735551 21.583219 C -24.704302 21.528531 -24.653523 21.442594 -24.622273 21.387906 C -24.591024 21.333219 -24.540245 21.247281 -24.508996 21.192594 C -24.477747 21.137906 -24.426967 21.048063 -24.395718 20.997281 C -24.364469 20.942594 -24.313689 20.856656 -24.28244 20.801969 C -24.251191 20.747281 -24.200411 20.661344 -24.169162 20.606656 C -24.137913 20.551969 -24.087133 20.466031 -24.055884 20.41525 C -24.024635 20.360563 -23.973855 20.274625 -23.942606 20.223844 C -23.911357 20.169156 -23.860578 20.083219 -23.829329 20.032438 C -23.798079 19.97775 -23.7473 19.895719 -23.716051 19.841031 C -23.684802 19.79025 -23.634022 19.704313 -23.602773 19.653531 C -23.571524 19.598844 -23.520744 19.516813 -23.489495 19.466031 C -23.458246 19.411344 -23.407466 19.329313 -23.376217 19.278531 C -23.344968 19.223844 -23.294188 19.141813 -23.262939 19.091031 C -23.23169 19.04025 -23.18091 18.958219 -23.149661 18.903531 C -23.118412 18.85275 -23.067633 18.770719 -23.036384 18.719938 C -23.005134 18.669156 -22.954355 18.587125 -22.923106 18.536344 C -22.891857 18.485563 -22.841077 18.403531 -22.809828 18.35275 C -22.778579 18.301969 -22.727799 18.223844 -22.69655 18.173063 C -22.665301 18.122281 -22.614521 18.04025 -22.583272 17.989469 C -22.552023 17.938688 -22.501243 17.860563 -22.469994 17.809781 C -22.438745 17.759 -22.387966 17.680875 -22.356716 17.630094 C -22.325467 17.583219 -22.274688 17.501188 -22.243439 17.454313 C -22.21219 17.403531 -22.16141 17.325406 -22.130161 17.274625 C -22.098912 17.22775 -22.048132 17.149625 -22.016883 17.098844 C -21.985634 17.051969 -21.934854 16.973844 -21.903605 16.923063 C -21.872356 16.876188 -21.821576 16.798063 -21.790327 16.747281 C -21.759078 16.700406 -21.708298 16.622281 -21.677049 16.575406 C -21.6458 16.528531 -21.595021 16.450406 -21.563771 16.403531 C -21.532522 16.35275 -21.481743 16.278531 -21.450494 16.231656 C -21.419245 16.180875 -21.368465 16.106656 -21.337216 16.059781 C -21.305967 16.012906 -21.255187 15.934781 -21.223938 15.887906 C -21.192689 15.841031 -21.141909 15.766813 -21.11066 15.719938 C -21.079411 15.673063 -21.028631 15.598844 -20.997382 15.551969 C -20.966133 15.505094 -20.915353 15.430875 -20.884104 15.384 C -20.852855 15.337125 -20.802076 15.262906 -20.770827 15.216031 C -20.739577 15.173063 -20.688798 15.098844 -20.657549 15.051969 C -20.6263 15.005094 -20.57552 14.930875 -20.544271 14.887906 C -20.513022 14.841031 -20.462242 14.770719 -20.430993 14.723844 C -20.399744 14.676969 -20.348964 14.606656 -20.317715 14.559781 C -20.286466 14.516813 -20.235686 14.442594 -20.204437 14.399625 C -20.173188 14.35275 -20.122408 14.282438 -20.091159 14.235563 C -20.05991 14.192594 -20.009131 14.122281 -19.977882 14.079313 C -19.946632 14.032438 -19.895853 13.962125 -19.864604 13.919156 C -19.833355 13.872281 -19.782575 13.801969 -19.751326 13.759 C -19.720077 13.716031 -19.669297 13.645719 -19.638048 13.60275 C -19.606799 13.559781 -19.556019 13.489469 -19.52477 13.4465 C -19.493521 13.403531 -19.442741 13.333219 -19.411492 13.29025 C -19.376337 13.247281 -19.329464 13.176969 -19.298214 13.134 C -19.263059 13.091031 -19.216186 13.024625 -19.184937 12.981656 C -19.149781 12.938688 -19.102908 12.872281 -19.071659 12.829313 C -19.036504 12.786344 -18.98963 12.719938 -18.954475 12.676969 C -18.923226 12.634 -18.876352 12.567594 -18.841197 12.524625 C -18.809948 12.485563 -18.763074 12.41525 -18.727919 12.376188 C -18.69667 12.333219 -18.649796 12.266813 -18.614641 12.22775 C -18.583392 12.184781 -18.532612 12.118375 -18.501363 12.075406 C -18.470114 12.036344 -18.419335 11.969938 -18.388085 11.930875 C -18.356836 11.887906 -18.306057 11.825406 -18.274808 11.782438 C -18.243559 11.743375 -18.192779 11.676969 -18.16153 11.637906 C -18.130281 11.598844 -18.079501 11.532438 -18.048252 11.493375 C -18.017003 11.454313 -17.966223 11.387906 -17.934974 11.348844 C -17.903725 11.309781 -17.852945 11.247281 -17.821696 11.204313 C -17.790447 11.16525 -17.739667 11.10275 -17.708418 11.063688 C -17.677169 11.024625 -17.62639 10.962125 -17.595141 10.923063 C -17.563891 10.884 -17.513112 10.8215 -17.481863 10.782438 C -17.450614 10.743375 -17.399834 10.680875 -17.368585 10.641813 C -17.337336 10.606656 -17.286556 10.544156 -17.255307 10.505094 C -17.224058 10.466031 -17.173278 10.407438 -17.142029 10.368375 C -17.11078 10.329313 -17.06 10.266813 -17.028751 10.231656 C -16.997502 10.192594 -16.946722 10.134 -16.915473 10.094938 C -16.884224 10.055875 -16.833445 9.997281 -16.802196 9.962125 C -16.770947 9.923063 -16.720167 9.864469 -16.688918 9.825406 C -16.657669 9.79025 -16.606889 9.731656 -16.57564 9.692594 C -16.544391 9.657438 -16.493611 9.598844 -16.462362 9.559781 C -16.431113 9.524625 -16.380333 9.466031 -16.349084 9.430875 C -16.317835 9.395719 -16.267055 9.337125 -16.235806 9.298063 C -16.204557 9.262906 -16.153778 9.208219 -16.122528 9.169156 C -16.091279 9.134 -16.0405 9.079313 -16.009251 9.04025 C -15.978002 9.005094 -15.927222 8.950406 -15.895973 8.91525 C -15.864724 8.880094 -15.813944 8.8215 -15.782695 8.786344 C -15.751446 8.751188 -15.700666 8.6965 -15.669417 8.661344 C -15.638168 8.626188 -15.587388 8.5715 -15.556139 8.536344 C -15.52489 8.501188 -15.47411 8.4465 -15.442861 8.411344 C -15.411612 8.380094 -15.360833 8.325406 -15.329584 8.29025 C -15.298334 8.255094 -15.247555 8.200406 -15.216306 8.169156 C -15.185057 8.134 -15.134277 8.079313 -15.103028 8.048063 C -15.071779 8.012906 -15.020999 7.958219 -14.98975 7.926969 C -14.958501 7.891813 -14.907721 7.841031 -14.876472 7.805875 C -14.845223 7.774625 -14.794443 7.719938 -14.763194 7.688688 C -14.731945 7.657438 -14.681165 7.60275 -14.649916 7.5715 C -14.618667 7.54025 -14.567888 7.485563 -14.536639 7.454313 C -14.505389 7.423063 -14.45461 7.372281 -14.423361 7.337125 C -14.392112 7.305875 -14.341332 7.255094 -14.310083 7.223844 C -14.278834 7.192594 -14.228054 7.141813 -14.196805 7.110563 C -14.165556 7.079313 -14.114776 7.028531 -14.083527 6.997281 C -14.052278 6.966031 -14.001498 6.91525 -13.970249 6.884 C -13.939 6.85275 -13.88822 6.805875 -13.856971 6.774625 C -13.825722 6.743375 -13.774943 6.692594 -13.743694 6.661344 C -13.712445 6.634 -13.661665 6.583219 -13.630416 6.551969 C -13.599167 6.524625 -13.548387 6.473844 -13.517138 6.4465 C -13.485889 6.41525 -13.435109 6.368375 -13.40386 6.337125 C -13.372611 6.305875 -13.321831 6.259 -13.290582 6.231656 C -13.259333 6.200406 -13.208553 6.153531 -13.177304 6.126188 C -13.146055 6.094938 -13.095276 6.048063 -13.064026 6.020719 C -13.032777 5.989469 -12.981998 5.9465 -12.950749 5.91525 C -12.9195 5.887906 -12.86872 5.841031 -12.837471 5.813688 C -12.806222 5.782438 -12.755442 5.739469 -12.724193 5.712125 C -12.692944 5.680875 -12.642164 5.637906 -12.610915 5.610563 C -12.579666 5.583219 -12.528886 5.536344 -12.497637 5.509 C -12.466388 5.481656 -12.415608 5.438688 -12.384359 5.411344 C -12.35311 5.384 -12.302331 5.337125 -12.271082 5.309781 C -12.239832 5.282438 -12.189053 5.239469 -12.157804 5.212125 C -12.126555 5.184781 -12.075775 5.141813 -12.044526 5.118375 C -12.013277 5.091031 -11.962497 5.048063 -11.931248 5.020719 C -11.899999 4.993375 -11.849219 4.950406 -11.81797 4.926969 C -11.786721 4.899625 -11.735941 4.856656 -11.704692 4.833219 C -11.673443 4.805875 -11.622663 4.762906 -11.591414 4.739469 C -11.560165 4.712125 -11.509386 4.673063 -11.478137 4.645719 C -11.446887 4.622281 -11.396108 4.579313 -11.364859 4.555875 C -11.33361 4.528531 -11.28283 4.489469 -11.251581 4.466031 C -11.220332 4.438688 -11.169552 4.399625 -11.138303 4.376188 C -11.107054 4.348844 -11.056274 4.309781 -11.025025 4.286344 C -10.993776 4.262906 -10.942996 4.223844 -10.911747 4.200406 C -10.880498 4.173063 -10.829718 4.137906 -10.798469 4.110563 C -10.76722 4.087125 -10.716441 4.051969 -10.685192 4.024625 C -10.653943 4.001188 -10.603163 3.966031 -10.571914 3.942594 C -10.540665 3.919156 -10.489885 3.880094 -10.458636 3.856656 C -10.427387 3.833219 -10.376607 3.798063 -10.345358 3.774625 C -10.314109 3.751188 -10.263329 3.716031 -10.23208 3.692594 C -10.200831 3.669156 -10.150051 3.634 -10.118802 3.610563 C -10.083647 3.587125 -10.036774 3.551969 -10.005524 3.528531 C -9.970369 3.509 -9.923496 3.473844 -9.892247 3.450406 C -9.857091 3.426969 -9.810218 3.391813 -9.778969 3.372281 C -9.743814 3.348844 -9.69694 3.313688 -9.665691 3.294156 C -9.630536 3.274625 -9.583662 3.239469 -9.548507 3.216031 C -9.517258 3.1965 -9.470384 3.161344 -9.435229 3.141813 C -9.40398 3.122281 -9.357106 3.087125 -9.321951 3.067594 C -9.290702 3.044156 -9.243829 3.012906 -9.208673 2.993375 C -9.177424 2.969938 -9.126645 2.938688 -9.095396 2.919156 C -9.064146 2.899625 -9.013367 2.868375 -8.982118 2.848844 C -8.950869 2.825406 -8.900089 2.794156 -8.86884 2.774625 C -8.837591 2.755094 -8.786811 2.723844 -8.755562 2.704313 C -8.724313 2.684781 -8.673533 2.653531 -8.642284 2.634 C -8.611035 2.614469 -8.560255 2.587125 -8.529006 2.567594 C -8.497757 2.548063 -8.446977 2.516813 -8.415728 2.497281 C -8.384479 2.481656 -8.3337 2.450406 -8.302451 2.430875 C -8.271202 2.41525 -8.220422 2.384 -8.189173 2.364469 C -8.157924 2.348844 -8.107144 2.317594 -8.075895 2.301969 C -8.044646 2.282438 -7.993866 2.255094 -7.962617 2.235563 C -7.931368 2.219938 -7.880588 2.192594 -7.849339 2.173063 C -7.81809 2.157438 -7.76731 2.130094 -7.736061 2.110563 C -7.704812 2.094938 -7.654033 2.067594 -7.622783 2.051969 C -7.591534 2.032438 -7.540755 2.005094 -7.509506 1.989469 C -7.478257 1.973844 -7.427477 1.9465 -7.396228 1.930875 C -7.364979 1.91525 -7.314199 1.887906 -7.28295 1.872281 C -7.251701 1.856656 -7.200921 1.829313 -7.169672 1.813688 C -7.138423 1.798063 -7.087643 1.770719 -7.056394 1.755094 C -7.025145 1.739469 -6.974365 1.716031 -6.943116 1.700406 C -6.911867 1.684781 -6.861088 1.661344 -6.829838 1.645719 C -6.798589 1.630094 -6.74781 1.606656 -6.716561 1.591031 C -6.685312 1.575406 -6.634532 1.551969 -6.603283 1.54025 C -6.572034 1.524625 -6.521254 1.501188 -6.490005 1.485563 C -6.458756 1.469938 -6.407976 1.450406 -6.376727 1.434781 C -6.345478 1.419156 -6.294698 1.399625 -6.263449 1.384 C -6.2322 1.368375 -6.18142 1.348844 -6.150171 1.333219 C -6.118922 1.3215 -6.068143 1.298063 -6.036894 1.286344 C -6.005644 1.270719 -5.954865 1.251188 -5.923616 1.239469 C -5.892367 1.223844 -5.841587 1.204313 -5.810338 1.192594 C -5.779089 1.176969 -5.728309 1.157438 -5.69706 1.145719 C -5.665811 1.134 -5.615031 1.110563 -5.583782 1.098844 C -5.552533 1.087125 -5.501753 1.067594 -5.470504 1.055875 C -5.439255 1.044156 -5.388475 1.024625 -5.357226 1.012906 C -5.325977 1.001188 -5.275198 0.981656 -5.243949 0.969938 C -5.2127 0.958219 -5.16192 0.938688 -5.130671 0.926969 C -5.099422 0.919156 -5.048642 0.899625 -5.017393 0.887906 C -4.986144 0.876188 -4.935364 0.860563 -4.904115 0.848844 C -4.872866 0.837125 -4.822086 0.8215 -4.790837 0.809781 C -4.759588 0.798063 -4.708808 0.782438 -4.677559 0.770719 C -4.64631 0.762906 -4.595531 0.743375 -4.564281 0.735563 C -4.533032 0.723844 -4.482253 0.708219 -4.451004 0.700406 C -4.419755 0.688688 -4.368975 0.673063 -4.337726 0.66525 C -4.306477 0.653531 -4.255697 0.637906 -4.224448 0.630094 C -4.193199 0.618375 -4.142419 0.606656 -4.11117 0.594938 C -4.079921 0.587125 -4.029141 0.5715 -3.997892 0.563688 C -3.966643 0.555875 -3.915863 0.54025 -3.884614 0.532438 C -3.853365 0.524625 -3.802586 0.509 -3.771336 0.501188 C -3.740087 0.493375 -3.689308 0.481656 -3.658059 0.469938 C -3.62681 0.462125 -3.57603 0.450406 -3.544781 0.442594 C -3.513532 0.434781 -3.462752 0.423063 -3.431503 0.41525 C -3.400254 0.407438 -3.349474 0.395719 -3.318225 0.387906 C -3.286976 0.380094 -3.236196 0.368375 -3.204947 0.360563 C -3.173698 0.356656 -3.122918 0.344938 -3.091669 0.337125 C -3.06042 0.329313 -3.009641 0.317594 -2.978392 0.313688 C -2.947142 0.305875 -2.896363 0.294156 -2.865114 0.29025 C -2.833865 0.282438 -2.783085 0.274625 -2.751836 0.266813 C -2.720587 0.259 -2.669807 0.251188 -2.638558 0.243375 C -2.607309 0.239469 -2.556529 0.231656 -2.52528 0.223844 C -2.494031 0.219938 -2.443251 0.212125 -2.412002 0.204313 C -2.380753 0.200406 -2.329973 0.192594 -2.298724 0.184781 C -2.267475 0.180875 -2.216696 0.173063 -2.185447 0.169156 C -2.154198 0.16525 -2.103418 0.157438 -2.072169 0.149625 C -2.04092 0.145719 -1.99014 0.137906 -1.958891 0.134 C -1.927642 0.130094 -1.876862 0.122281 -1.845613 0.118375 C -1.814364 0.114469 -1.763584 0.110563 -1.732335 0.106656 C -1.701086 0.10275 -1.650306 0.0949375 -1.619057 0.0910313 C -1.587808 0.087125 -1.537029 0.0832188 -1.505779 0.0793125 C -1.47453 0.0754063 -1.423751 0.0715 -1.392502 0.0675938 C -1.361253 0.0636875 -1.310473 0.0597813 -1.279224 0.055875 C -1.247975 0.055875 -1.197195 0.0519688 -1.165946 0.0480625 C -1.134697 0.0441563 -1.083917 0.04025 -1.052668 0.04025 C -1.021419 0.0363438 -0.970639 0.0324375 -0.93939 0.0324375 C -0.908141 0.0285313 -0.857361 0.024625 -0.826112 0.024625 C -0.794863 0.0207188 -0.744084 0.0207188 -0.712835 0.0168125 C -0.681585 0.0168125 -0.630806 0.0129063 -0.599557 0.0129063 C -0.564401 0.0129063 -0.517528 0.009 -0.486279 0.009 C -0.451124 0.009 -0.40425 0.00509375 -0.373001 0.00509375 C -0.337846 0.00509375 -0.290972 0.0011875 -0.255817 0.0011875 C -0.224568 0.0011875 -0.177694 0.0011875 -0.142539 0.0011875 C -0.11129 0.0011875 -0.0292613 0.0011875 -0.0292613 0.0011875 " transform="matrix(1.00003, 0, 0, -1, 58.9902, 115.384)"/>
</svg>
