<svg xmlns="http://www.w3.org/2000/svg" xmlns:xlink="http://www.w3.org/1999/xlink" version="1.1" width="250" height="252" viewBox="0 0 250 252">
<defs>
<path id="font_1_2" d="M.33399964 .30233766C.33999635 .32835389 .36299134 .42037965 .43299867 .42037965 .43798829 .42037965 .46199037 .42037965 .48298646 .40734864 .45498658 .402359 .43499757 .37734986 .43499757 .35334779 .43499757 .33735658 .44599916 .31835938 .47299195 .31835938 .49499513 .31835938 .5269928 .3363495 .5269928 .37635804 .5269928 .42837525 .46798707 .4423828 .43399049 .4423828 .37599183 .4423828 .34098817 .38935853 .32899476 .36634828 .3039856 .43237306 .25 .4423828 .22099304 .4423828 .116989139 .4423828 .05999756 .3133545 .05999756 .28834535 .05999756 .27833558 .069992069 .27833558 .07199097 .27833558 .07998657 .27833558 .08299255 .28033448 .084991458 .28933717 .11898804 .39535523 .18499756 .42037965 .21899414 .42037965 .23799134 .42037965 .272995 .4113617 .272995 .35334779 .272995 .32235719 .2559967 .25532533 .21899414 .11528015 .20298767 .053268434 .16799927 .011245728 .12399292 .011245728 .117996219 .011245728 .09498596 .011245728 .07398987 .024276734 .09899902 .029266358 .12098694 .05027771 .12098694 .07827759 .12098694 .105270389 .09899902 .11328125 .083999637 .11328125 .053985597 .11328125 .0289917 .08728027 .0289917 .055267335 .0289917 .009246826 .07899475-.0107421879 .12298584-.0107421879 .18899536-.0107421879 .22499085 .059280397 .22799683 .0652771 .23999024 .028274537 .27598573-.0107421879 .33599855-.0107421879 .43899537-.0107421879 .49598695 .118270877 .49598695 .14328003 .49598695 .1532898 .4869995 .1532898 .48399354 .1532898 .47499085 .1532898 .47299195 .14929199 .47099305 .14228821 .43798829 .03527832 .36999513 .011245728 .33799745 .011245728 .29899598 .011245728 .2829895 .043273927 .2829895 .07727051 .2829895 .09927368 .2889862 .121276859 .2999878 .16529846L.33399964 .30233766Z"/>
<path id="font_1_3" d="M.48599244 .38136292C.48999024 .39537049 .48999024 .39736939 .48999024 .40437318 .48999024 .42237855 .47599793 .43138124 .46099855 .43138124 .45098878 .43138124 .43499757 .42536927 .42599488 .41036988 .42399598 .405365 .41600038 .37435914 .4119873 .35635377 .40499879 .33035279 .397995 .30334474 .3919983 .27633668L.34700013 .09628296C.34298707 .08126831 .2999878 .011245728 .23399353 .011245728 .18299866 .011245728 .17199707 .055267335 .17199707 .0922699 .17199707 .1382904 .18899536 .20030213 .22299195 .28833009 .23899842 .3293457 .24299622 .3403473 .24299622 .36035157 .24299622 .405365 .21099854 .4423828 .16099549 .4423828 .06599426 .4423828 .0289917 .29733277 .0289917 .28833009 .0289917 .27833558 .038986207 .27833558 .040985109 .27833558 .050994874 .27833558 .051986696 .28033448 .056991579 .29634095 .083999637 .3903656 .12399292 .42037965 .1579895 .42037965 .1659851 .42037965 .18299866 .42037965 .18299866 .3883667 .18299866 .36335755 .17298889 .3373413 .1659851 .31834413 .12599182 .21231079 .10798645 .1552887 .10798645 .10827637 .10798645 .019256592 .17098999-.0107421879 .22999573-.0107421879 .2689972-.0107421879 .30299378 .0062561037 .33099366 .03425598 .31799317-.017745972 .30599977-.06674194 .2659912-.11973572 .23999024-.15385437 .20199585-.18309021 .1559906-.18309021 .14199829-.18309021 .09700012-.18005371 .07998657-.14074707 .09599304-.14074707 .10899353-.14074707 .12298584-.1287384 .1329956-.11973572 .14299011-.10673523 .14299011-.08773804 .14299011-.056747438 .115997318-.052734376 .10598755-.052734376 .08299255-.052734376 .049987794-.068740848 .049987794-.11773682 .049987794-.16796875 .09399414-.20507813 .1559906-.20507813 .25898744-.20507813 .3619995-.11373901 .3899994-.00074768069L.48599244 .38136292Z"/>
<path id="font_2_1" d="M.44400025 .24998474C.44400025 .35688783 .35499574 .44381715 .25 .44381715 .14199829 .44381715 .054992677 .35488893 .054992677 .24998474 .054992677 .14407349 .14199829 .056137086 .25 .056137086 .35499574 .056137086 .44400025 .14308167 .44400025 .24998474Z"/>
<path id="font_3_1" d="M.33099366-.2400055C.33099366-.23701477 .33099366-.23500061 .31399537-.21800232 .18899536-.0920105 .15699768 .09700012 .15699768 .25 .15699768 .42399598 .19499207 .59799197 .31799317 .72299197 .33099366 .73498538 .33099366 .7369995 .33099366 .73999026 .33099366 .746994 .32699586 .75 .32099916 .75 .31098939 .75 .22099304 .6819916 .1619873 .5549927 .11099243 .44499208 .09899902 .33399964 .09899902 .25 .09899902 .17199707 .10998535 .050994874 .16499329-.06201172 .22499085-.18501282 .31098939-.25 .32099916-.25 .32699586-.25 .33099366-.24700928 .33099366-.2400055Z"/>
<path id="font_3_3" d="M.45999146 .31976319C.45999146 .39982606 .45498658 .47988893 .41999818 .5539398 .37399293 .65000918 .2919922 .6660156 .25 .6660156 .18998719 .6660156 .116989139 .64001467 .07598877 .54693606 .04399109 .47789 .038986207 .39982606 .038986207 .31976319 .038986207 .24472046 .042999269 .15464783 .083999637 .07859802 .1269989-.0024719239 .19999695-.022460938 .24899292-.022460938 .30299378-.022460938 .3789978-.0014648438 .4229889 .09359741 .45498658 .16265869 .45999146 .2407074 .45999146 .31976319M.24899292-.00047302247C.20999146-.00047302247 .15098572 .024551392 .1329956 .12062073 .12199402 .18066406 .12199402 .2727356 .12199402 .3317871 .12199402 .39582826 .12199402 .46188355 .12998963 .5159149 .14898682 .63500979 .22399903 .64401248 .24899292 .64401248 .28199769 .64401248 .34799195 .6259918 .36698915 .52693179 .3769989 .47088624 .3769989 .39482118 .3769989 .3317871 .3769989 .25672914 .3769989 .18867493 .3659973 .12461853 .35099793 .029556275 .2939911-.00047302247 .24899292-.00047302247Z"/>
<path id="font_1_1" d="M.20298767 .0009918213C.20298767 .066986087 .17799378 .10598755 .13899231 .10598755 .10598755 .10598755 .085998538 .08099365 .085998538 .052993776 .085998538 .025985718 .10598755 0 .13899231 0 .15098572 0 .1639862 .0039978029 .17399597 .0129852299 .1769867 .01499939 .17799378 .015991211 .1789856 .015991211 .17999268 .015991211 .18099976 .01499939 .18099976 .0009918213 .18099976-.07316589 .1459961-.13328552 .11299133-.16635132 .101989749-.17736817 .101989749-.17936707 .101989749-.18237305 .101989749-.18936157 .10699463-.19335938 .11199951-.19335938 .12298584-.19335938 .20298767-.116256717 .20298767 .0009918213Z"/>
<path id="font_3_2" d="M.2889862 .25C.2889862 .32798768 .27799989 .44898988 .22299195 .56199648 .16299439 .68499758 .07699585 .75 .066986087 .75 .06098938 .75 .056991579 .74598696 .056991579 .73999026 .056991579 .7369995 .056991579 .73498538 .07598877 .71699526 .17399597 .6179962 .23098755 .45899964 .23098755 .25 .23098755 .07899475 .19400025-.09700012 .069992069-.2230072 .056991579-.23500061 .056991579-.23701477 .056991579-.2400055 .056991579-.2460022 .06098938-.25 .066986087-.25 .07699585-.25 .16699219-.18200684 .22599793-.055007936 .2769928 .054992677 .2889862 .16600037 .2889862 .25Z"/>
</defs>
<path transform="matrix(1.00009,0,0,-1.00003,120.56023,131.12454)" stroke-width=".19925" stroke-linecap="butt" stroke-miterlimit="10" stroke-linejoin="miter" fill="none" stroke="#929292" d="M-113.38724-113.38724H113.38724M-113.38724-85.04042H113.38724M-113.38724-56.69362H113.38724M-113.38724-28.3468H113.38724M-113.38724 0H113.38724M-113.38724 28.3468H113.38724M-113.38724 56.69362H113.38724M-113.38724 85.04042H113.38724M-113.38724 113.37727H113.38724M-113.38724-113.38724V113.38724M-85.04042-113.38724V113.38724M-56.69362-113.38724V113.38724M-28.3468-113.38724V113.38724M0-113.38724V113.38724M28.3468-113.38724V113.38724M56.69362-113.38724V113.38724M85.04042-113.38724V113.38724M113.37727-113.38724V113.38724M113.38724 113.38724"/>
<path transform="matrix(1.00009,0,0,-1.00003,120.56023,131.12454)" stroke-width="1.19553" stroke-linecap="butt" stroke-miterlimit="10" stroke-linejoin="miter" fill="none" stroke="#000000" d="M-119.0565 0H118.10008"/>
<path transform="matrix(1.00009,0,0,-1.00003,238.67093,131.12454)" stroke-width=".9564" stroke-linecap="round" stroke-linejoin="round" fill="none" stroke="#000000" d="M-1.91284 2.55046C-1.75343 1.59402 0 .15938 .4782 0 0-.15938-1.75343-1.59402-1.91284-2.55046"/>
<use data-text="x" xlink:href="#font_1_2" transform="matrix(9.963496,0,0,-9.962899,243.5463,133.2696)"/>
<path transform="matrix(1.00009,0,0,-1.00003,120.56023,131.12454)" stroke-width="1.19553" stroke-linecap="butt" stroke-miterlimit="10" stroke-linejoin="miter" fill="none" stroke="#000000" d="M0-119.0565V118.10008"/>
<path transform="matrix(0,-1.00003,-1.00009,-0,120.56023,13.020912)" stroke-width=".9564" stroke-linecap="round" stroke-linejoin="round" fill="none" stroke="#000000" d="M-1.91284 2.55046C-1.75343 1.59402 0 .15938 .4782 0 0-.15938-1.75343-1.59402-1.91284-2.55046"/>
<use data-text="y" xlink:href="#font_1_3" transform="matrix(9.963496,0,0,-9.962899,117.93899,6.208786)"/>
<path transform="matrix(1.00009,0,0,-1.00003,120.56023,131.12454)" stroke-width=".79701" stroke-linecap="butt" stroke-miterlimit="10" stroke-linejoin="miter" fill="none" stroke="#0000ff" d="M14.17339 113.38724C14.17339 113.38724 14.31683 111.13644 14.37193 110.29414 14.42702 109.45184 14.5154 108.12823 14.57047 107.31654 14.62555 106.50487 14.71391 105.22504 14.76898 104.44408 14.82407 103.66312 14.91243 102.43756 14.96753 101.68794 15.02261 100.93832 15.11098 99.76067 15.16606 99.04123 15.22116 98.3218 15.30951 97.19528 15.36461 96.50267 15.4197 95.81004 15.50806 94.7158 15.56314 94.04932 15.61821 93.38281 15.70659 92.33865 15.76166 91.6989 15.81674 91.05916 15.9051 90.05618 15.9602 89.43846 16.01529 88.82074 16.10365 87.84303 16.15874 87.2468 16.21384 86.65056 16.30219 85.71541 16.35727 85.14119 16.41237 84.56699 16.50072 83.66081 16.55582 83.10826 16.6109 82.55573 16.69928 81.69138 16.75435 81.15883 16.80943 80.62627 16.8978 79.7858 16.95288 79.26991 17.00795 78.75404 17.09631 77.93895 17.15141 77.44072 17.2065 76.94249 17.29486 76.15976 17.34995 75.679 17.40504 75.19824 17.4934 74.44089 17.5485 73.97566 17.60358 73.51044 17.69196 72.77486 17.74702 72.32596 17.80211 71.87706 17.89047 71.1741 17.94554 70.74026 18.00063 70.30644 18.08899 69.61964 18.14409 69.19914 18.19917 68.77864 18.28754 68.11691 18.34262 67.70949 18.39772 67.30205 18.48607 66.65723 18.54117 66.26265 18.59625 65.86807 18.68462 65.24632 18.7397 64.86554 18.79477 64.48476 18.88315 63.888 18.93822 63.51819 18.9933 63.14839 19.08167 62.55923 19.13676 62.20024 19.19185 61.84125 19.28021 61.27792 19.3353 60.93076 19.3904 60.58359 19.47874 60.03491 19.53383 59.69801 19.58893 59.3611 19.67729 58.82932 19.73238 58.50249 19.78745 58.17566 19.87582 57.6591 19.9309 57.34242 19.98598 57.02573 20.07434 56.52797 20.12944 56.21999 20.18452 55.91199 20.27287 55.42227 20.32797 55.12262 20.38306 54.82298 20.47142 54.3504 20.5265 54.0603 20.5816 53.77022 20.66995 53.31361 20.72505 53.03174 20.78014 52.74986 20.86852 52.3027 20.92358 52.02869 20.97867 51.75467 21.06703 51.32292 21.1221 51.05676 21.17719 50.7906 21.26555 50.36969 21.32065 50.11038 21.37573 49.85106 21.4641 49.43964 21.51918 49.18777 21.57428 48.93591 21.66263 48.53964 21.71773 48.29501 21.77281 48.0504 21.86118 47.66293 21.91626 47.42476 21.97133 47.18657 22.05971 46.81119 22.11478 46.57828 22.16986 46.34537 22.25822 45.97298 22.31332 45.74608 22.36841 45.51917 22.45677 45.1628 22.51186 44.94284 22.56696 44.7229 22.6553 44.37494 22.71039 44.16081 22.76549 43.94669 22.85385 43.6079 22.90894 43.39954 22.964 43.19118 23.05238 42.86266 23.10745 42.65904 23.16254 42.45543 23.2509 42.13004 23.306 41.93195 23.36108 41.73384 23.44943 41.42387 23.50453 41.23123 23.55962 41.0386 23.64798 40.7326 23.70306 40.5435 23.75816 40.3544 23.84653 40.05212 23.90161 39.8683 23.95668 39.68448 24.04506 39.39818 24.10013 39.21863 24.15521 39.03908 24.24358 38.74945 24.29866 38.57416 24.35376 38.39886 24.44211 38.12544 24.49721 37.9552 24.55229 37.78496 24.64066 37.51418 24.69574 37.34705 24.75084 37.17992 24.83919 36.91364 24.89429 36.75058 24.94937 36.58752 25.03773 36.3301 25.09282 36.17184 25.14789 36.01358 25.23627 35.76521 25.29134 35.60997 25.34642 35.45473 25.43478 35.20499 25.48988 35.05287 25.54497 34.90074 25.63333 34.66106 25.68842 34.51349 25.74352 34.36592 25.83186 34.13412 25.88695 33.98926 25.94205 33.8444 26.03041 33.61127 26.0855 33.46933 26.14056 33.32741 26.22894 33.10379 26.28401 32.96631 26.3391 32.82881 26.42746 32.61311 26.48256 32.4784 26.53764 32.34367 26.62599 32.12811 26.68109 31.99524 26.73618 31.86238 26.82454 31.65027 26.87962 31.52077 26.93472 31.39125 27.02309 31.18785 27.07817 31.06183 27.13324 30.9358 27.22162 30.73593 27.27669 30.61243 27.33177 30.48892 27.42014 30.29265 27.47522 30.17168 27.53032 30.0507 27.61867 29.85884 27.67377 29.74043 27.72885 29.62202 27.81721 29.4342 27.8723 29.31827 27.9274 29.20233 28.01576 29.01845 28.07085 28.90477 28.12592 28.7911 28.21428 28.61096 28.26936 28.49905 28.32445 28.38713 28.41281 28.20766 28.4679 28.09808 28.523 27.98851 28.61134 27.8143 28.66644 27.70923 28.72153 27.60416 28.80989 27.44421 28.86497 27.3407 28.92007 27.2372 29.00842 27.06668 29.0635 26.9631 29.1186 26.85953 29.20697 26.6939 29.26205 26.59415 29.31712 26.49442 29.4055 26.34259 29.46057 26.24423 29.51566 26.14587 29.60402 25.98148 29.65912 25.88522 29.7142 25.78896 29.80255 25.64375 29.85765 25.55045 29.91275 25.45714 30.0011 25.30612 30.05618 25.21263 30.11128 25.11914 30.19965 24.968 30.25473 24.87654 30.3098 24.78508 30.39818 24.64124 30.45325 24.55344 30.50833 24.46565 30.5967 24.3295 30.6518 24.24374 30.70688 24.15799 30.79523 24.02068 30.85033 23.93533 30.90541 23.85 30.99377 23.71274 31.04886 23.62868 31.10396 23.5446 31.19232 23.41211 31.2474 23.32936 31.30247 23.24661 31.39085 23.11371 31.44592 23.03221 31.501 22.95071 31.58937 22.82088 31.64445 22.74197 31.69955 22.66306 31.7879 22.54118 31.843 22.46341 31.89809 22.38564 31.98645 22.25797 32.04153 22.1814 32.09663 22.10483 32.185 21.98622 32.24008 21.9115 32.29515 21.83678 32.38351 21.71567 32.4386 21.64288 32.49367 21.5701 32.58205 21.45853 32.63713 21.38683 32.69223 21.31511 32.78058 21.1974 32.83568 21.12599 32.89076 21.0546 32.97913 20.9416 33.03421 20.87212 33.08931 20.80263 33.17766 20.69347 33.23274 20.62512 33.28784 20.55678 33.3762 20.44743 33.43129 20.37944 33.48636 20.31146 33.57474 20.20137 33.6298 20.13506 33.68489 20.06874 33.77325 19.96619 33.82835 19.90149 33.88344 19.8368 33.97179 19.73233 34.02689 19.66878 34.08197 19.60524 34.17033 19.50589 34.22542 19.44344 34.28052 19.38097 34.36888 19.28067 34.42397 19.21852 34.47903 19.15636 34.56741 19.0552 34.62248 18.99532 34.67757 18.93544 34.76593 18.84576 34.82101 18.78683 34.87611 18.72792 34.96446 18.62915 35.01956 18.57057 35.07465 18.51201 35.16301 18.42169 35.2181 18.36469 35.2732 18.30768 35.36156 18.21564 35.41664 18.15965 35.47171 18.10367 35.56007 18.01682 35.61516 17.96114 35.67023 17.90544 35.7586 17.81377 35.81369 17.75826 35.86879 17.70276 35.95714 17.61485 36.01224 17.56104 36.06732 17.5072 36.15569 17.42314 36.21077 17.37027 36.26587 17.3174 36.35423 17.23265 36.4093 17.17996 36.46439 17.12727 36.55275 17.04176 36.60783 16.99051 36.6629 16.93927 36.75128 16.86086 36.80637 16.81056 36.86147 16.76028 36.94981 16.67737 37.00491 16.62804 37.06 16.5787 37.14835 16.50357 37.20345 16.45502 37.25853 16.40648 37.34691 16.32642 37.40198 16.27812 37.45706 16.22983 37.54543 16.1537 37.60051 16.10684 37.65558 16.05997 37.74396 15.98692 37.79904 15.9403 37.85414 15.89368 37.94249 15.81648 37.99757 15.77075 38.05267 15.72502 38.14102 15.65558 38.19612 15.6107 38.2512 15.56583 38.33957 15.49191 38.39465 15.4472 38.44975 15.4025 38.53812 15.33186 38.5932 15.28847 38.64827 15.24509 38.73663 15.17696 38.79172 15.13449 38.84679 15.09201 38.93517 15.02455 38.99025 14.98224 39.04535 14.93994 39.1337 14.87112 39.1888 14.82956 39.24388 14.78798 39.33224 14.72324 39.38733 14.6825 39.44243 14.64175 39.53079 14.57642 39.58586 14.53584 39.64095 14.49529 39.72931 14.42987 39.7844 14.39009 39.83946 14.35031 39.92784 14.28868 39.98293 14.24908 40.03802 14.20947 40.12637 14.14339 40.18147 14.10461 40.23656 14.06586 40.3249 14.00723 40.38 13.96967 40.43509 13.9321 40.52347 13.87183 40.57854 13.83385 40.63362 13.79588 40.72198 13.733 40.77707 13.69586 40.83214 13.65872 40.92052 13.60252 40.9756 13.5661 41.0307 13.52968 41.11905 13.46956 41.17413 13.43332 41.22923 13.39706 41.31758 13.34048 41.37268 13.30486 41.42776 13.26923 41.51614 13.21179 41.57121 13.17638 41.6263 13.14098 41.71466 13.08374 41.76974 13.04965 41.82481 13.01558 41.91318 12.96417 41.96828 12.93071 42.02336 12.89723 42.11172 12.84213 42.16681 12.8083 42.22191 12.77446 42.31026 12.71939 42.36536 12.68675 42.42044 12.65411 42.5088 12.60551 42.56389 12.573 42.61899 12.54048 42.70735 12.4846 42.76242 12.45233 42.8175 12.42006 42.90587 12.3719 42.96095 12.34029 43.01602 12.30867 43.1044 12.25539 43.15948 12.22438 43.21458 12.19336 43.30293 12.14697 43.35803 12.11667 43.41312 12.08636 43.50146 12.03667 43.55656 12.00594 43.61165 11.97522 43.70003 11.92532 43.7551 11.8952 43.81018 11.8651 43.89854 11.8182 43.95363 11.7888 44.0087 11.7594 44.09708 11.7125 44.15216 11.68327 44.20726 11.65405 44.29561 11.60733 44.3507 11.57817 44.40579 11.54901 44.49414 11.50114 44.54924 11.47307 44.60432 11.44498 44.6927 11.4031 44.74777 11.37573 44.80286 11.34837 44.89122 11.30353 44.9463 11.27582 45.00137 11.24811 45.08974 11.20355 45.14484 11.17589 45.19994 11.14824 45.28828 11.10347 45.34337 11.07642 45.39847 11.04935 45.48682 11.00777 45.54192 10.98082 45.597 10.95389 45.68538 10.9085 45.74045 10.8822 45.79553 10.85593 45.8839 10.81705 45.93896 10.79138 45.99405 10.7657 46.08241 10.72275 46.13751 10.69708 46.1926 10.6714 46.28096 10.6318 46.33604 10.60625 46.39114 10.58069 46.47949 10.53766 46.53459 10.51282 46.58968 10.48798 46.67802 10.451 46.73312 10.42719 46.78822 10.40337 46.87659 10.3654 46.93166 10.34111 46.98674 10.31682 47.0751 10.27606 47.13019 10.252 47.18526 10.22794 47.27364 10.19112 47.32872 10.16765 47.38382 10.1442 47.47217 10.10638 47.52727 10.08287 47.58235 10.05936 47.6707 10.0215 47.7258 9.99811 47.78088 9.97472 47.86926 9.93694 47.92433 9.91418 47.97942 9.89145 48.06778 9.85643 48.12286 9.83417 48.17793 9.8119 48.26631 9.77591 48.3214 9.75372 48.3765 9.73152 48.46484 9.69574 48.51993 9.67413 48.57503 9.65253 48.66338 9.61949 48.71848 9.598 48.77356 9.57652 48.86194 9.54112 48.917 9.51927 48.97209 9.49742 49.06046 9.46191 49.11554 9.44055 49.17061 9.4192 49.25897 9.38611 49.31407 9.3653 49.36916 9.34448 49.45752 9.3111 49.5126 9.29047 49.5677 9.26984 49.65605 9.2366 49.71115 9.2165 49.76624 9.19641 49.85461 9.16615 49.90968 9.14557 49.96477 9.12498 50.05313 9.08867 50.1082 9.06815 50.16328 9.04762 50.25165 9.01714 50.30675 8.99763 50.36183 8.97813 50.4502 8.94658 50.50528 8.92757 50.56038 8.90855 50.64873 8.87991 50.70383 8.86052 50.75891 8.84114 50.84726 8.80707 50.90236 8.78786 50.95744 8.76866 51.04582 8.74083 51.10089 8.7221 51.15598 8.7034 51.24434 8.67163 51.29942 8.65291 51.35449 8.6342 51.44287 8.60541 51.49796 8.58716 51.55305 8.56892 51.6414 8.53954 51.69649 8.52142 51.75159 8.5033 51.83994 8.47453 51.89503 8.45653 51.95012 8.43854 52.0385 8.40959 52.09357 8.39165 52.14865 8.37372 52.23701 8.34473 52.2921 8.32721 52.34717 8.3097 52.43553 8.2824 52.49063 8.26535 52.54572 8.2483 52.63408 8.22128 52.68916 8.20436 52.74426 8.18744 52.83261 8.16017 52.88771 8.14337 52.9428 8.12657 53.03117 8.09993 53.08624 8.08325 53.14133 8.06657 53.22969 8.03992 53.28476 8.02313 53.33984 8.00633 53.4282 7.97888 53.4833 7.96214 53.53839 7.94542 53.62675 7.919 53.68184 7.90245 53.73694 7.8859 53.82529 7.8589 53.88039 7.84277 53.93547 7.82664 54.02383 7.80176 54.07892 7.7861 54.13399 7.77043 54.22237 7.74553 54.27744 7.72986 54.33252 7.7142 54.42088 7.68874 54.47598 7.6732 54.53107 7.65767 54.61943 7.63332 54.67451 7.61784 54.72961 7.60237 54.81796 7.57666 54.87305 7.56161 54.92815 7.54655 55.0165 7.52422 55.0716 7.50928 55.12668 7.49435 55.21506 7.46886 55.27013 7.45392 55.32521 7.43898 55.41357 7.41646 55.46866 7.40158 55.52373 7.38669 55.61209 7.36104 55.66719 7.34663 55.72227 7.33224 55.81064 7.31216 55.86572 7.29776 55.92082 7.28337 56.00917 7.25717 56.06427 7.24284 56.11935 7.2285 56.20773 7.20818 56.2628 7.1944 56.31789 7.1806 56.40625 7.1571 56.46132 7.14336 56.5164 7.12961 56.60477 7.10907 56.65987 7.09534 56.71495 7.08159 56.80331 7.05809 56.8584 7.0443 56.9135 7.03052 57.00185 7.0096 57.05695 6.99585 57.11203 6.9821 57.2004 6.9585 57.25548 6.94525 57.31055 6.93199 57.39893 6.91345 57.454 6.90027 57.50908 6.88707 57.59744 6.8636 57.65254 6.8501 57.70763 6.8366 57.79599 6.81564 57.85107 6.80293 57.90617 6.79022 57.99452 6.77147 58.0496 6.75839 58.1047 6.74532 58.19307 6.72125 58.24815 6.70865 58.30322 6.69606 58.3916 6.67969 58.44667 6.66757 58.50175 6.65544 58.59012 6.63382 58.64522 6.62128 58.7003 6.60873 58.78865 6.58934 58.84375 6.57716 58.89883 6.56499 58.9872 6.54594 59.04228 6.53346 59.09738 6.52098 59.18573 6.49925 59.24083 6.4872 59.29591 6.47514 59.3843 6.45847 59.43936 6.44653 59.49445 6.4346 59.58281 6.41306 59.63788 6.40112 59.69296 6.38919 59.78133 6.37204 59.83643 6.36046 59.89151 6.34888 59.97987 6.32944 60.03496 6.31763 60.09006 6.30582 60.1784 6.2867 60.2335 6.27525 60.28859 6.2638 60.37695 6.24612 60.43204 6.23502 60.4871 6.22392 60.57549 6.20627 60.63055 6.19522 60.68564 6.18419 60.774 6.16646 60.8291 6.15543 60.88419 6.1444 60.97255 6.12692 61.02763 6.11565 61.08273 6.10435 61.17108 6.08496 61.22617 6.07411 61.28127 6.06326 61.36963 6.04796 61.42471 6.03735 61.47978 6.02673 61.56816 6.00847 61.62323 5.99756 61.67831 5.98663 61.76668 5.96936 61.82178 5.95862 61.87686 5.94789 61.96521 5.93086 62.02031 5.92014 62.0754 5.9094 62.16376 5.89157 62.21884 5.8812 62.27394 5.87083 62.3623 5.85532 62.41739 5.8453 62.47246 5.83528 62.56084 5.81898 62.6159 5.80898 62.67099 5.79895 62.75935 5.78326 62.81444 5.77307 62.86954 5.76286 62.95789 5.74551 63.01299 5.73544 63.06807 5.72536 63.15643 5.7103 63.21152 5.7004 63.26662 5.6905 63.35497 5.67409 63.41006 5.66406 63.46515 5.65405 63.55351 5.6379 63.6086 5.62817 63.66368 5.61845 63.75204 5.60359 63.80711 5.594 63.8622 5.58441 63.95056 5.5685 64.00566 5.55896 64.06075 5.54942 64.14911 5.5347 64.2042 5.52522 64.2593 5.51576 64.34764 5.49986 64.40274 5.49063 64.45782 5.4814 64.54619 5.46783 64.60127 5.45862 64.65634 5.44939 64.74472 5.4333 64.79979 5.42401 64.85487 5.41472 64.94324 5.40074 64.99834 5.39157 65.05342 5.3824 65.14178 5.36696 65.19687 5.35783 65.25197 5.34872 65.34032 5.33482 65.3954 5.32582 65.4505 5.31682 65.53886 5.30183 65.59395 5.29295 65.64902 5.28407 65.7374 5.27063 65.79247 5.26181 65.84755 5.25299 65.93591 5.23813 65.99101 5.22937 66.0461 5.22061 66.13445 5.2068 66.18954 5.19865 66.24463 5.1905 66.333 5.179 66.38808 5.17055 66.44318 5.1621 66.53154 5.14648 66.58662 5.13766 66.6417 5.12885 66.73007 5.1156 66.78514 5.10696 66.84023 5.09833 66.92859 5.0839 66.98367 5.07538 67.03877 5.06688 67.12712 5.05382 67.18222 5.04555 67.2373 5.03728 67.32567 5.02379 67.38075 5.0157 67.43585 5.00761 67.5242 4.99525 67.5793 4.98715 67.63438 4.97905 67.72275 4.96533 67.77783 4.95729 67.8329 4.94925 67.92128 4.93716 67.97635 4.92918 68.03143 4.9212 68.1198 4.90776 68.1749 4.89977 68.22998 4.89178 68.31834 4.87946 68.37343 4.87166 68.42853 4.86386 68.51688 4.85121 68.57196 4.84354 68.62706 4.83586 68.71542 4.82397 68.77051 4.8163 68.82558 4.80862 68.91396 4.79591 68.96902 4.78818 69.02411 4.78044 69.11247 4.76805 69.16757 4.7605 69.22266 4.75293 69.311 4.74123 69.3661 4.73367 69.42119 4.72612 69.50955 4.71342 69.56464 4.706 69.61974 4.69856 69.7081 4.68741 69.76318 4.68004 69.81825 4.67267 69.90663 4.66017 69.9617 4.6528 70.01678 4.64543 70.10515 4.63397 70.16023 4.62683 70.21533 4.6197 70.30368 4.60846 70.35878 4.60133 70.41386 4.5942 70.50223 4.5825 70.55731 4.57538 70.61241 4.56825 70.70078 4.55685 70.75586 4.54985 70.81093 4.54285 70.89929 4.53174 70.95438 4.52477 71.00945 4.5178 71.09782 4.50687 71.15291 4.49966 71.20801 4.49248 71.29636 4.4798 71.35146 4.47285 71.40654 4.46591 71.4949 4.45633 71.54999 4.44951 71.60509 4.44267 71.69344 4.43033 71.74852 4.42355 71.80362 4.41678 71.89198 4.40735 71.94707 4.40063 72.00214 4.3939 72.09052 4.38206 72.14558 4.3751 72.20067 4.36815 72.28903 4.35698 72.34413 4.35045 72.39922 4.34392 72.48756 4.33444 72.54266 4.32797 72.59775 4.32149 72.68611 4.31027 72.7412 4.30373 72.7963 4.2972 72.88466 4.28723 72.93974 4.2808 72.99481 4.2744 73.08319 4.26369 73.13826 4.25746 73.19334 4.25122 73.28171 4.24219 73.33679 4.23582 73.39189 4.22948 73.48024 4.21814 73.53534 4.21161 73.59042 4.20508 73.67879 4.19485 73.73387 4.18869 73.78897 4.18251 73.87733 4.17322 73.93242 4.16705 73.98749 4.16087 74.07585 4.1503 74.13094 4.14413 74.186 4.13795 74.27438 4.1285 74.32947 4.12251 74.38457 4.11652 74.47292 4.107 74.52802 4.10088 74.5831 4.09477 74.67146 4.08437 74.72655 4.07838 74.78165 4.07239 74.87001 4.06355 74.92508 4.05763 74.98016 4.0517 75.06853 4.0415 75.12361 4.03557 75.17868 4.02965 75.26706 4.02068 75.32214 4.0148 75.37724 4.00894 75.46559 3.9991 75.52069 3.99318 75.57578 3.98724 75.66412 3.97778 75.71922 3.97198 75.7743 3.96617 75.86269 3.95695 75.91776 3.95122 75.97284 3.94547 76.0612 3.93605 76.11629 3.93047 76.17136 3.92488 76.25974 3.91656 76.31482 3.911 76.36992 3.90541 76.45827 3.89574 76.51335 3.89023 76.56845 3.8847 76.6568 3.87679 76.7119 3.8712 76.76698 3.86563 76.85535 3.85564 76.91043 3.85 76.96553 3.84436 77.0539 3.836 77.10898 3.83054 77.16405 3.82509 77.25241 3.8161 77.3075 3.81064 77.36256 3.80519 77.45094 3.79652 77.50603 3.79118 77.56113 3.78584 77.64948 3.77748 77.70457 3.77216 77.75966 3.76682 77.84802 3.75809 77.9031 3.75269 77.9582 3.7473 78.04657 3.73837 78.10164 3.73322 78.15672 3.72806 78.24509 3.72058 78.30017 3.7155 78.35524 3.7104 78.44362 3.70168 78.4987 3.69646 78.5538 3.69124 78.64215 3.68295 78.69725 3.67786 78.75233 3.67276 78.84068 3.6649 78.89578 3.65968 78.95087 3.65446 79.03925 3.64532 79.09431 3.64023 79.1494 3.63513 79.23776 3.6279 79.29285 3.62292 79.34792 3.61795 79.4363 3.6093 79.49138 3.60432 79.54648 3.59935 79.63483 3.59193 79.68991 3.58702 79.74501 3.5821 79.83336 3.57382 79.88846 3.56885 79.94354 3.56389 80.03192 3.55605 80.08699 3.55113 80.14207 3.54622 80.23044 3.53824 80.28552 3.53339 80.34059 3.52853 80.42896 3.52087 80.48405 3.51608 80.53915 3.5113 80.6275 3.50357 80.68259 3.4988 80.73769 3.494 80.82603 3.48622 80.88113 3.48149 80.93622 3.47676 81.02458 3.4693 81.07967 3.46461 81.13477 3.45993 81.22313 3.45241 81.27821 3.44774 81.33328 3.44307 81.42165 3.43555 81.47673 3.43088 81.5318 3.42621 81.62018 3.41861 81.67526 3.414 81.73036 3.4094 81.81871 3.40211 81.87381 3.39757 81.9289 3.39304 82.01726 3.3857 82.07234 3.38113 82.12744 3.37659 82.2158 3.36919 82.27087 3.36469 82.32596 3.3602 82.41432 3.35307 82.4694 3.3487 82.52448 3.34431 82.61285 3.33755 82.66794 3.33311 82.72304 3.32867 82.81139 3.32112 82.86649 3.31668 82.92157 3.31224 83.00992 3.30544 83.06502 3.30112 83.1201 3.2968 83.20848 3.28993 83.26355 3.28555 83.31863 3.28117 83.407 3.2738 83.46208 3.26955 83.51715 3.26529 83.60553 3.25914 83.66061 3.25482 83.71571 3.2505 83.80406 3.2427 83.85915 3.23839 83.91425 3.23407 84.0026 3.22795 84.0577 3.2237 84.11278 3.21944 84.20116 3.21194 84.25623 3.20769 84.31131 3.20343 84.39967 3.19711 84.45476 3.19298 84.50983 3.18886 84.59819 3.18192 84.65329 3.17784 84.70837 3.17377 84.79674 3.16765 84.85182 3.16357 84.90692 3.1595 84.99527 3.15256 85.05037 3.14842 85.10545 3.14429 85.19382 3.1378 85.2489 3.13373 85.304 3.12965 85.39236 3.12303 85.44743 3.11902 85.50252 3.115 85.59088 3.10869 85.64597 3.10474 85.70103 3.10078 85.78941 3.09442 85.8445 3.09047 85.8996 3.08652 85.98795 3.08008 86.04305 3.07619 86.09813 3.0723 86.18648 3.0662 86.24158 3.06235 86.29666 3.05852 86.38504 3.05234 86.44011 3.04851 86.4952 3.04468 86.58356 3.03856 86.63864 3.03467 86.69371 3.03078 86.78209 3.02423 86.83717 3.0204 86.89227 3.01657 86.98062 3.01076 87.0357 3.00699 87.0908 3.00322 87.17915 2.99692 87.23425 2.99313 87.28934 2.98936 87.37772 2.9835 87.43279 2.97974 87.48787 2.97597 87.57623 2.96967 87.63132 2.9659 87.68639 2.96213 87.77475 2.95619 87.82985 2.95248 87.88493 2.94878 87.9733 2.94273 88.02838 2.93909 88.08348 2.93544 88.17183 2.92969 88.22693 2.9261 88.28201 2.92252 88.37039 2.91684 88.42546 2.91313 88.48055 2.90942 88.56891 2.90288 88.62398 2.89928 88.67906 2.89569 88.76743 2.89072 88.82253 2.88718 88.87761 2.88365 88.96597 2.87743 89.02106 2.87378 89.07616 2.87013 89.1645 2.86432 89.2196 2.8608 89.27469 2.85727 89.36304 2.85167 89.41814 2.84825 89.47322 2.84483 89.5616 2.8396 89.61667 2.83614 89.67175 2.83267 89.76012 2.82669 89.8152 2.82317 89.87027 2.81964 89.95865 2.81409 90.01373 2.81061 90.06883 2.80713 90.15718 2.80142 90.21227 2.79807 90.26736 2.79471 90.35571 2.78975 90.41081 2.78639 90.4659 2.78304 90.55428 2.7772 90.60934 2.77385 90.66443 2.7705 90.75279 2.76547 90.80788 2.76218 90.86295 2.75888 90.95131 2.75342 91.00641 2.75006 91.0615 2.7467 91.14986 2.74124 91.20494 2.73795 91.26004 2.73465 91.34839 2.72957 91.40349 2.72627 91.45857 2.72298 91.54695 2.71739 91.60202 2.71416 91.6571 2.71092 91.74547 2.70616 91.80054 2.70293 91.85562 2.69968 91.94398 2.69405 91.99908 2.6908 92.05417 2.68756 92.14253 2.68272 92.19762 2.67955 92.25272 2.67638 92.34106 2.67105 92.39616 2.66788 92.45125 2.6647 92.53961 2.65974 92.5947 2.65663 92.64977 2.65352 92.73814 2.6485 92.79321 2.64539 92.8483 2.64226 92.93666 2.63727 92.99176 2.63414 93.04684 2.63103 93.13521 2.62607 93.19029 2.6229 93.24539 2.61972 93.33374 2.61433 93.38882 2.61122 93.44392 2.60811 93.53227 2.60345 93.58737 2.6004 93.64246 2.59734 93.73083 2.59222 93.7859 2.58916 93.84099 2.5861 93.92935 2.58133 93.98444 2.57834 94.0395 2.57535 94.12787 2.57047 94.18297 2.56754 94.23805 2.56459 94.32642 2.5602 94.3815 2.55714 94.4366 2.5541 94.52495 2.5484 94.58005 2.54547 94.63513 2.54254 94.72351 2.53883 94.77858 2.53595 94.83366 2.53308 94.92203 2.52763 94.9771 2.5247 95.03218 2.52177 95.12054 2.5177 95.17564 2.51477 95.23073 2.51183 95.31909 2.50652 95.37418 2.50351 95.42928 2.50052 95.51762 2.49588 95.57272 2.49313 95.6278 2.49039 95.71617 2.48643 95.77126 2.48361 95.82632 2.4808 95.9147 2.47562 95.96977 2.47281 96.02486 2.47 96.11322 2.46611 96.16832 2.46329 96.2234 2.46048 96.31177 2.45523 96.36685 2.45248 96.42195 2.44974 96.5103 2.44608 96.56538 2.44339 96.62048 2.4407 96.70885 2.43588 96.76393 2.43301 96.819 2.43013 96.90738 2.42537 96.96245 2.42262 97.01753 2.41988 97.1059 2.41586 97.161 2.4131 97.21608 2.41035 97.30443 2.40547 97.35953 2.40273 97.41463 2.39998 97.50298 2.39592 97.55806 2.39322 97.61316 2.39053 97.7015 2.38596 97.7566 2.38327 97.81169 2.38057 97.90007 2.37637 97.95514 2.37375 98.01022 2.37112 98.09859 2.36687 98.15367 2.36423 98.20874 2.3616 98.2971 2.35735 98.3522 2.35472 98.40729 2.35208 98.49565 2.34778 98.55074 2.3452 98.60583 2.34264 98.69418 2.33876 98.74928 2.33612 98.80437 2.3335 98.89273 2.3288 98.94781 2.32617 99.0029 2.32353 99.09126 2.31966 99.14633 2.3171 99.20142 2.31453 99.28978 2.31009 99.34488 2.30757 99.39996 2.30507 99.48833 2.30144 99.54341 2.29892 99.59851 2.29642 99.68686 2.29204 99.74196 2.28941 99.79704 2.28677 99.8854 2.28235 99.94049 2.27989 99.99556 2.27745 100.08394 2.27412 100.139 2.27167 100.19409 2.26923 100.28246 2.2646 100.33755 2.26215 100.39264 2.2597 100.481 2.2564 100.53609 2.25394 100.59119 2.2515 100.67953 2.24687 100.73462 2.24443 100.78972 2.24197 100.87808 2.23859 100.93317 2.2362 100.98824 2.23381 101.07661 2.22957 101.13168 2.22713 101.18677 2.22469 101.27513 2.22093 101.33023 2.21848 101.38531 2.21603 101.47366 2.21184 101.52876 2.20938 101.58385 2.20694 101.67221 2.20313 101.7273 2.20074 101.7824 2.19835 101.87074 2.19443 101.92584 2.1921 101.98093 2.18974 102.0693 2.18625 102.12437 2.18387 102.17946 2.18147 102.26782 2.17711 102.32289 2.17479 102.37798 2.17245 102.46634 2.16927 102.52144 2.167 102.57652 2.16473 102.66489 2.16069 102.71997 2.15836 102.77507 2.156 102.86342 2.1524 102.91852 2.15013 102.9736 2.14784 103.06197 2.14424 103.11705 2.1419 103.17212 2.13956 103.2605 2.13545 103.31557 2.13326 103.37065 2.13106 103.45901 2.12811 103.51411 2.12592 103.5692 2.1237 103.65756 2.11952 103.71265 2.11726 103.76775 2.115 103.8561 2.11163 103.91118 2.10948 103.96628 2.10732 104.05464 2.1039 104.10973 2.10168 104.1648 2.09946 104.25317 2.09567 104.30824 2.09348 104.36333 2.09126 104.45169 2.0879 104.50679 2.0857 104.56187 2.08347 104.65022 2.07968 104.70532 2.07747 104.7604 2.07524 104.84877 2.07184 104.90385 2.06969 104.95895 2.06752 105.04732 2.06412 105.1024 2.0619 105.15747 2.05968 105.24585 2.05583 105.30092 2.05368 105.356 2.05151 105.44437 2.04836 105.49945 2.04631 105.55455 2.04428 105.6429 2.04114 105.698 2.03897 105.75308 2.03682 105.84145 2.03285 105.89653 2.03075 105.95163 2.02866 106.03998 2.02586 106.09508 2.02383 106.15016 2.02179 106.23853 2.01814 106.29361 2.01605 106.34868 2.01395 106.43706 2.01079 106.49213 2.0087 106.54721 2.00659 106.63557 2.003 106.69067 2.0009 106.74576 1.99881 106.83412 1.99559 106.8892 1.99355 106.9443 1.99152 107.03265 1.98824 107.08774 1.98619 107.14284 1.98416 107.2312 1.98094 107.28629 1.97885 107.34135 1.97675 107.42973 1.97316 107.4848 1.97107 107.53989 1.96896 107.62825 1.96562 107.68335 1.96371 107.73843 1.96179 107.82678 1.95914 107.88188 1.95721 107.93697 1.9553 108.02533 1.95183 108.08041 1.94986 108.13551 1.94788 108.22388 1.94492 108.27896 1.94295 108.33403 1.94096 108.42241 1.93764 108.47748 1.9356 108.53256 1.93356 108.62093 1.93016 108.67601 1.92824 108.73111 1.92633 108.81946 1.9236 108.87456 1.92175 108.92964 1.91989 109.018 1.91681 109.07309 1.91484 109.12819 1.91286 109.21655 1.9094 109.27164 1.90747 109.3267 1.90556 109.41507 1.9029 109.47015 1.90099 109.52522 1.89906 109.6136 1.89561 109.66869 1.89365 109.72379 1.89166 109.81213 1.88857 109.86723 1.8867 109.92232 1.88486 110.01068 1.88203 110.06577 1.88023 110.12086 1.87843 110.20921 1.8756 110.2643 1.87375 110.3194 1.87189 110.40776 1.8688 110.46284 1.86682 110.51791 1.86485 110.6063 1.86139 110.66136 1.85947 110.71645 1.85756 110.80481 1.85483 110.85991 1.85298 110.915 1.85112 111.00334 1.84792 111.05844 1.84605 111.11353 1.84421 111.20189 1.84137 111.25697 1.83957 111.31207 1.83777 111.40044 1.83487 111.45552 1.83308 111.51059 1.83128 111.59897 1.82838 111.65404 1.82658 111.70912 1.8248 111.79749 1.8219 111.85257 1.82011 111.90767 1.81831 111.99602 1.81535 112.05112 1.81361 112.1062 1.81189 112.19456 1.8093 112.24965 1.80757 112.30475 1.80583 112.39311 1.80287 112.4482 1.80107 112.50327 1.79929 112.59163 1.79633 112.64671 1.79459 112.70178 1.79285 112.79016 1.79027 112.84525 1.78853 112.90034 1.7868 112.9887 1.78378 113.0438 1.78204 113.09888 1.7803 113.24232 1.77599 113.24232 1.77599"/>
<path transform="matrix(1.00009,0,0,-1.00003,120.56023,131.12454)" stroke-width=".79701" stroke-linecap="butt" stroke-miterlimit="10" stroke-linejoin="miter" fill="none" stroke="#0000ff" d="M-113.38724 1.77167C-113.38724 1.77167-113.24379 1.77605-113.18869 1.77771-113.1336 1.77939-113.04524 1.78204-112.99016 1.78378-112.93506 1.7855-112.84671 1.78851-112.79161 1.79025-112.73653 1.79199-112.64818 1.79465-112.59308 1.79633-112.538 1.79799-112.44962 1.80064-112.39455 1.80237-112.33946 1.80411-112.2511 1.807-112.19601 1.80885-112.14095 1.81071-112.05257 1.81398-111.99748 1.81578-111.94238 1.81757-111.85403 1.82004-111.79895 1.82182-111.74385 1.82362-111.6555 1.8269-111.6004 1.82877-111.54532 1.83061-111.45694 1.8335-111.40187 1.83524-111.34679 1.83698-111.25842 1.83951-111.20334 1.84131-111.14827 1.8431-111.0599 1.84636-111.0048 1.84822-110.94972 1.85007-110.86136 1.85292-110.80627 1.8547-110.75117 1.8565-110.66283 1.85922-110.60773 1.8612-110.55264 1.86317-110.46426 1.86707-110.4092 1.86899-110.35411 1.8709-110.26575 1.87318-110.21068 1.87503-110.1556 1.87689-110.06723 1.88054-110.01213 1.88239-109.95705 1.88425-109.86868 1.88658-109.8136 1.88844-109.7585 1.8903-109.67015 1.89389-109.61505 1.8958-109.55997 1.89772-109.4716 1.90044-109.41652 1.9023-109.36145 1.90414-109.27307 1.90729-109.218 1.90921-109.16292 1.91112-109.07455 1.91415-109.01945 1.91612-108.96437 1.9181-108.876 1.92151-108.82092 1.92348-108.76582 1.92546-108.67747 1.92848-108.62239 1.9304-108.56729 1.93231-108.47894 1.93535-108.42384 1.93732-108.36876 1.9393-108.28038 1.9427-108.22531 1.94467-108.17023 1.94666-108.08186 1.94962-108.02678 1.9516-107.97171 1.95357-107.88335 1.95685-107.82825 1.95895-107.77316 1.96104-107.6848 1.96469-107.62971 1.96674-107.57462 1.96877-107.48627 1.97168-107.43117 1.97365-107.37608 1.97563-107.2877 1.9791-107.23264 1.981-107.17755 1.98293-107.08919 1.98552-107.03412 1.9875-106.97903 1.98947-106.89067 1.99312-106.83557 1.99529-106.78049 1.99744-106.69212 2.00102-106.63704 2.00307-106.58194 2.0051-106.49359 2.00801-106.43849 2.00998-106.3834 2.01196-106.29504 2.01524-106.23996 2.01733-106.18489 2.01944-106.09651 2.02296-106.04144 2.02513-105.98636 2.02728-105.898 2.03069-105.8429 2.03291-105.78781 2.03513-105.69945 2.03897-105.64436 2.04114-105.58926 2.04329-105.50092 2.04633-105.44583 2.0485-105.39073 2.05064-105.30237 2.0546-105.24728 2.0567-105.19221 2.05879-105.10384 2.06154-105.04877 2.06363-104.99368 2.06573-104.90532 2.06964-104.85022 2.07184-104.79514 2.07405-104.70679 2.07747-104.65169 2.07962-104.5966 2.08179-104.50824 2.08519-104.45316 2.0874-104.39806 2.08963-104.30971 2.09341-104.25461 2.09563-104.19952 2.09785-104.11115 2.1012-104.05608 2.10341-104.00099 2.10564-103.91263 2.10942-103.85756 2.11163-103.80247 2.11386-103.71411 2.11716-103.65901 2.11942-103.60393 2.12169-103.51556 2.12581-103.46048 2.12807-103.40538 2.13034-103.31703 2.13364-103.26193 2.13585-103.20685 2.13808-103.11848 2.14182-103.0634 2.14407-103.00833 2.14635-102.91995 2.15002-102.86488 2.15228-102.8098 2.15456-102.72144 2.15823-102.66634 2.1605-102.61125 2.1628-102.52289 2.16629-102.4678 2.16873-102.4127 2.17119-102.32436 2.17593-102.26927 2.17825-102.21417 2.18057-102.12581 2.18327-102.07072 2.1856-102.01566 2.18793-101.92728 2.19272-101.87221 2.19511-101.81712 2.1975-101.72876 2.20064-101.67366 2.2029-101.61858 2.20515-101.53023 2.20903-101.47513 2.21155-101.42004 2.21405-101.33168 2.21861-101.2766 2.22107-101.2215 2.22351-101.13313 2.2269-101.07805 2.2293-101.02298 2.23167-100.9346 2.23592-100.87953 2.23836-100.82445 2.24081-100.73608 2.24463-100.681 2.24702-100.6259 2.24944-100.53755 2.2533-100.48245 2.25568-100.42737 2.25806-100.339 2.26183-100.28392 2.26433-100.22882 2.26683-100.14047 2.27127-100.08537 2.27385-100.03029 2.27641-99.94193 2.28041-99.88684 2.28291-99.83177 2.28543-99.7434 2.2895-99.68832 2.292-99.63324 2.29453-99.54488 2.29865-99.48978 2.30109-99.4347 2.30353-99.34633 2.30716-99.29124 2.30974-99.23615 2.3123-99.1478 2.31706-99.09271 2.31969-99.03761 2.32233-98.94925 2.3262-98.89417 2.32877-98.8391 2.33134-98.75072 2.33565-98.69565 2.33829-98.64056 2.34091-98.5522 2.34517-98.4971 2.3478-98.44202 2.35043-98.35367 2.35475-98.29857 2.35732-98.24348 2.3599-98.15512 2.36371-98.10004 2.3664-98.04494 2.36908-97.95657 2.37408-97.90149 2.37677-97.84642 2.37947-97.75804 2.38318-97.70297 2.38586-97.64789 2.38857-97.55952 2.39355-97.50444 2.39626-97.44934 2.39894-97.361 2.40263-97.3059 2.40532-97.25081 2.40802-97.16245 2.4129-97.10736 2.41571-97.05226 2.41852-96.9639 2.42296-96.90881 2.42564-96.85374 2.42834-96.76538 2.43242-96.7103 2.43517-96.65521 2.43791-96.56685 2.4428-96.51176 2.44556-96.45667 2.4483-96.36832 2.45226-96.31322 2.45506-96.25813 2.45789-96.16977 2.46295-96.11469 2.4659-96.05959 2.46883-95.97124 2.47345-95.91614 2.47626-95.86105 2.47906-95.77269 2.4834-95.7176 2.48622-95.66254 2.48903-95.57416 2.49373-95.51909 2.4966-95.464 2.49947-95.37564 2.5041-95.32054 2.50699-95.26546 2.50986-95.1771 2.5146-95.12201 2.51735-95.06691 2.5201-94.97856 2.52399-94.92348 2.52687-94.86838 2.52974-94.78001 2.535-94.72493 2.53812-94.66986 2.54123-94.58148 2.54637-94.52641 2.54936-94.47133 2.55235-94.38297 2.55681-94.32787 2.55975-94.27278 2.56268-94.18443 2.56757-94.12933 2.57056-94.07425 2.57355-93.98589 2.57837-93.9308 2.58136-93.8757 2.58437-93.78734 2.58907-93.73225 2.5922-93.67719 2.5953-93.5888 2.60081-93.53374 2.60387-93.47865 2.60692-93.39029 2.61119-93.3352 2.61424-93.2801 2.6173-93.19176 2.6228-93.13666 2.62592-93.08157 2.62904-92.99321 2.6336-92.93813 2.63673-92.88303 2.63985-92.79466 2.64525-92.73958 2.64842-92.68451 2.6516-92.59615 2.65654-92.54106 2.65965-92.486 2.66277-92.39761 2.66772-92.34253 2.6709-92.28743 2.67409-92.19908 2.6794-92.14398 2.68259-92.0889 2.68576-92.00053 2.69054-91.94545 2.69383-91.89035 2.69713-91.802 2.70306-91.74692 2.70638-91.69182 2.70967-91.60345 2.71445-91.54837 2.71762-91.4933 2.7208-91.40492 2.726-91.34985 2.7293-91.29477 2.73259-91.2064 2.73811-91.1513 2.74141-91.09622 2.7447-91.00787 2.74979-90.95277 2.75308-90.89769 2.75638-90.80933 2.76184-90.75424 2.7652-90.69914 2.76855-90.61078 2.77396-90.5557 2.77731-90.50063 2.78067-90.41225 2.78601-90.35718 2.78941-90.3021 2.79283-90.21373 2.79854-90.15865 2.80196-90.10355 2.80537-90.0152 2.8106-89.9601 2.81407-89.90501 2.81755-89.81665 2.8236-89.76157 2.82706-89.70647 2.83052-89.6181 2.83575-89.56302 2.83916-89.50795 2.84256-89.41959 2.84822-89.3645 2.8517-89.30943 2.85518-89.22105 2.86078-89.16597 2.86426-89.11087 2.86774-89.02252 2.87315-88.96742 2.8768-88.91234 2.88045-88.82397 2.88698-88.76889 2.89064-88.71379 2.89429-88.62543 2.89958-88.57036 2.90317-88.51527 2.90677-88.42691 2.91287-88.37183 2.91658-88.31676 2.92029-88.22838 2.92635-88.1733 2.93-88.1182 2.93364-88.02985 2.93933-87.97475 2.94298-87.91966 2.94662-87.83131 2.95267-87.77621 2.95638-87.72113 2.9601-87.63277 2.96608-87.57768 2.96979-87.52258 2.9735-87.43422 2.97955-87.37914 2.9832-87.32407 2.98685-87.23569 2.99242-87.18062 2.99619-87.12553 2.99995-87.03717 3.00662-86.98209 3.01045-86.92699 3.01428-86.83864 3.02003-86.78354 3.02386-86.72845 3.0277-86.64009 3.03424-86.585 3.03813-86.5299 3.04202-86.44154 3.04808-86.38646 3.05197-86.33139 3.05586-86.24303 3.06235-86.18794 3.06625-86.13287 3.07014-86.0445 3.07619-85.98941 3.08008-85.93431 3.08397-85.84596 3.09041-85.79086 3.09436-85.73578 3.09831-85.64742 3.10461-85.59233 3.10863-85.53723 3.11264-85.44887 3.11934-85.3938 3.12335-85.33871 3.12737-85.25035 3.1336-85.19527 3.13762-85.1402 3.14163-85.05182 3.14824-84.99673 3.15231-84.94164 3.15639-84.85329 3.16289-84.79819 3.16702-84.7431 3.17116-84.65475 3.17802-84.59966 3.18216-84.54457 3.1863-84.45619 3.19275-84.40112 3.19688-84.34604 3.20102-84.25768 3.2077-84.20259 3.21202-84.14752 3.21634-84.05914 3.22375-84.00406 3.22801-83.94896 3.23227-83.86061 3.23846-83.80553 3.24272-83.75043 3.24698-83.66208 3.2544-83.60698 3.25871-83.5519 3.26303-83.46353 3.2696-83.40845 3.27386-83.35335 3.27812-83.26498 3.28513-83.2099 3.28944-83.15483 3.29376-83.06647 3.30063-83.01138 3.30501-82.95631 3.30939-82.86794 3.31657-82.81285 3.32101-82.75775 3.32545-82.6694 3.33257-82.6143 3.337-82.55922 3.34145-82.47086 3.34851-82.41577 3.35301-82.36067 3.35751-82.27231 3.36488-82.21724 3.36945-82.16216 3.37401-82.07379 3.38133-82.0187 3.3859-81.96364 3.39046-81.87526 3.39783-81.82018 3.40233-81.76508 3.40683-81.67673 3.41373-81.62163 3.41833-81.56654 3.42294-81.4782 3.43103-81.4231 3.43564-81.36801 3.44025-81.27963 3.44696-81.22456 3.45163-81.16948 3.4563-81.08112 3.46465-81.02603 3.46938-80.97096 3.4741-80.88258 3.48108-80.8275 3.48581-80.7724 3.49054-80.68405 3.49876-80.62897 3.50354-80.57387 3.50833-80.48552 3.51555-80.43042 3.5204-80.37534 3.52525-80.28696 3.5336-80.23189 3.53857-80.1768 3.54355-80.08844 3.55153-80.03336 3.55632-79.97829 3.5611-79.88992 3.56822-79.83482 3.57318-79.77972 3.57816-79.69138 3.58719-79.63629 3.59222-79.58119 3.59724-79.49284 3.60461-79.43774 3.60951-79.38266 3.61443-79.2943 3.62271-79.23921 3.62769-79.18411 3.63266-79.09575 3.64038-79.04068 3.64542-78.9856 3.65044-78.89723 3.65886-78.84215 3.66402-78.78708 3.66917-78.6987 3.67752-78.64362 3.68262-78.58852 3.6877-78.50017 3.69556-78.44507 3.70078-78.38998 3.706-78.30164 3.71486-78.24654 3.72025-78.19144 3.72565-78.10307 3.73444-78.048 3.73972-77.99292 3.74498-77.90456 3.75308-77.84947 3.7583-77.7944 3.76352-77.70602 3.77206-77.65094 3.77733-77.59584 3.78261-77.50749 3.79103-77.4524 3.79637-77.39731 3.8017-77.30896 3.81044-77.25386 3.81584-77.19878 3.82124-77.1104 3.82991-77.05533 3.8353-77.00024 3.8407-76.91188 3.84912-76.8568 3.85475-76.80173 3.8604-76.71335 3.87033-76.65826 3.87596-76.60316 3.8816-76.51482 3.88985-76.45973 3.89542-76.40463 3.901-76.31628 3.91055-76.26118 3.91618-76.2061 3.92183-76.11772 3.93033-76.06265 3.93608-76.00757 3.94182-75.9192 3.95178-75.86412 3.9577-75.80905 3.96364-75.72069 3.97319-75.66559 3.9789-75.6105 3.9846-75.52214 3.99304-75.46706 3.9988-75.41196 4.00456-75.32361 4.01462-75.26851 4.02043-75.21342 4.02623-75.12506 4.03482-75.06998 4.04076-75.01488 4.04668-74.92651 4.0572-74.87144 4.06325-74.81636 4.0693-74.728 4.07846-74.67291 4.08444-74.61784 4.09044-74.52946 4.10039-74.47438 4.1065-74.41928 4.11261-74.33093 4.12251-74.27583 4.12856-74.22075 4.13461-74.1324 4.14403-74.0773 4.15019-74.02222 4.15637-73.93384 4.16676-73.87877 4.17311-73.82368 4.17947-73.73532 4.18987-73.68024 4.19604-73.62517 4.20221-73.53679 4.21136-73.4817 4.21767-73.4266 4.22395-73.33826 4.23509-73.28317 4.24146-73.22807 4.2478-73.13972 4.2571-73.08463 4.2635-73.02954 4.26993-72.94116 4.28114-72.8861 4.28773-72.83101 4.29434-72.74265 4.30461-72.68756 4.3111-72.63249 4.31757-72.54413 4.32785-72.48903 4.33444-72.43394 4.34103-72.34558 4.35214-72.2905 4.35867-72.2354 4.3652-72.14705 4.37488-72.09195 4.38159-72.03687 4.38832-71.94849 4.40018-71.89342 4.40712-71.83833 4.41406-71.74997 4.42505-71.6949 4.43176-71.63982 4.43848-71.55145 4.4489-71.49635 4.45555-71.44127 4.46222-71.3529 4.47278-71.29782 4.47978-71.24272 4.4868-71.15437 4.49904-71.09927 4.50616-71.04419 4.51329-70.95583 4.52423-70.90074 4.53125-70.84567 4.53825-70.7573 4.54976-70.70222 4.55676-70.64714 4.56378-70.55878 4.57484-70.50368 4.58185-70.4486 4.58887-70.36023 4.60013-70.30515 4.60738-70.25005 4.61462-70.1617 4.62688-70.10661 4.6342-70.05151 4.64151-69.96317 4.65277-69.90807 4.66014-69.85298 4.66751-69.7646 4.6799-69.70953 4.6874-69.65445 4.6949-69.56609 4.70679-69.511 4.71422-69.45593 4.72165-69.36757 4.7336-69.31247 4.74103-69.25739 4.74847-69.16902 4.7603-69.11394 4.76785-69.05884 4.7754-68.97049 4.78786-68.91539 4.79553-68.8603 4.8032-68.77193 4.81548-68.71686 4.82321-68.66177 4.83095-68.57341 4.84352-68.51834 4.85132-68.46326 4.85912-68.3749 4.87152-68.3198 4.87944-68.26471 4.88737-68.17635 4.9005-68.12126 4.90842-68.06616 4.91634-67.97781 4.92868-67.92271 4.93654-67.86763 4.94441-67.77927 4.95706-67.72418 4.96509-67.66911 4.97313-67.58073 4.98634-67.52567 4.99449-67.47058 5.00264-67.38222 5.01564-67.32712 5.02391-67.27203 5.03218-67.18367 5.04593-67.12859 5.0542-67.07349 5.06247-66.98514 5.07516-66.93005 5.0836-66.87495 5.09206-66.78659 5.10667-66.7315 5.11519-66.67644 5.1237-66.58806 5.13652-66.53299 5.14502-66.4779 5.15353-66.38954 5.16797-66.33444 5.1766-66.27936 5.18524-66.19101 5.19855-66.13591 5.2073-66.08083 5.21606-65.99246 5.23093-65.93738 5.23975-65.88228 5.24857-65.79393 5.26227-65.73883 5.2709-65.68375 5.27953-65.59537 5.29321-65.5403 5.30203-65.48521 5.31085-65.39685 5.32553-65.34178 5.33447-65.2867 5.34341-65.19833 5.35742-65.14323 5.36649-65.08815 5.37555-64.99979 5.39067-64.9447 5.3998-64.8896 5.40892-64.80125 5.42294-64.74615 5.43224-64.69107 5.44153-64.6027 5.45743-64.54762 5.46684-64.49255 5.47624-64.40417 5.4908-64.3491 5.50014-64.29402 5.50949-64.20566 5.5247-64.15056 5.5343-64.09547 5.5439-64.00711 5.55975-63.95203 5.56934-63.89693 5.57893-63.80858 5.59386-63.7535 5.60352-63.6984 5.61317-63.61003 5.62921-63.55495 5.63898-63.49988 5.64876-63.4115 5.66425-63.35643 5.67403-63.30135 5.68379-63.21298 5.6996-63.15788 5.70949-63.1028 5.71939-63.01445 5.73549-62.95935 5.74538-62.90427 5.75528-62.8159 5.77058-62.76082 5.78085-62.70572 5.7911-62.61736 5.80904-62.56227 5.81935-62.5072 5.82968-62.41882 5.84488-62.36375 5.85524-62.30867 5.86562-62.2203 5.88379-62.16522 5.89418-62.11012 5.90456-62.02177 5.91972-61.96667 5.93008-61.91159 5.94046-61.82323 5.95815-61.76814 5.96901-61.71304 5.97986-61.6247 5.99783-61.5696 6.00838-61.51451 6.01892-61.42615 6.03429-61.37106 6.04514-61.31598 6.05598-61.22762 6.07574-61.17255 6.08667-61.11746 6.09758-61.0291 6.11287-60.974 6.12386-60.91891 6.13483-60.83055 6.15446-60.77547 6.1658-60.72037 6.17715-60.63202 6.1945-60.57692 6.20561-60.52184 6.2167-60.43347 6.23439-60.37839 6.24583-60.32332 6.25728-60.23494 6.27675-60.17987 6.28821-60.12479 6.29968-60.03642 6.31694-59.98132 6.32846-59.92624 6.33997-59.83788 6.35939-59.78279 6.37126-59.72769 6.38313-59.63934 6.40216-59.58426 6.4141-59.52916 6.42603-59.4408 6.4453-59.38571 6.45735-59.33064 6.4694-59.24226 6.48897-59.1872 6.50102-59.13211 6.51308-59.04375 6.53224-58.98865 6.5443-58.93356 6.55635-58.84521 6.57579-58.79012 6.58797-58.73503 6.60014-58.64667 6.61954-58.59158 6.63208-58.53648 6.64462-58.44812 6.66542-58.39304 6.67838-58.33797 6.69133-58.24959 6.71245-58.19452 6.72551-58.13943 6.73859-58.05107 6.75996-57.99599 6.77267-57.94089 6.78539-57.85254 6.8045-57.79744 6.81721-57.74236 6.82993-57.65399 6.85124-57.5989 6.86436-57.54381 6.8775-57.45546 6.89874-57.40036 6.91194-57.34528 6.92513-57.25691 6.94632-57.20183 6.95952-57.14676 6.97272-57.05838 6.99342-57.00331 7.0071-56.94823 7.02078-56.85986 7.04434-56.80476 7.05814-56.74968 7.07193-56.66132 7.09279-56.60623 7.10658-56.55113 7.12038-56.46278 7.1434-56.4077 7.15762-56.3526 7.17183-56.26424 7.19481-56.20915 7.20909-56.15408 7.22336-56.0657 7.24623-56.01064 7.26056-55.95555 7.2749-55.86719 7.29851-55.81209 7.31248-55.757 7.32645-55.66866 7.34695-55.61356 7.36136-55.55847 7.37575-55.47011 7.4014-55.41502 7.41628-55.35992 7.43117-55.27156 7.45367-55.21648 7.46861-55.1614 7.48357-55.07303 7.50903-55.01796 7.52399-54.96288 7.53893-54.87451 7.56128-54.81943 7.57632-54.76433 7.59137-54.67598 7.61702-54.62088 7.63255-54.5658 7.64809-54.47743 7.67238-54.42235 7.68835-54.36725 7.70432-54.27888 7.73158-54.2238 7.7476-54.16873 7.76363-54.08037 7.78777-54.02528 7.80383-53.97021 7.8199-53.88184 7.8474-53.82675 7.86353-53.77165 7.87965-53.6833 7.90442-53.6282 7.9202-53.57312 7.93597-53.48476 7.96097-53.42967 7.97728-53.37457 7.99359-53.28622 8.02104-53.23114 8.03784-53.17604 8.05464-53.08768 8.08159-53.0326 8.09839-52.97752 8.11519-52.88914 8.14209-52.83408 8.15895-52.77899 8.17581-52.69063 8.20255-52.63553 8.21992-52.58044 8.23732-52.4921 8.267-52.437 8.2844-52.38191 8.30177-52.29355 8.32799-52.23846 8.34538-52.18336 8.36276-52.095 8.39224-52.03992 8.40982-51.98485 8.4274-51.89647 8.45398-51.8414 8.4721-51.78632 8.49022-51.69795 8.52191-51.64287 8.54045-51.58777 8.55898-51.49942 8.58757-51.44432 8.60576-51.38924 8.62393-51.30087 8.65279-51.24579 8.67151-51.19069 8.69022-51.10233 8.72194-51.04724 8.74072-50.99217 8.75949-50.90381 8.78806-50.84872 8.8069-50.79366 8.82573-50.70528 8.85715-50.65019 8.87654-50.5951 8.89592-50.50674 8.92717-50.45164 8.9466-50.39656 8.96603-50.3082 8.99669-50.25311 9.01666-50.19801 9.03664-50.10965 9.07011-50.05458 9.09064-49.9995 9.11116-49.91113 9.1445-49.85605 9.1646-49.80098 9.1847-49.7126 9.21532-49.65752 9.23553-49.60242 9.25575-49.51407 9.28966-49.45897 9.31036-49.40388 9.33107-49.31554 9.36353-49.26044 9.38477-49.20535 9.406-49.11699 9.44212-49.0619 9.46349-49.0068 9.48485-48.91844 9.51727-48.86336 9.53874-48.80829 9.56023-48.71991 9.59631-48.66484 9.61833-48.60976 9.64034-48.5214 9.67589-48.46631 9.69748-48.41121 9.71909-48.32286 9.75185-48.26776 9.77405-48.21268 9.79623-48.12431 9.83485-48.06923 9.85753-48.01413 9.88022-47.92577 9.91473-47.87068 9.93755-47.81561 9.96034-47.72725 9.99898-47.67216 10.0219-47.6171 10.04482-47.52872 10.07932-47.47363 10.10277-47.41853 10.12622-47.33018 10.16695-47.27509 10.19102-47.22 10.21509-47.13164 10.25253-47.07655 10.27623-47.02145 10.29993-46.93309 10.33763-46.87802 10.36186-46.82294 10.3861-46.73457 10.42613-46.67949 10.45097-46.62442 10.47581-46.53604 10.51604-46.48096 10.54094-46.42586 10.56584-46.33751 10.60498-46.28241 10.63048-46.22733 10.65598-46.13898 10.69908-46.08388 10.72476-46.0288 10.75044-45.94041 10.7898-45.88535 10.8156-45.83026 10.84138-45.7419 10.88448-45.68681 10.91075-45.63174 10.93704-45.54337 10.97818-45.48828 11.00505-45.43318 11.03194-45.34483 11.07695-45.28975 11.10454-45.23465 11.13213-45.1463 11.17683-45.0912 11.20403-45.03612 11.2312-44.94775 11.27312-44.89267 11.30048-44.83757 11.32784-44.7492 11.37335-44.69412 11.40125-44.63905 11.42914-44.55069 11.4725-44.4956 11.5016-44.44052 11.53069-44.35216 11.58176-44.29707 11.61104-44.24197 11.64032-44.15363 11.68388-44.09853 11.71268-44.04344 11.74147-43.95508 11.78871-43.9 11.81865-43.8449 11.84859-43.75653 11.89893-43.70145 11.92851-43.64638 11.9581-43.55801 12.00218-43.50293 12.03189-43.44786 12.06158-43.35948 12.11177-43.3044 12.14262-43.2493 12.17346-43.16095 12.22266-43.10585 12.25421-43.05077 12.28578-42.9624 12.33794-42.90732 12.37015-42.85222 12.40236-42.76385 12.45415-42.70879 12.48648-42.6537 12.51881-42.56534 12.57077-42.51025 12.60329-42.45518 12.6358-42.3668 12.68774-42.31172 12.72093-42.25662 12.75412-42.16827 12.80864-42.11317 12.84247-42.05809 12.87631-41.96974 12.93033-41.91464 12.96487-41.85956 12.99944-41.77118 13.05742-41.71611 13.09161-41.66103 13.12582-41.57266 13.17697-41.51758 13.21143-41.46251 13.24586-41.37413 13.30426-41.31905 13.33989-41.26395 13.37553-41.1756 13.43266-41.12051 13.46835-41.06541 13.50404-40.97707 13.56017-40.92197 13.59724-40.86688 13.63432-40.77852 13.69841-40.72343 13.73566-40.66833 13.77292-40.57997 13.82854-40.52489 13.86586-40.46982 13.90317-40.38145 13.96593-40.32637 14.0047-40.2713 14.04346-40.18292 14.10574-40.12784 14.14528-40.07274 14.18481-39.98439 14.25073-39.92929 14.28975-39.8742 14.32875-39.78584 14.38725-39.73076 14.42642-39.67566 14.4656-39.5873 14.53157-39.53223 14.57219-39.47714 14.61281-39.38878 14.67839-39.3337 14.71925-39.27863 14.76012-39.19025 14.82463-39.13516 14.86674-39.08006 14.90887-38.99171 14.97993-38.93661 15.02289-38.88153 15.06586-38.79318 15.13324-38.73808 15.17645-38.683 15.21965-38.59462 15.2904-38.53955 15.33432-38.48447 15.37823-38.3961 15.44829-38.34102 15.49306-38.28595 15.53783-38.19757 15.612-38.14249 15.657-38.08739 15.702-37.99904 15.77223-37.94395 15.81747-37.88885 15.86272-37.8005 15.93643-37.7454 15.98312-37.69032 16.02982-37.60194 16.10652-37.54688 16.15398-37.49179 16.20145-37.40343 16.2769-37.34834 16.32526-37.29327 16.37361-37.20491 16.45334-37.14981 16.50261-37.09473 16.55188-37.00636 16.63098-36.95128 16.68037-36.89618 16.72977-36.80783 16.80824-36.75273 16.8586-36.69765 16.90894-36.60928 16.99077-36.5542 17.04327-36.4991 17.0958-36.41074 17.18427-36.35567 17.23706-36.30058 17.28986-36.21222 17.3708-36.15714 17.4239-36.10207 17.477-36.01369 17.56601-35.9586 17.61984-35.9035 17.67368-35.81516 17.7577-35.76006 17.81189-35.70497 17.86607-35.61662 17.95522-35.56152 18.01044-35.50644 18.06564-35.41806 18.15308-35.36299 18.20984-35.3079 18.2666-35.21954 18.3613-35.16446 18.41962-35.10939 18.47795-35.02101 18.57158-34.96593 18.63026-34.91083 18.68893-34.82248 18.78291-34.7674 18.84264-34.7123 18.90234-34.62395 19.00003-34.56885 19.06064-34.51376 19.12125-34.42538 19.21794-34.37032 19.27951-34.31523 19.34108-34.22687 19.44118-34.17178 19.50443-34.11671 19.56766-34.02835 19.67113-33.97325 19.7354-33.91817 19.79967-33.8298 19.90305-33.77472 19.96767-33.71962 20.03229-33.63127 20.13547-33.57617 20.20123-33.52109 20.267-33.43271 20.37422-33.37764 20.44173-33.32256 20.50925-33.23419 20.61926-33.17912 20.68785-33.12404 20.75644-33.03568 20.86652-32.98058 20.93613-32.92549 21.00574-32.83713 21.11758-32.78204 21.18959-32.72694 21.2616-32.6386 21.38184-32.5835 21.45517-32.52841 21.5285-32.44005 21.64374-32.38496 21.71814-32.3299 21.79256-32.24152 21.9168-32.18645 21.99152-32.13136 22.06622-32.043 22.18076-31.9879 22.25667-31.93282 22.33257-31.84445 22.46013-31.78937 22.53868-31.73427 22.61722-31.64592 22.74382-31.59084 22.82286-31.53574 22.9019-31.44739 23.02725-31.39229 23.10832-31.3372 23.18939-31.24883 23.32416-31.19376 23.40721-31.13867 23.49025-31.05031 23.6229-30.99522 23.70695-30.94016 23.79103-30.85179 23.92706-30.79669 24.01318-30.74161 24.0993-30.65324 24.2395-30.59816 24.32765-30.54306 24.41582-30.45471 24.55913-30.39961 24.6486-30.34453 24.73808-30.25615 24.88179-30.20108 24.97256-30.146 25.06335-30.05763 25.21019-30.00256 25.30302-29.94748 25.39587-29.85912 25.54744-29.80402 25.64171-29.74893 25.73596-29.66057 25.88684-29.60548 25.98254-29.55038 26.07826-29.46204 26.233-29.40694 26.3316-29.35185 26.43019-29.26349 26.59174-29.2084 26.6932-29.15334 26.79468-29.06496 26.96005-29.00989 27.06302-28.9548 27.166-28.86644 27.33096-28.81134 27.43544-28.75626 27.53993-28.6679 27.7093-28.61281 27.81607-28.55771 27.92284-28.46936 28.09511-28.41428 28.20493-28.35918 28.31474-28.27081 28.49553-28.21573 28.60762-28.16066 28.71973-28.07228 28.89914-28.01721 29.01291-27.96213 29.12668-27.87376 29.31052-27.81866 29.4277-27.76358 29.5449-27.67523 29.73805-27.62013 29.85765-27.56503 29.97725-27.47668 30.16866-27.4216 30.28975-27.3665 30.41086-27.27815 30.60606-27.22305 30.73051-27.16797 30.85498-27.07959 31.05968-27.02452 31.18683-26.96944 31.314-26.88107 31.51732-26.82599 31.64706-26.77092 31.77681-26.68256 31.98888-26.62746 32.12198-26.57237 32.2551-26.48401 32.47063-26.42892 32.60643-26.37383 32.74223-26.28548 32.96136-26.23038 33.10083-26.1753 33.2403-26.08693 33.4694-26.03185 33.61165-25.97676 33.75388-25.8884 33.98096-25.83333 34.12595-25.77824 34.27092-25.68988 34.50693-25.63478 34.65666-25.5797 34.80638-25.49133 35.0525-25.43625 35.20511-25.38115 35.35773-25.2928 35.60117-25.2377 35.75659-25.18262 35.91202-25.09425 36.16504-25.03917 36.3254-24.9841 36.48575-24.89572 36.74797-24.84065 36.91234-24.78557 37.0767-24.6972 37.34262-24.6421 37.51012-24.58702 37.67761-24.49866 37.94812-24.44357 38.11957-24.38847 38.29102-24.30013 38.56937-24.24504 38.74586-24.18994 38.92236-24.10158 39.21065-24.0465 39.39165-23.99142 39.57265-23.90305 39.86522-23.84798 40.05042-23.7929 40.2356-23.70453 40.537-23.64943 40.72646-23.59435 40.91592-23.506 41.22191-23.4509 41.41592-23.39581 41.60995-23.30745 41.92526-23.25237 42.12486-23.19727 42.32446-23.10892 42.64943-23.05382 42.85455-22.99873 43.05968-22.91035 43.39246-22.85529 43.60329-22.8002 43.8141-22.71184 44.15837-22.65677 44.37405-22.60168 44.58974-22.51332 44.9365-22.45822 45.15782-22.40314 45.37915-22.31477 45.7409-22.25969 45.96925-22.20459 46.1976-22.11624 46.56995-22.06114 46.80363-22.00606 47.03732-21.9177 47.41368-21.86261 47.65356-21.80754 47.89343-21.71916 48.28546-21.6641 48.53247-21.60901 48.7795-21.52065 49.17932-21.46555 49.4339-21.41046 49.68846-21.3221 50.1062-21.26701 50.36731-21.21191 50.62842-21.12357 51.0481-21.06848 51.31587-21.01338 51.58363-20.92502 52.0204-20.86993 52.29729-20.81487 52.57417-20.72649 53.02666-20.67142 53.31158-20.61633 53.59651-20.52797 54.05896-20.47287 54.35097-20.41779 54.64299-20.32944 55.11609-20.27434 55.41632-20.21925 55.71657-20.13089 56.205-20.0758 56.51497-20.0207 56.82494-19.93234 57.33046-19.87726 57.65038-19.82219 57.9703-19.73381 58.49106-19.67874 58.82083-19.62366 59.15059-19.5353 59.6872-19.48021 60.02718-19.42511 60.36716-19.33676 60.92068-19.28166 61.27115-19.22658 61.62163-19.13821 62.19193-19.08313 62.55319-19.02803 62.91447-18.93968 63.50294-18.88458 63.87503-18.8295 64.24712-18.74113 64.85056-18.68605 65.23494-18.63098 65.61932-18.5426 66.24707-18.48753 66.64543-18.43245 67.04381-18.34409 67.69508-18.28899 68.10612-18.2339 68.51715-18.14554 69.1839-18.09045 69.6079-18.03535 70.03189-17.947 70.72325-17.89192 71.162-17.83682 71.60077-17.74846 72.31744-17.69337 72.77017-17.6383 73.2229-17.54993 73.95703-17.49486 74.42506-17.43977 74.8931-17.35141 75.65738-17.29631 76.14354-17.24123 76.6297-17.15288 77.42555-17.09778 77.92906-17.0427 78.43256-16.95433 79.25241-16.89925 79.77254-16.84415 80.29268-16.75578 81.13948-16.7007 81.67787-16.64563 82.21625-16.55725 83.09459-16.50218 83.65283-16.4471 84.21107-16.35873 85.1225-16.30365 85.70132-16.24855 86.28015-16.1602 87.22351-16.1051 87.82466-16.05002 88.42581-15.96165 89.40999-15.90657 90.03406-15.85147 90.65813-15.7631 91.67352-15.70802 92.32263-15.65295 92.97174-15.56459 94.03792-15.5095 94.71239-15.45444 95.38687-15.36606 96.48463-15.31097 97.18391-15.25587 97.8832-15.16753 99.02449-15.11243 99.75233-15.05734 100.48018-14.96898 101.67285-14.9139 102.42973-14.8588 103.18663-14.77045 104.42073-14.71536 105.2075-14.66026 105.99428-14.5719 107.27951-14.51682 108.10031-14.46175 108.92111-14.3183 111.12332-14.3183 111.12332"/>
<use data-text="&#x2022;" xlink:href="#font_2_1" transform="matrix(9.963496,0,0,-9.962899,118.069,133.33861)"/>
<use data-text="(" xlink:href="#font_3_1" transform="matrix(9.963496,0,0,-9.962899,124.08054,142.11687)"/>
<use data-text="0" xlink:href="#font_3_3" transform="matrix(9.963496,0,0,-9.962899,127.94639,142.11687)"/>
<use data-text="," xlink:href="#font_1_1" transform="matrix(9.963496,0,0,-9.962899,132.93735,142.11687)"/>
<use data-text="0" xlink:href="#font_3_3" transform="matrix(9.963496,0,0,-9.962899,137.36573,142.11687)"/>
<use data-text=")" xlink:href="#font_3_2" transform="matrix(9.963496,0,0,-9.962899,142.34748,142.11687)"/>
</svg>
