<svg xmlns="http://www.w3.org/2000/svg" xmlns:xlink="http://www.w3.org/1999/xlink" version="1.1" width="250" height="252" viewBox="0 0 250 252">
<defs>
<path id="font_1_2" d="M.33399964 .30233766C.33999635 .32835389 .36299134 .42037965 .43299867 .42037965 .43798829 .42037965 .46199037 .42037965 .48298646 .40734864 .45498658 .402359 .43499757 .37734986 .43499757 .35334779 .43499757 .33735658 .44599916 .31835938 .47299195 .31835938 .49499513 .31835938 .5269928 .3363495 .5269928 .37635804 .5269928 .42837525 .46798707 .4423828 .43399049 .4423828 .37599183 .4423828 .34098817 .38935853 .32899476 .36634828 .3039856 .43237306 .25 .4423828 .22099304 .4423828 .116989139 .4423828 .05999756 .3133545 .05999756 .28834535 .05999756 .27833558 .069992069 .27833558 .07199097 .27833558 .07998657 .27833558 .08299255 .28033448 .084991458 .28933717 .11898804 .39535523 .18499756 .42037965 .21899414 .42037965 .23799134 .42037965 .272995 .4113617 .272995 .35334779 .272995 .32235719 .2559967 .25532533 .21899414 .11528015 .20298767 .053268434 .16799927 .011245728 .12399292 .011245728 .117996219 .011245728 .09498596 .011245728 .07398987 .024276734 .09899902 .029266358 .12098694 .05027771 .12098694 .07827759 .12098694 .105270389 .09899902 .11328125 .083999637 .11328125 .053985597 .11328125 .0289917 .08728027 .0289917 .055267335 .0289917 .009246826 .07899475-.0107421879 .12298584-.0107421879 .18899536-.0107421879 .22499085 .059280397 .22799683 .0652771 .23999024 .028274537 .27598573-.0107421879 .33599855-.0107421879 .43899537-.0107421879 .49598695 .118270877 .49598695 .14328003 .49598695 .1532898 .4869995 .1532898 .48399354 .1532898 .47499085 .1532898 .47299195 .14929199 .47099305 .14228821 .43798829 .03527832 .36999513 .011245728 .33799745 .011245728 .29899598 .011245728 .2829895 .043273927 .2829895 .07727051 .2829895 .09927368 .2889862 .121276859 .2999878 .16529846L.33399964 .30233766Z"/>
<path id="font_1_3" d="M.48599244 .38136292C.48999024 .39537049 .48999024 .39736939 .48999024 .40437318 .48999024 .42237855 .47599793 .43138124 .46099855 .43138124 .45098878 .43138124 .43499757 .42536927 .42599488 .41036988 .42399598 .405365 .41600038 .37435914 .4119873 .35635377 .40499879 .33035279 .397995 .30334474 .3919983 .27633668L.34700013 .09628296C.34298707 .08126831 .2999878 .011245728 .23399353 .011245728 .18299866 .011245728 .17199707 .055267335 .17199707 .0922699 .17199707 .1382904 .18899536 .20030213 .22299195 .28833009 .23899842 .3293457 .24299622 .3403473 .24299622 .36035157 .24299622 .405365 .21099854 .4423828 .16099549 .4423828 .06599426 .4423828 .0289917 .29733277 .0289917 .28833009 .0289917 .27833558 .038986207 .27833558 .040985109 .27833558 .050994874 .27833558 .051986696 .28033448 .056991579 .29634095 .083999637 .3903656 .12399292 .42037965 .1579895 .42037965 .1659851 .42037965 .18299866 .42037965 .18299866 .3883667 .18299866 .36335755 .17298889 .3373413 .1659851 .31834413 .12599182 .21231079 .10798645 .1552887 .10798645 .10827637 .10798645 .019256592 .17098999-.0107421879 .22999573-.0107421879 .2689972-.0107421879 .30299378 .0062561037 .33099366 .03425598 .31799317-.017745972 .30599977-.06674194 .2659912-.11973572 .23999024-.15385437 .20199585-.18309021 .1559906-.18309021 .14199829-.18309021 .09700012-.18005371 .07998657-.14074707 .09599304-.14074707 .10899353-.14074707 .12298584-.1287384 .1329956-.11973572 .14299011-.10673523 .14299011-.08773804 .14299011-.056747438 .115997318-.052734376 .10598755-.052734376 .08299255-.052734376 .049987794-.068740848 .049987794-.11773682 .049987794-.16796875 .09399414-.20507813 .1559906-.20507813 .25898744-.20507813 .3619995-.11373901 .3899994-.00074768069L.48599244 .38136292Z"/>
<path id="font_2_1" d="M.44400025 .24998474C.44400025 .35688783 .35499574 .44381715 .25 .44381715 .14199829 .44381715 .054992677 .35488893 .054992677 .24998474 .054992677 .14407349 .14199829 .056137086 .25 .056137086 .35499574 .056137086 .44400025 .14308167 .44400025 .24998474Z"/>
<path id="font_3_1" d="M.33099366-.2400055C.33099366-.23701477 .33099366-.23500061 .31399537-.21800232 .18899536-.0920105 .15699768 .09700012 .15699768 .25 .15699768 .42399598 .19499207 .59799197 .31799317 .72299197 .33099366 .73498538 .33099366 .7369995 .33099366 .73999026 .33099366 .746994 .32699586 .75 .32099916 .75 .31098939 .75 .22099304 .6819916 .1619873 .5549927 .11099243 .44499208 .09899902 .33399964 .09899902 .25 .09899902 .17199707 .10998535 .050994874 .16499329-.06201172 .22499085-.18501282 .31098939-.25 .32099916-.25 .32699586-.25 .33099366-.24700928 .33099366-.2400055Z"/>
<path id="font_3_3" d="M.45999146 .31976319C.45999146 .39982606 .45498658 .47988893 .41999818 .5539398 .37399293 .65000918 .2919922 .6660156 .25 .6660156 .18998719 .6660156 .116989139 .64001467 .07598877 .54693606 .04399109 .47789 .038986207 .39982606 .038986207 .31976319 .038986207 .24472046 .042999269 .15464783 .083999637 .07859802 .1269989-.0024719239 .19999695-.022460938 .24899292-.022460938 .30299378-.022460938 .3789978-.0014648438 .4229889 .09359741 .45498658 .16265869 .45999146 .2407074 .45999146 .31976319M.24899292-.00047302247C.20999146-.00047302247 .15098572 .024551392 .1329956 .12062073 .12199402 .18066406 .12199402 .2727356 .12199402 .3317871 .12199402 .39582826 .12199402 .46188355 .12998963 .5159149 .14898682 .63500979 .22399903 .64401248 .24899292 .64401248 .28199769 .64401248 .34799195 .6259918 .36698915 .52693179 .3769989 .47088624 .3769989 .39482118 .3769989 .3317871 .3769989 .25672914 .3769989 .18867493 .3659973 .12461853 .35099793 .029556275 .2939911-.00047302247 .24899292-.00047302247Z"/>
<path id="font_1_1" d="M.20298767 .0009918213C.20298767 .066986087 .17799378 .10598755 .13899231 .10598755 .10598755 .10598755 .085998538 .08099365 .085998538 .052993776 .085998538 .025985718 .10598755 0 .13899231 0 .15098572 0 .1639862 .0039978029 .17399597 .0129852299 .1769867 .01499939 .17799378 .015991211 .1789856 .015991211 .17999268 .015991211 .18099976 .01499939 .18099976 .0009918213 .18099976-.07316589 .1459961-.13328552 .11299133-.16635132 .101989749-.17736817 .101989749-.17936707 .101989749-.18237305 .101989749-.18936157 .10699463-.19335938 .11199951-.19335938 .12298584-.19335938 .20298767-.116256717 .20298767 .0009918213Z"/>
<path id="font_3_2" d="M.2889862 .25C.2889862 .32798768 .27799989 .44898988 .22299195 .56199648 .16299439 .68499758 .07699585 .75 .066986087 .75 .06098938 .75 .056991579 .74598696 .056991579 .73999026 .056991579 .7369995 .056991579 .73498538 .07598877 .71699526 .17399597 .6179962 .23098755 .45899964 .23098755 .25 .23098755 .07899475 .19400025-.09700012 .069992069-.2230072 .056991579-.23500061 .056991579-.23701477 .056991579-.2400055 .056991579-.2460022 .06098938-.25 .066986087-.25 .07699585-.25 .16699219-.18200684 .22599793-.055007936 .2769928 .054992677 .2889862 .16600037 .2889862 .25Z"/>
</defs>
<path transform="matrix(1.00009,0,0,-1.00003,120.56023,131.12454)" stroke-width=".19925" stroke-linecap="butt" stroke-miterlimit="10" stroke-linejoin="miter" fill="none" stroke="#929292" d="M-113.38724-113.38724H113.38724M-113.38724-85.04042H113.38724M-113.38724-56.69362H113.38724M-113.38724-28.3468H113.38724M-113.38724 0H113.38724M-113.38724 28.3468H113.38724M-113.38724 56.69362H113.38724M-113.38724 85.04042H113.38724M-113.38724 113.37727H113.38724M-113.38724-113.38724V113.38724M-85.04042-113.38724V113.38724M-56.69362-113.38724V113.38724M-28.3468-113.38724V113.38724M0-113.38724V113.38724M28.3468-113.38724V113.38724M56.69362-113.38724V113.38724M85.04042-113.38724V113.38724M113.37727-113.38724V113.38724M113.38724 113.38724"/>
<path transform="matrix(1.00009,0,0,-1.00003,120.56023,131.12454)" stroke-width="1.19553" stroke-linecap="butt" stroke-miterlimit="10" stroke-linejoin="miter" fill="none" stroke="#000000" d="M-119.0565 0H118.10008"/>
<path transform="matrix(1.00009,0,0,-1.00003,238.67093,131.12454)" stroke-width=".9564" stroke-linecap="round" stroke-linejoin="round" fill="none" stroke="#000000" d="M-1.91284 2.55046C-1.75343 1.59402 0 .15938 .4782 0 0-.15938-1.75343-1.59402-1.91284-2.55046"/>
<use data-text="x" xlink:href="#font_1_2" transform="matrix(9.963496,0,0,-9.962899,243.5463,133.2696)"/>
<path transform="matrix(1.00009,0,0,-1.00003,120.56023,131.12454)" stroke-width="1.19553" stroke-linecap="butt" stroke-miterlimit="10" stroke-linejoin="miter" fill="none" stroke="#000000" d="M0-119.0565V118.10008"/>
<path transform="matrix(0,-1.00003,-1.00009,-0,120.56023,13.020912)" stroke-width=".9564" stroke-linecap="round" stroke-linejoin="round" fill="none" stroke="#000000" d="M-1.91284 2.55046C-1.75343 1.59402 0 .15938 .4782 0 0-.15938-1.75343-1.59402-1.91284-2.55046"/>
<use data-text="y" xlink:href="#font_1_3" transform="matrix(9.963496,0,0,-9.962899,117.93899,6.208786)"/>
<path transform="matrix(1.00009,0,0,-1.00003,120.56023,131.12454)" stroke-width=".79701" stroke-linecap="butt" stroke-miterlimit="10" stroke-linejoin="miter" fill="none" stroke="#0000ff" d="M20.04855 113.31284C20.04855 113.31284 20.18356 110.2947 20.23541 109.1743 20.28725 108.05392 20.37044 106.30698 20.42227 105.23778 20.4741 104.16856 20.55728 102.4924 20.60912 101.46822 20.66095 100.44403 20.74414 98.83292 20.79597 97.85608 20.84782 96.87926 20.931 95.35901 20.98285 94.42778 21.03468 93.49655 21.11784 92.0365 21.1697 91.1444 21.22153 90.2523 21.30472 88.85619 21.35655 87.99811 21.40839 87.14003 21.49156 85.781 21.5434 84.95996 21.59525 84.13892 21.67842 82.86299 21.73026 82.08055 21.7821 81.29811 21.86526 80.0702 21.91711 79.32053 21.96895 78.57085 22.05214 77.39793 22.10397 76.67729 22.1558 75.95667 22.239 74.81604 22.29083 74.12662 22.34268 73.4372 22.42584 72.36815 22.47768 71.7083 22.52953 71.04846 22.6127 70.00839 22.66455 69.37086 22.71638 68.73334 22.79956 67.72311 22.8514 67.11345 22.90323 66.50377 22.98642 65.55998 23.03825 64.97672 23.09009 64.39345 23.17328 63.47362 23.22511 62.9096 23.27696 62.3456 23.36012 61.4508 23.41197 60.91171 23.4638 60.37263 23.547 59.54222 23.59883 59.02412 23.65067 58.50603 23.73384 57.67871 23.78568 57.17761 23.83751 56.67651 23.9207 55.89114 23.97253 55.41241 24.02438 54.9337 24.10754 54.18732 24.1594 53.72726 24.21123 53.26721 24.29442 52.54146 24.34625 52.09659 24.39809 51.65172 24.48128 50.94832 24.53311 50.52084 24.58495 50.09338 24.66812 49.42622 24.71996 49.01563 24.7718 48.60503 24.85498 47.95811 24.90683 47.56143 24.95866 47.16475 25.04182 46.54008 25.09367 46.15654 25.14551 45.773 25.2287 45.16531 25.28053 44.79707 25.33237 44.42883 25.41556 43.85597 25.46739 43.50249 25.51924 43.14902 25.6024 42.59145 25.65424 42.24944 25.70609 41.90742 25.78926 41.36765 25.84111 41.03746 25.89294 40.70728 25.97612 40.1866 26.02795 39.86961 26.07979 39.55263 26.16298 39.05934 26.21481 38.75279 26.26665 38.44626 26.34984 37.95644 26.40167 37.6602 26.45352 37.36398 26.53668 36.90375 26.58853 36.61778 26.64037 36.33182 26.72356 35.87552 26.77539 35.59917 26.82722 35.32281 26.9104 34.89127 26.96223 34.62595 27.01407 34.36063 27.09726 33.94478 27.1491 33.6869 27.20094 33.42903 27.2841 33.01657 27.33595 32.76733 27.38779 32.5181 27.47098 32.1311 27.52281 31.89058 27.57465 31.65005 27.65784 31.26614 27.70967 31.03372 27.7615 30.8013 27.84468 30.44003 27.89651 30.21535 27.94836 29.99066 28.03154 29.63124 28.08339 29.4143 28.13522 29.19736 28.21838 28.861 28.27023 28.65173 28.32207 28.44249 28.40526 28.10953 28.45709 27.90604 28.50893 27.70255 28.59212 27.38164 28.64395 27.185 28.6958 26.98834 28.77896 26.67987 28.8308 26.48862 28.88264 26.29736 28.96582 25.99135 29.01767 25.8065 29.0695 25.62166 29.15268 25.3336 29.20451 25.15639 29.25635 24.97919 29.33954 24.70134 29.39137 24.52922 29.44322 24.3571 29.52638 24.08344 29.57822 23.91588 29.63007 23.74832 29.71324 23.48605 29.76509 23.32158 29.81693 23.15709 29.90012 22.88892 29.95195 22.7303 30.00378 22.57167 30.08696 22.33026 30.1388 22.17838 30.19063 22.02649 30.27382 21.7833 30.32565 21.63554 30.3775 21.4878 30.46066 21.25723 30.51251 21.11346 30.56435 20.96968 30.64754 20.73799 30.69937 20.59918 30.7512 20.46037 30.8344 20.24785 30.88623 20.113 30.93806 19.97816 31.02124 19.75862 31.07307 19.62727 31.12492 19.49591 31.2081 19.29291 31.25995 19.16617 31.31178 19.03944 31.39496 18.8359 31.4468 18.71373 31.49863 18.59155 31.58182 18.40561 31.63365 18.28552 31.68549 18.16545 31.76866 17.9661 31.8205 17.84824 31.87234 17.73038 31.95552 17.54861 32.00737 17.43602 32.0592 17.32344 32.14238 17.14642 32.19423 17.03679 32.24606 16.92715 32.32924 16.75224 32.38107 16.64578 32.4329 16.53932 32.5161 16.37418 32.56793 16.26947 32.61978 16.16476 32.70294 15.99303 32.75478 15.891 32.80663 15.78899 32.8898 15.63124 32.94165 15.53415 32.99348 15.43706 33.07668 15.28578 33.12851 15.19115 33.18034 15.09651 33.26352 14.94516 33.31535 14.85204 33.36719 14.75891 33.45038 14.61041 33.50221 14.51985 33.55406 14.4293 33.63722 14.28648 33.68907 14.19934 33.7409 14.1122 33.8241 13.97559 33.87593 13.8918 33.92776 13.80803 34.01096 13.67792 34.06279 13.59552 34.11462 13.51312 34.1978 13.37907 34.24963 13.29794 34.30148 13.21681 34.38466 13.0897 34.43651 13.01073 34.48834 12.93175 34.57152 12.80473 34.62335 12.72871 34.67519 12.6527 34.75838 12.53656 34.81021 12.46269 34.86205 12.38882 34.94522 12.26816 34.99706 12.19626 35.0489 12.12437 35.13208 12.01534 35.18393 11.94452 35.23576 11.8737 35.31894 11.7547 35.37079 11.68585 35.42262 11.61702 35.5058 11.51453 35.55763 11.44841 35.60947 11.38228 35.69266 11.27437 35.74449 11.2092 35.79634 11.14403 35.8795 11.04124 35.93134 10.97867 35.98318 10.91608 36.06636 10.81958 36.11821 10.75807 36.17004 10.69656 36.25323 10.59598 36.30507 10.53531 36.3569 10.47464 36.44008 10.38048 36.49191 10.32077 36.54375 10.26105 36.62694 10.16225 36.67877 10.10493 36.73062 10.04762 36.81378 9.96277 36.86563 9.9077 36.91747 9.85262 37.00066 9.76212 37.05249 9.70787 37.10432 9.65363 37.1875 9.57016 37.23933 9.5167 37.29117 9.46323 37.37436 9.37515 37.4262 9.32246 37.47804 9.26978 37.56122 9.18672 37.61307 9.13692 37.6649 9.08711 37.74808 9.01183 37.79991 8.96347 37.85175 8.91512 37.93494 8.83664 37.98677 8.78828 38.0386 8.73993 38.12178 8.66249 38.17361 8.61485 38.22546 8.5672 38.30864 8.49046 38.36049 8.44485 38.41232 8.39925 38.4955 8.32991 38.54735 8.28612 38.59918 8.24232 38.68236 8.1723 38.73419 8.1291 38.78603 8.08589 38.86922 8.01663 38.92105 7.97469 38.9729 7.93275 39.05606 7.8687 39.10791 7.82677 39.15974 7.78482 39.24292 7.71307 39.29477 7.67233 39.3466 7.63159 39.42978 7.572 39.48161 7.53307 39.53345 7.49411 39.61664 7.43063 39.66847 7.39162 39.72032 7.35262 39.8035 7.28983 39.85533 7.2519 39.90718 7.214 39.99034 7.15509 40.04219 7.11826 40.09402 7.08142 40.17722 7.0227 40.22905 6.98633 40.28088 6.94997 40.36406 6.89143 40.4159 6.85614 40.46773 6.82086 40.55092 6.76567 40.60275 6.73201 40.6546 6.69835 40.73778 6.64674 40.78963 6.6135 40.84146 6.58025 40.92464 6.52621 40.97647 6.49237 41.0283 6.45854 41.1115 6.40248 41.16333 6.36955 41.21516 6.33661 41.29834 6.28583 41.35017 6.25493 41.40202 6.22401 41.4852 6.17671 41.53705 6.14677 41.58888 6.11684 41.67206 6.0692 41.72389 6.03908 41.77573 6.00897 41.85892 5.95935 41.91075 5.92964 41.96259 5.89995 42.04578 5.85378 42.09761 5.82498 42.14946 5.79619 42.23262 5.74992 42.28447 5.72203 42.3363 5.69414 42.41948 5.65097 42.47133 5.62384 42.52316 5.59673 42.60634 5.55376 42.65817 5.52652 42.71 5.49928 42.7932 5.45387 42.84503 5.42747 42.89688 5.4011 42.98006 5.36182 43.03189 5.33621 43.08374 5.3106 43.1669 5.26761 43.21875 5.24277 43.27058 5.21794 43.35378 5.18167 43.40561 5.15714 43.45744 5.1326 43.54062 5.09059 43.59245 5.06587 43.64429 5.04115 43.72748 5.00238 43.77931 4.97893 43.83116 4.95547 43.91434 4.9195 43.96619 4.89674 44.01802 4.87401 44.1012 4.8375 44.15303 4.81499 44.20486 4.7925 44.28806 4.75674 44.33989 4.73454 44.39172 4.71234 44.4749 4.67691 44.52673 4.65495 44.57858 4.63301 44.66176 4.59749 44.71361 4.57625 44.76544 4.55501 44.84862 4.52237 44.90045 4.50185 44.95229 4.48132 45.03548 4.4486 45.08731 4.42831 45.13914 4.40804 45.22234 4.37569 45.27417 4.35565 45.32602 4.33562 45.40918 4.30368 45.46103 4.28383 45.51286 4.26398 45.59604 4.23174 45.64789 4.21248 45.69972 4.19322 45.7829 4.16353 45.83473 4.14499 45.88657 4.12646 45.96976 4.09717 46.02159 4.07883 46.07344 4.06047 46.15662 4.03052 46.20845 4.01265 46.2603 3.99477 46.34346 3.9678 46.39531 3.94992 46.44714 3.93204 46.53033 3.90138 46.58217 3.88374 46.634 3.86612 46.71718 3.83955 46.76901 3.82275 46.82086 3.80595 46.90404 3.77888 46.95587 3.76263 47.00772 3.74638 47.09088 3.7216 47.14273 3.70554 47.19456 3.68947 47.27776 3.66296 47.32959 3.64671 47.38142 3.63046 47.46461 3.60403 47.51645 3.58832 47.56828 3.5726 47.65146 3.54855 47.7033 3.53339 47.75514 3.51822 47.83832 3.49388 47.89017 3.47888 47.942 3.4639 48.02518 3.44008 48.07701 3.42526 48.12885 3.41043 48.21204 3.38638 48.26387 3.37206 48.3157 3.35771 48.3989 3.33633 48.45073 3.32188 48.50258 3.30742 48.58574 3.28215 48.63759 3.2678 48.68942 3.25348 48.77261 3.23175 48.82445 3.21849 48.87628 3.20523 48.95946 3.18529 49.01129 3.17223 49.06313 3.15915 49.14632 3.13747 49.19815 3.1242 49.25 3.11096 49.33316 3.08977 49.38501 3.07663 49.43684 3.06349 49.52002 3.04208 49.57187 3.0295 49.6237 3.01689 49.7069 2.99797 49.75873 2.9858 49.81056 2.97362 49.89374 2.95404 49.94557 2.94168 49.99742 2.92932 50.0806 2.90894 50.13243 2.8967 50.18428 2.88446 50.26744 2.86525 50.31929 2.85344 50.37112 2.84163 50.45432 2.8231 50.50615 2.81148 50.55798 2.79985 50.64117 2.78079 50.69301 2.76952 50.74484 2.75824 50.82802 2.74132 50.87985 2.73016 50.9317 2.71901 51.01488 2.69986 51.06673 2.68907 51.11856 2.67828 51.20174 2.66292 51.25357 2.65231 51.3054 2.64171 51.3886 2.62325 51.44043 2.61252 51.49226 2.60178 51.57545 2.58531 51.62729 2.57489 51.67914 2.56445 51.7623 2.54727 51.81415 2.53725 51.86598 2.52724 51.94917 2.51254 52.001 2.50266 52.05284 2.49275 52.13602 2.47572 52.18785 2.4659 52.23969 2.45605 52.32288 2.44144 52.37471 2.43172 52.42656 2.422 52.50972 2.40521 52.56157 2.39581 52.6134 2.3864 52.69658 2.3728 52.74843 2.36382 52.80026 2.35481 52.88345 2.3401 52.93529 2.33093 52.98712 2.32175 53.0703 2.30673 53.12213 2.29762 53.17398 2.28851 53.25716 2.27414 53.30899 2.2652 53.36084 2.25626 53.444 2.2418 53.49585 2.23318 53.54768 2.22455 53.63087 2.21129 53.68271 2.2029 53.73454 2.1945 53.81773 2.18108 53.86957 2.17262 53.92142 2.16417 54.00458 2.15005 54.05641 2.1419 54.10826 2.13376 54.19144 2.12189 54.24329 2.1138 54.29512 2.10571 54.3783 2.09149 54.43013 2.08351 54.48196 2.07553 54.56516 2.06395 54.61699 2.05627 54.66882 2.0486 54.752 2.03595 54.80383 2.02815 54.85568 2.02036 54.93886 2.0076 54.9907 2.00005 55.04254 1.9925 55.12573 1.9809 55.17757 1.97365 55.2294 1.9664 55.31258 1.95514 55.36441 1.9477 55.41624 1.94026 55.49944 1.92732 55.55127 1.92001 55.60312 1.9127 55.68628 1.90189 55.73813 1.89493 55.78996 1.88799 55.87315 1.87682 55.92499 1.86986 55.97682 1.86288 56.06001 1.85147 56.11185 1.84476 56.16368 1.83803 56.24686 1.828 56.29869 1.8214 56.35054 1.8148 56.43372 1.80373 56.48557 1.79718 56.5374 1.79065 56.62056 1.78073 56.67241 1.77426 56.72424 1.76779 56.80743 1.75688 56.85927 1.75047 56.9111 1.74405 56.99428 1.7342 57.04611 1.72797 57.09796 1.72174 57.18114 1.7116 57.23297 1.70549 57.28482 1.69937 57.368 1.69003 57.41985 1.68385 57.47168 1.67769 57.55486 1.66698 57.60669 1.66093 57.65852 1.65488 57.74171 1.6459 57.79355 1.64017 57.84538 1.63441 57.92856 1.62521 57.9804 1.61942 58.03224 1.6136 58.11542 1.60402 58.16727 1.5982 58.2191 1.5924 58.30229 1.58304 58.35413 1.57745 58.40596 1.57188 58.48914 1.56357 58.54097 1.55798 58.5928 1.5524 58.676 1.54276 58.72783 1.53723 58.77968 1.53171 58.86284 1.5234 58.91469 1.5182 58.96652 1.51299 59.04971 1.50475 59.10155 1.49959 59.15338 1.49443 59.23657 1.48622 59.2884 1.481 59.34024 1.47578 59.42342 1.46712 59.47525 1.46196 59.5271 1.45682 59.61028 1.44884 59.66212 1.4438 59.71396 1.43877 59.79712 1.4306 59.84897 1.42563 59.9008 1.42067 59.984 1.41263 60.03583 1.4079 60.08766 1.40317 60.17084 1.39626 60.22267 1.39146 60.27452 1.38667 60.3577 1.37802 60.40953 1.37329 60.46138 1.36856 60.54456 1.3619 60.5964 1.35728 60.64824 1.35268 60.73141 1.34459 60.78325 1.33998 60.83508 1.33537 60.91827 1.32841 60.97011 1.32397 61.02196 1.31953 61.10512 1.31236 61.15695 1.30798 61.2088 1.3036 61.29198 1.2969 61.34383 1.2924 61.39566 1.2879 61.47885 1.28004 61.53069 1.27554 61.58252 1.27104 61.6657 1.26404 61.71753 1.25996 61.76936 1.25589 61.85255 1.2502 61.90439 1.24612 61.95624 1.24205 62.0394 1.23476 62.09125 1.23056 62.14308 1.22636 62.22627 1.21986 62.2781 1.21585 62.32994 1.21184 62.41312 1.20558 62.46495 1.20157 62.51678 1.19756 62.59998 1.19077 62.65181 1.18687 62.70366 1.18298 62.78683 1.17729 62.83868 1.17346 62.89052 1.16963 62.97368 1.16296 63.02553 1.1592 63.07736 1.15543 63.16055 1.14998 63.21239 1.14621 63.26422 1.14244 63.3474 1.1357 63.39923 1.13193 63.45108 1.12816 63.53426 1.1225 63.5861 1.11896 63.63794 1.11543 63.72112 1.11002 63.77296 1.10643 63.8248 1.10283 63.90797 1.0966 63.95981 1.09302 64.01164 1.08943 64.09483 1.08388 64.14667 1.08046 64.19852 1.07704 64.28168 1.07176 64.33351 1.06836 64.38536 1.06496 64.46854 1.05928 64.52039 1.05582 64.57222 1.05235 64.6554 1.04663 64.70723 1.04327 64.75906 1.03992 64.84225 1.03482 64.89409 1.03159 64.94592 1.02835 65.02911 1.02315 65.08095 1.01991 65.1328 1.01668 65.21596 1.01147 65.2678 1.00824 65.31964 1.00499 65.40283 .99974 65.45467 .99655 65.5065 .99338 65.58968 .98836 65.64151 .9853 65.69334 .98225 65.77654 .97755 65.82837 .9745 65.88022 .97145 65.9634 .96625 66.01524 .96326 66.06708 .96025 66.15025 .95567 66.20209 .95287 66.25392 .95006 66.33711 .9459 66.38895 .94292 66.44078 .93991 66.52396 .93423 66.57579 .93123 66.62764 .92824 66.71082 .92416 66.76266 .9213 66.8145 .91843 66.89767 .91336 66.94952 .91049 67.00136 .90761 67.08453 .90327 67.13637 .90053 67.1882 .89778 67.2714 .89334 67.32323 .89058 67.37508 .88783 67.45824 .88332 67.51007 .88063 67.56192 .87793 67.6451 .87375 67.69695 .87111 67.74878 .86848 67.83195 .86423 67.88379 .86159 67.93562 .85896 68.01881 .8547 68.07065 .85208 68.12248 .84944 68.20567 .84514 68.2575 .84256 68.30936 .84 68.39252 .836 68.44437 .83348 68.4962 .83098 68.57939 .82684 68.63123 .8244 68.68306 .82195 68.76624 .81813 68.81807 .81575 68.8699 .81335 68.9531 .80954 69.00493 .8071 69.05678 .80464 69.13995 .8004 69.1918 .79802 69.24364 .79564 69.32681 .79213 69.37865 .7898 69.43048 .78746 69.51367 .78348 69.5655 .78114 69.61734 .77882 69.70052 .77528 69.75235 .77293 69.8042 .7706 69.88737 .76656 69.93922 .76427 69.99106 .762 70.07422 .7587 70.12607 .75648 70.1779 .75429 70.2611 .75049 70.31293 .74828 70.36476 .74608 70.44795 .74266 70.49979 .7405 70.55164 .73834 70.6348 .73486 70.68665 .7327 70.73848 .73055 70.82166 .727 70.8735 .72491 70.92534 .72281 71.00851 .71967 71.06035 .71758 71.11218 .71547 71.19537 .71187 71.24721 .70978 71.29906 .70767 71.38223 .70447 71.43407 .70242 71.48592 .7004 71.56908 .69711 71.62093 .69507 71.67276 .69304 71.75595 .68964 71.80779 .68771 71.85962 .6858 71.9428 .68321 71.99463 .68124 72.04646 .67926 72.12965 .67542 72.18149 .67345 72.23334 .67146 72.3165 .66876 72.36835 .66696 72.42018 .66518 72.50337 .66238 72.5552 .66048 72.60704 .65855 72.69023 .65503 72.74207 .65312 72.7939 .6512 72.87708 .64842 72.92891 .64662 72.98076 .64484 73.06393 .64194 73.11578 .64015 73.16762 .63835 73.2508 .63545 73.30263 .63365 73.35446 .63187 73.43765 .62889 73.48949 .62717 73.54132 .62543 73.62451 .62291 73.67635 .62111 73.7282 .61932 73.81136 .61592 73.8632 .61418 73.91504 .61246 73.99821 .61018 74.05006 .60857 74.1019 .60696 74.18507 .60419 74.23691 .60251 74.28874 .60083 74.37193 .59813 74.42377 .59645 74.47562 .59479 74.55878 .59201 74.61061 .5904 74.66246 .58878 74.74564 .5864 74.79749 .58478 74.84932 .58318 74.93251 .58038 74.98434 .57872 75.03618 .57704 75.11935 .57422 75.17119 .57266 75.22302 .57112 75.30621 .56902 75.35805 .56747 75.4099 .56592 75.49306 .56297 75.5449 .56142 75.59674 .55986 75.67993 .55772 75.73177 .55623 75.7836 .55475 75.86679 .55215 75.91862 .55061 75.97046 .54906 76.05363 .54648 76.10547 .54498 76.15732 .54349 76.2405 .54123 76.29234 .5398 76.34418 .53838 76.42735 .53603 76.47919 .5346 76.53102 .53317 76.61421 .53084 76.66605 .52942 76.71788 .52798 76.80107 .52559 76.8529 .52422 76.90475 .52284 76.98792 .52083 77.03976 .51945 77.0916 .5181 77.17477 .5157 77.22662 .51428 77.27846 .51285 77.36163 .51044 77.41347 .50908 77.4653 .5077 77.5485 .50563 77.60033 .50432 77.65218 .503 77.73534 .50087 77.78717 .49956 77.83902 .49825 77.9222 .49611 77.97404 .4948 78.02588 .4935 78.10907 .49129 78.1609 .49004 78.21274 .4888 78.29591 .48697 78.34775 .48573 78.3996 .48448 78.48277 .48227 78.5346 .48097 78.58646 .47966 78.66962 .47746 78.72147 .47621 78.7733 .47496 78.85649 .47313 78.90833 .47188 78.96016 .47063 79.04335 .46837 79.09518 .46712 79.14702 .46587 79.2302 .46399 79.28203 .4628 79.33388 .46161 79.41705 .45966 79.4689 .45847 79.52074 .45729 79.60391 .45528 79.65575 .45415 79.70758 .45303 79.79077 .4514 79.8426 .45026 79.89444 .44913 79.97762 .44711 80.02945 .44592 80.0813 .44475 80.16447 .44273 80.21632 .4416 80.26816 .44049 80.35135 .43886 80.40318 .43771 80.45502 .43658 80.5382 .43452 80.59003 .43338 80.64186 .43225 80.72505 .43057 80.77689 .42949 80.82874 .42842 80.9119 .42668 80.96375 .4256 81.01558 .42453 81.09875 .42279 81.1506 .4217 81.20244 .42062 81.28563 .4189 81.33746 .41782 81.3893 .41673 81.47247 .41501 81.5243 .41393 81.57616 .41284 81.65933 .41106 81.71117 .41003 81.76302 .40901 81.84618 .4076 81.89803 .40657 81.94986 .40555 82.03305 .4037 82.08488 .40268 82.13672 .40166 82.2199 .40016 82.27173 .39922 82.32356 .39825 82.40675 .39677 82.45859 .39577 82.51044 .39474 82.59361 .39288 82.64546 .39188 82.6973 .39085 82.78047 .38936 82.8323 .3884 82.88414 .38745 82.96733 .3859 83.01917 .38493 83.071 .38397 83.15417 .38245 83.20601 .38148 83.25786 .38052 83.34103 .37892 83.39288 .37802 83.44472 .37712 83.52791 .37589 83.57974 .375 83.63158 .3741 83.71475 .37248 83.76659 .37154 83.81842 .37057 83.90161 .36903 83.95345 .36807 84.0053 .36713 84.08846 .36551 84.1403 .36461 84.19214 .36371 84.27531 .36243 84.32716 .36159 84.379 .36075 84.46219 .35945 84.51402 .35857 84.56586 .35767 84.64903 .35599 84.70087 .3551 84.75272 .3542 84.83589 .3529 84.88773 .35207 84.93958 .35123 85.02274 .34988 85.07458 .34904 85.12642 .3482 85.20961 .34686 85.26144 .34602 85.31328 .34518 85.39645 .34383 85.44829 .34299 85.50014 .34216 85.58331 .34073 85.63515 .33995 85.687 .33917 85.77017 .33815 85.82202 .33737 85.87386 .3366 85.95703 .33516 86.00887 .33434 86.0607 .3335 86.14389 .33214 86.19572 .3313 86.24756 .33047 86.33073 .32906 86.38257 .32828 86.43442 .3275 86.5176 .32646 86.56944 .32568 86.62128 .3249 86.70447 .32343 86.7563 .32265 86.80814 .32188 86.89131 .32079 86.94315 .32007 86.99498 .31935 87.07817 .31825 87.13 .31747 87.18185 .3167 87.26501 .31522 87.31686 .31444 87.3687 .31367 87.45187 .31256 87.50372 .31184 87.55556 .31113 87.63873 .30997 87.69057 .30925 87.7424 .30853 87.82559 .30736 87.87743 .30664 87.92928 .30594 88.01245 .30478 88.0643 .30406 88.11613 .30334 88.1993 .30217 88.25114 .30147 88.30298 .30075 88.38617 .29958 88.438 .29886 88.48984 .29814 88.57301 .29694 88.62485 .29628 88.6767 .29562 88.75987 .29475 88.8117 .2941 88.86356 .29346 88.94673 .29224 88.99858 .29152 89.05042 .2908 89.13359 .28958 89.18542 .28893 89.23726 .28827 89.32045 .28741 89.37228 .28676 89.42412 .2861 89.5073 .28482 89.55913 .28416 89.61098 .28351 89.69415 .28265 89.746 .282 89.79784 .28136 89.88101 .28006 89.93285 .2794 89.98468 .27875 90.06787 .27783 90.1197 .27725 90.17154 .27666 90.25473 .27573 90.30656 .27507 90.35841 .27441 90.44157 .27315 90.49342 .27249 90.54526 .27184 90.62845 .2709 90.68028 .27031 90.73212 .26971 90.81529 .26875 90.86713 .26816 90.91896 .26756 91.00215 .26659 91.05399 .26599 91.10583 .2654 91.18901 .26443 91.24086 .26384 91.2927 .26324 91.37585 .26225 91.4277 .26166 91.47954 .26108 91.56273 .2601 91.61456 .2595 91.6664 .25891 91.74957 .25793 91.8014 .25734 91.85326 .25676 91.93643 .25572 91.98827 .25519 92.04012 .25465 92.12329 .25398 92.17514 .25345 92.22697 .25293 92.31015 .25189 92.36198 .2513 92.41382 .2507 92.49701 .24965 92.54884 .24911 92.60068 .2486 92.68385 .24792 92.73569 .24739 92.78754 .24686 92.87071 .24576 92.92256 .24522 92.9744 .2447 93.05757 .24403 93.1094 .2435 93.16124 .24297 93.24443 .24193 93.29626 .24133 93.3481 .24075 93.43129 .23972 93.48312 .23918 93.53497 .23865 93.61813 .23792 93.66998 .23744 93.72182 .23697 93.80501 .23625 93.85684 .23572 93.90868 .23518 93.99185 .23409 94.04369 .23355 94.09552 .23302 94.17871 .2323 94.23055 .23183 94.2824 .23135 94.36557 .23056 94.41742 .23009 94.46925 .22961 94.55241 .2289 94.60426 .22838 94.6561 .22784 94.73929 .22673 94.79112 .2262 94.84296 .22566 94.92613 .22493 94.97797 .22447 95.02982 .224 95.11299 .22316 95.16484 .22275 95.21667 .22234 95.29984 .22191 95.35168 .22144 95.40352 .22096 95.48671 .21982 95.53854 .21928 95.59038 .21875 95.67357 .21796 95.7254 .21754 95.77725 .21713 95.86041 .21666 95.91225 .21626 95.9641 .21585 96.04727 .215 96.09912 .21452 96.15096 .21405 96.23413 .21326 96.28596 .21278 96.3378 .21231 96.42099 .21153 96.47282 .21106 96.52466 .21059 96.60785 .20975 96.65968 .20934 96.71153 .20892 96.7947 .20844 96.84654 .20804 96.89838 .20763 96.98157 .20677 97.0334 .2063 97.08524 .20583 97.16841 .20499 97.22025 .20457 97.27208 .20416 97.35527 .20369 97.4071 .20328 97.45895 .20287 97.54211 .20201 97.59396 .20154 97.6458 .20107 97.72899 .20023 97.78082 .19983 97.83266 .19942 97.91585 .19893 97.96768 .19852 98.01952 .1981 98.10269 .19719 98.15453 .19678 98.20638 .19637 98.28955 .1959 98.3414 .1955 98.39323 .19508 98.4764 .19417 98.52824 .19376 98.58008 .19334 98.66327 .19287 98.7151 .19246 98.76694 .19205 98.85013 .19115 98.90196 .19073 98.95381 .19032 99.03697 .18979 99.0888 .18944 99.14066 .18909 99.22383 .18848 99.27568 .18813 99.32751 .18779 99.41069 .1872 99.46252 .18684 99.51436 .1865 99.59755 .18596 99.64938 .18555 99.70122 .18513 99.7844 .18422 99.83623 .1838 99.88808 .18341 99.97125 .18288 100.0231 .18253 100.07494 .18217 100.15813 .18156 100.20996 .18121 100.2618 .18086 100.34497 .18027 100.3968 .17992 100.44864 .17958 100.53183 .17897 100.58366 .17862 100.63551 .17827 100.71867 .17767 100.77052 .17732 100.82236 .17697 100.90555 .17638 100.95738 .17603 101.00922 .17567 101.0924 .17508 101.14424 .17473 101.19608 .17438 101.27925 .17378 101.33109 .17343 101.38293 .17308 101.46611 .17249 101.51796 .17213 101.5698 .17178 101.65295 .17119 101.7048 .17084 101.75664 .17049 101.83983 .16989 101.89166 .16954 101.9435 .16919 102.02669 .1686 102.07852 .16824 102.13037 .1679 102.21353 .1673 102.26537 .16695 102.31721 .1666 102.40039 .16594 102.45224 .16565 102.50407 .16536 102.58725 .16507 102.63908 .16478 102.69092 .16449 102.77411 .16383 102.82594 .16348 102.87779 .16315 102.96095 .16254 103.01279 .16219 103.06464 .16183 103.14781 .16118 103.19966 .16089 103.2515 .1606 103.33469 .16031 103.38652 .16002 103.43835 .15973 103.52153 .15903 103.57336 .15874 103.6252 .15845 103.70839 .15816 103.76022 .15787 103.81207 .15758 103.89523 .1569 103.94708 .15656 103.99892 .1562 104.0821 .15555 104.13394 .15526 104.18578 .15498 104.26897 .1547 104.3208 .1544 104.37263 .15411 104.45581 .1534 104.50764 .1531 104.5595 .15282 104.64267 .15253 104.69452 .15224 104.74635 .15195 104.82953 .15123 104.88136 .15096 104.9332 .15067 105.01639 .15038 105.06822 .15009 105.12006 .1498 105.20323 .14906 105.25507 .14877 105.30692 .14848 105.39009 .1482 105.44194 .1479 105.49377 .14761 105.57695 .14691 105.6288 .14662 105.68063 .14633 105.76381 .14604 105.81564 .14575 105.86748 .14546 105.95067 .14474 106.0025 .14445 106.05435 .14417 106.13751 .14381 106.18935 .14359 106.2412 .14336 106.32437 .14294 106.37622 .14273 106.42805 .1425 106.51125 .14215 106.56308 .14186 106.61491 .14157 106.69809 .14085 106.74992 .14056 106.80176 .14027 106.88495 .13992 106.93678 .1397 106.98863 .13947 107.0718 .13905 107.12364 .13882 107.17548 .13861 107.25867 .13826 107.3105 .13797 107.36234 .13768 107.44551 .13696 107.49734 .13667 107.54918 .13638 107.63237 .13603 107.6842 .1358 107.73605 .13557 107.81923 .13516 107.87108 .13493 107.92291 .13472 108.00609 .13431 108.05792 .13408 108.10976 .13385 108.19295 .1335 108.24478 .13321 108.29662 .13292 108.37979 .13214 108.43163 .13191 108.48347 .13168 108.56665 .1317 108.6185 .13147 108.67033 .13124 108.75351 .13048 108.80536 .13019 108.8572 .1299 108.94037 .12955 108.9922 .12932 109.04404 .12909 109.12723 .12868 109.17906 .12845 109.23091 .12822 109.31407 .1278 109.3659 .12758 109.41776 .12735 109.50093 .12694 109.55278 .12671 109.60461 .1265 109.6878 .12608 109.73964 .12585 109.79147 .12563 109.87465 .12521 109.92648 .12498 109.97833 .12476 110.06151 .12428 110.11334 .12411 110.16519 .12395 110.24835 .12386 110.3002 .12369 110.35204 .12352 110.43523 .12311 110.48706 .12282 110.5389 .12253 110.62207 .12177 110.6739 .12154 110.72574 .1213 110.80893 .12126 110.86076 .1211 110.91261 .12093 110.99579 .12045 111.04764 .12022 111.09947 .12 111.18265 .11958 111.23448 .11935 111.28632 .11913 111.3695 .11873 111.42134 .1185 111.47318 .11829 111.55635 .11787 111.60818 .11765 111.66003 .11742 111.74321 .11694 111.79506 .11678 111.8469 .11661 111.93007 .1165 111.98192 .11633 112.03375 .11617 112.11693 .11569 112.16876 .11546 112.2206 .11523 112.30379 .11482 112.35562 .1146 112.40747 .11436 112.49063 .11398 112.54248 .11375 112.59431 .11353 112.67749 .11305 112.72934 .11288 112.78117 .11272 112.86435 .11261 112.91618 .11244 112.96802 .11227 113.05121 .1118 113.10304 .11157 113.15489 .11134 113.2899 .1107 113.2899 .1107"/>
<path transform="matrix(1.00009,0,0,-1.00003,120.56023,131.12454)" stroke-width=".79701" stroke-linecap="butt" stroke-miterlimit="10" stroke-linejoin="miter" fill="none" stroke="#0000ff" d="M-113.38724 .1107C-113.38724 .1107-113.25221 .11098-113.20036 .11115-113.14853 .11131-113.06534 .11179-113.0135 .11201-112.96167 .11224-112.8785 .11272-112.82666 .11288-112.77483 .11305-112.69164 .11314-112.6398 .11331-112.58795 .11348-112.50479 .11395-112.45294 .11418-112.40111 .1144-112.31793 .1148-112.26608 .11504-112.21425 .11526-112.13106 .11574-112.07922 .1159-112.02739 .11607-111.94421 .11617-111.89238 .11633-111.84053 .1165-111.75735 .11697-111.7055 .1172-111.65367 .11743-111.57051 .11784-111.51866 .11807-111.46683 .1183-111.38364 .1187-111.3318 .11893-111.27997 .11916-111.19678 .11963-111.14494 .1198-111.0931 .11996-111.00993 .12006-110.9581 .12022-110.90625 .12039-110.82307 .12086-110.77122 .1211-110.71939 .12132-110.63622 .12167-110.58438 .12196-110.53255 .12225-110.44936 .12303-110.39752 .12326-110.34569 .12349-110.26251 .12352-110.21068 .12369-110.15883 .12386-110.07565 .12433-110.0238 .12456-109.97197 .12479-109.88878 .1252-109.83694 .12543-109.78511 .12566-109.70193 .12607-109.6501 .1263-109.59827 .12653-109.51508 .12692-109.46324 .12715-109.41139 .12738-109.32823 .12779-109.27638 .12802-109.22455 .12825-109.14136 .12865-109.08952 .12888-109.03769 .1291-108.9545 .12952-108.90266 .12975-108.85083 .12997-108.76765 .13033-108.71582 .13062-108.66397 .13089-108.5808 .13162-108.52895 .13191-108.47711 .1322-108.39395 .13254-108.3421 .13277-108.29027 .133-108.20708 .1334-108.15524 .13364-108.10341 .13387-108.02023 .13428-107.9684 .1345-107.91655 .13474-107.83337 .13513-107.78154 .13536-107.72969 .13559-107.64651 .136-107.59467 .13623-107.54283 .13646-107.45966 .13681-107.40782 .1371-107.35599 .13739-107.2728 .1381-107.22096 .1384-107.16913 .13869-107.08595 .13902-107.03412 .13925-106.98227 .13948-106.8991 .1399-106.84724 .14012-106.79541 .14035-106.71222 .1407-106.66039 .14099-106.60855 .14128-106.52538 .142-106.47354 .14229-106.4217 .14258-106.33852 .14291-106.28668 .14314-106.23483 .14337-106.15167 .14372-106.09982 .14401-106.04799 .1443-105.9648 .14503-105.91296 .14532-105.86113 .14561-105.77795 .1459-105.72612 .1462-105.67429 .14648-105.5911 .14719-105.53926 .14748-105.48741 .14777-105.40424 .14806-105.35239 .14835-105.30055 .14864-105.21739 .14935-105.16554 .14964-105.11371 .14993-105.03052 .15028-104.97868 .15051-104.92685 .15074-104.84367 .15108-104.79184 .15137-104.73999 .15166-104.65681 .15237-104.60498 .15266-104.55313 .15295-104.46996 .15324-104.4181 .15353-104.36627 .15382-104.2831 .1545-104.23126 .15485-104.17943 .15518-104.09624 .15584-104.0444 .15613-103.99255 .15642-103.9094 .15671-103.85756 .157-103.80571 .15729-103.72253 .158-103.67068 .1583-103.61885 .15858-103.53566 .15887-103.48383 .15916-103.43199 .15944-103.34882 .1601-103.29698 .16045-103.24515 .1608-103.16196 .1614-103.11012 .16176-103.05827 .16211-102.97511 .16277-102.92326 .16306-102.87143 .16333-102.78824 .16362-102.7364 .16391-102.68457 .1642-102.6014 .16486-102.54956 .1652-102.49773 .16556-102.41454 .16617-102.3627 .16652-102.31085 .16687-102.22768 .16751-102.17583 .1678-102.124 .16809-102.04082 .16838-101.98898 .16867-101.93715 .16896-101.85396 .16962-101.80212 .16997-101.75029 .17032-101.66711 .17093-101.61528 .17128-101.56343 .17162-101.48026 .17221-101.4284 .17256-101.37657 .17291-101.2934 .17352-101.24155 .17387-101.18971 .17422-101.10654 .17482-101.0547 .17517-101.00287 .17552-100.91968 .1761-100.86784 .17645-100.816 .1768-100.73283 .17741-100.681 .17776-100.62915 .17812-100.54597 .17865-100.49413 .17906-100.44229 .17947-100.35912 .18037-100.30728 .18079-100.25545 .1812-100.17226 .18173-100.12042 .18208-100.06859 .18243-99.9854 .18303-99.93356 .18338-99.88171 .18373-99.79855 .18433-99.7467 .18468-99.69487 .18503-99.61168 .18562-99.55984 .18597-99.50801 .18633-99.42484 .18687-99.373 .18729-99.32117 .1877-99.23798 .18858-99.18614 .189-99.1343 .1894-99.05112 .18996-98.99927 .1903-98.94743 .19066-98.86426 .1912-98.81242 .1916-98.76059 .192-98.6774 .19292-98.62556 .19333-98.57373 .19374-98.49055 .19421-98.43872 .19463-98.38687 .19504-98.3037 .19595-98.25185 .19635-98.20001 .19676-98.11685 .1973-98.065 .19765-98.01317 .198-97.92998 .19855-97.87814 .19896-97.82631 .19937-97.74312 .20021-97.69128 .20068-97.63943 .20116-97.55627 .202-97.50444 .20241-97.45259 .20282-97.36942 .20331-97.31757 .20372-97.26573 .20413-97.18256 .20497-97.13072 .20544-97.07889 .20592-96.9957 .20676-96.94386 .20717-96.89201 .20758-96.80884 .20807-96.757 .20847-96.70515 .20888-96.622 .20973-96.57014 .2102-96.51831 .21068-96.43512 .21146-96.38329 .21193-96.33145 .21239-96.24828 .21324-96.19644 .21365-96.1446 .21407-96.06142 .21455-96.00958 .21497-95.95773 .21538-95.87456 .21622-95.82271 .21667-95.77087 .21715-95.6877 .21794-95.63586 .21841-95.58403 .21889-95.50084 .21962-95.449 .22015-95.39717 .22067-95.314 .22183-95.26216 .2223-95.21031 .22278-95.12714 .2232-95.07529 .22362-95.02345 .22403-94.94028 .2248-94.88844 .22533-94.83661 .22586-94.75342 .22697-94.70158 .22751-94.64975 .22804-94.56656 .22874-94.51472 .22922-94.46288 .22969-94.37971 .23048-94.32787 .23096-94.27603 .23143-94.19286 .23222-94.141 .2327-94.08917 .23315-94.006 .23389-93.95416 .23442-93.90233 .23495-93.81914 .23605-93.7673 .23659-93.71545 .2371-93.63228 .23778-93.58044 .23831-93.5286 .23885-93.44543 .23994-93.39359 .24048-93.34175 .241-93.25856 .24167-93.20673 .2422-93.15489 .24274-93.07172 .24384-93.01988 .24437-92.96805 .2449-92.88486 .24556-92.83302 .2461-92.78117 .24663-92.69801 .24767-92.64616 .24826-92.59433 .24886-92.51114 .2499-92.4593 .25043-92.40747 .25096-92.32428 .25162-92.27245 .25215-92.22061 .25269-92.13744 .25372-92.0856 .25432-92.03375 .25491-91.95058 .25589-91.89873 .25648-91.8469 .25708-91.76372 .2581-91.71188 .25864-91.66005 .25917-91.57686 .25984-91.52502 .26038-91.47319 .26091-91.39 .26193-91.33817 .26253-91.28632 .26312-91.20316 .26411-91.1513 .26471-91.09947 .2653-91.0163 .2662-90.96445 .26686-90.91261 .26752-90.82944 .26881-90.7776 .26947-90.72577 .27011-90.64258 .27103-90.59074 .27162-90.5389 .27222-90.45573 .2732-90.4039 .27377-90.35205 .27437-90.26888 .27528-90.21703 .27594-90.16519 .2766-90.082 .27788-90.03017 .27853-89.97833 .27919-89.89516 .2801-89.84332 .2807-89.79149 .2813-89.7083 .28221-89.65646 .28287-89.60461 .28352-89.52145 .2848-89.4696 .28546-89.41777 .2861-89.33458 .28697-89.28275 .28763-89.23091 .28828-89.14772 .28957-89.09589 .2902-89.04405 .29086-88.96088 .29173-88.90904 .29239-88.8572 .29305-88.77402 .29425-88.72217 .29497-88.67033 .29568-88.58716 .29686-88.53532 .29758-88.48349 .29828-88.4003 .29945-88.34846 .30017-88.29663 .30089-88.21344 .30205-88.1616 .30275-88.10976 .30347-88.0266 .30464-87.97475 .30536-87.92291 .30608-87.83974 .30724-87.78789 .30795-87.73605 .30867-87.65288 .30984-87.60104 .31055-87.54921 .31126-87.46602 .31242-87.41418 .31314-87.36234 .31386-87.27917 .31496-87.22733 .31573-87.17549 .31651-87.09232 .318-87.04047 .31876-86.98863 .31953-86.90544 .32059-86.8536 .32137-86.80177 .32214-86.7186 .32361-86.66676 .32439-86.61491 .32516-86.53174 .32622-86.4799 .32698-86.42805 .32776-86.3449 .32924-86.29305 .33002-86.24121 .33078-86.15802 .33183-86.10619 .33261-86.05435 .33339-85.97116 .33481-85.91933 .33563-85.8675 .33647-85.78432 .33789-85.73248 .33867-85.68063 .33943-85.59746 .34042-85.54561 .34126-85.49377 .3421-85.4106 .34387-85.35876 .34471-85.30693 .34555-85.22374 .34654-85.1719 .3473-85.12007 .34808-85.0369 .34944-84.98506 .35034-84.93321 .35123-84.85004 .3529-84.79819 .3538-84.74635 .3547-84.66316 .35599-84.61133 .35683-84.5595 .35767-84.47632 .35896-84.42448 .35985-84.37265 .36075-84.28946 .36243-84.23763 .36333-84.18578 .36421-84.10262 .36545-84.05077 .36635-83.99893 .36725-83.91576 .36891-83.8639 .36981-83.81207 .37071-83.72888 .37193-83.67705 .37283-83.62521 .37373-83.54204 .37534-83.4902 .37628-83.43835 .37724-83.35518 .3788-83.30334 .37975-83.2515 .3807-83.16833 .38226-83.11649 .38322-83.06465 .38417-82.98146 .38571-82.92963 .38667-82.87779 .38763-82.79462 .38918-82.74278 .39014-82.69095 .3911-82.60776 .39256-82.55592 .39359-82.50407 .3946-82.4209 .39647-82.36905 .39749-82.31721 .39851-82.23404 .4-82.1822 .40094-82.13037 .4019-82.04718 .4034-81.99535 .4044-81.94351 .40543-81.86034 .40723-81.8085 .40831-81.75665 .40938-81.67348 .41112-81.62163 .4122-81.5698 .41327-81.4866 .41507-81.43477 .41609-81.38293 .4171-81.29976 .41853-81.24792 .41956-81.19609 .42056-81.1129 .42236-81.06107 .42345-81.00922 .42453-80.92606 .42621-80.8742 .42734-80.82237 .42847-80.7392 .43053-80.68735 .43166-80.63551 .43279-80.55234 .43446-80.5005 .43555-80.44867 .43663-80.36548 .4383-80.31364 .43944-80.2618 .44058-80.17862 .44257-80.12679 .44377-80.07494 .44498-79.99178 .44691-79.93993 .4481-79.88809 .44928-79.8049 .4513-79.75307 .45242-79.70123 .45354-79.61806 .45517-79.56622 .45631-79.51437 .45744-79.4312 .45946-79.37936 .46065-79.32751 .46182-79.24434 .46378-79.19249 .46497-79.14066 .46614-79.05748 .46805-79.00565 .4693-78.95381 .47054-78.87062 .47281-78.81879 .47404-78.76695 .4753-78.68378 .47713-78.63194 .47836-78.5801 .47961-78.49692 .48181-78.44507 .48312-78.39323 .48444-78.31004 .48663-78.25821 .48788-78.20638 .48914-78.1232 .49097-78.07137 .49222-78.01953 .49347-77.93634 .49567-77.8845 .49698-77.83266 .49828-77.7495 .50043-77.69765 .50174-77.64581 .50304-77.56262 .50519-77.51079 .50648-77.45895 .5078-77.37578 .50983-77.32394 .51125-77.27211 .51268-77.18892 .51544-77.13708 .51688-77.08524 .51831-77.00206 .52026-76.95021 .52164-76.89838 .523-76.81522 .52539-76.76337 .52681-76.71153 .52824-76.62834 .53058-76.5765 .532-76.52467 .53343-76.4415 .53577-76.38966 .5372-76.33781 .53864-76.25464 .54095-76.2028 .54239-76.15096 .54381-76.06778 .54604-76.01593 .54758-75.9641 .54913-75.88092 .55208-75.82909 .55363-75.77725 .55519-75.69406 .55739-75.64223 .55882-75.5904 .56024-75.50722 .56247-75.45538 .56401-75.40353 .56557-75.32036 .56845-75.26851 .57007-75.21667 .57167-75.1335 .57408-75.08167 .5757-75.02983 .5773-74.94664 .58012-74.8948 .58174-74.84297 .58336-74.75978 .58582-74.70795 .58737-74.6561 .58891-74.57294 .59138-74.52109 .59299-74.46925 .5946-74.38606 .59732-74.33423 .59906-74.2824 .60078-74.19922 .60387-74.14738 .60553-74.09555 .60721-74.01236 .60948-73.96053 .61116-73.90868 .61282-73.8255 .61586-73.77365 .61765-73.72182 .61945-73.63866 .6224-73.5868 .62415-73.53497 .62587-73.45178 .62846-73.39995 .63019-73.34811 .63193-73.26494 .63489-73.2131 .63669-73.16125 .63847-73.07808 .64131-73.02625 .64317-72.9744 .64503-72.89124 .64824-72.83939 .65009-72.78755 .65195-72.70436 .65472-72.65253 .65659-72.6007 .65843-72.5175 .66158-72.46567 .6635-72.41382 .66542-72.33066 .66856-72.27882 .67041-72.22697 .67227-72.1438 .67493-72.09195 .67691-72.04012 .67888-71.95694 .68265-71.9051 .6847-71.85327 .68672-71.77008 .6897-71.71825 .6916-71.66641 .69353-71.58322 .69656-71.53139 .69853-71.47954 .70052-71.39638 .70372-71.34453 .70589-71.2927 .70804-71.2095 .712-71.15767 .71411-71.10583 .7162-71.02266 .71898-70.97083 .72102-70.91899 .72305-70.8358 .72665-70.78397 .7288-70.73212 .73096-70.64894 .73445-70.59709 .7366-70.54526 .73877-70.46208 .74219-70.41025 .74438-70.35841 .7466-70.27522 .7504-70.22339 .7526-70.17155 .7548-70.08838 .75816-70.03654 .76038-69.9847 .7626-69.90152 .76633-69.84967 .7686-69.79784 .77089-69.71468 .77457-69.66283 .77682-69.611 .7791-69.5278 .78271-69.47597 .78503-69.42413 .78737-69.34094 .7913-69.28911 .79369-69.23726 .79608-69.1541 .79996-69.10226 .80234-69.05042 .80472-68.96724 .8086-68.91539 .81099-68.86356 .81337-68.78038 .81718-68.72855 .81964-68.67671 .82208-68.59352 .82616-68.54169 .82874-68.48985 .8313-68.40666 .83568-68.35483 .83824-68.30298 .84082-68.21982 .84482-68.16797 .84732-68.11613 .84982-68.03294 .85384-67.98111 .85641-67.92928 .85898-67.8461 .86324-67.79427 .86592-67.74243 .86862-67.65924 .87318-67.6074 .87587-67.55556 .87856-67.4724 .88269-67.42055 .88539-67.36871 .88808-67.28552 .8926-67.23369 .89534-67.18185 .8981-67.09866 .90253-67.04683 .90529-66.995 .90804-66.91182 .91237-66.85999 .91524-66.80814 .91812-66.72496 .92311-66.67311 .92606-66.62128 .92899-66.53812 .93356-66.48627 .93643-66.43443 .9393-66.35124 .94388-66.29941 .94682-66.24757 .94975-66.16438 .95457-66.11255 .95763-66.0607 .96068-65.97754 .96582-65.9257 .96887-65.87386 .97192-65.79068 .97662-65.73883 .97969-65.687 .98274-65.60382 .98782-65.55199 .99094-65.50015 .99405-65.41696 .99901-65.36513 1.00218-65.3133 1.00536-65.23012 1.01062-65.17828 1.01385-65.12643 1.01709-65.04326 1.02223-64.99141 1.02553-64.93958 1.02884-64.85638 1.03429-64.80455 1.03764-64.75272 1.04102-64.66954 1.04645-64.6177 1.04974-64.56587 1.05305-64.48268 1.05807-64.43085 1.06145-64.379 1.0648-64.29584 1.07051-64.24399 1.07397-64.19215 1.07745-64.10896 1.08305-64.05713 1.08652-64.0053 1.09-63.9221 1.09547-63.87027 1.09906-63.81844 1.10265-63.73526 1.10883-63.68343 1.11247-63.63158 1.11612-63.5484 1.12181-63.49655 1.12546-63.44472 1.1291-63.36156 1.13515-63.30971 1.13887-63.25787 1.14258-63.17468 1.1485-63.12285 1.15227-63.07101 1.15604-62.98782 1.16228-62.93599 1.1661-62.88414 1.16994-62.80098 1.17606-62.74913 1.17996-62.6973 1.18385-62.61412 1.19028-62.56227 1.19423-62.51044 1.19818-62.42726 1.20448-62.37543 1.2085-62.3236 1.21251-62.2404 1.21907-62.18857 1.2232-62.13672 1.22734-62.05356 1.23433-62.00172 1.23834-61.94987 1.24236-61.8667 1.24792-61.81485 1.25218-61.76302 1.25644-61.67982 1.26474-61.62799 1.26906-61.57616 1.27338-61.49298 1.27919-61.44115 1.28333-61.38931 1.28746-61.30612 1.29439-61.25429 1.29889-61.20244 1.30339-61.11928 1.31133-61.06743 1.31577-61.0156 1.3202-60.9324 1.32648-60.88057 1.33092-60.82874 1.33534-60.74554 1.34317-60.69371 1.34776-60.64188 1.35237-60.5587 1.35965-60.50687 1.3642-60.45502 1.36876-60.37184 1.37575-60.31999 1.38065-60.26816 1.38556-60.18498 1.39478-60.13315 1.39969-60.08131 1.40459-59.99812 1.41133-59.94629 1.41612-59.89445 1.42091-59.81128 1.42924-59.75945 1.43428-59.7076 1.43932-59.62442 1.44742-59.57257 1.45245-59.52074 1.45749-59.43756 1.46547-59.38571 1.47061-59.33388 1.47577-59.2507 1.48444-59.19887 1.48965-59.14703 1.49486-59.06384 1.50308-59.01201 1.50824-58.96016 1.5134-58.877 1.52158-58.82516 1.52686-58.77332 1.53212-58.69014 1.54079-58.63829 1.54631-58.58646 1.55182-58.50327 1.56093-58.45143 1.56664-58.3996 1.57233-58.31642 1.58176-58.26459 1.5874-58.21275 1.59303-58.12956 1.6016-58.07773 1.6073-58.02588 1.61299-57.94272 1.62262-57.89087 1.6285-57.83904 1.63435-57.75584 1.64375-57.70401 1.64967-57.65218 1.65561-57.569 1.66527-57.51717 1.67131-57.46533 1.67737-57.38214 1.68726-57.3303 1.69337-57.27846 1.69948-57.19528 1.70932-57.14343 1.71542-57.0916 1.72154-57.00842 1.73108-56.95659 1.73749-56.90475 1.7439-56.82156 1.75525-56.76973 1.76172-56.7179 1.76819-56.63472 1.77773-56.58289 1.78421-56.53104 1.79068-56.44786 1.80164-56.39601 1.80843-56.34418 1.8152-56.261 1.82623-56.20915 1.83308-56.15732 1.83992-56.07414 1.85101-56.02231 1.85774-55.97047 1.86446-55.88728 1.87474-55.83545 1.88153-55.7836 1.8883-55.70044 1.89935-55.64859 1.90662-55.59676 1.91386-55.51358 1.9265-55.46173 1.93387-55.4099 1.94124-55.32672 1.95262-55.27489 1.95982-55.22305 1.96701-55.13986 1.97827-55.08803 1.98576-55.03618 1.99326-54.953 2.00607-54.90117 2.01387-54.84932 2.02167-54.76616 2.03432-54.71431 2.04199-54.66248 2.04968-54.57928 2.06151-54.52745 2.06924-54.47562 2.07698-54.39244 2.08975-54.3406 2.0978-54.28877 2.10583-54.20558 2.11906-54.15375 2.12721-54.1019 2.13536-54.01872 2.14822-53.96687 2.15662-53.91504 2.16501-53.83186 2.1793-53.78003 2.18776-53.7282 2.19621-53.645 2.20897-53.59317 2.2176-53.54134 2.22624-53.45816 2.24136-53.40633 2.25005-53.35448 2.25874-53.2713 2.27156-53.21945 2.28032-53.16762 2.28908-53.08443 2.30402-53.0326 2.3132-52.98076 2.32239-52.89758 2.33728-52.84575 2.34651-52.79391 2.35574-52.71072 2.37051-52.65889 2.3798-52.60704 2.38908-52.52388 2.40414-52.47203 2.41354-52.4202 2.42296-52.33702 2.43794-52.28517 2.44772-52.23334 2.4575-52.15016 2.47417-52.09833 2.48405-52.0465 2.49396-51.9633 2.50906-51.91147 2.51909-51.85962 2.5291-51.77644 2.54596-51.72461 2.55627-51.67276 2.5666-51.5896 2.58305-51.53775 2.59348-51.48592 2.60391-51.40273 2.62094-51.35089 2.63155-51.29906 2.64215-51.21588 2.65936-51.16405 2.67004-51.11221 2.68071-51.02902 2.69745-50.97719 2.70854-50.92534 2.71964-50.84216 2.73885-50.79031 2.75006-50.73848 2.76128-50.6553 2.77814-50.60347 2.78941-50.55164 2.8007-50.46844 2.81969-50.41661 2.83138-50.36478 2.84306-50.2816 2.86185-50.22977 2.87378-50.17792 2.88571-50.09474 2.90509-50.0429 2.91745-49.99106 2.92981-49.90788 2.95052-49.85605 2.96288-49.80421 2.97523-49.72102 2.99403-49.66919 3.00656-49.61736 3.01909-49.53416 3.04056-49.48233 3.05327-49.43048 3.06598-49.34732 3.08543-49.29547 3.09827-49.24364 3.1111-49.16046 3.1325-49.10861 3.14583-49.05678 3.15915-48.9736 3.18077-48.92177 3.19427-48.86993 3.20778-48.78674 3.22925-48.73491 3.24315-48.68306 3.25706-48.59988 3.28053-48.54805 3.29463-48.4962 3.30872-48.41304 3.33054-48.36119 3.3448-48.30936 3.35909-48.22617 3.38287-48.17433 3.39757-48.1225 3.41228-48.03932 3.43588-47.98749 3.45076-47.93564 3.46565-47.85246 3.48973-47.80063 3.50484-47.74878 3.51994-47.66562 3.54417-47.61377 3.55978-47.56194 3.57538-47.47874 3.60152-47.42691 3.61731-47.37508 3.63309-47.29189 3.65752-47.24005 3.67354-47.18822 3.68956-47.10504 3.71635-47.0532 3.73279-47.00136 3.74922-46.91818 3.77538-46.86633 3.79205-46.8145 3.80873-46.73132 3.83577-46.67949 3.85304-46.62766 3.87032-46.54446 3.89917-46.49263 3.91661-46.4408 3.93407-46.3576 3.96126-46.30577 3.9789-46.25392 3.99654-46.17076 4.02554-46.11891 4.04378-46.06708 4.06203-45.98389 4.09186-45.93205 4.1104-45.88022 4.12892-45.79704 4.15836-45.74521 4.17743-45.69337 4.19652-45.61018 4.22862-45.55835 4.24794-45.5065 4.26726-45.42332 4.2971-45.37148 4.31671-45.31964 4.33632-45.23648 4.3688-45.18463 4.38937-45.1328 4.40996-45.0496 4.44426-44.99777 4.46507-44.94594 4.48589-44.86276 4.51883-44.81093 4.53947-44.75908 4.56012-44.6759 4.59258-44.62407 4.61388-44.57222 4.63516-44.48906 4.67096-44.43721 4.69302-44.38538 4.7151-44.30219 4.75073-44.25035 4.77306-44.19852 4.79536-44.11533 4.83089-44.06349 4.85393-44.01166 4.87695-43.92848 4.91574-43.87665 4.93913-43.8248 4.96252-43.74162 4.99934-43.68977 5.02261-43.63794 5.0459-43.55476 5.08261-43.50293 5.10696-43.4511 5.13132-43.3679 5.17322-43.31607 5.19823-43.26424 5.22325-43.18105 5.26196-43.12921 5.28734-43.07736 5.3127-42.9942 5.3549-42.94235 5.3812-42.89052 5.40747-42.80733 5.45021-42.7555 5.47678-42.70366 5.50336-42.62048 5.54587-42.56865 5.57281-42.51682 5.59975-42.43362 5.64355-42.38179 5.67099-42.32994 5.69841-42.24678 5.74234-42.19493 5.77048-42.1431 5.79861-42.05992 5.84494-42.00807 5.87386-41.95624 5.90277-41.87305 5.94962-41.82121 5.97896-41.76938 6.0083-41.6862 6.05458-41.63437 6.08536-41.58252 6.11615-41.49934 6.16917-41.44751 6.20085-41.39566 6.23253-41.3125 6.28212-41.26065 6.31374-41.20882 6.34535-41.12563 6.3967-41.07379 6.4288-41.02196 6.4609-40.93877 6.5122-40.88693 6.54515-40.8351 6.57808-40.75192 6.6323-40.70009 6.66626-40.64824 6.70023-40.56506 6.75493-40.51321 6.78998-40.46138 6.82501-40.3782 6.88275-40.32637 6.91887-40.27454 6.95499-40.19135 7.01375-40.13951 7.05035-40.08768 7.08696-40.0045 7.14569-39.95267 7.18271-39.90082 7.21973-39.81764 7.27908-39.7658 7.31723-39.71396 7.3554-39.63077 7.41852-39.57893 7.45781-39.5271 7.4971-39.44392 7.56064-39.39209 7.60054-39.34026 7.64044-39.25706 7.7044-39.20523 7.74545-39.15338 7.78648-39.07022 7.85483-39.01837 7.89641-38.96654 7.93797-38.88336 8.00237-38.83151 8.0452-38.77968 8.08804-38.69649 8.16052-38.64465 8.20523-38.59282 8.24994-38.50964 8.32272-38.45781 8.36743-38.40596 8.41214-38.32278 8.48149-38.27094 8.52747-38.2191 8.57344-38.13594 8.65149-38.08409 8.69876-38.03226 8.74603-37.94907 8.81958-37.89723 8.86832-37.8454 8.91704-37.7622 8.99986-37.71037 9.04997-37.65852 9.10008-37.57536 9.17854-37.52353 9.22948-37.47168 9.28043-37.3885 9.36482-37.33665 9.4172-37.28482 9.46959-37.20164 9.55475-37.14981 9.60709-37.09798 9.65941-37.01479 9.7391-36.96295 9.79437-36.91112 9.84962-36.82794 9.94856-36.77611 10.00545-36.72426 10.06233-36.64108 10.14658-36.58923 10.20442-36.5374 10.26227-36.45421 10.36224-36.40237 10.42242-36.35054 10.4826-36.26736 10.57718-36.21553 10.63826-36.1637 10.69934-36.0805 10.79997-36.02867 10.86275-35.97682 10.92552-35.89366 11.026-35.84181 11.09068-35.78998 11.15536-35.70679 11.26344-35.65495 11.32903-35.60312 11.3946-35.51993 11.49686-35.4681 11.56345-35.41626 11.63005-35.33308 11.73976-35.28125 11.80913-35.2294 11.8785-35.14622 11.99223-35.09438 12.06348-35.04254 12.13472-34.95938 12.24911-34.90753 12.32257-34.8557 12.39603-34.7725 12.51753-34.72067 12.5929-34.66884 12.66827-34.58566 12.78847-34.53383 12.86583-34.48198 12.94318-34.3988 13.07182-34.34697 13.15044-34.29512 13.22905-34.21194 13.35066-34.1601 13.43245-34.10826 13.51424-34.02509 13.65489-33.97325 13.73997-33.92142 13.82507-33.83823 13.96033-33.78639 14.04579-33.73456 14.13124-33.65138 14.2671-33.59955 14.35593-33.5477 14.44473-33.46452 14.59462-33.41267 14.68596-33.36084 14.77728-33.27765 14.92044-33.22581 15.01424-33.17398 15.10803-33.0908 15.26581-33.03897 15.362-32.98714 15.4582-32.90395 15.60751-32.85211 15.70761-32.80026 15.8077-32.7171 15.9805-32.66525 16.08347-32.61342 16.18645-32.53023 16.34735-32.4784 16.44984-32.42656 16.55234-32.34338 16.71376-32.29155 16.82227-32.23972 16.93076-32.15652 17.11923-32.10469 17.23186-32.05284 17.3445-31.96967 17.52063-31.91782 17.63412-31.86598 17.7476-31.78282 17.93205-31.73097 18.04979-31.67914 18.16753-31.59595 18.36053-31.54411 18.48277-31.49228 18.60501-31.4091 18.80547-31.35727 18.93088-31.30542 19.05629-31.22224 19.25781-31.1704 19.38676-31.11856 19.51573-31.03539 19.7279-30.98354 19.8604-30.9317 19.9929-30.84853 20.20578-30.79669 20.34183-30.74486 20.47786-30.66167 20.69975-30.60983 20.84096-30.55798 20.98218-30.47482 21.21303-30.42299 21.35957-30.37114 21.50612-30.28796 21.74689-30.23611 21.89723-30.18428 22.04756-30.10109 22.28856-30.04926 22.44308-29.99742 22.59761-29.91425 22.85222-29.86241 23.011-29.81058 23.16978-29.72739 23.4232-29.67555 23.58759-29.6237 23.75195-29.54054 24.02374-29.4887 24.19574-29.43686 24.36774-29.35367 24.65056-29.30183 24.82724-29.25 25.00392-29.16682 25.28926-29.11499 25.46912-29.06316 25.64897-28.97997 25.93858-28.92813 26.12355-28.87628 26.3085-28.7931 26.60898-28.74126 26.8022-28.68942 26.99544-28.60625 27.3145-28.55441 27.51631-28.50258 27.71814-28.41939 28.04967-28.36755 28.25682-28.31572 28.46397-28.23254 28.7952-28.18071 29.00945-28.12886 29.22368-28.04568 29.57895-27.99384 29.801-27.942 30.02304-27.85883 30.3812-27.80698 30.60983-27.75514 30.83847-27.67197 31.21251-27.62013 31.44896-27.5683 31.68541-27.4851 32.07123-27.43327 32.31403-27.38142 32.55684-27.29826 32.94737-27.24643 33.199-27.19458 33.45062-27.1114 33.86523-27.05956 34.12766-27.00772 34.39009-26.92455 34.81882-26.87271 35.09048-26.82088 35.36217-26.73769 35.8049-26.68585 36.08577-26.63402 36.36662-26.55083 36.82384-26.499 37.11478-26.44714 37.4057-26.36398 37.88164-26.31213 38.18271-26.2603 38.48378-26.17711 38.97322-26.12527 39.2848-26.07344 39.59639-25.99026 40.10576-25.93843 40.42845-25.8866 40.75114-25.8034 41.27457-25.75157 41.61058-25.69972 41.94658-25.61655 42.50299-25.5647 42.85022-25.51286 43.19745-25.42969 43.75363-25.37785 44.11324-25.32602 44.47284-25.24283 45.06734-25.191 45.44199-25.13916 45.81664-25.05598 46.42386-25.00415 46.81357-24.9523 47.2033-24.86913 47.84749-24.81728 48.25089-24.76544 48.65428-24.68228 49.3034-24.63043 49.72108-24.5786 50.13878-24.4954 50.82465-24.44357 51.26135-24.39174 51.69806-24.30855 52.41653-24.25671 52.86867-24.20486 53.32082-24.1217 54.04941-24.06987 54.5201-24.01802 54.99078-23.93484 55.77184-23.883 56.26106-23.83116 56.7503-23.74799 57.53934-23.69615 58.04614-23.64432 58.55295-23.56113 59.38435-23.5093 59.91385-23.45744 60.44334-23.37427 61.3114-23.32243 61.86244-23.27058 62.41348-23.18742 63.3121-23.13557 63.8854-23.08374 64.45872-23.00055 65.39867-22.94872 65.99448-22.89688 66.59029-22.8137 67.55905-22.76187 68.17964-22.71004 68.80025-22.62685 69.81885-22.57501 70.46735-22.52316 71.11584-22.44 72.17659-22.38815 72.85365-22.33632 73.53072-22.25313 74.64305-22.2013 75.34724-22.14946 76.05145-22.06627 77.19653-22.01443 77.92906-21.9626 78.66158-21.87943 79.86151-21.82759 80.6268-21.77574 81.39209-21.69257 82.64493-21.64072 83.44478-21.58888 84.24463-21.5057 85.55238-21.45387 86.39166-21.40204 87.23096-21.31885 88.61806-21.26701 89.49382-21.21518 90.3696-21.13199 91.79274-21.08015 92.70369-21.0283 93.61464-20.94514 95.10768-20.8933 96.05931-20.84146 97.01094-20.75829 98.56497-20.70644 99.56244-20.6546 100.55992-20.57143 102.20328-20.51959 103.24854-20.46776 104.2938-20.38457 106.00407-20.33273 107.09595-20.28088 108.18784-20.14587 111.11812-20.14587 111.11812"/>
<use data-text="&#x2022;" xlink:href="#font_2_1" transform="matrix(9.963496,0,0,-9.962899,118.069,133.33861)"/>
<use data-text="(" xlink:href="#font_3_1" transform="matrix(9.963496,0,0,-9.962899,124.08054,142.11687)"/>
<use data-text="0" xlink:href="#font_3_3" transform="matrix(9.963496,0,0,-9.962899,127.94639,142.11687)"/>
<use data-text="," xlink:href="#font_1_1" transform="matrix(9.963496,0,0,-9.962899,132.93735,142.11687)"/>
<use data-text="0" xlink:href="#font_3_3" transform="matrix(9.963496,0,0,-9.962899,137.36573,142.11687)"/>
<use data-text=")" xlink:href="#font_3_2" transform="matrix(9.963496,0,0,-9.962899,142.34748,142.11687)"/>
</svg>
