<svg xmlns="http://www.w3.org/2000/svg" xmlns:xlink="http://www.w3.org/1999/xlink" version="1.1" width="250" height="252" viewBox="0 0 250 252">
<defs>
<path id="font_1_2" d="M.33399964 .30233766C.33999635 .32835389 .36299134 .42037965 .43299867 .42037965 .43798829 .42037965 .46199037 .42037965 .48298646 .40734864 .45498658 .402359 .43499757 .37734986 .43499757 .35334779 .43499757 .33735658 .44599916 .31835938 .47299195 .31835938 .49499513 .31835938 .5269928 .3363495 .5269928 .37635804 .5269928 .42837525 .46798707 .4423828 .43399049 .4423828 .37599183 .4423828 .34098817 .38935853 .32899476 .36634828 .3039856 .43237306 .25 .4423828 .22099304 .4423828 .116989139 .4423828 .05999756 .3133545 .05999756 .28834535 .05999756 .27833558 .069992069 .27833558 .07199097 .27833558 .07998657 .27833558 .08299255 .28033448 .084991458 .28933717 .11898804 .39535523 .18499756 .42037965 .21899414 .42037965 .23799134 .42037965 .272995 .4113617 .272995 .35334779 .272995 .32235719 .2559967 .25532533 .21899414 .11528015 .20298767 .053268434 .16799927 .011245728 .12399292 .011245728 .117996219 .011245728 .09498596 .011245728 .07398987 .024276734 .09899902 .029266358 .12098694 .05027771 .12098694 .07827759 .12098694 .105270389 .09899902 .11328125 .083999637 .11328125 .053985597 .11328125 .0289917 .08728027 .0289917 .055267335 .0289917 .009246826 .07899475-.0107421879 .12298584-.0107421879 .18899536-.0107421879 .22499085 .059280397 .22799683 .0652771 .23999024 .028274537 .27598573-.0107421879 .33599855-.0107421879 .43899537-.0107421879 .49598695 .118270877 .49598695 .14328003 .49598695 .1532898 .4869995 .1532898 .48399354 .1532898 .47499085 .1532898 .47299195 .14929199 .47099305 .14228821 .43798829 .03527832 .36999513 .011245728 .33799745 .011245728 .29899598 .011245728 .2829895 .043273927 .2829895 .07727051 .2829895 .09927368 .2889862 .121276859 .2999878 .16529846L.33399964 .30233766Z"/>
<path id="font_1_3" d="M.48599244 .38136292C.48999024 .39537049 .48999024 .39736939 .48999024 .40437318 .48999024 .42237855 .47599793 .43138124 .46099855 .43138124 .45098878 .43138124 .43499757 .42536927 .42599488 .41036988 .42399598 .405365 .41600038 .37435914 .4119873 .35635377 .40499879 .33035279 .397995 .30334474 .3919983 .27633668L.34700013 .09628296C.34298707 .08126831 .2999878 .011245728 .23399353 .011245728 .18299866 .011245728 .17199707 .055267335 .17199707 .0922699 .17199707 .1382904 .18899536 .20030213 .22299195 .28833009 .23899842 .3293457 .24299622 .3403473 .24299622 .36035157 .24299622 .405365 .21099854 .4423828 .16099549 .4423828 .06599426 .4423828 .0289917 .29733277 .0289917 .28833009 .0289917 .27833558 .038986207 .27833558 .040985109 .27833558 .050994874 .27833558 .051986696 .28033448 .056991579 .29634095 .083999637 .3903656 .12399292 .42037965 .1579895 .42037965 .1659851 .42037965 .18299866 .42037965 .18299866 .3883667 .18299866 .36335755 .17298889 .3373413 .1659851 .31834413 .12599182 .21231079 .10798645 .1552887 .10798645 .10827637 .10798645 .019256592 .17098999-.0107421879 .22999573-.0107421879 .2689972-.0107421879 .30299378 .0062561037 .33099366 .03425598 .31799317-.017745972 .30599977-.06674194 .2659912-.11973572 .23999024-.15385437 .20199585-.18309021 .1559906-.18309021 .14199829-.18309021 .09700012-.18005371 .07998657-.14074707 .09599304-.14074707 .10899353-.14074707 .12298584-.1287384 .1329956-.11973572 .14299011-.10673523 .14299011-.08773804 .14299011-.056747438 .115997318-.052734376 .10598755-.052734376 .08299255-.052734376 .049987794-.068740848 .049987794-.11773682 .049987794-.16796875 .09399414-.20507813 .1559906-.20507813 .25898744-.20507813 .3619995-.11373901 .3899994-.00074768069L.48599244 .38136292Z"/>
<path id="font_2_1" d="M.44400025 .24998474C.44400025 .35688783 .35499574 .44381715 .25 .44381715 .14199829 .44381715 .054992677 .35488893 .054992677 .24998474 .054992677 .14407349 .14199829 .056137086 .25 .056137086 .35499574 .056137086 .44400025 .14308167 .44400025 .24998474Z"/>
<path id="font_3_1" d="M.33099366-.2400055C.33099366-.23701477 .33099366-.23500061 .31399537-.21800232 .18899536-.0920105 .15699768 .09700012 .15699768 .25 .15699768 .42399598 .19499207 .59799197 .31799317 .72299197 .33099366 .73498538 .33099366 .7369995 .33099366 .73999026 .33099366 .746994 .32699586 .75 .32099916 .75 .31098939 .75 .22099304 .6819916 .1619873 .5549927 .11099243 .44499208 .09899902 .33399964 .09899902 .25 .09899902 .17199707 .10998535 .050994874 .16499329-.06201172 .22499085-.18501282 .31098939-.25 .32099916-.25 .32699586-.25 .33099366-.24700928 .33099366-.2400055Z"/>
<path id="font_3_3" d="M.45999146 .31976319C.45999146 .39982606 .45498658 .47988893 .41999818 .5539398 .37399293 .65000918 .2919922 .6660156 .25 .6660156 .18998719 .6660156 .116989139 .64001467 .07598877 .54693606 .04399109 .47789 .038986207 .39982606 .038986207 .31976319 .038986207 .24472046 .042999269 .15464783 .083999637 .07859802 .1269989-.0024719239 .19999695-.022460938 .24899292-.022460938 .30299378-.022460938 .3789978-.0014648438 .4229889 .09359741 .45498658 .16265869 .45999146 .2407074 .45999146 .31976319M.24899292-.00047302247C.20999146-.00047302247 .15098572 .024551392 .1329956 .12062073 .12199402 .18066406 .12199402 .2727356 .12199402 .3317871 .12199402 .39582826 .12199402 .46188355 .12998963 .5159149 .14898682 .63500979 .22399903 .64401248 .24899292 .64401248 .28199769 .64401248 .34799195 .6259918 .36698915 .52693179 .3769989 .47088624 .3769989 .39482118 .3769989 .3317871 .3769989 .25672914 .3769989 .18867493 .3659973 .12461853 .35099793 .029556275 .2939911-.00047302247 .24899292-.00047302247Z"/>
<path id="font_1_1" d="M.20298767 .0009918213C.20298767 .066986087 .17799378 .10598755 .13899231 .10598755 .10598755 .10598755 .085998538 .08099365 .085998538 .052993776 .085998538 .025985718 .10598755 0 .13899231 0 .15098572 0 .1639862 .0039978029 .17399597 .0129852299 .1769867 .01499939 .17799378 .015991211 .1789856 .015991211 .17999268 .015991211 .18099976 .01499939 .18099976 .0009918213 .18099976-.07316589 .1459961-.13328552 .11299133-.16635132 .101989749-.17736817 .101989749-.17936707 .101989749-.18237305 .101989749-.18936157 .10699463-.19335938 .11199951-.19335938 .12298584-.19335938 .20298767-.116256717 .20298767 .0009918213Z"/>
<path id="font_3_2" d="M.2889862 .25C.2889862 .32798768 .27799989 .44898988 .22299195 .56199648 .16299439 .68499758 .07699585 .75 .066986087 .75 .06098938 .75 .056991579 .74598696 .056991579 .73999026 .056991579 .7369995 .056991579 .73498538 .07598877 .71699526 .17399597 .6179962 .23098755 .45899964 .23098755 .25 .23098755 .07899475 .19400025-.09700012 .069992069-.2230072 .056991579-.23500061 .056991579-.23701477 .056991579-.2400055 .056991579-.2460022 .06098938-.25 .066986087-.25 .07699585-.25 .16699219-.18200684 .22599793-.055007936 .2769928 .054992677 .2889862 .16600037 .2889862 .25Z"/>
</defs>
<path transform="matrix(1.00009,0,0,-1.00003,120.56023,131.12454)" stroke-width=".19925" stroke-linecap="butt" stroke-miterlimit="10" stroke-linejoin="miter" fill="none" stroke="#929292" d="M-113.38724-113.38724H113.38724M-113.38724-85.04042H113.38724M-113.38724-56.69362H113.38724M-113.38724-28.3468H113.38724M-113.38724 0H113.38724M-113.38724 28.3468H113.38724M-113.38724 56.69362H113.38724M-113.38724 85.04042H113.38724M-113.38724 113.37727H113.38724M-113.38724-113.38724V113.38724M-85.04042-113.38724V113.38724M-56.69362-113.38724V113.38724M-28.3468-113.38724V113.38724M0-113.38724V113.38724M28.3468-113.38724V113.38724M56.69362-113.38724V113.38724M85.04042-113.38724V113.38724M113.37727-113.38724V113.38724M113.38724 113.38724"/>
<path transform="matrix(1.00009,0,0,-1.00003,120.56023,131.12454)" stroke-width="1.19553" stroke-linecap="butt" stroke-miterlimit="10" stroke-linejoin="miter" fill="none" stroke="#000000" d="M-119.0565 0H118.10008"/>
<path transform="matrix(1.00009,0,0,-1.00003,238.67093,131.12454)" stroke-width=".9564" stroke-linecap="round" stroke-linejoin="round" fill="none" stroke="#000000" d="M-1.91284 2.55046C-1.75343 1.59402 0 .15938 .4782 0 0-.15938-1.75343-1.59402-1.91284-2.55046"/>
<use data-text="x" xlink:href="#font_1_2" transform="matrix(9.963496,0,0,-9.962899,243.5463,133.2696)"/>
<path transform="matrix(1.00009,0,0,-1.00003,120.56023,131.12454)" stroke-width="1.19553" stroke-linecap="butt" stroke-miterlimit="10" stroke-linejoin="miter" fill="none" stroke="#000000" d="M0-119.0565V118.10008"/>
<path transform="matrix(0,-1.00003,-1.00009,-0,120.56023,13.020912)" stroke-width=".9564" stroke-linecap="round" stroke-linejoin="round" fill="none" stroke="#000000" d="M-1.91284 2.55046C-1.75343 1.59402 0 .15938 .4782 0 0-.15938-1.75343-1.59402-1.91284-2.55046"/>
<use data-text="y" xlink:href="#font_1_3" transform="matrix(9.963496,0,0,-9.962899,117.93899,6.208786)"/>
<path transform="matrix(1.00009,0,0,-1.00003,120.56023,131.12454)" stroke-width=".79701" stroke-linecap="butt" stroke-miterlimit="10" stroke-linejoin="miter" fill="none" stroke="#0000ff" d="M-113.38724-113.38724C-113.38724-113.38724-112.97658-112.97658-112.81888-112.81888-112.66116-112.66116-112.40822-112.40822-112.25052-112.25052-112.09282-112.09282-111.83987-111.83987-111.68216-111.68216-111.52446-111.52446-111.27151-111.27151-111.1138-111.1138-110.9561-110.9561-110.70316-110.70316-110.54546-110.54546-110.38774-110.38774-110.1348-110.1348-109.9771-109.9771-109.81938-109.81938-109.56644-109.56644-109.40874-109.40874-109.25104-109.25104-108.9981-108.9981-108.84038-108.84038-108.68268-108.68268-108.42973-108.42973-108.27202-108.27202-108.11432-108.11432-107.86137-107.86137-107.70367-107.70367-107.54596-107.54596-107.29303-107.29303-107.13533-107.13533-106.97762-106.97762-106.72467-106.72467-106.56697-106.56697-106.40927-106.40927-106.15633-106.15633-105.99861-105.99861-105.84091-105.84091-105.58797-105.58797-105.43025-105.43025-105.27255-105.27255-105.0196-105.0196-104.86191-104.86191-104.7042-104.7042-104.45125-104.45125-104.29355-104.29355-104.13583-104.13583-103.88289-103.88289-103.72519-103.72519-103.56749-103.56749-103.31454-103.31454-103.15683-103.15683-102.99913-102.99913-102.74619-102.74619-102.58847-102.58847-102.43077-102.43077-102.17783-102.17783-102.02013-102.02013-101.86241-101.86241-101.60947-101.60947-101.45177-101.45177-101.29405-101.29405-101.04112-101.04112-100.88342-100.88342-100.72572-100.72572-100.47278-100.47278-100.31506-100.31506-100.15736-100.15736-99.90442-99.90442-99.7467-99.7467-99.589-99.589-99.33606-99.33606-99.17836-99.17836-99.02065-99.02065-98.7677-98.7677-98.61-98.61-98.45229-98.45229-98.19934-98.19934-98.04164-98.04164-97.88394-97.88394-97.631-97.631-97.47328-97.47328-97.31558-97.31558-97.06264-97.06264-96.90492-96.90492-96.74722-96.74722-96.49428-96.49428-96.33658-96.33658-96.17886-96.17886-95.92592-95.92592-95.76822-95.76822-95.6105-95.6105-95.35757-95.35757-95.19987-95.19987-95.04218-95.04218-94.78922-94.78922-94.63152-94.63152-94.47382-94.47382-94.22087-94.22087-94.06316-94.06316-93.90546-93.90546-93.65251-93.65251-93.49481-93.49481-93.3371-93.3371-93.08415-93.08415-92.92645-92.92645-92.76874-92.76874-92.5158-92.5158-92.3581-92.3581-92.2004-92.2004-91.94743-91.94743-91.78973-91.78973-91.63203-91.63203-91.37909-91.37909-91.22137-91.22137-91.06367-91.06367-90.81073-90.81073-90.65302-90.65302-90.49532-90.49532-90.24237-90.24237-90.08467-90.08467-89.92696-89.92696-89.67401-89.67401-89.51631-89.51631-89.35861-89.35861-89.10567-89.10567-88.94797-88.94797-88.79027-88.79027-88.53732-88.53732-88.37961-88.37961-88.22191-88.22191-87.96896-87.96896-87.81125-87.81125-87.65355-87.65355-87.4006-87.4006-87.2429-87.2429-87.08519-87.08519-86.83224-86.83224-86.67455-86.67455-86.51683-86.51683-86.26389-86.26389-86.10619-86.10619-85.94849-85.94849-85.69554-85.69554-85.53783-85.53783-85.38013-85.38013-85.12718-85.12718-84.96947-84.96947-84.81177-84.81177-84.55882-84.55882-84.40112-84.40112-84.24341-84.24341-83.99046-83.99046-83.83276-83.83276-83.67505-83.67505-83.42212-83.42212-83.26442-83.26442-83.10672-83.10672-82.85378-82.85378-82.69606-82.69606-82.53836-82.53836-82.28542-82.28542-82.1277-82.1277-81.97-81.97-81.71706-81.71706-81.55936-81.55936-81.40164-81.40164-81.1487-81.1487-80.991-80.991-80.83328-80.83328-80.58034-80.58034-80.42264-80.42264-80.26494-80.26494-80.012-80.012-79.85428-79.85428-79.69658-79.69658-79.44363-79.44363-79.28592-79.28592-79.12822-79.12822-78.87527-78.87527-78.71758-78.71758-78.55986-78.55986-78.30692-78.30692-78.14922-78.14922-77.9915-77.9915-77.73856-77.73856-77.58086-77.58086-77.42316-77.42316-77.17023-77.17023-77.01251-77.01251-76.85481-76.85481-76.60187-76.60187-76.44415-76.44415-76.28645-76.28645-76.03351-76.03351-75.87581-75.87581-75.7181-75.7181-75.46515-75.46515-75.30745-75.30745-75.14973-75.14973-74.89679-74.89679-74.73909-74.73909-74.58139-74.58139-74.32845-74.32845-74.17073-74.17073-74.01303-74.01303-73.76009-73.76009-73.60237-73.60237-73.44467-73.44467-73.19173-73.19173-73.03403-73.03403-72.87631-72.87631-72.62337-72.62337-72.46567-72.46567-72.30795-72.30795-72.05501-72.05501-71.89731-71.89731-71.73961-71.73961-71.48668-71.48668-71.32896-71.32896-71.17126-71.17126-70.91832-70.91832-70.7606-70.7606-70.6029-70.6029-70.34996-70.34996-70.19226-70.19226-70.03455-70.03455-69.7816-69.7816-69.6239-69.6239-69.46619-69.46619-69.21324-69.21324-69.05554-69.05554-68.89784-68.89784-68.6449-68.6449-68.48718-68.48718-68.32948-68.32948-68.07654-68.07654-67.91882-67.91882-67.76112-67.76112-67.50818-67.50818-67.35048-67.35048-67.19276-67.19276-66.93982-66.93982-66.78212-66.78212-66.6244-66.6244-66.37146-66.37146-66.21376-66.21376-66.05606-66.05606-65.80312-65.80312-65.6454-65.6454-65.4877-65.4877-65.23477-65.23477-65.07706-65.07706-64.91936-64.91936-64.66641-64.66641-64.50871-64.50871-64.351-64.351-64.09805-64.09805-63.94035-63.94035-63.78264-63.78264-63.5297-63.5297-63.372-63.372-63.2143-63.2143-62.96135-62.96135-62.80363-62.80363-62.64594-62.64594-62.39299-62.39299-62.23528-62.23528-62.07758-62.07758-61.82463-61.82463-61.66693-61.66693-61.50922-61.50922-61.25627-61.25627-61.09857-61.09857-60.94086-60.94086-60.68791-60.68791-60.53021-60.53021-60.37251-60.37251-60.11957-60.11957-59.96185-59.96185-59.80415-59.80415-59.55122-59.55122-59.39351-59.39351-59.23581-59.23581-58.98286-58.98286-58.82516-58.82516-58.66745-58.66745-58.4145-58.4145-58.2568-58.2568-58.09909-58.09909-57.84615-57.84615-57.68845-57.68845-57.53075-57.53075-57.27779-57.27779-57.12009-57.12009-56.96239-56.96239-56.70944-56.70944-56.55173-56.55173-56.39403-56.39403-56.14108-56.14108-55.98338-55.98338-55.82567-55.82567-55.57272-55.57272-55.41502-55.41502-55.25731-55.25731-55.00436-55.00436-54.84666-54.84666-54.68896-54.68896-54.436-54.436-54.2783-54.2783-54.1206-54.1206-53.86766-53.86766-53.70995-53.70995-53.55225-53.55225-53.29932-53.29932-53.1416-53.1416-52.9839-52.9839-52.73096-52.73096-52.57326-52.57326-52.41554-52.41554-52.1626-52.1626-52.0049-52.0049-51.8472-51.8472-51.59424-51.59424-51.43654-51.43654-51.27884-51.27884-51.0259-51.0259-50.86818-50.86818-50.71048-50.71048-50.45753-50.45753-50.29982-50.29982-50.14212-50.14212-49.88918-49.88918-49.73148-49.73148-49.57376-49.57376-49.32082-49.32082-49.16312-49.16312-49.0054-49.0054-48.75246-48.75246-48.59476-48.59476-48.43706-48.43706-48.18411-48.18411-48.0264-48.0264-47.8687-47.8687-47.61577-47.61577-47.45805-47.45805-47.30035-47.30035-47.04741-47.04741-46.88971-46.88971-46.732-46.732-46.47905-46.47905-46.32135-46.32135-46.16364-46.16364-45.91069-45.91069-45.75299-45.75299-45.59529-45.59529-45.34235-45.34235-45.18463-45.18463-45.02693-45.02693-44.77399-44.77399-44.61627-44.61627-44.45857-44.45857-44.20563-44.20563-44.04793-44.04793-43.89021-43.89021-43.63727-43.63727-43.47957-43.47957-43.32185-43.32185-43.06891-43.06891-42.91121-42.91121-42.75351-42.75351-42.50056-42.50056-42.34285-42.34285-42.18515-42.18515-41.9322-41.9322-41.77449-41.77449-41.61679-41.61679-41.36386-41.36386-41.20616-41.20616-41.04845-41.04845-40.7955-40.7955-40.6378-40.6378-40.48009-40.48009-40.22714-40.22714-40.06944-40.06944-39.91174-39.91174-39.6588-39.6588-39.50108-39.50108-39.34338-39.34338-39.09044-39.09044-38.93272-38.93272-38.77502-38.77502-38.52208-38.52208-38.36438-38.36438-38.20667-38.20667-37.95372-37.95372-37.79602-37.79602-37.6383-37.6383-37.38536-37.38536-37.22766-37.22766-37.06996-37.06996-36.81702-36.81702-36.6593-36.6593-36.5016-36.5016-36.24866-36.24866-36.09094-36.09094-35.93324-35.93324-35.68031-35.68031-35.52261-35.52261-35.3649-35.3649-35.11195-35.11195-34.95425-34.95425-34.79654-34.79654-34.5436-34.5436-34.3859-34.3859-34.2282-34.2282-33.97525-33.97525-33.81754-33.81754-33.65984-33.65984-33.40689-33.40689-33.24918-33.24918-33.09148-33.09148-32.83853-32.83853-32.68083-32.68083-32.52312-32.52312-32.27017-32.27017-32.11247-32.11247-31.95476-31.95476-31.70181-31.70181-31.54411-31.54411-31.38641-31.38641-31.13347-31.13347-30.97575-30.97575-30.81805-30.81805-30.56511-30.56511-30.4074-30.4074-30.2497-30.2497-29.99675-29.99675-29.83905-29.83905-29.68134-29.68134-29.4284-29.4284-29.2707-29.2707-29.11299-29.11299-28.86005-28.86005-28.70235-28.70235-28.54465-28.54465-28.2917-28.2917-28.13399-28.13399-27.97629-27.97629-27.72334-27.72334-27.56563-27.56563-27.40793-27.40793-27.15498-27.15498-26.99728-26.99728-26.83957-26.83957-26.58662-26.58662-26.42892-26.42892-26.27121-26.27121-26.01826-26.01826-25.86057-25.86057-25.70287-25.70287-25.44992-25.44992-25.2922-25.2922-25.1345-25.1345-24.88156-24.88156-24.72385-24.72385-24.56615-24.56615-24.3132-24.3132-24.1555-24.1555-23.99779-23.99779-23.74486-23.74486-23.58716-23.58716-23.42944-23.42944-23.1765-23.1765-23.0188-23.0188-22.8611-22.8611-22.60814-22.60814-22.45044-22.45044-22.29274-22.29274-22.0398-22.0398-21.88208-21.88208-21.72438-21.72438-21.47144-21.47144-21.31374-21.31374-21.15602-21.15602-20.90308-20.90308-20.74538-20.74538-20.58766-20.58766-20.33472-20.33472-20.17702-20.17702-20.01932-20.01932-19.76636-19.76636-19.60866-19.60866-19.45096-19.45096-19.19801-19.19801-19.0403-19.0403-18.8826-18.8826-18.62965-18.62965-18.47194-18.47194-18.31424-18.31424-18.0613-18.0613-17.9036-17.9036-17.74588-17.74588-17.49295-17.49295-17.33525-17.33525-17.17755-17.17755-16.92459-16.92459-16.76689-16.76689-16.60919-16.60919-16.35625-16.35625-16.19853-16.19853-16.04083-16.04083-15.78789-15.78789-15.63017-15.63017-15.47247-15.47247-15.21953-15.21953-15.06183-15.06183-14.90411-14.90411-14.65117-14.65117-14.49347-14.49347-14.33577-14.33577-14.08281-14.08281-13.92511-13.92511-13.76741-13.76741-13.51447-13.51447-13.35675-13.35675-13.19905-13.19905-12.9461-12.9461-12.78839-12.78839-12.63069-12.63069-12.37775-12.37775-12.22005-12.22005-12.06233-12.06233-11.8094-11.8094-11.6517-11.6517-11.49399-11.49399-11.24104-11.24104-11.08334-11.08334-10.92564-10.92564-10.6727-10.6727-10.51498-10.51498-10.35728-10.35728-10.10434-10.10434-9.94662-9.94662-9.78893-9.78893-9.53598-9.53598-9.37828-9.37828-9.22057-9.22057-8.96762-8.96762-8.80992-8.80992-8.6522-8.6522-8.39926-8.39926-8.24156-8.24156-8.08386-8.08386-7.83092-7.83092-7.6732-7.6732-7.5155-7.5155-7.26256-7.26256-7.10484-7.10484-6.94714-6.94714-6.6942-6.6942-6.5365-6.5365-6.37878-6.37878-6.12584-6.12584-5.96814-5.96814-5.81042-5.81042-5.5575-5.5575-5.3998-5.3998-5.2421-5.2421-4.98915-4.98915-4.83144-4.83144-4.67374-4.67374-4.42079-4.42079-4.26308-4.26308-4.10538-4.10538-3.85243-3.85243-3.69473-3.69473-3.53702-3.53702-3.28407-3.28407-3.12637-3.12637-2.96866-2.96866-2.71571-2.71571-2.55801-2.55801-2.40031-2.40031-2.14737-2.14737-1.98965-1.98965-1.83195-1.83195-1.57901-1.57901-1.4213-1.4213-1.2636-1.2636-1.01065-1.01065-.85295-.85295-.69524-.69524-.44229-.44229-.28459-.28459-.12688-.12688 .12602 .12602 .28372 .28372 .44142 .44142 .69437 .69437 .85208 .85208 1.00978 1.00978 1.26273 1.26273 1.42044 1.42044 1.57814 1.57814 1.83109 1.83109 1.98878 1.98878 2.1465 2.1465 2.39944 2.39944 2.55714 2.55714 2.71486 2.71486 2.9678 2.9678 3.1255 3.1255 3.2832 3.2832 3.53615 3.53615 3.69386 3.69386 3.85156 3.85156 4.1045 4.1045 4.26222 4.26222 4.41992 4.41992 4.67287 4.67287 4.83057 4.83057 4.98828 4.98828 5.24123 5.24123 5.39893 5.39893 5.55664 5.55664 5.80959 5.80959 5.96729 5.96729 6.12498 6.12498 6.37791 6.37791 6.53563 6.53563 6.69333 6.69333 6.94627 6.94627 7.10399 7.10399 7.26169 7.26169 7.51463 7.51463 7.67233 7.67233 7.83005 7.83005 8.083 8.083 8.24069 8.24069 8.3984 8.3984 8.65135 8.65135 8.80905 8.80905 8.96675 8.96675 9.2197 9.2197 9.37741 9.37741 9.53511 9.53511 9.78806 9.78806 9.94577 9.94577 10.10347 10.10347 10.35641 10.35641 10.51411 10.51411 10.67183 10.67183 10.92477 10.92477 11.08247 11.08247 11.24019 11.24019 11.49313 11.49313 11.65083 11.65083 11.80853 11.80853 12.06148 12.06148 12.2192 12.2192 12.37689 12.37689 12.62982 12.62982 12.78754 12.78754 12.94524 12.94524 13.19818 13.19818 13.35588 13.35588 13.5136 13.5136 13.76654 13.76654 13.92424 13.92424 14.08195 14.08195 14.3349 14.3349 14.4926 14.4926 14.6503 14.6503 14.90326 14.90326 15.06096 15.06096 15.21866 15.21866 15.4716 15.4716 15.62932 15.62932 15.78702 15.78702 16.03996 16.03996 16.19766 16.19766 16.35538 16.35538 16.60832 16.60832 16.76602 16.76602 16.92374 16.92374 17.17668 17.17668 17.33438 17.33438 17.49208 17.49208 17.74504 17.74504 17.90274 17.90274 18.06044 18.06044 18.31337 18.31337 18.47108 18.47108 18.62878 18.62878 18.88173 18.88173 19.03944 19.03944 19.19714 19.19714 19.45009 19.45009 19.60779 19.60779 19.7655 19.7655 20.01845 20.01845 20.17615 20.17615 20.33385 20.33385 20.5868 20.5868 20.7445 20.7445 20.9022 20.9022 21.15515 21.15515 21.31287 21.31287 21.47057 21.47057 21.72351 21.72351 21.88123 21.88123 22.03893 22.03893 22.29187 22.29187 22.44957 22.44957 22.60728 22.60728 22.86023 22.86023 23.01793 23.01793 23.17564 23.17564 23.42859 23.42859 23.58629 23.58629 23.74399 23.74399 23.99693 23.99693 24.15465 24.15465 24.31235 24.31235 24.56528 24.56528 24.72299 24.72299 24.88069 24.88069 25.13364 25.13364 25.29134 25.29134 25.44905 25.44905 25.702 25.702 25.8597 25.8597 26.01741 26.01741 26.27036 26.27036 26.42805 26.42805 26.58575 26.58575 26.8387 26.8387 26.99641 26.99641 27.15411 27.15411 27.40706 27.40706 27.56477 27.56477 27.72247 27.72247 27.97542 27.97542 28.13312 28.13312 28.29083 28.29083 28.54378 28.54378 28.70148 28.70148 28.85919 28.85919 29.11214 29.11214 29.26984 29.26984 29.42754 29.42754 29.68048 29.68048 29.8382 29.8382 29.9959 29.9959 30.24883 30.24883 30.40654 30.40654 30.56424 30.56424 30.81718 30.81718 30.97488 30.97488 31.1326 31.1326 31.38554 31.38554 31.54324 31.54324 31.70096 31.70096 31.9539 31.9539 32.1116 32.1116 32.2693 32.2693 32.52225 32.52225 32.67996 32.67996 32.83766 32.83766 33.0906 33.0906 33.24832 33.24832 33.40602 33.40602 33.65897 33.65897 33.81667 33.81667 33.97438 33.97438 34.22733 34.22733 34.38503 34.38503 34.54274 34.54274 34.79568 34.79568 34.95338 34.95338 35.11108 35.11108 35.36403 35.36403 35.52174 35.52174 35.67944 35.67944 35.93239 35.93239 36.0901 36.0901 36.2478 36.2478 36.50073 36.50073 36.65843 36.65843 36.81615 36.81615 37.06909 37.06909 37.22679 37.22679 37.3845 37.3845 37.63745 37.63745 37.79515 37.79515 37.95285 37.95285 38.2058 38.2058 38.36351 38.36351 38.52121 38.52121 38.77415 38.77415 38.93187 38.93187 39.08957 39.08957 39.34251 39.34251 39.50021 39.50021 39.65793 39.65793 39.91087 39.91087 40.06857 40.06857 40.22629 40.22629 40.47923 40.47923 40.63693 40.63693 40.79463 40.79463 41.04758 41.04758 41.20529 41.20529 41.36299 41.36299 41.61594 41.61594 41.77365 41.77365 41.93135 41.93135 42.18428 42.18428 42.34198 42.34198 42.4997 42.4997 42.75264 42.75264 42.91034 42.91034 43.06805 43.06805 43.321 43.321 43.4787 43.4787 43.6364 43.6364 43.88934 43.88934 44.04706 44.04706 44.20476 44.20476 44.4577 44.4577 44.61542 44.61542 44.77312 44.77312 45.02606 45.02606 45.18376 45.18376 45.34148 45.34148 45.59442 45.59442 45.75212 45.75212 45.90984 45.90984 46.16278 46.16278 46.32048 46.32048 46.47818 46.47818 46.73112 46.73112 46.88884 46.88884 47.04654 47.04654 47.29948 47.29948 47.4572 47.4572 47.6149 47.6149 47.86784 47.86784 48.02554 48.02554 48.18326 48.18326 48.43619 48.43619 48.59389 48.59389 48.7516 48.7516 49.00455 49.00455 49.16225 49.16225 49.31995 49.31995 49.5729 49.5729 49.7306 49.7306 49.8883 49.8883 50.14125 50.14125 50.29897 50.29897 50.45667 50.45667 50.70961 50.70961 50.86731 50.86731 51.02502 51.02502 51.27797 51.27797 51.43567 51.43567 51.59338 51.59338 51.84633 51.84633 52.00403 52.00403 52.16173 52.16173 52.41469 52.41469 52.57239 52.57239 52.73009 52.73009 52.98303 52.98303 53.14075 53.14075 53.29845 53.29845 53.55139 53.55139 53.7091 53.7091 53.8668 53.8668 54.11974 54.11974 54.27744 54.27744 54.43515 54.43515 54.6881 54.6881 54.8458 54.8458 55.0035 55.0035 55.25645 55.25645 55.41415 55.41415 55.57185 55.57185 55.8248 55.8248 55.98251 55.98251 56.14021 56.14021 56.39316 56.39316 56.55087 56.55087 56.70857 56.70857 56.96152 56.96152 57.11922 57.11922 57.27693 57.27693 57.52988 57.52988 57.68758 57.68758 57.84529 57.84529 58.09824 58.09824 58.25594 58.25594 58.41364 58.41364 58.66658 58.66658 58.8243 58.8243 58.982 58.982 59.23494 59.23494 59.39265 59.39265 59.55035 59.55035 59.8033 59.8033 59.961 59.961 60.11871 60.11871 60.37164 60.37164 60.52934 60.52934 60.68706 60.68706 60.94 60.94 61.0977 61.0977 61.2554 61.2554 61.50835 61.50835 61.66606 61.66606 61.82376 61.82376 62.0767 62.0767 62.23442 62.23442 62.39212 62.39212 62.64507 62.64507 62.80276 62.80276 62.96048 62.96048 63.21342 63.21342 63.37112 63.37112 63.52884 63.52884 63.78178 63.78178 63.93948 63.93948 64.09718 64.09718 64.35013 64.35013 64.50784 64.50784 64.66554 64.66554 64.91849 64.91849 65.0762 65.0762 65.2339 65.2339 65.48685 65.48685 65.64455 65.64455 65.80226 65.80226 66.05519 66.05519 66.21289 66.21289 66.3706 66.3706 66.62355 66.62355 66.78125 66.78125 66.93895 66.93895 67.1919 67.1919 67.34961 67.34961 67.50731 67.50731 67.76025 67.76025 67.91797 67.91797 68.07567 68.07567 68.32861 68.32861 68.48631 68.48631 68.64403 68.64403 68.89697 68.89697 69.05467 69.05467 69.21239 69.21239 69.46533 69.46533 69.62303 69.62303 69.78073 69.78073 70.03368 70.03368 70.19139 70.19139 70.34909 70.34909 70.60204 70.60204 70.75975 70.75975 70.91745 70.91745 71.1704 71.1704 71.3281 71.3281 71.48581 71.48581 71.73875 71.73875 71.89645 71.89645 72.05417 72.05417 72.3071 72.3071 72.4648 72.4648 72.6225 72.6225 72.87544 72.87544 73.03316 73.03316 73.19086 73.19086 73.4438 73.4438 73.60152 73.60152 73.75922 73.75922 74.01216 74.01216 74.16986 74.16986 74.32758 74.32758 74.58052 74.58052 74.73822 74.73822 74.89594 74.89594 75.14888 75.14888 75.30658 75.30658 75.46428 75.46428 75.71722 75.71722 75.87494 75.87494 76.03264 76.03264 76.28558 76.28558 76.4433 76.4433 76.601 76.601 76.85394 76.85394 77.01164 77.01164 77.16936 77.16936 77.4223 77.4223 77.58 77.58 77.73772 77.73772 77.99065 77.99065 78.14835 78.14835 78.30605 78.30605 78.55899 78.55899 78.7167 78.7167 78.8744 78.8744 79.12735 79.12735 79.28506 79.28506 79.44276 79.44276 79.69571 79.69571 79.85341 79.85341 80.01112 80.01112 80.26407 80.26407 80.42177 80.42177 80.57948 80.57948 80.83243 80.83243 80.99013 80.99013 81.14783 81.14783 81.40077 81.40077 81.55849 81.55849 81.71619 81.71619 81.96913 81.96913 82.12685 82.12685 82.28455 82.28455 82.53749 82.53749 82.69519 82.69519 82.8529 82.8529 83.10585 83.10585 83.26355 83.26355 83.42126 83.42126 83.67421 83.67421 83.83191 83.83191 83.98961 83.98961 84.24255 84.24255 84.40025 84.40025 84.55795 84.55795 84.8109 84.8109 84.96861 84.96861 85.12631 85.12631 85.37926 85.37926 85.53696 85.53696 85.69467 85.69467 85.94762 85.94762 86.10532 86.10532 86.26303 86.26303 86.51598 86.51598 86.67368 86.67368 86.83138 86.83138 87.08434 87.08434 87.24203 87.24203 87.39973 87.39973 87.65268 87.65268 87.8104 87.8104 87.9681 87.9681 88.22104 88.22104 88.37874 88.37874 88.53645 88.53645 88.7894 88.7894 88.9471 88.9471 89.10481 89.10481 89.35776 89.35776 89.51546 89.51546 89.67316 89.67316 89.9261 89.9261 90.0838 90.0838 90.2415 90.2415 90.49445 90.49445 90.65216 90.65216 90.80986 90.80986 91.0628 91.0628 91.22052 91.22052 91.37822 91.37822 91.63116 91.63116 91.78886 91.78886 91.94658 91.94658 92.19952 92.19952 92.35722 92.35722 92.51492 92.51492 92.76788 92.76788 92.92558 92.92558 93.08328 93.08328 93.33623 93.33623 93.49394 93.49394 93.65164 93.65164 93.90459 93.90459 94.0623 94.0623 94.22 94.22 94.47295 94.47295 94.63065 94.63065 94.78836 94.78836 95.0413 95.0413 95.199 95.199 95.35672 95.35672 95.60966 95.60966 95.76736 95.76736 95.92506 95.92506 96.178 96.178 96.33571 96.33571 96.49341 96.49341 96.74635 96.74635 96.90407 96.90407 97.06177 97.06177 97.31471 97.31471 97.47241 97.47241 97.63013 97.63013 97.88307 97.88307 98.04077 98.04077 98.19849 98.19849 98.45143 98.45143 98.60913 98.60913 98.76683 98.76683 99.01978 99.01978 99.17749 99.17749 99.33519 99.33519 99.58813 99.58813 99.74585 99.74585 99.90355 99.90355 100.1565 100.1565 100.3142 100.3142 100.47191 100.47191 100.72485 100.72485 100.88255 100.88255 101.04027 101.04027 101.29321 101.29321 101.45091 101.45091 101.60861 101.60861 101.86154 101.86154 102.01926 102.01926 102.17696 102.17696 102.4299 102.4299 102.58762 102.58762 102.74532 102.74532 102.99826 102.99826 103.15596 103.15596 103.31367 103.31367 103.56662 103.56662 103.72432 103.72432 103.88203 103.88203 104.13498 104.13498 104.29268 104.29268 104.45038 104.45038 104.70332 104.70332 104.86104 104.86104 105.01874 105.01874 105.27168 105.27168 105.4294 105.4294 105.5871 105.5871 105.84004 105.84004 105.99774 105.99774 106.15546 106.15546 106.4084 106.4084 106.5661 106.5661 106.72382 106.72382 106.97676 106.97676 107.13446 107.13446 107.29216 107.29216 107.5451 107.5451 107.70282 107.70282 107.86052 107.86052 108.11345 108.11345 108.27116 108.27116 108.42886 108.42886 108.68181 108.68181 108.83951 108.83951 108.99722 108.99722 109.25017 109.25017 109.40787 109.40787 109.56558 109.56558 109.81853 109.81853 109.97623 109.97623 110.13393 110.13393 110.38687 110.38687 110.54459 110.54459 110.70229 110.70229 110.95523 110.95523 111.11295 111.11295 111.27065 111.27065 111.52359 111.52359 111.68129 111.68129 111.839 111.839 112.09195 112.09195 112.24965 112.24965 112.40736 112.40736 112.66031 112.66031 112.81801 112.81801 112.97571 112.97571 113.38637 113.38637 113.38637 113.38637"/>
<use data-text="&#x2022;" xlink:href="#font_2_1" transform="matrix(9.963496,0,0,-9.962899,118.069,133.33861)"/>
<use data-text="(" xlink:href="#font_3_1" transform="matrix(9.963496,0,0,-9.962899,124.08054,142.11687)"/>
<use data-text="0" xlink:href="#font_3_3" transform="matrix(9.963496,0,0,-9.962899,127.94639,142.11687)"/>
<use data-text="," xlink:href="#font_1_1" transform="matrix(9.963496,0,0,-9.962899,132.93735,142.11687)"/>
<use data-text="0" xlink:href="#font_3_3" transform="matrix(9.963496,0,0,-9.962899,137.36573,142.11687)"/>
<use data-text=")" xlink:href="#font_3_2" transform="matrix(9.963496,0,0,-9.962899,142.34748,142.11687)"/>
</svg>
