<svg xmlns="http://www.w3.org/2000/svg" xmlns:xlink="http://www.w3.org/1999/xlink" version="1.1" width="250" height="146" viewBox="0 0 250 146">
<defs>
<path id="font_1_2" d="M.33399964 .30233766C.33999635 .32835389 .36299134 .42037965 .43299867 .42037965 .43798829 .42037965 .46199037 .42037965 .48298646 .40734864 .45498658 .402359 .43499757 .37734986 .43499757 .35334779 .43499757 .33735658 .44599916 .31835938 .47299195 .31835938 .49499513 .31835938 .5269928 .3363495 .5269928 .37635804 .5269928 .42837525 .46798707 .4423828 .43399049 .4423828 .37599183 .4423828 .34098817 .38935853 .32899476 .36634828 .3039856 .43237306 .25 .4423828 .22099304 .4423828 .116989139 .4423828 .05999756 .3133545 .05999756 .28834535 .05999756 .27833558 .069992069 .27833558 .07199097 .27833558 .07998657 .27833558 .08299255 .28033448 .084991458 .28933717 .11898804 .39535523 .18499756 .42037965 .21899414 .42037965 .23799134 .42037965 .272995 .4113617 .272995 .35334779 .272995 .32235719 .2559967 .25532533 .21899414 .11528015 .20298767 .053268434 .16799927 .011245728 .12399292 .011245728 .117996219 .011245728 .09498596 .011245728 .07398987 .024276734 .09899902 .029266358 .12098694 .05027771 .12098694 .07827759 .12098694 .105270389 .09899902 .11328125 .083999637 .11328125 .053985597 .11328125 .0289917 .08728027 .0289917 .055267335 .0289917 .009246826 .07899475-.0107421879 .12298584-.0107421879 .18899536-.0107421879 .22499085 .059280397 .22799683 .0652771 .23999024 .028274537 .27598573-.0107421879 .33599855-.0107421879 .43899537-.0107421879 .49598695 .118270877 .49598695 .14328003 .49598695 .1532898 .4869995 .1532898 .48399354 .1532898 .47499085 .1532898 .47299195 .14929199 .47099305 .14228821 .43798829 .03527832 .36999513 .011245728 .33799745 .011245728 .29899598 .011245728 .2829895 .043273927 .2829895 .07727051 .2829895 .09927368 .2889862 .121276859 .2999878 .16529846L.33399964 .30233766Z"/>
<path id="font_1_3" d="M.48599244 .38136292C.48999024 .39537049 .48999024 .39736939 .48999024 .40437318 .48999024 .42237855 .47599793 .43138124 .46099855 .43138124 .45098878 .43138124 .43499757 .42536927 .42599488 .41036988 .42399598 .405365 .41600038 .37435914 .4119873 .35635377 .40499879 .33035279 .397995 .30334474 .3919983 .27633668L.34700013 .09628296C.34298707 .08126831 .2999878 .011245728 .23399353 .011245728 .18299866 .011245728 .17199707 .055267335 .17199707 .0922699 .17199707 .1382904 .18899536 .20030213 .22299195 .28833009 .23899842 .3293457 .24299622 .3403473 .24299622 .36035157 .24299622 .405365 .21099854 .4423828 .16099549 .4423828 .06599426 .4423828 .0289917 .29733277 .0289917 .28833009 .0289917 .27833558 .038986207 .27833558 .040985109 .27833558 .050994874 .27833558 .051986696 .28033448 .056991579 .29634095 .083999637 .3903656 .12399292 .42037965 .1579895 .42037965 .1659851 .42037965 .18299866 .42037965 .18299866 .3883667 .18299866 .36335755 .17298889 .3373413 .1659851 .31834413 .12599182 .21231079 .10798645 .1552887 .10798645 .10827637 .10798645 .019256592 .17098999-.0107421879 .22999573-.0107421879 .2689972-.0107421879 .30299378 .0062561037 .33099366 .03425598 .31799317-.017745972 .30599977-.06674194 .2659912-.11973572 .23999024-.15385437 .20199585-.18309021 .1559906-.18309021 .14199829-.18309021 .09700012-.18005371 .07998657-.14074707 .09599304-.14074707 .10899353-.14074707 .12298584-.1287384 .1329956-.11973572 .14299011-.10673523 .14299011-.08773804 .14299011-.056747438 .115997318-.052734376 .10598755-.052734376 .08299255-.052734376 .049987794-.068740848 .049987794-.11773682 .049987794-.16796875 .09399414-.20507813 .1559906-.20507813 .25898744-.20507813 .3619995-.11373901 .3899994-.00074768069L.48599244 .38136292Z"/>
<clipPath id="clip_2">
<path transform="matrix(1.00009,0,0,-1.00005,120.56023,131.1259)" d="M-113.38724 0V113.38724H113.38724V0ZM113.38724 113.38724"/>
</clipPath>
<path id="font_3_1" d="M.44400025 .24998474C.44400025 .35688783 .35499574 .44381715 .25 .44381715 .14199829 .44381715 .054992677 .35488893 .054992677 .24998474 .054992677 .14407349 .14199829 .056137086 .25 .056137086 .35499574 .056137086 .44400025 .14308167 .44400025 .24998474Z"/>
<path id="font_4_1" d="M.33099366-.2400055C.33099366-.23701477 .33099366-.23500061 .31399537-.21800232 .18899536-.0920105 .15699768 .09700012 .15699768 .25 .15699768 .42399598 .19499207 .59799197 .31799317 .72299197 .33099366 .73498538 .33099366 .7369995 .33099366 .73999026 .33099366 .746994 .32699586 .75 .32099916 .75 .31098939 .75 .22099304 .6819916 .1619873 .5549927 .11099243 .44499208 .09899902 .33399964 .09899902 .25 .09899902 .17199707 .10998535 .050994874 .16499329-.06201172 .22499085-.18501282 .31098939-.25 .32099916-.25 .32699586-.25 .33099366-.24700928 .33099366-.2400055Z"/>
<path id="font_4_3" d="M.45999146 .31976319C.45999146 .39982606 .45498658 .47988893 .41999818 .5539398 .37399293 .65000918 .2919922 .6660156 .25 .6660156 .18998719 .6660156 .116989139 .64001467 .07598877 .54693606 .04399109 .47789 .038986207 .39982606 .038986207 .31976319 .038986207 .24472046 .042999269 .15464783 .083999637 .07859802 .1269989-.0024719239 .19999695-.022460938 .24899292-.022460938 .30299378-.022460938 .3789978-.0014648438 .4229889 .09359741 .45498658 .16265869 .45999146 .2407074 .45999146 .31976319M.24899292-.00047302247C.20999146-.00047302247 .15098572 .024551392 .1329956 .12062073 .12199402 .18066406 .12199402 .2727356 .12199402 .3317871 .12199402 .39582826 .12199402 .46188355 .12998963 .5159149 .14898682 .63500979 .22399903 .64401248 .24899292 .64401248 .28199769 .64401248 .34799195 .6259918 .36698915 .52693179 .3769989 .47088624 .3769989 .39482118 .3769989 .3317871 .3769989 .25672914 .3769989 .18867493 .3659973 .12461853 .35099793 .029556275 .2939911-.00047302247 .24899292-.00047302247Z"/>
<path id="font_1_1" d="M.20298767 .0009918213C.20298767 .066986087 .17799378 .10598755 .13899231 .10598755 .10598755 .10598755 .085998538 .08099365 .085998538 .052993776 .085998538 .025985718 .10598755 0 .13899231 0 .15098572 0 .1639862 .0039978029 .17399597 .0129852299 .1769867 .01499939 .17799378 .015991211 .1789856 .015991211 .17999268 .015991211 .18099976 .01499939 .18099976 .0009918213 .18099976-.07316589 .1459961-.13328552 .11299133-.16635132 .101989749-.17736817 .101989749-.17936707 .101989749-.18237305 .101989749-.18936157 .10699463-.19335938 .11199951-.19335938 .12298584-.19335938 .20298767-.116256717 .20298767 .0009918213Z"/>
<path id="font_4_2" d="M.2889862 .25C.2889862 .32798768 .27799989 .44898988 .22299195 .56199648 .16299439 .68499758 .07699585 .75 .066986087 .75 .06098938 .75 .056991579 .74598696 .056991579 .73999026 .056991579 .7369995 .056991579 .73498538 .07598877 .71699526 .17399597 .6179962 .23098755 .45899964 .23098755 .25 .23098755 .07899475 .19400025-.09700012 .069992069-.2230072 .056991579-.23500061 .056991579-.23701477 .056991579-.2400055 .056991579-.2460022 .06098938-.25 .066986087-.25 .07699585-.25 .16699219-.18200684 .22599793-.055007936 .2769928 .054992677 .2889862 .16600037 .2889862 .25Z"/>
</defs>
<path transform="matrix(1.00009,0,0,-1.00005,120.56023,131.1259)" stroke-width=".19925" stroke-linecap="butt" stroke-miterlimit="10" stroke-linejoin="miter" fill="none" stroke="#929292" d="M-113.38724 0H113.38724M-113.38724 28.3468H113.38724M-113.38724 56.69362H113.38724M-113.38724 85.04042H113.38724M-113.38724 113.37727H113.38724M-113.38724 0V113.38724M-85.04042 0V113.38724M-56.69362 0V113.38724M-28.3468 0V113.38724M0 0V113.38724M28.3468 0V113.38724M56.69362 0V113.38724M85.04042 0V113.38724M113.37727 0V113.38724M113.38724 113.38724"/>
<path transform="matrix(1.00009,0,0,-1.00005,120.56023,131.1259)" stroke-width="1.19553" stroke-linecap="butt" stroke-miterlimit="10" stroke-linejoin="miter" fill="none" stroke="#000000" d="M-119.0565 0H118.10008"/>
<path transform="matrix(1.00009,0,0,-1.00005,238.67093,131.1259)" stroke-width=".9564" stroke-linecap="round" stroke-linejoin="round" fill="none" stroke="#000000" d="M-1.91284 2.55046C-1.75343 1.59402 0 .15938 .4782 0 0-.15938-1.75343-1.59402-1.91284-2.55046"/>
<use data-text="x" xlink:href="#font_1_2" transform="matrix(9.963496,0,0,-9.963098,243.5463,133.27101)"/>
<path transform="matrix(1.00009,0,0,-1.00005,120.56023,131.1259)" stroke-width="1.19553" stroke-linecap="butt" stroke-miterlimit="10" stroke-linejoin="miter" fill="none" stroke="#000000" d="M0-5.66927V118.10008"/>
<path transform="matrix(0,-1.00005,-1.00009,-0,120.56023,13.01992)" stroke-width=".9564" stroke-linecap="round" stroke-linejoin="round" fill="none" stroke="#000000" d="M-1.91284 2.55046C-1.75343 1.59402 0 .15938 .4782 0 0-.15938-1.75343-1.59402-1.91284-2.55046"/>
<use data-text="y" xlink:href="#font_1_3" transform="matrix(9.963496,0,0,-9.963098,117.93899,6.207657)"/>
<g clip-path="url(#clip_2)">
<path transform="matrix(1.00009,0,0,-1.00005,120.56023,131.1259)" stroke-width=".79701" stroke-linecap="butt" stroke-miterlimit="10" stroke-linejoin="miter" fill="none" stroke="#0000ff" d="M-141.73404 708.6702C-141.73404 708.6702-141.3237 704.5719-141.1661 703.00228-141.00853 701.4326-140.75579 698.92056-140.59819 697.3572-140.44062 695.7938-140.18785 693.2917-140.03026 691.7346-139.87268 690.1776-139.61994 687.6857-139.46236 686.135-139.30477 684.5843-139.052 682.1026-138.89443 680.5583-138.73683 679.014-138.48409 676.5426-138.3265 675.0045-138.16892 673.46646-137.91616 671.0046-137.75858 669.4728-137.60099 667.941-137.34824 665.4898-137.19066 663.9644-137.03307 662.43899-136.7803 659.9976-136.62273 658.4785-136.46515 656.9594-136.21239 654.5284-136.05481 653.01559-135.89723 651.50277-135.64449 649.08157-135.4869 647.5751-135.32932 646.06869-135.07656 643.65817-134.91896 642.158-134.76139 640.65786-134.50864 638.2569-134.35105 636.76296-134.19347 635.26907-133.9407 632.8784-133.78311 631.3908-133.62554 629.90328-133.37279 627.5228-133.21521 626.0416-133.05762 624.5604-132.80486 622.19027-132.64728 620.71536-132.48969 619.2405-132.23694 616.8802-132.07936 615.41159-131.92177 613.943-131.669 611.593-131.51143 610.13076-131.35384 608.66848-131.10109 606.32839-130.94351 604.8724-130.78592 603.4164-130.53316 601.0866-130.37558 599.6369-130.218 598.18728-129.96524 595.8674-129.80767 594.42398-129.65009 592.9806-129.39734 590.67098-129.23975 589.23397-129.08217 587.79696-128.8294 585.4975-128.67182 584.06686-128.51424 582.63619-128.26149 580.34707-128.1039 578.92269-127.94632 577.4983-127.69356 575.2191-127.53596 573.801-127.37839 572.3829-127.12564 570.11367-126.96806 568.7018-126.81047 567.29-126.55771 565.031-126.40013 563.62557-126.24254 562.2201-125.98979 559.9713-125.83221 558.5722-125.67462 557.1731-125.42186 554.9346-125.26428 553.5418-125.10669 552.149-124.85394 549.9204-124.69637 548.5339-124.53877 547.14736-124.28601 544.9286-124.12843 543.5484-123.97086 542.1682-123.7181 539.96029-123.56052 538.5863-123.40294 537.21249-123.15019 535.0139-122.9926 533.6463-122.83502 532.27877-122.58226 530.0909-122.42467 528.7297-122.26709 527.36849-122.01434 525.1904-121.85675 523.8355-121.69917 522.4806-121.44641 520.3129-121.28882 518.96426-121.13124 517.6156-120.8785 515.4578-120.72092 514.11557-120.56332 512.7732-120.31056 510.6257-120.15298 509.28968-119.99539 507.95368-119.74265 505.816-119.58507 504.48634-119.42747 503.15669-119.17471 501.02973-119.01714 499.70637-118.85954 498.383-118.6068 496.2655-118.44922 494.94847-118.29163 493.6314-118.03888 491.52458-117.8813 490.21388-117.72372 488.90318-117.47095 486.80628-117.31337 485.50184-117.15579 484.19737-116.90305 482.11036-116.74545 480.81224-116.58788 479.51414-116.33511 477.4378-116.17752 476.14604-116.01994 474.85423-115.7672 472.78736-115.6096 471.50187-115.45203 470.21638-115.19926 468.1602-115.04167 466.88108-114.8841 465.60194-114.63135 463.55564-114.47377 462.28276-114.31618 461.00987-114.06342 458.97346-113.90584 457.70695-113.74825 456.4404-113.4955 454.41465-113.33792 453.15449-113.18033 451.8943-112.92757 449.87843-112.76999 448.6245-112.6124 447.37059-112.35965 445.36466-112.20207 444.11705-112.04448 442.8694-111.79173 440.87373-111.63416 439.63246-111.47658 438.3912-111.2238 436.4058-111.06622 435.17085-110.90865 433.93589-110.6559 431.96034-110.4983 430.7317-110.34073 429.50306-110.08797 427.53779-109.93037 426.3155-109.7728 425.0932-109.52005 423.13819-109.36246 421.9222-109.20488 420.7062-108.95212 418.7611-108.79453 417.5514-108.63695 416.34169-108.3842 414.4069-108.22662 413.20353-108.06903 412.00016-107.81627 410.07524-107.65869 408.87815-107.5011 407.6811-107.24835 405.76643-107.09077 404.5757-106.93318 403.38499-106.68042 401.4806-106.52284 400.29618-106.36525 399.11174-106.1125 397.21726-105.95493 396.03913-105.79733 394.861-105.54459 392.97685-105.38701 391.80503-105.22943 390.63319-104.97665 388.7589-104.81908 387.59339-104.6615 386.42787-104.40875 384.56388-104.25116 383.4047-104.09358 382.24555-103.84082 380.39179-103.68323 379.2389-103.52565 378.08607-103.2729 376.2422-103.11531 375.09565-102.95773 373.94908-102.70497 372.1155-102.54738 370.97529-102.3898 369.83503-102.13705 368.01136-101.97948 366.8774-101.82188 365.74348-101.56912 363.93009-101.41154 362.80247-101.25395 361.67488-101.0012 359.87178-100.84363 358.75047-100.68604 357.62919-100.43327 355.8359-100.2757 354.72093-100.1181 353.60594-99.86536 351.82298-99.70778 350.71434-99.55019 349.6057-99.29744 347.83299-99.13986 346.73066-98.98228 345.62834-98.7295 343.8655-98.57193 342.76948-98.41435 341.67347-98.1616 339.92094-98.00401 338.8312-97.84644 337.7415-97.59367 335.99888-97.43608 334.91545-97.2785 333.83204-97.02576 332.09968-96.86816 331.0226-96.71059 329.94554-96.45782 328.22346-96.30023 327.1527-96.14265 326.08195-95.88991 324.36976-95.73233 323.30528-95.57474 322.2408-95.32198 320.53895-95.1644 319.48078-95.0068 318.42259-94.75406 316.7306-94.59648 315.67878-94.43889 314.6269-94.18614 312.94517-94.02856 311.89967-93.87097 310.8542-93.61821 309.1827-93.46063 308.14353-93.30304 307.1043-93.0503 305.44276-92.89272 304.40986-92.73514 303.37696-92.48236 301.72563-92.32478 300.6991-92.1672 299.67256-91.91446 298.0315-91.75687 297.0113-91.59929 295.99107-91.34653 294.3599-91.18893 293.34596-91.03136 292.33204-90.77861 290.71119-90.62102 289.70356-90.46344 288.6959-90.21068 287.08497-90.05309 286.08363-89.89551 285.0823-89.64276 283.48167-89.48518 282.48667-89.32759 281.49165-89.07483 279.90089-88.91725 278.91218-88.75966 277.92347-88.50691 276.34294-88.34933 275.36058-88.19174 274.37825-87.939 272.80796-87.78142 271.83195-87.62383 270.85597-87.37106 269.29594-87.21349 268.32624-87.0559 267.3565-86.80315 265.80644-86.64557 264.843-86.48799 263.87953-86.23521 262.3394-86.07764 261.38227-85.92006 260.4251-85.66731 258.89527-85.50972 257.94447-85.35214 256.99369-85.09938 255.474-84.94179 254.52956-84.78421 253.58512-84.53146 252.07573-84.37387 251.1376-84.2163 250.19948-83.96353 248.70001-83.80594 247.76813-83.64836 246.83625-83.39561 245.34668-83.23804 244.42116-83.08044 243.49564-82.82768 242.01671-82.6701 241.09754-82.51251 240.17836-82.25977 238.70932-82.10219 237.79639-81.9446 236.88347-81.69185 235.42438-81.53427 234.51776-81.37668 233.61115-81.12392 232.16231-80.96634 231.26206-80.80875 230.36179-80.556 228.9232-80.39842 228.02925-80.24084 227.1353-79.98807 225.70662-79.83049 224.81897-79.67291 223.9313-79.42017 222.51288-79.26257 221.63158-79.105 220.75028-78.85223 219.34214-78.69464 218.46714-78.53706 217.59215-78.28432 216.19387-78.12672 215.32518-77.96915 214.4565-77.71638 213.06855-77.55879 212.20616-77.40121 211.34377-77.14847 209.96569-76.99089 209.1096-76.8333 208.25353-76.58054 206.88573-76.42296 206.036-76.26537 205.18627-76.01262 203.82872-75.85504 202.9853-75.69745 202.14189-75.4447 200.79424-75.28712 199.9571-75.12953 199.11998-74.87677 197.78266-74.7192 196.95185-74.5616 196.12102-74.30885 194.79358-74.15128 193.96906-73.9937 193.14453-73.74092 191.82735-73.58334 191.00919-73.42577 190.19103-73.17302 188.88413-73.01543 188.07225-72.85785 187.26039-72.60509 185.96338-72.4475 185.15782-72.28992 184.35227-72.03717 183.0655-71.87958 182.2663-71.722 181.4671-71.46924 180.19062-71.31165 179.39772-71.15407 178.60483-70.90132 177.33827-70.74374 176.55162-70.58615 175.76497-70.3334 174.50829-70.17583 173.728-70.01823 172.94773-69.76547 171.70169-69.6079 170.92775-69.4503 170.15383-69.19756 168.91768-69.03998 168.15-68.88239 167.38231-68.62962 166.15612-68.47205 165.39472-68.31445 164.63333-68.0617 163.4174-67.90413 162.66239-67.74655 161.90735-67.49377 160.70165-67.3362 159.95298-67.17862 159.2043-66.92587 158.00884-66.76828 157.26648-66.6107 156.52413-66.35794 155.3386-66.20035 154.60248-66.04277 153.86635-65.79002 152.69072-65.63243 151.96096-65.47485 151.2312-65.22209 150.06627-65.0645 149.34282-64.90692 148.61936-64.65417 147.46387-64.4966 146.7467-64.339 146.02956-64.08626 144.88478-63.92868 144.17398-63.77109 143.46318-63.51833 142.32823-63.36075 141.62374-63.20316 140.91925-62.95041 139.79462-62.79283 139.09642-62.63524 138.39823-62.38248 137.28348-62.2249 136.5916-62.0673 135.8997-61.81456 134.79529-61.65698 134.10968-61.4994 133.42409-61.24663 132.32956-61.08905 131.65029-60.93147 130.971-60.67873 129.88672-60.52113 129.21379-60.36356 128.54085-60.1108 127.46684-59.9532 126.80023-59.79562 126.1336-59.54288 125.06949-59.38528 124.40915-59.2277 123.74883-58.97495 122.69498-58.81735 122.04102-58.65977 121.38705-58.40703 120.34346-58.24945 119.6958-58.09186 119.04813-57.83911 118.01442-57.68153 117.37306-57.52394 116.73172-57.27118 115.70831-57.1136 115.07326-56.95601 114.43819-56.70326 113.4247-56.54568 112.79594-56.38809 112.16719-56.13533 111.16396-55.97775 110.54156-55.82016 109.91916-55.56741 108.92618-55.40984 108.31009-55.25226 107.694-54.99948 106.71092-54.8419 106.10112-54.68433 105.49132-54.43158 104.51857-54.27399 103.91507-54.11641 103.31158-53.86365 102.34865-53.70605 101.75151-53.54848 101.15439-53.29573 100.20215-53.13814 99.61133-52.98056 99.0205-52.7278 98.07777-52.5702 97.49318-52.41263 96.90858-52.15988 95.9762-52.0023 95.39796-51.84471 94.81975-51.59196 93.89755-51.43439 93.32568-51.2768 92.75381-51.02403 91.84187-50.86646 91.27632-50.70886 90.71075-50.45612 89.8087-50.29854 89.24944-50.14095 88.69017-49.88818 87.79846-49.7306 87.2455-49.57301 86.69254-49.32027 85.8107-49.16269 85.26404-49.00511 84.71738-48.75233 83.84581-48.59476 83.30551-48.43718 82.76521-48.18443 81.9039-48.02684 81.3699-47.86926 80.8359-47.6165 79.98447-47.45891 79.45679-47.30133 78.9291-47.04858 78.088-46.89099 77.5666-46.73341 77.0452-46.48067 76.21399-46.32307 75.6989-46.1655 75.1838-45.91273 74.36285-45.75516 73.85413-45.59756 73.34538-45.34482 72.5347-45.18724 72.03227-45.02965 71.52985-44.77689 70.72903-44.61931 70.23291-44.46172 69.73677-44.20897 68.9463-44.05139 68.45648-43.8938 67.96666-43.64104 67.18607-43.48346 66.70253-43.32587 66.21901-43.07312 65.44867-42.91554 64.97151-42.75797 64.49435-42.50519 63.73428-42.34761 63.26343-42.19003 62.79256-41.93729 62.04239-41.7797 61.57782-41.62212 61.11327-41.36935 60.37335-41.21176 59.91516-41.05418 59.45695-40.80144 58.72728-40.64384 58.27539-40.48627 57.8235-40.23352 57.10373-40.07593 56.65813-39.91835 56.21252-39.66559 55.5031-39.50801 55.06381-39.35042 54.62451-39.09767 53.92496-38.9401 53.49196-38.7825 53.05896-38.52974 52.36974-38.37216 51.94304-38.21457 51.51636-37.96182 50.83694-37.80424 50.41661-37.64665 49.99628-37.39389 49.32758-37.23631 48.91354-37.07872 48.49951-36.82597 47.84027-36.6684 47.43254-36.51082 47.02481-36.25804 46.37624-36.10046 45.97488-35.94289 45.57352-35.69014 44.93484-35.53255 44.53972-35.37497 44.14459-35.12221 43.51581-34.96461 43.12704-34.80704 42.73828-34.55429 42.12015-34.3967 41.73773-34.23912 41.35533-33.98637 40.74707-33.82878 40.37091-33.6712 39.99475-33.41844 39.39645-33.26086 39.02658-33.10327 38.65672-32.85052 38.06868-32.69295 37.70518-32.53535 37.34169-32.2826 36.76392-32.12502 36.40671-31.96742 36.04951-31.71468 35.48161-31.5571 35.13072-31.3995 34.77983-31.14674 34.22224-30.98917 33.87766-30.83157 33.53308-30.57883 32.98532-30.42125 32.6471-30.26367 32.30887-30.0109 31.7718-29.85332 31.43988-29.69574 31.10794-29.443 30.58035-29.2854 30.25473-29.12782 29.92911-28.87508 29.41219-28.71748 29.09291-28.5599 28.77364-28.30714 28.26665-28.14955 27.95361-27.99197 27.6406-27.73923 27.14354-27.58163 26.8368-27.42406 26.53008-27.1713 26.04327-27.01372 25.74292-26.85612 25.44255-26.60338 24.96596-26.4458 24.67195-26.28821 24.37794-26.03545 23.9116-25.87787 23.62392-25.72028 23.33621-25.46753 22.87982-25.30995 22.59837-25.15236 22.31693-24.8996 21.8704-24.74202 21.59532-24.58443 21.32022-24.33168 20.88441-24.1741 20.6156-24.01653 20.3468-23.76375 19.92047-23.60617 19.65797-23.4486 19.39548-23.19585 18.97983-23.03825 18.7237-22.88068 18.46756-22.62793 18.06172-22.47034 17.81189-22.31276 17.56206-22.06 17.16656-21.9024 16.92303-21.74483 16.67949-21.49208 16.29388-21.33449 16.05666-21.17691 15.81943-20.92415 15.44412-20.76657 15.21321-20.60898 14.98228-20.35623 14.61682-20.19865 14.39226-20.04106 14.1677-19.7883 13.81293-19.63072 13.59465-19.47313 13.37637-19.22038 13.03107-19.0628 12.8191-18.90521 12.60715-18.65245 12.27254-18.49487 12.06693-18.33728 11.86133-18.08453 11.53659-17.92696 11.33723-17.76938 11.13788-17.5166 10.82309-17.35902 10.63004-17.20145 10.43698-16.9487 10.13246-16.7911 9.94577-16.63353 9.75906-16.38078 9.46475-16.22319 9.28442-16.06561 9.10408-15.81285 8.82-15.65526 8.64598-15.49768 8.47195-15.24493 8.19785-15.08734 8.03006-14.92976 7.86227-14.677 7.59805-14.51942 7.43661-14.36183 7.27519-14.10909 7.02167-13.9515 6.86653-13.79391 6.7114-13.54115 6.46733-13.38358 6.3185-13.22598 6.16966-12.97324 5.93631-12.81566 5.79384-12.65807 5.65135-12.4053 5.42781-12.24773 5.29166-12.09013 5.15549-11.83739 4.94226-11.67981 4.81241-11.52223 4.68256-11.26945 4.4792-11.11188 4.35565-10.9543 4.23209-10.70155 4.03906-10.54396 3.92181-10.38638 3.80457-10.13364 3.62137-9.97604 3.51047-9.81847 3.39957-9.5657 3.22707-9.40811 3.12248-9.25053 3.01788-8.99779 2.85484-8.8402 2.75655-8.68262 2.65825-8.42986 2.50592-8.27228 2.41397-8.11469 2.32204-7.86194 2.1796-7.70436 2.0939-7.54677 2.00821-7.294 1.8757-7.13643 1.79633-6.97884 1.71693-6.72609 1.59468-6.56851 1.52165-6.41092 1.44862-6.15816 1.33658-6.00058 1.26991-5.84299 1.20326-5.59024 1.10147-5.43266 1.0411-5.27509 .98073-5.02232 .8889-4.86475 .83478-4.70717 .78065-4.4544 .69872-4.29681 .65096-4.13924 .6032-3.88649 .53194-3.7289 .49048-3.57132 .44904-3.31856 .38724-3.16096 .35207-3.00339 .31691-2.75064 .26581-2.59305 .23701-2.43547 .20824-2.18271 .16696-2.02513 .14445-1.86754 .12196-1.61479 .09102-1.45721 .07481-1.29962 .05861-1.04686 .03755-.88928 .02766-.73169 .01776-.47894 .00703-.32137 .00345-.16377-.00012 .08896-.00102 .24654 .00171 .40413 .00446 .65688 .01428 .81445 .02335 .97203 .03241 1.2248 .05168 1.38237 .06703 1.53995 .08238 1.79271 .11235 1.9503 .13408 2.10788 .15579 2.36063 .19566 2.51822 .22362 2.6758 .25157 2.92856 .30132 3.08615 .33563 3.24373 .36996 3.49648 .4304 3.65407 .47102 3.81165 .51164 4.0644 .58153 4.22198 .62846 4.37958 .67538 4.63232 .75598 4.7899 .80927 4.9475 .86255 5.20026 .95302 5.35783 1.01256 5.51543 1.07208 5.76817 1.17245 5.92575 1.23834 6.08334 1.30423 6.3361 1.41522 6.49368 1.48747 6.65128 1.55974 6.90402 1.68063 7.0616 1.75912 7.21918 1.8376 7.47194 1.96844 7.62952 2.05325 7.7871 2.13805 8.03986 2.27914 8.19745 2.3703 8.35503 2.46146 8.60777 2.61281 8.76537 2.71027 8.92294 2.80772 9.1757 2.96898 9.3333 3.07274 9.49088 3.1765 9.74362 3.348 9.90121 3.45813 10.05879 3.56825 10.31155 3.75003 10.46913 3.86646 10.62672 3.98286 10.87947 4.17453 11.03705 4.29726 11.19464 4.41998 11.4474 4.62196 11.60498 4.75098 11.76257 4.87999 12.01532 5.09187 12.1729 5.2272 12.33049 5.36253 12.58325 5.58473 12.74083 5.72635 12.89842 5.86797 13.15117 6.1 13.30875 6.24799 13.46632 6.39598 13.71909 6.63872 13.87666 6.793 14.03424 6.94728 14.287 7.19945 14.4446 7.36005 14.60217 7.52065 14.85492 7.78351 15.01251 7.95045 15.17009 8.1174 15.42285 8.39012 15.58044 8.56337 15.73802 8.73663 15.99077 9.01964 16.14836 9.1992 16.30594 9.37875 16.5587 9.67168 16.71628 9.85753 16.87387 10.0434 17.12662 10.34662 17.2842 10.53877 17.44179 10.73093 17.69455 11.04405 17.85213 11.24251 18.00972 11.44096 18.26247 11.76436 18.42004 11.96918 18.57764 12.174 18.83038 12.50763 18.98796 12.71877 19.14555 12.92989 19.39832 13.27344 19.5559 13.49084 19.71347 13.70827 19.96623 14.06207 20.12381 14.28586 20.28139 14.50964 20.53415 14.8737 20.69174 15.10378 20.84932 15.33386 21.10207 15.70781 21.25966 15.94421 21.41724 16.1806 21.67 16.56487 21.82759 16.80754 21.98517 17.05023 22.23792 17.44438 22.39551 17.69337 22.55309 17.94237 22.80585 18.3468 22.96342 18.60216 23.12102 18.8575 23.37376 19.27219 23.53134 19.53383 23.68893 19.79549 23.9417 20.22006 24.09927 20.48802 24.25687 20.75597 24.50961 21.19086 24.66719 21.4651 24.82478 21.73936 25.07753 22.18416 25.2351 22.46472 25.3927 22.74527 25.64546 23.2003 25.80304 23.48723 25.96062 23.77415 26.21338 24.23946 26.37096 24.53267 26.52853 24.82588 26.7813 25.30109 26.93889 25.60062 27.09647 25.90013 27.34921 26.38559 27.5068 26.69147 27.66438 26.99736 27.91714 27.49307 28.07474 27.80527 28.23232 28.11745 28.48506 28.62311 28.64265 28.94153 28.80023 29.25995 29.053 29.77551 29.21057 30.10031 29.36816 30.4251 29.62091 30.95128 29.77849 31.28242 29.93608 31.61357 30.18884 32.14966 30.34642 32.48705 30.50401 32.82443 30.75676 33.37048 30.91434 33.71416 31.07193 34.05785 31.32468 34.61414 31.48225 34.96419 31.63985 35.31425 31.89261 35.8808 32.05019 36.23715 32.20776 36.59349 32.46053 37.16994 32.6181 37.5326 32.77568 37.89526 33.02844 38.48196 33.18604 38.85097 33.34361 39.21999 33.59636 39.81696 33.75395 40.19228 33.91153 40.5676 34.16429 41.17445 34.32188 41.55608 34.47946 41.93768 34.73221 42.5548 34.8898 42.94278 35.04738 43.33076 35.30014 43.95816 35.45772 44.35243 35.61531 44.7467 35.86806 45.38403 36.02563 45.78456 36.18323 46.18509 36.43599 46.8323 36.59357 47.23918 36.75116 47.64606 37.0039 48.30397 37.16148 48.71716 37.31908 49.13036 37.57182 49.79773 37.7294 50.21722 37.887 50.6367 38.13976 51.31476 38.29733 51.74062 38.45491 52.16646 38.70767 52.85435 38.86525 53.2865 39.02283 53.71864 39.27559 54.41685 39.43318 54.85532 39.59076 55.29376 39.8435 56.00188 40.0011 56.44662 40.15868 56.89137 40.41144 57.60974 40.56903 58.06087 40.72661 58.51198 40.97935 59.2406 41.13695 59.69801 41.29453 60.15543 41.54729 60.894 41.70486 61.35765 41.86246 61.82132 42.1152 62.56978 42.27278 63.0398 42.43037 63.50981 42.68312 64.2689 42.8407 64.7453 42.99829 65.22168 43.25105 65.99068 43.40863 66.47328 43.56622 66.9559 43.81897 67.73477 43.97655 68.22377 44.13414 68.71275 44.3869 69.50227 44.54448 69.9976 44.70206 70.49295 44.95482 71.29234 45.1124 71.79393 45.26997 72.29552 45.52274 73.10486 45.68033 73.61276 45.8379 74.12065 46.09065 74.94026 46.24825 75.45451 46.40582 75.96877 46.65858 76.79865 46.81618 77.31918 46.97375 77.83974 47.2265 78.67949 47.3841 79.20634 47.54167 79.7332 47.79443 80.58328 47.95201 81.11642 48.1096 81.64958 48.36235 82.50955 48.51993 83.04901 48.67752 83.58847 48.93027 84.45871 49.08784 85.00452 49.24544 85.55032 49.4982 86.43077 49.65578 86.98294 49.81337 87.53513 50.06612 88.42589 50.2237 88.9843 50.38129 89.54271 50.63405 90.443 50.79163 91.00772 50.9492 91.57243 51.20197 92.4834 51.35954 93.05447 51.51712 93.62555 51.76988 94.54636 51.92747 95.12375 52.08505 95.70113 52.3378 96.63225 52.49539 97.21593 52.65297 97.7996 52.90573 98.74062 53.06332 99.3306 53.2209 99.9206 53.47365 100.87187 53.63124 101.46822 53.78882 102.06456 54.04158 103.02608 54.19916 103.62874 54.35675 104.23138 54.6095 105.2028 54.76707 105.81175 54.92467 106.4207 55.17741 107.40244 55.33499 108.0177 55.49258 108.63295 55.74535 109.62451 55.90292 110.24614 56.06052 110.86777 56.31326 111.87001 56.47084 112.49792 56.62843 113.12585 56.8812 114.13762 57.03877 114.77179 57.19635 115.40594 57.44911 116.42804 57.60669 117.06856 57.76427 117.70908 58.01703 118.74138 58.17462 119.38826 58.3322 120.03513 58.58495 121.0777 58.74254 121.73088 58.90012 122.38406 59.15288 123.43652 59.31047 124.09601 59.46805 124.75548 59.7208 125.81825 59.87839 126.48404 60.03596 127.14983 60.28873 128.22249 60.4463 128.89458 60.6039 129.56665 60.85664 130.64958 61.01422 131.32804 61.17181 132.00649 61.42456 133.09967 61.58214 133.78443 61.73973 134.46918 61.9925 135.57224 62.15007 136.26329 62.30766 136.95435 62.56041 138.06774 62.71799 138.76509 62.87558 139.46245 63.12834 140.58573 63.28592 141.28939 63.4435 141.99304 63.69626 143.12659 63.85384 143.8366 64.01141 144.5466 64.26418 145.69042 64.42177 146.40674 64.57935 147.12305 64.83209 148.27675 64.98969 148.99938 65.14726 149.722 65.40002 150.88602 65.55762 151.61493 65.7152 152.34386 65.96794 153.51775 66.12553 154.25298 66.28311 154.9882 66.53586 156.17238 66.69344 156.91396 66.85103 157.65555 67.10379 158.84996 67.26137 159.59786 67.41896 160.34575 67.6717 161.55007 67.82928 162.30425 67.98688 163.05844 68.23964 164.27301 68.39722 165.03356 68.55481 165.7941 68.80756 167.01895 68.96513 167.7858 69.12273 168.55265 69.37549 169.78745 69.53307 170.56053 69.69064 171.33364 69.9434 172.5783 70.10098 173.35774 70.25856 174.13719 70.51132 175.39252 70.66891 176.17833 70.82649 176.96416 71.07924 178.22936 71.23683 179.02141 71.39441 179.81346 71.64717 181.08861 71.80476 181.88697 71.96234 182.68534 72.21509 183.97075 72.37268 184.77547 72.53026 185.58019 72.783 186.8758 72.94058 187.68688 73.09818 188.49794 73.35094 189.80382 73.50851 190.6212 73.6661 191.43859 73.91885 192.75441 74.07643 193.57804 74.23402 194.40166 74.48679 195.72745 74.64436 196.55736 74.80196 197.38729 75.0547 198.72332 75.21228 199.5596 75.36987 200.39589 75.62263 201.74213 75.78021 202.58478 75.93779 203.42743 76.19055 204.7839 76.34813 205.63288 76.5057 206.48183 76.75847 207.84827 76.91606 208.70346 77.07364 209.55864 77.32639 210.93498 77.48398 211.79654 77.64156 212.6581 77.89432 214.04506 78.05191 214.91298 78.20949 215.78089 78.46223 217.17774 78.61983 218.0519 78.7774 218.92606 79.03015 220.33287 79.18773 221.21334 79.34532 222.09378 79.59808 223.51085 79.75566 224.39768 79.91325 225.2845 80.166 226.71183 80.32358 227.60494 80.48117 228.49806 80.73393 229.93527 80.89151 230.83469 81.0491 231.73412 81.30185 233.18161 81.45943 234.08739 81.61702 234.99317 81.86978 236.45092 82.02736 237.36299 82.18494 238.27509 82.4377 239.74272 82.59528 240.6611 82.75285 241.57949 83.00562 243.05744 83.16321 243.98212 83.32079 244.90682 83.57353 246.39467 83.73112 247.32566 83.8887 248.25664 84.14145 249.75473 84.29904 250.69208 84.45662 251.62943 84.70938 253.1378 84.86697 254.08145 85.02455 255.0251 85.2773 256.54335 85.43488 257.4933 85.59247 258.44328 85.84523 259.9718 86.0028 260.9281 86.1604 261.8844 86.41315 263.4232 86.57072 264.3858 86.72832 265.34843 86.98108 266.89717 87.13866 267.866 87.29625 268.83488 87.549 270.3935 87.70657 271.3687 87.86417 272.34394 88.11693 273.91325 88.2745 274.89476 88.43208 275.87629 88.68484 277.45503 88.84242 278.44288 89 279.4307 89.25276 281.02015 89.41035 282.01435 89.56793 283.0085 89.82068 284.6078 89.97827 285.60829 90.13585 286.6088 90.3886 288.21839 90.54619 289.22517 90.70377 290.23197 90.95653 291.85148 91.11412 292.86457 91.2717 293.87763 91.52444 295.5074 91.68202 296.52684 91.83961 297.5463 92.09238 299.1863 92.24995 300.21208 92.40755 301.23783 92.6603 302.88774 92.81787 303.91978 92.97546 304.95185 93.22823 306.61207 93.3858 307.6504 93.5434 308.68879 93.79614 310.3589 93.95372 311.40357 94.11131 312.4482 94.36407 314.1286 94.52165 315.1796 94.67923 316.23063 94.93199 317.9213 95.08957 318.97859 95.24715 320.0359 95.49991 321.73643 95.6575 322.80006 95.81508 323.86369 96.06783 325.57456 96.22542 326.64445 96.383 327.71437 96.63574 329.43513 96.79333 330.51136 96.95091 331.58757 97.20367 333.3186 97.36127 334.40119 97.51884 335.48377 97.77159 337.225 97.92917 338.3139 98.08676 339.4028 98.33952 341.15397 98.4971 342.2491 98.6547 343.3443 98.90744 345.10575 99.06502 346.20729 99.22261 347.3088 99.47537 349.08055 99.63295 350.1884 99.79054 351.29624 100.04329 353.0778 100.20087 354.19194 100.35846 355.3061 100.61122 357.098 100.7688 358.21846 100.92638 359.33888 101.17914 361.14067 101.33672 362.26744 101.4943 363.39418 101.74706 365.2062 101.90465 366.33934 102.06223 367.47245 102.31497 369.29475 102.47256 370.43418 102.63014 371.5736 102.88289 373.4058 103.04048 374.5515 103.19806 375.69725 103.45082 377.53974 103.60841 378.69175 103.76599 379.84379 104.01874 381.6962 104.17632 382.8545 104.33391 384.01283 104.58667 385.8755 104.74425 387.0402 104.90184 388.20487 105.15459 390.0778 105.31216 391.24876 105.46976 392.41975 105.72252 394.30259 105.8801 395.47987 106.03769 396.65715 106.29044 398.5503 106.44801 399.73387 106.6056 400.91746 106.85837 402.82048 107.01595 404.01039 107.17352 405.20027 107.42628 407.11357 107.58386 408.3098 107.74144 409.50605 107.99419 411.4296 108.15178 412.63215 108.30936 413.8347 108.56212 415.76814 108.71971 416.977 108.87729 418.18586 109.13004 420.12956 109.28763 421.34477 109.4452 422.55998 109.69797 424.51396 109.85556 425.73548 110.01314 426.95698 110.26588 428.9208 110.42346 430.14866 110.58105 431.37648 110.83382 433.35063 110.9914 434.58476 111.14899 435.81886 111.40173 437.80293 111.55931 439.04335 111.7169 440.28379 111.96967 442.27809 112.12724 443.52488 112.28484 444.77165 112.53758 446.77626 112.69516 448.02934 112.85275 449.2824 113.10551 451.29689 113.26309 452.55628 113.42067 453.81565 113.67343 455.84046 113.83101 457.10615 113.98859 458.37184 114.24133 460.40653 114.39893 461.6785 114.5565 462.95048 114.80927 464.99546 114.96686 466.2738 115.12444 467.55213 115.37718 469.60737 115.53477 470.89198 115.69235 472.17665 115.94511 474.24174 116.1027 475.53269 116.26028 476.82365 116.51303 478.89906 116.67061 480.19633 116.8282 481.49357 117.08096 483.57887 117.23854 484.88243 117.39613 486.186 117.64888 488.28157 117.80646 489.5915 117.96405 490.90138 118.21681 493.00724 118.37439 494.32344 118.53198 495.63966 118.78473 497.75538 118.9423 499.07789 119.0999 500.4004 119.35266 502.5264 119.51024 503.85527 119.66782 505.18418 119.92058 507.3204 120.07816 508.65559 120.23573 509.99076 120.48848 512.1369 120.64607 513.4784 120.80365 514.8198 121.05641 516.9763 121.214 518.3241 121.37158 519.6719 121.62433 521.83828 121.78192 523.1923 121.9395 524.5464 122.19226 526.723 122.34985 528.0835 122.50743 529.4439 122.76018 531.6308 122.91776 532.9975 123.07535 534.36428 123.32811 536.56106 123.48569 537.9341 123.64328 539.3071 123.89603 541.5142 124.0536 542.89358 124.2112 544.27297 124.46396 546.48989 124.62154 547.87557 124.77913 549.26119 125.03188 551.4884 125.18945 552.88046 125.34705 554.27249 125.59981 556.50997 125.75739 557.90829 125.91496 559.3066 126.16772 561.55398 126.3253 562.95858 126.48288 564.36318 126.73563 566.62088 126.89322 568.0318 127.0508 569.4427 127.30356 571.7103 127.46115 573.1275 127.61873 574.54476 127.87148 576.8226 128.02907 578.2462 128.18665 579.6698 128.4394 581.9579 128.597 583.38778 128.75458 584.8177 129.00733 587.11569 129.1649 588.5518 129.3225 589.988 129.57526 592.29629 129.73284 593.73886 129.89043 595.1814 130.14318 597.49996 130.30075 598.9487 130.45835 600.3976 130.7111 602.726 130.86869 604.18118 131.02628 605.6363 131.27902 607.97506 131.4366 609.4365 131.5942 610.89797 131.84694 613.2466 132.00452 614.71438 132.1621 616.18209 132.41487 618.54098 132.57245 620.0151 132.73003 621.4892 132.98278 623.85836 133.14037 625.33877 133.29795 626.81918 133.5507 629.1982 133.7083 630.68496 133.86588 632.17166 134.11862 634.561 134.27622 636.054 134.43379 637.54708 134.68656 639.9463 134.84415 641.4456 135.00173 642.94497 135.25447 645.35446 135.41205 646.8601 135.56964 648.3658 135.8224 650.7856 135.97998 652.29757 136.13758 653.8095 136.39032 656.2392 136.5479 657.7575 136.70549 659.27578 136.95825 661.71578 137.11583 663.24038 137.27342 664.7649 137.52617 667.2147 137.68375 668.74569 137.84134 670.2766 138.09409 672.7371 138.25167 674.27438 138.40924 675.81167 138.66202 678.2816 138.8196 679.82516 138.97718 681.36868 139.22992 683.84939 139.38751 685.39926 139.54509 686.94918 139.79785 689.4397 139.95545 690.99588 140.11302 692.552 140.36577 695.0525 140.52336 696.615 140.68094 698.1774 140.9337 700.6882 141.0913 702.257 141.24887 703.8258 141.6592 707.92196 141.6592 707.92196"/>
</g>
<use data-text="&#x2022;" xlink:href="#font_3_1" transform="matrix(9.963496,0,0,-9.963098,118.069,133.34001)"/>
<use data-text="(" xlink:href="#font_4_1" transform="matrix(9.963496,0,0,-9.963098,109.48923,142.11846)"/>
<use data-text="0" xlink:href="#font_4_3" transform="matrix(9.963496,0,0,-9.963098,113.35507,142.11846)"/>
<use data-text="," xlink:href="#font_1_1" transform="matrix(9.963496,0,0,-9.963098,118.34602,142.11846)"/>
<use data-text="0" xlink:href="#font_4_3" transform="matrix(9.963496,0,0,-9.963098,122.774417,142.11846)"/>
<use data-text=")" xlink:href="#font_4_2" transform="matrix(9.963496,0,0,-9.963098,127.75615,142.11846)"/>
</svg>
