<svg xmlns="http://www.w3.org/2000/svg" xmlns:xlink="http://www.w3.org/1999/xlink" version="1.1" width="250" height="252" viewBox="0 0 250 252">
<defs>
<path id="font_1_2" d="M.33399964 .30233766C.33999635 .32835389 .36299134 .42037965 .43299867 .42037965 .43798829 .42037965 .46199037 .42037965 .48298646 .40734864 .45498658 .402359 .43499757 .37734986 .43499757 .35334779 .43499757 .33735658 .44599916 .31835938 .47299195 .31835938 .49499513 .31835938 .5269928 .3363495 .5269928 .37635804 .5269928 .42837525 .46798707 .4423828 .43399049 .4423828 .37599183 .4423828 .34098817 .38935853 .32899476 .36634828 .3039856 .43237306 .25 .4423828 .22099304 .4423828 .116989139 .4423828 .05999756 .3133545 .05999756 .28834535 .05999756 .27833558 .069992069 .27833558 .07199097 .27833558 .07998657 .27833558 .08299255 .28033448 .084991458 .28933717 .11898804 .39535523 .18499756 .42037965 .21899414 .42037965 .23799134 .42037965 .272995 .4113617 .272995 .35334779 .272995 .32235719 .2559967 .25532533 .21899414 .11528015 .20298767 .053268434 .16799927 .011245728 .12399292 .011245728 .117996219 .011245728 .09498596 .011245728 .07398987 .024276734 .09899902 .029266358 .12098694 .05027771 .12098694 .07827759 .12098694 .105270389 .09899902 .11328125 .083999637 .11328125 .053985597 .11328125 .0289917 .08728027 .0289917 .055267335 .0289917 .009246826 .07899475-.0107421879 .12298584-.0107421879 .18899536-.0107421879 .22499085 .059280397 .22799683 .0652771 .23999024 .028274537 .27598573-.0107421879 .33599855-.0107421879 .43899537-.0107421879 .49598695 .118270877 .49598695 .14328003 .49598695 .1532898 .4869995 .1532898 .48399354 .1532898 .47499085 .1532898 .47299195 .14929199 .47099305 .14228821 .43798829 .03527832 .36999513 .011245728 .33799745 .011245728 .29899598 .011245728 .2829895 .043273927 .2829895 .07727051 .2829895 .09927368 .2889862 .121276859 .2999878 .16529846L.33399964 .30233766Z"/>
<path id="font_1_3" d="M.48599244 .38136292C.48999024 .39537049 .48999024 .39736939 .48999024 .40437318 .48999024 .42237855 .47599793 .43138124 .46099855 .43138124 .45098878 .43138124 .43499757 .42536927 .42599488 .41036988 .42399598 .405365 .41600038 .37435914 .4119873 .35635377 .40499879 .33035279 .397995 .30334474 .3919983 .27633668L.34700013 .09628296C.34298707 .08126831 .2999878 .011245728 .23399353 .011245728 .18299866 .011245728 .17199707 .055267335 .17199707 .0922699 .17199707 .1382904 .18899536 .20030213 .22299195 .28833009 .23899842 .3293457 .24299622 .3403473 .24299622 .36035157 .24299622 .405365 .21099854 .4423828 .16099549 .4423828 .06599426 .4423828 .0289917 .29733277 .0289917 .28833009 .0289917 .27833558 .038986207 .27833558 .040985109 .27833558 .050994874 .27833558 .051986696 .28033448 .056991579 .29634095 .083999637 .3903656 .12399292 .42037965 .1579895 .42037965 .1659851 .42037965 .18299866 .42037965 .18299866 .3883667 .18299866 .36335755 .17298889 .3373413 .1659851 .31834413 .12599182 .21231079 .10798645 .1552887 .10798645 .10827637 .10798645 .019256592 .17098999-.0107421879 .22999573-.0107421879 .2689972-.0107421879 .30299378 .0062561037 .33099366 .03425598 .31799317-.017745972 .30599977-.06674194 .2659912-.11973572 .23999024-.15385437 .20199585-.18309021 .1559906-.18309021 .14199829-.18309021 .09700012-.18005371 .07998657-.14074707 .09599304-.14074707 .10899353-.14074707 .12298584-.1287384 .1329956-.11973572 .14299011-.10673523 .14299011-.08773804 .14299011-.056747438 .115997318-.052734376 .10598755-.052734376 .08299255-.052734376 .049987794-.068740848 .049987794-.11773682 .049987794-.16796875 .09399414-.20507813 .1559906-.20507813 .25898744-.20507813 .3619995-.11373901 .3899994-.00074768069L.48599244 .38136292Z"/>
<clipPath id="clip_2">
<path transform="matrix(1.00009,0,0,-1.00003,120.56023,131.12454)" d="M-113.38724-113.38724V113.38724H113.38724V-113.38724ZM113.38724 113.38724"/>
</clipPath>
<path id="font_3_1" d="M.44400025 .24998474C.44400025 .35688783 .35499574 .44381715 .25 .44381715 .14199829 .44381715 .054992677 .35488893 .054992677 .24998474 .054992677 .14407349 .14199829 .056137086 .25 .056137086 .35499574 .056137086 .44400025 .14308167 .44400025 .24998474Z"/>
<path id="font_4_1" d="M.33099366-.2400055C.33099366-.23701477 .33099366-.23500061 .31399537-.21800232 .18899536-.0920105 .15699768 .09700012 .15699768 .25 .15699768 .42399598 .19499207 .59799197 .31799317 .72299197 .33099366 .73498538 .33099366 .7369995 .33099366 .73999026 .33099366 .746994 .32699586 .75 .32099916 .75 .31098939 .75 .22099304 .6819916 .1619873 .5549927 .11099243 .44499208 .09899902 .33399964 .09899902 .25 .09899902 .17199707 .10998535 .050994874 .16499329-.06201172 .22499085-.18501282 .31098939-.25 .32099916-.25 .32699586-.25 .33099366-.24700928 .33099366-.2400055Z"/>
<path id="font_4_3" d="M.45999146 .31976319C.45999146 .39982606 .45498658 .47988893 .41999818 .5539398 .37399293 .65000918 .2919922 .6660156 .25 .6660156 .18998719 .6660156 .116989139 .64001467 .07598877 .54693606 .04399109 .47789 .038986207 .39982606 .038986207 .31976319 .038986207 .24472046 .042999269 .15464783 .083999637 .07859802 .1269989-.0024719239 .19999695-.022460938 .24899292-.022460938 .30299378-.022460938 .3789978-.0014648438 .4229889 .09359741 .45498658 .16265869 .45999146 .2407074 .45999146 .31976319M.24899292-.00047302247C.20999146-.00047302247 .15098572 .024551392 .1329956 .12062073 .12199402 .18066406 .12199402 .2727356 .12199402 .3317871 .12199402 .39582826 .12199402 .46188355 .12998963 .5159149 .14898682 .63500979 .22399903 .64401248 .24899292 .64401248 .28199769 .64401248 .34799195 .6259918 .36698915 .52693179 .3769989 .47088624 .3769989 .39482118 .3769989 .3317871 .3769989 .25672914 .3769989 .18867493 .3659973 .12461853 .35099793 .029556275 .2939911-.00047302247 .24899292-.00047302247Z"/>
<path id="font_1_1" d="M.20298767 .0009918213C.20298767 .066986087 .17799378 .10598755 .13899231 .10598755 .10598755 .10598755 .085998538 .08099365 .085998538 .052993776 .085998538 .025985718 .10598755 0 .13899231 0 .15098572 0 .1639862 .0039978029 .17399597 .0129852299 .1769867 .01499939 .17799378 .015991211 .1789856 .015991211 .17999268 .015991211 .18099976 .01499939 .18099976 .0009918213 .18099976-.07316589 .1459961-.13328552 .11299133-.16635132 .101989749-.17736817 .101989749-.17936707 .101989749-.18237305 .101989749-.18936157 .10699463-.19335938 .11199951-.19335938 .12298584-.19335938 .20298767-.116256717 .20298767 .0009918213Z"/>
<path id="font_4_2" d="M.2889862 .25C.2889862 .32798768 .27799989 .44898988 .22299195 .56199648 .16299439 .68499758 .07699585 .75 .066986087 .75 .06098938 .75 .056991579 .74598696 .056991579 .73999026 .056991579 .7369995 .056991579 .73498538 .07598877 .71699526 .17399597 .6179962 .23098755 .45899964 .23098755 .25 .23098755 .07899475 .19400025-.09700012 .069992069-.2230072 .056991579-.23500061 .056991579-.23701477 .056991579-.2400055 .056991579-.2460022 .06098938-.25 .066986087-.25 .07699585-.25 .16699219-.18200684 .22599793-.055007936 .2769928 .054992677 .2889862 .16600037 .2889862 .25Z"/>
</defs>
<path transform="matrix(1.00009,0,0,-1.00003,120.56023,131.12454)" stroke-width=".19925" stroke-linecap="butt" stroke-miterlimit="10" stroke-linejoin="miter" fill="none" stroke="#929292" d="M-113.38724-113.38724H113.38724M-113.38724-85.04042H113.38724M-113.38724-56.69362H113.38724M-113.38724-28.3468H113.38724M-113.38724 0H113.38724M-113.38724 28.3468H113.38724M-113.38724 56.69362H113.38724M-113.38724 85.04042H113.38724M-113.38724 113.37727H113.38724M-113.38724-113.38724V113.38724M-85.04042-113.38724V113.38724M-56.69362-113.38724V113.38724M-28.3468-113.38724V113.38724M0-113.38724V113.38724M28.3468-113.38724V113.38724M56.69362-113.38724V113.38724M85.04042-113.38724V113.38724M113.37727-113.38724V113.38724M113.38724 113.38724"/>
<path transform="matrix(1.00009,0,0,-1.00003,120.56023,131.12454)" stroke-width="1.19553" stroke-linecap="butt" stroke-miterlimit="10" stroke-linejoin="miter" fill="none" stroke="#000000" d="M-119.0565 0H118.10008"/>
<path transform="matrix(1.00009,0,0,-1.00003,238.67093,131.12454)" stroke-width=".9564" stroke-linecap="round" stroke-linejoin="round" fill="none" stroke="#000000" d="M-1.91284 2.55046C-1.75343 1.59402 0 .15938 .4782 0 0-.15938-1.75343-1.59402-1.91284-2.55046"/>
<use data-text="x" xlink:href="#font_1_2" transform="matrix(9.963496,0,0,-9.962899,243.5463,133.2696)"/>
<path transform="matrix(1.00009,0,0,-1.00003,120.56023,131.12454)" stroke-width="1.19553" stroke-linecap="butt" stroke-miterlimit="10" stroke-linejoin="miter" fill="none" stroke="#000000" d="M0-119.0565V118.10008"/>
<path transform="matrix(0,-1.00003,-1.00009,-0,120.56023,13.020912)" stroke-width=".9564" stroke-linecap="round" stroke-linejoin="round" fill="none" stroke="#000000" d="M-1.91284 2.55046C-1.75343 1.59402 0 .15938 .4782 0 0-.15938-1.75343-1.59402-1.91284-2.55046"/>
<use data-text="y" xlink:href="#font_1_3" transform="matrix(9.963496,0,0,-9.962899,117.93899,6.208786)"/>
<g clip-path="url(#clip_2)">
<path transform="matrix(1.00009,0,0,-1.00003,120.56023,131.12454)" stroke-width=".79701" stroke-linecap="butt" stroke-miterlimit="10" stroke-linejoin="miter" fill="none" stroke="#0000ff" d="M-113.38724-1814.1958C-113.38724-1814.1958-113.05908-1798.4827-112.93306-1792.4816-112.80704-1786.4805-112.60492-1776.8966-112.4789-1770.9437-112.35287-1764.991-112.15074-1755.4826-112.02472-1749.5776-111.8987-1743.6727-111.6966-1734.2427-111.57057-1728.3855-111.44453-1722.5283-111.24243-1713.173-111.11641-1707.3633-110.99039-1701.5536-110.78825-1692.2753-110.66223-1686.5132-110.53621-1680.7512-110.33409-1671.5493-110.20807-1665.8345-110.08205-1660.1195-109.87993-1650.992-109.75389-1645.3239-109.62787-1639.6559-109.42577-1630.604-109.29974-1624.9829-109.17372-1619.3619-108.9716-1610.3856-108.84558-1604.8112-108.71956-1599.2366-108.51743-1590.3339-108.3914-1584.8058-108.26538-1579.2777-108.06328-1570.45-107.93724-1564.9683-107.81122-1559.4866-107.60912-1550.7332-107.4831-1545.2974-107.35706-1539.8616-107.15494-1531.1808-107.02892-1525.7908-106.9029-1520.4008-106.70078-1511.7942-106.57475-1506.4498-106.44873-1501.1054-106.2466-1492.5709-106.12057-1487.272-105.99455-1481.9729-105.79245-1473.5116-105.66643-1468.258-105.54039-1463.0044-105.33829-1454.616-105.21227-1449.4076-105.08624-1444.1991-104.88411-1435.8829-104.75809-1430.7194-104.63206-1425.5557-104.42995-1417.3107-104.30392-1412.1915-104.1779-1407.0724-103.9758-1398.8983-103.84976-1393.8239-103.72374-1388.7493-103.52162-1380.6481-103.3956-1375.6179-103.26958-1370.5877-103.06746-1362.5562-102.94144-1357.5698-102.81541-1352.5834-102.61328-1344.6218-102.48726-1339.6796-102.36124-1334.7373-102.15913-1326.8478-102.0331-1321.9494-101.90707-1317.051-101.70497-1309.2306-101.57895-1304.3754-101.45291-1299.5203-101.2508-1291.7683-101.12477-1286.9567-100.99875-1282.1449-100.79663-1274.4645-100.67061-1269.6958-100.54459-1264.9271-100.34245-1257.3134-100.21643-1252.5877-100.09041-1247.8619-99.8883-1240.319-99.76228-1235.636-99.63625-1230.9531-99.43414-1223.4772-99.30812-1218.8367-99.1821-1214.1963-98.97997-1206.7888-98.85394-1202.1909-98.72792-1197.593-98.5258-1190.254-98.39978-1185.6983-98.27376-1181.1425-98.07166-1173.8698-97.94562-1169.3556-97.8196-1164.8414-97.61748-1157.6354-97.49146-1153.1631-97.36543-1148.6909-97.16331-1141.5534-97.0373-1137.1229-96.91127-1132.6925-96.70914-1125.6206-96.58311-1121.2315-96.45709-1116.8423-96.25499-1109.8368-96.12895-1105.4888-96.00293-1101.1408-95.80083-1094.2008-95.6748-1089.8937-95.54877-1085.5866-95.34665-1078.7123-95.22063-1074.4459-95.0946-1070.1797-94.89249-1063.3711-94.76646-1059.1454-94.64044-1054.9197-94.43832-1048.1754-94.3123-1043.9901-94.18628-1039.8048-93.98416-1033.1257-93.85814-1028.9806-93.7321-1024.8355-93.53-1018.2197-93.40398-1014.11477-93.27795-1010.0097-93.07582-1003.4596-92.9498-999.3946-92.82378-995.3296-92.62166-988.8424-92.49564-984.8168-92.36961-980.7911-92.16751-974.3667-92.04147-970.3804-91.91545-966.39407-91.71333-960.03317-91.58731-956.0863-91.46129-952.1394-91.25917-945.84176-91.13315-941.9341-91.00713-938.0264-90.805-931.7914-90.67897-927.9224-90.55295-924.05349-90.35085-917.87979-90.22481-914.0492-90.09879-910.2187-89.89668-904.1063-89.77066-900.3144-89.64462-896.5225-89.4425-890.47329-89.31648-886.7197-89.19046-882.96627-88.98834-876.97726-88.86232-873.2618-88.7363-869.5462-88.53418-863.6185-88.40816-859.9409-88.28214-856.26327-88.08002-850.3958-87.954-846.75588-87.82796-843.1158-87.62585-837.3088-87.49983-833.7062-87.37381-830.1035-87.17168-824.35568-87.04565-820.7906-86.91963-817.2254-86.71751-811.5391-86.59149-808.0112-86.46547-804.48336-86.26337-798.8551-86.13733-795.36386-86.0113-791.87258-85.80919-786.3029-85.68317-782.8483-85.55714-779.3938-85.35503-773.88357-85.229-770.46566-85.10298-767.0477-84.90086-761.5959-84.77484-758.2144-84.64882-754.83297-84.4467-749.4397-84.32066-746.0943-84.19464-742.7489-83.99254-737.41256-83.86652-734.103-83.74048-730.7935-83.53836-725.5153-83.41234-722.2416-83.28632-718.9677-83.0842-713.7459-82.95818-710.5077-82.83215-707.2694-82.63004-702.10507-82.50401-698.9022-82.37799-695.6994-82.17587-690.5917-82.04985-687.42398-81.92381-684.2563-81.72171-679.20437-81.59569-676.0716-81.46967-672.9388-81.26753-667.94296-81.14151-664.84506-81.01549-661.74716-80.81337-656.8073-80.68735-653.74398-80.56133-650.6806-80.35922-645.7956-80.23318-642.76657-80.10716-639.73757-79.90504-634.90768-79.77902-631.9129-79.653-628.91818-79.45088-624.14328-79.32486-621.1825-79.19884-618.22177-78.99672-613.5006-78.8707-610.57369-78.74467-607.64669-78.54254-602.98007-78.41652-600.08676-78.2905-597.1935-78.0884-592.5809-77.96237-589.721-77.83633-586.8611-77.63422-582.3013-77.5082-579.4746-77.38217-576.6479-77.18005-572.1418-77.05403-569.348-76.92801-566.55429-76.72589-562.10006-76.59987-559.3391-76.47385-556.5782-76.27173-552.1773-76.1457-549.4491-76.01967-546.72097-75.81757-542.37216-75.69154-539.67636-75.56552-536.9805-75.3634-532.68307-75.23738-530.0195-75.11136-527.3559-74.90923-523.1104-74.7832-520.479-74.65718-517.8476-74.45508-513.6536-74.32904-511.054-74.20302-508.45439-74.0009-504.31077-73.87488-501.74278-73.74886-499.1748-73.54674-495.08207-73.42072-492.5457-73.2947-490.00935-73.09258-485.96754-72.96655-483.4624-72.84053-480.95726-72.6384-476.9644-72.51237-474.49028-72.38635-472.01615-72.18425-468.0737-72.05823-465.6306-71.93219-463.1875-71.73007-459.29454-71.60405-456.88209-71.47803-454.46965-71.27591-450.62544-71.14989-448.2434-71.02386-445.86143-70.82175-442.06596-70.69572-439.7142-70.5697-437.36244-70.36758-433.615-70.24156-431.29356-70.11552-428.9721-69.91342-425.2744-69.7874-422.98277-69.66138-420.69117-69.45926-417.0391-69.33324-414.7771-69.20721-412.5151-69.00508-408.91227-68.87906-406.68-68.75304-404.44773-68.55093-400.8914-68.4249-398.68843-68.29887-396.48545-68.09676-392.97627-67.97073-390.80238-67.84471-388.6285-67.6426-385.16554-67.51657-383.02058-67.39055-380.87565-67.18843-377.4591-67.06241-375.34306-66.93639-373.22697-66.73425-369.85688-66.60823-367.7693-66.48221-365.68177-66.2801-362.3565-66.15408-360.2972-66.02805-358.2379-65.82594-354.9582-65.69992-352.9272-65.5739-350.8962-65.37177-347.6623-65.24574-345.65928-65.11972-343.65626-64.9176-340.4661-64.79158-338.4908-64.66556-336.51554-64.46344-333.37046-64.33742-331.4227-64.21138-329.47496-64.00928-326.37306-63.88326-324.4528-63.75723-322.53254-63.55511-319.47587-63.4291-317.5828-63.30307-315.6897-63.10094-312.67494-62.97491-310.8088-62.84889-308.9427-62.64679-305.9722-62.52075-304.13304-62.39473-302.29386-62.19261-299.36585-62.06659-297.55326-61.94057-295.74067-61.73845-292.85533-61.61243-291.0691-61.4864-289.28285-61.28429-286.4392-61.15826-284.67918-61.03224-282.91917-60.83011-280.11787-60.70409-278.38404-60.57806-276.65019-60.37596-273.89079-60.24994-272.18275-60.1239-270.4747-59.9218-267.75605-59.79578-266.07356-59.66975-264.39109-59.46762-261.71345-59.3416-260.05653-59.21558-258.3996-59.01346-255.76328-58.88744-254.13164-58.76141-252.49999-58.5593-249.9033-58.43326-248.29669-58.30724-246.69007-58.10513-244.1338-57.97911-242.55216-57.85309-240.97049-57.65097-238.4542-57.52495-236.89716-57.39893-235.3401-57.1968-232.8626-57.07077-231.32996-56.94475-229.79732-56.74265-227.3592-56.61661-225.851-56.49059-224.34279-56.28848-221.94399-56.16246-220.45984-56.03644-218.97571-55.8343-216.6146-55.70828-215.15435-55.58226-213.69408-55.38014-211.37187-55.25412-209.93534-55.1281-208.4988-54.92596-206.21375-54.79994-204.80066-54.67392-203.38758-54.47182-201.14046-54.3458-199.75078-54.21976-198.36112-54.01765-196.15145-53.89163-194.7848-53.76561-193.41819-53.56348-191.24474-53.43745-189.90103-53.31143-188.55735-53.10931-186.42115-52.98329-185.1003-52.85727-183.77947-52.65515-181.6797-52.52911-180.3813-52.40309-179.0829-52.20099-177.0184-52.07497-175.74233-51.94894-174.46627-51.74683-172.43804-51.6208-171.18424-51.49478-169.93045-51.29265-167.93759-51.16663-166.70575-51.0406-165.47393-50.8385-163.51607-50.71246-162.30597-50.58644-161.09586-50.38434-159.17256-50.25832-157.98406-50.1323-156.79555-49.93016-154.90708-49.80414-153.73999-49.67812-152.5729-49.476-150.71845-49.34998-149.57248-49.22395-148.42653-49.02182-146.60569-48.8958-145.48069-48.76978-144.35567-48.56767-142.56832-48.44165-141.46413-48.31561-140.35996-48.11351-138.60594-47.98749-137.52242-47.86147-136.43888-47.65933-134.71775-47.53331-133.65467-47.40729-132.59159-47.20517-130.90329-47.07915-129.86043-46.95313-128.81758-46.75102-127.16142-46.62498-126.13844-46.49896-125.11545-46.29684-123.49051-46.17082-122.4874-46.0448-121.48428-45.84268-119.89197-45.71666-118.90857-45.59064-117.92519-45.3885-116.36377-45.26248-115.39983-45.13646-114.43588-44.93436-112.90588-44.80832-111.96115-44.6823-111.01642-44.4802-109.51653-44.35417-108.5908-44.22815-107.6651-44.02602-106.1961-43.9-105.28925-43.77397-104.38239-43.57185-102.94287-43.44583-102.05473-43.31981-101.16661-43.11768-99.75772-42.99165-98.88812-42.86563-98.01852-42.66353-96.63872-42.5375-95.78725-42.41147-94.93579-42.20937-93.58469-42.08334-92.75128-41.95732-91.91788-41.75519-90.59605-41.62917-89.7806-41.50314-88.96513-41.30103-87.67165-41.175-86.87395-41.04898-86.07625-40.84688-84.81148-40.72084-84.0313-40.59482-83.25111-40.3927-82.01395-40.26668-81.25095-40.14066-80.48795-39.93854-79.27785-39.81252-78.53201-39.6865-77.78618-39.48436-76.60422-39.35834-75.87537-39.23232-75.1465-39.03021-73.99101-38.90417-73.27884-38.77815-72.56665-38.57605-71.43811-38.45003-70.74245-38.32399-70.04677-38.12187-68.9442-37.99585-68.26486-37.86983-67.58551-37.66771-66.50926-37.54169-65.84612-37.41566-65.18297-37.21355-64.13255-37.08752-63.4853-36.9615-62.83807-36.75938-61.81265-36.63336-61.1812-36.50732-60.54973-36.30522-59.55006-36.1792-58.93416-36.05318-58.31825-35.85104-57.3426-35.72502-56.74205-35.599-56.1415-35.39688-55.19106-35.27086-54.60574-35.14484-54.02043-34.94273-53.09393-34.8167-52.52351-34.69067-51.9531-34.48856-51.05014-34.36253-50.49448-34.23651-49.93881-34.0344-49.05966-33.90837-48.51865-33.78235-47.97762-33.58022-47.12181-33.4542-46.59514-33.32817-46.06847-33.12607-45.23506-33.00003-44.72267-32.87401-44.2103-32.6719-43.40054-32.54588-42.90213-32.41985-42.40372-32.21773-41.61511-32.0917-41.13045-31.96568-40.64578-31.76357-39.87987-31.63754-39.40895-31.51152-38.93802-31.3094-38.19392-31.18338-37.73633-31.05736-37.27873-30.85524-36.55519-30.72922-36.11086-30.60318-35.6665-30.40108-34.96507-30.27505-34.53383-30.14903-34.10257-29.9469-33.42116-29.82088-33.00264-29.69485-32.5841-29.49274-31.9231-29.36671-31.5173-29.24069-31.1115-29.03859-30.47107-28.91255-30.0778-28.78653-29.68454-28.58441-29.06395-28.45839-28.68288-28.33237-28.30179-28.13025-27.70026-28.00423-27.33119-27.8782-26.96211-27.67609-26.37997-27.55006-26.02277-27.42404-25.66557-27.22192-25.10223-27.09589-24.75673-26.96986-24.41124-26.76776-23.86661-26.64174-23.53264-26.5157-23.19867-26.31358-22.67235-26.18756-22.34966-26.06154-22.02696-25.85942-21.51852-25.7334-21.2069-25.60738-20.89525-25.40526-20.4042-25.27924-20.10349-25.15321-19.80276-24.9511-19.3294-24.82507-19.03944-24.69904-18.74947-24.49693-18.29292-24.37091-18.01346-24.24489-17.73398-24.04277-17.29427-23.91675-17.02512-23.79073-16.75597-23.5886-16.3326-23.46257-16.07353-23.33655-15.81445-23.13445-15.40695-23.0084-15.15784-22.88239-14.90872-22.68027-14.51746-22.55424-14.27808-22.42822-14.03868-22.2261-13.66228-22.10008-13.43245-21.97406-13.2026-21.77194-12.84193-21.64592-12.62144-21.5199-12.40096-21.31778-12.05467-21.19174-11.8433-21.06572-11.63194-20.86362-11.3004-20.7376-11.09804-20.61156-10.89569-20.40944-10.57838-20.28342-10.38478-20.1574-10.1912-19.95528-9.88768-19.82925-9.70267-19.70323-9.51767-19.50111-9.22789-19.37509-9.05128-19.24907-8.87466-19.04695-8.59818-18.92093-8.42972-18.79489-8.26126-18.59279-7.99768-18.46677-7.83714-18.34074-7.6766-18.13863-7.42542-18.0126-7.27267-17.88658-7.11995-17.68445-6.88144-17.55843-6.73634-17.4324-6.59123-17.2303-6.36447-17.10426-6.22679-16.97824-6.08913-16.77612-5.87456-16.6501-5.7441-16.52408-5.61363-16.32196-5.40991-16.19594-5.28647-16.06992-5.16302-15.8678-4.97096-15.74178-4.85437-15.61575-4.73776-15.41364-4.55605-15.2876-4.44604-15.16158-4.33604-14.95947-4.16508-14.83345-4.06152-14.70741-3.95795-14.50531-3.79683-14.37929-3.69948-14.25327-3.60214-14.05113-3.45114-13.92511-3.35994-13.79909-3.26872-13.59697-3.12743-13.47095-3.04202-13.34492-2.95663-13.1428-2.82419-13.01678-2.74443-12.89075-2.66469-12.68864-2.54147-12.56262-2.46718-12.4366-2.39288-12.23448-2.27797-12.10846-2.20895-11.98244-2.13995-11.7803-2.03366-11.65428-1.96976-11.52826-1.90585-11.32616-1.80734-11.20012-1.74829-11.0741-1.68925-10.87198-1.59851-10.74596-1.54414-10.61993-1.48979-10.41782-1.40628-10.2918-1.35641-10.16577-1.30656-9.96365-1.23026-9.83763-1.18471-9.71161-1.13918-9.50949-1.0696-9.38345-1.02814-9.25743-.98668-9.05533-.92339-8.9293-.88583-8.80327-.84827-8.60117-.7912-8.47514-.75735-8.34912-.72351-8.14699-.67216-8.02097-.64186-7.89494-.61157-7.69283-.56587-7.5668-.53894-7.44078-.512-7.23866-.47148-7.11264-.44766-6.9866-.42384-6.7845-.38808-6.65848-.36722-6.53246-.34634-6.33034-.31532-6.20432-.29715-6.0783-.27896-5.87616-.25175-5.75014-.23616-5.62411-.22055-5.42201-.19788-5.29597-.18468-5.16995-.17148-4.96785-.15202-4.84183-.14099-4.7158-.12996-4.51367-.11423-4.38765-.1051-4.26163-.09598-4.05951-.08255-3.93349-.07524-3.80746-.06793-3.60535-.05801-3.47931-.05232-3.35329-.04662-3.15118-.03853-3.02516-.03415-2.89912-.02977-2.69702-.02386-2.571-.02074-2.44498-.01762-2.24284-.01376-2.11682-.01167-1.9908-.00957-1.78868-.00691-1.66266-.0056-1.53664-.00429-1.33452-.00287-1.2085-.00215-1.08246-.00143-.88036-.0007-.75433-.00041-.62831-.00012-.4262-.00003-.30017 0-.17415 .00003 .02795 0 .15398 0 .28 0 .4821-.00015 .60814 0 .73416 .00015 .93626 .00069 1.06229 .00128 1.18831 .00188 1.39044 .00323 1.51646 .0043 1.64249 .00539 1.8446 .00728 1.97063 .00906 2.09665 .01086 2.29878 .01448 2.4248 .01729 2.55083 .02011 2.75293 .02544 2.87895 .02939 3.00499 .03334 3.20709 .04056 3.33311 .04582 3.45914 .0511 3.66127 .06068 3.7873 .06746 3.91331 .07423 4.11543 .08626 4.24146 .09471 4.36748 .10316 4.56958 .11809 4.6956 .12845 4.82164 .13882 5.02376 .157 5.14978 .16954 5.2758 .18208 5.47792 .20404 5.60394 .21886 5.72997 .23367 5.9321 .25911 6.05812 .27638 6.18414 .29366 6.38625 .32344 6.51228 .34341 6.6383 .36339 6.84041 .39755 6.96643 .42043 7.09245 .44328 7.29459 .48228 7.42061 .50821 7.54663 .53413 7.74875 .57805 7.87477 .60727 8.0008 .63649 8.20293 .68616 8.32895 .71886 8.45497 .75156 8.65707 .8067 8.7831 .843 8.90913 .8793 9.11124 .9404 9.23726 .98055 9.36328 1.0207 9.56541 1.08815 9.69144 1.13237 9.81746 1.17659 10.01958 1.25085 10.1456 1.29933 10.27162 1.34781 10.47372 1.42902 10.59975 1.48187 10.72578 1.53473 10.9279 1.62291 11.05392 1.68039 11.17995 1.73787 11.38206 1.83388 11.50809 1.89622 11.63411 1.95857 11.83624 2.06241 11.96227 2.1298 12.08829 2.19719 12.29039 2.30937 12.41643 2.38197 12.54245 2.45457 12.74455 2.57523 12.87057 2.65318 12.9966 2.73114 13.19873 2.8603 13.32475 2.94385 13.45078 3.02737 13.6529 3.16591 13.77892 3.25526 13.90494 3.34462 14.10706 3.49254 14.23308 3.58789 14.3591 3.68323 14.56122 3.84103 14.68724 3.94257 14.81328 4.0441 15.01538 4.21184 15.1414 4.31975 15.26743 4.42764 15.46956 4.60576 15.59558 4.72026 15.7216 4.83476 15.92372 5.0238 16.04974 5.14502 16.17577 5.26625 16.37787 5.46582 16.50389 5.594 16.62993 5.72218 16.83205 5.9336 16.95807 6.06892 17.08409 6.20425 17.28621 6.42674 17.41223 6.56938 17.53825 6.71202 17.74039 6.94685 17.86641 7.09706 17.99243 7.24728 18.19453 7.49406 18.32057 7.65201 18.4466 7.80997 18.6487 8.06958 18.77472 8.23552 18.90074 8.40144 19.10287 8.67401 19.2289 8.84799 19.35492 9.02196 19.55704 9.30717 19.68306 9.48943 19.80908 9.67169 20.0112 9.97078 20.13722 10.1616 20.26324 10.35243 20.46536 10.66536 20.59138 10.86491 20.71742 11.06445 20.91953 11.39137 21.04555 11.5998 21.17157 11.80821 21.3737 12.14957 21.49973 12.36711 21.62575 12.58464 21.82787 12.94089 21.95389 13.16774 22.07991 13.39458 22.28201 13.76578 22.40805 14.0021 22.53407 14.23843 22.73619 14.62515 22.86221 14.87106 22.98824 15.11699 23.19035 15.51881 23.31638 15.77464 23.4424 16.03047 23.64452 16.44907 23.77054 16.71498 23.89656 16.9809 24.09868 17.4151 24.22472 17.69122 24.35074 17.96733 24.55284 18.41847 24.67886 18.70508 24.80489 18.9917 25.00702 19.45978 25.13304 19.75702 25.25906 20.05426 25.46118 20.53941 25.5872 20.84746 25.71323 21.15549 25.91534 21.65814 26.04137 21.97723 26.16739 22.29633 26.3695 22.81688 26.49553 23.14725 26.62157 23.47763 26.82367 24.0166 26.94969 24.35837 27.07571 24.70013 27.27785 25.2572 27.40387 25.61055 27.52989 25.96391 27.73201 26.53992 27.85803 26.90515 27.98405 27.2704 28.18616 27.86581 28.3122 28.24298 28.43822 28.62016 28.64034 29.23428 28.76636 29.62364 28.89238 30.01302 29.0945 30.6475 29.22052 31.04929 29.34654 31.45108 29.54866 32.1051 29.67468 32.51949 29.8007 32.93388 30.00282 33.60884 30.12886 34.03596 30.25488 34.46307 30.45699 35.15779 30.58301 35.59785 30.70903 36.03792 30.91116 36.75443 31.03719 37.20776 31.16321 37.6611 31.36533 38.39859 31.49135 38.86525 31.61737 39.33191 31.81949 40.09102 31.94551 40.57118 32.07153 41.05136 32.27365 41.83208 32.39967 42.32599 32.52571 42.8199 32.72781 43.62303 32.85384 44.13097 32.97986 44.63892 33.18198 45.46495 33.308 45.987 33.43402 46.50905 33.63615 47.35727 33.76218 47.89362 33.8882 48.42995 34.0903 49.30167 34.21634 49.85258 34.34236 50.4035 34.54448 51.2987 34.6705 51.86432 34.79652 52.42995 34.99864 53.34875 35.12466 53.92926 35.25069 54.50975 35.4528 55.45258 35.57883 56.04826 35.70485 56.64395 35.90697 57.6117 36.033 58.22263 36.15903 58.83356 36.36113 59.82509 36.48715 60.45149 36.61317 61.07791 36.8153 62.09532 36.94133 62.73746 37.06735 63.37961 37.26947 64.4216 37.3955 65.07965 37.52151 65.7377 37.72363 66.80617 37.84966 67.48024 37.97568 68.15431 38.1778 69.24759 38.30382 69.93793 38.42986 70.62827 38.63196 71.74883 38.75798 72.45572 38.884 73.16261 39.08612 74.30925 39.21214 75.03278 39.33817 75.7563 39.5403 76.93007 39.66632 77.6704 39.79234 78.41072 39.99445 79.6112 40.12048 80.36856 40.2465 81.12593 40.44862 82.35432 40.57465 83.12903 40.70067 83.90373 40.90279 85.1601 41.02881 85.95221 41.15483 86.74432 41.35695 88.0284 41.48297 88.8381 41.609 89.64781 41.81111 90.96042 41.93715 91.78801 42.06317 92.61559 42.26527 93.95726 42.3913 94.8028 42.51733 95.64833 42.71944 97.01833 42.84546 97.88203 42.97148 98.74574 43.17361 100.14563 43.29964 101.0279 43.42566 101.91014 43.62778 103.33992 43.7538 104.24078 43.87982 105.14163 44.08194 106.60114 44.20796 107.5207 44.334 108.44029 44.5361 109.93 44.66212 110.86855 44.78815 111.80711 44.99026 113.32741 45.11629 114.28517 45.24231 115.24292 45.44444 116.7943 45.57047 117.77144 45.69649 118.74858 45.89859 120.331 46.02463 121.32776 46.15065 122.32452 46.35277 123.93887 46.47879 124.95544 46.60481 125.97202 46.80693 127.61813 46.93295 128.65451 47.05898 129.6909 47.2611 131.36837 47.38712 132.42496 47.51314 133.48155 47.71526 135.19278 47.8413 136.26978 47.96732 137.34679 48.16942 139.08988 48.29544 140.18727 48.42148 141.28467 48.62358 143.06089 48.7496 144.17917 48.87563 145.29746 49.07776 147.10796 49.20378 148.2472 49.3298 149.38643 49.53192 151.2298 49.65794 152.39003 49.78397 153.55028 49.98608 155.42778 50.1121 156.60945 50.23814 157.79113 50.44025 159.70363 50.56627 160.90673 50.69229 162.1098 50.89441 164.05573 51.02043 165.28054 51.14645 166.50534 51.34859 168.48761 51.47461 169.73439 51.60063 170.98116 51.80273 172.99771 51.92877 174.26653 52.0548 175.53533 52.2569 177.58797 52.38292 178.8791 52.50894 180.17024 52.71107 182.25844 52.8371 183.57215 52.96312 184.88584 53.16524 187.0111 53.29126 188.34735 53.41728 189.68361 53.6194 191.8439 53.74544 193.20304 53.87146 194.56217 54.07356 196.7607 54.19958 198.14305 54.32562 199.52539 54.52773 201.76059 54.65375 203.1661 54.77977 204.57161 54.9819 206.84416 55.10793 208.27309 55.23395 209.70201 55.43607 212.01227 55.56209 213.46483 55.68811 214.9174 55.89023 217.26573 56.01625 218.74224 56.14229 220.21874 56.34439 222.60605 56.47041 224.10657 56.59644 225.6071 56.79855 228.03229 56.92458 229.55698 57.0506 231.08168 57.25273 233.54656 57.37875 235.09563 57.50478 236.64469 57.70688 239.1479 57.83292 240.72165 57.95894 242.29538 58.16104 244.8395 58.28706 246.43808 58.41309 248.03665 58.61522 250.61963 58.74124 252.24317 58.86726 253.86672 59.06938 256.49073 59.1954 258.13954 59.32143 259.78834 59.52354 262.45256 59.64958 264.1267 59.7756 265.80094 59.9777 268.50627 60.10373 270.20606 60.22977 271.9058 60.43187 274.65187 60.55789 276.3775 60.68391 278.10313 60.88605 280.8917 61.01207 282.64323 61.13809 284.39479 61.34021 287.22383 61.46623 289.00154 61.59225 290.77925 61.79436 293.6517 61.92038 295.45588 62.04642 297.26008 62.24854 300.1744 62.37456 302.00495 62.50058 303.83546 62.7027 306.7918 62.82872 308.64915 62.95474 310.50654 63.15688 313.50715 63.2829 315.39155 63.40892 317.27598 63.61102 320.3194 63.73706 322.23085 63.86308 324.14228 64.06519 327.22904 64.19121 329.16789 64.31723 331.10676 64.51936 334.2385 64.64539 336.20487 64.77141 338.1712 64.97353 341.34593 65.09955 343.33998 65.22557 345.33406 65.42767 348.55473 65.55371 350.57679 65.67973 352.59883 65.88185 355.86344 66.00787 357.9135 66.13391 359.96357 66.33601 363.27378 66.46204 365.3523 66.58806 367.4308 66.79019 370.787 66.91621 372.894 67.04224 375.00105 67.24435 378.40275 67.37038 380.53825 67.4964 382.67378 67.6985 386.12095 67.82452 388.28547 67.95056 390.44999 68.15268 393.94493 68.2787 396.1386 68.40472 398.33229 68.60684 401.8731 68.73286 404.096 68.85889 406.3189 69.06102 409.9075 69.18704 412.15983 69.31306 414.4121 69.51517 418.0472 69.6412 420.32917 69.76723 422.6111 69.96933 426.29469 70.09535 428.60664 70.22137 430.9186 70.42351 434.65028 70.54953 436.99226 70.67555 439.3342 70.87767 443.11387 71.0037 445.48603 71.12971 447.8582 71.33182 451.6865 71.45786 454.0892 71.58388 456.49189 71.786 460.36979 71.91202 462.8031 72.03806 465.23643 72.24016 469.16285 72.36618 471.62687 72.4922 474.0909 72.69434 478.06718 72.82036 480.56224 72.94638 483.0573 73.1485 487.08338 73.27452 489.60963 73.40054 492.13594 73.60265 496.2122 73.72867 498.76994 73.8547 501.32765 74.05682 505.4545 74.18285 508.04399 74.30887 510.63346 74.51099 514.8118 74.63701 517.43307 74.76303 520.0543 74.96515 524.28317 75.09117 526.93637 75.2172 529.5896 75.41931 533.8703 75.54535 536.5556 75.67137 539.2409 75.87347 543.57266 75.9995 546.2903 76.12552 549.00796 76.32765 553.3923 76.45367 556.14266 76.5797 558.893 76.78181 563.33 76.90784 566.1131 77.03386 568.8961 77.23596 573.38516 77.362 576.2011 77.48802 579.01718 77.69014 583.5597 77.81616 586.40908 77.9422 589.25839 78.1443 593.8546 78.27032 596.7372 78.39635 599.61978 78.59848 604.2687 78.7245 607.1847 78.85052 610.10079 79.05264 614.8044 79.17867 617.7542 79.30469 620.704 79.50679 625.46096 79.63281 628.4448 79.75885 631.4287 79.96097 636.2418 80.08699 639.26 80.21301 642.27816 80.41513 647.1454 80.54115 650.1976 80.66718 653.24978 80.8693 658.1714 80.99532 661.258 81.12134 664.34469 81.32346 669.3223 81.4495 672.4439 81.57552 675.5654 81.77762 680.5996 81.90364 683.75607 82.02966 686.9125 82.2318 692.00167 82.35782 695.1932 82.48384 698.3848 82.68596 703.53207 82.81198 706.75888 82.938 709.98568 83.1401 715.1876 83.26614 718.4499 83.39217 721.7122 83.59428 726.9731 83.7203 730.2712 83.84634 733.5693 84.04845 738.8868 84.17447 742.22048 84.30049 745.5542 84.50261 750.92837 84.62863 754.2982 84.75465 757.6681 84.95679 763.102 85.08281 766.50839 85.20883 769.91476 85.41093 775.4065 85.53696 778.84909 85.663 782.2917 85.86511 787.8409 85.99113 791.32 86.11716 794.79916 86.31927 800.408 86.4453 803.9242 86.57132 807.4403 86.77344 813.10867 86.89946 816.662 87.02548 820.21536 87.2276 825.94387 87.35364 829.5343 87.47966 833.1248 87.68176 838.91207 87.80779 842.5399 87.9338 846.1677 88.13594 852.0158 88.26196 855.6812 88.38799 859.3467 88.5901 865.25466 88.71613 868.958 88.84215 872.6614 89.04427 878.6314 89.17029 882.37277 89.29631 886.114 89.49843 892.1433 89.62445 895.92288 89.75049 899.7024 89.95259 905.79507 90.07861 909.6131 90.20464 913.43118 90.40675 919.5843 90.53278 923.4409 90.6588 927.29757 90.86093 933.51358 90.98695 937.4089 91.11298 941.3042 91.31508 947.5815 91.4411 951.5157 91.56714 955.4499 91.76926 961.79037 91.89528 965.7639 92.0213 969.7375 92.22342 976.14157 92.34944 980.1544 92.47546 984.1673 92.67758 990.6336 92.8036 994.686 92.92963 998.73837 93.13174 1005.26907 93.25778 1009.36117 93.3838 1013.45327 93.5859 1020.04678 93.71193 1024.1791 93.83795 1028.3113 94.04007 1034.9712 94.16609 1039.1436 94.29211 1043.3158 94.49425 1050.0374 94.62027 1054.2499 94.74629 1058.4625 94.94841 1065.2514 95.07443 1069.5046 95.20045 1073.7579 95.40257 1080.6109 95.5286 1084.9048 95.65463 1089.1987 95.85674 1096.1176 95.98276 1100.4523 96.10878 1104.7871 96.3109 1111.7705 96.43692 1116.1466 96.56294 1120.5226 96.76508 1127.5744 96.8911 1131.9917 97.01712 1136.409 97.21922 1143.5248 97.34525 1147.9835 97.47128 1152.4423 97.6734 1159.6265 97.79942 1164.1271 97.92545 1168.6277 98.12756 1175.8786 98.25359 1180.4208 98.37961 1184.963 98.58173 1192.2802 98.70775 1196.8646 98.83377 1201.4491 99.03589 1208.8355 99.16193 1213.4624 99.28795 1218.0892 99.49005 1225.5429 99.61607 1230.212 99.7421 1234.8811 99.94421 1242.4024 100.07024 1247.1143 100.19626 1251.8262 100.39839 1259.4174 100.52441 1264.1723 100.65044 1268.9271 100.85255 1276.5866 100.97858 1281.3843 101.1046 1286.182 101.30672 1293.9102 101.43274 1298.7511 101.55878 1303.592 101.76088 1311.39 101.8869 1316.2745 102.01292 1321.159 102.21504 1329.0271 102.34106 1333.9553 102.46709 1338.8837 102.66922 1346.822 102.79524 1351.7941 102.92126 1356.7661 103.12337 1364.7747 103.24939 1369.7907 103.37543 1374.8068 103.57753 1382.8864 103.70355 1387.9465 103.82957 1393.0067 104.03171 1401.1564 104.15773 1406.261 104.28375 1411.3656 104.48587 1419.5875 104.6119 1424.7369 104.73792 1429.8862 104.94003 1438.18 105.06607 1443.374 105.1921 1448.5681 105.3942 1456.9331 105.52022 1462.1721 105.64624 1467.4113 105.84836 1475.849 105.97438 1481.1333 106.1004 1486.4177 106.30254 1494.9287 106.42856 1500.2584 106.55458 1505.5881 106.7567 1514.171 106.88272 1519.5462 107.00874 1524.9214 107.21086 1533.578 107.33688 1538.9992 107.46292 1544.4203 107.66502 1553.1511 107.79105 1558.6182 107.91707 1564.0853 108.11919 1572.8889 108.24521 1578.4021 108.37123 1583.9152 108.57336 1592.7938 108.69939 1598.3533 108.82541 1603.9127 109.02751 1612.8645 109.15355 1618.4706 109.27957 1624.0768 109.48167 1633.106 109.6077 1638.7588 109.73372 1644.4118 109.93585 1653.5131 110.06187 1659.2127 110.1879 1664.9124 110.39001 1674.0913 110.51604 1679.8383 110.64206 1685.5853 110.84418 1694.8391 110.97021 1700.6334 111.09624 1706.4277 111.29834 1715.758 111.42436 1721.5999 111.55038 1727.4415 111.7525 1736.8473 111.87852 1742.7367 112.00455 1748.6261 112.20668 1758.109 112.3327 1764.0465 112.45872 1769.984 112.66084 1779.5443 112.78687 1785.5298 112.91289 1791.5153 113.24101 1807.1857 113.24101 1807.1857"/>
</g>
<use data-text="&#x2022;" xlink:href="#font_3_1" transform="matrix(9.963496,0,0,-9.962899,118.069,133.33861)"/>
<use data-text="(" xlink:href="#font_4_1" transform="matrix(9.963496,0,0,-9.962899,124.08054,142.11687)"/>
<use data-text="0" xlink:href="#font_4_3" transform="matrix(9.963496,0,0,-9.962899,127.94639,142.11687)"/>
<use data-text="," xlink:href="#font_1_1" transform="matrix(9.963496,0,0,-9.962899,132.93735,142.11687)"/>
<use data-text="0" xlink:href="#font_4_3" transform="matrix(9.963496,0,0,-9.962899,137.36573,142.11687)"/>
<use data-text=")" xlink:href="#font_4_2" transform="matrix(9.963496,0,0,-9.962899,142.34748,142.11687)"/>
</svg>
