<svg xmlns="http://www.w3.org/2000/svg" xmlns:xlink="http://www.w3.org/1999/xlink" version="1.1" width="250" height="252" viewBox="0 0 250 252">
<defs>
<path id="font_1_2" d="M.33399964 .30233766C.33999635 .32835389 .36299134 .42037965 .43299867 .42037965 .43798829 .42037965 .46199037 .42037965 .48298646 .40734864 .45498658 .402359 .43499757 .37734986 .43499757 .35334779 .43499757 .33735658 .44599916 .31835938 .47299195 .31835938 .49499513 .31835938 .5269928 .3363495 .5269928 .37635804 .5269928 .42837525 .46798707 .4423828 .43399049 .4423828 .37599183 .4423828 .34098817 .38935853 .32899476 .36634828 .3039856 .43237306 .25 .4423828 .22099304 .4423828 .116989139 .4423828 .05999756 .3133545 .05999756 .28834535 .05999756 .27833558 .069992069 .27833558 .07199097 .27833558 .07998657 .27833558 .08299255 .28033448 .084991458 .28933717 .11898804 .39535523 .18499756 .42037965 .21899414 .42037965 .23799134 .42037965 .272995 .4113617 .272995 .35334779 .272995 .32235719 .2559967 .25532533 .21899414 .11528015 .20298767 .053268434 .16799927 .011245728 .12399292 .011245728 .117996219 .011245728 .09498596 .011245728 .07398987 .024276734 .09899902 .029266358 .12098694 .05027771 .12098694 .07827759 .12098694 .105270389 .09899902 .11328125 .083999637 .11328125 .053985597 .11328125 .0289917 .08728027 .0289917 .055267335 .0289917 .009246826 .07899475-.0107421879 .12298584-.0107421879 .18899536-.0107421879 .22499085 .059280397 .22799683 .0652771 .23999024 .028274537 .27598573-.0107421879 .33599855-.0107421879 .43899537-.0107421879 .49598695 .118270877 .49598695 .14328003 .49598695 .1532898 .4869995 .1532898 .48399354 .1532898 .47499085 .1532898 .47299195 .14929199 .47099305 .14228821 .43798829 .03527832 .36999513 .011245728 .33799745 .011245728 .29899598 .011245728 .2829895 .043273927 .2829895 .07727051 .2829895 .09927368 .2889862 .121276859 .2999878 .16529846L.33399964 .30233766Z"/>
<path id="font_1_3" d="M.48599244 .38136292C.48999024 .39537049 .48999024 .39736939 .48999024 .40437318 .48999024 .42237855 .47599793 .43138124 .46099855 .43138124 .45098878 .43138124 .43499757 .42536927 .42599488 .41036988 .42399598 .405365 .41600038 .37435914 .4119873 .35635377 .40499879 .33035279 .397995 .30334474 .3919983 .27633668L.34700013 .09628296C.34298707 .08126831 .2999878 .011245728 .23399353 .011245728 .18299866 .011245728 .17199707 .055267335 .17199707 .0922699 .17199707 .1382904 .18899536 .20030213 .22299195 .28833009 .23899842 .3293457 .24299622 .3403473 .24299622 .36035157 .24299622 .405365 .21099854 .4423828 .16099549 .4423828 .06599426 .4423828 .0289917 .29733277 .0289917 .28833009 .0289917 .27833558 .038986207 .27833558 .040985109 .27833558 .050994874 .27833558 .051986696 .28033448 .056991579 .29634095 .083999637 .3903656 .12399292 .42037965 .1579895 .42037965 .1659851 .42037965 .18299866 .42037965 .18299866 .3883667 .18299866 .36335755 .17298889 .3373413 .1659851 .31834413 .12599182 .21231079 .10798645 .1552887 .10798645 .10827637 .10798645 .019256592 .17098999-.0107421879 .22999573-.0107421879 .2689972-.0107421879 .30299378 .0062561037 .33099366 .03425598 .31799317-.017745972 .30599977-.06674194 .2659912-.11973572 .23999024-.15385437 .20199585-.18309021 .1559906-.18309021 .14199829-.18309021 .09700012-.18005371 .07998657-.14074707 .09599304-.14074707 .10899353-.14074707 .12298584-.1287384 .1329956-.11973572 .14299011-.10673523 .14299011-.08773804 .14299011-.056747438 .115997318-.052734376 .10598755-.052734376 .08299255-.052734376 .049987794-.068740848 .049987794-.11773682 .049987794-.16796875 .09399414-.20507813 .1559906-.20507813 .25898744-.20507813 .3619995-.11373901 .3899994-.00074768069L.48599244 .38136292Z"/>
<clipPath id="clip_2">
<path transform="matrix(1.00009,0,0,-1.00003,120.56023,131.12454)" d="M-113.38724-113.38724V113.38724H113.38724V-113.38724ZM113.38724 113.38724"/>
</clipPath>
<path id="font_3_1" d="M.44400025 .24998474C.44400025 .35688783 .35499574 .44381715 .25 .44381715 .14199829 .44381715 .054992677 .35488893 .054992677 .24998474 .054992677 .14407349 .14199829 .056137086 .25 .056137086 .35499574 .056137086 .44400025 .14308167 .44400025 .24998474Z"/>
<path id="font_4_1" d="M.33099366-.2400055C.33099366-.23701477 .33099366-.23500061 .31399537-.21800232 .18899536-.0920105 .15699768 .09700012 .15699768 .25 .15699768 .42399598 .19499207 .59799197 .31799317 .72299197 .33099366 .73498538 .33099366 .7369995 .33099366 .73999026 .33099366 .746994 .32699586 .75 .32099916 .75 .31098939 .75 .22099304 .6819916 .1619873 .5549927 .11099243 .44499208 .09899902 .33399964 .09899902 .25 .09899902 .17199707 .10998535 .050994874 .16499329-.06201172 .22499085-.18501282 .31098939-.25 .32099916-.25 .32699586-.25 .33099366-.24700928 .33099366-.2400055Z"/>
<path id="font_4_3" d="M.45999146 .31976319C.45999146 .39982606 .45498658 .47988893 .41999818 .5539398 .37399293 .65000918 .2919922 .6660156 .25 .6660156 .18998719 .6660156 .116989139 .64001467 .07598877 .54693606 .04399109 .47789 .038986207 .39982606 .038986207 .31976319 .038986207 .24472046 .042999269 .15464783 .083999637 .07859802 .1269989-.0024719239 .19999695-.022460938 .24899292-.022460938 .30299378-.022460938 .3789978-.0014648438 .4229889 .09359741 .45498658 .16265869 .45999146 .2407074 .45999146 .31976319M.24899292-.00047302247C.20999146-.00047302247 .15098572 .024551392 .1329956 .12062073 .12199402 .18066406 .12199402 .2727356 .12199402 .3317871 .12199402 .39582826 .12199402 .46188355 .12998963 .5159149 .14898682 .63500979 .22399903 .64401248 .24899292 .64401248 .28199769 .64401248 .34799195 .6259918 .36698915 .52693179 .3769989 .47088624 .3769989 .39482118 .3769989 .3317871 .3769989 .25672914 .3769989 .18867493 .3659973 .12461853 .35099793 .029556275 .2939911-.00047302247 .24899292-.00047302247Z"/>
<path id="font_1_1" d="M.20298767 .0009918213C.20298767 .066986087 .17799378 .10598755 .13899231 .10598755 .10598755 .10598755 .085998538 .08099365 .085998538 .052993776 .085998538 .025985718 .10598755 0 .13899231 0 .15098572 0 .1639862 .0039978029 .17399597 .0129852299 .1769867 .01499939 .17799378 .015991211 .1789856 .015991211 .17999268 .015991211 .18099976 .01499939 .18099976 .0009918213 .18099976-.07316589 .1459961-.13328552 .11299133-.16635132 .101989749-.17736817 .101989749-.17936707 .101989749-.18237305 .101989749-.18936157 .10699463-.19335938 .11199951-.19335938 .12298584-.19335938 .20298767-.116256717 .20298767 .0009918213Z"/>
<path id="font_4_2" d="M.2889862 .25C.2889862 .32798768 .27799989 .44898988 .22299195 .56199648 .16299439 .68499758 .07699585 .75 .066986087 .75 .06098938 .75 .056991579 .74598696 .056991579 .73999026 .056991579 .7369995 .056991579 .73498538 .07598877 .71699526 .17399597 .6179962 .23098755 .45899964 .23098755 .25 .23098755 .07899475 .19400025-.09700012 .069992069-.2230072 .056991579-.23500061 .056991579-.23701477 .056991579-.2400055 .056991579-.2460022 .06098938-.25 .066986087-.25 .07699585-.25 .16699219-.18200684 .22599793-.055007936 .2769928 .054992677 .2889862 .16600037 .2889862 .25Z"/>
</defs>
<path transform="matrix(1.00009,0,0,-1.00003,120.56023,131.12454)" stroke-width=".19925" stroke-linecap="butt" stroke-miterlimit="10" stroke-linejoin="miter" fill="none" stroke="#929292" d="M-113.38724-113.38724H113.38724M-113.38724-85.04042H113.38724M-113.38724-56.69362H113.38724M-113.38724-28.3468H113.38724M-113.38724 0H113.38724M-113.38724 28.3468H113.38724M-113.38724 56.69362H113.38724M-113.38724 85.04042H113.38724M-113.38724 113.37727H113.38724M-113.38724-113.38724V113.38724M-85.04042-113.38724V113.38724M-56.69362-113.38724V113.38724M-28.3468-113.38724V113.38724M0-113.38724V113.38724M28.3468-113.38724V113.38724M56.69362-113.38724V113.38724M85.04042-113.38724V113.38724M113.37727-113.38724V113.38724M113.38724 113.38724"/>
<path transform="matrix(1.00009,0,0,-1.00003,120.56023,131.12454)" stroke-width="1.19553" stroke-linecap="butt" stroke-miterlimit="10" stroke-linejoin="miter" fill="none" stroke="#000000" d="M-119.0565 0H118.10008"/>
<path transform="matrix(1.00009,0,0,-1.00003,238.67093,131.12454)" stroke-width=".9564" stroke-linecap="round" stroke-linejoin="round" fill="none" stroke="#000000" d="M-1.91284 2.55046C-1.75343 1.59402 0 .15938 .4782 0 0-.15938-1.75343-1.59402-1.91284-2.55046"/>
<use data-text="x" xlink:href="#font_1_2" transform="matrix(9.963496,0,0,-9.962899,243.5463,133.2696)"/>
<path transform="matrix(1.00009,0,0,-1.00003,120.56023,131.12454)" stroke-width="1.19553" stroke-linecap="butt" stroke-miterlimit="10" stroke-linejoin="miter" fill="none" stroke="#000000" d="M0-119.0565V118.10008"/>
<path transform="matrix(0,-1.00003,-1.00009,-0,120.56023,13.020912)" stroke-width=".9564" stroke-linecap="round" stroke-linejoin="round" fill="none" stroke="#000000" d="M-1.91284 2.55046C-1.75343 1.59402 0 .15938 .4782 0 0-.15938-1.75343-1.59402-1.91284-2.55046"/>
<use data-text="y" xlink:href="#font_1_3" transform="matrix(9.963496,0,0,-9.962899,117.93899,6.208786)"/>
<g clip-path="url(#clip_2)">
<path transform="matrix(1.00009,0,0,-1.00003,120.56023,131.12454)" stroke-width=".79701" stroke-linecap="butt" stroke-miterlimit="10" stroke-linejoin="miter" fill="none" stroke="#0000ff" d="M-85.04042-6888.275C-85.04042-6888.275-84.79414-6789.024-84.69958-6751.3249-84.60501-6713.625-84.45331-6653.6564-84.35873-6616.5637-84.26416-6579.4709-84.11246-6520.4836-84.0179-6483.9875-83.92332-6447.4909-83.77162-6389.433-83.67705-6353.5227-83.58247-6317.612-83.43079-6260.4938-83.33621-6225.1677-83.24165-6189.842-83.08995-6133.6696-82.99538-6098.9187-82.9008-6064.1677-82.7491-6008.893-82.65453-5974.707-82.55997-5940.5207-82.40826-5886.1535-82.31369-5852.5275-82.21912-5818.902-82.06743-5765.4279-81.97285-5732.356-81.8783-5699.2839-81.7266-5646.6926-81.63202-5614.1677-81.53745-5581.6428-81.38574-5529.923-81.29117-5497.938-81.1966-5465.953-81.0449-5415.094-80.95033-5383.643-80.85576-5352.1916-80.70407-5302.1828-80.6095-5271.2575-80.51492-5240.3327-80.36324-5191.165-80.26866-5160.7575-80.17409-5130.3498-80.02238-5081.9938-79.92781-5052.0998-79.83324-5022.205-79.68155-4974.6848-79.58698-4945.3-79.4924-4915.915-79.34071-4869.202-79.24614-4840.315-79.15157-4811.428-78.99986-4765.496-78.9053-4737.1037-78.81073-4708.7106-78.65903-4663.584-78.56445-4635.6789-78.46988-4607.7736-78.31818-4563.4064-78.22362-4535.9826-78.12904-4508.5588-77.97736-4464.9758-77.88278-4438.027-77.78821-4411.0788-77.6365-4368.235-77.54195-4341.755-77.44737-4315.275-77.29567-4273.196-77.2011-4247.1789-77.10652-4221.1618-76.95482-4179.804-76.86026-4154.2419-76.76569-4128.6789-76.61398-4088.0504-76.51941-4062.9405-76.42484-4037.8306-76.27315-3997.9324-76.17857-3973.267-76.08401-3948.602-75.93231-3909.3997-75.83774-3885.171-75.74316-3860.9422-75.59146-3822.4395-75.49689-3798.6434-75.40233-3774.8475-75.25063-3737.0347-75.15605-3713.6658-75.06148-3690.2967-74.90979-3653.164-74.81522-3630.2166-74.72066-3607.269-74.56895-3570.8077-74.47438-3548.2757-74.3798-3525.7437-74.2281-3489.9439-74.13353-3467.8216-74.03896-3445.6993-73.88727-3410.5538-73.7927-3388.8336-73.69812-3367.1134-73.54643-3332.599-73.45186-3311.2779-73.35728-3289.9564-73.2056-3256.09-73.11102-3235.164-73.01645-3214.238-72.86475-3180.9959-72.77017-3160.4573-72.6756-3139.919-72.52391-3107.2955-72.42934-3087.1375-72.33476-3066.9793-72.18307-3034.9534-72.0885-3015.172-71.99393-2995.3909-71.84222-2963.978-71.74767-2944.5687-71.65309-2925.159-71.50139-2894.3253-71.40681-2875.282-71.31224-2856.239-71.16054-2826.001-71.06598-2807.319-70.9714-2788.637-70.81972-2758.961-70.72514-2740.635-70.63057-2722.309-70.47887-2693.2135-70.38431-2675.2384-70.28973-2657.2635-70.13803-2628.7147-70.04346-2611.0836-69.94888-2593.4525-69.79718-2565.4564-69.70262-2548.166-69.60805-2530.876-69.45634-2503.422-69.36177-2486.468-69.2672-2469.5137-69.11551-2442.5936-69.02094-2425.972-68.92638-2409.3504-68.77467-2382.9674-68.6801-2366.6719-68.58553-2350.3763-68.43382-2324.5015-68.33925-2308.5255-68.24469-2292.5494-68.09299-2267.187-67.99841-2251.5277-67.90384-2235.8682-67.75215-2211.0106-67.65758-2195.6629-67.56302-2180.315-67.41132-2155.9544-67.31674-2140.912-67.22217-2125.8699-67.07047-2101.988-66.97589-2087.2484-66.88132-2072.5089-66.72963-2049.1187-66.63506-2034.6786-66.54048-2020.2385-66.3888-1997.3209-66.29422-1983.1741-66.19965-1969.0274-66.04796-1946.5776-65.95338-1932.7182-65.85881-1918.8587-65.7071-1896.8595-65.61253-1883.2842-65.51796-1869.709-65.36627-1848.1723-65.2717-1834.8772-65.17712-1821.582-65.02544-1800.4817-64.93086-1787.4624-64.83629-1774.443-64.68459-1753.7909-64.59003-1741.0429-64.49545-1728.2948-64.34375-1708.0642-64.24918-1695.5831-64.1546-1683.102-64.0029-1663.3059-63.90834-1651.0879-63.81377-1638.8699-63.66208-1619.4834-63.5675-1607.5239-63.47293-1595.5646-63.32123-1576.5975-63.22667-1564.8926-63.1321-1553.1876-62.9804-1534.6187-62.88582-1523.1631-62.79124-1511.7074-62.63954-1493.5375-62.54497-1482.3285-62.45041-1471.1194-62.2987-1453.3424-62.20413-1442.3757-62.10956-1431.4092-61.95787-1414.0169-61.8633-1403.2886-61.76874-1392.5603-61.61703-1375.5476-61.52246-1365.054-61.42789-1354.5604-61.27618-1337.921-61.18161-1327.6581-61.08705-1317.3952-60.93535-1301.1221-60.84077-1291.086-60.7462-1281.0502-60.59451-1265.1388-60.49994-1255.326-60.40538-1245.5133-60.25368-1229.9562-60.1591-1220.3627-60.06453-1210.7692-59.91283-1195.5606-59.81825-1186.1826-59.72368-1176.8048-59.57199-1161.9403-59.47742-1152.7734-59.38284-1143.6065-59.23116-1129.0722-59.13658-1120.1138-59.042-1111.1554-58.89032-1096.9602-58.79575-1088.2077-58.70117-1079.4551-58.54947-1065.5839-58.4549-1057.0316-58.36032-1048.4793-58.20863-1034.9227-58.11406-1026.5684-58.01949-1018.214-57.8678-1004.9789-57.77322-996.81887-57.67865-988.65878-57.52695-975.7264-57.43239-967.75619-57.33781-959.78598-57.18611-947.15676-57.09154-939.3752-56.99696-931.5937-56.84526-919.2696-56.7507-911.6724-56.65613-904.07528-56.50444-892.03707-56.40987-884.61978-56.31529-877.20248-56.16359-865.45236-56.06903-858.21377-55.97446-850.9752-55.82275-839.5133-55.72818-832.4492-55.6336-825.3851-55.4819-814.19418-55.38733-807.3006-55.29277-800.4069-55.14107-789.4903-55.0465-782.76486-54.95192-776.0394-54.80023-765.3886-54.70566-758.8282-54.6111-752.2678-54.4594-741.88027-54.36482-735.48196-54.27025-729.08377-54.11855-718.9532-54.02397-712.71408-53.92941-706.47488-53.77771-696.59768-53.68314-690.51449-53.58856-684.4313-53.43687-674.8016-53.3423-668.87069-53.24773-662.93978-53.09604-653.54916-53.00146-647.76846-52.90689-641.98776-52.75519-632.83999-52.66061-627.20736-52.56604-621.5747-52.41435-612.66098-52.31978-607.1722-52.2252-601.68338-52.07352-592.995-51.97894-587.6478-51.88437-582.30068-51.73268-573.84097-51.6381-568.6334-51.54353-563.42599-51.39183-555.18759-51.29726-550.11569-51.20268-545.0437-51.051-537.0175-50.95642-532.07839-50.86185-527.1392-50.71016-519.3254-50.61559-514.51779-50.52101-509.71018-50.36931-502.1079-50.27475-497.42863-50.18018-492.74934-50.02847-485.34638-49.9339-480.7928-49.83932-476.23918-49.68762-469.0399-49.59306-464.60939-49.49849-460.17887-49.3468-453.17124-49.25223-448.86067-49.15765-444.5501-49.00595-437.73435-48.91139-433.5419-48.81682-429.34947-48.66512-422.72108-48.57054-418.6444-48.47597-414.56776-48.32426-408.12339-48.22969-404.16004-48.13513-400.19667-47.98343-393.9317-47.88885-390.0792-47.79428-386.22669-47.6426-380.13764-47.54802-376.39369-47.45346-372.64973-47.30176-366.73304-47.20718-363.09529-47.11261-359.45759-46.9609-353.7091-46.86633-350.17539-46.77177-346.64167-46.62007-341.0586-46.5255-337.6266-46.43092-334.1946-46.27924-328.7729-46.18466-325.43983-46.09009-322.1068-45.9384-316.83995-45.84383-313.6043-45.74925-310.36869-45.59755-305.2594-45.50298-302.11955-45.4084-298.97969-45.25671-294.02159-45.16214-290.97434-45.06757-287.9271-44.91588-283.1134-44.8213-280.157-44.72673-277.20063-44.57504-272.53413-44.48047-269.66667-44.3859-266.7992-44.23419-262.27085-44.13962-259.49034-44.04504-256.70985-43.89334-252.32225-43.79878-249.62674-43.70421-246.93123-43.55252-242.67548-43.45795-240.0629-43.36337-237.45032-43.21167-233.32869-43.11711-230.79708-43.02254-228.26546-42.87083-224.26947-42.77626-221.81671-42.68169-219.36396-42.52998-215.49469-42.43542-213.11923-42.34085-210.74378-42.18916-206.99608-42.09459-204.696-42.00002-202.39592-41.84831-198.76789-41.75375-196.5418-41.65918-194.3157-41.50748-190.80619-41.4129-188.65186-41.31833-186.49755-41.16663-183.09954-41.07205-181.01497-40.9775-178.93039-40.82579-175.64417-40.73122-173.62766-40.63664-171.61115-40.48495-168.4311-40.39038-166.48126-40.29582-164.53144-40.14412-161.45891-40.04955-159.5745-39.95497-157.69007-39.80327-154.72064-39.7087-152.89958-39.61414-151.07852-39.46243-148.20891-39.36786-146.44956-39.27328-144.6902-39.1216-141.91875-39.02702-140.21929-38.93245-138.51982-38.78076-135.84178-38.68619-134.20096-38.59161-132.56014-38.43991-129.97673-38.34534-128.39327-38.25076-126.80981-38.09908-124.31668-38.0045-122.78844-37.90993-121.2602-37.75824-118.8528-37.66367-117.37868-37.56909-115.90456-37.4174-113.58536-37.32283-112.164-37.22826-110.74265-37.07655-108.50487-36.98198-107.13446-36.8874-105.76405-36.7357-103.60736-36.64114-102.287-36.54657-100.96666-36.39488-98.89012-36.30031-97.6182-36.20573-96.34625-36.05403-94.34477-35.95947-93.11978-35.8649-91.89479-35.7132-89.96841-35.61862-88.78922-35.52405-87.61002-35.37234-85.75528-35.27779-84.62085-35.18321-83.48642-35.03152-81.70406-34.93695-80.61295-34.84238-79.52185-34.69067-77.80627-34.59612-76.75688-34.50154-75.70749-34.34984-74.05832-34.25526-73.0496-34.16069-72.0409-34.00899-70.45593-33.91441-69.48677-33.81985-68.51762-33.66815-66.99529-33.57358-66.06454-33.479-65.13379-33.32732-63.67227-33.23274-62.77855-33.13818-61.88483-32.98648-60.48071-32.8919-59.62318-32.79733-58.76566-32.64563-57.42032-32.55106-56.598-32.4565-55.7757-32.3048-54.48499-32.21022-53.69655-32.11565-52.9081-31.96396-51.67108-31.86938-50.91533-31.77481-50.15958-31.62312-48.97353-31.52855-48.2496-31.43398-47.52567-31.28227-46.39078-31.1877-45.69763-31.09312-45.00447-30.94144-43.91711-30.84686-43.25378-30.75229-42.59047-30.6006-41.55124-30.50603-40.91678-30.41145-40.28233-30.25977-39.28755-30.16519-38.68098-30.07062-38.07443-29.91891-37.12466-29.82434-36.54512-29.72977-35.96558-29.57806-35.05759-29.4835-34.50397-29.38893-33.95035-29.23724-33.08344-29.14267-32.55495-29.0481-32.02647-28.8964-31.19908-28.80183-30.69504-28.70726-30.19098-28.55556-29.40271-28.46098-28.92207-28.36641-28.44144-28.2147-27.68904-28.12015-27.23083-28.02557-26.77264-27.87389-26.05594-27.77931-25.61964-27.68474-25.18335-27.53304-24.50153-27.43846-24.08629-27.3439-23.67107-27.1922-23.02191-27.09763-22.6269-27.00305-22.2319-26.85135-21.61484-26.75677-21.23933-26.66222-20.86383-26.51051-20.27736-26.41594-19.92053-26.32137-19.56369-26.16968-19.00618-26.0751-18.66747-25.98055-18.32875-25.82884-17.80052-25.73427-17.47928-25.6397-17.15802-25.48799-16.6567-25.39342-16.35208-25.29886-16.04745-25.14716-15.57231-25.05258-15.2837-24.95801-14.99512-24.80632-14.54518-24.71175-14.272-24.61717-13.99883-24.46548-13.57327-24.37091-13.3148-24.27634-13.05632-24.12463-12.65338-24.03006-12.40906-23.93549-12.16475-23.7838-11.78468-23.68922-11.55394-23.59465-11.32318-23.44296-10.96373-23.34839-10.74596-23.25381-10.52817-23.10213-10.18956-23.00755-9.98425-22.91298-9.77896-22.76128-9.45967-22.6667-9.26625-22.57213-9.07283-22.42043-8.77226-22.32587-8.5902-22.2313-8.40811-22.0796-8.12508-21.98503-7.95392-21.89046-7.78278-21.73875-7.51736-21.6442-7.3566-21.54962-7.19582-21.39792-6.94614-21.30334-6.79515-21.20877-6.64417-21.05707-6.40984-20.96251-6.26833-20.86794-6.12683-20.71625-5.90768-20.62167-5.77524-20.5271-5.6428-20.3754-5.4377-20.28082-5.3137-20.18626-5.18971-20.03456-4.9975-19.93999-4.8816-19.84541-4.76572-19.69371-4.58661-19.59914-4.47849-19.50458-4.37035-19.35287-4.20299-19.2583-4.10217-19.16373-4.00136-19.01204-3.84563-18.91747-3.75183-18.8229-3.65804-18.6712-3.51344-18.57663-3.42612-18.48206-3.3388-18.33035-3.20361-18.23578-3.12248-18.14122-3.04135-17.98952-2.91646-17.89494-2.84134-17.80037-2.7662-17.64868-2.65048-17.55411-2.58093-17.45953-2.51138-17.30785-2.40434-17.21327-2.34001-17.1187-2.2757-16.967-2.17667-16.87242-2.11726-16.77785-2.05786-16.62616-1.96654-16.53159-1.9118-16.43701-1.85709-16.28532-1.77313-16.19075-1.7228-16.09618-1.67244-15.94449-1.59517-15.84991-1.5489-15.75534-1.50264-15.60364-1.43173-15.50906-1.3893-15.41449-1.34688-15.26279-1.28194-15.16823-1.2431-15.07365-1.20428-14.92197-1.14491-14.8274-1.10945-14.73282-1.07397-14.58112-1.01968-14.48656-.98747-14.39198-.95526-14.24028-.90645-14.1457-.87718-14.05113-.8479-13.89943-.80302-13.80487-.77638-13.7103-.74976-13.55861-.70926-13.46404-.68513-13.36946-.66101-13.21776-.6243-13.12318-.60251-13.02863-.58072-12.87692-.54771-12.78235-.5281-12.68777-.5085-12.53607-.47864-12.4415-.46107-12.34694-.4435-12.19524-.41704-12.10066-.40138-12.00609-.38573-11.8544-.36221-11.75983-.34818-11.66527-.33415-11.51357-.31265-11.41899-.30017-11.32442-.28769-11.17271-.26926-11.07814-.25821-10.98357-.24718-10.83188-.23035-10.7373-.22057-10.64273-.2108-10.49104-.19627-10.39647-.18771-10.3019-.17914-10.1502-.16623-10.05563-.15874-9.96106-.15123-9.80936-.14017-9.71478-.13364-9.62021-.12709-9.46852-.11722-9.37395-.11157-9.27937-.10594-9.12769-.09784-9.03311-.09299-8.93854-.08813-8.78683-.08075-8.69228-.07655-8.5977-.07236-8.446-.06628-8.35143-.0627-8.25685-.05911-8.10515-.05363-8.01059-.05058-7.91602-.04753-7.76433-.04315-7.66975-.04065-7.57518-.03813-7.42348-.03452-7.32892-.03242-7.23434-.03032-7.08264-.02724-6.98807-.0255-6.8935-.02377-6.74179-.0213-6.64723-.01988-6.55266-.01845-6.40097-.01631-6.3064-.01512-6.21182-.01393-6.06012-.01213-5.96555-.01123-5.87099-.01033-5.71928-.00935-5.62471-.00864-5.53014-.00793-5.37843-.00664-5.28386-.00604-5.1893-.00545-5.0376-.00471-4.94302-.0043-4.84845-.0039-4.69676-.00337-4.60219-.00302-4.50763-.00267-4.35593-.00194-4.26135-.00171-4.16678-.00148-4.01508-.00139-3.9205-.00128-3.82593-.00117-3.67424-.00095-3.57967-.00084-3.48509-.00073-3.3334-.00052-3.23883-.00041-3.14426-.0003-2.99257-.00003-2.898 0-2.80342 .00003-2.65172 0-2.55714 0-2.46257 0-2.31088 0-2.21631 0-2.12173 0-1.97005 0-1.87547 0-1.7809 0-1.6292 0-1.53464 0-1.44006 0-1.28836 0-1.19379 0-1.09921 0-.94751 0-.85295 0-.75838 0-.60669 0-.51212 0-.41754 0-.26584 0-.17128 0-.0767 0 .07497 0 .16954 0 .26411 0 .41582 0 .51038 0 .60495 0 .75664 0 .85121 0 .94579 0 1.09749 0 1.19206 0 1.28662 0 1.43832 0 1.5329 0 1.62747 0 1.77917 0 1.87375 0 1.9683 0 2.12001 0 2.21458 0 2.30916 0 2.46085 0 2.55542 0 2.64998 0 2.80168-.00003 2.89626 0 2.99083 .00003 3.14253 .0003 3.2371 .00041 3.33168 .00052 3.48337 .00073 3.57794 .00084 3.67252 .00095 3.8242 .00117 3.91878 .00128 4.01335 .00139 4.16504 .00148 4.25961 .00171 4.35419 .00194 4.50589 .00267 4.60046 .00302 4.69504 .00337 4.84673 .0039 4.9413 .0043 5.03587 .00471 5.18756 .00545 5.28214 .00604 5.37671 .00664 5.52841 .00793 5.62297 .00864 5.71754 .00935 5.86925 .01033 5.96382 .01123 6.0584 .01213 6.2101 .01393 6.30466 .01512 6.39923 .01631 6.55092 .01845 6.6455 .01988 6.74007 .0213 6.89177 .02377 6.98633 .0255 7.0809 .02724 7.2326 .03032 7.32718 .03242 7.42175 .03452 7.57346 .03813 7.66803 .04065 7.76259 .04315 7.91428 .04753 8.00885 .05058 8.10342 .05363 8.25513 .05911 8.3497 .0627 8.44426 .06628 8.59596 .07236 8.69054 .07655 8.78511 .08075 8.93681 .08813 9.03139 .09299 9.12595 .09784 9.27765 .10594 9.37222 .11157 9.4668 .11722 9.61848 .12709 9.71306 .13364 9.80762 .14017 9.95932 .15123 10.0539 .15874 10.14847 .16623 10.30017 .17914 10.39474 .18771 10.48932 .19627 10.641 .21086 10.73558 .22057 10.83015 .23029 10.98184 .24673 11.07642 .25777 11.17099 .26881 11.32268 .28769 11.41725 .30017 11.51183 .31265 11.66353 .33379 11.7581 .34775 11.85268 .36172 12.00436 .38522 12.09894 .40094 12.19351 .41666 12.3452 .4435 12.43977 .46107 12.53435 .47864 12.68605 .50812 12.78061 .52768 12.87518 .54724 13.02689 .58035 13.12146 .60208 13.21603 .62381 13.36774 .66022 13.4623 .68427 13.55687 .70831 13.70856 .74889 13.80313 .77553 13.8977 .80215 14.04941 .84697 14.14397 .87631 14.23854 .90565 14.39024 .95477 14.48482 .98705 14.57939 1.01932 14.7311 1.07355 14.82567 1.10901 14.92023 1.14447 15.07191 1.2039 15.16649 1.24266 15.26106 1.28143 15.41277 1.34607 15.50734 1.38843 15.6019 1.4308 15.7536 1.50179 15.84818 1.54803 15.94275 1.5943 16.09445 1.67157 16.18903 1.72192 16.28358 1.77226 16.43529 1.85622 16.52986 1.91093 16.62444 1.96567 16.77612 2.05705 16.8707 2.1164 16.96527 2.17575 17.11696 2.27443 17.21153 2.33871 17.3061 2.40298 17.45781 2.51004 17.55238 2.57965 17.64696 2.64926 17.79865 2.76534 17.89322 2.84047 17.9878 2.91559 18.13948 3.04016 18.23405 3.12117 18.32863 3.20218 18.48032 3.33713 18.57489 3.4244 18.66946 3.51164 18.82117 3.6563 18.91574 3.75009 19.01031 3.84389 19.162 3.9997 19.25658 4.10045 19.35115 4.20122 19.50284 4.36826 19.59741 4.47632 19.69199 4.5844 19.84369 4.76363 19.93825 4.87944 20.03282 4.99527 20.18452 5.1872 20.2791 5.31113 20.37367 5.43504 20.52538 5.64014 20.61993 5.77264 20.71451 5.90514 20.8662 6.12465 20.96077 6.26616 21.05534 6.40765 21.20705 6.64175 21.3016 6.79256 21.39618 6.94336 21.54788 7.19247 21.64246 7.35313 21.73703 7.51378 21.88873 7.77924 21.9833 7.95045 22.07787 8.12167 22.22955 8.40515 22.32413 8.58716 22.4187 8.76918 22.5704 9.06906 22.66498 9.26236 22.75954 9.45566 22.91124 9.77505 23.00581 9.98036 23.10039 10.18567 23.25209 10.5244 23.34666 10.74207 23.44122 10.95972 23.59293 11.31848 23.6875 11.54918 23.78207 11.77986 23.93376 12.16049 24.02834 12.40474 24.12291 12.649 24.2746 13.05125 24.36917 13.30962 24.46375 13.56798 24.61545 13.9937 24.71002 14.26682 24.8046 14.53993 24.95628 14.98955 25.05086 15.27809 25.14543 15.56662 25.29712 16.04192 25.3917 16.34647 25.48627 16.65102 25.63795 17.15198 25.73253 17.47322 25.8271 17.79446 25.9788 18.32324 26.07338 18.66183 26.16795 19.00043 26.31966 19.557 26.41422 19.91359 26.50879 20.27019 26.66048 20.85652 26.75505 21.23198 26.84962 21.60742 27.00133 22.22461 27.09589 22.61957 27.19046 23.01451 27.34216 23.66335 27.43674 24.0785 27.53131 24.49368 27.68301 25.17569 27.77757 25.61186 27.87215 26.04803 28.02383 26.76411 28.11841 27.22218 28.21298 27.68027 28.36469 28.43285 28.45924 28.91342 28.55382 29.39401 28.70552 30.18204 28.8001 30.68596 28.89467 31.1899 29.04637 32.01701 29.14095 32.54544 29.2355 33.07385 29.38719 33.94107 29.48177 34.49445 29.57634 35.04784 29.72804 35.95445 29.82262 36.53387 29.91718 37.1133 30.06888 38.06412 30.16345 38.67062 30.25803 39.27711 30.40973 40.27077 30.5043 40.90509 30.59886 41.53943 30.75056 42.57939 30.84514 43.24254 30.93971 43.90567 31.0914 44.99179 31.18597 45.68465 31.28055 46.37749 31.43224 47.51236 31.52681 48.23619 31.62138 48.96002 31.77309 50.14586 31.86766 50.90149 31.96223 51.65712 32.11392 52.89394 32.2085 53.68227 32.30307 54.4706 32.45476 55.76112 32.54933 56.58331 32.6439 57.40549 32.7956 58.75087 32.89017 59.60805 32.98474 60.46523 33.13644 61.86789 33.23102 62.76126 33.32559 63.65462 33.4773 65.11624 33.57185 66.04681 33.66643 66.97739 33.81812 68.4992 33.91269 69.46819 34.00726 70.43716 34.15897 72.02203 34.25352 73.03056 34.3481 74.0391 34.4998 75.68771 34.59438 76.73698 34.68895 77.78625 34.84065 79.50177 34.93521 80.59305 35.02979 81.68434 35.18147 83.46806 35.27605 84.60225 35.37062 85.73645 35.52232 87.58887 35.6169 88.7676 35.71146 89.94633 35.86316 91.87292 35.95773 93.09773 36.0523 94.32254 36.20401 96.32358 36.29858 97.59526 36.39314 98.86696 36.54483 100.94304 36.6394 102.26321 36.73398 103.58339 36.88568 105.74023 36.98026 107.11023 37.07481 108.48021 37.22652 110.716 37.32109 112.13719 37.41566 113.55838 37.56737 115.87935 37.66194 117.35316 37.7565 118.82698 37.9082 121.23175 38.00278 122.75946 38.09735 124.28717 38.24904 126.78058 38.34361 128.36386 38.43819 129.94713 38.58987 132.53002 38.68445 134.17069 38.77902 135.81134 38.93073 138.4893 39.0253 140.18859 39.11987 141.88785 39.27156 144.65888 39.36613 146.41799 39.46071 148.1771 39.6124 151.04625 39.70697 152.86714 39.80154 154.68802 39.95323 157.65743 40.0478 159.54163 40.14238 161.42581 40.29408 164.49791 40.38866 166.4471 40.48323 168.39627 40.63493 171.57418 40.72949 173.59003 40.82407 175.6059 40.97575 178.89185 41.07033 180.97605 41.1649 183.06026 41.3166 186.45734 41.41116 188.61164 41.50574 190.76595 41.65744 194.27715 41.75201 196.50287 41.84659 198.72859 41.99829 202.35376 42.09285 204.65319 42.18742 206.95259 42.33911 210.70029 42.43369 213.07556 42.52826 215.45084 42.67996 219.32056 42.77454 221.7726 42.8691 224.22463 43.0208 228.217 43.11537 230.7482 43.20995 233.27939 43.36165 237.40354 43.45622 240.01575 43.55078 242.62796 43.70247 246.87999 43.79704 249.57527 43.89162 252.27054 44.04332 256.66133 44.1379 259.44148 44.23245 262.2216 44.38416 266.74559 44.47873 269.6126 44.5733 272.47966 44.725 277.14906 44.81958 280.1051 44.91414 283.06114 45.06584 287.87126 45.16042 290.9177 45.25499 293.9641 45.40668 298.92155 45.50125 302.0616 45.59583 305.20164 45.74751 310.31373 45.84209 313.54896 45.93666 316.78416 46.08836 322.04679 46.18294 325.37886 46.27751 328.7109 46.4292 334.13273 46.52377 337.56434 46.61835 340.9959 46.77003 346.57807 46.86461 350.11137 46.95918 353.64469 47.11087 359.3926 47.20544 363.02998 47.30002 366.66737 47.45172 372.58354 47.5463 376.32707 47.64087 380.0706 47.79257 386.15888 47.88713 390.01084 47.9817 393.86283 48.13339 400.12718 48.22797 404.0895 48.32254 408.05189 48.47424 414.49308 48.5688 418.56874 48.66338 422.64439 48.81508 429.27214 48.90965 433.46406 49.00423 437.65596 49.15593 444.471 49.25049 448.78108 49.34506 453.09114 49.49675 460.098 49.59132 464.52806 49.6859 468.95808 49.8376 476.15657 49.93217 480.70973 50.02673 485.2629 50.17844 492.6655 50.27301 497.34428 50.36758 502.02308 50.51929 509.6242 50.61386 514.4313 50.70842 519.2383 50.8601 527.0522 50.95468 531.9901 51.04926 536.92807 51.20096 544.94979 51.29553 550.0205 51.39009 555.09127 51.5418 563.329 51.63637 568.53659 51.73094 573.7442 51.88264 582.207 51.97722 587.5535 52.0718 592.9001 52.22348 601.58358 52.31805 607.0709 52.41263 612.55838 52.56432 621.47109 52.65889 627.1031 52.75346 632.7351 52.90515 641.8831 52.99973 647.6625 53.0943 653.44186 53.246 662.82669 53.34058 668.75698 53.43515 674.6872 53.58684 684.3204 53.68141 690.40377 53.77599 696.48709 53.92767 706.36386 54.02225 712.60159 54.11682 718.83926 54.26851 728.9641 54.36308 735.36087 54.45766 741.7576 54.60936 752.14529 54.70393 758.70498 54.79851 765.26467 54.95021 775.91378 55.04477 782.63858 55.13934 789.36337 55.29103 800.27969 55.3856 807.17257 55.48018 814.0654 55.63188 825.25436 55.72644 832.3177 55.82101 839.3811 55.97272 850.8426 56.06729 858.0805 56.16187 865.3184 56.31357 877.06698 56.40813 884.4835 56.5027 891.9001 56.65439 903.9375 56.74896 911.534 56.84354 919.13058 56.99524 931.4534 57.08981 939.2342 57.18437 947.0149 57.33607 959.64389 57.43065 967.6121 57.52522 975.5804 57.67693 988.50479 57.7715 996.664 57.86606 1004.8232 58.01775 1018.0645 58.11232 1026.4182 58.2069 1034.772 58.3586 1048.3215 58.45317 1056.872 58.54773 1065.4224 58.69943 1079.291 58.794 1088.0437 58.88858 1096.7964 59.04028 1110.9978 59.13486 1119.9555 59.22943 1128.9131 59.38112 1143.439 59.4757 1152.6039 59.57027 1161.7688 59.72195 1176.6327 59.81653 1186.0097 59.9111 1195.3866 60.06279 1210.5935 60.15736 1220.1862 60.25194 1229.7788 60.40364 1245.335 60.49821 1255.147 60.59279 1264.959 60.74448 1280.8694 60.83905 1290.9044 60.93362 1300.9395 61.08531 1317.2109 61.17989 1327.4729 61.27446 1337.7349 61.42616 1354.3728 61.52072 1364.8654 61.6153 1375.358 61.767 1392.3694 61.86157 1403.0966 61.95615 1413.8237 62.10785 1431.2155 62.20241 1442.1798 62.29698 1453.1443 62.44867 1470.9136 62.54324 1482.1204 62.63782 1493.3273 62.78952 1511.4965 62.88408 1522.9512 62.97865 1534.4058 63.13036 1552.9733 63.22493 1564.6773 63.3195 1576.3811 63.4712 1595.3463 63.56577 1607.3047 63.66034 1619.2631 63.81203 1638.6482 63.9066 1650.8651 64.00117 1663.082 64.15288 1682.8761 64.24745 1695.356 64.34201 1707.8359 64.49371 1728.0648 64.58829 1740.8119 64.68286 1753.5588 64.83456 1774.2106 64.92914 1787.2276 65.0237 1800.2444 65.17538 1821.3345 65.26996 1834.6286 65.36453 1847.9225 65.51624 1869.4672 65.61081 1883.0411 65.70537 1896.6151 65.85707 1918.6035 65.95164 1932.4603 66.04622 1946.3173 66.19792 1968.7664 66.2925 1982.912 66.38707 1997.0576 66.53876 2019.9732 66.63333 2034.4121 66.7279 2048.851 66.8796 2072.2396 66.97417 2086.978 67.06874 2101.7166 67.22043 2125.596 67.315 2140.637 67.40958 2155.678 67.56128 2180.038 67.65585 2195.3829 67.75043 2210.7279 67.90211 2235.5753 67.99669 2251.2318 68.09126 2266.8883 68.24295 2292.2493 68.33752 2308.2239 68.4321 2324.1986 68.5838 2350.07 68.67836 2366.366 68.77293 2382.6619 68.92464 2409.051 69.01921 2425.673 69.11378 2442.295 69.26549 2469.2144 69.36005 2486.1658 69.45462 2503.117 69.60631 2530.5587 69.70088 2547.8455 69.79546 2565.1326 69.94716 2593.1287 70.04172 2610.7584 70.13629 2628.3878 70.288 2656.9339 70.38257 2674.9075 70.47714 2692.881 70.62885 2721.9749 70.7234 2740.2996 70.81798 2758.624 70.96967 2788.298 71.06424 2806.9788 71.15881 2825.6593 71.31052 2855.894 71.40509 2874.9356 71.49965 2893.977 71.65135 2924.8094 71.74593 2944.2174 71.8405 2963.6253 71.9922 2995.0374 72.08678 3014.815 72.18134 3034.5926 72.33302 3066.6063 72.4276 3086.7608 72.52217 3106.9154 72.67387 3139.5362 72.76845 3160.075 72.863 3180.6138 73.01471 3213.8643 73.10928 3234.7908 73.20386 3255.7174 73.35556 3289.5816 73.45013 3310.8992 73.54471 3332.217 73.6964 3366.718 73.79097 3388.4344 73.88554 3410.1507 74.03723 3445.2952 74.1318 3467.4158 74.22638 3489.5364 74.37807 3525.3336 74.47264 3547.8638 74.56721 3570.3944 74.71892 3606.8538 74.81349 3629.7996 74.90807 3652.7454 75.05975 3689.877 75.15433 3713.2418 75.2489 3736.6065 75.40059 3774.4046 75.49516 3798.1966 75.58974 3821.9886 75.74144 3860.4906 75.836 3884.7176 75.93057 3908.9447 76.08228 3948.1429 76.17685 3972.8087 76.27142 3997.4744 76.42313 4037.3834 76.51768 4062.4913 76.61226 4087.599 76.76395 4128.2106 76.85852 4153.769 76.9531 4179.3278 77.1048 4220.684 77.19936 4246.6999 77.29393 4272.715 77.44563 4314.791 77.5402 4341.2687 77.63478 4367.7468 77.78648 4410.5876 77.88106 4437.534 77.97562 4464.4807 78.1273 4508.06 78.22188 4535.482 78.31645 4562.904 78.46815 4607.268 78.56273 4635.1716 78.65729 4663.0749 78.80899 4708.2009 78.90356 4736.589 78.99814 4764.9777 79.14984 4810.8908 79.24442 4839.7756 79.33897 4868.66 79.49066 4915.3859 79.58524 4944.771 79.67981 4974.1564 79.83151 5021.6735 79.92609 5051.563 80.02065 5081.4528 80.17235 5129.7917 80.26692 5160.1945 80.3615 5190.597 80.5132 5239.7639 80.60777 5270.6867 80.70235 5301.6096 80.85403 5351.615 80.94861 5383.0646 81.04318 5414.514 81.19487 5465.369 81.28944 5497.352 81.38402 5529.335 81.5357 5581.0515 81.63028 5613.574 81.72485 5646.0969 81.87656 5698.683 81.97113 5731.753 82.0657 5764.8229 82.21739 5818.2966 82.31197 5851.917 82.40654 5885.538 82.55823 5939.886 82.6528 5974.0676 82.74738 6008.2487 82.89908 6063.519 82.99364 6098.271 83.08821 6133.0227 83.23991 6189.21 83.33449 6224.5339 83.42906 6259.857 83.58076 6316.952 83.67532 6352.8576 83.7699 6388.762 83.92159 6446.8156 84.01616 6483.313 84.11073 6519.81 84.26244 6578.8137 84.357 6615.904 84.45157 6652.994 84.60327 6712.9396 84.69785 6750.6335 84.79242 6788.327 85.0387 6887.574 85.0387 6887.574"/>
</g>
<use data-text="&#x2022;" xlink:href="#font_3_1" transform="matrix(9.963496,0,0,-9.962899,118.069,133.33861)"/>
<use data-text="(" xlink:href="#font_4_1" transform="matrix(9.963496,0,0,-9.962899,124.08054,142.11687)"/>
<use data-text="0" xlink:href="#font_4_3" transform="matrix(9.963496,0,0,-9.962899,127.94639,142.11687)"/>
<use data-text="," xlink:href="#font_1_1" transform="matrix(9.963496,0,0,-9.962899,132.93735,142.11687)"/>
<use data-text="0" xlink:href="#font_4_3" transform="matrix(9.963496,0,0,-9.962899,137.36573,142.11687)"/>
<use data-text=")" xlink:href="#font_4_2" transform="matrix(9.963496,0,0,-9.962899,142.34748,142.11687)"/>
</svg>
