<svg xmlns="http://www.w3.org/2000/svg" xmlns:xlink="http://www.w3.org/1999/xlink" version="1.1" width="250" height="138" viewBox="0 0 250 138">
<defs>
<path id="font_1_2" d="M.33399964 .30233766C.33999635 .32835389 .36299134 .42037965 .43299867 .42037965 .43798829 .42037965 .46199037 .42037965 .48298646 .40734864 .45498658 .402359 .43499757 .37734986 .43499757 .35334779 .43499757 .33735658 .44599916 .31835938 .47299195 .31835938 .49499513 .31835938 .5269928 .3363495 .5269928 .37635804 .5269928 .42837525 .46798707 .4423828 .43399049 .4423828 .37599183 .4423828 .34098817 .38935853 .32899476 .36634828 .3039856 .43237306 .25 .4423828 .22099304 .4423828 .116989139 .4423828 .05999756 .3133545 .05999756 .28834535 .05999756 .27833558 .069992069 .27833558 .07199097 .27833558 .07998657 .27833558 .08299255 .28033448 .084991458 .28933717 .11898804 .39535523 .18499756 .42037965 .21899414 .42037965 .23799134 .42037965 .272995 .4113617 .272995 .35334779 .272995 .32235719 .2559967 .25532533 .21899414 .11528015 .20298767 .053268434 .16799927 .011245728 .12399292 .011245728 .117996219 .011245728 .09498596 .011245728 .07398987 .024276734 .09899902 .029266358 .12098694 .05027771 .12098694 .07827759 .12098694 .105270389 .09899902 .11328125 .083999637 .11328125 .053985597 .11328125 .0289917 .08728027 .0289917 .055267335 .0289917 .009246826 .07899475-.0107421879 .12298584-.0107421879 .18899536-.0107421879 .22499085 .059280397 .22799683 .0652771 .23999024 .028274537 .27598573-.0107421879 .33599855-.0107421879 .43899537-.0107421879 .49598695 .118270877 .49598695 .14328003 .49598695 .1532898 .4869995 .1532898 .48399354 .1532898 .47499085 .1532898 .47299195 .14929199 .47099305 .14228821 .43798829 .03527832 .36999513 .011245728 .33799745 .011245728 .29899598 .011245728 .2829895 .043273927 .2829895 .07727051 .2829895 .09927368 .2889862 .121276859 .2999878 .16529846L.33399964 .30233766Z"/>
<path id="font_1_3" d="M.48599244 .38136292C.48999024 .39537049 .48999024 .39736939 .48999024 .40437318 .48999024 .42237855 .47599793 .43138124 .46099855 .43138124 .45098878 .43138124 .43499757 .42536927 .42599488 .41036988 .42399598 .405365 .41600038 .37435914 .4119873 .35635377 .40499879 .33035279 .397995 .30334474 .3919983 .27633668L.34700013 .09628296C.34298707 .08126831 .2999878 .011245728 .23399353 .011245728 .18299866 .011245728 .17199707 .055267335 .17199707 .0922699 .17199707 .1382904 .18899536 .20030213 .22299195 .28833009 .23899842 .3293457 .24299622 .3403473 .24299622 .36035157 .24299622 .405365 .21099854 .4423828 .16099549 .4423828 .06599426 .4423828 .0289917 .29733277 .0289917 .28833009 .0289917 .27833558 .038986207 .27833558 .040985109 .27833558 .050994874 .27833558 .051986696 .28033448 .056991579 .29634095 .083999637 .3903656 .12399292 .42037965 .1579895 .42037965 .1659851 .42037965 .18299866 .42037965 .18299866 .3883667 .18299866 .36335755 .17298889 .3373413 .1659851 .31834413 .12599182 .21231079 .10798645 .1552887 .10798645 .10827637 .10798645 .019256592 .17098999-.0107421879 .22999573-.0107421879 .2689972-.0107421879 .30299378 .0062561037 .33099366 .03425598 .31799317-.017745972 .30599977-.06674194 .2659912-.11973572 .23999024-.15385437 .20199585-.18309021 .1559906-.18309021 .14199829-.18309021 .09700012-.18005371 .07998657-.14074707 .09599304-.14074707 .10899353-.14074707 .12298584-.1287384 .1329956-.11973572 .14299011-.10673523 .14299011-.08773804 .14299011-.056747438 .115997318-.052734376 .10598755-.052734376 .08299255-.052734376 .049987794-.068740848 .049987794-.11773682 .049987794-.16796875 .09399414-.20507813 .1559906-.20507813 .25898744-.20507813 .3619995-.11373901 .3899994-.00074768069L.48599244 .38136292Z"/>
<path id="font_2_1" d="M.44400025 .24998474C.44400025 .35688783 .35499574 .44381715 .25 .44381715 .14199829 .44381715 .054992677 .35488893 .054992677 .24998474 .054992677 .14407349 .14199829 .056137086 .25 .056137086 .35499574 .056137086 .44400025 .14308167 .44400025 .24998474Z"/>
<path id="font_3_1" d="M.33099366-.2400055C.33099366-.23701477 .33099366-.23500061 .31399537-.21800232 .18899536-.0920105 .15699768 .09700012 .15699768 .25 .15699768 .42399598 .19499207 .59799197 .31799317 .72299197 .33099366 .73498538 .33099366 .7369995 .33099366 .73999026 .33099366 .746994 .32699586 .75 .32099916 .75 .31098939 .75 .22099304 .6819916 .1619873 .5549927 .11099243 .44499208 .09899902 .33399964 .09899902 .25 .09899902 .17199707 .10998535 .050994874 .16499329-.06201172 .22499085-.18501282 .31098939-.25 .32099916-.25 .32699586-.25 .33099366-.24700928 .33099366-.2400055Z"/>
<path id="font_3_3" d="M.45999146 .31976319C.45999146 .39982606 .45498658 .47988893 .41999818 .5539398 .37399293 .65000918 .2919922 .6660156 .25 .6660156 .18998719 .6660156 .116989139 .64001467 .07598877 .54693606 .04399109 .47789 .038986207 .39982606 .038986207 .31976319 .038986207 .24472046 .042999269 .15464783 .083999637 .07859802 .1269989-.0024719239 .19999695-.022460938 .24899292-.022460938 .30299378-.022460938 .3789978-.0014648438 .4229889 .09359741 .45498658 .16265869 .45999146 .2407074 .45999146 .31976319M.24899292-.00047302247C.20999146-.00047302247 .15098572 .024551392 .1329956 .12062073 .12199402 .18066406 .12199402 .2727356 .12199402 .3317871 .12199402 .39582826 .12199402 .46188355 .12998963 .5159149 .14898682 .63500979 .22399903 .64401248 .24899292 .64401248 .28199769 .64401248 .34799195 .6259918 .36698915 .52693179 .3769989 .47088624 .3769989 .39482118 .3769989 .3317871 .3769989 .25672914 .3769989 .18867493 .3659973 .12461853 .35099793 .029556275 .2939911-.00047302247 .24899292-.00047302247Z"/>
<path id="font_1_1" d="M.20298767 .0009918213C.20298767 .066986087 .17799378 .10598755 .13899231 .10598755 .10598755 .10598755 .085998538 .08099365 .085998538 .052993776 .085998538 .025985718 .10598755 0 .13899231 0 .15098572 0 .1639862 .0039978029 .17399597 .0129852299 .1769867 .01499939 .17799378 .015991211 .1789856 .015991211 .17999268 .015991211 .18099976 .01499939 .18099976 .0009918213 .18099976-.07316589 .1459961-.13328552 .11299133-.16635132 .101989749-.17736817 .101989749-.17936707 .101989749-.18237305 .101989749-.18936157 .10699463-.19335938 .11199951-.19335938 .12298584-.19335938 .20298767-.116256717 .20298767 .0009918213Z"/>
<path id="font_3_2" d="M.2889862 .25C.2889862 .32798768 .27799989 .44898988 .22299195 .56199648 .16299439 .68499758 .07699585 .75 .066986087 .75 .06098938 .75 .056991579 .74598696 .056991579 .73999026 .056991579 .7369995 .056991579 .73498538 .07598877 .71699526 .17399597 .6179962 .23098755 .45899964 .23098755 .25 .23098755 .07899475 .19400025-.09700012 .069992069-.2230072 .056991579-.23500061 .056991579-.23701477 .056991579-.2400055 .056991579-.2460022 .06098938-.25 .066986087-.25 .07699585-.25 .16699219-.18200684 .22599793-.055007936 .2769928 .054992677 .2889862 .16600037 .2889862 .25Z"/>
</defs>
<path transform="matrix(1.00009,0,0,-1.00008,120.56023,74.432918)" stroke-width=".19925" stroke-linecap="butt" stroke-miterlimit="10" stroke-linejoin="miter" fill="none" stroke="#929292" d="M-113.38724-56.69362H113.38724M-113.38724-28.3468H113.38724M-113.38724 0H113.38724M-113.38724 28.3468H113.38724M-113.38724 56.68365H113.38724M-113.38724-56.69362V56.69362M-85.04042-56.69362V56.69362M-56.69362-56.69362V56.69362M-28.3468-56.69362V56.69362M0-56.69362V56.69362M28.3468-56.69362V56.69362M56.69362-56.69362V56.69362M85.04042-56.69362V56.69362M113.37727-56.69362V56.69362M113.38724 56.69362"/>
<path transform="matrix(1.00009,0,0,-1.00008,120.56023,74.432918)" stroke-width="1.19553" stroke-linecap="butt" stroke-miterlimit="10" stroke-linejoin="miter" fill="none" stroke="#000000" d="M-119.0565 0H118.10008"/>
<path transform="matrix(1.00009,0,0,-1.00008,238.67093,74.432918)" stroke-width=".9564" stroke-linecap="round" stroke-linejoin="round" fill="none" stroke="#000000" d="M-1.91284 2.55046C-1.75343 1.59402 0 .15938 .4782 0 0-.15938-1.75343-1.59402-1.91284-2.55046"/>
<use data-text="x" xlink:href="#font_1_2" transform="matrix(9.963496,0,0,-9.963397,243.5463,76.57809)"/>
<path transform="matrix(1.00009,0,0,-1.00008,120.56023,74.432918)" stroke-width="1.19553" stroke-linecap="butt" stroke-miterlimit="10" stroke-linejoin="miter" fill="none" stroke="#000000" d="M0-62.36288V61.40646"/>
<path transform="matrix(0,-1.00008,-1.00009,-0,120.56023,13.021542)" stroke-width=".9564" stroke-linecap="round" stroke-linejoin="round" fill="none" stroke="#000000" d="M-1.91284 2.55046C-1.75343 1.59402 0 .15938 .4782 0 0-.15938-1.75343-1.59402-1.91284-2.55046"/>
<use data-text="y" xlink:href="#font_1_3" transform="matrix(9.963496,0,0,-9.963397,117.93899,6.2094576)"/>
<path transform="matrix(1.00009,0,0,-1.00008,120.56023,74.432918)" stroke-width=".79701" stroke-linecap="butt" stroke-miterlimit="10" stroke-linejoin="miter" fill="none" stroke="#0000ff" d="M0 0C0 0 .16405 7.12338 .22707 8.53136 .29007 9.93933 .39114 9.78192 .45415 10.14775 .51717 10.5136 .61823 10.90184 .68124 11.1681 .74425 11.43439 .84529 11.85327 .90831 12.06693 .97133 12.28058 1.07239 12.53955 1.13539 12.70795 1.19841 12.87634 1.29947 13.1296 1.36249 13.28064 1.42549 13.43169 1.52655 13.64838 1.58955 13.79666 1.65257 13.94493 1.75363 14.21843 1.81665 14.34943 1.87965 14.48042 1.98071 14.63503 2.04373 14.74088 2.10675 14.84673 2.2078 15.01251 2.2708 15.11243 2.33382 15.21236 2.43488 15.3663 2.4979 15.46106 2.5609 15.55582 2.66197 15.70534 2.72498 15.79541 2.788 15.88548 2.88904 16.02531 2.95206 16.11029 3.01506 16.19527 3.11612 16.32724 3.17914 16.40788 3.24214 16.48853 3.34322 16.60036 3.40622 16.69164 3.46924 16.7829 3.5703 16.98122 3.63332 17.06577 3.69632 17.15031 3.79736 17.23657 3.86038 17.30107 3.9234 17.36557 4.02446 17.46779 4.08746 17.53075 4.15048 17.5937 4.25154 17.69385 4.31456 17.7548 4.37756 17.81577 4.47862 17.9108 4.54163 17.9702 4.60464 18.02962 4.7057 18.12517 4.76872 18.18301 4.83173 18.24086 4.93279 18.33095 4.9958 18.38718 5.05882 18.4434 5.15987 18.53322 5.22287 18.5883 5.28589 18.64339 5.38695 18.73071 5.44997 18.78424 5.51297 18.83777 5.61404 18.92223 5.67705 18.97414 5.74007 19.02603 5.84111 19.10805 5.90413 19.15839 5.96713 19.20874 6.06819 19.28789 6.13121 19.33704 6.19421 19.38618 6.29529 19.46428 6.35829 19.51265 6.42131 19.561 6.52237 19.63844 6.58539 19.68565 6.64839 19.73288 6.74944 19.80737 6.81245 19.85304 6.87547 19.89871 6.97653 19.97035 7.03954 20.01482 7.10255 20.05928 7.20361 20.12991 7.26663 20.17355 7.32964 20.21718 7.4307 20.28642 7.4937 20.32927 7.55672 20.3721 7.65778 20.44026 7.7208 20.48239 7.7838 20.52452 7.88486 20.59198 7.94788 20.6329 8.0109 20.67383 8.11194 20.73766 8.17494 20.77737 8.23796 20.8171 8.33902 20.87996 8.40204 20.91925 8.46504 20.95856 8.56612 21.02217 8.62912 21.06068 8.69214 21.09921 8.79318 21.15913 8.8562 21.19695 8.9192 21.23476 9.02026 21.29623 9.08328 21.33319 9.14629 21.37015 9.24736 21.42722 9.31036 21.4634 9.37338 21.49957 9.47443 21.5582 9.53745 21.59401 9.60045 21.62982 9.7015 21.68663 9.76453 21.72162 9.82755 21.75659 9.9286 21.81197 9.99161 21.84618 10.05463 21.88039 10.15569 21.93433 10.2187 21.96815 10.28171 22.002 10.38277 22.05673 10.44577 22.09013 10.50879 22.12355 10.60985 22.17644 10.67287 22.20908 10.73587 22.24171 10.83693 22.29317 10.89995 22.32544 10.96297 22.35771 11.06401 22.40993 11.12701 22.44179 11.19003 22.47365 11.29109 22.52367 11.35411 22.5551 11.41711 22.58655 11.51819 22.63777 11.58119 22.66844 11.64421 22.6991 11.74525 22.74585 11.80827 22.77614 11.87128 22.80644 11.97234 22.85658 12.03535 22.88687 12.09836 22.91718 12.19943 22.96504 12.26244 22.99457 12.32545 23.0241 12.4265 23.07094 12.48952 23.09967 12.55252 23.1284 12.65358 23.17307 12.7166 23.20175 12.77962 23.23044 12.88068 23.27776 12.94368 23.30643 13.0067 23.33511 13.10776 23.38055 13.17078 23.40851 13.23378 23.43648 13.33484 23.48047 13.39784 23.508 13.46086 23.53552 13.56192 23.57991 13.62494 23.60704 13.68794 23.63416 13.789 23.67674 13.85202 23.70349 13.91504 23.73026 14.01608 23.7732 14.07909 23.79996 14.1421 23.8267 14.24316 23.86966 14.30618 23.89641 14.36919 23.92316 14.47026 23.96652 14.53326 23.99286 14.59628 24.01921 14.69733 24.06075 14.76035 24.08629 14.82335 24.11185 14.92441 24.15198 14.98743 24.17712 15.05043 24.20227 15.1515 24.24239 15.21451 24.26753 15.27753 24.29268 15.37857 24.33359 15.44159 24.35837 15.5046 24.38315 15.60565 24.42175 15.66867 24.44617 15.73169 24.47058 15.83275 24.51 15.89575 24.53441 15.95877 24.55882 16.05983 24.59827 16.12285 24.62221 16.18585 24.64615 16.28691 24.68298 16.34991 24.70699 16.41293 24.731 16.51399 24.77159 16.57701 24.79523 16.64001 24.81886 16.74107 24.85425 16.8041 24.87741 16.86711 24.90056 16.96815 24.93898 17.03116 24.96219 17.09418 24.9854 17.19524 25.02193 17.25826 25.0448 17.32126 25.06766 17.42233 25.10417 17.48534 25.12698 17.54836 25.14978 17.6494 25.18678 17.71242 25.20915 17.77542 25.23154 17.87648 25.2663 17.9395 25.28831 18.0025 25.31033 18.10358 25.34589 18.16658 25.3679 18.2296 25.38991 18.33064 25.42546 18.39366 25.44705 18.45667 25.46866 18.55772 25.50195 18.62074 25.5236 18.68376 25.54527 18.78482 25.58154 18.84782 25.60321 18.91084 25.62488 19.01189 25.65852 19.0749 25.67976 19.13791 25.701 19.23898 25.73552 19.30199 25.75632 19.365 25.77713 19.46606 25.80939 19.52908 25.82985 19.59209 25.85031 19.69315 25.88293 19.75616 25.90381 19.81918 25.92468 19.92023 25.95958 19.98323 25.9804 20.04625 26.00119 20.14731 26.03387 20.21033 26.05392 20.27333 26.07396 20.3744 26.10481 20.43741 26.12485 20.50043 26.14488 20.60147 26.17834 20.66449 26.19838 20.7275 26.21841 20.82855 26.24965 20.89157 26.26932 20.95457 26.28899 21.05565 26.32057 21.11865 26.34024 21.18167 26.35992 21.28271 26.39151 21.34573 26.41118 21.40874 26.43085 21.5098 26.46286 21.57281 26.48213 21.63583 26.50139 21.7369 26.53114 21.7999 26.55003 21.86292 26.56892 21.96396 26.59947 22.02698 26.61836 22.08998 26.63727 22.19106 26.66743 22.25406 26.68628 22.31708 26.70511 22.41814 26.73529 22.48116 26.75418 22.54416 26.77307 22.64522 26.80363 22.70824 26.82253 22.77126 26.84143 22.8723 26.87196 22.9353 26.89044 22.99832 26.9089 23.09938 26.93762 23.1624 26.95575 23.2254 26.97386 23.32648 27.003 23.38948 27.02107 23.4525 27.03912 23.55354 27.06789 23.61656 27.08595 23.67957 27.104 23.78062 27.13313 23.84364 27.15126 23.90665 27.16937 24.00772 27.19844 24.07072 27.21657 24.13374 27.23468 24.23479 27.26419 24.2978 27.28189 24.36081 27.29959 24.46187 27.3269 24.52489 27.34418 24.5879 27.36143 24.68896 27.38919 24.75197 27.40645 24.81499 27.42372 24.91603 27.45145 24.97905 27.46873 25.04205 27.48602 25.14313 27.5137 25.20613 27.53104 25.26915 27.54837 25.37021 27.57642 25.43323 27.59373 25.49623 27.61107 25.59729 27.6391 25.66031 27.65602 25.72333 27.67294 25.82437 27.6988 25.88737 27.71573 25.9504 27.73264 26.05145 27.76114 26.11447 27.778 26.17747 27.79486 26.27855 27.82077 26.34155 27.83727 26.40457 27.85376 26.50562 27.8804 26.56863 27.89696 26.63164 27.91351 26.7327 27.94052 26.79572 27.95665 26.85872 27.97278 26.9598 27.99724 27.0228 28.0133 27.08582 28.02937 27.18686 28.05606 27.24988 28.07256 27.31288 28.08905 27.41394 28.11613 27.47696 28.13226 27.53998 28.14839 27.64104 28.1732 27.70404 28.18892 27.76706 28.20464 27.8681 28.22946 27.93112 28.24559 27.99413 28.26172 28.0952 28.28992 28.1582 28.30527 28.22122 28.32062 28.32228 28.34142 28.3853 28.35631 28.4483 28.37119 28.54935 28.39694 28.61237 28.41254 28.67538 28.42813 28.77644 28.45323 28.83945 28.46877 28.90247 28.4843 29.00352 28.5091 29.06654 28.52457 29.12955 28.54005 29.23062 28.56502 29.29362 28.58037 29.35664 28.59572 29.45769 28.62006 29.5207 28.63528 29.58371 28.65053 29.68477 28.67506 29.74779 28.69023 29.81079 28.7054 29.91187 28.72961 29.97487 28.74474 30.03789 28.75984 30.13893 28.78418 30.20195 28.79922 30.26495 28.81429 30.36603 28.83842 30.42903 28.8533 30.49205 28.86818 30.59311 28.8917 30.65611 28.9065 30.71913 28.9213 30.82018 28.94536 30.8832 28.96013 30.9462 28.97488 31.04727 28.9982 31.11028 29.01291 31.1733 29.0276 31.27435 29.05145 31.33737 29.0661 31.40038 29.08073 31.50142 29.10399 31.56444 29.11844 31.62746 29.1329 31.72852 29.1559 31.79152 29.17035 31.85454 29.18481 31.9556 29.20834 32.01862 29.22269 32.08162 29.23701 32.1827 29.25946 32.2457 29.27373 32.30872 29.28801 32.40976 29.31136 32.47278 29.32562 32.53578 29.3399 32.63684 29.36256 32.69986 29.37666 32.76286 29.39075 32.86394 29.41318 32.92694 29.42726 32.98996 29.44136 33.091 29.46428 33.15402 29.47832 33.21703 29.49234 33.3181 29.51457 33.3811 29.52849 33.44412 29.54239 33.54518 29.56482 33.60818 29.57866 33.6712 29.59251 33.77225 29.61456 33.83527 29.6284 33.89827 29.64226 33.99934 29.66478 34.06235 29.67857 34.12537 29.69235 34.22643 29.71426 34.28944 29.72789 34.35245 29.7415 34.45349 29.76326 34.51651 29.77676 34.57953 29.79027 34.68059 29.8117 34.74359 29.82521 34.80661 29.83871 34.90767 29.86064 34.97069 29.87408 35.03369 29.88753 35.13477 29.90877 35.19777 29.92209 35.26079 29.93541 35.36183 29.95674 35.42485 29.97011 35.48785 29.98349 35.58891 30.00523 35.65193 30.01855 35.71494 30.03186 35.81601 30.053 35.87901 30.06613 35.94203 30.07927 36.04308 30.10016 36.1061 30.11328 36.1691 30.12642 36.27017 30.14778 36.33318 30.16086 36.3962 30.17393 36.49725 30.19455 36.56026 30.20757 36.62328 30.22058 36.72432 30.24178 36.78734 30.25473 36.85034 30.26768 36.95142 30.28812 37.01442 30.301 37.07744 30.31389 37.1785 30.33488 37.24152 30.34772 37.30452 30.36055 37.40556 30.38086 37.46858 30.39357 37.5316 30.40628 37.63266 30.42671 37.69566 30.43942 37.75868 30.45212 37.85974 30.47261 37.92276 30.48526 37.98576 30.49791 38.08682 30.51807 38.14983 30.53067 38.21284 30.54327 38.3139 30.56349 38.37692 30.5761 38.43993 30.5887 38.54099 30.60902 38.604 30.6215 38.667 30.63399 38.76808 30.65364 38.83109 30.66606 38.8941 30.67848 38.99515 30.69862 39.05817 30.71104 39.12117 30.72346 39.22224 30.7433 39.28525 30.7556 39.34827 30.7679 39.44933 30.78748 39.51233 30.79971 39.57535 30.81195 39.67639 30.83159 39.73941 30.84383 39.80241 30.85606 39.90349 30.87578 39.96649 30.88795 40.02951 30.90013 40.13057 30.91959 40.19359 30.93164 40.25659 30.9437 40.35764 30.96289 40.42065 30.97488 40.48367 30.98688 40.58473 31.00604 40.64774 31.01816 40.71075 31.03027 40.81181 31.05022 40.87483 31.06227 40.93784 31.07433 41.0389 31.09322 41.1019 31.10509 41.16492 31.11697 41.26598 31.1361 41.329 31.1479 41.392 31.15971 41.49306 31.17856 41.55608 31.1903 41.61908 31.20206 41.72015 31.22093 41.78316 31.23268 41.84618 31.24443 41.94722 31.2634 42.01024 31.27509 42.07324 31.28677 42.17432 31.30533 42.23732 31.31703 42.30034 31.32872 42.4014 31.34773 42.4644 31.35942 42.52742 31.37111 42.62846 31.38982 42.69148 31.40138 42.75449 31.41295 42.85556 31.4314 42.91856 31.4429 42.98158 31.4544 43.08264 31.47292 43.14566 31.48444 43.20866 31.49594 43.30971 31.5145 43.37273 31.52594 43.43575 31.5374 43.5368 31.5557 43.59981 31.56703 43.66283 31.57838 43.76389 31.59642 43.8269 31.6077 43.88991 31.61899 43.99097 31.63695 44.05397 31.64835 44.11699 31.65976 44.21805 31.6786 44.28107 31.68988 44.34407 31.70117 44.44513 31.71844 44.50815 31.72968 44.57115 31.74089 44.67221 31.75954 44.73521 31.77075 44.79823 31.78198 44.89929 31.79945 44.96231 31.81056 45.02531 31.82166 45.12639 31.83975 45.18939 31.85078 45.25241 31.86182 45.35347 31.8791 45.41647 31.89014 45.47949 31.90118 45.58054 31.9192 45.64355 31.93036 45.70656 31.94153 45.80763 31.95969 45.87064 31.97061 45.93365 31.98152 46.03471 31.99825 46.09773 32.0091 46.16074 32.01994 46.26178 32.03798 46.3248 32.04889 46.38782 32.05981 46.48888 32.07701 46.55188 32.08781 46.6149 32.0986 46.71596 32.11601 46.77898 32.12674 46.84198 32.13748 46.94304 32.15443 47.00604 32.16524 47.06906 32.17603 47.17012 32.19376 47.23314 32.2046 47.29614 32.21547 47.3972 32.23285 47.46022 32.24353 47.52322 32.2542 47.62428 32.27092 47.68729 32.28159 47.7503 32.29227 47.85136 32.3099 47.91438 32.32053 47.97739 32.33113 48.07846 32.34766 48.14146 32.35815 48.20448 32.36864 48.30554 32.38573 48.36855 32.39621 48.43156 32.40671 48.53261 32.4233 48.59563 32.43384 48.65863 32.44438 48.7597 32.46173 48.82271 32.47235 48.88573 32.48296 48.98679 32.50005 49.0498 32.5104 49.11281 32.52078 49.21385 32.5368 49.27687 32.54716 49.33989 32.55754 49.44095 32.57487 49.50395 32.58524 49.56697 32.5956 49.66803 32.61172 49.73105 32.622 49.79405 32.63225 49.89511 32.64899 49.95811 32.6592 50.02113 32.66939 50.1222 32.68521 50.18521 32.69553 50.24821 32.70584 50.34927 32.72316 50.4123 32.7336 50.4753 32.74402 50.57635 32.76065 50.63936 32.7708 50.70238 32.78093 50.80344 32.79668 50.86646 32.8067 50.92946 32.81671 51.03053 32.83289 51.09354 32.84303 51.15656 32.85316 51.25761 32.86958 51.32062 32.87979 51.38364 32.88998 51.48468 32.90636 51.5477 32.91656 51.6107 32.92676 51.71178 32.94336 51.77478 32.95332 51.8378 32.96327 51.93886 32.97859 52.00188 32.98836 52.06488 32.99814 52.16592 33.01399 52.22894 33.02383 52.29196 33.03366 52.39302 33.04927 52.45602 33.0593 52.51904 33.0693 52.6201 33.0861 52.68312 33.09607 52.74612 33.10602 52.84718 33.12132 52.91019 33.13109 52.9732 33.14087 53.07426 33.1566 53.13728 33.16656 53.20029 33.17651 53.30135 33.19312 53.36436 33.2029 53.42738 33.21266 53.52843 33.22742 53.59143 33.23706 53.65445 33.24672 53.75551 33.26282 53.81853 33.27254 53.88153 33.28224 53.9826 33.29744 54.04561 33.30714 54.10863 33.31686 54.20967 33.33296 54.27267 33.3426 54.3357 33.35226 54.43675 33.36723 54.49977 33.37677 54.56277 33.3863 54.66385 33.40167 54.72685 33.41139 54.78987 33.4211 54.89093 33.43738 54.95395 33.44685 55.01695 33.45633 55.118 33.47012 55.18102 33.47972 55.24403 33.48932 55.3451 33.5064 55.4081 33.51605 55.47112 33.52571 55.57217 33.53989 55.6352 33.54936 55.6982 33.55884 55.79926 33.57506 55.86226 33.5844 55.92528 33.59375 56.02634 33.6075 56.08936 33.61684 56.15236 33.62619 56.25342 33.64221 56.31644 33.65187 56.37946 33.66151 56.4805 33.67696 56.5435 33.68648 56.60652 33.69601 56.70758 33.71117 56.7706 33.72064 56.8336 33.73012 56.93468 33.74547 56.99768 33.75482 57.0607 33.76416 57.16174 33.77896 57.22475 33.78812 57.28777 33.79729 57.38882 33.81177 57.45184 33.82098 57.51485 33.83022 57.61592 33.84543 57.67892 33.85474 57.74194 33.86404 57.843 33.87881 57.90602 33.88805 57.96902 33.89728 58.07007 33.91223 58.13309 33.92134 58.1961 33.93045 58.29716 33.94466 58.36017 33.95378 58.42319 33.9629 58.52425 33.97797 58.58727 33.98709 58.65027 33.9962 58.75133 34.0104 58.81433 34.01953 58.87735 34.02864 58.97841 34.04372 59.04143 34.05284 59.10443 34.06195 59.20549 34.07622 59.26851 34.08528 59.33153 34.09433 59.43257 34.10902 59.49557 34.11815 59.5586 34.12726 59.65965 34.14203 59.72267 34.15103 59.78568 34.16002 59.88675 34.17409 59.94975 34.18303 60.01277 34.19196 60.11382 34.20647 60.17682 34.21547 60.23984 34.22447 60.3409 34.23903 60.40392 34.24791 60.46692 34.25679 60.568 34.2706 60.631 34.27948 60.69402 34.28836 60.79507 34.30298 60.8581 34.31192 60.9211 34.32086 61.02214 34.33511 61.08516 34.34393 61.14818 34.35275 61.24924 34.36676 61.31224 34.37552 61.37526 34.38426 61.47632 34.39827 61.53934 34.40709 61.60234 34.41591 61.7034 34.43033 61.7664 34.43909 61.82942 34.44785 61.93048 34.46153 61.9935 34.47023 62.0565 34.47893 62.15756 34.49312 62.22058 34.50182 62.2836 34.5105 62.38464 34.52414 62.44765 34.53296 62.51067 34.54178 62.61172 34.55664 62.67474 34.5654 62.73775 34.57416 62.83882 34.58754 62.90182 34.59612 62.96484 34.60468 63.06589 34.6186 63.12889 34.62724 63.19191 34.63588 63.29297 34.64975 63.35599 34.65839 63.41899 34.66702 63.52007 34.68091 63.58307 34.68954 63.64609 34.69818 63.74713 34.71204 63.81015 34.72067 63.87315 34.72931 63.97421 34.7433 64.03723 34.75182 64.10025 34.76033 64.20131 34.7737 64.26431 34.78209 64.32733 34.79048 64.42839 34.80392 64.49141 34.81238 64.55441 34.82082 64.65547 34.83456 64.71848 34.84308 64.7815 34.8516 64.88255 34.86534 64.94557 34.87378 65.00858 34.88223 65.10963 34.89561 65.17265 34.90407 65.23567 34.91252 65.33672 34.92639 65.39972 34.93478 65.46274 34.94318 65.5638 34.95616 65.62682 34.96461 65.68982 34.97307 65.7909 34.98738 65.8539 34.99577 65.91692 35.00417 66.01796 35.01697 66.08096 35.02518 66.14398 35.03339 66.24504 35.04675 66.30806 35.05502 66.37106 35.0633 66.47214 35.07654 66.53514 35.08487 66.59816 35.0932 66.6992 35.10681 66.76222 35.11514 66.82523 35.12347 66.92628 35.13678 66.9893 35.14499 67.05232 35.1532 67.15338 35.16626 67.21638 35.17441 67.2794 35.18256 67.38046 35.19556 67.44348 35.20383 67.50648 35.2121 67.60754 35.22583 67.67055 35.2341 67.73357 35.24237 67.83463 35.25536 67.89764 35.2635 67.96065 35.27165 68.0617 35.28471 68.12473 35.29292 68.18774 35.30113 68.28879 35.31462 68.35179 35.32277 68.41481 35.33092 68.51587 35.34366 68.57889 35.35175 68.64189 35.35983 68.74297 35.37306 68.80597 35.38115 68.86899 35.38924 68.97003 35.4021 69.03304 35.41014 69.09605 35.41818 69.19711 35.43109 69.26013 35.43912 69.32314 35.44714 69.42421 35.46005 69.48721 35.4681 69.55023 35.47614 69.65128 35.48904 69.7143 35.49709 69.7773 35.50513 69.87836 35.51804 69.94138 35.52606 70.0044 35.53409 70.10545 35.547 70.16846 35.55504 70.23148 35.56308 70.33253 35.5761 70.39555 35.58403 70.45856 35.59195 70.55962 35.60428 70.62262 35.61214 70.68564 35.62 70.7867 35.63277 70.84972 35.64069 70.91272 35.6486 71.01378 35.66132 71.0768 35.66924 71.13982 35.67715 71.24086 35.68993 71.30386 35.69778 71.36688 35.70564 71.46794 35.7181 71.53096 35.72589 71.59396 35.73369 71.69504 35.74622 71.75804 35.75401 71.82106 35.76181 71.9221 35.77426 71.9851 35.78212 72.04813 35.78998 72.14919 35.80281 72.2122 35.81067 72.2752 35.81853 72.37628 35.83092 72.43929 35.83878 72.5023 35.84663 72.60335 35.85953 72.66637 35.86732 72.72937 35.87512 72.83043 35.88733 72.89345 35.895 72.95647 35.9027 73.05753 35.91501 73.12053 35.9227 73.18355 35.93037 73.28459 35.9427 73.34761 35.95038 73.41061 35.95805 73.51169 35.97032 73.57469 35.97806 73.63771 35.9858 73.73877 35.9985 73.80179 36.00618 73.86479 36.01385 73.96585 36.02574 74.02887 36.03342 74.09189 36.0411 74.19293 36.05386 74.25594 36.06155 74.31895 36.06923 74.42001 36.08112 74.48303 36.08879 74.54604 36.09647 74.64711 36.1093 74.71011 36.11691 74.77313 36.12453 74.87418 36.13611 74.93718 36.14372 75.0002 36.15135 75.10126 36.16422 75.16428 36.17184 75.22728 36.17946 75.32835 36.19116 75.39136 36.19865 75.45438 36.20615 75.55542 36.21841 75.61844 36.2259 75.68144 36.23341 75.7825 36.24518 75.84552 36.25273 75.90854 36.26028 76.0096 36.27286 76.0726 36.28041 76.13562 36.28796 76.23666 36.29979 76.29968 36.30722 76.36269 36.31467 76.46376 36.32661 76.52676 36.33405 76.58978 36.34148 76.69084 36.35342 76.75386 36.36086 76.81686 36.36829 76.91792 36.38019 76.98094 36.38768 77.04396 36.39517 77.145 36.40744 77.20801 36.41493 77.27103 36.42242 77.37209 36.43437 77.4351 36.44174 77.49811 36.44913 77.59918 36.4607 77.66219 36.46812 77.7252 36.47556 77.82625 36.488 77.88925 36.49538 77.95227 36.50276 78.05333 36.51402 78.11635 36.52133 78.17935 36.52864 78.28043 36.54083 78.34343 36.54814 78.40645 36.55547 78.50749 36.56685 78.57051 36.5741 78.63351 36.58134 78.73457 36.59323 78.79759 36.6005 78.86061 36.60774 78.96167 36.61913 79.02467 36.62643 79.08769 36.63374 79.18874 36.646 79.25175 36.65326 79.31476 36.6605 79.41583 36.67152 79.47884 36.67877 79.54185 36.68604 79.64291 36.69829 79.70593 36.7056 79.76894 36.7129 79.87 36.72435 79.93301 36.73155 79.99603 36.73874 80.09708 36.75024 80.16008 36.75749 80.2231 36.76474 80.32416 36.77669 80.38718 36.78389 80.45018 36.79108 80.55125 36.80226 80.61426 36.80939 80.67728 36.81653 80.77832 36.82823 80.84132 36.83536 80.90434 36.84248 81.0054 36.85374 81.06842 36.86087 81.13142 36.868 81.2325 36.87956 81.2955 36.88681 81.35852 36.89407 81.45956 36.90602 81.52258 36.91321 81.58559 36.9204 81.68665 36.93172 81.74966 36.93874 81.81268 36.94574 81.91374 36.95674 81.97675 36.96382 82.03976 36.97089 82.14081 36.98264 82.20383 36.98976 82.26683 36.9969 82.3679 37.00829 82.43091 37.01529 82.49393 37.0223 82.59499 37.03337 82.658 37.04037 82.72101 37.04738 82.82205 37.05876 82.88507 37.0659 82.94809 37.07303 83.04915 37.08484 83.11215 37.09184 83.17517 37.09886 83.27623 37.10954 83.33925 37.1165 83.40225 37.12347 83.50333 37.13503 83.56633 37.14203 83.62935 37.14903 83.7304 37.16017 83.79341 37.16711 83.85641 37.17406 83.95747 37.18524 84.0205 37.1922 84.0835 37.19914 84.18457 37.21031 84.24757 37.21729 84.3106 37.22424 84.41164 37.23537 84.47466 37.24237 84.53766 37.24939 84.63872 37.26094 84.70174 37.26788 84.76476 37.27483 84.86581 37.28577 84.92882 37.29254 84.99184 37.29932 85.09288 37.30988 85.1559 37.31676 85.2189 37.32364 85.31998 37.33533 85.38298 37.34229 85.446 37.34924 85.54706 37.36017 85.61008 37.36694 85.67308 37.37372 85.77412 37.38428 85.83714 37.39116 85.90016 37.39804 86.00122 37.40971 86.06422 37.41669 86.12724 37.42365 86.2283 37.43456 86.29132 37.44135 86.35432 37.44812 86.4554 37.45877 86.5184 37.46556 86.58142 37.47234 86.68246 37.48337 86.74548 37.49022 86.80849 37.49706 86.90955 37.50815 86.97256 37.51488 87.03557 37.52159 87.13664 37.532 87.19965 37.53867 87.26266 37.54532 87.36371 37.55606 87.42673 37.56288 87.48973 37.5697 87.59079 37.58112 87.65381 37.58797 87.71683 37.5948 87.81789 37.60547 87.88089 37.6122 87.94391 37.61891 88.04495 37.6297 88.10797 37.63641 88.17097 37.64313 88.27205 37.65385 88.33505 37.66063 88.39807 37.6674 88.49913 37.67863 88.56215 37.68529 88.62515 37.69194 88.7262 37.70206 88.78922 37.70865 88.85223 37.71526 88.9533 37.72615 89.0163 37.73286 89.07932 37.7396 89.18037 37.75037 89.2434 37.75708 89.3064 37.76381 89.40746 37.77466 89.47046 37.78131 89.53348 37.78798 89.63454 37.79857 89.69756 37.80511 89.76056 37.81165 89.86162 37.82175 89.92464 37.82846 89.98764 37.83517 90.08871 37.84682 90.15172 37.85355 90.21474 37.86026 90.31578 37.8705 90.3788 37.8769 90.4418 37.88332 90.54286 37.89336 90.60588 37.89983 90.6689 37.90631 90.76996 37.91696 90.83296 37.92363 90.89598 37.93028 90.99702 37.94124 91.06004 37.94785 91.12305 37.95444 91.22412 37.9647 91.28712 37.97119 91.35014 37.97766 91.4512 37.9879 91.51422 37.99455 91.57722 38.00122 91.67827 38.01256 91.74129 38.01921 91.8043 38.02588 91.90536 38.03609 91.96837 38.04256 92.03139 38.04904 92.13245 38.05945 92.19547 38.06593 92.25847 38.0724 92.35953 38.08287 92.42253 38.08928 92.48555 38.09569 92.58661 38.10573 92.64963 38.1122 92.71263 38.11868 92.81369 38.12952 92.87671 38.136 92.93971 38.14247 93.04079 38.15245 93.10379 38.15892 93.16681 38.16539 93.26785 38.17624 93.33087 38.18271 93.39388 38.1892 93.49493 38.19922 93.55795 38.20563 93.62097 38.21205 93.72203 38.22256 93.78503 38.22899 93.84805 38.2354 93.9491 38.24556 94.01212 38.2519 94.07512 38.25827 94.1762 38.26848 94.2392 38.27484 94.30222 38.28119 94.40327 38.2914 94.4663 38.29776 94.5293 38.30411 94.63034 38.31415 94.69336 38.32068 94.75638 38.32722 94.85744 38.33856 94.92044 38.34491 94.98346 38.35127 95.08452 38.3603 95.14754 38.36653 95.21054 38.37277 95.3116 38.38348 95.3746 38.3899 95.43762 38.39632 95.53868 38.40652 95.6017 38.41283 95.6647 38.41911 95.76576 38.42914 95.82878 38.4353 95.89178 38.44148 95.99286 38.45119 96.05586 38.45737 96.11888 38.46353 96.21992 38.47351 96.28294 38.47986 96.34595 38.48622 96.447 38.4968 96.51003 38.50322 96.57304 38.50963 96.6741 38.51991 96.7371 38.52614 96.80013 38.53236 96.90117 38.54196 96.96419 38.5482 97.02719 38.55443 97.12827 38.56483 97.19127 38.57112 97.25429 38.57741 97.35535 38.58745 97.41837 38.59361 97.48137 38.5998 97.58241 38.60951 97.64543 38.61568 97.70845 38.62186 97.80951 38.63188 97.87251 38.63818 97.93553 38.64447 98.03659 38.6548 98.09961 38.6611 98.16261 38.66739 98.26367 38.67747 98.32668 38.68358 98.3897 38.6897 98.49075 38.69923 98.55377 38.70522 98.61678 38.71121 98.71783 38.7206 98.78085 38.72684 98.84386 38.73306 98.94492 38.74397 99.00792 38.7502 99.07094 38.75644 99.172 38.76572 99.23502 38.77184 99.29802 38.77794 99.39908 38.78809 99.4621 38.79431 99.52512 38.80055 99.62617 38.8107 99.68918 38.81682 99.7522 38.82292 99.85324 38.83244 99.91626 38.83844 99.97926 38.84442 100.08034 38.85396 100.14334 38.86006 100.20636 38.86618 100.30742 38.87631 100.37044 38.88255 100.43344 38.88878 100.53448 38.899 100.5975 38.90504 100.66052 38.9111 100.76158 38.92024 100.82458 38.92624 100.8876 38.93224 100.98866 38.94212 101.05168 38.9483 101.11469 38.95447 101.21574 38.96475 101.27875 38.9708 101.34177 38.97685 101.44283 38.98605 101.50584 38.99199 101.56885 38.99791 101.6699 39.00775 101.73293 39.01363 101.79593 39.01949 101.89699 39.02838 101.95999 39.03438 102.02301 39.04036 102.12407 39.05077 102.18709 39.05687 102.25009 39.06299 102.35115 39.07245 102.41417 39.0785 102.47719 39.08455 102.57825 39.09451 102.64125 39.10056 102.70427 39.10661 102.80531 39.11624 102.86833 39.12218 102.93134 39.12811 103.03241 39.13756 103.09541 39.14337 103.15843 39.14917 103.25949 39.15814 103.32251 39.16414 103.38551 39.17012 103.48656 39.18053 103.54958 39.18663 103.6126 39.19275 103.71365 39.20238 103.77666 39.20825 103.83968 39.21411 103.94073 39.2232 104.00375 39.22902 104.06676 39.23482 104.16782 39.24422 104.23082 39.25021 104.29384 39.2562 104.3949 39.26628 104.45792 39.27226 104.52092 39.27826 104.62198 39.28766 104.685 39.29347 104.748 39.29929 104.84906 39.30823 104.91206 39.31422 104.97508 39.32022 105.07614 39.33073 105.13916 39.33672 105.20216 39.34271 105.30322 39.35175 105.36624 39.35748 105.42926 39.36324 105.53032 39.37254 105.59332 39.37823 105.65634 39.38394 105.75739 39.39272 105.8204 39.39857 105.8834 39.40445 105.98448 39.4147 106.04749 39.42064 106.1105 39.42656 106.21156 39.43558 106.27458 39.44139 106.33759 39.44719 106.43863 39.4566 106.50165 39.4626 106.56467 39.46858 106.66573 39.47885 106.72873 39.48465 106.79175 39.49046 106.8928 39.4989 106.95583 39.50453 107.01883 39.51018 107.11989 39.51955 107.18289 39.5253 107.24591 39.53107 107.34697 39.54015 107.40999 39.54607 107.47299 39.552 107.57405 39.56226 107.63707 39.56813 107.70007 39.57399 107.80113 39.58281 107.86414 39.58846 107.92715 39.59409 108.02821 39.60286 108.09123 39.6088 108.15424 39.61472 108.2553 39.62541 108.31831 39.63127 108.38133 39.63715 108.48238 39.64566 108.54538 39.65117 108.6084 39.6567 108.70946 39.66544 108.77248 39.67108 108.83548 39.67671 108.93655 39.68604 108.99956 39.69183 109.06258 39.69765 109.16364 39.70723 109.22665 39.71303 109.28966 39.71884 109.3907 39.72815 109.45372 39.73378 109.51674 39.73943 109.6178 39.74792 109.6808 39.75368 109.74382 39.75945 109.84488 39.76955 109.9079 39.77531 109.9709 39.78108 110.07196 39.7897 110.13496 39.79521 110.19798 39.80074 110.29904 39.8096 110.36206 39.81511 110.42506 39.82063 110.52612 39.82925 110.58914 39.83499 110.65215 39.84074 110.7532 39.85083 110.81621 39.85663 110.87923 39.86244 110.98029 39.87132 111.0433 39.87695 111.10631 39.8826 111.20737 39.89154 111.27039 39.8973 111.3334 39.90306 111.43445 39.9129 111.49745 39.91849 111.56047 39.92407 111.66153 39.93213 111.72455 39.93752 111.78755 39.94292 111.88863 39.95195 111.95163 39.9574 112.01465 39.96286 112.1157 39.97112 112.17873 39.97688 112.24173 39.98264 112.34277 39.9932 112.40579 39.99893 112.46881 40.00468 112.56987 40.01294 112.63287 40.0184 112.69589 40.02385 112.79695 40.03271 112.85997 40.0383 112.92297 40.04387 113.02403 40.05304 113.08704 40.05862 113.15005 40.0642 113.31413 40.07852 113.31413 40.07852"/>
<use data-text="&#x2022;" xlink:href="#font_2_1" transform="matrix(9.963496,0,0,-9.963397,118.069,76.647098)"/>
<use data-text="(" xlink:href="#font_3_1" transform="matrix(9.963496,0,0,-9.963397,124.08054,85.4258)"/>
<use data-text="0" xlink:href="#font_3_3" transform="matrix(9.963496,0,0,-9.963397,127.94639,85.4258)"/>
<use data-text="," xlink:href="#font_1_1" transform="matrix(9.963496,0,0,-9.963397,132.93735,85.4258)"/>
<use data-text="0" xlink:href="#font_3_3" transform="matrix(9.963496,0,0,-9.963397,137.36573,85.4258)"/>
<use data-text=")" xlink:href="#font_3_2" transform="matrix(9.963496,0,0,-9.963397,142.34748,85.4258)"/>
</svg>
