<svg xmlns="http://www.w3.org/2000/svg" xmlns:xlink="http://www.w3.org/1999/xlink" version="1.1" width="250" height="252" viewBox="0 0 250 252">
<defs>
<path id="font_1_2" d="M.33399964 .30233766C.33999635 .32835389 .36299134 .42037965 .43299867 .42037965 .43798829 .42037965 .46199037 .42037965 .48298646 .40734864 .45498658 .402359 .43499757 .37734986 .43499757 .35334779 .43499757 .33735658 .44599916 .31835938 .47299195 .31835938 .49499513 .31835938 .5269928 .3363495 .5269928 .37635804 .5269928 .42837525 .46798707 .4423828 .43399049 .4423828 .37599183 .4423828 .34098817 .38935853 .32899476 .36634828 .3039856 .43237306 .25 .4423828 .22099304 .4423828 .116989139 .4423828 .05999756 .3133545 .05999756 .28834535 .05999756 .27833558 .069992069 .27833558 .07199097 .27833558 .07998657 .27833558 .08299255 .28033448 .084991458 .28933717 .11898804 .39535523 .18499756 .42037965 .21899414 .42037965 .23799134 .42037965 .272995 .4113617 .272995 .35334779 .272995 .32235719 .2559967 .25532533 .21899414 .11528015 .20298767 .053268434 .16799927 .011245728 .12399292 .011245728 .117996219 .011245728 .09498596 .011245728 .07398987 .024276734 .09899902 .029266358 .12098694 .05027771 .12098694 .07827759 .12098694 .105270389 .09899902 .11328125 .083999637 .11328125 .053985597 .11328125 .0289917 .08728027 .0289917 .055267335 .0289917 .009246826 .07899475-.0107421879 .12298584-.0107421879 .18899536-.0107421879 .22499085 .059280397 .22799683 .0652771 .23999024 .028274537 .27598573-.0107421879 .33599855-.0107421879 .43899537-.0107421879 .49598695 .118270877 .49598695 .14328003 .49598695 .1532898 .4869995 .1532898 .48399354 .1532898 .47499085 .1532898 .47299195 .14929199 .47099305 .14228821 .43798829 .03527832 .36999513 .011245728 .33799745 .011245728 .29899598 .011245728 .2829895 .043273927 .2829895 .07727051 .2829895 .09927368 .2889862 .121276859 .2999878 .16529846L.33399964 .30233766Z"/>
<path id="font_1_3" d="M.48599244 .38136292C.48999024 .39537049 .48999024 .39736939 .48999024 .40437318 .48999024 .42237855 .47599793 .43138124 .46099855 .43138124 .45098878 .43138124 .43499757 .42536927 .42599488 .41036988 .42399598 .405365 .41600038 .37435914 .4119873 .35635377 .40499879 .33035279 .397995 .30334474 .3919983 .27633668L.34700013 .09628296C.34298707 .08126831 .2999878 .011245728 .23399353 .011245728 .18299866 .011245728 .17199707 .055267335 .17199707 .0922699 .17199707 .1382904 .18899536 .20030213 .22299195 .28833009 .23899842 .3293457 .24299622 .3403473 .24299622 .36035157 .24299622 .405365 .21099854 .4423828 .16099549 .4423828 .06599426 .4423828 .0289917 .29733277 .0289917 .28833009 .0289917 .27833558 .038986207 .27833558 .040985109 .27833558 .050994874 .27833558 .051986696 .28033448 .056991579 .29634095 .083999637 .3903656 .12399292 .42037965 .1579895 .42037965 .1659851 .42037965 .18299866 .42037965 .18299866 .3883667 .18299866 .36335755 .17298889 .3373413 .1659851 .31834413 .12599182 .21231079 .10798645 .1552887 .10798645 .10827637 .10798645 .019256592 .17098999-.0107421879 .22999573-.0107421879 .2689972-.0107421879 .30299378 .0062561037 .33099366 .03425598 .31799317-.017745972 .30599977-.06674194 .2659912-.11973572 .23999024-.15385437 .20199585-.18309021 .1559906-.18309021 .14199829-.18309021 .09700012-.18005371 .07998657-.14074707 .09599304-.14074707 .10899353-.14074707 .12298584-.1287384 .1329956-.11973572 .14299011-.10673523 .14299011-.08773804 .14299011-.056747438 .115997318-.052734376 .10598755-.052734376 .08299255-.052734376 .049987794-.068740848 .049987794-.11773682 .049987794-.16796875 .09399414-.20507813 .1559906-.20507813 .25898744-.20507813 .3619995-.11373901 .3899994-.00074768069L.48599244 .38136292Z"/>
<path id="font_2_1" d="M.44400025 .24998474C.44400025 .35688783 .35499574 .44381715 .25 .44381715 .14199829 .44381715 .054992677 .35488893 .054992677 .24998474 .054992677 .14407349 .14199829 .056137086 .25 .056137086 .35499574 .056137086 .44400025 .14308167 .44400025 .24998474Z"/>
<path id="font_3_1" d="M.33099366-.2400055C.33099366-.23701477 .33099366-.23500061 .31399537-.21800232 .18899536-.0920105 .15699768 .09700012 .15699768 .25 .15699768 .42399598 .19499207 .59799197 .31799317 .72299197 .33099366 .73498538 .33099366 .7369995 .33099366 .73999026 .33099366 .746994 .32699586 .75 .32099916 .75 .31098939 .75 .22099304 .6819916 .1619873 .5549927 .11099243 .44499208 .09899902 .33399964 .09899902 .25 .09899902 .17199707 .10998535 .050994874 .16499329-.06201172 .22499085-.18501282 .31098939-.25 .32099916-.25 .32699586-.25 .33099366-.24700928 .33099366-.2400055Z"/>
<path id="font_3_3" d="M.45999146 .31976319C.45999146 .39982606 .45498658 .47988893 .41999818 .5539398 .37399293 .65000918 .2919922 .6660156 .25 .6660156 .18998719 .6660156 .116989139 .64001467 .07598877 .54693606 .04399109 .47789 .038986207 .39982606 .038986207 .31976319 .038986207 .24472046 .042999269 .15464783 .083999637 .07859802 .1269989-.0024719239 .19999695-.022460938 .24899292-.022460938 .30299378-.022460938 .3789978-.0014648438 .4229889 .09359741 .45498658 .16265869 .45999146 .2407074 .45999146 .31976319M.24899292-.00047302247C.20999146-.00047302247 .15098572 .024551392 .1329956 .12062073 .12199402 .18066406 .12199402 .2727356 .12199402 .3317871 .12199402 .39582826 .12199402 .46188355 .12998963 .5159149 .14898682 .63500979 .22399903 .64401248 .24899292 .64401248 .28199769 .64401248 .34799195 .6259918 .36698915 .52693179 .3769989 .47088624 .3769989 .39482118 .3769989 .3317871 .3769989 .25672914 .3769989 .18867493 .3659973 .12461853 .35099793 .029556275 .2939911-.00047302247 .24899292-.00047302247Z"/>
<path id="font_1_1" d="M.20298767 .0009918213C.20298767 .066986087 .17799378 .10598755 .13899231 .10598755 .10598755 .10598755 .085998538 .08099365 .085998538 .052993776 .085998538 .025985718 .10598755 0 .13899231 0 .15098572 0 .1639862 .0039978029 .17399597 .0129852299 .1769867 .01499939 .17799378 .015991211 .1789856 .015991211 .17999268 .015991211 .18099976 .01499939 .18099976 .0009918213 .18099976-.07316589 .1459961-.13328552 .11299133-.16635132 .101989749-.17736817 .101989749-.17936707 .101989749-.18237305 .101989749-.18936157 .10699463-.19335938 .11199951-.19335938 .12298584-.19335938 .20298767-.116256717 .20298767 .0009918213Z"/>
<path id="font_3_2" d="M.2889862 .25C.2889862 .32798768 .27799989 .44898988 .22299195 .56199648 .16299439 .68499758 .07699585 .75 .066986087 .75 .06098938 .75 .056991579 .74598696 .056991579 .73999026 .056991579 .7369995 .056991579 .73498538 .07598877 .71699526 .17399597 .6179962 .23098755 .45899964 .23098755 .25 .23098755 .07899475 .19400025-.09700012 .069992069-.2230072 .056991579-.23500061 .056991579-.23701477 .056991579-.2400055 .056991579-.2460022 .06098938-.25 .066986087-.25 .07699585-.25 .16699219-.18200684 .22599793-.055007936 .2769928 .054992677 .2889862 .16600037 .2889862 .25Z"/>
</defs>
<path transform="matrix(1.00009,0,0,-1.00003,120.56023,131.12454)" stroke-width=".19925" stroke-linecap="butt" stroke-miterlimit="10" stroke-linejoin="miter" fill="none" stroke="#929292" d="M-113.38724-113.38724H113.38724M-113.38724-85.04042H113.38724M-113.38724-56.69362H113.38724M-113.38724-28.3468H113.38724M-113.38724 0H113.38724M-113.38724 28.3468H113.38724M-113.38724 56.69362H113.38724M-113.38724 85.04042H113.38724M-113.38724 113.37727H113.38724M-113.38724-113.38724V113.38724M-85.04042-113.38724V113.38724M-56.69362-113.38724V113.38724M-28.3468-113.38724V113.38724M0-113.38724V113.38724M28.3468-113.38724V113.38724M56.69362-113.38724V113.38724M85.04042-113.38724V113.38724M113.37727-113.38724V113.38724M113.38724 113.38724"/>
<path transform="matrix(1.00009,0,0,-1.00003,120.56023,131.12454)" stroke-width="1.19553" stroke-linecap="butt" stroke-miterlimit="10" stroke-linejoin="miter" fill="none" stroke="#000000" d="M-119.0565 0H118.10008"/>
<path transform="matrix(1.00009,0,0,-1.00003,238.67093,131.12454)" stroke-width=".9564" stroke-linecap="round" stroke-linejoin="round" fill="none" stroke="#000000" d="M-1.91284 2.55046C-1.75343 1.59402 0 .15938 .4782 0 0-.15938-1.75343-1.59402-1.91284-2.55046"/>
<use data-text="x" xlink:href="#font_1_2" transform="matrix(9.963496,0,0,-9.962899,243.5463,133.2696)"/>
<path transform="matrix(1.00009,0,0,-1.00003,120.56023,131.12454)" stroke-width="1.19553" stroke-linecap="butt" stroke-miterlimit="10" stroke-linejoin="miter" fill="none" stroke="#000000" d="M0-119.0565V118.10008"/>
<path transform="matrix(0,-1.00003,-1.00009,-0,120.56023,13.020912)" stroke-width=".9564" stroke-linecap="round" stroke-linejoin="round" fill="none" stroke="#000000" d="M-1.91284 2.55046C-1.75343 1.59402 0 .15938 .4782 0 0-.15938-1.75343-1.59402-1.91284-2.55046"/>
<use data-text="y" xlink:href="#font_1_3" transform="matrix(9.963496,0,0,-9.962899,117.93899,6.208786)"/>
<path transform="matrix(1.00009,0,0,-1.00003,120.56023,131.12454)" stroke-width=".79701" stroke-linecap="butt" stroke-miterlimit="10" stroke-linejoin="miter" fill="none" stroke="#0000ff" d="M7.08669 113.38724C7.08669 113.38724 7.24045 110.97838 7.2995 110.08783 7.35854 109.19728 7.45326 107.81065 7.51231 106.9688 7.57135 106.12692 7.66606 104.81638 7.72511 104.02019 7.78415 103.224 7.87888 101.98444 7.93791 101.23032 7.99696 100.4762 8.09169 99.29973 8.15073 98.58492 8.20978 97.8701 8.3045 96.75699 8.36354 96.07835 8.42259 95.39972 8.5173 94.33975 8.57634 93.69377 8.63539 93.04779 8.7301 92.0374 8.78915 91.42252 8.84819 90.80763 8.94292 89.84772 9.00197 89.26198 9.061 88.67625 9.15573 87.76033 9.21478 87.20094 9.27382 86.64156 9.36853 85.76399 9.42758 85.2303 9.48662 84.6966 9.58134 83.86449 9.64038 83.35439 9.69943 82.84428 9.79416 82.04234 9.8532 81.55373 9.91225 81.06511 10.00697 80.30118 10.06601 79.83266 10.12506 79.36412 10.21977 78.62651 10.27881 78.1769 10.33786 77.72728 10.43257 77.02322 10.49162 76.59209 10.55067 76.16096 10.64539 75.48383 10.70444 75.06955 10.76347 74.65529 10.8582 74.00482 10.91725 73.60626 10.97629 73.20772 11.071 72.58061 11.13005 72.19707 11.18909 71.81352 11.28381 71.21088 11.34285 70.84192 11.4019 70.47298 11.49663 69.89304 11.55566 69.53783 11.61472 69.18262 11.70944 68.6244 11.76848 68.28172 11.82753 67.93906 11.92224 67.3989 11.98128 67.06804 12.04033 66.73718 12.13504 66.21658 12.19409 65.89716 12.25314 65.57771 12.34785 65.0741 12.4069 64.76564 12.46594 64.45717 12.56067 63.9721 12.61972 63.6739 12.67876 63.3757 12.77347 62.90471 12.83252 62.61635 12.89156 62.32799 12.98628 61.87444 13.04533 61.59555 13.10437 61.31667 13.1991 60.87657 13.25813 60.60634 13.31718 60.3361 13.41191 59.9095 13.47095 59.64784 13.53 59.38618 13.62471 58.97385 13.68375 58.72047 13.7428 58.4671 13.83752 58.06754 13.89656 57.82166 13.95561 57.57579 14.05032 57.18578 14.10938 56.94836 14.16841 56.71095 14.26314 56.34087 14.32219 56.11053 14.38123 55.88022 14.47594 55.51292 14.53499 55.2883 14.59402 55.06367 14.68875 54.70988 14.7478 54.49156 14.80684 54.27322 14.90157 53.92715 14.9606 53.7147 15.01965 53.50226 15.11438 53.1665 15.17342 52.96037 15.23247 52.75423 15.32718 52.42957 15.38622 52.22894 15.44527 52.02832 15.54 51.70955 15.59903 51.51439 15.65808 51.31923 15.75279 51.01196 15.81184 50.82234 15.8709 50.6327 15.9656 50.33241 16.02466 50.14758 16.0837 49.96274 16.1784 49.67029 16.23746 49.49013 16.2965 49.30997 16.39122 49.02458 16.45027 48.8491 16.50931 48.67363 16.60403 48.39612 16.66309 48.22539 16.72212 48.05464 16.81685 47.78493 16.87589 47.61852 16.93494 47.4521 17.02965 47.1884 17.08868 47.02594 17.14774 46.8635 17.24246 46.60655 17.3015 46.44765 17.36055 46.28874 17.45526 46.0356 17.51431 45.88058 17.57336 45.72557 17.66808 45.48108 17.72713 45.3304 17.78616 45.1797 17.88087 44.942 17.93993 44.7945 17.99896 44.64699 18.09369 44.41162 18.15274 44.26723 18.21178 44.12283 18.3065 43.89464 18.36555 43.7538 18.42459 43.61295 18.51932 43.3893 18.57835 43.25206 18.6374 43.1148 18.73212 42.89871 18.79115 42.76459 18.8502 42.63046 18.94493 42.41675 19.00397 42.28532 19.06302 42.15392 19.15775 41.94598 19.21678 41.81732 19.27583 41.68864 19.37054 41.48381 19.4296 41.35796 19.48863 41.23212 19.58334 41.03337 19.6424 40.9103 19.70143 40.78722 19.79616 40.59122 19.85521 40.47084 19.91425 40.35045 20.00897 40.16031 20.06802 40.04263 20.12706 39.92494 20.22179 39.7379 20.28082 39.62262 20.33987 39.50735 20.43459 39.32495 20.49362 39.21172 20.55267 39.09848 20.6474 38.91739 20.70644 38.80643 20.76549 38.69548 20.86021 38.52014 20.91925 38.41196 20.9783 38.30376 21.07301 38.1327 21.13206 38.02655 21.19112 37.9204 21.28581 37.75104 21.34486 37.64679 21.4039 37.54256 21.49863 37.37755 21.55768 37.27524 21.61671 37.17293 21.71144 37.00964 21.7705 36.90932 21.82953 36.80899 21.92426 36.64996 21.9833 36.55203 22.04234 36.4541 22.13705 36.29979 22.19609 36.20341 22.25514 36.10703 22.34987 35.9522 22.4089 35.85739 22.46796 35.76257 22.56268 35.61243 22.62172 35.52 22.68077 35.4276 22.7755 35.28212 22.83453 35.19128 22.89359 35.10043 22.98828 34.95485 23.04733 34.86514 23.10637 34.77544 23.2011 34.63237 23.26015 34.54463 23.31918 34.45691 23.41391 34.31892 23.47296 34.23276 23.532 34.1466 23.62672 34.00807 23.68578 33.92351 23.74481 33.83896 23.83952 33.70631 23.89856 33.62334 23.95761 33.54034 24.05234 33.40717 24.11137 33.32532 24.17043 33.24347 24.26515 33.11359 24.32419 33.03334 24.38324 32.95311 24.47797 32.82567 24.537 32.747 24.59605 32.66833 24.69075 32.54375 24.7498 32.46628 24.80885 32.38881 24.90356 32.26492 24.96262 32.1886 25.02165 32.11227 25.11638 31.99088 25.17543 31.9161 25.23447 31.84134 25.3292 31.72318 25.38824 31.64966 25.44728 31.57614 25.54199 31.45862 25.60104 31.38625 25.66008 31.31386 25.7548 31.19923 25.81384 31.12802 25.8729 31.0568 25.96762 30.94286 26.02666 30.87282 26.08571 30.8028 26.18044 30.69208 26.23947 30.62325 26.29852 30.5544 26.39322 30.44473 26.45227 30.3767 26.51132 30.30865 26.60603 30.19958 26.66508 30.13275 26.72412 30.0659 26.81885 29.96056 26.8779 29.89485 26.93694 29.82915 27.03166 29.72362 27.09071 29.65912 27.14975 29.5946 27.24446 29.49353 27.30351 29.42987 27.36255 29.3662 27.45728 29.26315 27.51631 29.2002 27.57536 29.13724 27.67009 29.03795 27.72913 28.97614 27.78818 28.91432 27.8829 28.81528 27.94194 28.75467 28.00099 28.69406 28.0957 28.59897 28.15474 28.53928 28.21379 28.47958 28.3085 28.38365 28.36755 28.32431 28.42659 28.26495 28.52132 28.1701 28.58037 28.1115 28.6394 28.05287 28.73413 27.95872 28.79318 27.90172 28.85222 27.84471 28.94693 27.75603 29.00598 27.70058 29.06502 27.64514 29.15974 27.55713 29.21878 27.50204 29.27783 27.44695 29.37256 27.35854 29.4316 27.30351 29.49065 27.24847 29.58537 27.15965 29.64441 27.10541 29.70346 27.05116 29.79817 26.96559 29.85721 26.91249 29.91626 26.85939 30.01097 26.77493 30.07002 26.72261 30.12907 26.67029 30.22379 26.58722 30.28284 26.53532 30.34187 26.48341 30.4366 26.39996 30.49565 26.34846 30.55469 26.29698 30.6494 26.21455 30.70845 26.16422 30.76749 26.11386 30.86221 26.03513 30.92126 25.98557 30.9803 25.936 31.07503 25.85571 31.13406 25.80693 31.19312 25.75815 31.28784 25.68193 31.34688 25.63391 31.40593 25.5859 31.50064 25.50926 31.55968 25.4609 31.61873 25.41255 31.71344 25.33287 31.77249 25.2853 31.83154 25.2377 31.92625 25.16351 31.9853 25.1179 32.04434 25.0723 32.13907 25.00137 32.19812 24.95656 32.25716 24.91174 32.35187 24.83961 32.41092 24.7948 32.46996 24.74998 32.56468 24.67863 32.62373 24.63345 32.68277 24.58829 32.7775 24.51357 32.83653 24.4691 32.89558 24.42464 32.99031 24.3562 33.04935 24.31294 33.1084 24.26968 33.20311 24.20007 33.26215 24.15723 33.3212 24.1144 33.41592 24.04659 33.47496 24.00412 33.53401 23.96164 33.62872 23.89307 33.68777 23.851 33.74683 23.80893 33.84154 23.7422 33.90059 23.70091 33.95963 23.65962 34.05434 23.5939 34.11339 23.5534 34.17242 23.51291 34.26715 23.4491 34.3262 23.40894 34.38524 23.36879 34.47997 23.30376 34.539 23.26404 34.59805 23.22432 34.69278 23.1619 34.75182 23.1226 34.81087 23.0833 34.90558 23.01968 34.96461 22.98073 35.02367 22.94179 35.1184 22.87997 35.17743 22.84187 35.23648 22.80379 35.33119 22.7438 35.39024 22.70607 35.4493 22.66832 35.544 22.60721 35.60306 22.56982 35.6621 22.53244 35.7568 22.47354 35.81586 22.4366 35.8749 22.39964 35.96962 22.34033 36.02867 22.30338 36.0877 22.26642 36.18243 22.20633 36.24149 22.17015 36.30052 22.13397 36.39525 22.07837 36.45428 22.04256 36.51334 22.00674 36.60805 21.94733 36.66708 21.91193 36.72614 21.87653 36.82086 21.82234 36.8799 21.78737 36.93895 21.75238 37.03368 21.69437 37.09271 21.65976 37.15176 21.62514 37.24648 21.57161 37.30553 21.53778 37.36456 21.50394 37.45927 21.44922 37.51833 21.41582 37.57736 21.3824 37.67209 21.33026 37.73114 21.29686 37.79018 21.26344 37.8849 21.2083 37.94395 21.1749 38.00299 21.14148 38.09772 21.08858 38.15675 21.05594 38.2158 21.0233 38.31052 20.97144 38.36955 20.93958 38.4286 20.90771 38.52333 20.85806 38.58237 20.82626 38.64142 20.79446 38.73615 20.74178 38.79518 20.71033 38.85423 20.6789 38.94894 20.63068 39.008 20.5996 39.06705 20.56853 39.16174 20.51736 39.2208 20.48628 39.27983 20.45522 39.37456 20.40622 39.43361 20.37555 39.49265 20.3449 39.58737 20.29549 39.64642 20.26524 39.70546 20.23502 39.80019 20.18707 39.85924 20.15756 39.91827 20.12804 40.01299 20.08197 40.07202 20.05244 40.13107 20.02293 40.2258 19.97421 40.28484 19.94475 40.34389 19.91528 40.43861 19.86873 40.49765 19.84006 40.5567 19.81139 40.65141 19.76672 40.71046 19.73799 40.76952 19.70926 40.86421 19.66121 40.92326 19.63289 40.9823 19.60457 41.07703 19.56215 41.13608 19.53383 41.19511 19.50551 41.28984 19.45662 41.34889 19.42873 41.40793 19.40083 41.50266 19.35982 41.5617 19.3327 41.62074 19.30557 41.71545 19.26039 41.77449 19.23322 41.83354 19.20604 41.92827 19.16345 41.9873 19.13676 42.04636 19.11006 42.14108 19.06744 42.20012 19.04074 42.25917 19.01405 42.3539 18.97104 42.41293 18.94429 42.47198 18.91753 42.56668 18.87381 42.62573 18.84782 42.68477 18.82185 42.7795 18.78221 42.83855 18.757 42.89758 18.7318 42.99231 18.69173 43.05136 18.66617 43.1104 18.64061 43.20512 18.59865 43.26418 18.57274 43.32321 18.54681 43.41792 18.50446 43.47696 18.47931 43.53601 18.45416 43.63074 18.41628 43.68977 18.3915 43.74883 18.36671 43.84355 18.32544 43.90259 18.30066 43.96164 18.2759 44.05637 18.23686 44.1154 18.21286 44.17445 18.18886 44.26915 18.15166 44.3282 18.12766 44.38725 18.10365 44.48196 18.0642 44.54102 18.03984 44.60005 18.01549 44.69478 17.97562 44.75383 17.95204 44.81287 17.92847 44.9076 17.89307 44.96664 17.86986 45.02568 17.84665 45.12039 17.80786 45.17944 17.78465 45.23848 17.76144 45.3332 17.72562 45.39224 17.70247 45.4513 17.67932 45.54602 17.64084 45.60506 17.61769 45.66411 17.59453 45.75883 17.55794 45.81787 17.5355 45.87692 17.51306 45.97163 17.47794 46.03067 17.45592 46.08972 17.43391 46.18443 17.39877 46.24348 17.37677 46.30252 17.35475 46.39725 17.31963 46.4563 17.29718 46.51534 17.27475 46.61006 17.23701 46.66911 17.215 46.72815 17.193 46.82286 17.15968 46.88191 17.13844 46.94095 17.1172 47.03568 17.08311 47.09471 17.06187 47.15376 17.04063 47.24849 17.00655 47.30753 16.98532 47.36658 16.96408 47.4613 16.93 47.52034 16.90875 47.57939 16.88753 47.6741 16.85301 47.73314 16.8322 47.79219 16.81139 47.8869 16.77913 47.94595 16.75867 48.005 16.7382 48.09972 16.70517 48.15877 16.68471 48.2178 16.66425 48.31253 16.63121 48.37158 16.61118 48.43062 16.59114 48.52533 16.56027 48.58438 16.54024 48.64342 16.5202 48.73814 16.48674 48.79718 16.4667 48.85623 16.44667 48.95096 16.41544 49.01 16.39577 49.06905 16.3761 49.16377 16.34451 49.22281 16.32483 49.28186 16.30516 49.37657 16.2731 49.43561 16.2539 49.49466 16.2347 49.58937 16.20569 49.64842 16.18642 49.70747 16.16716 49.80219 16.13478 49.86124 16.11505 49.92027 16.09532 50.015 16.06337 50.07405 16.04411 50.13309 16.02486 50.2278 15.99467 50.28685 15.97621 50.34589 15.95773 50.44061 15.92896 50.49966 15.9109 50.5587 15.89284 50.65343 15.86449 50.71246 15.84602 50.77151 15.82755 50.86624 15.79614 50.92528 15.77766 50.98433 15.7592 51.07904 15.73085 51.13808 15.71278 51.19713 15.69473 51.29185 15.6656 51.35089 15.64748 51.40994 15.62936 51.50465 15.6003 51.5637 15.58217 51.62274 15.56406 51.71747 15.53455 51.77652 15.51685 51.83556 15.49916 51.93027 15.47183 51.98932 15.45456 52.04836 15.4373 52.14308 15.40956 52.20213 15.39229 52.26117 15.37502 52.3559 15.34729 52.41493 15.33 52.47398 15.31271 52.56871 15.28499 52.62775 15.2677 52.6868 15.25041 52.78151 15.22275 52.84055 15.20543 52.8996 15.1881 52.99432 15.15964 53.05336 15.14272 53.11241 15.1258 53.20712 15.09995 53.26617 15.08345 53.32523 15.06696 53.41994 15.03989 53.47899 15.02376 53.53802 15.00763 53.63274 14.98323 53.69179 14.9671 53.75082 14.95097 53.84555 14.92389 53.9046 14.9074 53.96364 14.89091 54.05836 14.86464 54.11742 14.84814 54.17645 14.83165 54.27118 14.8046 54.33022 14.78847 54.38927 14.77234 54.48398 14.74792 54.54301 14.7318 54.60207 14.71565 54.6968 14.68823 54.75583 14.6721 54.81488 14.65598 54.90959 14.63116 54.96864 14.61545 55.0277 14.59973 55.1224 14.57407 55.18146 14.55878 55.2405 14.54349 55.3352 14.52043 55.39426 14.50514 55.4533 14.48985 55.54802 14.46384 55.60707 14.44849 55.6661 14.43314 55.76083 14.40935 55.81989 14.39441 55.87892 14.37947 55.97365 14.35608 56.03268 14.34077 56.09174 14.32549 56.18645 14.29947 56.24548 14.28412 56.30453 14.26877 56.39926 14.24463 56.4583 14.23004 56.51735 14.21547 56.61208 14.19353 56.67111 14.17902 56.73016 14.16449 56.82487 14.14032 56.88393 14.12538 56.94296 14.11044 57.03767 14.08589 57.09673 14.0713 57.15576 14.05673 57.25049 14.03442 57.30954 14.02028 57.36858 14.00612 57.4633 13.98375 57.52235 13.96922 57.58139 13.95471 57.67612 13.93011 57.73515 13.91559 57.7942 13.90108 57.88892 13.87836 57.94795 13.86456 58.007 13.85077 58.10173 13.83026 58.16077 13.81612 58.21982 13.80196 58.31454 13.77663 58.37358 13.76248 58.43263 13.74832 58.52734 13.7274 58.5864 13.71404 58.64545 13.70065 58.74014 13.67975 58.7992 13.66603 58.85823 13.6523 58.95296 13.62874 59.01201 13.61499 59.07104 13.60124 59.16577 13.58035 59.22482 13.56697 59.28386 13.55359 59.37859 13.5319 59.43764 13.51854 59.49667 13.50516 59.59138 13.48389 59.65042 13.4705 59.70947 13.45714 59.8042 13.43546 59.86324 13.42207 59.92229 13.4087 60.01701 13.38744 60.07605 13.37405 60.1351 13.36067 60.22983 13.33858 60.28886 13.32562 60.34792 13.31267 60.44261 13.2936 60.50166 13.28064 60.5607 13.26768 60.65543 13.24521 60.71448 13.2322 60.77351 13.21918 60.86824 13.19937 60.92729 13.18677 60.98633 13.17416 61.08105 13.15388 61.1401 13.14136 61.19914 13.12883 61.29385 13.10892 61.35289 13.09637 61.41194 13.08383 61.50667 13.06355 61.5657 13.05095 61.62476 13.03835 61.71948 13.01772 61.77852 13.00554 61.83757 12.99336 61.9323 12.97533 61.99133 12.96315 62.05038 12.95097 62.14508 12.93034 62.20413 12.91774 62.26318 12.90514 62.3579 12.88449 62.41695 12.87231 62.47598 12.86014 62.57071 12.8421 62.62976 12.82993 62.6888 12.81775 62.78352 12.79668 62.84258 12.7845 62.90161 12.77232 62.99632 12.75375 63.05536 12.74213 63.11441 12.7305 63.20914 12.7124 63.26817 12.70059 63.32722 12.68878 63.42195 12.6688 63.48099 12.65692 63.54004 12.64505 63.63477 12.62665 63.6938 12.61496 63.75285 12.60327 63.84755 12.58408 63.9066 12.57256 63.96565 12.56105 64.06036 12.5433 64.11942 12.5319 64.17845 12.52051 64.27318 12.50179 64.33223 12.49037 64.39127 12.47897 64.486 12.46118 64.54504 12.44972 64.60408 12.43828 64.69879 12.41917 64.75784 12.40778 64.81688 12.39636 64.9116 12.37883 64.97064 12.36755 65.0297 12.35626 65.12442 12.33762 65.18346 12.32646 65.24251 12.31529 65.33723 12.29814 65.39627 12.2871 65.45532 12.27606 65.55003 12.25795 65.60907 12.24686 65.66812 12.23576 65.76283 12.21811 65.82188 12.20708 65.88092 12.19604 65.97565 12.17795 66.0347 12.16728 66.09373 12.1566 66.18846 12.14075 66.24751 12.13008 66.30655 12.1194 66.40126 12.10115 66.46031 12.09029 66.51935 12.07944 66.61407 12.06264 66.67311 12.05179 66.73216 12.04094 66.82689 12.02267 66.88593 12.01201 66.94498 12.00133 67.0397 11.98512 67.09874 11.97481 67.15779 11.96448 67.2525 11.94809 67.31154 11.9376 67.37059 11.92711 67.4653 11.90959 67.52435 11.8991 67.5834 11.88861 67.67812 11.87222 67.73717 11.86191 67.7962 11.85161 67.89093 11.83504 67.94998 11.8247 68.00902 11.81439 68.10373 11.79771 68.16278 11.78752 68.22182 11.77731 68.31654 11.76132 68.3756 11.75117 68.43463 11.74104 68.52936 11.72443 68.5884 11.71442 68.64745 11.70439 68.74217 11.6889 68.80121 11.67894 68.86026 11.66899 68.95497 11.65263 69.014 11.64261 69.07306 11.6326 69.16777 11.61647 69.22682 11.6067 69.28587 11.59692 69.38058 11.58188 69.43964 11.5721 69.49867 11.56233 69.5934 11.54599 69.65245 11.53621 69.71149 11.52644 69.8062 11.5113 69.86525 11.5016 69.92429 11.49188 70.01901 11.47597 70.07806 11.46613 70.1371 11.4563 70.23183 11.44026 70.29086 11.43066 70.34991 11.42107 70.44464 11.40628 70.50368 11.39693 70.56273 11.38759 70.65744 11.37267 70.71648 11.3632 70.77553 11.35373 70.87025 11.33806 70.92929 11.32858 70.98834 11.3191 71.08305 11.30432 71.1421 11.29485 71.20114 11.28539 71.29587 11.26965 71.35492 11.26025 71.41396 11.25084 71.50867 11.2363 71.56772 11.22694 71.62675 11.21759 71.72148 11.20183 71.78053 11.19276 71.83957 11.1837 71.9343 11.17064 71.99333 11.16164 72.05238 11.15263 72.14711 11.13701 72.20615 11.12788 72.2652 11.11876 72.35991 11.10489 72.41895 11.09589 72.478 11.08688 72.57272 11.07195 72.63176 11.063 72.69081 11.05406 72.78552 11.04031 72.84457 11.03143 72.90363 11.02255 72.99834 11.008 73.05739 10.999 73.11642 10.98999 73.21114 10.97548 73.27019 10.96655 73.32922 10.95761 73.42395 10.9433 73.483 10.93454 73.54204 10.9258 73.63676 10.91216 73.69582 10.9034 73.75485 10.89464 73.84958 10.8801 73.90862 10.8714 73.96767 10.8627 74.06238 10.84932 74.12141 10.84068 74.18047 10.83206 74.27519 10.81781 74.33423 10.80911 74.39328 10.80042 74.488 10.78642 74.54704 10.77797 74.6061 10.76952 74.7008 10.7564 74.75986 10.74812 74.8189 10.73985 74.9136 10.72665 74.97266 10.71826 75.0317 10.70988 75.12642 10.69595 75.18547 10.68756 75.2445 10.67917 75.33923 10.66599 75.39828 10.65771 75.45732 10.64944 75.55205 10.63615 75.61108 10.62788 75.67014 10.61961 75.76485 10.60649 75.82388 10.59804 75.88293 10.58958 75.97766 10.57527 76.0367 10.5669 76.09575 10.5585 76.19048 10.54562 76.24951 10.53748 76.30856 10.52933 76.40327 10.51614 76.46233 10.50806 76.52138 10.49997 76.61607 10.48717 76.67513 10.47908 76.73416 10.471 76.82889 10.45764 76.88794 10.44966 76.94698 10.44168 77.0417 10.42935 77.10075 10.42155 77.15979 10.41376 77.25452 10.40129 77.31355 10.39343 77.3726 10.38557 77.46732 10.37288 77.52635 10.3649 77.5854 10.35692 77.68013 10.34377 77.73917 10.3359 77.79822 10.32805 77.89294 10.31596 77.95198 10.30823 78.01103 10.30049 78.10574 10.28792 78.1648 10.28012 78.22385 10.27232 78.31854 10.25974 78.3776 10.252 78.43663 10.24426 78.53136 10.23193 78.59041 10.2243 78.64944 10.21669 78.74417 10.20474 78.80322 10.19707 78.86226 10.18939 78.95699 10.17651 79.01604 10.16896 79.07507 10.1614 79.16978 10.15007 79.22882 10.14256 79.28787 10.13507 79.3826 10.1225 79.44164 10.11488 79.50069 10.10727 79.59541 10.09506 79.65445 10.08763 79.7135 10.0802 79.80823 10.0678 79.86726 10.06125 79.92632 10.05472 80.02101 10.04793 80.08006 10.04048 80.1391 10.03305 80.23383 10.01578 80.29288 10.00763 80.35191 9.99948 80.44664 9.98903 80.50569 9.98166 80.56473 9.97429 80.65945 9.96179 80.7185 9.95442 80.77754 9.94704 80.87225 9.93578 80.93129 9.92847 80.99034 9.92116 81.08507 9.90884 81.1441 9.90164 81.20316 9.89445 81.29788 9.88362 81.35692 9.87656 81.41597 9.86948 81.5107 9.85773 81.56973 9.8506 81.62878 9.84348 81.72348 9.83228 81.78253 9.82509 81.84158 9.8179 81.9363 9.80577 81.99535 9.7987 82.05438 9.79163 82.14911 9.781 82.20816 9.77405 82.2672 9.76707 82.36192 9.7554 82.42097 9.74852 82.48001 9.74164 82.57472 9.73112 82.63377 9.7243 82.69281 9.71748 82.78754 9.70616 82.84657 9.69922 82.90562 9.69228 83.00035 9.68098 83.05939 9.67413 83.11844 9.6673 83.21317 9.65668 83.2722 9.6499 83.33125 9.64313 83.42595 9.63213 83.485 9.62524 83.54405 9.61836 83.63876 9.60695 83.69781 9.60016 83.75685 9.59338 83.85158 9.58325 83.91063 9.57637 83.96967 9.56949 84.06439 9.5572 84.12344 9.55042 84.18248 9.54364 84.27719 9.53398 84.33624 9.5275 84.39528 9.52103 84.49 9.5103 84.54904 9.50371 84.6081 9.49712 84.70282 9.48657 84.76186 9.47992 84.8209 9.47325 84.91563 9.4623 84.97467 9.4557 85.03372 9.4491 85.12843 9.43881 85.18747 9.43233 85.24652 9.42586 85.34123 9.4154 85.40028 9.40898 85.45932 9.40257 85.55405 9.39247 85.6131 9.38606 85.67213 9.37964 85.76686 9.36925 85.82591 9.3627 85.88495 9.35617 85.97966 9.34534 86.03871 9.33891 86.09775 9.3325 86.19247 9.32277 86.25151 9.31642 86.31056 9.31006 86.40529 9.29936 86.46432 9.29308 86.52338 9.28677 86.6181 9.2773 86.67714 9.27101 86.73619 9.26471 86.8309 9.254 86.88994 9.24765 86.94899 9.24129 87.0437 9.2314 87.10275 9.22516 87.1618 9.21893 87.25652 9.20883 87.31557 9.20267 87.3746 9.19649 87.46933 9.18678 87.52838 9.1806 87.58742 9.17444 87.68213 9.16422 87.74118 9.15811 87.80022 9.152 87.89494 9.1426 87.954 9.13649 88.01303 9.13037 88.10776 9.1201 88.1668 9.11398 88.22585 9.10788 88.32057 9.09854 88.37961 9.09238 88.43866 9.0862 88.53337 9.0755 88.5924 9.06944 88.65146 9.0634 88.74619 9.05461 88.80522 9.04868 88.86427 9.04276 88.95898 9.03267 89.01804 9.02663 89.07707 9.02057 89.1718 9.01105 89.23085 9.00499 89.28989 8.99895 89.3846 8.9888 89.44365 8.98293 89.50269 8.97707 89.59741 8.96841 89.65646 8.9626 89.7155 8.9568 89.81023 8.94684 89.86926 8.94098 89.92831 8.9351 90.02304 8.92607 90.08208 8.92021 90.14113 8.91434 90.23584 8.9044 90.29488 8.89859 90.35393 8.89279 90.44865 8.88403 90.50769 8.87827 90.56674 8.87251 90.66145 8.86282 90.7205 8.85706 90.77956 8.8513 90.87427 8.84244 90.93332 8.83673 90.99236 8.83104 91.08707 8.82167 91.14612 8.81596 91.20515 8.81027 91.29988 8.80135 91.35893 8.79564 91.41797 8.78995 91.5127 8.78052 91.57173 8.77487 91.63078 8.76924 91.72551 8.76062 91.78455 8.75497 91.8436 8.74934 91.93831 8.7398 91.99734 8.73422 92.0564 8.72865 92.15112 8.72034 92.21016 8.71475 92.26921 8.70918 92.36392 8.69965 92.42297 8.694 92.48203 8.68837 92.57674 8.67963 92.63579 8.6741 92.69482 8.66858 92.78954 8.6596 92.84859 8.6542 92.90762 8.6488 93.00235 8.64063 93.0614 8.63518 93.12044 8.62971 93.21516 8.62042 93.27422 8.61485 93.33325 8.60927 93.42798 8.60046 93.48701 8.59494 93.54607 8.58943 93.64078 8.58044 93.69981 8.57504 93.75887 8.56966 93.85359 8.5613 93.91263 8.55602 93.97168 8.55074 94.0664 8.54225 94.12544 8.53699 94.1845 8.53171 94.2792 8.5234 94.33826 8.51794 94.3973 8.5125 94.492 8.50296 94.55106 8.49762 94.61009 8.4923 94.70482 8.48468 94.76387 8.47946 94.8229 8.47424 94.91763 8.46527 94.97668 8.46 95.03572 8.45473 95.13045 8.44667 95.18948 8.44139 95.24854 8.43611 95.34325 8.42722 95.40228 8.42194 95.46133 8.41666 95.55606 8.40848 95.6151 8.40332 95.67415 8.39818 95.76888 8.38971 95.82791 8.38474 95.88696 8.37976 95.98167 8.3724 96.04073 8.36743 96.09978 8.36246 96.19447 8.35393 96.25352 8.34883 96.31256 8.34373 96.40729 8.33582 96.46634 8.33066 96.52538 8.3255 96.6201 8.31673 96.67915 8.31163 96.73819 8.30653 96.83292 8.29887 96.89197 8.2939 96.951 8.28893 97.04572 8.28082 97.10475 8.27574 97.1638 8.27065 97.25853 8.26228 97.31757 8.25713 97.37662 8.25197 97.47134 8.24364 97.53038 8.23854 97.58943 8.23344 97.68414 8.22528 97.7432 8.22037 97.80225 8.21545 97.89694 8.20804 97.956 8.20306 98.01503 8.1981 98.10976 8.1892 98.16881 8.18446 98.22784 8.17973 98.32257 8.17363 98.38162 8.1689 98.44066 8.16417 98.53539 8.15533 98.59444 8.1503 98.65347 8.14528 98.74818 8.13742 98.80722 8.13257 98.86627 8.12772 98.961 8.12006 99.02003 8.11526 99.07909 8.11047 99.17381 8.10275 99.23285 8.09796 99.2919 8.09317 99.38663 8.08545 99.44566 8.08066 99.50471 8.07588 99.59941 8.0682 99.65846 8.06337 99.7175 8.05852 99.81223 8.05042 99.87128 8.04562 99.93031 8.04083 100.02504 8.03348 100.08409 8.02875 100.14313 8.02402 100.23785 8.01617 100.2969 8.01144 100.35594 8.00673 100.45065 7.99925 100.50969 7.9946 100.56874 7.98993 100.66347 7.9824 100.7225 7.97772 100.78156 7.97304 100.87628 7.96552 100.93532 7.96085 100.99437 7.95618 101.0891 7.94849 101.14813 7.94398 101.20718 7.93948 101.30188 7.93297 101.36093 7.9284 101.41998 7.92384 101.5147 7.91577 101.57375 7.9111 101.63278 7.90643 101.72751 7.89928 101.78656 7.89467 101.8456 7.89006 101.94032 7.88234 101.99937 7.87779 102.05841 7.87325 102.15312 7.86635 102.21217 7.8618 102.27121 7.85725 102.36594 7.84943 102.42497 7.84492 102.48402 7.84042 102.57875 7.83386 102.63779 7.82936 102.69684 7.82486 102.79156 7.81705 102.8506 7.81248 102.90965 7.80792 103.00436 7.80092 103.0634 7.79648 103.12245 7.79204 103.21716 7.78497 103.27621 7.78047 103.33525 7.77597 103.42998 7.76848 103.48903 7.76404 103.54807 7.7596 103.64279 7.75273 103.70184 7.74847 103.76088 7.74422 103.85559 7.73764 103.91464 7.73334 103.97368 7.72902 104.0684 7.72163 104.12744 7.71732 104.1865 7.713 104.28122 7.70657 104.34026 7.7022 104.3993 7.69781 104.49403 7.69012 104.55307 7.68575 104.61212 7.68137 104.70683 7.67493 104.76587 7.67061 104.82492 7.66629 104.91963 7.65894 104.97868 7.65462 105.03773 7.6503 105.13245 7.64378 105.1915 7.63948 105.25053 7.63516 105.34526 7.62778 105.40431 7.62346 105.46335 7.61914 105.55806 7.6127 105.61711 7.60832 105.67615 7.60394 105.77087 7.5962 105.82991 7.59189 105.88896 7.58757 105.98369 7.58139 106.04272 7.5772 106.10178 7.573 106.1965 7.56581 106.25554 7.56161 106.31459 7.55742 106.4093 7.55098 106.46834 7.5469 106.52739 7.54283 106.6221 7.53622 106.68115 7.53221 106.7402 7.5282 106.83492 7.52206 106.89397 7.51793 106.953 7.5138 107.04773 7.50655 107.10678 7.50235 107.16582 7.49815 107.26053 7.49185 107.31958 7.48766 107.37862 7.48346 107.47334 7.47615 107.5324 7.47208 107.59143 7.468 107.68616 7.46225 107.7452 7.45824 107.80424 7.45422 107.89897 7.44717 107.95801 7.4431 108.01706 7.43903 108.11177 7.43289 108.1708 7.42882 108.22986 7.42474 108.32458 7.41783 108.38362 7.4137 108.44267 7.40956 108.53738 7.40298 108.59644 7.39897 108.65547 7.39496 108.7502 7.38872 108.80925 7.3847 108.86829 7.38069 108.963 7.37396 109.02205 7.37 109.08109 7.36604 109.17581 7.36005 109.23486 7.35616 109.2939 7.35226 109.38863 7.3457 109.44766 7.34187 109.50671 7.33804 109.60144 7.33243 109.66048 7.32848 109.71953 7.32452 109.81424 7.31728 109.87328 7.31332 109.93233 7.30937 110.02705 7.30382 110.08609 7.29993 110.14514 7.29604 110.23985 7.28935 110.2989 7.28522 110.35796 7.28108 110.45267 7.27403 110.51172 7.27008 110.57076 7.26613 110.66547 7.2605 110.72452 7.25667 110.78355 7.25284 110.87828 7.24623 110.93733 7.2424 110.99637 7.23857 111.0911 7.23276 111.15015 7.22899 111.20918 7.22522 111.30391 7.21898 111.36295 7.21515 111.422 7.21132 111.51671 7.20508 111.57574 7.20131 111.6348 7.19754 111.72952 7.1916 111.78856 7.1879 111.84761 7.18419 111.94232 7.17819 112.00137 7.17448 112.06042 7.17078 112.15514 7.16486 112.21419 7.16109 112.27322 7.15732 112.36794 7.15108 112.42699 7.14725 112.48602 7.14342 112.58075 7.13718 112.6398 7.13339 112.69884 7.12962 112.79356 7.12364 112.85262 7.12 112.91165 7.11635 113.00638 7.11073 113.06541 7.10703 113.12447 7.10332 113.27821 7.09317 113.27821 7.09317"/>
<path transform="matrix(1.00009,0,0,-1.00003,120.56023,131.12454)" stroke-width=".79701" stroke-linecap="butt" stroke-miterlimit="10" stroke-linejoin="miter" fill="none" stroke="#0000ff" d="M-113.38724-7.08669C-113.38724-7.08669-113.23346-7.09558-113.17442-7.09923-113.11537-7.10287-113.02065-7.1093-112.96161-7.11307-112.90256-7.11684-112.80785-7.12277-112.7488-7.12648-112.68974-7.13019-112.59505-7.13618-112.536-7.1399-112.47696-7.1436-112.38223-7.14952-112.32318-7.1533-112.26414-7.15707-112.16942-7.1633-112.11037-7.16713-112.05133-7.17096-111.9566-7.17722-111.89755-7.18098-111.83852-7.18475-111.7438-7.19067-111.68477-7.1944-111.62572-7.1981-111.53099-7.20396-111.47195-7.2078-111.4129-7.21162-111.31818-7.21819-111.25914-7.22208-111.20009-7.22597-111.10536-7.23207-111.04633-7.2359-110.98727-7.23973-110.89258-7.24593-110.83353-7.24976-110.77449-7.25359-110.67976-7.25958-110.62071-7.2636-110.56168-7.26761-110.46695-7.27484-110.4079-7.27873-110.34886-7.28262-110.25414-7.28783-110.19508-7.29172-110.13605-7.29561-110.04134-7.3029-109.9823-7.30685-109.92325-7.3108-109.82852-7.31631-109.76949-7.32027-109.71043-7.32422-109.6157-7.33145-109.55667-7.3354-109.49762-7.33936-109.4029-7.3448-109.34386-7.34882-109.2848-7.35283-109.19011-7.3603-109.13106-7.36438-109.072-7.36845-108.9773-7.37431-108.91824-7.3782-108.8592-7.38211-108.76448-7.38847-108.70543-7.39249-108.6464-7.3965-108.55167-7.40324-108.49261-7.4072-108.43358-7.41115-108.33887-7.41708-108.27982-7.42104-108.22078-7.42499-108.12605-7.43173-108.06702-7.43575-108.00797-7.43976-107.91324-7.44601-107.8542-7.45003-107.79515-7.45404-107.70042-7.46059-107.64139-7.46472-107.58234-7.46886-107.48764-7.47574-107.42859-7.47987-107.36954-7.48401-107.27483-7.4905-107.21577-7.49457-107.15674-7.49864-107.06201-7.50514-107.00296-7.50928-106.94392-7.51341-106.8492-7.52022-106.79015-7.52441-106.73111-7.52861-106.6364-7.53535-106.57735-7.53955-106.51831-7.54375-106.42358-7.55043-106.36455-7.55469-106.3055-7.55894-106.21077-7.566-106.15173-7.57025-106.09268-7.57451-105.99796-7.58115-105.93892-7.5854-105.87987-7.58966-105.78516-7.59666-105.72612-7.60098-105.66707-7.6053-105.57236-7.61247-105.5133-7.61655-105.45427-7.62062-105.35954-7.62625-105.30049-7.63039-105.24146-7.63452-105.14673-7.64195-105.08768-7.6464-105.02864-7.65083-104.93393-7.65808-104.87488-7.6624-104.81584-7.66672-104.72112-7.67322-104.66208-7.67754-104.60303-7.68185-104.5083-7.68915-104.44926-7.69353-104.39021-7.6979-104.29549-7.7048-104.23645-7.7091-104.1774-7.71342-104.08269-7.72025-104.02365-7.72469-103.9646-7.72913-103.86989-7.73668-103.81084-7.74112-103.75179-7.74556-103.65707-7.75226-103.59802-7.7567-103.53899-7.76114-103.44426-7.76869-103.38521-7.77313-103.32617-7.77757-103.23146-7.78432-103.17241-7.7887-103.11337-7.79308-103.01865-7.8002-102.9596-7.8047-102.90056-7.8092-102.80583-7.81676-102.7468-7.82114-102.68774-7.82552-102.59302-7.83195-102.53398-7.83627-102.47493-7.84059-102.38022-7.84773-102.32118-7.85228-102.26213-7.85683-102.1674-7.86453-102.10837-7.86914-102.04932-7.87375-101.9546-7.88101-101.89555-7.88557-101.83652-7.89014-101.74179-7.89746-101.68274-7.90202-101.6237-7.90659-101.52899-7.91367-101.46994-7.91846-101.4109-7.92325-101.31618-7.9319-101.25713-7.93663-101.19809-7.94136-101.10336-7.94809-101.04433-7.95264-100.98528-7.95718-100.89055-7.96477-100.83151-7.9695-100.77246-7.97423-100.67775-7.98212-100.61871-7.98679-100.55966-7.99147-100.46494-7.99857-100.4059-8.00323-100.34685-8.00792-100.25214-8.01575-100.19308-8.02054-100.13403-8.02533-100.03932-8.0333-99.98027-8.03784-99.92123-8.04239-99.82652-8.0488-99.76747-8.0534-99.70844-8.05801-99.61371-8.06636-99.55466-8.07115-99.49562-8.07594-99.4009-8.08316-99.34186-8.08801-99.2828-8.09285-99.18808-8.10132-99.12904-8.10617-99.06999-8.11102-98.97528-8.1182-98.91624-8.12305-98.8572-8.1279-98.76247-8.13637-98.70343-8.14122-98.64438-8.14606-98.54967-8.15318-98.49062-8.15808-98.43156-8.163-98.33685-8.1717-98.2778-8.17668-98.21877-8.18166-98.12405-8.18907-98.065-8.19398-98.00597-8.19888-97.91124-8.20717-97.85219-8.21214-97.79315-8.21712-97.69843-8.2248-97.63937-8.22989-97.58034-8.23499-97.48561-8.24382-97.42657-8.24892-97.36752-8.25401-97.27281-8.26186-97.21378-8.26665-97.15472-8.27144-97.06-8.27861-97.00096-8.28352-96.94191-8.28844-96.84718-8.29701-96.78815-8.30211-96.7291-8.3072-96.63438-8.31519-96.57533-8.32028-96.5163-8.32538-96.42159-8.33372-96.36253-8.33888-96.3035-8.34404-96.20877-8.35233-96.14972-8.35748-96.09068-8.36263-95.99596-8.37093-95.9369-8.37608-95.87787-8.38124-95.78314-8.38947-95.7241-8.39468-95.66505-8.39989-95.57034-8.40843-95.5113-8.41371-95.45226-8.41899-95.35753-8.42758-95.2985-8.43274-95.23944-8.4379-95.14471-8.4457-95.08568-8.45091-95.02663-8.45612-94.93192-8.46529-94.87286-8.47038-94.81381-8.47548-94.71912-8.48253-94.66006-8.48769-94.60103-8.49284-94.5063-8.50212-94.44725-8.50758-94.38821-8.51305-94.29349-8.52158-94.23444-8.52704-94.1754-8.5325-94.08067-8.54155-94.02162-8.54694-93.96259-8.55234-93.86787-8.5607-93.80884-8.56598-93.74979-8.57124-93.65506-8.57967-93.59602-8.585-93.53697-8.59035-93.44225-8.59889-93.38321-8.60446-93.32416-8.61005-93.22945-8.61958-93.1704-8.62523-93.11134-8.63087-93.01665-8.63966-92.9576-8.64511-92.89856-8.65057-92.80383-8.6592-92.74478-8.66458-92.68575-8.66998-92.59102-8.67859-92.53197-8.68405-92.47293-8.6895-92.3782-8.6983-92.31915-8.70395-92.26012-8.70958-92.1654-8.71901-92.10637-8.72472-92.04732-8.73041-91.95259-8.73952-91.89355-8.74504-91.8345-8.75055-91.73978-8.75885-91.68074-8.7645-91.62169-8.77014-91.52696-8.78006-91.46793-8.7857-91.40887-8.79134-91.31418-8.79958-91.25513-8.80516-91.19608-8.81075-91.10136-8.82018-91.04231-8.82593-90.98328-8.83168-90.88855-8.84097-90.8295-8.84668-90.77046-8.85237-90.67574-8.86125-90.61668-8.86702-90.55765-8.87277-90.46294-8.88234-90.4039-8.88821-90.34485-8.89407-90.25012-8.90353-90.19109-8.9094-90.13203-8.91527-90.03731-8.92467-89.97827-8.93059-89.91922-8.93652-89.8245-8.94641-89.76546-8.95222-89.7064-8.95804-89.61171-8.9668-89.55266-8.97255-89.4936-8.9783-89.3989-8.98781-89.33984-8.99374-89.2808-8.99966-89.18608-9.00945-89.12703-9.01538-89.068-9.0213-88.97327-9.03058-88.91422-9.03656-88.85518-9.04256-88.76047-9.05257-88.70142-9.05862-88.64238-9.06467-88.54765-9.0742-88.48862-9.08026-88.42957-9.0863-88.33484-9.09615-88.2758-9.10231-88.21675-9.10849-88.12202-9.11858-88.06299-9.12482-88.00394-9.13104-87.90923-9.14119-87.85019-9.1473-87.79114-9.15341-87.69643-9.16281-87.63737-9.16893-87.57834-9.17503-87.48361-9.18524-87.42456-9.1914-87.36552-9.19759-87.2708-9.20724-87.21175-9.21347-87.15271-9.2197-87.058-9.2301-86.99895-9.23639-86.93991-9.24269-86.84518-9.2526-86.78615-9.2589-86.7271-9.26518-86.63237-9.27559-86.57333-9.28181-86.51428-9.28806-86.41956-9.29752-86.36052-9.30388-86.30147-9.31023-86.20676-9.32132-86.14772-9.32767-86.08867-9.33401-85.99396-9.34337-85.9349-9.34973-85.87585-9.35608-85.78114-9.36697-85.72209-9.37352-85.66306-9.38005-85.56833-9.39034-85.50928-9.39687-85.45024-9.4034-85.35553-9.41418-85.29648-9.42065-85.23744-9.42714-85.14272-9.43704-85.08366-9.44359-85.02463-9.45012-84.9299-9.46121-84.87086-9.46782-84.81181-9.47441-84.71709-9.48457-84.65805-9.49117-84.599-9.49776-84.50429-9.50873-84.44525-9.51538-84.3862-9.52203-84.29149-9.5324-84.23244-9.53917-84.17339-9.54596-84.07867-9.55756-84.01962-9.56427-83.96059-9.57098-83.86586-9.5809-83.80681-9.58762-83.74777-9.59435-83.65306-9.60587-83.59401-9.6127-83.53497-9.61955-83.44025-9.63016-83.3812-9.63693-83.32216-9.64372-83.22743-9.65475-83.1684-9.66158-83.10934-9.66841-83.01462-9.6794-82.95558-9.68623-82.89653-9.69308-82.80182-9.70393-82.74278-9.71089-82.68373-9.71785-82.589-9.72935-82.52997-9.73642-82.47092-9.74348-82.3762-9.75497-82.31715-9.76193-82.25812-9.76888-82.16339-9.77957-82.10434-9.78659-82.0453-9.7936-81.95059-9.80547-81.89154-9.81253-81.8325-9.81961-81.73778-9.8305-81.67873-9.83763-81.61969-9.84476-81.52496-9.85693-81.46593-9.86401-81.40688-9.87108-81.31215-9.88159-81.25311-9.88867-81.19406-9.89574-81.09935-9.90787-81.04031-9.91505-80.98126-9.92224-80.88654-9.93338-80.8275-9.94057-80.76845-9.94775-80.67374-9.95958-80.61469-9.96695-80.55563-9.97433-80.46092-9.98628-80.40187-9.99377-80.34283-10.00127-80.24812-10.0136-80.18907-10.02103-80.13004-10.02846-80.03531-10.04004-79.97626-10.04741-79.91722-10.05478-79.8225-10.06685-79.76344-10.07422-79.7044-10.08159-79.60968-10.09306-79.55064-10.10062-79.4916-10.10817-79.39688-10.12111-79.33784-10.12872-79.2788-10.13634-79.18407-10.14792-79.12503-10.15553-79.06598-10.16315-78.97127-10.17604-78.91222-10.18365-78.85316-10.19128-78.75845-10.20305-78.6994-10.21048-78.64037-10.21791-78.54565-10.22968-78.4866-10.23729-78.42757-10.2449-78.33284-10.2576-78.27379-10.2654-78.21475-10.2732-78.12003-10.28572-78.06097-10.29352-78.00194-10.30133-77.90721-10.3139-77.84818-10.32164-77.78912-10.32938-77.69441-10.34146-77.63538-10.34932-77.57632-10.35718-77.4816-10.37033-77.42256-10.37831-77.36351-10.38629-77.26878-10.39888-77.20975-10.40686-77.1507-10.41484-77.05598-10.42769-76.99693-10.43584-76.93788-10.44398-76.84319-10.45763-76.78413-10.46567-76.7251-10.47371-76.63037-10.48581-76.57132-10.49379-76.51228-10.50177-76.41756-10.51498-76.3585-10.5232-76.29947-10.5314-76.20474-10.54501-76.1457-10.55305-76.08665-10.5611-75.99194-10.57307-75.9329-10.58116-75.87386-10.58925-75.77913-10.60312-75.7201-10.61145-75.66104-10.61978-75.56631-10.63295-75.50728-10.64128-75.44823-10.64961-75.35352-10.66318-75.29446-10.67157-75.23541-10.67996-75.14072-10.69333-75.08167-10.70183-75.02263-10.71034-74.9279-10.7246-74.86885-10.73299-74.80981-10.74138-74.71509-10.75395-74.65604-10.7624-74.597-10.77086-74.50227-10.78534-74.44322-10.79398-74.38419-10.80261-74.28947-10.81593-74.23044-10.82468-74.17139-10.83344-74.07666-10.8485-74.01762-10.85712-73.95857-10.86575-73.86385-10.87833-73.80481-10.88696-73.74576-10.8956-73.65103-10.91083-73.592-10.9194-73.53294-10.92798-73.43825-10.94019-73.3792-10.94882-73.32016-10.95746-73.22543-10.97275-73.16638-10.98169-73.10735-10.99063-73.01262-11.00438-72.95357-11.01326-72.89453-11.02214-72.7998-11.0367-72.74075-11.0457-72.68172-11.0547-72.587-11.06915-72.52797-11.07814-72.46892-11.08714-72.37419-11.10147-72.31516-11.11058-72.2561-11.1197-72.16138-11.13461-72.10234-11.14389-72.04329-11.15318-71.94856-11.16846-71.88953-11.17763-71.83047-11.1868-71.73578-11.20088-71.67673-11.21007-71.61768-11.21925-71.52296-11.23459-71.46391-11.24382-71.40488-11.25304-71.31015-11.26727-71.2511-11.27669-71.19206-11.28609-71.09734-11.30219-71.03828-11.31172-70.97925-11.32126-70.88454-11.33604-70.82549-11.34546-70.76645-11.35487-70.67172-11.37016-70.61269-11.37962-70.55363-11.3891-70.45891-11.40425-70.39987-11.41379-70.34082-11.42332-70.2461-11.43887-70.18706-11.44841-70.128-11.45793-70.03331-11.4728-69.97426-11.48256-69.9152-11.49234-69.8205-11.50914-69.76144-11.5189-69.70241-11.52869-69.60768-11.54329-69.54863-11.55307-69.4896-11.56285-69.39487-11.57957-69.33582-11.5894-69.27678-11.59924-69.18207-11.61418-69.12302-11.62402-69.06398-11.63385-68.96925-11.65027-68.91022-11.66035-68.85117-11.67043-68.75644-11.6866-68.6974-11.69669-68.63835-11.70676-68.54362-11.72287-68.48459-11.73302-68.42554-11.74315-68.33083-11.75957-68.27179-11.76978-68.21274-11.77997-68.11803-11.79652-68.05898-11.80655-67.99994-11.81656-67.90521-11.83165-67.84616-11.84201-67.78712-11.85239-67.6924-11.87088-67.63335-11.88138-67.57431-11.89186-67.4796-11.9075-67.42055-11.91771-67.36151-11.9279-67.26678-11.94441-67.20775-11.95491-67.1487-11.9654-67.05397-11.98273-66.99493-11.9934-66.93588-12.00407-66.84116-12.02109-66.78212-12.03189-66.72307-12.04268-66.62836-12.06041-66.56932-12.07126-66.51027-12.0821-66.41556-12.09956-66.3565-12.11018-66.29745-12.12079-66.20274-12.13702-66.14369-12.14781-66.08466-12.15862-65.98993-12.17706-65.93088-12.18805-65.87184-12.19902-65.77713-12.216-65.71808-12.22697-65.65904-12.23795-65.56432-12.25616-65.50526-12.2672-65.44623-12.27823-65.3515-12.29552-65.29247-12.30655-65.23341-12.3176-65.13869-12.33568-65.07965-12.34679-65.0206-12.35788-64.92589-12.3753-64.86685-12.38658-64.8078-12.39786-64.71307-12.4167-64.65404-12.4281-64.59499-12.4395-64.50027-12.45737-64.44122-12.46877-64.38219-12.48016-64.28746-12.49876-64.22841-12.51028-64.16937-12.52179-64.07466-12.54022-64.01561-12.5518-63.95657-12.5634-63.86185-12.5822-63.8028-12.59377-63.74376-12.60533-63.64903-12.62341-63.59-12.63528-63.53094-12.64716-63.43622-12.66759-63.37718-12.6794-63.31813-12.69121-63.22342-12.70868-63.16438-12.72049-63.10533-12.7323-63.0106-12.75261-62.95157-12.7646-62.89252-12.7766-62.7978-12.79526-62.73875-12.807-62.6797-12.81876-62.58499-12.83722-62.52594-12.8494-62.4669-12.86157-62.3722-12.88257-62.31314-12.8948-62.2541-12.90704-62.15938-12.92546-62.10033-12.93764-62.04129-12.94981-61.94656-12.97044-61.88753-12.98262-61.82848-12.9948-61.73375-13.01283-61.67471-13.02542-61.61566-13.03802-61.52095-13.0605-61.46191-13.07346-61.40286-13.0864-61.30814-13.10626-61.2491-13.11887-61.19005-13.13145-61.09534-13.15167-61.03629-13.16428-60.97723-13.17688-60.88252-13.19673-60.82347-13.20969-60.76443-13.22264-60.66972-13.24477-60.61067-13.25772-60.55164-13.27066-60.45691-13.29018-60.39786-13.30312-60.33882-13.31607-60.2441-13.33818-60.18504-13.35114-60.126-13.36407-60.03128-13.38354-59.97224-13.39656-59.9132-13.40956-59.81848-13.43163-59.75945-13.445-59.7004-13.45837-59.60567-13.47963-59.54663-13.49301-59.48758-13.5064-59.39285-13.52808-59.33382-13.54146-59.27477-13.55484-59.18005-13.57574-59.121-13.58946-59.06197-13.6032-58.96725-13.62677-58.9082-13.6405-58.84917-13.65422-58.75444-13.67513-58.69539-13.6885-58.63635-13.70189-58.54163-13.72316-58.48257-13.73695-58.42354-13.75076-58.32881-13.77348-58.26978-13.78801-58.21072-13.80252-58.11601-13.82748-58.05698-13.84164-57.99792-13.85579-57.9032-13.87592-57.84416-13.89008-57.78511-13.90422-57.69038-13.9292-57.63135-13.94373-57.5723-13.95824-57.47758-13.98059-57.41853-13.99475-57.35948-14.00891-57.26479-14.03163-57.20573-14.04579-57.1467-14.05994-57.05197-14.08226-56.99292-14.09683-56.93388-14.1114-56.83916-14.13594-56.7801-14.1509-56.72107-14.16583-56.62634-14.18959-56.56729-14.20454-56.50826-14.21948-56.41354-14.24402-56.3545-14.25859-56.29546-14.27318-56.20073-14.29471-56.1417-14.30965-56.08264-14.32458-55.98792-14.35101-55.92888-14.3663-55.86983-14.38159-55.77512-14.40465-55.71606-14.41994-55.65701-14.43523-55.56232-14.46124-55.50327-14.4766-55.44423-14.49194-55.3495-14.51532-55.29045-14.53067-55.23141-14.54602-55.13669-14.57161-55.07764-14.58733-55.0186-14.60304-54.92387-14.62828-54.86482-14.644-54.80579-14.65971-54.71107-14.68494-54.65204-14.70065-54.59299-14.71637-54.49826-14.74118-54.43922-14.75731-54.38017-14.77344-54.28545-14.80052-54.22641-14.81702-54.16736-14.83351-54.07263-14.85977-54.0136-14.87627-53.95454-14.89276-53.85985-14.9194-53.8008-14.93596-53.74176-14.9525-53.64703-14.97952-53.58798-14.99565-53.52895-15.01178-53.43422-15.03581-53.37517-15.0523-53.31613-15.0688-53.2214-15.09773-53.16235-15.1146-53.10332-15.13145-53.0086-15.15692-52.94957-15.17384-52.89052-15.19077-52.79579-15.21924-52.73676-15.23657-52.6777-15.2539-52.58298-15.28159-52.52394-15.29886-52.46489-15.31612-52.37016-15.34387-52.31113-15.36113-52.25208-15.3784-52.15738-15.40613-52.09833-15.42342-52.03928-15.4407-51.94456-15.46802-51.88551-15.48572-51.82648-15.50342-51.73175-15.53333-51.6727-15.55103-51.61366-15.56873-51.51894-15.59561-51.45988-15.61331-51.40085-15.631-51.30614-15.6605-51.24709-15.67863-51.18805-15.69675-51.09332-15.72588-51.03429-15.74394-50.97523-15.762-50.88051-15.79034-50.82147-15.80882-50.76242-15.82729-50.6677-15.85869-50.60866-15.87715-50.5496-15.89561-50.4549-15.92357-50.39586-15.94203-50.3368-15.96051-50.2421-15.99106-50.18304-16.01038-50.12401-16.02971-50.02928-16.06206-49.97023-16.08131-49.9112-16.10057-49.81647-16.12996-49.75742-16.14922-49.69838-16.16849-49.60367-16.2009-49.54462-16.22015-49.48558-16.23941-49.39085-16.26923-49.33182-16.28806-49.27277-16.3069-49.17804-16.33632-49.119-16.35599-49.05995-16.37566-48.96523-16.40985-48.90619-16.42995-48.84714-16.45004-48.75243-16.48083-48.69339-16.50087-48.63434-16.5209-48.53963-16.55437-48.48058-16.5744-48.42152-16.59444-48.32681-16.62488-48.26776-16.64534-48.20872-16.6658-48.114-16.7011-48.05495-16.72191-47.99591-16.74272-47.9012-16.77504-47.84215-16.79544-47.78311-16.81584-47.68839-16.84814-47.62935-16.86896-47.5703-16.88977-47.47557-16.9243-47.41653-16.94553-47.35748-16.96677-47.26276-17.00085-47.20372-17.0221-47.14467-17.04332-47.04996-17.07741-46.99092-17.09865-46.93187-17.11989-46.83716-17.15396-46.7781-17.1752-46.71906-17.19644-46.62434-17.22975-46.56529-17.25175-46.50626-17.27377-46.41153-17.31151-46.35248-17.33394-46.29344-17.35638-46.19873-17.3911-46.13968-17.41354-46.08064-17.43597-45.98592-17.47334-45.92686-17.49573-45.86783-17.5181-45.7731-17.55206-45.71407-17.57486-45.65501-17.59767-45.56029-17.63687-45.50125-17.66008-45.4422-17.6833-45.34749-17.71906-45.28845-17.74226-45.2294-17.76549-45.13467-17.80426-45.07564-17.82747-45.01659-17.8507-44.92188-17.88608-44.86282-17.90965-44.80379-17.93323-44.70906-17.97353-44.65001-17.99747-44.59097-18.02141-44.49626-18.05823-44.43721-18.08223-44.37817-18.10623-44.28345-18.14647-44.2244-18.17047-44.16536-18.19447-44.07063-18.23091-44.0116-18.25526-43.95255-18.27962-43.85782-18.3213-43.79878-18.34608-43.73973-18.37086-43.64502-18.40912-43.58598-18.4339-43.52693-18.45868-43.4322-18.49959-43.37317-18.52473-43.31412-18.54987-43.2194-18.58957-43.16035-18.61511-43.1013-18.64067-43.00659-18.683-42.94754-18.70897-42.8885-18.73495-42.7938-18.77649-42.73474-18.80241-42.6757-18.82832-42.58098-18.86986-42.52193-18.89584-42.46289-18.92181-42.36816-18.96294-42.30911-18.9897-42.25008-19.01645-42.15535-19.06163-42.09631-19.08875-42.03726-19.11588-41.94255-19.15845-41.88351-19.18521-41.82446-19.21196-41.72974-19.25497-41.6707-19.28166-41.61165-19.30836-41.51694-19.35019-41.45789-19.37769-41.39883-19.40517-41.30412-19.45181-41.24507-19.47977-41.18604-19.50772-41.09132-19.55092-41.03227-19.57924-40.97324-19.60756-40.87851-19.65524-40.81946-19.68393-40.76042-19.71262-40.6657-19.75728-40.60664-19.78601-40.5476-19.81474-40.45288-19.86201-40.39384-19.89111-40.3348-19.92021-40.24008-19.96591-40.18105-19.99577-40.122-20.02565-40.02727-20.07661-39.96823-20.1065-39.90918-20.1364-39.81445-20.1813-39.75542-20.2112-39.69637-20.24107-39.60165-20.29163-39.5426-20.32191-39.48357-20.35222-39.38885-20.39937-39.3298-20.42961-39.27077-20.45985-39.17604-20.50883-39.11699-20.53992-39.05795-20.571-38.96323-20.62218-38.90417-20.65367-38.84514-20.68517-38.75041-20.73557-38.69138-20.767-38.63232-20.79845-38.53761-20.84845-38.47858-20.88033-38.41953-20.91219-38.3248-20.96446-38.26576-20.99667-38.20671-21.02888-38.11198-21.07959-38.05295-21.1126-37.9939-21.1456-37.89919-21.20114-37.84013-21.23457-37.78108-21.268-37.68639-21.32047-37.62733-21.35353-37.5683-21.3866-37.47357-21.43906-37.41452-21.4729-37.35548-21.50673-37.26076-21.56326-37.2017-21.59747-37.14267-21.63168-37.04794-21.68448-36.98889-21.71945-36.92986-21.75444-36.83514-21.81424-36.77611-21.84964-36.71706-21.88506-36.62233-21.93883-36.5633-21.97466-36.50424-22.01047-36.40952-22.07211-36.35048-22.10786-36.29143-22.14362-36.1967-22.19669-36.13766-22.23245-36.07861-22.2682-35.98392-22.3287-35.92487-22.36566-35.86583-22.40262-35.7711-22.46155-35.71205-22.49887-35.65302-22.5362-35.55829-22.59695-35.49924-22.6347-35.4402-22.67245-35.34547-22.73279-35.28642-22.77095-35.22739-22.8091-35.13268-22.87164-35.07364-22.9098-35.01459-22.94795-34.91986-23.00711-34.86082-23.04604-34.80177-23.08498-34.70705-23.15042-34.64801-23.1905-34.58896-23.23059-34.49423-23.29489-34.4352-23.33498-34.37614-23.37508-34.28145-23.43932-34.2224-23.47945-34.16335-23.51958-34.06863-23.58342-34.00958-23.62434-33.95055-23.66527-33.85582-23.73238-33.79677-23.77444-33.73773-23.81651-33.643-23.8855-33.58395-23.92755-33.52492-23.96962-33.4302-24.03558-33.37117-24.07765-33.31212-24.1197-33.21739-24.18787-33.15836-24.23076-33.0993-24.27367-33.00458-24.34364-32.94554-24.38692-32.88649-24.43018-32.79176-24.49782-32.73273-24.54263-32.67368-24.58745-32.57898-24.66441-32.51993-24.71002-32.46088-24.75563-32.36617-24.82617-32.30711-24.87135-32.24808-24.91653-32.15335-24.99005-32.0943-25.03572-32.03526-25.08139-31.94054-25.1537-31.88148-25.20052-31.82245-25.24731-31.72774-25.32515-31.66869-25.3731-31.60965-25.42105-31.51492-25.49811-31.45589-25.54611-31.39684-25.59412-31.30211-25.67076-31.24307-25.71913-31.18402-25.76749-31.0893-25.8456-31.03026-25.89474-30.9712-25.9439-30.8765-26.02382-30.81746-26.07338-30.7584-26.12294-30.6637-26.20131-30.60464-26.25201-30.54561-26.30272-30.45088-26.38737-30.39183-26.43886-30.3328-26.49036-30.23807-26.57117-30.17902-26.62312-30.11998-26.67508-30.02527-26.7607-29.96622-26.81346-29.90718-26.86621-29.81245-26.94986-29.75342-27.00333-29.69437-27.0568-29.59964-27.14418-29.5406-27.19884-29.48155-27.25351-29.38683-27.34193-29.32779-27.39738-29.26874-27.45282-29.17403-27.5427-29.11499-27.5985-29.05594-27.65431-28.96123-27.74263-28.90218-27.79964-28.84312-27.85664-28.74841-27.95157-28.68936-28.00941-28.63033-28.06725-28.5356-28.15839-28.47655-28.2166-28.41751-28.27481-28.3228-28.36963-28.26375-28.42899-28.20471-28.48833-28.10999-28.58426-28.05093-28.64438-27.9919-28.7045-27.89717-28.80106-27.83813-28.86238-27.77908-28.9237-27.68436-29.02428-27.62532-29.08644-27.56627-29.1486-27.47156-29.24753-27.41252-29.31049-27.35347-29.37344-27.25876-29.47601-27.1997-29.54018-27.14066-29.60432-27.04594-29.70758-26.9869-29.77287-26.92786-29.83817-26.83313-29.94427-26.77408-30.01077-26.71504-30.07726-26.62033-30.18486-26.56128-30.25212-26.50224-30.3194-26.40752-30.4276-26.34846-30.49565-26.28943-30.56369-26.1947-30.67294-26.13567-30.74261-26.07661-30.81229-25.98189-30.927-25.92285-30.99782-25.8638-31.06862-25.76909-31.18143-25.71005-31.253-25.651-31.3246-25.55627-31.44067-25.49724-31.51382-25.43819-31.58698-25.34348-31.70592-25.28442-31.78027-25.22539-31.85463-25.13066-31.97426-25.07161-32.04974-25.01257-32.12524-24.91786-32.24773-24.85881-32.32442-24.79977-32.40111-24.70505-32.52464-24.646-32.60254-24.58696-32.68044-24.49223-32.80641-24.4332-32.88585-24.37415-32.9653-24.27942-33.09413-24.22038-33.1752-24.16133-33.25629-24.06662-33.38799-24.00758-33.4702-23.94853-33.55241-23.8538-33.68402-23.79477-33.76779-23.73572-33.85158-23.641-33.98827-23.58195-34.07402-23.5229-34.15977-23.42819-34.29893-23.36914-34.3859-23.3101-34.47285-23.2154-34.61267-23.15634-34.70078-23.0973-34.78886-23.00258-34.93079-22.94353-35.02084-22.88449-35.11092-22.78976-35.25797-22.73071-35.35002-22.67168-35.44206-22.57695-35.59076-22.51791-35.68437-22.45886-35.77798-22.36415-35.92918-22.30511-36.02478-22.24606-36.12036-22.15134-36.27625-22.0923-36.3734-22.03325-36.47055-21.93852-36.62592-21.87949-36.72505-21.82043-36.82419-21.72572-36.98683-21.66667-37.08795-21.60764-37.18907-21.51292-37.35078-21.45387-37.45389-21.39484-37.55698-21.30011-37.72562-21.24106-37.83105-21.18202-37.9365-21.0873-38.10649-21.02824-38.21384-20.96921-38.3212-20.87448-38.49553-20.81544-38.60487-20.7564-38.7142-20.66168-38.8902-20.60265-39.00192-20.5436-39.11366-20.44887-39.2958-20.38983-39.41025-20.33078-39.52469-20.23605-39.71037-20.17702-39.82678-20.11797-39.9432-20.02325-40.13055-19.9642-40.24937-19.90515-40.3682-19.81046-40.56128-19.7514-40.68321-19.69237-40.80515-19.59764-41.00395-19.53859-41.1283-19.47955-41.25262-19.38483-41.45232-19.32578-41.57942-19.26674-41.70653-19.17201-41.91425-19.11298-42.0444-19.05392-42.17456-18.95921-42.38504-18.90018-42.5176-18.84113-42.65016-18.7464-42.86415-18.68736-42.99988-18.62831-43.13562-18.53358-43.35678-18.47455-43.496-18.4155-43.63522-18.32079-43.86095-18.26173-44.00337-18.20268-44.14578-18.10799-44.37683-18.04893-44.52242-17.9899-44.66801-17.89517-44.90364-17.83612-45.05272-17.77708-45.20178-17.68236-45.44382-17.6233-45.59683-17.56427-45.74986-17.46954-45.99911-17.41049-46.15567-17.35146-46.31224-17.25674-46.56487-17.19771-46.72534-17.13866-46.88582-17.04393-47.14745-16.9849-47.31229-16.92584-47.47714-16.83112-47.74475-16.77208-47.91351-16.71303-48.08228-16.6183-48.35551-16.55927-48.52858-16.50021-48.70166-16.40552-48.98314-16.34647-49.16095-16.28743-49.33878-16.1927-49.62807-16.13365-49.8102-16.07462-49.99234-15.97989-50.28683-15.92084-50.47371-15.8618-50.66058-15.76707-50.96472-15.70802-51.15712-15.64899-51.3495-15.55428-51.66258-15.49524-51.86043-15.43619-52.05829-15.34146-52.37982-15.28242-52.58319-15.22337-52.78656-15.12865-53.11739-15.06961-53.3263-15.01056-53.5352-14.91583-53.87372-14.8568-54.08885-14.79774-54.304-14.70305-54.65544-14.644-54.87694-14.58495-55.09845-14.49023-55.45755-14.43118-55.68535-14.37215-55.91316-14.27742-56.285-14.21837-56.51886-14.15933-56.75273-14.0646-57.1296-14.00555-57.37096-13.94652-57.61232-13.8518-58.0087-13.79276-58.25853-13.73372-58.50836-13.63899-58.91435-13.57996-59.17162-13.5209-59.42888-13.42618-59.84732-13.36714-60.11281-13.30809-60.3783-13.21336-60.81096-13.15433-61.08516-13.09528-61.35936-13.00058-61.80583-12.94153-62.08908-12.88248-62.37234-12.78777-62.83365-12.72871-63.12674-12.66968-63.41983-12.57495-63.8983-12.5159-64.2016-12.45686-64.50488-12.36214-64.99887-12.30309-65.31279-12.24405-65.62671-12.14934-66.13924-12.09029-66.46422-12.03125-66.78918-11.93652-67.31866-11.87749-67.65498-11.81844-67.9913-11.72371-68.53923-11.66467-68.88815-11.60562-69.23708-11.5109-69.80783-11.45186-70.16975-11.3928-70.53168-11.2981-71.12111-11.23906-71.49678-11.18001-71.87245-11.0853-72.48682-11.02625-72.87744-10.96721-73.26807-10.87248-73.90619-10.81343-74.31218-10.7544-74.71815-10.65967-75.38101-10.60062-75.80356-10.54158-76.22612-10.44687-76.91743-10.38782-77.35768-10.32878-77.79793-10.23405-78.51799-10.17502-78.97665-10.11597-79.43533-10.02124-80.1852-9.9622-80.66356-9.90315-81.14192-9.80843-81.92517-9.74939-82.42442-9.69034-82.92368-9.59563-83.74075-9.53659-84.26186-9.47754-84.78294-9.38283-85.63469-9.32378-86.18015-9.26472-86.7256-9.17001-87.62085-9.11096-88.19319-9.05193-88.76553-8.9572-89.70532-8.89815-90.30527-8.83911-90.90521-8.7444-91.88779-8.68535-92.51727-8.62631-93.14676-8.53159-94.18051-8.47253-94.84216-8.4135-95.5038-8.31877-96.58972-8.25974-97.286-8.20068-97.98227-8.10596-99.12717-8.04692-99.86046-7.98787-100.59377-7.89316-101.7973-7.83412-102.57118-7.77507-103.34505-7.68034-104.62012-7.6213-105.43803-7.56226-106.25597-7.46754-107.60121-7.4085-108.46625-7.34946-109.33128-7.19568-111.67265-7.19568-111.67265"/>
<use data-text="&#x2022;" xlink:href="#font_2_1" transform="matrix(9.963496,0,0,-9.962899,118.069,133.33861)"/>
<use data-text="(" xlink:href="#font_3_1" transform="matrix(9.963496,0,0,-9.962899,124.08054,142.11687)"/>
<use data-text="0" xlink:href="#font_3_3" transform="matrix(9.963496,0,0,-9.962899,127.94639,142.11687)"/>
<use data-text="," xlink:href="#font_1_1" transform="matrix(9.963496,0,0,-9.962899,132.93735,142.11687)"/>
<use data-text="0" xlink:href="#font_3_3" transform="matrix(9.963496,0,0,-9.962899,137.36573,142.11687)"/>
<use data-text=")" xlink:href="#font_3_2" transform="matrix(9.963496,0,0,-9.962899,142.34748,142.11687)"/>
</svg>
