<svg xmlns="http://www.w3.org/2000/svg" xmlns:xlink="http://www.w3.org/1999/xlink" version="1.1" width="250" height="138" viewBox="0 0 250 138">
<defs>
<path id="font_1_2" d="M.33399964 .30233766C.33999635 .32835389 .36299134 .42037965 .43299867 .42037965 .43798829 .42037965 .46199037 .42037965 .48298646 .40734864 .45498658 .402359 .43499757 .37734986 .43499757 .35334779 .43499757 .33735658 .44599916 .31835938 .47299195 .31835938 .49499513 .31835938 .5269928 .3363495 .5269928 .37635804 .5269928 .42837525 .46798707 .4423828 .43399049 .4423828 .37599183 .4423828 .34098817 .38935853 .32899476 .36634828 .3039856 .43237306 .25 .4423828 .22099304 .4423828 .116989139 .4423828 .05999756 .3133545 .05999756 .28834535 .05999756 .27833558 .069992069 .27833558 .07199097 .27833558 .07998657 .27833558 .08299255 .28033448 .084991458 .28933717 .11898804 .39535523 .18499756 .42037965 .21899414 .42037965 .23799134 .42037965 .272995 .4113617 .272995 .35334779 .272995 .32235719 .2559967 .25532533 .21899414 .11528015 .20298767 .053268434 .16799927 .011245728 .12399292 .011245728 .117996219 .011245728 .09498596 .011245728 .07398987 .024276734 .09899902 .029266358 .12098694 .05027771 .12098694 .07827759 .12098694 .105270389 .09899902 .11328125 .083999637 .11328125 .053985597 .11328125 .0289917 .08728027 .0289917 .055267335 .0289917 .009246826 .07899475-.0107421879 .12298584-.0107421879 .18899536-.0107421879 .22499085 .059280397 .22799683 .0652771 .23999024 .028274537 .27598573-.0107421879 .33599855-.0107421879 .43899537-.0107421879 .49598695 .118270877 .49598695 .14328003 .49598695 .1532898 .4869995 .1532898 .48399354 .1532898 .47499085 .1532898 .47299195 .14929199 .47099305 .14228821 .43798829 .03527832 .36999513 .011245728 .33799745 .011245728 .29899598 .011245728 .2829895 .043273927 .2829895 .07727051 .2829895 .09927368 .2889862 .121276859 .2999878 .16529846L.33399964 .30233766Z"/>
<path id="font_1_3" d="M.48599244 .38136292C.48999024 .39537049 .48999024 .39736939 .48999024 .40437318 .48999024 .42237855 .47599793 .43138124 .46099855 .43138124 .45098878 .43138124 .43499757 .42536927 .42599488 .41036988 .42399598 .405365 .41600038 .37435914 .4119873 .35635377 .40499879 .33035279 .397995 .30334474 .3919983 .27633668L.34700013 .09628296C.34298707 .08126831 .2999878 .011245728 .23399353 .011245728 .18299866 .011245728 .17199707 .055267335 .17199707 .0922699 .17199707 .1382904 .18899536 .20030213 .22299195 .28833009 .23899842 .3293457 .24299622 .3403473 .24299622 .36035157 .24299622 .405365 .21099854 .4423828 .16099549 .4423828 .06599426 .4423828 .0289917 .29733277 .0289917 .28833009 .0289917 .27833558 .038986207 .27833558 .040985109 .27833558 .050994874 .27833558 .051986696 .28033448 .056991579 .29634095 .083999637 .3903656 .12399292 .42037965 .1579895 .42037965 .1659851 .42037965 .18299866 .42037965 .18299866 .3883667 .18299866 .36335755 .17298889 .3373413 .1659851 .31834413 .12599182 .21231079 .10798645 .1552887 .10798645 .10827637 .10798645 .019256592 .17098999-.0107421879 .22999573-.0107421879 .2689972-.0107421879 .30299378 .0062561037 .33099366 .03425598 .31799317-.017745972 .30599977-.06674194 .2659912-.11973572 .23999024-.15385437 .20199585-.18309021 .1559906-.18309021 .14199829-.18309021 .09700012-.18005371 .07998657-.14074707 .09599304-.14074707 .10899353-.14074707 .12298584-.1287384 .1329956-.11973572 .14299011-.10673523 .14299011-.08773804 .14299011-.056747438 .115997318-.052734376 .10598755-.052734376 .08299255-.052734376 .049987794-.068740848 .049987794-.11773682 .049987794-.16796875 .09399414-.20507813 .1559906-.20507813 .25898744-.20507813 .3619995-.11373901 .3899994-.00074768069L.48599244 .38136292Z"/>
<path id="font_2_1" d="M.44400025 .24998474C.44400025 .35688783 .35499574 .44381715 .25 .44381715 .14199829 .44381715 .054992677 .35488893 .054992677 .24998474 .054992677 .14407349 .14199829 .056137086 .25 .056137086 .35499574 .056137086 .44400025 .14308167 .44400025 .24998474Z"/>
<path id="font_3_1" d="M.33099366-.2400055C.33099366-.23701477 .33099366-.23500061 .31399537-.21800232 .18899536-.0920105 .15699768 .09700012 .15699768 .25 .15699768 .42399598 .19499207 .59799197 .31799317 .72299197 .33099366 .73498538 .33099366 .7369995 .33099366 .73999026 .33099366 .746994 .32699586 .75 .32099916 .75 .31098939 .75 .22099304 .6819916 .1619873 .5549927 .11099243 .44499208 .09899902 .33399964 .09899902 .25 .09899902 .17199707 .10998535 .050994874 .16499329-.06201172 .22499085-.18501282 .31098939-.25 .32099916-.25 .32699586-.25 .33099366-.24700928 .33099366-.2400055Z"/>
<path id="font_3_3" d="M.45999146 .31976319C.45999146 .39982606 .45498658 .47988893 .41999818 .5539398 .37399293 .65000918 .2919922 .6660156 .25 .6660156 .18998719 .6660156 .116989139 .64001467 .07598877 .54693606 .04399109 .47789 .038986207 .39982606 .038986207 .31976319 .038986207 .24472046 .042999269 .15464783 .083999637 .07859802 .1269989-.0024719239 .19999695-.022460938 .24899292-.022460938 .30299378-.022460938 .3789978-.0014648438 .4229889 .09359741 .45498658 .16265869 .45999146 .2407074 .45999146 .31976319M.24899292-.00047302247C.20999146-.00047302247 .15098572 .024551392 .1329956 .12062073 .12199402 .18066406 .12199402 .2727356 .12199402 .3317871 .12199402 .39582826 .12199402 .46188355 .12998963 .5159149 .14898682 .63500979 .22399903 .64401248 .24899292 .64401248 .28199769 .64401248 .34799195 .6259918 .36698915 .52693179 .3769989 .47088624 .3769989 .39482118 .3769989 .3317871 .3769989 .25672914 .3769989 .18867493 .3659973 .12461853 .35099793 .029556275 .2939911-.00047302247 .24899292-.00047302247Z"/>
<path id="font_1_1" d="M.20298767 .0009918213C.20298767 .066986087 .17799378 .10598755 .13899231 .10598755 .10598755 .10598755 .085998538 .08099365 .085998538 .052993776 .085998538 .025985718 .10598755 0 .13899231 0 .15098572 0 .1639862 .0039978029 .17399597 .0129852299 .1769867 .01499939 .17799378 .015991211 .1789856 .015991211 .17999268 .015991211 .18099976 .01499939 .18099976 .0009918213 .18099976-.07316589 .1459961-.13328552 .11299133-.16635132 .101989749-.17736817 .101989749-.17936707 .101989749-.18237305 .101989749-.18936157 .10699463-.19335938 .11199951-.19335938 .12298584-.19335938 .20298767-.116256717 .20298767 .0009918213Z"/>
<path id="font_3_2" d="M.2889862 .25C.2889862 .32798768 .27799989 .44898988 .22299195 .56199648 .16299439 .68499758 .07699585 .75 .066986087 .75 .06098938 .75 .056991579 .74598696 .056991579 .73999026 .056991579 .7369995 .056991579 .73498538 .07598877 .71699526 .17399597 .6179962 .23098755 .45899964 .23098755 .25 .23098755 .07899475 .19400025-.09700012 .069992069-.2230072 .056991579-.23500061 .056991579-.23701477 .056991579-.2400055 .056991579-.2460022 .06098938-.25 .066986087-.25 .07699585-.25 .16699219-.18200684 .22599793-.055007936 .2769928 .054992677 .2889862 .16600037 .2889862 .25Z"/>
</defs>
<path transform="matrix(1.00009,0,0,-1.00008,120.56023,74.432918)" stroke-width=".19925" stroke-linecap="butt" stroke-miterlimit="10" stroke-linejoin="miter" fill="none" stroke="#929292" d="M-113.38724-56.69362H113.38724M-113.38724-28.3468H113.38724M-113.38724 0H113.38724M-113.38724 28.3468H113.38724M-113.38724 56.68365H113.38724M-113.38724-56.69362V56.69362M-85.04042-56.69362V56.69362M-56.69362-56.69362V56.69362M-28.3468-56.69362V56.69362M0-56.69362V56.69362M28.3468-56.69362V56.69362M56.69362-56.69362V56.69362M85.04042-56.69362V56.69362M113.37727-56.69362V56.69362M113.38724 56.69362"/>
<path transform="matrix(1.00009,0,0,-1.00008,120.56023,74.432918)" stroke-width="1.19553" stroke-linecap="butt" stroke-miterlimit="10" stroke-linejoin="miter" fill="none" stroke="#000000" d="M-119.0565 0H118.10008"/>
<path transform="matrix(1.00009,0,0,-1.00008,238.67093,74.432918)" stroke-width=".9564" stroke-linecap="round" stroke-linejoin="round" fill="none" stroke="#000000" d="M-1.91284 2.55046C-1.75343 1.59402 0 .15938 .4782 0 0-.15938-1.75343-1.59402-1.91284-2.55046"/>
<use data-text="x" xlink:href="#font_1_2" transform="matrix(9.963496,0,0,-9.963397,243.5463,76.57809)"/>
<path transform="matrix(1.00009,0,0,-1.00008,120.56023,74.432918)" stroke-width="1.19553" stroke-linecap="butt" stroke-miterlimit="10" stroke-linejoin="miter" fill="none" stroke="#000000" d="M0-62.36288V61.40646"/>
<path transform="matrix(0,-1.00008,-1.00009,-0,120.56023,13.021542)" stroke-width=".9564" stroke-linecap="round" stroke-linejoin="round" fill="none" stroke="#000000" d="M-1.91284 2.55046C-1.75343 1.59402 0 .15938 .4782 0 0-.15938-1.75343-1.59402-1.91284-2.55046"/>
<use data-text="y" xlink:href="#font_1_3" transform="matrix(9.963496,0,0,-9.963397,117.93899,6.2094576)"/>
<path transform="matrix(1.00009,0,0,-1.00008,120.56023,74.432918)" stroke-width=".79701" stroke-linecap="butt" stroke-miterlimit="10" stroke-linejoin="miter" fill="none" stroke="#0000ff" d="M-113.38724-37.4024C-113.38724-37.4024-113.05908-37.37941-112.93306-37.37083-112.80704-37.36226-112.60492-37.34882-112.4789-37.34055-112.35287-37.33228-112.15074-37.31955-112.02472-37.31116-111.8987-37.30276-111.6966-37.28839-111.57057-37.28-111.44453-37.2716-111.24243-37.25903-111.11641-37.25058-110.99039-37.24213-110.78825-37.22758-110.66223-37.21901-110.53621-37.21043-110.33409-37.19711-110.20807-37.18874-110.08205-37.18034-109.87993-37.16698-109.75389-37.15846-109.62787-37.14995-109.42577-37.13588-109.29974-37.12732-109.17372-37.11874-108.9716-37.10524-108.84558-37.0966-108.71956-37.08797-108.51743-37.07361-108.3914-37.06503-108.26538-37.05646-108.06328-37.04332-107.93724-37.03474-107.81122-37.02617-107.60912-37.01193-107.4831-37.00317-107.35706-36.99442-107.15494-36.98024-107.02892-36.9716-106.9029-36.96297-106.70078-36.94958-106.57475-36.94089-106.44873-36.93219-106.2466-36.91765-106.12057-36.90889-105.99455-36.90013-105.79245-36.88657-105.66643-36.87775-105.54039-36.86893-105.33829-36.85411-105.21227-36.8453-105.08624-36.83649-104.88411-36.82297-104.75809-36.81415-104.63206-36.80533-104.42995-36.79059-104.30392-36.78171-104.1779-36.77283-103.9758-36.7589-103.84976-36.75014-103.72374-36.74138-103.52162-36.72755-103.3956-36.71857-103.26958-36.70956-103.06746-36.69432-102.94144-36.68526-102.81541-36.6762-102.61328-36.66225-102.48726-36.65326-102.36124-36.64426-102.15913-36.6294-102.0331-36.62039-101.90707-36.61139-101.70497-36.59743-101.57895-36.58838-101.45291-36.57932-101.2508-36.56422-101.12477-36.55507-100.99875-36.5459-100.79663-36.53133-100.67061-36.5222-100.54459-36.51308-100.34245-36.49849-100.21643-36.48932-100.09041-36.48015-99.8883-36.46509-99.76228-36.45602-99.63625-36.44696-99.43414-36.4332-99.30812-36.42401-99.1821-36.41483-98.97997-36.39919-98.85394-36.38983-98.72792-36.38048-98.5258-36.36588-98.39978-36.35652-98.27376-36.34718-98.07166-36.33177-97.94562-36.32237-97.8196-36.31296-97.61748-36.29797-97.49146-36.28862-97.36543-36.27927-97.16331-36.2643-97.0373-36.25488-96.91127-36.24548-96.70914-36.23012-96.58311-36.22072-96.45709-36.2113-96.25499-36.19646-96.12895-36.18698-96.00293-36.1775-95.80083-36.16179-95.6748-36.15237-95.54877-36.14297-95.34665-36.12854-95.22063-36.11908-95.0946-36.1096-94.89249-36.09381-94.76646-36.08403-94.64044-36.07425-94.43832-36.05827-94.3123-36.04857-94.18628-36.03885-93.98416-36.02356-93.85814-36.01396-93.7321-36.00438-93.53-35.98895-93.40398-35.97937-93.27795-35.96977-93.07582-35.95453-92.9498-35.94475-92.82378-35.93498-92.62166-35.91876-92.49564-35.90886-92.36961-35.89896-92.16751-35.88316-92.04147-35.8734-91.91545-35.86362-91.71333-35.84819-91.58731-35.83835-91.46129-35.82852-91.25917-35.81235-91.13315-35.80244-91.00713-35.79254-90.805-35.77687-90.67897-35.76698-90.55295-35.75708-90.35085-35.74104-90.22481-35.7311-90.09879-35.72113-89.89668-35.70526-89.77066-35.69518-89.64462-35.6851-89.4425-35.6685-89.31648-35.65842-89.19046-35.64835-88.98834-35.63254-88.86232-35.62251-88.7363-35.6125-88.53418-35.59639-88.40816-35.58618-88.28214-35.57599-88.08002-35.55925-87.954-35.54898-87.82796-35.53873-87.62585-35.52237-87.49983-35.51222-87.37381-35.50209-87.17168-35.48616-87.04565-35.47589-86.91963-35.46564-86.71751-35.44864-86.59149-35.43825-86.46547-35.42787-86.26337-35.41138-86.13733-35.40105-86.0113-35.39073-85.80919-35.37422-85.68317-35.36385-85.55714-35.35349-85.35503-35.33665-85.229-35.32623-85.10298-35.3158-84.90086-35.29897-84.77484-35.2886-84.64882-35.27823-84.4467-35.26195-84.32066-35.2514-84.19464-35.24086-83.99254-35.22314-83.86652-35.21248-83.74048-35.2018-83.53836-35.18489-83.41234-35.17441-83.28632-35.16391-83.0842-35.14745-82.95818-35.13678-82.83215-35.12611-82.63004-35.1082-82.50401-35.09741-82.37799-35.08661-82.17587-35.06966-82.04985-35.05891-81.92381-35.04819-81.72171-35.03078-81.59569-35.01999-81.46967-35.00919-81.26753-34.99187-81.14151-34.98106-81.01549-34.97028-80.81337-34.95305-80.68735-34.94214-80.56133-34.93121-80.35922-34.91344-80.23318-34.90234-80.10716-34.89124-79.90504-34.87315-79.77902-34.8621-79.653-34.85107-79.45088-34.83372-79.32486-34.82275-79.19884-34.81178-78.99672-34.79411-78.8707-34.78296-78.74467-34.77179-78.54254-34.7534-78.41652-34.74231-78.2905-34.7312-78.0884-34.71411-77.96237-34.70294-77.83633-34.69179-77.63422-34.67314-77.5082-34.66185-77.38217-34.65057-77.18005-34.63284-77.05403-34.62161-76.92801-34.6104-76.72589-34.5923-76.59987-34.58096-76.47385-34.56963-76.27173-34.55133-76.1457-34.53987-76.01967-34.52841-75.81757-34.50992-75.69154-34.49834-75.56552-34.48677-75.3634-34.46797-75.23738-34.4564-75.11136-34.44484-74.90923-34.42645-74.7832-34.41487-74.65718-34.40329-74.45508-34.38454-74.32904-34.37291-74.20302-34.36128-74.0009-34.34265-73.87488-34.33095-73.74886-34.31926-73.54674-34.30032-73.42072-34.28857-73.2947-34.27682-73.09258-34.25792-72.96655-34.24617-72.84053-34.23442-72.6384-34.21567-72.51237-34.2038-72.38635-34.19191-72.18425-34.17247-72.05823-34.16054-71.93219-34.1486-71.73007-34.12984-71.60405-34.11772-71.47803-34.1056-71.27591-34.08534-71.14989-34.07317-71.02386-34.06099-70.82175-34.0419-70.69572-34.0299-70.5697-34.01791-70.36758-33.99884-70.24156-33.98666-70.11552-33.97449-69.91342-33.95435-69.7874-33.94211-69.66138-33.92987-69.45926-33.9107-69.33324-33.8984-69.20721-33.88611-69.00508-33.86584-68.87906-33.85342-68.75304-33.841-68.55093-33.8213-68.4249-33.80888-68.29887-33.79646-68.09676-33.7765-67.97073-33.7639-67.84471-33.7513-67.6426-33.73065-67.51657-33.71806-67.39055-33.70546-67.18843-33.68561-67.06241-33.67308-66.93639-33.66054-66.73425-33.64032-66.60823-33.62766-66.48221-33.61499-66.2801-33.59464-66.15408-33.5818-66.02805-33.56897-65.82594-33.54797-65.69992-33.53508-65.5739-33.5222-65.37177-33.50177-65.24574-33.48882-65.11972-33.47586-64.9176-33.45467-64.79158-33.44165-64.66556-33.42863-64.46344-33.408-64.33742-33.39494-64.21138-33.38187-64.00928-33.3605-63.88326-33.34737-63.75723-33.33424-63.55511-33.31335-63.4291-33.30022-63.30307-33.28708-63.10094-33.26596-62.97491-33.25266-62.84889-33.23933-62.64679-33.21764-62.52075-33.2042-62.39473-33.19077-62.19261-33.16925-62.06659-33.15575-61.94057-33.14226-61.73845-33.12044-61.61243-33.10687-61.4864-33.09332-61.28429-33.07162-61.15826-33.058-61.03224-33.04439-60.83011-33.02231-60.70409-33.00868-60.57806-32.99507-60.37596-32.9735-60.24994-32.95981-60.1239-32.94614-59.9218-32.92392-59.79578-32.91006-59.66975-32.89622-59.46762-32.87386-59.3416-32.8599-59.21558-32.84592-59.01346-32.82338-58.88744-32.80928-58.76141-32.7952-58.5593-32.77246-58.43326-32.75826-58.30724-32.74403-58.10513-32.72105-57.97911-32.70677-57.85309-32.6925-57.65097-32.66963-57.52495-32.6553-57.39893-32.64096-57.1968-32.61792-57.07077-32.60341-56.94475-32.58888-56.74265-32.56516-56.61661-32.55063-56.49059-32.53612-56.28848-32.51318-56.16246-32.49872-56.03644-32.48427-55.8343-32.46115-55.70828-32.4464-55.58226-32.43164-55.38014-32.40721-55.25412-32.39232-55.1281-32.37744-54.92596-32.35394-54.79994-32.33911-54.67392-32.3243-54.47182-32.30042-54.3458-32.28548-54.21976-32.27055-54.01765-32.24641-53.89163-32.23143-53.76561-32.21643-53.56348-32.1924-53.43745-32.17735-53.31143-32.16231-53.10931-32.13803-52.98329-32.12285-52.85727-32.10768-52.65515-32.08339-52.52911-32.06792-52.40309-32.05243-52.20099-32.02692-52.07497-32.01126-51.94894-31.99559-51.74683-31.97063-51.6208-31.95502-51.49478-31.93942-51.29265-31.91432-51.16663-31.89879-51.0406-31.88326-50.8385-31.85872-50.71246-31.843-50.58644-31.82729-50.38434-31.80144-50.25832-31.78548-50.1323-31.76952-49.93016-31.74408-49.80414-31.72795-49.67812-31.71182-49.476-31.68532-49.34998-31.66911-49.22395-31.65291-49.02182-31.62735-48.8958-31.61116-48.76978-31.59497-48.56767-31.56877-48.44165-31.55234-48.31561-31.5359-48.11351-31.5092-47.98749-31.49265-47.86147-31.47609-47.65933-31.44951-47.53331-31.43295-47.40729-31.4164-47.20517-31.39-47.07915-31.37326-46.95313-31.35652-46.75102-31.32933-46.62498-31.31229-46.49896-31.29524-46.29684-31.26753-46.17082-31.25043-46.0448-31.23332-45.84268-31.20622-45.71666-31.189-45.59064-31.17177-45.3885-31.14362-45.26248-31.12628-45.13646-31.10896-44.93436-31.08139-44.80832-31.06401-44.6823-31.04662-44.4802-31.01843-44.35417-31.00085-44.22815-30.98328-44.02602-30.95502-43.9-30.93727-43.77397-30.91951-43.57185-30.89076-43.44583-30.87282-43.31981-30.85489-43.11768-30.82607-42.99165-30.80794-42.86563-30.78983-42.66353-30.76038-42.5375-30.74219-42.41147-30.72401-42.20937-30.69518-42.08334-30.67686-41.95732-30.65857-41.75519-30.6288-41.62917-30.61028-41.50314-30.59174-41.30103-30.56189-41.175-30.54323-41.04898-30.52458-40.84688-30.49464-40.72084-30.47575-40.59482-30.45685-40.3927-30.426-40.26668-30.40697-40.14066-30.38795-39.93854-30.35771-39.81252-30.33862-39.6865-30.31955-39.48436-30.2888-39.35834-30.26942-39.23232-30.25005-39.03021-30.21854-38.90417-30.19891-38.77815-30.1793-38.57605-30.14772-38.45003-30.12799-38.32399-30.10826-38.12187-30.07658-37.99585-30.05661-37.86983-30.03664-37.66771-30.0041-37.54169-29.98395-37.41566-29.96379-37.21355-29.93156-37.08752-29.91129-36.9615-29.891-36.75938-29.85828-36.63336-29.83775-36.50732-29.81723-36.30522-29.784-36.1792-29.76335-36.05318-29.7427-35.85104-29.70988-35.72502-29.68895-35.599-29.66801-35.39688-29.63364-35.27086-29.6124-35.14484-29.59116-34.94273-29.5572-34.8167-29.53584-34.69067-29.51448-34.48856-29.48001-34.36253-29.45842-34.23651-29.43681-34.0344-29.40198-33.90837-29.38013-33.78235-29.35828-33.58022-29.32304-33.4542-29.30096-33.32817-29.2789-33.12607-29.24326-33.00003-29.22095-32.87401-29.19862-32.6719-29.16257-32.54588-29.14008-32.41985-29.11757-32.21773-29.08156-32.0917-29.05876-31.96568-29.03595-31.76357-28.99886-31.63754-28.97571-31.51152-28.95256-31.3094-28.91513-31.18338-28.8918-31.05736-28.86845-30.85524-28.83102-30.72922-28.80745-30.60318-28.78387-30.40108-28.74568-30.27505-28.7218-30.14903-28.69792-29.9469-28.65952-29.82088-28.63528-29.69485-28.61105-29.49274-28.5716-29.36671-28.54706-29.24069-28.52252-29.03859-28.48311-28.91255-28.45839-28.78653-28.43367-28.58441-28.39322-28.45839-28.36887-28.33237-28.34451-28.13025-28.30774-28.00423-28.28278-27.8782-28.25781-27.67609-28.21452-27.55006-28.18892-27.42404-28.1633-27.22192-28.12401-27.09589-28.09808-26.96986-28.07216-26.76776-28.02876-26.64174-28.00206-26.5157-27.97537-26.31358-27.93237-26.18756-27.90561-26.06154-27.87886-25.85942-27.83633-25.7334-27.80916-25.60738-27.78197-25.40526-27.73721-25.27924-27.70967-25.15321-27.68213-24.9511-27.6385-24.82507-27.61061-24.69904-27.58272-24.49693-27.53685-24.37091-27.50853-24.24489-27.48021-24.04277-27.43555-23.91675-27.40645-23.79073-27.37735-23.5886-27.32828-23.46257-27.29877-23.33655-27.26924-23.13445-27.22316-23.0084-27.19363-22.88239-27.16412-22.68027-27.11618-22.55424-27.08595-22.42822-27.05571-22.2261-27.0063-22.10008-26.97565-21.97406-26.94498-21.77194-26.89641-21.64592-26.86491-21.5199-26.83342-21.31778-26.78044-21.19174-26.74857-21.06572-26.7167-20.86362-26.66747-20.7376-26.63524-20.61156-26.60301-20.40944-26.54935-20.28342-26.51628-20.1574-26.48322-19.95528-26.43033-19.82925-26.39693-19.70323-26.36351-19.50111-26.30957-19.37509-26.27536-19.24907-26.24117-19.04695-26.1854-18.92093-26.15036-18.79489-26.11533-18.59279-26.05818-18.46677-26.02277-18.34074-25.98737-18.13863-25.93135-18.0126-25.89516-17.88658-25.85898-17.68445-25.7989-17.55843-25.76195-17.4324-25.72499-17.2303-25.66646-17.10426-25.62872-16.97824-25.59097-16.77612-25.52846-16.6501-25.48988-16.52408-25.4513-16.32196-25.38995-16.19594-25.3506-16.06992-25.31123-15.8678-25.24663-15.74178-25.20613-15.61575-25.16563-15.41364-25.09991-15.2876-25.05864-15.16158-25.01736-14.95947-24.95105-14.83345-24.90855-14.70741-24.86607-14.50531-24.7961-14.37929-24.7524-14.25327-24.70871-14.05113-24.63806-13.92511-24.59366-13.79909-24.54926-13.59697-24.47794-13.47095-24.43233-13.34492-24.38672-13.1428-24.3118-13.01678-24.26494-12.89075-24.21806-12.68864-24.14288-12.56262-24.09451-12.4366-24.04616-12.23448-23.96623-12.10846-23.9163-11.98244-23.86638-11.7803-23.78583-11.65428-23.73465-11.52826-23.68346-11.32616-23.60045-11.20012-23.54735-11.0741-23.49425-10.87198-23.40651-10.74596-23.35184-10.61993-23.29718-10.41782-23.20995-10.2918-23.1533-10.16577-23.09666-9.96365-23.00252-9.83763-22.94353-9.71161-22.88455-9.50949-22.78908-9.38345-22.72812-9.25743-22.66716-9.05533-22.56737-8.9293-22.50407-8.80327-22.44077-8.60117-22.3383-8.47514-22.2718-8.34912-22.2053-8.14699-22.09448-8.02097-22.02481-7.89494-21.95514-7.69283-21.842-7.5668-21.76962-7.44078-21.69725-7.23866-21.57909-7.11264-21.50317-6.9866-21.42728-6.7845-21.30269-6.65848-21.22246-6.53246-21.14223-6.33034-21.00943-6.20432-20.92488-6.0783-20.84032-5.87616-20.7023-5.75014-20.613-5.62411-20.52371-5.42201-20.37607-5.29597-20.28125-5.16995-20.18645-4.96785-20.02994-4.84183-19.92961-4.7158-19.82927-4.51367-19.66426-4.38765-19.55804-4.26163-19.45184-4.05951-19.29184-3.93349-19.16402-3.80746-19.0362-3.60535-18.78072-3.47931-18.63675-3.35329-18.49278-3.15118-18.27663-3.02516-18.12636-2.89912-17.97609-2.69702-17.72206-2.571-17.55367-2.44498-17.38528-2.24284-17.11722-2.11682-16.91264-1.9908-16.70807-1.78868-16.33055-1.66266-16.07916-1.53664-15.82776-1.33452-15.42686-1.2085-15.10075-1.08246-14.77464-.88036-14.23819-.75433-13.72874-.62831-13.2193-.4262-14.72086-.30017-11.42892-.17415-8.13701 .02795 6.58534 .15398 9.99724 .28 13.40913 .4821 12.50471 .60814 13.16168 .73416 13.81865 .93626 14.36797 1.06229 14.73222 1.18831 15.0965 1.39044 15.51576 1.51646 15.78719 1.64249 16.05862 1.8446 16.47107 1.97063 16.6886 2.09665 16.90614 2.29878 17.18045 2.4248 17.35513 2.55083 17.52982 2.75293 17.79193 2.87895 17.94772 3.00499 18.10352 3.20709 18.32774 3.33311 18.47801 3.45914 18.62828 3.66127 18.89822 3.7873 19.03079 3.91331 19.16335 4.11543 19.32494 4.24146 19.43349 4.36748 19.54204 4.56958 19.711 4.6956 19.81325 4.82164 19.9155 5.02376 20.07414 5.14978 20.17052 5.2758 20.2669 5.47792 20.41705 5.60394 20.5079 5.72997 20.59875 5.9321 20.73921 6.05812 20.8254 6.18414 20.91158 6.38625 21.0472 6.51228 21.12904 6.6383 21.21089 6.84041 21.3379 6.96643 21.41537 7.09245 21.49284 7.29459 21.61388 7.42061 21.68744 7.54663 21.761 7.74875 21.87564 7.87477 21.94566 8.0008 22.01569 8.20293 22.12494 8.32895 22.1922 8.45497 22.25948 8.65707 22.36604 8.7831 22.43054 8.90913 22.49504 9.11124 22.59544 9.23726 22.65718 9.36328 22.71893 9.56541 22.81622 9.69144 22.87563 9.81746 22.93503 10.01958 23.02798 10.1456 23.0854 10.27162 23.14282 10.47372 23.23412 10.59975 23.28957 10.72578 23.345 10.9279 23.43161 11.05392 23.48508 11.17995 23.53854 11.38206 23.62305 11.50809 23.67494 11.63411 23.72685 11.83624 23.80885 11.96227 23.8592 12.08829 23.90956 12.29039 23.98906 12.41643 24.03784 12.54245 24.08662 12.74455 24.16365 12.87057 24.21086 12.9966 24.25807 13.19873 24.33223 13.32475 24.37827 13.45078 24.4243 13.6529 24.49739 13.77892 24.54263 13.90494 24.58788 14.10706 24.66035 14.23308 24.70439 14.3591 24.74843 14.56122 24.81763 14.68724 24.8601 14.81328 24.90259 15.01538 24.96927 15.1414 25.01062 15.26743 25.05197 15.46956 25.11763 15.59558 25.15813 15.7216 25.19862 15.92372 25.26286 16.04974 25.3026 16.17577 25.34232 16.37787 25.40552 16.50389 25.44447 16.62993 25.48341 16.83205 25.54515 16.95807 25.58331 17.08409 25.62146 17.28621 25.68219 17.41223 25.71956 17.53825 25.75694 17.74039 25.81624 17.86641 25.85278 17.99243 25.88933 18.19453 25.94722 18.32057 25.98297 18.4466 26.01872 18.6487 26.07553 18.77472 26.11058 18.90074 26.14561 19.10287 26.20131 19.2289 26.23558 19.35492 26.26985 19.55704 26.32376 19.68306 26.35754 19.80908 26.39133 20.0112 26.44568 20.13722 26.4791 20.26324 26.51253 20.46536 26.56621 20.59138 26.59848 20.71742 26.63075 20.91953 26.67993 21.04555 26.71179 21.17157 26.74367 21.3737 26.79672 21.49973 26.82816 21.62575 26.85959 21.82787 26.90778 21.95389 26.93845 22.07991 26.9691 22.28201 27.01845 22.40805 27.04918 22.53407 27.0799 22.73619 27.13002 22.86221 27.15991 22.98824 27.18979 23.19035 27.23512 23.31638 27.26459 23.4424 27.29405 23.64452 27.34319 23.77054 27.37228 23.89656 27.40138 24.09868 27.44604 24.22472 27.47437 24.35074 27.50269 24.55284 27.54813 24.67886 27.57645 24.80489 27.60477 25.00702 27.65057 25.13304 27.67853 25.25906 27.70648 25.46118 27.75082 25.5872 27.778 25.71323 27.80519 25.91534 27.84776 26.04137 27.87447 26.16739 27.90115 26.3695 27.9438 26.49553 27.97049 26.62157 27.9972 26.82367 28.04056 26.94969 28.06696 27.07571 28.09334 27.27785 28.13483 27.40387 28.16081 27.52989 28.18678 27.73201 28.22868 27.85803 28.25424 27.98405 28.27979 28.18616 28.32071 28.3122 28.34506 28.43822 28.36942 28.64034 28.40572 28.76636 28.42984 28.89238 28.45396 29.0945 28.49442 29.22052 28.51895 29.34654 28.54349 29.54866 28.58252 29.67468 28.60675 29.8007 28.63098 30.00282 28.6697 30.12886 28.6937 30.25488 28.7177 30.45699 28.75607 30.58301 28.77977 30.70903 28.80347 30.91116 28.84108 31.03719 28.86453 31.16321 28.88799 31.36533 28.92567 31.49135 28.9489 31.61737 28.9721 31.81949 29.00908 31.94551 29.03194 32.07153 29.05481 32.27365 29.09106 32.39967 29.11368 32.52571 29.1363 32.72781 29.17256 32.85384 29.19499 32.97986 29.21744 33.18198 29.25327 33.308 29.27547 33.43402 29.29765 33.63615 29.33315 33.76218 29.35504 33.8882 29.37694 34.0903 29.41167 34.21634 29.43333 34.34236 29.455 34.54448 29.48976 34.6705 29.51118 34.79652 29.53261 34.99864 29.56656 35.12466 29.58774 35.25069 29.60892 35.4528 29.64282 35.57883 29.66386 35.70485 29.68492 35.90697 29.71875 36.033 29.73956 36.15903 29.76038 36.36113 29.79344 36.48715 29.81396 36.61317 29.83449 36.8153 29.86716 36.94133 29.8875 37.06735 29.90784 37.26947 29.94038 37.3955 29.9606 37.52151 29.98082 37.72363 30.01323 37.84966 30.03326 37.97568 30.0533 38.1778 30.08527 38.30382 30.10506 38.42986 30.12486 38.63196 30.15645 38.75798 30.176 38.884 30.19554 39.08612 30.22662 39.21214 30.24606 39.33817 30.2655 39.5403 30.29681 39.66632 30.31615 39.79234 30.33546 39.99445 30.36626 40.12048 30.38535 40.2465 30.40442 40.44862 30.4348 40.57465 30.45369 40.70067 30.47258 40.90279 30.50294 41.02881 30.52159 41.15483 30.54025 41.35695 30.56969 41.48297 30.58821 41.609 30.60675 41.81111 30.63672 41.93715 30.65526 42.06317 30.67378 42.26527 30.70357 42.3913 30.72186 42.51733 30.74017 42.71944 30.76912 42.84546 30.78717 42.97148 30.80524 43.17361 30.83412 43.29964 30.85205 43.42566 30.87 43.62778 30.89874 43.7538 30.9165 43.87982 30.93425 44.08194 30.96245 44.20796 30.98009 44.334 30.99773 44.5361 31.02615 44.66212 31.04367 44.78815 31.06117 44.99026 31.08899 45.11629 31.10638 45.24231 31.12378 45.44444 31.15189 45.57047 31.16911 45.69649 31.18634 45.89859 31.21342 46.02463 31.23053 46.15065 31.24763 46.35277 31.2754 46.47879 31.29239 46.60481 31.30936 46.80693 31.33614 46.93295 31.35294 47.05898 31.36974 47.2611 31.3968 47.38712 31.41348 47.51314 31.43016 47.71526 31.45656 47.8413 31.47318 47.96732 31.48979 48.16942 31.51682 48.29544 31.53331 48.42148 31.5498 48.62358 31.57587 48.7496 31.59212 48.87563 31.60837 49.07776 31.63432 49.20378 31.65053 49.3298 31.66673 49.53192 31.6928 49.65794 31.70892 49.78397 31.72505 49.98608 31.75102 50.1121 31.76686 50.23814 31.78271 50.44025 31.8072 50.56627 31.8231 50.69229 31.839 50.89441 31.86559 51.02043 31.88148 51.14645 31.89738 51.34859 31.92212 51.47461 31.93773 51.60063 31.95332 51.80273 31.97849 51.92877 31.99396 52.0548 32.00943 52.2569 32.0339 52.38292 32.04932 52.50894 32.06473 52.71107 32.08981 52.8371 32.10512 52.96312 32.1204 53.16524 32.14456 53.29126 32.1596 53.41728 32.17467 53.6194 32.19858 53.74544 32.21368 53.87146 32.22879 54.07356 32.25357 54.19958 32.26863 54.32562 32.28368 54.52773 32.30745 54.65375 32.32225 54.77977 32.33707 54.9819 32.36069 55.10793 32.37544 55.23395 32.39021 55.43607 32.41396 55.56209 32.42865 55.68811 32.44336 55.89023 32.46684 56.01625 32.48141 56.14229 32.496 56.34439 32.51906 56.47041 32.53377 56.59644 32.54846 56.79855 32.57281 56.92458 32.58739 57.0506 32.60197 57.25273 32.62459 57.37875 32.63887 57.50478 32.65314 57.70688 32.67601 57.83292 32.69034 57.95894 32.70468 58.16104 32.72809 58.28706 32.74225 58.41309 32.7564 58.61522 32.77846 58.74124 32.79242 58.86726 32.8064 59.06938 32.82906 59.1954 32.84303 59.32143 32.857 59.52354 32.87929 59.64958 32.8932 59.7756 32.9071 59.9777 32.92947 60.10373 32.94337 60.22977 32.95729 60.43187 32.97986 60.55789 32.99355 60.68391 33.00723 60.88605 33.02837 61.01207 33.04199 61.13809 33.05562 61.34021 33.07811 61.46623 33.09174 61.59225 33.10536 61.79436 33.12674 61.92038 33.14018 62.04642 33.15363 62.24854 33.17525 62.37456 33.18863 62.50058 33.20201 62.7027 33.22333 62.82872 33.23663 62.95474 33.24995 63.15688 33.2714 63.2829 33.28465 63.40892 33.2979 63.61102 33.31909 63.73706 33.33223 63.86308 33.34537 64.06519 33.3663 64.19121 33.37936 64.31723 33.39244 64.51936 33.41345 64.64539 33.42653 64.77141 33.4396 64.97353 33.4606 65.09955 33.47366 65.22557 33.48674 65.42767 33.50792 65.55371 33.52081 65.67973 33.5337 65.88185 33.5539 66.00787 33.56667 66.13391 33.57942 66.33601 33.60023 66.46204 33.61295 66.58806 33.62566 66.79019 33.6457 66.91621 33.65836 67.04224 33.671 67.24435 33.6916 67.37038 33.70421 67.4964 33.71681 67.6985 33.73671 67.82452 33.74919 67.95056 33.76167 68.15268 33.7817 68.2787 33.79417 68.40472 33.80666 68.60684 33.8268 68.73286 33.83916 68.85889 33.85152 69.06102 33.87093 69.18704 33.88329 69.31306 33.89565 69.51517 33.91591 69.6412 33.92827 69.76723 33.94063 69.96933 33.9602 70.09535 33.97238 70.22137 33.98456 70.42351 34.00397 70.54953 34.01608 70.67555 34.0282 70.87767 34.04764 71.0037 34.05975 71.12971 34.07187 71.33182 34.09138 71.45786 34.10344 71.58388 34.1155 71.786 34.1347 71.91202 34.1467 72.03806 34.15869 72.24016 34.17802 72.36618 34.18996 72.4922 34.20189 72.69434 34.22101 72.82036 34.23276 72.94638 34.24452 73.1485 34.26297 73.27452 34.27472 73.40054 34.28647 73.60265 34.30586 73.72867 34.31755 73.8547 34.32924 74.05682 34.34744 74.18285 34.35909 74.30887 34.37071 74.51099 34.38983 74.63701 34.40146 74.76303 34.41309 74.96515 34.43141 75.09117 34.44298 75.2172 34.45454 75.41931 34.47348 75.54535 34.48494 75.67137 34.4964 75.87347 34.5141 75.9995 34.5256 76.12552 34.53711 76.32765 34.55653 76.45367 34.56798 76.5797 34.57944 76.78181 34.59698 76.90784 34.60822 77.03386 34.61943 77.23596 34.63759 77.362 34.64888 77.48802 34.66016 77.69014 34.67831 77.81616 34.68954 77.9422 34.70076 78.1443 34.71861 78.27032 34.72977 78.39635 34.74092 78.59848 34.7589 78.7245 34.76999 78.85052 34.78108 79.05264 34.79874 79.17867 34.80977 79.30469 34.8208 79.50679 34.83853 79.63281 34.84956 79.75885 34.86061 79.96097 34.87827 80.08699 34.88937 80.21301 34.90047 80.41513 34.91869 80.54115 34.9296 80.66718 34.9405 80.8693 34.95729 80.99532 34.96808 81.12134 34.97888 81.32346 34.99652 81.4495 35.00745 81.57552 35.01836 81.77762 35.03607 81.90364 35.0468 82.02966 35.05753 82.2318 35.07413 82.35782 35.08487 82.48384 35.0956 82.68596 35.11351 82.81198 35.12424 82.938 35.13498 83.1401 35.1518 83.26614 35.1623 83.39217 35.17278 83.59428 35.18932 83.7203 35.19994 83.84634 35.21054 84.04845 35.2282 84.17447 35.23886 84.30049 35.24953 84.50261 35.26642 84.62863 35.27692 84.75465 35.2874 84.95679 35.30417 85.08281 35.31456 85.20883 35.32494 85.41093 35.34138 85.53696 35.35175 85.663 35.36212 85.86511 35.37895 85.99113 35.38937 86.11716 35.39981 86.31927 35.41669 86.4453 35.427 86.57132 35.43732 86.77344 35.45363 86.89946 35.46378 87.02548 35.47392 87.2276 35.48991 87.35364 35.5001 87.47966 35.51031 87.68176 35.527 87.80779 35.53731 87.9338 35.54762 88.13594 35.5643 88.26196 35.57451 88.38799 35.5847 88.5901 35.6007 88.71613 35.61084 88.84215 35.62097 89.04427 35.63751 89.17029 35.6476 89.29631 35.65768 89.49843 35.67355 89.62445 35.6835 89.75049 35.69347 89.95259 35.70946 90.07861 35.7194 90.20464 35.72937 90.40675 35.74535 90.53278 35.75531 90.6588 35.76526 90.86093 35.78125 90.98695 35.79121 91.11298 35.80116 91.31508 35.8172 91.4411 35.8271 91.56714 35.837 91.76926 35.8528 91.89528 35.86256 92.0213 35.87234 92.22342 35.88795 92.34944 35.89761 92.47546 35.90726 92.67758 35.92244 92.8036 35.9322 92.92963 35.94199 93.13174 35.95828 93.25778 35.96811 93.3838 35.97795 93.5859 35.9935 93.71193 36.00316 93.83795 36.01282 94.04007 36.02805 94.16609 36.03775 94.29211 36.04747 94.49425 36.06357 94.62027 36.07323 94.74629 36.08287 94.94841 36.09793 95.07443 36.10739 95.20045 36.11687 95.40257 36.13208 95.5286 36.14156 95.65463 36.15103 95.85674 36.16626 95.98276 36.17574 96.10878 36.1852 96.3109 36.20044 96.43692 36.2099 96.56294 36.21938 96.76508 36.23473 96.8911 36.24408 97.01712 36.25343 97.21922 36.26797 97.34525 36.27739 97.47128 36.28679 97.6734 36.30258 97.79942 36.31198 97.92545 36.3214 98.12756 36.33606 98.25359 36.34529 98.37961 36.35452 98.58173 36.36935 98.70775 36.37859 98.83377 36.38782 99.03589 36.40266 99.16193 36.4119 99.28795 36.42113 99.49005 36.43597 99.61607 36.4452 99.7421 36.45442 99.94421 36.46935 100.07024 36.4785 100.19626 36.48767 100.39839 36.50209 100.52441 36.51137 100.65044 36.52066 100.85255 36.53642 100.97858 36.54555 101.1046 36.55467 101.30672 36.56825 101.43274 36.57712 101.55878 36.586 101.76088 36.60057 101.8869 36.60956 102.01292 36.61856 102.21504 36.63295 102.34106 36.642 102.46709 36.65106 102.66922 36.66573 102.79524 36.67488 102.92126 36.68405 103.12337 36.69917 103.24939 36.70818 103.37543 36.71718 103.57753 36.7309 103.70355 36.73976 103.82957 36.74864 104.03171 36.76332 104.15773 36.7722 104.28375 36.78107 104.48587 36.79503 104.6119 36.80379 104.73792 36.81255 104.94003 36.8266 105.06607 36.83536 105.1921 36.84412 105.3942 36.85806 105.52022 36.86693 105.64624 36.87581 105.84836 36.89044 105.97438 36.89937 106.1004 36.90831 106.30254 36.92262 106.42856 36.93138 106.55458 36.94012 106.7567 36.95383 106.88272 36.96252 107.00874 36.97122 107.21086 36.98552 107.33688 36.9941 107.46292 37.00267 107.66502 37.0158 107.79105 37.02437 107.91707 37.03294 108.11919 37.04724 108.24521 37.05594 108.37123 37.06464 108.57336 37.07858 108.69939 37.08708 108.82541 37.0956 109.02751 37.10886 109.15355 37.11737 109.27957 37.12589 109.48167 37.14005 109.6077 37.1485 109.73372 37.15695 109.93585 37.1699 110.06187 37.17836 110.1879 37.18681 110.39001 37.20093 110.51604 37.20949 110.64206 37.21806 110.84418 37.23169 110.97021 37.2402 111.09624 37.24872 111.29834 37.26247 111.42436 37.27092 111.55038 37.27937 111.7525 37.29292 111.87852 37.3012 112.00455 37.30946 112.20668 37.32234 112.3327 37.33061 112.45872 37.33888 112.66084 37.35255 112.78687 37.36089 112.91289 37.36922 113.24101 37.39073 113.24101 37.39073"/>
<use data-text="&#x2022;" xlink:href="#font_2_1" transform="matrix(9.963496,0,0,-9.963397,118.069,76.647098)"/>
<use data-text="(" xlink:href="#font_3_1" transform="matrix(9.963496,0,0,-9.963397,124.08054,85.4258)"/>
<use data-text="0" xlink:href="#font_3_3" transform="matrix(9.963496,0,0,-9.963397,127.94639,85.4258)"/>
<use data-text="," xlink:href="#font_1_1" transform="matrix(9.963496,0,0,-9.963397,132.93735,85.4258)"/>
<use data-text="0" xlink:href="#font_3_3" transform="matrix(9.963496,0,0,-9.963397,137.36573,85.4258)"/>
<use data-text=")" xlink:href="#font_3_2" transform="matrix(9.963496,0,0,-9.963397,142.34748,85.4258)"/>
</svg>
