<svg xmlns="http://www.w3.org/2000/svg" xmlns:xlink="http://www.w3.org/1999/xlink" version="1.1" width="250" height="252" viewBox="0 0 250 252">
<defs>
<path id="font_1_2" d="M.33399964 .30233766C.33999635 .32835389 .36299134 .42037965 .43299867 .42037965 .43798829 .42037965 .46199037 .42037965 .48298646 .40734864 .45498658 .402359 .43499757 .37734986 .43499757 .35334779 .43499757 .33735658 .44599916 .31835938 .47299195 .31835938 .49499513 .31835938 .5269928 .3363495 .5269928 .37635804 .5269928 .42837525 .46798707 .4423828 .43399049 .4423828 .37599183 .4423828 .34098817 .38935853 .32899476 .36634828 .3039856 .43237306 .25 .4423828 .22099304 .4423828 .116989139 .4423828 .05999756 .3133545 .05999756 .28834535 .05999756 .27833558 .069992069 .27833558 .07199097 .27833558 .07998657 .27833558 .08299255 .28033448 .084991458 .28933717 .11898804 .39535523 .18499756 .42037965 .21899414 .42037965 .23799134 .42037965 .272995 .4113617 .272995 .35334779 .272995 .32235719 .2559967 .25532533 .21899414 .11528015 .20298767 .053268434 .16799927 .011245728 .12399292 .011245728 .117996219 .011245728 .09498596 .011245728 .07398987 .024276734 .09899902 .029266358 .12098694 .05027771 .12098694 .07827759 .12098694 .105270389 .09899902 .11328125 .083999637 .11328125 .053985597 .11328125 .0289917 .08728027 .0289917 .055267335 .0289917 .009246826 .07899475-.0107421879 .12298584-.0107421879 .18899536-.0107421879 .22499085 .059280397 .22799683 .0652771 .23999024 .028274537 .27598573-.0107421879 .33599855-.0107421879 .43899537-.0107421879 .49598695 .118270877 .49598695 .14328003 .49598695 .1532898 .4869995 .1532898 .48399354 .1532898 .47499085 .1532898 .47299195 .14929199 .47099305 .14228821 .43798829 .03527832 .36999513 .011245728 .33799745 .011245728 .29899598 .011245728 .2829895 .043273927 .2829895 .07727051 .2829895 .09927368 .2889862 .121276859 .2999878 .16529846L.33399964 .30233766Z"/>
<path id="font_1_3" d="M.48599244 .38136292C.48999024 .39537049 .48999024 .39736939 .48999024 .40437318 .48999024 .42237855 .47599793 .43138124 .46099855 .43138124 .45098878 .43138124 .43499757 .42536927 .42599488 .41036988 .42399598 .405365 .41600038 .37435914 .4119873 .35635377 .40499879 .33035279 .397995 .30334474 .3919983 .27633668L.34700013 .09628296C.34298707 .08126831 .2999878 .011245728 .23399353 .011245728 .18299866 .011245728 .17199707 .055267335 .17199707 .0922699 .17199707 .1382904 .18899536 .20030213 .22299195 .28833009 .23899842 .3293457 .24299622 .3403473 .24299622 .36035157 .24299622 .405365 .21099854 .4423828 .16099549 .4423828 .06599426 .4423828 .0289917 .29733277 .0289917 .28833009 .0289917 .27833558 .038986207 .27833558 .040985109 .27833558 .050994874 .27833558 .051986696 .28033448 .056991579 .29634095 .083999637 .3903656 .12399292 .42037965 .1579895 .42037965 .1659851 .42037965 .18299866 .42037965 .18299866 .3883667 .18299866 .36335755 .17298889 .3373413 .1659851 .31834413 .12599182 .21231079 .10798645 .1552887 .10798645 .10827637 .10798645 .019256592 .17098999-.0107421879 .22999573-.0107421879 .2689972-.0107421879 .30299378 .0062561037 .33099366 .03425598 .31799317-.017745972 .30599977-.06674194 .2659912-.11973572 .23999024-.15385437 .20199585-.18309021 .1559906-.18309021 .14199829-.18309021 .09700012-.18005371 .07998657-.14074707 .09599304-.14074707 .10899353-.14074707 .12298584-.1287384 .1329956-.11973572 .14299011-.10673523 .14299011-.08773804 .14299011-.056747438 .115997318-.052734376 .10598755-.052734376 .08299255-.052734376 .049987794-.068740848 .049987794-.11773682 .049987794-.16796875 .09399414-.20507813 .1559906-.20507813 .25898744-.20507813 .3619995-.11373901 .3899994-.00074768069L.48599244 .38136292Z"/>
<path id="font_2_1" d="M.44400025 .24998474C.44400025 .35688783 .35499574 .44381715 .25 .44381715 .14199829 .44381715 .054992677 .35488893 .054992677 .24998474 .054992677 .14407349 .14199829 .056137086 .25 .056137086 .35499574 .056137086 .44400025 .14308167 .44400025 .24998474Z"/>
<path id="font_3_1" d="M.33099366-.2400055C.33099366-.23701477 .33099366-.23500061 .31399537-.21800232 .18899536-.0920105 .15699768 .09700012 .15699768 .25 .15699768 .42399598 .19499207 .59799197 .31799317 .72299197 .33099366 .73498538 .33099366 .7369995 .33099366 .73999026 .33099366 .746994 .32699586 .75 .32099916 .75 .31098939 .75 .22099304 .6819916 .1619873 .5549927 .11099243 .44499208 .09899902 .33399964 .09899902 .25 .09899902 .17199707 .10998535 .050994874 .16499329-.06201172 .22499085-.18501282 .31098939-.25 .32099916-.25 .32699586-.25 .33099366-.24700928 .33099366-.2400055Z"/>
<path id="font_3_3" d="M.45999146 .31976319C.45999146 .39982606 .45498658 .47988893 .41999818 .5539398 .37399293 .65000918 .2919922 .6660156 .25 .6660156 .18998719 .6660156 .116989139 .64001467 .07598877 .54693606 .04399109 .47789 .038986207 .39982606 .038986207 .31976319 .038986207 .24472046 .042999269 .15464783 .083999637 .07859802 .1269989-.0024719239 .19999695-.022460938 .24899292-.022460938 .30299378-.022460938 .3789978-.0014648438 .4229889 .09359741 .45498658 .16265869 .45999146 .2407074 .45999146 .31976319M.24899292-.00047302247C.20999146-.00047302247 .15098572 .024551392 .1329956 .12062073 .12199402 .18066406 .12199402 .2727356 .12199402 .3317871 .12199402 .39582826 .12199402 .46188355 .12998963 .5159149 .14898682 .63500979 .22399903 .64401248 .24899292 .64401248 .28199769 .64401248 .34799195 .6259918 .36698915 .52693179 .3769989 .47088624 .3769989 .39482118 .3769989 .3317871 .3769989 .25672914 .3769989 .18867493 .3659973 .12461853 .35099793 .029556275 .2939911-.00047302247 .24899292-.00047302247Z"/>
<path id="font_1_1" d="M.20298767 .0009918213C.20298767 .066986087 .17799378 .10598755 .13899231 .10598755 .10598755 .10598755 .085998538 .08099365 .085998538 .052993776 .085998538 .025985718 .10598755 0 .13899231 0 .15098572 0 .1639862 .0039978029 .17399597 .0129852299 .1769867 .01499939 .17799378 .015991211 .1789856 .015991211 .17999268 .015991211 .18099976 .01499939 .18099976 .0009918213 .18099976-.07316589 .1459961-.13328552 .11299133-.16635132 .101989749-.17736817 .101989749-.17936707 .101989749-.18237305 .101989749-.18936157 .10699463-.19335938 .11199951-.19335938 .12298584-.19335938 .20298767-.116256717 .20298767 .0009918213Z"/>
<path id="font_3_2" d="M.2889862 .25C.2889862 .32798768 .27799989 .44898988 .22299195 .56199648 .16299439 .68499758 .07699585 .75 .066986087 .75 .06098938 .75 .056991579 .74598696 .056991579 .73999026 .056991579 .7369995 .056991579 .73498538 .07598877 .71699526 .17399597 .6179962 .23098755 .45899964 .23098755 .25 .23098755 .07899475 .19400025-.09700012 .069992069-.2230072 .056991579-.23500061 .056991579-.23701477 .056991579-.2400055 .056991579-.2460022 .06098938-.25 .066986087-.25 .07699585-.25 .16699219-.18200684 .22599793-.055007936 .2769928 .054992677 .2889862 .16600037 .2889862 .25Z"/>
</defs>
<path transform="matrix(1.00009,0,0,-1.00003,120.56023,131.12454)" stroke-width=".19925" stroke-linecap="butt" stroke-miterlimit="10" stroke-linejoin="miter" fill="none" stroke="#929292" d="M-113.38724-113.38724H113.38724M-113.38724-85.04042H113.38724M-113.38724-56.69362H113.38724M-113.38724-28.3468H113.38724M-113.38724 0H113.38724M-113.38724 28.3468H113.38724M-113.38724 56.69362H113.38724M-113.38724 85.04042H113.38724M-113.38724 113.37727H113.38724M-113.38724-113.38724V113.38724M-85.04042-113.38724V113.38724M-56.69362-113.38724V113.38724M-28.3468-113.38724V113.38724M0-113.38724V113.38724M28.3468-113.38724V113.38724M56.69362-113.38724V113.38724M85.04042-113.38724V113.38724M113.37727-113.38724V113.38724M113.38724 113.38724"/>
<path transform="matrix(1.00009,0,0,-1.00003,120.56023,131.12454)" stroke-width="1.19553" stroke-linecap="butt" stroke-miterlimit="10" stroke-linejoin="miter" fill="none" stroke="#000000" d="M-119.0565 0H118.10008"/>
<path transform="matrix(1.00009,0,0,-1.00003,238.67093,131.12454)" stroke-width=".9564" stroke-linecap="round" stroke-linejoin="round" fill="none" stroke="#000000" d="M-1.91284 2.55046C-1.75343 1.59402 0 .15938 .4782 0 0-.15938-1.75343-1.59402-1.91284-2.55046"/>
<use data-text="x" xlink:href="#font_1_2" transform="matrix(9.963496,0,0,-9.962899,243.5463,133.2696)"/>
<path transform="matrix(1.00009,0,0,-1.00003,120.56023,131.12454)" stroke-width="1.19553" stroke-linecap="butt" stroke-miterlimit="10" stroke-linejoin="miter" fill="none" stroke="#000000" d="M0-119.0565V118.10008"/>
<path transform="matrix(0,-1.00003,-1.00009,-0,120.56023,13.020912)" stroke-width=".9564" stroke-linecap="round" stroke-linejoin="round" fill="none" stroke="#000000" d="M-1.91284 2.55046C-1.75343 1.59402 0 .15938 .4782 0 0-.15938-1.75343-1.59402-1.91284-2.55046"/>
<use data-text="y" xlink:href="#font_1_3" transform="matrix(9.963496,0,0,-9.962899,117.93899,6.208786)"/>
<path transform="matrix(1.00009,0,0,-1.00003,120.56023,131.12454)" stroke-width=".79701" stroke-linecap="butt" stroke-miterlimit="10" stroke-linejoin="miter" fill="none" stroke="#0000ff" d="M21.48631 113.28558C21.48631 113.28558 21.61914 109.82555 21.67014 108.55188 21.72115 107.27821 21.80296 105.31996 21.85396 104.10583 21.90497 102.8917 21.9868 100.95917 22.0378 99.80121 22.0888 98.64325 22.17062 96.85933 22.22162 95.76001 22.27263 94.66068 22.35446 92.92712 22.40546 91.87796 22.45647 90.82881 22.53828 89.1937 22.58928 88.19838 22.64029 87.20305 22.7221 85.6534 22.7731 84.70433 22.82411 83.75528 22.90594 82.26369 22.95694 81.35822 23.00795 80.45274 23.08977 79.03783 23.14076 78.1782 23.19177 77.31857 23.2736 75.98262 23.3246 75.16254 23.37561 74.34245 23.45741 73.05405 23.50842 72.26756 23.55943 71.4811 23.64125 70.24394 23.69226 69.49414 23.74326 68.74432 23.82507 67.57892 23.87608 66.86343 23.92708 66.14795 24.0089 65.01993 24.0599 64.33742 24.1109 63.65489 24.19273 62.59496 24.24374 61.94418 24.29474 61.2934 24.37656 60.27122 24.42757 59.64697 24.47856 59.02272 24.5604 58.04062 24.6114 57.44493 24.6624 56.84923 24.74422 55.92157 24.79523 55.3536 24.84622 54.78564 24.92804 53.89595 24.97905 53.35138 25.03004 52.80681 25.11188 51.95183 25.16289 51.42876 25.21388 50.90569 25.2957 50.08014 25.34671 49.58138 25.3977 49.08263 25.47954 48.31241 25.53055 47.83392 25.58154 47.35545 25.66336 46.59192 25.71437 46.13275 25.76537 45.67358 25.8472 44.9622 25.89821 44.52458 25.9492 44.08696 26.03102 43.39867 26.08203 42.9787 26.13303 42.55872 26.21484 41.90079 26.26585 41.49768 26.31685 41.09457 26.39868 40.4603 26.44969 40.07333 26.50069 39.68637 26.5825 39.07954 26.63351 38.70866 26.68451 38.33778 26.76634 37.75613 26.81735 37.40025 26.86835 37.04437 26.95016 36.48557 27.00117 36.14372 27.05217 35.8019 27.13399 35.2643 27.185 34.93651 27.236 34.60872 27.31783 34.09586 27.36884 33.7812 27.41983 33.46655 27.50165 32.9707 27.55266 32.66872 27.60365 32.36673 27.68549 31.89635 27.7365 31.60468 27.78749 31.31302 27.86931 30.84691 27.9203 30.56657 27.97131 30.28625 28.05315 29.85284 28.10414 29.58429 28.15515 29.31573 28.23697 28.89047 28.28796 28.63097 28.33897 28.37148 28.42079 27.96323 28.47179 27.71399 28.5228 27.46475 28.60463 27.07565 28.65562 26.83464 28.70663 26.59363 28.78845 26.20653 28.83945 25.97691 28.89046 25.74731 28.97229 25.3997 29.02328 25.17976 29.0743 24.95982 29.15611 24.6028 29.2071 24.39168 29.25812 24.18054 29.33994 23.86212 29.39093 23.65808 29.44194 23.45404 29.52377 23.12015 29.57477 22.92104 29.62578 22.72192 29.7076 22.41412 29.75859 22.22293 29.8096 22.03174 29.89143 21.72614 29.94243 21.54297 29.99344 21.35982 30.07526 21.07979 30.12625 20.90282 30.17726 20.72585 30.2591 20.43887 30.31009 20.26743 30.3611 20.09598 30.44292 19.83154 30.49391 19.66705 30.54492 19.50256 30.62674 19.23949 30.67773 19.08183 30.72874 18.9242 30.81058 18.6834 30.86157 18.53078 30.91258 18.37816 30.9944 18.12956 31.0454 17.98189 31.0964 17.8342 31.17824 17.60907 31.22923 17.46631 31.28024 17.32355 31.36206 17.09233 31.41306 16.95288 31.46407 16.81342 31.54588 16.59348 31.59688 16.46109 31.64789 16.3287 31.72972 16.12575 31.78072 15.9987 31.83173 15.87166 31.91353 15.66956 31.96454 15.5454 32.01555 15.42125 32.09737 15.22386 32.14838 15.10378 32.19937 14.9837 32.28119 14.796 32.3322 14.67989 32.3832 14.56378 32.46501 14.3791 32.51602 14.26682 32.56702 14.15454 32.64885 13.97833 32.69986 13.8706 32.75085 13.7629 32.83267 13.59369 32.88368 13.49042 32.93468 13.38713 33.01651 13.22818 33.06752 13.12622 33.11852 13.02426 33.20033 12.85425 33.25134 12.75554 33.30234 12.65681 33.38417 12.5092 33.43518 12.41469 33.48618 12.32018 33.568 12.16664 33.619 12.07428 33.67 11.98193 33.75182 11.83842 33.80283 11.74901 33.85382 11.65959 33.93565 11.51543 33.98666 11.4298 34.03766 11.34416 34.11948 11.21368 34.17049 11.13177 34.22148 11.04987 34.30331 10.91962 34.35432 10.83939 34.40532 10.75914 34.48714 10.63197 34.53815 10.55348 34.58914 10.47499 34.67096 10.34966 34.72197 10.27362 34.77296 10.1976 34.8548 10.07817 34.9058 10.00545 34.9568 9.93272 35.03862 9.81966 35.08963 9.74939 35.14063 9.67912 35.22246 9.56783 35.27347 9.49895 35.32446 9.43007 35.40628 9.31944 35.45729 9.25284 35.50829 9.18625 35.59012 9.0833 35.64113 9.01884 35.69212 8.95438 35.77394 8.85081 35.82495 8.78828 35.87595 8.72575 35.95776 8.62927 36.00877 8.56813 36.05977 8.50699 36.1416 8.40665 36.19261 8.34753 36.2436 8.28844 36.32542 8.19926 36.37642 8.14207 36.42743 8.08488 36.50926 7.99089 36.56026 7.93533 36.61127 7.87978 36.69308 7.7952 36.74408 7.74155 36.79509 7.68791 36.8769 7.60103 36.9279 7.54865 36.97891 7.49626 37.06075 7.41417 37.11174 7.36394 37.16275 7.3137 37.24457 7.23587 37.29556 7.1866 37.34657 7.13733 37.4284 7.05702 37.4794 7.00883 37.53041 6.96065 37.61223 6.88469 37.66322 6.83926 37.71423 6.79385 37.79607 6.72598 37.84706 6.6814 37.89807 6.63681 37.97989 6.56218 38.03088 6.5179 38.0819 6.47362 38.16371 6.40497 38.2147 6.36218 38.26572 6.31941 38.34755 6.25043 38.39854 6.2095 38.44955 6.16858 38.53137 6.10739 38.58237 6.0672 38.63338 6.027 38.71521 5.95894 38.7662 5.91971 38.81721 5.88046 38.89903 5.82224 38.95003 5.78432 39.00104 5.7464 39.08286 5.68318 39.13385 5.64635 39.18486 5.60951 39.2667 5.55377 39.31769 5.51874 39.3687 5.48369 39.45052 5.42865 39.50151 5.39374 39.55252 5.35881 39.63435 5.30127 39.68535 5.26701 39.73636 5.23274 39.81818 5.1794 39.86917 5.14676 39.92018 5.11412 40.00201 5.0638 40.05301 5.0317 40.10402 4.99959 40.18584 4.94635 40.23683 4.91534 40.28784 4.88432 40.36964 4.83849 40.42065 4.80807 40.47166 4.77765 40.55348 4.72545 40.60449 4.69604 40.65549 4.66666 40.7373 4.62457 40.78831 4.59613 40.83931 4.56769 40.92114 4.51941 40.97215 4.49103 41.02315 4.46265 41.10497 4.41896 41.15598 4.39154 41.20697 4.36412 41.28879 4.31981 41.3398 4.29335 41.3908 4.26689 41.47263 4.22641 41.52364 4.2008 41.57463 4.17519 41.65645 4.13387 41.70746 4.10866 41.75845 4.08345 41.84029 4.04378 41.8913 4.01912 41.94229 3.99446 42.02411 3.95483 42.07512 3.9309 42.12611 3.90695 42.20795 3.86964 42.25896 3.84654 42.30995 3.82346 42.39177 3.78699 42.44278 3.76437 42.49377 3.74174 42.57559 3.70543 42.6266 3.68347 42.6776 3.66153 42.75943 3.62723 42.81044 3.60605 42.86143 3.58488 42.94325 3.55191 42.99426 3.53079 43.04526 3.50967 43.12709 3.47427 43.1781 3.45381 43.2291 3.43335 43.31091 3.40309 43.36192 3.3833 43.41292 3.36351 43.49474 3.3305 43.54575 3.31107 43.59674 3.29161 43.67857 3.26218 43.72958 3.24315 43.78058 3.22414 43.8624 3.19237 43.9134 3.17395 43.9644 3.15555 44.04623 3.12811 44.09724 3.11037 44.14824 3.0926 44.23006 3.06343 44.28107 3.04593 44.33206 3.02841 44.4139 3.00099 44.4649 2.98407 44.5159 2.96715 44.59772 2.94086 44.64871 2.92393 44.69972 2.90703 44.78154 2.87846 44.83253 2.86209 44.88354 2.84572 44.96538 2.82156 45.01637 2.80585 45.06738 2.79013 45.1492 2.76425 45.2002 2.74876 45.2512 2.73329 45.33304 2.70927 45.38403 2.69427 45.43504 2.67926 45.51686 2.65562 45.56786 2.64063 45.61887 2.62561 45.70068 2.60059 45.75168 2.58612 45.80269 2.57167 45.88452 2.55066 45.93552 2.53638 45.98653 2.52211 46.06834 2.49722 46.11934 2.48318 46.17035 2.46916 46.25218 2.44843 46.30318 2.43517 46.35419 2.4219 46.436 2.40062 46.487 2.3876 46.53801 2.37459 46.61984 2.35408 46.67084 2.34131 46.72185 2.32854 46.80367 2.30782 46.85466 2.29546 46.90567 2.2831 46.98749 2.26439 47.03848 2.25221 47.0895 2.24004 47.17133 2.21965 47.22232 2.20766 47.27333 2.19566 47.35515 2.17726 47.40614 2.1657 47.45715 2.15413 47.53899 2.13535 47.58998 2.12418 47.64099 2.11302 47.72281 2.09647 47.7738 2.08525 47.82481 2.07404 47.90663 2.05432 47.95763 2.04329 48.00864 2.03226 48.09047 2.01628 48.14146 2.00566 48.19247 1.99506 48.27429 1.97722 48.32529 1.96674 48.3763 1.95624 48.45813 1.94005 48.50912 1.92998 48.56013 1.91989 48.64195 1.90396 48.69295 1.89407 48.74396 1.88417 48.82578 1.86813 48.87679 1.8586 48.9278 1.84908 49.0096 1.8347 49.06061 1.82529 49.1116 1.81589 49.19342 1.80023 49.24443 1.7907 49.29543 1.78116 49.37726 1.76564 49.42827 1.75652 49.47926 1.7474 49.56108 1.73376 49.61209 1.72495 49.66309 1.71613 49.74492 1.70164 49.79593 1.69295 49.84692 1.68425 49.92874 1.67073 49.97975 1.66222 50.03075 1.6537 50.11256 1.63972 50.16357 1.63152 50.21457 1.6233 50.2964 1.61105 50.34741 1.60297 50.3984 1.59488 50.48022 1.5811 50.53123 1.57312 50.58223 1.56514 50.66406 1.5533 50.71507 1.54544 50.76607 1.53758 50.84789 1.52402 50.8989 1.51646 50.94989 1.50891 51.03172 1.4982 51.08273 1.49094 51.13373 1.48369 51.21555 1.4715 51.26656 1.46413 51.31755 1.45676 51.39937 1.44499 51.45038 1.43773 51.50137 1.43048 51.5832 1.41873 51.63422 1.41179 51.68521 1.40483 51.76703 1.39423 51.81804 1.38757 51.86903 1.3809 51.95087 1.3705 52.00188 1.36377 52.05287 1.35706 52.13469 1.34578 52.1857 1.33913 52.2367 1.33246 52.31851 1.32219 52.36952 1.31577 52.42052 1.30936 52.50235 1.29895 52.55336 1.29285 52.60435 1.28673 52.68617 1.27771 52.73718 1.27165 52.78818 1.26561 52.87001 1.25533 52.92102 1.24916 52.97202 1.24298 53.05383 1.23303 53.10483 1.2271 53.15584 1.22116 53.23767 1.21198 53.28867 1.20633 53.33968 1.20068 53.4215 1.19202 53.47249 1.18643 53.5235 1.18085 53.60532 1.17181 53.65631 1.1661 53.70732 1.1604 53.78915 1.1508 53.84015 1.14534 53.89116 1.13988 53.97298 1.13196 54.02397 1.12675 54.07498 1.12154 54.15681 1.11299 54.20781 1.10771 54.25882 1.10243 54.34064 1.0939 54.39163 1.08868 54.44264 1.08347 54.52446 1.07506 54.57545 1.07008 54.62646 1.06512 54.7083 1.05768 54.7593 1.05278 54.8103 1.04787 54.89212 1.03934 54.94312 1.0346 54.99413 1.02988 55.07596 1.02328 55.12695 1.01862 55.17796 1.01395 55.25978 1.0056 55.31078 1.00087 55.36179 .99615 55.4436 .98898 55.4946 .98444 55.54561 .9799 55.62744 .97238 55.67844 .968 55.72945 .96362 55.81126 .95712 55.86226 .95287 55.91327 .94861 55.9951 .9415 56.0461 .9373 56.0971 .9331 56.17892 .92685 56.22992 .92259 56.28093 .91833 56.36276 .9107 56.41376 .90657 56.46477 .90244 56.54659 .89664 56.59758 .89275 56.64859 .88885 56.73041 .88242 56.7814 .87846 56.83241 .87451 56.91425 .86803 56.96524 .8642 57.01625 .86037 57.09807 .85468 57.14906 .85078 57.20007 .8469 57.28189 .83986 57.3329 .83609 57.38391 .83232 57.46571 .82713 57.51672 .82355 57.56772 .81996 57.64954 .81364 57.70055 .81012 57.75154 .8066 57.83337 .80148 57.88438 .79802 57.93538 .79456 58.0172 .78862 58.0682 .78503 58.1192 .78145 58.20103 .7755 58.25204 .77206 58.30304 .76865 58.38486 .76361 58.43587 .76038 58.48686 .75714 58.5687 .75194 58.6197 .7487 58.6707 .74547 58.75252 .74026 58.80353 .73703 58.85452 .7338 58.93634 .72847 58.98735 .72536 59.03835 .72224 59.12018 .71759 59.17119 .71454 59.22218 .71147 59.304 .70636 59.35501 .7033 59.406 .70024 59.48784 .6954 59.53885 .69247 59.58984 .68954 59.67166 .68503 59.72267 .68208 59.77367 .67915 59.85548 .67409 59.9065 .67128 59.95749 .66847 60.03932 .66446 60.09033 .66176 60.14133 .65907 60.22314 .65463 60.27415 .65182 60.32515 .64902 60.40698 .6442 60.458 .64143 60.50899 .63869 60.5908 .63455 60.64182 .63193 60.69281 .62929 60.77464 .62497 60.82565 .6224 60.87665 .61984 60.95847 .61589 61.00948 .61331 61.06047 .61075 61.14229 .60632 61.1933 .60382 61.2443 .6013 61.32613 .59755 61.37714 .59515 61.42813 .59274 61.50995 .589 61.56094 .5865 61.61195 .58398 61.69379 .57938 61.74478 .57698 61.79579 .5746 61.87761 .57153 61.9286 .5692 61.97961 .56688 62.06143 .56245 62.11243 .56012 62.16344 .5578 62.24527 .5545 62.29626 .55234 62.34727 .55019 62.4291 .54678 62.48009 .54456 62.5311 .54234 62.61293 .53856 62.66393 .53633 62.71494 .53412 62.79675 .53072 62.84775 .52855 62.89876 .5264 62.98059 .52286 63.03159 .52077 63.0826 .51866 63.16441 .5155 63.21541 .51341 63.26642 .5113 63.34824 .50766 63.39923 .50563 63.45024 .50359 63.53207 .50063 63.58307 .4987 63.63408 .4968 63.7159 .49376 63.76689 .49178 63.8179 .4898 63.89973 .4864 63.95073 .48444 64.00174 .48245 64.08356 .47942 64.13455 .47751 64.18556 .47559 64.26738 .47238 64.31837 .47058 64.36938 .4688 64.45122 .46632 64.50221 .46454 64.55322 .46274 64.63504 .45947 64.68604 .45761 64.73705 .45576 64.81888 .45287 64.86987 .45113 64.92088 .44939 65.0027 .4468 65.0537 .44505 65.1047 .44333 65.18654 .44032 65.23753 .43858 65.28854 .43686 65.37036 .43419 65.42136 .43253 65.47237 .43085 65.55418 .42815 65.60518 .42647 65.65619 .42479 65.738 .42209 65.78902 .42043 65.84001 .41875 65.92183 .41591 65.97284 .41435 66.02383 .4128 66.10567 .41066 66.15668 .40916 66.20767 .40768 66.28949 .40509 66.3405 .40355 66.3915 .402 66.47331 .39948 66.52432 .39792 66.57532 .39636 66.65715 .39384 66.70816 .39229 66.75916 .39075 66.84097 .38815 66.89198 .38667 66.94298 .38518 67.02481 .38286 67.07582 .38148 67.12682 .38011 67.20863 .3781 67.25964 .37672 67.31064 .37537 67.39247 .37296 67.44348 .37154 67.49448 .3701 67.5763 .36777 67.6273 .36635 67.6783 .36491 67.76012 .36253 67.81113 .36116 67.86212 .35979 67.94395 .35771 67.99496 .3564 68.04596 .3551 68.12778 .35295 68.17879 .35164 68.22978 .35034 68.31161 .34813 68.36263 .3469 68.41362 .34564 68.49544 .3438 68.54645 .34256 68.59744 .34131 68.67926 .33904 68.73027 .3378 68.78127 .33655 68.8631 .33467 68.91411 .33348 68.9651 .33229 69.04692 .33034 69.09793 .32915 69.14893 .32796 69.23076 .32608 69.28177 .32483 69.33276 .32358 69.41458 .32127 69.46559 .32007 69.51659 .31886 69.59842 .31725 69.64943 .31616 69.70042 .31508 69.78224 .3134 69.83325 .31227 69.88425 .31114 69.96606 .30908 70.01706 .30795 70.06807 .30682 70.1499 .3052 70.2009 .30406 70.2519 .30292 70.33372 .30081 70.38472 .29973 70.43573 .29865 70.51756 .2973 70.56856 .29628 70.61957 .29526 70.70139 .29347 70.75238 .29239 70.80339 .2913 70.88521 .2895 70.9362 .28848 70.98721 .28746 71.06905 .28604 71.12004 .28503 71.17105 .28401 71.25287 .28221 71.30386 .28114 71.35487 .28006 71.4367 .27826 71.4877 .27725 71.53871 .27623 71.62053 .27473 71.67152 .27377 71.72253 .27283 71.80437 .27127 71.85536 .27031 71.90637 .26936 71.98819 .26782 72.03918 .26686 72.0902 .2659 72.17201 .2643 72.223 .2634 72.27402 .2625 72.35585 .26128 72.40685 .26038 72.45786 .25948 72.53967 .2578 72.59067 .25691 72.64168 .25601 72.72351 .25478 72.7745 .25388 72.82552 .25299 72.90733 .25133 72.95833 .25043 73.00934 .24953 73.09116 .24823 73.14215 .24739 73.19316 .24655 73.275 .2452 73.32599 .24437 73.377 .24353 73.45882 .24217 73.50981 .24133 73.56082 .24051 73.64265 .23915 73.69365 .23831 73.74466 .23747 73.82648 .23607 73.87747 .23529 73.92848 .23451 74.0103 .23346 74.06131 .2327 74.11232 .23192 74.19412 .2305 74.24513 .22966 74.29613 .22882 74.37794 .22742 74.42896 .22664 74.47995 .22586 74.56178 .22475 74.6128 .22404 74.66379 .22333 74.7456 .22215 74.79662 .22144 74.84761 .22072 74.92944 .21964 74.98045 .21886 75.03145 .21808 75.11327 .21658 75.16428 .21582 75.21527 .21504 75.29709 .21394 75.3481 .21323 75.3991 .21251 75.48093 .21135 75.53194 .21063 75.58293 .20992 75.66475 .20874 75.71576 .20804 75.76675 .20732 75.84859 .2061 75.8996 .20544 75.95059 .20479 76.03241 .20393 76.08342 .20328 76.13441 .20262 76.21625 .2014 76.26726 .20068 76.31825 .19998 76.40007 .19875 76.45108 .19809 76.50208 .19743 76.5839 .19658 76.6349 .19594 76.6859 .19528 76.76773 .19398 76.81874 .19333 76.86974 .19267 76.95155 .19177 77.00256 .19118 77.05356 .19058 77.13539 .18959 77.1864 .189 77.2374 .1884 77.31921 .18744 77.37022 .18684 77.42122 .18625 77.50304 .18527 77.55405 .18468 77.60504 .18408 77.68687 .18312 77.73788 .18253 77.78888 .18193 77.8707 .18094 77.9217 .18034 77.9727 .17975 78.05453 .17879 78.10555 .17819 78.15654 .1776 78.23836 .17662 78.28937 .17603 78.34036 .17545 78.42218 .17441 78.47318 .17387 78.52419 .17334 78.60602 .17267 78.65701 .17213 78.70802 .1716 78.78984 .17056 78.84084 .16997 78.89185 .16937 78.97368 .16833 79.02467 .1678 79.07568 .16728 79.1575 .16661 79.2085 .16608 79.2595 .16554 79.34134 .16444 79.39233 .16391 79.44334 .16338 79.52516 .16266 79.57616 .16219 79.62717 .16171 79.70898 .16092 79.75998 .16045 79.81099 .15997 79.89282 .15926 79.94382 .15874 79.99483 .1582 80.07664 .15709 80.12764 .15656 80.17865 .15602 80.26048 .1553 80.31148 .15485 80.36249 .15437 80.4443 .15358 80.4953 .1531 80.54631 .15263 80.62813 .15184 80.67912 .15137 80.73013 .15091 80.81197 .15012 80.86296 .14964 80.91397 .14917 80.99579 .14838 81.04678 .1479 81.0978 .14743 81.17963 .14667 81.23062 .1462 81.28163 .14572 81.36345 .14487 81.41444 .14445 81.46545 .14404 81.54729 .14355 81.59828 .14314 81.64929 .14275 81.73111 .14185 81.7821 .14143 81.83311 .14102 81.91493 .14053 81.96593 .14012 82.01694 .13971 82.09877 .13885 82.14977 .1384 82.20078 .13792 82.2826 .13708 82.33359 .13667 82.3846 .13626 82.46642 .13577 82.51743 .13536 82.56844 .13495 82.65024 .13405 82.70125 .13364 82.75224 .13322 82.83406 .13269 82.88507 .13234 82.93607 .13199 83.0179 .13145 83.06891 .13104 83.1199 .13065 83.20172 .12973 83.25273 .12932 83.30373 .1289 83.38556 .12837 83.43657 .12802 83.48756 .12767 83.56938 .12712 83.62039 .12671 83.67139 .12631 83.75322 .1254 83.80423 .12498 83.85522 .12457 83.93704 .12404 83.98805 .12369 84.03905 .12334 84.12086 .12274 84.17188 .1224 84.22287 .12206 84.3047 .12144 84.35571 .1211 84.40671 .12074 84.48853 .12015 84.53954 .1198 84.59053 .11945 84.67236 .11885 84.72337 .1185 84.77437 .11816 84.85619 .11755 84.9072 .1172 84.95819 .11685 85.04001 .11626 85.09102 .1159 85.14201 .11555 85.22385 .11494 85.27486 .1146 85.32585 .11426 85.40767 .1136 85.45868 .11331 85.50967 .11302 85.5915 .11273 85.64252 .11244 85.69351 .11215 85.77533 .1115 85.82634 .11115 85.87733 .1108 85.95917 .1102 86.01018 .10985 86.06117 .1095 86.14299 .10884 86.194 .10855 86.245 .10826 86.32681 .10797 86.37782 .10768 86.42882 .10739 86.51065 .10667 86.56166 .10638 86.61266 .10611 86.69447 .10582 86.74548 .10553 86.79648 .10524 86.87831 .10458 86.9293 .10423 86.98032 .10388 87.06213 .10321 87.11313 .10292 87.16414 .10263 87.24596 .10234 87.29695 .10207 87.34796 .10178 87.4298 .10106 87.48079 .10077 87.5318 .10048 87.61362 .10013 87.66461 .0999 87.71562 .09967 87.79745 .09932 87.84845 .09903 87.89946 .09874 87.98128 .09802 88.03227 .09775 88.08328 .09746 88.16512 .09717 88.21611 .09688 88.26712 .09659 88.34894 .09587 88.39993 .09558 88.45094 .09529 88.53276 .09494 88.58376 .09471 88.63477 .09448 88.7166 .09407 88.7676 .09386 88.8186 .09363 88.90042 .09322 88.95142 .09299 89.00243 .09276 89.08426 .0924 89.13525 .09212 89.18626 .09183 89.26808 .09111 89.31908 .09082 89.37009 .09053 89.4519 .09018 89.5029 .08995 89.55391 .08974 89.63574 .08932 89.68674 .0891 89.73775 .08887 89.81956 .08846 89.87056 .08823 89.92157 .088 90.0034 .08759 90.0544 .08736 90.10541 .08713 90.18723 .08672 90.23822 .08649 90.28923 .08626 90.37106 .08585 90.42206 .08563 90.47307 .0854 90.55489 .08499 90.60588 .08476 90.65689 .08453 90.73871 .08412 90.7897 .0839 90.84071 .08366 90.92253 .08325 90.97354 .08302 91.02455 .0828 91.10635 .0824 91.15736 .08217 91.20836 .08194 91.29019 .08154 91.3412 .08131 91.3922 .08109 91.47401 .08067 91.52502 .08044 91.57602 .08022 91.65784 .0798 91.70885 .07957 91.75984 .07935 91.84167 .07887 91.89268 .0787 91.94368 .07854 92.0255 .07843 92.0765 .07826 92.1275 .0781 92.20934 .07764 92.26035 .07742 92.31134 .0772 92.39316 .07678 92.44417 .07655 92.49516 .07632 92.577 .07585 92.628 .07568 92.679 .07552 92.76082 .07541 92.81183 .07524 92.86282 .07507 92.94464 .0746 92.99565 .07437 93.04665 .07414 93.12848 .07373 93.17949 .0735 93.23048 .07329 93.3123 .07283 93.36331 .07266 93.4143 .0725 93.49614 .07239 93.54715 .07222 93.59814 .07205 93.67996 .07158 93.73097 .07135 93.78197 .07112 93.86378 .07065 93.9148 .07048 93.96579 .07031 94.04762 .07022 94.09863 .07005 94.14963 .06989 94.23145 .06937 94.28246 .0692 94.33345 .06903 94.41528 .06892 94.4663 .06876 94.51729 .06859 94.5991 .06807 94.65012 .0679 94.70111 .06773 94.78294 .06763 94.83395 .06746 94.88495 .06729 94.96677 .06676 95.01778 .06659 95.06877 .06642 95.15059 .06633 95.2016 .06616 95.2526 .066 95.33443 .06546 95.38542 .0653 95.43643 .06514 95.51825 .06503 95.56924 .06487 95.62025 .0647 95.70209 .06418 95.75308 .06401 95.8041 .06384 95.88591 .06374 95.9369 .06357 95.98792 .0634 96.06973 .06287 96.12073 .0627 96.17174 .06253 96.25357 .06238 96.30457 .06227 96.35558 .06216 96.4374 .062 96.48839 .06183 96.5394 .06166 96.62123 .06114 96.67223 .06097 96.72324 .0608 96.80505 .06065 96.85605 .06055 96.90706 .06044 96.98889 .06027 97.03989 .0601 97.0909 .05994 97.17271 .05942 97.22371 .05925 97.27472 .05908 97.35654 .05891 97.40753 .0588 97.45854 .0587 97.54037 .05855 97.59137 .05838 97.64238 .05821 97.7242 .05768 97.77519 .05751 97.8262 .05734 97.90804 .05717 97.95903 .05708 98.01004 .05698 98.09186 .05676 98.14285 .05666 98.19386 .05655 98.27568 .05632 98.32668 .05621 98.37769 .0561 98.45952 .05595 98.51051 .05579 98.56152 .05562 98.64334 .05508 98.69434 .05492 98.74535 .05475 98.82718 .0546 98.87817 .05449 98.92918 .05438 99.011 .05415 99.062 .05405 99.113 .05394 99.19484 .05373 99.24583 .05362 99.29684 .05351 99.37865 .05328 99.42966 .05318 99.48067 .05307 99.56247 .05287 99.61348 .05276 99.66447 .05266 99.7463 .05249 99.79732 .05232 99.84831 .05215 99.93013 .05162 99.98114 .05145 100.03214 .05128 100.11397 .05113 100.16498 .05103 100.21597 .05092 100.29779 .05069 100.3488 .05058 100.3998 .05048 100.48161 .05026 100.53262 .05016 100.58362 .05005 100.66545 .04984 100.71646 .04973 100.76746 .04962 100.84927 .0494 100.90028 .04929 100.95128 .04918 101.03311 .04898 101.08412 .04887 101.13512 .04877 101.21693 .04854 101.26794 .04843 101.31894 .04832 101.40076 .04811 101.45177 .048 101.50276 .0479 101.5846 .04767 101.6356 .04756 101.6866 .04745 101.76842 .04724 101.81943 .04713 101.87042 .04703 101.95226 .0468 102.00327 .04669 102.05426 .04659 102.13608 .04637 102.18709 .04626 102.23808 .04616 102.31992 .04593 102.37093 .04582 102.42192 .04572 102.50374 .0455 102.55475 .0454 102.60574 .04529 102.68756 .04507 102.73857 .04497 102.78957 .04488 102.8714 .04465 102.92241 .04454 102.9734 .04443 103.05522 .04422 103.10623 .04411 103.15723 .044 103.23906 .04373 103.29007 .04367 103.34106 .04361 103.42288 .04372 103.47389 .04367 103.52489 .04362 103.6067 .04335 103.6577 .04324 103.70871 .04314 103.79054 .04291 103.84154 .0428 103.89255 .0427 103.97437 .04248 104.02536 .04237 104.07637 .04227 104.1582 .04204 104.2092 .04193 104.26021 .04182 104.34203 .04161 104.39302 .0415 104.44403 .0414 104.52586 .04118 104.57686 .04108 104.62787 .04097 104.70969 .04071 104.76068 .04065 104.81169 .04059 104.89351 .0407 104.9445 .04065 104.99551 .0406 105.07735 .04033 105.12834 .04022 105.17935 .04012 105.26117 .03989 105.31216 .03978 105.36317 .03967 105.445 .03946 105.496 .03935 105.54701 .03925 105.62883 .03902 105.67982 .03891 105.73083 .0388 105.81265 .03853 105.86365 .03848 105.91466 .03844 105.99649 .03854 106.04749 .03848 106.0985 .03842 106.18031 .03815 106.23131 .03804 106.28232 .03793 106.36415 .03772 106.41515 .03761 106.46616 .0375 106.54797 .03723 106.59897 .03717 106.64998 .03711 106.73181 .03722 106.7828 .03717 106.83382 .03712 106.91563 .03685 106.96663 .03674 107.01764 .03665 107.09946 .03644 107.15045 .03633 107.20146 .03622 107.2833 .03595 107.33429 .03589 107.3853 .03583 107.46712 .03593 107.51811 .03589 107.56912 .03584 107.65096 .03557 107.70195 .03546 107.75296 .03535 107.83476 .03508 107.88577 .03502 107.93678 .03496 108.01859 .03506 108.0696 .03502 108.12059 .03497 108.20242 .0347 108.25343 .03459 108.30443 .03448 108.38625 .03421 108.43726 .03415 108.48825 .03409 108.57008 .0342 108.6211 .03415 108.67209 .0341 108.7539 .03383 108.80492 .03372 108.85591 .03362 108.93774 .03334 108.98875 .03328 109.03975 .03322 109.12157 .03333 109.17258 .03328 109.22357 .03323 109.30539 .03296 109.3564 .03285 109.4074 .03275 109.48923 .03249 109.54024 .03242 109.59123 .03236 109.67305 .03247 109.72406 .03242 109.77505 .03238 109.85689 .03204 109.9079 .032 109.9589 .03195 110.04071 .03204 110.09172 .032 110.14272 .03195 110.22453 .03168 110.27554 .03157 110.32654 .03146 110.40837 .03119 110.45938 .03113 110.51038 .03107 110.5922 .03117 110.6432 .03113 110.6942 .03108 110.77603 .0308 110.82704 .0307 110.87804 .0306 110.95985 .03032 111.01086 .03026 111.06186 .0302 111.14369 .0303 111.1947 .03026 111.2457 .03021 111.32751 .02988 111.37852 .02983 111.42952 .02979 111.51134 .02989 111.56235 .02983 111.61334 .02977 111.69518 .02945 111.74619 .02939 111.79718 .02933 111.879 .02943 111.93001 .02939 111.981 .02934 112.06284 .02907 112.11383 .02896 112.16484 .02885 112.24666 .02858 112.29765 .02853 112.34866 .02847 112.43048 .02858 112.48148 .02853 112.53249 .02849 112.61432 .02815 112.66531 .0281 112.71632 .02806 112.79814 .02817 112.84914 .0281 112.90015 .02805 112.98198 .02773 113.03297 .02766 113.08398 .0276 113.2168 .02766 113.2168 .02766"/>
<path transform="matrix(1.00009,0,0,-1.00003,120.56023,131.12454)" stroke-width=".79701" stroke-linecap="butt" stroke-miterlimit="10" stroke-linejoin="miter" fill="none" stroke="#0000ff" d="M-113.38724-.02766C-113.38724-.02766-113.2544-.02766-113.2034-.02766-113.15239-.02766-113.07057-.0276-113.01958-.02766-112.96857-.02773-112.88673-.02805-112.83574-.0281-112.78473-.02817-112.70291-.02806-112.65192-.0281-112.6009-.02815-112.51907-.02843-112.46808-.02853-112.41707-.02863-112.33525-.0289-112.28426-.02896-112.23325-.02902-112.15143-.02892-112.10043-.02896-112.04942-.029-111.96759-.02934-111.9166-.02939-111.86559-.02943-111.78377-.02933-111.73277-.02939-111.68176-.02945-111.59993-.02977-111.54893-.02983-111.49792-.02989-111.4161-.02979-111.36511-.02983-111.3141-.02988-111.23228-.03021-111.18129-.03026-111.13028-.0303-111.04845-.0302-110.99745-.03026-110.94644-.03032-110.86462-.0306-110.81363-.0307-110.76262-.0308-110.68079-.03108-110.62979-.03113-110.57878-.03117-110.49696-.03107-110.44597-.03113-110.39496-.03119-110.31314-.03146-110.26213-.03157-110.21112-.03168-110.12932-.03195-110.07831-.032-110.02731-.03204-109.9455-.03195-109.89449-.032-109.84349-.03204-109.76166-.03232-109.71065-.03242-109.65965-.03253-109.57784-.03279-109.52682-.03285-109.47583-.03291-109.394-.0328-109.34299-.03285-109.29199-.0329-109.21017-.03317-109.15916-.03328-109.10817-.03339-109.02635-.03366-108.97534-.03372-108.92435-.03378-108.84251-.03368-108.7915-.03372-108.74051-.03377-108.65869-.03404-108.60768-.03415-108.55669-.03426-108.47485-.03453-108.42384-.03459-108.37285-.03465-108.29103-.03455-108.24002-.03459-108.18903-.03464-108.1072-.03497-108.05618-.03502-108.00519-.03506-107.92337-.03496-107.87236-.03502-107.82137-.03508-107.73955-.03535-107.68854-.03546-107.63754-.03557-107.55571-.03584-107.5047-.03589-107.4537-.03593-107.37189-.03583-107.32088-.03589-107.26988-.03595-107.18805-.03622-107.13704-.03633-107.08604-.03644-107.00423-.03665-106.95322-.03674-106.90222-.03685-106.8204-.03712-106.7694-.03717-106.7184-.03722-106.63657-.03711-106.58556-.03717-106.53456-.03723-106.45274-.0375-106.40173-.03761-106.35074-.03772-106.2689-.03793-106.2179-.03804-106.1669-.03815-106.08508-.03838-106.03407-.03848-105.98308-.03859-105.90125-.03886-105.85025-.03891-105.79924-.03896-105.71742-.03885-105.66643-.03891-105.61542-.03897-105.5336-.03925-105.4826-.03935-105.4316-.03946-105.34976-.03967-105.29877-.03978-105.24776-.03989-105.16594-.04012-105.11494-.04022-105.06393-.04033-104.9821-.0406-104.9311-.04065-104.8801-.0407-104.79828-.04059-104.74728-.04065-104.69627-.04071-104.61446-.04097-104.56346-.04108-104.51245-.04118-104.43062-.0414-104.37962-.0415-104.32861-.04161-104.2468-.04182-104.1958-.04193-104.14479-.04204-104.06296-.04227-104.01196-.04237-103.96095-.04248-103.87914-.0427-103.82814-.0428-103.77713-.04291-103.6953-.04314-103.6443-.04324-103.59329-.04335-103.51147-.04362-103.46048-.04367-103.40947-.04372-103.32765-.04361-103.27666-.04367-103.22565-.04373-103.14381-.044-103.09282-.04411-103.04181-.04422-102.95999-.04443-102.909-.04454-102.85799-.04465-102.77615-.04488-102.72516-.04497-102.67415-.04507-102.59233-.04529-102.54134-.0454-102.49033-.0455-102.40851-.04572-102.35751-.04582-102.3065-.04593-102.22467-.04616-102.17368-.04626-102.12267-.04637-102.04085-.04659-101.98985-.04669-101.93884-.0468-101.85703-.04703-101.80602-.04713-101.755-.04724-101.6732-.04745-101.6222-.04756-101.5712-.04767-101.48936-.0479-101.43835-.048-101.38736-.04811-101.30554-.04832-101.25453-.04843-101.20354-.04854-101.12172-.04877-101.07071-.04887-101.01971-.04898-100.93788-.04918-100.88687-.04929-100.83588-.0494-100.75406-.04962-100.70305-.04973-100.65205-.04984-100.57022-.05005-100.51921-.05016-100.46822-.05026-100.3864-.05048-100.33539-.05058-100.2844-.05069-100.20258-.05092-100.15157-.05103-100.10057-.05113-100.01874-.05128-99.96773-.05145-99.91673-.05162-99.83492-.05215-99.7839-.05232-99.73291-.05249-99.65108-.05266-99.60007-.05276-99.54907-.05287-99.46725-.05307-99.41624-.05318-99.36525-.05328-99.28342-.05351-99.2324-.05362-99.18141-.05373-99.0996-.05394-99.04858-.05405-98.99759-.05415-98.91577-.05432-98.86476-.05449-98.81377-.05466-98.73193-.05518-98.68092-.05534-98.62993-.05551-98.54811-.05568-98.4971-.05579-98.4461-.0559-98.36427-.0561-98.31326-.05621-98.26227-.05632-98.18045-.05655-98.12944-.05666-98.07845-.05676-97.99663-.05692-97.94562-.05708-97.89462-.05724-97.81279-.05777-97.76178-.05794-97.71078-.0581-97.62897-.05827-97.57796-.05838-97.52696-.05849-97.44513-.05864-97.39413-.0588-97.34312-.05898-97.2613-.05951-97.21031-.05968-97.1593-.05984-97.07747-.06-97.02647-.0601-96.97546-.06021-96.89365-.06044-96.84265-.06055-96.79164-.06065-96.70982-.0608-96.65883-.06097-96.60782-.06114-96.52599-.06166-96.47499-.06183-96.42398-.062-96.34216-.0621-96.29117-.06227-96.24016-.06244-96.15833-.06297-96.10733-.06314-96.05632-.06331-95.9745-.06346-95.92351-.06357-95.8725-.06367-95.79068-.06384-95.73969-.06401-95.68867-.06418-95.60684-.0647-95.55585-.06487-95.50484-.06503-95.42302-.06514-95.37202-.0653-95.32101-.06546-95.23918-.066-95.18819-.06616-95.13718-.06633-95.05536-.06642-95.00436-.06659-94.95335-.06676-94.87152-.06729-94.82053-.06746-94.76952-.06763-94.6877-.06773-94.6367-.0679-94.5857-.06807-94.50388-.06859-94.45288-.06876-94.40187-.06892-94.32004-.06903-94.26904-.0692-94.21803-.06937-94.13622-.06982-94.08522-.07005-94.03421-.07028-93.95238-.07076-93.90138-.07092-93.85037-.07109-93.76855-.07118-93.71756-.07135-93.66655-.07152-93.58473-.07199-93.53374-.07222-93.48273-.07245-93.40091-.07292-93.3499-.07309-93.29889-.07326-93.21709-.07335-93.16608-.0735-93.11508-.07367-93.03325-.07414-92.98224-.07437-92.93124-.0746-92.84943-.07507-92.79842-.07524-92.74742-.07541-92.66559-.07552-92.61458-.07568-92.56358-.07585-92.48177-.07632-92.43076-.07655-92.37976-.07678-92.29794-.0772-92.24693-.07742-92.19594-.07764-92.1141-.0781-92.0631-.07826-92.0121-.07843-91.93028-.07854-91.87927-.0787-91.82828-.07887-91.74644-.07935-91.69543-.07957-91.64444-.0798-91.56262-.08022-91.51161-.08044-91.46062-.08067-91.3788-.08109-91.32779-.08131-91.2768-.08154-91.19496-.08194-91.14395-.08217-91.09296-.0824-91.01114-.0828-90.96013-.08302-90.90913-.08325-90.8273-.08366-90.77629-.0839-90.7253-.08412-90.64348-.08453-90.59247-.08476-90.54147-.08499-90.45964-.0854-90.40863-.08563-90.35764-.08585-90.27582-.08626-90.22481-.08649-90.17381-.08672-90.092-.08713-90.04099-.08736-89.98999-.08759-89.90816-.088-89.85715-.08823-89.80615-.08846-89.72433-.08887-89.67332-.0891-89.62233-.08932-89.5405-.08974-89.48949-.08995-89.43849-.09018-89.35667-.09053-89.30566-.09082-89.25467-.09111-89.17285-.09183-89.12186-.09212-89.07085-.0924-88.98901-.09276-88.93802-.09299-88.88701-.09322-88.80519-.09363-88.7542-.09386-88.70319-.09407-88.62135-.09442-88.57036-.09471-88.51935-.095-88.43753-.09572-88.38654-.09601-88.33553-.0963-88.25371-.09665-88.20271-.09688-88.1517-.0971-88.06987-.09746-88.01888-.09775-87.96786-.09802-87.88605-.09874-87.83505-.09903-87.78404-.09932-87.70221-.09967-87.65121-.0999-87.6002-.10013-87.51839-.10048-87.46739-.10077-87.41638-.10106-87.33455-.10172-87.28355-.10207-87.23254-.1024-87.15073-.10307-87.09973-.10336-87.04872-.10365-86.9669-.10394-86.91591-.10423-86.8649-.10452-86.78307-.10524-86.73207-.10553-86.68106-.10582-86.59924-.10611-86.54825-.10638-86.49724-.10667-86.4154-.10733-86.36441-.10768-86.3134-.10803-86.23158-.1087-86.18059-.109-86.12958-.10928-86.04776-.10956-85.99677-.10985-85.94576-.11014-85.86392-.1108-85.81293-.11115-85.76192-.1115-85.6801-.11209-85.6291-.11244-85.5781-.1128-85.49626-.11346-85.44527-.11375-85.39426-.11404-85.31244-.11432-85.26144-.1146-85.21043-.11488-85.1286-.11555-85.0776-.1159-85.0266-.11626-84.9448-.11685-84.89378-.1172-84.84277-.11755-84.76097-.11816-84.70996-.1185-84.65897-.11885-84.57713-.11945-84.52612-.1198-84.47513-.12015-84.39331-.12074-84.3423-.1211-84.2913-.12144-84.20947-.12206-84.15846-.1224-84.10747-.12274-84.02565-.12328-83.97464-.12369-83.92365-.1241-83.84183-.12502-83.79082-.12543-83.73982-.12584-83.65799-.12637-83.60698-.12671-83.55598-.12706-83.47417-.12761-83.42316-.12802-83.37216-.12843-83.29033-.12933-83.23932-.12975-83.18832-.13016-83.1065-.13069-83.0555-.13104-83.0045-.1314-82.92267-.13199-82.87166-.13234-82.82066-.13269-82.73885-.13322-82.68784-.13364-82.63684-.13405-82.55502-.13489-82.50401-.13536-82.45302-.13583-82.37119-.13669-82.32018-.1371-82.26918-.13751-82.18736-.13799-82.13635-.1384-82.08536-.13881-82.00352-.13971-81.95251-.14012-81.90152-.14053-81.8197-.14102-81.76869-.14143-81.7177-.14185-81.63588-.14268-81.58487-.14314-81.53387-.14362-81.45204-.14441-81.40103-.14488-81.35004-.14536-81.26822-.14615-81.21721-.14662-81.16621-.14708-81.08438-.14787-81.03337-.14835-80.98238-.14882-80.90056-.14961-80.84955-.15009-80.79855-.15056-80.71672-.15132-80.66573-.1518-80.61472-.15227-80.5329-.15306-80.4819-.15353-80.4309-.154-80.34908-.1548-80.29808-.15526-80.24707-.15573-80.16524-.15652-80.11424-.157-80.06323-.15747-79.98141-.15826-79.93042-.15874-79.87941-.15921-79.79758-.15997-79.74658-.16045-79.69557-.16092-79.61375-.16165-79.56276-.16219-79.51175-.16272-79.42993-.16382-79.37894-.16435-79.32793-.16489-79.2461-.16554-79.1951-.16608-79.14409-.16661-79.06227-.16765-79.01128-.16824-78.96027-.16884-78.87843-.16988-78.82744-.17041-78.77643-.17094-78.69461-.1716-78.64362-.17213-78.5926-.17267-78.51077-.17377-78.45978-.1743-78.40877-.17484-78.32695-.17545-78.27596-.17603-78.22495-.17662-78.14313-.17802-78.09213-.17862-78.04112-.17921-77.95929-.17981-77.9083-.18034-77.85728-.18088-77.77547-.18193-77.72447-.18253-77.67346-.18312-77.59163-.18408-77.54063-.18468-77.48962-.18527-77.4078-.18625-77.35681-.18684-77.3058-.18744-77.22398-.18834-77.17299-.189-77.12198-.18965-77.04015-.19095-76.98915-.1916-76.93814-.19225-76.85632-.19316-76.80533-.19376-76.75432-.19435-76.67249-.19528-76.62149-.19594-76.57048-.19658-76.48868-.1978-76.43767-.19852-76.38666-.19923-76.30484-.20045-76.25383-.20111-76.20284-.20177-76.12102-.20262-76.07-.20328-76.01901-.20393-75.9372-.20515-75.88618-.20587-75.83519-.20659-75.75336-.20782-75.70235-.20847-75.65135-.20912-75.56953-.20992-75.51852-.21063-75.46753-.21135-75.3857-.21288-75.33469-.21365-75.28369-.21443-75.20187-.21555-75.15086-.21626-75.09987-.21696-75.01805-.21814-74.96704-.21886-74.91605-.21957-74.83421-.22066-74.7832-.22144-74.73221-.22221-74.65039-.2237-74.59938-.22447-74.54839-.22523-74.46655-.22635-74.41554-.22707-74.36455-.22778-74.28273-.22888-74.23172-.22966-74.18073-.23044-74.09889-.23192-74.04788-.2327-73.99689-.23346-73.91507-.23445-73.86406-.23529-73.81306-.23613-73.73125-.2379-73.68024-.23874-73.62924-.23958-73.54741-.24051-73.4964-.24133-73.4454-.24217-73.36359-.24397-73.31258-.24481-73.26158-.24564-73.17975-.24655-73.12874-.24739-73.07774-.24823-72.99593-.24995-72.94492-.25085-72.89392-.25175-72.8121-.25299-72.7611-.25388-72.7101-.25478-72.62827-.25645-72.57726-.25734-72.52626-.25824-72.44444-.25948-72.39343-.26038-72.34244-.26128-72.2606-.26288-72.20961-.26384-72.1586-.2648-72.07678-.26633-72.02579-.26729-71.97478-.26825-71.89294-.26979-71.84195-.27075-71.79094-.27171-71.70912-.27327-71.65813-.27422-71.60712-.27518-71.5253-.27672-71.4743-.27766-71.4233-.27863-71.34146-.28012-71.29047-.28114-71.23946-.28215-71.15764-.28401-71.10664-.28503-71.05563-.28604-70.9738-.28746-70.9228-.28848-70.8718-.2895-70.78998-.2913-70.73898-.29239-70.68797-.29347-70.60616-.2952-70.55516-.29628-70.50415-.29736-70.42232-.29909-70.37132-.30017-70.32031-.30125-70.2385-.30293-70.1875-.30406-70.13649-.30519-70.05466-.30725-70.00366-.30838-69.95265-.30951-69.87083-.31113-69.81984-.31227-69.76883-.31342-69.687-.31546-69.636-.3166-69.58499-.31775-69.50317-.31935-69.45218-.3205-69.40117-.32164-69.31935-.32364-69.26836-.32483-69.21735-.32602-69.13551-.3279-69.08452-.32915-69.03351-.3304-68.95169-.33266-68.9007-.33391-68.84969-.33514-68.76785-.33699-68.71686-.33824-68.66585-.33948-68.58403-.34175-68.53304-.34299-68.48203-.34424-68.4002-.34607-68.34921-.3473-68.2982-.34856-68.21637-.35077-68.16537-.35207-68.11436-.35338-68.03256-.35545-67.98155-.35683-67.93056-.3582-67.84872-.36064-67.79771-.36201-67.74672-.36339-67.6649-.3654-67.61389-.36678-67.5629-.36813-67.48106-.3706-67.43005-.37196-67.37906-.37334-67.29724-.37537-67.24623-.37672-67.19524-.3781-67.11342-.38048-67.06241-.38191-67.01141-.38335-66.92958-.38562-66.87857-.38712-66.82758-.3886-66.74576-.39125-66.69475-.39273-66.64375-.39423-66.56192-.39636-66.51091-.39792-66.45992-.39948-66.3781-.40236-66.32709-.40398-66.2761-.40558-66.19427-.40805-66.14326-.40959-66.09227-.41115-66.01044-.41367-65.95943-.41522-65.90843-.41676-65.82661-.41924-65.7756-.42084-65.72461-.42245-65.64278-.42522-65.59177-.4269-65.54077-.42857-65.45895-.43123-65.40794-.43295-65.35695-.4347-65.27513-.4377-65.22412-.43944-65.17313-.44116-65.0913-.44377-65.04028-.4455-64.98929-.44724-64.90747-.4502-64.85646-.452-64.80547-.45378-64.72363-.45674-64.67262-.45847-64.62163-.4602-64.53981-.46274-64.4888-.46454-64.4378-.46632-64.35597-.46954-64.30496-.47145-64.25397-.47337-64.17215-.47646-64.12114-.47836-64.07014-.48029-63.98833-.48337-63.93732-.48529-63.88632-.4872-63.80449-.4903-63.7535-.49222-63.70248-.49413-63.62067-.4971-63.56967-.49913-63.51866-.50117-63.43683-.50488-63.38583-.50691-63.33482-.50896-63.253-.51186-63.20201-.51384-63.151-.51581-63.06918-.51909-63.01819-.5212-62.96718-.52328-62.88535-.52672-62.83435-.52898-62.78334-.53123-62.70152-.5354-62.65053-.53763-62.59952-.53984-62.51768-.54283-62.46669-.54498-62.41568-.54713-62.33386-.551-62.28287-.5532-62.23186-.55542-62.15002-.55873-62.09903-.56099-62.04802-.56326-61.9662-.56732-61.9152-.56964-61.8642-.57196-61.78238-.57553-61.73138-.57785-61.68037-.58017-61.59854-.58405-61.54755-.5865-61.49654-.58894-61.41472-.59308-61.36372-.5956-61.31271-.5981-61.23088-.6021-61.17989-.60466-61.12888-.60724-61.04706-.61162-60.99606-.61418-60.94505-.61674-60.86324-.6207-60.81224-.62328-60.76123-.62584-60.6794-.63016-60.6284-.6328-60.5774-.63542-60.49557-.63956-60.44458-.6423-60.39357-.64507-60.31174-.64993-60.26074-.6527-60.20973-.65544-60.12791-.65952-60.07692-.6622-60.02591-.6649-59.94408-.66928-59.89308-.67215-59.84207-.67502-59.76027-.67996-59.70926-.68295-59.65825-.68596-59.57645-.69084-59.52544-.69379-59.47444-.69672-59.39261-.70123-59.3416-.70416-59.2906-.70709-59.20879-.71185-59.15778-.71497-59.10678-.7181-59.02495-.72346-58.97394-.72665-58.92294-.72983-58.84113-.73473-58.79012-.7379-58.73912-.74107-58.6573-.74634-58.6063-.74957-58.5553-.7528-58.47346-.75789-58.42245-.76125-58.37146-.7646-58.28964-.77031-58.23863-.77379-58.18764-.77727-58.1058-.78287-58.0548-.78635-58.0038-.78983-57.92198-.79549-57.87097-.79889-57.81998-.80229-57.73814-.80734-57.68713-.81099-57.63614-.81464-57.55432-.82155-57.50331-.82526-57.45232-.82896-57.3705-.83421-57.31949-.8378-57.2685-.84138-57.18666-.84744-57.13565-.85121-57.08466-.85498-57.00284-.86105-56.95183-.86507-56.90083-.86908-56.819-.87625-56.76799-.8802-56.717-.88416-56.63518-.88966-56.58417-.89362-56.53317-.89757-56.45135-.90462-56.40034-.90875-56.34935-.91289-56.26752-.91925-56.2165-.92345-56.16551-.92764-56.0837-.93477-56.03268-.93903-55.98169-.94327-55.89986-.94984-55.84885-.95416-55.79785-.95848-55.71603-.96573-55.66502-.97017-55.61403-.97461-55.5322-.98163-55.48119-.98618-55.43019-.99072-55.34837-.99843-55.29738-1.00304-55.24637-1.00764-55.16455-1.01488-55.11356-1.01949-55.06255-1.0241-54.98071-1.03162-54.92972-1.03635-54.87871-1.04108-54.79689-1.04868-54.7459-1.05363-54.69489-1.05861-54.61305-1.06728-54.56206-1.07225-54.51105-1.07722-54.42923-1.08452-54.37823-1.08955-54.32722-1.09457-54.2454-1.10324-54.19441-1.10858-54.1434-1.11392-54.06157-1.12247-54.01057-1.12804-53.95956-1.13362-53.87775-1.14334-53.82675-1.1488-53.77574-1.15427-53.69391-1.16206-53.64291-1.1674-53.5919-1.17273-53.51009-1.18172-53.45909-1.1873-53.40808-1.19287-53.32625-1.20177-53.27525-1.20764-53.22424-1.2135-53.14243-1.22365-53.09143-1.22969-53.04042-1.23575-52.9586-1.24538-52.90761-1.25131-52.8566-1.25725-52.77477-1.26657-52.72377-1.2725-52.67276-1.27843-52.59094-1.28778-52.53995-1.29414-52.48894-1.30049-52.4071-1.31181-52.35611-1.31836-52.3051-1.32489-52.22328-1.33481-52.17229-1.34128-52.12128-1.34775-52.03946-1.35841-51.98846-1.36507-51.93745-1.37173-51.85562-1.38242-51.80463-1.3893-51.75362-1.3962-51.6718-1.40768-51.6208-1.41481-51.5698-1.42194-51.48796-1.43358-51.43697-1.44078-51.38596-1.44797-51.30415-1.4596-51.25314-1.46672-51.20213-1.47386-51.12032-1.48492-51.0693-1.49223-51.01831-1.49954-50.9365-1.51175-50.88548-1.51949-50.83449-1.52722-50.75267-1.54018-50.70166-1.54803-50.65067-1.5559-50.56883-1.56834-50.51782-1.57614-50.46683-1.58395-50.38501-1.59619-50.334-1.60428-50.283-1.61237-50.20117-1.62608-50.15016-1.63454-50.09917-1.64299-50.01735-1.6567-49.96634-1.66527-49.91534-1.67384-49.83353-1.6877-49.78252-1.6964-49.73152-1.7051-49.64969-1.71898-49.59868-1.72797-49.54768-1.73697-49.46587-1.75215-49.41486-1.76128-49.36386-1.7704-49.28203-1.78442-49.23102-1.79372-49.18002-1.80301-49.0982-1.81891-49.0472-1.82832-48.9962-1.83772-48.91437-1.85204-48.86336-1.86163-48.81236-1.87122-48.73055-1.88757-48.67953-1.89754-48.62854-1.90749-48.54672-1.92334-48.49571-1.93343-48.44472-1.94351-48.36288-1.95993-48.31187-1.9702-48.26088-1.98045-48.17906-1.99655-48.12805-2.0074-48.07706-2.01825-47.99522-2.03746-47.94421-2.0485-47.89322-2.05952-47.8114-2.076-47.76039-2.08698-47.7094-2.09796-47.62758-2.11649-47.57657-2.12764-47.52557-2.13881-47.44374-2.15587-47.39273-2.16743-47.34174-2.179-47.25992-2.19913-47.20891-2.21112-47.15791-2.22311-47.07608-2.24147-47.02507-2.25394-46.97408-2.26642-46.89226-2.28848-46.84126-2.30109-46.79025-2.31369-46.70842-2.33194-46.65742-2.34477-46.60641-2.3576-46.5246-2.38057-46.4736-2.39365-46.42259-2.40672-46.34077-2.42581-46.28978-2.43907-46.23877-2.45233-46.15694-2.47545-46.10594-2.48924-46.05493-2.50302-45.97311-2.52452-45.92212-2.53856-45.87111-2.55258-45.78928-2.576-45.73828-2.59045-45.68727-2.60492-45.60545-2.6278-45.55446-2.64279-45.50345-2.65779-45.42163-2.6836-45.37064-2.6986-45.31963-2.71358-45.2378-2.7354-45.1868-2.75093-45.13579-2.76646-45.05397-2.79454-45.00298-2.81061-44.95197-2.82668-44.87013-2.85046-44.81914-2.86684-44.76813-2.88321-44.68631-2.91208-44.63531-2.9287-44.5843-2.94531-44.50247-2.9695-44.45148-2.98666-44.40047-3.00383-44.31865-3.03459-44.26765-3.05241-44.21664-3.07024-44.13483-3.09724-44.08383-3.11513-44.03282-3.133-43.95099-3.16283-43.9-3.18129-43.84898-3.19977-43.76717-3.22928-43.71617-3.24835-43.66516-3.26743-43.58333-3.29941-43.53233-3.31885-43.48132-3.33827-43.3995-3.36868-43.34851-3.38849-43.2975-3.40828-43.21568-3.44113-43.16469-3.4616-43.11368-3.48206-43.03185-3.51482-42.98085-3.53598-42.92984-3.55716-42.84804-3.59311-42.79703-3.61427-42.74602-3.63545-42.6642-3.66664-42.61319-3.68866-42.5622-3.71068-42.48038-3.75027-42.42937-3.77301-42.37837-3.79576-42.29655-3.82909-42.24554-3.8526-42.19455-3.87611-42.11272-3.91862-42.0617-3.94257-42.01071-3.9665-41.9289-4.00084-41.87788-4.02519-41.82689-4.04955-41.74506-4.09303-41.69405-4.11818-41.64305-4.14333-41.56123-4.18037-41.51022-4.2064-41.45923-4.23245-41.3774-4.27898-41.32639-4.30591-41.27539-4.33284-41.19357-4.37405-41.14256-4.40063-41.09157-4.4272-41.00975-4.46997-40.95874-4.49751-40.90775-4.52505-40.82591-4.56982-40.7749-4.59917-40.7239-4.62851-40.64209-4.67905-40.59108-4.70903-40.54008-4.73903-40.45825-4.78539-40.40724-4.81543-40.35625-4.84549-40.27443-4.89476-40.22342-4.92572-40.17242-4.9567-40.0906-5.00652-40.0396-5.03862-39.9886-5.07074-39.90677-5.12396-39.85576-5.15714-39.80476-5.19032-39.72295-5.24348-39.67194-5.27782-39.62094-5.31213-39.53911-5.3695-39.4881-5.40456-39.4371-5.43959-39.35529-5.49478-39.30428-5.53041-39.25328-5.56604-39.17145-5.62468-39.12044-5.66147-39.06944-5.69826-38.98763-5.7574-38.93661-5.79556-38.88562-5.83372-38.8038-5.89774-38.75279-5.93657-38.7018-5.97539-38.61996-6.03526-38.56897-6.07542-38.51796-6.11557-38.43614-6.18436-38.38515-6.22594-38.33414-6.26752-38.2523-6.3328-38.20131-6.37515-38.1503-6.41753-38.06848-6.48752-38.01749-6.53131-37.96648-6.5751-37.88466-6.64574-37.83366-6.69092-37.78265-6.7361-37.70082-6.81099-37.64983-6.85701-37.59882-6.90303-37.517-6.9749-37.466-7.02267-37.415-7.07043-37.33316-7.15198-37.28217-7.20131-37.23116-7.25064-37.14934-7.3266-37.09834-7.3782-37.04733-7.42982-36.9655-7.52074-36.9145-7.5733-36.8635-7.62587-36.78168-7.70485-36.73068-7.75713-36.67967-7.80939-36.59785-7.89453-36.54686-7.95003-36.49585-8.00554-36.41402-8.09842-36.36302-8.15723-36.31201-8.21602-36.2302-8.31451-36.1792-8.37393-36.12819-8.43333-36.04636-8.52489-35.99536-8.58543-35.94435-8.64598-35.86253-8.74794-35.81154-8.81035-35.76053-8.87274-35.67871-8.97058-35.62772-9.03528-35.5767-9.09996-35.49487-9.2099-35.44388-9.27663-35.39287-9.34334-35.31105-9.4473-35.26006-9.51625-35.20905-9.5852-35.12721-9.70317-35.07622-9.77362-35.0252-9.84407-34.94339-9.9512-34.8924-10.02405-34.84138-10.09691-34.75955-10.22263-34.70856-10.2987-34.65755-10.3748-34.57573-10.49384-34.52473-10.57251-34.47372-10.65118-34.39192-10.78535-34.34091-10.86577-34.2899-10.9462-34.20808-11.06908-34.15707-11.15211-34.10608-11.23517-34.02426-11.37775-33.97325-11.4644-33.92226-11.55106-33.84042-11.68794-33.78941-11.77669-33.73842-11.86545-33.6566-12.01254-33.60559-12.10413-33.5546-12.19571-33.47278-12.34224-33.42177-12.43675-33.37077-12.53125-33.28894-12.68648-33.23793-12.78537-33.18694-12.88426-33.10512-13.04749-33.05411-13.14957-33.00311-13.25165-32.92128-13.4179-32.87027-13.52112-32.81927-13.62434-32.73746-13.7845-32.68645-13.89354-32.63545-14.00258-32.55362-14.19441-32.50261-14.30705-32.45161-14.41968-32.3698-14.59013-32.31879-14.70541-32.26779-14.8207-32.18597-15.01768-32.13496-15.13795-32.08397-15.25822-32.00214-15.4468-31.95113-15.57222-31.90013-15.69763-31.81831-15.91226-31.7673-16.04196-31.71631-16.17165-31.63448-16.37401-31.58347-16.50694-31.53247-16.63986-31.45065-16.86165-31.39964-17.00003-31.34865-17.13841-31.26683-17.36131-31.21582-17.50436-31.16483-17.64743-31.083-17.88321-31.03198-18.03119-30.98099-18.17918-30.89917-18.41821-30.84816-18.571-30.79716-18.7238-30.71533-18.97449-30.66432-19.13245-30.61333-19.29039-30.53151-19.54315-30.4805-19.70944-30.4295-19.87575-30.34767-20.1593-30.29666-20.331-30.24567-20.50269-30.16385-20.76918-30.11285-20.94693-30.06184-21.1247-29.98003-21.42865-29.92903-21.61217-29.87802-21.79568-29.79619-22.07813-29.7452-22.26962-29.69418-22.46114-29.61237-22.7945-29.56137-22.9924-29.51036-23.19032-29.42853-23.49158-29.37753-23.69615-29.32652-23.90073-29.2447-24.25203-29.19371-24.46692-29.1427-24.68182-29.06088-25.0226-29.00989-25.24507-28.95888-25.46753-28.87704-25.84052-28.82605-26.07036-28.77504-26.30019-28.69322-26.66219-28.64223-26.90169-28.59122-27.14119-28.50938-27.54709-28.45839-27.79662-28.40738-28.04614-28.32556-28.44188-28.27457-28.70016-28.22356-28.95847-28.14172-29.38873-28.09073-29.65825-28.03972-29.92776-27.9579-30.3642-27.9069-30.64272-27.8559-30.92123-27.77408-31.3734-27.72308-31.66565-27.67207-31.95792-27.59024-32.44466-27.53925-32.74918-27.48824-33.05368-27.40642-33.54518-27.35542-33.86037-27.30441-34.17555-27.22258-34.69199-27.17159-35.02084-27.12057-35.34972-27.03876-35.88812-26.98776-36.23067-26.93675-36.57321-26.85493-37.13313-26.80394-37.48979-26.75293-37.84644-26.6711-38.4297-26.6201-38.80124-26.56909-39.17278-26.48727-39.78014-26.43628-40.16763-26.38527-40.55513-26.30344-41.19026-26.25244-41.59415-26.20143-41.99803-26.11961-42.65527-26.06862-43.0786-26.01761-43.50192-25.93579-44.20367-25.88478-44.64525-25.83377-45.08682-25.75197-45.80382-25.70096-46.26123-25.64996-46.71864-25.56815-47.46268-25.51714-47.94206-25.46614-48.42145-25.38431-49.21371-25.3333-49.71632-25.2823-50.21893-25.20049-51.0409-25.14948-51.56458-25.09848-52.08824-25.01665-52.94455-24.96564-53.49066-24.91464-54.03677-24.83282-54.92772-24.78181-55.50067-24.73082-56.07361-24.649-57.02345-24.59799-57.6201-24.547-58.21675-24.46516-59.17892-24.41415-59.80096-24.36316-60.42299-24.28134-61.44734-24.23033-62.10336-24.17934-62.75937-24.0975-63.84122-24.0465-64.52904-23.9955-65.21684-23.91368-66.34328-23.86267-67.06068-23.81168-67.77808-23.72984-68.94792-23.67883-69.69958-23.62784-70.45125-23.54602-71.69005-23.49501-72.47821-23.44402-73.26637-23.3622-74.55835-23.31119-75.38011-23.2602-76.20187-23.17836-77.54013-23.12735-78.40096-23.07635-79.26178-22.99454-80.67656-22.94353-81.58444-22.89253-82.49231-22.8107-83.98724-22.75969-84.9444-22.7087-85.90154-22.62688-87.48022-22.57587-88.48299-22.52487-89.48575-22.44305-91.12077-22.39204-92.17168-22.34105-93.22256-22.25922-94.95508-22.2082-96.05716-22.15721-97.15924-22.0754-98.959-22.02438-100.11479-21.97339-101.27058-21.89156-103.16498-21.84055-104.3874-21.78955-105.60982-21.65674-108.92516-21.65674-108.92516"/>
<use data-text="&#x2022;" xlink:href="#font_2_1" transform="matrix(9.963496,0,0,-9.962899,118.069,133.33861)"/>
<use data-text="(" xlink:href="#font_3_1" transform="matrix(9.963496,0,0,-9.962899,124.08054,142.11687)"/>
<use data-text="0" xlink:href="#font_3_3" transform="matrix(9.963496,0,0,-9.962899,127.94639,142.11687)"/>
<use data-text="," xlink:href="#font_1_1" transform="matrix(9.963496,0,0,-9.962899,132.93735,142.11687)"/>
<use data-text="0" xlink:href="#font_3_3" transform="matrix(9.963496,0,0,-9.962899,137.36573,142.11687)"/>
<use data-text=")" xlink:href="#font_3_2" transform="matrix(9.963496,0,0,-9.962899,142.34748,142.11687)"/>
</svg>
