<svg xmlns="http://www.w3.org/2000/svg" xmlns:xlink="http://www.w3.org/1999/xlink" version="1.1" width="250" height="252" viewBox="0 0 250 252">
<defs>
<path id="font_1_2" d="M.33399964 .30233766C.33999635 .32835389 .36299134 .42037965 .43299867 .42037965 .43798829 .42037965 .46199037 .42037965 .48298646 .40734864 .45498658 .402359 .43499757 .37734986 .43499757 .35334779 .43499757 .33735658 .44599916 .31835938 .47299195 .31835938 .49499513 .31835938 .5269928 .3363495 .5269928 .37635804 .5269928 .42837525 .46798707 .4423828 .43399049 .4423828 .37599183 .4423828 .34098817 .38935853 .32899476 .36634828 .3039856 .43237306 .25 .4423828 .22099304 .4423828 .116989139 .4423828 .05999756 .3133545 .05999756 .28834535 .05999756 .27833558 .069992069 .27833558 .07199097 .27833558 .07998657 .27833558 .08299255 .28033448 .084991458 .28933717 .11898804 .39535523 .18499756 .42037965 .21899414 .42037965 .23799134 .42037965 .272995 .4113617 .272995 .35334779 .272995 .32235719 .2559967 .25532533 .21899414 .11528015 .20298767 .053268434 .16799927 .011245728 .12399292 .011245728 .117996219 .011245728 .09498596 .011245728 .07398987 .024276734 .09899902 .029266358 .12098694 .05027771 .12098694 .07827759 .12098694 .105270389 .09899902 .11328125 .083999637 .11328125 .053985597 .11328125 .0289917 .08728027 .0289917 .055267335 .0289917 .009246826 .07899475-.0107421879 .12298584-.0107421879 .18899536-.0107421879 .22499085 .059280397 .22799683 .0652771 .23999024 .028274537 .27598573-.0107421879 .33599855-.0107421879 .43899537-.0107421879 .49598695 .118270877 .49598695 .14328003 .49598695 .1532898 .4869995 .1532898 .48399354 .1532898 .47499085 .1532898 .47299195 .14929199 .47099305 .14228821 .43798829 .03527832 .36999513 .011245728 .33799745 .011245728 .29899598 .011245728 .2829895 .043273927 .2829895 .07727051 .2829895 .09927368 .2889862 .121276859 .2999878 .16529846L.33399964 .30233766Z"/>
<path id="font_1_3" d="M.48599244 .38136292C.48999024 .39537049 .48999024 .39736939 .48999024 .40437318 .48999024 .42237855 .47599793 .43138124 .46099855 .43138124 .45098878 .43138124 .43499757 .42536927 .42599488 .41036988 .42399598 .405365 .41600038 .37435914 .4119873 .35635377 .40499879 .33035279 .397995 .30334474 .3919983 .27633668L.34700013 .09628296C.34298707 .08126831 .2999878 .011245728 .23399353 .011245728 .18299866 .011245728 .17199707 .055267335 .17199707 .0922699 .17199707 .1382904 .18899536 .20030213 .22299195 .28833009 .23899842 .3293457 .24299622 .3403473 .24299622 .36035157 .24299622 .405365 .21099854 .4423828 .16099549 .4423828 .06599426 .4423828 .0289917 .29733277 .0289917 .28833009 .0289917 .27833558 .038986207 .27833558 .040985109 .27833558 .050994874 .27833558 .051986696 .28033448 .056991579 .29634095 .083999637 .3903656 .12399292 .42037965 .1579895 .42037965 .1659851 .42037965 .18299866 .42037965 .18299866 .3883667 .18299866 .36335755 .17298889 .3373413 .1659851 .31834413 .12599182 .21231079 .10798645 .1552887 .10798645 .10827637 .10798645 .019256592 .17098999-.0107421879 .22999573-.0107421879 .2689972-.0107421879 .30299378 .0062561037 .33099366 .03425598 .31799317-.017745972 .30599977-.06674194 .2659912-.11973572 .23999024-.15385437 .20199585-.18309021 .1559906-.18309021 .14199829-.18309021 .09700012-.18005371 .07998657-.14074707 .09599304-.14074707 .10899353-.14074707 .12298584-.1287384 .1329956-.11973572 .14299011-.10673523 .14299011-.08773804 .14299011-.056747438 .115997318-.052734376 .10598755-.052734376 .08299255-.052734376 .049987794-.068740848 .049987794-.11773682 .049987794-.16796875 .09399414-.20507813 .1559906-.20507813 .25898744-.20507813 .3619995-.11373901 .3899994-.00074768069L.48599244 .38136292Z"/>
<path id="font_2_1" d="M.44400025 .24998474C.44400025 .35688783 .35499574 .44381715 .25 .44381715 .14199829 .44381715 .054992677 .35488893 .054992677 .24998474 .054992677 .14407349 .14199829 .056137086 .25 .056137086 .35499574 .056137086 .44400025 .14308167 .44400025 .24998474Z"/>
<path id="font_3_1" d="M.33099366-.2400055C.33099366-.23701477 .33099366-.23500061 .31399537-.21800232 .18899536-.0920105 .15699768 .09700012 .15699768 .25 .15699768 .42399598 .19499207 .59799197 .31799317 .72299197 .33099366 .73498538 .33099366 .7369995 .33099366 .73999026 .33099366 .746994 .32699586 .75 .32099916 .75 .31098939 .75 .22099304 .6819916 .1619873 .5549927 .11099243 .44499208 .09899902 .33399964 .09899902 .25 .09899902 .17199707 .10998535 .050994874 .16499329-.06201172 .22499085-.18501282 .31098939-.25 .32099916-.25 .32699586-.25 .33099366-.24700928 .33099366-.2400055Z"/>
<path id="font_3_3" d="M.45999146 .31976319C.45999146 .39982606 .45498658 .47988893 .41999818 .5539398 .37399293 .65000918 .2919922 .6660156 .25 .6660156 .18998719 .6660156 .116989139 .64001467 .07598877 .54693606 .04399109 .47789 .038986207 .39982606 .038986207 .31976319 .038986207 .24472046 .042999269 .15464783 .083999637 .07859802 .1269989-.0024719239 .19999695-.022460938 .24899292-.022460938 .30299378-.022460938 .3789978-.0014648438 .4229889 .09359741 .45498658 .16265869 .45999146 .2407074 .45999146 .31976319M.24899292-.00047302247C.20999146-.00047302247 .15098572 .024551392 .1329956 .12062073 .12199402 .18066406 .12199402 .2727356 .12199402 .3317871 .12199402 .39582826 .12199402 .46188355 .12998963 .5159149 .14898682 .63500979 .22399903 .64401248 .24899292 .64401248 .28199769 .64401248 .34799195 .6259918 .36698915 .52693179 .3769989 .47088624 .3769989 .39482118 .3769989 .3317871 .3769989 .25672914 .3769989 .18867493 .3659973 .12461853 .35099793 .029556275 .2939911-.00047302247 .24899292-.00047302247Z"/>
<path id="font_1_1" d="M.20298767 .0009918213C.20298767 .066986087 .17799378 .10598755 .13899231 .10598755 .10598755 .10598755 .085998538 .08099365 .085998538 .052993776 .085998538 .025985718 .10598755 0 .13899231 0 .15098572 0 .1639862 .0039978029 .17399597 .0129852299 .1769867 .01499939 .17799378 .015991211 .1789856 .015991211 .17999268 .015991211 .18099976 .01499939 .18099976 .0009918213 .18099976-.07316589 .1459961-.13328552 .11299133-.16635132 .101989749-.17736817 .101989749-.17936707 .101989749-.18237305 .101989749-.18936157 .10699463-.19335938 .11199951-.19335938 .12298584-.19335938 .20298767-.116256717 .20298767 .0009918213Z"/>
<path id="font_3_2" d="M.2889862 .25C.2889862 .32798768 .27799989 .44898988 .22299195 .56199648 .16299439 .68499758 .07699585 .75 .066986087 .75 .06098938 .75 .056991579 .74598696 .056991579 .73999026 .056991579 .7369995 .056991579 .73498538 .07598877 .71699526 .17399597 .6179962 .23098755 .45899964 .23098755 .25 .23098755 .07899475 .19400025-.09700012 .069992069-.2230072 .056991579-.23500061 .056991579-.23701477 .056991579-.2400055 .056991579-.2460022 .06098938-.25 .066986087-.25 .07699585-.25 .16699219-.18200684 .22599793-.055007936 .2769928 .054992677 .2889862 .16600037 .2889862 .25Z"/>
</defs>
<path transform="matrix(1.00009,0,0,-1.00003,120.56023,131.12454)" stroke-width=".19925" stroke-linecap="butt" stroke-miterlimit="10" stroke-linejoin="miter" fill="none" stroke="#929292" d="M-113.38724-113.38724H113.38724M-113.38724-85.04042H113.38724M-113.38724-56.69362H113.38724M-113.38724-28.3468H113.38724M-113.38724 0H113.38724M-113.38724 28.3468H113.38724M-113.38724 56.69362H113.38724M-113.38724 85.04042H113.38724M-113.38724 113.37727H113.38724M-113.38724-113.38724V113.38724M-85.04042-113.38724V113.38724M-56.69362-113.38724V113.38724M-28.3468-113.38724V113.38724M0-113.38724V113.38724M28.3468-113.38724V113.38724M56.69362-113.38724V113.38724M85.04042-113.38724V113.38724M113.37727-113.38724V113.38724M113.38724 113.38724"/>
<path transform="matrix(1.00009,0,0,-1.00003,120.56023,131.12454)" stroke-width="1.19553" stroke-linecap="butt" stroke-miterlimit="10" stroke-linejoin="miter" fill="none" stroke="#000000" d="M-119.0565 0H118.10008"/>
<path transform="matrix(1.00009,0,0,-1.00003,238.67093,131.12454)" stroke-width=".9564" stroke-linecap="round" stroke-linejoin="round" fill="none" stroke="#000000" d="M-1.91284 2.55046C-1.75343 1.59402 0 .15938 .4782 0 0-.15938-1.75343-1.59402-1.91284-2.55046"/>
<use data-text="x" xlink:href="#font_1_2" transform="matrix(9.963496,0,0,-9.962899,243.5463,133.2696)"/>
<path transform="matrix(1.00009,0,0,-1.00003,120.56023,131.12454)" stroke-width="1.19553" stroke-linecap="butt" stroke-miterlimit="10" stroke-linejoin="miter" fill="none" stroke="#000000" d="M0-119.0565V118.10008"/>
<path transform="matrix(0,-1.00003,-1.00009,-0,120.56023,13.020912)" stroke-width=".9564" stroke-linecap="round" stroke-linejoin="round" fill="none" stroke="#000000" d="M-1.91284 2.55046C-1.75343 1.59402 0 .15938 .4782 0 0-.15938-1.75343-1.59402-1.91284-2.55046"/>
<use data-text="y" xlink:href="#font_1_3" transform="matrix(9.963496,0,0,-9.962899,117.93899,6.208786)"/>
<path transform="matrix(1.00009,0,0,-1.00003,120.56023,131.12454)" stroke-width=".79701" stroke-linecap="butt" stroke-miterlimit="10" stroke-linejoin="miter" fill="none" stroke="#0000ff" d="M17.85991 113.35089C17.85991 113.35089 17.99806 110.75626 18.0511 109.78981 18.10414 108.82335 18.18924 107.31467 18.24228 106.38528 18.29532 105.45592 18.38042 103.98212 18.43346 103.09152 18.4865 102.20093 18.5716 100.8196 18.62463 99.96645 18.67767 99.11328 18.76277 97.76547 18.81581 96.94257 18.86885 96.11967 18.95395 94.82346 19.00699 94.03548 19.06003 93.2475 19.14516 92.01993 19.1982 91.26334 19.25124 90.50674 19.33633 89.30923 19.38937 88.58247 19.44241 87.85571 19.52751 86.72534 19.58055 86.0253 19.63359 85.32524 19.71869 84.21135 19.77173 83.53691 19.82477 82.86247 19.90987 81.80975 19.9629 81.16443 20.01595 80.5191 20.10106 79.5096 20.1541 78.88582 20.20714 78.26205 20.29224 77.26889 20.34528 76.66864 20.39832 76.06839 20.48341 75.13733 20.53645 74.55959 20.5895 73.98183 20.67459 73.06337 20.72763 72.5046 20.78067 71.94582 20.86578 71.06766 20.91882 70.53223 20.97186 69.9968 21.05696 69.16246 21.11 68.6455 21.16304 68.12854 21.24815 67.30608 21.3012 66.80635 21.35423 66.30661 21.43933 65.52643 21.49237 65.04376 21.54541 64.56108 21.63051 63.79344 21.68355 63.32744 21.73659 62.86143 21.82169 62.1329 21.87473 61.68509 21.92776 61.23727 22.01286 60.53247 22.0659 60.09984 22.11894 59.6672 22.20404 58.98634 22.25708 58.56693 22.31012 58.14749 22.39523 57.48318 22.44827 57.07684 22.50131 56.67049 22.58643 56.02866 22.63947 55.63821 22.6925 55.24777 22.7776 54.6413 22.83064 54.26274 22.88368 53.88419 22.96878 53.27667 23.02182 52.90976 23.07486 52.54285 23.15996 51.9721 23.213 51.61821 23.26604 51.2643 23.35115 50.70193 23.40419 50.35909 23.45723 50.01624 23.54233 49.47742 23.59537 49.14711 23.6484 48.8168 23.7335 48.29857 23.78654 47.9784 23.83958 47.65822 23.92468 47.15135 23.97772 46.83952 24.03076 46.5277 24.11586 46.03291 24.1689 45.73093 24.22194 45.42894 24.30705 44.95381 24.36009 44.663 24.41313 44.37218 24.49825 43.91805 24.55128 43.63486 24.60432 43.35165 24.68942 42.8977 24.74246 42.62184 24.7955 42.34596 24.8806 41.91202 24.93364 41.64647 24.98668 41.38092 25.07178 40.96472 25.12482 40.70787 25.17786 40.45102 25.26295 40.04529 25.316 39.79521 25.36903 39.54514 25.45413 39.149 25.50717 38.90547 25.56021 38.66194 25.64532 38.2755 25.69836 38.03996 25.7514 37.80443 25.8365 37.43701 25.88954 37.20776 25.94258 36.97852 26.0277 36.61055 26.08073 36.38768 26.13377 36.1648 26.21887 35.81696 26.27191 35.60132 26.32495 35.3857 26.41005 35.04222 26.46309 34.83356 26.51613 34.6249 26.60124 34.30023 26.65428 34.0974 26.70732 33.89455 26.79242 33.57036 26.84546 33.37158 26.8985 33.17282 26.9836 32.85817 27.03664 32.66481 27.08968 32.47147 27.17477 32.1647 27.22781 31.97795 27.28085 31.79118 27.36595 31.50041 27.41899 31.31876 27.47203 31.13712 27.55713 30.84534 27.61017 30.66866 27.66321 30.49199 27.74834 30.21718 27.80138 30.04536 27.85442 29.87355 27.93951 29.59845 27.99255 29.43031 28.0456 29.26216 28.13069 28.99669 28.18373 28.8334 28.23677 28.67012 28.32187 28.40994 28.37491 28.25337 28.42795 28.0968 28.51305 27.8583 28.56609 27.70491 28.61913 27.55153 28.70422 27.30034 28.75728 27.1478 28.81032 26.99524 28.89542 26.75247 28.94846 26.60541 29.0015 26.45833 29.0866 26.2294 29.13963 26.08765 29.19267 25.9459 29.27777 25.72147 29.33081 25.58374 29.38385 25.446 29.46896 25.22987 29.522 25.09497 29.57504 24.96007 29.66014 24.7435 29.71318 24.6114 29.76622 24.47931 29.85133 24.27222 29.90437 24.14296 29.95741 24.01369 30.04251 23.80536 30.09555 23.6797 30.14859 23.55405 30.23369 23.35814 30.28673 23.23721 30.33977 23.1163 30.42487 22.92654 30.4779 22.80815 30.53094 22.68976 30.61604 22.50073 30.66908 22.38382 30.72212 22.26692 30.80722 22.07898 30.86026 21.96556 30.9133 21.85214 30.99843 21.67645 31.05147 21.56633 31.1045 21.4562 31.1896 21.27975 31.24265 21.17184 31.29568 21.06395 31.38078 20.89423 31.43382 20.78862 31.48686 20.68301 31.57196 20.51387 31.625 20.4106 31.67804 20.30731 31.76314 20.14438 31.81618 20.04422 31.86922 19.94408 31.95433 19.7859 32.00737 19.68869 32.06041 19.59146 32.14551 19.4387 32.19855 19.34352 32.25159 19.24834 32.33669 19.09671 32.38972 19.00269 32.44276 18.90865 32.52786 18.75856 32.5809 18.66573 32.63394 18.57289 32.71906 18.42271 32.7721 18.33353 32.82513 18.24435 32.91023 18.10931 32.96327 18.02296 33.01631 17.93663 33.10143 17.79561 33.15446 17.71112 33.2075 17.62663 33.2926 17.4967 33.34564 17.41397 33.39868 17.33122 33.48378 17.19644 33.53682 17.11465 33.58986 17.03287 33.67496 16.90364 33.728 16.82442 33.78104 16.7452 33.86613 16.62117 33.91917 16.5437 33.97221 16.46623 34.05731 16.34167 34.11035 16.266 34.16339 16.19032 34.2485 16.07237 34.30154 15.99826 34.35458 15.92415 34.4397 15.80522 34.49274 15.73183 34.54578 15.65843 34.63087 15.54008 34.68391 15.46927 34.73695 15.39845 34.82205 15.29002 34.87509 15.22144 34.92813 15.15283 35.01323 15.0428 35.06627 14.97488 35.11931 14.90697 35.20442 14.79881 35.25746 14.7318 35.3105 14.66476 35.3956 14.55731 35.44864 14.49173 35.50168 14.42615 35.58678 14.32246 35.63982 14.25903 35.69286 14.19562 35.77795 14.09659 35.831 14.03455 35.88403 13.9725 35.96913 13.87247 36.02217 13.8118 36.07521 13.75113 36.16032 13.65726 36.21336 13.59724 36.2664 13.53725 36.35152 13.4386 36.40456 13.37926 36.4576 13.3199 36.5427 13.2275 36.59573 13.16946 36.64877 13.11143 36.73387 13.01709 36.78691 12.96098 36.83995 12.90488 36.92505 12.81906 36.97809 12.76505 37.03113 12.71103 37.11623 12.62581 37.16927 12.5717 37.2223 12.51758 37.3074 12.42787 37.36044 12.3749 37.41348 12.32191 37.4986 12.24084 37.55164 12.18977 37.60468 12.13872 37.68977 12.05743 37.74281 12.0068 37.79585 11.95616 37.88097 11.8742 37.934 11.8247 37.98705 11.77522 38.07214 11.6988 38.12518 11.64996 38.17822 11.60112 38.26332 11.52039 38.31636 11.47263 38.3694 11.42485 38.45451 11.35228 38.50755 11.30566 38.5606 11.25903 38.64569 11.18214 38.69873 11.13654 38.75177 11.09093 38.83687 11.02151 38.88991 10.97693 38.94295 10.93234 39.02805 10.85915 39.08109 10.81517 39.13412 10.7712 39.21922 10.70284 39.27226 10.65988 39.3253 10.61691 39.4104 10.54813 39.46344 10.50548 39.51648 10.46281 39.60161 10.39398 39.65465 10.35234 39.70769 10.3107 39.79279 10.24591 39.84583 10.20529 39.89886 10.16467 39.98396 10.09912 40.037 10.05952 40.09004 10.01993 40.17514 9.95905 40.22818 9.91982 40.28122 9.88058 40.36632 9.81548 40.41936 9.77664 40.4724 9.73782 40.5575 9.67734 40.61053 9.63997 40.66359 9.60258 40.74869 9.54474 40.80173 9.50717 40.85477 9.4696 40.93987 9.40633 40.9929 9.36919 41.04594 9.33205 41.13104 9.27531 41.18408 9.23944 41.23712 9.20355 41.32224 9.14546 41.37527 9.11053 41.42831 9.07562 41.51341 9.02165 41.56645 8.98769 41.61949 8.95374 41.7046 8.89937 41.75764 8.8657 41.81068 8.83205 41.89578 8.7784 41.94882 8.74504 42.00186 8.71169 42.08696 8.65842 42.14 8.62523 42.19304 8.59204 42.27814 8.53766 42.33118 8.50584 42.38422 8.47404 42.46931 8.42683 42.52235 8.39598 42.5754 8.36514 42.66049 8.31412 42.71353 8.28352 42.76657 8.25291 42.85168 8.20581 42.90472 8.17538 42.95776 8.14497 43.04288 8.09433 43.09592 8.06421 43.14896 8.0341 43.23405 7.98753 43.2871 7.95825 43.34013 7.92899 43.42523 7.88177 43.47827 7.85315 43.53131 7.82452 43.61641 7.77983 43.66945 7.75194 43.72249 7.72404 43.80759 7.67963 43.86064 7.65201 43.91368 7.6244 43.99878 7.58026 44.05182 7.55296 44.10486 7.52565 44.18996 7.48233 44.243 7.45522 44.29604 7.42809 44.38113 7.38393 44.43417 7.35747 44.48721 7.331 44.57233 7.29007 44.62537 7.26445 44.6784 7.23885 44.7635 7.1982 44.81654 7.17276 44.86958 7.14732 44.9547 7.10637 45.00774 7.08105 45.06078 7.05574 45.14587 7.01488 45.19891 6.99023 45.25195 6.96558 45.33705 6.92723 45.39009 6.90329 45.44313 6.87935 45.52823 6.84178 45.58127 6.81766 45.63431 6.79353 45.7194 6.75342 45.77245 6.7294 45.82549 6.7054 45.91058 6.66751 45.96362 6.64464 46.01666 6.62178 46.10178 6.5868 46.15482 6.56462 46.20786 6.54242 46.29297 6.50716 46.34601 6.48459 46.39905 6.46204 46.48415 6.42387 46.53719 6.402 46.59023 6.3801 46.67532 6.34796 46.72836 6.32672 46.7814 6.30548 46.8665 6.2704 46.91954 6.24886 46.97258 6.22731 47.0577 6.19237 47.11073 6.17143 47.16377 6.1505 47.24887 6.11818 47.30191 6.0979 47.35495 6.07762 47.44005 6.04497 47.49309 6.02524 47.54613 6.00551 47.63123 5.97563 47.68427 5.9556 47.7373 5.93556 47.8224 5.90056 47.87544 5.88077 47.92848 5.86098 48.0136 5.83212 48.06664 5.81287 48.11967 5.79361 48.20479 5.76071 48.25783 5.74193 48.31087 5.72316 48.39597 5.696 48.449 5.67747 48.50204 5.65895 48.58714 5.62668 48.64018 5.60828 48.69322 5.58986 48.77832 5.56262 48.83136 5.5447 48.8844 5.52675 48.9695 5.49663 49.02254 5.47894 49.07558 5.46124 49.16068 5.43425 49.21371 5.4171 49.26675 5.39995 49.35187 5.3727 49.4049 5.35524 49.45795 5.33778 49.54305 5.30826 49.59608 5.29123 49.64912 5.27419 49.73424 5.24925 49.78728 5.23239 49.84032 5.21553 49.92542 5.18636 49.97845 5.16968 50.0315 5.153 50.1166 5.12836 50.16963 5.11214 50.22267 5.09593 50.30779 5.0689 50.36082 5.05289 50.41386 5.03688 50.49896 5.01227 50.552 4.99667 50.60504 4.98108 50.69014 4.95628 50.74318 4.94044 50.79622 4.92459 50.88132 4.89783 50.93436 4.88248 50.9874 4.86711 51.0725 4.84422 51.12553 4.82971 51.17857 4.81519 51.26367 4.79257 51.31671 4.7778 51.36975 4.76305 51.45488 4.73799 51.50792 4.7233 51.56096 4.70859 51.64606 4.68636 51.6991 4.67183 51.75214 4.65732 51.83723 4.63297 51.89027 4.61862 51.94331 4.6043 52.02841 4.58206 52.08145 4.56845 52.13449 4.55482 52.21959 4.534 52.27263 4.52043 52.32567 4.50688 52.41077 4.48444 52.4638 4.4707 52.51685 4.45695 52.60196 4.4347 52.655 4.42139 52.70804 4.40807 52.79314 4.38794 52.84618 4.37468 52.89922 4.36142 52.98431 4.33893 53.03735 4.32579 53.0904 4.31265 53.1755 4.29265 53.22855 4.27994 53.28159 4.26723 53.36668 4.2464 53.41972 4.2341 53.47276 4.2218 53.55788 4.20346 53.61092 4.19128 53.66396 4.17911 53.74905 4.15877 53.8021 4.14629 53.85513 4.1338 53.94023 4.11366 53.99327 4.1013 54.04631 4.08894 54.13141 4.06912 54.18445 4.05719 54.23749 4.04526 54.32259 4.0268 54.37563 4.01523 54.42867 4.00366 54.51376 3.98546 54.5668 3.97371 54.61984 3.96196 54.70496 3.94215 54.758 3.93047 54.81104 3.91878 54.89615 3.90034 54.94919 3.88937 55.00223 3.8784 55.08733 3.86217 55.14037 3.8513 55.1934 3.84045 55.2785 3.82224 55.33154 3.81108 55.38458 3.79993 55.46968 3.78195 55.52272 3.77086 55.57576 3.75977 55.66086 3.74173 55.71391 3.73106 55.76695 3.72038 55.85205 3.70418 55.90509 3.69386 55.95813 3.68353 56.04323 3.66692 56.09627 3.65666 56.1493 3.6464 56.2344 3.63033 56.28745 3.6199 56.34048 3.60947 56.42558 3.59148 56.47862 3.58139 56.53166 3.57132 56.61678 3.55724 56.66982 3.54723 56.72285 3.5372 56.80797 3.51913 56.86101 3.50917 56.91405 3.4992 56.99915 3.48477 57.05219 3.47542 57.10522 3.46608 57.19032 3.45122 57.24336 3.4417 57.2964 3.43216 57.3815 3.41606 57.43454 3.40665 57.48758 3.39723 57.57268 3.3832 57.62572 3.37378 57.67876 3.36438 57.76385 3.34787 57.8169 3.33875 57.86993 3.32962 57.95505 3.31673 58.00809 3.30803 58.06113 3.29933 58.14624 3.28526 58.19928 3.27603 58.25232 3.2668 58.33742 3.25064 58.39046 3.24142 58.4435 3.2322 58.5286 3.21823 58.58163 3.20941 58.63467 3.2006 58.71977 3.1863 58.77281 3.17784 58.82585 3.16939 58.91096 3.15688 58.964 3.14842 59.01704 3.13997 59.10214 3.12524 59.15518 3.11685 59.20822 3.10846 59.29332 3.0962 59.34636 3.08788 59.3994 3.07954 59.4845 3.065 59.53754 3.05673 59.59058 3.04846 59.67567 3.03586 59.72871 3.02818 59.78175 3.02051 59.86687 3.00928 59.9199 3.00136 59.97295 2.99344 60.05806 2.979 60.1111 2.97108 60.16414 2.96317 60.24924 2.95207 60.30228 2.94426 60.35532 2.93646 60.44041 2.9226 60.49345 2.91487 60.5465 2.90714 60.63159 2.89597 60.68463 2.88847 60.73767 2.88098 60.82277 2.86816 60.87581 2.8608 60.92885 2.85342 61.01395 2.84258 61.06699 2.83527 61.12003 2.82796 61.20514 2.81564 61.25818 2.80803 61.31122 2.80042 61.39632 2.78741 61.44936 2.78035 61.5024 2.77327 61.58751 2.76395 61.64055 2.75697 61.69359 2.75002 61.77869 2.73735 61.83173 2.73016 61.88477 2.72298 61.96986 2.71196 62.0229 2.70508 62.07594 2.6982 62.16106 2.68726 62.2141 2.68042 62.26714 2.67358 62.35223 2.66258 62.40527 2.65576 62.45831 2.64894 62.54341 2.6379 62.59645 2.63112 62.64949 2.62434 62.73459 2.6133 62.78763 2.60689 62.84067 2.60048 62.92577 2.59125 62.9788 2.58482 63.03185 2.57841 63.11694 2.56715 63.16998 2.56061 63.22302 2.55408 63.30815 2.54404 63.36119 2.53769 63.41423 2.53134 63.49933 2.52106 63.55237 2.51477 63.60541 2.50847 63.6905 2.4985 63.74355 2.49226 63.79659 2.48604 63.88168 2.47583 63.93472 2.46979 63.98776 2.46373 64.07286 2.45462 64.1259 2.44858 64.17894 2.44252 64.26404 2.43214 64.31708 2.42609 64.37012 2.42004 64.45523 2.41083 64.50827 2.4049 64.56131 2.39897 64.64641 2.38907 64.69945 2.38327 64.75249 2.37746 64.83759 2.36864 64.89063 2.36295 64.94366 2.35724 65.02878 2.34798 65.08182 2.34218 65.13486 2.33636 65.21996 2.32669 65.273 2.32098 65.32603 2.31528 65.41115 2.30661 65.46419 2.30109 65.51723 2.29556 65.60233 2.2867 65.65536 2.28119 65.7084 2.27567 65.7935 2.26686 65.84654 2.26129 65.89958 2.2557 65.98468 2.24635 66.03772 2.24097 66.09076 2.23557 66.17586 2.2277 66.2289 2.22237 66.28194 2.21704 66.36703 2.20775 66.42007 2.20247 66.47311 2.19719 66.55823 2.18939 66.61127 2.18431 66.6643 2.17921 66.74942 2.17091 66.80246 2.1657 66.8555 2.16048 66.9406 2.15187 66.99364 2.14667 67.04668 2.14145 67.13177 2.1331 67.18481 2.12807 67.23785 2.12305 67.32295 2.11523 67.37599 2.11034 67.42903 2.10542 67.51413 2.09752 67.56717 2.0926 67.62022 2.08769 67.70532 2.07977 67.75836 2.07486 67.8114 2.06996 67.8965 2.06187 67.94954 2.05714 68.00258 2.05241 68.08768 2.04544 68.14072 2.04071 68.19376 2.03598 68.27885 2.02776 68.3319 2.02296 68.38493 2.01817 68.47005 2.0107 68.52309 2.00609 68.57613 2.00148 68.66124 1.99416 68.71428 1.98965 68.76732 1.98515 68.85242 1.9782 68.90546 1.97365 68.9585 1.9691 69.0436 1.96133 69.09663 1.95679 69.14967 1.95224 69.23477 1.94528 69.28781 1.94078 69.34085 1.93628 69.42595 1.92873 69.47899 1.92435 69.53203 1.91997 69.61713 1.91347 69.67017 1.90921 69.7232 1.90495 69.80832 1.89803 69.86136 1.89365 69.9144 1.88927 69.9995 1.88196 70.05254 1.87764 70.10558 1.87332 70.19069 1.86668 70.24373 1.86249 70.29677 1.85829 70.38187 1.85149 70.4349 1.84735 70.48795 1.84322 70.57304 1.83679 70.62608 1.83266 70.67912 1.82852 70.76424 1.82164 70.81728 1.8175 70.87032 1.81337 70.95541 1.80682 71.00845 1.80281 71.0615 1.7988 71.14659 1.79254 71.19963 1.78853 71.25267 1.78452 71.33777 1.77771 71.39081 1.77382 71.44385 1.76993 71.52895 1.7643 71.58199 1.7604 71.63503 1.75652 71.72012 1.74973 71.77316 1.74571 71.8262 1.7417 71.91133 1.73528 71.96437 1.73143 72.01741 1.7276 72.10251 1.7218 72.15555 1.71803 72.20859 1.71426 72.29369 1.70789 72.34673 1.70418 72.39977 1.70047 72.48486 1.69492 72.5379 1.69121 72.59094 1.6875 72.67604 1.68108 72.72908 1.67737 72.78212 1.67366 72.86722 1.66792 72.92026 1.6644 72.9733 1.66087 73.05841 1.65538 73.11145 1.65186 73.16449 1.64833 73.24959 1.6424 73.30263 1.63887 73.35567 1.63535 73.44078 1.62979 73.49382 1.62633 73.54686 1.62286 73.63196 1.61731 73.685 1.61378 73.73804 1.61026 73.82314 1.60423 73.87617 1.6008 73.92921 1.59738 74.01433 1.59254 74.06737 1.58913 74.1204 1.58571 74.2055 1.57957 74.25854 1.57614 74.31158 1.57272 74.39668 1.56784 74.44972 1.56447 74.50276 1.56111 74.58786 1.55524 74.6409 1.55193 74.69394 1.54863 74.77904 1.5438 74.83208 1.54068 74.88512 1.53757 74.97021 1.53273 75.02325 1.52943 75.0763 1.52614 75.16142 1.52013 75.21446 1.51689 75.2675 1.51366 75.3526 1.5092 75.40564 1.50609 75.45868 1.50296 75.54378 1.49759 75.59682 1.49442 75.64986 1.49123 75.73495 1.48633 75.788 1.48315 75.84103 1.47998 75.92613 1.4746 75.97917 1.47148 76.03221 1.46837 76.11731 1.46365 76.17035 1.46066 76.22339 1.45766 76.3085 1.45291 76.36154 1.44984 76.41458 1.4468 76.49968 1.44153 76.55272 1.4386 76.60576 1.43567 76.69086 1.4316 76.7439 1.42867 76.79694 1.42572 76.88205 1.42041 76.93509 1.4174 76.98813 1.41441 77.07323 1.4099 77.12627 1.40703 77.1793 1.40416 77.26442 1.39952 77.31746 1.39664 77.3705 1.39377 77.4556 1.38914 77.50864 1.38628 77.56168 1.3834 77.64677 1.37871 77.69981 1.3759 77.75285 1.37308 77.83795 1.36862 77.89099 1.36594 77.94403 1.36325 78.02913 1.35918 78.08217 1.35641 78.13521 1.35367 78.2203 1.34885 78.27335 1.34604 78.32639 1.34323 78.4115 1.33879 78.46454 1.33609 78.51758 1.3334 78.60269 1.32921 78.65573 1.32658 78.70877 1.32394 78.79387 1.31975 78.84691 1.31706 78.89995 1.31438 78.98505 1.30975 79.03809 1.30711 79.09113 1.30449 79.17622 1.30054 79.22926 1.29803 79.2823 1.29552 79.3674 1.29158 79.42044 1.28896 79.47348 1.28632 79.5586 1.28157 79.61163 1.27899 79.66467 1.27643 79.74977 1.2728 79.80281 1.27034 79.85585 1.2679 79.94095 1.26378 79.99399 1.26128 80.04703 1.25876 80.13213 1.25468 80.18517 1.25218 80.2382 1.24966 80.32332 1.2456 80.37636 1.2431 80.4294 1.2406 80.51451 1.23647 80.56755 1.23401 80.62059 1.23157 80.70569 1.22775 80.75873 1.22536 80.81177 1.22298 80.89687 1.2191 80.9499 1.21672 81.00294 1.21432 81.08804 1.2104 81.14108 1.20807 81.19412 1.20572 81.27922 1.20218 81.33226 1.19984 81.3853 1.1975 81.4704 1.19351 81.52344 1.1912 81.57648 1.18886 81.66159 1.18524 81.71463 1.18298 81.76767 1.18071 81.85277 1.17702 81.9058 1.17476 81.95885 1.17249 82.04396 1.16881 82.097 1.16655 82.15004 1.16428 82.23514 1.16054 82.28818 1.15833 82.34122 1.1561 82.42632 1.1527 82.47935 1.15054 82.5324 1.14838 82.6175 1.14497 82.67055 1.14276 82.72359 1.14053 82.80869 1.13669 82.86172 1.13454 82.91476 1.13237 82.99986 1.12933 83.0529 1.12717 83.10594 1.12502 83.19104 1.12117 83.24408 1.11896 83.29712 1.11676 83.38222 1.11322 83.43526 1.11118 83.4883 1.10915 83.5734 1.10635 83.62643 1.10425 83.67947 1.10216 83.7646 1.09814 83.81764 1.09604 83.87068 1.09395 83.95578 1.09122 84.00882 1.08913 84.06186 1.08702 84.14696 1.083 84.2 1.0809 84.25304 1.0788 84.33813 1.07596 84.39117 1.07397 84.44421 1.072 84.52931 1.06866 84.58235 1.06662 84.63539 1.06459 84.72049 1.06125 84.77353 1.05927 84.82657 1.0573 84.91168 1.05432 84.96472 1.05235 85.01776 1.05037 85.10286 1.04697 85.1559 1.045 85.20894 1.04301 85.29404 1.04 85.34708 1.03807 85.40012 1.03616 85.48523 1.03307 85.53827 1.03116 85.59131 1.02924 85.6764 1.02615 85.72945 1.02425 85.78249 1.02232 85.8676 1.01917 85.92064 1.0173 85.97368 1.01546 86.05878 1.01262 86.11182 1.01083 86.16486 1.00903 86.24995 1.0062 86.303 1.00435 86.35603 1.00249 86.44113 .99928 86.49417 .99742 86.54721 .99557 86.63231 .99272 86.68535 .99094 86.73839 .98914 86.82349 .98624 86.87653 .98444 86.92957 .98265 87.0147 .97975 87.06773 .97795 87.12077 .97615 87.20587 .97325 87.25891 .97147 87.31195 .96967 87.39705 .96672 87.45009 .96498 87.50313 .96326 87.58823 .96059 87.64127 .95892 87.6943 .95724 87.7794 .9546 87.83244 .95287 87.88548 .95114 87.97058 .9481 88.02362 .94638 88.07666 .94464 88.16177 .942 88.21481 .94032 88.26785 .93866 88.35295 .93599 88.40599 .93427 88.45903 .93253 88.54413 .92946 88.59717 .92778 88.6502 .92612 88.73532 .92377 88.78836 .92216 88.8414 .92055 88.9265 .91771 88.97954 .91609 89.03258 .91449 89.11769 .9121 89.17073 .91049 89.22377 .90887 89.30887 .90604 89.36191 .90442 89.41495 .9028 89.50005 .90034 89.55309 .89879 89.60612 .89725 89.69122 .89471 89.74426 .89317 89.7973 .89162 89.8824 .88918 89.93544 .88756 89.98848 .88596 90.07358 .8831 90.12662 .8815 90.17966 .87988 90.26477 .87737 90.31781 .87587 90.37085 .87437 90.45596 .87218 90.509 .87068 90.56204 .8692 90.64714 .86655 90.70018 .86507 90.75322 .86357 90.83832 .86143 90.89136 .85988 90.9444 .85832 91.0295 .8553 91.08253 .8538 91.13557 .85233 91.22067 .85042 91.27371 .84906 91.32675 .84769 91.41187 .84535 91.4649 .84387 91.51794 .84238 91.60304 .83974 91.65608 .83824 91.70912 .83676 91.79422 .83447 91.84726 .83304 91.9003 .83162 91.9854 .82928 92.03844 .82787 92.09148 .82643 92.17659 .82411 92.22963 .82268 92.28267 .82124 92.36778 .81885 92.42082 .81747 92.47386 .81612 92.55896 .81409 92.612 .81271 92.66504 .81136 92.75014 .8089 92.80318 .80754 92.85622 .80617 92.94131 .8041 92.99435 .80278 93.0474 .80147 93.13249 .7994 93.18553 .79802 93.23857 .79665 93.32367 .79425 93.37671 .79282 93.42975 .7914 93.51486 .78894 93.5679 .78764 93.62094 .78633 93.70604 .7846 93.75908 .78331 93.81212 .782 93.89723 .7795 93.95027 .77812 94.00331 .77675 94.08841 .77461 94.14145 .77336 94.19449 .77211 94.27959 .77022 94.33263 .76903 94.38567 .76784 94.47076 .76602 94.5238 .76471 94.57686 .76341 94.66196 .76083 94.715 .75952 94.76804 .75822 94.85313 .75644 94.90617 .7552 94.95921 .75395 95.04431 .75168 95.09735 .75044 95.15039 .74919 95.23549 .74728 95.28853 .74611 95.34157 .74492 95.42667 .74304 95.4797 .74179 95.53275 .74054 95.61787 .73828 95.67091 .73703 95.72395 .73578 95.80905 .73389 95.86209 .7327 95.91513 .7315 96.00023 .72957 96.05327 .72838 96.10631 .72719 96.1914 .72523 96.24445 .72404 96.29749 .72285 96.38258 .72092 96.43562 .71973 96.48866 .71855 96.57376 .71654 96.6268 .7154 96.67984 .71426 96.76495 .71269 96.818 .7115 96.87103 .71033 96.95613 .70793 97.00917 .70674 97.06221 .70557 97.14731 .70398 97.20035 .70285 97.25339 .70174 97.3385 .69966 97.39154 .69853 97.44458 .69742 97.52968 .69579 97.58272 .69464 97.63576 .69351 97.72087 .69145 97.77391 .6903 97.82695 .68918 97.91205 .6875 97.96509 .68642 98.01813 .68535 98.10323 .68361 98.15627 .68253 98.2093 .68146 98.2944 .67972 98.34744 .67863 98.40048 .67757 98.48558 .67589 98.53862 .67474 98.59166 .67361 98.67676 .67155 98.7298 .67041 98.78284 .66928 98.86795 .66754 98.92099 .66652 98.97403 .66551 99.05914 .66415 99.11218 .66307 99.16522 .66199 99.25032 .65982 99.30336 .65874 99.3564 .65765 99.4415 .6563 99.49454 .65527 99.54758 .65425 99.63268 .65247 99.68571 .65138 99.73875 .6503 99.82385 .64851 99.87689 .64749 99.92993 .64647 100.01505 .645 100.06808 .64404 100.12112 .64308 100.20622 .64153 100.25926 .64058 100.3123 .63962 100.3974 .63812 100.45044 .6371 100.50348 .6361 100.5886 .63423 100.64163 .63321 100.69467 .6322 100.77977 .63078 100.83281 .62976 100.88585 .62875 100.97096 .62689 101.024 .62587 101.07704 .62485 101.16214 .6233 101.21518 .6224 101.26822 .6215 101.35332 .62035 101.40636 .61938 101.4594 .61842 101.5445 .61652 101.59753 .6155 101.65057 .61447 101.73567 .61304 101.78871 .61203 101.84175 .61101 101.92685 .60909 101.97989 .60814 102.03293 .60718 102.11804 .606 102.17108 .6051 102.22412 .60422 102.30923 .6026 102.36227 .60164 102.41531 .60068 102.50041 .59909 102.55345 .59819 102.60649 .59729 102.69159 .59605 102.74463 .59515 102.79767 .59425 102.88277 .59259 102.9358 .5917 102.98885 .5908 103.07394 .58957 103.12698 .58867 103.18002 .58778 103.26514 .5861 103.31818 .5852 103.37122 .5843 103.45631 .58308 103.50935 .58218 103.5624 .58128 103.64749 .57962 103.70053 .57872 103.75357 .57782 103.83867 .57658 103.89171 .5757 103.94475 .5748 104.02986 .57312 104.0829 .57222 104.13594 .57133 104.22105 .57004 104.2741 .5692 104.32713 .56836 104.41223 .56702 104.46527 .56618 104.51831 .56534 104.60341 .56398 104.65645 .56316 104.70949 .56232 104.79459 .56096 104.84763 .56012 104.90067 .5593 104.98576 .55794 105.0388 .5571 105.09184 .55626 105.17694 .5549 105.22998 .55406 105.28302 .55322 105.36813 .55186 105.42117 .55104 105.47421 .5502 105.55931 .54884 105.61235 .548 105.66539 .54716 105.7505 .54582 105.80354 .54498 105.85658 .54414 105.94168 .5428 105.99472 .54196 106.04776 .54112 106.13286 .5397 106.1859 .53894 106.23894 .53816 106.32404 .53711 106.37708 .53633 106.43013 .53555 106.51523 .53415 106.56827 .53331 106.6213 .53247 106.7064 .53105 106.75945 .53029 106.81248 .52951 106.89758 .52846 106.95062 .52768 107.00366 .5269 107.08876 .52544 107.1418 .52466 107.19484 .52388 107.27994 .52283 107.33298 .52206 107.38602 .52129 107.47115 .5198 107.52419 .51903 107.57722 .51826 107.66232 .51715 107.71536 .51643 107.7684 .51572 107.8535 .5146 107.90654 .51384 107.95958 .51306 108.04468 .51158 108.09772 .5108 108.15076 .51004 108.23586 .50893 108.2889 .50821 108.34193 .50749 108.42703 .50633 108.48007 .50563 108.53311 .50491 108.61823 .50374 108.67126 .50302 108.7243 .5023 108.8094 .50114 108.86244 .50043 108.91548 .49971 109.00058 .49861 109.05362 .49785 109.10666 .49707 109.19177 .49557 109.24481 .4948 109.29785 .49403 109.38295 .49287 109.43599 .49222 109.48903 .49156 109.57413 .49069 109.62718 .49004 109.68022 .4894 109.76532 .48817 109.81836 .48746 109.8714 .48674 109.9565 .48558 110.00954 .48486 110.06258 .48415 110.14767 .48297 110.20071 .48225 110.25375 .48155 110.33885 .4804 110.39189 .47968 110.44493 .47896 110.53003 .47778 110.58307 .47708 110.63611 .47636 110.72122 .47513 110.77426 .47447 110.8273 .47382 110.91241 .47298 110.96545 .47232 111.0185 .47166 111.10359 .47043 111.15663 .46971 111.20967 .46901 111.29477 .46777 111.34781 .46712 111.40085 .46646 111.48595 .46555 111.53899 .46497 111.59203 .46437 111.67712 .46346 111.73016 .4628 111.7832 .46214 111.86832 .46086 111.92136 .4602 111.9744 .45955 112.0595 .4587 112.11253 .45804 112.16557 .45738 112.25067 .4561 112.30371 .45544 112.35675 .45479 112.44185 .45387 112.49489 .45328 112.54793 .4527 112.63304 .45178 112.68608 .45113 112.73912 .45047 112.82423 .44917 112.87727 .44853 112.93031 .44788 113.01541 .44696 113.06845 .44637 113.12149 .44577 113.25963 .4442 113.25963 .4442"/>
<path transform="matrix(1.00009,0,0,-1.00003,120.56023,131.12454)" stroke-width=".79701" stroke-linecap="butt" stroke-miterlimit="10" stroke-linejoin="miter" fill="none" stroke="#0000ff" d="M-113.38724-.4429C-113.38724-.4429-113.24907-.44447-113.19603-.44505-113.14299-.44565-113.05789-.44664-113.00485-.44724-112.95181-.44783-112.86671-.4488-112.81367-.44939-112.76064-.44998-112.67554-.4509-112.6225-.45155-112.56946-.45221-112.48436-.45349-112.43132-.45415-112.37828-.4548-112.29318-.45572-112.24014-.45631-112.1871-.45691-112.10199-.45781-112.04895-.45847-111.99591-.45912-111.91081-.46042-111.85777-.46107-111.80473-.46172-111.71962-.46257-111.66658-.46323-111.61354-.46388-111.52844-.46518-111.4754-.46582-111.42236-.46648-111.33727-.46733-111.28423-.46799-111.23119-.46864-111.14609-.46986-111.09303-.47058-111.04-.4713-110.9549-.47253-110.90186-.47319-110.84882-.47383-110.76372-.47469-110.71068-.47534-110.65764-.476-110.57254-.47723-110.5195-.47794-110.46646-.47865-110.38136-.47981-110.32832-.48053-110.27528-.48125-110.19019-.4824-110.13715-.48312-110.0841-.48384-109.99898-.48508-109.94594-.48573-109.8929-.48637-109.8078-.48717-109.75476-.48788-109.70172-.4886-109.61662-.49019-109.56358-.4909-109.51054-.49162-109.42545-.49237-109.3724-.49309-109.31937-.4938-109.23427-.49533-109.18123-.49611-109.12819-.49689-109.04309-.498-108.99005-.4987-108.93701-.49942-108.8519-.50058-108.79886-.5013-108.74582-.50201-108.66072-.50317-108.60768-.50389-108.55464-.50461-108.46954-.50578-108.4165-.50648-108.36346-.5072-108.27835-.50836-108.22531-.50908-108.17227-.5098-108.08717-.5109-108.03413-.51167-107.9811-.51245-107.89598-.51393-107.84294-.5147-107.7899-.51547-107.7048-.51659-107.65176-.5173-107.59872-.51802-107.51363-.51912-107.46059-.5199-107.40755-.52068-107.32245-.52216-107.26941-.52292-107.21637-.5237-107.13127-.52475-107.07823-.52553-107.02519-.5263-106.9401-.52777-106.88705-.52855-106.83401-.52933-106.7489-.53036-106.69586-.53113-106.64282-.5319-106.55771-.5334-106.50467-.53418-106.45163-.53494-106.36653-.53592-106.31349-.53676-106.26045-.5376-106.17535-.53938-106.12231-.54022-106.06927-.54106-105.98418-.54205-105.93114-.54283-105.8781-.5436-105.793-.54501-105.73996-.54585-105.68692-.54669-105.6018-.54803-105.54877-.54887-105.49573-.54971-105.41063-.55107-105.35759-.5519-105.30455-.55273-105.21945-.5541-105.16641-.55493-105.11337-.55576-105.02827-.55713-104.97523-.55797-104.9222-.5588-104.83708-.56015-104.78404-.56099-104.731-.56183-104.64589-.56319-104.59285-.56401-104.53981-.56485-104.45471-.56615-104.40167-.56705-104.34863-.56793-104.26353-.56961-104.2105-.57051-104.15746-.57141-104.07236-.5727-104.01932-.57353-103.96628-.57437-103.88118-.57571-103.82814-.57655-103.7751-.5774-103.69-.57869-103.63696-.57959-103.58392-.58047-103.49881-.58215-103.44577-.58305-103.39273-.58394-103.30763-.58517-103.2546-.58607-103.20155-.58698-103.11644-.58858-103.0634-.58954-103.01036-.5905-102.92526-.59204-102.87222-.59299-102.81918-.59395-102.73409-.59557-102.68105-.59645-102.628-.59735-102.54291-.59859-102.48987-.59949-102.43683-.60037-102.35172-.60205-102.29868-.60295-102.24564-.60385-102.16054-.60507-102.1075-.60597-102.05446-.60687-101.96936-.60846-101.91632-.60942-101.86328-.61038-101.77818-.61188-101.72514-.61288-101.6721-.6139-101.587-.61577-101.53397-.61678-101.48093-.6178-101.3958-.6193-101.34276-.62025-101.28972-.6212-101.20462-.62274-101.15158-.6237-101.09854-.62466-101.01344-.6262-100.9604-.62717-100.90736-.62813-100.82227-.62961-100.76923-.63063-100.71619-.63165-100.63109-.6335-100.57805-.63452-100.52501-.63554-100.43991-.63701-100.38687-.63797-100.33383-.63893-100.24872-.64043-100.19568-.64143-100.14264-.64246-100.05754-.64426-100.0045-.64532-99.95146-.64641-99.86636-.64821-99.81332-.64922-99.76028-.65024-99.67517-.65167-99.62213-.6527-99.56909-.6537-99.484-.6555-99.43095-.65659-99.37791-.65765-99.29282-.6594-99.23978-.66048-99.18672-.66154-99.10162-.66335-99.04858-.66437-98.99554-.66539-98.91045-.66681-98.8574-.66783-98.80437-.66885-98.71927-.67064-98.66623-.67172-98.61319-.6728-98.52809-.67448-98.47505-.67561-98.42201-.67674-98.33691-.67885-98.28387-.67993-98.23083-.68102-98.1457-.68225-98.09267-.6834-98.03963-.68454-97.95453-.68703-97.90149-.68816-97.84845-.68929-97.76335-.69052-97.71031-.6916-97.65727-.69269-97.57217-.69475-97.51913-.69594-97.4661-.69713-97.381-.69911-97.32796-.70026-97.27492-.7014-97.18982-.70302-97.13678-.70416-97.08374-.7053-96.99863-.70729-96.94559-.70848-96.89255-.70967-96.80745-.71162-96.75441-.71281-96.70137-.714-96.61627-.716-96.56323-.71713-96.5102-.71826-96.42508-.71988-96.37204-.72102-96.319-.72217-96.2339-.72417-96.18086-.72536-96.12782-.72655-96.04271-.72849-95.98967-.72968-95.93663-.73087-95.85153-.73276-95.7985-.73401-95.74545-.73524-95.66035-.73758-95.60732-.73877-95.55428-.73994-95.46918-.74141-95.41614-.74266-95.3631-.7439-95.278-.7466-95.22496-.74783-95.17192-.74908-95.08682-.75055-95.03378-.75172-94.98074-.75291-94.89563-.75519-94.84259-.75648-94.78955-.7578-94.70444-.76-94.6514-.76125-94.59836-.7625-94.51326-.76433-94.46022-.76558-94.40718-.76683-94.32208-.76903-94.26904-.77034-94.216-.77165-94.1309-.77379-94.07787-.7751-94.02483-.7764-93.93973-.77855-93.88669-.77986-93.83365-.78116-93.74854-.78331-93.6955-.7846-93.64246-.78592-93.55736-.78806-93.50432-.78937-93.45128-.79068-93.36618-.79276-93.31314-.79413-93.2601-.7955-93.175-.79794-93.12196-.79932-93.06892-.80067-92.98381-.8027-92.93077-.80408-92.87773-.80544-92.79262-.80785-92.73958-.80927-92.68654-.8107-92.60144-.81308-92.5484-.81445-92.49536-.81583-92.41026-.81778-92.35722-.81921-92.30418-.82065-92.21909-.82341-92.16605-.82483-92.113-.82626-92.02791-.82823-91.97487-.82959-91.92183-.83096-91.83673-.83334-91.78369-.83478-91.73065-.83621-91.64554-.83855-91.5925-.83998-91.53946-.8414-91.45436-.84367-91.40132-.84517-91.34828-.84665-91.26317-.84929-91.21013-.85078-91.15709-.85228-91.07199-.85448-91.01895-.85597-90.96591-.85745-90.88081-.8601-90.82777-.86159-90.77473-.86308-90.68964-.86531-90.6366-.86679-90.58356-.86829-90.49844-.87086-90.4454-.87242-90.39236-.87396-90.30727-.8765-90.25423-.87804-90.20119-.8796-90.11609-.8821-90.06305-.88365-90.01001-.88521-89.92491-.88773-89.87187-.88928-89.81883-.89082-89.73373-.89336-89.6807-.8949-89.62766-.89645-89.54253-.89897-89.48949-.90053-89.43645-.90208-89.35135-.90454-89.29831-.90616-89.24527-.90776-89.16017-.91058-89.10713-.9122-89.0541-.91382-88.969-.91621-88.91595-.91783-88.86292-.91943-88.77782-.92223-88.72478-.92389-88.67174-.92557-88.58664-.9282-88.5336-.92995-88.48056-.93167-88.39545-.93471-88.3424-.93643-88.28937-.93817-88.20427-.94081-88.15123-.94249-88.09819-.94415-88.01309-.94687-87.96005-.94853-87.90701-.95021-87.8219-.95287-87.76886-.9546-87.71582-.95633-87.63072-.95935-87.57768-.96107-87.52464-.96281-87.43954-.96541-87.3865-.96715-87.33347-.96887-87.24835-.97183-87.19531-.97363-87.14227-.97543-87.05717-.97838-87.00414-.9801-86.9511-.98184-86.866-.98438-86.81296-.98618-86.75992-.98798-86.67482-.99124-86.62178-.99309-86.56874-.99495-86.48364-.99773-86.4306-.99959-86.37756-1.00143-86.29245-1.00464-86.23941-1.0065-86.18637-1.00836-86.10126-1.01114-86.04822-1.01299-85.99518-1.01485-85.91008-1.01799-85.85704-1.01991-85.804-1.02182-85.7189-1.0249-85.66586-1.02682-85.61282-1.02875-85.52773-1.03185-85.47469-1.03375-85.42165-1.03568-85.33655-1.03876-85.28351-1.04068-85.23047-1.04259-85.14536-1.04567-85.09232-1.04759-85.03928-1.0495-84.95418-1.05254-84.90114-1.0545-84.8481-1.05649-84.763-1.05983-84.70996-1.06186-84.65692-1.0639-84.57181-1.06725-84.51877-1.06923-84.46573-1.0712-84.38063-1.07416-84.32759-1.07614-84.27455-1.07811-84.18945-1.0814-84.1364-1.0835-84.08336-1.0856-83.99826-1.08919-83.94522-1.09128-83.89218-1.09338-83.80708-1.09653-83.75404-1.09862-83.701-1.10072-83.6159-1.10432-83.56287-1.10643-83.50983-1.10852-83.42473-1.11166-83.37169-1.11377-83.31865-1.11586-83.23355-1.11938-83.18051-1.12155-83.12747-1.1237-83.04236-1.12712-82.98932-1.12935-82.93628-1.13156-82.85117-1.13535-82.79813-1.13756-82.74509-1.13976-82.65999-1.14319-82.60695-1.14534-82.55391-1.14749-82.46881-1.15099-82.41577-1.15314-82.36273-1.1553-82.27763-1.15872-82.2246-1.16092-82.17155-1.16313-82.08646-1.16681-82.03342-1.16913-81.98038-1.17146-81.89526-1.17552-81.84222-1.17778-81.78918-1.18004-81.70409-1.18323-81.65105-1.18556-81.598-1.18791-81.51291-1.1923-81.45987-1.19466-81.40683-1.19699-81.32173-1.20018-81.26869-1.20244-81.21565-1.2047-81.13054-1.2087-81.0775-1.21109-81.02446-1.21347-80.93935-1.21739-80.8863-1.21974-80.83327-1.22208-80.74817-1.22551-80.69513-1.22797-80.64209-1.23041-80.55699-1.23503-80.50395-1.23747-80.45091-1.23993-80.36581-1.24324-80.31277-1.24568-80.25974-1.24814-80.17464-1.2527-80.1216-1.2552-80.06856-1.2577-79.98346-1.26135-79.93042-1.26385-79.87738-1.26636-79.79227-1.2708-79.73923-1.27338-79.68619-1.27594-79.60109-1.28001-79.54805-1.28246-79.49501-1.28491-79.4099-1.28854-79.35686-1.2911-79.30382-1.29369-79.21872-1.29837-79.16568-1.30106-79.11264-1.30374-79.02754-1.30788-78.9745-1.31058-78.92146-1.31326-78.83636-1.3179-78.78333-1.32053-78.73029-1.32315-78.64517-1.32703-78.59213-1.3296-78.5391-1.33217-78.454-1.33636-78.40096-1.33913-78.34792-1.34187-78.26282-1.3467-78.20978-1.3495-78.15674-1.35231-78.07164-1.35669-78.0186-1.35945-77.96556-1.3622-77.88046-1.36665-77.82742-1.3694-77.77438-1.37215-77.68925-1.37659-77.63622-1.37935-77.58318-1.3821-77.49808-1.38649-77.44504-1.3893-77.392-1.39212-77.3069-1.39674-77.25386-1.39969-77.20082-1.40262-77.11572-1.40756-77.06268-1.41049-77.00964-1.41342-76.92455-1.41794-76.8715-1.42088-76.81847-1.42381-76.73337-1.4287-76.68033-1.43169-76.62729-1.43468-76.54218-1.4395-76.48914-1.44249-76.4361-1.44548-76.351-1.45032-76.29796-1.45332-76.24492-1.45631-76.15982-1.46107-76.10678-1.46413-76.05374-1.46718-75.96863-1.47226-75.91559-1.47537-75.86255-1.47849-75.77745-1.4835-75.72441-1.48662-75.67137-1.48975-75.58627-1.49474-75.53323-1.49786-75.4802-1.50098-75.39508-1.50587-75.34204-1.50911-75.289-1.51234-75.2039-1.51793-75.15086-1.52122-75.09782-1.52452-75.01273-1.52972-74.95969-1.5329-74.90665-1.53607-74.82155-1.54091-74.76851-1.54414-74.71547-1.5474-74.63037-1.55295-74.57733-1.55624-74.52429-1.55956-74.43918-1.56458-74.38614-1.56793-74.3331-1.5713-74.24799-1.57706-74.19495-1.58047-74.1419-1.58391-74.05681-1.58917-74.00377-1.59259-73.95073-1.59602-73.86563-1.60167-73.81259-1.60513-73.75955-1.60861-73.67445-1.61427-73.62141-1.61768-73.56837-1.62108-73.48328-1.62619-73.43024-1.62978-73.3772-1.63336-73.29208-1.63998-73.23904-1.64363-73.186-1.64728-73.1009-1.65259-73.04787-1.65617-72.99483-1.65976-72.90973-1.66599-72.85669-1.66959-72.80365-1.67317-72.71855-1.67859-72.66551-1.68213-72.61247-1.68565-72.52736-1.69133-72.47432-1.6951-72.42128-1.69887-72.33618-1.70561-72.28314-1.70938-72.23009-1.71315-72.14499-1.71858-72.09195-1.72235-72.03891-1.72612-71.95381-1.73279-71.90077-1.73662-71.84773-1.74045-71.76263-1.74614-71.7096-1.75003-71.65656-1.75392-71.57146-1.76073-71.51842-1.76474-71.46538-1.76875-71.38028-1.77501-71.32724-1.77902-71.2742-1.78304-71.18909-1.7897-71.13605-1.79372-71.08301-1.79773-70.9979-1.80399-70.94485-1.808-70.89182-1.81201-70.80672-1.81862-70.75368-1.8227-70.70064-1.82677-70.61554-1.83328-70.5625-1.8374-70.50946-1.84154-70.42436-1.84836-70.37132-1.85255-70.31828-1.85675-70.23318-1.86348-70.18015-1.86768-70.1271-1.87187-70.04199-1.87856-69.98895-1.88281-69.93591-1.88707-69.85081-1.89409-69.79778-1.8984-69.74474-1.90273-69.65964-1.90953-69.6066-1.91397-69.55356-1.91841-69.46846-1.92596-69.41542-1.9304-69.36238-1.93484-69.27727-1.94159-69.22423-1.94597-69.17119-1.95035-69.08607-1.95747-69.03304-1.96198-68.98-1.96648-68.8949-1.97385-68.84186-1.97841-68.78882-1.98297-68.70372-1.99017-68.65068-1.99486-68.59764-1.99954-68.51254-2.00743-68.4595-2.01216-68.40646-2.01689-68.32137-2.02429-68.26833-2.02902-68.21529-2.03374-68.13019-2.04163-68.07715-2.04631-68.02411-2.051-67.939-2.05797-67.88596-2.06276-67.83292-2.06755-67.74782-2.07596-67.69478-2.08093-67.64174-2.0859-67.55663-2.09369-67.50359-2.09866-67.45055-2.10362-67.36545-2.11179-67.31241-2.11682-67.25937-2.12186-67.17427-2.13002-67.12123-2.135-67.06819-2.13995-66.9831-2.14764-66.93005-2.15273-66.87701-2.15782-66.7919-2.16649-66.73886-2.17177-66.68582-2.17703-66.60072-2.18552-66.54768-2.1908-66.49464-2.19608-66.40955-2.20456-66.3565-2.20982-66.30347-2.2151-66.21837-2.22363-66.16533-2.22885-66.11229-2.23405-66.02719-2.24205-65.97415-2.24745-65.92111-2.25285-65.83598-2.26219-65.78294-2.26778-65.7299-2.27336-65.6448-2.28217-65.59177-2.28767-65.53873-2.2932-65.45363-2.302-65.40059-2.30757-65.34755-2.31316-65.26245-2.3222-65.20941-2.3279-65.15637-2.3336-65.07127-2.34297-65.01823-2.34866-64.9652-2.35437-64.8801-2.36307-64.82706-2.36899-64.77402-2.37492-64.6889-2.38556-64.63586-2.3915-64.58282-2.39742-64.49773-2.40607-64.44469-2.41182-64.39165-2.41756-64.30655-2.42702-64.25351-2.43301-64.20047-2.439-64.11536-2.44902-64.06232-2.45506-64.00928-2.46112-63.92418-2.47046-63.87114-2.4767-63.8181-2.48293-63.733-2.49376-63.67996-2.50005-63.62692-2.50635-63.54181-2.51581-63.48877-2.52211-63.43573-2.5284-63.35063-2.53912-63.29759-2.54547-63.24455-2.55183-63.15945-2.5616-63.10641-2.56796-63.05338-2.57431-62.96828-2.58472-62.91524-2.59132-62.8622-2.59792-62.7771-2.60883-62.72406-2.61554-62.67102-2.62225-62.5859-2.633-62.53287-2.63977-62.47983-2.64655-62.39471-2.65782-62.34167-2.66441-62.28864-2.671-62.20354-2.68045-62.1505-2.68733-62.09746-2.69423-62.01236-2.70703-61.95932-2.71416-61.90628-2.72128-61.82118-2.73184-61.76814-2.73882-61.7151-2.74577-61.63-2.75702-61.57697-2.76433-61.52393-2.77165-61.43881-2.78435-61.38577-2.7916-61.33273-2.79884-61.24763-2.8096-61.1946-2.81668-61.14156-2.82375-61.05646-2.83525-61.00342-2.84262-60.95038-2.84999-60.86528-2.8622-60.81224-2.86987-60.7592-2.87755-60.67409-2.8905-60.62105-2.898-60.56801-2.90549-60.48291-2.91638-60.42987-2.92393-60.37682-2.9315-60.29172-2.94463-60.23868-2.95248-60.18564-2.96034-60.10054-2.97273-60.0475-2.9806-59.99446-2.98846-59.90936-3.001-59.85632-3.00916-59.80328-3.0173-59.71819-3.03122-59.66515-3.03943-59.6121-3.04764-59.52701-3.06036-59.47397-3.0684-59.42093-3.07645-59.33582-3.08931-59.28278-3.0974-59.22974-3.10548-59.14464-3.11835-59.0916-3.1268-59.03856-3.13525-58.95345-3.14961-58.9004-3.15837-58.84737-3.16713-58.76227-3.18118-58.70923-3.18994-58.65619-3.1987-58.57109-3.21272-58.51805-3.22154-58.46501-3.23035-58.37991-3.2446-58.32687-3.25354-58.27383-3.26247-58.18872-3.27698-58.13568-3.28598-58.08264-3.29498-57.99754-3.30942-57.9445-3.31842-57.89146-3.32742-57.80637-3.3418-57.75333-3.35086-57.70029-3.35992-57.61519-3.37425-57.56215-3.38373-57.50911-3.39319-57.424-3.40965-57.37096-3.41919-57.31792-3.42873-57.23282-3.44296-57.17976-3.4525-57.12672-3.46204-57.04163-3.47807-56.98859-3.48796-56.93555-3.49786-56.85045-3.51416-56.79741-3.52386-56.74437-3.53358-56.65927-3.54826-56.60623-3.55804-56.55319-3.56783-56.4681-3.58424-56.41505-3.59438-56.36201-3.60452-56.27692-3.62065-56.22388-3.63113-56.17084-3.64163-56.08572-3.65958-56.03268-3.67007-55.97964-3.68056-55.89455-3.69658-55.8415-3.70685-55.78847-3.7171-55.70335-3.73329-55.65031-3.74403-55.59727-3.75476-55.51218-3.7734-55.45914-3.78427-55.4061-3.79512-55.321-3.81146-55.26796-3.82231-55.21492-3.83318-55.12982-3.85132-55.07678-3.86255-55.02374-3.87376-54.93863-3.89186-54.88559-3.90321-54.83255-3.91455-54.74745-3.93289-54.69441-3.94429-54.64137-3.9557-54.55627-3.97388-54.50323-3.98538-54.4502-3.9969-54.3651-4.0151-54.31206-4.02734-54.25902-4.03958-54.17392-4.06139-54.12088-4.07362-54.06784-4.08586-53.98271-4.10358-53.92967-4.11559-53.87663-4.12758-53.79153-4.14803-53.7385-4.16014-53.68546-4.17226-53.60036-4.19066-53.54732-4.20296-53.49428-4.21526-53.40918-4.2358-53.35614-4.24881-53.3031-4.26183-53.218-4.2838-53.16496-4.29681-53.11192-4.30983-53.02682-4.32983-52.97379-4.34267-52.92075-4.3555-52.83563-4.37643-52.7826-4.38937-52.72955-4.40233-52.64445-4.42278-52.59142-4.4361-52.53838-4.44942-52.45328-4.47165-52.40024-4.4854-52.3472-4.49915-52.26208-4.52118-52.20905-4.53516-52.156-4.54912-52.0709-4.5721-52.01787-4.58618-51.96483-4.60028-51.87973-4.6227-51.82669-4.6368-51.77365-4.65088-51.68854-4.67331-51.6355-4.68782-51.58246-4.70235-51.49736-4.72646-51.44432-4.74146-51.39128-4.75647-51.30618-4.78116-51.25314-4.79597-51.2001-4.81079-51.115-4.83337-51.06197-4.8483-51.00893-4.86322-50.92383-4.8883-50.87079-4.90367-50.81775-4.91902-50.73264-4.94356-50.6796-4.95903-50.62656-4.9745-50.54144-4.9996-50.4884-5.01526-50.43536-5.03091-50.35027-5.05585-50.29723-5.07191-50.24419-5.08798-50.15909-5.11456-50.10605-5.13118-50.05301-5.1478-49.96791-5.17531-49.91487-5.19174-49.86183-5.20818-49.77673-5.2329-49.7237-5.2497-49.67065-5.2665-49.58554-5.29558-49.5325-5.31285-49.47946-5.33014-49.39436-5.35712-49.34132-5.37427-49.28828-5.39142-49.20319-5.41891-49.15015-5.43655-49.0971-5.4542-49.01201-5.48361-48.95897-5.50143-48.90593-5.51926-48.82082-5.54707-48.76778-5.56502-48.71474-5.58295-48.62964-5.61229-48.5766-5.63075-48.52356-5.64923-48.43845-5.67917-48.3854-5.69824-48.33237-5.71732-48.24727-5.74916-48.19423-5.76831-48.14119-5.78745-48.05609-5.8169-48.00305-5.83621-47.95001-5.85553-47.86491-5.88808-47.81187-5.9076-47.75883-5.9271-47.67374-5.95671-47.6207-5.9768-47.56766-5.9969-47.48254-6.03227-47.4295-6.05249-47.37646-6.07271-47.29137-6.10222-47.23833-6.12256-47.18529-6.1429-47.10017-6.17812-47.04713-6.19911-46.9941-6.22011-46.909-6.25272-46.85596-6.27396-46.80292-6.2952-46.71782-6.3301-46.66478-6.35223-46.61174-6.37436-46.52664-6.41171-46.4736-6.43356-46.42056-6.4554-46.33545-6.48796-46.28241-6.50967-46.22937-6.5314-46.14427-6.5674-46.09123-6.59013-46.0382-6.61288-45.9531-6.65022-45.90005-6.67361-45.84702-6.697-45.76192-6.7347-45.70888-6.75882-45.65584-6.78294-45.57074-6.82326-45.5177-6.84749-45.46466-6.87173-45.37955-6.90956-45.3265-6.93356-45.27345-6.95758-45.18835-6.99585-45.13531-7.02051-45.08228-7.04517-44.99718-7.0865-44.94414-7.11134-44.8911-7.13618-44.806-7.17407-44.75296-7.19957-44.69992-7.22507-44.61482-7.26894-44.56178-7.29517-44.50874-7.32138-44.42365-7.36201-44.3706-7.3886-44.31757-7.41516-44.23245-7.45961-44.17941-7.48679-44.12637-7.51396-44.04128-7.55711-43.98824-7.58453-43.9352-7.61195-43.85008-7.65625-43.79704-7.68445-43.744-7.71266-43.6589-7.7595-43.60587-7.78783-43.55283-7.81615-43.46773-7.85994-43.41469-7.88861-43.36165-7.9173-43.27655-7.96507-43.22351-7.9946-43.17047-8.02411-43.08536-8.07172-43.03232-8.10141-42.97928-8.13112-42.89418-8.17828-42.84114-8.2087-42.7881-8.23912-42.703-8.28946-42.64996-8.32072-42.59692-8.35197-42.51183-8.4025-42.45879-8.43405-42.40575-8.4656-42.32065-8.51637-42.26761-8.54823-42.21457-8.5801-42.12944-8.63109-42.0764-8.66373-42.02336-8.69637-41.93826-8.74951-41.88522-8.78352-41.83218-8.81755-41.74709-8.87514-41.69405-8.90898-41.641-8.94281-41.55591-8.99281-41.50287-9.0275-41.44983-9.06216-41.36473-9.12344-41.31169-9.15897-41.25865-9.1945-41.17355-9.24821-41.12051-9.28355-41.06747-9.3189-40.98236-9.37697-40.92932-9.41374-40.87628-9.45052-40.79118-9.51106-40.73814-9.54869-40.6851-9.58632-40.6-9.64697-40.54697-9.68495-40.49393-9.72292-40.40881-9.78403-40.35577-9.8225-40.30273-9.86095-40.21764-9.92271-40.1646-9.9622-40.11156-10.00168-40.02646-10.06685-39.97342-10.1071-39.92038-10.14735-39.83527-10.21117-39.78223-10.25244-39.72919-10.2937-39.64409-10.36287-39.59105-10.40468-39.53801-10.4465-39.45291-10.51178-39.39987-10.55391-39.34683-10.59602-39.26173-10.6646-39.2087-10.70833-39.15565-10.75206-39.07056-10.8244-39.01752-10.86922-38.96448-10.91405-38.87936-10.98613-38.82632-11.03143-38.77328-11.07674-38.68817-11.15001-38.63513-11.1958-38.58209-11.24158-38.497-11.31465-38.44395-11.36147-38.39091-11.40826-38.30582-11.48523-38.25278-11.53317-38.19974-11.58112-38.11464-11.65736-38.0616-11.70705-38.00856-11.75673-37.92346-11.84114-37.87042-11.89131-37.81738-11.94148-37.73227-12.0185-37.67923-12.06866-37.62619-12.11882-37.54109-12.20096-37.48805-12.25293-37.43501-12.30489-37.34991-12.39085-37.29688-12.44324-37.24384-12.49562-37.15874-12.5754-37.1057-12.63052-37.05266-12.68567-36.96754-12.78505-36.9145-12.84074-36.86147-12.89642-36.77637-12.97713-36.72333-13.03192-36.67029-13.0867-36.58517-13.17743-36.53214-13.23564-36.4791-13.29385-36.394-13.39267-36.34096-13.45148-36.28792-13.51028-36.20282-13.59851-36.14978-13.65953-36.09674-13.72055-36.01164-13.8291-35.9586-13.89137-35.90556-13.95366-35.82047-14.04628-35.76743-14.1085-35.71439-14.17073-35.62927-14.27625-35.57623-14.3399-35.5232-14.40358-35.4381-14.50232-35.38506-14.56743-35.33202-14.63254-35.2469-14.7419-35.19386-14.80923-35.14082-14.87656-35.05573-14.9839-35.00269-15.05273-34.94965-15.12157-34.86455-15.2349-34.81151-15.30534-34.75847-15.3758-34.67337-15.48932-34.62033-15.56055-34.56729-15.63176-34.48218-15.74675-34.42914-15.81876-34.3761-15.89078-34.291-16.00446-34.23796-16.07957-34.18492-16.15471-34.09982-16.28271-34.04678-16.3603-33.99374-16.4379-33.90865-16.56108-33.8556-16.63885-33.80257-16.71663-33.71747-16.84131-33.66443-16.92087-33.61139-17.00044-33.52628-17.13121-33.47324-17.2124-33.42018-17.2936-33.33508-17.42227-33.28204-17.50609-33.229-17.58992-33.1439-17.7309-33.09087-17.81665-33.03783-17.9024-32.95273-18.03664-32.89969-18.12419-32.84665-18.21173-32.76155-18.3573-32.70851-18.44772-32.65547-18.53816-32.57037-18.68362-32.51733-18.77603-32.4643-18.86844-32.37918-19.01956-32.32614-19.11383-32.2731-19.2081-32.188-19.36008-32.13496-19.45555-32.08192-19.55101-31.99683-19.70245-31.94379-19.80202-31.89075-19.90157-31.80563-20.0726-31.7526-20.17313-31.69955-20.27364-31.61446-20.42383-31.56142-20.5265-31.50838-20.62918-31.42328-20.8053-31.37024-20.91321-31.3172-21.0211-31.23209-21.195-31.17905-21.30421-31.126-21.41342-31.04091-21.58983-30.98787-21.70042-30.93483-21.81102-30.84973-21.98837-30.79669-22.10138-30.74365-22.21437-30.65855-22.39847-30.60551-22.51488-30.55247-22.6313-30.46738-22.81966-30.41434-22.9405-30.3613-23.06136-30.2762-23.26149-30.22314-23.38602-30.1701-23.51053-30.08499-23.71175-30.03195-23.83801-29.97891-23.96428-29.89381-24.16826-29.84077-24.29608-29.78773-24.4239-29.70264-24.6267-29.6496-24.75932-29.59656-24.89194-29.51146-25.11432-29.45842-25.25198-29.40538-25.38965-29.32028-25.61102-29.26724-25.75157-29.2142-25.8921-29.12909-26.12161-29.07605-26.26498-29.02301-26.40836-28.93791-26.63716-28.88487-26.78491-28.83183-26.93265-28.74673-27.17891-28.6937-27.3299-28.64066-27.48088-28.55554-27.71805-28.5025-27.87317-28.44946-28.02829-28.36436-28.28723-28.31133-28.448-28.25829-28.60878-28.17319-28.86768-28.12015-29.03194-28.06711-29.1962-27.982-29.46295-27.92896-29.63187-27.87592-29.8008-27.79082-30.0758-27.73778-30.24953-27.68474-30.42325-27.59964-30.70546-27.5466-30.88406-27.49356-31.06265-27.40846-31.35289-27.35542-31.53676-27.30238-31.72063-27.21729-32.02031-27.16425-32.20935-27.1112-32.39839-27.0261-32.70502-26.97305-32.89926-26.92001-33.09352-26.8349-33.40982-26.78186-33.60948-26.72882-33.80914-26.64372-34.13307-26.59068-34.33832-26.53764-34.54355-26.45255-34.87782-26.3995-35.08876-26.34647-35.2997-26.26137-35.64066-26.20833-35.85867-26.15529-36.0767-26.07019-36.43471-26.01715-36.66017-25.96411-36.88564-25.879-37.2534-25.82596-37.48372-25.77292-37.71405-25.68782-38.08202-25.63478-38.32025-25.58174-38.5585-25.49664-38.95468-25.4436-39.20091-25.39056-39.44713-25.30547-39.84355-25.25243-40.09496-25.19939-40.34634-25.11427-40.75319-25.06123-41.0128-25.0082-41.27242-24.9231-41.69643-24.87006-41.96611-24.81702-42.23581-24.7319-42.67944-24.67886-42.95663-24.62582-43.23383-24.54073-43.6793-24.48769-43.964-24.43465-44.2487-24.34955-44.71304-24.29651-45.00859-24.24347-45.30415-24.15837-45.78897-24.10533-46.09425-24.05229-46.39955-23.9672-46.89392-23.91415-47.20891-23.86111-47.52391-23.776-48.03944-23.72296-48.36464-23.66992-48.68985-23.58482-49.21867-23.53178-49.55283-23.47874-49.887-23.39363-50.42644-23.34059-50.77303-23.28755-51.1196-23.20245-51.69133-23.14941-52.05075-23.09637-52.41017-23.01128-52.99455-22.95824-53.3635-22.9052-53.73245-22.8201-54.32751-22.76706-54.70998-22.71402-55.09245-22.6289-55.72372-22.57587-56.12006-22.52283-56.51639-22.43773-57.1579-22.38469-57.56647-22.33165-57.97504-22.24655-58.64114-22.19351-59.06477-22.14047-59.4884-22.05537-60.18065-22.00233-60.61975-21.9493-61.05885-21.8642-61.775-21.81116-62.22966-21.75812-62.68431-21.673-63.42574-21.61996-63.89665-21.56693-64.36758-21.48181-65.13625-21.42877-65.62378-21.37573-66.11133-21.29063-66.906-21.2376-67.4106-21.18456-67.91518-21.09946-68.73593-21.04642-69.26057-20.99338-69.7852-20.90828-70.64891-20.85524-71.19185-20.8022-71.73479-20.7171-72.60944-20.66406-73.17372-20.61102-73.73802-20.52591-74.67285-20.47287-75.259-20.41983-75.84514-20.33473-76.79176-20.2817-77.39833-20.22865-78.00488-20.14355-78.99855-20.09052-79.63066-20.03748-80.26277-19.95236-81.29796-19.89932-81.95425-19.84628-82.61055-19.76118-83.67944-19.70815-84.3609-19.6551-85.04234-19.57-86.15834-19.51697-86.86572-19.46393-87.5731-19.37881-88.72263-19.32578-89.45923-19.27274-90.19582-19.18764-91.40556-19.1346-92.1747-19.08156-92.94382-18.99646-94.2041-18.94342-95.00262-18.89038-95.80116-18.80528-97.0991-18.75224-97.93004-18.6992-98.76099-18.6141-100.12411-18.56107-100.99155-18.50803-101.859-18.42293-103.27916-18.36987-104.18195-18.31683-105.08473-18.23172-106.55667-18.17868-107.49821-18.12564-108.43976-17.9875-110.96803-17.9875-110.96803"/>
<use data-text="&#x2022;" xlink:href="#font_2_1" transform="matrix(9.963496,0,0,-9.962899,118.069,133.33861)"/>
<use data-text="(" xlink:href="#font_3_1" transform="matrix(9.963496,0,0,-9.962899,124.08054,142.11687)"/>
<use data-text="0" xlink:href="#font_3_3" transform="matrix(9.963496,0,0,-9.962899,127.94639,142.11687)"/>
<use data-text="," xlink:href="#font_1_1" transform="matrix(9.963496,0,0,-9.962899,132.93735,142.11687)"/>
<use data-text="0" xlink:href="#font_3_3" transform="matrix(9.963496,0,0,-9.962899,137.36573,142.11687)"/>
<use data-text=")" xlink:href="#font_3_2" transform="matrix(9.963496,0,0,-9.962899,142.34748,142.11687)"/>
</svg>
