<svg xmlns="http://www.w3.org/2000/svg" xmlns:xlink="http://www.w3.org/1999/xlink" version="1.1" width="250" height="146" viewBox="0 0 250 146">
<defs>
<path id="font_1_2" d="M.33399964 .30233766C.33999635 .32835389 .36299134 .42037965 .43299867 .42037965 .43798829 .42037965 .46199037 .42037965 .48298646 .40734864 .45498658 .402359 .43499757 .37734986 .43499757 .35334779 .43499757 .33735658 .44599916 .31835938 .47299195 .31835938 .49499513 .31835938 .5269928 .3363495 .5269928 .37635804 .5269928 .42837525 .46798707 .4423828 .43399049 .4423828 .37599183 .4423828 .34098817 .38935853 .32899476 .36634828 .3039856 .43237306 .25 .4423828 .22099304 .4423828 .116989139 .4423828 .05999756 .3133545 .05999756 .28834535 .05999756 .27833558 .069992069 .27833558 .07199097 .27833558 .07998657 .27833558 .08299255 .28033448 .084991458 .28933717 .11898804 .39535523 .18499756 .42037965 .21899414 .42037965 .23799134 .42037965 .272995 .4113617 .272995 .35334779 .272995 .32235719 .2559967 .25532533 .21899414 .11528015 .20298767 .053268434 .16799927 .011245728 .12399292 .011245728 .117996219 .011245728 .09498596 .011245728 .07398987 .024276734 .09899902 .029266358 .12098694 .05027771 .12098694 .07827759 .12098694 .105270389 .09899902 .11328125 .083999637 .11328125 .053985597 .11328125 .0289917 .08728027 .0289917 .055267335 .0289917 .009246826 .07899475-.0107421879 .12298584-.0107421879 .18899536-.0107421879 .22499085 .059280397 .22799683 .0652771 .23999024 .028274537 .27598573-.0107421879 .33599855-.0107421879 .43899537-.0107421879 .49598695 .118270877 .49598695 .14328003 .49598695 .1532898 .4869995 .1532898 .48399354 .1532898 .47499085 .1532898 .47299195 .14929199 .47099305 .14228821 .43798829 .03527832 .36999513 .011245728 .33799745 .011245728 .29899598 .011245728 .2829895 .043273927 .2829895 .07727051 .2829895 .09927368 .2889862 .121276859 .2999878 .16529846L.33399964 .30233766Z"/>
<path id="font_1_3" d="M.48599244 .38136292C.48999024 .39537049 .48999024 .39736939 .48999024 .40437318 .48999024 .42237855 .47599793 .43138124 .46099855 .43138124 .45098878 .43138124 .43499757 .42536927 .42599488 .41036988 .42399598 .405365 .41600038 .37435914 .4119873 .35635377 .40499879 .33035279 .397995 .30334474 .3919983 .27633668L.34700013 .09628296C.34298707 .08126831 .2999878 .011245728 .23399353 .011245728 .18299866 .011245728 .17199707 .055267335 .17199707 .0922699 .17199707 .1382904 .18899536 .20030213 .22299195 .28833009 .23899842 .3293457 .24299622 .3403473 .24299622 .36035157 .24299622 .405365 .21099854 .4423828 .16099549 .4423828 .06599426 .4423828 .0289917 .29733277 .0289917 .28833009 .0289917 .27833558 .038986207 .27833558 .040985109 .27833558 .050994874 .27833558 .051986696 .28033448 .056991579 .29634095 .083999637 .3903656 .12399292 .42037965 .1579895 .42037965 .1659851 .42037965 .18299866 .42037965 .18299866 .3883667 .18299866 .36335755 .17298889 .3373413 .1659851 .31834413 .12599182 .21231079 .10798645 .1552887 .10798645 .10827637 .10798645 .019256592 .17098999-.0107421879 .22999573-.0107421879 .2689972-.0107421879 .30299378 .0062561037 .33099366 .03425598 .31799317-.017745972 .30599977-.06674194 .2659912-.11973572 .23999024-.15385437 .20199585-.18309021 .1559906-.18309021 .14199829-.18309021 .09700012-.18005371 .07998657-.14074707 .09599304-.14074707 .10899353-.14074707 .12298584-.1287384 .1329956-.11973572 .14299011-.10673523 .14299011-.08773804 .14299011-.056747438 .115997318-.052734376 .10598755-.052734376 .08299255-.052734376 .049987794-.068740848 .049987794-.11773682 .049987794-.16796875 .09399414-.20507813 .1559906-.20507813 .25898744-.20507813 .3619995-.11373901 .3899994-.00074768069L.48599244 .38136292Z"/>
<clipPath id="clip_2">
<path transform="matrix(1.00009,0,0,-1.00005,120.56023,131.1259)" d="M-113.38724 0V113.38724H113.38724V0ZM113.38724 113.38724"/>
</clipPath>
<path id="font_3_1" d="M.44400025 .24998474C.44400025 .35688783 .35499574 .44381715 .25 .44381715 .14199829 .44381715 .054992677 .35488893 .054992677 .24998474 .054992677 .14407349 .14199829 .056137086 .25 .056137086 .35499574 .056137086 .44400025 .14308167 .44400025 .24998474Z"/>
<path id="font_4_1" d="M.33099366-.2400055C.33099366-.23701477 .33099366-.23500061 .31399537-.21800232 .18899536-.0920105 .15699768 .09700012 .15699768 .25 .15699768 .42399598 .19499207 .59799197 .31799317 .72299197 .33099366 .73498538 .33099366 .7369995 .33099366 .73999026 .33099366 .746994 .32699586 .75 .32099916 .75 .31098939 .75 .22099304 .6819916 .1619873 .5549927 .11099243 .44499208 .09899902 .33399964 .09899902 .25 .09899902 .17199707 .10998535 .050994874 .16499329-.06201172 .22499085-.18501282 .31098939-.25 .32099916-.25 .32699586-.25 .33099366-.24700928 .33099366-.2400055Z"/>
<path id="font_4_3" d="M.45999146 .31976319C.45999146 .39982606 .45498658 .47988893 .41999818 .5539398 .37399293 .65000918 .2919922 .6660156 .25 .6660156 .18998719 .6660156 .116989139 .64001467 .07598877 .54693606 .04399109 .47789 .038986207 .39982606 .038986207 .31976319 .038986207 .24472046 .042999269 .15464783 .083999637 .07859802 .1269989-.0024719239 .19999695-.022460938 .24899292-.022460938 .30299378-.022460938 .3789978-.0014648438 .4229889 .09359741 .45498658 .16265869 .45999146 .2407074 .45999146 .31976319M.24899292-.00047302247C.20999146-.00047302247 .15098572 .024551392 .1329956 .12062073 .12199402 .18066406 .12199402 .2727356 .12199402 .3317871 .12199402 .39582826 .12199402 .46188355 .12998963 .5159149 .14898682 .63500979 .22399903 .64401248 .24899292 .64401248 .28199769 .64401248 .34799195 .6259918 .36698915 .52693179 .3769989 .47088624 .3769989 .39482118 .3769989 .3317871 .3769989 .25672914 .3769989 .18867493 .3659973 .12461853 .35099793 .029556275 .2939911-.00047302247 .24899292-.00047302247Z"/>
<path id="font_1_1" d="M.20298767 .0009918213C.20298767 .066986087 .17799378 .10598755 .13899231 .10598755 .10598755 .10598755 .085998538 .08099365 .085998538 .052993776 .085998538 .025985718 .10598755 0 .13899231 0 .15098572 0 .1639862 .0039978029 .17399597 .0129852299 .1769867 .01499939 .17799378 .015991211 .1789856 .015991211 .17999268 .015991211 .18099976 .01499939 .18099976 .0009918213 .18099976-.07316589 .1459961-.13328552 .11299133-.16635132 .101989749-.17736817 .101989749-.17936707 .101989749-.18237305 .101989749-.18936157 .10699463-.19335938 .11199951-.19335938 .12298584-.19335938 .20298767-.116256717 .20298767 .0009918213Z"/>
<path id="font_4_2" d="M.2889862 .25C.2889862 .32798768 .27799989 .44898988 .22299195 .56199648 .16299439 .68499758 .07699585 .75 .066986087 .75 .06098938 .75 .056991579 .74598696 .056991579 .73999026 .056991579 .7369995 .056991579 .73498538 .07598877 .71699526 .17399597 .6179962 .23098755 .45899964 .23098755 .25 .23098755 .07899475 .19400025-.09700012 .069992069-.2230072 .056991579-.23500061 .056991579-.23701477 .056991579-.2400055 .056991579-.2460022 .06098938-.25 .066986087-.25 .07699585-.25 .16699219-.18200684 .22599793-.055007936 .2769928 .054992677 .2889862 .16600037 .2889862 .25Z"/>
</defs>
<path transform="matrix(1.00009,0,0,-1.00005,120.56023,131.1259)" stroke-width=".19925" stroke-linecap="butt" stroke-miterlimit="10" stroke-linejoin="miter" fill="none" stroke="#929292" d="M-113.38724 0H113.38724M-113.38724 28.3468H113.38724M-113.38724 56.69362H113.38724M-113.38724 85.04042H113.38724M-113.38724 113.37727H113.38724M-113.38724 0V113.38724M-85.04042 0V113.38724M-56.69362 0V113.38724M-28.3468 0V113.38724M0 0V113.38724M28.3468 0V113.38724M56.69362 0V113.38724M85.04042 0V113.38724M113.37727 0V113.38724M113.38724 113.38724"/>
<path transform="matrix(1.00009,0,0,-1.00005,120.56023,131.1259)" stroke-width="1.19553" stroke-linecap="butt" stroke-miterlimit="10" stroke-linejoin="miter" fill="none" stroke="#000000" d="M-119.0565 0H118.10008"/>
<path transform="matrix(1.00009,0,0,-1.00005,238.67093,131.1259)" stroke-width=".9564" stroke-linecap="round" stroke-linejoin="round" fill="none" stroke="#000000" d="M-1.91284 2.55046C-1.75343 1.59402 0 .15938 .4782 0 0-.15938-1.75343-1.59402-1.91284-2.55046"/>
<use data-text="x" xlink:href="#font_1_2" transform="matrix(9.963496,0,0,-9.963098,243.5463,133.27101)"/>
<path transform="matrix(1.00009,0,0,-1.00005,120.56023,131.1259)" stroke-width="1.19553" stroke-linecap="butt" stroke-miterlimit="10" stroke-linejoin="miter" fill="none" stroke="#000000" d="M0-5.66927V118.10008"/>
<path transform="matrix(0,-1.00005,-1.00009,-0,120.56023,13.01992)" stroke-width=".9564" stroke-linecap="round" stroke-linejoin="round" fill="none" stroke="#000000" d="M-1.91284 2.55046C-1.75343 1.59402 0 .15938 .4782 0 0-.15938-1.75343-1.59402-1.91284-2.55046"/>
<use data-text="y" xlink:href="#font_1_3" transform="matrix(9.963496,0,0,-9.963098,117.93899,6.207657)"/>
<g clip-path="url(#clip_2)">
<path transform="matrix(1.00009,0,0,-1.00005,120.56023,131.1259)" stroke-width=".79701" stroke-linecap="butt" stroke-miterlimit="10" stroke-linejoin="miter" fill="none" stroke="#0000ff" d="M-113.38724 7256.783C-113.38724 7256.783-113.05908 7173.0808-112.93306 7141.202-112.80704 7109.3239-112.60492 7058.52-112.4789 7027.026-112.35287 6995.532-112.15074 6945.3308-112.02472 6914.216-111.8987 6883.101-111.6966 6833.5119-111.57057 6802.774-111.44453 6772.0358-111.24243 6723.041-111.11641 6692.676-110.99039 6662.311-110.78825 6613.9177-110.66223 6583.925-110.53621 6553.9318-110.33409 6506.135-110.20807 6476.509-110.08205 6446.8835-109.87993 6399.6657-109.75389 6370.4045-109.62787 6341.143-109.42577 6294.5119-109.29974 6265.6135-109.17372 6236.715-108.9716 6190.6657-108.84558 6162.125-108.71956 6133.585-108.51743 6088.101-108.3914 6059.916-108.26538 6031.7316-108.06328 5986.8195-107.93724 5958.989-107.81122 5931.1579-107.60912 5886.8127-107.4831 5859.331-107.35706 5831.8498-107.15494 5788.0559-107.02892 5760.921-106.9029 5733.7858-106.70078 5690.5515-106.57475 5663.76-106.44873 5636.9685-106.2466 5594.2766-106.12057 5567.825-105.99455 5541.3747-105.79245 5499.231-105.66643 5473.119-105.54039 5447.0075-105.33829 5405.406-105.21227 5379.6306-105.08624 5353.855-104.88411 5312.792-104.75809 5287.348-104.63206 5261.905-104.42995 5221.3679-104.30392 5196.2517-104.1779 5171.1354-103.9758 5131.1179-103.84976 5106.3298-103.72374 5081.541-103.52162 5042.0588-103.3956 5017.595-103.26958 4993.132-103.06746 4954.159-102.94144 4930.0148-102.81541 4905.87-102.61328 4867.404-102.48726 4843.5788-102.36124 4819.7536-102.15913 4781.808-102.0331 4758.2995-101.90707 4734.7907-101.70497 4697.3425-101.57895 4674.144-101.45291 4650.946-101.2508 4613.99-101.12477 4591.1027-100.99875 4568.2155-100.79663 4531.7687-100.67061 4509.188-100.54459 4486.607-100.34245 4450.6335-100.21643 4428.3566-100.09041 4406.0798-99.8883 4370.605-99.76228 4348.6306-99.63625 4326.6564-99.43414 4291.656-99.30812 4269.9797-99.1821 4248.303-98.97997 4213.783-98.85394 4192.404-98.72792 4171.025-98.5258 4136.98-98.39978 4115.894-98.27376 4094.8079-98.07166 4061.227-97.94562 4040.4295-97.8196 4019.632-97.61748 3986.509-97.49146 3966.0006-97.36543 3945.492-97.16331 3912.8409-97.0373 3892.6187-96.91127 3872.3966-96.70914 3840.1934-96.58311 3820.2535-96.45709 3800.3135-96.25499 3768.566-96.12895 3748.9053-96.00293 3729.2449-95.80083 3697.9383-95.6748 3678.555-95.54877 3659.1715-95.34665 3628.3104-95.22063 3609.2027-95.0946 3590.0948-94.89249 3559.675-94.76646 3540.839-94.64044 3522.003-94.43832 3492.0123-94.3123 3473.4454-94.18628 3454.8785-93.98416 3425.3218-93.85814 3407.0213-93.7321 3388.721-93.53 3359.584-93.40398 3341.5489-93.27795 3323.514-93.07582 3294.8096-92.9498 3277.037-92.82378 3259.2647-92.62166 3230.9727-92.49564 3213.458-92.36961 3195.943-92.16751 3168.061-92.04147 3150.8028-91.91545 3133.5443-91.71333 3106.0748-91.58731 3089.0714-91.46129 3072.0679-91.25917 3045.0052-91.13315 3028.2542-91.00713 3011.5035-90.805 2984.8453-90.67897 2968.3436-90.55295 2951.8416-90.35085 2925.577-90.22481 2909.32-90.09879 2893.0635-89.89668 2867.1876-89.77066 2851.1759-89.64462 2835.164-89.4425 2809.688-89.31648 2793.919-89.19046 2778.15-88.98834 2753.0535-88.86232 2737.5235-88.7363 2721.9935-88.53418 2697.2825-88.40816 2681.989-88.28214 2666.6956-88.08002 2642.358-87.954 2627.2984-87.82796 2612.239-87.62585 2588.279-87.49983 2573.4515-87.37381 2558.6239-87.17168 2535.0284-87.04565 2520.4315-86.91963 2505.8343-86.71751 2482.6148-86.59149 2468.2457-86.46547 2453.8765-86.26337 2431.015-86.13733 2416.8692-86.0113 2402.7237-85.80919 2380.217-85.68317 2366.2938-85.55714 2352.3704-85.35503 2330.2218-85.229 2316.5196-85.10298 2302.8172-84.90086 2281.0208-84.77484 2267.537-84.64882 2254.0535-84.4467 2232.607-84.32066 2219.3387-84.19464 2206.07-83.99254 2184.963-83.86652 2171.9073-83.74048 2158.8519-83.53836 2138.0885-83.41234 2125.2435-83.28632 2112.3985-83.0842 2091.9669-82.95818 2079.3304-82.83215 2066.6939-82.63004 2046.5975-82.50401 2034.1682-82.37799 2021.7389-82.17587 2001.9739-82.04985 1989.7483-81.92381 1977.5227-81.72171 1958.079-81.59569 1946.055-81.46967 1934.0311-81.26753 1914.9115-81.14151 1903.088-81.01549 1891.2644-80.81337 1872.4655-80.68735 1860.839-80.56133 1849.2125-80.35922 1830.7244-80.23318 1819.2929-80.10716 1807.8613-79.90504 1789.6865-79.77902 1778.4487-79.653 1767.2109-79.45088 1749.3457-79.32486 1738.2984-79.19884 1727.2511-78.99672 1709.6864-78.8707 1698.8275-78.74467 1687.9688-78.54254 1670.7072-78.41652 1660.0354-78.2905 1649.3637-78.0884 1632.4009-77.96237 1621.9132-77.83633 1611.4255-77.63422 1594.7533-77.5082 1584.4476-77.38217 1574.142-77.18005 1557.7632-77.05403 1547.6373-76.92801 1537.5116-76.72589 1521.4158-76.59987 1511.4677-76.47385 1501.5195-76.27173 1485.7097-76.1457 1475.9381-76.01967 1466.1665-75.81757 1450.639-75.69154 1441.041-75.56552 1431.443-75.3634 1416.1889-75.23738 1406.7623-75.11136 1397.3358-74.90923 1382.3572-74.7832 1373.101-74.65718 1363.8446-74.45508 1349.1383-74.32904 1340.0494-74.20302 1330.9605-74.0009 1316.5178-73.87488 1307.5944-73.74886 1298.6709-73.54674 1284.4943-73.42072 1275.7349-73.2947 1266.9755-73.09258 1253.0609-72.96655 1244.4629-72.84053 1235.8648-72.6384 1222.2044-72.51237 1213.7656-72.38635 1205.3268-72.18425 1191.9226-72.05823 1183.642-71.93219 1175.3613-71.73007 1162.2098-71.60405 1154.0845-71.47803 1145.9591-71.27591 1133.0521-71.14989 1125.0802-71.02386 1117.1083-70.82175 1104.4487-70.69572 1096.6283-70.5697 1088.8079-70.36758 1076.3862-70.24156 1068.7162-70.11552 1061.046-69.91342 1048.8699-69.7874 1041.3473-69.66138 1033.8248-69.45926 1021.87576-69.33324 1014.49887-69.20721 1007.12197-69.00508 995.41207-68.87906 988.17977-68.75304 980.94747-68.55093 969.4636-68.4249 962.3732-68.29887 955.28286-68.09676 944.02749-67.97073 937.0771-67.84471 930.1267-67.6426 919.0919-67.51657 912.2797-67.39055 905.46749-67.18843 894.6545-67.06241 887.9793-66.93639 881.3041-66.73425 870.71-66.60823 864.1694-66.48221 857.6287-66.2801 847.24667-66.15408 840.8387-66.02805 834.4307-65.82594 824.26156-65.69992 817.9851-65.5739 811.7087-65.37177 801.74996-65.24574 795.6026-65.11972 789.45529-64.9176 779.6995-64.79158 773.6794-64.66556 767.6593-64.46344 758.1084-64.33742 752.2138-64.21138 746.3193-64.00928 736.96566-63.88326 731.1955-63.75723 725.42538-63.55511 716.2747-63.4291 710.6266-63.30307 704.97848-63.10094 696.01559-62.97491 690.4876-62.84889 684.9597-62.64679 676.19387-62.52075 670.7851-62.39473 665.37637-62.19261 656.797-62.06659 651.5051-61.94057 646.2133-61.73845 637.8219-61.61243 632.6452-61.4864 627.46847-61.28429 619.2582-61.15826 614.1948-61.03224 609.13156-60.83011 601.1033-60.70409 596.1524-60.57806 591.2015-60.37596 583.35299-60.24994 578.5122-60.1239 573.67147-59.9218 565.9958-59.79578 561.2634-59.66975 556.5311-59.46762 549.0297-59.3416 544.40487-59.21558 539.77999-59.01346 532.44998-58.88744 527.93038-58.76141 523.4107-58.5593 516.24649-58.43326 511.8304-58.30724 507.41438-58.10513 500.41603-57.97911 496.10246-57.85309 491.78895-57.65097 484.95445-57.52495 480.7413-57.39893 476.52815-57.1968 469.8513-57.07077 465.737-56.94475 461.6227-56.74265 455.1047-56.61661 451.08824-56.49059 447.07176-56.28848 440.70967-56.16246 436.78898-56.03644 432.86827-55.8343 426.65708-55.70828 422.8305-55.58226 419.00398-55.38014 412.9438-55.25412 409.2099-55.1281 405.47605-54.92596 399.56199-54.79994 395.9193-54.67392 392.27668-54.47182 386.50865-54.3458 382.95616-54.21976 379.40364-54.01765 373.7795-53.89163 370.31523-53.76561 366.85096-53.56348 361.3655-53.43745 357.98789-53.31143 354.61024-53.10931 349.2635-52.98329 345.97157-52.85727 342.67964-52.65515 337.46998-52.52911 334.2619-52.40309 331.0538-52.20099 325.97557-52.07497 322.84983-51.94894 319.72404-51.74683 314.778-51.6208 311.73359-51.49478 308.68913-51.29265 303.8725-51.16663 300.9076-51.0406 297.94267-50.8385 293.2512-50.71246 290.36448-50.58644 287.47776-50.38434 282.91169-50.25832 280.10209-50.1323 277.29249-49.93016 272.849-49.80414 270.11476-49.67812 267.38056-49.476 263.05586-49.34998 260.39567-49.22395 257.7354-49.02182 253.5292-48.8958 250.94167-48.76978 248.35413-48.56767 244.26255-48.44165 241.74634-48.31561 239.23014-48.11351 235.25255-47.98749 232.80663-47.86147 230.3607-47.65933 226.49466-47.53331 224.11782-47.40729 221.74098-47.20517 217.98543-47.07915 215.67598-46.95313 213.36653-46.75102 209.71662-46.62498 207.47289-46.49896 205.22914-46.29684 201.68323-46.17082 199.50467-46.0448 197.32613-45.84268 193.88597-45.71666 191.77132-45.59064 189.65668-45.3885 186.3161-45.26248 184.26377-45.13646 182.21143-44.93436 178.97069-44.80832 176.97939-44.6823 174.98809-44.4802 171.84319-44.35417 169.91172-44.22815 167.98024-44.02602 164.93137-43.9 163.0586-43.77397 161.1858-43.57185 158.22905-43.44583 156.41394-43.31981 154.59882-43.11768 151.73506-42.99165 149.97647-42.86563 148.2179-42.66353 145.44301-42.5375 143.73928-42.41147 142.03554-42.20937 139.34705-42.08334 137.69716-41.95732 136.04727-41.75519 133.4448-41.62917 131.84795-41.50314 130.2511-41.30103 127.73311-41.175 126.18819-41.04898 124.64325-40.84688 122.20764-40.72084 120.71312-40.59482 119.2186-40.3927 116.86208-40.26668 115.4167-40.14066 113.97133-39.93854 111.6927-39.81252 110.29588-39.6865 108.89906-39.48436 106.69878-39.35834 105.34937-39.23232 103.99997-39.03021 101.87357-38.90417 100.57027-38.77815 99.26695-38.57605 97.21419-38.45003 95.95595-38.32399 94.69771-38.12187 92.71593-37.99585 91.50168-37.86983 90.28741-37.66771 88.3755-37.54169 87.2044-37.41566 86.03331-37.21355 84.19028-37.08752 83.06113-36.9615 81.93196-36.75938 80.15448-36.63336 79.0662-36.50732 77.97792-36.30522 76.2658-36.1792 75.21748-36.05318 74.16917-35.85104 72.51982-35.72502 71.51064-35.599 70.50145-35.39688 68.91504-35.27086 67.94391-35.14484 66.97278-34.94273 65.44557-34.8167 64.51129-34.69067 63.57701-34.48856 62.10838-34.36253 61.21016-34.23651 60.31194-34.0344 58.90048-33.90837 58.03749-33.78235 57.17451-33.58022 55.81912-33.4542 54.99028-33.32817 54.16144-33.12607 52.85919-33.00003 52.0637-32.87401 51.26823-32.6719 50.02003-32.54588 49.25697-32.41985 48.49391-32.21773 47.29562-32.0917 46.564-31.96568 45.83238-31.76357 44.68481-31.63754 43.9839-31.51152 43.283-31.3094 42.18369-31.18338 41.51239-31.05736 40.84108-30.85524 39.78792-30.72922 39.14554-30.60318 38.50317-30.40108 37.49667-30.27505 36.8825-30.14903 36.26833-29.9469 35.30605-29.82088 34.71893-29.69485 34.13184-29.49274 33.21162-29.36671 32.65099-29.24069 32.09035-29.03859 31.21307-28.91255 30.67818-28.78653 30.14328-28.58441 29.30605-28.45839 28.79576-28.33237 28.28548-28.13025 27.48659-28.00423 27.0003-27.8782 26.51402-27.67609 25.7538-27.55006 25.29091-27.42404 24.82803-27.22192 24.10445-27.09589 23.66414-26.96986 23.22383-26.76776 22.53596-26.64174 22.11739-26.5157 21.69879-26.31358 21.04475-26.18756 20.64719-26.06154 20.2496-25.85942 19.62912-25.7334 19.25182-25.60738 18.87453-25.40526 18.28549-25.27924 17.92783-25.15321 17.57014-24.9511 17.01254-24.82507 16.67389-24.69904 16.33524-24.49693 15.80746-24.37091 15.48701-24.24489 15.16655-24.04277 14.66708-23.91675 14.36415-23.79073 14.0612-23.5886 13.58952-23.46257 13.30356-23.33655 13.0176-23.13445 12.57272-23.0084 12.30309-22.88239 12.03345-22.68027 11.61418-22.55424 11.36015-22.42822 11.10612-22.2261 10.71112-22.10008 10.47217-21.97406 10.2332-21.77194 9.8623-21.64592 9.6378-21.5199 9.4133-21.31778 9.06473-21.19174 8.85403-21.06572 8.64334-20.86362 8.31667-20.7376 8.11916-20.61156 7.92165-20.40944 7.61539-20.28342 7.43056-20.1574 7.24571-19.95528 6.95958-19.82925 6.78693-19.70323 6.61429-19.50111 6.34715-19.37509 6.18614-19.24907 6.02515-19.04695 5.77641-18.92093 5.62645-18.79489 5.47647-18.59279 5.24469-18.46677 5.10522-18.34074 4.96576-18.13863 4.75067-18.0126 4.62123-17.88658 4.49178-17.68445 4.29214-17.55843 4.17226-17.4324 4.05235-17.2303 3.86778-17.10426 3.757-16.97824 3.64622-16.77612 3.47598-16.6501 3.37378-16.52408 3.27158-16.32196 3.1145-16.19594 3.0204-16.06992 2.9263-15.8678 2.78197-15.74178 2.69556-15.61575 2.60915-15.41364 2.4767-15.2876 2.39754-15.16158 2.31839-14.95947 2.1973-14.83345 2.12505-14.70741 2.0528-14.50531 1.9426-14.37929 1.87677-14.25327 1.81094-14.05113 1.71037-13.92511 1.65054-13.79909 1.59073-13.59697 1.49971-13.47095 1.44553-13.34492 1.39136-13.1428 1.30887-13.01678 1.25996-12.89075 1.21106-12.68864 1.13693-12.56262 1.09302-12.4366 1.0491-12.23448 .98265-12.10846 .94334-11.98244 .90405-11.7803 .84474-11.65428 .8097-11.52826 .77466-11.32616 .7219-11.20012 .69075-11.0741 .65962-10.87198 .61275-10.74596 .5852-10.61993 .55766-10.41782 .51639-10.2918 .49222-10.16577 .46805-9.96365 .43202-9.83763 .4109-9.71161 .38979-9.50949 .35826-9.38345 .33995-9.25743 .32166-9.05533 .29475-8.9293 .27898-8.80327 .2632-8.60117 .2397-8.47514 .2262-8.34912 .21269-8.14699 .1931-8.02097 .18166-7.89494 .17021-7.69283 .15324-7.5668 .14359-7.44078 .13394-7.23866 .12-7.11264 .11201-6.9866 .10403-6.7845 .0926-6.65848 .08606-6.53246 .07953-6.33034 .07019-6.20432 .06487-6.0783 .05952-5.87616 .05182-5.75014 .04756-5.62411 .0433-5.42201 .03745-5.29597 .03415-5.16995 .03085-4.96785 .02628-4.84183 .02377-4.7158 .02126-4.51367 .01784-4.38765 .01599-4.26163 .01413-4.05951 .01173-3.93349 .01036-3.80746 .00899-3.60535 .007-3.47931 .00604-3.35329 .00508-3.15118 .00404-3.02516 .00345-2.89912 .00285-2.69702 .00206-2.571 .00171-2.44498 .00136-2.24284 .00107-2.11682 .00084-1.9908 .00061-1.78868 .00009-1.66266 0-1.53664-.00009-1.33452 0-1.2085 0-1.08246 0-.88036 0-.75433 0-.62831 0-.4262 0-.30017 0-.17415 0 .02795 0 .15398 0 .28 0 .4821 0 .60814 0 .73416 0 .93626 0 1.06229 0 1.18831 0 1.39044-.00003 1.51646 0 1.64249 .00003 1.8446 .00024 1.97063 .00041 2.09665 .00058 2.29878 .00099 2.4248 .00128 2.55083 .00157 2.75293 .00204 2.87895 .00258 3.00499 .00311 3.20709 .00433 3.33311 .00517 3.45914 .00601 3.66127 .00746 3.7873 .00864 3.91331 .00983 4.11543 .0121 4.24146 .01382 4.36748 .01556 4.56958 .01884 4.6956 .02118 4.82164 .02353 5.02376 .02765 5.14978 .0307 5.2758 .03375 5.47792 .03935 5.60394 .04324 5.72997 .04713 5.9321 .0539 6.05812 .0588 6.18414 .06372 6.38625 .07254 6.51228 .0787 6.6383 .08488 6.84041 .09587 6.96643 .10336 7.09245 .11086 7.29459 .1237 7.42061 .13277 7.54663 .14183 7.74875 .15782 7.87477 .16867 8.0008 .17953 8.20293 .19829 8.32895 .21106 8.45497 .22383 8.65707 .2458 8.7831 .26082 8.90913 .27582 9.11124 .3017 9.23726 .3192 9.36328 .33672 9.56541 .3669 9.69144 .38712 9.81746 .40733 10.01958 .4418 10.1456 .46497 10.27162 .48811 10.47372 .52766 10.59975 .55406 10.72578 .58044 10.9279 .62534 11.05392 .65527 11.17995 .68521 11.38206 .73611 11.50809 .7699 11.63411 .80368 11.83624 .86087 11.96227 .89879 12.08829 .93672 12.29039 1.00084 12.41643 1.04327 12.54245 1.08571 12.74455 1.15738 12.87057 1.20459 12.9966 1.25182 13.19873 1.33128 13.32475 1.38368 13.45078 1.43607 13.6529 1.52425 13.77892 1.58221 13.90494 1.64018 14.10706 1.73766 14.23308 1.8015 14.3591 1.86536 14.56122 1.97227 14.68724 2.04242 14.81328 2.11256 15.01538 2.23026 15.1414 2.30713 15.26743 2.38402 15.46956 2.5125 15.59558 2.59651 15.7216 2.68051 15.92372 2.82112 16.04974 2.91269 16.17577 3.00427 16.37787 3.157 16.50389 3.25656 16.62993 3.35612 16.83205 3.52226 16.95807 3.63026 17.08409 3.73828 17.28621 3.91823 17.41223 4.03513 17.53825 4.15204 17.74039 4.34659 17.86641 4.47285 17.99243 4.59912 18.19453 4.80904 18.32057 4.94519 18.4466 5.08136 18.6487 5.3077 18.77472 5.4543 18.90074 5.6009 19.10287 5.84448 19.2289 6.00189 19.35492 6.15929 19.55704 6.42003 19.68306 6.58884 19.80908 6.75763 20.0112 7.03773 20.13722 7.21861 20.26324 7.39948 20.46536 7.69922 20.59138 7.89252 20.71742 8.0858 20.91953 8.40544 21.04555 8.61182 21.17157 8.8182 21.3737 9.15994 21.49973 9.38 21.62575 9.60007 21.82787 9.96364 21.95389 10.19794 22.07991 10.43224 22.28201 10.81952 22.40805 11.06863 22.53407 11.31775 22.73619 11.72893 22.86221 11.9934 22.98824 12.25786 23.19035 12.69415 23.31638 12.97482 23.4424 13.2555 23.64452 13.71902 23.77054 14.01639 23.89656 14.31375 24.09868 14.80334 24.22472 15.11806 24.35074 15.43277 24.55284 15.95178 24.67886 16.2846 24.80489 16.61745 25.00702 17.1654 25.13304 17.5169 25.25906 17.86841 25.46118 18.44717 25.5872 18.818 25.71323 19.18881 25.91534 19.79865 26.04137 20.18956 26.16739 20.58047 26.3695 21.22374 26.49553 21.63554 26.62157 22.04735 26.82367 22.72435 26.94969 23.15764 27.07571 23.59093 27.27785 24.3029 27.40387 24.75847 27.52989 25.21402 27.73201 25.96237 27.85803 26.44104 27.98405 26.91971 28.18616 27.70596 28.3122 28.20839 28.43822 28.71082 28.64034 29.53532 28.76636 30.06224 28.89238 30.58916 29.0945 31.45383 29.22052 32.00607 29.34654 32.55832 29.54866 33.46393 29.67468 34.04245 29.8007 34.62097 30.00282 35.57031 30.12886 36.17574 30.25488 36.78114 30.45699 37.77277 30.58301 38.4059 30.70903 39.03905 30.91116 40.07713 31.03719 40.73901 31.16321 41.4009 31.36533 42.485 31.49135 43.17636 31.61737 43.86772 31.81949 45.00024 31.94551 45.72185 32.07153 46.44344 32.27365 47.6244 32.39967 48.3772 32.52571 49.13 32.72781 50.36256 32.85384 51.1476 32.97986 51.93263 33.18198 53.2173 33.308 54.03523 33.43402 54.85315 33.63615 56.19084 33.76218 57.04266 33.8882 57.89449 34.0903 59.28784 34.21634 60.17467 34.34236 61.0615 34.54448 62.51181 34.6705 63.43428 34.79652 64.35675 34.99864 65.86407 35.12466 66.82321 35.25069 67.78235 35.4528 69.35004 35.57883 70.3471 35.70485 71.34416 35.90697 72.97374 36.033 74.0094 36.15903 75.04504 36.36113 76.7362 36.48715 77.81142 36.61317 78.88661 36.8153 80.64299 36.94133 81.75876 37.06735 82.87453 37.26947 84.69556 37.3955 85.85315 37.52151 87.01076 37.72363 88.90176 37.84966 90.10197 37.97568 91.3022 38.1778 93.25958 38.30382 94.50348 38.42986 95.74739 38.63196 97.77834 38.75798 99.0672 38.884 100.35605 39.08612 102.45808 39.21214 103.79266 39.33817 105.12726 39.5403 107.30458 39.66632 108.68597 39.79234 110.06737 39.99445 112.31949 40.12048 113.74883 40.2465 115.17816 40.44862 117.50911 40.57465 118.98773 40.70067 120.46635 40.90279 122.87697 41.02881 124.4057 41.15483 125.93443 41.35695 128.4258 41.48297 130.00577 41.609 131.58574 41.81111 134.1605 41.93715 135.79312 42.06317 137.42574 42.26527 140.08634 42.3913 141.77254 42.51733 143.45874 42.71944 146.20528 42.84546 147.94615 42.97148 149.68701 43.17361 152.52262 43.29964 154.3196 43.42566 156.11658 43.62778 159.04357 43.7538 160.89763 43.87982 162.7517 44.08194 165.77008 44.20796 167.68242 44.334 169.59476 44.5361 172.70871 44.66212 174.68045 44.78815 176.65219 44.99026 179.86103 45.11629 181.89347 45.24231 183.92589 45.44444 187.23415 45.57047 189.3288 45.69649 191.42345 45.89859 194.83219 46.02463 196.99033 46.15065 199.14849 46.35277 202.66068 46.47879 204.88329 46.60481 207.1059 46.80693 210.72147 46.93295 213.00937 47.05898 215.29727 47.2611 219.01775 47.38712 221.37294 47.51314 223.72812 47.71526 227.56006 47.8413 229.9839 47.96732 232.40773 48.16942 236.34918 48.29544 238.84227 48.42148 241.33538 48.62358 245.38813 48.7496 247.9524 48.87563 250.51667 49.07776 254.68689 49.20378 257.32377 49.3298 259.96064 49.53192 264.24708 49.65794 266.95726 49.78397 269.6674 49.98608 274.07133 50.1121 276.85676 50.23814 279.64216 50.44025 284.17094 50.56627 287.03266 50.69229 289.89433 50.89441 294.54255 51.02043 297.4819 51.14645 300.42124 51.34859 305.1986 51.47461 308.21748 51.60063 311.23634 51.80273 316.14045 51.92877 319.23985 52.0548 322.33927 52.2569 327.37464 52.38292 330.5559 52.50894 333.73719 52.71107 338.9032 52.8371 342.16825 52.96312 345.4333 53.16524 350.73835 53.29126 354.08815 53.41728 357.4379 53.6194 362.8752 53.74544 366.31123 53.87146 369.74726 54.07356 375.3284 54.19958 378.85267 54.32562 382.3769 54.52773 388.0981 54.65375 391.71159 54.77977 395.32508 54.9819 401.1921 55.10793 404.8962 55.23395 408.6003 55.43607 414.61198 55.56209 418.40827 55.68811 422.20454 55.89023 428.36674 56.01625 432.25727 56.14229 436.14778 56.34439 442.46263 56.47041 446.4484 56.59644 450.43418 56.79855 456.90129 56.92458 460.98384 57.0506 465.06639 57.25273 471.69175 57.37875 475.87269 57.50478 480.0536 57.70688 486.83567 57.83292 491.11705 57.95894 495.3984 58.16104 502.34706 58.28706 506.72993 58.41309 511.1128 58.61522 518.2198 58.74124 522.70578 58.86726 527.19168 59.06938 534.47018 59.1954 539.0613 59.32143 543.6524 59.52354 551.0978 59.64958 555.7953 59.7756 560.4928 59.9777 568.11227 60.10373 572.9177 60.22977 577.7232 60.43187 585.5143 60.55789 590.42996 60.68391 595.3455 60.88605 603.3193 61.01207 608.34609 61.13809 613.37289 61.34021 621.51998 61.46623 626.6597 61.59225 631.7995 61.79436 640.13497 61.92038 645.3899 62.04642 650.6449 62.24854 659.1634 62.37456 664.53408 62.50058 669.9047 62.7027 678.6089 62.82872 684.0982 62.95474 689.58749 63.15688 698.4875 63.2829 704.09707 63.40892 709.70657 63.61102 718.79757 63.73706 724.52798 63.86308 730.25839 64.06519 739.54367 64.19121 745.3979 64.31723 751.2522 64.51936 760.74246 64.64539 766.7216 64.77141 772.70077 64.97353 782.38577 65.09955 788.4917 65.22557 794.5976 65.42767 804.4938 65.55371 810.7289 65.67973 816.9639 65.88185 827.0644 66.00787 833.42977 66.13391 839.7951 66.33601 850.10787 66.46204 856.606 66.58806 863.1042 66.79019 873.6321 66.91621 880.2641 67.04224 886.8962 67.24435 897.63827 67.37038 904.40536 67.4964 911.1724 67.6985 922.1313 67.82452 929.0366 67.95056 935.942 68.15268 947.12899 68.2787 954.1745 68.40472 961.22 68.60684 972.62887 68.73286 979.81576 68.85889 987.0026 69.06102 998.6425 69.18704 1005.97268 69.31306 1013.30276 69.51517 1025.1708 69.6412 1032.646 69.76723 1040.1211 69.96933 1052.2255 70.09535 1059.8483 70.22137 1067.4711 70.42351 1079.8143 70.54953 1087.586 70.67555 1095.3578 70.87767 1107.9389 71.0037 1115.8615 71.12971 1123.784 71.33182 1136.6105 71.45786 1144.6867 71.58388 1152.7628 71.786 1165.8381 71.91202 1174.069 72.03806 1182.2999 72.24016 1195.6217 72.36618 1204.0093 72.4922 1212.3969 72.69434 1225.9747 72.82036 1234.521 72.94638 1243.0673 73.1485 1256.898 73.27452 1265.6049 73.40054 1274.3118 73.60265 1288.404 73.72867 1297.2744 73.8547 1306.1448 74.05682 1320.5006 74.18285 1329.5365 74.30887 1338.5725 74.51099 1353.1964 74.63701 1362.399 74.76303 1371.6017 74.96515 1386.4915 75.09117 1395.8628 75.2172 1405.2343 75.41931 1420.3993 75.54535 1429.9417 75.67137 1439.4839 75.87347 1454.9216 75.9995 1464.6369 76.12552 1474.3519 76.32765 1490.0708 76.45367 1499.9617 76.5797 1509.8527 76.78181 1525.8558 76.90784 1535.9238 77.03386 1545.9918 77.23596 1562.2776 77.362 1572.5248 77.48802 1582.7719 77.69014 1599.349 77.81616 1609.7783 77.9422 1620.2077 78.1443 1637.0794 78.27032 1647.692 78.39635 1658.3048 78.59848 1675.4692 78.7245 1686.2676 78.85052 1697.0658 79.05264 1714.5326 79.17867 1725.5187 79.30469 1736.5045 79.50679 1754.2698 79.63281 1765.4467 79.75885 1776.6234 79.96097 1794.7034 80.08699 1806.0731 80.21301 1817.4429 80.41513 1835.8289 80.54115 1847.3919 80.66718 1858.9547 80.8693 1877.6516 80.99532 1889.4111 81.12134 1901.1707 81.32346 1920.1868 81.4495 1932.1459 81.57552 1944.105 81.77762 1963.4443 81.90364 1975.6043 82.02966 1987.7643 82.2318 2007.4226 82.35782 2019.7868 82.48384 2032.1509 82.68596 2052.1468 82.81198 2064.7164 82.938 2077.2857 83.1401 2097.6014 83.26614 2110.3785 83.39217 2123.1556 83.59428 2143.8165 83.7203 2156.8045 83.84634 2169.7926 84.04845 2190.788 84.17447 2203.9874 84.30049 2217.1866 84.50261 2238.5203 84.62863 2251.935 84.75465 2265.3499 84.95679 2287.039 85.08281 2300.6717 85.20883 2314.3045 85.41093 2336.3394 85.53696 2350.19 85.663 2364.0408 85.86511 2386.4259 85.99113 2400.498 86.11716 2414.5704 86.31927 2437.3153 86.4453 2451.6124 86.57132 2465.9095 86.77344 2489.017 86.89946 2503.5416 87.02548 2518.066 87.2276 2541.5413 87.35364 2556.2945 87.47966 2571.0474 87.68176 2594.887 87.80779 2609.871 87.9338 2624.855 88.13594 2649.0714 88.26196 2664.2889 88.38799 2679.506 88.5901 2704.0933 88.71613 2719.5477 88.84215 2735.002 89.04427 2759.9805 89.17029 2775.6729 89.29631 2791.3653 89.49843 2816.7149 89.62445 2832.648 89.75049 2848.5814 89.95259 2874.3309 90.07861 2890.5084 90.20464 2906.6859 90.40675 2932.8214 90.53278 2949.2445 90.6588 2965.6673 90.86093 2992.203 90.98695 3008.874 91.11298 3025.545 91.31508 3052.476 91.4411 3069.3978 91.56714 3086.3194 91.76926 3113.6575 91.89528 3130.8333 92.0213 3148.009 92.22342 3175.7584 92.34944 3193.1898 92.47546 3210.621 92.67758 3238.7774 92.8036 3256.467 92.92963 3274.1566 93.13174 3302.7337 93.25778 3320.6837 93.3838 3338.6339 93.5859 3367.6246 93.71193 3385.839 93.83795 3404.0538 94.04007 3433.4813 94.16609 3451.9617 94.29211 3470.442 94.49425 3500.2833 94.62027 3519.0318 94.74629 3537.7803 94.94841 3568.0675 95.07443 3587.0882 95.20045 3606.109 95.40257 3636.8262 95.5286 3656.1204 95.65463 3675.4146 95.85674 3706.5775 95.98276 3726.148 96.10878 3745.7183 96.3109 3777.3197 96.43692 3797.1702 96.56294 3817.0206 96.76508 3849.0845 96.8911 3869.2164 97.01712 3889.3482 97.21922 3921.8504 97.34525 3942.2664 97.47128 3962.6822 97.6734 3995.6558 97.79942 4016.3597 97.92545 4037.0635 98.12756 4070.494 98.25359 4091.4859 98.37961 4112.4777 98.58173 4146.369 98.70775 4167.6545 98.83377 4188.94 99.03589 4223.3146 99.16193 4244.896 99.28795 4266.4777 99.49005 4301.322 99.61607 4323.199 99.7421 4345.0769 99.94421 4380.3947 100.07024 4402.5739 100.19626 4424.753 100.39839 4460.568 100.52441 4483.0515 100.65044 4505.5349 100.85255 4541.832 100.97858 4564.6198 101.1046 4587.407 101.30672 4624.1936 101.43274 4647.2897 101.55878 4670.3859 101.76088 4707.672 101.8869 4731.0808 102.01292 4754.4895 102.21504 4792.2795 102.34106 4816.004 102.46709 4839.728 102.66922 4878.0285 102.79524 4902.0695 102.92126 4926.111 103.12337 4964.915 103.24939 4989.276 103.37543 5013.6369 103.57753 5052.962 103.70355 5077.645 103.82957 5102.3288 104.03171 5142.167 104.15773 5167.1755 104.28375 5192.1838 104.48587 5232.5505 104.6119 5257.8889 104.73792 5283.2268 104.94003 5324.126 105.06607 5349.795 105.1921 5375.4645 105.3942 5416.89 105.52022 5442.893 105.64624 5468.896 105.84836 5510.8649 105.97438 5537.206 106.1004 5563.5476 106.30254 5606.0627 106.42856 5632.743 106.55458 5659.4245 106.7567 5702.4807 106.88272 5729.504 107.00874 5756.5275 107.21086 5800.139 107.33688 5827.51 107.46292 5854.8806 107.66502 5899.053 107.79105 5926.7727 107.91707 5954.491 108.11919 5999.2189 108.24521 6027.289 108.37123 6055.36 108.57336 6100.6599 108.69939 6129.084 108.82541 6157.509 109.02751 6203.3708 109.15355 6232.1545 109.27957 6260.938 109.48167 6307.393 109.6077 6336.537 109.73372 6365.681 109.93585 6412.697 110.06187 6442.204 110.1879 6471.7116 110.39001 6519.3298 110.51604 6549.2048 110.64206 6579.08 110.84418 6627.2795 110.97021 6657.524 111.09624 6687.7687 111.29834 6736.57 111.42436 6767.1867 111.55038 6797.8039 111.7525 6847.197 111.87852 6878.1896 112.00455 6909.1818 112.20668 6959.185 112.3327 6990.5578 112.45872 7021.93 112.66084 7072.547 112.78687 7104.3015 112.91289 7136.055 113.24101 7219.4187 113.24101 7219.4187"/>
</g>
<use data-text="&#x2022;" xlink:href="#font_3_1" transform="matrix(9.963496,0,0,-9.963098,118.069,133.34001)"/>
<use data-text="(" xlink:href="#font_4_1" transform="matrix(9.963496,0,0,-9.963098,124.08054,142.11846)"/>
<use data-text="0" xlink:href="#font_4_3" transform="matrix(9.963496,0,0,-9.963098,127.94639,142.11846)"/>
<use data-text="," xlink:href="#font_1_1" transform="matrix(9.963496,0,0,-9.963098,132.93735,142.11846)"/>
<use data-text="0" xlink:href="#font_4_3" transform="matrix(9.963496,0,0,-9.963098,137.36573,142.11846)"/>
<use data-text=")" xlink:href="#font_4_2" transform="matrix(9.963496,0,0,-9.963098,142.34748,142.11846)"/>
</svg>
