<svg xmlns="http://www.w3.org/2000/svg" xmlns:xlink="http://www.w3.org/1999/xlink" version="1.1" width="250" height="138" viewBox="0 0 250 138">
<defs>
<path id="font_1_2" d="M.33399964 .30233766C.33999635 .32835389 .36299134 .42037965 .43299867 .42037965 .43798829 .42037965 .46199037 .42037965 .48298646 .40734864 .45498658 .402359 .43499757 .37734986 .43499757 .35334779 .43499757 .33735658 .44599916 .31835938 .47299195 .31835938 .49499513 .31835938 .5269928 .3363495 .5269928 .37635804 .5269928 .42837525 .46798707 .4423828 .43399049 .4423828 .37599183 .4423828 .34098817 .38935853 .32899476 .36634828 .3039856 .43237306 .25 .4423828 .22099304 .4423828 .116989139 .4423828 .05999756 .3133545 .05999756 .28834535 .05999756 .27833558 .069992069 .27833558 .07199097 .27833558 .07998657 .27833558 .08299255 .28033448 .084991458 .28933717 .11898804 .39535523 .18499756 .42037965 .21899414 .42037965 .23799134 .42037965 .272995 .4113617 .272995 .35334779 .272995 .32235719 .2559967 .25532533 .21899414 .11528015 .20298767 .053268434 .16799927 .011245728 .12399292 .011245728 .117996219 .011245728 .09498596 .011245728 .07398987 .024276734 .09899902 .029266358 .12098694 .05027771 .12098694 .07827759 .12098694 .105270389 .09899902 .11328125 .083999637 .11328125 .053985597 .11328125 .0289917 .08728027 .0289917 .055267335 .0289917 .009246826 .07899475-.0107421879 .12298584-.0107421879 .18899536-.0107421879 .22499085 .059280397 .22799683 .0652771 .23999024 .028274537 .27598573-.0107421879 .33599855-.0107421879 .43899537-.0107421879 .49598695 .118270877 .49598695 .14328003 .49598695 .1532898 .4869995 .1532898 .48399354 .1532898 .47499085 .1532898 .47299195 .14929199 .47099305 .14228821 .43798829 .03527832 .36999513 .011245728 .33799745 .011245728 .29899598 .011245728 .2829895 .043273927 .2829895 .07727051 .2829895 .09927368 .2889862 .121276859 .2999878 .16529846L.33399964 .30233766Z"/>
<path id="font_1_3" d="M.48599244 .38136292C.48999024 .39537049 .48999024 .39736939 .48999024 .40437318 .48999024 .42237855 .47599793 .43138124 .46099855 .43138124 .45098878 .43138124 .43499757 .42536927 .42599488 .41036988 .42399598 .405365 .41600038 .37435914 .4119873 .35635377 .40499879 .33035279 .397995 .30334474 .3919983 .27633668L.34700013 .09628296C.34298707 .08126831 .2999878 .011245728 .23399353 .011245728 .18299866 .011245728 .17199707 .055267335 .17199707 .0922699 .17199707 .1382904 .18899536 .20030213 .22299195 .28833009 .23899842 .3293457 .24299622 .3403473 .24299622 .36035157 .24299622 .405365 .21099854 .4423828 .16099549 .4423828 .06599426 .4423828 .0289917 .29733277 .0289917 .28833009 .0289917 .27833558 .038986207 .27833558 .040985109 .27833558 .050994874 .27833558 .051986696 .28033448 .056991579 .29634095 .083999637 .3903656 .12399292 .42037965 .1579895 .42037965 .1659851 .42037965 .18299866 .42037965 .18299866 .3883667 .18299866 .36335755 .17298889 .3373413 .1659851 .31834413 .12599182 .21231079 .10798645 .1552887 .10798645 .10827637 .10798645 .019256592 .17098999-.0107421879 .22999573-.0107421879 .2689972-.0107421879 .30299378 .0062561037 .33099366 .03425598 .31799317-.017745972 .30599977-.06674194 .2659912-.11973572 .23999024-.15385437 .20199585-.18309021 .1559906-.18309021 .14199829-.18309021 .09700012-.18005371 .07998657-.14074707 .09599304-.14074707 .10899353-.14074707 .12298584-.1287384 .1329956-.11973572 .14299011-.10673523 .14299011-.08773804 .14299011-.056747438 .115997318-.052734376 .10598755-.052734376 .08299255-.052734376 .049987794-.068740848 .049987794-.11773682 .049987794-.16796875 .09399414-.20507813 .1559906-.20507813 .25898744-.20507813 .3619995-.11373901 .3899994-.00074768069L.48599244 .38136292Z"/>
<path id="font_2_1" d="M.44400025 .24998474C.44400025 .35688783 .35499574 .44381715 .25 .44381715 .14199829 .44381715 .054992677 .35488893 .054992677 .24998474 .054992677 .14407349 .14199829 .056137086 .25 .056137086 .35499574 .056137086 .44400025 .14308167 .44400025 .24998474Z"/>
<path id="font_3_1" d="M.33099366-.2400055C.33099366-.23701477 .33099366-.23500061 .31399537-.21800232 .18899536-.0920105 .15699768 .09700012 .15699768 .25 .15699768 .42399598 .19499207 .59799197 .31799317 .72299197 .33099366 .73498538 .33099366 .7369995 .33099366 .73999026 .33099366 .746994 .32699586 .75 .32099916 .75 .31098939 .75 .22099304 .6819916 .1619873 .5549927 .11099243 .44499208 .09899902 .33399964 .09899902 .25 .09899902 .17199707 .10998535 .050994874 .16499329-.06201172 .22499085-.18501282 .31098939-.25 .32099916-.25 .32699586-.25 .33099366-.24700928 .33099366-.2400055Z"/>
<path id="font_3_3" d="M.45999146 .31976319C.45999146 .39982606 .45498658 .47988893 .41999818 .5539398 .37399293 .65000918 .2919922 .6660156 .25 .6660156 .18998719 .6660156 .116989139 .64001467 .07598877 .54693606 .04399109 .47789 .038986207 .39982606 .038986207 .31976319 .038986207 .24472046 .042999269 .15464783 .083999637 .07859802 .1269989-.0024719239 .19999695-.022460938 .24899292-.022460938 .30299378-.022460938 .3789978-.0014648438 .4229889 .09359741 .45498658 .16265869 .45999146 .2407074 .45999146 .31976319M.24899292-.00047302247C.20999146-.00047302247 .15098572 .024551392 .1329956 .12062073 .12199402 .18066406 .12199402 .2727356 .12199402 .3317871 .12199402 .39582826 .12199402 .46188355 .12998963 .5159149 .14898682 .63500979 .22399903 .64401248 .24899292 .64401248 .28199769 .64401248 .34799195 .6259918 .36698915 .52693179 .3769989 .47088624 .3769989 .39482118 .3769989 .3317871 .3769989 .25672914 .3769989 .18867493 .3659973 .12461853 .35099793 .029556275 .2939911-.00047302247 .24899292-.00047302247Z"/>
<path id="font_1_1" d="M.20298767 .0009918213C.20298767 .066986087 .17799378 .10598755 .13899231 .10598755 .10598755 .10598755 .085998538 .08099365 .085998538 .052993776 .085998538 .025985718 .10598755 0 .13899231 0 .15098572 0 .1639862 .0039978029 .17399597 .0129852299 .1769867 .01499939 .17799378 .015991211 .1789856 .015991211 .17999268 .015991211 .18099976 .01499939 .18099976 .0009918213 .18099976-.07316589 .1459961-.13328552 .11299133-.16635132 .101989749-.17736817 .101989749-.17936707 .101989749-.18237305 .101989749-.18936157 .10699463-.19335938 .11199951-.19335938 .12298584-.19335938 .20298767-.116256717 .20298767 .0009918213Z"/>
<path id="font_3_2" d="M.2889862 .25C.2889862 .32798768 .27799989 .44898988 .22299195 .56199648 .16299439 .68499758 .07699585 .75 .066986087 .75 .06098938 .75 .056991579 .74598696 .056991579 .73999026 .056991579 .7369995 .056991579 .73498538 .07598877 .71699526 .17399597 .6179962 .23098755 .45899964 .23098755 .25 .23098755 .07899475 .19400025-.09700012 .069992069-.2230072 .056991579-.23500061 .056991579-.23701477 .056991579-.2400055 .056991579-.2460022 .06098938-.25 .066986087-.25 .07699585-.25 .16699219-.18200684 .22599793-.055007936 .2769928 .054992677 .2889862 .16600037 .2889862 .25Z"/>
</defs>
<path transform="matrix(1.00009,0,0,-1.00008,120.56023,74.432918)" stroke-width=".19925" stroke-linecap="butt" stroke-miterlimit="10" stroke-linejoin="miter" fill="none" stroke="#929292" d="M-113.38724-56.69362H113.38724M-113.38724-28.3468H113.38724M-113.38724 0H113.38724M-113.38724 28.3468H113.38724M-113.38724 56.68365H113.38724M-113.38724-56.69362V56.69362M-85.04042-56.69362V56.69362M-56.69362-56.69362V56.69362M-28.3468-56.69362V56.69362M0-56.69362V56.69362M28.3468-56.69362V56.69362M56.69362-56.69362V56.69362M85.04042-56.69362V56.69362M113.37727-56.69362V56.69362M113.38724 56.69362"/>
<path transform="matrix(1.00009,0,0,-1.00008,120.56023,74.432918)" stroke-width="1.19553" stroke-linecap="butt" stroke-miterlimit="10" stroke-linejoin="miter" fill="none" stroke="#000000" d="M-119.0565 0H118.10008"/>
<path transform="matrix(1.00009,0,0,-1.00008,238.67093,74.432918)" stroke-width=".9564" stroke-linecap="round" stroke-linejoin="round" fill="none" stroke="#000000" d="M-1.91284 2.55046C-1.75343 1.59402 0 .15938 .4782 0 0-.15938-1.75343-1.59402-1.91284-2.55046"/>
<use data-text="x" xlink:href="#font_1_2" transform="matrix(9.963496,0,0,-9.963397,243.5463,76.57809)"/>
<path transform="matrix(1.00009,0,0,-1.00008,120.56023,74.432918)" stroke-width="1.19553" stroke-linecap="butt" stroke-miterlimit="10" stroke-linejoin="miter" fill="none" stroke="#000000" d="M0-62.36288V61.40646"/>
<path transform="matrix(0,-1.00008,-1.00009,-0,120.56023,13.021542)" stroke-width=".9564" stroke-linecap="round" stroke-linejoin="round" fill="none" stroke="#000000" d="M-1.91284 2.55046C-1.75343 1.59402 0 .15938 .4782 0 0-.15938-1.75343-1.59402-1.91284-2.55046"/>
<use data-text="y" xlink:href="#font_1_3" transform="matrix(9.963496,0,0,-9.963397,117.93899,6.2094576)"/>
<path transform="matrix(1.00009,0,0,-1.00008,120.56023,74.432918)" stroke-width=".79701" stroke-linecap="butt" stroke-miterlimit="10" stroke-linejoin="miter" fill="none" stroke="#0000ff" d="M-113.38724-44.99562C-113.38724-44.99562-113.05908-44.95-112.93306-44.93289-112.80704-44.91579-112.60492-44.8889-112.4789-44.87234-112.35287-44.85579-112.15074-44.83037-112.02472-44.8135-111.8987-44.79665-111.6966-44.76772-111.57057-44.7508-111.44453-44.73389-111.24243-44.70834-111.11641-44.69154-110.99039-44.67474-110.78825-44.64685-110.66223-44.62968-110.53621-44.61252-110.33409-44.58487-110.20807-44.56783-110.08205-44.55078-109.87993-44.52388-109.75389-44.50684-109.62787-44.48979-109.42577-44.46185-109.29974-44.44499-109.17372-44.42815-108.9716-44.40234-108.84558-44.3853-108.71956-44.36826-108.51743-44.33925-108.3914-44.32214-108.26538-44.30505-108.06328-44.27913-107.93724-44.26202-107.81122-44.24492-107.60912-44.2165-107.4831-44.19888-107.35706-44.18124-107.15494-44.15225-107.02892-44.13486-106.9029-44.11748-106.70078-44.09059-106.57475-44.07344-106.44873-44.0563-106.2466-44.02844-106.12057-44.01117-105.99455-43.99388-105.79245-43.96645-105.66643-43.94887-105.54039-43.93129-105.33829-43.90181-105.21227-43.88443-105.08624-43.86703-104.88411-43.84088-104.75809-43.82344-104.63206-43.80598-104.42995-43.77643-104.30392-43.75856-104.1779-43.74068-103.9758-43.71205-103.84976-43.69453-103.72374-43.67702-103.52162-43.65001-103.3956-43.63225-103.26958-43.6145-103.06746-43.58426-102.94144-43.56651-102.81541-43.54875-102.61328-43.52185-102.48726-43.50423-102.36124-43.48659-102.15913-43.45715-102.0331-43.43935-101.90707-43.42152-101.70497-43.3937-101.57895-43.37576-101.45291-43.35783-101.2508-43.32832-101.12477-43.31001-100.99875-43.29172-100.79663-43.2617-100.67061-43.24384-100.54459-43.22595-100.34245-43.199-100.21643-43.18112-100.09041-43.16324-99.8883-43.1332-99.76228-43.11494-99.63625-43.09671-99.43414-43.06781-99.30812-43.04962-99.1821-43.03145-98.97997-43.00212-98.85394-42.98387-98.72792-42.96564-98.5258-42.93655-98.39978-42.91814-98.27376-42.89973-98.07166-42.86955-97.94562-42.85109-97.8196-42.83261-97.61748-42.80315-97.49146-42.78491-97.36543-42.76666-97.16331-42.73807-97.0373-42.7196-96.91127-42.70113-96.70914-42.67035-96.58311-42.6517-96.45709-42.63304-96.25499-42.60367-96.12895-42.58508-96.00293-42.56648-95.80083-42.53607-95.6748-42.5176-95.54877-42.49913-95.34665-42.4705-95.22063-42.45186-95.0946-42.4332-94.89249-42.40198-94.76646-42.38307-94.64044-42.36418-94.43832-42.3345-94.3123-42.31561-94.18628-42.29672-93.98416-42.26585-93.85814-42.24684-93.7321-42.22781-93.53-42.19739-93.40398-42.17848-93.27795-42.15959-93.07582-42.12953-92.9498-42.11058-92.82378-42.09163-92.62166-42.06107-92.49564-42.04181-92.36961-42.02255-92.16751-41.991-92.04147-41.97174-91.91545-41.95248-91.71333-41.9221-91.58731-41.90297-91.46129-41.88383-91.25917-41.85289-91.13315-41.83376-91.00713-41.81462-90.805-41.78426-90.67897-41.765-90.55295-41.74573-90.35085-41.7143-90.22481-41.69492-90.09879-41.67554-89.89668-41.64471-89.77066-41.62527-89.64462-41.60583-89.4425-41.57443-89.31648-41.55476-89.19046-41.5351-88.98834-41.50302-88.86232-41.48341-88.7363-41.4638-88.53418-41.43294-88.40816-41.41333-88.28214-41.39372-88.08002-41.36171-87.954-41.34196-87.82796-41.32224-87.62585-41.29088-87.49983-41.27103-87.37381-41.25117-87.17168-41.2186-87.04565-41.19879-86.91963-41.179-86.71751-41.14821-86.59149-41.1283-86.46547-41.10838-86.26337-41.07536-86.13733-41.0552-86.0113-41.03505-85.80919-41.00305-85.68317-40.98296-85.55714-40.96286-85.35503-40.93045-85.229-40.9103-85.10298-40.89014-84.90086-40.85779-84.77484-40.83763-84.64882-40.81747-84.4467-40.78519-84.32066-40.76497-84.19464-40.74475-83.99254-40.7122-83.86652-40.69186-83.74048-40.67152-83.53836-40.63885-83.41234-40.61833-83.28632-40.59781-83.0842-40.56456-82.95818-40.54393-82.83215-40.5233-82.63004-40.49007-82.50401-40.46954-82.37799-40.44902-82.17587-40.41666-82.04985-40.39601-81.92381-40.37537-81.72171-40.34149-81.59569-40.32074-81.46967-40.3-81.26753-40.2671-81.14151-40.24635-81.01549-40.2256-80.81337-40.19196-80.68735-40.17108-80.56133-40.1502-80.35922-40.11674-80.23318-40.09583-80.10716-40.07489-79.90504-40.04124-79.77902-40.02013-79.653-39.99901-79.45088-39.96481-79.32486-39.94357-79.19884-39.92233-78.99672-39.8883-78.8707-39.86702-78.74467-39.84572-78.54254-39.81119-78.41652-39.79001-78.2905-39.76884-78.0884-39.73557-77.96237-39.71432-77.83633-39.69308-77.63422-39.65845-77.5082-39.6369-77.38217-39.61536-77.18005-39.58066-77.05403-39.55905-76.92801-39.53745-76.72589-39.50291-76.59987-39.48119-76.47385-39.45946-76.27173-39.42413-76.1457-39.40247-76.01967-39.38081-75.81757-39.34683-75.69154-39.32504-75.56552-39.30327-75.3634-39.26746-75.23738-39.24545-75.11136-39.22343-74.90923-39.18831-74.7832-39.16629-74.65718-39.14429-74.45508-39.10866-74.32904-39.08672-74.20302-39.06476-74.0009-39.03008-73.87488-39.008-73.74886-38.98592-73.54674-38.94992-73.42072-38.92755-73.2947-38.90517-73.09258-38.8691-72.96655-38.84665-72.84053-38.82422-72.6384-38.78815-72.51237-38.76576-72.38635-38.7434-72.18425-38.70776-72.05823-38.68532-71.93219-38.66289-71.73007-38.62662-71.60405-38.604-71.47803-38.58138-71.27591-38.54498-71.14989-38.52225-71.02386-38.49951-70.82175-38.46292-70.69572-38.44006-70.5697-38.4172-70.36758-38.3805-70.24156-38.35745-70.11552-38.33443-69.91342-38.29695-69.7874-38.27397-69.66138-38.25098-69.45926-38.21487-69.33324-38.19179-69.20721-38.1687-69.00508-38.13066-68.87906-38.10745-68.75304-38.08423-68.55093-38.04773-68.4249-38.0244-68.29887-38.00107-68.09676-37.96277-67.97073-37.9392-67.84471-37.91562-67.6426-37.87793-67.51657-37.85442-67.39055-37.83089-67.18843-37.79321-67.06241-37.76964-66.93639-37.74606-66.73425-37.70818-66.60823-37.68442-66.48221-37.66066-66.2801-37.62222-66.15408-37.59834-66.02805-37.57446-65.82594-37.53627-65.69992-37.51227-65.5739-37.48827-65.37177-37.44946-65.24574-37.42534-65.11972-37.4012-64.9176-37.36256-64.79158-37.3384-64.66556-37.31422-64.46344-37.27538-64.33742-37.25102-64.21138-37.22667-64.00928-37.18726-63.88326-37.16278-63.75723-37.1383-63.55511-37.09903-63.4291-37.07455-63.30307-37.05006-63.10094-37.01091-62.97491-36.98631-62.84889-36.96172-62.64679-36.92204-62.52075-36.8972-62.39473-36.87236-62.19261-36.83214-62.06659-36.80724-61.94057-36.78233-61.73845-36.74272-61.61243-36.7177-61.4864-36.69267-61.28429-36.65207-61.15826-36.62686-61.03224-36.60165-60.83011-36.56128-60.70409-36.53603-60.57806-36.51079-60.37596-36.4701-60.24994-36.44478-60.1239-36.41946-59.9218-36.37906-59.79578-36.3535-59.66975-36.32794-59.46762-36.28632-59.3416-36.26051-59.21558-36.23471-59.01346-36.19331-58.88744-36.16753-58.76141-36.14172-58.5593-36.10037-58.43326-36.07451-58.30724-36.04866-58.10513-36.00706-57.97911-35.98108-57.85309-35.95511-57.65097-35.91345-57.52495-35.88722-57.39893-35.86101-57.1968-35.81865-57.07077-35.79208-56.94475-35.7655-56.74265-35.7222-56.61661-35.69562-56.49059-35.66905-56.28848-35.62703-56.16246-35.60046-56.03644-35.57388-55.8343-35.53094-55.70828-35.504-55.58226-35.47707-55.38014-35.43318-55.25412-35.40625-55.1281-35.37932-54.92596-35.33673-54.79994-35.3098-54.67392-35.28285-54.47182-35.23933-54.3458-35.21204-54.21976-35.18472-54.01765-35.14041-53.89163-35.11299-53.76561-35.08557-53.56348-35.04161-53.43745-35.01437-53.31143-34.98714-53.10931-34.94403-52.98329-34.91661-52.85727-34.88919-52.65515-34.84485-52.52911-34.8167-52.40309-34.78856-52.20099-34.74196-52.07497-34.71376-51.94894-34.68556-51.74683-34.64142-51.6208-34.6134-51.49478-34.58539-51.29265-34.53995-51.16663-34.51175-51.0406-34.48355-50.8385-34.43855-50.71246-34.41011-50.58644-34.38167-50.38434-34.33536-50.25832-34.30673-50.1323-34.2781-49.93016-34.23271-49.80414-34.2038-49.67812-34.17488-49.476-34.12747-49.34998-34.09825-49.22395-34.06905-49.02182-34.02219-48.8958-33.99315-48.76978-33.96411-48.56767-33.9182-48.44165-33.88892-48.31561-33.85963-48.11351-33.81172-47.98749-33.78207-47.86147-33.75243-47.65933-33.70494-47.53331-33.67523-47.40729-33.64552-47.20517-33.59785-47.07915-33.56796-46.95313-33.53809-46.75102-33.49011-46.62498-33.45982-46.49896-33.42952-46.29684-33.37988-46.17082-33.34953-46.0448-33.31917-45.84268-33.27138-45.71666-33.24095-45.59064-33.21054-45.3885-33.16107-45.26248-33.13023-45.13646-33.09938-44.93436-33.04948-44.80832-33.01865-44.6823-32.9878-44.4802-32.939-44.35417-32.90791-44.22815-32.87683-44.02602-32.82602-43.9-32.79459-43.77397-32.76314-43.57185-32.71288-43.44583-32.68124-43.31981-32.64963-43.11768-32.59856-42.99165-32.56664-42.86563-32.5347-42.66353-32.4832-42.5375-32.45116-42.41147-32.41911-42.20937-32.36789-42.08334-32.33566-41.95732-32.30344-41.75519-32.25127-41.62917-32.21887-41.50314-32.18648-41.30103-32.13478-41.175-32.10208-41.04898-32.06938-40.84688-32.0162-40.72084-31.98314-40.59482-31.95009-40.3927-31.89708-40.26668-31.86377-40.14066-31.83046-39.93854-31.77649-39.81252-31.74307-39.6865-31.70966-39.48436-31.6565-39.35834-31.62285-39.23232-31.58919-39.03021-31.53444-38.90417-31.50043-38.77815-31.4664-38.57605-31.41179-38.45003-31.3776-38.32399-31.34338-38.12187-31.28844-37.99585-31.25388-37.86983-31.21933-37.66771-31.16336-37.54169-31.12845-37.41566-31.09352-37.21355-31.03725-37.08752-31.00215-36.9615-30.96704-36.75938-30.91081-36.63336-30.87541-36.50732-30.84-36.30522-30.78264-36.1792-30.74695-36.05318-30.71126-35.85104-30.65399-35.72502-30.61806-35.599-30.58212-35.39688-30.52417-35.27086-30.48787-35.14484-30.45157-34.94273-30.39297-34.8167-30.35637-34.69067-30.31976-34.48856-30.26096-34.36253-30.224-34.23651-30.18704-34.0344-30.12724-33.90837-30.08992-33.78235-30.0526-33.58022-29.99254-33.4542-29.95497-33.32817-29.9174-33.12607-29.85703-33.00003-29.81915-32.87401-29.7813-32.6719-29.72032-32.54588-29.68204-32.41985-29.64375-32.21773-29.58197-32.0917-29.5432-31.96568-29.50444-31.76357-29.4417-31.63754-29.40262-31.51152-29.36356-31.3094-29.30103-31.18338-29.26161-31.05736-29.2222-30.85524-29.15822-30.72922-29.11844-30.60318-29.07866-30.40108-29.01498-30.27505-28.97484-30.14903-28.9347-29.9469-28.86969-29.82088-28.82907-29.69485-28.78845-29.49274-28.72299-29.36671-28.682-29.24069-28.64102-29.03859-28.57504-28.91255-28.53365-28.78653-28.49225-28.58441-28.42467-28.45839-28.38356-28.33237-28.34245-28.13025-28.27888-28.00423-28.23737-27.8782-28.19585-27.67609-28.12715-27.55006-28.08424-27.42404-28.04135-27.22192-27.97179-27.09589-27.9281-26.96986-27.8844-26.76776-27.81303-26.64174-27.76935-26.5157-27.72568-26.31358-27.65726-26.18756-27.61322-26.06154-27.56917-25.85942-27.4967-25.7334-27.45187-25.60738-27.40704-25.40526-27.33534-25.27924-27.2901-25.15321-27.24486-24.9511-27.17175-24.82507-27.12573-24.69904-27.07971-24.49693-27.00473-24.37091-26.95834-24.24489-26.91196-24.04277-26.8382-23.91675-26.79138-23.79073-26.74457-23.5886-26.66861-23.46257-26.62097-23.33655-26.57332-23.13445-26.4963-23.0084-26.44795-22.88239-26.3996-22.68027-26.32149-22.55424-26.27234-22.42822-26.22319-22.2261-26.14326-22.10008-26.0937-21.97406-26.04414-21.77194-25.96504-21.64592-25.91507-21.5199-25.86508-21.31778-25.78453-21.19174-25.7334-21.06572-25.68228-20.86362-25.59843-20.7376-25.54654-20.61156-25.49464-20.40944-25.41158-20.28342-25.35925-20.1574-25.30693-19.95528-25.22284-19.82925-25.16937-19.70323-25.1159-19.50111-25.02817-19.37509-24.97386-19.24907-24.91956-19.04695-24.83266-18.92093-24.77792-18.79489-24.72319-18.59279-24.6352-18.46677-24.57939-18.34074-24.52357-18.13863-24.43268-18.0126-24.37567-17.88658-24.31866-17.68445-24.22632-17.55843-24.16847-17.4324-24.11064-17.2303-24.0173-17.10426-23.9587-16.97824-23.90007-16.77612-23.80565-16.6501-23.7459-16.52408-23.68613-16.32196-23.5892-16.19594-23.52788-16.06992-23.46655-15.8678-23.366-15.74178-23.30383-15.61575-23.24167-15.41364-23.14313-15.2876-23.07977-15.16158-23.01642-14.95947-22.912-14.83345-22.84708-14.70741-22.78215-14.50531-22.67784-14.37929-22.61179-14.25327-22.54572-14.05113-22.43848-13.92511-22.37085-13.79909-22.3032-13.59697-22.19313-13.47095-22.1243-13.34492-22.05547-13.1428-21.94518-13.01678-21.87473-12.89075-21.80428-12.68864-21.68889-12.56262-21.6165-12.4366-21.54413-12.23448-21.42702-12.10846-21.35309-11.98244-21.27916-11.7803-21.15952-11.65428-21.08362-11.52826-21.0077-11.32616-20.88423-11.20012-20.80592-11.0741-20.72762-10.87198-20.59944-10.74596-20.51915-10.61993-20.43886-10.41782-20.30977-10.2918-20.2272-10.16577-20.14462-9.96365-20.00931-9.83763-19.92398-9.71161-19.83865-9.50949-19.69986-9.38345-19.61212-9.25743-19.5244-9.05533-19.38211-8.9293-19.29161-8.80327-19.20111-8.60117-19.0539-8.47514-18.95985-8.34912-18.86581-8.14699-18.71141-8.02097-18.61383-7.89494-18.51625-7.69283-18.35802-7.5668-18.25655-7.44078-18.15508-7.23866-17.98819-7.11264-17.8824-6.9866-17.77661-6.7845-17.60411-6.65848-17.49399-6.53246-17.38387-6.33034-17.20355-6.20432-17.08868-6.0783-16.97382-5.87616-16.78648-5.75014-16.6661-5.62411-16.54572-5.42201-16.34729-5.29597-16.22102-5.16995-16.09476-4.96785-15.88783-4.84183-15.75606-4.7158-15.62427-4.51367-15.40926-4.38765-15.27116-4.26163-15.13309-4.05951-14.92442-3.93349-14.76077-3.80746-14.59712-3.60535-14.2734-3.47931-14.09163-3.35329-13.90987-3.15118-13.63672-3.02516-13.4506-2.89912-13.26451-2.69702-12.9537-2.571-12.75034-2.44498-12.54697-2.24284-12.22551-2.11682-11.98474-1.9908-11.74397-1.78868-11.30138-1.66266-11.015-1.53664-10.72862-1.33452-10.27434-1.2085-9.92068-1.08246-9.56702-.88036-8.97748-.75433-8.46605-.62831-7.95462-.4262-8.1016-.30017-6.23459-.17415-4.36757 .02795 3.0303 .15398 4.99017 .28 6.95004 .4821 7.26178 .60814 7.89078 .73416 8.51978 .93626 9.13617 1.06229 9.5236 1.18831 9.91104 1.39044 10.37833 1.51646 10.68324 1.64249 10.98816 1.8446 11.46753 1.97063 11.72133 2.09665 11.97513 2.29878 12.30275 2.4248 12.51244 2.55083 12.72212 2.75293 13.04147 2.87895 13.23262 3.00499 13.42375 3.20709 13.70169 3.33311 13.89008 3.45914 14.07846 3.66127 14.42152 3.7873 14.59035 3.91331 14.75917 4.11543 14.96632 4.24146 15.10681 4.36748 15.24728 4.56958 15.4688 4.6956 15.60292 4.82164 15.73705 5.02376 15.94571 5.14978 16.07353 5.2758 16.20135 5.47792 16.40187 5.60394 16.52425 5.72997 16.6466 5.9321 16.83864 6.05812 16.95547 6.18414 17.07231 6.38625 17.25471 6.51228 17.36638 6.6383 17.47806 6.84041 17.65344 6.96643 17.76044 7.09245 17.86743 7.29459 18.03493 7.42061 18.13759 7.54663 18.24026 7.74875 18.40178 7.87477 18.5005 8.0008 18.59921 8.20293 18.75388 8.32895 18.84912 8.45497 18.94437 8.65707 19.09525 8.7831 19.18694 8.90913 19.27864 9.11124 19.4216 9.23726 19.51004 9.36328 19.5985 9.56541 19.73837 9.69144 19.8245 9.81746 19.91061 10.01958 20.04733 10.1456 20.13074 10.27162 20.21416 10.47372 20.34465 10.59975 20.42572 10.72578 20.50679 10.9279 20.63641 11.05392 20.71509 11.17995 20.79376 11.38206 20.91646 11.50809 20.99278 11.63411 21.0691 11.83624 21.19052 11.96227 21.26527 12.08829 21.34004 12.29039 21.459 12.41643 21.53172 12.54245 21.60445 12.74455 21.71834 12.87057 21.78952 12.9966 21.8607 13.19873 21.97511 13.32475 22.04471 13.45078 22.11432 13.6529 22.22322 13.77892 22.29126 13.90494 22.3593 14.10706 22.4683 14.23308 22.5352 14.3591 22.60211 14.56122 22.70862 14.68724 22.77354 14.81328 22.83847 15.01538 22.93948 15.1414 23.00322 15.26743 23.06694 15.46956 23.16995 15.59558 23.2329 15.7216 23.29585 15.92372 23.39563 16.04974 23.45695 16.17577 23.51828 16.37787 23.61476 16.50389 23.67494 16.62993 23.73512 16.83205 23.83174 16.95807 23.89078 17.08409 23.94983 17.28621 24.04236 17.41223 24.10057 17.53825 24.15878 17.74039 24.25293 17.86641 24.31035 17.99243 24.36777 18.19453 24.45827 18.32057 24.51451 18.4466 24.57074 18.6487 24.66061 18.77472 24.71564 18.90074 24.77068 19.10287 24.85684 19.2289 24.91113 19.35492 24.96544 19.55704 25.05356 19.68306 25.10707 19.80908 25.1606 20.0112 25.24428 20.13722 25.29697 20.26324 25.34966 20.46536 25.43452 20.59138 25.48685 20.71742 25.53918 20.91953 25.62302 21.04555 25.67415 21.17157 25.72527 21.3737 25.80504 21.49973 25.85538 21.62575 25.90573 21.82787 25.98706 21.95389 26.03705 22.07991 26.08702 22.28201 26.16653 22.40805 26.21568 22.53407 26.26483 22.73619 26.34294 22.86221 26.3913 22.98824 26.43965 23.19035 26.5163 23.31638 26.56432 23.4424 26.61232 23.64452 26.69011 23.77054 26.73732 23.89656 26.78455 24.09868 26.85828 24.22472 26.90471 24.35074 26.95116 24.55284 27.02573 24.67886 27.0721 24.80489 27.11848 25.00702 27.19345 25.13304 27.23906 25.25906 27.28467 25.46118 27.35596 25.5872 27.40083 25.71323 27.44571 25.91534 27.51814 26.04137 27.5626 26.16739 27.60707 26.3695 27.67772 26.49553 27.72134 26.62157 27.76498 26.82367 27.8338 26.94969 27.87706 27.07571 27.92032 27.27785 27.9903 27.40387 28.0332 27.52989 28.0761 27.73201 28.14384 27.85803 28.18633 27.98405 28.22882 28.18616 28.29799 28.3122 28.33945 28.43822 28.3809 28.64034 28.44427 28.76636 28.4852 28.89238 28.52612 29.0945 28.59328 29.22052 28.63445 29.34654 28.67561 29.54866 28.74118 29.67468 28.78192 29.8007 28.82266 30.00282 28.88782 30.12886 28.92813 30.25488 28.96844 30.45699 29.03275 30.58301 29.07259 30.70903 29.11244 30.91116 29.1758 31.03719 29.21533 31.16321 29.25488 31.36533 29.31847 31.49135 29.35764 31.61737 29.39682 31.81949 29.45908 31.94551 29.49777 32.07153 29.53648 32.27365 29.59811 32.39967 29.63663 32.52571 29.67516 32.72781 29.73737 32.85384 29.77547 32.97986 29.81357 33.18198 29.8736 33.308 29.91129 33.43402 29.94897 33.63615 30.00972 33.76218 30.0471 33.8882 30.08447 34.0903 30.14368 34.21634 30.18076 34.34236 30.21783 34.54448 30.27762 34.6705 30.3144 34.79652 30.3512 34.99864 30.4096 35.12466 30.4459 35.25069 30.48221 35.4528 30.54004 35.57883 30.5761 35.70485 30.61215 35.90697 30.67004 36.033 30.70586 36.15903 30.74167 36.36113 30.7988 36.48715 30.83432 36.61317 30.86984 36.8153 30.9267 36.94133 30.96193 37.06735 30.99715 37.26947 31.05336 37.3955 31.08823 37.52151 31.12308 37.72363 31.17867 37.84966 31.21323 37.97568 31.24779 38.1778 31.30298 38.30382 31.33737 38.42986 31.37175 38.63196 31.42686 38.75798 31.46106 38.884 31.49527 39.08612 31.55013 39.21214 31.58391 39.33817 31.61769 39.5403 31.67111 39.66632 31.70459 39.79234 31.73805 39.99445 31.7919 40.12048 31.82526 40.2465 31.85861 40.44862 31.91208 40.57465 31.94508 40.70067 31.97809 40.90279 32.0304 41.02881 32.06316 41.15483 32.09592 41.35695 32.1486 41.48297 32.18124 41.609 32.21388 41.81111 32.26607 41.93715 32.29846 42.06317 32.33086 42.26527 32.38268 42.3913 32.41483 42.51733 32.44698 42.71944 32.49849 42.84546 32.53029 42.97148 32.5621 43.17361 32.6125 43.29964 32.64407 43.42566 32.67563 43.62778 32.72632 43.7538 32.75783 43.87982 32.78932 44.08194 32.83989 44.20796 32.87114 44.334 32.90239 44.5361 32.95207 44.66212 32.98317 44.78815 33.01425 44.99026 33.06436 45.11629 33.0952 45.24231 33.12605 45.44444 33.17502 45.57047 33.20549 45.69649 33.23598 45.89859 33.28464 46.02463 33.31493 46.15065 33.34523 46.35277 33.39369 46.47879 33.42393 46.60481 33.45416 46.80693 33.50287 46.93295 33.53293 47.05898 33.56299 47.2611 33.61093 47.38712 33.64064 47.51314 33.67033 47.71526 33.71733 47.8413 33.74702 47.96732 33.77673 48.16942 33.82521 48.29544 33.85474 48.42148 33.88426 48.62358 33.93074 48.7496 33.95984 48.87563 33.98894 49.07776 34.03542 49.20378 34.06451 49.3298 34.09361 49.53192 34.14064 49.65794 34.16962 49.78397 34.1986 49.98608 34.24487 50.1121 34.27344 50.23814 34.302 50.44025 34.34685 50.56627 34.37552 50.69229 34.40419 50.89441 34.45161 51.02043 34.48018 51.14645 34.50874 51.34859 34.55331 51.47461 34.58139 51.60063 34.60947 51.80273 34.65465 51.92877 34.6826 52.0548 34.71056 52.2569 34.75513 52.38292 34.78296 52.50894 34.81079 52.71107 34.85553 52.8371 34.8833 52.96312 34.91107 53.16524 34.95586 53.29126 34.98323 53.41728 35.01059 53.6194 35.05325 53.74544 35.08055 53.87146 35.10785 54.07356 35.15248 54.19958 35.18002 54.32562 35.20758 54.52773 35.2519 54.65375 35.27908 54.77977 35.30627 54.9819 35.34921 55.10793 35.37598 55.23395 35.40273 55.43607 35.44525 55.56209 35.472 55.68811 35.49875 55.89023 35.54219 56.01625 35.56888 56.14229 35.59558 56.34439 35.63777 56.47041 35.66447 56.59644 35.69116 56.79855 35.73466 56.92458 35.76135 57.0506 35.78806 57.25273 35.83066 57.37875 35.85695 57.50478 35.88322 57.70688 35.92477 57.83292 35.95082 57.95894 35.97685 58.16104 36.01869 58.28706 36.04468 58.41309 36.07065 58.61522 36.1123 58.74124 36.1381 58.86726 36.16391 59.06938 36.20499 59.1954 36.23067 59.32143 36.25635 59.52354 36.29762 59.64958 36.32324 59.7756 36.34885 59.9777 36.38992 60.10373 36.41536 60.22977 36.4408 60.43187 36.48143 60.55789 36.50664 60.68391 36.53183 60.88605 36.57182 61.01207 36.59702 61.13809 36.62222 61.34021 36.66315 61.46623 36.6883 61.59225 36.71344 61.79436 36.7533 61.92038 36.77826 62.04642 36.80322 62.24854 36.84344 62.37456 36.86823 62.50058 36.893 62.7027 36.93224 62.82872 36.9569 62.95474 36.98155 63.15688 37.02141 63.2829 37.04599 63.40892 37.07059 63.61102 37.10982 63.73706 37.13423 63.86308 37.15865 64.06519 37.19762 64.19121 37.22203 64.31723 37.24644 64.51936 37.28593 64.64539 37.31029 64.77141 37.33464 64.97353 37.37352 65.09955 37.39764 65.22557 37.42177 65.42767 37.4601 65.55371 37.48416 65.67973 37.50822 65.88185 37.54716 66.00787 37.5711 66.13391 37.59505 66.33601 37.63298 66.46204 37.65674 66.58806 37.6805 66.79019 37.71875 66.91621 37.74239 67.04224 37.76602 67.24435 37.80365 67.37038 37.82716 67.4964 37.85068 67.6985 37.88847 67.82452 37.91193 67.95056 37.9354 68.15268 37.97278 68.2787 37.99629 68.40472 38.0198 68.60684 38.05817 68.73286 38.0815 68.85889 38.10483 69.06102 38.14145 69.18704 38.16455 69.31306 38.18764 69.51517 38.22505 69.6412 38.24802 69.76723 38.27098 69.96933 38.30728 70.09535 38.3302 70.22137 38.35312 70.42351 38.39026 70.54953 38.41325 70.67555 38.43623 70.87767 38.47307 71.0037 38.49586 71.12971 38.51868 71.33182 38.555 71.45786 38.5776 71.58388 38.60023 71.786 38.63643 71.91202 38.65892 72.03806 38.68143 72.24016 38.71732 72.36618 38.73982 72.4922 38.76231 72.69434 38.79863 72.82036 38.82114 72.94638 38.84363 73.1485 38.8797 73.27452 38.90202 73.40054 38.92433 73.60265 38.95992 73.72867 38.98204 73.8547 39.00418 74.05682 39.03967 74.18285 39.06163 74.30887 39.08357 74.51099 39.1184 74.63701 39.14035 74.76303 39.1623 74.96515 39.1978 75.09117 39.21994 75.2172 39.24208 75.41931 39.27812 75.54535 39.29994 75.67137 39.32178 75.87347 39.35577 75.9995 39.37738 76.12552 39.39897 76.32765 39.434 76.45367 39.45566 76.5797 39.47733 76.78181 39.51187 76.90784 39.53352 77.03386 39.55519 77.23596 39.59021 77.362 39.61182 77.48802 39.63342 77.69014 39.66782 77.81616 39.68924 77.9422 39.71066 78.1443 39.74487 78.27032 39.76622 78.39635 39.78758 78.59848 39.82193 78.7245 39.84322 78.85052 39.86452 79.05264 39.89867 79.17867 39.91978 79.30469 39.94089 79.50679 39.97453 79.63281 39.99547 79.75885 40.0164 79.96097 40.04974 80.08699 40.07074 80.21301 40.09174 80.41513 40.12599 80.54115 40.14687 80.66718 40.16774 80.8693 40.20045 80.99532 40.22127 81.12134 40.24208 81.32346 40.27602 81.4495 40.29695 81.57552 40.31789 81.77762 40.35158 81.90364 40.37222 82.02966 40.39287 82.2318 40.42517 82.35782 40.44576 82.48384 40.46634 82.68596 40.5 82.81198 40.52058 82.938 40.54115 83.1401 40.5736 83.26614 40.59412 83.39217 40.61462 83.59428 40.64798 83.7203 40.6685 83.84634 40.68903 84.04845 40.72182 84.17447 40.74203 84.30049 40.76225 84.50261 40.79405 84.62863 40.81427 84.75465 40.83449 84.95679 40.86758 85.08281 40.8878 85.20883 40.90802 85.41093 40.94 85.53696 40.96004 85.663 40.98007 85.86511 41.01224 85.99113 41.03227 86.11716 41.0523 86.31927 41.08446 86.4453 41.1045 86.57132 41.12454 86.77344 41.15695 86.89946 41.17674 87.02548 41.19653 87.2276 41.22745 87.35364 41.24725 87.47966 41.26704 87.68176 41.2995 87.80779 41.31947 87.9338 41.33945 88.13594 41.3716 88.26196 41.39127 88.38799 41.41093 88.5901 41.44174 88.71613 41.46135 88.84215 41.48096 89.04427 41.51315 89.17029 41.53271 89.29631 41.55226 89.49843 41.58296 89.62445 41.60236 89.75049 41.62173 89.95259 41.65292 90.07861 41.67242 90.20464 41.69194 90.40675 41.7236 90.53278 41.74292 90.6588 41.76224 90.86093 41.79256 90.98695 41.81169 91.11298 41.83084 91.31508 41.86171 91.4411 41.8809 91.56714 41.90012 91.76926 41.93079 91.89528 41.9501 92.0213 41.96944 92.22342 42.00111 92.34944 42.02019 92.47546 42.03928 92.67758 42.0687 92.8036 42.08766 92.92963 42.10661 93.13174 42.13773 93.25778 42.15688 93.3838 42.17601 93.5859 42.20682 93.71193 42.22565 93.83795 42.24448 94.04007 42.27373 94.16609 42.2927 94.29211 42.31165 94.49425 42.34349 94.62027 42.36232 94.74629 42.38116 94.94841 42.40985 95.07443 42.4285 95.20045 42.44716 95.40257 42.47826 95.5286 42.49686 95.65463 42.51544 95.85674 42.54411 95.98276 42.56258 96.10878 42.58105 96.3109 42.61128 96.43692 42.63007 96.56294 42.64883 96.76508 42.67944 96.8911 42.69797 97.01712 42.7165 97.21922 42.7452 97.34525 42.76372 97.47128 42.78226 97.6734 42.81322 97.79942 42.83163 97.92545 42.85004 98.12756 42.87839 98.25359 42.89651 98.37961 42.91463 98.58173 42.94414 98.70775 42.96227 98.83377 42.98038 99.03589 43.00902 99.16193 43.02715 99.28795 43.04526 99.49005 43.07463 99.61607 43.09288 99.7421 43.11111 99.94421 43.14032 100.07024 43.15862 100.19626 43.17693 100.39839 43.20651 100.52441 43.22481 100.65044 43.24312 100.85255 43.27278 100.97858 43.29054 101.1046 43.3083 101.30672 43.3352 101.43274 43.35284 101.55878 43.37048 101.76088 43.39977 101.8869 43.41771 102.01292 43.43565 102.21504 43.4643 102.34106 43.48216 102.46709 43.50005 102.66922 43.52867 102.79524 43.5466 102.92126 43.56454 103.12337 43.59367 103.24939 43.6115 103.37543 43.6293 103.57753 43.65732 103.70355 43.67508 103.82957 43.69284 104.03171 43.72206 104.15773 43.73952 104.28375 43.75697 104.48587 43.78343 104.6119 43.80095 104.73792 43.81847 104.94003 43.84837 105.06607 43.86581 105.1921 43.88327 105.3942 43.90953 105.52022 43.9268 105.64624 43.94409 105.84836 43.97264 105.97438 43.9904 106.1004 44.00815 106.30254 44.03738 106.42856 44.05484 106.55458 44.0723 106.7567 44.09904 106.88272 44.11627 107.00874 44.1335 107.21086 44.16176 107.33688 44.17899 107.46292 44.1962 107.66502 44.22319 107.79105 44.2404 107.91707 44.25763 108.11919 44.28607 108.24521 44.30312 108.37123 44.32016 108.57336 44.34627 108.69939 44.36324 108.82541 44.38022 109.02751 44.40813 109.15355 44.42552 109.27957 44.44292 109.48167 44.47163 109.6077 44.48868 109.73372 44.50572 109.93585 44.53145 110.06187 44.54837 110.1879 44.56529 110.39001 44.59373 110.51604 44.61066 110.64206 44.62758 110.84418 44.65355 110.97021 44.67035 111.09624 44.68715 111.29834 44.71472 111.42436 44.73177 111.55038 44.74881 111.7525 44.77644 111.87852 44.79318 112.00455 44.80992 112.20668 44.83571 112.3327 44.85245 112.45872 44.86919 112.66084 44.89706 112.78687 44.91386 112.91289 44.93065 113.24101 44.97356 113.24101 44.97356"/>
<use data-text="&#x2022;" xlink:href="#font_2_1" transform="matrix(9.963496,0,0,-9.963397,118.069,76.647098)"/>
<use data-text="(" xlink:href="#font_3_1" transform="matrix(9.963496,0,0,-9.963397,124.08054,85.4258)"/>
<use data-text="0" xlink:href="#font_3_3" transform="matrix(9.963496,0,0,-9.963397,127.94639,85.4258)"/>
<use data-text="," xlink:href="#font_1_1" transform="matrix(9.963496,0,0,-9.963397,132.93735,85.4258)"/>
<use data-text="0" xlink:href="#font_3_3" transform="matrix(9.963496,0,0,-9.963397,137.36573,85.4258)"/>
<use data-text=")" xlink:href="#font_3_2" transform="matrix(9.963496,0,0,-9.963397,142.34748,85.4258)"/>
</svg>
