<svg xmlns="http://www.w3.org/2000/svg" xmlns:xlink="http://www.w3.org/1999/xlink" version="1.1" width="165" height="174" viewBox="0 0 165 174">
<defs>
<path id="font_1_2" d="M.33399964 .30233766C.33999635 .32835389 .36299134 .42037965 .43299867 .42037965 .43798829 .42037965 .46199037 .42037965 .48298646 .40734864 .45498658 .402359 .43499757 .37734986 .43499757 .35334779 .43499757 .33735658 .44599916 .31835938 .47299195 .31835938 .49499513 .31835938 .5269928 .3363495 .5269928 .37635804 .5269928 .42837525 .46798707 .4423828 .43399049 .4423828 .37599183 .4423828 .34098817 .38935853 .32899476 .36634828 .3039856 .43237306 .25 .4423828 .22099304 .4423828 .116989139 .4423828 .05999756 .3133545 .05999756 .28834535 .05999756 .27833558 .069992069 .27833558 .07199097 .27833558 .07998657 .27833558 .08299255 .28033448 .084991458 .28933717 .11898804 .39535523 .18499756 .42037965 .21899414 .42037965 .23799134 .42037965 .272995 .4113617 .272995 .35334779 .272995 .32235719 .2559967 .25532533 .21899414 .11528015 .20298767 .053268434 .16799927 .011245728 .12399292 .011245728 .117996219 .011245728 .09498596 .011245728 .07398987 .024276734 .09899902 .029266358 .12098694 .05027771 .12098694 .07827759 .12098694 .105270389 .09899902 .11328125 .083999637 .11328125 .053985597 .11328125 .0289917 .08728027 .0289917 .055267335 .0289917 .009246826 .07899475-.0107421879 .12298584-.0107421879 .18899536-.0107421879 .22499085 .059280397 .22799683 .0652771 .23999024 .028274537 .27598573-.0107421879 .33599855-.0107421879 .43899537-.0107421879 .49598695 .118270877 .49598695 .14328003 .49598695 .1532898 .4869995 .1532898 .48399354 .1532898 .47499085 .1532898 .47299195 .14929199 .47099305 .14228821 .43798829 .03527832 .36999513 .011245728 .33799745 .011245728 .29899598 .011245728 .2829895 .043273927 .2829895 .07727051 .2829895 .09927368 .2889862 .121276859 .2999878 .16529846L.33399964 .30233766Z"/>
<path id="font_1_3" d="M.48599244 .38136292C.48999024 .39537049 .48999024 .39736939 .48999024 .40437318 .48999024 .42237855 .47599793 .43138124 .46099855 .43138124 .45098878 .43138124 .43499757 .42536927 .42599488 .41036988 .42399598 .405365 .41600038 .37435914 .4119873 .35635377 .40499879 .33035279 .397995 .30334474 .3919983 .27633668L.34700013 .09628296C.34298707 .08126831 .2999878 .011245728 .23399353 .011245728 .18299866 .011245728 .17199707 .055267335 .17199707 .0922699 .17199707 .1382904 .18899536 .20030213 .22299195 .28833009 .23899842 .3293457 .24299622 .3403473 .24299622 .36035157 .24299622 .405365 .21099854 .4423828 .16099549 .4423828 .06599426 .4423828 .0289917 .29733277 .0289917 .28833009 .0289917 .27833558 .038986207 .27833558 .040985109 .27833558 .050994874 .27833558 .051986696 .28033448 .056991579 .29634095 .083999637 .3903656 .12399292 .42037965 .1579895 .42037965 .1659851 .42037965 .18299866 .42037965 .18299866 .3883667 .18299866 .36335755 .17298889 .3373413 .1659851 .31834413 .12599182 .21231079 .10798645 .1552887 .10798645 .10827637 .10798645 .019256592 .17098999-.0107421879 .22999573-.0107421879 .2689972-.0107421879 .30299378 .0062561037 .33099366 .03425598 .31799317-.017745972 .30599977-.06674194 .2659912-.11973572 .23999024-.15385437 .20199585-.18309021 .1559906-.18309021 .14199829-.18309021 .09700012-.18005371 .07998657-.14074707 .09599304-.14074707 .10899353-.14074707 .12298584-.1287384 .1329956-.11973572 .14299011-.10673523 .14299011-.08773804 .14299011-.056747438 .115997318-.052734376 .10598755-.052734376 .08299255-.052734376 .049987794-.068740848 .049987794-.11773682 .049987794-.16796875 .09399414-.20507813 .1559906-.20507813 .25898744-.20507813 .3619995-.11373901 .3899994-.00074768069L.48599244 .38136292Z"/>
<clipPath id="clip_2">
<path transform="matrix(1.00006,0,0,-1.00003,7.1643526,159.47139)" d="M0 0V141.73404H141.73404V0ZM141.73404 141.73404"/>
</clipPath>
<path id="font_3_1" d="M.44400025 .24998474C.44400025 .35688783 .35499574 .44381715 .25 .44381715 .14199829 .44381715 .054992677 .35488893 .054992677 .24998474 .054992677 .14407349 .14199829 .056137086 .25 .056137086 .35499574 .056137086 .44400025 .14308167 .44400025 .24998474Z"/>
<path id="font_4_1" d="M.33099366-.2400055C.33099366-.23701477 .33099366-.23500061 .31399537-.21800232 .18899536-.0920105 .15699768 .09700012 .15699768 .25 .15699768 .42399598 .19499207 .59799197 .31799317 .72299197 .33099366 .73498538 .33099366 .7369995 .33099366 .73999026 .33099366 .746994 .32699586 .75 .32099916 .75 .31098939 .75 .22099304 .6819916 .1619873 .5549927 .11099243 .44499208 .09899902 .33399964 .09899902 .25 .09899902 .17199707 .10998535 .050994874 .16499329-.06201172 .22499085-.18501282 .31098939-.25 .32099916-.25 .32699586-.25 .33099366-.24700928 .33099366-.2400055Z"/>
<path id="font_4_3" d="M.45999146 .31976319C.45999146 .39982606 .45498658 .47988893 .41999818 .5539398 .37399293 .65000918 .2919922 .6660156 .25 .6660156 .18998719 .6660156 .116989139 .64001467 .07598877 .54693606 .04399109 .47789 .038986207 .39982606 .038986207 .31976319 .038986207 .24472046 .042999269 .15464783 .083999637 .07859802 .1269989-.0024719239 .19999695-.022460938 .24899292-.022460938 .30299378-.022460938 .3789978-.0014648438 .4229889 .09359741 .45498658 .16265869 .45999146 .2407074 .45999146 .31976319M.24899292-.00047302247C.20999146-.00047302247 .15098572 .024551392 .1329956 .12062073 .12199402 .18066406 .12199402 .2727356 .12199402 .3317871 .12199402 .39582826 .12199402 .46188355 .12998963 .5159149 .14898682 .63500979 .22399903 .64401248 .24899292 .64401248 .28199769 .64401248 .34799195 .6259918 .36698915 .52693179 .3769989 .47088624 .3769989 .39482118 .3769989 .3317871 .3769989 .25672914 .3769989 .18867493 .3659973 .12461853 .35099793 .029556275 .2939911-.00047302247 .24899292-.00047302247Z"/>
<path id="font_1_1" d="M.20298767 .0009918213C.20298767 .066986087 .17799378 .10598755 .13899231 .10598755 .10598755 .10598755 .085998538 .08099365 .085998538 .052993776 .085998538 .025985718 .10598755 0 .13899231 0 .15098572 0 .1639862 .0039978029 .17399597 .0129852299 .1769867 .01499939 .17799378 .015991211 .1789856 .015991211 .17999268 .015991211 .18099976 .01499939 .18099976 .0009918213 .18099976-.07316589 .1459961-.13328552 .11299133-.16635132 .101989749-.17736817 .101989749-.17936707 .101989749-.18237305 .101989749-.18936157 .10699463-.19335938 .11199951-.19335938 .12298584-.19335938 .20298767-.116256717 .20298767 .0009918213Z"/>
<path id="font_4_2" d="M.2889862 .25C.2889862 .32798768 .27799989 .44898988 .22299195 .56199648 .16299439 .68499758 .07699585 .75 .066986087 .75 .06098938 .75 .056991579 .74598696 .056991579 .73999026 .056991579 .7369995 .056991579 .73498538 .07598877 .71699526 .17399597 .6179962 .23098755 .45899964 .23098755 .25 .23098755 .07899475 .19400025-.09700012 .069992069-.2230072 .056991579-.23500061 .056991579-.23701477 .056991579-.2400055 .056991579-.2460022 .06098938-.25 .066986087-.25 .07699585-.25 .16699219-.18200684 .22599793-.055007936 .2769928 .054992677 .2889862 .16600037 .2889862 .25Z"/>
</defs>
<path transform="matrix(1.00006,0,0,-1.00003,7.1643526,159.47139)" stroke-width=".19925" stroke-linecap="butt" stroke-miterlimit="10" stroke-linejoin="miter" fill="none" stroke="#929292" d="M0 0H141.73404M0 28.3468H141.73404M0 56.69362H141.73404M0 85.04042H141.73404M0 113.38724H141.73404M0 141.72409H141.73404M0 0V141.73404M28.3468 0V141.73404M56.69362 0V141.73404M85.04042 0V141.73404M113.38724 0V141.73404M141.72409 0V141.73404M141.73404 141.73404"/>
<path transform="matrix(1.00006,0,0,-1.00003,7.1643526,159.47139)" stroke-width="1.19553" stroke-linecap="butt" stroke-miterlimit="10" stroke-linejoin="miter" fill="none" stroke="#000000" d="M-5.66927 0H146.4469"/>
<path transform="matrix(1.00006,0,0,-1.00003,153.62003,159.47139)" stroke-width=".9564" stroke-linecap="round" stroke-linejoin="round" fill="none" stroke="#000000" d="M-1.91284 2.55046C-1.75343 1.59402 0 .15938 .4782 0 0-.15938-1.75343-1.59402-1.91284-2.55046"/>
<use data-text="x" xlink:href="#font_1_2" transform="matrix(9.963197,0,0,-9.962899,158.49544,161.61646)"/>
<path transform="matrix(1.00006,0,0,-1.00003,7.1643526,159.47139)" stroke-width="1.19553" stroke-linecap="butt" stroke-miterlimit="10" stroke-linejoin="miter" fill="none" stroke="#000000" d="M0-5.66927V146.4469"/>
<path transform="matrix(0,-1.00003,-1.00006,-0,7.1643526,13.020096)" stroke-width=".9564" stroke-linecap="round" stroke-linejoin="round" fill="none" stroke="#000000" d="M-1.91284 2.55046C-1.75343 1.59402 0 .15938 .4782 0 0-.15938-1.75343-1.59402-1.91284-2.55046"/>
<use data-text="y" xlink:href="#font_1_3" transform="matrix(9.963197,0,0,-9.962899,4.5431978,6.207779)"/>
<g clip-path="url(#clip_2)">
<path transform="matrix(1.00006,0,0,-1.00003,7.1643526,159.47139)" stroke-width=".79701" stroke-linecap="butt" stroke-miterlimit="10" stroke-linejoin="miter" fill="none" stroke="#0000ff" d="M0 0C0 0 .20499 2.2792 .28372 2.83571 .36246 3.39221 .48874 3.7228 .56747 4.01091 .6462 4.29904 .77248 4.68187 .85121 4.91231 .92995 5.14276 1.05623 5.47357 1.13496 5.67184 1.21368 5.87013 1.33997 6.1645 1.4187 6.34142 1.49744 6.51834 1.62372 6.7858 1.70245 6.94698 1.78117 7.10817 1.90746 7.35414 1.98619 7.50322 2.06493 7.65228 2.19121 7.882 2.26994 8.02141 2.34866 8.16081 2.47495 8.37665 2.55368 8.50801 2.63242 8.63937 2.7587 8.84366 2.83743 8.96823 2.91615 9.09282 3.04243 9.2872 3.12117 9.40596 3.1999 9.52472 3.32619 9.7105 3.40492 9.82422 3.48364 9.93796 3.60992 10.11641 3.68866 10.22562 3.7674 10.33482 3.89368 10.50618 3.97241 10.61145 4.05113 10.7167 4.17741 10.88263 4.25615 10.98428 4.33488 11.08594 4.46117 11.2458 4.5399 11.34416 4.61862 11.44252 4.7449 11.59775 4.82364 11.69322 4.90237 11.78868 5.02866 11.93954 5.10739 12.03233 5.18611 12.1251 5.3124 12.2716 5.39113 12.36192 5.46986 12.45224 5.59615 12.59532 5.67488 12.68329 5.7536 12.77127 5.87988 12.91022 5.95862 12.99603 6.03735 13.08185 6.16364 13.21788 6.24237 13.30183 6.32109 13.38577 6.44737 13.51906 6.52611 13.60114 6.60484 13.68323 6.73112 13.81323 6.80986 13.89354 6.88858 13.97383 7.01486 14.10115 7.0936 14.17989 7.17233 14.2586 7.29861 14.3838 7.37735 14.46103 7.45607 14.53825 7.58235 14.66081 7.66109 14.73654 7.73982 14.81229 7.8661 14.93253 7.94484 15.00688 8.02356 15.08124 8.14986 15.19937 8.22858 15.27246 8.30731 15.34555 8.4336 15.4619 8.51233 15.53372 8.59105 15.60556 8.71735 15.71959 8.79607 15.7902 8.8748 15.86084 9.00108 15.9732 9.07982 16.04282 9.15854 16.11243 9.28484 16.22343 9.36356 16.29196 9.44229 16.3605 9.56857 16.46933 9.64731 16.53677 9.72603 16.60423 9.85233 16.71158 9.93105 16.77812 10.00978 16.84468 10.13606 16.95088 10.2148 17.01646 10.29352 17.08205 10.41982 17.1862 10.49854 17.2509 10.57727 17.31558 10.70355 17.41888 10.78229 17.48274 10.86102 17.54659 10.9873 17.6481 11.06602 17.71112 11.14476 17.77412 11.27104 17.87468 11.34978 17.9369 11.42851 17.99911 11.5548 18.0982 11.63351 18.15965 11.71225 18.2211 11.83853 18.31909 11.91727 18.37982 11.996 18.44055 12.12228 18.53745 12.201 18.5974 12.27974 18.65733 12.40602 18.75264 12.48476 18.81192 12.56349 18.87122 12.68977 18.96605 12.7685 19.02473 12.84723 19.08342 12.97351 19.17693 13.05225 19.23495 13.13098 19.29297 13.25726 19.38564 13.33598 19.44301 13.41472 19.50038 13.541 19.59169 13.61974 19.64845 13.69847 19.70522 13.82475 19.79594 13.90347 19.85217 13.98221 19.90842 14.10849 19.99806 14.18723 20.05374 14.26596 20.10942 14.39224 20.19844 14.47096 20.25357 14.5497 20.30872 14.67598 20.3967 14.75471 20.45125 14.83345 20.50578 14.95973 20.59274 15.03845 20.64676 15.11719 20.70078 15.24347 20.78702 15.3222 20.84053 15.40094 20.89406 15.52722 20.97954 15.60594 21.03258 15.68468 21.08562 15.81096 21.17027 15.8897 21.2229 15.96843 21.27553 16.09471 21.35977 16.17343 21.41191 16.25217 21.46407 16.37845 21.5471 16.45718 21.59877 16.53592 21.65042 16.6622 21.73314 16.74092 21.78432 16.81966 21.83551 16.94594 21.91696 17.02467 21.96771 17.10341 22.01848 17.22969 22.09984 17.30841 22.15025 17.38715 22.20065 17.51343 22.28108 17.59216 22.33105 17.6709 22.38104 17.79718 22.46101 17.8759 22.51056 17.95464 22.56012 18.08092 22.63919 18.15965 22.68834 18.23839 22.73749 18.36467 22.81602 18.44339 22.8648 18.52213 22.91359 18.6484 22.99158 18.72714 23.04 18.80588 23.08841 18.93216 23.16574 19.0109 23.21387 19.08961 23.262 19.2159 23.33917 19.29463 23.38689 19.37337 23.43459 19.49965 23.5104 19.57838 23.55774 19.6571 23.60507 19.78339 23.68106 19.86212 23.72815 19.94086 23.77525 20.06714 23.85059 20.14587 23.89728 20.2246 23.94395 20.35088 24.01834 20.42961 24.06467 20.50835 24.11098 20.63463 24.18512 20.71336 24.2312 20.79208 24.27728 20.91837 24.35114 20.9971 24.39685 21.07584 24.44258 21.20212 24.51543 21.28085 24.56079 21.35957 24.60616 21.48586 24.67873 21.56459 24.72385 21.64333 24.76897 21.7696 24.84119 21.84834 24.88606 21.92706 24.93094 22.05334 25.0028 22.13208 25.0474 22.21082 25.09198 22.3371 25.16315 22.41583 25.20743 22.49455 25.25171 22.62083 25.32263 22.69957 25.36661 22.7783 25.41058 22.90459 25.48079 22.98332 25.52448 23.06204 25.56818 23.18832 25.63805 23.26706 25.6815 23.3458 25.72495 23.47208 25.79443 23.55081 25.83765 23.62953 25.88084 23.75581 25.95003 23.83455 25.99294 23.91328 26.03583 24.03957 26.10425 24.1183 26.14691 24.19702 26.18956 24.3233 26.258 24.40204 26.30046 24.48077 26.34294 24.60706 26.41095 24.68579 26.45314 24.76451 26.49532 24.8908 26.56265 24.96953 26.60454 25.04826 26.64641 25.17455 26.71335 25.25328 26.75505 25.332 26.79675 25.45828 26.86363 25.53702 26.90515 25.61575 26.94667 25.74203 27.01315 25.82077 27.05438 25.89949 27.0956 26.02577 27.16132 26.1045 27.2023 26.18324 27.24329 26.30952 27.30893 26.38826 27.3498 26.46698 27.39066 26.59326 27.4563 26.672 27.49686 26.75073 27.53741 26.87701 27.60187 26.95575 27.6422 27.03447 27.68251 27.16077 27.74733 27.23949 27.78752 27.31822 27.82771 27.4445 27.89201 27.52324 27.93199 27.60196 27.97195 27.72826 28.03587 27.80698 28.07559 27.88571 28.11533 28.012 28.17885 28.09073 28.21832 28.16945 28.25781 28.29575 28.3209 28.37447 28.36021 28.4532 28.3995 28.57948 28.46248 28.65822 28.50165 28.73694 28.54083 28.86324 28.60364 28.94196 28.64265 29.02069 28.68166 29.14697 28.74403 29.22571 28.78279 29.30443 28.82156 29.43073 28.8835 29.50945 28.92207 29.58818 28.96066 29.71446 29.02252 29.7932 29.06091 29.87193 29.09932 29.99821 29.16068 30.07693 29.19888 30.15567 29.2371 30.28195 29.2984 30.36069 29.33644 30.43942 29.37447 30.5657 29.4353 30.64442 29.47311 30.72316 29.51093 30.84944 29.57126 30.92818 29.60895 31.00691 29.64664 31.1332 29.7072 31.21191 29.74477 31.29065 29.78232 31.41693 29.84233 31.49567 29.87971 31.5744 29.91708 31.70068 29.97704 31.7794 30.01424 31.85814 30.05144 31.98442 30.11093 32.06316 30.14789 32.14189 30.18484 32.26817 30.24384 32.3469 30.28067 32.42563 30.3175 32.55191 30.37682 32.63065 30.41347 32.70938 30.45012 32.83566 30.50847 32.91438 30.54495 32.99312 30.58144 33.1194 30.64001 33.19814 30.67644 33.27687 30.71288 33.40315 30.77126 33.48187 30.8075 33.56061 30.84375 33.68689 30.90169 33.76563 30.93768 33.84436 30.9737 33.97064 31.03116 34.04936 31.06703 34.1281 31.1029 34.25438 31.16054 34.33311 31.19635 34.41185 31.23216 34.53813 31.28961 34.61685 31.32526 34.69559 31.36089 34.82187 31.41782 34.9006 31.45328 34.97934 31.48875 35.10562 31.54555 35.18434 31.58089 35.26308 31.61623 35.38936 31.67282 35.4681 31.70805 35.54683 31.74327 35.67311 31.79973 35.75183 31.83478 35.83057 31.86981 35.95685 31.92574 36.03558 31.96065 36.11432 31.99556 36.2406 32.05173 36.31932 32.08652 36.39806 32.12132 36.52434 32.17691 36.60307 32.21153 36.68181 32.24614 36.80809 32.30159 36.88681 32.33609 36.96555 32.37059 37.09183 32.42584 37.17056 32.46024 37.2493 32.49461 37.37558 32.54974 37.4543 32.58394 37.53304 32.61815 37.65932 32.6727 37.73805 32.70677 37.81679 32.74086 37.94307 32.7956 38.0218 32.82962 38.10052 32.86365 38.2268 32.91812 38.30554 32.95203 38.38428 32.98593 38.51056 33.0403 38.5893 33.074 38.66801 33.10773 38.7943 33.16158 38.87303 33.19511 38.95177 33.22864 39.07805 33.28232 39.15678 33.3158 39.2355 33.34927 39.36179 33.40306 39.44052 33.43648 39.51926 33.46988 39.64554 33.52347 39.72427 33.55672 39.803 33.58997 39.92928 33.64297 40.00801 33.6761 40.08675 33.70923 40.21303 33.76242 40.29176 33.79549 40.37048 33.82854 40.49677 33.88155 40.5755 33.91441 40.65424 33.9473 40.78052 33.99976 40.85925 34.03252 40.93797 34.06528 41.06425 34.11789 41.14299 34.15059 41.22173 34.18329 41.348 34.23573 41.42674 34.26825 41.50546 34.30077 41.63174 34.35263 41.71048 34.38503 41.78922 34.41742 41.9155 34.46942 41.99423 34.50182 42.07295 34.53421 42.19923 34.58632 42.27797 34.61859 42.3567 34.65086 42.48299 34.70241 42.56172 34.73453 42.64044 34.76663 42.76672 34.81801 42.84546 34.84999 42.9242 34.88197 43.05048 34.93314 43.12921 34.96506 43.20793 34.99698 43.33421 35.04825 43.41295 35.08011 43.49168 35.11197 43.61797 35.16306 43.6967 35.19473 43.77542 35.22641 43.9017 35.27693 43.98044 35.30849 44.05917 35.34004 44.18546 35.39075 44.26419 35.42224 44.34291 35.45374 44.4692 35.5042 44.54793 35.53557 44.62666 35.56696 44.75294 35.61714 44.83168 35.64847 44.9104 35.67978 45.03668 35.73016 45.11542 35.76135 45.19415 35.79254 45.32043 35.8423 45.39917 35.8734 45.47789 35.90448 45.60417 35.9544 45.6829 35.98541 45.76164 36.01643 45.88792 36.0661 45.96666 36.09702 46.04538 36.12791 46.17168 36.17738 46.2504 36.20818 46.32913 36.23895 46.45541 36.28818 46.53415 36.31891 46.61287 36.34962 46.73917 36.39897 46.81789 36.42963 46.89662 36.4603 47.0229 36.50938 47.10164 36.53992 47.18036 36.57047 47.30666 36.61931 47.38538 36.6498 47.46411 36.68027 47.5904 36.7293 47.66913 36.75966 47.74785 36.79001 47.87415 36.83841 47.95287 36.86865 48.0316 36.8989 48.15788 36.9475 48.23662 36.97766 48.31534 37.00784 48.44164 37.05617 48.52036 37.08623 48.59909 37.11627 48.72537 37.16437 48.80411 37.19435 48.88284 37.22435 49.00912 37.27257 49.08784 37.3025 49.16658 37.33243 49.29286 37.38037 49.3716 37.41019 49.45033 37.44002 49.57661 37.48776 49.65533 37.51747 49.73407 37.54718 49.86035 37.59465 49.93909 37.6243 50.01782 37.65395 50.1441 37.70155 50.22282 37.73114 50.30156 37.76071 50.42784 37.80803 50.50658 37.83755 50.58531 37.86707 50.7116 37.91455 50.79031 37.94395 50.86905 37.97334 50.99533 38.02014 51.07407 38.04948 51.1528 38.07883 51.27908 38.12617 51.3578 38.15546 51.43654 38.18474 51.56282 38.23146 51.64156 38.26056 51.72029 38.28966 51.84657 38.33621 51.9253 38.36523 52.00403 38.39427 52.13031 38.44095 52.20905 38.46992 52.28778 38.4989 52.41406 38.54518 52.49278 38.57416 52.57152 38.60313 52.6978 38.64998 52.77654 38.67883 52.85527 38.70769 52.98155 38.75346 53.06027 38.7822 53.139 38.81093 53.26529 38.85728 53.34402 38.88602 53.42276 38.91475 53.54904 38.96077 53.62776 38.9894 53.7065 39.01802 53.83278 39.06377 53.91151 39.09233 53.99025 39.1209 54.11653 39.16684 54.19525 39.19528 54.27399 39.22372 54.40027 39.26898 54.479 39.29736 54.55774 39.32574 54.68402 39.37149 54.76274 39.39987 54.84148 39.42825 54.96776 39.47375 55.0465 39.50195 55.12523 39.53015 55.25151 39.57503 55.33023 39.60316 55.40897 39.6313 55.53525 39.67667 55.61398 39.7048 55.69272 39.73294 55.819 39.778 55.89772 39.80603 55.97646 39.83405 56.10274 39.87886 56.18147 39.90681 56.26021 39.93477 56.38649 39.97969 56.46521 40.00758 56.54395 40.03548 56.67023 40.08015 56.74896 40.10794 56.8277 40.13571 56.95398 40.18015 57.03271 40.20786 57.11143 40.23557 57.23772 40.28004 57.31645 40.30777 57.39519 40.33548 57.52147 40.38004 57.6002 40.40768 57.67892 40.43533 57.8052 40.47963 57.88394 40.50717 57.96268 40.53471 58.08896 40.57874 58.1677 40.60623 58.24641 40.63371 58.3727 40.67784 58.45143 40.70526 58.53017 40.7327 58.65645 40.7766 58.73518 40.8039 58.8139 40.83119 58.94019 40.87483 59.01892 40.90207 59.09766 40.9293 59.22394 40.97302 59.30267 41.00026 59.3814 41.0275 59.50768 41.07127 59.58641 41.09845 59.66515 41.12563 59.79143 41.16914 59.87016 41.1962 59.94888 41.22325 60.07516 41.26653 60.1539 41.29352 60.23264 41.32053 60.35892 41.3639 60.43765 41.39084 60.51637 41.41779 60.64265 41.46085 60.72139 41.48773 60.80013 41.5146 60.9264 41.55775 61.00514 41.58463 61.08386 41.6115 61.21014 41.6547 61.28888 41.6815 61.36761 41.70833 61.4939 41.75127 61.57263 41.77797 61.65135 41.80466 61.77763 41.84743 61.85637 41.874 61.9351 41.90057 62.06139 41.94301 62.14012 41.96959 62.21884 41.99615 62.34512 42.03903 62.42386 42.0656 62.5026 42.09218 62.62888 42.13472 62.70761 42.1612 62.78633 42.18765 62.91261 42.23001 62.99135 42.25635 63.07008 42.2827 63.19637 42.32474 63.2751 42.35107 63.35382 42.37743 63.4801 42.41989 63.55884 42.44624 63.63757 42.47258 63.76385 42.51474 63.84259 42.54097 63.92131 42.56718 64.04759 42.60909 64.12633 42.63525 64.20506 42.6614 64.33134 42.70345 64.41008 42.72955 64.4888 42.75565 64.61508 42.79736 64.69382 42.82341 64.77255 42.84944 64.89883 42.8913 64.97757 42.91728 65.05629 42.94325 65.18259 42.98471 65.2613 43.0107 65.34004 43.03667 65.46632 43.07864 65.54506 43.10457 65.62378 43.13048 65.75008 43.17175 65.8288 43.19756 65.90753 43.22336 66.03381 43.26474 66.11255 43.29054 66.19127 43.31635 66.31757 43.35782 66.39629 43.38354 66.47502 43.40929 66.6013 43.4505 66.68004 43.47612 66.75876 43.50172 66.88506 43.54262 66.96378 43.56824 67.04251 43.59386 67.1688 43.63525 67.24753 43.6608 67.32626 43.68636 67.45255 43.72707 67.53127 43.7525 67.61 43.77794 67.73628 43.81877 67.81502 43.84421 67.89375 43.86963 68.02003 43.91046 68.09875 43.9359 68.17749 43.96133 68.30377 44.00223 68.3825 44.0276 68.46124 44.05296 68.58752 44.0936 68.66624 44.11885 68.74498 44.1441 68.87126 44.18448 68.95 44.20969 69.02873 44.2349 69.15501 44.27531 69.23373 44.30052 69.31247 44.32573 69.43875 44.36623 69.51749 44.39137 69.59622 44.4165 69.7225 44.45674 69.80122 44.48175 69.87996 44.50677 70.00624 44.54669 70.08498 44.57172 70.16371 44.59674 70.29 44.6371 70.36871 44.66212 70.44745 44.68715 70.57373 44.72713 70.65247 44.75209 70.7312 44.77705 70.85748 44.81715 70.9362 44.84206 71.01494 44.86696 71.14122 44.90675 71.21996 44.9316 71.29869 44.95644 71.42497 44.99635 71.5037 45.02113 71.58243 45.04591 71.70871 45.08553 71.78745 45.11023 71.86618 45.13495 71.99246 45.17462 72.07118 45.19934 72.14992 45.22406 72.2762 45.2638 72.35493 45.28845 72.43367 45.31311 72.55995 45.35257 72.63867 45.3771 72.7174 45.40164 72.84369 45.44083 72.92242 45.46535 73.00116 45.48988 73.12744 45.52956 73.20616 45.55403 73.2849 45.5785 73.41118 45.6174 73.48991 45.64182 73.56865 45.66623 73.69493 45.70566 73.77365 45.73007 73.85239 45.75449 73.97867 45.79352 74.0574 45.81787 74.13614 45.84222 74.26242 45.8814 74.34114 45.90569 74.41988 45.92998 74.54616 45.96881 74.6249 45.99304 74.70363 46.01727 74.82991 46.0562 74.90863 46.08043 74.98737 46.10466 75.11365 46.14362 75.19238 46.16779 75.27112 46.19197 75.3974 46.23067 75.47614 46.25473 75.55486 46.2788 75.68114 46.31718 75.75987 46.34125 75.83861 46.36531 75.96489 46.40414 76.04362 46.42819 76.12234 46.45224 76.24863 46.49068 76.32736 46.5147 76.4061 46.5387 76.53238 46.57726 76.61111 46.6012 76.68983 46.62514 76.81612 46.66339 76.89485 46.68727 76.97359 46.71115 77.09987 46.74947 77.1786 46.77335 77.25732 46.79723 77.3836 46.8356 77.46234 46.85942 77.54108 46.88324 77.66736 46.92131 77.7461 46.94507 77.82481 46.96883 77.9511 47.007 78.02983 47.0307 78.10857 47.0544 78.23485 47.09221 78.31358 47.1159 78.3923 47.1396 78.51859 47.17792 78.59732 47.20155 78.67606 47.22519 78.80234 47.26276 78.88107 47.28635 78.9598 47.30992 79.08607 47.34796 79.16481 47.37155 79.24355 47.39513 79.36983 47.43282 79.44856 47.45633 79.52728 47.47984 79.65356 47.51764 79.7323 47.54109 79.81104 47.56454 79.93732 47.60205 80.01605 47.62544 80.09477 47.64885 80.22105 47.6864 80.29979 47.7098 80.37852 47.73318 80.5048 47.7708 80.58354 47.79413 80.66226 47.81746 80.78854 47.8547 80.86728 47.87805 80.94601 47.90138 81.0723 47.93912 81.15103 47.96239 81.22975 47.98566 81.35603 48.02272 81.43477 48.04587 81.5135 48.06903 81.63979 48.1062 81.71852 48.12935 81.79724 48.1525 81.92352 48.18968 82.00226 48.21284 82.081 48.236 82.20728 48.27322 82.28601 48.29631 82.36473 48.31941 82.49101 48.35632 82.56975 48.37936 82.64848 48.40239 82.77477 48.43938 82.8535 48.4624 82.93222 48.48544 83.0585 48.52249 83.13724 48.54546 83.21597 48.56844 83.34225 48.60515 83.42099 48.62807 83.49971 48.65099 83.626 48.68776 83.70473 48.7107 83.78346 48.73361 83.90974 48.77043 83.98848 48.79329 84.0672 48.81616 84.1935 48.85262 84.27222 48.87547 84.35095 48.89835 84.47723 48.9353 84.55597 48.9581 84.63469 48.9809 84.76099 49.0171 84.8397 49.03984 84.91844 49.06258 85.04472 49.09929 85.12346 49.12202 85.20218 49.14476 85.32848 49.18109 85.4072 49.20378 85.48593 49.22646 85.61221 49.2629 85.69095 49.28552 85.76967 49.30814 85.89597 49.34422 85.97469 49.36684 86.05342 49.38945 86.1797 49.42603 86.25844 49.4486 86.33717 49.47115 86.46346 49.50699 86.54218 49.52948 86.62091 49.55199 86.7472 49.5883 86.82593 49.6108 86.90466 49.6333 87.03094 49.66924 87.10966 49.69167 87.1884 49.71411 87.31468 49.75012 87.39342 49.77257 87.47215 49.795 87.59843 49.83107 87.67715 49.85345 87.75589 49.87582 87.88217 49.91159 87.9609 49.9339 88.03964 49.95622 88.16592 49.99203 88.24464 50.01434 88.32338 50.03667 88.44966 50.07254 88.5284 50.0948 88.60713 50.11705 88.73341 50.15257 88.81213 50.17482 88.89087 50.19708 89.01715 50.23302 89.09589 50.25526 89.17462 50.27753 89.3009 50.31316 89.37962 50.3353 89.45836 50.35742 89.58464 50.3928 89.66338 50.41487 89.74211 50.43695 89.8684 50.4724 89.94711 50.49448 90.02585 50.51654 90.15213 50.55199 90.23087 50.57405 90.3096 50.59613 90.43588 50.63162 90.5146 50.65364 90.59334 50.67564 90.71962 50.71078 90.79836 50.73279 90.87709 50.7548 91.00337 50.79044 91.08209 50.8124 91.16083 50.83435 91.28711 50.86922 91.36584 50.89111 91.44458 50.913 91.57086 50.94838 91.64958 50.97026 91.72832 50.99216 91.8546 51.02713 91.93333 51.04898 92.01207 51.07083 92.13835 51.10587 92.21707 51.12772 92.2958 51.14955 92.42209 51.18466 92.50082 51.20642 92.57956 51.2282 92.70584 51.26295 92.78456 51.28471 92.8633 51.30649 92.98958 51.3417 93.06831 51.36343 93.14705 51.38516 93.27333 51.41963 93.35205 51.4413 93.43079 51.46297 93.55707 51.49792 93.6358 51.51959 93.71454 51.54124 93.84082 51.57584 93.91954 51.59744 93.99828 51.61903 94.12456 51.6537 94.2033 51.67531 94.28203 51.6969 94.40831 51.73161 94.48705 51.75316 94.56577 51.77469 94.69205 51.80904 94.77078 51.83058 94.84952 51.85211 94.9758 51.8869 95.05453 51.90845 95.13326 51.92998 95.25954 51.96439 95.33827 51.98587 95.417 52.00734 95.54329 52.04187 95.62202 52.0633 95.70074 52.0847 95.82703 52.11891 95.90576 52.14027 95.9845 52.16162 96.11078 52.1959 96.18951 52.21727 96.26823 52.23863 96.39452 52.27296 96.47325 52.29427 96.55199 52.31557 96.67827 52.34952 96.757 52.37082 96.83572 52.39212 96.962 52.42645 97.04074 52.4478 97.11948 52.46916 97.24576 52.50357 97.3245 52.52481 97.40321 52.54604 97.5295 52.57976 97.60823 52.60094 97.68697 52.62212 97.81325 52.65631 97.89198 52.67749 97.9707 52.69867 98.09698 52.7325 98.17572 52.75362 98.25446 52.77472 98.38074 52.80862 98.45947 52.82974 98.5382 52.85086 98.66447 52.88475 98.74321 52.90587 98.82195 52.92699 98.94823 52.96095 99.02696 52.98201 99.10568 53.00305 99.23196 53.0367 99.3107 53.0577 99.38943 53.07869 99.51572 53.1124 99.59445 53.13339 99.67317 53.15437 99.79945 53.18808 99.87819 53.20908 99.95692 53.23007 100.0832 53.26384 100.16194 53.28476 100.24066 53.3057 100.36694 53.33916 100.44568 53.36003 100.52441 53.3809 100.6507 53.41443 100.72943 53.4353 100.80815 53.45616 100.93443 53.48969 101.01317 53.51056 101.0919 53.53143 101.21819 53.56502 101.29692 53.58583 101.37564 53.60664 101.50192 53.6399 101.58066 53.66064 101.6594 53.6814 101.78568 53.71472 101.86441 53.73547 101.94313 53.75623 102.06941 53.78957 102.14815 53.81032 102.22688 53.83107 102.35316 53.86444 102.4319 53.88513 102.51062 53.90582 102.63692 53.93889 102.71564 53.95953 102.79437 53.98018 102.92065 54.0133 102.99939 54.03394 103.07811 54.05457 103.2044 54.08769 103.28313 54.10832 103.36186 54.12895 103.48814 54.16208 103.56688 54.18272 103.6456 54.20335 103.7719 54.23653 103.85062 54.25711 103.92935 54.2777 104.05563 54.31056 104.13437 54.33109 104.21309 54.35161 104.33939 54.38452 104.4181 54.40504 104.49684 54.42557 104.62312 54.45854 104.70186 54.479 104.78058 54.49947 104.90688 54.53214 104.9856 54.55254 105.06433 54.57294 105.19061 54.6056 105.26935 54.62607 105.34808 54.64653 105.47437 54.67958 105.55309 54.70004 105.63182 54.7205 105.7581 54.75323 105.83684 54.77357 105.91557 54.79391 106.04185 54.82639 106.12057 54.84666 106.19931 54.86694 106.32559 54.89949 106.40433 54.91977 106.48306 54.94005 106.60934 54.97252 106.68806 54.99286 106.7668 55.0132 106.89308 55.04605 106.97182 55.06639 107.05055 55.08673 107.17683 55.11928 107.25555 55.1395 107.33429 55.15971 107.46057 55.19194 107.5393 55.21216 107.61804 55.23238 107.74432 55.26509 107.82304 55.28525 107.90178 55.30542 108.02806 55.3374 108.1068 55.3575 108.18553 55.3776 108.31181 55.41 108.39053 55.43016 108.46927 55.45032 108.59555 55.48273 108.67429 55.50282 108.75302 55.52292 108.8793 55.55502 108.95802 55.57507 109.03676 55.59511 109.16304 55.62726 109.24178 55.6473 109.32051 55.66733 109.4468 55.6995 109.52551 55.71953 109.60425 55.73956 109.73053 55.77173 109.80927 55.79176 109.888 55.81181 110.01428 55.84402 110.093 55.864 110.17174 55.88397 110.29802 55.91588 110.37675 55.93579 110.45549 55.9557 110.58177 55.98767 110.66049 56.0076 110.73923 56.02751 110.86551 56.0595 110.94424 56.0794 111.02298 56.09932 111.14926 56.13135 111.22798 56.1512 111.30672 56.17107 111.433 56.20271 111.51173 56.22256 111.59047 56.24242 111.71675 56.27452 111.79547 56.29437 111.8742 56.31422 112.00049 56.34601 112.07922 56.36574 112.15796 56.38547 112.28424 56.41695 112.36296 56.43668 112.4417 56.45642 112.56798 56.48831 112.64671 56.50804 112.72545 56.52777 112.85173 56.55925 112.93045 56.579 113.00919 56.59872 113.13547 56.63062 113.2142 56.65034 113.29294 56.67007 113.41922 56.70168 113.49796 56.72128 113.57668 56.74089 113.70296 56.77216 113.7817 56.7918 113.86043 56.81142 113.98671 56.84312 114.06544 56.86273 114.14417 56.88234 114.27045 56.91362 114.34918 56.93323 114.42792 56.95284 114.5542 56.98456 114.63293 57.00418 114.71165 57.02379 114.83794 57.05516 114.91667 57.07466 114.9954 57.09416 115.12169 57.12524 115.20042 57.14474 115.27914 57.16425 115.40543 57.19576 115.48416 57.21526 115.5629 57.23476 115.68918 57.26581 115.76791 57.28532 115.84663 57.30482 115.97292 57.33632 116.05165 57.35582 116.13039 57.37534 116.25667 57.40646 116.3354 57.42589 116.41412 57.44531 116.5404 57.47658 116.61914 57.49596 116.69788 57.51534 116.82416 57.54622 116.9029 57.5656 116.98161 57.58498 117.1079 57.6163 117.18663 57.63568 117.26537 57.65506 117.39165 57.68599 117.47038 57.7053 117.5491 57.72462 117.67538 57.75562 117.75412 57.77495 117.83286 57.79427 117.95914 57.82532 118.03787 57.84459 118.1166 57.86385 118.24287 57.89453 118.32161 57.9138 118.40034 57.93306 118.52663 57.96417 118.60536 57.98344 118.68408 58.0027 118.81036 58.03343 118.8891 58.05264 118.96783 58.07184 119.09412 58.10263 119.17285 58.12184 119.25157 58.14104 119.37785 58.17186 119.45659 58.19106 119.53532 58.21025 119.6616 58.24112 119.74034 58.26025 119.81906 58.27939 119.94534 58.30989 120.02408 58.32903 120.10281 58.34816 120.2291 58.37917 120.30783 58.39824 120.38655 58.41731 120.51283 58.4475 120.59157 58.46657 120.6703 58.48566 120.79659 58.51671 120.87532 58.53578 120.95404 58.55487 121.08032 58.5851 121.15906 58.60413 121.2378 58.62314 121.36407 58.65387 121.44281 58.6729 121.52153 58.69191 121.64783 58.72229 121.72655 58.74124 121.80528 58.7602 121.93156 58.79062 122.0103 58.80957 122.08902 58.82854 122.21532 58.85896 122.29404 58.87793 122.37277 58.89688 122.49905 58.9273 122.57779 58.94626 122.65651 58.96521 122.7828 58.99571 122.86153 59.0146 122.94026 59.0335 123.06654 59.06361 123.14528 59.0825 123.224 59.10141 123.3503 59.13196 123.42902 59.15086 123.50775 59.16975 123.63403 59.19994 123.71277 59.21877 123.79149 59.23761 123.91779 59.2679 123.9965 59.28667 124.07524 59.30545 124.20152 59.33537 124.28026 59.35414 124.359 59.37291 124.48528 59.40327 124.564 59.42204 124.64273 59.44083 124.76901 59.47081 124.84775 59.48953 124.92648 59.50824 125.05276 59.5383 125.13148 59.557 125.21022 59.57573 125.3365 59.60576 125.41524 59.62448 125.49397 59.64319 125.62025 59.67325 125.69897 59.69196 125.77771 59.71068 125.90399 59.74072 125.98273 59.75945 126.06146 59.77815 126.18774 59.80826 126.26646 59.8269 126.3452 59.84557 126.47148 59.87535 126.55022 59.89395 126.62895 59.91254 126.75523 59.94241 126.83395 59.961 126.91269 59.9796 127.03897 60.00945 127.1177 60.02805 127.19644 60.04663 127.32272 60.07655 127.40144 60.0951 127.48018 60.11362 127.60646 60.14317 127.6852 60.1617 127.76393 60.18024 127.89021 60.2102 127.96893 60.22874 128.04767 60.24727 128.17395 60.27687 128.25269 60.29533 128.33142 60.31381 128.4577 60.34349 128.53643 60.36195 128.61516 60.38043 128.74144 60.4101 128.82018 60.42857 128.89891 60.44704 129.02519 60.47678 129.10391 60.4952 129.18265 60.5136 129.30893 60.54295 129.38767 60.56136 129.4664 60.57977 129.59268 60.60956 129.6714 60.62798 129.75014 60.64638 129.87642 60.6758 129.95516 60.69415 130.03389 60.7125 130.16017 60.74197 130.23889 60.76033 130.31763 60.77867 130.44391 60.80814 130.52265 60.82649 130.60138 60.84486 130.72766 60.87433 130.80638 60.89268 130.88512 60.91106 131.0114 60.94055 131.09014 60.95886 131.16887 60.97716 131.29515 61.00636 131.37387 61.02461 131.4526 61.04285 131.57889 61.07211 131.65763 61.09036 131.73636 61.1086 131.86264 61.13785 131.94136 61.1561 132.0201 61.17433 132.14638 61.2036 132.22512 61.22185 132.30385 61.24008 132.43013 61.26935 132.50887 61.28758 132.58759 61.30583 132.71387 61.33516 132.7926 61.35333 132.87134 61.37152 132.99762 61.40047 133.07636 61.41864 133.15508 61.43683 133.28136 61.46622 133.36009 61.48439 133.43883 61.50258 133.56511 61.53159 133.64385 61.5497 133.72257 61.56783 133.84885 61.59697 133.92758 61.61502 134.00632 61.63309 134.1326 61.66185 134.21134 61.6799 134.29006 61.69797 134.41634 61.7271 134.49507 61.74521 134.5738 61.76334 134.70009 61.79247 134.77883 61.81052 134.85755 61.82858 134.98383 61.8574 135.06256 61.8754 135.1413 61.8934 135.26758 61.92229 135.34632 61.94029 135.42504 61.95828 135.55132 61.98717 135.63005 62.00517 135.70879 62.02316 135.83507 62.05205 135.9138 62.07005 135.99253 62.08804 136.1188 62.11693 136.19754 62.13493 136.27628 62.15294 136.40256 62.18193 136.4813 62.19981 136.56002 62.2177 136.6863 62.24596 136.76503 62.26382 136.84377 62.28171 136.97005 62.31078 137.04878 62.3287 137.1275 62.34665 137.25379 62.37527 137.33252 62.39316 137.41126 62.41103 137.53754 62.43973 137.61627 62.45761 137.69499 62.4755 137.82128 62.50417 137.90001 62.52205 137.97875 62.53993 138.10503 62.5687 138.18376 62.5865 138.26248 62.60432 138.38877 62.6327 138.4675 62.65053 138.54624 62.66833 138.67252 62.69714 138.75125 62.71497 138.82997 62.73277 138.95626 62.76123 139.03499 62.77898 139.11373 62.79674 139.24 62.8253 139.31874 62.843 139.39746 62.86069 139.52375 62.88889 139.60248 62.90659 139.68122 62.92429 139.8075 62.95285 139.88623 62.9706 139.96495 62.98836 140.09123 63.01692 140.16997 63.03462 140.2487 63.0523 140.37499 63.08049 140.45372 63.09819 140.53244 63.11589 140.65874 63.14458 140.73746 63.1622 140.8162 63.17984 140.94248 63.20772 141.02121 63.22536 141.09993 63.243 141.22623 63.27168 141.30495 63.28937 141.38368 63.30707 141.5887 63.35297 141.5887 63.35297"/>
</g>
<use data-text="&#x2022;" xlink:href="#font_3_1" transform="matrix(9.963197,0,0,-9.962899,4.6732027,161.68546)"/>
<use data-text="(" xlink:href="#font_4_1" transform="matrix(9.963197,0,0,-9.962899,10.684563,170.46372)"/>
<use data-text="0" xlink:href="#font_4_3" transform="matrix(9.963197,0,0,-9.962899,14.550278,170.46372)"/>
<use data-text="," xlink:href="#font_1_1" transform="matrix(9.963197,0,0,-9.962899,19.540085,170.46372)"/>
<use data-text="0" xlink:href="#font_4_3" transform="matrix(9.963197,0,0,-9.962899,23.968354,170.46372)"/>
<use data-text=")" xlink:href="#font_4_2" transform="matrix(9.963197,0,0,-9.962899,28.949952,170.46372)"/>
</svg>
