<svg xmlns="http://www.w3.org/2000/svg" xmlns:xlink="http://www.w3.org/1999/xlink" version="1.1" width="163" height="288" viewBox="0 0 163 288">
<defs>
<path id="font_1_5" d="M.33399964 .30233766C.33999635 .32835389 .36299134 .42037965 .43299867 .42037965 .43798829 .42037965 .46199037 .42037965 .48298646 .40734864 .45498658 .402359 .43499757 .37734986 .43499757 .35334779 .43499757 .33735658 .44599916 .31835938 .47299195 .31835938 .49499513 .31835938 .5269928 .3363495 .5269928 .37635804 .5269928 .42837525 .46798707 .4423828 .43399049 .4423828 .37599183 .4423828 .34098817 .38935853 .32899476 .36634828 .3039856 .43237306 .25 .4423828 .22099304 .4423828 .116989139 .4423828 .05999756 .3133545 .05999756 .28834535 .05999756 .27833558 .069992069 .27833558 .07199097 .27833558 .07998657 .27833558 .08299255 .28033448 .084991458 .28933717 .11898804 .39535523 .18499756 .42037965 .21899414 .42037965 .23799134 .42037965 .272995 .4113617 .272995 .35334779 .272995 .32235719 .2559967 .25532533 .21899414 .11528015 .20298767 .053268434 .16799927 .011245728 .12399292 .011245728 .117996219 .011245728 .09498596 .011245728 .07398987 .024276734 .09899902 .029266358 .12098694 .05027771 .12098694 .07827759 .12098694 .105270389 .09899902 .11328125 .083999637 .11328125 .053985597 .11328125 .0289917 .08728027 .0289917 .055267335 .0289917 .009246826 .07899475-.0107421879 .12298584-.0107421879 .18899536-.0107421879 .22499085 .059280397 .22799683 .0652771 .23999024 .028274537 .27598573-.0107421879 .33599855-.0107421879 .43899537-.0107421879 .49598695 .118270877 .49598695 .14328003 .49598695 .1532898 .4869995 .1532898 .48399354 .1532898 .47499085 .1532898 .47299195 .14929199 .47099305 .14228821 .43798829 .03527832 .36999513 .011245728 .33799745 .011245728 .29899598 .011245728 .2829895 .043273927 .2829895 .07727051 .2829895 .09927368 .2889862 .121276859 .2999878 .16529846L.33399964 .30233766Z"/>
<path id="font_1_6" d="M.48599244 .38136292C.48999024 .39537049 .48999024 .39736939 .48999024 .40437318 .48999024 .42237855 .47599793 .43138124 .46099855 .43138124 .45098878 .43138124 .43499757 .42536927 .42599488 .41036988 .42399598 .405365 .41600038 .37435914 .4119873 .35635377 .40499879 .33035279 .397995 .30334474 .3919983 .27633668L.34700013 .09628296C.34298707 .08126831 .2999878 .011245728 .23399353 .011245728 .18299866 .011245728 .17199707 .055267335 .17199707 .0922699 .17199707 .1382904 .18899536 .20030213 .22299195 .28833009 .23899842 .3293457 .24299622 .3403473 .24299622 .36035157 .24299622 .405365 .21099854 .4423828 .16099549 .4423828 .06599426 .4423828 .0289917 .29733277 .0289917 .28833009 .0289917 .27833558 .038986207 .27833558 .040985109 .27833558 .050994874 .27833558 .051986696 .28033448 .056991579 .29634095 .083999637 .3903656 .12399292 .42037965 .1579895 .42037965 .1659851 .42037965 .18299866 .42037965 .18299866 .3883667 .18299866 .36335755 .17298889 .3373413 .1659851 .31834413 .12599182 .21231079 .10798645 .1552887 .10798645 .10827637 .10798645 .019256592 .17098999-.0107421879 .22999573-.0107421879 .2689972-.0107421879 .30299378 .0062561037 .33099366 .03425598 .31799317-.017745972 .30599977-.06674194 .2659912-.11973572 .23999024-.15385437 .20199585-.18309021 .1559906-.18309021 .14199829-.18309021 .09700012-.18005371 .07998657-.14074707 .09599304-.14074707 .10899353-.14074707 .12298584-.1287384 .1329956-.11973572 .14299011-.10673523 .14299011-.08773804 .14299011-.056747438 .115997318-.052734376 .10598755-.052734376 .08299255-.052734376 .049987794-.068740848 .049987794-.11773682 .049987794-.16796875 .09399414-.20507813 .1559906-.20507813 .25898744-.20507813 .3619995-.11373901 .3899994-.00074768069L.48599244 .38136292Z"/>
<path id="font_2_6" d="M.68699648 .32714845C.70199587 .32714845 .72099307 .32714845 .72099307 .34713746 .72099307 .36714173 .70199587 .36714173 .6879883 .36714173H.08898926C.07499695 .36714173 .055999757 .36714173 .055999757 .34713746 .055999757 .32714845 .07499695 .32714845 .08999634 .32714845H.68699648M.6879883 .13284302C.70199587 .13284302 .72099307 .13284302 .72099307 .15284729 .72099307 .17285156 .70199587 .17285156 .68699648 .17285156H.08999634C.07499695 .17285156 .055999757 .17285156 .055999757 .15284729 .055999757 .13284302 .07499695 .13284302 .08898926 .13284302H.6879883Z"/>
<path id="font_1_2" d="M.36698915 .3996582H.45298768C.47299195 .3996582 .48298646 .3996582 .48298646 .41966249 .48298646 .43066407 .47299195 .43066407 .45599366 .43066407H.37298585L.3939972 .5449524C.397995 .5660095 .4119873 .6370239 .41799928 .6490326 .4269867 .66804507 .44400025 .68307498 .46499635 .68307498 .46899415 .68307498 .49499513 .68307498 .5139923 .66503909 .46998597 .661026 .45999146 .6260376 .45999146 .6110382 .45999146 .58802798 .47799684 .57603457 .49699403 .57603457 .522995 .57603457 .5519867 .5980377 .5519867 .6360321 .5519867 .6820679 .5059967 .7050781 .46499635 .7050781 .43099977 .7050781 .36799623 .68707278 .33799745 .58802798 .33198548 .56700137 .32899476 .5569763 .30499269 .43066407H.23599243C.21699524 .43066407 .20599365 .43066407 .20599365 .4116516 .20599365 .3996582 .21499634 .3996582 .23399353 .3996582H.2999878L.22499085 .0048828127C.20698548-.09207153 .18998719-.18309021 .13798523-.18309021 .13398743-.18309021 .10899353-.18309021 .08999634-.16506958 .13598633-.1620636 .14498902-.12606812 .14498902-.111068729 .14498902-.08807373 .1269989-.07606506 .10798645-.07606506 .08198547-.07606506 .052993776-.09806824 .052993776-.13606262 .052993776-.18109131 .09700012-.20507813 .13798523-.20507813 .19299317-.20507813 .23298645-.14607239 .25099183-.108062747 .2829895-.04508972 .30599977 .07583618 .30699159 .082839969L.36698915 .3996582Z"/>
<path id="font_2_1" d="M.33099366-.2400055C.33099366-.23701477 .33099366-.23500061 .31399537-.21800232 .18899536-.0920105 .15699768 .09700012 .15699768 .25 .15699768 .42399598 .19499207 .59799197 .31799317 .72299197 .33099366 .73498538 .33099366 .7369995 .33099366 .73999026 .33099366 .746994 .32699586 .75 .32099916 .75 .31098939 .75 .22099304 .6819916 .1619873 .5549927 .11099243 .44499208 .09899902 .33399964 .09899902 .25 .09899902 .17199707 .10998535 .050994874 .16499329-.06201172 .22499085-.18501282 .31098939-.25 .32099916-.25 .32699586-.25 .33099366-.24700928 .33099366-.2400055Z"/>
<path id="font_2_2" d="M.2889862 .25C.2889862 .32798768 .27799989 .44898988 .22299195 .56199648 .16299439 .68499758 .07699585 .75 .066986087 .75 .06098938 .75 .056991579 .74598696 .056991579 .73999026 .056991579 .7369995 .056991579 .73498538 .07598877 .71699526 .17399597 .6179962 .23098755 .45899964 .23098755 .25 .23098755 .07899475 .19400025-.09700012 .069992069-.2230072 .056991579-.23500061 .056991579-.23701477 .056991579-.2400055 .056991579-.2460022 .06098938-.25 .066986087-.25 .07699585-.25 .16699219-.18200684 .22599793-.055007936 .2769928 .054992677 .2889862 .16600037 .2889862 .25Z"/>
<path id="font_1_3" d="M.47099305 .3773346C.47200013 .3833313 .47399903 .38833619 .47399903 .39535523 .47399903 .41236878 .46199037 .42237855 .44499208 .42237855 .43499757 .42237855 .4079895 .41537477 .4039917 .3793335 .38598634 .41636659 .35099793 .4423828 .31098939 .4423828 .19699097 .4423828 .07299805 .30226136 .07299805 .15812683 .07299805 .059020997 .13398743 0 .20599365 0 .2649994 0 .31199647 .04701233 .32199098 .058029176L.32299806 .057022096C.3019867-.031982423 .2899933-.07295227 .2899933-.07495117 .28599549-.08395386 .2519989-.18309021 .1459961-.18309021 .1269989-.18309021 .09399414-.18206787 .06599426-.17297364 .09599304-.16394043 .10699463-.13793946 .10699463-.12094116 .10699463-.10494995 .09599304-.0859375 .068984989-.0859375 .04699707-.0859375 .01499939-.10394287 .01499939-.14395142 .01499939-.18508911 .051986696-.20507813 .147995-.20507813 .272995-.20507813 .34498597-.12693787 .3600006-.06695557L.47099305 .3773346M.34098817 .12809754C.33499146 .10206604 .31199647 .077041629 .2899933 .058029176 .2689972 .040008546 .23799134 .021987915 .20899964 .021987915 .15899658 .021987915 .14399719 .074035648 .14399719 .11407471 .14399719 .16212464 .17298889 .28024293 .19999695 .33128358 .22698975 .38034059 .269989 .42037965 .31199647 .42037965 .37799073 .42037965 .3919983 .33929444 .3919983 .33428956 .3919983 .32928468 .3899994 .3232727 .3889923 .3192749L.34098817 .12809754Z"/>
<path id="font_1_4" d="M.2869873 .68333438C.2869873 .6843262 .2869873 .69433596 .27398683 .69433596 .25099183 .69433596 .17799378 .6863251 .1519928 .6843262 .14399719 .68333438 .1329956 .6823273 .1329956 .6643219 .1329956 .6523285 .14199829 .6523285 .15699768 .6523285 .20498657 .6523285 .20698548 .6453247 .20698548 .6353302L.20399475 .6153412 .05899048 .039260866C.054992677 .025253296 .054992677 .023254395 .054992677 .01725769 .054992677-.0057525637 .07499695-.0107421879 .083999637-.0107421879 .099990848-.0107421879 .115997318 .0012512207 .12098694 .015258789L.13999939 .091278079 .1619873 .18130493C.16799927 .2033081 .17399597 .22531128 .1789856 .24832154 .18099976 .25431825 .18899536 .28733827 .18998719 .29333497 .19299317 .30233766 .22399903 .35835267 .2579956 .38536073 .27999879 .4013672 .31098939 .42037965 .35398866 .42037965 .39698792 .42037965 .4079895 .3863678 .4079895 .35035707 .4079895 .29634095 .36999513 .18730164 .34599305 .12628174 .33799745 .103271488 .33299256 .091278079 .33299256 .0712738 .33299256 .024261475 .36799623-.0107421879 .4149933-.0107421879 .5089874-.0107421879 .54599 .13528443 .54599 .14329529 .54599 .1532898 .5369873 .1532898 .5339966 .1532898 .5239868 .1532898 .5239868 .15029907 .5189972 .13528443 .5039978 .08227539 .47200013 .011245728 .4169922 .011245728 .3999939 .011245728 .3929901 .021255494 .3929901 .044265748 .3929901 .0692749 .4019928 .09327698 .41099549 .11528015 .4269867 .15829468 .47200013 .2773285 .47200013 .3353424 .47200013 .4003601 .43199159 .4423828 .35699464 .4423828 .2939911 .4423828 .24598694 .41137696 .20899964 .36535646L.2869873 .68333438Z"/>
<path id="font_3_2" d="M.44400025 .24998474C.44400025 .35688783 .35499574 .44381715 .25 .44381715 .14199829 .44381715 .054992677 .35488893 .054992677 .24998474 .054992677 .14407349 .14199829 .056137086 .25 .056137086 .35499574 .056137086 .44400025 .14308167 .44400025 .24998474Z"/>
<path id="font_2_3" d="M.45999146 .31976319C.45999146 .39982606 .45498658 .47988893 .41999818 .5539398 .37399293 .65000918 .2919922 .6660156 .25 .6660156 .18998719 .6660156 .116989139 .64001467 .07598877 .54693606 .04399109 .47789 .038986207 .39982606 .038986207 .31976319 .038986207 .24472046 .042999269 .15464783 .083999637 .07859802 .1269989-.0024719239 .19999695-.022460938 .24899292-.022460938 .30299378-.022460938 .3789978-.0014648438 .4229889 .09359741 .45498658 .16265869 .45999146 .2407074 .45999146 .31976319M.24899292-.00047302247C.20999146-.00047302247 .15098572 .024551392 .1329956 .12062073 .12199402 .18066406 .12199402 .2727356 .12199402 .3317871 .12199402 .39582826 .12199402 .46188355 .12998963 .5159149 .14898682 .63500979 .22399903 .64401248 .24899292 .64401248 .28199769 .64401248 .34799195 .6259918 .36698915 .52693179 .3769989 .47088624 .3769989 .39482118 .3769989 .3317871 .3769989 .25672914 .3769989 .18867493 .3659973 .12461853 .35099793 .029556275 .2939911-.00047302247 .24899292-.00047302247Z"/>
<path id="font_1_1" d="M.20298767 .0009918213C.20298767 .066986087 .17799378 .10598755 .13899231 .10598755 .10598755 .10598755 .085998538 .08099365 .085998538 .052993776 .085998538 .025985718 .10598755 0 .13899231 0 .15098572 0 .1639862 .0039978029 .17399597 .0129852299 .1769867 .01499939 .17799378 .015991211 .1789856 .015991211 .17999268 .015991211 .18099976 .01499939 .18099976 .0009918213 .18099976-.07316589 .1459961-.13328552 .11299133-.16635132 .101989749-.17736817 .101989749-.17936707 .101989749-.18237305 .101989749-.18936157 .10699463-.19335938 .11199951-.19335938 .12298584-.19335938 .20298767-.116256717 .20298767 .0009918213Z"/>
<path id="font_2_4" d="M.1269989 .07699585 .23298645 .18003845C.3889923 .31811524 .44898988 .3721466 .44898988 .47216798 .44898988 .5860901 .35899354 .6660156 .23699951 .6660156 .12399292 .6660156 .049987794 .57411196 .049987794 .48516847 .049987794 .4291687 .099990848 .4291687 .102996829 .4291687 .11999512 .4291687 .15499878 .44117738 .15499878 .48217774 .15499878 .5081787 .13699341 .5341797 .101989749 .5341797 .09399414 .5341797 .09199524 .5341797 .08898926 .5331726 .11199951 .59806826 .1659851 .63500979 .22399903 .63500979 .31498719 .63500979 .35798646 .5541382 .35798646 .47216798 .35798646 .39215089 .30799867 .31311036 .25299073 .25108338L.06098938 .036987306C.049987794 .025985718 .049987794 .023986817 .049987794 0H.42099L.44898988 .17404175H.42399598C.4189911 .14402771 .4119873 .1000061 .4019928 .084991458 .394989 .07699585 .32899476 .07699585 .30699159 .07699585H.1269989Z"/>
<path id="font_3_1" d="M.6589966 .23046875C.6759949 .23046875 .69400027 .23046875 .69400027 .25045777 .69400027 .27046205 .6759949 .27046205 .6589966 .27046205H.117996219C.100997928 .27046205 .08299255 .27046205 .08299255 .25045777 .08299255 .23046875 .100997928 .23046875 .117996219 .23046875H.6589966Z"/>
<path id="font_2_5" d="M.2899933 .35191346C.37199403 .37893678 .42999269 .4490509 .42999269 .52809146 .42999269 .6100464 .34199525 .6660156 .24598694 .6660156 .14498902 .6660156 .068984989 .60606387 .068984989 .53009036 .068984989 .49710084 .09098816 .47808839 .11999512 .47808839 .15098572 .47808839 .17098999 .50009158 .17098999 .5290985 .17098999 .57910159 .12399292 .57910159 .10899353 .57910159 .13999939 .62802127 .20599365 .64100649 .24198914 .64100649 .2829895 .64100649 .33799745 .6190338 .33799745 .5290985 .33799745 .51708987 .33599855 .45906068 .30999757 .4149933 .27999879 .36691285 .24598694 .36390687 .22099304 .36291505 .21299744 .36190797 .18899536 .35990907 .18199158 .35990907 .17399597 .35890199 .16699219 .35791017 .16699219 .3479004 .16699219 .33691407 .17399597 .33691407 .19099427 .33691407H.23498535C.31698609 .33691407 .35398866 .2686615 .35398866 .17037964 .35398866 .034469606 .2849884 .0055389406 .24099732 .0055389406 .19799805 .0055389406 .12298584 .022491456 .08799744 .08137512 .12298584 .07637024 .1539917 .09837341 .1539917 .1363678 .1539917 .17237854 .1269989 .19238281 .09799194 .19238281 .07398987 .19238281 .041992189 .17837525 .041992189 .1343689 .041992189 .043441774 .1349945-.022460938 .24398804-.022460938 .3659973-.022460938 .45700074 .06838989 .45700074 .17037964 .45700074 .252594 .3939972 .33088685 .2899933 .35191346Z"/>
</defs>
<path transform="matrix(1,0,0,-1.00006,63.856004,187.82448)" stroke-width=".19925" stroke-linecap="butt" stroke-miterlimit="10" stroke-linejoin="miter" fill="none" stroke="#929292" d="M-56.69362-85.04042H56.69362M-56.69362-56.69362H56.69362M-56.69362-28.3468H56.69362M-56.69362 0H56.69362M-56.69362 28.3468H56.69362M-56.69362 56.69362H56.69362M-56.69362 85.04042H56.69362M-56.69362 113.38724H56.69362M-56.69362 141.73404H56.69362M-56.69362 170.07089H56.69362M-56.69362-85.04042V170.08086M-28.3468-85.04042V170.08086M0-85.04042V170.08086M28.3468-85.04042V170.08086M56.68365-85.04042V170.08086M56.69362 170.08086"/>
<path transform="matrix(1,0,0,-1.00006,63.856004,187.82448)" stroke-width="1.19553" stroke-linecap="butt" stroke-miterlimit="10" stroke-linejoin="miter" fill="none" stroke="#000000" d="M-62.36288 0H61.40646"/>
<path transform="matrix(1,0,0,-1.00006,125.26247,187.82448)" stroke-width=".9564" stroke-linecap="round" stroke-linejoin="round" fill="none" stroke="#000000" d="M-1.91284 2.55046C-1.75343 1.59402 0 .15938 .4782 0 0-.15938-1.75343-1.59402-1.91284-2.55046"/>
<use data-text="x" xlink:href="#font_1_5" transform="matrix(9.9626,0,0,-9.963197,130.137,189.9696)"/>
<path transform="matrix(1,0,0,-1.00006,63.856004,187.82448)" stroke-width="1.19553" stroke-linecap="butt" stroke-miterlimit="10" stroke-linejoin="miter" fill="none" stroke="#000000" d="M0-90.7097V174.7937"/>
<path transform="matrix(0,-1.00006,-1,-0,63.856004,13.020294)" stroke-width=".9564" stroke-linecap="round" stroke-linejoin="round" fill="none" stroke="#000000" d="M-1.91284 2.55046C-1.75343 1.59402 0 .15938 .4782 0 0-.15938-1.75343-1.59402-1.91284-2.55046"/>
<use data-text="y" xlink:href="#font_1_6" transform="matrix(9.9626,0,0,-9.963197,61.235,6.2075808)"/>
<path transform="matrix(1,0,0,-1.00006,63.856004,187.82448)" stroke-width=".79701" stroke-linecap="butt" stroke-miterlimit="10" stroke-linejoin="miter" fill="none" stroke="#0000ff" d="M-56.69362 113.38724C-56.69362 113.38724-56.52954 112.73172-56.46652 112.48064-56.40352 112.22954-56.30244 111.82756-56.23944 111.57748-56.17642 111.32741-56.07536 110.92723-56.01234 110.67824-55.94934 110.42924-55.8483 110.03087-55.78528 109.78288-55.72226 109.53491-55.6212 109.138-55.5582 108.89099-55.49518 108.64397-55.39412 108.24854-55.3311 108.00255-55.2681 107.75658-55.16704 107.36298-55.10403 107.11801-55.04102 106.87305-54.93996 106.48094-54.87694 106.23694-54.81393 105.99294-54.71288 105.60231-54.64986 105.35933-54.58685 105.11633-54.4858 104.72755-54.42279 104.4856-54.35977 104.24362-54.25871 103.85628-54.1957 103.61533-54.13269 103.37437-54.03163 102.98888-53.96861 102.74895-53.9056 102.50902-53.80455 102.12495-53.74155 101.88603-53.67853 101.64713-53.57747 101.26491-53.51445 101.02702-53.45145 100.78914-53.35037 100.40837-53.28737 100.17145-53.22435 99.93452-53.12329 99.55525-53.06027 99.31935-52.99727 99.08345-52.89622 98.70604-52.8332 98.47116-52.77019 98.23627-52.66913 97.86026-52.60612 97.6264-52.5431 97.39253-52.44205 97.0184-52.37903 96.78555-52.31602 96.5527-52.21497 96.18005-52.15196 95.94817-52.08894 95.71626-51.98788 95.3451-51.92487 95.11423-51.86186 94.88335-51.7608 94.51402-51.69778 94.28418-51.63478 94.05434-51.53372 93.68643-51.47072 93.45761-51.4077 93.22879-51.30664 92.86272-51.24362 92.63492-51.18062 92.40712-51.07956 92.04247-51.01654 91.81569-50.95352 91.5889-50.85248 91.22618-50.78947 91.00035-50.72646 90.77454-50.6254 90.41286-50.56238 90.18805-50.49937 89.96324-50.3983 89.60385-50.3353 89.38007-50.27228 89.15628-50.17122 88.79788-50.1082 88.5751-50.0452 88.35234-49.94415 87.99623-49.88113 87.77448-49.81812 87.55273-49.71706 87.19766-49.65405 86.97688-49.59103 86.7561-49.48997 86.40288-49.42696 86.18318-49.36395 85.96349-49.2629 85.6121-49.19989 85.39337-49.13687 85.17462-49.03581 84.82436-48.9728 84.60657-48.90979 84.3888-48.80873 84.04039-48.74571 83.82368-48.68271 83.60698-48.58165 83.26038-48.51865 83.0447-48.45563 82.82901-48.35457 82.48381-48.29155 82.26915-48.22855 82.05447-48.12749 81.71118-48.06447 81.4975-48.00145 81.2838-47.9004 80.94156-47.8374 80.72888-47.77438 80.5162-47.67332 80.17624-47.6103 79.96458-47.5473 79.75293-47.44623 79.41402-47.38322 79.20332-47.3202 78.99261-47.21916 78.65556-47.15614 78.44594-47.09314 78.23631-46.99208 77.90106-46.92906 77.69246-46.86604 77.48386-46.76498 77.15009-46.70198 76.94243-46.63896 76.73479-46.5379 76.40251-46.47488 76.19588-46.41188 75.98926-46.31082 75.65881-46.24782 75.4532-46.1848 75.24759-46.08374 74.91864-46.02072 74.714-45.95772 74.50937-45.85666 74.18187-45.79364 73.97826-45.73064 73.77464-45.62958 73.44894-45.56657 73.24641-45.50356 73.04387-45.4025 72.71997-45.33948 72.51845-45.27647 72.31693-45.17542 71.99449-45.1124 71.79393-45.04938 71.59337-44.94833 71.2725-44.88533 71.0729-44.82231 70.8733-44.72125 70.5539-44.65823 70.35532-44.59523 70.15672-44.49416 69.83913-44.43115 69.64162-44.36813 69.44412-44.26709 69.1283-44.20407 68.93182-44.14107 68.73535-44.04001 68.421-43.97699 68.2255-43.91397 68.02998-43.81291 67.71718-43.74991 67.52261-43.68689 67.32806-43.58583 67.01668-43.52281 66.82321-43.45981 66.62973-43.35875 66.32059-43.29575 66.12813-43.23273 65.93567-43.13167 65.62756-43.06865 65.43605-43.00565 65.24455-42.90459 64.93837-42.84157 64.7479-42.77856 64.55742-42.6775 64.25264-42.6145 64.06319-42.55148 63.87372-42.45042 63.5708-42.3874 63.38237-42.3244 63.19395-42.22334 62.89243-42.16032 62.70502-42.0973 62.51761-41.99626 62.21796-41.93326 62.03156-41.87024 61.84517-41.76918 61.547-41.70616 61.36156-41.64316 61.17613-41.54208 60.87943-41.47908 60.69502-41.41606 60.5106-41.31502 60.21576-41.252 60.03236-41.189 59.84897-41.08794 59.55562-41.02492 59.37317-40.9619 59.19073-40.86084 58.89886-40.79784 58.71745-40.73482 58.53603-40.63376 58.24596-40.57074 58.06563-40.50774 57.88528-40.40668 57.59697-40.34367 57.41766-40.28065 57.23836-40.1796 56.95154-40.11658 56.7732-40.05357 56.59485-39.95251 56.30951-39.8895 56.13217-39.82649 55.95483-39.72543 55.67136-39.66243 55.49504-39.59941 55.31873-39.49835 55.03673-39.43533 54.86137-39.37233 54.68602-39.27127 54.4055-39.20825 54.23117-39.14523 54.05682-39.04419 53.77817-38.98119 53.60484-38.91817 53.43152-38.81711 53.15428-38.75409 52.98201-38.69109 52.80972-38.59001 52.53432-38.52701 52.36304-38.46399 52.19176-38.36295 51.91777-38.29993 51.74753-38.23692 51.57729-38.13586 51.30515-38.07285 51.13593-38.00983 50.96669-37.90877 50.69604-37.84576 50.52779-37.78275 50.35951-37.6817 50.09035-37.61868 49.9231-37.55568 49.75584-37.4546 49.48853-37.3916 49.3223-37.32858 49.15607-37.22752 48.89024-37.1645 48.72496-37.1015 48.5597-37.00044 48.29533-36.93742 48.13109-36.87442 47.96683-36.77336 47.70425-36.71036 47.54109-36.64734 47.37793-36.54628 47.11716-36.48326 46.95502-36.42026 46.79286-36.31918 46.53357-36.25618 46.37238-36.19316 46.2112-36.09212 45.95338-36.02911 45.79321-35.9661 45.63304-35.86504 45.37709-35.80202 45.21794-35.73901 45.05879-35.63794 44.8043-35.57494 44.64612-35.51192 44.48793-35.41087 44.23494-35.34785 44.07776-35.28485 43.9206-35.18379 43.66945-35.12077 43.5133-35.05775 43.35715-34.9567 43.10742-34.89369 42.9523-34.83067 42.79718-34.72963 42.5493-34.66661 42.39519-34.6036 42.24109-34.50253 41.99464-34.43953 41.84155-34.37651 41.68846-34.27545 41.44385-34.21243 41.2918-34.14943 41.13972-34.04837 40.89659-33.98535 40.74548-33.92235 40.59438-33.82129 40.35275-33.75829 40.20265-33.69527 40.05257-33.59421 39.81279-33.53119 39.66371-33.46819 39.51465-33.36711 39.27635-33.30411 39.12825-33.24109 38.98013-33.14005 38.74332-33.07704 38.59622-33.01402 38.44913-32.91296 38.21408-32.84995 38.06808-32.78694 37.92209-32.68587 37.68883-32.62286 37.54385-32.55984 37.39886-32.4588 37.1671-32.39578 37.02307-32.33278 36.87904-32.23172 36.64883-32.1687 36.50577-32.10568 36.3627-32.00462 36.1339-31.94162 35.99191-31.8786 35.84991-31.77756 35.62334-31.71454 35.48236-31.65154 35.3414-31.55046 35.11588-31.48746 34.97586-31.42444 34.83586-31.32338 34.61224-31.26036 34.47327-31.19736 34.33429-31.0963 34.11208-31.03328 33.97412-30.97028 33.83617-30.86922 33.6158-30.80621 33.47885-30.7432 33.34192-30.64214 33.12305-30.57912 32.98708-30.51611 32.85109-30.41504 32.63368-30.35204 32.49872-30.28902 32.36375-30.18797 32.14816-30.12497 32.01428-30.06195 31.8804-29.96089 31.66666-29.89787 31.53374-29.83487 31.4008-29.7338 31.18811-29.67079 31.0562-29.60777 30.9243-29.50673 30.7139-29.44371 30.58301-29.3807 30.45212-29.27965 30.24277-29.21663 30.11285-29.15361 29.98293-29.05255 29.7754-28.98955 29.64658-28.92653 29.51773-28.82549 29.31207-28.76247 29.18419-28.69946 29.0563-28.59839 28.85168-28.53539 28.72482-28.47237 28.59798-28.3713 28.39565-28.30829 28.2698-28.24529 28.14397-28.14424 27.94269-28.08122 27.81781-28.01822 27.69292-27.91714 27.4935-27.85414 27.36969-27.79112 27.2459-27.69006 27.04826-27.62704 26.92548-27.56404 26.80269-27.46297 26.60652-27.39996 26.48471-27.33694 26.3629-27.2359 26.16823-27.1729 26.04742-27.10988 25.92664-27.00882 25.7338-26.9458 25.61401-26.8828 25.49425-26.78172 25.3029-26.71872 25.18408-26.6557 25.06526-26.55466 24.8754-26.49164 24.7576-26.42863 24.6398-26.32758 24.45178-26.26456 24.335-26.20154 24.21822-26.10048 24.03165-26.03748 23.91588-25.97446 23.80013-25.87341 23.61539-25.8104 23.50064-25.74739 23.3859-25.64632 23.20259-25.58331 23.08887-25.5203 22.97514-25.41924 22.79367-25.35622 22.68098-25.29321 22.56828-25.19217 22.38829-25.12915 22.27657-25.06615 22.16483-24.96507 21.98631-24.90207 21.8756-24.83905 21.76488-24.73799 21.58821-24.67497 21.47852-24.61197 21.36882-24.5109 21.19359-24.44789 21.08492-24.38487 20.97623-24.28383 20.80286-24.22083 20.69519-24.1578 20.58752-24.05675 20.41563-23.99373 20.30894-23.93073 20.20224-23.82965 20.0318-23.76665 19.92613-23.70363 19.82047-23.60258 19.65184-23.53957 19.54724-23.47656 19.44266-23.3755 19.27586-23.31248 19.17223-23.24947 19.06859-23.1484 18.90292-23.0854 18.80025-23.02238 18.69757-22.92134 18.53375-22.85832 18.43216-22.79532 18.33057-22.69424 18.16855-22.63124 18.06796-22.56822 17.96739-22.46716 17.80684-22.40414 17.70723-22.34114 17.6076-22.2401 17.44855-22.17708 17.34995-22.11407 17.25134-22.013 17.09415-21.95 16.99657-21.88698 16.89899-21.78592 16.7432-21.7229 16.64665-21.6599 16.5501-21.55882 16.39615-21.49582 16.30061-21.4328 16.2051-21.33176 16.05261-21.26875 15.95804-21.20573 15.86346-21.10468 15.71248-21.04166 15.61893-20.97865 15.52538-20.87758 15.37625-20.81458 15.2837-20.75156 15.19118-20.65051 15.04347-20.5875 14.95197-20.52449 14.86044-20.42343 14.7146-20.36041 14.6241-20.2974 14.5336-20.19633 14.38922-20.13333 14.29968-20.07031 14.21014-19.96927 14.06725-19.90625 13.97874-19.84325 13.89024-19.74217 13.74918-19.67917 13.6617-19.61615 13.5742-19.51509 13.43457-19.45207 13.3481-19.38907 13.26164-19.28802 13.12386-19.225 13.0384-19.16199 12.95296-19.06093 12.81667-18.99792 12.73216-18.9349 12.64767-18.83385 12.51288-18.77083 12.4294-18.70782 12.34593-18.60677 12.2129-18.54376 12.13052-18.48074 12.04813-18.37968 11.91696-18.31668 11.83553-18.25366 11.75409-18.1526 11.62402-18.08958 11.54355-18.02658 11.46309-17.9255 11.33487-17.8625 11.2555-17.79948 11.1761-17.69844 11.04967-17.63542 10.9713-17.57242 10.89294-17.47136 10.768-17.40834 10.6906-17.34532 10.61319-17.24426 10.48972-17.18126 10.41333-17.11824 10.33694-17.0172 10.21535-16.95418 10.13997-16.89117 10.0646-16.7901 9.94443-16.7271 9.87007-16.66408 9.79572-16.56302 9.67738-16.5 9.60405-16.437 9.53072-16.33595 9.41388-16.27293 9.3415-16.20992 9.26912-16.10886 9.15376-16.04585 9.08241-15.98283 9.01108-15.88177 8.89748-15.81876 8.82722-15.75575 8.75696-15.6547 8.64522-15.59169 8.57591-15.52867 8.5066-15.42761 8.39598-15.36461 8.32764-15.30159 8.2593-15.20053 8.15051-15.13751 8.08325-15.07451 8.01598-14.97343 7.90901-14.91043 7.84277-14.84741 7.77652-14.74637 7.67104-14.68335 7.60574-14.62035 7.54045-14.51929 7.43643-14.45627 7.37216-14.39325 7.30789-14.29219 7.20573-14.22919 7.14249-14.16617 7.07925-14.06512 6.97855-14.0021 6.91628-13.9391 6.85399-13.83803 6.75478-13.77502 6.69351-13.712 6.63225-13.61095 6.53484-13.54793 6.47466-13.48492 6.41447-13.38388 6.31885-13.32086 6.25967-13.25784 6.20052-13.15678 6.10637-13.09378 6.04816-13.03076 5.98994-12.9297 5.89735-12.86668 5.8401-12.80368 5.78285-12.70262 5.69176-12.63962 5.63551-12.5766 5.57928-12.47554 5.48996-12.41254 5.43481-12.34952 5.37968-12.24846 5.29213-12.18544 5.23802-12.12244 5.1839-12.02138 5.09784-11.95837 5.04468-11.89536 4.99152-11.7943 4.90694-11.73128 4.8548-11.66827 4.80264-11.56721 4.71992-11.5042 4.6688-11.44118 4.61768-11.34012 4.53642-11.27711 4.48627-11.2141 4.4361-11.11305 4.35635-11.05003 4.3072-10.98703 4.25806-10.88596 4.18016-10.82295 4.13203-10.75993 4.0839-10.65887 4.00742-10.59586 3.96031-10.53285 3.9132-10.43181 3.83855-10.36879 3.79248-10.30577 3.7464-10.20471 3.67317-10.14171 3.62811-10.07869 3.58305-9.97763 3.51167-9.91461 3.46764-9.85161 3.4236-9.75055 3.35371-9.68755 3.31064-9.62453 3.26755-9.52347 3.19914-9.46046 3.15707-9.39745 3.11502-9.29639 3.04846-9.23337 3.00742-9.17036 2.96637-9.0693 2.90125-9.0063 2.86122-8.94328 2.8212-8.84222 2.75792-8.7792 2.71892-8.7162 2.6799-8.61514 2.6181-8.55212 2.58008-8.4891 2.54204-8.38805 2.4817-8.32504 2.44469-8.26202 2.40767-8.16098 2.3492-8.09796 2.3132-8.03496 2.2772-7.93388 2.22015-7.87088 2.18517-7.80786 2.15019-7.7068 2.09499-7.64378 2.06104-7.58078 2.02707-7.47974 1.97336-7.41672 1.94035-7.3537 1.90735-7.25264 1.85512-7.18964 1.82314-7.12662 1.79115-7.02556 1.7407-6.96254 1.70981-6.89954 1.6789-6.79848 1.63031-6.73547 1.60039-6.67245 1.57045-6.5714 1.52295-6.50839 1.49397-6.44537 1.465-6.34431 1.41936-6.2813 1.39146-6.21829 1.36357-6.11723 1.31972-6.05423 1.29285-5.99121 1.26596-5.89015 1.2236-5.82713 1.19768-5.76413 1.17177-5.66307 1.13089-5.60005 1.10599-5.53703 1.08109-5.43597 1.04205-5.37297 1.01817-5.30995 .9943-5.20891 .9567-5.14589 .93384-5.08289 .91096-4.98181 .87523-4.91881 .85338-4.85579 .83154-4.75473 .79726-4.69171 .77638-4.62871 .75551-4.52766 .7227-4.46465 .70285-4.40163 .683-4.30057 .65205-4.23756 .63321-4.17455 .61438-4.07349 .58485-4.01047 .56705-3.94746 .54922-3.8464 .52156-3.7834 .50476-3.72038 .48796-3.61932 .46176-3.55632 .44592-3.4933 .43008-3.39224 .40538-3.32922 .39056-3.26622 .37573-3.16516 .35281-3.10216 .33908-3.03914 .32536-2.93808 .30429-2.87506 .29152-2.81206 .27875-2.711 .25871-2.64798 .24696-2.58496 .23521-2.48392 .21747-2.42091 .20674-2.3579 .196-2.25684 .17932-2.19382 .16954-2.13081 .15976-2.02974 .14499-1.96674 .13623-1.90372 .12747-1.80266 .11414-1.73964 .10638-1.67664 .09865-1.57559 .08716-1.51257 .08044-1.44955 .07372-1.3485 .06364-1.28549 .05794-1.22247 .05225-1.12141 .04402-1.0584 .03935-.99539 .03468-.89433 .02792-.83133 .02422-.76831 .0205-.66725 .01523-.60425 .01253-.54123 .00984-.44017 .00641-.37715 .00473-.31415 .00307-.21307 .00107-.15009 .00041-.08708-.00021 .01396-.00034 .07698 0 .13998 .00034 .24104 .00165 .30406 .00302 .36708 .00438 .46812 .00761 .53113 .00993 .59415 .01225 .6952 .01651 .75822 .01988 .82123 .02324 .9223 .02977 .9853 .03415 1.04832 .03853 1.14938 .04605 1.2124 .05145 1.2754 .05685 1.37645 .06667 1.43947 .07309 1.50249 .0795 1.60355 .09036 1.66655 .09775 1.72957 .10512 1.83063 .1179 1.89365 .1263 1.95665 .13469 2.05771 .14888 2.12071 .1583 2.18373 .1677 2.28479 .18376 2.3478 .1942 2.41081 .20462 2.51187 .2221 2.57489 .23355 2.6379 .245 2.73895 .26433 2.80196 .27681 2.86497 .28929 2.96603 .31009 3.02905 .32352 3.09206 .33696 3.19312 .35925 3.25613 .3737 3.31915 .38815 3.4202 .4123 3.4832 .42776 3.54622 .44324 3.64728 .4688 3.7103 .48529 3.7733 .50179 3.87437 .5292 3.93738 .54672 4.0004 .56422 4.10146 .59312 4.16447 .6116 4.22748 .63007 4.32852 .66043 4.39154 .67993 4.45456 .69943 4.55562 .73158 4.61862 .75217 4.68164 .77275 4.7827 .80676 4.84572 .82831 4.90872 .84984 5.00978 .88495 5.07278 .90744 5.1358 .92995 5.23686 .96692 5.29987 .9905 5.36288 1.01407 5.46394 1.05284 5.52696 1.07744 5.58997 1.10204 5.69102 1.14229 5.75403 1.16783 5.81705 1.19339 5.9181 1.23512 5.98112 1.26169 6.04413 1.28827 6.14519 1.33185 6.2082 1.35945 6.27122 1.38704 6.37227 1.43204 6.43527 1.46066 6.49829 1.48929 6.59935 1.53612 6.66237 1.56577 6.72537 1.59541 6.82645 1.64374 6.88945 1.67433 6.95247 1.70494 7.05351 1.75475 7.11653 1.78636 7.17953 1.81798 7.2806 1.86966 7.34361 1.9023 7.40663 1.93494 7.50769 1.98802 7.5707 2.02167 7.63371 2.05533 7.73477 2.11028 7.79779 2.14494 7.8608 2.17963 7.96185 2.23604 8.02486 2.27167 8.08788 2.3073 8.18893 2.3652 8.25194 2.40187 8.31496 2.43854 8.41602 2.49828 8.47903 2.53595 8.54204 2.57364 8.6431 2.6348 8.7061 2.67351 8.76912 2.7122 8.87018 2.77522 8.9332 2.81494 8.9962 2.85466 9.09726 2.91911 9.16028 2.95985 9.2233 3.0006 9.32434 3.06686 9.38734 3.10863 9.45036 3.15039 9.55142 3.21817 9.61444 3.2609 9.67744 3.3036 9.77852 3.37286 9.84152 3.41661 9.90454 3.46034 10.00558 3.53146 10.0686 3.57622 10.1316 3.62097 10.23267 3.69354 10.29568 3.73927 10.3587 3.785 10.45976 3.85905 10.52277 3.9058 10.58578 3.95255 10.68684 4.0284 10.74986 4.07622 10.81287 4.12404 10.91393 4.20169 10.97693 4.25053 11.03995 4.2994 11.141 4.37851 11.20403 4.42831 11.26703 4.47812 11.36809 4.55878 11.4311 4.60954 11.49411 4.6603 11.59517 4.7424 11.65817 4.79424 11.72119 4.84608 11.82225 4.93039 11.88527 4.98326 11.94827 5.03613 12.04933 5.12148 12.11235 5.17531 12.17537 5.22914 12.27641 5.31639 12.33942 5.37125 12.40244 5.4261 12.5035 5.51477 12.56651 5.57063 12.62952 5.62651 12.73059 5.71704 12.7936 5.77393 12.85661 5.83081 12.95766 5.92285 13.02068 5.9807 13.08368 6.03854 13.18474 6.13205 13.24776 6.1909 13.31078 6.24977 13.41183 6.34508 13.47484 6.40501 13.53786 6.46495 13.63892 6.5621 13.70193 6.623 13.76494 6.68391 13.866 6.78209 13.929 6.84402 13.99202 6.90596 14.09308 7.00644 14.1561 7.06938 14.2191 7.13234 14.32016 7.23386 14.38318 7.29776 14.44618 7.36168 14.54724 7.4651 14.61024 7.53003 14.67326 7.59496 14.77432 7.69983 14.83734 7.76578 14.90034 7.83171 15.0014 7.93843 15.06442 8.0054 15.12744 8.07236 15.22849 8.1805 15.29149 8.24847 15.3545 8.31647 15.45557 8.42647 15.51859 8.49547 15.58159 8.56447 15.68266 8.67589 15.74567 8.74591 15.80869 8.81592 15.90973 8.92924 15.97275 9.00023 16.03575 9.07123 16.13681 9.1856 16.19983 9.2576 16.26285 9.32962 16.3639 9.44624 16.42691 9.51927 16.48993 9.5923 16.59097 9.71 16.65399 9.784 16.717 9.85799 16.81807 9.97754 16.88107 10.0526 16.94409 10.12767 17.04515 10.24901 17.10817 10.3251 17.17117 10.40118 17.27223 10.52402 17.33525 10.60106 17.39825 10.6781 17.49931 10.8024 17.56232 10.88048 17.62534 10.95856 17.7264 11.0847 17.78941 11.16379 17.85242 11.24289 17.95348 11.37045 18.0165 11.45056 18.07951 11.53067 18.18056 11.6601 18.24356 11.74123 18.30658 11.82236 18.40764 11.95326 18.47066 12.03535 18.53366 12.11745 18.63474 12.24983 18.69774 12.33295 18.76076 12.41606 18.8618 12.5503 18.92482 12.63441 18.98782 12.71855 19.08888 12.8542 19.1519 12.93935 19.21492 13.0245 19.31598 13.16203 19.37898 13.2482 19.442 13.33437 19.54305 13.47334 19.60606 13.56047 19.66907 13.64761 19.77014 13.78809 19.83315 13.87624 19.89616 13.96439 19.99722 14.10672 20.06024 14.19589 20.12325 14.28506 20.2243 14.4288 20.28732 14.519 20.35033 14.60919 20.45139 14.75478 20.51439 14.846 20.57741 14.9372 20.67847 15.08427 20.74149 15.17645 20.80449 15.26862 20.90555 15.41718 20.96857 15.51036 21.03159 15.60355 21.13263 15.75389 21.19563 15.84818 21.25865 15.94246 21.35971 16.09465 21.42273 16.18988 21.48573 16.28513 21.5868 16.43837 21.64981 16.53462 21.71283 16.63087 21.81387 16.78639 21.87689 16.88367 21.9399 16.98096 22.04095 17.13751 22.10397 17.23575 22.16699 17.33398 22.26805 17.49248 22.33105 17.59174 22.39407 17.691 22.49512 17.8509 22.55814 17.95117 22.62114 18.05144 22.72221 18.21323 22.78522 18.31451 22.84824 18.4158 22.9493 18.57898 23.01231 18.68129 23.07532 18.7836 23.17638 18.94864 23.2394 19.05197 23.3024 19.15532 23.40346 19.32182 23.46646 19.42613 23.52948 19.53043 23.63054 19.69841 23.69356 19.80373 23.75656 19.90906 23.85762 20.07884 23.92064 20.18524 23.98366 20.29164 24.0847 20.46327 24.1477 20.57063 24.21072 20.67798 24.31178 20.85074 24.3748 20.95905 24.4378 21.06737 24.53888 21.24196 24.60188 21.35135 24.6649 21.46075 24.76595 21.63715 24.82896 21.74756 24.89197 21.85797 24.99303 22.03584 25.05605 22.14722 25.11906 22.2586 25.22012 22.43794 25.28313 22.55035 25.34615 22.66275 25.44719 22.84395 25.51021 22.95737 25.57321 23.07079 25.67429 23.25346 25.73729 23.36784 25.80031 23.48222 25.90137 23.66638 25.96439 23.78178 26.02739 23.89719 26.12843 24.08315 26.19145 24.19963 26.25446 24.3161 26.35553 24.50385 26.41853 24.62134 26.48155 24.73885 26.58261 24.92807 26.64563 25.04652 26.70863 25.16498 26.8097 25.35576 26.87271 25.47517 26.93573 25.5946 27.03677 25.78683 27.09978 25.90727 27.1628 26.02773 27.26385 26.22174 27.32687 26.34328 27.38988 26.4648 27.49095 26.66063 27.55396 26.78317 27.61697 26.90572 27.71802 27.10303 27.78104 27.22652 27.84404 27.35002 27.9451 27.54881 28.00812 27.67334 28.07114 27.79785 28.1722 27.99849 28.2352 28.12404 28.29822 28.24957 28.39926 28.4517 28.46228 28.5782 28.52528 28.7047 28.62636 28.90833 28.68936 29.03583 28.75238 29.16335 28.85344 29.3688 28.91646 29.49734 28.97946 29.6259 29.0805 29.83275 29.14352 29.96231 29.20653 30.09189 29.3076 30.30061 29.3706 30.4312 29.43362 30.56178 29.53468 30.77193 29.5977 30.90353 29.6607 31.03514 29.76176 31.24713 29.82478 31.37975 29.8878 31.51237 29.98885 31.72585 30.05185 31.85944 30.11487 31.99301 30.21593 32.20798 30.27895 32.34258 30.34195 32.47717 30.44302 32.694 30.50603 32.82962 30.56905 32.96524 30.67009 33.18346 30.73311 33.32011 30.79611 33.45677 30.89717 33.67685 30.96019 33.81451 31.02321 33.95218 31.12427 34.17374 31.18727 34.31236 31.25029 34.45099 31.35133 34.67401 31.41435 34.81366 31.47736 34.95331 31.57843 35.1782 31.64143 35.31886 31.70445 35.45953 31.80551 35.68587 31.86853 35.82755 31.93153 35.96922 32.03258 36.19739 32.0956 36.34009 32.1586 36.48279 32.25967 36.71245 32.32268 36.85611 32.3857 36.99977 32.48676 37.2309 32.54977 37.3756 32.61278 37.52028 32.71382 37.75325 32.77684 37.89897 32.83986 38.04468 32.94092 38.27907 33.00392 38.4258 33.06694 38.57253 33.168 38.80878 33.23102 38.95653 33.29402 39.10426 33.3951 39.34193 33.4581 39.4907 33.52112 39.63947 33.62216 39.879 33.68518 40.02878 33.74818 40.17856 33.84924 40.41957 33.91226 40.57031 33.97528 40.72105 34.07634 40.96355 34.13934 41.11531 34.20236 41.26707 34.3034 41.51141 34.36642 41.6642 34.42943 41.817 34.5305 42.06274 34.5935 42.21655 34.65652 42.37036 34.75758 42.61797 34.8206 42.7728 34.8836 42.92763 34.98465 43.17671 35.04767 43.3325 35.11067 43.4883 35.21175 43.73886 35.27475 43.89568 35.33777 44.05249 35.43883 44.3049 35.50185 44.46272 35.56485 44.62054 35.6659 44.87439 35.72891 45.03323 35.79193 45.19208 35.89299 45.4478 35.956 45.60767 36.01901 45.76752 36.12007 46.02472 36.18309 46.18553 36.2461 46.34636 36.34717 46.605 36.41017 46.76686 36.47319 46.92871 36.57423 47.18921 36.63725 47.35208 36.70026 47.51497 36.80132 47.77687 36.86433 47.94077 36.92735 48.10466 37.02841 48.36842 37.09142 48.53334 37.15443 48.69826 37.25548 48.96346 37.3185 49.12938 37.3815 49.2953 37.48257 49.56236 37.54558 49.72931 37.6086 49.89626 37.70966 50.1648 37.77267 50.33269 37.83568 50.5006 37.93672 50.77061 37.99974 50.93956 38.06274 51.10849 38.16382 51.38034 38.22682 51.5503 38.28984 51.72026 38.3909 51.99353 38.45392 52.1645 38.51692 52.33548 38.61797 52.61061 38.68098 52.7826 38.744 52.95459 38.84506 53.2312 38.90807 53.40414 38.97108 53.5771 39.07214 53.85521 39.13516 54.02917 39.19817 54.20316 39.29924 54.4831 39.36224 54.65808 39.42526 54.83307 39.5263 55.11444 39.58932 55.29045 39.65233 55.46646 39.75339 55.7497 39.8164 55.92671 39.87943 56.10374 39.98048 56.38843 40.04349 56.56644 40.1065 56.74443 40.20755 57.03061 40.27057 57.20963 40.33357 57.38864 40.43465 57.67667 40.49765 57.8567 40.56067 58.03674 40.66173 58.32619 40.72475 58.50723 40.78775 58.6883 40.8888 58.9796 40.95181 59.16167 41.01482 59.34375 41.11589 59.63646 41.1789 59.81955 41.24191 60.00264 41.34297 60.29723 41.40599 60.48134 41.469 60.66545 41.57005 60.9615 41.63306 61.14658 41.69608 61.33165 41.79713 61.62918 41.86014 61.81528 41.92316 62.00139 42.02422 62.30075 42.08723 62.48787 42.15024 62.675 42.2513 62.9758 42.3143 63.16394 42.37732 63.35208 42.47838 63.65474 42.5414 63.84389 42.6044 64.03305 42.70546 64.33719 42.76848 64.5273 42.8315 64.7174 42.93256 65.02304 42.99556 65.21417 43.05858 65.4053 43.15962 65.71278 43.22264 65.90494 43.28564 66.09709 43.38672 66.40599 43.44972 66.59917 43.51274 66.79233 43.6138 67.10309 43.67682 67.29729 43.73982 67.49147 43.84087 67.8037 43.90388 67.99886 43.96689 68.19402 44.06796 68.5077 44.13097 68.70389 44.19398 68.90007 44.29504 69.21562 44.35806 69.41281 44.42107 69.61002 44.52213 69.927 44.58513 70.12521 44.64815 70.32343 44.7492 70.64224 44.81221 70.84149 44.87523 71.04073 44.97629 71.36098 45.0393 71.56123 45.10231 71.76149 45.20337 72.08359 45.26637 72.28487 45.32939 72.48615 45.43045 72.80972 45.49347 73.01196 45.55647 73.2142 45.65753 73.53926 45.72055 73.74252 45.78357 73.94579 45.88463 74.27269 45.94763 74.47697 46.01065 74.68126 46.1117 75.00964 46.17471 75.21487 46.23772 75.42012 46.33879 75.74998 46.4018 75.95625 46.46481 76.1625 46.56587 76.49417 46.62889 76.7015 46.6919 76.90886 46.79294 77.24231 46.85596 77.45067 46.91896 77.65903 47.02003 77.99397 47.08304 78.2033 47.14606 78.4126 47.24712 78.74908 47.31013 78.95935 47.37314 79.16963 47.4742 79.50758 47.5372 79.71889 47.60022 79.9302 47.70128 80.26993 47.76428 80.48232 47.8273 80.6947 47.92836 81.03625 47.99138 81.24965 48.05438 81.46306 48.15544 81.80606 48.21844 82.02043 48.28146 82.23479 48.38252 82.5793 48.44554 82.79468 48.50854 83.01006 48.6096 83.35641 48.67262 83.57281 48.73564 83.78922 48.8367 84.13704 48.8997 84.3544 48.96272 84.57176 49.06377 84.92108 49.12679 85.13947 49.18979 85.35783 49.29086 85.70894 49.35387 85.92842 49.41689 86.14789 49.51794 86.50082 49.58096 86.72125 49.64397 86.94168 49.74501 87.29575 49.80803 87.51714 49.87103 87.73851 49.9721 88.09442 50.03511 88.3169 50.09813 88.53935 50.19919 88.89706 50.2622 89.12054 50.32521 89.34402 50.42627 89.70322 50.48927 89.92766 50.55229 90.1521 50.65335 90.51277 50.71635 90.73824 50.77937 90.96368 50.88043 91.32623 50.94345 91.5527 51.00645 91.77919 51.10751 92.14314 51.17052 92.37064 51.23354 92.59813 51.3346 92.96393 51.39761 93.19246 51.46062 93.42099 51.56168 93.7882 51.6247 94.01773 51.68771 94.24728 51.78876 94.61641 51.85176 94.84691 51.91478 95.07742 52.01584 95.44759 52.07886 95.67912 52.14186 95.91064 52.24294 96.28311 52.30594 96.51566 52.36896 96.7482 52.47002 97.1217 52.53304 97.35521 52.59604 97.58871 52.69708 97.96407 52.7601 98.19864 52.8231 98.43323 52.92418 98.81038 52.98718 99.04599 53.0502 99.2816 53.15126 99.66023 53.21428 99.8968 53.27728 100.13338 53.37834 100.51347 53.44135 100.75105 53.50436 100.98865 53.60542 101.3706 53.66843 101.6092 53.73145 101.84782 53.8325 102.2312 53.89552 102.47083 53.95853 102.71045 54.05959 103.09569 54.12259 103.33633 54.18561 103.57698 54.28667 103.96371 54.34969 104.2053 54.41269 104.44691 54.51375 104.83511 54.57677 105.07774 54.63979 105.32036 54.74083 105.71042 54.80383 105.95406 54.86685 106.1977 54.96791 106.58917 55.03093 106.83385 55.09393 107.07852 55.195 107.47182 55.25801 107.71751 55.32103 107.96321 55.42209 108.358 55.4851 108.60466 55.54811 108.85132 55.64915 109.24757 55.71217 109.49525 55.77518 109.74292 55.87625 110.14105 55.93925 110.38974 56.00227 110.63843 56.10333 111.03798 56.16635 111.28769 56.22935 111.5374 56.33041 111.9388 56.39342 112.18953 56.45644 112.44026 56.6205 113.09482 56.6205 113.09482"/>
<use data-text="y" xlink:href="#font_1_6" transform="matrix(9.9626,0,0,-9.963197,124.196,68.51232)" fill="#0000ff"/>
<use data-text="=" xlink:href="#font_2_6" transform="matrix(9.9626,0,0,-9.963197,132.206,68.51232)" fill="#0000ff"/>
<use data-text="f" xlink:href="#font_1_2" transform="matrix(9.9626,0,0,-9.963197,142.722,68.51232)" fill="#0000ff"/>
<use data-text="(" xlink:href="#font_2_1" transform="matrix(9.9626,0,0,-9.963197,148.672,68.51232)" fill="#0000ff"/>
<use data-text="x" xlink:href="#font_1_5" transform="matrix(9.9626,0,0,-9.963197,152.54599,68.51232)" fill="#0000ff"/>
<use data-text=")" xlink:href="#font_2_2" transform="matrix(9.9626,0,0,-9.963197,158.23999,68.51232)" fill="#0000ff"/>
<path transform="matrix(1,0,0,-1.00006,63.856004,187.82448)" stroke-width=".79701" stroke-linecap="butt" stroke-miterlimit="10" stroke-linejoin="miter" fill="none" stroke="#ff0000" d="M-56.69362 170.08086C-56.69362 170.08086-56.52954 169.42534-56.46652 169.17426-56.40352 168.92316-56.30244 168.52118-56.23944 168.2711-56.17642 168.02103-56.07536 167.62085-56.01234 167.37186-55.94934 167.12287-55.8483 166.72449-55.78528 166.4765-55.72226 166.22853-55.6212 165.83162-55.5582 165.58461-55.49518 165.33759-55.39412 164.94216-55.3311 164.69617-55.2681 164.4502-55.16704 164.0566-55.10403 163.81163-55.04102 163.56667-54.93996 163.17456-54.87694 162.93056-54.81393 162.68656-54.71288 162.29593-54.64986 162.05295-54.58685 161.80995-54.4858 161.42119-54.42279 161.17922-54.35977 160.93724-54.25871 160.5499-54.1957 160.30895-54.13269 160.068-54.03163 159.6825-53.96861 159.44257-53.9056 159.20264-53.80455 158.81858-53.74155 158.57965-53.67853 158.34075-53.57747 157.95853-53.51445 157.72064-53.45145 157.48276-53.35037 157.10199-53.28737 156.86507-53.22435 156.62815-53.12329 156.24887-53.06027 156.01297-52.99727 155.77707-52.89622 155.39966-52.8332 155.16478-52.77019 154.92989-52.66913 154.55388-52.60612 154.32003-52.5431 154.08615-52.44205 153.71202-52.37903 153.47917-52.31602 153.24633-52.21497 152.87368-52.15196 152.64179-52.08894 152.4099-51.98788 152.03871-51.92487 151.80785-51.86186 151.57698-51.7608 151.20764-51.69778 150.9778-51.63478 150.74797-51.53372 150.38005-51.47072 150.15123-51.4077 149.92241-51.30664 149.55634-51.24362 149.32854-51.18062 149.10074-51.07956 148.73609-51.01654 148.50931-50.95352 148.28252-50.85248 147.9198-50.78947 147.69397-50.72646 147.46816-50.6254 147.10648-50.56238 146.88167-50.49937 146.65686-50.3983 146.29749-50.3353 146.07369-50.27228 145.8499-50.17122 145.4915-50.1082 145.26873-50.0452 145.04596-49.94415 144.68985-49.88113 144.46811-49.81812 144.24636-49.71706 143.89128-49.65405 143.6705-49.59103 143.44972-49.48997 143.0965-49.42696 142.8768-49.36395 142.6571-49.2629 142.30573-49.19989 142.08699-49.13687 141.86824-49.03581 141.51798-48.9728 141.30019-48.90979 141.08242-48.80873 140.73401-48.74571 140.5173-48.68271 140.3006-48.58165 139.954-48.51865 139.73831-48.45563 139.52263-48.35457 139.17743-48.29155 138.96277-48.22855 138.7481-48.12749 138.40482-48.06447 138.19112-48.00145 137.97742-47.9004 137.63518-47.8374 137.4225-47.77438 137.20983-47.67332 136.86986-47.6103 136.6582-47.5473 136.44655-47.44623 136.10764-47.38322 135.89694-47.3202 135.68624-47.21916 135.34918-47.15614 135.13956-47.09314 134.92995-46.99208 134.59468-46.92906 134.38608-46.86604 134.17748-46.76498 133.8437-46.70198 133.63605-46.63896 133.4284-46.5379 133.09613-46.47488 132.8895-46.41188 132.68288-46.31082 132.35243-46.24782 132.14682-46.1848 131.94123-46.08374 131.61226-46.02072 131.40763-45.95772 131.20299-45.85666 130.8755-45.79364 130.67188-45.73064 130.46826-45.62958 130.14257-45.56657 129.94004-45.50356 129.73749-45.4025 129.41359-45.33948 129.21207-45.27647 129.01055-45.17542 128.68811-45.1124 128.48755-45.04938 128.28699-44.94833 127.96613-44.88533 127.76653-44.82231 127.56693-44.72125 127.24751-44.65823 127.04893-44.59523 126.85034-44.49416 126.53275-44.43115 126.33525-44.36813 126.13774-44.26709 125.82191-44.20407 125.62544-44.14107 125.42897-44.04001 125.11462-43.97699 124.91911-43.91397 124.7236-43.81291 124.4108-43.74991 124.21623-43.68689 124.02168-43.58583 123.7103-43.52281 123.51683-43.45981 123.32335-43.35875 123.0142-43.29575 122.82175-43.23273 122.62929-43.13167 122.32118-43.06865 122.12967-43.00565 121.93817-42.90459 121.63199-42.84157 121.44151-42.77856 121.25104-42.6775 120.94626-42.6145 120.7568-42.55148 120.56734-42.45042 120.26442-42.3874 120.07599-42.3244 119.88757-42.22334 119.58604-42.16032 119.39864-42.0973 119.21123-41.99626 118.91158-41.93326 118.72517-41.87024 118.53879-41.76918 118.24062-41.70616 118.05518-41.64316 117.86975-41.54208 117.57304-41.47908 117.38864-41.41606 117.20422-41.31502 116.90938-41.252 116.72598-41.189 116.54259-41.08794 116.24924-41.02492 116.06679-40.9619 115.88435-40.86084 115.5925-40.79784 115.41107-40.73482 115.22964-40.63376 114.93958-40.57074 114.75925-40.50774 114.5789-40.40668 114.29059-40.34367 114.11128-40.28065 113.93198-40.1796 113.64516-40.11658 113.46681-40.05357 113.28847-39.95251 113.00313-39.8895 112.82579-39.82649 112.64847-39.72543 112.36497-39.66243 112.18866-39.59941 112.01234-39.49835 111.73035-39.43533 111.555-39.37233 111.37964-39.27127 111.09912-39.20825 110.92479-39.14523 110.75044-39.04419 110.47179-38.98119 110.29846-38.91817 110.12515-38.81711 109.8479-38.75409 109.67563-38.69109 109.50334-38.59001 109.22794-38.52701 109.05666-38.46399 108.88538-38.36295 108.61139-38.29993 108.44115-38.23692 108.2709-38.13586 107.99876-38.07285 107.82954-38.00983 107.66031-37.90877 107.38966-37.84576 107.2214-37.78275 107.05313-37.6817 106.78397-37.61868 106.61671-37.55568 106.44946-37.4546 106.18214-37.3916 106.01591-37.32858 105.84969-37.22752 105.58386-37.1645 105.41858-37.1015 105.25331-37.00044 104.98895-36.93742 104.8247-36.87442 104.66045-36.77336 104.39787-36.71036 104.23471-36.64734 104.07155-36.54628 103.81078-36.48326 103.64864-36.42026 103.48648-36.31918 103.22719-36.25618 103.066-36.19316 102.90482-36.09212 102.647-36.02911 102.48683-35.9661 102.32666-35.86504 102.07071-35.80202 101.91156-35.73901 101.75241-35.63794 101.49792-35.57494 101.33974-35.51192 101.18155-35.41087 100.92856-35.34785 100.77138-35.28485 100.61421-35.18379 100.36307-35.12077 100.20692-35.05775 100.05077-34.9567 99.80104-34.89369 99.64592-34.83067 99.4908-34.72963 99.24292-34.66661 99.0888-34.6036 98.93471-34.50253 98.68826-34.43953 98.53517-34.37651 98.3821-34.27545 98.13747-34.21243 97.98541-34.14943 97.83334-34.04837 97.59021-33.98535 97.43912-33.92235 97.28801-33.82129 97.04637-33.75829 96.89627-33.69527 96.74619-33.59421 96.50641-33.53119 96.35733-33.46819 96.20827-33.36711 95.96997-33.30411 95.82187-33.24109 95.67375-33.14005 95.43694-33.07704 95.28984-33.01402 95.14275-32.91296 94.9077-32.84995 94.7617-32.78694 94.6157-32.68587 94.38245-32.62286 94.23747-32.55984 94.09248-32.4588 93.86072-32.39578 93.71669-32.33278 93.57266-32.23172 93.34245-32.1687 93.19939-32.10568 93.05632-32.00462 92.82751-31.94162 92.68553-31.8786 92.54353-31.77756 92.31696-31.71454 92.176-31.65154 92.03502-31.55046 91.8095-31.48746 91.6695-31.42444 91.52948-31.32338 91.30586-31.26036 91.16689-31.19736 91.02791-31.0963 90.8057-31.03328 90.66774-30.97028 90.52979-30.86922 90.30942-30.80621 90.17247-30.7432 90.03554-30.64214 89.81667-30.57912 89.6807-30.51611 89.54471-30.41504 89.3273-30.35204 89.19234-30.28902 89.05737-30.18797 88.84178-30.12497 88.7079-30.06195 88.57402-29.96089 88.36028-29.89787 88.22736-29.83487 88.09442-29.7338 87.88173-29.67079 87.74983-29.60777 87.61792-29.50673 87.40752-29.44371 87.27663-29.3807 87.14574-29.27965 86.93639-29.21663 86.80647-29.15361 86.67654-29.05255 86.46902-28.98955 86.3402-28.92653 86.21135-28.82549 86.00569-28.76247 85.8778-28.69946 85.74992-28.59839 85.5453-28.53539 85.41846-28.47237 85.2916-28.3713 85.08926-28.30829 84.96342-28.24529 84.83759-28.14424 84.6363-28.08122 84.51143-28.01822 84.38654-27.91714 84.18712-27.85414 84.06331-27.79112 83.93951-27.69006 83.74188-27.62704 83.6191-27.56404 83.4963-27.46297 83.30014-27.39996 83.17833-27.33694 83.05652-27.2359 82.86185-27.1729 82.74104-27.10988 82.62025-27.00882 82.42741-26.9458 82.30763-26.8828 82.18787-26.78172 81.99652-26.71872 81.8777-26.6557 81.75888-26.55466 81.56902-26.49164 81.45122-26.42863 81.33342-26.32758 81.1454-26.26456 81.02863-26.20154 80.91183-26.10048 80.72527-26.03748 80.6095-25.97446 80.49374-25.87341 80.309-25.8104 80.19426-25.74739 80.07951-25.64632 79.89621-25.58331 79.78249-25.5203 79.66876-25.41924 79.48729-25.35622 79.3746-25.29321 79.2619-25.19217 79.08191-25.12915 78.97018-25.06615 78.85844-24.96507 78.67993-24.90207 78.56921-24.83905 78.4585-24.73799 78.28183-24.67497 78.17213-24.61197 78.06244-24.5109 77.8872-24.44789 77.77853-24.38487 77.66985-24.28383 77.49648-24.22083 77.38881-24.1578 77.28114-24.05675 77.10927-23.99373 77.00256-23.93073 76.89586-23.82965 76.72543-23.76665 76.61975-23.70363 76.51408-23.60258 76.34546-23.53957 76.24086-23.47656 76.13628-23.3755 75.96948-23.31248 75.86584-23.24947 75.7622-23.1484 75.59654-23.0854 75.49387-23.02238 75.39119-22.92134 75.22737-22.85832 75.12578-22.79532 75.02419-22.69424 74.86217-22.63124 74.76158-22.56822 74.66101-22.46716 74.50046-22.40414 74.40085-22.34114 74.30122-22.2401 74.14217-22.17708 74.04356-22.11407 73.94496-22.013 73.78777-21.95 73.69019-21.88698 73.5926-21.78592 73.43681-21.7229 73.34027-21.6599 73.24371-21.55882 73.08977-21.49582 72.99423-21.4328 72.89871-21.33176 72.74623-21.26875 72.65166-21.20573 72.55708-21.10468 72.4061-21.04166 72.31255-20.97865 72.219-20.87758 72.06987-20.81458 71.97733-20.75156 71.8848-20.65051 71.73709-20.5875 71.64558-20.52449 71.55406-20.42343 71.40822-20.36041 71.31772-20.2974 71.22722-20.19633 71.08284-20.13333 70.9933-20.07031 70.90376-19.96927 70.76086-19.90625 70.67236-19.84325 70.58386-19.74217 70.4428-19.67917 70.35532-19.61615 70.26782-19.51509 70.12819-19.45207 70.04172-19.38907 69.95526-19.28802 69.81747-19.225 69.73203-19.16199 69.64658-19.06093 69.51028-18.99792 69.42578-18.9349 69.3413-18.83385 69.2065-18.77083 69.12302-18.70782 69.03955-18.60677 68.90652-18.54376 68.82414-18.48074 68.74174-18.37968 68.61058-18.31668 68.52914-18.25366 68.44771-18.1526 68.31764-18.08958 68.23717-18.02658 68.15671-17.9255 68.0285-17.8625 67.94911-17.79948 67.86972-17.69844 67.74329-17.63542 67.66493-17.57242 67.58656-17.47136 67.46162-17.40834 67.38422-17.34532 67.30681-17.24426 67.18335-17.18126 67.10695-17.11824 67.03056-17.0172 66.90897-16.95418 66.83359-16.89117 66.75822-16.7901 66.63805-16.7271 66.56369-16.66408 66.48933-16.56302 66.371-16.5 66.29767-16.437 66.22433-16.33595 66.1075-16.27293 66.03513-16.20992 65.96274-16.10886 65.84738-16.04585 65.77603-15.98283 65.7047-15.88177 65.5911-15.81876 65.52084-15.75575 65.45058-15.6547 65.33884-15.59169 65.26953-15.52867 65.20023-15.42761 65.0896-15.36461 65.02126-15.30159 64.95291-15.20053 64.84413-15.13751 64.77687-15.07451 64.7096-14.97343 64.60265-14.91043 64.53639-14.84741 64.47014-14.74637 64.36465-14.68335 64.29936-14.62035 64.23407-14.51929 64.13005-14.45627 64.06578-14.39325 64.00151-14.29219 63.89935-14.22919 63.8361-14.16617 63.77287-14.06512 63.67216-14.0021 63.6099-13.9391 63.5476-13.83803 63.4484-13.77502 63.38713-13.712 63.32587-13.61095 63.22845-13.54793 63.16827-13.48492 63.1081-13.38388 63.01247-13.32086 62.9533-13.25784 62.89413-13.15678 62.79999-13.09378 62.74178-13.03076 62.68358-12.9297 62.59097-12.86668 62.53372-12.80368 62.47647-12.70262 62.38538-12.63962 62.32913-12.5766 62.2729-12.47554 62.18358-12.41254 62.12845-12.34952 62.0733-12.24846 61.98575-12.18544 61.93164-12.12244 61.87752-12.02138 61.79146-11.95837 61.7383-11.89536 61.68513-11.7943 61.60056-11.73128 61.54842-11.66827 61.49626-11.56721 61.41354-11.5042 61.36241-11.44118 61.3113-11.34012 61.23006-11.27711 61.17989-11.2141 61.12971-11.11305 61.04997-11.05003 61.00082-10.98703 60.95168-10.88596 60.87378-10.82295 60.82565-10.75993 60.77751-10.65887 60.70103-10.59586 60.65393-10.53285 60.60681-10.43181 60.53217-10.36879 60.4861-10.30577 60.44002-10.20471 60.36679-10.14171 60.32173-10.07869 60.27667-9.97763 60.2053-9.91461 60.16125-9.85161 60.11722-9.75055 60.04733-9.68755 60.00426-9.62453 59.96117-9.52347 59.89276-9.46046 59.8507-9.39745 59.80864-9.29639 59.74208-9.23337 59.70103-9.17036 59.65999-9.0693 59.59486-9.0063 59.55484-8.94328 59.51482-8.84222 59.45154-8.7792 59.41254-8.7162 59.37352-8.61514 59.31172-8.55212 59.2737-8.4891 59.23566-8.38805 59.17532-8.32504 59.1383-8.26202 59.10129-8.16098 59.04282-8.09796 59.00682-8.03496 58.97083-7.93388 58.91377-7.87088 58.87878-7.80786 58.84381-7.7068 58.7886-7.64378 58.75465-7.58078 58.72069-7.47974 58.66698-7.41672 58.63397-7.3537 58.60097-7.25264 58.54874-7.18964 58.51675-7.12662 58.48477-7.02556 58.43433-6.96254 58.40343-6.89954 58.37251-6.79848 58.32393-6.73547 58.294-6.67245 58.26407-6.5714 58.21657-6.50839 58.18759-6.44537 58.15862-6.34431 58.11298-6.2813 58.08508-6.21829 58.05719-6.11723 58.01334-6.05423 57.98647-5.99121 57.9596-5.89015 57.91722-5.82713 57.8913-5.76413 57.86539-5.66307 57.82451-5.60005 57.7996-5.53703 57.7747-5.43597 57.73567-5.37297 57.71179-5.30995 57.68791-5.20891 57.65031-5.14589 57.62746-5.08289 57.60458-4.98181 57.56885-4.91881 57.54701-4.85579 57.52516-4.75473 57.49088-4.69171 57.47-4.62871 57.44914-4.52766 57.41634-4.46465 57.39647-4.40163 57.37662-4.30057 57.34567-4.23756 57.32683-4.17455 57.308-4.07349 57.27847-4.01047 57.26067-3.94746 57.24284-3.8464 57.21518-3.7834 57.19838-3.72038 57.18158-3.61932 57.15538-3.55632 57.13954-3.4933 57.1237-3.39224 57.099-3.32922 57.08418-3.26622 57.06937-3.16516 57.04643-3.10216 57.03271-3.03914 57.01898-2.93808 56.99791-2.87506 56.98514-2.81206 56.97237-2.711 56.95233-2.64798 56.94058-2.58496 56.92883-2.48392 56.91109-2.42091 56.90036-2.3579 56.88963-2.25684 56.87294-2.19382 56.86316-2.13081 56.85338-2.02974 56.83861-1.96674 56.82985-1.90372 56.82109-1.80266 56.80775-1.73964 56.80002-1.67664 56.79227-1.57559 56.78078-1.51257 56.77406-1.44955 56.76735-1.3485 56.75726-1.28549 56.75156-1.22247 56.74586-1.12141 56.73764-1.0584 56.73297-.99539 56.7283-.89433 56.72154-.83133 56.71783-.76831 56.71413-.66725 56.70885-.60425 56.70615-.54123 56.70346-.44017 56.70003-.37715 56.69835-.31415 56.69669-.21307 56.69469-.15009 56.69403-.08708 56.69339 .01396 56.69327 .07698 56.69362 .13998 56.69395 .24104 56.69527 .30406 56.69664 .36708 56.698 .46812 56.70123 .53113 56.70355 .59415 56.70589 .6952 56.71014 .75822 56.7135 .82123 56.71686 .9223 56.72339 .9853 56.72777 1.04832 56.73215 1.14938 56.73967 1.2124 56.74507 1.2754 56.75047 1.37645 56.76028 1.43947 56.76671 1.50249 56.77312 1.60355 56.78398 1.66655 56.79137 1.72957 56.79874 1.83063 56.81152 1.89365 56.81992 1.95665 56.82831 2.05771 56.8425 2.12071 56.85191 2.18373 56.86131 2.28479 56.8774 2.3478 56.88782 2.41081 56.89824 2.51187 56.91573 2.57489 56.92717 2.6379 56.93863 2.73895 56.95795 2.80196 56.97043 2.86497 56.98291 2.96603 57.00371 3.02905 57.01714 3.09206 57.03058 3.19312 57.05287 3.25613 57.06732 3.31915 57.08177 3.4202 57.10591 3.4832 57.12138 3.54622 57.13686 3.64728 57.16241 3.7103 57.17891 3.7733 57.1954 3.87437 57.22282 3.93738 57.24034 4.0004 57.25784 4.10146 57.28674 4.16447 57.30522 4.22748 57.32368 4.32852 57.35405 4.39154 57.37355 4.45456 57.39305 4.55562 57.4252 4.61862 57.44579 4.68164 57.46637 4.7827 57.50038 4.84572 57.52193 4.90872 57.54346 5.00978 57.57857 5.07278 57.60106 5.1358 57.62357 5.23686 57.66054 5.29987 57.68411 5.36288 57.70769 5.46394 57.74646 5.52696 57.77106 5.58997 57.79565 5.69102 57.8359 5.75403 57.86147 5.81705 57.88701 5.9181 57.92874 5.98112 57.95532 6.04413 57.98189 6.14519 58.02547 6.2082 58.05307 6.27122 58.08066 6.37227 58.12566 6.43527 58.15428 6.49829 58.1829 6.59935 58.22974 6.66237 58.25938 6.72537 58.28903 6.82645 58.33736 6.88945 58.36795 6.95247 58.39856 7.05351 58.44836 7.11653 58.47998 7.17953 58.5116 7.2806 58.56328 7.34361 58.59592 7.40663 58.62856 7.50769 58.68164 7.5707 58.71529 7.63371 58.74895 7.73477 58.8039 7.79779 58.83856 7.8608 58.87325 7.96185 58.92966 8.02486 58.96529 8.08788 59.00092 8.18893 59.05882 8.25194 59.09549 8.31496 59.13216 8.41602 59.1919 8.47903 59.22957 8.54204 59.26726 8.6431 59.32841 8.7061 59.36713 8.76912 59.40582 8.87018 59.46884 8.9332 59.50856 8.9962 59.54828 9.09726 59.61273 9.16028 59.65347 9.2233 59.69421 9.32434 59.76048 9.38734 59.80225 9.45036 59.84401 9.55142 59.91179 9.61444 59.95451 9.67744 59.99722 9.77852 60.0665 9.84152 60.11023 9.90454 60.15396 10.00558 60.22508 10.0686 60.26984 10.1316 60.31459 10.23267 60.38716 10.29568 60.43289 10.3587 60.47862 10.45976 60.55267 10.52277 60.59943 10.58578 60.64618 10.68684 60.72202 10.74986 60.76984 10.81287 60.81767 10.91393 60.89532 10.97693 60.94417 11.03995 60.99301 11.141 61.07213 11.20403 61.12193 11.26703 61.17174 11.36809 61.2524 11.4311 61.30316 11.49411 61.35391 11.59517 61.43602 11.65817 61.48785 11.72119 61.5397 11.82225 61.62401 11.88527 61.67688 11.94827 61.72975 12.04933 61.8151 12.11235 61.86893 12.17537 61.92276 12.27641 62.01003 12.33942 62.06487 12.40244 62.11972 12.5035 62.20839 12.56651 62.26425 12.62952 62.32013 12.73059 62.41066 12.7936 62.46754 12.85661 62.52444 12.95766 62.61647 13.02068 62.67432 13.08368 62.73216 13.18474 62.82567 13.24776 62.88452 13.31078 62.94339 13.41183 63.0387 13.47484 63.09863 13.53786 63.15857 13.63892 63.25572 13.70193 63.31664 13.76494 63.37753 13.866 63.47572 13.929 63.53764 13.99202 63.59958 14.09308 63.70006 14.1561 63.763 14.2191 63.82596 14.32016 63.92747 14.38318 63.99138 14.44618 64.0553 14.54724 64.15872 14.61024 64.22365 14.67326 64.28857 14.77432 64.39345 14.83734 64.4594 14.90034 64.52533 15.0014 64.63205 15.06442 64.69902 15.12744 64.76599 15.22849 64.87411 15.29149 64.9421 15.3545 65.01009 15.45557 65.12009 15.51859 65.18909 15.58159 65.25809 15.68266 65.3695 15.74567 65.43953 15.80869 65.50954 15.90973 65.62286 15.97275 65.69385 16.03575 65.76485 16.13681 65.87921 16.19983 65.95122 16.26285 66.02324 16.3639 66.13986 16.42691 66.21289 16.48993 66.28592 16.59097 66.40363 16.65399 66.47762 16.717 66.5516 16.81807 66.67116 16.88107 66.74623 16.94409 66.82129 17.04515 66.94263 17.10817 67.01872 17.17117 67.0948 17.27223 67.21764 17.33525 67.29468 17.39825 67.37172 17.49931 67.49602 17.56232 67.5741 17.62534 67.65218 17.7264 67.77832 17.78941 67.8574 17.85242 67.93651 17.95348 68.06407 18.0165 68.14418 18.07951 68.2243 18.18056 68.35371 18.24356 68.43484 18.30658 68.51598 18.40764 68.64688 18.47066 68.72897 18.53366 68.81107 18.63474 68.94345 18.69774 69.02657 18.76076 69.10968 18.8618 69.24391 18.92482 69.32803 18.98782 69.41217 19.08888 69.54782 19.1519 69.63298 19.21492 69.71812 19.31598 69.85565 19.37898 69.94182 19.442 70.02798 19.54305 70.16696 19.60606 70.25409 19.66907 70.34123 19.77014 70.4817 19.83315 70.56985 19.89616 70.65802 19.99722 70.80034 20.06024 70.88951 20.12325 70.97868 20.2243 71.12242 20.28732 71.21262 20.35033 71.30281 20.45139 71.4484 20.51439 71.53961 20.57741 71.63081 20.67847 71.7779 20.74149 71.87007 20.80449 71.96223 20.90555 72.1108 20.96857 72.20398 21.03159 72.29716 21.13263 72.44751 21.19563 72.5418 21.25865 72.63608 21.35971 72.78827 21.42273 72.8835 21.48573 72.97874 21.5868 73.13199 21.64981 73.22824 21.71283 73.3245 21.81387 73.48001 21.87689 73.5773 21.9399 73.67458 22.04095 73.83113 22.10397 73.92937 22.16699 74.0276 22.26805 74.1861 22.33105 74.28535 22.39407 74.38461 22.49512 74.54453 22.55814 74.64479 22.62114 74.74507 22.72221 74.90685 22.78522 75.00813 22.84824 75.10942 22.9493 75.2726 23.01231 75.37491 23.07532 75.47722 23.17638 75.64226 23.2394 75.7456 23.3024 75.84894 23.40346 76.01544 23.46646 76.11975 23.52948 76.22404 23.63054 76.39203 23.69356 76.49734 23.75656 76.60268 23.85762 76.77246 23.92064 76.87886 23.98366 76.98526 24.0847 77.15689 24.1477 77.26425 24.21072 77.3716 24.31178 77.54436 24.3748 77.65266 24.4378 77.76099 24.53888 77.93558 24.60188 78.04497 24.6649 78.15437 24.76595 78.33076 24.82896 78.44118 24.89197 78.55159 24.99303 78.72946 25.05605 78.84084 25.11906 78.95222 25.22012 79.13156 25.28313 79.24397 25.34615 79.35637 25.44719 79.53757 25.51021 79.65099 25.57321 79.7644 25.67429 79.9471 25.73729 80.06146 25.80031 80.17584 25.90137 80.36 25.96439 80.4754 26.02739 80.5908 26.12843 80.77676 26.19145 80.89325 26.25446 81.00972 26.35553 81.19746 26.41853 81.31497 26.48155 81.43246 26.58261 81.62169 26.64563 81.74014 26.70863 81.8586 26.8097 82.04938 26.87271 82.1688 26.93573 82.28822 27.03677 82.48045 27.09978 82.6009 27.1628 82.72134 27.26385 82.91537 27.32687 83.0369 27.38988 83.15842 27.49095 83.35425 27.55396 83.47679 27.61697 83.59933 27.71802 83.79665 27.78104 83.92014 27.84404 84.04364 27.9451 84.24245 28.00812 84.36696 28.07114 84.49149 28.1722 84.69211 28.2352 84.81766 28.29822 84.94319 28.39926 85.14532 28.46228 85.27182 28.52528 85.39832 28.62636 85.60194 28.68936 85.72945 28.75238 85.85696 28.85344 86.06242 28.91646 86.19096 28.97946 86.31952 29.0805 86.52637 29.14352 86.65593 29.20653 86.7855 29.3076 86.99423 29.3706 87.12482 29.43362 87.2554 29.53468 87.46555 29.5977 87.59715 29.6607 87.72876 29.76176 87.94075 29.82478 88.07336 29.8878 88.206 29.98885 88.41948 30.05185 88.55305 30.11487 88.68663 30.21593 88.9016 30.27895 89.0362 30.34195 89.1708 30.44302 89.38762 30.50603 89.52324 30.56905 89.65886 30.67009 89.87709 30.73311 90.01373 30.79611 90.15039 30.89717 90.37047 30.96019 90.50813 31.02321 90.6458 31.12427 90.86736 31.18727 91.00598 31.25029 91.1446 31.35133 91.36763 31.41435 91.50728 31.47736 91.64693 31.57843 91.87183 31.64143 92.0125 31.70445 92.15315 31.80551 92.37949 31.86853 92.52116 31.93153 92.66284 32.03258 92.891 32.0956 93.0337 32.1586 93.1764 32.25967 93.40607 32.32268 93.54973 32.3857 93.69339 32.48676 93.92451 32.54977 94.06921 32.61278 94.2139 32.71382 94.44687 32.77684 94.59259 32.83986 94.7383 32.94092 94.97269 33.00392 95.11942 33.06694 95.26614 33.168 95.5024 33.23102 95.65015 33.29402 95.79788 33.3951 96.03555 33.4581 96.18433 33.52112 96.33308 33.62216 96.57262 33.68518 96.7224 33.74818 96.87218 33.84924 97.11319 33.91226 97.26393 33.97528 97.41467 34.07634 97.65717 34.13934 97.80893 34.20236 97.9607 34.3034 98.20503 34.36642 98.35783 34.42943 98.51062 34.5305 98.75636 34.5935 98.91017 34.65652 99.064 34.75758 99.31158 34.8206 99.46642 34.8836 99.62125 34.98465 99.87033 35.04767 100.02612 35.11067 100.18192 35.21175 100.43248 35.27475 100.5893 35.33777 100.74611 35.43883 100.99852 35.50185 101.15634 35.56485 101.31416 35.6659 101.56801 35.72891 101.72685 35.79193 101.8857 35.89299 102.14142 35.956 102.30128 36.01901 102.46115 36.12007 102.71834 36.18309 102.87915 36.2461 103.03998 36.34717 103.29861 36.41017 103.46048 36.47319 103.62233 36.57423 103.88283 36.63725 104.0457 36.70026 104.20859 36.80132 104.47049 36.86433 104.63438 36.92735 104.79828 37.02841 105.06206 37.09142 105.22696 37.15443 105.39188 37.25548 105.65707 37.3185 105.823 37.3815 105.98894 37.48257 106.25598 37.54558 106.42293 37.6086 106.58987 37.70966 106.85841 37.77267 107.0263 37.83568 107.19421 37.93672 107.46423 37.99974 107.63318 38.06274 107.80211 38.16382 108.07396 38.22682 108.24391 38.28984 108.41388 38.3909 108.68715 38.45392 108.85812 38.51692 109.0291 38.61797 109.30423 38.68098 109.47621 38.744 109.64821 38.84506 109.92482 38.90807 110.09776 38.97108 110.27072 39.07214 110.54883 39.13516 110.7228 39.19817 110.89677 39.29924 111.17671 39.36224 111.3517 39.42526 111.52669 39.5263 111.80806 39.58932 111.98407 39.65233 112.16008 39.75339 112.44331 39.8164 112.62033 39.87943 112.79736 39.98048 113.08205 40.04349 113.26006 40.1065 113.43805 40.20755 113.72423 40.27057 113.90324 40.33357 114.08226 40.43465 114.37029 40.49765 114.55032 40.56067 114.73036 40.66173 115.0198 40.72475 115.20085 40.78775 115.38191 40.8888 115.67322 40.95181 115.85529 41.01482 116.03737 41.11589 116.33008 41.1789 116.51317 41.24191 116.69626 41.34297 116.99084 41.40599 117.17496 41.469 117.35907 41.57005 117.65512 41.63306 117.8402 41.69608 118.02527 41.79713 118.3228 41.86014 118.5089 41.92316 118.695 42.02422 118.99437 42.08723 119.1815 42.15024 119.36862 42.2513 119.66942 42.3143 119.85756 42.37732 120.0457 42.47838 120.34836 42.5414 120.5375 42.6044 120.72667 42.70546 121.0308 42.76848 121.22092 42.8315 121.41103 42.93256 121.71666 42.99556 121.90779 43.05858 122.09892 43.15962 122.4064 43.22264 122.59856 43.28564 122.79071 43.38672 123.09961 43.44972 123.29279 43.51274 123.48595 43.6138 123.7967 43.67682 123.9909 43.73982 124.18509 43.84087 124.49731 43.90388 124.69247 43.96689 124.88763 44.06796 125.20132 44.13097 125.3975 44.19398 125.59369 44.29504 125.90924 44.35806 126.10645 44.42107 126.30363 44.52213 126.62062 44.58513 126.81883 44.64815 127.01706 44.7492 127.33586 44.81221 127.53511 44.87523 127.73434 44.97629 128.0546 45.0393 128.25485 45.10231 128.45511 45.20337 128.7772 45.26637 128.97849 45.32939 129.17977 45.43045 129.50334 45.49347 129.70558 45.55647 129.90784 45.65753 130.23288 45.72055 130.43614 45.78357 130.6394 45.88463 130.96631 45.94763 131.1706 46.01065 131.37488 46.1117 131.70326 46.17471 131.90851 46.23772 132.11374 46.33879 132.4436 46.4018 132.64987 46.46481 132.85613 46.56587 133.18779 46.62889 133.39513 46.6919 133.60248 46.79294 133.93593 46.85596 134.14429 46.91896 134.35265 47.02003 134.68759 47.08304 134.89691 47.14606 135.10622 47.24712 135.4427 47.31013 135.65297 47.37314 135.86325 47.4742 136.2012 47.5372 136.4125 47.60022 136.62383 47.70128 136.96356 47.76428 137.17594 47.8273 137.38832 47.92836 137.72988 47.99138 137.94329 48.05438 138.15668 48.15544 138.49968 48.21844 138.71405 48.28146 138.9284 48.38252 139.27292 48.44554 139.4883 48.50854 139.70368 48.6096 140.05004 48.67262 140.26644 48.73564 140.48284 48.8367 140.83066 48.8997 141.04802 48.96272 141.26538 49.06377 141.6147 49.12679 141.83309 49.18979 142.05146 49.29086 142.40256 49.35387 142.62204 49.41689 142.8415 49.51794 143.19445 49.58096 143.41487 49.64397 143.63532 49.74501 143.98937 49.80803 144.21076 49.87103 144.43213 49.9721 144.78804 50.03511 145.01052 50.09813 145.23297 50.19919 145.59069 50.2622 145.81417 50.32521 146.03765 50.42627 146.39684 50.48927 146.62128 50.55229 146.84572 50.65335 147.20639 50.71635 147.43186 50.77937 147.6573 50.88043 148.01985 50.94345 148.24633 51.00645 148.47281 51.10751 148.83676 51.17052 149.06426 51.23354 149.29175 51.3346 149.65755 51.39761 149.88608 51.46062 150.11461 51.56168 150.48181 51.6247 150.71137 51.68771 150.9409 51.78876 151.31003 51.85176 151.54053 51.91478 151.77104 52.01584 152.1412 52.07886 152.37274 52.14186 152.60427 52.24294 152.97673 52.30594 153.20928 52.36896 153.44182 52.47002 153.81533 52.53304 154.04883 52.59604 154.28234 52.69708 154.65769 52.7601 154.89228 52.8231 155.12685 52.92418 155.504 52.98718 155.73961 53.0502 155.97522 53.15126 156.35385 53.21428 156.59043 53.27728 156.827 53.37834 157.20709 53.44135 157.44467 53.50436 157.68227 53.60542 158.06423 53.66843 158.30283 53.73145 158.54145 53.8325 158.92482 53.89552 159.16445 53.95853 159.40409 54.05959 159.7893 54.12259 160.02996 54.18561 160.2706 54.28667 160.65734 54.34969 160.89893 54.41269 161.14054 54.51375 161.52873 54.57677 161.77136 54.63979 162.01398 54.74083 162.40404 54.80383 162.64768 54.86685 162.89131 54.96791 163.28279 55.03093 163.52747 55.09393 163.77214 55.195 164.16544 55.25801 164.41114 55.32103 164.65683 55.42209 165.05162 55.4851 165.29828 55.54811 165.54494 55.64915 165.94121 55.71217 166.18888 55.77518 166.43654 55.87625 166.83467 55.93925 167.08336 56.00227 167.33205 56.10333 167.7316 56.16635 167.98131 56.22935 168.23102 56.33041 168.63242 56.39342 168.88315 56.45644 169.13388 56.6205 169.78844 56.6205 169.78844"/>
<use data-text="y" xlink:href="#font_1_6" transform="matrix(9.9626,0,0,-9.963197,124.196,11.815918)" fill="#ff0000"/>
<use data-text="=" xlink:href="#font_2_6" transform="matrix(9.9626,0,0,-9.963197,132.206,11.815918)" fill="#ff0000"/>
<use data-text="g" xlink:href="#font_1_3" transform="matrix(9.9626,0,0,-9.963197,142.722,11.815918)" fill="#ff0000"/>
<use data-text="(" xlink:href="#font_2_1" transform="matrix(9.9626,0,0,-9.963197,147.831,11.815918)" fill="#ff0000"/>
<use data-text="x" xlink:href="#font_1_5" transform="matrix(9.9626,0,0,-9.963197,151.706,11.815918)" fill="#ff0000"/>
<use data-text=")" xlink:href="#font_2_2" transform="matrix(9.9626,0,0,-9.963197,157.39899,11.815918)" fill="#ff0000"/>
<path transform="matrix(1,0,0,-1.00006,63.856004,187.82448)" stroke-width=".79701" stroke-linecap="butt" stroke-miterlimit="10" stroke-linejoin="miter" fill="none" stroke="#00ff00" d="M-56.69362 28.3468C-56.69362 28.3468-56.52954 27.6913-56.46652 27.4402-56.40352 27.18912-56.30244 26.78712-56.23944 26.53705-56.17642 26.28699-56.07536 25.88681-56.01234 25.6378-55.94934 25.38881-55.8483 24.99043-55.78528 24.74246-55.72226 24.49449-55.6212 24.09758-55.5582 23.85056-55.49518 23.60355-55.39412 23.20811-55.3311 22.96213-55.2681 22.71614-55.16704 22.32254-55.10403 22.07758-55.04102 21.83261-54.93996 21.4405-54.87694 21.1965-54.81393 20.9525-54.71288 20.56189-54.64986 20.3189-54.58685 20.07591-54.4858 19.68713-54.42279 19.44516-54.35977 19.20319-54.25871 18.81584-54.1957 18.57489-54.13269 18.33394-54.03163 17.94846-53.96861 17.70851-53.9056 17.46858-53.80455 17.08452-53.74155 16.84561-53.67853 16.60669-53.57747 16.22447-53.51445 15.98659-53.45145 15.7487-53.35037 15.36795-53.28737 15.13103-53.22435 14.8941-53.12329 14.51483-53.06027 14.27892-52.99727 14.04301-52.89622 13.66562-52.8332 13.43073-52.77019 13.19585-52.66913 12.81984-52.60612 12.58597-52.5431 12.3521-52.44205 11.97797-52.37903 11.74512-52.31602 11.51227-52.21497 11.13962-52.15196 10.90773-52.08894 10.67584-51.98788 10.30467-51.92487 10.07379-51.86186 9.84293-51.7608 9.47359-51.69778 9.24376-51.63478 9.01392-51.53372 8.646-51.47072 8.41718-51.4077 8.18835-51.30664 7.8223-51.24362 7.5945-51.18062 7.36668-51.07956 7.00204-51.01654 6.77525-50.95352 6.54848-50.85248 6.18576-50.78947 5.95993-50.72646 5.7341-50.6254 5.37244-50.56238 5.14763-50.49937 4.92282-50.3983 4.56343-50.3353 4.33965-50.27228 4.11584-50.17122 3.75745-50.1082 3.53468-50.0452 3.3119-49.94415 2.95581-49.88113 2.73405-49.81812 2.5123-49.71706 2.15723-49.65405 1.93645-49.59103 1.71567-49.48997 1.36246-49.42696 1.14276-49.36395 .92305-49.2629 .57167-49.19989 .35294-49.13687 .1342-49.03581-.21605-48.9728-.43382-48.90979-.65161-48.80873-1.00002-48.74571-1.21672-48.68271-1.43341-48.58165-1.78003-48.51865-1.99571-48.45563-2.2114-48.35457-2.55658-48.29155-2.77126-48.22855-2.98592-48.12749-3.32921-48.06447-3.54291-48.00145-3.75659-47.9004-4.09885-47.8374-4.31152-47.77438-4.52419-47.67332-4.86415-47.6103-5.0758-47.5473-5.28748-47.44623-5.62639-47.38322-5.83708-47.3202-6.04778-47.21916-6.38484-47.15614-6.59445-47.09314-6.80408-46.99208-7.13934-46.92906-7.34795-46.86604-7.55655-46.76498-7.89032-46.70198-8.09796-46.63896-8.3056-46.5379-8.6379-46.47488-8.84451-46.41188-9.05115-46.31082-9.38159-46.24782-9.58719-46.1848-9.7928-46.08374-10.12177-46.02072-10.32639-45.95772-10.53102-45.85666-10.85852-45.79364-11.06213-45.73064-11.26575-45.62958-11.59146-45.56657-11.79399-45.50356-11.99652-45.4025-12.32043-45.33948-12.52196-45.27647-12.72346-45.17542-13.0459-45.1124-13.24646-45.04938-13.44702-44.94833-13.7679-44.88533-13.9675-44.82231-14.1671-44.72125-14.48651-44.65823-14.68509-44.59523-14.88367-44.49416-15.20128-44.43115-15.39877-44.36813-15.59628-44.26709-15.9121-44.20407-16.10857-44.14107-16.30504-44.04001-16.61938-43.97699-16.8149-43.91397-17.0104-43.81291-17.32323-43.74991-17.51778-43.68689-17.71234-43.58583-18.02371-43.52281-18.2172-43.45981-18.41068-43.35875-18.71982-43.29575-18.91228-43.23273-19.10474-43.13167-19.41284-43.06865-19.60434-43.00565-19.79584-42.90459-20.10202-42.84157-20.29251-42.77856-20.48299-42.6775-20.78775-42.6145-20.97722-42.55148-21.16669-42.45042-21.46959-42.3874-21.65802-42.3244-21.84645-42.22334-22.14796-42.16032-22.33537-42.0973-22.52278-41.99626-22.82245-41.93326-23.00883-41.87024-23.19524-41.76918-23.49341-41.70616-23.67883-41.64316-23.86427-41.54208-24.16096-41.47908-24.34538-41.41606-24.5298-41.31502-24.82465-41.252-25.00804-41.189-25.19144-41.08794-25.48479-41.02492-25.66722-40.9619-25.84967-40.86084-26.14153-40.79784-26.32295-40.73482-26.50436-40.63376-26.79443-40.57074-26.97478-40.50774-27.15512-40.40668-27.44342-40.34367-27.62273-40.28065-27.80203-40.1796-28.08885-40.11658-28.26721-40.05357-28.44556-39.95251-28.7309-39.8895-28.90823-39.82649-29.08556-39.72543-29.36905-39.66243-29.54535-39.59941-29.72166-39.49835-30.00366-39.43533-30.17902-39.37233-30.35437-39.27127-30.6349-39.20825-30.80923-39.14523-30.98357-39.04419-31.26224-38.98119-31.43556-38.91817-31.60887-38.81711-31.88611-38.75409-32.0584-38.69109-32.23068-38.59001-32.50607-38.52701-32.67735-38.46399-32.84863-38.36295-33.12262-38.29993-33.29288-38.23692-33.46312-38.13586-33.73524-38.07285-33.90448-38.00983-34.0737-37.90877-34.34435-37.84576-34.51262-37.78275-34.6809-37.6817-34.95006-37.61868-35.11731-37.55568-35.28456-37.4546-35.55186-37.3916-35.71811-37.32858-35.88434-37.22752-36.15016-37.1645-36.31543-37.1015-36.48071-37.00044-36.74506-36.93742-36.90932-36.87442-37.07358-36.77336-37.33614-36.71036-37.4993-36.64734-37.66248-36.54628-37.92325-36.48326-38.08539-36.42026-38.24753-36.31918-38.50684-36.25618-38.66801-36.19316-38.82921-36.09212-39.08702-36.02911-39.24718-35.9661-39.40735-35.86504-39.6633-35.80202-39.82246-35.73901-39.98161-35.63794-40.23608-35.57494-40.39427-35.51192-40.55247-35.41087-40.80547-35.34785-40.96263-35.28485-41.11981-35.18379-41.37094-35.12077-41.5271-35.05775-41.68326-34.9567-41.93298-34.89369-42.0881-34.83067-42.24323-34.72963-42.4911-34.66661-42.6452-34.6036-42.7993-34.50253-43.04576-34.43953-43.19885-34.37651-43.35193-34.27545-43.59654-34.21243-43.74861-34.14943-43.90068-34.04837-44.1438-33.98535-44.2949-33.92235-44.44601-33.82129-44.68765-33.75829-44.83774-33.69527-44.98782-33.59421-45.22762-33.53119-45.37668-33.46819-45.52576-33.36711-45.76404-33.30411-45.91216-33.24109-46.06027-33.14005-46.29709-33.07704-46.44418-33.01402-46.59128-32.91296-46.82631-32.84995-46.9723-32.78694-47.11832-32.68587-47.35158-32.62286-47.49655-32.55984-47.64154-32.4588-47.8733-32.39578-48.01732-32.33278-48.16135-32.23172-48.39157-32.1687-48.53464-32.10568-48.6777-32.00462-48.90651-31.94162-49.0485-31.8786-49.19048-31.77756-49.41707-31.71454-49.55803-31.65154-49.699-31.55046-49.92451-31.48746-50.06453-31.42444-50.20454-31.32338-50.42816-31.26036-50.56714-31.19736-50.70612-31.0963-50.92833-31.03328-51.06628-30.97028-51.20424-30.86922-51.4246-30.80621-51.56154-30.7432-51.69849-30.64214-51.91734-30.57912-52.05333-30.51611-52.18932-30.41504-52.40671-30.35204-52.54167-30.28902-52.67664-30.18797-52.89224-30.12497-53.02612-30.06195-53.16-29.96089-53.37375-29.89787-53.50667-29.83487-53.6396-29.7338-53.85228-29.67079-53.98419-29.60777-54.1161-29.50673-54.32649-29.44371-54.45738-29.3807-54.58827-29.27965-54.79764-29.21663-54.92755-29.15361-55.05746-29.05255-55.26498-28.98955-55.39383-28.92653-55.52266-28.82549-55.72833-28.76247-55.85622-28.69946-55.98409-28.59839-56.1887-28.53539-56.31557-28.47237-56.44243-28.3713-56.64476-28.30829-56.7706-28.24529-56.89644-28.14424-57.09772-28.08122-57.2226-28.01822-57.34747-27.91714-57.5469-27.85414-57.6707-27.79112-57.79451-27.69006-57.99214-27.62704-58.11491-27.56404-58.2377-27.46297-58.43387-27.39996-58.5557-27.33694-58.6775-27.2359-58.87218-27.1729-58.99297-27.10988-59.11377-27.00882-59.30661-26.9458-59.42638-26.8828-59.54616-26.78172-59.7375-26.71872-59.85632-26.6557-59.97514-26.55466-60.165-26.49164-60.2828-26.42863-60.4006-26.32758-60.58862-26.26456-60.7054-26.20154-60.82217-26.10048-61.00876-26.03748-61.12451-25.97446-61.24028-25.87341-61.42502-25.8104-61.53976-25.74739-61.65451-25.64632-61.83781-25.58331-61.95154-25.5203-62.06526-25.41924-62.24673-25.35622-62.35942-25.29321-62.4721-25.19217-62.6521-25.12915-62.76384-25.06615-62.87558-24.96507-63.0541-24.90207-63.16481-24.83905-63.27553-24.73799-63.45218-24.67497-63.56187-24.61197-63.67159-24.5109-63.84682-24.44789-63.95549-24.38487-64.06416-24.28383-64.23755-24.22083-64.34521-24.1578-64.45287-24.05675-64.62476-23.99373-64.73146-23.93073-64.83817-23.82965-65.00859-23.76665-65.11426-23.70363-65.21992-23.60258-65.38857-23.53957-65.49315-23.47656-65.59775-23.3755-65.76454-23.31248-65.86818-23.24947-65.9718-23.1484-66.13748-23.0854-66.24016-23.02238-66.34282-22.92134-66.50664-22.85832-66.60823-22.79532-66.70982-22.69424-66.87186-22.63124-66.97243-22.56822-67.07301-22.46716-67.23355-22.40414-67.33318-22.34114-67.43279-22.2401-67.59184-22.17708-67.69044-22.11407-67.78905-22.013-67.94626-21.95-68.04384-21.88698-68.14142-21.78592-68.29721-21.7229-68.39375-21.6599-68.4903-21.55882-68.64426-21.49582-68.73978-21.4328-68.83531-21.33176-68.9878-21.26875-69.08235-21.20573-69.17693-21.10468-69.32791-21.04166-69.42146-20.97865-69.51501-20.87758-69.66415-20.81458-69.75668-20.75156-69.84923-20.65051-69.99692-20.5875-70.08844-20.52449-70.17996-20.42343-70.3258-20.36041-70.4163-20.2974-70.5068-20.19633-70.65117-20.13333-70.7407-20.07031-70.83025-19.96927-70.97314-19.90625-71.06166-19.84325-71.15016-19.74217-71.29121-19.67917-71.37871-19.61615-71.4662-19.51509-71.60582-19.45207-71.69229-19.38907-71.77876-19.28802-71.91653-19.225-72.00198-19.16199-72.08743-19.06093-72.22374-18.99792-72.30823-18.9349-72.39273-18.83385-72.52753-18.77083-72.611-18.70782-72.69447-18.60677-72.82748-18.54376-72.90988-18.48074-72.99228-18.37968-73.12344-18.31668-73.20488-18.25366-73.28632-18.1526-73.41638-18.08958-73.49684-18.02658-73.57732-17.9255-73.70552-17.8625-73.78491-17.79948-73.86429-17.69844-73.99072-17.63542-74.06909-17.57242-74.14746-17.47136-74.27238-17.40834-74.3498-17.34532-74.4272-17.24426-74.55067-17.18126-74.62706-17.11824-74.70346-17.0172-74.82506-16.95418-74.90042-16.89117-74.9758-16.7901-75.09598-16.7271-75.17032-16.66408-75.24467-16.56302-75.363-16.5-75.43634-16.437-75.50967-16.33595-75.62653-16.27293-75.6989-16.20992-75.77127-16.10886-75.88664-16.04585-75.95798-15.98283-76.02933-15.88177-76.14291-15.81876-76.21318-15.75575-76.28345-15.6547-76.39517-15.59169-76.46448-15.52867-76.53378-15.42761-76.64441-15.36461-76.71277-15.30159-76.78111-15.20053-76.88988-15.13751-76.95715-15.07451-77.02441-14.97343-77.13138-14.91043-77.19763-14.84741-77.26389-14.74637-77.36937-14.68335-77.43466-14.62035-77.49995-14.51929-77.60396-14.45627-77.66824-14.39325-77.73251-14.29219-77.83467-14.22919-77.8979-14.16617-77.96115-14.06512-78.06184-14.0021-78.12413-13.9391-78.18642-13.83803-78.28561-13.77502-78.34688-13.712-78.40814-13.61095-78.50557-13.54793-78.56575-13.48492-78.62593-13.38388-78.72156-13.32086-78.78072-13.25784-78.83989-13.15678-78.93404-13.09378-78.99223-13.03076-79.05045-12.9297-79.14304-12.86668-79.20029-12.80368-79.25754-12.70262-79.34865-12.63962-79.40488-12.5766-79.46112-12.47554-79.55045-12.41254-79.60558-12.34952-79.66072-12.24846-79.74826-12.18544-79.80238-12.12244-79.8565-12.02138-79.94257-11.95837-79.99573-11.89536-80.04889-11.7943-80.13347-11.73128-80.18561-11.66827-80.23775-11.56721-80.32048-11.5042-80.37161-11.44118-80.42273-11.34012-80.50397-11.27711-80.55414-11.2141-80.60431-11.11305-80.68405-11.05003-80.7332-10.98703-80.78235-10.88596-80.86024-10.82295-80.90837-10.75993-80.9565-10.65887-81.03299-10.59586-81.0801-10.53285-81.1272-10.43181-81.20184-10.36879-81.24792-10.30577-81.294-10.20471-81.36723-10.14171-81.4123-10.07869-81.45735-9.97763-81.52872-9.91461-81.57275-9.85161-81.6168-9.75055-81.68668-9.68755-81.72977-9.62453-81.77284-9.52347-81.84126-9.46046-81.88332-9.39745-81.92538-9.29639-81.99194-9.23337-82.03299-9.17036-82.07404-9.0693-82.13916-9.0063-82.17918-8.94328-82.21921-8.84222-82.28249-8.7792-82.32149-8.7162-82.36049-8.61514-82.42229-8.55212-82.46033-8.4891-82.49837-8.38805-82.5587-8.32504-82.59572-8.26202-82.63274-8.16098-82.6912-8.09796-82.7272-8.03496-82.7632-7.93388-82.82025-7.87088-82.85522-7.80786-82.89021-7.7068-82.9454-7.64378-82.97937-7.58078-83.01334-7.47974-83.06703-7.41672-83.10004-7.3537-83.13304-7.25264-83.18527-7.18964-83.21727-7.12662-83.24925-7.02556-83.29968-6.96254-83.3306-6.89954-83.3615-6.79848-83.41008-6.73547-83.44002-6.67245-83.46996-6.5714-83.51746-6.50839-83.54643-6.44537-83.57541-6.34431-83.62105-6.2813-83.64894-6.21829-83.67683-6.11723-83.72067-6.05423-83.74756-5.99121-83.77443-5.89015-83.8168-5.82713-83.84271-5.76413-83.86864-5.66307-83.90952-5.60005-83.93442-5.53703-83.95932-5.43597-83.99834-5.37297-84.02222-5.30995-84.04611-5.20891-84.0837-5.14589-84.10657-5.08289-84.12943-4.98181-84.16516-4.91881-84.18701-4.85579-84.20886-4.75473-84.24313-4.69171-84.264-4.62871-84.28488-4.52766-84.31769-4.46465-84.33754-4.40163-84.35739-4.30057-84.38835-4.23756-84.40718-4.17455-84.42603-4.07349-84.45554-4.01047-84.47336-3.94746-84.49118-3.8464-84.51884-3.7834-84.53564-3.72038-84.55244-3.61932-84.57863-3.55632-84.59447-3.4933-84.6103-3.39224-84.63501-3.32922-84.64984-3.26622-84.66466-3.16516-84.68759-3.10216-84.70131-3.03914-84.71504-2.93808-84.73611-2.87506-84.74887-2.81206-84.76164-2.711-84.78168-2.64798-84.79344-2.58496-84.80519-2.48392-84.82292-2.42091-84.83366-2.3579-84.84439-2.25684-84.86108-2.19382-84.87086-2.13081-84.88063-2.02974-84.89542-1.96674-84.90416-1.90372-84.91292-1.80266-84.92627-1.73964-84.934-1.67664-84.94174-1.57559-84.95323-1.51257-84.95996-1.44955-84.96667-1.3485-84.97676-1.28549-84.98245-1.22247-84.98816-1.12141-84.99638-1.0584-85.00105-.99539-85.00572-.89433-85.01248-.83133-85.01619-.76831-85.0199-.66725-85.02518-.60425-85.02786-.54123-85.03056-.44017-85.034-.37715-85.03566-.31415-85.03734-.21307-85.03932-.15009-85.03998-.08708-85.04063 .01396-85.04077 .07698-85.04042 .13998-85.04007 .24104-85.03876 .30406-85.03738 .36708-85.03601 .46812-85.03279 .53113-85.03047 .59415-85.02814 .6952-85.02388 .75822-85.02052 .82123-85.01717 .9223-85.01062 .9853-85.00624 1.04832-85.00188 1.14938-84.99434 1.2124-84.98895 1.2754-84.98355 1.37645-84.97372 1.43947-84.96732 1.50249-84.9609 1.60355-84.95003 1.66655-84.94266 1.72957-84.93529 1.83063-84.9225 1.89365-84.91411 1.95665-84.90572 2.05771-84.89153 2.12071-84.88211 2.18373-84.8727 2.28479-84.85663 2.3478-84.8462 2.41081-84.83577 2.51187-84.81828 2.57489-84.80684 2.6379-84.7954 2.73895-84.77608 2.80196-84.7636 2.86497-84.75111 2.96603-84.73032 3.02905-84.71687 3.09206-84.70345 3.19312-84.68115 3.25613-84.6667 3.31915-84.65224 3.4202-84.62811 3.4832-84.61264 3.54622-84.59717 3.64728-84.57161 3.7103-84.55511 3.7733-84.53862 3.87437-84.5112 3.93738-84.49368 4.0004-84.47617 4.10146-84.44727 4.16447-84.4288 4.22748-84.41032 4.32852-84.37997 4.39154-84.36047 4.45456-84.34096 4.55562-84.3088 4.61862-84.28822 4.68164-84.26764 4.7827-84.23364 4.84572-84.2121 4.90872-84.19055 5.00978-84.15546 5.07278-84.13295 5.1358-84.11046 5.23686-84.07349 5.29987-84.04991 5.36288-84.02632 5.46394-83.98756 5.52696-83.96297 5.58997-83.93837 5.69102-83.89812 5.75403-83.87256 5.81705-83.847 5.9181-83.80528 5.98112-83.7787 6.04413-83.75214 6.14519-83.70854 6.2082-83.68095 6.27122-83.65337 6.37227-83.60837 6.43527-83.57974 6.49829-83.55112 6.59935-83.50427 6.66237-83.47464 6.72537-83.44499 6.82645-83.39667 6.88945-83.36606 6.95247-83.33546 7.05351-83.28566 7.11653-83.25404 7.17953-83.22241 7.2806-83.17075 7.34361-83.1381 7.40663-83.10547 7.50769-83.05238 7.5707-83.01872 7.63371-82.98506 7.73477-82.93013 7.79779-82.89545 7.8608-82.86078 7.96185-82.80437 8.02486-82.76872 8.08788-82.7331 8.18893-82.67519 8.25194-82.63852 8.31496-82.60185 8.41602-82.54213 8.47903-82.50444 8.54204-82.46675 8.6431-82.4056 8.7061-82.3669 8.76912-82.32819 8.87018-82.26518 8.9332-82.22546 8.9962-82.18573 9.09726-82.12129 9.16028-82.08055 9.2233-82.03981 9.32434-81.97353 9.38734-81.93176 9.45036-81.89001 9.55142-81.82222 9.61444-81.77951 9.67744-81.73679 9.77852-81.66753 9.84152-81.6238 9.90454-81.58006 10.00558-81.50894 10.0686-81.46419 10.1316-81.41943 10.23267-81.34686 10.29568-81.30113 10.3587-81.2554 10.45976-81.18134 10.52277-81.1346 10.58578-81.08784 10.68684-81.01201 10.74986-80.96417 10.81287-80.91635 10.91393-80.8387 10.97693-80.78986 11.03995-80.74101 11.141-80.66188 11.20403-80.61209 11.26703-80.56229 11.36809-80.48163 11.4311-80.43086 11.49411-80.3801 11.59517-80.298 11.65817-80.24615 11.72119-80.19432 11.82225-80.11002 11.88527-80.05714 11.94827-80.00427 12.04933-79.91891 12.11235-79.8651 12.17537-79.81126 12.27641-79.724 12.33942-79.66916 12.40244-79.6143 12.5035-79.52563 12.56651-79.46976 12.62952-79.4139 12.73059-79.32335 12.7936-79.26646 12.85661-79.20958 12.95766-79.11755 13.02068-79.05971 13.08368-79.00186 13.18474-78.90836 13.24776-78.84949 13.31078-78.79063 13.41183-78.69533 13.47484-78.63539 13.53786-78.57544 13.63892-78.47829 13.70193-78.41739 13.76494-78.35649 13.866-78.2583 13.929-78.19637 13.99202-78.13443 14.09308-78.03397 14.1561-77.97101 14.2191-77.90807 14.32016-77.80655 14.38318-77.74263 14.44618-77.67873 14.54724-77.57529 14.61024-77.51036 14.67326-77.44543 14.77432-77.34058 14.83734-77.27463 14.90034-77.20868 15.0014-77.10196 15.06442-77.035 15.12744-76.96803 15.22849-76.85991 15.29149-76.79192 15.3545-76.72394 15.45557-76.61394 15.51859-76.54494 15.58159-76.47594 15.68266-76.36452 15.74567-76.2945 15.80869-76.22447 15.90973-76.11116 15.97275-76.04016 16.03575-75.96918 16.13681-75.85481 16.19983-75.78279 16.26285-75.71078 16.3639-75.59416 16.42691-75.52112 16.48993-75.44809 16.59097-75.33038 16.65399-75.2564 16.717-75.1824 16.81807-75.06287 16.88107-74.9878 16.94409-74.91272 17.04515-74.79138 17.10817-74.7153 17.17117-74.6392 17.27223-74.51639 17.33525-74.43933 17.39825-74.36229 17.49931-74.238 17.56232-74.15993 17.62534-74.08185 17.7264-73.9557 17.78941-73.8766 17.85242-73.79752 17.95348-73.66995 18.0165-73.58983 18.07951-73.50972 18.18056-73.38031 18.24356-73.29918 18.30658-73.21805 18.40764-73.08714 18.47066-73.00505 18.53366-72.92296 18.63474-72.79056 18.69774-72.70746 18.76076-72.62434 18.8618-72.49011 18.92482-72.40598 18.98782-72.32185 19.08888-72.18619 19.1519-72.10104 19.21492-72.0159 19.31598-71.87837 19.37898-71.7922 19.442-71.70604 19.54305-71.56706 19.60606-71.47992 19.66907-71.39279 19.77014-71.25232 19.83315-71.16417 19.89616-71.076 19.99722-70.93369 20.06024-70.84451 20.12325-70.75534 20.2243-70.6116 20.28732-70.52141 20.35033-70.43121 20.45139-70.28563 20.51439-70.19441 20.57741-70.1032 20.67847-69.95612 20.74149-69.86395 20.80449-69.77179 20.90555-69.62323 20.96857-69.53004 21.03159-69.43686 21.13263-69.2865 21.19563-69.19223 21.25865-69.09795 21.35971-68.94576 21.42273-68.85051 21.48573-68.75528 21.5868-68.60204 21.64981-68.50578 21.71283-68.40952 21.81387-68.254 21.87689-68.15672 21.9399-68.05945 22.04095-67.90288 22.10397-67.80464 22.16699-67.7064 22.26805-67.54791 22.33105-67.44867 22.39407-67.34941 22.49512-67.1895 22.55814-67.08923 22.62114-66.98895 22.72221-66.82718 22.78522-66.72589 22.84824-66.62459 22.9493-66.46141 23.01231-66.3591 23.07532-66.25679 23.17638-66.09177 23.2394-65.98842 23.3024-65.88507 23.40346-65.71857 23.46646-65.61427 23.52948-65.50996 23.63054-65.34198 23.69356-65.23666 23.75656-65.13135 23.85762-64.96156 23.92064-64.85516 23.98366-64.74876 24.0847-64.57713 24.1477-64.46977 24.21072-64.36241 24.31178-64.18967 24.3748-64.08134 24.4378-63.97304 24.53888-63.79845 24.60188-63.68904 24.6649-63.57965 24.76595-63.40324 24.82896-63.29283 24.89197-63.18242 24.99303-63.00456 25.05605-62.89317 25.11906-62.78178 25.22012-62.60245 25.28313-62.49005 25.34615-62.37764 25.44719-62.19646 25.51021-62.08304 25.57321-61.9696 25.67429-61.78693 25.73729-61.67255 25.80031-61.55817 25.90137-61.37401 25.96439-61.25862 26.02739-61.14322 26.12843-60.95724 26.19145-60.84077 26.25446-60.72429 26.35553-60.53654 26.41853-60.41905 26.48155-60.30156 26.58261-60.11232 26.64563-59.99387 26.70863-59.87541 26.8097-59.68465 26.87271-59.56522 26.93573-59.4458 27.03677-59.25357 27.09978-59.13312 27.1628-59.01268 27.26385-58.81865 27.32687-58.69713 27.38988-58.5756 27.49095-58.37978 27.55396-58.25723 27.61697-58.13469 27.71802-57.93738 27.78104-57.81387 27.84404-57.69037 27.9451-57.49158 28.00812-57.36707 28.07114-57.24254 28.1722-57.0419 28.2352-56.91637 28.29822-56.79083 28.39926-56.58868 28.46228-56.46219 28.52528-56.3357 28.62636-56.13208 28.68936-56.00456 28.75238-55.87706 28.85344-55.6716 28.91646-55.54305 28.97946-55.4145 29.0805-55.20764 29.14352-55.07808 29.20653-54.94852 29.3076-54.73979 29.3706-54.6092 29.43362-54.47862 29.53468-54.26848 29.5977-54.13687 29.6607-54.00526 29.76176-53.79327 29.82478-53.66064 29.8878-53.52803 29.98885-53.31454 30.05185-53.18097 30.11487-53.0474 30.21593-52.83241 30.27895-52.69781 30.34195-52.56322 30.44302-52.34639 30.50603-52.21077 30.56905-52.07516 30.67009-51.85693 30.73311-51.72029 30.79611-51.58363 30.89717-51.36356 30.96019-51.22589 31.02321-51.08821 31.12427-50.86667 31.18727-50.72804 31.25029-50.58942 31.35133-50.36638 31.41435-50.22673 31.47736-50.0871 31.57843-49.8622 31.64143-49.72153 31.70445-49.58087 31.80551-49.35454 31.86853-49.21286 31.93153-49.07117 32.03258-48.843 32.0956-48.7003 32.1586-48.5576 32.25967-48.32794 32.32268-48.1843 32.3857-48.04063 32.48676-47.8095 32.54977-47.66481 32.61278-47.52011 32.71382-47.28714 32.77684-47.14143 32.83986-46.99573 32.94092-46.76134 33.00392-46.61461 33.06694-46.46788 33.168-46.23163 33.23102-46.08388 33.29402-45.93613 33.3951-45.69846 33.4581-45.5497 33.52112-45.40092 33.62216-45.1614 33.68518-45.01163 33.74818-44.86183 33.84924-44.62082 33.91226-44.47008 33.97528-44.31934 34.07634-44.07686 34.13934-43.9251 34.20236-43.77333 34.3034-43.52899 34.36642-43.37619 34.42943-43.2234 34.5305-42.97766 34.5935-42.82384 34.65652-42.67003 34.75758-42.42244 34.8206-42.26761 34.8836-42.11278 34.98465-41.8637 35.04767-41.7079 35.11067-41.55211 35.21175-41.30153 35.27475-41.14473 35.33777-40.98792 35.43883-40.7355 35.50185-40.57768 35.56485-40.41985 35.6659-40.166 35.72891-40.00716 35.79193-39.84831 35.89299-39.5926 35.956-39.43274 36.01901-39.27287 36.12007-39.01569 36.18309-38.85486 36.2461-38.69405 36.34717-38.4354 36.41017-38.27354 36.47319-38.11168 36.57423-37.85118 36.63725-37.68831 36.70026-37.52544 36.80132-37.26352 36.86433-37.09962 36.92735-36.93573 37.02841-36.67197 37.09142-36.50705 37.15443-36.34215 37.25548-36.07695 37.3185-35.91101 37.3815-35.74509 37.48257-35.47804 37.54558-35.31108 37.6086-35.14413 37.70966-34.87561 37.77267-34.7077 37.83568-34.5398 37.93672-34.26978 37.99974-34.10085 38.06274-33.9319 38.16382-33.66006 38.22682-33.4901 38.28984-33.32014 38.3909-33.04688 38.45392-32.8759 38.51692-32.70493 38.61797-32.4298 38.68098-32.2578 38.744-32.0858 38.84506-31.8092 38.90807-31.63625 38.97108-31.4633 39.07214-31.1852 39.13516-31.01122 39.19817-30.83725 39.29924-30.55731 39.36224-30.38232 39.42526-30.20732 39.5263-29.92595 39.58932-29.74994 39.65233-29.57393 39.75339-29.29071 39.8164-29.11368 39.87943-28.93666 39.98048-28.65196 40.04349-28.47397 40.1065-28.29596 40.20755-28.0098 40.27057-27.83076 40.33357-27.65175 40.43465-27.36374 40.49765-27.1837 40.56067-27.00366 40.66173-26.71422 40.72475-26.53316 40.78775-26.35211 40.8888-26.0608 40.95181-25.87872 41.01482-25.69666 41.11589-25.40395 41.1789-25.22086 41.24191-25.03775 41.34297-24.74318 41.40599-24.55907 41.469-24.37495 41.57005-24.07889 41.63306-23.89383 41.69608-23.70876 41.79713-23.41122 41.86014-23.22511 41.92316-23.03902 42.02422-22.73964 42.08723-22.55252 42.15024-22.3654 42.2513-22.0646 42.3143-21.87646 42.37732-21.68832 42.47838-21.38567 42.5414-21.1965 42.6044-21.00735 42.70546-20.70322 42.76848-20.5131 42.8315-20.32298 42.93256-20.01736 42.99556-19.82623 43.05858-19.6351 43.15962-19.32762 43.22264-19.13547 43.28564-18.94331 43.38672-18.63441 43.44972-18.44124 43.51274-18.24806 43.6138-17.9373 43.67682-17.74312 43.73982-17.54893 43.84087-17.23671 43.90388-17.04155 43.96689-16.84639 44.06796-16.53268 44.13097-16.3365 44.19398-16.14034 44.29504-15.82478 44.35806-15.62758 44.42107-15.43037 44.52213-15.1134 44.58513-14.91519 44.64815-14.71696 44.7492-14.39815 44.81221-14.19891 44.87523-13.99968 44.97629-13.67941 45.0393-13.47916 45.10231-13.2789 45.20337-12.9568 45.26637-12.75554 45.32939-12.55426 45.43045-12.23068 45.49347-12.02844 45.55647-11.82619 45.65753-11.50114 45.72055-11.29788 45.78357-11.0946 45.88463-10.7677 45.94763-10.56342 46.01065-10.35913 46.1117-10.03076 46.17471-9.82552 46.23772-9.62027 46.33879-9.2904 46.4018-9.08415 46.46481-8.87788 46.56587-8.54622 46.62889-8.33888 46.6919-8.13155 46.79294-7.7981 46.85596-7.58974 46.91896-7.38138 47.02003-7.04643 47.08304-6.83711 47.14606-6.62779 47.24712-6.29132 47.31013-6.08104 47.37314-5.87077 47.4742-5.5328 47.5372-5.3215 47.60022-5.1102 47.70128-4.77046 47.76428-4.55807 47.8273-4.34569 47.92836-4.00415 47.99138-3.79074 48.05438-3.57733 48.15544-3.23433 48.21844-3.01997 48.28146-2.8056 48.38252-2.4611 48.44554-2.24571 48.50854-2.03033 48.6096-1.68399 48.67262-1.46759 48.73564-1.25119 48.8367-.90335 48.8997-.68599 48.96272-.46864 49.06377-.11932 49.12679 .09903 49.18979 .31741 49.29086 .66852 49.35387 .88799 49.41689 1.10745 49.51794 1.4604 49.58096 1.68083 49.64397 1.90126 49.74501 2.25531 49.80803 2.4767 49.87103 2.69809 49.9721 3.054 50.03511 3.27646 50.09813 3.49893 50.19919 3.85663 50.2622 4.08011 50.32521 4.30359 50.42627 4.6628 50.48927 4.88724 50.55229 5.11168 50.65335 5.47234 50.71635 5.6978 50.77937 5.92326 50.88043 6.2858 50.94345 6.51228 51.00645 6.73875 51.10751 7.1027 51.17052 7.3302 51.23354 7.55771 51.3346 7.9235 51.39761 8.15202 51.46062 8.38055 51.56168 8.74776 51.6247 8.97731 51.68771 9.20686 51.78876 9.57597 51.85176 9.80649 51.91478 10.03699 52.01584 10.40717 52.07886 10.63869 52.14186 10.87021 52.24294 11.24268 52.30594 11.47522 52.36896 11.70776 52.47002 12.08128 52.53304 12.31477 52.59604 12.54828 52.69708 12.92363 52.7601 13.15822 52.8231 13.39279 52.92418 13.76994 52.98718 14.00555 53.0502 14.24118 53.15126 14.6198 53.21428 14.85637 53.27728 15.09294 53.37834 15.47304 53.44135 15.71063 53.50436 15.94823 53.60542 16.33017 53.66843 16.56879 53.73145 16.80739 53.8325 17.19077 53.89552 17.4304 53.95853 17.67003 54.05959 18.05527 54.12259 18.29591 54.18561 18.53656 54.28667 18.92328 54.34969 19.16489 54.41269 19.4065 54.51375 19.7947 54.57677 20.03731 54.63979 20.27994 54.74083 20.66998 54.80383 20.91364 54.86685 21.15727 54.96791 21.54874 55.03093 21.79341 55.09393 22.03809 55.195 22.4314 55.25801 22.6771 55.32103 22.92278 55.42209 23.31758 55.4851 23.56422 55.54811 23.81088 55.64915 24.20715 55.71217 24.45482 55.77518 24.7025 55.87625 25.10062 55.93925 25.3493 56.00227 25.59799 56.10333 25.99754 56.16635 26.24725 56.22935 26.49696 56.33041 26.89838 56.39342 27.1491 56.45644 27.39983 56.6205 28.0544 56.6205 28.0544"/>
<use data-text="y" xlink:href="#font_1_6" transform="matrix(9.9626,0,0,-9.963197,124.196,153.55843)" fill="#00ff00"/>
<use data-text="=" xlink:href="#font_2_6" transform="matrix(9.9626,0,0,-9.963197,132.206,153.55843)" fill="#00ff00"/>
<use data-text="h" xlink:href="#font_1_4" transform="matrix(9.9626,0,0,-9.963197,142.722,153.55843)" fill="#00ff00"/>
<use data-text="(" xlink:href="#font_2_1" transform="matrix(9.9626,0,0,-9.963197,148.462,153.55843)" fill="#00ff00"/>
<use data-text="x" xlink:href="#font_1_5" transform="matrix(9.9626,0,0,-9.963197,152.336,153.55843)" fill="#00ff00"/>
<use data-text=")" xlink:href="#font_2_2" transform="matrix(9.9626,0,0,-9.963197,158.03,153.55843)" fill="#00ff00"/>
<use data-text="&#x2022;" xlink:href="#font_3_2" transform="matrix(9.9626,0,0,-9.963197,61.365007,190.0386)"/>
<use data-text="(" xlink:href="#font_2_1" transform="matrix(9.9626,0,0,-9.963197,67.376,198.81714)"/>
<use data-text="0" xlink:href="#font_2_3" transform="matrix(9.9626,0,0,-9.963197,71.24149,198.81714)"/>
<use data-text="," xlink:href="#font_1_1" transform="matrix(9.9626,0,0,-9.963197,76.232,198.81714)"/>
<use data-text="0" xlink:href="#font_2_3" transform="matrix(9.9626,0,0,-9.963197,80.659999,198.81714)"/>
<use data-text=")" xlink:href="#font_2_2" transform="matrix(9.9626,0,0,-9.963197,85.64129,198.81714)"/>
<use data-text="&#x2022;" xlink:href="#font_3_2" transform="matrix(9.9626,0,0,-9.963197,61.365007,133.34122)"/>
<use data-text="(" xlink:href="#font_2_1" transform="matrix(9.9626,0,0,-9.963197,67.376,142.11974)"/>
<use data-text="0" xlink:href="#font_2_3" transform="matrix(9.9626,0,0,-9.963197,71.24149,142.11974)"/>
<use data-text="," xlink:href="#font_1_1" transform="matrix(9.9626,0,0,-9.963197,76.232,142.11974)"/>
<use data-text="2" xlink:href="#font_2_4" transform="matrix(9.9626,0,0,-9.963197,80.659999,142.11974)"/>
<use data-text=")" xlink:href="#font_2_2" transform="matrix(9.9626,0,0,-9.963197,85.64129,142.11974)"/>
<use data-text="&#x2022;" xlink:href="#font_3_2" transform="matrix(9.9626,0,0,-9.963197,61.365007,275.0837)"/>
<use data-text="(" xlink:href="#font_2_1" transform="matrix(9.9626,0,0,-9.963197,67.376,283.86225)"/>
<use data-text="0" xlink:href="#font_2_3" transform="matrix(9.9626,0,0,-9.963197,71.24149,283.86225)"/>
<use data-text="," xlink:href="#font_1_1" transform="matrix(9.9626,0,0,-9.963197,76.232,283.86225)"/>
<use data-text="&#x2212;" xlink:href="#font_3_1" transform="matrix(9.9626,0,0,-9.963197,80.659999,283.86225)"/>
<use data-text="3" xlink:href="#font_2_5" transform="matrix(9.9626,0,0,-9.963197,88.40899,283.86225)"/>
<use data-text=")" xlink:href="#font_2_2" transform="matrix(9.9626,0,0,-9.963197,93.39028,283.86225)"/>
</svg>
