<svg xmlns="http://www.w3.org/2000/svg" xmlns:xlink="http://www.w3.org/1999/xlink" version="1.1" width="238" height="129" viewBox="0 0 238 129">
<defs>
<path id="font_1_1" d="M.33399964 .30233766C.33999635 .32835389 .36299134 .42037965 .43299867 .42037965 .43798829 .42037965 .46199037 .42037965 .48298646 .40734864 .45498658 .402359 .43499757 .37734986 .43499757 .35334779 .43499757 .33735658 .44599916 .31835938 .47299195 .31835938 .49499513 .31835938 .5269928 .3363495 .5269928 .37635804 .5269928 .42837525 .46798707 .4423828 .43399049 .4423828 .37599183 .4423828 .34098817 .38935853 .32899476 .36634828 .3039856 .43237306 .25 .4423828 .22099304 .4423828 .116989139 .4423828 .05999756 .3133545 .05999756 .28834535 .05999756 .27833558 .069992069 .27833558 .07199097 .27833558 .07998657 .27833558 .08299255 .28033448 .084991458 .28933717 .11898804 .39535523 .18499756 .42037965 .21899414 .42037965 .23799134 .42037965 .272995 .4113617 .272995 .35334779 .272995 .32235719 .2559967 .25532533 .21899414 .11528015 .20298767 .053268434 .16799927 .011245728 .12399292 .011245728 .117996219 .011245728 .09498596 .011245728 .07398987 .024276734 .09899902 .029266358 .12098694 .05027771 .12098694 .07827759 .12098694 .105270389 .09899902 .11328125 .083999637 .11328125 .053985597 .11328125 .0289917 .08728027 .0289917 .055267335 .0289917 .009246826 .07899475-.0107421879 .12298584-.0107421879 .18899536-.0107421879 .22499085 .059280397 .22799683 .0652771 .23999024 .028274537 .27598573-.0107421879 .33599855-.0107421879 .43899537-.0107421879 .49598695 .118270877 .49598695 .14328003 .49598695 .1532898 .4869995 .1532898 .48399354 .1532898 .47499085 .1532898 .47299195 .14929199 .47099305 .14228821 .43798829 .03527832 .36999513 .011245728 .33799745 .011245728 .29899598 .011245728 .2829895 .043273927 .2829895 .07727051 .2829895 .09927368 .2889862 .121276859 .2999878 .16529846L.33399964 .30233766Z"/>
<path id="font_1_2" d="M.48599244 .38136292C.48999024 .39537049 .48999024 .39736939 .48999024 .40437318 .48999024 .42237855 .47599793 .43138124 .46099855 .43138124 .45098878 .43138124 .43499757 .42536927 .42599488 .41036988 .42399598 .405365 .41600038 .37435914 .4119873 .35635377 .40499879 .33035279 .397995 .30334474 .3919983 .27633668L.34700013 .09628296C.34298707 .08126831 .2999878 .011245728 .23399353 .011245728 .18299866 .011245728 .17199707 .055267335 .17199707 .0922699 .17199707 .1382904 .18899536 .20030213 .22299195 .28833009 .23899842 .3293457 .24299622 .3403473 .24299622 .36035157 .24299622 .405365 .21099854 .4423828 .16099549 .4423828 .06599426 .4423828 .0289917 .29733277 .0289917 .28833009 .0289917 .27833558 .038986207 .27833558 .040985109 .27833558 .050994874 .27833558 .051986696 .28033448 .056991579 .29634095 .083999637 .3903656 .12399292 .42037965 .1579895 .42037965 .1659851 .42037965 .18299866 .42037965 .18299866 .3883667 .18299866 .36335755 .17298889 .3373413 .1659851 .31834413 .12599182 .21231079 .10798645 .1552887 .10798645 .10827637 .10798645 .019256592 .17098999-.0107421879 .22999573-.0107421879 .2689972-.0107421879 .30299378 .0062561037 .33099366 .03425598 .31799317-.017745972 .30599977-.06674194 .2659912-.11973572 .23999024-.15385437 .20199585-.18309021 .1559906-.18309021 .14199829-.18309021 .09700012-.18005371 .07998657-.14074707 .09599304-.14074707 .10899353-.14074707 .12298584-.1287384 .1329956-.11973572 .14299011-.10673523 .14299011-.08773804 .14299011-.056747438 .115997318-.052734376 .10598755-.052734376 .08299255-.052734376 .049987794-.068740848 .049987794-.11773682 .049987794-.16796875 .09399414-.20507813 .1559906-.20507813 .25898744-.20507813 .3619995-.11373901 .3899994-.00074768069L.48599244 .38136292Z"/>
<path id="font_2_1" d="M.44400025 .24998474C.44400025 .35688783 .35499574 .44381715 .25 .44381715 .14199829 .44381715 .054992677 .35488893 .054992677 .24998474 .054992677 .14407349 .14199829 .056137086 .25 .056137086 .35499574 .056137086 .44400025 .14308167 .44400025 .24998474Z"/>
<clipPath id="clip_3">
<path transform="matrix(1.00005,0,0,-1.0001,114.88583,124.102108)" d="M-113.38724 0V113.38724H113.38724V0ZM113.38724 113.38724"/>
</clipPath>
</defs>
<path transform="matrix(1.00005,0,0,-1.0001,114.88583,124.102108)" stroke-width=".19925" stroke-linecap="butt" stroke-miterlimit="10" stroke-linejoin="miter" fill="none" stroke="#929292" stroke-opacity=".5" d="M-113.38724 0H113.38724M-113.38724 28.3468H113.38724M-113.38724 56.69362H113.38724M-113.38724 85.04042H113.38724M-113.38724 113.37727H113.38724M-113.38724 0V113.38724M-85.04042 0V113.38724M-56.69362 0V113.38724M-28.3468 0V113.38724M0 0V113.38724M28.3468 0V113.38724M56.69362 0V113.38724M85.04042 0V113.38724M113.37727 0V113.38724M113.38724 113.38724"/>
<path transform="matrix(1.00005,0,0,-1.0001,114.88583,124.102108)" stroke-width="1.19553" stroke-linecap="butt" stroke-miterlimit="10" stroke-linejoin="miter" fill="none" stroke="#000000" d="M-113.38724 0H118.10008"/>
<path transform="matrix(1.00005,0,0,-1.0001,232.99182,124.102108)" stroke-width=".9564" stroke-linecap="round" stroke-linejoin="round" fill="none" stroke="#000000" d="M-1.91284 2.55046C-1.75343 1.59402 0 .15938 .4782 0 0-.15938-1.75343-1.59402-1.91284-2.55046"/>
<use data-text="x" xlink:href="#font_1_1" transform="matrix(9.963098,0,0,-9.963596,231.10164,120.183719)"/>
<path transform="matrix(1.00005,0,0,-1.0001,114.88583,124.102108)" stroke-width="1.19553" stroke-linecap="butt" stroke-miterlimit="10" stroke-linejoin="miter" fill="none" stroke="#000000" d="M0 0V118.10008"/>
<path transform="matrix(0,-1.0001,-1.00005,-0,114.88583,5.9902117)" stroke-width=".9564" stroke-linecap="round" stroke-linejoin="round" fill="none" stroke="#000000" d="M-1.91284 2.55046C-1.75343 1.59402 0 .15938 .4782 0 0-.15938-1.75343-1.59402-1.91284-2.55046"/>
<use data-text="y" xlink:href="#font_1_2" transform="matrix(9.963098,0,0,-9.963596,118.80403,6.2103197)"/>
<use data-text="&#x2022;" xlink:href="#font_2_1" transform="matrix(9.963098,0,0,-9.963596,112.39471,126.31633)"/>
<g clip-path="url(#clip_3)">
<path transform="matrix(1.00005,0,0,-1.0001,114.88583,124.102108)" stroke-width=".79701" stroke-linecap="butt" stroke-miterlimit="10" stroke-linejoin="miter" fill="none" stroke="#0000ff" d="M-113.38724 453.54896C-113.38724 453.54896-113.22316 452.23719-113.16014 451.734-113.09714 451.23088-112.99606 450.42469-112.93306 449.92256-112.87004 449.42045-112.76898 448.616-112.70596 448.11497-112.64296 447.61396-112.54192 446.8113-112.4789 446.3113-112.4159 445.81126-112.31482 445.01014-112.25182 444.51106-112.1888 444.012-112.08774 443.21238-112.02472 442.71434-111.96172 442.21626-111.86066 441.41847-111.79765 440.92143-111.73463 440.4244-111.63358 439.62809-111.57057 439.13203-111.50755 438.63594-111.4065 437.84114-111.34348 437.34608-111.28047 436.85105-111.17941 436.05805-111.11641 435.564-111.05339 435.06999-110.95233 434.27845-110.88931 433.78544-110.82631 433.29243-110.72525 432.5027-110.66223 432.0107-110.59921 431.5187-110.49817 430.73045-110.43517 430.23948-110.37215 429.7485-110.27109 428.96208-110.20807 428.4721-110.14507 427.98219-110.04399 427.19725-109.98099 426.70826-109.91797 426.21925-109.81691 425.43577-109.75389 424.9478-109.69089 424.4598-109.58984 423.67823-109.52682 423.19129-109.46382 422.7043-109.36275 421.92414-109.29974 421.4382-109.23672 420.95228-109.13567 420.1739-109.07265 419.689-109.00964 419.2041-108.90858 418.42723-108.84558 417.94328-108.78256 417.45936-108.6815 416.68394-108.6185 416.20103-108.55548 415.7181-108.45442 414.94456-108.3914 414.46266-108.3284 413.98075-108.22734 413.20863-108.16434 412.72776-108.10132 412.24684-108.00026 411.4766-107.93724 410.99674-107.87424 410.51686-107.77318 409.748-107.71016 409.26918-107.64714 408.7903-107.5461 408.02339-107.4831 407.5455-107.42007 407.0676-107.31902 406.3017-107.256 405.82487-107.193 405.348-107.09192 404.5844-107.02892 404.10859-106.9659 403.63273-106.86484 402.8701-106.80182 402.39527-106.73882 401.92045-106.63777 401.1601-106.57475 400.6863-106.51175 400.21253-106.41068 399.45323-106.34767 398.98039-106.28465 398.50755-106.1836 397.7501-106.12057 397.27836-106.05757 396.80659-105.95651 396.051-105.89351 395.5802-105.83049 395.1094-105.72943 394.35493-105.66643 393.8851-105.60341 393.41526-105.50235 392.66264-105.43933 392.19386-105.37633 391.72508-105.27527 390.97428-105.21227 390.50654-105.14925 390.0388-105.04819 389.28938-104.98517 388.82267-104.92216 388.35597-104.8211 387.60844-104.75809 387.14268-104.69507 386.67695-104.59402 385.93049-104.53102 385.46574-104.468 385.00099-104.36694 384.2568-104.30392 383.7931-104.24092 383.32939-104.13985 382.5863-104.07684 382.12355-104.01382 381.66075-103.91278 380.9195-103.84976 380.45783-103.78676 379.99613-103.6857 379.25669-103.62268 378.796-103.55968 378.33534-103.4586 377.59736-103.3956 377.13768-103.33258 376.67796-103.23152 375.94145-103.1685 375.48277-103.1055 375.0241-103.00444 374.2894-102.94144 373.83177-102.87842 373.3741-102.77736 372.6409-102.71436 372.18424-102.65134 371.7275-102.55028 370.99583-102.48726 370.54017-102.42426 370.08448-102.3232 369.35456-102.2602 368.89997-102.19717 368.44538-102.09612 367.71726-102.0331 367.26368-101.9701 366.8101-101.86903 366.08345-101.80602 365.63084-101.743 365.1782-101.64195 364.45314-101.57895 364.00148-101.51593 363.54985-101.41487 362.8262-101.35185 362.37556-101.28885 361.92494-101.18777 361.2031-101.12477 360.75355-101.06175 360.304-100.96071 359.58396-100.89769 359.1354-100.83469 358.6869-100.73363 357.96833-100.67061 357.52076-100.6076 357.07319-100.50653 356.35618-100.44353 355.90956-100.38051 355.46293-100.27945 354.74736-100.21643 354.3018-100.15343 353.85627-100.05237 353.1429-99.98936 352.6984-99.92635 352.25386-99.82529 351.54158-99.76228 351.098-99.69926 350.65446-99.5982 349.94404-99.53519 349.5015-99.47218 349.059-99.37112 348.34996-99.30812 347.90846-99.2451 347.46696-99.14404 346.7598-99.08102 346.3193-99.01802 345.87886-98.91696 345.1731-98.85394 344.73365-98.79092 344.29417-98.68988 343.5903-98.62688 343.15184-98.56386 342.71339-98.4628 342.011-98.39978 341.5735-98.33678 341.136-98.2357 340.43513-98.1727 339.99864-98.10968 339.56217-98.00864 338.8631-97.94562 338.42768-97.88261 337.9922-97.78156 337.29463-97.71854 336.86015-97.65553 336.42567-97.55446 335.72956-97.49146 335.2961-97.42844 334.86265-97.32738 334.16835-97.26436 333.73594-97.20135 333.30354-97.1003 332.61103-97.0373 332.17967-96.97427 331.7483-96.87321 331.05726-96.81021 330.62684-96.7472 330.1964-96.64613 329.50688-96.58311 329.07749-96.52011 328.6481-96.41905 327.9604-96.35605 327.53205-96.29303 327.10365-96.19197 326.41746-96.12895 325.99006-96.06595 325.5626-95.96489 324.87788-95.90187 324.45149-95.83885 324.0251-95.73781 323.34223-95.6748 322.91685-95.61179 322.4915-95.51073 321.81-95.44771 321.38566-95.3847 320.9613-95.28363 320.2817-95.22063 319.85838-95.15761 319.43504-95.05656 318.75685-94.99355 318.33457-94.93054 317.91224-94.82948 317.2359-94.76646 316.8146-94.70346 316.3933-94.60239 315.71846-94.53938 315.2981-94.47636 314.87779-94.37532 314.2044-94.3123 313.7851-94.2493 313.3658-94.14822 312.69429-94.08522 312.27598-94.0222 311.8577-93.92114 311.18766-93.85814 310.77033-93.79512 310.35298-93.69406 309.68443-93.63104 309.2681-93.56804 308.8518-93.46698 308.185-93.40398 307.76979-93.34096 307.35459-93.2399 306.68959-93.17688 306.2754-93.11388 305.86116-93.01282 305.1977-92.9498 304.78443-92.88678 304.37117-92.78574 303.70918-92.72273 303.2969-92.65971 302.8847-92.55865 302.22453-92.49564 301.81333-92.43263 301.4021-92.33156 300.7434-92.26855 300.33317-92.20554 299.92295-92.10449 299.26573-92.04147 298.85649-91.97847 298.44728-91.87741 297.7919-91.81439 297.3837-91.75137 296.9755-91.65031 296.32157-91.58731 295.91438-91.52429 295.50718-91.42325 294.8551-91.36023 294.4489-91.29723 294.04277-91.19615 293.3921-91.13315 292.98695-91.07013 292.5818-90.96907 291.933-90.90607 291.52888-90.84305 291.12474-90.74199 290.4774-90.67897 290.07423-90.61597 289.67109-90.51491 289.0252-90.4519 288.62306-90.38889 288.22093-90.28783 287.57695-90.22481 287.1758-90.1618 286.77467-90.06075 286.13215-89.99773 285.732-89.93471 285.33183-89.83366 284.69078-89.77066 284.29164-89.70764 283.8925-89.60658 283.25325-89.54356 282.8552-89.48056 282.4571-89.37949 281.81968-89.31648 281.4226-89.25346 281.02558-89.15242 280.3896-89.0894 279.99354-89.0264 279.59745-88.92534 278.96299-88.86232 278.56788-88.7993 278.17274-88.69824 277.53974-88.63524 277.1457-88.57222 276.75166-88.47118 276.12083-88.40816 275.7278-88.34515 275.3348-88.24408 274.70506-88.18108 274.313-88.11806 273.92094-88.017 273.2931-87.954 272.90205-87.89098 272.511-87.78992 271.8846-87.7269 271.49458-87.6639 271.10456-87.56284 270.48-87.49983 270.091-87.43681 269.70198-87.33575 269.0789-87.27274 268.69087-87.20973 268.3028-87.10867 267.6812-87.04565 267.2942-86.98264 266.90718-86.88159 266.28739-86.81859 265.9014-86.75557 265.51548-86.65451 264.8975-86.59149 264.51255-86.52849 264.12757-86.42741 263.51066-86.36441 263.1267-86.30139 262.74275-86.20035 262.1281-86.13733 261.74516-86.07433 261.36225-85.97327 260.74864-85.91025 260.36668-85.84723 259.98469-85.74617 259.37297-85.68317 258.99205-85.62015 258.61116-85.5191 258.00129-85.45609 257.62135-85.39308 257.2414-85.292 256.63258-85.229 256.25367-85.16599 255.87474-85.06493 255.2682-85.00192 254.8903-84.9389 254.51239-84.83786 253.9069-84.77484 253.52997-84.71184 253.15303-84.61076 252.54938-84.54776 252.17353-84.48474 251.79767-84.38368 251.19582-84.32066 250.82097-84.25766 250.44614-84.1566 249.84577-84.09358 249.4719-84.03056 249.098-83.92952 248.49913-83.86652 248.12627-83.8035 247.75342-83.70244 247.15637-83.63942 246.78453-83.57642 246.41269-83.47534 245.81716-83.41234 245.44628-83.34932 245.0754-83.24828 244.48131-83.18526 244.11145-83.12225 243.74158-83.0212 243.14936-82.95818 242.78054-82.89516 242.4117-82.7941 241.82089-82.7311 241.45308-82.66808 241.08527-82.56703 240.49629-82.50401 240.1295-82.44101 239.76271-82.33994 239.17519-82.27693 238.8094-82.21391 238.44364-82.11285 237.85794-82.04985 237.4932-81.98683 237.12844-81.88579 236.54424-81.82277 236.18044-81.75977 235.81664-81.65869 235.23392-81.59569 234.87114-81.53267 234.50836-81.43161 233.9275-81.36859 233.56574-81.30559 233.20398-81.20453 232.62453-81.14151 232.2638-81.07849 231.90308-80.97745 231.32547-80.91444 230.96576-80.85143 230.60605-80.75037 230.02993-80.68735 229.67118-80.62434 229.31243-80.52327 228.73778-80.46027 228.38005-80.39725 228.02231-80.2962 227.44947-80.23318 227.09282-80.17018 226.73616-80.06912 226.16516-80.0061 225.80947-79.94308 225.45377-79.84203 224.8839-79.77902 224.52916-79.716 224.17443-79.61496 223.6064-79.55194 223.25273-79.48894 222.89908-79.38786 222.33286-79.32486 221.98021-79.26184 221.62757-79.16078 221.06282-79.09778 220.71115-79.03476 220.35948-78.93372 219.79619-78.8707 219.44554-78.8077 219.0949-78.70662 218.53347-78.64362 218.18384-78.5806 217.8342-78.47954 217.27419-78.41652 216.92559-78.35352 216.57697-78.25246 216.01882-78.18944 215.67122-78.12642 215.32363-78.02538 214.76696-77.96237 214.4203-77.89935 214.07367-77.7983 213.5185-77.73528 213.17288-77.67227 212.82727-77.5712 212.27393-77.5082 211.92932-77.44518 211.58473-77.34413 211.0328-77.28111 210.68924-77.21811 210.34568-77.11705 209.7956-77.05403 209.45305-76.99101 209.1105-76.88995 208.5619-76.82695 208.22032-76.76393 207.87874-76.66289 207.33162-76.59987 206.99105-76.53687 206.65047-76.43579 206.10521-76.37279 205.76566-76.30977 205.4261-76.20871 204.88227-76.1457 204.54373-76.08269 204.2052-75.98164 203.66323-75.91862 203.32572-75.85562 202.98819-75.75455 202.44771-75.69154 202.11115-75.62852 201.7746-75.52747 201.23557-75.46445 200.90004-75.40144 200.56452-75.3004 200.02727-75.23738 199.69283-75.17436 199.35839-75.0733 198.82299-75.0103 198.4895-74.94728 198.15602-74.84622 197.62175-74.7832 197.28922-74.7202 196.95668-74.61913 196.42427-74.55612 196.09282-74.4931 195.76137-74.39206 195.23073-74.32904 194.9003-74.26604 194.56987-74.16498 194.04074-74.10196 193.71126-74.03894 193.38179-73.93788 192.85413-73.87488 192.52568-73.81186 192.19722-73.71082 191.6714-73.6478 191.34398-73.5848 191.01656-73.48372 190.49216-73.42072 190.16576-73.3577 189.83936-73.25664 189.31679-73.19363 188.9914-73.13062 188.66602-73.02957 188.14496-72.96655 187.82053-72.90355 187.4961-72.80247 186.97652-72.73947 186.6531-72.67645 186.3297-72.5754 185.8119-72.51237 185.48958-72.44937 185.16725-72.34833 184.6513-72.28531 184.32994-72.22229 184.00858-72.12123 183.49376-72.05823 183.17334-71.99521 182.85294-71.89415 182.33995-71.83113 182.02062-71.76813 181.7013-71.66705 181.19011-71.60405 180.87181-71.54103 180.55352-71.43999 180.0438-71.37697 179.72644-71.31396 179.4091-71.2129 178.90087-71.14989 178.58454-71.08687 178.26822-70.98581 177.76184-70.9228 177.44654-70.85979 177.13123-70.75874 176.62635-70.69572 176.312-70.63272 175.99765-70.53165 175.49423-70.46864 175.18091-70.40562 174.86757-70.30457 174.36595-70.24156 174.05371-70.17854 173.74146-70.0775 173.24164-70.01448 172.9304-69.95148 172.61917-69.8504 172.12082-69.7874 171.81056-69.72438 171.5003-69.62332 171.00348-69.5603 170.69417-69.4973 170.38488-69.39626 169.88956-69.33324 169.58127-69.27022 169.273-69.16916 168.77944-69.10616 168.47225-69.04314 168.16504-68.94208 167.67328-68.87906 167.3671-68.81606 167.06092-68.715 166.57065-68.652 166.26543-68.58897 165.9602-68.48792 165.47142-68.4249 165.1672-68.3619 164.863-68.26083 164.37609-68.19781 164.07289-68.1348 163.7697-68.03374 163.28424-67.97073 162.98203-67.90771 162.67981-67.80667 162.19583-67.74365 161.89464-67.68065 161.59343-67.57957 161.1113-67.51657 160.81113-67.45355 160.51094-67.3525 160.03023-67.28949 159.73107-67.22647 159.43192-67.12543 158.95307-67.06241 158.65493-66.9994 158.35678-66.89833 157.87935-66.83533 157.58223-66.77231 157.28511-66.67125 156.80953-66.60823 156.51343-66.54523 156.21732-66.44418 155.74323-66.38116 155.44808-66.31815 155.15294-66.21709 154.68033-66.15408 154.3862-66.09106 154.09209-65.99 153.6213-65.92699 153.32822-65.86398 153.03511-65.76292 152.56577-65.69992 152.2737-65.6369 151.98162-65.53584 151.51412-65.47282 151.22306-65.40982 150.93199-65.30876 150.46599-65.24574 150.17589-65.18272 149.88579-65.08167 149.42124-65.01866 149.13216-64.95564 148.84308-64.8546 148.3804-64.79158 148.09235-64.72858 147.80428-64.6275 147.34302-64.5645 147.05599-64.50148 146.76894-64.40042 146.30954-64.33742 146.02352-64.2744 145.73749-64.17336 145.27956-64.11034 144.9945-64.04733 144.70944-63.94626 144.25299-63.88326 143.96897-63.82024 143.68492-63.71918 143.23026-63.65616 142.9473-63.59315 142.66434-63.49211 142.21154-63.4291 141.92954-63.36607 141.64754-63.26501 141.19585-63.20201 140.91481-63.13899 140.63378-63.03793 140.18393-62.97491 139.90396-62.91191 139.62401-62.81085 139.17597-62.74785 138.89702-62.68483 138.61808-62.58377 138.17153-62.52075 137.89354-62.45775 137.61556-62.35669 137.17047-62.29367 136.89351-62.23065 136.61653-62.1296 136.1733-62.06659 135.89737-62.00357 135.62143-61.90253 135.1796-61.83951 134.9047-61.7765 134.62978-61.67543 134.1898-61.61243 133.91591-61.54941 133.64202-61.44835 133.20352-61.38535 132.93059-61.32233 132.65766-61.22128 132.22064-61.15826 131.94873-61.09526 131.6768-60.99419 131.24166-60.93118 130.97075-60.86816 130.69986-60.7671 130.26613-60.70409 129.99625-60.64108 129.72637-60.54004 129.29448-60.47702 129.02564-60.414 128.75678-60.31294 128.32637-60.24994 128.05847-60.18692 127.79059-60.08586 127.36165-60.02284 127.09477-59.95984 126.82791-59.85878 126.40077-59.79578 126.135-59.73276 125.8692-59.6317 125.44391-59.56868 125.17908-59.50568 124.91425-59.40462 124.49-59.3416 124.2262-59.27858 123.96239-59.17754 123.54044-59.11453 123.27763-59.05151 123.01485-58.95045 122.59395-58.88744 122.3321-58.82443 122.07027-58.72336 121.65129-58.66035 121.39049-58.59734 121.12967-58.49628 120.7121-58.43326 120.4523-58.37025 120.19252-58.26921 119.7768-58.20619 119.51802-58.14319 119.25925-58.04211 118.84494-57.97911 118.58719-57.91609 118.32944-57.81503 117.91699-57.75201 117.66026-57.68901 117.40353-57.58797 116.99258-57.52495 116.7368-57.46193 116.48103-57.36087 116.07155-57.29787 115.8168-57.23485 115.56204-57.13379 115.15442-57.07077 114.90068-57.00777 114.64694-56.90671 114.24074-56.8437 113.988-56.78069 113.73529-56.67963 113.33093-56.61661 113.07925-56.5536 112.82758-56.45255 112.42462-56.38953 112.17397-56.3265 111.9233-56.22546 111.52225-56.16246 111.27255-56.09944 111.02284-55.99838 110.62286-55.93536 110.37418-55.87236 110.12547-55.77129 109.72778-55.70828 109.48012-55.64526 109.23244-55.5442 108.83572-55.48119 108.58908-55.41818 108.34242-55.31714 107.94801-55.25412 107.70238-55.19112 107.45674-55.09004 107.06337-55.02704 106.8187-54.96402 106.57402-54.86296 106.18256-54.79994 105.93892-54.73694 105.69527-54.6359 105.30522-54.57288 105.06259-54.50986 104.81998-54.4088 104.43178-54.3458 104.19017-54.28278 103.94856-54.18172 103.56178-54.1187 103.3212-54.0557 103.08061-53.95464 102.6957-53.89163 102.45613-53.82861 102.21655-53.72755 101.83311-53.66454 101.59451-53.60153 101.3559-53.50047 100.97395-53.43745 100.73636-53.37444 100.49876-53.27339 100.11865-53.21039 99.88208-53.14737 99.64551-53.04631 99.26683-52.98329 99.0313-52.92029 98.79575-52.81921 98.4189-52.75621 98.18437-52.69319 97.94984-52.59213 97.5745-52.52911 97.34094-52.46611 97.10738-52.36507 96.73347-52.30205 96.50093-52.23904 96.26839-52.13797 95.8963-52.07497 95.66484-52.01195 95.43338-51.91089 95.06314-51.84787 94.83264-51.78487 94.60213-51.68382 94.23302-51.6208 94.00346-51.55779 93.77391-51.45673 93.40665-51.39372 93.17818-51.3307 92.9497-51.22964 92.58424-51.16663 92.3568-51.10362 92.12936-51.00256 91.76535-50.93956 91.53888-50.87654 91.3124-50.77548 90.94986-50.71246 90.7244-50.64946 90.49893-50.5484 90.13828-50.48538 89.91383-50.42236 89.68939-50.32132 89.33012-50.25832 89.1067-50.1953 88.88329-50.09424 88.52588-50.03122 88.30348-49.96822 88.08107-49.86714 87.72517-49.80414 87.50372-49.74112 87.28227-49.64008 86.92784-49.57706 86.70741-49.51405 86.48698-49.413 86.13441-49.34998 85.91501-49.28697 85.6956-49.1859 85.34444-49.1229 85.12605-49.05988 84.90768-48.95882 84.55835-48.8958 84.34099-48.8328 84.12364-48.73175 83.7758-48.66873 83.5594-48.60571 83.343-48.50465 82.99666-48.44165 82.78127-48.37863 82.56589-48.27757 82.22139-48.21455 82.00702-48.15155 81.79266-48.05049 81.4496-47.98749 81.23625-47.92447 81.0229-47.82341 80.68169-47.76039 80.46936-47.69739 80.25703-47.59633 79.91724-47.53331 79.70593-47.47029 79.49461-47.36925 79.15668-47.30624 78.9464-47.24323 78.7361-47.14217 78.39963-47.07915 78.1903-47.01614 77.98099-46.91507 77.646-46.85207 77.4377-46.78905 77.2294-46.688 76.89626-46.62498 76.68896-46.56198 76.48169-46.46092 76.15002-46.3979 75.94371-46.3349 75.7374-46.23383 75.4072-46.17082 75.2019-46.1078 74.9966-46.00674 74.66821-45.94373 74.46399-45.88072 74.25977-45.77968 73.93318-45.71666 73.72998-45.65364 73.52678-45.55258 73.20168-45.48958 72.99942-45.42656 72.79718-45.3255 72.4736-45.26248 72.27232-45.19948 72.07104-45.09842 71.74889-45.03542 71.54869-44.9724 71.3485-44.87134 71.02856-44.80832 70.82939-44.74532 70.6302-44.64426 70.31131-44.58124 70.1131-44.51822 69.91489-44.41718 69.5979-44.35417 69.4007-44.29115 69.2035-44.1901 68.88795-44.12708 68.69177-44.06407 68.49559-43.963 68.1819-43.9 67.98674-43.83698 67.79158-43.73593 67.47935-43.67291 67.28517-43.60991 67.09097-43.50885 66.78021-43.44583 66.58705-43.38283 66.39388-43.28175 66.08492-43.21875 65.89282-43.15573 65.70073-43.05467 65.39363-42.99165 65.2025-42.92865 65.01135-42.8276 64.70529-42.76459 64.51518-42.70157 64.32507-42.60051 64.02132-42.5375 63.83221-42.47449 63.64313-42.37343 63.34041-42.31041 63.15227-42.2474 62.96413-42.14635 62.66333-42.08334 62.4762-42.02032 62.28908-41.91927 61.9897-41.85625 61.8036-41.79324 61.61751-41.69218 61.31998-41.62917 61.1349-41.56615 60.94983-41.4651 60.65372-41.4021 60.46967-41.33908 60.28561-41.23802 59.99135-41.175 59.80832-41.112 59.62529-41.01093 59.33243-40.94792 59.15042-40.8849 58.9684-40.78386 58.67749-40.72084 58.49643-40.65784 58.31537-40.55678 58.02548-40.49376 57.84544-40.43076 57.66542-40.32968 57.37782-40.26668 57.1988-40.20366 57.01979-40.10262 56.73325-40.0396 56.55519-39.9766 56.37715-39.87553 56.09245-39.81252 55.91547-39.7495 55.73848-39.64844 55.45558-39.58543 55.27963-39.52242 55.10368-39.42136 54.82227-39.35834 54.64728-39.29533 54.47229-39.19427 54.19232-39.13127 54.01836-39.06825 53.84438-38.9672 53.56628-38.90417 53.39334-38.84117 53.22038-38.74011 52.94371-38.6771 52.77177-38.61407 52.59984-38.51303 52.32503-38.45003 52.15411-38.38701 51.9832-38.28595 51.70987-38.22293 51.53992-38.15993 51.36995-38.05885 51.0981-37.99585 50.92917-37.93283 50.76025-37.83179 50.49023-37.76877 50.32233-37.70576 50.15442-37.6047 49.88582-37.54169 49.71893-37.47868 49.55205-37.37761 49.28531-37.3146 49.11945-37.25159 48.95357-37.15054 48.68831-37.08752 48.5234-37.02452 48.35849-36.92346 48.09471-36.86044 47.93082-36.79742 47.76692-36.69637 47.505-36.63336 47.34213-36.57034 47.17926-36.46928 46.91878-36.40627 46.75691-36.34326 46.59506-36.2422 46.33641-36.1792 46.17558-36.11618 46.01474-36.01512 45.75757-35.9521 45.5977-35.8891 45.43784-35.78804 45.18214-35.72502 45.0233-35.662 44.86446-35.56096 44.61055-35.49796 44.45277-35.43494 44.29501-35.33388 44.04297-35.27086 43.88615-35.20786 43.72935-35.10678 43.47835-35.04378 43.32256-34.98076 43.16676-34.87971 42.91805-34.8167 42.76328-34.7537 42.6085-34.65263 42.36086-34.58961 42.20703-34.52661 42.05322-34.42554 41.80746-34.36253 41.6547-34.29951 41.5019-34.19847 41.25757-34.13545 41.1058-34.07245 40.95404-33.97139 40.71155-33.90837 40.5608-33.84535 40.41006-33.7443 40.16899-33.68129 40.01926-33.61827 39.86954-33.51721 39.63033-33.4542 39.48161-33.39119 39.3329-33.29013 39.09518-33.22713 38.94743-33.16411 38.79968-33.06305 38.56345-33.00003 38.41672-32.93703 38.26999-32.83597 38.03552-32.77295 37.88988-32.70993 37.74422-32.60889 37.51161-32.54588 37.36694-32.48286 37.22226-32.3818 36.99075-32.31879 36.84703-32.25578 36.70331-32.15471 36.47366-32.0917 36.33102-32.02869 36.18839-31.92764 35.96051-31.86462 35.8189-31.80162 35.67728-31.70056 35.45088-31.63754 35.31023-31.57454 35.16956-31.47346 34.94466-31.41046 34.80501-31.34744 34.66537-31.2464 34.44234-31.18338 34.30371-31.12038 34.16508-31.01932 33.94353-30.9563 33.80586-30.89328 33.6682-30.79222 33.44812-30.72922 33.31146-30.6662 33.17482-30.56516 32.95654-30.50214 32.82097-30.43913 32.6854-30.33806 32.46889-30.27505 32.33435-30.21204 32.19981-30.11098 31.9848-30.04796 31.85123-29.98495 31.71764-29.8839 31.50417-29.82088 31.37154-29.75786 31.23892-29.65681 31.02692-29.59381 30.89531-29.53079 30.7637-29.42973 30.55351-29.36671 30.42299-29.30371 30.29247-29.20264 30.08405-29.13963 29.95453-29.07661 29.82503-28.97557 29.61812-28.91255 29.48956-28.84955 29.36102-28.74849 29.15556-28.68547 29.02805-28.62247 28.90053-28.5214 28.69691-28.45839 28.57042-28.39537 28.44392-28.29433 28.24179-28.23131 28.11624-28.1683 27.9907-28.06723 27.79005-28.00423 27.66554-27.94121 27.54102-27.84015 27.34224-27.77715 27.21873-27.71413 27.09525-27.61308 26.89787-27.55006 26.77539-27.48706 26.65291-27.38599 26.4574-27.32298 26.33594-27.25996 26.21446-27.1589 26.02037-27.09589 25.89992-27.03288 25.77948-26.93182 25.58725-26.8688 25.46782-26.80579 25.34839-26.70474 25.15762-26.64174 25.03917-26.57872 24.92072-26.47766 24.73141-26.41464 24.61398-26.35164 24.49655-26.25056 24.30911-26.18756 24.19269-26.12454 24.07628-26.0235 23.89026-25.96048 23.77487-25.89748 23.65947-25.79642 23.47531-25.7334 23.36093-25.6704 23.24655-25.56932 23.06387-25.50632 22.95045-25.4433 22.83702-25.34225 22.65584-25.27924 22.54343-25.21623 22.43103-25.11516 22.2517-25.05215 22.1403-24.98914 22.02892-24.88808 21.851-24.82507 21.74065-24.76205 21.6303-24.66101 21.4542-24.59799 21.34486-24.53499 21.23553-24.43391 21.06093-24.37091 20.95256-24.30789 20.8442-24.20683 20.67107-24.14381 20.5637-24.08081 20.45634-23.97977 20.28508-23.91675 20.17874-23.85373 20.07242-23.75267 19.90257-23.68967 19.79726-23.62665 19.69194-23.52559 19.52394-23.46257 19.41963-23.39957 19.31534-23.2985 19.14879-23.23549 19.0455-23.17247 18.94221-23.07143 18.77751-23.0084 18.67525-22.9454 18.57298-22.84435 18.40974-22.78133 18.30846-22.71832 18.20715-22.61725 18.0454-22.55424 17.94513-22.49123 17.84485-22.39018 17.68494-22.32716 17.5857-22.26416 17.48643-22.16309 17.32794-22.10008 17.2297-22.03706 17.13147-21.936 16.97484-21.873 16.87762-21.80998 16.78041-21.70894 16.62526-21.64592 16.52899-21.58292 16.43274-21.48184 16.27907-21.41884 16.18382-21.35582 16.08858-21.25476 15.93675-21.19174 15.84254-21.12874 15.74835-21.0277 15.59793-20.96468 15.50475-20.90166 15.41156-20.8006 15.26299-20.7376 15.17082-20.67458 15.07866-20.57352 14.93158-20.5105 14.84036-20.4475 14.74915-20.34642 14.60356-20.28342 14.51337-20.2204 14.42317-20.11935 14.27943-20.05634 14.19026-19.99333 14.10109-19.89227 13.95877-19.82925 13.8706-19.76625 13.78246-19.66518 13.642-19.60217 13.55487-19.53915 13.46773-19.43811 13.32869-19.37509 13.24257-19.31209 13.15645-19.21101 13.01926-19.14801 12.93417-19.08499 12.84909-18.98393 12.71336-18.92093 12.62923-18.85791 12.5451-18.75687 12.41086-18.69385 12.32774-18.63084 12.24464-18.52977 12.11226-18.46677 12.03017-18.40375 11.94807-18.30269 11.81711-18.23967 11.73604-18.17667 11.65497-18.07562 11.52586-18.0126 11.4458-17.94958 11.36575-17.84853 11.23813-17.78552 11.15904-17.7225 11.07994-17.62144 10.9538-17.55843 10.87572-17.49542 10.79764-17.39435 10.67334-17.33134 10.5963-17.26833 10.51926-17.16728 10.39636-17.10426 10.32034-17.04126 10.24432-16.9402 10.12328-16.87718 10.04828-16.81418 9.97327-16.7131 9.85371-16.6501 9.77966-16.58708 9.70561-16.48604 9.58754-16.42302 9.51451-16.36002 9.44148-16.25894 9.32529-16.19594 9.25327-16.13292 9.18126-16.03186 9.06647-15.96886 8.99547-15.90584 8.92448-15.8048 8.81154-15.74178 8.74158-15.67877 8.6716-15.5777 8.56007-15.5147 8.49113-15.45168 8.4222-15.35062 8.31252-15.2876 8.24458-15.2246 8.17667-15.12355 8.06847-15.06053 8.00151-14.99751 7.93454-14.89645 7.82782-14.83345 7.76189-14.77043 7.69594-14.66937 7.59106-14.60635 7.52614-14.54335 7.46121-14.44229 7.35777-14.37929 7.29387-14.31627 7.22997-14.21521 7.12839-14.15219 7.06549-14.08919 7.0026-13.98813 6.90251-13.92511 6.84058-13.8621 6.77864-13.76103 6.68002-13.69803 6.61911-13.63501 6.5582-13.53397 6.46143-13.47095 6.40155-13.40794 6.34166-13.30687 6.2463-13.24387 6.18744-13.18085 6.12859-13.07979 6.03506-13.01678 5.97723-12.95377 5.91939-12.85272 5.82736-12.7897 5.77048-12.7267 5.7136-12.62563 5.62305-12.56262 5.56718-12.4996 5.51132-12.39854 5.42262-12.33553 5.36778-12.27252 5.31293-12.17148 5.22568-12.10846 5.17184-12.04544 5.11801-11.94438 5.0326-11.88138 4.9798-11.81836 4.927-11.7173 4.84299-11.65428 4.79121-11.59128 4.73944-11.49022 4.65727-11.42722 4.6065-11.3642 4.55576-11.26314 4.47508-11.20012 4.4253-11.13712 4.37549-11.03606 4.29628-10.97304 4.2475-10.91003 4.19872-10.80896 4.12138-10.74596 4.07362-10.68294 4.02586-10.5819 3.95001-10.51888 3.90321-10.45587 3.8564-10.3548 3.78203-10.2918 3.73624-10.22878 3.69046-10.12772 3.61789-10.06471 3.57318-10.0017 3.52847-9.90065 3.4577-9.83763 3.414-9.77463 3.37032-9.67355 3.30101-9.61055 3.2583-9.54753 3.21558-9.44647 3.14781-9.38345 3.10605-9.32045 3.06429-9.2194 2.99799-9.15639 2.95724-9.09337 2.9165-8.99231 2.852-8.9293 2.81235-8.86629 2.77267-8.76523 2.70999-8.70221 2.67134-8.6392 2.6327-8.53815 2.57149-8.47514 2.5338-8.41212 2.49611-8.31107 2.43637-8.24805 2.3997-8.18504 2.36304-8.08398 2.30515-8.02097 2.26952-7.95796 2.23387-7.85689 2.17744-7.79388 2.14278-7.73087 2.1081-7.62982 2.05316-7.5668 2.0195-7.5038 1.98584-7.40273 1.9327-7.33972 1.90012-7.2767 1.86754-7.17564 1.81627-7.11264 1.78464-7.04962 1.75302-6.94858 1.70284-6.88556 1.67218-6.82256 1.64151-6.72148 1.59319-6.65848 1.56361-6.59546 1.53403-6.4944 1.4875-6.43138 1.45894-6.36838 1.43037-6.26733 1.38533-6.20432 1.35773-6.1413 1.33012-6.04024 1.28653-5.97723 1.25996-5.91422 1.23338-5.81316 1.19167-5.75014 1.1661-5.68713 1.14055-5.58607 1.10023-5.52307 1.0757-5.46005 1.05116-5.359 1.01271-5.29597 .9892-5.23297 .96568-5.13191 .92865-5.0689 .90616-5.00587 .88365-4.90483 .84854-4.84183 .827-4.77881 .80545-4.67775 .7714-4.61473 .75087-4.55173 .73035-4.45065 .69856-4.38765 .67906-4.32463 .65956-4.22357 .62881-4.16057 .61029-4.09755 .59177-3.9965 .56287-3.93349 .54541-3.87048 .52795-3.76941 .50087-3.7064 .48444-3.64339 .468-3.54233 .44237-3.47931 .4269-3.4163 .41142-3.31526 .3873-3.25224 .37283-3.18922 .35838-3.08817 .33609-3.02516 .32265-2.96214 .30922-2.86108 .28836-2.79807 .27594-2.73506 .26352-2.634 .24454-2.571 .23312-2.50798 .22173-2.40692 .20418-2.3439 .19376-2.2809 .18333-2.17984 .16728-2.11682 .15787-2.0538 .14845-1.95276 .13425-1.88976 .12585-1.82674 .11746-1.72568 .10468-1.66266 .0973-1.59966 .08992-1.49858 .07901-1.43558 .07266-1.37256 .0663-1.2715 .05685-1.2085 .05145-1.14548 .04605-1.04443 .0381-.98141 .03372-.91841 .02934-.81734 .02324-.75433 .01988-.69131 .01651-.59026 .01183-.52724 .00949-.46423 .00717-.36319 .00432-.30017 .00302-.23715 .00171-.07309 0-.07309 0"/>
<path transform="matrix(1.00005,0,0,-1.0001,114.88583,124.102108)" stroke-width=".79701" stroke-linecap="butt" stroke-miterlimit="10" stroke-linejoin="miter" fill="none" stroke="#ff0000" d="M0 0C0 0 .16405 .00075 .22707 .00171 .29007 .00267 .39114 .00493 .45415 .00691 .51717 .00888 .61823 .01292 .68124 .01599 .74425 .01904 .84529 .02489 .90831 .02896 .97133 .03304 1.07239 .04037 1.13539 .0454 1.19841 .05043 1.29947 .05925 1.36249 .0653 1.42549 .07135 1.52655 .08202 1.58955 .0891 1.65257 .09616 1.75363 .1083 1.81665 .11633 1.87965 .12436 1.98071 .13799 2.04373 .14703 2.10675 .1561 2.2078 .17157 2.2708 .18166 2.33382 .19174 2.43488 .2086 2.4979 .21971 2.5609 .2308 2.66197 .24954 2.72498 .26166 2.788 .27377 2.88904 .29396 2.95206 .30708 3.01506 .32022 3.11612 .34225 3.17914 .3564 3.24214 .37056 3.34322 .39406 3.40622 .40916 3.46924 .42429 3.5703 .44926 3.63332 .46541 3.69632 .48154 3.79736 .50838 3.86038 .52553 3.9234 .54268 4.02446 .57092 4.08746 .5891 4.15048 .60728 4.25154 .63737 4.31456 .65659 4.37756 .67578 4.47862 .70735 4.54163 .72751 4.60464 .74767 4.7057 .78073 4.76872 .80191 4.83173 .82309 4.93279 .858 4.9958 .8802 5.05882 .90239 5.15987 .93874 5.22287 .96194 5.28589 .98515 5.38695 1.02336 5.44997 1.04759 5.51297 1.07182 5.61404 1.11142 5.67705 1.13669 5.74007 1.16196 5.84111 1.20348 5.90413 1.22969 5.96713 1.25592 6.06819 1.29846 6.13121 1.32571 6.19421 1.35295 6.29529 1.3978 6.35829 1.42606 6.42131 1.45432 6.52237 1.50015 6.58539 1.52943 6.64839 1.55872 6.74944 1.60684 6.81245 1.63715 6.87547 1.66743 6.97653 1.71661 7.03954 1.74786 7.10255 1.77913 7.20361 1.83015 7.26663 1.86249 7.32964 1.89482 7.4307 1.94771 7.4937 1.981 7.55672 2.0143 7.65778 2.06828 7.7208 2.10255 7.7838 2.13681 7.88486 2.19264 7.94788 2.228 8.0109 2.26334 8.11194 2.32095 8.17494 2.35732 8.23796 2.39368 8.33902 2.45273 8.40204 2.49011 8.46504 2.52748 8.56612 2.58846 8.62912 2.62679 8.69214 2.66513 8.79318 2.72714 8.8562 2.7665 8.9192 2.80585 9.02026 2.87016 9.08328 2.91054 9.14629 2.95091 9.24736 3.01625 9.31036 3.0576 9.37338 3.09895 9.47443 3.16612 9.53745 3.20856 9.60045 3.25098 9.7015 3.31995 9.76453 3.3634 9.82755 3.40685 9.9286 3.47731 9.99161 3.52171 10.05463 3.56612 10.15569 3.63805 10.2187 3.68347 10.28171 3.7289 10.38277 3.80269 10.44577 3.84914 10.50879 3.89557 10.60985 3.97086 10.67287 4.01825 10.73587 4.06566 10.83693 4.14243 10.89995 4.19084 10.96297 4.23926 11.06401 4.31783 11.12701 4.36732 11.19003 4.41682 11.29109 4.49718 11.35411 4.5477 11.41711 4.5982 11.51819 4.68002 11.58119 4.73152 11.64421 4.783 11.74525 4.86636 11.80827 4.91881 11.87128 4.97125 11.97234 5.05609 12.03535 5.10956 12.09836 5.16302 12.19943 5.24965 12.26244 5.30418 12.32545 5.35873 12.4265 5.44716 12.48952 5.50273 12.55252 5.55829 12.65358 5.64821 12.7166 5.70473 12.77962 5.76125 12.88068 5.8527 12.94368 5.91019 13.0067 5.96767 13.10776 6.06052 13.17078 6.1191 13.23378 6.17767 13.33484 6.27275 13.39784 6.33235 13.46086 6.39194 13.56192 6.48805 13.62494 6.54861 13.68794 6.60916 13.789 6.7072 13.85202 6.76877 13.91504 6.83034 14.01608 6.92981 14.07909 6.9924 14.1421 7.055 14.24316 7.15631 14.30618 7.21991 14.36919 7.28352 14.47026 7.38626 14.53326 7.45088 14.59628 7.5155 14.69733 7.6201 14.76035 7.68575 14.82335 7.75139 14.92441 7.85747 14.98743 7.92409 15.05043 7.99069 15.1515 8.09824 15.21451 8.16588 15.27753 8.2335 15.37857 8.3429 15.44159 8.41154 15.5046 8.48021 15.60565 8.59108 15.66867 8.66069 15.73169 8.7303 15.83275 8.84267 15.89575 8.9133 15.95877 8.98392 16.05983 9.09808 16.12285 9.1698 16.18585 9.2415 16.28691 9.35745 16.34991 9.43018 16.41293 9.5029 16.51399 9.62033 16.57701 9.69402 16.64001 9.7677 16.74107 9.88661 16.8041 9.96133 16.86711 10.03606 16.96815 10.1568 17.03116 10.23253 17.09418 10.30827 17.19524 10.43051 17.25826 10.5072 17.32126 10.5839 17.42233 10.70761 17.48534 10.78532 17.54836 10.86304 17.6494 10.9886 17.71242 11.06734 17.77542 11.14607 17.87648 11.27307 17.9395 11.35281 18.0025 11.43257 18.10358 11.56142 18.16658 11.64218 18.2296 11.72295 18.33064 11.85323 18.39366 11.935 18.45667 12.01678 18.55772 12.14893 18.62074 12.23174 18.68376 12.31454 18.78482 12.44814 18.84782 12.5319 18.91084 12.61569 19.01189 12.75076 19.0749 12.83556 19.13791 12.92035 19.23898 13.05728 19.30199 13.1431 19.365 13.22891 19.46606 13.36731 19.52908 13.45407 19.59209 13.54085 19.69315 13.68074 19.75616 13.76852 19.81918 13.85632 19.92023 13.998 19.98323 14.08687 20.04625 14.17575 20.14731 14.31924 20.21033 14.40913 20.27333 14.49902 20.3744 14.64398 20.43741 14.73483 20.50043 14.82568 20.60147 14.9721 20.66449 15.06398 20.7275 15.15587 20.82855 15.30414 20.89157 15.39705 20.95457 15.48994 21.05565 15.6397 21.11865 15.73355 21.18167 15.82741 21.28271 15.97865 21.34573 16.07353 21.40874 16.16841 21.5098 16.3215 21.57281 16.4174 21.63583 16.51329 21.7369 16.6678 21.7999 16.76472 21.86292 16.86163 21.96396 17.01802 22.02698 17.11595 22.08998 17.21388 22.19106 17.37167 22.25406 17.47063 22.31708 17.56958 22.41814 17.72922 22.48116 17.82921 22.54416 17.92918 22.64522 18.0903 22.70824 18.19124 22.77126 18.29219 22.8723 18.45477 22.9353 18.55673 22.99832 18.65869 23.09938 18.82314 23.1624 18.92612 23.2254 19.0291 23.32648 19.19502 23.38948 19.29897 23.4525 19.4029 23.55354 19.57031 23.61656 19.67528 23.67957 19.78023 23.78062 19.94945 23.84364 20.05548 23.90665 20.16151 24.00772 20.33252 24.07072 20.43958 24.13374 20.54662 24.23479 20.71912 24.2978 20.82713 24.36081 20.93513 24.46187 21.10916 24.52489 21.21814 24.5879 21.32712 24.68896 21.50255 24.75197 21.61261 24.81499 21.72267 24.91603 21.90033 24.97905 22.01141 25.04205 22.12248 25.14313 22.30121 25.20613 22.41324 25.26915 22.52528 25.37021 22.7059 25.43323 22.81895 25.49623 22.932 25.59729 23.11407 25.66031 23.22815 25.72333 23.34222 25.82437 23.52612 25.88737 23.6412 25.9504 23.7563 26.05145 23.94168 26.11447 24.05774 26.17747 24.17381 26.27855 24.36066 26.34155 24.47775 26.40457 24.59483 26.50562 24.78346 26.56863 24.90163 26.63164 25.01979 26.7327 25.21028 26.79572 25.3294 26.85872 25.44853 26.9598 25.64008 27.0228 25.76022 27.08582 25.88036 27.18686 26.0742 27.24988 26.19536 27.31288 26.31651 27.41394 26.5114 27.47696 26.63351 27.53998 26.75563 27.64104 26.95238 27.70404 27.07556 27.76706 27.19876 27.8681 27.39737 27.93112 27.52151 27.99413 27.64568 28.0952 27.84532 28.1582 27.97049 28.22122 28.09567 28.32228 28.29758 28.3853 28.42378 28.4483 28.54999 28.54935 28.75296 28.61237 28.88011 28.67538 29.00728 28.77644 29.21208 28.83945 29.34033 28.90247 29.46857 29.00352 29.67519 29.06654 29.80444 29.12955 29.9337 29.23062 30.1418 29.29362 30.27203 29.35664 30.40225 29.45769 30.61182 29.5207 30.74306 29.58371 30.8743 29.68477 31.08572 29.74779 31.21799 29.81079 31.35023 29.91187 31.56314 29.97487 31.69638 30.03789 31.8296 30.13893 32.04398 30.20195 32.17822 30.26495 32.31247 30.36603 32.52869 30.42903 32.66396 30.49205 32.79922 30.59311 33.01686 30.65611 33.15315 30.71913 33.28944 30.82018 33.50896 30.8832 33.64626 30.9462 33.78357 31.04727 34.00447 31.11028 34.1428 31.1733 34.28113 31.27435 34.5039 31.33737 34.64325 31.40038 34.7826 31.50142 35.00687 31.56444 35.14717 31.62746 35.28746 31.72852 35.51321 31.79152 35.65453 31.85454 35.79585 31.9556 36.02344 32.01862 36.16579 32.08162 36.30814 32.1827 36.53714 32.2457 36.68051 32.30872 36.82388 32.40976 37.05472 32.47278 37.19911 32.53578 37.3435 32.63684 37.57585 32.69986 37.72119 32.76286 37.86655 32.86394 38.10036 32.92694 38.24672 32.98996 38.3931 33.091 38.62871 33.15402 38.77615 33.21703 38.9236 33.3181 39.16106 33.3811 39.30946 33.44412 39.45787 33.54518 39.69644 33.60818 39.84583 33.6712 39.9952 33.77225 40.2356 33.83527 40.38605 33.89827 40.53651 33.99934 40.77872 34.06235 40.93019 34.12537 41.08167 34.22643 41.32535 34.28944 41.47778 34.35245 41.63022 34.45349 41.8754 34.51651 42.02884 34.57953 42.1823 34.68059 42.42932 34.74359 42.58379 34.80661 42.73825 34.90767 42.98671 34.97069 43.14218 35.03369 43.29767 35.13477 43.54799 35.19777 43.7045 35.26079 43.861 35.36183 44.1128 35.42485 44.27025 35.48785 44.42772 35.58891 44.681 35.65193 44.83948 35.71494 44.99796 35.81601 45.25305 35.87901 45.41257 35.94203 45.57208 36.04308 45.82863 36.1061 45.98915 36.1691 46.14969 36.27017 46.40808 36.33318 46.56963 36.3962 46.73117 36.49725 46.99104 36.56026 47.15355 36.62328 47.31606 36.72432 47.57741 36.78734 47.74094 36.85034 47.90446 36.95142 48.16768 37.01442 48.33221 37.07744 48.49677 37.1785 48.76138 37.24152 48.92696 37.30452 49.09251 37.40556 49.359 37.46858 49.52559 37.5316 49.69218 37.63266 49.96013 37.69566 50.12769 37.75868 50.29524 37.85974 50.56467 37.92276 50.73323 37.98576 50.90181 38.08682 51.17303 38.14983 51.34268 38.21284 51.51234 38.3139 51.78542 38.37692 51.95602 38.43993 52.12663 38.54099 52.40082 38.604 52.57239 38.667 52.74396 38.76808 53.01999 38.83109 53.19264 38.8941 53.3653 38.99515 53.64313 39.05817 53.81679 39.12117 53.99046 39.22224 54.26976 39.28525 54.4444 39.34827 54.61905 39.44933 54.89983 39.51233 55.07549 39.57535 55.25114 39.67639 55.53377 39.73941 55.71043 39.80241 55.88712 39.90349 56.17119 39.96649 56.34888 40.02951 56.52657 40.13057 56.81247 40.19359 56.9912 40.25659 57.1699 40.35764 57.4573 40.42065 57.63698 40.48367 57.81665 40.58473 58.10553 40.64774 58.28622 40.71075 58.4669 40.81181 58.75757 40.87483 58.93935 40.93784 59.12111 41.0389 59.41362 41.1019 59.59637 41.16492 59.77911 41.26598 60.07272 41.329 60.25642 41.392 60.44012 41.49306 60.7356 41.55608 60.92036 41.61908 61.10515 41.72015 61.4024 41.78316 61.58821 41.84618 61.774 41.94722 62.07274 42.01024 62.25949 42.07324 62.44626 42.17432 62.74649 42.23732 62.93427 42.30034 63.12204 42.4014 63.42412 42.4644 63.61292 42.52742 63.80171 42.62846 64.10527 42.69148 64.29503 42.75449 64.48477 42.85556 64.78984 42.91856 64.9806 42.98158 65.17137 43.08264 65.47821 43.14566 65.67006 43.20866 65.86191 43.30971 66.17055 43.37273 66.36342 43.43575 66.5563 43.5368 66.8664 43.59981 67.06024 43.66283 67.25407 43.76389 67.56572 43.8269 67.76051 43.88991 67.9553 43.99097 68.26845 44.05397 68.46426 44.11699 68.66008 44.21805 68.975 44.28107 69.17189 44.34407 69.36879 44.44513 69.6855 44.50815 69.8834 44.57115 70.08133 44.67221 70.39954 44.73521 70.5984 44.79823 70.79727 44.89929 71.11696 44.96231 71.31685 45.02531 71.51674 45.12639 71.83826 45.18939 72.03918 45.25241 72.24011 45.35347 72.56311 45.41647 72.76498 45.47949 72.96687 45.58054 73.29135 45.64355 73.49425 45.70656 73.69714 45.80763 74.02347 45.87064 74.22739 45.93365 74.4313 46.03471 74.75906 46.09773 74.964 46.16074 75.16895 46.26178 75.49855 46.3248 75.70451 46.38782 75.91046 46.48888 76.2415 46.55188 76.44847 46.6149 76.65546 46.71596 76.98834 46.77898 77.19633 46.84198 77.40433 46.94304 77.73868 47.00604 77.94765 47.06906 78.15662 47.17012 78.49245 47.23314 78.70242 47.29614 78.91241 47.3972 79.2501 47.46022 79.46112 47.52322 79.67212 47.62428 80.01122 47.68729 80.22324 47.7503 80.43526 47.85136 80.77621 47.91438 80.98926 47.97739 81.2023 48.07846 81.54475 48.14146 81.75876 48.20448 81.97275 48.30554 82.31668 48.36855 82.53171 48.43156 82.74672 48.53261 83.0925 48.59563 83.30853 48.65863 83.52457 48.7597 83.87177 48.82271 84.08882 48.88573 84.30588 48.98679 84.65494 49.0498 84.87302 49.11281 85.09111 49.21385 85.44164 49.27687 85.66068 49.33989 85.87973 49.44095 86.23172 49.50395 86.45178 49.56697 86.67186 49.66803 87.02565 49.73105 87.2468 49.79405 87.46794 49.89511 87.82358 49.95811 88.04568 50.02113 88.26779 50.1222 88.62456 50.18521 88.84763 50.24821 89.07068 50.34927 89.42929 50.4123 89.65343 50.4753 89.87756 50.57635 90.23798 50.63936 90.46315 50.70238 90.68832 50.80344 91.05019 50.86646 91.27632 50.92946 91.50244 51.03053 91.86578 51.09354 92.09294 51.15656 92.32008 51.25761 92.6853 51.32062 92.91347 51.38364 93.14163 51.48468 93.50827 51.5477 93.73746 51.6107 93.96664 51.71178 94.33513 51.77478 94.56532 51.8378 94.79553 51.93886 95.16551 52.00188 95.39668 52.06488 95.62784 52.16592 95.99928 52.22894 96.23146 52.29196 96.46364 52.39302 96.83694 52.45602 97.07016 52.51904 97.30338 52.6201 97.67809 52.68312 97.91232 52.74612 98.14655 52.84718 98.5231 52.91019 98.75835 52.9732 98.9936 53.07426 99.37164 53.13728 99.60785 53.20029 99.84407 53.30135 100.2236 53.36436 100.46082 53.42738 100.69804 53.52843 101.07938 53.59143 101.31769 53.65445 101.55598 53.75551 101.93916 53.81853 102.17844 53.88153 102.4177 53.9826 102.80193 54.04561 103.0422 54.10863 103.28249 54.20967 103.669 54.27267 103.91032 54.3357 104.15164 54.43675 104.53918 54.49977 104.78145 54.56277 105.02373 54.66385 105.4132 54.72685 105.65648 54.78987 105.89977 54.89093 106.29065 54.95395 106.53496 55.01695 106.77927 55.118 107.17201 55.18102 107.41734 55.24403 107.66267 55.3451 108.05682 55.4081 108.30318 55.47112 108.54951 55.57217 108.94553 55.6352 109.1929 55.6982 109.44026 55.79926 109.83777 55.86226 110.08609 55.92528 110.33441 56.02634 110.73341 56.08936 110.98276 56.15236 111.23209 56.25342 111.6329 56.31644 111.88329 56.37946 112.13367 56.4805 112.5359 56.5435 112.78731 56.60652 113.0387 56.70758 113.44278 56.7706 113.69519 56.8336 113.9476 56.93468 114.35312 56.99768 114.60655 57.0607 114.85999 57.16174 115.26741 57.22475 115.5218 57.28777 115.7762 57.38882 116.18466 57.45184 116.44008 57.51485 116.69548 57.61592 117.10626 57.67892 117.36269 57.74194 117.61911 57.843 118.03087 57.90602 118.28831 57.96902 118.54576 58.07007 118.9598 58.13309 119.21828 58.1961 119.47675 58.29716 119.89183 58.36017 120.15126 58.42319 120.41069 58.52425 120.82767 58.58727 121.08813 58.65027 121.34859 58.75133 121.76698 58.81433 122.02846 58.87735 122.28993 58.97841 122.7102 59.04143 122.9727 59.10443 123.2352 59.20549 123.65688 59.26851 123.9204 59.33153 124.1839 59.43257 124.60745 59.49557 124.87198 59.5586 125.1365 59.65965 125.56152 59.72267 125.82701 59.78568 126.0925 59.88675 126.519 59.94975 126.78552 60.01277 127.05205 60.11382 127.48038 60.17682 127.74792 60.23984 128.01546 60.3409 128.44522 60.40392 128.71378 60.46692 128.98233 60.568 129.41394 60.631 129.68352 60.69402 129.9531 60.79507 130.3862 60.8581 130.65674 60.9211 130.92728 61.02214 131.36185 61.08516 131.6334 61.14818 131.90496 61.24924 132.34134 61.31224 132.61397 61.37526 132.8866 61.47632 133.32485 61.53934 133.59844 61.60234 133.87203 61.7034 134.31136 61.7664 134.5859 61.82942 134.86046 61.93048 135.30165 61.9935 135.57729 62.0565 135.85294 62.15756 136.2959 62.22058 136.57256 62.2836 136.84923 62.38464 137.29367 62.44765 137.57129 62.51067 137.8489 62.61172 138.29483 62.67474 138.57347 62.73775 138.85211 62.83882 139.2999 62.90182 139.57956 62.96484 139.8592 63.06589 140.30843 63.12889 140.58911 63.19191 140.86978 63.29297 141.32085 63.35599 141.60254 63.41899 141.88423 63.52007 142.33679 63.58307 142.61943 63.64609 142.90209 63.74713 143.35611 63.81015 143.63979 63.87315 143.92348 63.97421 144.37934 64.03723 144.66405 64.10025 144.94875 64.20131 145.40604 64.26431 145.69176 64.32733 145.97748 64.42839 146.43662 64.49141 146.72336 64.55441 147.0101 64.65547 147.47072 64.71848 147.75843 64.7815 148.04611 64.88255 148.50823 64.94557 148.79694 65.00858 149.08567 65.10963 149.54962 65.17265 149.83936 65.23567 150.12909 65.33672 150.59449 65.39972 150.88524 65.46274 151.176 65.5638 151.64322 65.62682 151.93502 65.68982 152.22679 65.7909 152.69544 65.8539 152.98824 65.91692 153.28104 66.01796 153.75154 66.08096 154.04537 66.14398 154.33919 66.24504 154.81116 66.30806 155.10594 66.37106 155.40073 66.47214 155.87419 66.53514 156.17 66.59816 156.46579 66.6992 156.94112 66.76222 157.23793 66.82523 157.53475 66.92628 158.01155 66.9893 158.30933 67.05232 158.6071 67.15338 159.08539 67.21638 159.38417 67.2794 159.68297 67.38046 160.16304 67.44348 160.46292 67.50648 160.76282 67.60754 161.24468 67.67055 161.54558 67.73357 161.84648 67.83463 162.3298 67.89764 162.63167 67.96065 162.93354 68.0617 163.41841 68.12473 163.72124 68.18774 164.02407 68.28879 164.51036 68.35179 164.81427 68.41481 165.11817 68.51587 165.60669 68.57889 165.91162 68.64189 166.21654 68.74297 166.7061 68.80597 167.01198 68.86899 167.31786 68.97003 167.80936 69.03304 168.11626 69.09605 168.42316 69.19711 168.91608 69.26013 169.224 69.32314 169.5319 69.42421 170.02667 69.48721 170.3356 69.55023 170.64455 69.65128 171.14078 69.7143 171.45069 69.7773 171.76059 69.87836 172.2583 69.94138 172.56923 70.0044 172.88016 70.10545 173.37967 70.16846 173.69167 70.23148 174.00368 70.33253 174.50504 70.39555 174.818 70.45856 175.13097 70.55962 175.63338 70.62262 175.94736 70.68564 176.26134 70.7867 176.76604 70.84972 177.08104 70.91272 177.39604 71.01378 177.9018 71.0768 178.21776 71.13982 178.5337 71.24086 179.04135 71.30386 179.35836 71.36688 179.67534 71.46794 180.1844 71.53096 180.50241 71.59396 180.82042 71.69504 181.33133 71.75804 181.65036 71.82106 181.96939 71.9221 182.48175 71.9851 182.80179 72.04813 183.12184 72.14919 183.63603 72.2122 183.95709 72.2752 184.27817 72.37628 184.79378 72.43929 185.11586 72.5023 185.43796 72.60335 185.95549 72.66637 186.27854 72.72937 186.60158 72.83043 187.12017 72.89345 187.44422 72.95647 187.76828 73.05753 188.28916 73.12053 188.61425 73.18355 188.93932 73.28459 189.46121 73.34761 189.78726 73.41061 190.11331 73.51169 190.63707 73.57469 190.9642 73.63771 191.29134 73.73877 191.81688 73.80179 192.14504 73.86479 192.47319 73.96585 193.00022 74.02887 193.32933 74.09189 193.65843 74.19293 194.18695 74.25594 194.51708 74.31895 194.8472 74.42001 195.37758 74.48303 195.70873 74.54604 196.03987 74.64711 196.57166 74.71011 196.90381 74.77313 197.23598 74.87418 197.7696 74.93718 198.10282 75.0002 198.436 75.10126 198.97112 75.16428 199.30527 75.22728 199.63942 75.32835 200.17601 75.39136 200.51119 75.45438 200.84636 75.55542 201.38481 75.61844 201.72101 75.68144 202.05719 75.7825 202.59706 75.84552 202.93427 75.90854 203.27149 76.0096 203.8132 76.0726 204.15143 76.13562 204.48967 76.23666 205.03287 76.29968 205.37204 76.36269 205.71123 76.46376 206.25594 76.52676 206.59615 76.58978 206.93634 76.69084 207.48288 76.75386 207.82411 76.81686 208.16533 76.91792 208.71329 76.98094 209.05554 77.04396 209.3978 77.145 209.9476 77.20801 210.29088 77.27103 210.63416 77.37209 211.18544 77.4351 211.52967 77.49811 211.8739 77.59918 212.42667 77.66219 212.77191 77.7252 213.11717 77.82625 213.67173 77.88925 214.01805 77.95227 214.36438 78.05333 214.9208 78.11635 215.2681 78.17935 215.61539 78.28043 216.17284 78.34343 216.52115 78.40645 216.86946 78.50749 217.4292 78.57051 217.77854 78.63351 218.12787 78.73457 218.68866 78.79759 219.03896 78.86061 219.38925 78.96167 219.95195 79.02467 220.30327 79.08769 220.65459 79.18874 221.21869 79.25175 221.57103 79.31476 221.92337 79.41583 222.48934 79.47884 222.8427 79.54185 223.19605 79.64291 223.76345 79.70593 224.11782 79.76894 224.4722 79.87 225.04145 79.93301 225.39684 79.99603 225.75223 80.09708 226.32295 80.16008 226.6793 80.2231 227.03566 80.32416 227.60788 80.38718 227.96524 80.45018 228.32262 80.55125 228.89662 80.61426 229.25507 80.67728 229.61351 80.77832 230.18936 80.84132 230.54878 80.90434 230.9082 81.0054 231.48516 81.06842 231.84554 81.13142 232.20592 81.2325 232.78473 81.2955 233.14618 81.35852 233.50765 81.45956 234.08824 81.52258 234.45072 81.58559 234.81319 81.68665 235.39527 81.74966 235.7587 81.81268 236.12213 81.91374 236.7057 81.97675 237.07016 82.03976 237.43462 82.14081 238.02005 82.20383 238.38552 82.26683 238.75099 82.3679 239.33789 82.43091 239.70432 82.49393 240.07074 82.59499 240.65912 82.658 241.02658 82.72101 241.39405 82.82205 241.98423 82.88507 242.35276 82.94809 242.7213 83.04915 243.31325 83.11215 243.68282 83.17517 244.05237 83.27623 244.64582 83.33925 245.01633 83.40225 245.38684 83.50333 245.98183 83.56633 246.3533 83.62935 246.72478 83.7304 247.32125 83.79341 247.69373 83.85641 248.06623 83.95747 248.66449 84.0205 249.03806 84.0835 249.41164 84.18457 250.01169 84.24757 250.38628 84.3106 250.76087 84.41164 251.3624 84.47466 251.73796 84.53766 252.11353 84.63872 252.71652 84.70174 253.09311 84.76476 253.4697 84.86581 254.07454 84.92882 254.45214 84.99184 254.82975 85.09288 255.43607 85.1559 255.81462 85.2189 256.19319 85.31998 256.801 85.38298 257.1806 85.446 257.56019 85.54706 258.16987 85.61008 258.5504 85.67308 258.93104 85.77412 259.54216 85.83714 259.92375 85.90016 260.30537 86.00122 260.91835 86.06422 261.30097 86.12724 261.6836 86.2283 262.29795 86.29132 262.6816 86.35432 263.06529 86.4554 263.68147 86.5184 264.06617 86.58142 264.45085 86.68246 265.06855 86.74548 265.4542 86.80849 265.8398 86.90955 266.459 86.97256 266.84568 87.03557 267.23234 87.13664 267.85334 87.19965 268.241 87.26266 268.6287 87.36371 269.25114 87.42673 269.63987 87.48973 270.02854 87.59079 270.65287 87.65381 271.04258 87.71683 271.4323 87.81789 272.05809 87.88089 272.44877 87.94391 272.83943 88.04495 273.46669 88.10797 273.85838 88.17097 274.2501 88.27205 274.87919 88.33505 275.2719 88.39807 275.66465 88.49913 276.29518 88.56215 276.68894 88.62515 277.08268 88.7262 277.71504 88.78922 278.1098 88.85223 278.50456 88.9533 279.13844 89.0163 279.53416 89.07932 279.92988 89.18037 280.56523 89.2434 280.96199 89.3064 281.3587 89.40746 281.9959 89.47046 282.39366 89.53348 282.79145 89.63454 283.43006 89.69756 283.8288 89.76056 284.2276 89.86162 284.86808 89.92464 285.26789 89.98764 285.66767 90.08871 286.30958 90.15172 286.7104 90.21474 287.1112 90.31578 287.75495 90.3788 288.15678 90.4418 288.55867 90.54286 289.20387 90.60588 289.60667 90.6689 290.0095 90.76996 290.65617 90.83296 291.05998 90.89598 291.4638 90.99702 292.11238 91.06004 292.5172 91.12305 292.92204 91.22412 293.57203 91.28712 293.97789 91.35014 294.38374 91.4512 295.03559 91.51422 295.44248 91.57722 295.84934 91.67827 296.50267 91.74129 296.9105 91.8043 297.31837 91.90536 297.9731 91.96837 298.382 92.03139 298.79087 92.13245 299.44749 92.19547 299.8574 92.25847 300.26728 92.35953 300.92533 92.42253 301.33625 92.48555 301.74714 92.58661 302.40705 92.64963 302.81898 92.71263 303.2309 92.81369 303.8923 92.87671 304.30519 92.93971 304.71806 93.04079 305.38093 93.10379 305.79484 93.16681 306.2087 93.26785 306.87348 93.33087 307.2884 93.39388 307.7033 93.49493 308.36946 93.55795 308.7854 93.62097 309.20133 93.72203 309.86936 93.78503 310.28633 93.84805 310.7033 93.9491 311.37269 94.01212 311.79066 94.07512 312.20866 94.1762 312.87995 94.2392 313.29893 94.30222 313.71794 94.40327 314.39067 94.4663 314.81065 94.5293 315.23063 94.63034 315.90486 94.69336 316.32585 94.75638 316.7468 94.85744 317.4229 94.92044 317.8449 94.98346 318.2669 95.08452 318.9444 95.14754 319.36747 95.21054 319.79048 95.3116 320.46983 95.3746 320.8939 95.43762 321.31794 95.53868 321.99873 95.6017 322.42375 95.6647 322.84877 95.76576 323.53108 95.82878 323.9571 95.89178 324.38313 95.99286 325.0673 96.05586 325.49436 96.11888 325.9214 96.21992 326.607 96.28294 327.03507 96.34595 327.46315 96.447 328.15055 96.51003 328.57963 96.57304 329.0087 96.6741 329.69767 96.7371 330.1277 96.80013 330.55775 96.90117 331.24815 96.96419 331.6792 97.02719 332.1103 97.12827 332.80253 97.19127 333.2346 97.25429 333.6667 97.35535 334.36039 97.41837 334.7935 97.48137 335.2266 97.58241 335.9221 97.64543 336.35624 97.70845 336.79039 97.80951 337.4873 97.87251 337.92247 97.93553 338.3576 98.03659 339.0564 98.09961 339.49259 98.16261 339.92875 98.26367 340.629 98.32668 341.06614 98.3897 341.50328 98.49075 342.20503 98.55377 342.64317 98.61678 343.08134 98.71783 343.78495 98.78085 344.2241 98.84386 344.66328 98.94492 345.3683 99.00792 345.8085 99.07094 346.24867 99.172 346.95555 99.23502 347.39677 99.29802 347.838 99.39908 348.54634 99.4621 348.9885 99.52512 349.4307 99.62617 350.1405 99.68918 350.5837 99.7522 351.0269 99.85324 351.7386 99.91626 352.1828 99.97926 352.627 100.08034 353.34013 100.14334 353.78535 100.20636 354.2306 100.30742 354.94554 100.37044 355.3918 100.43344 355.83808 100.53448 356.5545 100.5975 357.0017 100.66052 357.4489 100.76158 358.16685 100.82458 358.61509 100.8876 359.06333 100.98866 359.78309 101.05168 360.23234 101.11469 360.68159 101.21574 361.40278 101.27875 361.85304 101.34177 362.30335 101.44283 363.02638 101.50584 363.4777 101.56885 363.92897 101.6699 364.65345 101.73293 365.10575 101.79593 365.55809 101.89699 366.28437 101.95999 366.7377 102.02301 367.19105 102.12407 367.91886 102.18709 368.37315 102.25009 368.82743 102.35115 369.5567 102.41417 370.01203 102.47719 370.46733 102.57825 371.19847 102.64125 371.6548 102.70427 372.11116 102.80531 372.84376 102.86833 373.30104 102.93134 373.75834 103.03241 374.49244 103.09541 374.95075 103.15843 375.40907 103.25949 376.14494 103.32251 376.60435 103.38551 377.06376 103.48656 377.8014 103.54958 378.2618 103.6126 378.72224 103.71365 379.46138 103.77666 379.92277 103.83968 380.38414 103.94073 381.12483 104.00375 381.58717 104.06676 382.0495 104.16782 382.79167 104.23082 383.25505 104.29384 383.71839 104.3949 384.46238 104.45792 384.9268 104.52092 385.39125 104.62198 386.137 104.685 386.60246 104.748 387.0679 104.84906 387.81517 104.91206 388.28157 104.97508 388.74797 105.07614 389.49668 105.13916 389.96415 105.20216 390.43156 105.30322 391.18214 105.36624 391.6506 105.42926 392.11906 105.53032 392.87113 105.59332 393.3405 105.65634 393.80995 105.75739 394.56346 105.8204 395.0339 105.8834 395.50437 105.98448 396.25968 106.04749 396.7312 106.1105 397.2027 106.21156 397.95988 106.27458 398.43238 106.33759 398.90483 106.43863 399.66313 106.50165 400.13655 106.56467 400.61 106.66573 401.37013 106.72873 401.84465 106.79175 402.31919 106.8928 403.0811 106.95583 403.55665 107.01883 404.03218 107.11989 404.79557 107.18289 405.2721 107.24591 405.74858 107.34697 406.51347 107.40999 406.991 107.47299 407.4685 107.57405 408.23524 107.63707 408.71379 107.70007 409.19233 107.80113 409.96049 107.86414 410.44007 107.92715 410.9196 108.02821 411.6896 108.09123 412.1702 108.15424 412.65077 108.2553 413.4222 108.31831 413.9038 108.38133 414.3854 108.48238 415.15876 108.54538 415.6413 108.6084 416.1239 108.70946 416.89826 108.77248 417.38185 108.83548 417.86543 108.93655 418.6421 108.99956 419.1267 109.06258 419.6113 109.16364 420.389 109.22665 420.8746 109.28966 421.36015 109.3907 422.1397 109.45372 422.62638 109.51674 423.113 109.6178 423.89439 109.6808 424.38203 109.74382 424.8697 109.84488 425.65254 109.9079 426.14118 109.9709 426.6298 110.07196 427.41413 110.13496 427.90376 110.19798 428.3934 110.29904 429.17958 110.36206 429.67024 110.42506 430.1609 110.52612 430.9485 110.58914 431.4402 110.65215 431.9319 110.7532 432.72135 110.81621 433.21406 110.87923 433.70677 110.98029 434.49769 111.0433 434.99134 111.10631 435.485 111.20737 436.2774 111.27039 436.7721 111.3334 437.26679 111.43445 438.06105 111.49745 438.55677 111.56047 439.05244 111.66153 439.84815 111.72455 440.34486 111.78755 440.84159 111.88863 441.6391 111.95163 442.13688 112.01465 442.6346 112.1157 443.43363 112.17873 443.93235 112.24173 444.43107 112.34277 445.2315 112.40579 445.73127 112.46881 446.231 112.56987 447.03334 112.63287 447.53407 112.69589 448.03483 112.79695 448.8386 112.85997 449.34037 112.92297 449.84214 113.02403 450.64775 113.08704 451.1505 113.15005 451.6533 113.31413 452.96415 113.31413 452.96415"/>
</g>
</svg>
