<svg xmlns="http://www.w3.org/2000/svg" xmlns:xlink="http://www.w3.org/1999/xlink" version="1.1" width="296" height="296" viewBox="0 0 296 296">
<defs>
<path id="font_1_1" d="M.3039856 .6392822C.3039856 .6642761 .30299378 .666275 .27799989 .666275 .21598816 .60227969 .12399292 .60227969 .09298706 .60227969V.57128909C.11199951 .57128909 .17298889 .57128909 .22698975 .5972748V.08001709C.22698975 .042999269 .22399903 .0309906 .1309967 .0309906H.09899902V0C.1349945 .0029907227 .22399903 .0029907227 .2649994 .0029907227 .30599977 .0029907227 .3959961 .0029907227 .43199159 0V.0309906H.3999939C.30699159 .0309906 .3039856 .042999269 .3039856 .08001709V.6392822Z"/>
<path id="font_2_1" d="M.6749878 .22944641C.69299319 .22944641 .71199038 .22944641 .71199038 .25144959 .71199038 .27246095 .69200137 .27246095 .6749878 .27246095H.12298584C.10598755 .27246095 .085998538 .27246095 .085998538 .25144959 .085998538 .22944641 .10499573 .22944641 .12298584 .22944641H.6749878Z"/>
<path id="font_1_2" d="M.46199037 .17704773H.43399049C.43199159 .16404724 .42399598 .10501099 .41099549 .08900452 .40499879 .07998657 .33599855 .07998657 .31599427 .07998657H.13798523L.23699951 .17404175C.40098573 .3161316 .46199037 .36915589 .46199037 .4711914 .46199037 .5860901 .36698915 .6660156 .24398804 .6660156 .1289978 .6660156 .050994874 .575119 .050994874 .4841919 .050994874 .43418885 .09399414 .42919923 .102996829 .42919923 .125 .42919923 .15499878 .44519044 .15499878 .48120118 .15499878 .51119998 .13398743 .5332031 .102996829 .5332031 .09799194 .5332031 .09498596 .5332031 .09098816 .53219607 .114990238 .6030731 .1789856 .63500979 .23298645 .63500979 .33499146 .63500979 .36999513 .5401764 .36999513 .4711914 .36999513 .36915589 .29299928 .28611756 .24499512 .23408509L.06199646 .035995485C.050994874 .024993897 .050994874 .022994996 .050994874 0H.43399049L.46199037 .17704773Z"/>
<path id="font_1_3" d="M.30499269 .35195924C.397995 .38697816 .44198609 .46006776 .44198609 .5290985 .44198609 .60606387 .35699464 .6660156 .25299073 .6660156 .14898682 .6660156 .070999149 .60705569 .070999149 .5310974 .070999149 .49809266 .09298706 .47909547 .12199402 .47909547 .15098572 .47909547 .17199707 .50009158 .17199707 .5290985 .17199707 .5640869 .147995 .57910159 .11399841 .57910159 .13999939 .6210327 .20098877 .64100649 .25 .64100649 .33299256 .64100649 .34899903 .5750885 .34899903 .52809146 .34899903 .49809266 .34298707 .45005799 .31799317 .41201783 .2869873 .36695863 .2519989 .36495973 .22299195 .36296083 .19799805 .36094667 .19599915 .36094667 .18798828 .36094667 .1789856 .35995484 .17098999 .35894776 .17098999 .34794618 .17098999 .33496095 .1789856 .33496095 .19599915 .33496095H.24299622C.32998658 .33496095 .36799623 .2646637 .36799623 .16937256 .36799623 .04145813 .2999878 .0055389406 .24899292 .0055389406 .22999573 .0055389406 .1329956 .010528564 .08799744 .0843811 .12399292 .07939148 .1519928 .10437012 .1519928 .13838196 .1519928 .17137146 .1269989 .19238281 .09799194 .19238281 .07299805 .19238281 .042999269 .17736817 .042999269 .13537598 .042999269 .046447755 .13598633-.022460938 .2519989-.022460938 .3769989-.022460938 .46998597 .06741333 .46998597 .16937256 .46998597 .25663758 .40098573 .33093263 .30499269 .35195924Z"/>
<path id="font_1_4" d="M.0289917 .19602967V.16503906H.3019867V.07901001C.3019867 .041992189 .29899598 .0309906 .22399903 .0309906H.20199585V0C.2649994 .0029907227 .33499146 .0029907227 .34199525 .0029907227 .34700013 .0029907227 .4189911 .0029907227 .48199464 0V.0309906H.45999146C.3849945 .0309906 .38198854 .041992189 .38198854 .07901001V.16503906H.48399354V.19602967H.38198854V.64974978C.38198854 .669754 .38198854 .6767578 .36299134 .6767578 .35099793 .6767578 .34999085 .67575076 .34098817 .66174319L.0289917 .19602967M.06098938 .19602967 .30799867 .56581118V.19602967H.06098938Z"/>
<path id="font_1_5" d="M.10398865 .3444519C.10398865 .32641603 .10398865 .31539918 .117996219 .31539918 .12599182 .31539918 .1289978 .31941224 .1349945 .32843019 .16499329 .3704834 .21299744 .39453126 .2649994 .39453126 .37199403 .39453126 .37199403 .24029541 .37199403 .20425415 .37199403 .17324829 .37199403 .11125183 .34399415 .06637573 .31698609 .024475098 .2749939 .0055389406 .23599243 .0055389406 .1769867 .0055389406 .10998535 .042434694 .085998538 .116256717 .08699036 .116256717 .09298706 .11425781 .099990848 .11425781 .11999512 .11425781 .14898682 .12724304 .14898682 .16325379 .14898682 .19424439 .1269989 .21224976 .099990848 .21224976 .07899475 .21224976 .050994874 .20025635 .050994874 .1602478 .050994874 .069366458 .1269989-.022460938 .23799134-.022460938 .35899354-.022460938 .46199037 .0753479 .46199037 .19924927 .46199037 .3204193 .37599183 .41952516 .2669983 .41952516 .21899414 .41952516 .16999817 .40351869 .1349945 .36747743V.56477358C.16499329 .5557709 .19599915 .55078127 .22698975 .55078127 .34999085 .55078127 .42199708 .6397705 .42199708 .652771 .42199708 .6617737 .41600038 .6657715 .41099549 .6657715 .40899659 .6657715 .40699769 .6657715 .397995 .6607666 .35099793 .6417694 .30499269 .6337738 .2630005 .6337738 .21998596 .6337738 .1749878 .6417694 .1289978 .6607666 .11898804 .6657715 .116989139 .6657715 .115997318 .6657715 .10398865 .6657715 .10398865 .655777 .10398865 .6387787V.3444519Z"/>
<path id="font_3_1" d="M.33399964 .30233766C.33999635 .32835389 .36299134 .42037965 .43299867 .42037965 .43798829 .42037965 .46199037 .42037965 .48298646 .40734864 .45498658 .402359 .43499757 .37734986 .43499757 .35334779 .43499757 .33735658 .44599916 .31835938 .47299195 .31835938 .49499513 .31835938 .5269928 .3363495 .5269928 .37635804 .5269928 .42837525 .46798707 .4423828 .43399049 .4423828 .37599183 .4423828 .34098817 .38935853 .32899476 .36634828 .3039856 .43237306 .25 .4423828 .22099304 .4423828 .116989139 .4423828 .05999756 .3133545 .05999756 .28834535 .05999756 .27833558 .069992069 .27833558 .07199097 .27833558 .07998657 .27833558 .08299255 .28033448 .084991458 .28933717 .11898804 .39535523 .18499756 .42037965 .21899414 .42037965 .23799134 .42037965 .272995 .4113617 .272995 .35334779 .272995 .32235719 .2559967 .25532533 .21899414 .11528015 .20298767 .053268434 .16799927 .011245728 .12399292 .011245728 .117996219 .011245728 .09498596 .011245728 .07398987 .024276734 .09899902 .029266358 .12098694 .05027771 .12098694 .07827759 .12098694 .105270389 .09899902 .11328125 .083999637 .11328125 .053985597 .11328125 .0289917 .08728027 .0289917 .055267335 .0289917 .009246826 .07899475-.0107421879 .12298584-.0107421879 .18899536-.0107421879 .22499085 .059280397 .22799683 .0652771 .23999024 .028274537 .27598573-.0107421879 .33599855-.0107421879 .43899537-.0107421879 .49598695 .118270877 .49598695 .14328003 .49598695 .1532898 .4869995 .1532898 .48399354 .1532898 .47499085 .1532898 .47299195 .14929199 .47099305 .14228821 .43798829 .03527832 .36999513 .011245728 .33799745 .011245728 .29899598 .011245728 .2829895 .043273927 .2829895 .07727051 .2829895 .09927368 .2889862 .121276859 .2999878 .16529846L.33399964 .30233766Z"/>
<path id="font_3_2" d="M.48599244 .38136292C.48999024 .39537049 .48999024 .39736939 .48999024 .40437318 .48999024 .42237855 .47599793 .43138124 .46099855 .43138124 .45098878 .43138124 .43499757 .42536927 .42599488 .41036988 .42399598 .405365 .41600038 .37435914 .4119873 .35635377 .40499879 .33035279 .397995 .30334474 .3919983 .27633668L.34700013 .09628296C.34298707 .08126831 .2999878 .011245728 .23399353 .011245728 .18299866 .011245728 .17199707 .055267335 .17199707 .0922699 .17199707 .1382904 .18899536 .20030213 .22299195 .28833009 .23899842 .3293457 .24299622 .3403473 .24299622 .36035157 .24299622 .405365 .21099854 .4423828 .16099549 .4423828 .06599426 .4423828 .0289917 .29733277 .0289917 .28833009 .0289917 .27833558 .038986207 .27833558 .040985109 .27833558 .050994874 .27833558 .051986696 .28033448 .056991579 .29634095 .083999637 .3903656 .12399292 .42037965 .1579895 .42037965 .1659851 .42037965 .18299866 .42037965 .18299866 .3883667 .18299866 .36335755 .17298889 .3373413 .1659851 .31834413 .12599182 .21231079 .10798645 .1552887 .10798645 .10827637 .10798645 .019256592 .17098999-.0107421879 .22999573-.0107421879 .2689972-.0107421879 .30299378 .0062561037 .33099366 .03425598 .31799317-.017745972 .30599977-.06674194 .2659912-.11973572 .23999024-.15385437 .20199585-.18309021 .1559906-.18309021 .14199829-.18309021 .09700012-.18005371 .07998657-.14074707 .09599304-.14074707 .10899353-.14074707 .12298584-.1287384 .1329956-.11973572 .14299011-.10673523 .14299011-.08773804 .14299011-.056747438 .115997318-.052734376 .10598755-.052734376 .08299255-.052734376 .049987794-.068740848 .049987794-.11773682 .049987794-.16796875 .09399414-.20507813 .1559906-.20507813 .25898744-.20507813 .3619995-.11373901 .3899994-.00074768069L.48599244 .38136292Z"/>
<clipPath id="clip_4">
<path transform="matrix(1.00009,0,0,-1.00003,147.85105,149.6051)" d="M-141.73404-141.73404V141.73404H141.73404V-141.73404ZM141.73404 141.73404"/>
</clipPath>
<path id="font_5_1" d="M.44400025 .24998474C.44400025 .35688783 .35499574 .44381715 .25 .44381715 .14199829 .44381715 .054992677 .35488893 .054992677 .24998474 .054992677 .14407349 .14199829 .056137086 .25 .056137086 .35499574 .056137086 .44400025 .14308167 .44400025 .24998474Z"/>
</defs>
<path transform="matrix(1.00009,0,0,-1.00003,147.85105,149.6051)" stroke-width=".19925" stroke-linecap="butt" stroke-miterlimit="10" stroke-linejoin="miter" fill="none" stroke="#929292" stroke-opacity=".5" d="M-141.73404-141.73404H141.73404M-141.73404-113.38724H141.73404M-141.73404-85.04042H141.73404M-141.73404-56.69362H141.73404M-141.73404-28.3468H141.73404M-141.73404 0H141.73404M-141.73404 28.3468H141.73404M-141.73404 56.69362H141.73404M-141.73404 85.04042H141.73404M-141.73404 113.38724H141.73404M-141.73404 141.72409H141.73404M-141.73404-141.73404V141.73404M-113.38724-141.73404V141.73404M-85.04042-141.73404V141.73404M-56.69362-141.73404V141.73404M-28.3468-141.73404V141.73404M0-141.73404V141.73404M28.3468-141.73404V141.73404M56.69362-141.73404V141.73404M85.04042-141.73404V141.73404M113.38724-141.73404V141.73404M141.72409-141.73404V141.73404M141.73404 141.73404"/>
<path transform="matrix(1.00009,0,0,-1.00003,147.85105,149.6051)" stroke-width="1.19553" stroke-linecap="butt" stroke-miterlimit="10" stroke-linejoin="miter" fill="none" stroke="#000000" d="M28.3468 2.49069V-2.49069M-28.3468 2.49069V-2.49069M2.49069 28.3468H-2.49069M2.49069-28.3468H-2.49069"/>
<use data-text="1" xlink:href="#font_1_1" transform="matrix(8.967207,0,0,-8.966669,173.8964,161.79247)"/>
<use data-text="&#x2212;" xlink:href="#font_2_1" transform="matrix(8.967207,0,0,-8.966669,113.61396,161.79247)"/>
<use data-text="1" xlink:href="#font_1_1" transform="matrix(8.967207,0,0,-8.966669,120.782619,161.79247)"/>
<use data-text="1" xlink:href="#font_1_1" transform="matrix(8.967207,0,0,-8.966669,136.83306,124.14634)"/>
<use data-text="&#x2212;" xlink:href="#font_2_1" transform="matrix(8.967207,0,0,-8.966669,129.6654,180.42704)"/>
<use data-text="1" xlink:href="#font_1_1" transform="matrix(8.967207,0,0,-8.966669,136.83406,180.42704)"/>
<path transform="matrix(1.00009,0,0,-1.00003,147.85105,149.6051)" stroke-width="1.19553" stroke-linecap="butt" stroke-miterlimit="10" stroke-linejoin="miter" fill="none" stroke="#000000" d="M56.69362 2.49069V-2.49069M-56.69362 2.49069V-2.49069M2.49069 56.69362H-2.49069M2.49069-56.69362H-2.49069"/>
<use data-text="2" xlink:href="#font_1_2" transform="matrix(8.967207,0,0,-8.966669,202.24594,161.79247)"/>
<use data-text="&#x2212;" xlink:href="#font_2_1" transform="matrix(8.967207,0,0,-8.966669,85.264408,161.79247)"/>
<use data-text="2" xlink:href="#font_1_2" transform="matrix(8.967207,0,0,-8.966669,92.43306,161.79247)"/>
<use data-text="2" xlink:href="#font_1_2" transform="matrix(8.967207,0,0,-8.966669,136.83306,95.799488)"/>
<use data-text="&#x2212;" xlink:href="#font_2_1" transform="matrix(8.967207,0,0,-8.966669,129.6654,208.77487)"/>
<use data-text="2" xlink:href="#font_1_2" transform="matrix(8.967207,0,0,-8.966669,136.83406,208.77487)"/>
<path transform="matrix(1.00009,0,0,-1.00003,147.85105,149.6051)" stroke-width="1.19553" stroke-linecap="butt" stroke-miterlimit="10" stroke-linejoin="miter" fill="none" stroke="#000000" d="M85.04042 2.49069V-2.49069M-85.04042 2.49069V-2.49069M2.49069 85.04042H-2.49069M2.49069-85.04042H-2.49069"/>
<use data-text="3" xlink:href="#font_1_3" transform="matrix(8.967207,0,0,-8.966669,230.59549,161.79247)"/>
<use data-text="&#x2212;" xlink:href="#font_2_1" transform="matrix(8.967207,0,0,-8.966669,56.914857,161.79247)"/>
<use data-text="3" xlink:href="#font_1_3" transform="matrix(8.967207,0,0,-8.966669,64.08351,161.79247)"/>
<use data-text="3" xlink:href="#font_1_3" transform="matrix(8.967207,0,0,-8.966669,136.83306,67.45164)"/>
<use data-text="&#x2212;" xlink:href="#font_2_1" transform="matrix(8.967207,0,0,-8.966669,129.6654,237.12274)"/>
<use data-text="3" xlink:href="#font_1_3" transform="matrix(8.967207,0,0,-8.966669,136.83406,237.12274)"/>
<path transform="matrix(1.00009,0,0,-1.00003,147.85105,149.6051)" stroke-width="1.19553" stroke-linecap="butt" stroke-miterlimit="10" stroke-linejoin="miter" fill="none" stroke="#000000" d="M113.38724 2.49069V-2.49069M-113.38724 2.49069V-2.49069M2.49069 113.38724H-2.49069M2.49069-113.38724H-2.49069"/>
<use data-text="4" xlink:href="#font_1_4" transform="matrix(8.967207,0,0,-8.966669,258.94404,161.79247)"/>
<use data-text="&#x2212;" xlink:href="#font_2_1" transform="matrix(8.967207,0,0,-8.966669,28.565308,161.79247)"/>
<use data-text="4" xlink:href="#font_1_4" transform="matrix(8.967207,0,0,-8.966669,35.733964,161.79247)"/>
<use data-text="4" xlink:href="#font_1_4" transform="matrix(8.967207,0,0,-8.966669,136.83306,39.103784)"/>
<use data-text="&#x2212;" xlink:href="#font_2_1" transform="matrix(8.967207,0,0,-8.966669,129.6654,265.46958)"/>
<use data-text="4" xlink:href="#font_1_4" transform="matrix(8.967207,0,0,-8.966669,136.83406,265.46958)"/>
<path transform="matrix(1.00009,0,0,-1.00003,147.85105,149.6051)" stroke-width="1.19553" stroke-linecap="butt" stroke-miterlimit="10" stroke-linejoin="miter" fill="none" stroke="#000000" d="M141.73404 2.49069V-2.49069M-141.73404 2.49069V-2.49069M2.49069 141.73404H-2.49069M2.49069-141.73404H-2.49069"/>
<use data-text="5" xlink:href="#font_1_5" transform="matrix(8.967207,0,0,-8.966669,287.29359,161.79247)"/>
<use data-text="&#x2212;" xlink:href="#font_2_1" transform="matrix(8.967207,0,0,-8.966669,.21575928,161.79247)"/>
<use data-text="5" xlink:href="#font_1_5" transform="matrix(8.967207,0,0,-8.966669,7.3844149,161.79247)"/>
<use data-text="5" xlink:href="#font_1_5" transform="matrix(8.967207,0,0,-8.966669,136.83306,10.755936)"/>
<use data-text="&#x2212;" xlink:href="#font_2_1" transform="matrix(8.967207,0,0,-8.966669,129.6654,293.81745)"/>
<use data-text="5" xlink:href="#font_1_5" transform="matrix(8.967207,0,0,-8.966669,136.83406,293.81745)"/>
<path transform="matrix(1.00009,0,0,-1.00003,147.85105,149.6051)" stroke-width="1.19553" stroke-linecap="butt" stroke-miterlimit="10" stroke-linejoin="miter" fill="none" stroke="#000000" d="M-141.73404 0H143.61248"/>
<path transform="matrix(1.00009,0,0,-1.00003,291.47645,149.6051)" stroke-width=".9564" stroke-linecap="round" stroke-linejoin="round" fill="none" stroke="#000000" d="M-1.91284 2.55046C-1.75343 1.59402 0 .15938 .4782 0 0-.15938-1.75343-1.59402-1.91284-2.55046"/>
<use data-text="x" xlink:href="#font_3_1" transform="matrix(9.963496,0,0,-9.962899,289.58583,145.68698)"/>
<path transform="matrix(1.00009,0,0,-1.00003,147.85105,149.6051)" stroke-width="1.19553" stroke-linecap="butt" stroke-miterlimit="10" stroke-linejoin="miter" fill="none" stroke="#000000" d="M0-141.73404V143.61248"/>
<path transform="matrix(0,-1.00003,-1.00009,-0,147.85105,5.988312)" stroke-width=".9564" stroke-linecap="round" stroke-linejoin="round" fill="none" stroke="#000000" d="M-1.91284 2.55046C-1.75343 1.59402 0 .15938 .4782 0 0-.15938-1.75343-1.59402-1.91284-2.55046"/>
<use data-text="y" xlink:href="#font_3_2" transform="matrix(9.963496,0,0,-9.962899,151.7694,6.207794)"/>
<g clip-path="url(#clip_4)">
<path transform="matrix(1.00009,0,0,-1.00003,147.85105,149.6051)" stroke-width=".79701" stroke-linecap="butt" stroke-miterlimit="10" stroke-linejoin="miter" fill="none" stroke="#0000ff" d="M-141.73404-37.79515C-141.73404-37.79515-141.3237-37.52214-141.1661-37.41713-141.00853-37.3121-140.75579-37.14336-140.59819-37.03821-140.44062-36.93307-140.18785-36.76431-140.03026-36.6593-139.87268-36.55429-139.61994-36.38629-139.46236-36.28128-139.30477-36.17627-139.052-36.0075-138.89443-35.90237-138.73683-35.79723-138.48409-35.62848-138.3265-35.52345-138.16892-35.41844-137.91616-35.25044-137.75858-35.14543-137.60099-35.04042-137.34824-34.87166-137.19066-34.76653-137.03307-34.66139-136.7803-34.49265-136.62273-34.38763-136.46515-34.28261-136.21239-34.1146-136.05481-34.00958-135.89723-33.90457-135.64449-33.73581-135.4869-33.63068-135.32932-33.52554-135.07656-33.3568-134.91896-33.25179-134.76139-33.14676-134.50864-32.97876-134.35105-32.87373-134.19347-32.76872-133.9407-32.59996-133.78311-32.49483-133.62554-32.3897-133.37279-32.22095-133.21521-32.11594-133.05762-32.01093-132.80486-31.84291-132.64728-31.7379-132.48969-31.63287-132.23694-31.46413-132.07936-31.35898-131.92177-31.25385-131.669-31.0851-131.51143-30.98009-131.35384-30.87508-131.10109-30.70706-130.94351-30.60205-130.78592-30.49702-130.53316-30.3283-130.37558-30.22314-130.218-30.11801-129.96524-29.94926-129.80767-29.84424-129.65009-29.73923-129.39734-29.57121-129.23975-29.4662-129.08217-29.36119-128.8294-29.19244-128.67182-29.08731-128.51424-28.98216-128.26149-28.81342-128.1039-28.70839-127.94632-28.60338-127.69356-28.43536-127.53596-28.33035-127.37839-28.22534-127.12564-28.0566-126.96806-27.95146-126.81047-27.84633-126.55771-27.67757-126.40013-27.57256-126.24254-27.46753-125.98979-27.29953-125.83221-27.1945-125.67462-27.0895-125.42186-26.92075-125.26428-26.81561-125.10669-26.71048-124.85394-26.54172-124.69637-26.4367-124.53877-26.3317-124.28601-26.16368-124.12843-26.05865-123.97086-25.95364-123.7181-25.7849-123.56052-25.67976-123.40294-25.57463-123.15019-25.40587-122.9926-25.30086-122.83502-25.19585-122.58226-25.02785-122.42467-24.92284-122.26709-24.81781-122.01434-24.64906-121.85675-24.54391-121.69917-24.43878-121.44641-24.27002-121.28882-24.16501-121.13124-24.06-120.8785-23.892-120.72092-23.78699-120.56332-23.68198-120.31056-23.51321-120.15298-23.40808-119.99539-23.30293-119.74265-23.13419-119.58507-23.02916-119.42747-22.92415-119.17471-22.75615-119.01714-22.65114-118.85954-22.54613-118.6068-22.37737-118.44922-22.27223-118.29163-22.1671-118.03888-21.99835-117.8813-21.89334-117.72372-21.78831-117.47095-21.6203-117.31337-21.51529-117.15579-21.41028-116.90305-21.24152-116.74545-21.13638-116.58788-21.03125-116.33511-20.8625-116.17752-20.75749-116.01994-20.65247-115.7672-20.48447-115.6096-20.37944-115.45203-20.27443-115.19926-20.10567-115.04167-20.00053-114.8841-19.8954-114.63135-19.72665-114.47377-19.62164-114.31618-19.51663-114.06342-19.34862-113.90584-19.2436-113.74825-19.13858-113.4955-18.96983-113.33792-18.86469-113.18033-18.75955-112.92757-18.5908-112.76999-18.4858-112.6124-18.38078-112.35965-18.21277-112.20207-18.10776-112.04448-18.00273-111.79173-17.834-111.63416-17.72885-111.47658-17.62372-111.2238-17.45497-111.06622-17.34995-110.90865-17.24493-110.6559-17.07692-110.4983-16.97191-110.34073-16.8669-110.08797-16.69815-109.93037-16.59302-109.7728-16.48787-109.52005-16.31912-109.36246-16.2141-109.20488-16.10909-108.95212-15.94107-108.79453-15.83606-108.63695-15.73105-108.3842-15.5623-108.22662-15.45717-108.06903-15.35204-107.81627-15.18327-107.65869-15.07826-107.5011-14.97324-107.24835-14.80524-107.09077-14.70021-106.93318-14.5952-106.68042-14.42645-106.52284-14.32132-106.36525-14.21619-106.1125-14.04742-105.95493-13.94241-105.79733-13.8374-105.54459-13.6694-105.38701-13.56438-105.22943-13.45937-104.97665-13.2906-104.81908-13.18547-104.6615-13.08034-104.40875-12.91158-104.25116-12.80656-104.09358-12.70155-103.84082-12.53355-103.68323-12.42854-103.52565-12.32352-103.2729-12.15477-103.11531-12.04962-102.95773-11.94449-102.70497-11.77573-102.54738-11.67072-102.3898-11.5657-102.13705-11.3977-101.97948-11.2927-101.82188-11.18768-101.56912-11.01892-101.41154-10.91379-101.25395-10.80864-101.0012-10.63991-100.84363-10.53488-100.68604-10.42987-100.43327-10.26186-100.2757-10.15685-100.1181-10.05183-99.86536-9.88307-99.70778-9.77794-99.55019-9.6728-99.29744-9.50406-99.13986-9.39905-98.98228-9.29402-98.7295-9.126-98.57193-9.021-98.41435-8.91599-98.1616-8.74722-98.00401-8.64209-97.84644-8.53696-97.59367-8.36821-97.43608-8.2632-97.2785-8.15817-97.02576-7.99017-96.86816-7.88515-96.71059-7.78014-96.45782-7.61137-96.30023-7.50624-96.14265-7.40111-95.88991-7.23236-95.73233-7.12735-95.57474-7.02234-95.32198-6.85432-95.1644-6.74931-95.0068-6.64429-94.75406-6.47556-94.59648-6.3704-94.43889-6.26527-94.18614-6.09651-94.02856-5.9915-93.87097-5.88649-93.61821-5.71848-93.46063-5.61346-93.30304-5.50844-93.0503-5.3397-92.89272-5.23456-92.73514-5.12943-92.48236-4.96068-92.32478-4.85565-92.1672-4.75064-91.91446-4.58263-91.75687-4.47762-91.59929-4.3726-91.34653-4.20386-91.18893-4.09872-91.03136-3.99358-90.77861-3.82483-90.62102-3.7198-90.46344-3.61479-90.21068-3.44678-90.05309-3.34177-89.89551-3.23676-89.64276-3.06801-89.48518-2.96288-89.32759-2.85774-89.07483-2.68898-88.91725-2.58397-88.75966-2.47894-88.50691-2.31094-88.34933-2.20592-88.19174-2.1009-87.939-1.93216-87.78142-1.82703-87.62383-1.7219-87.37106-1.55313-87.21349-1.44812-87.0559-1.34311-86.80315-1.17511-86.64557-1.07008-86.48799-.96507-86.23521-.79631-86.07764-.69118-85.92006-.58604-85.66731-.41728-85.50972-.31227-85.35214-.20726-85.09938-.03928-84.94179 .06572-84.78421 .17075-84.53146 .3395-84.37387 .44464-84.2163 .54977-83.96353 .71854-83.80594 .82355-83.64836 .92856-83.39561 1.09656-83.23804 1.20157-83.08044 1.30658-82.82768 1.47534-82.6701 1.58047-82.51251 1.68562-82.25977 1.85435-82.10219 1.95938-81.9446 2.06439-81.69185 2.2324-81.53427 2.33742-81.37668 2.44243-81.12392 2.61119-80.96634 2.71632-80.80875 2.82146-80.556 2.9902-80.39842 3.09521-80.24084 3.20024-79.98807 3.36826-79.83049 3.47327-79.67291 3.57828-79.42017 3.74704-79.26257 3.85217-79.105 3.9573-78.85223 4.12605-78.69464 4.23106-78.53706 4.33609-78.28432 4.50409-78.12672 4.60912-77.96915 4.71413-77.71638 4.88289-77.55879 4.98802-77.40121 5.09315-77.14847 5.2619-76.99089 5.36691-76.8333 5.47192-76.58054 5.63994-76.42296 5.74495-76.26537 5.84998-76.01262 6.0187-75.85504 6.12386-75.69745 6.22899-75.4447 6.39775-75.28712 6.50276-75.12953 6.60777-74.87677 6.77579-74.7192 6.8808-74.5616 6.98582-74.30885 7.15456-74.15128 7.2597-73.9937 7.36484-73.74092 7.53358-73.58334 7.63861-73.42577 7.74362-73.17302 7.91164-73.01543 8.01665-72.85785 8.12166-72.60509 8.2904-72.4475 8.39554-72.28992 8.50069-72.03717 8.66943-71.87958 8.77446-71.722 8.87947-71.46924 9.04749-71.31165 9.1525-71.15407 9.2575-70.90132 9.42625-70.74374 9.53139-70.58615 9.63652-70.3334 9.80528-70.17583 9.9103-70.01823 10.01532-69.76547 10.1833-69.6079 10.28833-69.4503 10.39334-69.19756 10.5621-69.03998 10.66724-68.88239 10.77237-68.62962 10.94113-68.47205 11.04614-68.31445 11.15115-68.0617 11.31915-67.90413 11.42418-67.74655 11.52919-67.49377 11.69795-67.3362 11.80309-67.17862 11.90822-66.92587 12.07698-66.76828 12.18199-66.6107 12.287-66.35794 12.455-66.20035 12.56001-66.04277 12.66504-65.79002 12.83379-65.63243 12.93893-65.47485 13.04407-65.22209 13.21281-65.0645 13.31783-64.90692 13.42284-64.65417 13.59085-64.4966 13.69586-64.339 13.80087-64.08626 13.96964-63.92868 14.07477-63.77109 14.17992-63.51833 14.34865-63.36075 14.45367-63.20316 14.55869-62.95041 14.7267-62.79283 14.83171-62.63524 14.93672-62.38248 15.10548-62.2249 15.21062-62.0673 15.31575-61.81456 15.4845-61.65698 15.58951-61.4994 15.69453-61.24663 15.86255-61.08905 15.96756-60.93147 16.07257-60.67873 16.24133-60.52113 16.34647-60.36356 16.4516-60.1108 16.62035-59.9532 16.72536-59.79562 16.83038-59.54288 16.99838-59.38528 17.10341-59.2277 17.20842-58.97495 17.37717-58.81735 17.4823-58.65977 17.58743-58.40703 17.7562-58.24945 17.8612-58.09186 17.96622-57.83911 18.13423-57.68153 18.23924-57.52394 18.34427-57.27118 18.513-57.1136 18.61815-56.95601 18.72328-56.70326 18.89204-56.54568 18.99706-56.38809 19.10207-56.13533 19.27008-55.97775 19.37509-55.82016 19.48012-55.56741 19.64885-55.40984 19.754-55.25226 19.85913-54.99948 20.02788-54.8419 20.1329-54.68433 20.23792-54.43158 20.40593-54.27399 20.51094-54.11641 20.61595-53.86365 20.7847-53.70605 20.88983-53.54848 20.99498-53.29573 21.16373-53.13814 21.26875-52.98056 21.37376-52.7278 21.54178-52.5702 21.64679-52.41263 21.7518-52.15988 21.92055-52.0023 22.02568-51.84471 22.13081-51.59196 22.29958-51.43439 22.40459-51.2768 22.50961-51.02403 22.6776-50.86646 22.78262-50.70886 22.88763-50.45612 23.0564-50.29854 23.16153-50.14095 23.26666-49.88818 23.43542-49.7306 23.54044-49.57301 23.64545-49.32027 23.81345-49.16269 23.91847-49.00511 24.02348-48.75233 24.19225-48.59476 24.29738-48.43718 24.40251-48.18443 24.57127-48.02684 24.67628-47.86926 24.7813-47.6165 24.9493-47.45891 25.0543-47.30133 25.15933-47.04858 25.32808-46.89099 25.43323-46.73341 25.53836-46.48067 25.7071-46.32307 25.81212-46.1655 25.91713-45.91273 26.08514-45.75516 26.19016-45.59756 26.29517-45.34482 26.46393-45.18724 26.56906-45.02965 26.67421-44.77689 26.84294-44.61931 26.94797-44.46172 27.05298-44.20897 27.221-44.05139 27.326-43.8938 27.43102-43.64104 27.59978-43.48346 27.70491-43.32587 27.81004-43.07312 27.97879-42.91554 28.0838-42.75797 28.18883-42.50519 28.35684-42.34761 28.46185-42.19003 28.56686-41.93729 28.73563-41.7797 28.84076-41.62212 28.94589-41.36935 29.11464-41.21176 29.21965-41.05418 29.32468-40.80144 29.49268-40.64384 29.5977-40.48627 29.70271-40.23352 29.87146-40.07593 29.9766-39.91835 30.08173-39.66559 30.25049-39.50801 30.3555-39.35042 30.46051-39.09767 30.62852-38.9401 30.73354-38.7825 30.83856-38.52974 31.0073-38.37216 31.11244-38.21457 31.21758-37.96182 31.38634-37.80424 31.49135-37.64665 31.59636-37.39389 31.76437-37.23631 31.86938-37.07872 31.97441-36.82597 32.14314-36.6684 32.24829-36.51082 32.35342-36.25804 32.52217-36.10046 32.6272-35.94289 32.73221-35.69014 32.90022-35.53255 33.00523-35.37497 33.11024-35.12221 33.27899-34.96461 33.38412-34.80704 33.48927-34.55429 33.65802-34.3967 33.76305-34.23912 33.86806-33.98637 34.03606-33.82878 34.14107-33.6712 34.24608-33.41844 34.41484-33.26086 34.51997-33.10327 34.6251-32.85052 34.79387-32.69295 34.89888-32.53535 35.0039-32.2826 35.17189-32.12502 35.27692-31.96742 35.38193-31.71468 35.55069-31.5571 35.65582-31.3995 35.76096-31.14674 35.92972-30.98917 36.03473-30.83157 36.13974-30.57883 36.30774-30.42125 36.41277-30.26367 36.51778-30.0109 36.68654-29.85332 36.79167-29.69574 36.8968-29.443 37.06555-29.2854 37.17056-29.12782 37.27557-28.87508 37.44359-28.71748 37.5486-28.5599 37.65363-28.30714 37.82237-28.14955 37.92752-27.99197 38.03265-27.73923 38.2014-27.58163 38.30641-27.42406 38.41142-27.1713 38.57944-27.01372 38.68445-26.85612 38.78946-26.60338 38.95822-26.4458 39.06335-26.28821 39.1685-26.03545 39.33723-25.87787 39.44226-25.72028 39.54727-25.46753 39.71529-25.30995 39.8203-25.15236 39.92531-24.8996 40.09407-24.74202 40.1992-24.58443 40.30434-24.33168 40.47308-24.1741 40.5781-24.01653 40.68312-23.76375 40.85114-23.60617 40.95615-23.4486 41.06116-23.19585 41.2299-23.03825 41.33504-22.88068 41.44017-22.62793 41.60893-22.47034 41.71394-22.31276 41.81897-22.06 41.98697-21.9024 42.092-21.74483 42.197-21.49208 42.36575-21.33449 42.47089-21.17691 42.57602-20.92415 42.74478-20.76657 42.8498-20.60898 42.9548-20.35623 43.12282-20.19865 43.22783-20.04106 43.33286-19.7883 43.50159-19.63072 43.60674-19.47313 43.71187-19.22038 43.88063-19.0628 43.98564-18.90521 44.09065-18.65245 44.25867-18.49487 44.36368-18.33728 44.4687-18.08453 44.63744-17.92696 44.74258-17.76938 44.84772-17.5166 45.01646-17.35902 45.12149-17.20145 45.2265-16.9487 45.3945-16.7911 45.49951-16.63353 45.60452-16.38078 45.77328-16.22319 45.87842-16.06561 45.98357-15.81285 46.15231-15.65526 46.25734-15.49768 46.36235-15.24493 46.53035-15.08734 46.63536-14.92976 46.74037-14.677 46.90913-14.51942 47.01427-14.36183 47.1194-14.10909 47.28816-13.9515 47.39317-13.79391 47.4982-13.54115 47.66618-13.38358 47.77121-13.22598 47.87622-12.97324 48.04498-12.81566 48.15012-12.65807 48.25525-12.4053 48.42401-12.24773 48.52902-12.09013 48.63403-11.83739 48.80203-11.67981 48.90706-11.52223 49.01207-11.26945 49.18083-11.11188 49.28596-10.9543 49.3911-10.70155 49.55984-10.54396 49.66486-10.38638 49.76987-10.13364 49.93788-9.97604 50.0429-9.81847 50.14792-9.5657 50.31667-9.40811 50.42181-9.25053 50.52695-8.99779 50.6957-8.8402 50.8007-8.68262 50.90572-8.42986 51.07373-8.27228 51.17874-8.11469 51.28375-7.86194 51.45251-7.70436 51.55765-7.54677 51.6628-7.294 51.83153-7.13643 51.93655-6.97884 52.04156-6.72609 52.20958-6.56851 52.31459-6.41092 52.4196-6.15816 52.58836-6.00058 52.6935-5.84299 52.79863-5.59024 52.96738-5.43266 53.07239-5.27509 53.17741-5.02232 53.34543-4.86475 53.45044-4.70717 53.55545-4.4544 53.7242-4.29681 53.82933-4.13924 53.93446-3.88649 54.10323-3.7289 54.20824-3.57132 54.31326-3.31856 54.48126-3.16096 54.58629-3.00339 54.6913-2.75064 54.86005-2.59305 54.96518-2.43547 55.07031-2.18271 55.23907-2.02513 55.34409-1.86754 55.4491-1.61479 55.61711-1.45721 55.72212-1.29962 55.82715-1.04686 55.99588-.88928 56.10103-.73169 56.20616-.47894 56.37492-.32137 56.47993-.16377 56.58495 .08896 56.75302 .24654 56.85797 .40413 56.96294 .65688 57.13142 .81445 57.23645 .97203 57.34146 1.2248 57.50984 1.38237 57.61491 1.53995 57.71999 1.79271 57.88873 1.9503 57.9938 2.10788 58.09888 2.36063 58.26727 2.51822 58.37228 2.6758 58.47731 2.92856 58.64568 3.08615 58.75076 3.24373 58.85583 3.49648 59.02458 3.65407 59.12965 3.81165 59.23473 4.0644 59.40312 4.22198 59.50813 4.37958 59.61316 4.63232 59.78152 4.7899 59.88661 4.9475 59.99168 5.20026 60.16042 5.35783 60.2655 5.51543 60.37057 5.76817 60.53896 5.92575 60.64397 6.08334 60.74898 6.3361 60.91737 6.49368 61.02245 6.65128 61.12753 6.90402 61.29626 7.0616 61.40135 7.21918 61.50642 7.47194 61.6748 7.62952 61.77982 7.7871 61.88483 8.03986 62.0532 8.19745 62.15828 8.35503 62.26335 8.60777 62.43211 8.76537 62.53719 8.92294 62.64227 9.1757 62.81064 9.3333 62.91566 9.49088 63.02068 9.74362 63.18906 9.90121 63.29413 10.05879 63.3992 10.31155 63.56796 10.46913 63.67303 10.62672 63.7781 10.87947 63.94649 11.03705 64.05151 11.19464 64.15652 11.4474 64.3249 11.60498 64.42998 11.76257 64.53505 12.01532 64.70381 12.1729 64.80888 12.33049 64.91396 12.58325 65.08234 12.74083 65.18735 12.89842 65.29237 13.15117 65.46074 13.30875 65.56583 13.46632 65.6709 13.71909 65.83966 13.87666 65.94473 14.03424 66.0498 14.287 66.21819 14.4446 66.3232 14.60217 66.4282 14.85492 66.59659 15.01251 66.70166 15.17009 66.80675 15.42285 66.9755 15.58044 67.08058 15.73802 67.18565 15.99077 67.35403 16.14836 67.45905 16.30594 67.56406 16.5587 67.73244 16.71628 67.83751 16.87387 67.9426 17.12662 68.11134 17.2842 68.21642 17.44179 68.3215 17.69455 68.48988 17.85213 68.5949 18.00972 68.6999 18.26247 68.86829 18.42004 68.97336 18.57764 69.07843 18.83038 69.24718 18.98796 69.35225 19.14555 69.45734 19.39832 69.62572 19.5559 69.73074 19.71347 69.83575 19.96623 70.00414 20.12381 70.1092 20.28139 70.21428 20.53415 70.38303 20.69174 70.4881 20.84932 70.59317 21.10207 70.76157 21.25966 70.86658 21.41724 70.9716 21.67 71.13997 21.82759 71.24506 21.98517 71.35013 22.23792 71.51888 22.39551 71.62395 22.55309 71.72902 22.80585 71.8974 22.96342 72.00241 23.12102 72.10744 23.37376 72.27582 23.53134 72.3809 23.68893 72.48598 23.9417 72.65471 24.09927 72.7598 24.25687 72.86487 24.50961 73.03325 24.66719 73.13826 24.82478 73.24327 25.07753 73.41167 25.2351 73.51674 25.3927 73.62183 25.64546 73.79056 25.80304 73.89565 25.96062 74.00072 26.21338 74.1691 26.37096 74.27411 26.52853 74.37912 26.7813 74.5475 26.93889 74.65257 27.09647 74.75764 27.34921 74.9264 27.5068 75.03148 27.66438 75.13657 27.91714 75.30493 28.07474 75.40996 28.23232 75.51497 28.48506 75.68335 28.64265 75.78842 28.80023 75.8935 29.053 76.06226 29.21057 76.16733 29.36816 76.2724 29.62091 76.44078 29.77849 76.5458 29.93608 76.65082 30.18884 76.8192 30.34642 76.92427 30.50401 77.02934 30.75676 77.1981 30.91434 77.30318 31.07193 77.40825 31.32468 77.57663 31.48225 77.68164 31.63985 77.78667 31.89261 77.95503 32.05019 78.06012 32.20776 78.16519 32.46053 78.33395 32.6181 78.43903 32.77568 78.5441 33.02844 78.71248 33.18604 78.81749 33.34361 78.9225 33.59636 79.09088 33.75395 79.19595 33.91153 79.30104 34.16429 79.46979 34.32188 79.57487 34.47946 79.67995 34.73221 79.84833 34.8898 79.95334 35.04738 80.05835 35.30014 80.22673 35.45772 80.3318 35.61531 80.43689 35.86806 80.60564 36.02563 80.71071 36.18323 80.8158 36.43599 80.98418 36.59357 81.08919 36.75116 81.1942 37.0039 81.36258 37.16148 81.46765 37.31908 81.57272 37.57182 81.74147 37.7294 81.84654 37.887 81.95163 38.13976 82.12001 38.29733 82.22504 38.45491 82.33005 38.70767 82.49843 38.86525 82.6035 39.02283 82.70857 39.27559 82.87732 39.43318 82.98239 39.59076 83.08746 39.8435 83.25584 40.0011 83.36086 40.15868 83.46588 40.41144 83.63426 40.56903 83.73935 40.72661 83.84442 40.97935 84.01317 41.13695 84.11824 41.29453 84.22331 41.54729 84.3917 41.70486 84.4967 41.86246 84.60173 42.1152 84.77011 42.27278 84.8752 42.43037 84.98027 42.68312 85.149 42.8407 85.25409 42.99829 85.35916 43.25105 85.52754 43.40863 85.63255 43.56622 85.73756 43.81897 85.90594 43.97655 86.01102 44.13414 86.1161 44.3869 86.28485 44.54448 86.38994 44.70206 86.49501 44.95482 86.66339 45.1124 86.7684 45.26997 86.87341 45.52274 87.0418 45.68033 87.14687 45.8379 87.25194 46.09065 87.4207 46.24825 87.52577 46.40582 87.63086 46.65858 87.79922 46.81618 87.90425 46.97375 88.00926 47.2265 88.17764 47.3841 88.28271 47.54167 88.38779 47.79443 88.55655 47.95201 88.66162 48.1096 88.7667 48.36235 88.93507 48.51993 89.0401 48.67752 89.14511 48.93027 89.31349 49.08784 89.41856 49.24544 89.52364 49.4982 89.6924 49.65578 89.79747 49.81337 89.90254 50.06612 90.07092 50.2237 90.17593 50.38129 90.28096 50.63405 90.44933 50.79163 90.55441 50.9492 90.65948 51.20197 90.82825 51.35954 90.93332 51.51712 91.03839 51.76988 91.20677 51.92747 91.31178 52.08505 91.4168 52.3378 91.58517 52.49539 91.69025 52.65297 91.79533 52.90573 91.96408 53.06332 92.06917 53.2209 92.17424 53.47365 92.34262 53.63124 92.44763 53.78882 92.55264 54.04158 92.72102 54.19916 92.8261 54.35675 92.93118 54.6095 93.09991 54.76707 93.20499 54.92467 93.31007 55.17741 93.47847 55.33499 93.58348 55.49258 93.68849 55.74535 93.85687 55.90292 93.96194 56.06052 94.06702 56.31326 94.23576 56.47084 94.34084 56.62843 94.44592 56.8812 94.6143 57.03877 94.71933 57.19635 94.82434 57.44911 94.99272 57.60669 95.0978 57.76427 95.20287 58.01703 95.37161 58.17462 95.47668 58.3322 95.58176 58.58495 95.75014 58.74254 95.85515 58.90012 95.96017 59.15288 96.12856 59.31047 96.23364 59.46805 96.33871 59.7208 96.50746 59.87839 96.61253 60.03596 96.7176 60.28873 96.88599 60.4463 96.991 60.6039 97.09602 60.85664 97.2644 61.01422 97.36949 61.17181 97.47456 61.42456 97.6433 61.58214 97.74838 61.73973 97.85345 61.9925 98.02184 62.15007 98.12685 62.30766 98.23186 62.56041 98.40024 62.71799 98.50531 62.87558 98.6104 63.12834 98.77914 63.28592 98.88423 63.4435 98.9893 63.69626 99.15768 63.85384 99.2627 64.01141 99.3677 64.26418 99.53609 64.42177 99.64116 64.57935 99.74623 64.83209 99.915 64.98969 100.02007 65.14726 100.12515 65.40002 100.29352 65.55762 100.39854 65.7152 100.50356 65.96794 100.67194 66.12553 100.77701 66.28311 100.88208 66.53586 101.05084 66.69344 101.15591 66.85103 101.26099 67.10379 101.42937 67.26137 101.5344 67.41896 101.6394 67.6717 101.80779 67.82928 101.91286 67.98688 102.01793 68.23964 102.18669 68.39722 102.29176 68.55481 102.39684 68.80756 102.56522 68.96513 102.67023 69.12273 102.77525 69.37549 102.94362 69.53307 103.0487 69.69064 103.15378 69.9434 103.32254 70.10098 103.42761 70.25856 103.53268 70.51132 103.70107 70.66891 103.80608 70.82649 103.91109 71.07924 104.07947 71.23683 104.18454 71.39441 104.28963 71.64717 104.45837 71.80476 104.56346 71.96234 104.66853 72.21509 104.83691 72.37268 104.94193 72.53026 105.04694 72.783 105.21532 72.94058 105.32039 73.09818 105.42548 73.35094 105.59421 73.50851 105.69928 73.6661 105.80437 73.91885 105.97276 74.07643 106.07777 74.23402 106.18279 74.48679 106.35117 74.64436 106.45624 74.80196 106.56131 75.0547 106.73006 75.21228 106.83513 75.36987 106.94022 75.62263 107.10858 75.78021 107.21361 75.93779 107.31862 76.19055 107.48701 76.34813 107.59209 76.5057 107.69716 76.75847 107.8659 76.91606 107.97098 77.07364 108.07605 77.32639 108.24443 77.48398 108.34944 77.64156 108.45447 77.89432 108.62285 78.05191 108.72794 78.20949 108.83301 78.46223 109.00175 78.61983 109.10683 78.7774 109.2119 79.03015 109.38028 79.18773 109.48529 79.34532 109.59032 79.59808 109.75868 79.75566 109.86377 79.91325 109.96884 80.166 110.13759 80.32358 110.24268 80.48117 110.34775 80.73393 110.51613 80.89151 110.62114 81.0491 110.72615 81.30185 110.89453 81.45943 110.9996 81.61702 111.10469 81.86978 111.27344 82.02736 111.37852 82.18494 111.4836 82.4377 111.65198 82.59528 111.75699 82.75285 111.862 83.00562 112.03038 83.16321 112.13545 83.32079 112.24052 83.57353 112.40929 83.73112 112.51436 83.8887 112.61945 84.14145 112.78781 84.29904 112.89284 84.45662 112.99785 84.70938 113.16623 84.86697 113.2713 85.02455 113.37637 85.2773 113.54514 85.43488 113.6502 85.59247 113.75528 85.84523 113.92366 86.0028 114.02869 86.1604 114.1337 86.41315 114.30208 86.57072 114.40715 86.72832 114.51222 86.98108 114.68098 87.13866 114.78606 87.29625 114.89113 87.549 115.05951 87.70657 115.16452 87.86417 115.26955 88.11693 115.43791 88.2745 115.543 88.43208 115.64807 88.68484 115.81683 88.84242 115.9219 89 116.02698 89.25276 116.19536 89.41035 116.30037 89.56793 116.40538 89.82068 116.57376 89.97827 116.67883 90.13585 116.78392 90.3886 116.95265 90.54619 117.05774 90.70377 117.16281 90.95653 117.3312 91.11412 117.43622 91.2717 117.54123 91.52444 117.70961 91.68202 117.81468 91.83961 117.91977 92.09238 118.0885 92.24995 118.19357 92.40755 118.29866 92.6603 118.46706 92.81787 118.57207 92.97546 118.67708 93.22823 118.84546 93.3858 118.95053 93.5434 119.0556 93.79614 119.22435 93.95372 119.32942 94.11131 119.43451 94.36407 119.60287 94.52165 119.7079 94.67923 119.81291 94.93199 119.98131 95.08957 120.08638 95.24715 120.19145 95.49991 120.3602 95.6575 120.46527 95.81508 120.57034 96.06783 120.73872 96.22542 120.84373 96.383 120.94876 96.63574 121.11713 96.79333 121.22221 96.95091 121.32729 97.20367 121.49605 97.36127 121.60112 97.51884 121.70619 97.77159 121.87457 97.92917 121.97958 98.08676 122.08461 98.33952 122.25298 98.4971 122.35806 98.6547 122.46313 98.90744 122.63188 99.06502 122.73697 99.22261 122.84204 99.47537 123.01042 99.63295 123.11543 99.79054 123.22044 100.04329 123.38882 100.20087 123.4939 100.35846 123.59898 100.61122 123.76773 100.7688 123.87282 100.92638 123.97789 101.17914 124.14627 101.33672 124.25128 101.4943 124.3563 101.74706 124.52467 101.90465 124.62975 102.06223 124.73482 102.31497 124.90358 102.47256 125.00865 102.63014 125.11374 102.88289 125.2821 103.04048 125.38713 103.19806 125.49214 103.45082 125.66052 103.60841 125.7656 103.76599 125.87067 104.01874 126.03943 104.17632 126.1445 104.33391 126.24957 104.58667 126.41795 104.74425 126.52298 104.90184 126.62799 105.15459 126.79637 105.31216 126.90144 105.46976 127.00652 105.72252 127.17528 105.8801 127.28035 106.03769 127.38542 106.29044 127.5538 106.44801 127.65881 106.6056 127.76384 106.85837 127.9322 107.01595 128.0373 107.17352 128.14237 107.42628 128.31113 107.58386 128.4162 107.74144 128.52127 107.99419 128.68965 108.15178 128.79467 108.30936 128.89968 108.56212 129.06806 108.71971 129.17313 108.87729 129.27822 109.13004 129.44695 109.28763 129.55204 109.4452 129.6571 109.69797 129.8255 109.85556 129.93051 110.01314 130.03553 110.26588 130.2039 110.42346 130.30898 110.58105 130.41407 110.83382 130.5828 110.9914 130.68787 111.14899 130.79296 111.40173 130.96134 111.55931 131.06635 111.7169 131.17136 111.96967 131.33975 112.12724 131.44483 112.28484 131.5499 112.53758 131.71865 112.69516 131.82372 112.85275 131.9288 113.10551 132.09717 113.26309 132.2022 113.42067 132.3072 113.67343 132.4756 113.83101 132.58068 113.98859 132.68575 114.24133 132.85449 114.39893 132.95957 114.5565 133.06464 114.80927 133.23302 114.96686 133.33803 115.12444 133.44306 115.37718 133.61142 115.53477 133.7165 115.69235 133.82158 115.94511 133.99034 116.1027 134.09542 116.26028 134.20049 116.51303 134.36887 116.67061 134.47388 116.8282 134.5789 117.08096 134.74727 117.23854 134.85236 117.39613 134.95743 117.64888 135.12618 117.80646 135.23126 117.96405 135.33634 118.21681 135.50472 118.37439 135.60973 118.53198 135.71474 118.78473 135.88312 118.9423 135.98819 119.0999 136.09328 119.35266 136.26203 119.51024 136.36711 119.66782 136.47219 119.92058 136.64057 120.07816 136.74558 120.23573 136.85059 120.48848 137.01897 120.64607 137.12404 120.80365 137.22911 121.05641 137.39788 121.214 137.50295 121.37158 137.60803 121.62433 137.7764 121.78192 137.88143 121.9395 137.98644 122.19226 138.15482 122.34985 138.25989 122.50743 138.36496 122.76018 138.53372 122.91776 138.6388 123.07535 138.74387 123.32811 138.91225 123.48569 139.01728 123.64328 139.12229 123.89603 139.29067 124.0536 139.39574 124.2112 139.50081 124.46396 139.66957 124.62154 139.77465 124.77913 139.87972 125.03188 140.0481 125.18945 140.1531 125.34705 140.25814 125.59981 140.4265 125.75739 140.53159 125.91496 140.63666 126.16772 140.8054 126.3253 140.91048 126.48288 141.01555 126.73563 141.18395 126.89322 141.28896 127.0508 141.39397 127.30356 141.56235 127.46115 141.66742 127.61873 141.7725 127.87148 141.94124 128.02907 142.04633 128.18665 142.1514 128.4394 142.3198 128.597 142.4248 128.75458 142.52982 129.00733 142.6982 129.1649 142.80327 129.3225 142.90836 129.57526 143.07709 129.73284 143.18216 129.89043 143.28725 130.14318 143.45563 130.30075 143.56064 130.45835 143.66565 130.7111 143.83405 130.86869 143.93912 131.02628 144.04419 131.27902 144.21294 131.4366 144.31801 131.5942 144.4231 131.84694 144.59146 132.00452 144.69649 132.1621 144.8015 132.41487 144.96988 132.57245 145.07495 132.73003 145.18003 132.98278 145.34879 133.14037 145.45386 133.29795 145.55893 133.5507 145.72731 133.7083 145.83232 133.86588 145.93735 134.11862 146.10572 134.27622 146.2108 134.43379 146.31587 134.68656 146.48464 134.84415 146.5897 135.00173 146.69478 135.25447 146.86316 135.41205 146.96817 135.56964 147.0732 135.8224 147.24156 135.97998 147.34665 136.13758 147.45172 136.39032 147.62047 136.5479 147.72556 136.70549 147.83063 136.95825 147.99901 137.11583 148.10402 137.27342 148.20903 137.52617 148.37741 137.68375 148.48249 137.84134 148.58757 138.09409 148.75632 138.25167 148.8614 138.40924 148.96648 138.66202 149.13486 138.8196 149.23987 138.97718 149.34488 139.22992 149.51326 139.38751 149.61833 139.54509 149.7234 139.79785 149.89217 139.95545 149.99724 140.11302 150.10233 140.36577 150.27069 140.52336 150.37572 140.68094 150.48073 140.9337 150.64911 141.0913 150.75418 141.24887 150.85926 141.6592 151.13309 141.6592 151.13309"/>
<path transform="matrix(1.00009,0,0,-1.00003,147.85105,149.6051)" stroke-width=".79701" stroke-linecap="butt" stroke-miterlimit="10" stroke-linejoin="miter" fill="none" stroke="#ff0000" d="M-141.73404 99.21382C-141.73404 99.21382-141.3237 99.00844-141.1661 98.92964-141.00853 98.85086-140.75579 98.7247-140.59819 98.6459-140.44062 98.56711-140.18785 98.4405-140.03026 98.36172-139.87268 98.28293-139.61994 98.15677-139.46236 98.07797-139.30477 97.99918-139.052 97.87259-138.89443 97.79381-138.73683 97.71501-138.48409 97.58885-138.3265 97.51006-138.16892 97.43126-137.91616 97.30466-137.75858 97.22588-137.60099 97.14708-137.34824 97.02092-137.19066 96.94212-137.03307 96.86334-136.7803 96.73676-136.62273 96.65796-136.46515 96.57916-136.21239 96.453-136.05481 96.3742-135.89723 96.29543-135.64449 96.16882-135.4869 96.09003-135.32932 96.01123-135.07656 95.88507-134.91896 95.80627-134.76139 95.7275-134.50864 95.6009-134.35105 95.52211-134.19347 95.44331-133.9407 95.31715-133.78311 95.23836-133.62554 95.15958-133.37279 95.03297-133.21521 94.95418-133.05762 94.87538-132.80486 94.74922-132.64728 94.67044-132.48969 94.59164-132.23694 94.46506-132.07936 94.38626-131.92177 94.30746-131.669 94.1813-131.51143 94.10252-131.35384 94.02373-131.10109 93.89713-130.94351 93.81833-130.78592 93.73955-130.53316 93.61337-130.37558 93.53459-130.218 93.4558-129.96524 93.32921-129.80767 93.25041-129.65009 93.17163-129.39734 93.04547-129.23975 92.96667-129.08217 92.88788-128.8294 92.76129-128.67182 92.6825-128.51424 92.60371-128.26149 92.47755-128.1039 92.39876-127.94632 92.31996-127.69356 92.19336-127.53596 92.11458-127.37839 92.03578-127.12564 91.90962-126.96806 91.83083-126.81047 91.75203-126.55771 91.62544-126.40013 91.54666-126.24254 91.46786-125.98979 91.3417-125.83221 91.26291-125.67462 91.18411-125.42186 91.05751-125.26428 90.97873-125.10669 90.89993-124.85394 90.77377-124.69637 90.69498-124.53877 90.6162-124.28601 90.48961-124.12843 90.41081-123.97086 90.33202-123.7181 90.20586-123.56052 90.12706-123.40294 90.04828-123.15019 89.92168-122.9926 89.84288-122.83502 89.76408-122.58226 89.63792-122.42467 89.55913-122.26709 89.48035-122.01434 89.35376-121.85675 89.27496-121.69917 89.19617-121.44641 89.07-121.28882 88.99121-121.13124 88.91243-120.8785 88.78583-120.72092 88.70703-120.56332 88.62823-120.31056 88.50208-120.15298 88.4233-119.99539 88.3445-119.74265 88.21791-119.58507 88.13911-119.42747 88.06032-119.17471 87.93416-119.01714 87.85538-118.85954 87.77658-118.6068 87.65-118.44922 87.5712-118.29163 87.49242-118.03888 87.36624-117.8813 87.28746-117.72372 87.20866-117.47095 87.08206-117.31337 87.00327-117.15579 86.92448-116.90305 86.79832-116.74545 86.71953-116.58788 86.64073-116.33511 86.51414-116.17752 86.43535-116.01994 86.35657-115.7672 86.23041-115.6096 86.15161-115.45203 86.07281-115.19926 85.94621-115.04167 85.86743-114.8841 85.78864-114.63135 85.66248-114.47377 85.58368-114.31618 85.50488-114.06342 85.3783-113.90584 85.29951-113.74825 85.22072-113.4955 85.09456-113.33792 85.01576-113.18033 84.93697-112.92757 84.81036-112.76999 84.73158-112.6124 84.65279-112.35965 84.52663-112.20207 84.44783-112.04448 84.36905-111.79173 84.24246-111.63416 84.16367-111.47658 84.08487-111.2238 83.95871-111.06622 83.87991-110.90865 83.80113-110.6559 83.67453-110.4983 83.59573-110.34073 83.51694-110.08797 83.39078-109.93037 83.31198-109.7728 83.2332-109.52005 83.10661-109.36246 83.02782-109.20488 82.94902-108.95212 82.82286-108.79453 82.74406-108.63695 82.66528-108.3842 82.53868-108.22662 82.45988-108.06903 82.38109-107.81627 82.25493-107.65869 82.17615-107.5011 82.09735-107.24835 81.97076-107.09077 81.89197-106.93318 81.81317-106.68042 81.68701-106.52284 81.60823-106.36525 81.52943-106.1125 81.40285-105.95493 81.32405-105.79733 81.24527-105.54459 81.1191-105.38701 81.04031-105.22943 80.96152-104.97665 80.83492-104.81908 80.75612-104.6615 80.67734-104.40875 80.55118-104.25116 80.47238-104.09358 80.39359-103.84082 80.267-103.68323 80.1882-103.52565 80.10942-103.2729 79.98326-103.11531 79.90446-102.95773 79.82567-102.70497 79.69907-102.54738 79.62029-102.3898 79.54149-102.13705 79.41533-101.97948 79.33653-101.82188 79.25774-101.56912 79.13115-101.41154 79.05237-101.25395 78.97357-101.0012 78.84741-100.84363 78.76862-100.68604 78.68982-100.43327 78.56322-100.2757 78.48444-100.1181 78.40564-99.86536 78.27948-99.70778 78.20068-99.55019 78.1219-99.29744 77.99532-99.13986 77.91652-98.98228 77.83772-98.7295 77.71156-98.57193 77.63277-98.41435 77.55399-98.1616 77.42738-98.00401 77.34859-97.84644 77.26979-97.59367 77.14363-97.43608 77.06483-97.2785 76.98605-97.02576 76.85947-96.86816 76.78067-96.71059 76.70187-96.45782 76.57571-96.30023 76.49692-96.14265 76.41814-95.88991 76.29153-95.73233 76.21274-95.57474 76.13394-95.32198 76.00778-95.1644 75.929-95.0068 75.8502-94.75406 75.72362-94.59648 75.64482-94.43889 75.56602-94.18614 75.43987-94.02856 75.36108-93.87097 75.28229-93.61821 75.1557-93.46063 75.0769-93.30304 74.99812-93.0503 74.87195-92.89272 74.79317-92.73514 74.71437-92.48236 74.58777-92.32478 74.50897-92.1672 74.43019-91.91446 74.30403-91.75687 74.22523-91.59929 74.14644-91.34653 74.01985-91.18893 73.94106-91.03136 73.86227-90.77861 73.73611-90.62102 73.65732-90.46344 73.57852-90.21068 73.45192-90.05309 73.37314-89.89551 73.29434-89.64276 73.16818-89.48518 73.08939-89.32759 73.01059-89.07483 72.884-88.91725 72.80522-88.75966 72.72643-88.50691 72.60027-88.34933 72.52147-88.19174 72.44267-87.939 72.31607-87.78142 72.23729-87.62383 72.1585-87.37106 72.03233-87.21349 71.95354-87.0559 71.87476-86.80315 71.74817-86.64557 71.66937-86.48799 71.59058-86.23521 71.46442-86.07764 71.38562-85.92006 71.30684-85.66731 71.18024-85.50972 71.10144-85.35214 71.02264-85.09938 70.89648-84.94179 70.81769-84.78421 70.7389-84.53146 70.61232-84.37387 70.53352-84.2163 70.45473-83.96353 70.32857-83.80594 70.24977-83.64836 70.17099-83.39561 70.04439-83.23804 69.96559-83.08044 69.8868-82.82768 69.76064-82.6701 69.68185-82.51251 69.60306-82.25977 69.47647-82.10219 69.39767-81.9446 69.31888-81.69185 69.19272-81.53427 69.11394-81.37668 69.03514-81.12392 68.90855-80.96634 68.82976-80.80875 68.75098-80.556 68.6248-80.39842 68.54602-80.24084 68.46722-79.98807 68.34062-79.83049 68.26183-79.67291 68.18304-79.42017 68.05688-79.26257 67.97809-79.105 67.89929-78.85223 67.7727-78.69464 67.69391-78.53706 67.61513-78.28432 67.48897-78.12672 67.41017-77.96915 67.33138-77.71638 67.20477-77.55879 67.12599-77.40121 67.0472-77.14847 66.92104-76.99089 66.84224-76.8333 66.76344-76.58054 66.63686-76.42296 66.55807-76.26537 66.47928-76.01262 66.35312-75.85504 66.27432-75.69745 66.19553-75.4447 66.06892-75.28712 65.99014-75.12953 65.91135-74.87677 65.78519-74.7192 65.70639-74.5616 65.62761-74.30885 65.50102-74.15128 65.42223-73.9937 65.34343-73.74092 65.21727-73.58334 65.13847-73.42577 65.0597-73.17302 64.93309-73.01543 64.8543-72.85785 64.7755-72.60509 64.64934-72.4475 64.57054-72.28992 64.49176-72.03717 64.36517-71.87958 64.28638-71.722 64.20758-71.46924 64.08142-71.31165 64.00262-71.15407 63.92384-70.90132 63.79726-70.74374 63.71846-70.58615 63.63966-70.3334 63.5135-70.17583 63.43472-70.01823 63.35593-69.76547 63.22932-69.6079 63.15053-69.4503 63.07173-69.19756 62.94557-69.03998 62.86679-68.88239 62.788-68.62962 62.6614-68.47205 62.58261-68.31445 62.50383-68.0617 62.37766-67.90413 62.29887-67.74655 62.22008-67.49377 62.09348-67.3362 62.01468-67.17862 61.9359-66.92587 61.80974-66.76828 61.73094-66.6107 61.65215-66.35794 61.52556-66.20035 61.44676-66.04277 61.36798-65.79002 61.24182-65.63243 61.16302-65.47485 61.08423-65.22209 60.95763-65.0645 60.87885-64.90692 60.80005-64.65417 60.67389-64.4966 60.5951-64.339 60.5163-64.08626 60.38971-63.92868 60.31093-63.77109 60.23213-63.51833 60.10597-63.36075 60.02718-63.20316 59.94838-62.95041 59.82178-62.79283 59.743-62.63524 59.6642-62.38248 59.53804-62.2249 59.45924-62.0673 59.38046-61.81456 59.25388-61.65698 59.17508-61.4994 59.09628-61.24663 58.97012-61.08905 58.89133-60.93147 58.81255-60.67873 58.68594-60.52113 58.60715-60.36356 58.52835-60.1108 58.40219-59.9532 58.3234-59.79562 58.24461-59.54288 58.11803-59.38528 58.03923-59.2277 57.96043-58.97495 57.83427-58.81735 57.75548-58.65977 57.6767-58.40703 57.55011-58.24945 57.47131-58.09186 57.39252-57.83911 57.26636-57.68153 57.18758-57.52394 57.10878-57.27118 56.98218-57.1136 56.90338-56.95601 56.82458-56.70326 56.69843-56.54568 56.61964-56.38809 56.54085-56.13533 56.41426-55.97775 56.33546-55.82016 56.25668-55.56741 56.13051-55.40984 56.05173-55.25226 55.97293-54.99948 55.84633-54.8419 55.76753-54.68433 55.68875-54.43158 55.56259-54.27399 55.4838-54.11641 55.405-53.86365 55.27841-53.70605 55.19962-53.54848 55.12083-53.29573 54.99467-53.13814 54.91588-52.98056 54.83708-52.7278 54.71048-52.5702 54.6317-52.41263 54.5529-52.15988 54.42674-52.0023 54.34795-51.84471 54.26915-51.59196 54.14256-51.43439 54.06378-51.2768 53.98499-51.02403 53.85883-50.86646 53.78003-50.70886 53.70123-50.45612 53.57463-50.29854 53.49585-50.14095 53.41705-49.88818 53.2909-49.7306 53.2121-49.57301 53.13332-49.32027 53.00673-49.16269 52.92793-49.00511 52.84914-48.75233 52.72298-48.59476 52.64418-48.43718 52.5654-48.18443 52.4388-48.02684 52.36-47.86926 52.2812-47.6165 52.15504-47.45891 52.07625-47.30133 51.99747-47.04858 51.87088-46.89099 51.79208-46.73341 51.71329-46.48067 51.58713-46.32307 51.50833-46.1655 51.42955-45.91273 51.30296-45.75516 51.22417-45.59756 51.14537-45.34482 51.01921-45.18724 50.94043-45.02965 50.86163-44.77689 50.73503-44.61931 50.65623-44.46172 50.57744-44.20897 50.45128-44.05139 50.3725-43.8938 50.2937-43.64104 50.16711-43.48346 50.08832-43.32587 50.00954-43.07312 49.88336-42.91554 49.80458-42.75797 49.72578-42.50519 49.59918-42.34761 49.52039-42.19003 49.4416-41.93729 49.31544-41.7797 49.23665-41.62212 49.15785-41.36935 49.03127-41.21176 48.95247-41.05418 48.87369-40.80144 48.74753-40.64384 48.66873-40.48627 48.58994-40.23352 48.46333-40.07593 48.38455-39.91835 48.30576-39.66559 48.1796-39.50801 48.1008-39.35042 48.022-39.09767 47.89542-38.9401 47.81664-38.7825 47.73784-38.52974 47.61168-38.37216 47.53288-38.21457 47.45409-37.96182 47.32748-37.80424 47.2487-37.64665 47.1699-37.39389 47.04375-37.23631 46.96495-37.07872 46.88617-36.82597 46.75958-36.6684 46.68079-36.51082 46.60199-36.25804 46.47583-36.10046 46.39703-35.94289 46.31825-35.69014 46.19165-35.53255 46.11285-35.37497 46.03406-35.12221 45.9079-34.96461 45.8291-34.80704 45.75032-34.55429 45.62373-34.3967 45.54494-34.23912 45.46614-33.98637 45.33998-33.82878 45.26118-33.6712 45.1824-33.41844 45.05582-33.26086 44.97702-33.10327 44.89822-32.85052 44.77206-32.69295 44.69328-32.53535 44.61449-32.2826 44.48788-32.12502 44.40909-31.96742 44.33029-31.71468 44.20413-31.5571 44.12535-31.3995 44.04655-31.14674 43.91997-30.98917 43.84117-30.83157 43.76239-30.57883 43.63622-30.42125 43.55743-30.26367 43.47864-30.0109 43.35204-29.85332 43.27324-29.69574 43.19446-29.443 43.0683-29.2854 42.9895-29.12782 42.9107-28.87508 42.78412-28.71748 42.70532-28.5599 42.62654-28.30714 42.50038-28.14955 42.42159-27.99197 42.34279-27.73923 42.21619-27.58163 42.1374-27.42406 42.05861-27.1713 41.93245-27.01372 41.85365-26.85612 41.77486-26.60338 41.64827-26.4458 41.56949-26.28821 41.49069-26.03545 41.36453-25.87787 41.28574-25.72028 41.20694-25.46753 41.08034-25.30995 41.00156-25.15236 40.92276-24.8996 40.7966-24.74202 40.7178-24.58443 40.63902-24.33168 40.51244-24.1741 40.43364-24.01653 40.35484-23.76375 40.22868-23.60617 40.14989-23.4486 40.0711-23.19585 39.94452-23.03825 39.86572-22.88068 39.78693-22.62793 39.66077-22.47034 39.58197-22.31276 39.50319-22.06 39.37659-21.9024 39.29779-21.74483 39.219-21.49208 39.09283-21.33449 39.01404-21.17691 38.93526-20.92415 38.80867-20.76657 38.72987-20.60898 38.65108-20.35623 38.52492-20.19865 38.44614-20.04106 38.36734-19.7883 38.24074-19.63072 38.16194-19.47313 38.08315-19.22038 37.95699-19.0628 37.8782-18.90521 37.79941-18.65245 37.67282-18.49487 37.59402-18.33728 37.51524-18.08453 37.38907-17.92696 37.31029-17.76938 37.23149-17.5166 37.10489-17.35902 37.0261-17.20145 36.94731-16.9487 36.82115-16.7911 36.74236-16.63353 36.66356-16.38078 36.53697-16.22319 36.45818-16.06561 36.3794-15.81285 36.25323-15.65526 36.17444-15.49768 36.09564-15.24493 35.96904-15.08734 35.89026-14.92976 35.81146-14.677 35.6853-14.51942 35.6065-14.36183 35.52771-14.10909 35.40112-13.9515 35.32234-13.79391 35.24355-13.54115 35.11739-13.38358 35.03859-13.22598 34.9598-12.97324 34.83319-12.81566 34.75441-12.65807 34.67561-12.4053 34.54945-12.24773 34.47066-12.09013 34.39188-11.83739 34.26529-11.67981 34.1865-11.52223 34.1077-11.26945 33.98154-11.11188 33.90274-10.9543 33.82396-10.70155 33.69737-10.54396 33.61858-10.38638 33.53978-10.13364 33.41362-9.97604 33.33482-9.81847 33.25604-9.5657 33.12944-9.40811 33.05064-9.25053 32.97185-8.99779 32.84569-8.8402 32.76689-8.68262 32.68811-8.42986 32.56152-8.27228 32.48273-8.11469 32.40393-7.86194 32.27777-7.70436 32.19899-7.54677 32.1202-7.294 31.99359-7.13643 31.9148-6.97884 31.836-6.72609 31.70984-6.56851 31.63106-6.41092 31.55226-6.15816 31.42567-6.00058 31.34688-5.84299 31.2681-5.59024 31.14192-5.43266 31.06314-5.27509 30.98434-5.02232 30.85774-4.86475 30.77895-4.70717 30.70016-4.4544 30.574-4.29681 30.49521-4.13924 30.41641-3.88649 30.28983-3.7289 30.21103-3.57132 30.13225-3.31856 30.00609-3.16096 29.92729-3.00339 29.8485-2.75064 29.7219-2.59305 29.64311-2.43547 29.56432-2.18271 29.43816-2.02513 29.35936-1.86754 29.28056-1.61479 29.15398-1.45721 29.0752-1.29962 28.9964-1.04686 28.87024-.88928 28.79144-.73169 28.71265-.47894 28.58604-.32137 28.50726-.16377 28.42847 .08896 28.30225 .24654 28.22351 .40413 28.14479 .65688 28.01855 .81445 27.93977 .97203 27.86098 1.2248 27.73439 1.38237 27.6556 1.53995 27.57681 1.79271 27.45065 1.9503 27.37186 2.10788 27.29306 2.36063 27.16647 2.51822 27.08768 2.6758 27.0089 2.92856 26.88274 3.08615 26.80394 3.24373 26.72514 3.49648 26.59854 3.65407 26.51974 3.81165 26.44096 4.0644 26.3148 4.22198 26.23601 4.37958 26.15721 4.63232 26.03062 4.7899 25.95184 4.9475 25.87305 5.20026 25.74689 5.35783 25.66809 5.51543 25.5893 5.76817 25.46269 5.92575 25.38391 6.08334 25.30511 6.3361 25.17896 6.49368 25.10016 6.65128 25.02136 6.90402 24.89478 7.0616 24.816 7.21918 24.7372 7.47194 24.61104 7.62952 24.53224 7.7871 24.45346 8.03986 24.32686 8.19745 24.24806 8.35503 24.16927 8.60777 24.0431 8.76537 23.96431 8.92294 23.88553 9.1757 23.75894 9.3333 23.68015 9.49088 23.60135 9.74362 23.47519 9.90121 23.3964 10.05879 23.31761 10.31155 23.19101 10.46913 23.11221 10.62672 23.03342 10.87947 22.90726 11.03705 22.82848 11.19464 22.74968 11.4474 22.6231 11.60498 22.5443 11.76257 22.4655 12.01532 22.33934 12.1729 22.26056 12.33049 22.18176 12.58325 22.05516 12.74083 21.97636 12.89842 21.89758 13.15117 21.77141 13.30875 21.69263 13.46632 21.61383 13.71909 21.48724 13.87666 21.40845 14.03424 21.32967 14.287 21.2035 14.4446 21.12471 14.60217 21.04591 14.85492 20.91933 15.01251 20.84053 15.17009 20.76175 15.42285 20.63559 15.58044 20.5568 15.73802 20.478 15.99077 20.3514 16.14836 20.2726 16.30594 20.19382 16.5587 20.06766 16.71628 19.98886 16.87387 19.91006 17.12662 19.78348 17.2842 19.7047 17.44179 19.6259 17.69455 19.49974 17.85213 19.42094 18.00972 19.34215 18.26247 19.21555 18.42004 19.13676 18.57764 19.05797 18.83038 18.93181 18.98796 18.85301 19.14555 18.77422 19.39832 18.64763 19.5559 18.56885 19.71347 18.49005 19.96623 18.36389 20.12381 18.2851 20.28139 18.20631 20.53415 18.07971 20.69174 18.00092 20.84932 17.92212 21.10207 17.79596 21.25966 17.71716 21.41724 17.63838 21.67 17.5118 21.82759 17.433 21.98517 17.3542 22.23792 17.22804 22.39551 17.14925 22.55309 17.07047 22.80585 16.94386 22.96342 16.86507 23.12102 16.78627 23.37376 16.66011 23.53134 16.58133 23.68893 16.50253 23.9417 16.37595 24.09927 16.29715 24.25687 16.21835 24.50961 16.0922 24.66719 16.01341 24.82478 15.93462 25.07753 15.80803 25.2351 15.72923 25.3927 15.65045 25.64546 15.52428 25.80304 15.4455 25.96062 15.3667 26.21338 15.2401 26.37096 15.1613 26.52853 15.08252 26.7813 14.95636 26.93889 14.87756 27.09647 14.79877 27.34921 14.67218 27.5068 14.59338 27.66438 14.5146 27.91714 14.38844 28.07474 14.30965 28.23232 14.23085 28.48506 14.10425 28.64265 14.02545 28.80023 13.94667 29.053 13.82051 29.21057 13.74171 29.36816 13.66292 29.62091 13.53633 29.77849 13.45755 29.93608 13.37875 30.18884 13.2526 30.34642 13.1738 30.50401 13.095 30.75676 12.9684 30.91434 12.88962 31.07193 12.81082 31.32468 12.68466 31.48225 12.60587 31.63985 12.52707 31.89261 12.40048 32.05019 12.3217 32.20776 12.2429 32.46053 12.11674 32.6181 12.03795 32.77568 11.95917 33.02844 11.83257 33.18604 11.75377 33.34361 11.67497 33.59636 11.54881 33.75395 11.47002 33.91153 11.39124 34.16429 11.26465 34.32188 11.18585 34.47946 11.10706 34.73221 10.9809 34.8898 10.9021 35.04738 10.82332 35.30014 10.69672 35.45772 10.61792 35.61531 10.53912 35.86806 10.41296 36.02563 10.33418 36.18323 10.25539 36.43599 10.1288 36.59357 10.05 36.75116 9.9712 37.0039 9.84505 37.16148 9.76627 37.31908 9.68747 37.57182 9.56088 37.7294 9.48209 37.887 9.4033 38.13976 9.27713 38.29733 9.19835 38.45491 9.11955 38.70767 8.99295 38.86525 8.91415 39.02283 8.83537 39.27559 8.70921 39.43318 8.63042 39.59076 8.55162 39.8435 8.42503 40.0011 8.34624 40.15868 8.26746 40.41144 8.1413 40.56903 8.0625 40.72661 7.9837 40.97935 7.8571 41.13695 7.7783 41.29453 7.69952 41.54729 7.57336 41.70486 7.49457 41.86246 7.41577 42.1152 7.28918 42.27278 7.2104 42.43037 7.1316 42.68312 7.00545 42.8407 6.92665 42.99829 6.84785 43.25105 6.72125 43.40863 6.64247 43.56622 6.56367 43.81897 6.43752 43.97655 6.35872 44.13414 6.27992 44.3869 6.15334 44.54448 6.07455 44.70206 5.99576 44.95482 5.8696 45.1124 5.7908 45.26997 5.71202 45.52274 5.58542 45.68033 5.50662 45.8379 5.42783 46.09065 5.30167 46.24825 5.22287 46.40582 5.14409 46.65858 5.0175 46.81618 4.9387 46.97375 4.85991 47.2265 4.73375 47.3841 4.65495 47.54167 4.57617 47.79443 4.44957 47.95201 4.37077 48.1096 4.29198 48.36235 4.16582 48.51993 4.08704 48.67752 4.00824 48.93027 3.88165 49.08784 3.80286 49.24544 3.72406 49.4982 3.5979 49.65578 3.51912 49.81337 3.44032 50.06612 3.31374 50.2237 3.23494 50.38129 3.15616 50.63405 3.02998 50.79163 2.9512 50.9492 2.8724 51.20197 2.7458 51.35954 2.667 51.51712 2.58823 51.76988 2.46207 51.92747 2.38327 52.08505 2.30447 52.3378 2.17789 52.49539 2.09909 52.65297 2.02031 52.90573 1.89415 53.06332 1.81535 53.2209 1.73656 53.47365 1.60995 53.63124 1.53116 53.78882 1.45238 54.04158 1.32622 54.19916 1.24742 54.35675 1.16862 54.6095 1.04204 54.76707 .96326 54.92467 .88446 55.17741 .7583 55.33499 .6795 55.49258 .60071 55.74535 .4741 55.90292 .39532 56.06052 .31653 56.31326 .19037 56.47084 .11157 56.62843 .03278 56.8812-.09378 57.03877-.17256 57.19635-.25136 57.44911-.37752 57.60669-.45631 57.76427-.5351 58.01703-.6617 58.17462-.7405 58.3322-.81929 58.58495-.94545 58.74254-1.02425 58.90012-1.10303 59.15288-1.22961 59.31047-1.30841 59.46805-1.3872 59.7208-1.51337 59.87839-1.59216 60.03596-1.67094 60.28873-1.79755 60.4463-1.87634 60.6039-1.95514 60.85664-2.0813 61.01422-2.16008 61.17181-2.23888 61.42456-2.36546 61.58214-2.44426 61.73973-2.52306 61.9925-2.64922 62.15007-2.728 62.30766-2.8068 62.56041-2.93338 62.71799-3.01218 62.87558-3.09096 63.12834-3.21713 63.28592-3.29591 63.4435-3.37471 63.69626-3.50131 63.85384-3.58011 64.01141-3.65889 64.26418-3.78505 64.42177-3.86385 64.57935-3.94264 64.83209-4.06923 64.98969-4.14803 65.14726-4.2268 65.40002-4.35297 65.55762-4.43176 65.7152-4.51056 65.96794-4.63716 66.12553-4.71596 66.28311-4.79474 66.53586-4.9209 66.69344-4.9997 66.85103-5.07849 67.10379-5.20508 67.26137-5.28386 67.41896-5.36266 67.6717-5.48882 67.82928-5.56761 67.98688-5.64641 68.23964-5.77301 68.39722-5.85179 68.55481-5.93059 68.80756-6.05675 68.96513-6.13554 69.12273-6.21434 69.37549-6.34093 69.53307-6.41971 69.69064-6.4985 69.9434-6.62466 70.10098-6.70346 70.25856-6.78224 70.51132-6.90884 70.66891-6.98764 70.82649-7.06644 71.07924-7.1926 71.23683-7.2714 71.39441-7.35017 71.64717-7.47676 71.80476-7.55556 71.96234-7.63435 72.21509-7.76051 72.37268-7.83931 72.53026-7.91809 72.783-8.04468 72.94058-8.12347 73.09818-8.20227 73.35094-8.32843 73.50851-8.40721 73.6661-8.48601 73.91885-8.61261 74.07643-8.6914 74.23402-8.7702 74.48679-8.89636 74.64436-8.97514 74.80196-9.05394 75.0547-9.18053 75.21228-9.25932 75.36987-9.3381 75.62263-9.46428 75.78021-9.54306 75.93779-9.62186 76.19055-9.74846 76.34813-9.82726 76.5057-9.90604 76.75847-10.0322 76.91606-10.111 77.07364-10.18979 77.32639-10.31638 77.48398-10.39517 77.64156-10.47395 77.89432-10.60011 78.05191-10.67891 78.20949-10.7577 78.46223-10.88431 78.61983-10.9631 78.7774-11.04189 79.03015-11.16805 79.18773-11.24684 79.34532-11.32564 79.59808-11.45222 79.75566-11.531 79.91325-11.6098 80.166-11.73596 80.32358-11.81476 80.48117-11.89355 80.73393-12.02016 80.89151-12.09894 81.0491-12.17773 81.30185-12.3039 81.45943-12.38269 81.61702-12.46149 81.86978-12.58807 82.02736-12.66685 82.18494-12.74565 82.4377-12.87181 82.59528-12.9506 82.75285-13.02939 83.00562-13.15599 83.16321-13.23479 83.32079-13.31358 83.57353-13.43974 83.73112-13.51854 83.8887-13.59732 84.14145-13.7239 84.29904-13.8027 84.45662-13.8815 84.70938-14.00766 84.86697-14.08646 85.02455-14.16524 85.2773-14.29182 85.43488-14.37062 85.59247-14.44942 85.84523-14.57558 86.0028-14.65436 86.1604-14.73315 86.41315-14.85976 86.57072-14.93855 86.72832-15.01735 86.98108-15.14351 87.13866-15.22229 87.29625-15.30109 87.549-15.42767 87.70657-15.50647 87.86417-15.58525 88.11693-15.71143 88.2745-15.7902 88.43208-15.869 88.68484-15.9956 88.84242-16.0744 89-16.15318 89.25276-16.27934 89.41035-16.35814 89.56793-16.43694 89.82068-16.56352 89.97827-16.64232 90.13585-16.7211 90.3886-16.84726 90.54619-16.92606 90.70377-17.00485 90.95653-17.13145 91.11412-17.21025 91.2717-17.28903 91.52444-17.41519 91.68202-17.49399 91.83961-17.57278 92.09238-17.69937 92.24995-17.77815 92.40755-17.85695 92.6603-17.98311 92.81787-18.0619 92.97546-18.1407 93.22823-18.2673 93.3858-18.34608 93.5434-18.42488 93.79614-18.55104 93.95372-18.62984 94.11131-18.70863 94.36407-18.83522 94.52165-18.914 94.67923-18.9928 94.93199-19.11896 95.08957-19.19775 95.24715-19.27654 95.49991-19.40314 95.6575-19.48193 95.81508-19.56073 96.06783-19.68689 96.22542-19.76569 96.383-19.84447 96.63574-19.97105 96.79333-20.04985 96.95091-20.12865 97.20367-20.2548 97.36127-20.3336 97.51884-20.41238 97.77159-20.53897 97.92917-20.61777 98.08676-20.69656 98.33952-20.82272 98.4971-20.9015 98.6547-20.9803 98.90744-21.1069 99.06502-21.1857 99.22261-21.2645 99.47537-21.39066 99.63295-21.46944 99.79054-21.54823 100.04329-21.67482 100.20087-21.75362 100.35846-21.8324 100.61122-21.95857 100.7688-22.03735 100.92638-22.11615 101.17914-22.24275 101.33672-22.32155 101.4943-22.40033 101.74706-22.52649 101.90465-22.60529 102.06223-22.68408 102.31497-22.81067 102.47256-22.88947 102.63014-22.96825 102.88289-23.0944 103.04048-23.1732 103.19806-23.252 103.45082-23.3786 103.60841-23.4574 103.76599-23.53618 104.01874-23.66234 104.17632-23.74113 104.33391-23.81993 104.58667-23.94652 104.74425-24.0253 104.90184-24.1041 105.15459-24.23026 105.31216-24.30905 105.46976-24.38785 105.72252-24.51445 105.8801-24.59323 106.03769-24.67203 106.29044-24.79819 106.44801-24.87698 106.6056-24.95578 106.85837-25.08237 107.01595-25.16115 107.17352-25.23994 107.42628-25.3661 107.58386-25.4449 107.74144-25.52368 107.99419-25.65027 108.15178-25.72906 108.30936-25.80786 108.56212-25.93402 108.71971-26.01282 108.87729-26.0916 109.13004-26.2182 109.28763-26.297 109.4452-26.3758 109.69797-26.50195 109.85556-26.58075 110.01314-26.65953 110.26588-26.78612 110.42346-26.86491 110.58105-26.94371 110.83382-27.06987 110.9914-27.14865 111.14899-27.22745 111.40173-27.35405 111.55931-27.43285 111.7169-27.51164 111.96967-27.6378 112.12724-27.71658 112.28484-27.79538 112.53758-27.92197 112.69516-28.00076 112.85275-28.07954 113.10551-28.20572 113.26309-28.2845 113.42067-28.3633 113.67343-28.4899 113.83101-28.5687 113.98859-28.64748 114.24133-28.77364 114.39893-28.85243 114.5565-28.93123 114.80927-29.05782 114.96686-29.13661 115.12444-29.2154 115.37718-29.34155 115.53477-29.42035 115.69235-29.49915 115.94511-29.62575 116.1027-29.70454 116.26028-29.78333 116.51303-29.90948 116.67061-29.98828 116.8282-30.06708 117.08096-30.19366 117.23854-30.27245 117.39613-30.35124 117.64888-30.4774 117.80646-30.5562 117.96405-30.635 118.21681-30.7616 118.37439-30.84038 118.53198-30.91917 118.78473-31.04533 118.9423-31.12413 119.0999-31.20293 119.35266-31.32951 119.51024-31.4083 119.66782-31.48709 119.92058-31.61325 120.07816-31.69205 120.23573-31.77083 120.48848-31.89742 120.64607-31.97621 120.80365-32.05501 121.05641-32.18117 121.214-32.25996 121.37158-32.33875 121.62433-32.46535 121.78192-32.54414 121.9395-32.62294 122.19226-32.7491 122.34985-32.8279 122.50743-32.90668 122.76018-33.03326 122.91776-33.11206 123.07535-33.19086 123.32811-33.31702 123.48569-33.3958 123.64328-33.4746 123.89603-33.6012 124.0536-33.68 124.2112-33.75879 124.46396-33.88495 124.62154-33.96373 124.77913-34.04253 125.03188-34.16911 125.18945-34.24791 125.34705-34.32669 125.59981-34.45287 125.75739-34.53165 125.91496-34.61044 126.16772-34.73705 126.3253-34.81584 126.48288-34.89462 126.73563-35.02078 126.89322-35.09958 127.0508-35.17838 127.30356-35.30496 127.46115-35.38376 127.61873-35.46254 127.87148-35.5887 128.02907-35.6675 128.18665-35.74629 128.4394-35.8729 128.597-35.95169 128.75458-36.03047 129.00733-36.15663 129.1649-36.23543 129.3225-36.31422 129.57526-36.44081 129.73284-36.51959 129.89043-36.59839 130.14318-36.72455 130.30075-36.80334 130.45835-36.88214 130.7111-37.00874 130.86869-37.08752 131.02628-37.16632 131.27902-37.29248 131.4366-37.37128 131.5942-37.45007 131.84694-37.57666 132.00452-37.65544 132.1621-37.73424 132.41487-37.8604 132.57245-37.9392 132.73003-38.01797 132.98278-38.14456 133.14037-38.22336 133.29795-38.30215 133.5507-38.42831 133.7083-38.50711 133.86588-38.58589 134.11862-38.7125 134.27622-38.79129 134.43379-38.87009 134.68656-38.99625 134.84415-39.07504 135.00173-39.15382 135.25447-39.28041 135.41205-39.3592 135.56964-39.438 135.8224-39.56416 135.97998-39.64294 136.13758-39.72174 136.39032-39.84834 136.5479-39.92714 136.70549-40.00594 136.95825-40.1321 137.11583-40.21088 137.27342-40.28967 137.52617-40.41626 137.68375-40.49506 137.84134-40.57384 138.09409-40.70001 138.25167-40.7788 138.40924-40.85759 138.66202-40.98419 138.8196-41.06299 138.97718-41.14177 139.22992-41.26793 139.38751-41.34673 139.54509-41.42552 139.79785-41.55211 139.95545-41.6309 140.11302-41.70969 140.36577-41.83585 140.52336-41.91464 140.68094-41.99344 140.9337-42.12004 141.0913-42.19884 141.24887-42.27762 141.6592-42.48257 141.6592-42.48257"/>
<path transform="matrix(1.00009,0,0,-1.00003,147.85105,149.6051)" stroke-width=".79701" stroke-linecap="butt" stroke-miterlimit="10" stroke-linejoin="miter" fill="none" stroke="#008000" d="M-141.73404 680.3234C-141.73404 680.3234-141.3237 678.6821-141.1661 678.05178-141.00853 677.4214-140.75579 676.4104-140.59819 675.78-140.44062 675.14968-140.18785 674.13876-140.03026 673.50839-139.87268 672.878-139.61994 671.867-139.46236 671.23666-139.30477 670.60629-139.052 669.59536-138.89443 668.96499-138.73683 668.3346-138.48409 667.32369-138.3265 666.6933-138.16892 666.0629-137.91616 665.05197-137.75858 664.4216-137.60099 663.7912-137.34824 662.7803-137.19066 662.1499-137.03307 661.51956-136.7803 660.5086-136.62273 659.87826-136.46515 659.2478-136.21239 658.2369-136.05481 657.6065-135.89723 656.97616-135.64449 655.9652-135.4869 655.33486-135.32932 654.70449-135.07656 653.69357-134.91896 653.0632-134.76139 652.4328-134.50864 651.4218-134.35105 650.79147-134.19347 650.1611-133.9407 649.15017-133.78311 648.5198-133.62554 647.8894-133.37279 646.8785-133.21521 646.2481-133.05762 645.6177-132.80486 644.60678-132.64728 643.9764-132.48969 643.346-132.23694 642.3351-132.07936 641.7047-131.92177 641.07437-131.669 640.0634-131.51143 639.433-131.35384 638.8026-131.10109 637.7917-130.94351 637.1613-130.78592 636.53097-130.53316 635.52-130.37558 634.88967-130.218 634.2593-129.96524 633.2483-129.80767 632.6179-129.65009 631.98757-129.39734 630.9766-129.23975 630.34628-129.08217 629.7159-128.8294 628.70498-128.67182 628.0746-128.51424 627.44418-128.26149 626.4333-128.1039 625.80288-127.94632 625.1725-127.69356 624.16159-127.53596 623.5312-127.37839 622.9008-127.12564 621.88986-126.96806 621.25949-126.81047 620.6291-126.55771 619.6182-126.40013 618.9878-126.24254 618.3574-125.98979 617.3465-125.83221 616.7161-125.67462 616.08578-125.42186 615.0748-125.26428 614.44448-125.10669 613.814-124.85394 612.8031-124.69637 612.1727-124.53877 611.54238-124.28601 610.53146-124.12843 609.90109-123.97086 609.2706-123.7181 608.25979-123.56052 607.62936-123.40294 606.99899-123.15019 605.98806-122.9926 605.35769-122.83502 604.7273-122.58226 603.7164-122.42467 603.086-122.26709 602.4556-122.01434 601.44467-121.85675 600.8143-121.69917 600.1839-121.44641 599.173-121.28882 598.5426-121.13124 597.91226-120.8785 596.9013-120.72092 596.27096-120.56332 595.6405-120.31056 594.62966-120.15298 593.9992-119.99539 593.36886-119.74265 592.3579-119.58507 591.72756-119.42747 591.09719-119.17471 590.0862-119.01714 589.4558-118.85954 588.82546-118.6068 587.8145-118.44922 587.18417-118.29163 586.5538-118.03888 585.54287-117.8813 584.9125-117.72372 584.2821-117.47095 583.2712-117.31337 582.6408-117.15579 582.0104-116.90305 580.99948-116.74545 580.3691-116.58788 579.7387-116.33511 578.7278-116.17752 578.0974-116.01994 577.467-115.7672 576.4561-115.6096 575.8257-115.45203 575.1953-115.19926 574.1844-115.04167 573.554-114.8841 572.92367-114.63135 571.9127-114.47377 571.28237-114.31618 570.652-114.06342 569.641-113.90584 569.0106-113.74825 568.38027-113.4955 567.3693-113.33792 566.73898-113.18033 566.1086-112.92757 565.09768-112.76999 564.4672-112.6124 563.83688-112.35965 562.8259-112.20207 562.19558-112.04448 561.5652-111.79173 560.55429-111.63416 559.9239-111.47658 559.2935-111.2238 558.28256-111.06622 557.65219-110.90865 557.0218-110.6559 556.01089-110.4983 555.3805-110.34073 554.7501-110.08797 553.7392-109.93037 553.1088-109.7728 552.4784-109.52005 551.4675-109.36246 550.8371-109.20488 550.2067-108.95212 549.1958-108.79453 548.5654-108.63695 547.93508-108.3842 546.92416-108.22662 546.29379-108.06903 545.6633-107.81627 544.65249-107.65869 544.02206-107.5011 543.39169-107.24835 542.38076-107.09077 541.75039-106.93318 541.12-106.68042 540.1091-106.52284 539.4787-106.36525 538.84829-106.1125 537.83737-105.95493 537.207-105.79733 536.5766-105.54459 535.5657-105.38701 534.9353-105.22943 534.30496-104.97665 533.294-104.81908 532.6636-104.6615 532.0332-104.40875 531.0223-104.25116 530.3919-104.09358 529.76156-103.84082 528.7506-103.68323 528.12026-103.52565 527.48989-103.2729 526.4789-103.11531 525.8485-102.95773 525.21817-102.70497 524.2072-102.54738 523.57687-102.3898 522.9465-102.13705 521.93557-101.97948 521.3052-101.82188 520.67477-101.56912 519.6639-101.41154 519.03347-101.25395 518.4031-101.0012 517.39218-100.84363 516.7618-100.68604 516.1314-100.43327 515.1204-100.2757 514.49008-100.1181 513.8597-99.86536 512.8488-99.70778 512.2184-99.55019 511.58805-99.29744 510.5771-99.13986 509.94673-98.98228 509.31636-98.7295 508.3054-98.57193 507.67503-98.41435 507.04463-98.1616 506.0337-98.00401 505.40333-97.84644 504.77296-97.59367 503.76203-97.43608 503.13166-97.2785 502.50126-97.02576 501.49034-96.86816 500.85997-96.71059 500.22959-96.45782 499.21864-96.30023 498.58827-96.14265 497.9579-95.88991 496.94697-95.73233 496.31657-95.57474 495.6862-95.32198 494.67527-95.1644 494.0449-95.0068 493.4145-94.75406 492.40357-94.59648 491.7732-94.43889 491.1428-94.18614 490.13188-94.02856 489.5015-93.87097 488.87113-93.61821 487.8602-93.46063 487.2298-93.30304 486.59944-93.0503 485.5885-92.89272 484.95814-92.73514 484.32774-92.48236 483.3168-92.32478 482.68644-92.1672 482.05607-91.91446 481.0451-91.75687 480.41474-91.59929 479.78437-91.34653 478.7734-91.18893 478.14305-91.03136 477.51268-90.77861 476.50175-90.62102 475.87138-90.46344 475.24098-90.21068 474.23008-90.05309 473.59968-89.89551 472.9693-89.64276 471.95838-89.48518 471.328-89.32759 470.6976-89.07483 469.68669-88.91725 469.0563-88.75966 468.4259-88.50691 467.41499-88.34933 466.78459-88.19174 466.1542-87.939 465.1433-87.78142 464.5129-87.62383 463.88255-87.37106 462.8716-87.21349 462.24125-87.0559 461.61088-86.80315 460.5999-86.64557 459.96955-86.48799 459.33918-86.23521 458.32823-86.07764 457.69786-85.92006 457.06748-85.66731 456.05653-85.50972 455.42616-85.35214 454.79579-85.09938 453.78486-84.94179 453.15449-84.78421 452.5241-84.53146 451.51319-84.37387 450.88279-84.2163 450.2524-83.96353 449.24147-83.80594 448.61109-83.64836 447.9807-83.39561 446.96977-83.23804 446.3394-83.08044 445.709-82.82768 444.6981-82.6701 444.0677-82.51251 443.43733-82.25977 442.4264-82.10219 441.79603-81.9446 441.16566-81.69185 440.15473-81.53427 439.52436-81.37668 438.89396-81.12392 437.88304-80.96634 437.25267-80.80875 436.62229-80.556 435.61134-80.39842 434.98097-80.24084 434.35057-79.98807 433.33964-79.83049 432.70927-79.67291 432.07887-79.42017 431.06797-79.26257 430.4376-79.105 429.8072-78.85223 428.79627-78.69464 428.1659-78.53706 427.5355-78.28432 426.52458-78.12672 425.8942-77.96915 425.26383-77.71638 424.25288-77.55879 423.6225-77.40121 422.99214-77.14847 421.9812-76.99089 421.3508-76.8333 420.72044-76.58054 419.7095-76.42296 419.07914-76.26537 418.44874-76.01262 417.4378-75.85504 416.80744-75.69745 416.17707-75.4447 415.1661-75.28712 414.53575-75.12953 413.90538-74.87677 412.89445-74.7192 412.26405-74.5616 411.63368-74.30885 410.62275-74.15128 409.99238-73.9937 409.36198-73.74092 408.35105-73.58334 407.72068-73.42577 407.0903-73.17302 406.07939-73.01543 405.449-72.85785 404.81864-72.60509 403.80769-72.4475 403.1773-72.28992 402.5469-72.03717 401.536-71.87958 400.9056-71.722 400.2752-71.46924 399.2643-71.31165 398.6339-71.15407 398.00355-70.90132 396.9926-70.74374 396.36225-70.58615 395.73185-70.3334 394.72093-70.17583 394.09056-70.01823 393.46018-69.76547 392.44923-69.6079 391.81886-69.4503 391.18849-69.19756 390.17756-69.03998 389.54716-68.88239 388.91679-68.62962 387.90586-68.47205 387.27549-68.31445 386.6451-68.0617 385.63417-67.90413 385.00379-67.74655 384.3734-67.49377 383.36247-67.3362 382.7321-67.17862 382.1017-66.92587 381.0908-66.76828 380.4604-66.6107 379.83003-66.35794 378.8191-66.20035 378.18873-66.04277 377.55833-65.79002 376.54743-65.63243 375.91703-65.47485 375.28666-65.22209 374.2757-65.0645 373.64533-64.90692 373.01496-64.65417 372.004-64.4966 371.37364-64.339 370.74327-64.08626 369.73237-63.92868 369.10197-63.77109 368.47157-63.51833 367.46067-63.36075 366.83027-63.20316 366.1999-62.95041 365.18898-62.79283 364.5586-62.63524 363.9282-62.38248 362.91728-62.2249 362.28688-62.0673 361.65653-61.81456 360.64558-61.65698 360.0152-61.4994 359.3848-61.24663 358.3739-61.08905 357.74354-60.93147 357.11314-60.67873 356.1022-60.52113 355.47184-60.36356 354.84147-60.1108 353.8305-59.9532 353.20014-59.79562 352.56977-59.54288 351.5588-59.38528 350.92845-59.2277 350.29808-58.97495 349.2871-58.81735 348.65675-58.65977 348.02638-58.40703 347.01545-58.24945 346.38508-58.09186 345.75468-57.83911 344.74378-57.68153 344.11338-57.52394 343.483-57.27118 342.47206-57.1136 341.84169-56.95601 341.2113-56.70326 340.20036-56.54568 339.56999-56.38809 338.9396-56.13533 337.92869-55.97775 337.2983-55.82016 336.6679-55.56741 335.657-55.40984 335.02665-55.25226 334.39625-54.99948 333.3853-54.8419 332.75495-54.68433 332.12455-54.43158 331.11363-54.27399 330.48323-54.11641 329.85289-53.86365 328.84193-53.70605 328.21156-53.54848 327.58116-53.29573 326.57026-53.13814 325.93986-52.98056 325.30946-52.7278 324.29856-52.5702 323.66816-52.41263 323.03779-52.15988 322.02687-52.0023 321.39649-51.84471 320.7661-51.59196 319.75517-51.43439 319.1248-51.2768 318.4944-51.02403 317.48347-50.86646 316.8531-50.70886 316.22273-50.45612 315.2118-50.29854 314.5814-50.14095 313.95103-49.88818 312.9401-49.7306 312.30973-49.57301 311.67936-49.32027 310.6684-49.16269 310.03804-49.00511 309.40766-48.75233 308.3967-48.59476 307.76634-48.43718 307.13597-48.18443 306.12504-48.02684 305.49464-47.86926 304.86427-47.6165 303.85334-47.45891 303.22297-47.30133 302.5926-47.04858 301.58168-46.89099 300.95127-46.73341 300.3209-46.48067 299.30998-46.32307 298.67958-46.1655 298.04924-45.91273 297.03828-45.75516 296.4079-45.59756 295.7775-45.34482 294.7666-45.18724 294.1362-45.02965 293.5058-44.77689 292.4949-44.61931 291.8645-44.46172 291.23414-44.20897 290.22319-44.05139 289.59284-43.8938 288.96244-43.64104 287.9515-43.48346 287.32115-43.32587 286.69078-43.07312 285.6798-42.91554 285.04945-42.75797 284.41908-42.50519 283.40815-42.34761 282.77778-42.19003 282.14738-41.93729 281.13645-41.7797 280.50608-41.62212 279.8757-41.36935 278.86476-41.21176 278.23439-41.05418 277.604-40.80144 276.59306-40.64384 275.96269-40.48627 275.33229-40.23352 274.32139-40.07593 273.691-39.91835 273.0606-39.66559 272.04969-39.50801 271.4193-39.35042 270.78895-39.09767 269.778-38.9401 269.1476-38.7825 268.51725-38.52974 267.5063-38.37216 266.87593-38.21457 266.24555-37.96182 265.2346-37.80424 264.60423-37.64665 263.97386-37.39389 262.96296-37.23631 262.33256-37.07872 261.70219-36.82597 260.69126-36.6684 260.06089-36.51082 259.43049-36.25804 258.41954-36.10046 257.78919-35.94289 257.15879-35.69014 256.14787-35.53255 255.51747-35.37497 254.8871-35.12221 253.87616-34.96461 253.24579-34.80704 252.6154-34.55429 251.60449-34.3967 250.9741-34.23912 250.34372-33.98637 249.3328-33.82878 248.70241-33.6712 248.07204-33.41844 247.0611-33.26086 246.43073-33.10327 245.80034-32.85052 244.78942-32.69295 244.15903-32.53535 243.52864-32.2826 242.51772-32.12502 241.88733-31.96742 241.25696-31.71468 240.24604-31.5571 239.61566-31.3995 238.98528-31.14674 237.97435-30.98917 237.34397-30.83157 236.7136-30.57883 235.70265-30.42125 235.07228-30.26367 234.4419-30.0109 233.43096-29.85332 232.80059-29.69574 232.1702-29.443 231.15927-29.2854 230.52889-29.12782 229.89852-28.87508 228.88759-28.71748 228.25722-28.5599 227.62683-28.30714 226.6159-28.14955 225.98552-27.99197 225.35514-27.73923 224.34421-27.58163 223.71382-27.42406 223.08345-27.1713 222.07251-27.01372 221.44214-26.85612 220.81175-26.60338 219.80083-26.4458 219.17044-26.28821 218.54006-26.03545 217.52913-25.87787 216.89875-25.72028 216.26837-25.46753 215.25745-25.30995 214.62708-25.15236 213.99669-24.8996 212.98577-24.74202 212.35538-24.58443 211.725-24.33168 210.71407-24.1741 210.0837-24.01653 209.45331-23.76375 208.44237-23.60617 207.812-23.4486 207.18161-23.19585 206.17069-23.03825 205.5403-22.88068 204.90993-22.62793 203.899-22.47034 203.26863-22.31276 202.63825-22.06 201.62732-21.9024 200.99694-21.74483 200.36655-21.49208 199.35562-21.33449 198.72524-21.17691 198.09487-20.92415 197.08393-20.76657 196.45355-20.60898 195.82317-20.35623 194.81224-20.19865 194.18186-20.04106 193.55147-19.7883 192.54056-19.63072 191.91017-19.47313 191.2798-19.22038 190.26886-19.0628 189.63849-18.90521 189.0081-18.65245 187.99718-18.49487 187.36679-18.33728 186.73642-18.08453 185.72548-17.92696 185.09511-17.76938 184.46472-17.5166 183.45378-17.35902 182.82341-17.20145 182.19303-16.9487 181.18212-16.7911 180.55173-16.63353 179.92136-16.38078 178.91042-16.22319 178.28005-16.06561 177.64966-15.81285 176.63874-15.65526 176.00835-15.49768 175.37796-15.24493 174.36704-15.08734 173.73665-14.92976 173.10628-14.677 172.09534-14.51942 171.46497-14.36183 170.83458-14.10909 169.82366-13.9515 169.19327-13.79391 168.56288-13.54115 167.55197-13.38358 166.92159-13.22598 166.29122-12.97324 165.28028-12.81566 164.6499-12.65807 164.01952-12.4053 163.00859-12.24773 162.3782-12.09013 161.74784-11.83739 160.7369-11.67981 160.10652-11.52223 159.47614-11.26945 158.4652-11.11188 157.83483-10.9543 157.20444-10.70155 156.19353-10.54396 155.56314-10.38638 154.93277-10.13364 153.92183-9.97604 153.29146-9.81847 152.66107-9.5657 151.65015-9.40811 151.01976-9.25053 150.38938-8.99779 149.37845-8.8402 148.74806-8.68262 148.11769-8.42986 147.10675-8.27228 146.47638-8.11469 145.846-7.86194 144.83509-7.70436 144.2047-7.54677 143.57431-7.294 142.56339-7.13643 141.933-6.97884 141.30263-6.72609 140.29169-6.56851 139.66132-6.41092 139.03093-6.15816 138.02-6.00058 137.38962-5.84299 136.75925-5.59024 135.7483-5.43266 135.11794-5.27509 134.48755-5.02232 133.47663-4.86475 132.84626-4.70717 132.21587-4.4544 131.20494-4.29681 130.57456-4.13924 129.94419-3.88649 128.93325-3.7289 128.30287-3.57132 127.67249-3.31856 126.66156-3.16096 126.03117-3.00339 125.40079-2.75064 124.38986-2.59305 123.75948-2.43547 123.1291-2.18271 122.11816-2.02513 121.4878-1.86754 120.8574-1.61479 119.8465-1.45721 119.21611-1.29962 118.58572-1.04686 117.5748-.88928 116.94441-.73169 116.31404-.47894 115.3031-.32137 114.67273-.16377 114.04234 .08896 113.03142 .24654 112.40103 .40413 111.77066 .65688 110.75972 .81445 110.12935 .97203 109.49896 1.2248 108.48804 1.38237 107.85767 1.53995 107.22728 1.79271 106.21635 1.9503 105.58597 2.10788 104.9556 2.36063 103.94466 2.51822 103.31429 2.6758 102.6839 2.92856 101.67297 3.08615 101.04259 3.24373 100.4122 3.49648 99.40128 3.65407 98.77089 3.81165 98.14052 4.0644 97.1296 4.22198 96.49922 4.37958 95.86884 4.63232 94.85791 4.7899 94.22752 4.9475 93.59714 5.20026 92.58621 5.35783 91.95583 5.51543 91.32545 5.76817 90.31451 5.92575 89.68414 6.08334 89.05376 6.3361 88.04283 6.49368 87.41245 6.65128 86.78207 6.90402 85.77115 7.0616 85.14078 7.21918 84.51039 7.47194 83.49945 7.62952 82.86908 7.7871 82.2387 8.03986 81.22777 8.19745 80.59738 8.35503 79.96701 8.60777 78.95607 8.76537 78.3257 8.92294 77.69531 9.1757 76.68439 9.3333 76.054 9.49088 75.42361 9.74362 74.41269 9.90121 73.7823 10.05879 73.15193 10.31155 72.141 10.46913 71.51064 10.62672 70.88025 10.87947 69.86932 11.03705 69.23894 11.19464 68.60855 11.4474 67.59763 11.60498 66.96724 11.76257 66.33687 12.01532 65.32593 12.1729 64.69556 12.33049 64.06517 12.58325 63.05424 12.74083 62.42386 12.89842 61.79349 13.15117 60.78256 13.30875 60.15219 13.46632 59.5218 13.71909 58.51086 13.87666 57.8805 14.03424 57.2501 14.287 56.23918 14.4446 55.6088 14.60217 54.97842 14.85492 53.96748 15.01251 53.33711 15.17009 52.70673 15.42285 51.6958 15.58044 51.06541 15.73802 50.43503 15.99077 49.42412 16.14836 48.79373 16.30594 48.16336 16.5587 47.15242 16.71628 46.52205 16.87387 45.89166 17.12662 44.88074 17.2842 44.25035 17.44179 43.61996 17.69455 42.60904 17.85213 41.97865 18.00972 41.34828 18.26247 40.33734 18.42004 39.70697 18.57764 39.07658 18.83038 38.06567 18.98796 37.43529 19.14555 36.80492 19.39832 35.79398 19.5559 35.1636 19.71347 34.53322 19.96623 33.52228 20.12381 32.8919 20.28139 32.26152 20.53415 31.2506 20.69174 30.62021 20.84932 29.98984 21.10207 28.9789 21.25966 28.34853 21.41724 27.71814 21.67 26.70723 21.82759 26.07684 21.98517 25.44646 22.23792 24.43553 22.39551 23.80515 22.55309 23.17477 22.80585 22.16383 22.96342 21.53346 23.12102 20.90308 23.37376 19.89215 23.53134 19.26176 23.68893 18.63138 23.9417 17.62045 24.09927 16.99007 24.25687 16.3597 24.50961 15.34875 24.66719 14.71838 24.82478 14.088 25.07753 13.07709 25.2351 12.4467 25.3927 11.81633 25.64546 10.80539 25.80304 10.17502 25.96062 9.54463 26.21338 8.53369 26.37096 7.90332 26.52853 7.27293 26.7813 6.26201 26.93889 5.63162 27.09647 5.00125 27.34921 3.99031 27.5068 3.35994 27.66438 2.72955 27.91714 1.71864 28.07474 1.08826 28.23232 .45787 28.48506-.55302 28.64265-1.18341 28.80023-1.81378 29.053-2.82472 29.21057-3.4551 29.36816-4.08548 29.62091-5.0964 29.77849-5.72679 29.93608-6.35718 30.18884-7.3681 30.34642-7.99849 30.50401-8.62886 30.75676-9.63979 30.91434-10.27016 31.07193-10.90054 31.32468-11.91147 31.48225-12.54185 31.63985-13.17223 31.89261-14.18317 32.05019-14.81354 32.20776-15.44392 32.46053-16.45486 32.6181-17.08524 32.77568-17.71562 33.02844-18.72655 33.18604-19.35693 33.34361-19.9873 33.59636-20.99823 33.75395-21.6286 33.91153-22.25899 34.16429-23.26991 34.32188-23.9003 34.47946-24.53069 34.73221-25.54161 34.8898-26.172 35.04738-26.80237 35.30014-27.81331 35.45772-28.44368 35.61531-29.07407 35.86806-30.08499 36.02563-30.71538 36.18323-31.34576 36.43599-32.35669 36.59357-32.98708 36.75116-33.61745 37.0039-34.62837 37.16148-35.25874 37.31908-35.88913 37.57182-36.90005 37.7294-37.53044 37.887-38.16081 38.13976-39.17175 38.29733-39.80212 38.45491-40.43251 38.70767-41.44345 38.86525-42.07382 39.02283-42.70421 39.27559-43.71513 39.43318-44.34552 39.59076-44.97589 39.8435-45.98682 40.0011-46.61719 40.15868-47.24757 40.41144-48.2585 40.56903-48.88889 40.72661-49.51927 40.97935-50.5302 41.13695-51.16058 41.29453-51.79095 41.54729-52.8019 41.70486-53.43227 41.86246-54.06265 42.1152-55.07358 42.27278-55.70396 42.43037-56.33435 42.68312-57.34526 42.8407-57.97565 42.99829-58.60602 43.25105-59.61696 43.40863-60.24733 43.56622-60.87772 43.81897-61.88864 43.97655-62.51903 44.13414-63.1494 44.3869-64.16034 44.54448-64.79071 44.70206-65.4211 44.95482-66.43204 45.1124-67.06241 45.26997-67.6928 45.52274-68.7037 45.68033-69.33409 45.8379-69.96446 46.09065-70.9754 46.24825-71.60577 46.40582-72.23616 46.65858-73.24709 46.81618-73.87747 46.97375-74.50786 47.2265-75.51878 47.3841-76.14917 47.54167-76.77954 47.79443-77.79048 47.95201-78.42085 48.1096-79.05124 48.36235-80.06216 48.51993-80.69255 48.67752-81.32294 48.93027-82.33385 49.08784-82.96423 49.24544-83.5946 49.4982-84.60555 49.65578-85.23592 49.81337-85.8663 50.06612-86.87723 50.2237-87.50761 50.38129-88.13799 50.63405-89.14893 50.79163-89.7793 50.9492-90.40968 51.20197-91.42062 51.35954-92.051 51.51712-92.68138 51.76988-93.69229 51.92747-94.32268 52.08505-94.95305 52.3378-95.96399 52.49539-96.59436 52.65297-97.22475 52.90573-98.23567 53.06332-98.86606 53.2209-99.49644 53.47365-100.50737 53.63124-101.13776 53.78882-101.76813 54.04158-102.77907 54.19916-103.40944 54.35675-104.03983 54.6095-105.05074 54.76707-105.68112 54.92467-106.31151 55.17741-107.32243 55.33499-107.95282 55.49258-108.58319 55.74535-109.59413 55.90292-110.2245 56.06052-110.85489 56.31326-111.86581 56.47084-112.4962 56.62843-113.12657 56.8812-114.13751 57.03877-114.76788 57.19635-115.39827 57.44911-116.4092 57.60669-117.03957 57.76427-117.66995 58.01703-118.68088 58.17462-119.31126 58.3322-119.94164 58.58495-120.95258 58.74254-121.58295 58.90012-122.21333 59.15288-123.22426 59.31047-123.85464 59.46805-124.48503 59.7208-125.49596 59.87839-126.12634 60.03596-126.75671 60.28873-127.76765 60.4463-128.39803 60.6039-129.02841 60.85664-130.03932 61.01422-130.66971 61.17181-131.3001 61.42456-132.31102 61.58214-132.9414 61.73973-133.57178 61.9925-134.58272 62.15007-135.21309 62.30766-135.84348 62.56041-136.8544 62.71799-137.48479 62.87558-138.11516 63.12834-139.1261 63.28592-139.75647 63.4435-140.38686 63.69626-141.39778 63.85384-142.02816 64.01141-142.65854 64.26418-143.66947 64.42177-144.29985 64.57935-144.93022 64.83209-145.94116 64.98969-146.57154 65.14726-147.20192 65.40002-148.21285 65.55762-148.84323 65.7152-149.47362 65.96794-150.48455 66.12553-151.11493 66.28311-151.7453 66.53586-152.75623 66.69344-153.3866 66.85103-154.01699 67.10379-155.02791 67.26137-155.6583 67.41896-156.28868 67.6717-157.2996 67.82928-157.93 67.98688-158.56037 68.23964-159.5713 68.39722-160.20168 68.55481-160.83206 68.80756-161.84299 68.96513-162.47338 69.12273-163.10375 69.37549-164.11467 69.53307-164.74504 69.69064-165.37543 69.9434-166.38637 70.10098-167.01674 70.25856-167.64713 70.51132-168.65805 70.66891-169.28844 70.82649-169.91881 71.07924-170.92975 71.23683-171.56012 71.39441-172.1905 71.64717-173.20143 71.80476-173.83182 71.96234-174.4622 72.21509-175.47313 72.37268-176.10352 72.53026-176.73389 72.783-177.74481 72.94058-178.37519 73.09818-179.00557 73.35094-180.0165 73.50851-180.64688 73.6661-181.27727 73.91885-182.2882 74.07643-182.91858 74.23402-183.54895 74.48679-184.55989 74.64436-185.19026 74.80196-185.82065 75.0547-186.83158 75.21228-187.46196 75.36987-188.09233 75.62263-189.10326 75.78021-189.73363 75.93779-190.36402 76.19055-191.37496 76.34813-192.00533 76.5057-192.63571 76.75847-193.64664 76.91606-194.27703 77.07364-194.9074 77.32639-195.91834 77.48398-196.5487 77.64156-197.1791 77.89432-198.19002 78.05191-198.8204 78.20949-199.45079 78.46223-200.4617 78.61983-201.09209 78.7774-201.72246 79.03015-202.7334 79.18773-203.36377 79.34532-203.99416 79.59808-205.00508 79.75566-205.63547 79.91325-206.26586 80.166-207.27678 80.32358-207.90717 80.48117-208.53754 80.73393-209.54848 80.89151-210.17885 81.0491-210.80924 81.30185-211.82015 81.45943-212.45053 81.61702-213.0809 81.86978-214.09185 82.02736-214.72222 82.18494-215.3526 82.4377-216.36354 82.59528-216.99391 82.75285-217.6243 83.00562-218.63523 83.16321-219.26561 83.32079-219.89598 83.57353-220.90692 83.73112-221.5373 83.8887-222.16768 84.14145-223.17859 84.29904-223.80898 84.45662-224.43936 84.70938-225.45029 84.86697-226.08068 85.02455-226.71105 85.2773-227.72199 85.43488-228.35236 85.59247-228.98274 85.84523-229.99367 86.0028-230.62406 86.1604-231.25444 86.41315-232.26537 86.57072-232.89575 86.72832-233.52613 86.98108-234.53707 87.13866-235.16744 87.29625-235.79782 87.549-236.80873 87.70657-237.43912 87.86417-238.06949 88.11693-239.08043 88.2745-239.7108 88.43208-240.34119 88.68484-241.35213 88.84242-241.9825 89-242.61289 89.25276-243.62381 89.41035-244.2542 89.56793-244.88457 89.82068-245.89551 89.97827-246.52588 90.13585-247.15627 90.3886-248.16718 90.54619-248.79756 90.70377-249.42795 90.95653-250.43888 91.11412-251.06926 91.2717-251.69963 91.52444-252.71057 91.68202-253.34095 91.83961-253.97133 92.09238-254.98226 92.24995-255.61264 92.40755-256.24305 92.6603-257.25395 92.81787-257.88435 92.97546-258.5147 93.22823-259.52565 93.3858-260.156 93.5434-260.78639 93.79614-261.79734 93.95372-262.4277 94.11131-263.05809 94.36407-264.06904 94.52165-264.6994 94.67923-265.32978 94.93199-266.3407 95.08957-266.97108 95.24715-267.60148 95.49991-268.6124 95.6575-269.24278 95.81508-269.87315 96.06783-270.8841 96.22542-271.51445 96.383-272.14485 96.63574-273.15577 96.79333-273.78617 96.95091-274.41654 97.20367-275.42747 97.36127-276.05787 97.51884-276.68824 97.77159-277.69917 97.92917-278.32954 98.08676-278.95994 98.33952-279.97084 98.4971-280.60124 98.6547-281.2316 98.90744-282.24256 99.06502-282.87294 99.22261-283.5033 99.47537-284.51423 99.63295-285.1446 99.79054-285.775 100.04329-286.7859 100.20087-287.4163 100.35846-288.04667 100.61122-289.0576 100.7688-289.68797 100.92638-290.31837 101.17914-291.3293 101.33672-291.95967 101.4943-292.59007 101.74706-293.60099 101.90465-294.23139 102.06223-294.86174 102.31497-295.87269 102.47256-296.50306 102.63014-297.13343 102.88289-298.14436 103.04048-298.77473 103.19806-299.40513 103.45082-300.41606 103.60841-301.04643 103.76599-301.6768 104.01874-302.68775 104.17632-303.3181 104.33391-303.9485 104.58667-304.95945 104.74425-305.5898 104.90184-306.2202 105.15459-307.2311 105.31216-307.8615 105.46976-308.49189 105.72252-309.5028 105.8801-310.13319 106.03769-310.76359 106.29044-311.77449 106.44801-312.40489 106.6056-313.03526 106.85837-314.0462 107.01595-314.67658 107.17352-315.30696 107.42628-316.3179 107.58386-316.94828 107.74144-317.57865 107.99419-318.58955 108.15178-319.21995 108.30936-319.8503 108.56212-320.86125 108.71971-321.4916 108.87729-322.122 109.13004-323.13294 109.28763-323.7633 109.4452-324.3937 109.69797-325.40464 109.85556-326.03504 110.01314-326.66539 110.26588-327.67634 110.42346-328.3067 110.58105-328.9371 110.83382-329.948 110.9914-330.5784 111.14899-331.2088 111.40173-332.2197 111.55931-332.85008 111.7169-333.48045 111.96967-334.4914 112.12724-335.12178 112.28484-335.75215 112.53758-336.7631 112.69516-337.39347 112.85275-338.02384 113.10551-339.03477 113.26309-339.66517 113.42067-340.29554 113.67343-341.30647 113.83101-341.93684 113.98859-342.56724 114.24133-343.57814 114.39893-344.20854 114.5565-344.8389 114.80927-345.84986 114.96686-346.48023 115.12444-347.1106 115.37718-348.12153 115.53477-348.7519 115.69235-349.3823 115.94511-350.39323 116.1027-351.0236 116.26028-351.654 116.51303-352.66493 116.67061-353.2953 116.8282-353.92567 117.08096-354.93659 117.23854-355.56697 117.39613-356.19737 117.64888-357.20829 117.80646-357.83869 117.96405-358.46907 118.21681-359.47999 118.37439-360.11036 118.53198-360.74076 118.78473-361.75166 118.9423-362.38206 119.0999-363.01243 119.35266-364.02336 119.51024-364.65373 119.66782-365.28413 119.92058-366.29505 120.07816-366.9254 120.23573-367.5558 120.48848-368.56675 120.64607-369.1971 120.80365-369.82749 121.05641-370.8384 121.214-371.4688 121.37158-372.09919 121.62433-373.1101 121.78192-373.7405 121.9395-374.37089 122.19226-375.3818 122.34985-376.01219 122.50743-376.64256 122.76018-377.6535 122.91776-378.28388 123.07535-378.91426 123.32811-379.92518 123.48569-380.55558 123.64328-381.18595 123.89603-382.19688 124.0536-382.82728 124.2112-383.45765 124.46396-384.46858 124.62154-385.09895 124.77913-385.7293 125.03188-386.74028 125.18945-387.37065 125.34705-388.001 125.59981-389.01197 125.75739-389.64234 125.91496-390.2727 126.16772-391.28364 126.3253-391.914 126.48288-392.5444 126.73563-393.5553 126.89322-394.1857 127.0508-394.81608 127.30356-395.827 127.46115-396.45738 127.61873-397.08778 127.87148-398.0987 128.02907-398.72908 128.18665-399.35948 128.4394-400.3704 128.597-401.0008 128.75458-401.63117 129.00733-402.64207 129.1649-403.27247 129.3225-403.90284 129.57526-404.91377 129.73284-405.54414 129.89043-406.17454 130.14318-407.18547 130.30075-407.81584 130.45835-408.4462 130.7111-409.45716 130.86869-410.08753 131.02628-410.7179 131.27902-411.72886 131.4366-412.35923 131.5942-412.9896 131.84694-414.00053 132.00452-414.6309 132.1621-415.2613 132.41487-416.27223 132.57245-416.9026 132.73003-417.53297 132.98278-418.5439 133.14037-419.1743 133.29795-419.80467 133.5507-420.8156 133.7083-421.44599 133.86588-422.07637 134.11862-423.08729 134.27622-423.71769 134.43379-424.34806 134.68656-425.35896 134.84415-425.98936 135.00173-426.61973 135.25447-427.63066 135.41205-428.26103 135.56964-428.89143 135.8224-429.90235 135.97998-430.5327 136.13758-431.16313 136.39032-432.17405 136.5479-432.80445 136.70549-433.4348 136.95825-434.44575 137.11583-435.0761 137.27342-435.7065 137.52617-436.7174 137.68375-437.3478 137.84134-437.97819 138.09409-438.9891 138.25167-439.61949 138.40924-440.24986 138.66202-441.2608 138.8196-441.89118 138.97718-442.52156 139.22992-443.5325 139.38751-444.16288 139.54509-444.79325 139.79785-445.80418 139.95545-446.43458 140.11302-447.06495 140.36577-448.07588 140.52336-448.70625 140.68094-449.33665 140.9337-450.34757 141.0913-450.97795 141.24887-451.6083 141.6592-453.24964 141.6592-453.24964"/>
</g>
<use data-text="&#x2022;" xlink:href="#font_5_1" transform="matrix(9.963496,0,0,-9.962899,60.312166,151.81917)" fill="#0000ff"/>
<use data-text="&#x2022;" xlink:href="#font_5_1" transform="matrix(9.963496,0,0,-9.962899,145.35982,95.12347)" fill="#0000ff"/>
<use data-text="&#x2022;" xlink:href="#font_5_1" transform="matrix(9.963496,0,0,-9.962899,145.35982,123.47131)" fill="#ff0000"/>
<use data-text="&#x2022;" xlink:href="#font_5_1" transform="matrix(9.963496,0,0,-9.962899,202.05893,151.81917)" fill="#ff0000"/>
<use data-text="&#x2022;" xlink:href="#font_5_1" transform="matrix(9.963496,0,0,-9.962899,145.35982,38.428766)" fill="#008000"/>
<use data-text="&#x2022;" xlink:href="#font_5_1" transform="matrix(9.963496,0,0,-9.962899,173.70938,151.81917)" fill="#008000"/>
</svg>
