<svg xmlns="http://www.w3.org/2000/svg" xmlns:xlink="http://www.w3.org/1999/xlink" version="1.1" width="307" height="308" viewBox="0 0 307 308">
<defs>
<path id="font_1_1" d="M.33399964 .30233766C.33999635 .32835389 .36299134 .42037965 .43299867 .42037965 .43798829 .42037965 .46199037 .42037965 .48298646 .40734864 .45498658 .402359 .43499757 .37734986 .43499757 .35334779 .43499757 .33735658 .44599916 .31835938 .47299195 .31835938 .49499513 .31835938 .5269928 .3363495 .5269928 .37635804 .5269928 .42837525 .46798707 .4423828 .43399049 .4423828 .37599183 .4423828 .34098817 .38935853 .32899476 .36634828 .3039856 .43237306 .25 .4423828 .22099304 .4423828 .116989139 .4423828 .05999756 .3133545 .05999756 .28834535 .05999756 .27833558 .069992069 .27833558 .07199097 .27833558 .07998657 .27833558 .08299255 .28033448 .084991458 .28933717 .11898804 .39535523 .18499756 .42037965 .21899414 .42037965 .23799134 .42037965 .272995 .4113617 .272995 .35334779 .272995 .32235719 .2559967 .25532533 .21899414 .11528015 .20298767 .053268434 .16799927 .011245728 .12399292 .011245728 .117996219 .011245728 .09498596 .011245728 .07398987 .024276734 .09899902 .029266358 .12098694 .05027771 .12098694 .07827759 .12098694 .105270389 .09899902 .11328125 .083999637 .11328125 .053985597 .11328125 .0289917 .08728027 .0289917 .055267335 .0289917 .009246826 .07899475-.0107421879 .12298584-.0107421879 .18899536-.0107421879 .22499085 .059280397 .22799683 .0652771 .23999024 .028274537 .27598573-.0107421879 .33599855-.0107421879 .43899537-.0107421879 .49598695 .118270877 .49598695 .14328003 .49598695 .1532898 .4869995 .1532898 .48399354 .1532898 .47499085 .1532898 .47299195 .14929199 .47099305 .14228821 .43798829 .03527832 .36999513 .011245728 .33799745 .011245728 .29899598 .011245728 .2829895 .043273927 .2829895 .07727051 .2829895 .09927368 .2889862 .121276859 .2999878 .16529846L.33399964 .30233766Z"/>
<path id="font_1_2" d="M.48599244 .38136292C.48999024 .39537049 .48999024 .39736939 .48999024 .40437318 .48999024 .42237855 .47599793 .43138124 .46099855 .43138124 .45098878 .43138124 .43499757 .42536927 .42599488 .41036988 .42399598 .405365 .41600038 .37435914 .4119873 .35635377 .40499879 .33035279 .397995 .30334474 .3919983 .27633668L.34700013 .09628296C.34298707 .08126831 .2999878 .011245728 .23399353 .011245728 .18299866 .011245728 .17199707 .055267335 .17199707 .0922699 .17199707 .1382904 .18899536 .20030213 .22299195 .28833009 .23899842 .3293457 .24299622 .3403473 .24299622 .36035157 .24299622 .405365 .21099854 .4423828 .16099549 .4423828 .06599426 .4423828 .0289917 .29733277 .0289917 .28833009 .0289917 .27833558 .038986207 .27833558 .040985109 .27833558 .050994874 .27833558 .051986696 .28033448 .056991579 .29634095 .083999637 .3903656 .12399292 .42037965 .1579895 .42037965 .1659851 .42037965 .18299866 .42037965 .18299866 .3883667 .18299866 .36335755 .17298889 .3373413 .1659851 .31834413 .12599182 .21231079 .10798645 .1552887 .10798645 .10827637 .10798645 .019256592 .17098999-.0107421879 .22999573-.0107421879 .2689972-.0107421879 .30299378 .0062561037 .33099366 .03425598 .31799317-.017745972 .30599977-.06674194 .2659912-.11973572 .23999024-.15385437 .20199585-.18309021 .1559906-.18309021 .14199829-.18309021 .09700012-.18005371 .07998657-.14074707 .09599304-.14074707 .10899353-.14074707 .12298584-.1287384 .1329956-.11973572 .14299011-.10673523 .14299011-.08773804 .14299011-.056747438 .115997318-.052734376 .10598755-.052734376 .08299255-.052734376 .049987794-.068740848 .049987794-.11773682 .049987794-.16796875 .09399414-.20507813 .1559906-.20507813 .25898744-.20507813 .3619995-.11373901 .3899994-.00074768069L.48599244 .38136292Z"/>
<clipPath id="clip_2">
<path transform="matrix(1.00008,0,0,-1.00008,148.90847,159.47772)" d="M-141.73404-141.73404V141.73404H56.69362V-141.73404ZM56.69362 141.73404"/>
</clipPath>
<clipPath id="clip_3">
<path transform="matrix(1.00008,0,0,-1.00008,148.90847,159.47772)" d="M85.04042-141.73404V141.73404H141.73404V-141.73404ZM141.73404 141.73404"/>
</clipPath>
<path id="font_4_1" d="M.44400025 .24998474C.44400025 .35688783 .35499574 .44381715 .25 .44381715 .14199829 .44381715 .054992677 .35488893 .054992677 .24998474 .054992677 .14407349 .14199829 .056137086 .25 .056137086 .35499574 .056137086 .44400025 .14308167 .44400025 .24998474Z"/>
</defs>
<path transform="matrix(1.00008,0,0,-1.00008,148.90847,159.47772)" stroke-width=".19925" stroke-linecap="butt" stroke-miterlimit="10" stroke-linejoin="miter" fill="none" stroke="#929292" d="M-141.73404-141.73404H141.73404M-141.73404-113.38724H141.73404M-141.73404-85.04042H141.73404M-141.73404-56.69362H141.73404M-141.73404-28.3468H141.73404M-141.73404 0H141.73404M-141.73404 28.3468H141.73404M-141.73404 56.69362H141.73404M-141.73404 85.04042H141.73404M-141.73404 113.38724H141.73404M-141.73404 141.72409H141.73404M-141.73404-141.73404V141.73404M-113.38724-141.73404V141.73404M-85.04042-141.73404V141.73404M-56.69362-141.73404V141.73404M-28.3468-141.73404V141.73404M0-141.73404V141.73404M28.3468-141.73404V141.73404M56.69362-141.73404V141.73404M85.04042-141.73404V141.73404M113.38724-141.73404V141.73404M141.72409-141.73404V141.73404M141.73404 141.73404"/>
<path transform="matrix(1.00008,0,0,-1.00008,148.90847,159.47772)" stroke-width="1.19553" stroke-linecap="butt" stroke-miterlimit="10" stroke-linejoin="miter" fill="none" stroke="#000000" d="M-147.40332 0H146.4469"/>
<path transform="matrix(1.00008,0,0,-1.00008,295.36708,159.47772)" stroke-width=".9564" stroke-linecap="round" stroke-linejoin="round" fill="none" stroke="#000000" d="M-1.91284 2.55046C-1.75343 1.59402 0 .15938 .4782 0 0-.15938-1.75343-1.59402-1.91284-2.55046"/>
<use data-text="x" xlink:href="#font_1_1" transform="matrix(9.963397,0,0,-9.963397,300.24256,161.6229)"/>
<path transform="matrix(1.00008,0,0,-1.00008,148.90847,159.47772)" stroke-width="1.19553" stroke-linecap="butt" stroke-miterlimit="10" stroke-linejoin="miter" fill="none" stroke="#000000" d="M0-147.40332V146.4469"/>
<path transform="matrix(0,-1.00008,-1.00008,-0,148.90847,13.019104)" stroke-width=".9564" stroke-linecap="round" stroke-linejoin="round" fill="none" stroke="#000000" d="M-1.91284 2.55046C-1.75343 1.59402 0 .15938 .4782 0 0-.15938-1.75343-1.59402-1.91284-2.55046"/>
<use data-text="y" xlink:href="#font_1_2" transform="matrix(9.963397,0,0,-9.963397,146.28726,6.2064669)"/>
<g clip-path="url(#clip_2)">
<path transform="matrix(1.00008,0,0,-1.00008,148.90847,159.47772)" stroke-width=".79701" stroke-linecap="butt" stroke-miterlimit="10" stroke-linejoin="miter" fill="none" stroke="#0000ff" d="M-141.73404-198.42766C-141.73404-198.42766-141.44683-198.14046-141.33654-198.03015-141.22623-197.91985-141.04932-197.74294-140.93903-197.63265-140.82874-197.52236-140.65181-197.34543-140.54152-197.23514-140.43123-197.12485-140.25432-196.94794-140.14403-196.83765-140.03374-196.72736-139.85681-196.55043-139.74652-196.44014-139.63623-196.32985-139.4593-196.15293-139.34902-196.04264-139.23873-195.93235-139.06182-195.75543-138.95153-195.64514-138.84123-195.53485-138.6643-195.35793-138.55402-195.24764-138.44373-195.13735-138.2668-194.96042-138.15651-194.85013-138.04622-194.73984-137.86931-194.56293-137.75902-194.45264-137.64873-194.34235-137.4718-194.16542-137.36151-194.05513-137.25122-193.94484-137.0743-193.76792-136.964-193.65763-136.85372-193.54734-136.6768-193.37042-136.56652-193.26013-136.45623-193.14984-136.27931-192.97293-136.169-192.86263-136.0587-192.75232-135.88179-192.57541-135.77149-192.46512-135.66118-192.35482-135.48429-192.1779-135.374-192.06761-135.2637-191.95732-135.08678-191.7804-134.97649-191.6701-134.8662-191.55982-134.68927-191.3829-134.579-191.27262-134.4687-191.16233-134.29178-190.9854-134.18149-190.8751-134.0712-190.76482-133.89427-190.58789-133.78398-190.4776-133.67369-190.36731-133.49678-190.1904-133.38649-190.08011-133.2762-189.96982-133.09928-189.7929-132.98899-189.6826-132.8787-189.57231-132.70177-189.39539-132.59148-189.2851-132.48119-189.1748-132.30428-188.9979-132.19399-188.8876-132.0837-188.77732-131.90677-188.60039-131.79648-188.4901-131.68619-188.3798-131.50926-188.20288-131.39897-188.09259-131.28868-187.9823-131.11177-187.80539-131.00148-187.6951-130.89119-187.58481-130.71428-187.4079-130.60398-187.29759-130.49367-187.18729-130.31676-187.01038-130.20645-186.90007-130.09615-186.78977-129.91925-186.61287-129.80896-186.50258-129.69867-186.39229-129.52175-186.21537-129.41146-186.10507-129.30117-185.99478-129.12424-185.81787-129.01395-185.70758-128.90366-185.59729-128.72675-185.42037-128.61646-185.31008-128.50617-185.19979-128.32924-185.02286-128.21895-184.91257-128.10866-184.80228-127.93175-184.62537-127.82146-184.51508-127.71117-184.40479-127.53424-184.22786-127.42395-184.11757-127.31366-184.00728-127.13673-183.83036-127.02644-183.72006-126.91615-183.60977-126.73924-183.43286-126.62895-183.32257-126.51866-183.21228-126.34174-183.03536-126.23145-182.92507-126.12115-182.81478-125.94423-182.63785-125.83394-182.52756-125.72365-182.41727-125.54674-182.24036-125.43645-182.13007-125.32616-182.01978-125.14925-181.84287-125.03894-181.73256-124.92863-181.62226-124.75172-181.44535-124.64142-181.33504-124.53111-181.22473-124.35422-181.04784-124.24393-180.93755-124.13364-180.82726-123.95671-180.65033-123.84642-180.54004-123.73613-180.42975-123.5592-180.25283-123.44891-180.14253-123.33862-180.03224-123.16171-179.85533-123.05142-179.74504-122.94113-179.63475-122.7642-179.45783-122.65392-179.34754-122.54362-179.23725-122.3667-179.06034-122.25641-178.95005-122.14612-178.83975-121.96921-178.66283-121.85892-178.55254-121.74863-178.44225-121.5717-178.26532-121.46141-178.15503-121.35112-178.04474-121.17421-177.86783-121.06392-177.75754-120.95363-177.64725-120.7767-177.47032-120.66641-177.36003-120.55612-177.24974-120.3792-177.07282-120.2689-176.96253-120.15862-176.85224-119.9817-176.67533-119.87141-176.56504-119.76112-176.45475-119.58421-176.27783-119.4739-176.16753-119.3636-176.05722-119.18669-175.88031-119.07639-175.77-118.96608-175.6597-118.78918-175.4828-118.6789-175.37252-118.5686-175.26222-118.39168-175.0853-118.28139-174.975-118.1711-174.86472-117.99417-174.68779-117.88388-174.5775-117.77359-174.46721-117.59668-174.2903-117.48639-174.18001-117.3761-174.06972-117.19917-173.89279-117.08888-173.7825-116.97859-173.67221-116.80167-173.49529-116.69138-173.385-116.58109-173.2747-116.40417-173.0978-116.29388-172.9875-116.1836-172.87722-116.00667-172.70029-115.89638-172.59-115.78609-172.4797-115.60916-172.3028-115.49887-172.1925-115.38858-172.08222-115.21167-171.90529-115.10138-171.795-114.99109-171.68471-114.81416-171.50778-114.70387-171.39749-114.59358-171.2872-114.41667-171.11029-114.30638-171-114.19609-170.88971-114.01918-170.7128-113.90887-170.6025-113.79857-170.49219-113.62166-170.31528-113.51135-170.20497-113.40105-170.09467-113.22415-169.91777-113.11386-169.80748-113.00357-169.69719-112.82664-169.52027-112.71635-169.40998-112.60606-169.29969-112.42914-169.12276-112.31885-169.01247-112.20856-168.90218-112.03165-168.72527-111.92136-168.61498-111.81107-168.50469-111.63414-168.32776-111.52385-168.21747-111.41356-168.10718-111.23663-167.93025-111.12634-167.81996-111.01605-167.70967-110.83914-167.53276-110.72885-167.42247-110.61856-167.31218-110.44164-167.13526-110.33134-167.02497-110.22105-166.91468-110.04413-166.73775-109.93384-166.62746-109.82355-166.51717-109.64664-166.34026-109.53635-166.22997-109.42606-166.11968-109.24913-165.94275-109.13884-165.83246-109.02855-165.72217-108.85162-165.54526-108.74133-165.43497-108.63104-165.32468-108.45415-165.14777-108.34384-165.03746-108.23354-164.92716-108.05663-164.75025-107.94632-164.63994-107.83601-164.52964-107.65912-164.35274-107.54883-164.24245-107.43854-164.13216-107.26161-163.95523-107.15132-163.84494-107.04103-163.73465-106.8641-163.55773-106.75381-163.44744-106.64352-163.33715-106.46661-163.16024-106.35632-163.04994-106.24603-162.93965-106.0691-162.76273-105.95882-162.65244-105.84853-162.54215-105.6716-162.36522-105.56131-162.25493-105.45102-162.14464-105.27411-161.96773-105.16382-161.85744-105.05353-161.74715-104.8766-161.57022-104.76631-161.45993-104.65602-161.34964-104.4791-161.17272-104.3688-161.06243-104.25851-160.95214-104.0816-160.77523-103.97131-160.66493-103.86102-160.55464-103.6841-160.37772-103.5738-160.26743-103.46352-160.15714-103.28659-159.98021-103.1763-159.86992-103.06601-159.75963-102.88911-159.58274-102.77881-159.47243-102.6685-159.36212-102.4916-159.18521-102.38129-159.0749-102.27098-158.9646-102.09407-158.7877-101.98378-158.67742-101.87349-158.56713-101.69658-158.3902-101.58629-158.2799-101.476-158.16962-101.29907-157.99269-101.18878-157.8824-101.07849-157.77211-100.90158-157.5952-100.79129-157.48491-100.681-157.37462-100.50407-157.1977-100.39378-157.0874-100.2835-156.97711-100.10657-156.80019-99.99628-156.6899-99.88599-156.5796-99.70908-156.4027-99.59879-156.2924-99.4885-156.18212-99.31157-156.00519-99.20128-155.8949-99.09099-155.7846-98.91406-155.60768-98.80377-155.49739-98.69348-155.3871-98.51657-155.21019-98.40628-155.0999-98.29599-154.98961-98.11906-154.81269-98.00877-154.7024-97.89848-154.5921-97.72156-154.41518-97.61127-154.30489-97.50098-154.1946-97.32408-154.0177-97.21378-153.9074-97.10347-153.79709-96.92656-153.62018-96.81625-153.50988-96.70595-153.39957-96.52904-153.22266-96.41875-153.11237-96.30846-153.00208-96.13155-152.82517-96.02126-152.71488-95.91096-152.60459-95.73404-152.42766-95.62375-152.31737-95.51346-152.20708-95.33653-152.03017-95.22624-151.91988-95.11595-151.80959-94.93904-151.63266-94.82875-151.52237-94.71846-151.41208-94.54153-151.23516-94.43124-151.12487-94.32095-151.01457-94.14404-150.83766-94.03375-150.72737-93.92346-150.61708-93.74654-150.44016-93.63625-150.32987-93.52596-150.21958-93.34903-150.04265-93.23874-149.93236-93.12845-149.82207-92.95154-149.64516-92.84125-149.53487-92.73096-149.42458-92.55403-149.24765-92.44374-149.13736-92.33345-149.02707-92.15652-148.85015-92.04623-148.73986-91.93594-148.62957-91.75905-148.45267-91.64874-148.34236-91.53844-148.23206-91.36153-148.05515-91.25122-147.94484-91.14091-147.83454-90.964-147.65763-90.85371-147.54734-90.74342-147.43704-90.56651-147.26013-90.45622-147.14984-90.34593-147.03955-90.169-146.86263-90.05872-146.75234-89.94843-146.64205-89.7715-146.46512-89.66121-146.35483-89.55092-146.24454-89.37401-146.06763-89.26372-145.95734-89.15343-145.84705-88.9765-145.67012-88.86621-145.55983-88.75592-145.44954-88.579-145.27263-88.4687-145.16234-88.35841-145.05205-88.1815-144.87512-88.07121-144.76483-87.96092-144.65454-87.784-144.47762-87.6737-144.36733-87.56342-144.25704-87.3865-144.08013-87.27621-143.96984-87.16592-143.85955-86.989-143.68262-86.87871-143.57233-86.76842-143.46204-86.59149-143.28511-86.4812-143.17482-86.37091-143.06453-86.19402-142.88764-86.08371-142.77733-85.9734-142.66703-85.7965-142.49011-85.68619-142.3798-85.57588-142.2695-85.39897-142.09259-85.28868-141.9823-85.17839-141.87201-85.00148-141.6951-84.89119-141.58481-84.7809-141.47452-84.60397-141.29759-84.49368-141.1873-84.38339-141.07701-84.20647-140.90009-84.09618-140.7898-83.98589-140.6795-83.80898-140.5026-83.69868-140.3923-83.5884-140.28202-83.41147-140.10509-83.30118-139.9948-83.19089-139.8845-83.01396-139.70758-82.90367-139.59729-82.79338-139.487-82.61647-139.31009-82.50618-139.1998-82.39589-139.08951-82.21896-138.91259-82.10867-138.80229-81.99838-138.692-81.82146-138.51509-81.71117-138.4048-81.60088-138.29451-81.42397-138.11759-81.31367-138.0073-81.20338-137.897-81.02646-137.72008-80.91617-137.60979-80.80588-137.4995-80.62898-137.3226-80.51868-137.2123-80.40837-137.10199-80.23146-136.92508-80.12115-136.81478-80.01085-136.70447-79.83394-136.52756-79.72365-136.41727-79.61336-136.30698-79.43645-136.13007-79.32616-136.01978-79.21587-135.90949-79.03894-135.73256-78.92865-135.62227-78.81836-135.51198-78.64143-135.33506-78.53114-135.22476-78.42085-135.11447-78.24394-134.93756-78.13365-134.82727-78.02336-134.71698-77.84644-134.54006-77.73615-134.42977-77.62585-134.31948-77.44893-134.14255-77.33864-134.03226-77.22835-133.92197-77.05144-133.74506-76.94115-133.63477-76.83086-133.52448-76.65393-133.34755-76.54364-133.23726-76.43335-133.12697-76.25642-132.95005-76.14613-132.83975-76.03584-132.72946-75.85893-132.55255-75.74864-132.44226-75.63835-132.33197-75.46143-132.15505-75.35114-132.04476-75.24084-131.93447-75.06393-131.75757-74.95363-131.64727-74.84332-131.53696-74.66643-131.36005-74.55612-131.24974-74.44582-131.13944-74.2689-130.96253-74.15862-130.85224-74.04832-130.74195-73.87141-130.56504-73.76112-130.45475-73.65083-130.34445-73.4739-130.16753-73.36362-130.05724-73.25333-129.94695-73.0764-129.77002-72.96611-129.65973-72.85582-129.54944-72.67891-129.37253-72.56862-129.26224-72.45833-129.15195-72.2814-128.97502-72.17111-128.86473-72.06082-128.75444-71.8839-128.57752-71.7736-128.46723-71.66331-128.35694-71.4864-128.18003-71.37611-128.06974-71.26582-127.95944-71.0889-127.78252-70.9786-127.67223-70.86832-127.56194-70.69139-127.38501-70.5811-127.27472-70.47081-127.16443-70.2939-126.98752-70.18361-126.87723-70.07332-126.76694-69.8964-126.59001-69.7861-126.47972-69.67581-126.36943-69.4989-126.19252-69.3886-126.08221-69.27829-125.97191-69.1014-125.79501-68.99109-125.68471-68.88078-125.5744-68.70387-125.39749-68.59358-125.2872-68.48329-125.17691-68.30637-125-68.19608-124.88971-68.08578-124.77942-67.90887-124.6025-67.79858-124.4922-67.6883-124.38191-67.51137-124.20499-67.40108-124.0947-67.29079-123.9844-67.11388-123.8075-67.00359-123.6972-66.8933-123.58691-66.71637-123.40999-66.60608-123.2997-66.49579-123.1894-66.31886-123.01248-66.20857-122.90219-66.09828-122.7919-65.92137-122.61499-65.81108-122.5047-65.70079-122.39441-65.52386-122.21748-65.41357-122.1072-65.30328-121.9969-65.12636-121.81998-65.01607-121.70969-64.90578-121.5994-64.72887-121.42249-64.61858-121.3122-64.50829-121.2019-64.33136-121.02498-64.22107-120.91469-64.11078-120.8044-63.93387-120.62749-63.82356-120.51718-63.71326-120.40688-63.53636-120.22998-63.42606-120.11967-63.31575-120.00937-63.13884-119.83246-63.02855-119.72217-62.91826-119.61188-62.74133-119.43495-62.63104-119.32466-62.52075-119.21437-62.34384-119.03746-62.23355-118.92717-62.12326-118.81688-61.94633-118.63995-61.83604-118.52966-61.72575-118.41937-61.54883-118.24246-61.43854-118.13217-61.32825-118.02188-61.15134-117.84496-61.04105-117.73466-60.93076-117.62437-60.75383-117.44745-60.64354-117.33716-60.53325-117.22687-60.35634-117.04996-60.24605-116.93967-60.13576-116.82938-59.95883-116.65245-59.84854-116.54216-59.73825-116.43187-59.56133-116.25494-59.45103-116.14465-59.34074-116.03436-59.16383-115.85745-59.05354-115.74716-58.94325-115.63687-58.76633-115.45995-58.65604-115.34966-58.54575-115.23936-58.36884-115.06245-58.25853-114.95215-58.14822-114.84184-57.97133-114.66495-57.86102-114.55464-57.75072-114.44434-57.5738-114.26743-57.46352-114.15714-57.35323-114.04684-57.1763-113.86992-57.06601-113.75963-56.95572-113.64934-56.77881-113.47243-56.66852-113.36214-56.55823-113.25185-56.3813-113.07492-56.27101-112.96463-56.16072-112.85434-55.9838-112.67741-55.8735-112.56712-55.76321-112.45683-55.5863-112.27992-55.47601-112.16963-55.36572-112.05934-55.1888-111.88242-55.0785-111.77213-54.96822-111.66183-54.79129-111.48492-54.681-111.37463-54.57071-111.26434-54.3938-111.08742-54.28351-110.97713-54.17322-110.86684-53.99629-110.68991-53.886-110.57962-53.77571-110.46933-53.5988-110.29242-53.48851-110.18213-53.37822-110.07184-53.2013-109.89491-53.091-109.78462-52.98071-109.67433-52.8038-109.49742-52.6935-109.38712-52.58319-109.27681-52.4063-109.09991-52.29599-108.98961-52.18568-108.8793-52.00877-108.7024-51.89848-108.5921-51.7882-108.48181-51.61127-108.30489-51.50098-108.1946-51.39069-108.0843-51.21378-107.9074-51.10349-107.7971-50.9932-107.68681-50.81627-107.50989-50.70598-107.3996-50.59569-107.2893-50.41876-107.11238-50.30847-107.00209-50.19818-106.8918-50.02127-106.71489-49.91098-106.6046-49.80069-106.49431-49.62376-106.31738-49.51347-106.20709-49.40318-106.0968-49.22626-105.91988-49.11597-105.80959-49.00568-105.6993-48.82877-105.52238-48.71848-105.4121-48.60818-105.3018-48.43126-105.12488-48.32097-105.01459-48.21068-104.9043-48.03375-104.72739-47.92346-104.6171-47.81317-104.5068-47.63626-104.32988-47.52597-104.21959-47.41568-104.1093-47.23877-103.93239-47.12846-103.82208-47.01816-103.71178-46.84126-103.53488-46.73096-103.42458-46.62065-103.31427-46.44374-103.13736-46.33345-103.02707-46.22316-102.91678-46.04623-102.73985-45.93594-102.62956-45.82565-102.51927-45.64874-102.34236-45.53845-102.23207-45.42816-102.12178-45.25124-101.94485-45.14095-101.83456-45.03065-101.72427-44.85373-101.54735-44.74344-101.43706-44.63315-101.32677-44.45624-101.14986-44.34595-101.03957-44.23566-100.92928-44.05873-100.75235-43.94844-100.64206-43.83815-100.53177-43.66122-100.35484-43.55093-100.24455-43.44064-100.13426-43.26373-99.95735-43.15344-99.84706-43.04315-99.73677-42.86623-99.55984-42.75594-99.44955-42.64565-99.33926-42.46872-99.16234-42.35843-99.05205-42.24814-98.94176-42.07123-98.76485-41.96094-98.65456-41.85065-98.54427-41.67374-98.36736-41.56343-98.25705-41.45313-98.14674-41.27621-97.96985-41.16591-97.85954-41.0556-97.74924-40.87871-97.57233-40.76842-97.46204-40.65813-97.35175-40.4812-97.17482-40.37091-97.06453-40.26062-96.95424-40.08371-96.77733-39.97342-96.66704-39.86313-96.55675-39.6862-96.37982-39.57591-96.26953-39.46562-96.15924-39.2887-95.98232-39.1784-95.87202-39.06812-95.76173-38.8912-95.58482-38.78091-95.47453-38.67062-95.36424-38.4937-95.18732-38.3834-95.07703-38.27312-94.96674-38.09619-94.78981-37.9859-94.67952-37.87561-94.56923-37.6987-94.39232-37.58841-94.28203-37.47812-94.17174-37.3012-93.99481-37.1909-93.88452-37.08061-93.77423-36.90369-93.5973-36.7934-93.48701-36.6831-93.37672-36.5062-93.19981-36.3959-93.08952-36.28561-92.97923-36.1087-92.80232-35.9984-92.69202-35.88809-92.58171-35.71118-92.4048-35.60088-92.2945-35.49057-92.18419-35.31367-92.0073-35.20338-91.897-35.0931-91.78671-34.91617-91.60979-34.80588-91.4995-34.69559-91.3892-34.51866-91.2123-34.40837-91.102-34.29808-90.99171-34.12117-90.81479-34.01088-90.7045-33.90059-90.59421-33.72366-90.41728-33.61337-90.30699-33.50308-90.1967-33.32617-90.01979-33.21588-89.9095-33.10559-89.79921-32.92867-89.62228-32.81837-89.512-32.70808-89.4017-32.53116-89.22478-32.42087-89.11449-32.31058-89.0042-32.13367-88.82729-32.02338-88.717-31.91309-88.6067-31.73616-88.42978-31.62587-88.31949-31.51558-88.2092-31.33865-88.03227-31.22836-87.92198-31.11807-87.81169-30.94116-87.63478-30.83087-87.52449-30.72058-87.4142-30.54367-87.23729-30.43336-87.12698-30.32306-87.01668-30.14615-86.83977-30.03584-86.72946-29.92554-86.61916-29.74864-86.44226-29.63835-86.33197-29.52806-86.22168-29.35114-86.04475-29.24084-85.93446-29.13055-85.82417-28.95363-85.64725-28.84334-85.53696-28.73305-85.42667-28.55614-85.24976-28.44585-85.13947-28.33556-85.02917-28.15863-84.85225-28.04834-84.74196-27.93805-84.63167-27.76112-84.45476-27.65083-84.34447-27.54054-84.23418-27.36363-84.05725-27.25334-83.94696-27.14305-83.83667-26.96613-83.65974-26.85583-83.54945-26.74554-83.43916-26.56863-83.26225-26.45834-83.15196-26.34805-83.04167-26.17113-82.86475-26.06084-82.75446-25.95055-82.64417-25.77362-82.46724-25.66333-82.35695-25.55304-82.24666-25.37613-82.06975-25.26584-81.95946-25.15555-81.84917-24.97864-81.67226-24.86833-81.56195-24.75803-81.45164-24.58112-81.27473-24.47081-81.16443-24.3605-81.05412-24.18361-80.87723-24.07332-80.76694-23.96303-80.65665-23.7861-80.47972-23.67581-80.36943-23.56552-80.25914-23.3886-80.08221-23.2783-79.97192-23.16801-79.86163-22.9911-79.68472-22.88081-79.57443-22.77052-79.46414-22.5936-79.28722-22.4833-79.17693-22.37302-79.06664-22.19609-78.88971-22.0858-78.77942-21.97551-78.66913-21.7986-78.49222-21.68831-78.38193-21.57802-78.27164-21.4011-78.09471-21.2908-77.98442-21.18051-77.87413-21.00359-77.69722-20.8933-77.58693-20.783-77.47664-20.6061-77.29971-20.4958-77.18942-20.38551-77.07913-20.20859-76.9022-20.0983-76.79192-19.988-76.68163-19.8111-76.50471-19.7008-76.39442-19.59052-76.28413-19.4136-76.10722-19.3033-75.99692-19.193-75.88661-19.01608-75.7097-18.90578-75.5994-18.79547-75.48909-18.61858-75.3122-18.50829-75.2019-18.398-75.09161-18.22107-74.91469-18.11078-74.8044-18.00049-74.6941-17.82356-74.51718-17.71327-74.40689-17.60298-74.2966-17.42607-74.11969-17.31578-74.0094-17.20549-73.89911-17.02856-73.72218-16.91827-73.6119-16.80798-73.5016-16.63106-73.32468-16.52077-73.21439-16.41048-73.1041-16.23357-72.92719-16.12328-72.8169-16.01299-72.7066-15.83606-72.52968-15.72577-72.41939-15.61548-72.3091-15.43855-72.13217-15.32826-72.02188-15.21797-71.91159-15.04106-71.73468-14.93077-71.62439-14.82048-71.5141-14.64355-71.33717-14.53326-71.22688-14.42297-71.1166-14.24605-70.93968-14.13576-70.82939-14.02547-70.7191-13.84857-70.54219-13.73827-70.43188-13.62796-70.32158-13.45105-70.14467-13.34074-70.03436-13.23044-69.92406-13.05354-69.74716-12.94325-69.63687-12.83296-69.52658-12.65604-69.34966-12.54575-69.23936-12.43546-69.12907-12.25853-68.95215-12.14824-68.84186-12.03795-68.73157-11.86104-68.55466-11.75075-68.44437-11.64046-68.33408-11.46353-68.15715-11.35324-68.04686-11.24295-67.93657-11.06602-67.75964-10.95573-67.64935-10.84544-67.53906-10.66853-67.36215-10.55824-67.25186-10.44795-67.14157-10.27103-66.96465-10.16074-66.85435-10.05045-66.74406-9.87352-66.56714-9.76323-66.45685-9.65294-66.34656-9.47603-66.16965-9.36574-66.05936-9.25545-65.94907-9.07852-65.77214-8.96823-65.66185-8.85794-65.55156-8.68102-65.37463-8.57072-65.26434-8.46043-65.15405-8.28354-64.97716-8.17323-64.86685-8.06293-64.75655-7.88602-64.57964-7.77571-64.46933-7.6654-64.35902-7.4885-64.18213-7.3782-64.07184-7.26791-63.96155-7.091-63.78462-6.98071-63.67433-6.87042-63.56404-6.6935-63.38712-6.5832-63.27682-6.47292-63.16653-6.296-62.98962-6.18571-62.87933-6.07542-62.76904-5.8985-62.59212-5.78821-62.48183-5.67792-62.37154-5.50099-62.19461-5.3907-62.08432-5.28041-61.97403-5.1035-61.79712-4.99321-61.68683-4.88292-61.57654-4.706-61.39961-4.5957-61.28932-4.48541-61.17903-4.30849-61.0021-4.1982-60.89182-4.0879-60.78152-3.911-60.60461-3.8007-60.49432-3.69041-60.38403-3.51349-60.2071-3.4032-60.09682-3.29291-59.98653-3.11598-59.8096-3.00569-59.69931-2.8954-59.58902-2.7185-59.41212-2.6082-59.30182-2.4979-59.19151-2.32098-59.0146-2.21068-58.9043-2.10037-58.79399-1.92346-58.61708-1.81317-58.50679-1.70288-58.39651-1.52597-58.21959-1.41568-58.1093-1.30539-57.99901-1.12846-57.82208-1.01817-57.71179-.90788-57.6015-.73096-57.42459-.62067-57.3143-.51038-57.20401-.33347-57.02708-.22318-56.9168-.11288-56.8065 .06401-56.62958 .1743-56.51929 .28459-56.409 .4615-56.23209 .5718-56.1218 .68208-56.0115 .85901-55.83458 .9693-55.72429 1.07959-55.614 1.25652-55.43707 1.3668-55.32678 1.4771-55.21649 1.654-55.03958 1.7643-54.92929 1.87459-54.819 2.05151-54.64207 2.1618-54.53178 2.2721-54.4215 2.44902-54.24457 2.55931-54.13428 2.6696-54.02399 2.8465-53.84709 2.9568-53.73679 3.06711-53.62648 3.24402-53.44957 3.35432-53.33926 3.46463-53.22896 3.64154-53.05205 3.75183-52.94176 3.86212-52.83147 4.03903-52.65456 4.14932-52.54427 4.25961-52.43398 4.43654-52.25705 4.54683-52.14676 4.65712-52.03647 4.83405-51.85954 4.94434-51.74925 5.05463-51.63898 5.23154-51.46205 5.34183-51.35176 5.45212-51.24147 5.62904-51.06454 5.73933-50.95425 5.84962-50.84396 6.02655-50.66705 6.13684-50.55676 6.24713-50.44647 6.42404-50.26955 6.53433-50.15926 6.64462-50.04897 6.82155-49.87204 6.93184-49.76175 7.04213-49.65146 7.21904-49.47455 7.32933-49.36426 7.43962-49.25397 7.61655-49.07704 7.72684-48.96675 7.83713-48.85646 8.01405-48.67953 8.12434-48.56924 8.23463-48.45895 8.41153-48.28206 8.52184-48.17175 8.63214-48.06145 8.80905-47.88454 8.91936-47.77423 9.02966-47.66393 9.20657-47.48701 9.31686-47.37672 9.42715-47.26643 9.60406-47.08952 9.71436-46.97923 9.82465-46.86894 10.00157-46.69202 10.11186-46.58173 10.22215-46.47144 10.39908-46.29451 10.50937-46.18422 10.61966-46.07393 10.79657-45.89702 10.90686-45.78673 11.01715-45.67644 11.19408-45.49951 11.30437-45.38922 11.41466-45.27893 11.59158-45.102 11.70187-44.99171 11.81216-44.88144 11.98907-44.70451 12.09937-44.59422 12.20966-44.48393 12.38658-44.307 12.49687-44.19672 12.60716-44.08643 12.78409-43.90952 12.89438-43.79922 13.00467-43.68893 13.18158-43.51201 13.29187-43.40172 13.40216-43.29143 13.57909-43.1145 13.68938-43.00421 13.79967-42.89392 13.97656-42.71703 14.08687-42.60672 14.19717-42.49641 14.37408-42.3195 14.48439-42.2092 14.5947-42.09889 14.7716-41.92198 14.8819-41.81169 14.99219-41.7014 15.1691-41.52449 15.27939-41.4142 15.38968-41.30391 15.5666-41.12698 15.6769-41.0167 15.78719-40.9064 15.96411-40.72948 16.0744-40.61919 16.1847-40.5089 16.3616-40.33199 16.4719-40.2217 16.58218-40.1114 16.75911-39.93448 16.8694-39.82419 16.97969-39.7139 17.15662-39.53697 17.2669-39.42668 17.3772-39.31639 17.55411-39.13948 17.6644-39.02919 17.77469-38.9189 17.95161-38.74197 18.0619-38.63168 18.1722-38.5214 18.34912-38.34447 18.45941-38.23418 18.5697-38.1239 18.74661-37.94698 18.8569-37.83669 18.9672-37.7264 19.14412-37.54947 19.25441-37.43918 19.3647-37.32889 19.54161-37.152 19.65192-37.04169 19.7622-36.93138 19.93912-36.75447 20.04942-36.64417 20.15973-36.53386 20.33664-36.35695 20.44693-36.24666 20.55722-36.13637 20.73413-35.95946 20.84442-35.84917 20.95471-35.73888 21.13164-35.56195 21.24193-35.45166 21.35222-35.34137 21.52914-35.16444 21.63943-35.05415 21.74973-34.94386 21.92664-34.76695 22.03693-34.65666 22.14722-34.54637 22.32414-34.36945 22.43443-34.25916 22.54472-34.14886 22.72165-33.97194 22.83194-33.86165 22.94223-33.75136 23.11914-33.57445 23.22943-33.46416 23.33972-33.35387 23.51665-33.17694 23.62694-33.06665 23.73723-32.95636 23.91415-32.77943 24.02444-32.66914 24.13474-32.55885 24.31165-32.38194 24.42194-32.27165 24.53223-32.16136 24.70915-31.98444 24.81944-31.87415 24.92973-31.76385 25.10664-31.58694 25.21695-31.47664 25.32726-31.36635 25.50415-31.18944 25.61446-31.07913 25.72476-30.96883 25.90167-30.79192 26.01196-30.68163 26.12225-30.57133 26.29918-30.39442 26.40947-30.28413 26.51974-30.17384 26.69667-29.99692 26.80696-29.88663 26.91725-29.77634 27.09418-29.59941 27.20447-29.48912 27.31476-29.37883 27.49167-29.20192 27.60196-29.09163 27.71225-28.98134 27.88918-28.80441 27.99947-28.69412 28.10976-28.58383 28.28668-28.4069 28.39697-28.29662 28.50726-28.18633 28.68417-28.00941 28.79446-27.89912 28.90475-27.78883 29.08168-27.61191 29.19197-27.50162 29.30226-27.39133 29.47919-27.2144 29.58948-27.10411 29.69977-26.99382 29.87668-26.81691 29.98697-26.70662 30.09726-26.59633 30.27419-26.4194 30.38448-26.30911 30.49477-26.19882 30.67168-26.02191 30.78198-25.9116 30.89229-25.8013 31.06918-25.6244 31.17949-25.5141 31.2898-25.4038 31.4667-25.22688 31.577-25.1166 31.68729-25.0063 31.86421-24.82938 31.9745-24.71909 32.0848-24.60881 32.2617-24.43188 32.372-24.3216 32.48228-24.2113 32.65921-24.03438 32.7695-23.92409 32.87979-23.8138 33.05672-23.63689 33.167-23.5266 33.27728-23.4163 33.45421-23.23938 33.5645-23.12909 33.67479-23.0188 33.85172-22.84187 33.962-22.73158 34.0723-22.62129 34.2492-22.44438 34.3595-22.33409 34.46979-22.2238 34.64671-22.04688 34.757-21.93658 34.8673-21.8263 35.04422-21.64937 35.15451-21.53908 35.2648-21.42879 35.44171-21.25188 35.552-21.14159 35.6623-21.0313 35.83922-20.85437 35.94951-20.74408 36.0598-20.63379 36.23671-20.45688 36.34702-20.34657 36.45732-20.23627 36.63422-20.05937 36.74452-19.94907 36.85483-19.83876 37.03174-19.66185 37.14203-19.55156 37.25232-19.44127 37.42924-19.26434 37.53954-19.15405 37.64983-19.04376 37.82674-18.86685 37.93703-18.75656 38.04732-18.64627 38.22424-18.46935 38.33453-18.35905 38.44482-18.24876 38.62175-18.07184 38.73204-17.96156 38.84233-17.85127 39.01924-17.67435 39.12953-17.56406 39.23982-17.45377 39.41675-17.27684 39.52704-17.16655 39.63733-17.05626 39.81425-16.87935 39.92455-16.76906 40.03482-16.65877 40.21175-16.48184 40.32204-16.37155 40.43233-16.26126 40.60925-16.08434 40.71954-15.97404 40.82983-15.86375 41.00674-15.68684 41.11703-15.57655 41.22733-15.46626 41.40425-15.28934 41.51454-15.17905 41.62483-15.06876 41.80174-14.89185 41.91205-14.78154 42.02235-14.67123 42.19925-14.49434 42.30956-14.38403 42.41986-14.27373 42.59677-14.09682 42.70706-13.98653 42.81735-13.87624 42.99428-13.69931 43.10457-13.58902 43.21486-13.47873 43.39177-13.30182 43.50206-13.19153 43.61235-13.08124 43.78928-12.90431 43.89957-12.79402 44.00986-12.68373 44.18678-12.5068 44.29707-12.39651 44.40736-12.28622 44.58427-12.10931 44.69456-11.99902 44.80486-11.88873 44.98178-11.7118 45.09207-11.60152 45.20236-11.49123 45.37929-11.3143 45.48958-11.20403 45.59987-11.09373 45.77678-10.91681 45.88707-10.80652 45.99736-10.69623 46.17429-10.5193 46.28458-10.40901 46.39487-10.29872 46.5718-10.12181 46.68208-10.01152 46.79236-9.90123 46.96928-9.7243 47.07957-9.61401 47.18987-9.50372 47.36678-9.32681 47.47708-9.2165 47.58739-9.1062 47.76428-8.9293 47.87459-8.819 47.9849-8.7087 48.1618-8.53178 48.2721-8.4215 48.38239-8.3112 48.55931-8.13428 48.6696-8.02399 48.77989-7.9137 48.9568-7.73679 49.0671-7.6265 49.17738-7.5162 49.35431-7.33928 49.4646-7.22899 49.57489-7.1187 49.75182-6.94177 49.8621-6.83148 49.9724-6.72119 50.1493-6.54428 50.2596-6.43399 50.36989-6.3237 50.54681-6.14677 50.6571-6.03648 50.7674-5.9262 50.94432-5.74927 51.05461-5.63898 51.1649-5.52869 51.34181-5.35178 51.4521-5.24149 51.5624-5.1312 51.73932-4.95427 51.84961-4.84398 51.9599-4.73369 52.13683-4.55676 52.24712-4.44649 52.3574-4.3362 52.53432-4.15927 52.6446-4.04898 52.7549-3.93869 52.93181-3.76178 53.04211-3.65147 53.15242-3.54117 53.32933-3.36427 53.43964-3.25397 53.54993-3.14366 53.72684-2.96675 53.83713-2.85646 53.94742-2.74617 54.12434-2.56924 54.23463-2.45895 54.34492-2.34866 54.52184-2.17175 54.63213-2.06146 54.74242-1.95117 54.91934-1.77425 55.02963-1.66396 55.13992-1.55367 55.31685-1.37674 55.42714-1.26645 55.53743-1.15616 55.71434-.97925 55.82463-.86896 55.93492-.75867 56.11185-.58174 56.22214-.47145 56.33243-.36116 56.61964-.07394 56.61964-.07394"/>
</g>
<g clip-path="url(#clip_3)">
<path transform="matrix(1.00008,0,0,-1.00008,148.90847,159.47772)" stroke-width=".79701" stroke-linecap="butt" stroke-miterlimit="10" stroke-linejoin="miter" fill="none" stroke="#0000ff" d="M85.04042 0C85.04042 0 85.1223 1.44064 85.15373 1.79243 85.18518 2.14421 85.23563 2.35338 85.26707 2.53552 85.29851 2.71765 85.34895 2.95966 85.38039 3.10518 85.41182 3.2507 85.46228 3.45924 85.49371 3.58443 85.52515 3.7096 85.5756 3.89565 85.60704 4.00745 85.63849 4.11925 85.68892 4.2884 85.72037 4.39024 85.7518 4.49208 85.80226 4.64731 85.8337 4.74146 85.86513 4.8356 85.91557 4.98074 85.947 5.0689 85.97844 5.15704 86.0289 5.29382 86.06033 5.37688 86.09178 5.45992 86.14223 5.58875 86.17368 5.66753 86.20511 5.74632 86.25554 5.86972 86.28699 5.9448 86.31842 6.01985 86.36888 6.13687 86.40031 6.20863 86.43175 6.2804 86.48221 6.3931 86.51364 6.4621 86.54509 6.5311 86.59552 6.63956 86.62697 6.70605 86.6584 6.77255 86.70885 6.87714 86.7403 6.94135 86.77173 7.00557 86.82217 7.10664 86.8536 7.16887 86.88504 7.2311 86.9355 7.32953 86.96693 7.38991 86.99838 7.45027 87.04883 7.5454 87.08028 7.604 87.11171 7.66263 87.16214 7.75536 87.19359 7.81248 87.22502 7.86961 87.27548 7.96022 87.30692 8.01578 87.33835 8.07135 87.3888 8.15883 87.42023 8.21301 87.45168 8.2672 87.50212 8.35333 87.53355 8.40637 87.565 8.45941 87.61545 8.54347 87.6469 8.59537 87.67833 8.64728 87.72878 8.72968 87.76021 8.7805 87.79164 8.83133 87.8421 8.91206 87.87354 8.96175 87.90498 9.01141 87.95543 9.08992 87.98686 9.13864 88.01831 9.18736 88.06874 9.26508 88.10019 9.31297 88.13162 9.36086 88.18208 9.43681 88.21352 9.48381 88.24495 9.53079 88.2954 9.6055 88.32683 9.65164 88.35828 9.69777 88.40872 9.77101 88.44016 9.81644 88.4716 9.86186 88.52205 9.93436 88.5535 9.97908 88.58493 10.02379 88.63538 10.0947 88.66681 10.13867 88.69824 10.18266 88.7487 10.25279 88.78014 10.29613 88.81157 10.33945 88.86203 10.40837 88.89346 10.45097 88.92491 10.49356 88.97534 10.56122 89.00679 10.60323 89.03822 10.64522 89.08868 10.7123 89.12012 10.75375 89.15155 10.79521 89.202 10.86124 89.23343 10.9021 89.26486 10.94296 89.31532 11.008 89.34676 11.04831 89.3782 11.08862 89.42865 11.15292 89.4601 11.19276 89.49153 11.2326 89.54198 11.29622 89.57341 11.33551 89.60484 11.37482 89.6553 11.43726 89.68674 11.47609 89.71817 11.51491 89.76862 11.57701 89.80005 11.61536 89.8315 11.65369 89.88194 11.71454 89.91339 11.75247 89.94482 11.7904 89.99529 11.85123 90.02672 11.88873 90.05815 11.92624 90.1086 11.98573 90.14003 12.02281 90.17146 12.05989 90.22192 12.1193 90.25336 12.15602 90.2848 12.19275 90.33525 12.25122 90.3667 12.28752 90.39813 12.32382 90.44858 12.38184 90.48001 12.41771 90.51144 12.45358 90.5619 12.51071 90.59334 12.54619 90.62477 12.58165 90.67522 12.63818 90.70665 12.67336 90.7381 12.70851 90.78854 12.76485 90.81999 12.79965 90.85143 12.83444 90.90189 12.88977 90.93332 12.92421 90.96475 12.95866 91.0152 13.01378 91.04663 13.04793 91.07806 13.08208 91.12852 13.13649 91.15996 13.17033 91.1914 13.20418 91.24185 13.25833 91.2733 13.29187 91.30473 13.32541 91.35518 13.37888 91.38661 13.41212 91.41805 13.44537 91.4685 13.49857 91.49994 13.5315 91.53137 13.56444 91.58182 13.61696 91.61325 13.6496 91.6447 13.68224 91.69514 13.7344 91.7266 13.7668 91.75803 13.7992 91.80849 13.85098 91.83992 13.88315 91.87135 13.91531 91.9218 13.96684 91.95323 13.99864 91.98466 14.03044 92.03513 14.0809 92.06656 14.1124 92.098 14.14389 92.14844 14.19441 92.17989 14.22572 92.21132 14.25705 92.26176 14.30705 92.29321 14.33818 92.32465 14.36931 92.3751 14.41937 92.40654 14.45021 92.43797 14.48106 92.48842 14.5299 92.51985 14.5605 92.5513 14.59111 92.60175 14.6404 92.6332 14.6708 92.66463 14.70123 92.71507 14.7497 92.74652 14.77982 92.77795 14.80992 92.8284 14.85802 92.85983 14.88794 92.89127 14.91788 92.94173 14.96594 92.97316 14.99565 93.00461 15.02536 93.05504 15.07259 93.08649 15.10205 93.11792 15.13152 93.16837 15.17868 93.19981 15.20802 93.23125 15.23737 93.28171 15.2844 93.31314 15.31355 93.34457 15.34271 93.39502 15.38931 93.42645 15.41823 93.4579 15.44714 93.50835 15.49342 93.53978 15.52205 93.57123 15.55067 93.62167 15.59605 93.65312 15.62456 93.68456 15.65306 93.735 15.69913 93.76643 15.72751 93.79787 15.75589 93.84833 15.80101 93.87976 15.82915 93.91121 15.85728 93.96164 15.9024 93.99307 15.93036 94.02452 15.95831 94.07497 16.00293 94.10641 16.0307 94.13785 16.05849 94.18831 16.10298 94.21974 16.13063 94.25117 16.15828 94.30162 16.20262 94.33305 16.23012 94.3645 16.2576 94.41495 16.30148 94.44638 16.32872 94.47783 16.35597 94.52826 16.39935 94.55971 16.42647 94.59114 16.4536 94.6416 16.49724 94.67303 16.52425 94.70447 16.55124 94.75493 16.5943 94.78636 16.62112 94.8178 16.64793 94.86824 16.69095 94.89967 16.71758 94.93112 16.74422 94.98157 16.7867 95.01302 16.81317 95.04445 16.83963 95.09491 16.88199 95.12634 16.90833 95.15778 16.93468 95.20822 16.97684 95.23965 17.00305 95.27109 17.02928 95.32155 17.07126 95.35298 17.09735 95.38443 17.12346 95.43486 17.16524 95.46631 17.19121 95.49774 17.2172 95.5482 17.25885 95.57964 17.28464 95.61107 17.31044 95.66153 17.35158 95.69296 17.3772 95.7244 17.4028 95.77484 17.44383 95.80627 17.46933 95.83772 17.49483 95.88817 17.53566 95.91962 17.56104 95.95105 17.5864 96.00151 17.62708 96.03294 17.65228 96.06438 17.67749 96.11482 17.7176 96.14626 17.74269 96.17769 17.76778 96.22815 17.80807 96.25958 17.8331 96.29103 17.85812 96.34146 17.89816 96.37291 17.92307 96.40434 17.94797 96.4548 17.98788 96.48624 18.0126 96.51767 18.03732 96.56813 18.07666 96.59956 18.10126 96.631 18.12585 96.68144 18.1654 96.71288 18.18994 96.74432 18.21448 96.79477 18.25383 96.82622 18.27818 96.85765 18.30254 96.9081 18.34131 96.93953 18.36555 96.97096 18.38979 97.02142 18.42874 97.05286 18.45291 97.08429 18.47708 97.13475 18.51585 97.16618 18.53986 97.19763 18.56386 97.24806 18.602 97.27951 18.62595 97.31094 18.64989 97.3614 18.68855 97.39284 18.71245 97.42427 18.73633 97.47473 18.77438 97.50616 18.7981 97.5376 18.8218 97.58804 18.85973 97.61948 18.8833 97.65092 18.90688 97.70137 18.94463 97.73282 18.96808 97.76425 18.99153 97.8147 19.02902 97.84613 19.05241 97.87756 19.07582 97.92802 19.11348 97.95946 19.13676 97.99089 19.16003 98.04135 19.1971 98.07278 19.22025 98.10423 19.24341 98.15466 19.28062 98.18611 19.30373 98.21754 19.32681 98.268 19.3638 98.29944 19.38676 98.33087 19.40974 98.38133 19.44652 98.41277 19.46938 98.4442 19.49225 98.49464 19.52876 98.52608 19.55156 98.55753 19.57437 98.60797 19.61107 98.63942 19.63374 98.67085 19.65642 98.72128 19.69252 98.75273 19.71507 98.78416 19.73764 98.83463 19.77383 98.86606 19.79639 98.89749 19.81895 98.94795 19.85521 98.97939 19.8777 99.01083 19.9002 99.06126 19.93626 99.09271 19.95857 99.12415 19.9809 99.17459 20.0164 99.20604 20.0386 99.23747 20.06079 99.28792 20.0965 99.31935 20.11862 99.35078 20.14076 99.40125 20.17613 99.43268 20.19821 99.46413 20.22028 99.51457 20.25586 99.54602 20.2778 99.57745 20.29976 99.62788 20.33469 99.65933 20.35652 99.69077 20.37836 99.74123 20.41347 99.77266 20.43524 99.8041 20.457 99.85455 20.4918 99.88599 20.51352 99.91743 20.53525 99.96786 20.5701 99.9993 20.59181 100.03075 20.61354 100.08119 20.64856 100.11264 20.6701 100.14407 20.69165 100.19452 20.7257 100.22595 20.7471 100.25739 20.76852 100.30785 20.80305 100.33928 20.82452 100.37073 20.84601 100.42117 20.8806 100.4526 20.90195 100.48405 20.92331 100.53448 20.95728 100.56593 20.97852 100.59737 20.99974 100.64783 21.03389 100.67926 21.05507 100.7107 21.07625 100.76115 21.11014 100.79259 21.1312 100.82402 21.15225 100.87447 21.1859 100.9059 21.2069 100.93735 21.22789 100.9878 21.26164 101.01924 21.28258 101.05067 21.30351 101.10112 21.33698 101.13255 21.35785 101.16399 21.37872 101.21445 21.41235 101.24588 21.4331 101.27731 21.45386 101.32777 21.48686 101.3592 21.5075 101.39066 21.52815 101.44109 21.56128 101.47253 21.58191 101.50397 21.60254 101.55443 21.63567 101.58586 21.6563 101.6173 21.67693 101.66774 21.71016 101.69917 21.73068 101.7306 21.7512 101.78107 21.78381 101.8125 21.80421 101.84395 21.82462 101.8944 21.85735 101.92584 21.87775 101.95728 21.89815 102.00772 21.93094 102.03915 21.95128 102.07059 21.97162 102.12105 22.00417 102.15248 22.02438 102.18391 22.04462 102.23438 22.07697 102.26581 22.09706 102.29726 22.11716 102.34769 22.14919 102.37914 22.16928 102.41057 22.18938 102.46103 22.22185 102.49246 22.24194 102.5239 22.26204 102.57434 22.2942 102.60577 22.31418 102.6372 22.33417 102.68767 22.36613 102.7191 22.38599 102.75055 22.40584 102.801 22.43756 102.83244 22.45735 102.86388 22.47716 102.91432 22.50894 102.94576 22.52873 102.97719 22.54852 103.02765 22.58035 103.05908 22.60008 103.09052 22.61983 103.14098 22.65137 103.17241 22.67104 103.20386 22.6907 103.25429 22.72237 103.28574 22.74197 103.31717 22.76158 103.36763 22.79297 103.39906 22.81247 103.4305 22.83199 103.48094 22.86311 103.51237 22.88254 103.54381 22.90198 103.59427 22.93317 103.6257 22.9526 103.65715 22.97205 103.7076 23.00331 103.73904 23.02269 103.77048 23.04207 103.82092 23.07307 103.85236 23.09233 103.88379 23.11159 103.93425 23.14227 103.96568 23.16153 103.99712 23.18079 104.04756 23.21198 104.079 23.23117 104.11044 23.25037 104.16089 23.28087 104.19234 23.29994 104.22377 23.31902 104.27423 23.34964 104.30566 23.36871 104.3371 23.3878 104.38754 23.41847 104.41898 23.43748 104.45041 23.45651 104.50087 23.48686 104.5323 23.50583 104.56375 23.52478 104.6142 23.55528 104.64565 23.57417 104.67708 23.59306 104.72751 23.62325 104.75896 23.64207 104.79039 23.66092 104.84085 23.69121 104.87228 23.70999 104.90372 23.72876 104.95416 23.75876 104.9856 23.77747 105.01704 23.79619 105.06749 23.82622 105.09894 23.84494 105.13037 23.86365 105.18082 23.89377 105.21227 23.91241 105.2437 23.93106 105.29414 23.96086 105.32558 23.97946 105.35701 23.99805 105.40747 24.02797 105.4389 24.0465 105.47035 24.06503 105.5208 24.09464 105.55225 24.11311 105.58368 24.13158 105.63411 24.16132 105.66556 24.17973 105.69699 24.19814 105.74745 24.22755 105.77888 24.2459 105.81032 24.26425 105.86076 24.29372 105.8922 24.31207 105.92365 24.33044 105.97409 24.36002 106.00552 24.37827 106.03697 24.39651 106.08742 24.42538 106.11887 24.44357 106.1503 24.46176 106.20074 24.49107 106.23218 24.50932 106.26361 24.52756 106.31407 24.55688 106.3455 24.57507 106.37695 24.59325 106.42738 24.62231 106.45882 24.64038 106.49026 24.65843 106.54071 24.68726 106.57216 24.70526 106.60359 24.72325 106.65405 24.75214 106.68549 24.77014 106.71692 24.78815 106.76736 24.8171 106.7988 24.83502 106.83025 24.85297 106.88069 24.88159 106.91212 24.89946 106.94357 24.91734 106.99402 24.94604 107.02547 24.96393 107.0569 24.9818 107.10735 25.01054 107.13878 25.02837 107.17021 25.04617 107.22067 25.07462 107.2521 25.09238 107.28354 25.11014 107.33398 25.1387 107.36542 25.15639 107.39687 25.17409 107.44731 25.20235 107.47876 25.21999 107.5102 25.23763 107.56065 25.26593 107.59209 25.28355 107.62352 25.3012 107.67397 25.32957 107.7054 25.34715 107.73683 25.36472 107.7873 25.39279 107.81873 25.4103 107.85017 25.42781 107.9006 25.45593 107.93205 25.47345 107.96349 25.49095 108.01395 25.51915 108.04538 25.53659 108.07681 25.55405 108.12727 25.58192 108.1587 25.59932 108.19014 25.61671 108.24059 25.6447 108.27202 25.66203 108.30347 25.67935 108.35391 25.70705 108.38536 25.72432 108.4168 25.74161 108.46725 25.76933 108.49869 25.7866 108.53012 25.80388 108.58057 25.83167 108.612 25.84889 108.64343 25.86612 108.6939 25.89352 108.72533 25.91075 108.75677 25.92796 108.8072 25.95581 108.83865 25.97302 108.87009 25.99025 108.92055 26.01778 108.95198 26.03488 108.98341 26.05199 109.03387 26.07925 109.0653 26.0963 109.09674 26.11334 109.14719 26.14067 109.17862 26.15771 109.21007 26.17476 109.26051 26.20215 109.29196 26.21913 109.3234 26.23611 109.37386 26.26314 109.40529 26.28012 109.43672 26.2971 109.48717 26.32463 109.5186 26.34155 109.55003 26.35847 109.6005 26.38524 109.63193 26.4021 109.66338 26.41896 109.7138 26.44624 109.74525 26.46309 109.77669 26.47995 109.82715 26.50685 109.85858 26.52365 109.89001 26.54044 109.94048 26.56741 109.97191 26.58421 110.00334 26.60101 110.05379 26.62808 110.08522 26.64476 110.11667 26.66144 110.16711 26.68782 110.19856 26.70444 110.23 26.72105 110.28044 26.7479 110.31187 26.76457 110.3433 26.78123 110.39377 26.80807 110.4252 26.82469 110.45663 26.84131 110.5071 26.86783 110.53853 26.88438 110.56998 26.90094 110.6204 26.92752 110.65186 26.94408 110.68329 26.96063 110.73373 26.98721 110.76518 27.00377 110.79662 27.02032 110.84708 27.04695 110.87851 27.06345 110.90994 27.07994 110.96039 27.10634 110.99182 27.12271 111.02327 27.13908 111.07372 27.16516 111.10516 27.18153 111.1366 27.1979 111.18703 27.22443 111.21848 27.2408 111.24991 27.25717 111.30037 27.2833 111.3318 27.2996 111.36324 27.31593 111.4137 27.3422 111.44513 27.35844 111.47658 27.3747 111.52701 27.40065 111.55846 27.41684 111.58989 27.43303 111.64034 27.45903 111.67178 27.47522 111.70322 27.49142 111.75368 27.51743 111.78511 27.53362 111.81654 27.5498 111.86699 27.5758 111.89842 27.59201 111.92987 27.60822 111.98032 27.6343 112.01175 27.65042 112.0432 27.66655 112.09363 27.69229 112.12508 27.70836 112.15651 27.72443 112.20697 27.75024 112.2384 27.76633 112.26984 27.78241 112.3203 27.80827 112.35173 27.8243 112.38318 27.84032 112.43361 27.86586 112.46504 27.88182 112.49649 27.89778 112.54694 27.92339 112.57838 27.93935 112.60982 27.9553 112.66026 27.98097 112.6917 27.99687 112.72313 28.01277 112.77359 28.03813 112.80502 28.05397 112.83647 28.06981 112.88692 28.09517 112.91835 28.11107 112.9498 28.12697 113.00023 28.1527 113.03168 28.1686 113.06311 28.1845 113.11357 28.20992 113.145 28.2257 113.17644 28.24147 113.2269 28.26663 113.25833 28.28235 113.28976 28.29807 113.34021 28.32329 113.37164 28.339 113.40309 28.35472 113.45354 28.38002 113.48499 28.39568 113.51642 28.41133 113.56686 28.43625 113.5983 28.4519 113.62973 28.46756 113.68019 28.4929 113.71162 28.50856 113.74306 28.52423 113.79352 28.5492 113.82495 28.5648 113.8564 28.5804 113.90683 28.6055 113.93828 28.62103 113.96971 28.63657 114.02017 28.66129 114.0516 28.67682 114.08304 28.69235 114.1335 28.71751 114.16493 28.73305 114.19637 28.7486 114.24681 28.77338 114.27824 28.78885 114.3097 28.80432 114.36014 28.82924 114.39159 28.84465 114.42302 28.86006 114.47346 28.8846 114.5049 28.90002 114.53633 28.91544 114.58679 28.9404 114.61823 28.95581 114.64966 28.97122 114.70012 28.99588 114.73155 29.01117 114.763 29.02647 114.81343 29.05081 114.84488 29.0661 114.87631 29.08139 114.92677 29.10611 114.9582 29.12146 114.98964 29.13683 115.04008 29.16153 115.07152 29.17683 115.10295 29.19212 115.15341 29.21654 115.18484 29.23177 115.2163 29.24701 115.26674 29.27153 115.29819 29.2867 115.32962 29.30186 115.38007 29.32608 115.4115 29.34119 115.44293 29.35631 115.4934 29.38052 115.52483 29.39569 115.55626 29.41086 115.60672 29.43546 115.63815 29.45064 115.6696 29.4658 115.72003 29.49002 115.75148 29.50513 115.78291 29.52025 115.83337 29.54459 115.8648 29.55963 115.89624 29.57468 115.94669 29.59865 115.97812 29.61371 116.00955 29.62875 116.06001 29.65315 116.09145 29.6682 116.1229 29.68326 116.17334 29.70734 116.20479 29.72226 116.23622 29.7372 116.28667 29.76096 116.3181 29.7759 116.34953 29.79083 116.4 29.81502 116.43143 29.82997 116.46286 29.84491 116.51332 29.86865 116.54475 29.8836 116.5762 29.89854 116.62663 29.92279 116.65808 29.93767 116.68951 29.95256 116.73996 29.97604 116.77141 29.99086 116.80284 30.00569 116.85329 30.02963 116.88472 30.04451 116.91615 30.0594 116.96661 30.08334 116.99805 30.09814 117.0295 30.11295 117.07994 30.13658 117.11139 30.15134 117.14282 30.16609 117.19325 30.18979 117.2247 30.20454 117.25613 30.2193 117.3066 30.24306 117.33803 30.25775 117.36946 30.27245 117.4199 30.29582 117.45134 30.31052 117.48279 30.32521 117.53323 30.34903 117.56468 30.36372 117.59612 30.37842 117.64656 30.40186 117.67801 30.41649 117.70944 30.43114 117.75989 30.45462 117.79132 30.46925 117.82275 30.4839 117.87321 30.50745 117.90465 30.52202 117.9361 30.5366 117.98654 30.55978 118.01797 30.57436 118.04942 30.58894 118.09985 30.61255 118.1313 30.62714 118.16273 30.64171 118.2132 30.66495 118.24463 30.67947 118.27606 30.69398 118.3265 30.71735 118.35794 30.73181 118.38939 30.74626 118.43983 30.76926 118.47127 30.7837 118.50272 30.79817 118.55316 30.8216 118.58461 30.83604 118.61604 30.85051 118.66649 30.87355 118.69792 30.88795 118.72935 30.90234 118.77982 30.92546 118.81125 30.93987 118.8427 30.95425 118.89314 30.97737 118.92458 30.99176 118.95602 31.00616 119.00645 31.02933 119.0379 31.04367 119.06934 31.058 119.1198 31.0808 119.15123 31.09514 119.18266 31.10947 119.23311 31.13272 119.26454 31.14705 119.29597 31.16139 119.34644 31.18423 119.37787 31.19852 119.40932 31.21278 119.45976 31.23572 119.49121 31.24998 119.52264 31.26427 119.57309 31.28725 119.60452 31.30145 119.63596 31.31567 119.68642 31.33835 119.71785 31.35251 119.74928 31.36665 119.79973 31.38939 119.83116 31.40353 119.86261 31.4177 119.91306 31.44041 119.9445 31.45457 119.97594 31.46872 120.0264 31.49147 120.05783 31.50562 120.08926 31.51978 120.13971 31.5425 120.17114 31.55666 120.20258 31.5708 120.25304 31.59355 120.28447 31.6077 120.31592 31.62186 120.36636 31.6447 120.39781 31.65874 120.42924 31.67276 120.47969 31.69489 120.51112 31.70892 120.54256 31.72295 120.59302 31.74593 120.62445 31.75995 120.65588 31.77399 120.70633 31.79616 120.73776 31.81013 120.76921 31.8241 120.81966 31.84677 120.8511 31.86073 120.88254 31.87471 120.933 31.897 120.96443 31.9109 120.99586 31.92482 121.04631 31.94711 121.07774 31.96109 121.10918 31.97505 121.15964 31.99773 121.19107 32.01169 121.22252 32.02567 121.27296 32.04802 121.30441 32.06186 121.33585 32.07571 121.38629 32.09775 121.41772 32.1116 121.44916 32.12546 121.49962 32.14793 121.53105 32.16179 121.56248 32.17563 121.61293 32.19768 121.64436 32.21153 121.67581 32.22537 121.72626 32.24785 121.7577 32.26169 121.78914 32.27554 121.8396 32.29764 121.87103 32.31143 121.90247 32.32523 121.95291 32.34743 121.98434 32.36118 122.01578 32.37491 122.06624 32.39674 122.09767 32.41049 122.12912 32.42422 122.17955 32.44649 122.211 32.46024 122.24243 32.47397 122.2929 32.49586 122.32433 32.50955 122.35576 32.52322 122.40622 32.54517 122.43765 32.55884 122.46909 32.57253 122.51953 32.59448 122.55096 32.60815 122.58241 32.62184 122.63286 32.64386 122.6643 32.65747 122.69574 32.6711 122.7462 32.69273 122.77763 32.70634 122.80907 32.71997 122.85951 32.74203 122.89095 32.75565 122.92238 32.76927 122.97284 32.79091 123.00427 32.80452 123.03572 32.81815 123.08615 32.84029 123.1176 32.85384 123.14903 32.8674 123.19948 32.8888 123.23093 32.90228 123.26236 32.91579 123.31282 32.9376 123.34425 32.95116 123.37569 32.96472 123.42613 32.98654 123.45757 33.00003 123.48901 33.01353 123.53946 33.03499 123.5709 33.0485 123.60234 33.06198 123.65279 33.08386 123.68423 33.09737 123.71567 33.11086 123.76611 33.13237 123.79755 33.14581 123.82898 33.15924 123.87944 33.18086 123.91087 33.19424 123.94232 33.20763 123.99275 33.22888 124.0242 33.24226 124.05563 33.25565 124.10608 33.27727 124.13753 33.2907 124.16896 33.30414 124.21942 33.32578 124.25085 33.33914 124.28229 33.35252 124.33273 33.37384 124.36417 33.38716 124.39561 33.40047 124.44606 33.42192 124.4775 33.43518 124.50894 33.44844 124.55937 33.46942 124.59082 33.48274 124.62225 33.49606 124.67271 33.51782 124.70415 33.53119 124.73558 33.54457 124.78604 33.56595 124.81747 33.57921 124.84892 33.59245 124.89935 33.61359 124.93079 33.62679 124.96223 33.63998 125.01268 33.6611 125.04413 33.67436 125.07556 33.68762 125.12602 33.70912 125.15746 33.72237 125.18889 33.73563 125.23933 33.75682 125.27077 33.76996 125.30222 33.7831 125.35266 33.80397 125.3841 33.8171 125.41554 33.83023 125.46597 33.85149 125.49742 33.86469 125.52885 33.87787 125.57932 33.89912 125.61075 33.91226 125.64218 33.9254 125.69264 33.94627 125.72408 33.9594 125.75551 33.97253 125.80595 33.99391 125.83739 34.00699 125.86884 34.02007 125.91928 34.0407 125.95073 34.0537 125.98216 34.06671 126.03262 34.08777 126.06406 34.10085 126.09549 34.11392 126.14594 34.13492 126.17737 34.148 126.2088 34.16107 126.25926 34.18207 126.2907 34.19514 126.32214 34.20822 126.37257 34.22926 126.40402 34.24228 126.43546 34.2553 126.48592 34.27605 126.51735 34.289 126.54878 34.30196 126.59924 34.32275 126.63068 34.33571 126.66211 34.34866 126.71255 34.36948 126.74399 34.38243 126.77544 34.39539 126.82588 34.4162 126.85733 34.42914 126.88876 34.4421 126.93921 34.46297 126.97064 34.47586 127.00208 34.48875 127.05254 34.50931 127.08397 34.52214 127.1154 34.53496 127.16586 34.55553 127.1973 34.56842 127.22874 34.58131 127.27917 34.60225 127.31062 34.61514 127.34206 34.62804 127.39252 34.64853 127.42395 34.66142 127.45538 34.6743 127.50584 34.6953 127.53728 34.70813 127.56871 34.72096 127.61916 34.74121 127.65059 34.75398 127.68204 34.76675 127.73248 34.78743 127.76393 34.80026 127.79536 34.81308 127.84581 34.83371 127.87724 34.84654 127.90868 34.85938 127.95914 34.88005 127.99057 34.89282 128.022 34.9056 128.07247 34.92596 128.1039 34.93867 128.13535 34.95137 128.18578 34.9718 128.21723 34.98451 128.24866 34.99722 128.29912 35.01765 128.33055 35.03036 128.36199 35.04308 128.41245 35.0635 128.44388 35.07622 128.47531 35.08893 128.52576 35.1094 128.55719 35.12207 128.58864 35.13474 128.63909 35.15483 128.67053 35.1675 128.70197 35.18015 128.75241 35.20068 128.78385 35.21333 128.81528 35.22598 128.86574 35.2461 128.89717 35.25874 128.9286 35.2714 128.97907 35.29193 129.0105 35.3046 129.04195 35.31726 129.09238 35.33742 129.12383 35.35002 129.15526 35.36263 129.2057 35.3829 129.23715 35.39543 129.26859 35.40796 129.31903 35.42787 129.35047 35.44041 129.3819 35.45296 129.43236 35.47324 129.46379 35.48584 129.49524 35.49844 129.54569 35.51872 129.57714 35.53125 129.60857 35.5438 129.659 35.56372 129.69045 35.57623 129.72188 35.58876 129.77234 35.60912 129.80377 35.62164 129.8352 35.63417 129.88567 35.65414 129.9171 35.66663 129.94855 35.67911 129.99898 35.69913 130.03043 35.71161 130.06186 35.72409 130.1123 35.74411 130.14376 35.75659 130.17519 35.76907 130.22563 35.78917 130.25707 35.80159 130.2885 35.81401 130.33896 35.83371 130.37039 35.84613 130.40184 35.85855 130.45229 35.8787 130.48372 35.89111 130.51517 35.90353 130.5656 35.92331 130.59705 35.93567 130.62848 35.94803 130.67894 35.96788 130.71038 35.98024 130.7418 35.99258 130.79225 36.01236 130.82369 36.02478 130.85514 36.0372 130.90558 36.05734 130.93701 36.06976 130.96846 36.08218 131.0189 36.10202 131.05036 36.11432 131.08179 36.12662 131.13224 36.14613 131.16367 36.15843 131.1951 36.17073 131.24556 36.19063 131.277 36.20299 131.30844 36.21535 131.35889 36.23523 131.39032 36.24753 131.42177 36.25983 131.4722 36.2794 131.50365 36.29164 131.53508 36.30388 131.58554 36.32353 131.61698 36.33577 131.6484 36.348 131.69886 36.36766 131.73029 36.3799 131.76172 36.39214 131.81218 36.41177 131.84362 36.42401 131.87506 36.43625 131.9255 36.45589 131.95696 36.46812 131.98839 36.48036 132.03884 36.50006 132.07027 36.51224 132.1017 36.52441 132.15216 36.54375 132.1836 36.55594 132.21503 36.56812 132.26549 36.58788 132.29692 36.60005 132.32837 36.61223 132.3788 36.63162 132.41025 36.64374 132.44168 36.65585 132.49214 36.67525 132.52358 36.68742 132.55501 36.6996 132.60546 36.71936 132.63689 36.73155 132.66832 36.74373 132.71878 36.76312 132.75022 36.77524 132.78166 36.78735 132.8321 36.8068 132.86356 36.81891 132.89499 36.83102 132.94544 36.85054 132.97687 36.8626 133.0083 36.87465 133.05876 36.8938 133.0902 36.90585 133.12163 36.91791 133.17208 36.93748 133.2035 36.94954 133.23496 36.9616 133.2854 36.98079 133.31685 36.9928 133.34828 37.00479 133.39875 37.024 133.43018 37.03606 133.46161 37.04811 133.51206 37.06767 133.54349 37.07973 133.57492 37.09178 133.62538 37.11101 133.65682 37.123 133.68827 37.135 133.73871 37.15431 133.77016 37.16624 133.80159 37.17818 133.85204 37.19713 133.88347 37.20908 133.9149 37.22101 133.96537 37.24033 133.9968 37.25232 134.02823 37.26431 134.07868 37.28357 134.1101 37.29556 134.14156 37.30756 134.192 37.3269 134.22345 37.33884 134.25489 37.35077 134.30535 37.36977 134.33678 37.38164 134.36821 37.39351 134.41866 37.4126 134.45009 37.42447 134.48152 37.43634 134.53199 37.45541 134.56342 37.46729 134.59487 37.47916 134.64531 37.49825 134.67676 37.51012 134.70819 37.52199 134.75864 37.54106 134.79007 37.55293 134.8215 37.5648 134.87197 37.5839 134.9034 37.59576 134.93483 37.60764 134.98528 37.62675 135.01671 37.63857 135.04816 37.65038 135.0986 37.66916 135.13005 37.68097 135.16149 37.69278 135.21193 37.71198 135.24338 37.72379 135.27481 37.73561 135.32526 37.75443 135.35669 37.76617 135.38813 37.77792 135.43859 37.79675 135.47002 37.80856 135.50147 37.82037 135.5519 37.83957 135.58335 37.85138 135.61478 37.86319 135.66522 37.88202 135.69667 37.89377 135.7281 37.90552 135.77857 37.92447 135.81 37.93616 135.84143 37.94786 135.89188 37.96643 135.92331 37.97812 135.95476 37.9898 136.0052 38.00876 136.03665 38.02051 136.06809 38.03226 136.11853 38.0512 136.14998 38.06288 136.18141 38.07458 136.23186 38.09315 136.26329 38.10484 136.29473 38.11653 136.34519 38.13556 136.37662 38.14725 136.40807 38.15894 136.4585 38.17757 136.48993 38.18921 136.52138 38.20084 136.57183 38.21953 136.60327 38.23116 136.6347 38.24278 136.68517 38.26149 136.7166 38.27312 136.74803 38.28474 136.79848 38.30344 136.82991 38.31506 136.86136 38.32669 136.9118 38.34538 136.94324 38.35701 136.97469 38.36865 137.02513 38.38734 137.05658 38.39897 137.08802 38.4106 137.13846 38.42935 137.16989 38.44093 137.20133 38.45251 137.25179 38.47096 137.28322 38.48247 137.31467 38.49397 137.3651 38.5124 137.39653 38.52399 137.42798 38.53555 137.47843 38.55437 137.50988 38.56593 137.5413 38.5775 137.59177 38.59595 137.6232 38.60745 137.65464 38.61896 137.70508 38.6374 137.73651 38.64899 137.76795 38.66057 137.8184 38.67943 137.84984 38.69095 137.88129 38.70245 137.93172 38.72058 137.96317 38.73204 137.9946 38.74348 138.04506 38.76204 138.07649 38.77354 138.10793 38.78506 138.15839 38.80362 138.18982 38.81508 138.22126 38.82654 138.2717 38.84473 138.30313 38.85617 138.33458 38.86761 138.38503 38.88625 138.41648 38.89769 138.4479 38.90913 138.49837 38.92732 138.5298 38.93878 138.56124 38.95024 138.61168 38.96886 138.64311 38.98032 138.67455 38.99178 138.725 39.01 138.75644 39.02141 138.78789 39.0328 138.83832 39.05109 138.86977 39.0625 138.9012 39.0739 138.95166 39.09218 138.9831 39.10359 139.01453 39.11499 139.06499 39.13327 139.09642 39.14468 139.12786 39.15608 139.1783 39.17442 139.20973 39.18576 139.24118 39.19711 139.29163 39.21507 139.32308 39.22641 139.3545 39.23776 139.40497 39.2561 139.4364 39.2675 139.46784 39.27892 139.51828 39.29726 139.54972 39.3086 139.58115 39.31995 139.6316 39.33792 139.66304 39.34926 139.69449 39.36061 139.74492 39.37901 139.77637 39.39035 139.8078 39.4017 139.85826 39.41974 139.8897 39.43102 139.92113 39.4423 139.97159 39.46039 140.00302 39.47166 140.03446 39.48296 140.0849 39.50105 140.11634 39.51233 140.14778 39.52362 140.19823 39.54176 140.22968 39.553 140.26111 39.56421 140.31156 39.58199 140.34299 39.59322 140.37442 39.60443 140.42488 39.62259 140.45632 39.63388 140.48775 39.64516 140.53821 39.66324 140.56964 39.67453 140.60109 39.6858 140.65152 39.70398 140.68297 39.7152 140.7144 39.72641 140.76486 39.74426 140.7963 39.75542 140.82773 39.76657 140.87819 39.78448 140.90962 39.79564 140.94106 39.8068 140.9915 39.8247 141.02294 39.83586 141.05438 39.84702 141.10483 39.86487 141.13628 39.87608 141.16771 39.88731 141.21816 39.90553 141.24959 39.91675 141.28102 39.92798 141.33148 39.94582 141.36292 39.95699 141.39435 39.96814 141.44481 39.9861 141.47624 39.99721 141.50769 40.0083 141.55812 40.02591 141.58957 40.037 141.621 40.0481 141.7029 40.07722 141.7029 40.07722"/>
</g>
<use data-text="&#x2022;" xlink:href="#font_4_1" transform="matrix(9.963397,0,0,-9.963397,203.1158,161.6919)" fill="#0000ff"/>
<path transform="matrix(1.00008,0,0,-1.00008,148.90847,159.47772)" stroke-width=".79701" stroke-linecap="butt" stroke-miterlimit="10" stroke-linejoin="miter" fill="none" stroke="#0000ff" d="M86.45784 0C86.45784 .78282 85.82324 1.4174 85.04042 1.4174 84.2576 1.4174 83.623 .78282 83.623 0 83.623-.78282 84.2576-1.4174 85.04042-1.4174 85.82324-1.4174 86.45784-.78282 86.45784 0ZM85.04042 0"/>
</svg>
