<svg xmlns="http://www.w3.org/2000/svg" xmlns:xlink="http://www.w3.org/1999/xlink" version="1.1" width="238" height="239" viewBox="0 0 238 239">
<defs>
<path id="font_1_1" d="M.33399964 .30233766C.33999635 .32835389 .36299134 .42037965 .43299867 .42037965 .43798829 .42037965 .46199037 .42037965 .48298646 .40734864 .45498658 .402359 .43499757 .37734986 .43499757 .35334779 .43499757 .33735658 .44599916 .31835938 .47299195 .31835938 .49499513 .31835938 .5269928 .3363495 .5269928 .37635804 .5269928 .42837525 .46798707 .4423828 .43399049 .4423828 .37599183 .4423828 .34098817 .38935853 .32899476 .36634828 .3039856 .43237306 .25 .4423828 .22099304 .4423828 .116989139 .4423828 .05999756 .3133545 .05999756 .28834535 .05999756 .27833558 .069992069 .27833558 .07199097 .27833558 .07998657 .27833558 .08299255 .28033448 .084991458 .28933717 .11898804 .39535523 .18499756 .42037965 .21899414 .42037965 .23799134 .42037965 .272995 .4113617 .272995 .35334779 .272995 .32235719 .2559967 .25532533 .21899414 .11528015 .20298767 .053268434 .16799927 .011245728 .12399292 .011245728 .117996219 .011245728 .09498596 .011245728 .07398987 .024276734 .09899902 .029266358 .12098694 .05027771 .12098694 .07827759 .12098694 .105270389 .09899902 .11328125 .083999637 .11328125 .053985597 .11328125 .0289917 .08728027 .0289917 .055267335 .0289917 .009246826 .07899475-.0107421879 .12298584-.0107421879 .18899536-.0107421879 .22499085 .059280397 .22799683 .0652771 .23999024 .028274537 .27598573-.0107421879 .33599855-.0107421879 .43899537-.0107421879 .49598695 .118270877 .49598695 .14328003 .49598695 .1532898 .4869995 .1532898 .48399354 .1532898 .47499085 .1532898 .47299195 .14929199 .47099305 .14228821 .43798829 .03527832 .36999513 .011245728 .33799745 .011245728 .29899598 .011245728 .2829895 .043273927 .2829895 .07727051 .2829895 .09927368 .2889862 .121276859 .2999878 .16529846L.33399964 .30233766Z"/>
<path id="font_1_2" d="M.48599244 .38136292C.48999024 .39537049 .48999024 .39736939 .48999024 .40437318 .48999024 .42237855 .47599793 .43138124 .46099855 .43138124 .45098878 .43138124 .43499757 .42536927 .42599488 .41036988 .42399598 .405365 .41600038 .37435914 .4119873 .35635377 .40499879 .33035279 .397995 .30334474 .3919983 .27633668L.34700013 .09628296C.34298707 .08126831 .2999878 .011245728 .23399353 .011245728 .18299866 .011245728 .17199707 .055267335 .17199707 .0922699 .17199707 .1382904 .18899536 .20030213 .22299195 .28833009 .23899842 .3293457 .24299622 .3403473 .24299622 .36035157 .24299622 .405365 .21099854 .4423828 .16099549 .4423828 .06599426 .4423828 .0289917 .29733277 .0289917 .28833009 .0289917 .27833558 .038986207 .27833558 .040985109 .27833558 .050994874 .27833558 .051986696 .28033448 .056991579 .29634095 .083999637 .3903656 .12399292 .42037965 .1579895 .42037965 .1659851 .42037965 .18299866 .42037965 .18299866 .3883667 .18299866 .36335755 .17298889 .3373413 .1659851 .31834413 .12599182 .21231079 .10798645 .1552887 .10798645 .10827637 .10798645 .019256592 .17098999-.0107421879 .22999573-.0107421879 .2689972-.0107421879 .30299378 .0062561037 .33099366 .03425598 .31799317-.017745972 .30599977-.06674194 .2659912-.11973572 .23999024-.15385437 .20199585-.18309021 .1559906-.18309021 .14199829-.18309021 .09700012-.18005371 .07998657-.14074707 .09599304-.14074707 .10899353-.14074707 .12298584-.1287384 .1329956-.11973572 .14299011-.10673523 .14299011-.08773804 .14299011-.056747438 .115997318-.052734376 .10598755-.052734376 .08299255-.052734376 .049987794-.068740848 .049987794-.11773682 .049987794-.16796875 .09399414-.20507813 .1559906-.20507813 .25898744-.20507813 .3619995-.11373901 .3899994-.00074768069L.48599244 .38136292Z"/>
<clipPath id="clip_2">
<path transform="matrix(1.00005,0,0,-1.00003,114.88583,124.09233)" d="M-113.38724-113.38724V113.38724H113.38724V-113.38724ZM113.38724 113.38724"/>
</clipPath>
</defs>
<path transform="matrix(1.00005,0,0,-1.00003,114.88583,124.09233)" stroke-width=".19925" stroke-linecap="butt" stroke-miterlimit="10" stroke-linejoin="miter" fill="none" stroke="#929292" stroke-opacity=".5" d="M-113.38724-113.38724H113.38724M-113.38724-85.04042H113.38724M-113.38724-56.69362H113.38724M-113.38724-28.3468H113.38724M-113.38724 0H113.38724M-113.38724 28.3468H113.38724M-113.38724 56.69362H113.38724M-113.38724 85.04042H113.38724M-113.38724 113.37727H113.38724M-113.38724-113.38724V113.38724M-85.04042-113.38724V113.38724M-56.69362-113.38724V113.38724M-28.3468-113.38724V113.38724M0-113.38724V113.38724M28.3468-113.38724V113.38724M56.69362-113.38724V113.38724M85.04042-113.38724V113.38724M113.37727-113.38724V113.38724M113.38724 113.38724"/>
<path transform="matrix(1.00005,0,0,-1.00003,114.88583,124.09233)" stroke-width="1.19553" stroke-linecap="butt" stroke-miterlimit="10" stroke-linejoin="miter" fill="none" stroke="#000000" d="M-113.38724 0H118.10008"/>
<path transform="matrix(1.00005,0,0,-1.00003,232.99182,124.09233)" stroke-width=".9564" stroke-linecap="round" stroke-linejoin="round" fill="none" stroke="#000000" d="M-1.91284 2.55046C-1.75343 1.59402 0 .15938 .4782 0 0-.15938-1.75343-1.59402-1.91284-2.55046"/>
<use data-text="x" xlink:href="#font_1_1" transform="matrix(9.963098,0,0,-9.962899,231.10164,120.17421)"/>
<path transform="matrix(1.00005,0,0,-1.00003,114.88583,124.09233)" stroke-width="1.19553" stroke-linecap="butt" stroke-miterlimit="10" stroke-linejoin="miter" fill="none" stroke="#000000" d="M0-113.38724V118.10008"/>
<path transform="matrix(0,-1.00003,-1.00005,-0,114.88583,5.988701)" stroke-width=".9564" stroke-linecap="round" stroke-linejoin="round" fill="none" stroke="#000000" d="M-1.91284 2.55046C-1.75343 1.59402 0 .15938 .4782 0 0-.15938-1.75343-1.59402-1.91284-2.55046"/>
<use data-text="y" xlink:href="#font_1_2" transform="matrix(9.963098,0,0,-9.962899,118.80403,6.2087938)"/>
<g clip-path="url(#clip_2)">
<path transform="matrix(1.00005,0,0,-1.00003,114.88583,124.09233)" stroke-width=".79701" stroke-linecap="butt" stroke-miterlimit="10" stroke-linejoin="miter" fill="none" stroke="#0000ff" d="M-85.04042 1133.8724C-85.04042 1133.8724-84.79414 1114.7515-84.69958 1107.4841-84.60501 1100.2168-84.45331 1088.651-84.35873 1081.4946-84.26416 1074.3383-84.11246 1062.953-84.0179 1055.9057-83.92332 1048.8583-83.77162 1037.6422-83.67705 1030.7022-83.58247 1023.7621-83.43079 1012.7187-83.33621 1005.88656-83.24165 999.0544-83.08995 988.1866-82.99538 981.4607-82.9008 974.73477-82.7491 964.03219-82.65453 957.4107-82.55997 950.7893-82.40826 940.2552-82.31369 933.7379-82.21912 927.22067-82.06743 916.8528-81.97285 910.4388-81.8783 904.02487-81.7266 893.822-81.63202 887.51046-81.53745 881.1988-81.38574 871.1594-81.29117 864.9492-81.1966 858.7391-81.0449 848.8615-80.95033 842.75186-80.85576 836.6421-80.70407 826.9249-80.6095 820.9147-80.51492 814.9045-80.36324 805.34677-80.26866 799.43447-80.17409 793.52218-80.02238 784.1175-79.92781 778.3028-79.83324 772.4881-79.68155 763.2435-79.58698 757.52627-79.4924 751.809-79.34071 742.71878-79.24614 737.0966-79.15157 731.47457-78.99986 722.5333-78.9053 717.0061-78.81073 711.4789-78.65903 702.69357-78.56445 697.2603-78.46988 691.8271-78.31818 683.1873-78.22362 677.84719-78.12904 672.507-77.97736 664.0202-77.88278 658.7722-77.78821 653.52426-77.6365 645.1802-77.54195 640.02346-77.44737 634.8667-77.29567 626.67239-77.2011 621.60598-77.10652 616.53958-76.95482 608.4856-76.86026 603.5081-76.76569 598.53067-76.61398 590.62008-76.51941 585.7317-76.42484 580.8433-76.27315 573.07687-76.17857 568.2762-76.08401 563.4755-75.93231 555.8461-75.83774 551.13168-75.74316 546.41726-75.59146 538.9263-75.49689 534.2977-75.40233 529.6692-75.25063 522.3156-75.15605 517.7722-75.06148 513.22879-74.90979 506.01084-74.81522 501.5516-74.72066 497.09233-74.56895 490.00886-74.47438 485.63288-74.3798 481.2569-74.2281 474.30619-74.13353 470.01264-74.03896 465.71907-73.88727 458.9003-73.7927 454.6878-73.69812 450.47535-73.54643 443.78364-73.45186 439.65193-73.35728 435.52024-73.2056 428.9606-73.11102 424.9093-73.01645 420.85804-72.86475 414.42533-72.77017 410.45304-72.6756 406.4807-72.52391 400.17424-72.42934 396.27964-72.33476 392.38505-72.18307 386.2007-72.0885 382.38349-71.99393 378.56626-71.84222 372.50834-71.74767 368.7676-71.65309 365.0269-71.50139 359.088-71.40681 355.42295-71.31224 351.7579-71.16054 345.94273-71.06598 342.3525-70.9714 338.7623-70.81972 333.06336-70.72514 329.5472-70.63057 326.03108-70.47887 320.4535-70.38431 317.01054-70.28973 313.5676-70.13803 308.10395-70.04346 304.73298-69.94888 301.36198-69.79718 296.01426-69.70262 292.71488-69.60805 289.4155-69.45634 284.18186-69.36177 280.9533-69.2672 277.72477-69.11551 272.6038-69.02094 269.44563-68.92638 266.28749-68.77467 261.28047-68.6801 258.1914-68.58553 255.1024-68.43382 250.20313-68.33925 247.18204-68.24469 244.16095-68.09299 239.37093-67.99841 236.41747-67.90384 233.464-67.75215 228.78221-67.65758 225.89556-67.56302 223.0089-67.41132 218.43346-67.31674 215.61238-67.22217 212.79132-67.07047 208.319-66.97589 205.56324-66.88132 202.80747-66.72963 198.44156-66.63506 195.75067-66.54048 193.05979-66.3888 188.79631-66.29422 186.16909-66.19965 183.54187-66.04796 179.38014-65.95338 176.81546-65.85881 174.25078-65.7071 170.18715-65.61253 167.68459-65.51796 165.182-65.36627 161.21974-65.2717 158.77863-65.17712 156.33751-65.02544 152.47113-64.93086 150.09069-64.83629 147.71024-64.68459 143.94261-64.59003 141.62201-64.49545 139.30139-64.34375 135.62679-64.24918 133.3653-64.1546 131.1038-64.0029 127.52573-63.90834 125.32268-63.81377 123.11964-63.66208 119.63268-63.5675 117.48724-63.47293 115.34183-63.32123 111.94841-63.22667 109.85988-63.1321 107.77133-62.9804 104.46709-62.88582 102.4345-62.79124 100.4019-62.63954 97.18733-62.54497 95.21024-62.45041 93.23315-62.2987 90.10732-62.20413 88.18497-62.10956 86.26262-61.95787 83.22359-61.8633 81.3552-61.76874 79.48679-61.61703 76.53387-61.52246 74.71877-61.42789 72.90366-61.27618 70.03561-61.18161 68.27309-61.08705 66.51054-60.93535 63.72618-60.84077 62.01555-60.7462 60.30492-60.59451 57.60345-60.49994 55.94402-60.40538 54.28459-60.25368 51.66446-60.1591 50.05544-60.06453 48.44641-59.91283 45.9065-59.81825 44.34723-59.72368 42.78796-59.57199 40.32767-59.47742 38.81725-59.38284 37.30682-59.23116 34.92311-59.13658 33.46112-59.042 31.99915-58.89032 29.69429-58.79575 28.28018-58.70117 26.86609-58.54947 24.63652-58.4549 23.26924-58.36032 21.90195-58.20863 19.74657-58.11406 18.42567-58.01949 17.10477-57.8678 15.02437-57.77322 13.74907-57.67865 12.47379-57.52695 10.46475-57.43239 9.23424-57.33781 8.00372-57.18611 6.06624-57.09154 4.88031-56.99696 3.6944-56.84526 1.82909-56.7507 .68684-56.65613-.45537-56.50444-2.25272-56.40987-3.35216-56.31529-4.45158-56.16359-6.18031-56.06903-7.23721-55.97446-8.29411-55.82275-9.9544-55.72818-10.96959-55.6336-11.98477-55.4819-13.57977-55.38733-14.55402-55.29277-15.52826-55.14107-17.05753-55.0465-17.9914-54.95192-18.92526-54.80023-20.39069-54.70566-21.28476-54.6111-22.17883-54.4594-23.58046-54.36482-24.43535-54.27025-25.29024-54.11855-26.6299-54.02397-27.44626-53.92941-28.26262-53.77771-29.54068-53.68314-30.31917-53.58856-31.09766-53.43687-32.3158-53.3423-33.05713-53.24773-33.79848-53.09604-34.95764-53.00146-35.66231-52.90689-36.36699-52.75519-37.46744-52.66061-38.136-52.56604-38.80455-52.41435-39.84758-52.31978-40.48077-52.2252-41.11397-52.07352-42.1013-51.97894-42.6997-51.88437-43.2981-51.73268-44.22955-51.6381-44.79362-51.54353-45.3577-51.39183-46.2346-51.29726-46.76512-51.20268-47.29564-51.051-48.11969-50.95642-48.61726-50.86185-49.11482-50.71016-49.88626-50.61559-50.3513-50.52101-50.81635-50.36931-51.53583-50.27475-51.969-50.18018-52.40216-50.02847-53.07146-49.9339-53.47336-49.83932-53.87527-49.68762-54.49446-49.59306-54.86569-49.49849-55.23692-49.3468-55.80785-49.25223-56.14903-49.15765-56.4902-49.00595-57.01303-48.91139-57.32468-48.81682-57.63632-48.66512-58.11256-48.57054-58.39522-48.47597-58.67787-48.32426-59.10771-48.22969-59.36192-48.13513-59.61613-47.98343-60.00107-47.88885-60.22743-47.79428-60.45381-47.6426-60.7944-47.54802-60.99345-47.45346-61.19252-47.30176-61.4898-47.20718-61.66217-47.11261-61.83452-46.9609-62.0896-46.86633-62.23572-46.77177-62.38184-46.62007-62.59496-46.5255-62.71541-46.43092-62.83585-46.27924-63.00847-46.18466-63.10382-46.09009-63.19916-45.9384-63.33195-45.84383-63.4027-45.74925-63.47345-45.59755-63.56715-45.50298-63.61378-45.4084-63.6604-45.25671-63.7157-45.16214-63.73878-45.06757-63.76187-44.91588-63.78014-44.8213-63.7803-44.72673-63.78047-44.57504-63.76239-44.48047-63.74008-44.3859-63.71776-44.23419-63.6637-44.13962-63.6194-44.04504-63.57512-43.89334-63.48663-43.79878-63.42087-43.70421-63.3551-43.55252-63.23206-43.45795-63.14534-43.36337-63.05864-43.21167-62.90297-43.11711-62.79585-43.02254-62.68874-42.87083-62.50041-42.77626-62.37326-42.68169-62.2461-42.52998-62.02591-42.43542-61.8793-42.34085-61.73268-42.18916-61.48213-42.09459-61.31656-42.00002-61.151-41.84831-60.86992-41.75375-60.68593-41.65918-60.50194-41.50748-60.19235-41.4129-59.9904-41.31833-59.78847-41.16663-59.44995-41.07205-59.23044-40.9775-59.01093-40.82579-58.64482-40.73122-58.40819-40.63664-58.17155-40.48495-57.77814-40.39038-57.52495-40.29582-57.27176-40.14412-56.85258-40.04955-56.58331-39.95497-56.31404-39.80327-55.86903-39.7087-55.58414-39.61414-55.29926-39.46243-54.83005-39.36786-54.53004-39.27328-54.23006-39.1216-53.73671-39.02702-53.42189-38.93245-53.10707-38.78076-52.59007-38.68619-52.26096-38.59161-51.93185-38.43991-51.3927-38.34534-51.04985-38.25076-50.707-38.09908-50.14609-38.0045-49.78986-37.90993-49.43364-37.75824-48.8515-37.66367-48.48232-37.56909-48.11311-37.4174-47.51064-37.32283-47.12889-37.22826-46.74716-37.07655-46.1248-36.98198-45.73093-36.8874-45.33707-36.7357-44.69554-36.64114-44.29015-36.54657-43.88477-36.39488-43.22568-36.30031-42.80913-36.20573-42.39258-36.05403-41.71536-35.95947-41.2879-35.8649-40.86043-35.7132-40.16602-35.61862-39.72818-35.52405-39.29033-35.37234-38.5798-35.27779-38.1321-35.18321-37.6844-35.03152-36.95872-34.93695-36.50143-34.84238-36.04414-34.69067-35.30269-34.59612-34.83617-34.50154-34.36963-34.34984-33.61412-34.25526-33.13887-34.16069-32.66364-34.00899-31.89449-33.91441-31.4109-33.81985-30.9273-33.66815-30.14507-33.57358-29.65349-33.479-29.16191-33.32732-28.36722-33.23274-27.86797-33.13818-27.36873-32.98648-26.56166-32.8919-26.0552-32.79733-25.54875-32.64563-24.73091-32.55106-24.21779-32.4565-23.70468-32.3048-22.87648-32.21022-22.35701-32.11565-21.83754-31.96396-20.99945-31.86938-20.47374-31.77481-19.94803-31.62312-19.0994-31.52855-18.56798-31.43398-18.03656-31.28227-17.18031-31.1877-16.64362-31.09312-16.10693-30.94144-15.24141-30.84686-14.69978-30.75229-14.15817-30.6006-13.28621-30.50603-12.73996-30.41145-12.19373-30.25977-11.31332-30.16519-10.76283-30.07062-10.21233-29.91891-9.32669-29.82434-8.7723-29.72977-8.2179-29.57806-7.32516-29.4835-6.76704-29.38893-6.20892-29.23724-5.31099-29.14267-4.74968-29.0481-4.18839-28.8964-3.28552-28.80183-2.72151-28.70726-2.1575-28.55556-1.2512-28.46098-.6847-28.36641-.11818-28.2147 .79276-28.12015 1.36162-28.02557 1.93048-27.87389 2.84451-27.77931 3.4153-27.68474 3.98608-27.53304 4.90315-27.43846 5.47548-27.3439 6.04782-27.1922 6.96681-27.09763 7.54042-27.00305 8.11401-26.85135 9.03519-26.75677 9.60968-26.66222 10.18417-26.51051 11.10582-26.41594 11.6811-26.32137 12.2564-26.16968 13.18033-26.0751 13.75598-25.98055 14.33165-25.82884 15.2546-25.73427 15.83002-25.6397 16.40543-25.48799 17.32806-25.39342 17.90317-25.29886 18.47827-25.14716 19.40022-25.05258 19.97502-24.95801 20.54984-24.80632 21.4721-24.71175 22.046-24.61717 22.61992-24.46548 23.53868-24.37091 24.11137-24.27634 24.68408-24.12463 25.60246-24.03006 26.17372-23.93549 26.74498-23.7838 27.65918-23.68922 28.22871-23.59465 28.79823-23.44296 29.71101-23.34839 30.2785-23.25381 30.846-23.10213 31.75352-23.00755 32.31879-22.91298 32.88406-22.76128 33.78961-22.6667 34.35258-22.57213 34.91556-22.42043 35.81627-22.32587 36.37642-22.2313 36.93658-22.0796 37.83304-21.98503 38.3899-21.89046 38.94676-21.73875 39.83638-21.6442 40.38995-21.54962 40.94351-21.39792 41.82942-21.30334 42.37962-21.20877 42.92982-21.05707 43.8091-20.96251 44.35545-20.86794 44.90182-20.71625 45.77507-20.62167 46.31746-20.5271 46.85985-20.3754 47.72667-20.28082 48.26474-20.18626 48.80281-20.03456 49.66208-19.93999 50.19559-19.84541 50.7291-19.69371 51.581-19.59914 52.11-19.50458 52.63902-19.35287 53.48439-19.2583 54.0084-19.16373 54.53244-19.01204 55.36829-18.91747 55.88692-18.8229 56.40555-18.6712 57.23297-18.57663 57.7464-18.48206 58.25981-18.33035 59.07956-18.23578 59.58728-18.14122 60.095-17.98952 60.90402-17.89494 61.40569-17.80037 61.90733-17.64868 62.70699-17.55411 63.20287-17.45953 63.69876-17.30785 64.49016-17.21327 64.97974-17.1187 65.46931-16.967 66.2484-16.87242 66.7315-16.77785 67.21461-16.62616 67.98491-16.53159 68.46165-16.43701 68.93842-16.28532 69.698-16.19075 70.1676-16.09618 70.6372-15.94449 71.38376-15.84991 71.84627-15.75534 72.30879-15.60364 73.04555-15.50906 73.50116-15.41449 73.95679-15.26279 74.68187-15.16823 75.1301-15.07365 75.57832-14.92197 76.29118-14.8274 76.7318-14.73282 77.17241-14.58112 77.87315-14.48656 78.30579-14.39198 78.73843-14.24028 79.42525-14.1457 79.84996-14.05113 80.27467-13.89943 80.95001-13.80487 81.36687-13.7103 81.78372-13.55861 82.4455-13.46404 82.85435-13.36946 83.26323-13.21776 83.91322-13.12318 84.31375-13.02863 84.71428-12.87692 85.34941-12.78235 85.74112-12.68777 86.13284-12.53607 86.75392-12.4415 87.13693-12.34694 87.51993-12.19524 88.1274-12.10066 88.50157-12.00609 88.87576-11.8544 89.4684-11.75983 89.8338-11.66527 90.19922-11.51357 90.77902-11.41899 91.1353-11.32442 91.4916-11.17271 92.05473-11.07814 92.40178-10.98357 92.74883-10.83188 93.29898-10.7373 93.63667-10.64273 93.97435-10.49104 94.50746-10.39647 94.83566-10.3019 95.16388-10.1502 95.68367-10.05563 96.00221-9.96106 96.32076-9.80936 96.82274-9.71478 97.13158-9.62021 97.4404-9.46852 97.92879-9.37395 98.22806-9.27937 98.52734-9.12769 98.99962-9.03311 99.28865-8.93854 99.57767-8.78683 100.03223-8.69228 100.31117-8.5977 100.59012-8.446 101.03006-8.35143 101.29909-8.25685 101.56812-8.10515 101.99141-8.01059 102.25023-7.91602 102.50906-7.76433 102.91617-7.66975 103.16461-7.57518 103.41306-7.42348 103.80301-7.32892 104.04095-7.23434 104.27888-7.08264 104.65213-6.98807 104.87962-6.8935 105.10713-6.74179 105.4638-6.64723 105.6807-6.55266 105.89758-6.40097 106.2367-6.3064 106.44283-6.21182 106.64897-6.06012 106.97107-5.96555 107.16646-5.87099 107.36185-5.71928 107.66658-5.62471 107.85117-5.53014 108.03577-5.37843 108.32298-5.28386 108.49695-5.1893 108.67093-5.0376 108.9421-4.94302 109.10509-4.84845 109.26808-4.69676 109.52-4.60219 109.67172-4.50763 109.82343-4.35593 110.05765-4.26135 110.19856-4.16678 110.33946-4.01508 110.55753-3.9205 110.68732-3.82593 110.81711-3.67424 111.01544-3.57967 111.13412-3.48509 111.25282-3.3334 111.4351-3.23883 111.54288-3.14426 111.65067-2.99257 111.81477-2.898 111.91096-2.80342 112.00717-2.65172 112.15132-2.55714 112.23625-2.46257 112.32117-2.31088 112.44908-2.21631 112.52301-2.12173 112.59694-1.97005 112.70685-1.87547 112.76913-1.7809 112.83142-1.6292 112.92105-1.53464 112.97198-1.44006 113.02293-1.28836 113.09645-1.19379 113.13635-1.09921 113.17625-.94751 113.23112-.85295 113.25963-.75838 113.28813-.60669 113.3247-.51212 113.34181-.41754 113.35892-.26584 113.3772-.17128 113.3829-.0767 113.3886 .07497 113.3886 .16954 113.3829 .26411 113.3772 .41582 113.35892 .51038 113.34181 .60495 113.3247 .75664 113.28783 .85121 113.25963 .94579 113.23143 1.09749 113.17812 1.19206 113.13852 1.28662 113.0989 1.43832 113.02539 1.5329 112.97415 1.62747 112.9229 1.77917 112.83173 1.87375 112.76913 1.9683 112.70654 2.12001 112.59663 2.21458 112.52301 2.30916 112.44939 2.46085 112.32332 2.55542 112.2384 2.64998 112.15349 2.80168 112.00717 2.89626 111.91096 2.99083 111.81477 3.14253 111.65251 3.2371 111.54504 3.33168 111.43756 3.48337 111.25499 3.57794 111.13629 3.67252 111.0176 3.8242 110.819 3.91878 110.68948 4.01335 110.55998 4.16504 110.34378 4.25961 110.20288 4.35419 110.06197 4.50589 109.8259 4.60046 109.67389 4.69504 109.52188 4.84673 109.27002 4.9413 109.10727 5.03587 108.94452 5.18756 108.67451 5.28214 108.50084 5.37671 108.32718 5.52841 108.04002 5.62297 107.85548 5.71754 107.67096 5.86925 107.36618 5.96382 107.17079 6.0584 106.9754 6.2101 106.65335 6.30466 106.44714 6.39923 106.24095 6.55092 105.90147 6.6455 105.68459 6.74007 105.4677 6.89177 105.1114 6.98633 104.88396 7.0809 104.65651 7.2326 104.28326 7.32718 104.04527 7.42175 103.80727 7.57346 103.41695 7.66803 103.1685 7.76259 102.92006 7.91428 102.51334 8.00885 102.25456 8.10342 101.9958 8.25513 101.5722 8.3497 101.3034 8.44426 101.0346 8.59596 100.59616 8.69054 100.31723 8.78511 100.03828 8.93681 99.58224 9.03139 99.29297 9.12595 99.00371 9.27765 98.53137 9.37222 98.23239 9.4668 97.93341 9.61848 97.4469 9.71306 97.13806 9.80762 96.82924 9.95932 96.32515 10.0539 96.00655 10.14847 95.68794 10.30017 95.1697 10.39474 94.84174 10.48932 94.51376 10.641 93.98044 10.73558 93.64273 10.83015 93.30504 10.98184 92.7549 11.07642 92.40784 11.17099 92.06078 11.32268 91.49742 11.41725 91.14136 11.51183 90.7853 11.66353 90.20677 11.7581 89.84158 11.85268 89.47641 12.00436 88.8838 12.09894 88.50938 12.19351 88.13495 12.3452 87.52621 12.43977 87.14297 12.53435 86.75974 12.68605 86.13889 12.78061 85.74718 12.87518 85.35547 13.02689 84.7201 13.12146 84.31981 13.21603 83.91953 13.36774 83.27077 13.4623 82.86215 13.55687 82.45352 13.70856 81.7915 13.80313 81.37465 13.8977 80.9578 14.04941 80.28246 14.14397 79.85774 14.23854 79.43303 14.39024 78.74622 14.48482 78.31358 14.57939 77.88095 14.7311 77.18019 14.82567 76.73958 14.92023 76.29897 15.07191 75.58612 15.16649 75.13788 15.26106 74.68965 15.41277 73.96432 15.50734 73.50894 15.6019 73.05357 15.7536 72.31837 15.84818 71.85579 15.94275 71.3932 16.09445 70.64456 16.18903 70.17496 16.28358 69.70535 16.43529 68.94762 16.52986 68.47118 16.62444 67.99474 16.77612 67.22418 16.8707 66.74103 16.96527 66.25786 17.11696 65.47845 17.21153 64.98882 17.3061 64.49918 17.45781 63.70778 17.55238 63.21194 17.64696 62.71613 17.79865 61.91684 17.89322 61.41519 17.9878 60.91354 18.13948 60.10419 18.23405 59.59637 18.32863 59.08855 18.48032 58.26848 18.57489 57.75507 18.66946 57.24164 18.82117 56.41458 18.91574 55.89601 19.01031 55.37744 19.162 54.54135 19.25658 54.01749 19.35115 53.49362 19.50284 52.64922 19.59741 52.12039 19.69199 51.59155 19.84369 50.73949 19.93825 50.20596 20.03282 49.67245 20.18452 48.8132 20.2791 48.27512 20.37367 47.73705 20.52538 46.87022 20.61993 46.32784 20.71451 45.78545 20.8662 44.91226 20.96077 44.36584 21.05534 43.81943 21.20705 42.93959 21.3016 42.38957 21.39618 41.83954 21.54788 40.95525 21.64246 40.40163 21.73703 39.84799 21.88873 38.95651 21.9833 38.39941 22.07787 37.84232 22.22955 36.9463 22.32413 36.38638 22.4187 35.82646 22.5704 34.92665 22.66498 34.36383 22.75954 33.80103 22.91124 32.89554 23.00581 32.33003 23.10039 31.76454 23.25209 30.85558 23.34666 30.28802 23.44122 29.72047 23.59293 28.80911 23.6875 28.23952 23.78207 27.66994 23.93376 26.75412 24.02834 26.1828 24.12291 25.61148 24.2746 24.69429 24.36917 24.12177 24.46375 23.54924 24.61545 22.63005 24.71002 22.0564 24.8046 21.48273 24.95628 20.56194 25.05086 19.98712 25.14543 19.41232 25.29712 18.48895 25.3917 17.91354 25.48627 17.33813 25.63795 16.41542 25.73253 15.83995 25.8271 15.26448 25.9788 14.34142 26.07338 13.76595 26.16795 13.19048 26.31966 12.26752 26.41422 11.69235 26.50879 11.11719 26.66048 10.19499 26.75505 9.62048 26.84962 9.04599 27.00133 8.12527 27.09589 7.55167 27.19046 6.97806 27.34216 6.0587 27.43674 5.4863 27.53131 4.9139 27.68301 3.99698 27.77757 3.42612 27.87215 2.85527 28.02383 1.94092 28.11841 1.372 28.21298 .80309 28.36469-.10779 28.45924-.6743 28.55382-1.24083 28.70552-2.14706 28.8001-2.71114 28.89467-3.27519 29.04637-4.17838 29.14095-4.73975 29.2355-5.3011 29.38719-6.19908 29.48177-6.7571 29.57634-7.3151 29.72804-8.20702 29.82262-8.76147 29.91718-9.31593 30.06888-10.20282 30.16345-10.75331 30.25803-11.3038 30.40973-12.18285 30.5043-12.72914 30.59886-13.27544 30.75056-14.14896 30.84514-14.6907 30.93971-15.23244 31.0914-16.09709 31.18597-16.63367 31.28055-17.17023 31.43224-18.02661 31.52681-18.55801 31.62138-19.08943 31.77309-19.938 31.86766-20.46379 31.96223-20.98956 32.11392-21.82791 32.2085-22.34749 32.30307-22.86708 32.45476-23.69553 32.54933-24.20871 32.6439-24.72188 32.7956-25.53973 32.89017-26.04611 32.98474-26.5525 33.13644-27.35927 33.23102-27.85846 33.32559-28.35764 33.4773-29.15234 33.57185-29.64397 33.66643-30.1356 33.81812-30.91815 33.91269-31.40181 34.00726-31.88545 34.15897-32.6545 34.25352-33.1298 34.3481-33.6051 34.4998-34.36092 34.59438-34.82751 34.68895-35.29411 34.84065-36.03537 34.93521-36.49278 35.02979-36.9502 35.18147-37.6765 35.27605-38.12431 35.37062-38.57214 35.52232-39.28253 35.6169-39.72038 35.71146-40.15822 35.86316-40.85258 35.95773-41.28012 36.0523-41.70764 36.20401-42.38512 36.29858-42.80179 36.39314-43.21846 36.54483-43.87776 36.6394-44.28322 36.73398-44.68867 36.88568-45.3302 36.98026-45.724 37.07481-46.11781 37.22652-46.73973 37.32109-47.12154 37.41566-47.50333 37.56737-48.1065 37.66194-48.47581 37.7565-48.84514 37.9082-49.42714 38.00278-49.78337 38.09735-50.1396 38.24904-50.70044 38.34361-51.04335 38.43819-51.38626 38.58987-51.92572 38.68445-52.2549 38.77902-52.58406 38.93073-53.10095 39.0253-53.41583 39.11987-53.73071 39.27156-54.2243 39.36613-54.52443 39.46071-54.82454 39.6124-55.294 39.70697-55.57896 39.80154-55.8639 39.95323-56.30879 40.0478-56.57813 40.14238-56.84746 40.29408-57.26694 40.38866-57.52019 40.48323-57.77344 40.63493-58.16675 40.72949-58.40343 40.82407-58.6401 40.97575-59.00647 41.07033-59.2261 41.1649-59.44576 41.3166-59.7844 41.41116-59.98651 41.50574-60.18864 41.65744-60.4988 41.75201-60.6829 41.84659-60.867 41.99829-61.14792 42.09285-61.31354 42.18742-61.47917 42.33911-61.73004 42.43369-61.87671 42.52826-62.02338 42.67996-62.24344 42.77454-62.37067 42.8691-62.4979 43.0208-62.6864 43.11537-62.7937 43.20995-62.90099 43.36165-63.0572 43.45622-63.14404 43.55078-63.23088 43.70247-63.35374 43.79704-63.41957 43.89162-63.4854 44.04332-63.57413 44.1379-63.61855 44.23245-63.66295 44.38416-63.71721 44.47873-63.73965 44.5733-63.76208 44.725-63.78036 44.81958-63.7803 44.91414-63.78024 45.06584-63.76218 45.16042-63.73921 45.25499-63.71625 45.40668-63.66121 45.50125-63.61465 45.59583-63.56808 45.74751-63.4742 45.84209-63.40356 45.93666-63.33295 46.08836-63.20073 46.18294-63.10555 46.27751-63.01038 46.4292-62.83789 46.52377-62.71756 46.61835-62.59724 46.77003-62.38431 46.86461-62.23831 46.95918-62.0923 47.11087-61.83743 47.20544-61.66519 47.30002-61.49295 47.45172-61.19586 47.5463-60.99693 47.64087-60.79799 47.79257-60.45752 47.88713-60.23132 47.9817-60.00514 48.13339-59.62071 48.22797-59.36668 48.32254-59.11266 48.47424-58.68288 48.5688-58.4004 48.66338-58.11792 48.81508-57.64218 48.90965-57.33073 49.00423-57.01927 49.15593-56.49658 49.25049-56.15552 49.34506-55.81447 49.49675-55.24373 49.59132-54.87262 49.6859-54.5015 49.8376-53.8825 49.93217-53.48071 50.02673-53.07893 50.17844-52.40984 50.27301-51.97678 50.36758-51.54372 50.51929-50.82445 50.61386-50.35953 50.70842-49.8946 50.8601-49.12325 50.95468-48.6259 51.04926-48.12857 51.20096-47.30536 51.29553-46.77509 51.39009-46.24481 51.5418-45.368 51.63637-44.80399 51.73094-44.23999 51.88264-43.3083 51.97722-42.71008 52.0718-42.11188 52.22348-41.12537 52.31805-40.49246 52.41263-39.85956 52.56432-38.81691 52.65889-38.14853 52.75346-37.48016 52.90515-36.37971 52.99973-35.67528 53.0943-34.97086 53.246-33.81256 53.34058-33.07141 53.43515-32.33025 53.58684-31.11188 53.68141-30.33344 53.77599-29.55501 53.92767-28.27701 54.02225-27.46095 54.11682-26.6449 54.26851-25.3064 54.36308-24.4518 54.45766-23.5972 54.60936-22.19553 54.70393-21.3016 54.79851-20.4077 54.95021-18.94283 55.04477-18.00914 55.13934-17.07545 55.29103-15.54626 55.3856-14.57219 55.48018-13.5981 55.63188-12.00362 55.72644-10.9886 55.82101-9.9736 55.97272-8.31339 56.06729-7.25667 56.16187-6.19995 56.31357-4.47176 56.40813-3.3725 56.5027-2.27322 56.65439-.476 56.74896 .66609 56.84354 1.80821 56.99524 3.67339 57.08981 4.85912 57.18437 6.04486 57.33607 7.98215 57.43065 9.21217 57.52522 10.44221 57.67693 12.44937 57.7715 13.72441 57.86606 14.99947 58.01775 17.0811 58.11232 18.40189 58.2069 19.72266 58.3586 21.87685 58.45317 23.24371 58.54773 24.61058 58.69943 26.83926 58.794 28.25337 58.88858 29.66748 59.04028 31.9738 59.13486 33.43561 59.22943 34.89742 59.38112 37.27919 59.4757 38.78914 59.57027 40.29907 59.72195 42.75922 59.81653 44.31825 59.9111 45.8773 60.06279 48.41676 60.15736 50.0256 60.25194 51.63445 60.40364 54.25443 60.49821 55.91374 60.59279 57.57304 60.74448 60.2744 60.83905 61.98485 60.93362 63.6953 61.08531 66.4792 61.17989 68.2415 61.27446 70.00381 61.42616 72.87144 61.52072 74.68633 61.6153 76.50119 61.767 79.45372 61.86157 81.32188 61.95615 83.19003 62.10785 86.22891 62.20241 88.15079 62.29698 90.07268 62.44867 93.19687 62.54324 95.17348 62.63782 97.15009 62.78952 100.3645 62.88408 102.39687 62.97865 104.42924 63.13036 107.73308 63.22493 109.82138 63.3195 111.90967 63.4712 115.3027 63.56577 117.44789 63.66034 119.59308 63.81203 123.07965 63.9066 125.28244 64.00117 127.48524 64.15288 131.06296 64.24745 133.3242 64.34201 135.58545 64.49371 139.25968 64.58829 141.58005 64.68286 143.90042 64.83456 147.66796 64.92914 150.04785 65.0237 152.42775 65.17538 156.2919 65.26996 158.73278 65.36453 161.17365 65.51624 165.13776 65.61081 167.64003 65.70537 170.14232 65.85707 174.20336 65.95164 176.76744 66.04622 179.33153 66.19792 183.49324 66.2925 186.12021 66.38707 188.7472 66.53876 193.01027 66.63333 195.70093 66.7279 198.39159 66.8796 202.7571 66.97417 205.51262 67.06874 208.26815 67.22043 212.74016 67.315 215.56092 67.40958 218.38167 67.56128 222.95677 67.65585 225.84278 67.75043 228.72878 67.90211 233.40843 67.99669 236.36124 68.09126 239.31404 68.24295 244.10373 68.33752 247.12451 68.4321 250.1453 68.5838 255.04389 68.67836 258.13304 68.77293 261.22218 68.92464 266.23063 69.01921 269.38899 69.11378 272.54734 69.26549 277.6683 69.36005 280.8962 69.45462 284.1241 69.60631 289.3548 69.70088 292.65348 69.79546 295.95213 69.94716 301.3 70.04172 304.6707 70.13629 308.04136 70.288 313.50434 70.38257 316.94697 70.47714 320.38957 70.62885 325.96687 70.7234 329.48277 70.81798 332.99867 70.96967 338.6973 71.06424 342.2872 71.15881 345.87709 71.31052 351.6916 71.40509 355.35636 71.49965 359.02107 71.65135 364.95973 71.74593 368.70014 71.8405 372.44056 71.9922 378.49827 72.08678 382.3147 72.18134 386.13117 72.33302 392.3127 72.4276 396.2065 72.52217 400.1003 72.67387 406.40614 72.76845 410.37864 72.863 414.35115 73.01471 420.78599 73.10928 424.83753 73.20386 428.889 73.35556 435.44834 73.45013 439.57926 73.54471 443.7102 73.6964 450.39878 73.79097 454.6104 73.88554 458.82206 74.03723 465.64073 74.1318 469.9339 74.22638 474.22715 74.37807 481.1772 74.47264 485.55287 74.56721 489.9285 74.71892 497.01173 74.81349 501.4707 74.90807 505.92967 75.05975 513.14749 75.15433 517.69 75.2489 522.23257 75.40059 529.5827 75.49516 534.2104 75.58974 538.838 75.74144 546.32888 75.836 551.043 75.93057 555.75717 76.08228 563.38577 76.17685 568.18667 76.27142 572.98757 76.42313 580.7567 76.51768 585.6447 76.61226 590.5328 76.76395 598.4394 76.85852 603.416 76.9531 608.3926 77.1048 616.4465 77.19936 621.5125 77.29393 626.57858 77.44563 634.77236 77.5402 639.9287 77.63478 645.0851 77.78648 653.4286 77.88106 658.6762 77.97562 663.9238 78.1273 672.41006 78.22188 677.7498 78.31645 683.0896 78.46815 691.7288 78.56273 697.1617 78.65729 702.59457 78.80899 711.37997 78.90356 716.9062 78.99814 722.43246 79.14984 731.3693 79.24442 736.9911 79.33897 742.6128 79.49066 751.70626 79.58524 757.42379 79.67981 763.14126 79.83151 772.3853 79.92609 778.199 80.02065 784.01266 80.17235 793.41329 80.26692 799.3246 80.3615 805.2359 80.5132 814.7937 80.60777 820.8035 80.70235 826.8134 80.85403 836.53 80.94861 842.63937 81.04318 848.7487 81.19487 858.6257 81.28944 864.8355 81.38402 871.0453 81.5357 881.0842 81.63028 887.3954 81.72485 893.70657 81.87656 903.9085 81.97113 910.322 82.0657 916.7356 82.21739 927.10366 82.31197 933.6198 82.40654 940.136 82.55823 950.6658 82.6528 957.28616 82.74738 963.9065 82.89908 974.6085 82.99364 981.33486 83.08821 988.0611 83.23991 998.93289 83.33449 1005.7646 83.42906 1012.5963 83.58076 1023.6344 83.67532 1030.5733 83.7699 1037.5121 83.92159 1048.7273 84.01616 1055.775 84.11073 1062.8228 84.26244 1074.2123 84.357 1081.3683 84.45157 1088.5244 84.60327 1100.0848 84.69785 1107.3508 84.79242 1114.617 85.0387 1133.7374 85.0387 1133.7374"/>
</g>
</svg>
