<svg xmlns="http://www.w3.org/2000/svg" xmlns:xlink="http://www.w3.org/1999/xlink" version="1.1" width="286" height="21" viewBox="0 0 286 21">
<defs>
<path id="font_1_1" d="M.38198854 .3803711C.36299134 .41638185 .33198548 .4423828 .2869873 .4423828 .17098999 .4423828 .041992189 .30433656 .041992189 .1512909 .041992189 .041259767 .11199951-.0107421879 .1789856-.0107421879 .24398804-.0107421879 .29699708 .043258668 .31298829 .06227112 .32398988 .007247925 .37399293-.0107421879 .4059906-.0107421879 .43499757-.0107421879 .45999146 .002243042 .48199464 .044265748 .5 .07727051 .5139923 .13928223 .5139923 .14329529 .5139923 .14828491 .5109863 .1552887 .5009918 .1552887 .4889984 .1552887 .48799134 .15029907 .48399354 .13128662 .46199037 .044265748 .43998719 .014251709 .40899659 .014251709 .38398744 .014251709 .37799073 .038253786 .37799073 .060272218 .37799073 .07926941 .3829956 .09927368 .3919983 .1342926L.4169922 .23731995C.42399598 .2623291 .44198609 .33735658 .44599916 .35235597 .44999696 .36636354 .45599366 .3903656 .45599366 .39337159 .45599366 .40937806 .44299317 .42237855 .4249878 .42237855 .4119873 .42237855 .3869934 .41438294 .38198854 .3803711M.31698609 .122283939C.31199647 .103271488 .31199647 .10227966 .29599 .08326721 .2599945 .040252687 .21899414 .014251709 .18199158 .014251709 .1329956 .014251709 .115997318 .06526184 .115997318 .10827637 .115997318 .15730286 .14498902 .27233888 .16899109 .32034303 .20098877 .3803711 .24699402 .41737367 .2869873 .41737367 .35398866 .41737367 .36898805 .33735658 .36898805 .33035279 .36898805 .3253479 .36698915 .3193512 .3659973 .31533814L.31698609 .122283939Z"/>
<path id="font_1_2" d="M.23899842 .6603241C.24299622 .67433169 .24299622 .67633059 .24299622 .68032839 .24299622 .68933108 .23699951 .69433596 .22799683 .69433596 .21398926 .69433596 .12599182 .6863251 .10598755 .6843262 .09599304 .68333438 .084991458 .6823273 .084991458 .665329 .084991458 .6523285 .09599304 .6523285 .11199951 .6523285 .15899658 .6523285 .15899658 .6453247 .15899658 .6363373 .15899658 .6303406 .15899658 .6283264 .1519928 .6013336L.09899902 .3903656C.084991458 .3343506 .07199097 .28334046 .06098938 .23631287 .053985597 .21131897 .04699707 .18130493 .04699707 .14929199 .04699707 .06326294 .09498596-.0107421879 .18099976-.0107421879 .2979889-.0107421879 .42599488 .13027954 .42599488 .28033448 .42599488 .38237 .36299134 .4423828 .28799439 .4423828 .23699951 .4423828 .19299317 .40737916 .16999817 .38536073L.23899842 .6603241M.1559906 .32835389C.18399048 .36836244 .23498535 .41737367 .28599549 .41737367 .33299256 .41737367 .35198976 .37036134 .35198976 .323349 .35198976 .27833558 .32398988 .15429688 .29299928 .10127258 .2559967 .037261964 .21199036 .014251709 .18099976 .014251709 .1309967 .014251709 .11099243 .06427002 .11099243 .11528015 .11099243 .15029907 .117996219 .17730713 .14099121 .2683258L.1559906 .32835389Z"/>
</defs>
<path transform="matrix(1.00003,0,0,-1.00005,143.23177,4.6884357)" stroke-width="1.19553" stroke-linecap="butt" stroke-miterlimit="10" stroke-linejoin="miter" fill="none" stroke="#000000" d="M-140.77762 0H140.77762"/>
<path transform="matrix(-1.00003,-0,0,1.00005,2.4499207,4.6884357)" stroke-width=".9564" stroke-linecap="round" stroke-linejoin="round" fill="none" stroke="#000000" d="M-1.91284 2.55046C-1.75343 1.59402 0 .15938 .4782 0 0-.15938-1.75343-1.59402-1.91284-2.55046"/>
<path transform="matrix(1.00003,0,0,-1.00005,284.0136,4.6884357)" stroke-width=".9564" stroke-linecap="round" stroke-linejoin="round" fill="none" stroke="#000000" d="M-1.91284 2.55046C-1.75343 1.59402 0 .15938 .4782 0 0-.15938-1.75343-1.59402-1.91284-2.55046"/>
<path transform="matrix(1.00003,0,0,-1.00005,143.23177,4.6884357)" stroke-width="1.19553" stroke-linecap="butt" stroke-miterlimit="10" stroke-linejoin="miter" fill="none" stroke="#0000ff" d="M-85.04042 0H113.38724"/>
<path transform="matrix(1.00003,0,0,-1.00005,143.23177,4.6884357)" d="M-82.54973 0C-82.54973 1.37558-83.66484 2.49069-85.04042 2.49069-86.416 2.49069-87.53111 1.37558-87.53111 0-87.53111-1.37558-86.416-2.49069-85.04042-2.49069-83.66484-2.49069-82.54973-1.37558-82.54973 0ZM-85.04042 0" fill="#ffffff"/>
<path transform="matrix(1.00003,0,0,-1.00005,143.23177,4.6884357)" stroke-width="1.19553" stroke-linecap="butt" stroke-miterlimit="10" stroke-linejoin="miter" fill="none" stroke="#0000ff" d="M-82.54973 0C-82.54973 1.37558-83.66484 2.49069-85.04042 2.49069-86.416 2.49069-87.53111 1.37558-87.53111 0-87.53111-1.37558-86.416-2.49069-85.04042-2.49069-83.66484-2.49069-82.54973-1.37558-82.54973 0ZM-85.04042 0"/>
<path transform="matrix(1.00003,0,0,-1.00005,143.23177,4.6884357)" d="M115.87793 0C115.87793 1.37558 114.76282 2.49069 113.38724 2.49069 112.01166 2.49069 110.89655 1.37558 110.89655 0 110.89655-1.37558 112.01166-2.49069 113.38724-2.49069 114.76282-2.49069 115.87793-1.37558 115.87793 0ZM113.38724 0" fill="#0000ff"/>
<path transform="matrix(1.00003,0,0,-1.00005,143.23177,4.6884357)" stroke-width="1.19553" stroke-linecap="butt" stroke-miterlimit="10" stroke-linejoin="miter" fill="none" stroke="#0000ff" d="M115.87793 0C115.87793 1.37558 114.76282 2.49069 113.38724 2.49069 112.01166 2.49069 110.89655 1.37558 110.89655 0 110.89655-1.37558 112.01166-2.49069 113.38724-2.49069 114.76282-2.49069 115.87793-1.37558 115.87793 0ZM113.38724 0"/>
<use data-text="a" xlink:href="#font_1_1" transform="matrix(8.966669,0,0,-8.966848,55.74814,17.051053)"/>
<use data-text="b" xlink:href="#font_1_2" transform="matrix(8.966669,0,0,-8.966848,254.64812,19.417172)"/>
</svg>
