<svg xmlns="http://www.w3.org/2000/svg" xmlns:xlink="http://www.w3.org/1999/xlink" version="1.1" width="307" height="308" viewBox="0 0 307 308">
<defs>
<path id="font_1_1" d="M.33399964 .30233766C.33999635 .32835389 .36299134 .42037965 .43299867 .42037965 .43798829 .42037965 .46199037 .42037965 .48298646 .40734864 .45498658 .402359 .43499757 .37734986 .43499757 .35334779 .43499757 .33735658 .44599916 .31835938 .47299195 .31835938 .49499513 .31835938 .5269928 .3363495 .5269928 .37635804 .5269928 .42837525 .46798707 .4423828 .43399049 .4423828 .37599183 .4423828 .34098817 .38935853 .32899476 .36634828 .3039856 .43237306 .25 .4423828 .22099304 .4423828 .116989139 .4423828 .05999756 .3133545 .05999756 .28834535 .05999756 .27833558 .069992069 .27833558 .07199097 .27833558 .07998657 .27833558 .08299255 .28033448 .084991458 .28933717 .11898804 .39535523 .18499756 .42037965 .21899414 .42037965 .23799134 .42037965 .272995 .4113617 .272995 .35334779 .272995 .32235719 .2559967 .25532533 .21899414 .11528015 .20298767 .053268434 .16799927 .011245728 .12399292 .011245728 .117996219 .011245728 .09498596 .011245728 .07398987 .024276734 .09899902 .029266358 .12098694 .05027771 .12098694 .07827759 .12098694 .105270389 .09899902 .11328125 .083999637 .11328125 .053985597 .11328125 .0289917 .08728027 .0289917 .055267335 .0289917 .009246826 .07899475-.0107421879 .12298584-.0107421879 .18899536-.0107421879 .22499085 .059280397 .22799683 .0652771 .23999024 .028274537 .27598573-.0107421879 .33599855-.0107421879 .43899537-.0107421879 .49598695 .118270877 .49598695 .14328003 .49598695 .1532898 .4869995 .1532898 .48399354 .1532898 .47499085 .1532898 .47299195 .14929199 .47099305 .14228821 .43798829 .03527832 .36999513 .011245728 .33799745 .011245728 .29899598 .011245728 .2829895 .043273927 .2829895 .07727051 .2829895 .09927368 .2889862 .121276859 .2999878 .16529846L.33399964 .30233766Z"/>
<path id="font_1_2" d="M.48599244 .38136292C.48999024 .39537049 .48999024 .39736939 .48999024 .40437318 .48999024 .42237855 .47599793 .43138124 .46099855 .43138124 .45098878 .43138124 .43499757 .42536927 .42599488 .41036988 .42399598 .405365 .41600038 .37435914 .4119873 .35635377 .40499879 .33035279 .397995 .30334474 .3919983 .27633668L.34700013 .09628296C.34298707 .08126831 .2999878 .011245728 .23399353 .011245728 .18299866 .011245728 .17199707 .055267335 .17199707 .0922699 .17199707 .1382904 .18899536 .20030213 .22299195 .28833009 .23899842 .3293457 .24299622 .3403473 .24299622 .36035157 .24299622 .405365 .21099854 .4423828 .16099549 .4423828 .06599426 .4423828 .0289917 .29733277 .0289917 .28833009 .0289917 .27833558 .038986207 .27833558 .040985109 .27833558 .050994874 .27833558 .051986696 .28033448 .056991579 .29634095 .083999637 .3903656 .12399292 .42037965 .1579895 .42037965 .1659851 .42037965 .18299866 .42037965 .18299866 .3883667 .18299866 .36335755 .17298889 .3373413 .1659851 .31834413 .12599182 .21231079 .10798645 .1552887 .10798645 .10827637 .10798645 .019256592 .17098999-.0107421879 .22999573-.0107421879 .2689972-.0107421879 .30299378 .0062561037 .33099366 .03425598 .31799317-.017745972 .30599977-.06674194 .2659912-.11973572 .23999024-.15385437 .20199585-.18309021 .1559906-.18309021 .14199829-.18309021 .09700012-.18005371 .07998657-.14074707 .09599304-.14074707 .10899353-.14074707 .12298584-.1287384 .1329956-.11973572 .14299011-.10673523 .14299011-.08773804 .14299011-.056747438 .115997318-.052734376 .10598755-.052734376 .08299255-.052734376 .049987794-.068740848 .049987794-.11773682 .049987794-.16796875 .09399414-.20507813 .1559906-.20507813 .25898744-.20507813 .3619995-.11373901 .3899994-.00074768069L.48599244 .38136292Z"/>
<clipPath id="clip_2">
<path transform="matrix(1.00008,0,0,-1.00008,148.90847,159.47772)" d="M0-141.73404V141.73404H141.73404V-141.73404ZM141.73404 141.73404"/>
</clipPath>
<clipPath id="clip_3">
<path transform="matrix(1.00008,0,0,-1.00008,148.90847,159.47772)" d="M-141.73404 141.73404V-141.73404H0V141.73404ZM0-141.73404"/>
</clipPath>
<path id="font_4_1" d="M.44400025 .24998474C.44400025 .35688783 .35499574 .44381715 .25 .44381715 .14199829 .44381715 .054992677 .35488893 .054992677 .24998474 .054992677 .14407349 .14199829 .056137086 .25 .056137086 .35499574 .056137086 .44400025 .14308167 .44400025 .24998474Z"/>
</defs>
<path transform="matrix(1.00008,0,0,-1.00008,148.90847,159.47772)" stroke-width=".19925" stroke-linecap="butt" stroke-miterlimit="10" stroke-linejoin="miter" fill="none" stroke="#929292" d="M-141.73404-141.73404H141.73404M-141.73404-113.38724H141.73404M-141.73404-85.04042H141.73404M-141.73404-56.69362H141.73404M-141.73404-28.3468H141.73404M-141.73404 0H141.73404M-141.73404 28.3468H141.73404M-141.73404 56.69362H141.73404M-141.73404 85.04042H141.73404M-141.73404 113.38724H141.73404M-141.73404 141.72409H141.73404M-141.73404-141.73404V141.73404M-113.38724-141.73404V141.73404M-85.04042-141.73404V141.73404M-56.69362-141.73404V141.73404M-28.3468-141.73404V141.73404M0-141.73404V141.73404M28.3468-141.73404V141.73404M56.69362-141.73404V141.73404M85.04042-141.73404V141.73404M113.38724-141.73404V141.73404M141.72409-141.73404V141.73404M141.73404 141.73404"/>
<path transform="matrix(1.00008,0,0,-1.00008,148.90847,159.47772)" stroke-width="1.19553" stroke-linecap="butt" stroke-miterlimit="10" stroke-linejoin="miter" fill="none" stroke="#000000" d="M-147.40332 0H146.4469"/>
<path transform="matrix(1.00008,0,0,-1.00008,295.36708,159.47772)" stroke-width=".9564" stroke-linecap="round" stroke-linejoin="round" fill="none" stroke="#000000" d="M-1.91284 2.55046C-1.75343 1.59402 0 .15938 .4782 0 0-.15938-1.75343-1.59402-1.91284-2.55046"/>
<use data-text="x" xlink:href="#font_1_1" transform="matrix(9.963397,0,0,-9.963397,300.24256,161.6229)"/>
<path transform="matrix(1.00008,0,0,-1.00008,148.90847,159.47772)" stroke-width="1.19553" stroke-linecap="butt" stroke-miterlimit="10" stroke-linejoin="miter" fill="none" stroke="#000000" d="M0-147.40332V146.4469"/>
<path transform="matrix(0,-1.00008,-1.00008,-0,148.90847,13.019104)" stroke-width=".9564" stroke-linecap="round" stroke-linejoin="round" fill="none" stroke="#000000" d="M-1.91284 2.55046C-1.75343 1.59402 0 .15938 .4782 0 0-.15938-1.75343-1.59402-1.91284-2.55046"/>
<use data-text="y" xlink:href="#font_1_2" transform="matrix(9.963397,0,0,-9.963397,146.28726,6.2064669)"/>
<g clip-path="url(#clip_2)">
<path transform="matrix(1.00008,0,0,-1.00008,148.90847,159.47772)" stroke-width=".79701" stroke-linecap="butt" stroke-miterlimit="10" stroke-linejoin="miter" fill="none" stroke="#0000ff" d="M0 85.04042C0 85.04042 .20499 85.04146 .28372 85.043 .36246 85.04456 .48874 85.04848 .56747 85.05165 .6462 85.05484 .77248 85.0612 .85121 85.06593 .92995 85.07066 1.05623 85.07954 1.13496 85.08583 1.21368 85.09212 1.33997 85.1035 1.4187 85.11136 1.49744 85.11922 1.62372 85.13307 1.70245 85.14249 1.78117 85.1519 1.90746 85.16823 1.98619 85.17926 2.06493 85.19029 2.19121 85.20949 2.26994 85.22209 2.34866 85.2347 2.47495 85.25594 2.55368 85.2701 2.63242 85.28424 2.7587 85.30836 2.83743 85.32416 2.91615 85.33994 3.04243 85.36652 3.12117 85.38385 3.1999 85.40118 3.32619 85.43027 3.40492 85.44916 3.48364 85.46805 3.60992 85.49959 3.68866 85.52011 3.7674 85.54063 3.89368 85.57501 3.97241 85.59709 4.05113 85.61916 4.17741 85.65562 4.25615 85.67928 4.33488 85.70291 4.46117 85.74231 4.5399 85.76752 4.61862 85.79272 4.7449 85.83418 4.82364 85.86093 4.90237 85.8877 5.02866 85.93204 5.10739 85.96042 5.18611 85.9888 5.3124 86.0356 5.39113 86.06554 5.46986 86.09547 5.59615 86.14476 5.67488 86.17625 5.7536 86.20775 5.87988 86.25949 5.95862 86.2926 6.03735 86.32573 6.16364 86.38034 6.24237 86.41501 6.32109 86.44969 6.44737 86.50638 6.52611 86.54262 6.60484 86.57886 6.73112 86.63841 6.80986 86.67627 6.88858 86.71414 7.01486 86.7762 7.0936 86.81555 7.17233 86.85492 7.29861 86.9191 7.37735 86.96002 7.45607 87.00095 7.58235 87.06795 7.66109 87.11053 7.73982 87.15314 7.8661 87.22296 7.94484 87.26712 8.02356 87.31128 8.14986 87.38322 8.22858 87.4289 8.30731 87.47456 8.4336 87.54901 8.51233 87.59628 8.59105 87.64357 8.71735 87.72083 8.79607 87.76973 8.8748 87.81863 9.00108 87.89839 9.07982 87.9488 9.15854 87.9992 9.28484 88.0811 9.36356 88.13307 9.44229 88.18503 9.56857 88.26979 9.64731 88.32338 9.72603 88.37697 9.85233 88.46413 9.93105 88.51932 10.00978 88.57452 10.13606 88.66455 10.2148 88.72131 10.29352 88.77808 10.41982 88.87022 10.49854 88.9285 10.57727 88.98677 10.70355 89.08142 10.78229 89.14131 10.86102 89.20119 10.9873 89.29866 11.06602 89.36017 11.14476 89.42168 11.27104 89.52159 11.34978 89.58466 11.42851 89.64774 11.5548 89.75015 11.63351 89.81477 11.71225 89.8794 11.83853 89.98431 11.91727 90.0505 11.996 90.1167 12.12228 90.2241 12.201 90.29185 12.27974 90.3596 12.40602 90.46953 12.48476 90.53883 12.56349 90.60814 12.68977 90.7205 12.7685 90.79144 12.84723 90.86237 12.97351 90.97755 13.05225 91.0501 13.13098 91.12263 13.25726 91.24028 13.33598 91.31439 13.41472 91.38849 13.541 91.50867 13.61974 91.58427 13.69847 91.6599 13.82475 91.78215 13.90347 91.85938 13.98221 91.9366 14.10849 92.0621 14.18723 92.14096 14.26596 92.21982 14.39224 92.34738 14.47096 92.42773 14.5497 92.50809 14.67598 92.63815 14.75471 92.72012 14.83345 92.8021 14.95973 92.93504 15.03845 93.01857 15.11719 93.10211 15.24347 93.23714 15.3222 93.32222 15.40094 93.4073 15.52722 93.5452 15.60594 93.63191 15.68468 93.71863 15.81096 93.85895 15.8897 93.94724 15.96843 94.0355 16.09471 94.17834 16.17343 94.26817 16.25217 94.358 16.37845 94.50336 16.45718 94.59474 16.53592 94.68614 16.6622 94.83392 16.74092 94.92694 16.81966 95.01996 16.94594 95.17061 17.02467 95.26518 17.10341 95.35976 17.22969 95.51247 17.30841 95.60861 17.38715 95.70474 17.51343 95.86035 17.59216 95.9581 17.6709 96.05585 17.79718 96.21391 17.8759 96.31322 17.95464 96.41254 18.08092 96.57307 18.15965 96.67395 18.23839 96.77483 18.36467 96.93788 18.44339 97.04031 18.52213 97.14275 18.6484 97.3083 18.72714 97.4123 18.80588 97.5163 18.93216 97.68428 19.0109 97.78992 19.08961 97.89554 19.2159 98.06639 19.29463 98.17357 19.37337 98.28073 19.49965 98.45367 19.57838 98.56241 19.6571 98.67116 19.78339 98.84698 19.86212 98.95734 19.94086 99.06769 20.06714 99.24594 20.14587 99.35786 20.2246 99.46977 20.35088 99.65053 20.42961 99.764 20.50835 99.87749 20.63463 100.06075 20.71336 100.17578 20.79208 100.29082 20.91837 100.47653 20.9971 100.59319 21.07584 100.70984 21.20212 100.8984 21.28085 101.01663 21.35957 101.13486 21.48586 101.32552 21.56459 101.44528 21.64333 101.56506 21.7696 101.75859 21.84834 101.87999 21.92706 102.00139 22.05334 102.19742 22.13208 102.32031 22.21082 102.4432 22.3371 102.6413 22.41583 102.76582 22.49455 102.89034 22.62083 103.09167 22.69957 103.21782 22.7783 103.34396 22.90459 103.5474 22.98332 103.67502 23.06204 103.80266 23.18832 104.00864 23.26706 104.13783 23.3458 104.26703 23.47208 104.47543 23.55081 104.60626 23.62953 104.73709 23.75581 104.94832 23.83455 105.08076 23.91328 105.21321 24.03957 105.42688 24.1183 105.56088 24.19702 105.6949 24.3233 105.91107 24.40204 106.04662 24.48077 106.18217 24.60706 106.40086 24.68579 106.53798 24.76451 106.67511 24.8908 106.89629 24.96953 107.03497 25.04826 107.17366 25.17455 107.39735 25.25328 107.53758 25.332 107.67783 25.45828 107.90396 25.53702 108.04582 25.61575 108.18768 25.74203 108.41661 25.82077 108.5601 25.89949 108.7036 26.02577 108.93503 26.1045 109.08002 26.18324 109.22499 26.30952 109.45857 26.38826 109.60512 26.46698 109.75166 26.59326 109.9881 26.672 110.13628 26.75073 110.28445 26.87701 110.52327 26.95575 110.67305 27.03447 110.82285 27.16077 111.06453 27.23949 111.21588 27.31822 111.36723 27.4445 111.61107 27.52324 111.7639 27.60196 111.91675 27.72826 112.16309 27.80698 112.31757 27.88571 112.47203 28.012 112.72118 28.09073 112.87727 28.16945 113.03336 28.29575 113.285 28.37447 113.44258 28.4532 113.60016 28.57948 113.85396 28.65822 114.0131 28.73694 114.17226 28.86324 114.42886 28.94196 114.58968 29.02069 114.7505 29.14697 115.00992 29.22571 115.1723 29.30443 115.3347 29.43073 115.59624 29.50945 115.76012 29.58818 115.92401 29.71446 116.18806 29.7932 116.35356 29.87193 116.51907 29.99821 116.786 30.07693 116.95306 30.15567 117.12013 30.28195 117.38913 30.36069 117.55775 30.43942 117.7264 30.5657 117.99825 30.64442 118.1685 30.72316 118.33875 30.84944 118.61305 30.92818 118.78487 31.00691 118.95668 31.1332 119.23347 31.21191 119.40685 31.29065 119.58023 31.41693 119.85947 31.49567 120.03447 31.5744 120.20946 31.70068 120.4916 31.7794 120.66814 31.85814 120.8447 31.98442 121.12889 32.06316 121.30699 32.14189 121.48509 32.26817 121.77223 32.3469 121.9519 32.42563 122.13158 32.55191 122.42078 32.63065 122.60202 32.70938 122.78325 32.83566 123.07533 32.91438 123.25818 32.99312 123.44102 33.1194 123.73553 33.19814 123.91995 33.27687 124.10437 33.40315 124.40138 33.48187 124.58737 33.56061 124.77335 33.68689 125.0728 33.76563 125.26039 33.84436 125.44798 33.97064 125.75032 34.04936 125.93947 34.1281 126.12863 34.25438 126.43303 34.33311 126.62375 34.41185 126.81447 34.53813 127.12175 34.61685 127.31409 34.69559 127.50642 34.82187 127.81613 34.9006 128.01003 34.97934 128.20394 35.10562 128.51616 35.18434 128.71161 35.26308 128.90708 35.38936 129.2218 35.4681 129.41881 35.54683 129.61583 35.67311 129.93305 35.75183 130.13164 35.83057 130.33022 35.95685 130.64989 36.03558 130.85009 36.11432 131.05028 36.2406 131.37282 36.31932 131.57457 36.39806 131.77634 36.52434 132.10094 36.60307 132.30428 36.68181 132.5076 36.80809 132.83509 36.88681 133.04001 36.96555 133.24495 37.09183 133.57488 37.17056 133.78139 37.2493 133.98789 37.37558 134.32033 37.4543 134.52838 37.53304 134.73644 37.65932 135.07138 37.73805 135.281 37.81679 135.49062 37.94307 135.82807 38.0218 136.03925 38.10052 136.25043 38.2268 136.5903 38.30554 136.8031 38.38428 137.0159 38.51056 137.35866 38.5893 137.57302 38.66801 137.78739 38.7943 138.13219 38.87303 138.34812 38.95177 138.56406 39.07805 138.91175 39.15678 139.12929 39.2355 139.34683 39.36179 139.69698 39.44052 139.91608 39.51926 140.1352 39.64554 140.48783 39.72427 140.70848 39.803 140.92914 39.92928 141.28423 40.00801 141.50652 40.08675 141.72879 40.21303 142.08676 40.29176 142.31061 40.37048 142.53446 40.49677 142.89449 40.5755 143.11989 40.65424 143.34529 40.78052 143.70827 40.85925 143.93523 40.93797 144.16219 41.06425 144.5272 41.14299 144.75574 41.22173 144.98427 41.348 145.35219 41.42674 145.58234 41.50546 145.81247 41.63174 146.18283 41.71048 146.41454 41.78922 146.64624 41.9155 147.0191 41.99423 147.25237 42.07295 147.48563 42.19923 147.86092 42.27797 148.0958 42.3567 148.33069 42.48299 148.70886 42.56172 148.94532 42.64044 149.18177 42.76672 149.562 42.84546 149.8 42.9242 150.038 43.05048 150.42113 43.12921 150.66075 43.20793 150.90038 43.33421 151.286 43.41295 151.52713 43.49168 151.76827 43.61797 152.156 43.6967 152.39868 43.77542 152.64138 43.9017 153.03194 43.98044 153.2763 44.05917 153.52068 44.18546 153.91407 44.26419 154.15999 44.34291 154.40592 44.4692 154.80142 44.54793 155.04885 44.62666 155.29628 44.75294 155.69429 44.83168 155.94335 44.9104 156.1924 45.03668 156.59322 45.11542 156.84389 45.19415 157.09455 45.32043 157.49788 45.39917 157.75006 45.47789 158.00223 45.60417 158.40769 45.6829 158.6614 45.76164 158.91515 45.88792 159.32347 45.96666 159.57883 46.04538 159.83417 46.17168 160.24489 46.2504 160.50186 46.32913 160.75884 46.45541 161.17243 46.53415 161.43096 46.61287 161.68949 46.73917 162.1052 46.81789 162.36522 46.89662 162.62526 47.0229 163.04347 47.10164 163.30513 47.18036 163.56679 47.30666 163.98783 47.38538 164.25109 47.46411 164.51436 47.5904 164.93784 47.66913 165.20267 47.74785 165.46752 47.87415 165.89348 47.95287 166.15988 48.0316 166.42629 48.15788 166.85477 48.23662 167.12271 48.31534 167.39067 48.44164 167.82166 48.52036 168.09117 48.59909 168.36069 48.72537 168.79416 48.80411 169.06523 48.88284 169.33632 49.00912 169.77225 49.08784 170.04494 49.16658 170.31764 49.29286 170.75638 49.3716 171.0307 49.45033 171.30503 49.57661 171.7462 49.65533 172.02207 49.73407 172.29795 49.86035 172.7417 49.93909 173.01908 50.01782 173.29645 50.1441 173.74227 50.22282 174.02127 50.30156 174.30027 50.42784 174.74933 50.50658 175.02996 50.58531 175.31056 50.7116 175.76169 50.79031 176.04381 50.86905 176.32593 50.99533 176.77956 51.07407 177.06331 51.1528 177.34705 51.27908 177.80356 51.3578 178.08885 51.43654 178.37416 51.56282 178.83272 51.64156 179.11959 51.72029 179.40645 51.84657 179.8679 51.9253 180.15639 52.00403 180.44487 52.13031 180.90877 52.20905 181.1988 52.28778 181.48885 52.41406 181.95525 52.49278 182.24684 52.57152 182.53845 52.6978 183.00736 52.77654 183.3005 52.85527 183.59366 52.98155 184.065 53.06027 184.35979 53.139 184.65456 53.26529 185.12879 53.34402 185.42514 53.42276 185.72148 53.54904 186.19776 53.62776 186.49567 53.7065 186.79357 53.83278 187.27272 53.91151 187.57225 53.99025 187.87177 54.11653 188.3534 54.19525 188.65447 54.27399 188.95554 54.40027 189.43964 54.479 189.74228 54.55774 190.04492 54.68402 190.53154 54.76274 190.83576 54.84148 191.13996 54.96776 191.62906 55.0465 191.93482 55.12523 192.24059 55.25151 192.73215 55.33023 193.03954 55.40897 193.34693 55.53525 193.84134 55.61398 194.15029 55.69272 194.45922 55.819 194.95574 55.89772 195.26622 55.97646 195.57672 56.10274 196.07611 56.18147 196.38825 56.26021 196.70037 56.38649 197.20218 56.46521 197.51587 56.54395 197.82955 56.67023 198.33386 56.74896 198.64911 56.8277 198.96436 56.95398 199.47118 57.03271 199.78798 57.11143 200.10478 57.23772 200.61406 57.31645 200.93248 57.39519 201.2509 57.52147 201.76305 57.6002 202.08304 57.67892 202.40303 57.8052 202.91722 57.88394 203.23877 57.96268 203.56032 58.08896 204.07741 58.1677 204.40056 58.24641 204.72373 58.3727 205.24332 58.45143 205.56798 58.53017 205.89266 58.65645 206.4143 58.73518 206.7406 58.8139 207.0669 58.94019 207.5918 59.01892 207.91971 59.09766 208.2476 59.22394 208.77458 59.30267 209.10399 59.3814 209.43341 59.50768 209.96294 59.58641 210.2939 59.66515 210.62487 59.79143 211.15685 59.87016 211.48943 59.94888 211.82202 60.07516 212.35681 60.1539 212.69103 60.23264 213.02524 60.35892 213.56249 60.43765 213.89824 60.51637 214.23401 60.64265 214.77375 60.72139 215.11107 60.80013 215.44841 60.9264 215.99065 61.00514 216.32955 61.08386 216.66844 61.21014 217.21317 61.28888 217.55362 61.36761 217.89408 61.4939 218.44132 61.57263 218.78333 61.65135 219.12534 61.77763 219.67502 61.85637 220.01865 61.9351 220.36228 62.06139 220.91478 62.14012 221.26003 62.21884 221.60529 62.34512 222.1603 62.42386 222.50705 62.5026 222.8538 62.62888 223.41094 62.70761 223.75923 62.78633 224.10755 62.91261 224.66756 62.99135 225.01749 63.07008 225.36742 63.19637 225.92981 63.2751 226.28137 63.35382 226.63292 63.4801 227.1982 63.55884 227.5513 63.63757 227.90442 63.76385 228.4718 63.84259 228.82642 63.92131 229.18103 64.04759 229.75093 64.12633 230.10718 64.20506 230.46341 64.33134 231.03612 64.41008 231.39397 64.4888 231.75183 64.61508 232.32704 64.69382 232.6864 64.77255 233.04576 64.89883 233.6231 64.97757 233.98401 65.05629 234.34493 65.18259 234.92508 65.2613 235.28768 65.34004 235.65027 65.46632 236.23323 65.54506 236.5974 65.62378 236.96157 65.75008 237.54668 65.8288 237.91233 65.90753 238.27797 66.03381 238.86557 66.11255 239.23287 66.19127 239.60015 66.31757 240.19062 66.39629 240.55945 66.47502 240.92827 66.6013 241.52083 66.68004 241.89122 66.75876 242.26163 66.88506 242.85706 66.96378 243.22908 67.04251 243.6011 67.1688 244.19896 67.24753 244.57254 67.32626 244.9461 67.45255 245.54648 67.53127 245.92162 67.61 246.29677 67.73628 246.89957 67.81502 247.27634 67.89375 247.65309 68.02003 248.25878 68.09875 248.63709 68.17749 249.01541 68.30377 249.62317 68.3825 250.00305 68.46124 250.38294 68.58752 250.9936 68.66624 251.37506 68.74498 251.7565 68.87126 252.36927 68.95 252.75226 69.02873 253.13527 69.15501 253.7509 69.23373 254.13553 69.31247 254.52014 69.43875 255.13822 69.51749 255.5244 69.59622 255.91057 69.7225 256.53117 69.80122 256.9189 69.87996 257.30665 70.00624 257.92967 70.08498 258.31904 70.16371 258.7084 70.29 259.3343 70.36871 259.72523 70.44745 260.11613 70.57373 260.7441 70.65247 261.13658 70.7312 261.52909 70.85748 262.1599 70.9362 262.554 71.01494 262.9481 71.14122 263.5814 71.21996 263.97706 71.29869 264.3727 71.42497 265.0085 71.5037 265.40574 71.58243 265.80296 71.70871 266.44126 71.78745 266.84004 71.86618 267.23884 71.99246 267.8796 72.07118 268.27995 72.14992 268.6803 72.2762 269.32353 72.35493 269.7255 72.43367 270.12748 72.55995 270.77357 72.63867 271.1771 72.7174 271.5806 72.84369 272.2288 72.92242 272.63389 73.00116 273.03898 73.12744 273.69004 73.20616 274.0967 73.2849 274.5034 73.41118 275.1569 73.48991 275.56517 73.56865 275.97343 73.69493 276.62944 73.77365 277.03926 73.85239 277.4491 73.97867 278.1076 74.0574 278.51899 74.13614 278.93037 74.26242 279.59138 74.34114 280.00434 74.41988 280.41728 74.54616 281.08073 74.6249 281.4953 74.70363 281.90986 74.82991 282.57618 74.90863 282.99229 74.98737 283.4084 75.11365 284.0768 75.19238 284.49449 75.27112 284.9122 75.3974 285.58348 75.47614 286.00276 75.55486 286.42207 75.68114 287.09577 75.75987 287.51664 75.83861 287.9375 75.96489 288.6137 76.04362 289.03617 76.12234 289.4586 76.24863 290.1372 76.32736 290.56129 76.4061 290.98533 76.53238 291.66685 76.61111 292.09248 76.68983 292.51808 76.81612 293.20167 76.89485 293.62886 76.97359 294.05604 77.09987 294.74256 77.1786 295.17127 77.25732 295.59999 77.3836 296.2886 77.46234 296.7189 77.54108 297.14918 77.66736 297.84065 77.7461 298.27259 77.82481 298.70448 77.9511 299.39839 78.02983 299.83186 78.10857 300.26536 78.23485 300.96177 78.31358 301.3968 78.3923 301.83183 78.51859 302.5307 78.59732 302.96733 78.67606 303.404 78.80234 304.1057 78.88107 304.5439 78.9598 304.98216 79.08607 305.68595 79.16481 306.12574 79.24355 306.5655 79.36983 307.2722 79.44856 307.7136 79.52728 308.15498 79.65356 308.86415 79.7323 309.30705 79.81104 309.7499 79.93732 310.46125 80.01605 310.9057 80.09477 311.35017 80.22105 312.0643 80.29979 312.5104 80.37852 312.95658 80.5048 313.6735 80.58354 314.1212 80.66226 314.5689 80.78854 315.28797 80.86728 315.73716 80.94601 316.18635 81.0723 316.9079 81.15103 317.35874 81.22975 317.80955 81.35603 318.53395 81.43477 318.98637 81.5135 319.4388 81.63979 320.1657 81.71852 320.61964 81.79724 321.07359 81.92352 321.8026 82.00226 322.2581 82.081 322.7136 82.20728 323.44548 82.28601 323.9026 82.36473 324.35975 82.49101 325.094 82.56975 325.55274 82.64848 326.01148 82.77477 326.74864 82.8535 327.20893 82.93222 327.66923 83.0585 328.4085 83.13724 328.8703 83.21597 329.3321 83.34225 330.07389 83.42099 330.53733 83.49971 331.00074 83.626 331.74534 83.70473 332.21037 83.78346 332.6754 83.90974 333.42247 83.98848 333.88905 84.0672 334.35566 84.1935 335.1052 84.27222 335.57337 84.35095 336.0415 84.47723 336.79356 84.55597 337.26329 84.63469 337.733 84.76099 338.48753 84.8397 338.9588 84.91844 339.43009 85.04472 340.18717 85.12346 340.66 85.20218 341.13285 85.32848 341.89234 85.4072 342.3668 85.48593 342.84126 85.61221 343.60356 85.69095 344.07963 85.76967 344.55574 85.89597 345.32048 85.97469 345.7981 86.05342 346.27574 86.1797 347.04307 86.25844 347.5222 86.33717 348.00138 86.46346 348.77073 86.54218 349.2515 86.62091 349.73225 86.7472 350.50489 86.82593 350.98728 86.90466 351.46965 87.03094 352.24436 87.10966 352.72825 87.1884 353.2121 87.31468 353.9893 87.39342 354.47483 87.47215 354.96034 87.59843 355.7404 87.67715 356.22746 87.75589 356.71455 87.88217 357.49668 87.9609 357.9853 88.03964 358.4739 88.16592 359.25895 88.24464 359.74919 88.32338 360.23945 88.44966 361.0269 88.5284 361.51869 88.60713 362.0105 88.73341 362.80046 88.81213 363.29386 88.89087 363.7872 89.01715 364.57969 89.09589 365.0746 89.17462 365.56953 89.3009 366.36445 89.37962 366.861 89.45836 367.3575 89.58464 368.1553 89.66338 368.6534 89.74211 369.15153 89.8684 369.95137 89.94711 370.45106 90.02585 370.9507 90.15213 371.75346 90.23087 372.25474 90.3096 372.756 90.43588 373.5612 90.5146 374.06404 90.59334 374.5669 90.71962 375.37458 90.79836 375.87895 90.87709 376.38337 91.00337 377.19355 91.08209 377.69953 91.16083 378.20549 91.28711 379.01814 91.36584 379.52568 91.44458 380.03324 91.57086 380.84834 91.64958 381.3575 91.72832 381.86665 91.8546 382.68464 91.93333 383.19535 92.01207 383.70606 92.13835 384.52613 92.21707 385.0384 92.2958 385.55067 92.42209 386.3736 92.50082 386.88749 92.57956 387.40138 92.70584 388.22676 92.78456 388.7422 92.8633 389.25767 92.98958 390.08555 93.06831 390.60255 93.14705 391.11958 93.27333 391.94996 93.35205 392.4685 93.43079 392.9871 93.55707 393.81993 93.6358 394.34013 93.71454 394.86033 93.84082 395.696 93.91954 396.21778 93.99828 396.7395 94.12456 397.5773 94.2033 398.1006 94.28203 398.62394 94.40831 399.46455 94.48705 399.9895 94.56577 400.51445 94.69205 401.35758 94.77078 401.884 94.84952 402.41044 94.9758 403.25566 95.05453 403.78373 95.13326 404.31178 95.25954 405.16026 95.33827 405.6899 95.417 406.2196 95.54329 407.0701 95.62202 407.6013 95.70074 408.13246 95.82703 408.98558 95.90576 409.5183 95.9845 410.05104 96.11078 410.9066 96.18951 411.44093 96.26823 411.97529 96.39452 412.83366 96.47325 413.3696 96.55199 413.9056 96.67827 414.7664 96.757 415.30397 96.83572 415.8415 96.962 416.70478 97.04074 417.24388 97.11948 417.78297 97.24576 418.64878 97.3245 419.18943 97.40321 419.7301 97.5295 420.5984 97.60823 421.1406 97.68697 421.6828 97.81325 422.55363 97.89198 423.0974 97.9707 423.64118 98.09698 424.51445 98.17572 425.05986 98.25446 425.60527 98.38074 426.4813 98.45947 427.0283 98.5382 427.57533 98.66447 428.4539 98.74321 429.0024 98.82195 429.55094 98.94823 430.43165 99.02696 430.9817 99.10568 431.53178 99.23196 432.41539 99.3107 432.96708 99.38943 433.51875 99.51572 434.40473 99.59445 434.958 99.67317 435.51136 99.79945 436.40016 99.87819 436.95506 99.95692 437.50993 100.0832 438.4009 100.16194 438.95729 100.24066 439.51365 100.36694 440.40715 100.44568 440.96513 100.52441 441.52314 100.6507 442.4194 100.72943 442.97904 100.80815 443.53865 100.93443 444.4374 101.01317 444.99855 101.0919 445.55967 101.21819 446.46058 101.29692 447.02326 101.37564 447.5859 101.50192 448.48966 101.58066 449.05403 101.6594 449.61839 101.78568 450.52494 101.86441 451.09086 101.94313 451.65675 102.06941 452.5654 102.14815 453.13285 102.22688 453.70027 102.35316 454.61143 102.4319 455.18049 102.51062 455.7495 102.63692 456.66358 102.71564 457.23417 102.79437 457.80479 102.92065 458.7209 102.99939 459.29307 103.07811 459.8652 103.2044 460.7842 103.28313 461.35798 103.36186 461.93177 103.48814 462.8532 103.56688 463.42854 103.6456 464.00389 103.7719 464.92784 103.85062 465.50474 103.92935 466.08164 104.05563 467.008 104.13437 467.58653 104.21309 468.16505 104.33939 469.0943 104.4181 469.6744 104.49684 470.2545 104.62312 471.1858 104.70186 471.76744 104.78058 472.3491 104.90688 473.28334 104.9856 473.86656 105.06433 474.44975 105.19061 475.38609 105.26935 475.97087 105.34808 476.55564 105.47437 477.4948 105.55309 478.0812 105.63182 478.6676 105.7581 479.60926 105.83684 480.1972 105.91557 480.78514 106.04185 481.72926 106.12057 482.31877 106.19931 482.9083 106.32559 483.85487 106.40433 484.446 106.48306 485.0371 106.60934 485.9866 106.68806 486.57929 106.7668 487.17198 106.89308 488.1235 106.97182 488.71775 107.05055 489.31199 107.17683 490.2664 107.25555 490.86228 107.33429 491.45817 107.46057 492.41496 107.5393 493.0124 107.61804 493.60987 107.74432 494.5692 107.82304 495.16819 107.90178 495.76719 108.02806 496.72904 108.1068 497.32957 108.18553 497.9301 108.31181 498.89448 108.39053 499.4966 108.46927 500.09873 108.59555 501.0655 108.67429 501.66926 108.75302 502.27296 108.8793 503.2426 108.95802 503.84794 109.03676 504.45323 109.16304 505.42497 109.24178 506.0318 109.32051 506.63868 109.4468 507.61329 109.52551 508.22175 109.60425 508.83024 109.73053 509.80729 109.80927 510.4173 109.888 511.02735 110.01428 512.0069 110.093 512.61849 110.17174 513.23007 110.29802 514.21218 110.37675 514.8253 110.45549 515.4385 110.58177 516.423 110.66049 517.0377 110.73923 517.65249 110.86551 518.63949 110.94424 519.2558 111.02298 519.87216 111.14926 520.862 111.22798 521.4799 111.30672 522.09786 111.433 523.0897 111.51173 523.7092 111.59047 524.3286 111.71675 525.3235 111.79547 525.9446 111.8742 526.5656 112.00049 527.5629 112.07922 528.18557 112.15796 528.80819 112.28424 529.8079 112.36296 530.4321 112.4417 531.05636 112.56798 532.05856 112.64671 532.6844 112.72545 533.3102 112.85173 534.31527 112.93045 534.9426 113.00919 535.57 113.13547 536.5772 113.2142 537.2061 113.29294 537.835 113.41922 538.84518 113.49796 539.47567 113.57668 540.10617 113.70296 541.1183 113.7817 541.75039 113.86043 542.38247 113.98671 543.39749 114.06544 544.0311 114.14417 544.6648 114.27045 545.68228 114.34918 546.31759 114.42792 546.95278 114.5542 547.9728 114.63293 548.60958 114.71165 549.24636 114.83794 550.2688 114.91667 550.9072 114.9954 551.5456 115.12169 552.5709 115.20042 553.2109 115.27914 553.8508 115.40543 554.87826 115.48416 555.5198 115.5629 556.1613 115.68918 557.1916 115.76791 557.8347 115.84663 558.4779 115.97292 559.5106 116.05165 560.1553 116.13039 560.7999 116.25667 561.83486 116.3354 562.481 116.41412 563.12728 116.5404 564.165 116.61914 564.81289 116.69788 565.46078 116.82416 566.5013 116.9029 567.15078 116.98161 567.8002 117.1079 568.84286 117.18663 569.4938 117.26537 570.1447 117.39165 571.1899 117.47038 571.84249 117.5491 572.49508 117.67538 573.543 117.75412 574.1972 117.83286 574.85147 117.95914 575.90188 118.03787 576.55758 118.1166 577.21328 118.24287 578.2658 118.32161 578.9231 118.40034 579.5804 118.52663 580.6358 118.60536 581.29476 118.68408 581.9536 118.81036 583.0114 118.8891 583.67196 118.96783 584.33248 119.09412 585.3932 119.17285 586.05526 119.25157 586.7173 119.37785 587.78018 119.45659 588.4437 119.53532 589.1073 119.6616 590.1726 119.74034 590.8378 119.81906 591.503 119.94534 592.57119 120.02408 593.238 120.10281 593.9047 120.2291 594.97537 120.30783 595.64376 120.38655 596.3121 120.51283 597.3852 120.59157 598.0551 120.6703 598.72506 120.79659 599.80068 120.87532 600.47219 120.95404 601.1436 121.08032 602.22177 121.15906 602.8948 121.2378 603.5679 121.36407 604.6485 121.44281 605.32308 121.52153 605.9977 121.64783 607.08078 121.72655 607.75698 121.80528 608.43319 121.93156 609.51907 122.0103 610.1969 122.08902 610.87478 122.21532 611.9631 122.29404 612.64248 122.37277 613.3219 122.49905 614.4128 122.57779 615.0937 122.65651 615.7746 122.7828 616.8675 122.86153 617.55007 122.94026 618.23257 123.06654 619.3288 123.14528 620.01296 123.224 620.6971 123.3503 621.79537 123.42902 622.481 123.50775 623.1666 123.63403 624.2674 123.71277 624.95468 123.79149 625.6419 123.91779 626.74557 123.9965 627.4344 124.07524 628.1232 124.20152 629.22897 124.28026 629.9193 124.359 630.60977 124.48528 631.7183 124.564 632.41036 124.64273 633.10238 124.76901 634.2134 124.84775 634.9069 124.92648 635.6005 125.05276 636.71408 125.13148 637.4092 125.21022 638.1043 125.3365 639.22036 125.41524 639.917 125.49397 640.6137 125.62025 641.7322 125.69897 642.4305 125.77771 643.1288 125.90399 644.2502 125.98273 644.95 126.06146 645.6499 126.18774 646.7733 126.26646 647.47476 126.3452 648.1762 126.47148 649.3025 126.55022 650.0055 126.62895 650.7086 126.75523 651.83737 126.83395 652.54196 126.91269 653.2465 127.03897 654.3778 127.1177 655.084 127.19644 655.79019 127.32272 656.9239 127.40144 657.6316 127.48018 658.33938 127.60646 659.4756 127.6852 660.1849 127.76393 660.89419 127.89021 662.0329 127.96893 662.7438 128.04767 663.4547 128.17395 664.59628 128.25269 665.3087 128.33142 666.0212 128.4577 667.16488 128.53643 667.8789 128.61516 668.5929 128.74144 669.7394 128.82018 670.4551 128.89891 671.1707 129.02519 672.31967 129.10391 673.0369 129.18265 673.7541 129.30893 674.9056 129.38767 675.6243 129.4664 676.34317 129.59268 677.4971 129.6714 678.2174 129.75014 678.93777 129.87642 680.0941 129.95516 680.8161 130.03389 681.538 130.16017 682.6973 130.23889 683.42086 130.31763 684.14437 130.44391 685.30569 130.52265 686.03079 130.60138 686.75588 130.72766 687.92007 130.80638 688.6468 130.88512 689.3735 131.0114 690.54019 131.09014 691.2684 131.16887 691.9966 131.29515 693.16537 131.37387 693.89517 131.4526 694.625 131.57889 695.79708 131.65763 696.52847 131.73636 697.2599 131.86264 698.43399 131.94136 699.16696 132.0201 699.8999 132.14638 701.07656 132.22512 701.81106 132.30385 702.54556 132.43013 703.7247 132.50887 704.46078 132.58759 705.1969 132.71387 706.3788 132.7926 707.1166 132.87134 707.8543 132.99762 709.0387 133.07636 709.77798 133.15508 710.5173 133.28136 711.7041 133.36009 712.445 133.43883 713.18588 133.56511 714.37527 133.64385 715.1177 133.72257 715.86007 133.84885 717.05197 133.92758 717.7959 134.00632 718.5399 134.1326 719.73428 134.21134 720.4798 134.29006 721.22537 134.41634 722.4222 134.49507 723.1693 134.5738 723.9165 134.70009 725.11618 134.77883 725.8649 134.85755 726.6137 134.98383 727.81588 135.06256 728.5661 135.1413 729.3164 135.26758 730.5206 135.34632 731.2725 135.42504 732.02438 135.55132 733.2315 135.63005 733.9849 135.70879 734.7384 135.83507 735.94796 135.9138 736.703 135.99253 737.4581 136.1188 738.6705 136.19754 739.4271 136.27628 740.1838 136.40256 741.3983 136.4813 742.15646 136.56002 742.9146 136.6863 744.13168 136.76503 744.8914 136.84377 745.6512 136.97005 746.871 137.04878 747.6324 137.1275 748.3938 137.25379 749.61618 137.33252 750.379 137.41126 751.1419 137.53754 752.36636 137.61627 753.1308 137.69499 753.89529 137.82128 755.12258 137.90001 755.8887 137.97875 756.65487 138.10503 757.88497 138.18376 758.6526 138.26248 759.4203 138.38877 760.6525 138.4675 761.4217 138.54624 762.1909 138.67252 763.42568 138.75125 764.1964 138.82997 764.9672 138.95626 766.20486 139.03499 766.97726 139.11373 767.7496 139.24 768.98928 139.31874 769.7632 139.39746 770.5371 139.52375 771.77969 139.60248 772.55526 139.68122 773.3308 139.8075 774.5758 139.88623 775.35287 139.96495 776.13 140.09123 777.3775 140.16997 778.1562 140.2487 778.9348 140.37499 780.18478 140.45372 780.9651 140.53244 781.74539 140.65874 782.99819 140.73746 783.78 140.8162 784.5619 140.94248 785.8168 141.02121 786.60018 141.09993 787.3836 141.22623 788.6414 141.30495 789.4264 141.38368 790.2113 141.5887 792.25778 141.5887 792.25778"/>
</g>
<g clip-path="url(#clip_3)">
<path transform="matrix(1.00008,0,0,-1.00008,148.90847,159.47772)" stroke-width=".79701" stroke-linecap="butt" stroke-miterlimit="10" stroke-linejoin="miter" fill="none" stroke="#0000ff" d="M-141.73404-85.04042C-141.73404-85.04042-141.52902-84.8354-141.4503-84.75668-141.37157-84.67795-141.24529-84.55167-141.16655-84.47293-141.08782-84.3942-140.96154-84.26791-140.88282-84.1892-140.80408-84.11046-140.6778-83.98418-140.59906-83.90544-140.52033-83.8267-140.39405-83.70042-140.31533-83.6217-140.23659-83.54297-140.1103-83.41669-140.03157-83.33795-139.95284-83.25922-139.82656-83.13293-139.74784-83.05421-139.6691-82.97548-139.54282-82.8492-139.46408-82.77046-139.38535-82.69173-139.25907-82.56544-139.18035-82.48672-139.10161-82.40799-138.97533-82.28171-138.89659-82.20297-138.81786-82.12424-138.69158-81.99796-138.61286-81.91924-138.53412-81.8405-138.40784-81.71422-138.3291-81.63548-138.25037-81.55675-138.12409-81.43047-138.04537-81.35173-137.96663-81.27301-137.84035-81.14673-137.76161-81.068-137.68288-80.98926-137.5566-80.86298-137.47788-80.78424-137.39914-80.70552-137.27286-80.57924-137.19412-80.5005-137.11539-80.42177-136.9891-80.29549-136.91039-80.21675-136.83165-80.13803-136.70537-80.01175-136.62664-79.93301-136.5479-79.85428-136.42162-79.728-136.3429-79.64926-136.26416-79.57054-136.13788-79.44426-136.05915-79.36552-135.98041-79.28679-135.85413-79.1605-135.77539-79.08177-135.69667-79.00305-135.57039-78.87677-135.49166-78.79803-135.41292-78.7193-135.28664-78.59302-135.2079-78.51428-135.12918-78.43556-135.0029-78.30928-134.92417-78.23055-134.84543-78.15181-134.71915-78.02553-134.64041-77.9468-134.56169-77.86807-134.43541-77.74179-134.35668-77.66306-134.27794-77.58432-134.15166-77.45804-134.07292-77.3793-133.9942-77.30058-133.86792-77.1743-133.78919-77.09557-133.71045-77.01683-133.58417-76.89055-133.50543-76.81181-133.42671-76.7331-133.30043-76.60681-133.2217-76.52808-133.14296-76.44934-133.01668-76.32306-132.93795-76.24432-132.85923-76.1656-132.73294-76.03932-132.6542-75.96059-132.57547-75.88185-132.44919-75.75557-132.37046-75.67683-132.29174-75.59811-132.16545-75.47183-132.08672-75.3931-132.00798-75.31436-131.8817-75.18808-131.80297-75.10934-131.72425-75.03062-131.59796-74.90434-131.51923-74.8256-131.44049-74.74687-131.31421-74.62059-131.23548-74.54185-131.15676-74.46313-131.03047-74.33685-130.95174-74.25812-130.873-74.17938-130.74672-74.0531-130.66799-73.97437-130.58927-73.89565-130.46298-73.76936-130.38425-73.69063-130.30551-73.6119-130.17923-73.48561-130.1005-73.40688-130.02178-73.32816-129.8955-73.20186-129.81676-73.12314-129.73802-73.0444-129.61174-72.91812-129.533-72.83939-129.45429-72.76067-129.328-72.63437-129.24927-72.55565-129.17053-72.47691-129.04425-72.35063-128.96552-72.2719-128.8868-72.19318-128.76052-72.06688-128.68178-71.98816-128.60305-71.90942-128.47676-71.78314-128.39803-71.7044-128.3193-71.62569-128.19303-71.49939-128.11429-71.42067-128.03556-71.34193-127.90927-71.21565-127.83054-71.13692-127.75182-71.0582-127.62552-70.9319-127.5468-70.85318-127.46806-70.77444-127.34178-70.64816-127.26305-70.56943-127.18433-70.49069-127.05803-70.36441-126.97931-70.28569-126.90057-70.20695-126.77429-70.08067-126.69556-70.00194-126.61684-69.9232-126.49054-69.79692-126.41182-69.7182-126.33308-69.63947-126.2068-69.51318-126.12807-69.43445-126.04935-69.35571-125.92305-69.22943-125.84433-69.15071-125.7656-69.07198-125.63931-68.9457-125.56058-68.86696-125.48186-68.78822-125.35556-68.66194-125.27684-68.58322-125.1981-68.50449-125.07182-68.3782-124.99309-68.29947-124.91435-68.22073-124.78807-68.09445-124.70935-68.01573-124.63062-67.937-124.50433-67.81071-124.4256-67.73198-124.34686-67.65324-124.22058-67.52696-124.14186-67.44824-124.06313-67.3695-123.93684-67.24323-123.85811-67.16449-123.77937-67.08575-123.65309-66.95947-123.57437-66.88075-123.49564-66.80202-123.36935-66.67574-123.29062-66.597-123.21188-66.51826-123.0856-66.39198-123.00688-66.31326-122.92815-66.23453-122.80186-66.10825-122.72313-66.02951-122.6444-65.95078-122.51811-65.8245-122.43939-65.74577-122.36066-65.66704-122.23438-65.54076-122.15564-65.46202-122.0769-65.38329-121.95062-65.257-121.8719-65.17828-121.79317-65.09955-121.66689-64.97327-121.58815-64.89453-121.50941-64.8158-121.38313-64.68951-121.30441-64.6108-121.22568-64.53206-121.0994-64.40578-121.02066-64.32704-120.94193-64.2483-120.81564-64.12202-120.73692-64.0433-120.65819-63.96457-120.5319-63.83829-120.45317-63.75955-120.37444-63.68082-120.24815-63.55453-120.16943-63.47581-120.0907-63.39708-119.96442-63.2708-119.88568-63.19206-119.80695-63.11333-119.68066-62.98705-119.60194-62.90833-119.52321-62.82959-119.39693-62.70331-119.31819-62.62457-119.23946-62.54584-119.11317-62.41956-119.03445-62.34082-118.95572-62.2621-118.82944-62.13582-118.7507-62.05708-118.67197-61.97835-118.54568-61.85207-118.46696-61.77333-118.38823-61.69461-118.26195-61.56833-118.18321-61.4896-118.10448-61.41086-117.9782-61.28458-117.89948-61.20584-117.82074-61.12712-117.69446-61.00084-117.61572-60.9221-117.53699-60.84337-117.4107-60.71709-117.33199-60.63835-117.25325-60.55963-117.12697-60.43335-117.04823-60.35461-116.9695-60.27588-116.84322-60.1496-116.76448-60.07086-116.68576-59.99214-116.55948-59.86586-116.48074-59.78712-116.40201-59.70839-116.27573-59.5821-116.19699-59.50337-116.11827-59.42465-115.99199-59.29837-115.91325-59.21964-115.83452-59.1409-115.70824-59.01462-115.6295-58.93588-115.55078-58.85716-115.4245-58.73088-115.34576-58.65215-115.26703-58.57341-115.14075-58.44713-115.06201-58.3684-114.98329-58.28967-114.85701-58.16339-114.77827-58.08466-114.69954-58.00592-114.57326-57.87964-114.49452-57.8009-114.4158-57.72218-114.28952-57.5959-114.21078-57.51717-114.13205-57.43843-114.00577-57.31215-113.92703-57.23341-113.84831-57.1547-113.72203-57.02841-113.6433-56.94968-113.56456-56.87094-113.43828-56.74466-113.35954-56.66592-113.28082-56.5872-113.15454-56.46092-113.0758-56.38219-112.99707-56.30345-112.87079-56.17717-112.79205-56.09843-112.71333-56.01971-112.58705-55.89343-112.50832-55.8147-112.42958-55.73596-112.3033-55.60968-112.22456-55.53094-112.14584-55.45222-112.01956-55.32594-111.94083-55.24721-111.86209-55.16847-111.73581-55.04219-111.65707-54.96346-111.57835-54.88474-111.45207-54.75845-111.37334-54.67972-111.2946-54.60098-111.16832-54.4747-111.08958-54.39597-111.01086-54.31725-110.88458-54.19095-110.80585-54.11223-110.72711-54.0335-110.60083-53.90721-110.5221-53.82848-110.44337-53.74976-110.3171-53.62346-110.23836-53.54474-110.15962-53.466-110.03334-53.33972-109.9546-53.26099-109.87589-53.18227-109.7496-53.05597-109.67087-52.97725-109.59213-52.89851-109.46585-52.77223-109.38712-52.6935-109.3084-52.61478-109.18211-52.48848-109.10338-52.40976-109.02464-52.33102-108.89836-52.20474-108.81963-52.126-108.7409-52.04729-108.61461-51.92099-108.53589-51.84227-108.45715-51.76353-108.33087-51.63725-108.25214-51.55852-108.17342-51.47978-108.04712-51.3535-107.9684-51.27478-107.88966-51.19604-107.76338-51.06976-107.68465-50.99103-107.60593-50.9123-107.47963-50.78601-107.40091-50.70729-107.32217-50.62856-107.19589-50.50227-107.11716-50.42354-107.03844-50.3448-106.91214-50.21852-106.83342-50.1398-106.75468-50.06107-106.6284-49.93478-106.54967-49.85605-106.47095-49.77731-106.34465-49.65103-106.26593-49.57231-106.1872-49.49358-106.06091-49.3673-105.98218-49.28856-105.90344-49.20982-105.77716-49.08354-105.69844-49.00482-105.6197-48.92609-105.49342-48.7998-105.41469-48.72107-105.33595-48.64233-105.20967-48.51605-105.13095-48.43733-105.05222-48.3586-104.92593-48.23232-104.8472-48.15358-104.76846-48.07484-104.64218-47.94856-104.56346-47.86984-104.48473-47.7911-104.35844-47.66483-104.27971-47.58609-104.20097-47.50735-104.07469-47.38107-103.99597-47.30235-103.91724-47.22362-103.79095-47.09734-103.71222-47.0186-103.63348-46.93987-103.5072-46.81358-103.42848-46.73486-103.34975-46.65613-103.22346-46.52985-103.14473-46.45111-103.066-46.37238-102.93971-46.2461-102.861-46.16737-102.78226-46.08864-102.65598-45.96236-102.57724-45.88362-102.4985-45.80489-102.37222-45.6786-102.2935-45.59988-102.21477-45.52115-102.08849-45.39487-102.00975-45.31613-101.93102-45.2374-101.80473-45.11111-101.72601-45.0324-101.64728-44.95366-101.521-44.82738-101.44226-44.74864-101.36353-44.6699-101.23724-44.54362-101.15852-44.4649-101.07979-44.38617-100.9535-44.25989-100.87477-44.18115-100.79604-44.10242-100.66975-43.97614-100.59103-43.89742-100.5123-43.81868-100.38602-43.6924-100.30728-43.61366-100.22855-43.53493-100.10226-43.40865-100.02354-43.32991-99.94481-43.25119-99.81853-43.12491-99.73979-43.04617-99.66106-42.96744-99.53477-42.84116-99.45605-42.76242-99.37732-42.6837-99.25104-42.55742-99.1723-42.47868-99.09357-42.39995-98.96729-42.27367-98.88857-42.19493-98.80983-42.11621-98.68355-41.98993-98.60481-41.9112-98.52608-41.83246-98.3998-41.70618-98.32108-41.62744-98.24234-41.54872-98.11606-41.42244-98.03732-41.3437-97.95859-41.26497-97.8323-41.13869-97.75357-41.05995-97.67485-40.98123-97.54857-40.85495-97.46983-40.77621-97.3911-40.69748-97.26482-40.5712-97.18608-40.49246-97.10736-40.41374-96.98108-40.28746-96.90234-40.20872-96.82361-40.12999-96.69733-40.00371-96.61859-39.92497-96.53987-39.84625-96.41359-39.71997-96.33485-39.64124-96.25612-39.5625-96.12984-39.43622-96.0511-39.35748-95.97238-39.27876-95.8461-39.15248-95.76736-39.07375-95.68863-38.99501-95.56235-38.86873-95.48361-38.79-95.40489-38.71127-95.27861-38.58499-95.19987-38.50626-95.12114-38.42752-94.99486-38.30124-94.91612-38.2225-94.8374-38.14378-94.71112-38.0175-94.63239-37.93877-94.55365-37.86003-94.42737-37.73375-94.34863-37.65501-94.26991-37.5763-94.14363-37.45001-94.0649-37.37128-93.98616-37.29254-93.85988-37.16626-93.78114-37.08752-93.70242-37.0088-93.57614-36.88252-93.4974-36.80379-93.41867-36.72505-93.29239-36.59877-93.21365-36.52003-93.13493-36.44131-93.00865-36.31503-92.92992-36.2363-92.85118-36.15756-92.7249-36.03128-92.64616-35.95255-92.56744-35.87383-92.44116-35.74754-92.36243-35.66881-92.28369-35.59007-92.15741-35.46379-92.07867-35.38506-91.99995-35.30634-91.87367-35.18004-91.79494-35.10132-91.7162-35.02258-91.58992-34.8963-91.51118-34.81757-91.43246-34.73885-91.30618-34.61255-91.22745-34.53383-91.14871-34.4551-91.02243-34.32881-90.9437-34.25008-90.86497-34.17136-90.7387-34.04506-90.65996-33.96634-90.58122-33.8876-90.45494-33.76132-90.3762-33.68259-90.29749-33.60387-90.1712-33.47757-90.09247-33.39885-90.01373-33.32011-89.88745-33.19383-89.80872-33.1151-89.73-33.03638-89.6037-32.91008-89.52498-32.83136-89.44624-32.75262-89.31996-32.62634-89.24123-32.5476-89.1625-32.46887-89.03621-32.34259-88.95749-32.26387-88.87875-32.18513-88.75247-32.05885-88.67374-31.98012-88.59502-31.90138-88.46872-31.7751-88.39-31.69638-88.31126-31.61765-88.18498-31.49136-88.10625-31.41263-88.02753-31.3339-87.90123-31.20761-87.82251-31.12889-87.74377-31.05016-87.6175-30.92387-87.53876-30.84514-87.46004-30.7664-87.33374-30.64012-87.25502-30.5614-87.17628-30.48267-87.05-30.35638-86.97127-30.27765-86.89253-30.19891-86.76625-30.07263-86.68753-29.99391-86.6088-29.91518-86.48251-29.7889-86.40378-29.71016-86.32504-29.63142-86.19876-29.50514-86.12004-29.42642-86.0413-29.34769-85.91502-29.2214-85.83629-29.14267-85.75755-29.06393-85.63127-28.93765-85.55255-28.85893-85.47382-28.7802-85.34753-28.65392-85.2688-28.57518-85.19006-28.49644-85.06378-28.37016-84.98506-28.29144-84.90633-28.2127-84.78004-28.08643-84.70131-28.00769-84.62257-27.92896-84.49629-27.80267-84.41757-27.72395-84.33884-27.64522-84.21255-27.51894-84.13382-27.4402-84.05508-27.36147-83.9288-27.23518-83.85008-27.15646-83.77135-27.07773-83.64507-26.95145-83.56633-26.87271-83.4876-26.79398-83.36131-26.6677-83.2826-26.58897-83.20386-26.51024-83.07758-26.38396-82.99884-26.30522-82.9201-26.22649-82.79382-26.1002-82.7151-26.02148-82.63637-25.94275-82.51009-25.81647-82.43135-25.73773-82.35262-25.659-82.22633-25.53271-82.14761-25.454-82.06888-25.37526-81.9426-25.24898-81.86386-25.17024-81.78513-25.0915-81.65884-24.96523-81.58012-24.8865-81.50139-24.80777-81.3751-24.68149-81.29637-24.60275-81.21764-24.52402-81.09135-24.39774-81.01263-24.319-80.9339-24.24028-80.80762-24.114-80.72888-24.03526-80.65015-23.95653-80.52386-23.83025-80.44514-23.75151-80.36641-23.67279-80.24013-23.54651-80.16139-23.46777-80.08266-23.38904-79.95638-23.26276-79.87766-23.18402-79.79892-23.1053-79.67264-22.97902-79.5939-22.90028-79.51517-22.82155-79.38889-22.69527-79.31017-22.61653-79.23143-22.53781-79.10515-22.41153-79.02641-22.3328-78.94768-22.25406-78.8214-22.12778-78.74266-22.04904-78.66394-21.97032-78.53766-21.84404-78.45892-21.7653-78.38019-21.68657-78.2539-21.56029-78.17517-21.48155-78.09645-21.40283-77.97017-21.27655-77.89143-21.19781-77.8127-21.11908-77.68642-20.9928-77.60768-20.91406-77.52896-20.83534-77.40268-20.70906-77.32394-20.63033-77.24521-20.55159-77.11893-20.42531-77.04019-20.34657-76.96147-20.26785-76.83519-20.14157-76.75645-20.06284-76.67772-19.9841-76.55144-19.85782-76.4727-19.77908-76.39398-19.70036-76.2677-19.57408-76.18896-19.49535-76.11023-19.41661-75.98395-19.29033-75.90521-19.2116-75.82649-19.13287-75.70021-19.00659-75.62148-18.92786-75.54274-18.84912-75.41646-18.72284-75.33772-18.6441-75.259-18.56538-75.13272-18.4391-75.05399-18.36037-74.97525-18.28163-74.84897-18.15535-74.77023-18.07661-74.69151-17.9979-74.56523-17.87161-74.4865-17.79288-74.40776-17.71414-74.28148-17.58786-74.20274-17.50912-74.12402-17.4304-73.99774-17.30412-73.919-17.22539-73.84027-17.14665-73.71399-17.02037-73.63525-16.94164-73.55653-16.86292-73.43025-16.73663-73.35152-16.6579-73.27278-16.57916-73.1465-16.45288-73.06776-16.37415-72.98904-16.29543-72.86276-16.16913-72.78403-16.09041-72.70529-16.01167-72.57901-15.88539-72.50027-15.80666-72.42155-15.72794-72.29527-15.60164-72.21654-15.52292-72.1378-15.44418-72.01152-15.3179-71.93279-15.23917-71.85406-15.16045-71.72778-15.03415-71.64905-14.95543-71.57031-14.8767-71.44403-14.75041-71.3653-14.67168-71.28658-14.59296-71.1603-14.46666-71.08156-14.38794-71.00282-14.3092-70.87654-14.18292-70.7978-14.10419-70.71909-14.02545-70.59279-13.89917-70.51407-13.82045-70.43533-13.74171-70.30905-13.61543-70.23032-13.5367-70.1516-13.45796-70.0253-13.33168-69.94658-13.25296-69.86784-13.17422-69.74156-13.04794-69.66283-12.96921-69.5841-12.89047-69.45781-12.76419-69.37909-12.68547-69.30035-12.60674-69.17407-12.48045-69.09534-12.40172-69.01662-12.32298-68.89032-12.1967-68.8116-12.11798-68.73286-12.03925-68.60658-11.91296-68.52785-11.83423-68.44911-11.7555-68.32283-11.62921-68.24411-11.55049-68.16537-11.47176-68.0391-11.34547-67.96036-11.26674-67.88162-11.188-67.75534-11.06172-67.67662-10.983-67.59789-10.90427-67.4716-10.77798-67.39287-10.69925-67.31413-10.62051-67.18785-10.49423-67.10913-10.41551-67.0304-10.33678-66.90411-10.2105-66.82538-10.13176-66.74664-10.05302-66.62036-9.92674-66.54164-9.84802-66.4629-9.76929-66.33662-9.643-66.25789-9.56427-66.17915-9.48553-66.05287-9.35925-65.97415-9.28053-65.89542-9.2018-65.76913-9.07552-65.6904-8.99678-65.61166-8.91805-65.48538-8.79176-65.40666-8.71304-65.32793-8.63431-65.20164-8.50803-65.12291-8.42929-65.04417-8.35056-64.9179-8.22427-64.83917-8.14555-64.76044-8.06682-64.63416-7.94054-64.55542-7.8618-64.47668-7.78307-64.3504-7.65678-64.27168-7.57806-64.19295-7.49933-64.06667-7.37305-63.98793-7.29431-63.9092-7.21558-63.78291-7.0893-63.7042-7.01057-63.62546-6.93184-63.49918-6.80556-63.42044-6.72682-63.3417-6.64809-63.21542-6.5218-63.1367-6.44308-63.05797-6.36435-62.93169-6.23807-62.85295-6.15933-62.77422-6.0806-62.64793-5.95432-62.56921-5.87558-62.49048-5.79686-62.3642-5.67058-62.28546-5.59184-62.20673-5.5131-62.08044-5.38683-62.00172-5.30809-61.92299-5.22937-61.7967-5.10309-61.71797-5.02435-61.63924-4.94562-61.51295-4.81934-61.43423-4.7406-61.3555-4.66188-61.22922-4.5356-61.15048-4.45686-61.07175-4.37813-60.94547-4.25185-60.86674-4.17311-60.78801-4.09439-60.66173-3.96811-60.583-3.88937-60.50426-3.81064-60.37798-3.68436-60.29924-3.60562-60.22052-3.5269-60.09424-3.40062-60.0155-3.32188-59.93677-3.24315-59.81049-3.11687-59.73175-3.03813-59.65303-2.95941-59.52675-2.83313-59.44801-2.7544-59.36928-2.67566-59.243-2.54938-59.16426-2.47064-59.08554-2.39192-58.95926-2.26564-58.88052-2.1869-58.80179-2.10817-58.6755-1.98189-58.59677-1.90315-58.51805-1.82443-58.39177-1.69815-58.31303-1.61942-58.2343-1.54068-58.10802-1.4144-58.02928-1.33566-57.95056-1.25694-57.82428-1.13066-57.74554-1.05193-57.66681-.97319-57.54053-.84691-57.46179-.76817-57.38307-.68945-57.25679-.56317-57.17805-.48444-57.09932-.4057-56.97304-.27942-56.8943-.20068-56.81558-.12196-56.6893 .00429-56.61057 .08302-56.53183 .16176-56.40555 .28804-56.32681 .36678-56.2481 .4455-56.12181 .57178-56.04308 .65051-55.96434 .72925-55.83806 .85553-55.75932 .93427-55.6806 1.01299-55.55432 1.13927-55.47559 1.218-55.39685 1.29674-55.27057 1.42302-55.19183 1.50175-55.11311 1.58047-54.98683 1.70676-54.9081 1.78549-54.82936 1.86423-54.70308 1.99051-54.62434 2.06924-54.54562 2.14796-54.41934 2.27426-54.3406 2.35298-54.26187 2.43172-54.13559 2.558-54.05685 2.63673-53.97813 2.71545-53.85185 2.84175-53.77312 2.92047-53.69438 2.9992-53.5681 3.12549-53.48936 3.20422-53.41064 3.28294-53.28436 3.40924-53.20563 3.48796-53.12689 3.5667-53.00061 3.69298-52.92188 3.77171-52.84315 3.85043-52.71687 3.97673-52.63814 4.05545-52.5594 4.13419-52.43312 4.26047-52.35439 4.3392-52.27567 4.41792-52.14937 4.54422-52.07065 4.62294-51.99191 4.70168-51.86563 4.82796-51.7869 4.9067-51.70818 4.98543-51.58188 5.11171-51.50316 5.19043-51.42442 5.26917-51.29814 5.39545-51.2194 5.47418-51.14069 5.55292-51.01439 5.6792-50.93567 5.75792-50.85693 5.83665-50.73065 5.96294-50.65192 6.04167-50.5732 6.1204-50.4469 6.24669-50.36818 6.32541-50.28944 6.40414-50.16316 6.53043-50.08443 6.60916-50.0057 6.6879-49.87941 6.81418-49.80069 6.8929-49.72195 6.97163-49.59567 7.09792-49.51694 7.17665-49.4382 7.25539-49.31192 7.38167-49.2332 7.46039-49.15446 7.53912-49.02818 7.6654-48.94945 7.74414-48.87071 7.82288-48.74443 7.94916-48.66571 8.02788-48.58698 8.10661-48.4607 8.2329-48.38196 8.31163-48.30322 8.39037-48.17694 8.51665-48.09822 8.59537-48.01949 8.6741-47.8932 8.80038-47.81447 8.87912-47.73573 8.95786-47.60945 9.08414-47.53073 9.16286-47.452 9.2416-47.32571 9.36787-47.24698 9.44661-47.16824 9.52534-47.04196 9.65163-46.96324 9.73035-46.8845 9.80908-46.75822 9.93536-46.67949 10.0141-46.60075 10.09283-46.47447 10.21912-46.39575 10.29784-46.31702 10.37657-46.19073 10.50285-46.112 10.58159-46.03326 10.66032-45.90698 10.7866-45.82826 10.86533-45.74953 10.94406-45.62325 11.07034-45.54451 11.14908-45.46577 11.22781-45.3395 11.3541-45.26077 11.43282-45.18204 11.51155-45.05576 11.63783-44.97702 11.71657-44.89828 11.7953-44.772 11.92159-44.69328 12.0003-44.61455 12.07904-44.48827 12.20532-44.40953 12.28406-44.3308 12.3628-44.20451 12.48907-44.1258 12.5678-44.04706 12.64653-43.92078 12.77281-43.84204 12.85155-43.7633 12.93028-43.63702 13.05656-43.5583 13.1353-43.47957 13.21402-43.35329 13.3403-43.27455 13.41904-43.19582 13.49777-43.06953 13.62405-42.99081 13.70279-42.91208 13.78151-42.7858 13.90779-42.70706 13.98653-42.62833 14.06526-42.50204 14.19154-42.42332 14.27028-42.34459 14.349-42.2183 14.47528-42.13957 14.55402-42.06084 14.63275-41.93456 14.75903-41.85583 14.83777-41.7771 14.91649-41.65082 15.04277-41.57208 15.1215-41.49335 15.20024-41.36707 15.32652-41.28833 15.40526-41.20961 15.48398-41.08333 15.61026-41.0046 15.689-40.92586 15.76773-40.79958 15.89401-40.72084 15.97275-40.64212 16.05147-40.51584 16.17775-40.4371 16.25648-40.35837 16.33522-40.23209 16.4615-40.15335 16.54024-40.07463 16.61896-39.94835 16.74524-39.86961 16.82397-39.79088 16.90271-39.6646 17.02899-39.58586 17.10773-39.50714 17.18645-39.38086 17.31273-39.30212 17.39146-39.22339 17.4702-39.0971 17.59648-39.01837 17.67522-38.93965 17.75394-38.81337 17.88022-38.73463 17.95895-38.6559 18.03769-38.52962 18.16397-38.45088 18.2427-38.37216 18.32143-38.24588 18.44771-38.16714 18.52644-38.08841 18.60518-37.96213 18.73146-37.88339 18.8102-37.80467 18.88892-37.67839 19.0152-37.59966 19.09393-37.52092 19.17267-37.39464 19.29895-37.3159 19.37769-37.23718 19.4564-37.1109 19.58269-37.03217 19.66142-36.95343 19.74016-36.82715 19.86644-36.74841 19.94518-36.6697 20.0239-36.54341 20.15018-36.46468 20.22891-36.38594 20.30765-36.25966 20.43393-36.18092 20.51266-36.1022 20.59138-35.97592 20.71767-35.89719 20.7964-35.81845 20.87514-35.69217 21.00142-35.61343 21.08015-35.53471 21.15887-35.40843 21.28517-35.3297 21.36389-35.25096 21.44263-35.12468 21.56891-35.04594 21.64764-34.96722 21.72636-34.84094 21.85266-34.7622 21.93138-34.68347 22.01012-34.55719 22.1364-34.47845 22.21513-34.39973 22.29385-34.27345 22.42015-34.19472 22.49887-34.11598 22.5776-33.9897 22.70389-33.91096 22.78262-33.83224 22.86134-33.70596 22.98764-33.62723 23.06636-33.5485 23.1451-33.42221 23.27138-33.34348 23.35011-33.26476 23.42883-33.13846 23.55513-33.05974 23.63385-32.981 23.71259-32.85472 23.83887-32.77599 23.9176-32.69727 23.99634-32.57097 24.12262-32.49225 24.20134-32.41351 24.28008-32.28723 24.40636-32.2085 24.48509-32.12978 24.56383-32.00348 24.69011-31.92476 24.76883-31.84602 24.84756-31.71974 24.97385-31.641 25.05258-31.56229 25.13132-31.43599 25.2576-31.35727 25.33632-31.27853 25.41505-31.15225 25.54134-31.07352 25.62007-30.9948 25.6988-30.8685 25.82509-30.78978 25.90381-30.71104 25.98254-30.58476 26.10883-30.50603 26.18756-30.42729 26.2663-30.30101 26.39258-30.22229 26.4713-30.14355 26.55003-30.01727 26.67632-29.93854 26.75505-29.8598 26.83379-29.73352 26.96007-29.6548 27.03879-29.57607 27.11752-29.44978 27.2438-29.37105 27.32254-29.29231 27.40128-29.16603 27.52756-29.08731 27.60628-29.00858 27.68501-28.8823 27.8113-28.80356 27.89003-28.72482 27.96877-28.59854 28.09505-28.51982 28.17377-28.44109 28.2525-28.3148 28.37878-28.23607 28.45752-28.15733 28.53625-28.03105 28.66254-27.95233 28.74126-27.8736 28.81999-27.74731 28.94627-27.66858 29.02501-27.58984 29.10374-27.46356 29.23003-27.38484 29.30875-27.3061 29.38748-27.17982 29.51376-27.10109 29.5925-27.02235 29.67123-26.89607 29.79752-26.81735 29.87624-26.73862 29.95497-26.61234 30.08125-26.5336 30.15999-26.45486 30.23872-26.32858 30.365-26.24986 30.44373-26.17113 30.52246-26.04485 30.64874-25.96611 30.72748-25.88737 30.80621-25.7611 30.9325-25.68237 31.01122-25.60364 31.08995-25.47736 31.21623-25.39862 31.29497-25.31989 31.3737-25.1936 31.49998-25.11488 31.5787-25.03615 31.65744-24.90987 31.78372-24.83113 31.86246-24.7524 31.9412-24.62611 32.06747-24.5474 32.14621-24.46866 32.22493-24.34238 32.35121-24.26364 32.42995-24.1849 32.50868-24.05862 32.63496-23.9799 32.7137-23.90117 32.79242-23.77489 32.9187-23.69615 32.99744-23.61742 33.07617-23.49113 33.20245-23.41241 33.28119-23.33368 33.35991-23.2074 33.48619-23.12866 33.56493-23.04993 33.64366-22.92365 33.76994-22.84492 33.84868-22.76619 33.9274-22.63991 34.05368-22.56117 34.13242-22.48244 34.21115-22.35616 34.33743-22.27742 34.41617-22.1987 34.49489-22.07242 34.62117-21.99368 34.6999-21.91495 34.77864-21.78867 34.90492-21.70993 34.98366-21.63121 35.06238-21.50493 35.18866-21.4262 35.2674-21.34746 35.34613-21.22118 35.47241-21.14244 35.55115-21.06372 35.62987-20.93744 35.75615-20.8587 35.83488-20.77997 35.91362-20.65369 36.0399-20.57495 36.11864-20.49623 36.19736-20.36995 36.32364-20.29121 36.40237-20.21248 36.48111-20.0862 36.60739-20.00746 36.68613-19.92874 36.76485-19.80246 36.89113-19.72372 36.96986-19.64499 37.0486-19.5187 37.17488-19.43997 37.25362-19.36125 37.33234-19.23497 37.45862-19.15623 37.53735-19.0775 37.61609-18.95122 37.74237-18.87248 37.8211-18.79376 37.89983-18.66748 38.02611-18.58875 38.10484-18.51001 38.18358-18.38373 38.30986-18.305 38.3886-18.22627 38.46732-18.09999 38.5936-18.02126 38.67233-17.94252 38.75107-17.81624 38.87735-17.7375 38.95609-17.65878 39.0348-17.5325 39.16109-17.45377 39.23982-17.37503 39.31856-17.24875 39.44484-17.17001 39.52357-17.0913 39.6023-16.96501 39.72858-16.88628 39.80731-16.80754 39.88605-16.68126 40.01233-16.60252 40.09106-16.5238 40.16978-16.39752 40.29608-16.31879 40.3748-16.24005 40.45354-16.11377 40.57982-16.03503 40.65855-15.95631 40.73727-15.83003 40.86357-15.7513 40.94229-15.67256 41.02103-15.54628 41.14731-15.46754 41.22604-15.38882 41.30476-15.26254 41.43106-15.1838 41.50978-15.10507 41.58852-14.97879 41.7148-14.90005 41.79353-14.82133 41.87225-14.69505 41.99855-14.61632 42.07727-14.53758 42.156-14.4113 42.28229-14.33257 42.36102-14.25385 42.43976-14.12755 42.56604-14.04883 42.64476-13.9701 42.7235-13.84381 42.84978-13.76508 42.92851-13.68636 43.00725-13.56006 43.13353-13.48134 43.21225-13.4026 43.29099-13.27632 43.41727-13.19759 43.496-13.11887 43.57474-12.99257 43.70102-12.91385 43.77974-12.83511 43.85847-12.70883 43.98476-12.6301 44.06349-12.55138 44.14223-12.42508 44.26851-12.34636 44.34723-12.26762 44.42596-12.14134 44.55225-12.0626 44.63098-11.98389 44.70972-11.85759 44.836-11.77887 44.91472-11.70013 44.99345-11.57385 45.11974-11.49512 45.19847-11.41638 45.2772-11.2901 45.40349-11.21138 45.48221-11.13264 45.56094-11.00636 45.68723-10.92763 45.76596-10.84889 45.8447-10.72261 45.97098-10.64389 46.0497-10.56516 46.12843-10.43887 46.25471-10.36014 46.33345-10.2814 46.41219-10.15512 46.53847-10.0764 46.61719-9.99767 46.69592-9.87138 46.8222-9.79265 46.90094-9.71391 46.97968-9.58763 47.10596-9.50891 47.18468-9.43018 47.26341-9.3039 47.3897-9.22516 47.46843-9.14642 47.54716-9.02014 47.67345-8.94142 47.75217-8.86269 47.8309-8.7364 47.95718-8.65767 48.03592-8.57893 48.11465-8.45265 48.24094-8.37393 48.31966-8.2952 48.39839-8.16891 48.52467-8.09018 48.60341-8.01144 48.68214-7.88516 48.80843-7.80644 48.88715-7.7277 48.96588-7.60143 49.09216-7.52269 49.1709-7.44395 49.24963-7.31767 49.37592-7.23895 49.45464-7.16022 49.53337-7.03394 49.65965-6.9552 49.73839-6.87646 49.81712-6.75018 49.9434-6.67146 50.02213-6.59273 50.10086-6.46645 50.22714-6.38771 50.30588-6.30898 50.38461-6.1827 50.5109-6.10397 50.58963-6.02524 50.66835-5.89896 50.79463-5.82022 50.87337-5.74149 50.9521-5.6152 51.07838-5.53648 51.15712-5.45775 51.23584-5.33147 51.36212-5.25273 51.44086-5.174 51.51959-5.04771 51.64587-4.969 51.72461-4.89026 51.80333-4.76398 51.92961-4.68524 52.00835-4.6065 52.08708-4.48022 52.21336-4.4015 52.2921-4.32277 52.37082-4.19649 52.4971-4.11775 52.57584-4.03902 52.65457-3.91273 52.78085-3.83401 52.85959-3.75528 52.93831-3.629 53.06459-3.55026 53.14333-3.47153 53.22206-3.34525 53.34834-3.26651 53.42708-3.18779 53.5058-3.06151 53.63208-2.98277 53.71082-2.90404 53.78955-2.77776 53.91583-2.69902 53.99457-2.6203 54.07329-2.49402 54.19957-2.41528 54.2783-2.33655 54.35704-2.21027 54.48332-2.13153 54.56206-2.05281 54.64078-1.92653 54.76706-1.8478 54.8458-1.76906 54.92453-1.64278 55.05081-1.56404 55.12955-1.48532 55.20827-1.35904 55.33455-1.2803 55.41328-1.20157 55.49202-1.07529 55.6183-.99655 55.69704-.91783 55.77576-.79155 55.90204-.71281 55.98077-.63408 56.05951-.5078 56.18579-.42906 56.26453-.35034 56.34325-.14532 56.54826-.14532 56.54826"/>
</g>
<use data-text="&#x2022;" xlink:href="#font_4_1" transform="matrix(9.963397,0,0,-9.963397,146.41727,104.99336)" fill="#0000ff"/>
<path transform="matrix(1.00008,0,0,-1.00008,148.90847,159.47772)" stroke-width=".79701" stroke-linecap="butt" stroke-miterlimit="10" stroke-linejoin="miter" fill="none" stroke="#0000ff" d="M1.4174 85.04042C1.4174 85.82324 .78282 86.45784 0 86.45784-.78282 86.45784-1.4174 85.82324-1.4174 85.04042-1.4174 84.2576-.78282 83.623 0 83.623 .78282 83.623 1.4174 84.2576 1.4174 85.04042ZM0 85.04042"/>
</svg>
