<svg xmlns="http://www.w3.org/2000/svg" xmlns:xlink="http://www.w3.org/1999/xlink" version="1.1" width="286" height="21" viewBox="0 0 286 21">
<defs>
<path id="font_1_1" d="M.23899842 .6603241C.24299622 .67433169 .24299622 .67633059 .24299622 .68032839 .24299622 .68933108 .23699951 .69433596 .22799683 .69433596 .21398926 .69433596 .12599182 .6863251 .10598755 .6843262 .09599304 .68333438 .084991458 .6823273 .084991458 .665329 .084991458 .6523285 .09599304 .6523285 .11199951 .6523285 .15899658 .6523285 .15899658 .6453247 .15899658 .6363373 .15899658 .6303406 .15899658 .6283264 .1519928 .6013336L.09899902 .3903656C.084991458 .3343506 .07199097 .28334046 .06098938 .23631287 .053985597 .21131897 .04699707 .18130493 .04699707 .14929199 .04699707 .06326294 .09498596-.0107421879 .18099976-.0107421879 .2979889-.0107421879 .42599488 .13027954 .42599488 .28033448 .42599488 .38237 .36299134 .4423828 .28799439 .4423828 .23699951 .4423828 .19299317 .40737916 .16999817 .38536073L.23899842 .6603241M.1559906 .32835389C.18399048 .36836244 .23498535 .41737367 .28599549 .41737367 .33299256 .41737367 .35198976 .37036134 .35198976 .323349 .35198976 .27833558 .32398988 .15429688 .29299928 .10127258 .2559967 .037261964 .21199036 .014251709 .18099976 .014251709 .1309967 .014251709 .11099243 .06427002 .11099243 .11528015 .11099243 .15029907 .117996219 .17730713 .14099121 .2683258L.1559906 .32835389Z"/>
</defs>
<path transform="matrix(1.00003,0,0,-1.00005,143.23177,4.6884357)" stroke-width="1.19553" stroke-linecap="butt" stroke-miterlimit="10" stroke-linejoin="miter" fill="none" stroke="#000000" d="M-140.77762 0H140.77762"/>
<path transform="matrix(-1.00003,-0,0,1.00005,2.4499207,4.6884357)" stroke-width=".9564" stroke-linecap="round" stroke-linejoin="round" fill="none" stroke="#000000" d="M-1.91284 2.55046C-1.75343 1.59402 0 .15938 .4782 0 0-.15938-1.75343-1.59402-1.91284-2.55046"/>
<path transform="matrix(1.00003,0,0,-1.00005,284.0136,4.6884357)" stroke-width=".9564" stroke-linecap="round" stroke-linejoin="round" fill="none" stroke="#000000" d="M-1.91284 2.55046C-1.75343 1.59402 0 .15938 .4782 0 0-.15938-1.75343-1.59402-1.91284-2.55046"/>
<path transform="matrix(1.00003,0,0,-1.00005,143.23177,4.6884357)" stroke-width="1.19553" stroke-linecap="butt" stroke-miterlimit="10" stroke-linejoin="miter" fill="none" stroke="#0000ff" d="M-140.77762 0H113.38724"/>
<path transform="matrix(-1.00003,-0,0,1.00005,2.4499207,4.6884357)" stroke-width=".9564" stroke-linecap="round" stroke-linejoin="round" fill="none" stroke="#0000ff" d="M-1.91284 2.55046C-1.75343 1.59402 0 .15938 .4782 0 0-.15938-1.75343-1.59402-1.91284-2.55046"/>
<path transform="matrix(1.00003,0,0,-1.00005,143.23177,4.6884357)" d="M115.87793 0C115.87793 1.37558 114.76282 2.49069 113.38724 2.49069 112.01166 2.49069 110.89655 1.37558 110.89655 0 110.89655-1.37558 112.01166-2.49069 113.38724-2.49069 114.76282-2.49069 115.87793-1.37558 115.87793 0ZM113.38724 0" fill="#0000ff"/>
<path transform="matrix(1.00003,0,0,-1.00005,143.23177,4.6884357)" stroke-width="1.19553" stroke-linecap="butt" stroke-miterlimit="10" stroke-linejoin="miter" fill="none" stroke="#0000ff" d="M115.87793 0C115.87793 1.37558 114.76282 2.49069 113.38724 2.49069 112.01166 2.49069 110.89655 1.37558 110.89655 0 110.89655-1.37558 112.01166-2.49069 113.38724-2.49069 114.76282-2.49069 115.87793-1.37558 115.87793 0ZM113.38724 0"/>
<use data-text="b" xlink:href="#font_1_1" transform="matrix(8.966669,0,0,-8.966848,254.64812,19.417172)"/>
</svg>
