<svg xmlns="http://www.w3.org/2000/svg" xmlns:xlink="http://www.w3.org/1999/xlink" version="1.1" width="250" height="146" viewBox="0 0 250 146">
<defs>
<path id="font_1_2" d="M.33399964 .30233766C.33999635 .32835389 .36299134 .42037965 .43299867 .42037965 .43798829 .42037965 .46199037 .42037965 .48298646 .40734864 .45498658 .402359 .43499757 .37734986 .43499757 .35334779 .43499757 .33735658 .44599916 .31835938 .47299195 .31835938 .49499513 .31835938 .5269928 .3363495 .5269928 .37635804 .5269928 .42837525 .46798707 .4423828 .43399049 .4423828 .37599183 .4423828 .34098817 .38935853 .32899476 .36634828 .3039856 .43237306 .25 .4423828 .22099304 .4423828 .116989139 .4423828 .05999756 .3133545 .05999756 .28834535 .05999756 .27833558 .069992069 .27833558 .07199097 .27833558 .07998657 .27833558 .08299255 .28033448 .084991458 .28933717 .11898804 .39535523 .18499756 .42037965 .21899414 .42037965 .23799134 .42037965 .272995 .4113617 .272995 .35334779 .272995 .32235719 .2559967 .25532533 .21899414 .11528015 .20298767 .053268434 .16799927 .011245728 .12399292 .011245728 .117996219 .011245728 .09498596 .011245728 .07398987 .024276734 .09899902 .029266358 .12098694 .05027771 .12098694 .07827759 .12098694 .105270389 .09899902 .11328125 .083999637 .11328125 .053985597 .11328125 .0289917 .08728027 .0289917 .055267335 .0289917 .009246826 .07899475-.0107421879 .12298584-.0107421879 .18899536-.0107421879 .22499085 .059280397 .22799683 .0652771 .23999024 .028274537 .27598573-.0107421879 .33599855-.0107421879 .43899537-.0107421879 .49598695 .118270877 .49598695 .14328003 .49598695 .1532898 .4869995 .1532898 .48399354 .1532898 .47499085 .1532898 .47299195 .14929199 .47099305 .14228821 .43798829 .03527832 .36999513 .011245728 .33799745 .011245728 .29899598 .011245728 .2829895 .043273927 .2829895 .07727051 .2829895 .09927368 .2889862 .121276859 .2999878 .16529846L.33399964 .30233766Z"/>
<path id="font_1_3" d="M.48599244 .38136292C.48999024 .39537049 .48999024 .39736939 .48999024 .40437318 .48999024 .42237855 .47599793 .43138124 .46099855 .43138124 .45098878 .43138124 .43499757 .42536927 .42599488 .41036988 .42399598 .405365 .41600038 .37435914 .4119873 .35635377 .40499879 .33035279 .397995 .30334474 .3919983 .27633668L.34700013 .09628296C.34298707 .08126831 .2999878 .011245728 .23399353 .011245728 .18299866 .011245728 .17199707 .055267335 .17199707 .0922699 .17199707 .1382904 .18899536 .20030213 .22299195 .28833009 .23899842 .3293457 .24299622 .3403473 .24299622 .36035157 .24299622 .405365 .21099854 .4423828 .16099549 .4423828 .06599426 .4423828 .0289917 .29733277 .0289917 .28833009 .0289917 .27833558 .038986207 .27833558 .040985109 .27833558 .050994874 .27833558 .051986696 .28033448 .056991579 .29634095 .083999637 .3903656 .12399292 .42037965 .1579895 .42037965 .1659851 .42037965 .18299866 .42037965 .18299866 .3883667 .18299866 .36335755 .17298889 .3373413 .1659851 .31834413 .12599182 .21231079 .10798645 .1552887 .10798645 .10827637 .10798645 .019256592 .17098999-.0107421879 .22999573-.0107421879 .2689972-.0107421879 .30299378 .0062561037 .33099366 .03425598 .31799317-.017745972 .30599977-.06674194 .2659912-.11973572 .23999024-.15385437 .20199585-.18309021 .1559906-.18309021 .14199829-.18309021 .09700012-.18005371 .07998657-.14074707 .09599304-.14074707 .10899353-.14074707 .12298584-.1287384 .1329956-.11973572 .14299011-.10673523 .14299011-.08773804 .14299011-.056747438 .115997318-.052734376 .10598755-.052734376 .08299255-.052734376 .049987794-.068740848 .049987794-.11773682 .049987794-.16796875 .09399414-.20507813 .1559906-.20507813 .25898744-.20507813 .3619995-.11373901 .3899994-.00074768069L.48599244 .38136292Z"/>
<clipPath id="clip_2">
<path transform="matrix(1.00009,0,0,-1.00005,120.56023,131.1259)" d="M-113.38724 0V113.38724H113.38724V0ZM113.38724 113.38724"/>
</clipPath>
<path id="font_3_2" d="M.44400025 .24998474C.44400025 .35688783 .35499574 .44381715 .25 .44381715 .14199829 .44381715 .054992677 .35488893 .054992677 .24998474 .054992677 .14407349 .14199829 .056137086 .25 .056137086 .35499574 .056137086 .44400025 .14308167 .44400025 .24998474Z"/>
<path id="font_3_1" d="M.6589966 .23046875C.6759949 .23046875 .69400027 .23046875 .69400027 .25045777 .69400027 .27046205 .6759949 .27046205 .6589966 .27046205H.117996219C.100997928 .27046205 .08299255 .27046205 .08299255 .25045777 .08299255 .23046875 .100997928 .23046875 .117996219 .23046875H.6589966Z"/>
<path id="font_4_1" d="M.33099366-.2400055C.33099366-.23701477 .33099366-.23500061 .31399537-.21800232 .18899536-.0920105 .15699768 .09700012 .15699768 .25 .15699768 .42399598 .19499207 .59799197 .31799317 .72299197 .33099366 .73498538 .33099366 .7369995 .33099366 .73999026 .33099366 .746994 .32699586 .75 .32099916 .75 .31098939 .75 .22099304 .6819916 .1619873 .5549927 .11099243 .44499208 .09899902 .33399964 .09899902 .25 .09899902 .17199707 .10998535 .050994874 .16499329-.06201172 .22499085-.18501282 .31098939-.25 .32099916-.25 .32699586-.25 .33099366-.24700928 .33099366-.2400055Z"/>
<path id="font_4_3" d="M.45999146 .31976319C.45999146 .39982606 .45498658 .47988893 .41999818 .5539398 .37399293 .65000918 .2919922 .6660156 .25 .6660156 .18998719 .6660156 .116989139 .64001467 .07598877 .54693606 .04399109 .47789 .038986207 .39982606 .038986207 .31976319 .038986207 .24472046 .042999269 .15464783 .083999637 .07859802 .1269989-.0024719239 .19999695-.022460938 .24899292-.022460938 .30299378-.022460938 .3789978-.0014648438 .4229889 .09359741 .45498658 .16265869 .45999146 .2407074 .45999146 .31976319M.24899292-.00047302247C.20999146-.00047302247 .15098572 .024551392 .1329956 .12062073 .12199402 .18066406 .12199402 .2727356 .12199402 .3317871 .12199402 .39582826 .12199402 .46188355 .12998963 .5159149 .14898682 .63500979 .22399903 .64401248 .24899292 .64401248 .28199769 .64401248 .34799195 .6259918 .36698915 .52693179 .3769989 .47088624 .3769989 .39482118 .3769989 .3317871 .3769989 .25672914 .3769989 .18867493 .3659973 .12461853 .35099793 .029556275 .2939911-.00047302247 .24899292-.00047302247Z"/>
<path id="font_1_1" d="M.20298767 .0009918213C.20298767 .066986087 .17799378 .10598755 .13899231 .10598755 .10598755 .10598755 .085998538 .08099365 .085998538 .052993776 .085998538 .025985718 .10598755 0 .13899231 0 .15098572 0 .1639862 .0039978029 .17399597 .0129852299 .1769867 .01499939 .17799378 .015991211 .1789856 .015991211 .17999268 .015991211 .18099976 .01499939 .18099976 .0009918213 .18099976-.07316589 .1459961-.13328552 .11299133-.16635132 .101989749-.17736817 .101989749-.17936707 .101989749-.18237305 .101989749-.18936157 .10699463-.19335938 .11199951-.19335938 .12298584-.19335938 .20298767-.116256717 .20298767 .0009918213Z"/>
<path id="font_4_2" d="M.2889862 .25C.2889862 .32798768 .27799989 .44898988 .22299195 .56199648 .16299439 .68499758 .07699585 .75 .066986087 .75 .06098938 .75 .056991579 .74598696 .056991579 .73999026 .056991579 .7369995 .056991579 .73498538 .07598877 .71699526 .17399597 .6179962 .23098755 .45899964 .23098755 .25 .23098755 .07899475 .19400025-.09700012 .069992069-.2230072 .056991579-.23500061 .056991579-.23701477 .056991579-.2400055 .056991579-.2460022 .06098938-.25 .066986087-.25 .07699585-.25 .16699219-.18200684 .22599793-.055007936 .2769928 .054992677 .2889862 .16600037 .2889862 .25Z"/>
</defs>
<path transform="matrix(1.00009,0,0,-1.00005,120.56023,131.1259)" stroke-width=".19925" stroke-linecap="butt" stroke-miterlimit="10" stroke-linejoin="miter" fill="none" stroke="#929292" d="M-113.38724 0H113.38724M-113.38724 28.3468H113.38724M-113.38724 56.69362H113.38724M-113.38724 85.04042H113.38724M-113.38724 113.37727H113.38724M-113.38724 0V113.38724M-85.04042 0V113.38724M-56.69362 0V113.38724M-28.3468 0V113.38724M0 0V113.38724M28.3468 0V113.38724M56.69362 0V113.38724M85.04042 0V113.38724M113.37727 0V113.38724M113.38724 113.38724"/>
<path transform="matrix(1.00009,0,0,-1.00005,120.56023,131.1259)" stroke-width="1.19553" stroke-linecap="butt" stroke-miterlimit="10" stroke-linejoin="miter" fill="none" stroke="#000000" d="M-119.0565 0H118.10008"/>
<path transform="matrix(1.00009,0,0,-1.00005,238.67093,131.1259)" stroke-width=".9564" stroke-linecap="round" stroke-linejoin="round" fill="none" stroke="#000000" d="M-1.91284 2.55046C-1.75343 1.59402 0 .15938 .4782 0 0-.15938-1.75343-1.59402-1.91284-2.55046"/>
<use data-text="x" xlink:href="#font_1_2" transform="matrix(9.963496,0,0,-9.963098,243.5463,133.27101)"/>
<path transform="matrix(1.00009,0,0,-1.00005,120.56023,131.1259)" stroke-width="1.19553" stroke-linecap="butt" stroke-miterlimit="10" stroke-linejoin="miter" fill="none" stroke="#000000" d="M0 0V118.10008"/>
<path transform="matrix(0,-1.00005,-1.00009,-0,120.56023,13.01992)" stroke-width=".9564" stroke-linecap="round" stroke-linejoin="round" fill="none" stroke="#000000" d="M-1.91284 2.55046C-1.75343 1.59402 0 .15938 .4782 0 0-.15938-1.75343-1.59402-1.91284-2.55046"/>
<use data-text="y" xlink:href="#font_1_3" transform="matrix(9.963496,0,0,-9.963098,117.93899,6.207657)"/>
<g clip-path="url(#clip_2)">
<path transform="matrix(1.00009,0,0,-1.00005,120.56023,131.1259)" stroke-width=".79701" stroke-linecap="butt" stroke-miterlimit="10" stroke-linejoin="miter" fill="none" stroke="#0000ff" d="M-113.38724 453.54896C-113.38724 453.54896-113.05908 450.92677-112.93306 449.92256-112.80704 448.91835-112.60492 447.31144-112.4789 446.3113-112.35287 445.31117-112.15074 443.71043-112.02472 442.71434-111.8987 441.7182-111.6966 440.1241-111.57057 439.13203-111.44453 438.13996-111.24243 436.5521-111.11641 435.564-110.99039 434.57594-110.78825 432.9947-110.66223 432.0107-110.53621 431.02674-110.33409 429.4521-110.20807 428.4721-110.08205 427.49217-109.87993 425.92375-109.75389 424.9478-109.62787 423.97187-109.42577 422.41007-109.29974 421.4382-109.17372 420.4663-108.9716 418.91114-108.84558 417.94328-108.71956 416.97547-108.51743 415.42649-108.3914 414.46266-108.26538 413.49885-108.06328 411.95646-107.93724 410.99674-107.81122 410.037-107.60912 408.50123-107.4831 407.5455-107.35706 406.58979-107.15494 405.06025-107.02892 404.10859-106.9029 403.1569-106.70078 401.634-106.57475 400.6863-106.44873 399.73863-106.2466 398.222-106.12057 397.27836-105.99455 396.3347-105.79245 394.82466-105.66643 393.8851-105.54039 392.9455-105.33829 391.44203-105.21227 390.50654-105.08624 389.57106-104.88411 388.07417-104.75809 387.14268-104.63206 386.2112-104.42995 384.7206-104.30392 383.7931-104.1779 382.8656-103.9758 381.38124-103.84976 380.45783-103.72374 379.5344-103.52162 378.05699-103.3956 377.13768-103.26958 376.2183-103.06746 374.74714-102.94144 373.83177-102.81541 372.91639-102.61328 371.45146-102.48726 370.54017-102.36124 369.62886-102.15913 368.1709-102.0331 367.26368-101.90707 366.35646-101.70497 364.90473-101.57895 364.00148-101.45291 363.0982-101.2508 361.6527-101.12477 360.75355-100.99875 359.85435-100.79663 358.4159-100.67061 357.52076-100.54459 356.6256-100.34245 355.19297-100.21643 354.3018-100.09041 353.41069-99.8883 351.98506-99.76228 351.098-99.63625 350.21095-99.43414 348.7915-99.30812 347.90846-99.1821 347.02543-98.97997 345.61259-98.85394 344.73365-98.72792 343.85469-98.5258 342.44844-98.39978 341.5735-98.27376 340.69856-98.07166 339.2986-97.94562 338.42768-97.8196 337.5567-97.61748 336.163-97.49146 335.2961-97.36543 334.4292-97.16331 333.04249-97.0373 332.17967-96.91127 331.31684-96.70914 329.93626-96.58311 329.07749-96.45709 328.2187-96.25499 326.8448-96.12895 325.99006-96.00293 325.13529-95.80083 323.7676-95.6748 322.91685-95.54877 322.0661-95.34665 320.70506-95.22063 319.85838-95.0946 319.0117-94.89249 317.65724-94.76646 316.8146-94.64044 315.97196-94.43832 314.62373-94.3123 313.7851-94.18628 312.94648-93.98416 311.60493-93.85814 310.77033-93.7321 309.9357-93.53 308.60035-93.40398 307.76979-93.27795 306.93925-93.07582 305.61088-92.9498 304.78443-92.82378 303.958-92.62166 302.6358-92.49564 301.81333-92.36961 300.99085-92.16751 299.67497-92.04147 298.85649-91.91545 298.03804-91.71333 296.72874-91.58731 295.91438-91.46129 295.09999-91.25917 293.79725-91.13315 292.98695-91.00713 292.17665-90.805 290.88053-90.67897 290.07423-90.55295 289.26795-90.35085 287.9781-90.22481 287.1758-90.09879 286.37348-89.89668 285.0899-89.77066 284.29164-89.64462 283.4934-89.4425 282.21675-89.31648 281.4226-89.19046 280.62846-88.98834 279.358-88.86232 278.56788-88.7363 277.7777-88.53418 276.51393-88.40816 275.7278-88.28214 274.9417-88.08002 273.68415-87.954 272.90205-87.82796 272.11997-87.62585 270.86906-87.49983 270.091-87.37381 269.31294-87.17168 268.06819-87.04565 267.2942-86.91963 266.5202-86.71751 265.28245-86.59149 264.51255-86.46547 263.7426-86.26337 262.5111-86.13733 261.74516-86.0113 260.97923-85.80919 259.75398-85.68317 258.99205-85.55714 258.23014-85.35503 257.0115-85.229 256.25367-85.10298 255.49582-84.90086 254.28374-84.77484 253.52997-84.64882 252.7762-84.4467 251.57073-84.32066 250.82097-84.19464 250.07123-83.99254 248.872-83.86652 248.12627-83.74048 247.38056-83.53836 246.18798-83.41234 245.44628-83.28632 244.70456-83.0842 243.51822-82.95818 242.78054-82.83215 242.04283-82.63004 240.8631-82.50401 240.1295-82.37799 239.3959-82.17587 238.22277-82.04985 237.4932-81.92381 236.76361-81.72171 235.5967-81.59569 234.87114-81.46967 234.14557-81.26753 232.98528-81.14151 232.2638-81.01549 231.54233-80.81337 230.38864-80.68735 229.67118-80.56133 228.95372-80.35922 227.80626-80.23318 227.09282-80.10716 226.37938-79.90504 225.23851-79.77902 224.52916-79.653 223.8198-79.45088 222.68555-79.32486 221.98021-79.19884 221.27487-78.99672 220.14685-78.8707 219.44554-78.74467 218.74422-78.54254 217.62282-78.41652 216.92559-78.2905 216.22835-78.0884 215.11353-77.96237 214.4203-77.83633 213.7271-77.63422 212.61853-77.5082 211.92932-77.38217 211.24013-77.18005 210.13822-77.05403 209.45305-76.92801 208.76789-76.72589 207.6722-76.59987 206.99105-76.47385 206.30989-76.27173 205.2208-76.1457 204.54373-76.01967 203.86667-75.81757 202.7842-75.69154 202.11115-75.56552 201.4381-75.3634 200.36186-75.23738 199.69283-75.11136 199.0238-74.90923 197.95417-74.7832 197.28922-74.65718 196.62427-74.45508 195.56122-74.32904 194.9003-74.20302 194.23938-74.0009 193.18259-73.87488 192.52568-73.74886 191.86878-73.54674 190.81858-73.42072 190.16576-73.2947 189.51294-73.09258 188.46933-72.96655 187.82053-72.84053 187.17173-72.6384 186.13436-72.51237 185.48958-72.38635 184.8448-72.18425 183.81404-72.05823 183.17334-71.93219 182.53264-71.73007 181.50849-71.60405 180.87181-71.47803 180.23514-71.27591 179.2172-71.14989 178.58454-71.02386 177.95188-70.82175 176.94063-70.69572 176.312-70.5697 175.68337-70.36758 174.67827-70.24156 174.05371-70.11552 173.42916-69.91342 172.43109-69.7874 171.81056-69.66138 171.19004-69.45926 170.19779-69.33324 169.58127-69.20721 168.96475-69.00508 167.97954-68.87906 167.3671-68.75304 166.75466-68.55093 165.77562-68.4249 165.1672-68.29887 164.55879-68.09676 163.58641-67.97073 162.98203-67.84471 162.37764-67.6426 161.4115-67.51657 160.81113-67.39055 160.21076-67.18843 159.25122-67.06241 158.65493-66.93639 158.05863-66.73425 157.10569-66.60823 156.51343-66.48221 155.92116-66.2801 154.97444-66.15408 154.3862-66.02805 153.79798-65.82594 152.85787-65.69992 152.2737-65.5739 151.68953-65.37177 150.75605-65.24574 150.17589-65.11972 149.59574-64.9176 148.66847-64.79158 148.09235-64.66556 147.51622-64.46344 146.59561-64.33742 146.02352-64.21138 145.4514-64.00928 144.53699-63.88326 143.96897-63.75723 143.40094-63.55511 142.49355-63.4291 141.92954-63.30307 141.36553-63.10094 140.46395-62.97491 139.90396-62.84889 139.344-62.64679 138.44945-62.52075 137.89354-62.39473 137.33763-62.19261 136.44924-62.06659 135.89737-61.94057 135.34549-61.73845 134.46378-61.61243 133.91591-61.4864 133.36804-61.28429 132.49257-61.15826 131.94873-61.03224 131.40489-60.83011 130.53601-60.70409 129.99625-60.57806 129.45648-60.37596 128.59421-60.24994 128.05847-60.1239 127.52275-59.9218 126.6667-59.79578 126.135-59.66975 125.60327-59.46762 124.75383-59.3416 124.2262-59.21558 123.69856-59.01346 122.85573-58.88744 122.3321-58.76141 121.80849-58.5593 120.9719-58.43326 120.4523-58.30724 119.93272-58.10513 119.1027-57.97911 118.58719-57.85309 118.07167-57.65097 117.24829-57.52495 116.7368-57.39893 116.22533-57.1968 115.40816-57.07077 114.90068-56.94475 114.3932-56.74265 113.58264-56.61661 113.07925-56.49059 112.57587-56.28848 111.77191-56.16246 111.27255-56.03644 110.77318-55.8343 109.97545-55.70828 109.48012-55.58226 108.98477-55.38014 108.19371-55.25412 107.70238-55.1281 107.21104-54.92596 106.42621-54.79994 105.93892-54.67392 105.45161-54.47182 104.6734-54.3458 104.19017-54.21976 103.70694-54.01765 102.93532-53.89163 102.45613-53.76561 101.97693-53.56348 101.21155-53.43745 100.73636-53.31143 100.26117-53.10931 99.50238-52.98329 99.0313-52.85727 98.5602-52.65515 97.80801-52.52911 97.34094-52.40309 96.87386-52.20099 96.12791-52.07497 95.66484-51.94894 95.20177-51.74683 94.46245-51.6208 94.00346-51.49478 93.54448-51.29265 92.81175-51.16663 92.3568-51.0406 91.90186-50.8385 91.17534-50.71246 90.7244-50.58644 90.27345-50.38434 89.55357-50.25832 89.1067-50.1323 88.65985-49.93016 87.94655-49.80414 87.50372-49.67812 87.06088-49.476 86.35382-49.34998 85.91501-49.22395 85.47618-49.02182 84.77579-48.8958 84.34099-48.76978 83.9062-48.56767 83.21204-48.44165 82.78127-48.31561 82.35051-48.11351 81.66293-47.98749 81.23625-47.86147 80.80956-47.65933 80.12854-47.53331 79.70593-47.40729 79.28331-47.20517 78.60889-47.07915 78.1903-46.95313 77.77171-46.75102 77.1036-46.62498 76.68896-46.49896 76.27434-46.29684 75.61244-46.17082 75.2019-46.0448 74.79135-45.84268 74.13646-45.71666 73.72998-45.59064 73.32352-45.3885 72.67477-45.26248 72.27232-45.13646 71.86989-44.93436 71.22781-44.80832 70.82939-44.6823 70.43095-44.4802 69.7951-44.35417 69.4007-44.22815 69.0063-44.02602 68.37712-43.9 67.98674-43.77397 67.59634-43.57185 66.97334-43.44583 66.58705-43.31981 66.20074-43.11768 65.58472-42.99165 65.2025-42.86563 64.82027-42.66353 64.21048-42.5375 63.83221-42.41147 63.45396-42.20937 62.85045-42.08334 62.4762-41.95732 62.10196-41.75519 61.50505-41.62917 61.1349-41.50314 60.76474-41.30103 60.1744-41.175 59.80832-41.04898 59.44223-40.84688 58.85847-40.72084 58.49643-40.59482 58.13438-40.3927 57.5569-40.26668 57.1988-40.14066 56.84071-39.93854 56.26947-39.81252 55.91547-39.6865 55.56146-39.48436 54.99721-39.35834 54.64728-39.23232 54.29733-39.03021 53.73924-38.90417 53.39334-38.77815 53.04744-38.57605 52.49602-38.45003 52.15411-38.32399 51.81223-38.12187 51.26704-37.99585 50.92917-37.86983 50.59131-37.66771 50.05272-37.54169 49.71893-37.41566 49.38513-37.21355 48.85316-37.08752 48.5234-36.9615 48.19363-36.75938 47.66788-36.63336 47.34213-36.50732 47.01639-36.30522 46.4973-36.1792 46.17558-36.05318 45.85385-35.85104 45.34094-35.72502 45.0233-35.599 44.70566-35.39688 44.19972-35.27086 43.88615-35.14484 43.57259-34.94273 43.07288-34.8167 42.76328-34.69067 42.45367-34.48856 41.96027-34.36253 41.6547-34.23651 41.34912-34.0344 40.8623-33.90837 40.5608-33.78235 40.25931-33.58022 39.7791-33.4542 39.48161-33.32817 39.18413-33.12607 38.71011-33.00003 38.41672-32.87401 38.12332-32.6719 37.65633-32.54588 37.36694-32.41985 37.07756-32.21773 36.61638-32.0917 36.33102-31.96568 36.04565-31.76357 35.5915-31.63754 35.31023-31.51152 35.02893-31.3094 34.58102-31.18338 34.30371-31.05736 34.0264-30.85524 33.5847-30.72922 33.31146-30.60318 33.03822-30.40108 32.60352-30.27505 32.33435-30.14903 32.0652-29.9469 31.63673-29.82088 31.37154-29.69485 31.10634-29.49274 30.6841-29.36671 30.42299-29.24069 30.16187-29.03859 29.7466-28.91255 29.48956-28.78653 29.23253-28.58441 28.82349-28.45839 28.57042-28.33237 28.31735-28.13025 27.9146-28.00423 27.66554-27.8782 27.41649-27.67609 27.02036-27.55006 26.77539-27.42404 26.53043-27.22192 26.14081-27.09589 25.89992-26.96986 25.65903-26.76776 25.27603-26.64174 25.03917-26.5157 24.8023-26.31358 24.42554-26.18756 24.19269-26.06154 23.95984-25.85942 23.58975-25.7334 23.36093-25.60738 23.13211-25.40526 22.76823-25.27924 22.54343-25.15321 22.31862-24.9511 21.96136-24.82507 21.74065-24.69904 21.51993-24.49693 21.16927-24.37091 20.95256-24.24489 20.73586-24.04277 20.39142-23.91675 20.17874-23.79073 19.96608-23.5886 19.62823-23.46257 19.41963-23.33655 19.21103-23.13445 18.87982-23.0084 18.67525-22.88239 18.47067-22.68027 18.14568-22.55424 17.94513-22.42822 17.74457-22.2261 17.42618-22.10008 17.2297-21.97406 17.03323-21.77194 16.72145-21.64592 16.52899-21.5199 16.33653-21.31778 16.03099-21.19174 15.84254-21.06572 15.65411-20.86362 15.35524-20.7376 15.17082-20.61156 14.9864-20.40944 14.69376-20.28342 14.51337-20.1574 14.33298-19.95528 14.04692-19.82925 13.8706-19.70323 13.6943-19.50111 13.41481-19.37509 13.24257-19.24907 13.07033-19.04695 12.79744-18.92093 12.62923-18.79489 12.46103-18.59279 12.19437-18.46677 12.03017-18.34074 11.86597-18.13863 11.60597-18.0126 11.4458-17.88658 11.28564-17.68445 11.03188-17.55843 10.87572-17.4324 10.71956-17.2303 10.47241-17.10426 10.32034-16.97824 10.16827-16.77612 9.92772-16.6501 9.77966-16.52408 9.63162-16.32196 9.3973-16.19594 9.25327-16.06992 9.10925-15.8678 8.88152-15.74178 8.74158-15.61575 8.60162-15.41364 8.38051-15.2876 8.24458-15.16158 8.10867-14.95947 7.89378-14.83345 7.76189-14.70741 7.62997-14.50531 7.42169-14.37929 7.29387-14.25327 7.16605-14.05113 6.96439-13.92511 6.84058-13.79909 6.71677-13.59697 6.52132-13.47095 6.40155-13.34492 6.28177-13.1428 6.09299-13.01678 5.97723-12.89075 5.86147-12.68864 5.67892-12.56262 5.56718-12.4366 5.45544-12.23448 5.2795-12.10846 5.17184-11.98244 5.06418-11.7803 4.89479-11.65428 4.79121-11.52826 4.68764-11.32616 4.52484-11.20012 4.4253-11.0741 4.32573-10.87198 4.1692-10.74596 4.07362-10.61993 3.97803-10.41782 3.82776-10.2918 3.73624-10.16577 3.64473-9.96365 3.50143-9.83763 3.414-9.71161 3.32658-9.50949 3.18951-9.38345 3.10605-9.25743 3.02257-9.05533 2.89172-8.9293 2.81235-8.80327 2.73296-8.60117 2.6091-8.47514 2.5338-8.34912 2.45848-8.14699 2.34085-8.02097 2.26952-7.89494 2.19817-7.69283 2.08676-7.5668 2.0195-7.44078 1.95222-7.23866 1.84789-7.11264 1.78464-6.9866 1.7214-6.7845 1.62283-6.65848 1.56361-6.53246 1.50438-6.33034 1.41286-6.20432 1.35773-6.0783 1.30258-5.87616 1.21722-5.75014 1.1661-5.62411 1.11497-5.42201 1.03625-5.29597 .9892-5.16995 .94215-4.96785 .87001-4.84183 .827-4.7158 .78397-4.51367 .71814-4.38765 .67906-4.26163 .64-4.05951 .58038-3.93349 .54541-3.80746 .51042-3.60535 .4578-3.47931 .4269-3.35329 .396-3.15118 .34953-3.02516 .32265-2.89912 .29578-2.69702 .256-2.571 .23312-2.44498 .21027-2.24284 .1767-2.11682 .15787-1.9908 .13902-1.78868 .11206-1.66266 .0973-1.53664 .08253-1.33452 .06218-1.2085 .05145-1.08246 .04073-.88036 .0266-.75433 .01988-.62831 .01315-.4262 .0057-.30017 .00302-.17415 .00032 .02795-.00093 .15398 .00041 .28 .00179 .4821 .0075 .60814 .01295 .73416 .01842 .93626 .03036 1.06229 .03978 1.18831 .04918 1.39044 .06743 1.51646 .08087 1.64249 .0943 1.8446 .11916 1.97063 .13667 2.09665 .15419 2.29878 .18556 2.4248 .20717 2.55083 .22876 2.75293 .26677 2.87895 .29239 3.00499 .31801 3.20709 .36229 3.33311 .39188 3.45914 .42145 3.66127 .47197 3.7873 .50563 3.91331 .53928 4.11543 .59677 4.24146 .63452 4.36748 .67227 4.56958 .736 4.6956 .7777 4.82164 .8194 5.02376 .88934 5.14978 .93512 5.2758 .98091 5.47792 1.05785 5.60394 1.10771 5.72997 1.15758 5.9321 1.24075 6.05812 1.29457 6.18414 1.3484 6.38625 1.43779 6.51228 1.4957 6.6383 1.5536 6.84041 1.64996 6.96643 1.71196 7.09245 1.77396 7.29459 1.87657 7.42061 1.94252 7.54663 2.00847 7.74875 2.11736 7.87477 2.18733 8.0008 2.25731 8.20293 2.3728 8.32895 2.44685 8.45497 2.5209 8.65707 2.64296 8.7831 2.72108 8.90913 2.79921 9.11124 2.92786 9.23726 3.01001 9.36328 3.09216 9.56541 3.22707 9.69144 3.31323 9.81746 3.3994 10.01958 3.54094 10.1456 3.63113 10.27162 3.72133 10.47372 3.86911 10.59975 3.96333 10.72578 4.05756 10.9279 4.21193 11.05392 4.31023 11.17995 4.40852 11.38206 4.56952 11.50809 4.67183 11.63411 4.77414 11.83624 4.94136 11.96227 5.0477 12.08829 5.15404 12.29039 5.32788 12.41643 5.4383 12.54245 5.5487 12.74455 5.72913 12.87057 5.84357 12.9966 5.95801 13.19873 6.14468 13.32475 6.26314 13.45078 6.38159 13.6529 6.57486 13.77892 6.6974 13.90494 6.81995 14.10706 7.01982 14.23308 7.14638 14.3591 7.27293 14.56122 7.47905 14.68724 7.60963 14.81328 7.74022 15.01538 7.95299 15.1414 8.08759 15.26743 8.22218 15.46956 8.44112 15.59558 8.5798 15.7216 8.71849 15.92372 8.94447 16.04974 9.08717 16.17577 9.22987 16.37787 9.46165 16.50389 9.60838 16.62993 9.75511 16.83205 9.99393 16.95807 10.14473 17.08409 10.29553 17.28621 10.54051 17.41223 10.69534 17.53825 10.85017 17.74039 11.10184 17.86641 11.26068 17.99243 11.41953 18.19453 11.67741 18.32057 11.84029 18.4466 12.00316 18.6487 12.26764 18.77472 12.43459 18.90074 12.60153 19.10287 12.87262 19.2289 13.0436 19.35492 13.21457 19.55704 13.4919 19.68306 13.66689 19.80908 13.84187 20.0112 14.12581 20.13722 14.30489 20.26324 14.48396 20.46536 14.77449 20.59138 14.95758 20.71742 15.14067 20.91953 15.43744 21.04555 15.62456 21.17157 15.81168 21.3737 16.11504 21.49973 16.30623 21.62575 16.49742 21.82787 16.80739 21.95389 17.00261 22.07991 17.19785 22.28201 17.51404 22.40805 17.71327 22.53407 17.91252 22.73619 18.23538 22.86221 18.43866 22.98824 18.64192 23.19035 18.97095 23.31638 19.1783 23.4424 19.38564 23.64452 19.72171 23.77054 19.93307 23.89656 20.14442 24.09868 20.4863 24.22472 20.70168 24.35074 20.91707 24.55284 21.26598 24.67886 21.48544 24.80489 21.70493 25.00702 22.06 25.13304 22.28348 25.25906 22.50696 25.46118 22.86873 25.5872 23.09622 25.71323 23.32372 25.91534 23.6917 26.04137 23.92322 26.16739 24.15475 26.3695 24.52933 26.49553 24.76494 26.62157 25.00056 26.82367 25.38174 26.94969 25.62138 27.07571 25.86101 27.27785 26.24843 27.40387 26.49207 27.52989 26.73572 27.73201 27.12975 27.85803 27.37747 27.98405 27.62521 28.18616 28.02585 28.3122 28.27759 28.43822 28.52933 28.64034 28.9362 28.76636 29.19197 28.89238 29.44774 29.0945 29.86128 29.22052 30.12106 29.34654 30.38086 29.54866 30.80055 29.67468 31.06442 29.8007 31.32831 30.00282 31.75504 30.12886 32.02293 30.25488 32.29082 30.45699 32.72336 30.58301 32.99529 30.70903 33.2672 30.91116 33.70677 31.03719 33.98277 31.16321 34.25876 31.36533 34.7045 31.49135 34.98451 31.61737 35.26454 31.81949 35.71695 31.94551 36.00098 32.07153 36.28502 32.27365 36.74367 32.39967 37.03172 32.52571 37.31978 32.72781 37.78502 32.85384 38.07716 32.97986 38.3693 33.18198 38.84116 33.308 39.13731 33.43402 39.43349 33.63615 39.91158 33.76218 40.21175 33.8882 40.51193 34.0903 40.99661 34.21634 41.30087 34.34236 41.60515 34.54448 42.09644 34.6705 42.40471 34.79652 42.713 34.99864 43.21051 35.12466 43.52281 35.25069 43.83513 35.4528 44.33925 35.57883 44.65564 35.70485 44.97202 35.90697 45.48274 36.033 45.80316 36.15903 46.12357 36.36113 46.64053 36.48715 46.96495 36.61317 47.28938 36.8153 47.81302 36.94133 48.14146 37.06735 48.46992 37.26947 48.99971 37.3955 49.33223 37.52151 49.66476 37.72363 50.20161 37.84966 50.53816 37.97568 50.87473 38.1778 51.41734 38.30382 51.7579 38.42986 52.09848 38.63196 52.64815 38.75798 52.99281 38.884 53.33748 39.08612 53.8933 39.21214 54.24197 39.33817 54.59065 39.5403 55.15315 39.66632 55.50584 39.79234 55.85855 39.99445 56.42729 40.12048 56.784 40.2465 57.14072 40.44862 57.71606 40.57465 58.07686 40.70067 58.43764 40.90279 59.0196 41.02881 59.38443 41.15483 59.74924 41.35695 60.33742 41.48297 60.70627 41.609 61.0751 41.81111 61.66989 41.93715 62.0428 42.06317 62.41573 42.26527 63.01712 42.3913 63.39406 42.51733 63.77098 42.71944 64.3786 42.84546 64.75957 42.97148 65.14053 43.17361 65.75476 43.29964 66.1398 43.42566 66.52484 43.62778 67.14568 43.7538 67.53473 43.87982 67.9238 44.08194 68.55087 44.20796 68.94394 44.334 69.33702 44.5361 69.97076 44.66212 70.36787 44.78815 70.76497 44.99026 71.40494 45.11629 71.80605 45.24231 72.20717 45.44444 72.85374 45.57047 73.25896 45.69649 73.66415 45.89859 74.31726 46.02463 74.72655 46.15065 75.13583 46.35277 75.79553 46.47879 76.20885 46.60481 76.62216 46.80693 77.28818 46.93295 77.70544 47.05898 78.1227 47.2611 78.79494 47.38712 79.21628 47.51314 79.63763 47.71526 80.31686 47.8413 80.7423 47.96732 81.16772 48.16942 81.85316 48.29544 82.28256 48.42148 82.71194 48.62358 83.40363 48.7496 83.8371 48.87563 84.27057 49.07776 84.96922 49.20378 85.40677 49.3298 85.84433 49.53192 86.54922 49.65794 86.99072 49.78397 87.43224 49.98608 88.14336 50.1121 88.58896 50.23814 89.03456 50.44025 89.75272 50.56627 90.20233 50.69229 90.65195 50.89441 91.37589 51.02043 91.82953 51.14645 92.28317 51.34859 93.01416 51.47461 93.47188 51.60063 93.9296 51.80273 94.66675 51.92877 95.1285 52.0548 95.59024 52.2569 96.33406 52.38292 96.79982 52.50894 97.26558 52.71107 98.01558 52.8371 98.48543 52.96312 98.95528 53.16524 99.71231 53.29126 100.18617 53.41728 100.66003 53.6194 101.42285 53.74544 101.90074 53.87146 102.37863 54.07356 103.1485 54.19958 103.63046 54.32562 104.11243 54.52773 104.88847 54.65375 105.37445 54.77977 105.86043 54.9819 106.64314 55.10793 107.13315 55.23395 107.62315 55.43607 108.4121 55.56209 108.90613 55.68811 109.40016 55.89023 110.1957 56.01625 110.6938 56.14229 111.19191 56.34439 111.99408 56.47041 112.4962 56.59644 112.99832 56.79855 113.8067 56.92458 114.31285 57.0506 114.819 57.25273 115.63405 57.37875 116.14421 57.50478 116.65437 57.70688 117.4756 57.83292 117.98985 57.95894 118.5041 58.16104 119.33238 58.28706 119.85065 58.41309 120.36891 58.61522 121.20296 58.74124 121.72527 58.86726 122.24756 59.06938 123.08865 59.1954 123.61502 59.32143 124.14139 59.52354 124.98865 59.64958 125.51904 59.7756 126.04944 59.9777 126.90337 60.10373 127.43777 60.22977 127.9722 60.43187 128.8323 60.55789 129.3708 60.68391 129.9093 60.88605 130.77645 61.01207 131.31896 61.13809 131.86147 61.34021 132.7344 61.46623 133.28095 61.59225 133.8275 61.79436 134.70746 61.92038 135.25807 62.04642 135.80869 62.24854 136.69489 62.37456 137.24947 62.50058 137.80406 62.7027 138.6965 62.82872 139.25516 62.95474 139.81381 63.15688 140.71323 63.2829 141.27597 63.40892 141.83873 63.61102 142.74437 63.73706 143.31107 63.86308 143.87776 64.06519 144.78964 64.19121 145.36043 64.31723 145.93122 64.51936 146.85013 64.64539 147.42493 64.77141 147.99974 64.97353 148.92446 65.09955 149.50328 65.22557 150.08213 65.42767 151.01386 65.55371 151.59677 65.67973 152.17967 65.88185 153.11759 66.00787 153.70452 66.13391 154.29146 66.33601 155.23598 66.46204 155.827 66.58806 156.418 66.79019 157.36913 66.91621 157.96416 67.04224 158.55919 67.24435 159.51662 67.37038 160.1156 67.4964 160.7146 67.6985 161.67826 67.82452 162.28133 67.95056 162.8844 68.15268 163.85501 68.2787 164.46218 68.40472 165.06932 68.60684 166.04613 68.73286 166.6573 68.85889 167.26848 69.06102 168.25196 69.18704 168.86714 69.31306 169.48233 69.51517 170.47203 69.6412 171.09125 69.76723 171.71048 69.96933 172.70679 70.09535 173.33008 70.22137 173.95337 70.42351 174.95629 70.54953 175.58359 70.67555 176.21089 70.87767 177.22005 71.0037 177.8514 71.12971 178.48273 71.33182 179.49848 71.45786 180.1339 71.58388 180.7693 71.786 181.79167 71.91202 182.4311 72.03806 183.07054 72.24016 184.09912 72.36618 184.74259 72.4922 185.38603 72.69434 186.4213 72.82036 187.06877 72.94638 187.71627 73.1485 188.75774 73.27452 189.40924 73.40054 190.06073 73.60265 191.10883 73.72867 191.7644 73.8547 192.42 74.05682 193.47463 74.18285 194.1343 74.30887 194.79395 74.51099 195.85518 74.63701 196.51888 74.76303 197.18256 74.96515 198.25002 75.09117 198.91771 75.2172 199.58542 75.41931 200.65956 75.54535 201.33129 75.67137 202.00302 75.87347 203.08338 75.9995 203.75911 76.12552 204.43486 76.32765 205.52184 76.45367 206.20166 76.5797 206.8815 76.78181 207.97507 76.90784 208.6589 77.03386 209.34276 77.23596 210.44257 77.362 211.13043 77.48802 211.81832 77.69014 212.92472 77.81616 213.61666 77.9422 214.30861 78.1443 215.42162 78.27032 216.1176 78.39635 216.81357 78.59848 217.93282 78.7245 218.63282 78.85052 219.3328 79.05264 220.45871 79.17867 221.16272 79.30469 221.86675 79.50679 222.99881 79.63281 223.70691 79.75885 224.41501 79.96097 225.55406 80.08699 226.26624 80.21301 226.97843 80.41513 228.12369 80.54115 228.83983 80.66718 229.55597 80.8693 230.70754 80.99532 231.4277 81.12134 232.14788 81.32346 233.30605 81.4495 234.03029 81.57552 234.75452 81.77762 235.91931 81.90364 236.64759 82.02966 237.37584 82.2318 238.5468 82.35782 239.27913 82.48384 240.01148 82.68596 241.18947 82.81198 241.92584 82.938 242.66222 83.1401 243.846 83.26614 244.58637 83.39217 245.32675 83.59428 246.51758 83.7203 247.26206 83.84634 248.00653 84.04845 249.2036 84.17447 249.95201 84.30049 250.70044 84.50261 251.90372 84.62863 252.65624 84.75465 253.40876 84.95679 254.61902 85.08281 255.37561 85.20883 256.1322 85.41093 257.34873 85.53696 258.10926 85.663 258.86979 85.86511 260.0926 85.99113 260.85716 86.11716 261.62174 86.31927 262.85115 86.4453 263.61979 86.57132 264.38844 86.77344 265.62437 86.89946 266.39714 87.02548 267.16984 87.2276 268.4124 87.35364 269.18916 87.47966 269.9659 87.68176 271.2147 87.80779 271.99546 87.9338 272.7762 88.13594 274.03169 88.26196 274.81648 88.38799 275.60124 88.5901 276.86289 88.71613 277.65174 88.84215 278.4406 89.04427 279.70927 89.17029 280.50218 89.29631 281.29508 89.49843 282.56953 89.62445 283.36647 89.75049 284.16337 89.95259 285.44486 90.07861 286.24586 90.20464 287.04685 90.40675 288.3345 90.53278 289.13954 90.6588 289.94456 90.86093 291.2389 90.98695 292.0479 91.11298 292.85694 91.31508 294.1575 91.4411 294.97059 91.56714 295.78364 91.76926 297.0908 91.89528 297.90794 92.0213 298.72508 92.22342 300.03883 92.34944 300.86 92.47546 301.68119 92.67758 303.00117 92.8036 303.82637 92.92963 304.65156 93.13174 305.9782 93.25778 306.8074 93.3838 307.6366 93.5859 308.96946 93.71193 309.80274 93.83795 310.636 94.04007 311.9759 94.16609 312.8132 94.29211 313.6505 94.49425 314.99617 94.62027 315.8375 94.74629 316.67884 94.94841 318.03153 95.07443 318.87696 95.20045 319.72236 95.40257 321.08125 95.5286 321.93067 95.65463 322.7801 95.85674 324.14564 95.98276 324.99909 96.10878 325.85255 96.3109 327.22425 96.43692 328.08177 96.56294 328.9393 96.76508 330.31809 96.8911 331.17964 97.01712 332.04118 97.21922 333.42576 97.34525 334.2913 97.47128 335.1569 97.6734 336.54847 97.79942 337.41813 97.92545 338.28779 98.12756 339.6856 98.25359 340.55924 98.37961 341.43284 98.58173 342.83689 98.70775 343.71458 98.83377 344.5923 99.03589 346.0033 99.16193 346.88508 99.28795 347.76686 99.49005 349.1841 99.61607 350.06986 99.7421 350.95558 99.94421 352.3791 100.07024 353.2689 100.19626 354.15873 100.39839 355.58918 100.52441 356.4831 100.65044 357.377 100.85255 358.8137 100.97858 359.71156 101.1046 360.6094 101.30672 362.05244 101.43274 362.9543 101.55878 363.85618 101.76088 365.30577 101.8869 366.21174 102.01292 367.11769 102.21504 368.57383 102.34106 369.4839 102.46709 370.39396 102.66922 371.85667 102.79524 372.77076 102.92126 373.6848 103.12337 375.1538 103.24939 376.07188 103.37543 376.98994 103.57753 378.4656 103.70355 379.3877 103.82957 380.3098 104.03171 381.7917 104.15773 382.71784 104.28375 383.64396 104.48587 385.13243 104.6119 386.06266 104.73792 386.99284 104.94003 388.4879 105.06607 389.42216 105.1921 390.35639 105.3942 391.8577 105.52022 392.79597 105.64624 393.7342 105.84836 395.24214 105.97438 396.18446 106.1004 397.12678 106.30254 398.6413 106.42856 399.58766 106.55458 400.534 106.7567 402.0548 106.88272 403.00517 107.00874 403.9555 107.21086 405.48289 107.33688 406.43733 107.46292 407.39179 107.66502 408.92579 107.79105 409.88423 107.91707 410.8427 108.11919 412.3829 108.24521 413.3454 108.37123 414.3079 108.57336 415.85478 108.69939 416.82127 108.82541 417.78779 109.02751 419.34083 109.15355 420.31144 109.27957 421.28205 109.48167 422.8421 109.6077 423.8167 109.73372 424.79133 109.93585 426.3572 110.06187 427.33586 110.1879 428.31449 110.39001 429.8874 110.51604 430.8701 110.64206 431.85285 110.84418 433.43193 110.97021 434.41868 111.09624 435.4054 111.29834 436.99113 111.42436 437.9819 111.55038 438.97267 111.7525 440.56465 111.87852 441.55943 112.00455 442.5542 112.20668 444.1528 112.3327 445.15168 112.45872 446.1505 112.66084 447.75569 112.78687 448.75859 112.91289 449.76148 113.24101 452.3798 113.24101 452.3798"/>
</g>
<path transform="matrix(1.00009,0,0,-1.00005,120.56023,131.1259)" stroke-width=".79701" stroke-linecap="butt" stroke-dasharray="2.98883,2.98883" stroke-miterlimit="10" stroke-linejoin="miter" fill="none" stroke="#000000" d="M113.38724 28.3468H-113.38724"/>
<path transform="matrix(1.00009,0,0,-1.00005,120.56023,131.1259)" stroke-width=".79701" stroke-linecap="butt" stroke-dasharray="2.98883,2.98883" stroke-miterlimit="10" stroke-linejoin="miter" fill="none" stroke="#000000" d="M28.3468 0V28.3468"/>
<path transform="matrix(1.00009,0,0,-1.00005,120.56023,131.1259)" stroke-width=".79701" stroke-linecap="butt" stroke-dasharray="2.98883,2.98883" stroke-miterlimit="10" stroke-linejoin="miter" fill="none" stroke="#000000" d="M-28.3468 0V28.3468"/>
<use data-text="&#x2022;" xlink:href="#font_3_2" transform="matrix(9.963496,0,0,-9.963098,146.41855,104.99159)"/>
<use data-text="&#x2022;" xlink:href="#font_3_2" transform="matrix(9.963496,0,0,-9.963098,89.72045,104.99159)"/>
<use data-text="x" xlink:href="#font_1_2" transform="matrix(9.963496,0,0,-9.963098,146.06253,138.93529)"/>
<use data-text="&#x2022;" xlink:href="#font_3_2" transform="matrix(9.963496,0,0,-9.963098,146.41855,133.34001)"/>
<use data-text="&#x2022;" xlink:href="#font_3_2" transform="matrix(9.963496,0,0,-9.963098,89.72045,133.34001)"/>
<use data-text="&#x2212;" xlink:href="#font_3_1" transform="matrix(9.963496,0,0,-9.963098,85.489078,140.45737)"/>
<use data-text="x" xlink:href="#font_1_2" transform="matrix(9.963496,0,0,-9.963098,93.238758,140.45737)"/>
<use data-text="&#x2022;" xlink:href="#font_3_2" transform="matrix(9.963496,0,0,-9.963098,118.069,133.34001)"/>
<use data-text="(" xlink:href="#font_4_1" transform="matrix(9.963496,0,0,-9.963098,109.48923,142.11846)"/>
<use data-text="0" xlink:href="#font_4_3" transform="matrix(9.963496,0,0,-9.963098,113.35507,142.11846)"/>
<use data-text="," xlink:href="#font_1_1" transform="matrix(9.963496,0,0,-9.963098,118.34602,142.11846)"/>
<use data-text="0" xlink:href="#font_4_3" transform="matrix(9.963496,0,0,-9.963098,122.774417,142.11846)"/>
<use data-text=")" xlink:href="#font_4_2" transform="matrix(9.963496,0,0,-9.963098,127.75615,142.11846)"/>
</svg>
