<svg xmlns="http://www.w3.org/2000/svg" xmlns:xlink="http://www.w3.org/1999/xlink" version="1.1" width="238" height="239" viewBox="0 0 238 239">
<defs>
<path id="font_1_2" d="M.33399964 .30233766C.33999635 .32835389 .36299134 .42037965 .43299867 .42037965 .43798829 .42037965 .46199037 .42037965 .48298646 .40734864 .45498658 .402359 .43499757 .37734986 .43499757 .35334779 .43499757 .33735658 .44599916 .31835938 .47299195 .31835938 .49499513 .31835938 .5269928 .3363495 .5269928 .37635804 .5269928 .42837525 .46798707 .4423828 .43399049 .4423828 .37599183 .4423828 .34098817 .38935853 .32899476 .36634828 .3039856 .43237306 .25 .4423828 .22099304 .4423828 .116989139 .4423828 .05999756 .3133545 .05999756 .28834535 .05999756 .27833558 .069992069 .27833558 .07199097 .27833558 .07998657 .27833558 .08299255 .28033448 .084991458 .28933717 .11898804 .39535523 .18499756 .42037965 .21899414 .42037965 .23799134 .42037965 .272995 .4113617 .272995 .35334779 .272995 .32235719 .2559967 .25532533 .21899414 .11528015 .20298767 .053268434 .16799927 .011245728 .12399292 .011245728 .117996219 .011245728 .09498596 .011245728 .07398987 .024276734 .09899902 .029266358 .12098694 .05027771 .12098694 .07827759 .12098694 .105270389 .09899902 .11328125 .083999637 .11328125 .053985597 .11328125 .0289917 .08728027 .0289917 .055267335 .0289917 .009246826 .07899475-.0107421879 .12298584-.0107421879 .18899536-.0107421879 .22499085 .059280397 .22799683 .0652771 .23999024 .028274537 .27598573-.0107421879 .33599855-.0107421879 .43899537-.0107421879 .49598695 .118270877 .49598695 .14328003 .49598695 .1532898 .4869995 .1532898 .48399354 .1532898 .47499085 .1532898 .47299195 .14929199 .47099305 .14228821 .43798829 .03527832 .36999513 .011245728 .33799745 .011245728 .29899598 .011245728 .2829895 .043273927 .2829895 .07727051 .2829895 .09927368 .2889862 .121276859 .2999878 .16529846L.33399964 .30233766Z"/>
<path id="font_1_3" d="M.48599244 .38136292C.48999024 .39537049 .48999024 .39736939 .48999024 .40437318 .48999024 .42237855 .47599793 .43138124 .46099855 .43138124 .45098878 .43138124 .43499757 .42536927 .42599488 .41036988 .42399598 .405365 .41600038 .37435914 .4119873 .35635377 .40499879 .33035279 .397995 .30334474 .3919983 .27633668L.34700013 .09628296C.34298707 .08126831 .2999878 .011245728 .23399353 .011245728 .18299866 .011245728 .17199707 .055267335 .17199707 .0922699 .17199707 .1382904 .18899536 .20030213 .22299195 .28833009 .23899842 .3293457 .24299622 .3403473 .24299622 .36035157 .24299622 .405365 .21099854 .4423828 .16099549 .4423828 .06599426 .4423828 .0289917 .29733277 .0289917 .28833009 .0289917 .27833558 .038986207 .27833558 .040985109 .27833558 .050994874 .27833558 .051986696 .28033448 .056991579 .29634095 .083999637 .3903656 .12399292 .42037965 .1579895 .42037965 .1659851 .42037965 .18299866 .42037965 .18299866 .3883667 .18299866 .36335755 .17298889 .3373413 .1659851 .31834413 .12599182 .21231079 .10798645 .1552887 .10798645 .10827637 .10798645 .019256592 .17098999-.0107421879 .22999573-.0107421879 .2689972-.0107421879 .30299378 .0062561037 .33099366 .03425598 .31799317-.017745972 .30599977-.06674194 .2659912-.11973572 .23999024-.15385437 .20199585-.18309021 .1559906-.18309021 .14199829-.18309021 .09700012-.18005371 .07998657-.14074707 .09599304-.14074707 .10899353-.14074707 .12298584-.1287384 .1329956-.11973572 .14299011-.10673523 .14299011-.08773804 .14299011-.056747438 .115997318-.052734376 .10598755-.052734376 .08299255-.052734376 .049987794-.068740848 .049987794-.11773682 .049987794-.16796875 .09399414-.20507813 .1559906-.20507813 .25898744-.20507813 .3619995-.11373901 .3899994-.00074768069L.48599244 .38136292Z"/>
<clipPath id="clip_2">
<path transform="matrix(1.00005,0,0,-1.00003,114.88583,124.09233)" d="M-113.38724-113.38724V113.38724H113.38724V-113.38724ZM113.38724 113.38724"/>
</clipPath>
<path id="font_3_1" d="M.44400025 .24998474C.44400025 .35688783 .35499574 .44381715 .25 .44381715 .14199829 .44381715 .054992677 .35488893 .054992677 .24998474 .054992677 .14407349 .14199829 .056137086 .25 .056137086 .35499574 .056137086 .44400025 .14308167 .44400025 .24998474Z"/>
<path id="font_4_1" d="M.33099366-.2400055C.33099366-.23701477 .33099366-.23500061 .31399537-.21800232 .18899536-.0920105 .15699768 .09700012 .15699768 .25 .15699768 .42399598 .19499207 .59799197 .31799317 .72299197 .33099366 .73498538 .33099366 .7369995 .33099366 .73999026 .33099366 .746994 .32699586 .75 .32099916 .75 .31098939 .75 .22099304 .6819916 .1619873 .5549927 .11099243 .44499208 .09899902 .33399964 .09899902 .25 .09899902 .17199707 .10998535 .050994874 .16499329-.06201172 .22499085-.18501282 .31098939-.25 .32099916-.25 .32699586-.25 .33099366-.24700928 .33099366-.2400055Z"/>
<path id="font_4_3" d="M.45999146 .31976319C.45999146 .39982606 .45498658 .47988893 .41999818 .5539398 .37399293 .65000918 .2919922 .6660156 .25 .6660156 .18998719 .6660156 .116989139 .64001467 .07598877 .54693606 .04399109 .47789 .038986207 .39982606 .038986207 .31976319 .038986207 .24472046 .042999269 .15464783 .083999637 .07859802 .1269989-.0024719239 .19999695-.022460938 .24899292-.022460938 .30299378-.022460938 .3789978-.0014648438 .4229889 .09359741 .45498658 .16265869 .45999146 .2407074 .45999146 .31976319M.24899292-.00047302247C.20999146-.00047302247 .15098572 .024551392 .1329956 .12062073 .12199402 .18066406 .12199402 .2727356 .12199402 .3317871 .12199402 .39582826 .12199402 .46188355 .12998963 .5159149 .14898682 .63500979 .22399903 .64401248 .24899292 .64401248 .28199769 .64401248 .34799195 .6259918 .36698915 .52693179 .3769989 .47088624 .3769989 .39482118 .3769989 .3317871 .3769989 .25672914 .3769989 .18867493 .3659973 .12461853 .35099793 .029556275 .2939911-.00047302247 .24899292-.00047302247Z"/>
<path id="font_1_1" d="M.20298767 .0009918213C.20298767 .066986087 .17799378 .10598755 .13899231 .10598755 .10598755 .10598755 .085998538 .08099365 .085998538 .052993776 .085998538 .025985718 .10598755 0 .13899231 0 .15098572 0 .1639862 .0039978029 .17399597 .0129852299 .1769867 .01499939 .17799378 .015991211 .1789856 .015991211 .17999268 .015991211 .18099976 .01499939 .18099976 .0009918213 .18099976-.07316589 .1459961-.13328552 .11299133-.16635132 .101989749-.17736817 .101989749-.17936707 .101989749-.18237305 .101989749-.18936157 .10699463-.19335938 .11199951-.19335938 .12298584-.19335938 .20298767-.116256717 .20298767 .0009918213Z"/>
<path id="font_4_2" d="M.2889862 .25C.2889862 .32798768 .27799989 .44898988 .22299195 .56199648 .16299439 .68499758 .07699585 .75 .066986087 .75 .06098938 .75 .056991579 .74598696 .056991579 .73999026 .056991579 .7369995 .056991579 .73498538 .07598877 .71699526 .17399597 .6179962 .23098755 .45899964 .23098755 .25 .23098755 .07899475 .19400025-.09700012 .069992069-.2230072 .056991579-.23500061 .056991579-.23701477 .056991579-.2400055 .056991579-.2460022 .06098938-.25 .066986087-.25 .07699585-.25 .16699219-.18200684 .22599793-.055007936 .2769928 .054992677 .2889862 .16600037 .2889862 .25Z"/>
</defs>
<path transform="matrix(1.00005,0,0,-1.00003,114.88583,124.09233)" stroke-width=".19925" stroke-linecap="butt" stroke-miterlimit="10" stroke-linejoin="miter" fill="none" stroke="#929292" stroke-opacity=".5" d="M-113.38724-113.38724H113.38724M-113.38724-85.04042H113.38724M-113.38724-56.69362H113.38724M-113.38724-28.3468H113.38724M-113.38724 0H113.38724M-113.38724 28.3468H113.38724M-113.38724 56.69362H113.38724M-113.38724 85.04042H113.38724M-113.38724 113.37727H113.38724M-113.38724-113.38724V113.38724M-85.04042-113.38724V113.38724M-56.69362-113.38724V113.38724M-28.3468-113.38724V113.38724M0-113.38724V113.38724M28.3468-113.38724V113.38724M56.69362-113.38724V113.38724M85.04042-113.38724V113.38724M113.37727-113.38724V113.38724M113.38724 113.38724"/>
<path transform="matrix(1.00005,0,0,-1.00003,114.88583,124.09233)" stroke-width="1.19553" stroke-linecap="butt" stroke-miterlimit="10" stroke-linejoin="miter" fill="none" stroke="#000000" d="M-113.38724 0H118.10008"/>
<path transform="matrix(1.00005,0,0,-1.00003,232.99182,124.09233)" stroke-width=".9564" stroke-linecap="round" stroke-linejoin="round" fill="none" stroke="#000000" d="M-1.91284 2.55046C-1.75343 1.59402 0 .15938 .4782 0 0-.15938-1.75343-1.59402-1.91284-2.55046"/>
<use data-text="x" xlink:href="#font_1_2" transform="matrix(9.963098,0,0,-9.962899,231.10164,120.17421)"/>
<path transform="matrix(1.00005,0,0,-1.00003,114.88583,124.09233)" stroke-width="1.19553" stroke-linecap="butt" stroke-miterlimit="10" stroke-linejoin="miter" fill="none" stroke="#000000" d="M0-113.38724V118.10008"/>
<path transform="matrix(0,-1.00003,-1.00005,-0,114.88583,5.988701)" stroke-width=".9564" stroke-linecap="round" stroke-linejoin="round" fill="none" stroke="#000000" d="M-1.91284 2.55046C-1.75343 1.59402 0 .15938 .4782 0 0-.15938-1.75343-1.59402-1.91284-2.55046"/>
<use data-text="y" xlink:href="#font_1_3" transform="matrix(9.963098,0,0,-9.962899,118.80403,6.2087938)"/>
<g clip-path="url(#clip_2)">
<path transform="matrix(1.00005,0,0,-1.00003,114.88583,124.09233)" stroke-width=".79701" stroke-linecap="butt" stroke-miterlimit="10" stroke-linejoin="miter" fill="none" stroke="#0000ff" d="M-85.04042-765.36386C-85.04042-765.36386-84.79414-758.7305-84.69958-756.1971-84.60501-753.6636-84.45331-749.6171-84.35873-747.10427-84.26416-744.5914-84.11246-740.5784-84.0179-738.0859-83.92332-735.5932-83.77162-731.6118-83.67705-729.1392-83.58247-726.6667-83.43079-722.7176-83.33621-720.26528-83.24165-717.8129-83.08995-713.8967-82.99538-711.4644-82.9008-709.03219-82.7491-705.1474-82.65453-702.7349-82.55997-700.3225-82.40826-696.4699-82.31369-694.0773-82.21912-691.68466-82.06743-687.86337-81.97285-685.49057-81.8783-683.1177-81.7266-679.3287-81.63202-676.9756-81.53745-674.6225-81.38574-670.8646-81.29117-668.5311-81.1966-666.19766-81.0449-662.4711-80.95033-660.1572-80.85576-657.84329-80.70407-654.14828-80.6095-651.85379-80.51492-649.55929-80.36324-645.89529-80.26866-643.61996-80.17409-641.34469-80.02238-637.71096-79.92781-635.45498-79.83324-633.199-79.68155-629.59707-79.58698-627.3604-79.4924-625.12387-79.34071-621.55276-79.24614-619.33517-79.15157-617.1175-78.99986-613.57589-78.9053-611.3773-78.81073-609.1788-78.65903-605.6691-78.56445-603.4895-78.46988-601.30996-78.31818-597.8291-78.22362-595.6684-78.12904-593.5076-77.97736-590.05838-77.88278-587.91647-77.78821-585.77456-77.6365-582.35427-77.54195-580.2311-77.44737-578.1079-77.29567-574.7187-77.2011-572.61416-77.10652-570.5095-76.95482-567.14907-76.86026-565.06289-76.76569-562.9767-76.61398-559.64578-76.51941-557.57827-76.42484-555.5107-76.27315-552.2106-76.17857-550.1615-76.08401-548.11239-75.93231-544.84066-75.83774-542.80966-75.74316-540.7787-75.59146-537.53628-75.49689-535.52359-75.40233-533.5108-75.25063-530.2977-75.15605-528.30319-75.06148-526.30868-74.90979-523.12466-74.81522-521.14816-74.72066-519.17166-74.56895-516.01657-74.47438-514.058-74.3798-512.0994-74.2281-508.97294-74.13353-507.03227-74.03896-505.0916-73.88727-501.99397-73.7927-500.071-73.69812-498.14805-73.54643-495.07814-73.45186-493.17289-73.35728-491.2676-73.2056-488.22666-73.11102-486.33924-73.01645-484.4518-72.86475-481.4394-72.77017-479.56956-72.6756-477.6997-72.52391-474.71513-72.42934-472.86265-72.33476-471.01014-72.18307-468.05308-72.0885-466.21797-71.99393-464.3829-71.84222-461.45429-71.74767-459.63648-71.65309-457.81867-71.50139-454.91694-71.40681-453.11643-71.31224-451.3159-71.16054-448.44285-71.06598-446.6595-70.9714-444.8761-70.81972-442.02937-70.72514-440.2631-70.63057-438.49684-70.47887-435.67875-70.38431-433.92948-70.28973-432.18019-70.13803-429.38804-70.04346-427.6555-69.94888-425.92295-69.79718-423.15818-69.70262-421.4425-69.60805-419.72685-69.45634-416.989-69.36177-415.29008-69.2672-413.59117-69.11551-410.8799-69.02094-409.1978-68.92638-407.5157-68.77467-404.83204-68.6801-403.16648-68.58553-401.50093-68.43382-398.84275-68.33925-397.19358-68.24469-395.5444-68.09299-392.91307-67.99841-391.28034-67.90384-389.6476-67.75215-387.04234-67.65758-385.42594-67.56302-383.8095-67.41132-381.2307-67.31674-379.63038-67.22217-378.03004-67.07047-375.476-66.97589-373.89189-66.88132-372.30775-66.72963-369.78096-66.63506-368.2131-66.54048-366.64524-66.3888-364.1437-66.29422-362.5918-66.19965-361.03993-66.04796-358.56416-65.95338-357.02809-65.85881-355.49205-65.7071-353.0412-65.61253-351.521-65.51796-350.00083-65.36627-347.57594-65.2717-346.07148-65.17712-344.567-65.02544-342.1665-64.93086-340.67774-64.83629-339.18898-64.68459-336.81465-64.59003-335.3415-64.49545-333.86836-64.34375-331.51789-64.24918-330.0602-64.1546-328.60255-64.0029-326.27778-63.90834-324.83558-63.81377-323.3934-63.66208-321.0927-63.5675-319.6659-63.47293-318.23908-63.32123-315.96357-63.22667-314.552-63.1321-313.1404-62.9804-310.88868-62.88582-309.49217-62.79124-308.09565-62.63954-305.8683-62.54497-304.48683-62.45041-303.10539-62.2987-300.90196-62.20413-299.53559-62.10956-298.1692-61.95787-295.99028-61.8633-294.63883-61.76874-293.28739-61.61703-291.1318-61.52246-289.79524-61.42789-288.4587-61.27618-286.3275-61.18161-285.00575-61.08705-283.68403-60.93535-281.57615-60.84077-280.26905-60.7462-278.96195-60.59451-276.8776-60.49994-275.58509-60.40538-274.29258-60.25368-272.23146-60.1591-270.95347-60.06453-269.67549-59.91283-267.63768-59.81825-266.37419-59.72368-265.11073-59.57199-263.09648-59.47742-261.84724-59.38284-260.598-59.23116-258.60545-59.13658-257.37049-59.042-256.1355-58.89032-254.16709-58.79575-252.94647-58.70117-251.72586-58.54947-249.7797-58.4549-248.57308-58.36032-247.36646-58.20863-245.44246-58.11406-244.24987-58.01949-243.05727-57.8678-241.15628-57.77322-239.97768-57.67865-238.79907-57.52695-236.92012-57.43239-235.75525-57.33781-234.5904-57.18611-232.73307-57.09154-231.58213-56.99696-230.43119-56.84526-228.59723-56.7507-227.46004-56.65613-226.32283-56.50444-224.5097-56.40987-223.38597-56.31529-222.26222-56.16359-220.47083-56.06903-219.36075-55.97446-218.25069-55.82275-216.48188-55.72818-215.3853-55.6336-214.28874-55.4819-212.54074-55.38733-211.45743-55.29277-210.37412-55.14107-208.6476-55.0465-207.57756-54.95192-206.50753-54.80023-204.80213-54.70566-203.74529-54.6111-202.68845-54.4594-201.0042-54.36482-199.96057-54.27025-198.91693-54.11855-197.25399-54.02397-196.22344-53.92941-195.19289-53.77771-193.55069-53.68314-192.53304-53.58856-191.51538-53.43687-189.89376-53.3423-188.88889-53.24773-187.88402-53.09604-186.28264-53.00146-185.29062-52.90689-184.2986-52.75519-182.71822-52.66061-181.73903-52.56604-180.75986-52.41435-179.19995-52.31978-178.23332-52.2252-177.2667-52.07352-175.72624-51.97894-174.77216-51.88437-173.81806-51.73268-172.29833-51.6381-171.35683-51.54353-170.41535-51.39183-168.91574-51.29726-167.9865-51.20268-167.05724-51.051-165.57642-50.95642-164.65941-50.86185-163.74242-50.71016-162.28195-50.61559-161.3773-50.52101-160.47267-50.36931-159.03186-50.27475-158.13933-50.18018-157.24681-50.02847-155.825-49.9339-154.94461-49.83932-154.06421-49.68762-152.66246-49.59306-151.79399-49.49849-150.92554-49.3468-149.54206-49.25223-148.68537-49.15765-147.82868-49.00595-146.46433-48.91139-145.61952-48.81682-144.7747-48.66512-143.42955-48.57054-142.59651-48.47597-141.76348-48.32426-140.43686-48.22969-139.61547-48.13513-138.79407-47.98343-137.4862-47.88885-136.67638-47.79428-135.86655-47.6426-134.57717-47.54802-133.7788-47.45346-132.98044-47.30176-131.70928-47.20718-130.92232-47.11261-130.13536-46.9609-128.88249-46.86633-128.10694-46.77177-127.33138-46.62007-126.09695-46.5255-125.33263-46.43092-124.5683-46.27924-123.35141-46.18466-122.59813-46.09009-121.84483-45.9384-120.6456-45.84383-119.90341-45.74925-119.16122-45.59755-117.98001-45.50298-117.24893-45.4084-116.51785-45.25671-115.35446-45.16214-114.63423-45.06757-113.91402-44.91588-112.76744-44.8213-112.05803-44.72673-111.34862-44.57504-110.21986-44.48047-109.5212-44.3859-108.82254-44.23419-107.71042-44.13962-107.02242-44.04504-106.33443-43.89334-105.23996-43.79878-104.56259-43.70421-103.88522-43.55252-102.80724-43.45795-102.14037-43.36337-101.4735-43.21167-100.4127-43.11711-99.75623-43.02254-99.09975-42.87083-98.05507-42.77626-97.40884-42.68169-96.76262-42.52998-95.73456-42.43542-95.09866-42.34085-94.46275-42.18916-93.45142-42.09459-92.82565-42.00002-92.1999-41.84831-91.20415-41.75375-90.58858-41.65918-89.97302-41.50748-88.99466-41.4129-88.38913-41.31833-87.7836-41.16663-86.81996-41.07205-86.22427-40.9775-85.62859-40.82579-84.68167-40.73122-84.09575-40.63664-83.50984-40.48495-82.57759-40.39038-82.0014-40.29582-81.42522-40.14412-80.50931-40.04955-79.94296-39.95497-79.3766-39.80327-78.47629-39.7087-77.91954-39.61414-77.3628-39.46243-76.47755-39.36786-75.9303-39.27328-75.38304-39.1216-74.5131-39.02702-73.97522-38.93245-73.43733-38.78076-72.58199-38.68619-72.05347-38.59161-71.52493-38.43991-70.68504-38.34534-70.16586-38.25076-69.64668-38.09908-68.82162-38.0045-68.31157-37.90993-67.80151-37.75824-66.99065-37.66367-66.48972-37.56909-65.9888-37.4174-65.19304-37.32283-64.70117-37.22826-64.20932-37.07655-63.42763-36.98198-62.94466-36.8874-62.46167-36.7357-61.69415-36.64114-61.22011-36.54657-60.74606-36.39488-59.9933-36.30031-59.52802-36.20573-59.06273-36.05403-58.32333-35.95947-57.86664-35.8649-57.40994-35.7132-56.68446-35.61862-56.23642-35.52405-55.78836-35.37234-55.07674-35.27779-54.63731-35.18321-54.1979-35.03152-53.50032-34.93695-53.06937-34.84238-52.63843-34.69067-51.95393-34.59612-51.53127-34.50154-51.10858-34.34984-50.4374-34.25526-50.023-34.16069-49.60861-34.00899-48.9507-33.91441-48.54459-33.81985-48.13849-33.66815-47.49403-33.57358-47.09602-33.479-46.69803-33.32732-46.06607-33.23274-45.676-33.13818-45.2859-32.98648-44.66663-32.8919-44.28453-32.79733-43.90242-32.64563-43.29616-32.55106-42.92203-32.4565-42.54791-32.3048-41.95439-32.21022-41.58807-32.11565-41.22176-31.96396-40.6405-31.86938-40.28181-31.77481-39.92313-31.62312-39.3538-31.52855-39.00279-31.43398-38.65178-31.28227-38.09535-31.1877-37.7519-31.09312-37.40845-30.94144-36.86339-30.84686-36.52739-30.75229-36.19138-30.6006-35.65874-30.50603-35.33012-30.41145-35.0015-30.25977-34.48012-30.16519-34.15881-30.07062-33.8375-29.91891-33.32841-29.82434-33.01431-29.72977-32.70021-29.57806-32.20192-29.4835-31.8949-29.38893-31.58788-29.23724-31.10132-29.14267-30.80145-29.0481-30.50157-28.8964-30.02638-28.80183-29.7335-28.70726-29.44064-28.55556-28.97668-28.46098-28.69066-28.36641-28.40463-28.2147-27.95126-28.12015-27.67203-28.02557-27.3928-27.87389-26.95058-27.77931-26.67807-27.68474-26.40555-27.53304-25.97379-27.43846-25.70787-27.3439-25.44196-27.1922-25.02081-27.09763-24.76149-27.00305-24.50218-26.85135-24.09164-26.75677-23.83888-26.66222-23.58612-26.51051-23.18605-26.41594-22.93964-26.32137-22.69324-26.16968-22.303-26.0751-22.06288-25.98055-21.82277-25.82884-21.44292-25.73427-21.20905-25.6397-20.97517-25.48799-20.60497-25.39342-20.37729-25.29886-20.14961-25.14716-19.78964-25.05258-19.56801-24.95801-19.34637-24.80632-18.9956-24.71175-18.77992-24.61717-18.56424-24.46548-18.22319-24.37091-18.01346-24.27634-17.80371-24.12463-17.4721-24.03006-17.26819-23.93549-17.06427-23.7838-16.74185-23.68922-16.5437-23.59465-16.34554-23.44296-16.03241-23.34839-15.83995-23.25381-15.64749-23.10213-15.34349-23.00755-15.15654-22.91298-14.9696-22.76128-14.67409-22.6667-14.4926-22.57213-14.31113-22.42043-14.02457-22.32587-13.84856-22.2313-13.67255-22.0796-13.39464-21.98503-13.22397-21.89046-13.0533-21.73875-12.78386-21.6442-12.61841-21.54962-12.45297-21.39792-12.1917-21.30334-12.03146-21.20877-11.87123-21.05707-11.61867-20.96251-11.46355-20.86794-11.30843-20.71625-11.06357-20.62167-10.91336-20.5271-10.76314-20.3754-10.52618-20.28082-10.38089-20.18626-10.23561-20.03456-10.00655-19.93999-9.86618-19.84541-9.72583-19.69371-9.50487-19.59914-9.36919-19.50458-9.2335-19.35287-9.01921-19.2583-8.88821-19.16373-8.75722-19.01204-8.55128-18.91747-8.42496-18.8229-8.29863-18.6712-8.0996-18.57663-7.97772-18.48206-7.85585-18.33035-7.66393-18.23578-7.54648-18.14122-7.42905-17.98952-7.2443-17.89494-7.13124-17.80037-7.01819-17.64868-6.84044-17.55411-6.73158-17.45953-6.62273-17.30785-6.45128-17.21327-6.34662-17.1187-6.24197-16.967-6.07774-16.87242-5.97723-16.77785-5.87671-16.62616-5.71867-16.53159-5.62212-16.43701-5.52554-16.28532-5.3738-16.19075-5.28127-16.09618-5.18874-15.94449-5.04382-15.84991-4.95514-15.75534-4.86646-15.60364-4.72696-15.50906-4.64198-15.41449-4.55699-15.26279-4.42392-15.16823-4.34267-15.07365-4.26141-14.92197-4.13397-14.8274-4.05632-14.73282-3.97867-14.58112-3.85701-14.48656-3.78296-14.39198-3.70891-14.24028-3.5932-14.1457-3.52258-14.05113-3.45195-13.89943-3.34119-13.80487-3.27386-13.7103-3.20653-13.55861-3.1013-13.46404-3.03728-13.36946-2.97324-13.21776-2.8732-13.12318-2.81235-13.02863-2.7515-12.87692-2.6564-12.78235-2.59868-12.68777-2.54095-12.53607-2.45091-12.4415-2.39626-12.34694-2.34158-12.19524-2.2563-12.10066-2.20464-12.00609-2.15295-11.8544-2.07268-11.75983-2.02383-11.66527-1.97499-11.51357-1.89864-11.41899-1.85255-11.32442-1.80647-11.17271-1.73497-11.07814-1.69164-10.98357-1.64832-10.83188-1.581-10.7373-1.54025-10.64273-1.49951-10.49104-1.43611-10.39647-1.39795-10.3019-1.35979-10.1502-1.30087-10.05563-1.26517-9.96106-1.22945-9.80936-1.17393-9.71478-1.14058-9.62021-1.10722-9.46852-1.05568-9.37395-1.02467-9.27937-.99365-9.12769-.94576-9.03311-.91696-8.93854-.88817-8.78683-.84375-8.69228-.81705-8.5977-.79036-8.446-.74915-8.35143-.72449-8.25685-.69983-8.10515-.66196-8.01059-.63928-7.91602-.6166-7.76433-.58174-7.66975-.56099-7.57518-.54024-7.42348-.50858-7.32892-.48962-7.23434-.47066-7.08264-.44157-6.98807-.42432-6.8935-.40704-6.74179-.38065-6.64723-.36505-6.55266-.34946-6.40097-.32588-6.3064-.31184-6.21182-.29782-6.06012-.27644-5.96555-.26384-5.87099-.25124-5.71928-.23218-5.62471-.22101-5.53014-.20985-5.37843-.1932-5.28386-.18338-5.1893-.17354-5.0376-.15872-4.94302-.15009-4.84845-.14145-4.69676-.12859-4.60219-.1211-4.50763-.1136-4.35593-.10242-4.26135-.09601-4.16678-.0896-4.01508-.08028-3.9205-.07481-3.82593-.06937-3.67424-.06122-3.57967-.05666-3.48509-.0521-3.3334-.04564-3.23883-.04193-3.14426-.03822-2.99257-.03276-2.898-.02983-2.80342-.0269-2.65172-.02301-2.55714-.02074-2.46257-.01848-2.31088-.0152-2.21631-.0134-2.12173-.01161-1.97005-.00902-1.87547-.00778-1.7809-.00653-1.6292-.00514-1.53464-.0043-1.44006-.00348-1.28836-.00224-1.19379-.00171-1.09921-.00117-.94751-.00064-.85295-.00041-.75838-.00018-.60669-.00003-.51212 0-.41754 .00003-.26584 0-.17128 0-.0767 0 .07497 0 .16954 0 .26411 0 .41582-.00003 .51038 0 .60495 .00003 .75664 .00018 .85121 .00041 .94579 .00064 1.09749 .00117 1.19206 .00171 1.28662 .00224 1.43832 .00348 1.5329 .0043 1.62747 .00514 1.77917 .00653 1.87375 .00778 1.9683 .00902 2.12001 .01167 2.21458 .0134 2.30916 .01514 2.46085 .01805 2.55542 .02032 2.64998 .02258 2.80168 .02684 2.89626 .02983 2.99083 .03282 3.14253 .03822 3.2371 .04193 3.33168 .04564 3.48337 .0521 3.57794 .05666 3.67252 .06122 3.8242 .06937 3.91878 .07481 4.01335 .08028 4.16504 .0896 4.25961 .09601 4.35419 .10242 4.50589 .1136 4.60046 .1211 4.69504 .12859 4.84673 .14151 4.9413 .15009 5.03587 .15866 5.18756 .17311 5.28214 .18295 5.37671 .19278 5.52841 .2098 5.62297 .22101 5.71754 .23224 5.86925 .25131 5.96382 .26384 6.0584 .27637 6.2101 .29738 6.30466 .3114 6.39923 .32544 6.55092 .34946 6.6455 .36505 6.74007 .38065 6.89177 .40665 6.98633 .42387 7.0809 .44109 7.2326 .47017 7.32718 .4892 7.42175 .50821 7.57346 .54024 7.66803 .56099 7.76259 .58174 7.91428 .61623 8.00885 .63884 8.10342 .66145 8.25513 .69939 8.3497 .72404 8.44426 .7487 8.59596 .78992 8.69054 .81662 8.78511 .8433 8.93681 .88773 9.03139 .91653 9.12595 .94534 9.27765 .99323 9.37222 1.02425 9.4668 1.05525 9.61848 1.10686 9.71306 1.14015 9.80762 1.17345 9.95932 1.2286 10.0539 1.2643 10.14847 1.29999 10.30017 1.35936 10.39474 1.3975 10.48932 1.43567 10.641 1.4987 10.73558 1.53938 10.83015 1.58008 10.98184 1.64745 11.07642 1.69077 11.17099 1.7341 11.32268 1.80565 11.41725 1.85168 11.51183 1.89772 11.66353 1.9737 11.7581 2.02254 11.85268 2.07138 12.00436 2.15204 12.09894 2.20377 12.19351 2.25548 12.3452 2.34071 12.43977 2.39539 12.53435 2.45004 12.68605 2.54015 12.78061 2.59781 12.87518 2.65547 13.02689 2.75027 13.12146 2.81105 13.21603 2.87183 13.36774 2.97194 13.4623 3.03596 13.55687 3.09999 13.70856 3.20523 13.80313 3.27257 13.8977 3.3399 14.04941 3.45064 14.14397 3.52127 14.23854 3.5919 14.39024 3.70761 14.48482 3.78166 14.57939 3.85571 14.7311 3.97737 14.82567 4.05502 14.92023 4.13268 15.07191 4.26012 15.16649 4.34137 15.26106 4.42262 15.41277 4.55577 15.50734 4.64069 15.6019 4.7256 15.7536 4.86472 15.84818 4.9534 15.94275 5.0421 16.09445 5.18744 16.18903 5.27997 16.28358 5.37251 16.43529 5.52388 16.52986 5.62038 16.62444 5.71687 16.77612 5.87498 16.8707 5.9755 16.96527 6.076 17.11696 6.2403 17.21153 6.3449 17.3061 6.44948 17.45781 6.6206 17.55238 6.7294 17.64696 6.83821 17.79865 7.01602 17.89322 7.12909 17.9878 7.24214 18.13948 7.42688 18.23405 7.54431 18.32863 7.66174 18.48032 7.85368 18.57489 7.97556 18.66946 8.09743 18.82117 8.29648 18.91574 8.4228 19.01031 8.54913 19.162 8.7551 19.25658 8.88605 19.35115 9.017 19.50284 9.23099 19.59741 9.36661 19.69199 9.50221 19.84369 9.72322 19.93825 9.86359 20.03282 10.00394 20.18452 10.23308 20.2791 10.37831 20.37367 10.52353 20.52538 10.76018 20.61993 10.91032 20.71451 11.06049 20.8662 11.30533 20.96077 11.46051 21.05534 11.61569 21.20705 11.86864 21.3016 12.02885 21.39618 12.18909 21.54788 12.44998 21.64246 12.61539 21.73703 12.78078 21.88873 13.05026 21.9833 13.22095 22.07787 13.39162 22.22955 13.66959 22.32413 13.84554 22.4187 14.02147 22.5704 14.30779 22.66498 14.48915 22.75954 14.67052 22.91124 14.96571 23.00581 15.15265 23.10039 15.3396 23.25209 15.64398 23.34666 15.8365 23.44122 16.02902 23.59293 16.34207 23.6875 16.54024 23.78207 16.73839 23.93376 17.06088 24.02834 17.26474 24.12291 17.4686 24.2746 17.79988 24.36917 18.00957 24.46375 18.21924 24.61545 18.56041 24.71002 18.77603 24.8046 18.99165 24.95628 19.34204 25.05086 19.56367 25.14543 19.78531 25.29712 20.14572 25.3917 20.3734 25.48627 20.60107 25.63795 20.97092 25.73253 21.20473 25.8271 21.43854 25.9788 21.81851 26.07338 22.05856 26.16795 22.29861 26.31966 22.68854 26.41422 22.93488 26.50879 23.18123 26.66048 23.58136 26.75505 23.83412 26.84962 24.08688 27.00133 24.49748 27.09589 24.75673 27.19046 25.01599 27.34216 25.43684 27.43674 25.7027 27.53131 25.96854 27.68301 26.40036 27.77757 26.67287 27.87215 26.94537 28.02383 27.3876 28.11841 27.66685 28.21298 27.94609 28.36469 28.3995 28.45924 28.68547 28.55382 28.97144 28.70552 29.43503 28.8001 29.72789 28.89467 30.02075 29.04637 30.49632 29.14095 30.79625 29.2355 31.09619 29.38719 31.58281 29.48177 31.88971 29.57634 32.19661 29.72804 32.69421 29.82262 33.00826 29.91718 33.3223 30.06888 33.83188 30.16345 34.15318 30.25803 34.47449 30.40973 34.9955 30.5043 35.32407 30.59886 35.65265 30.75056 36.18538 30.84514 36.52133 30.93971 36.85728 31.0914 37.40201 31.18597 37.7454 31.28055 38.0888 31.43224 38.6453 31.52681 38.9963 31.62138 39.34732 31.77309 39.91663 31.86766 40.27533 31.96223 40.63402 32.11392 41.21527 32.2085 41.5816 32.30307 41.94792 32.45476 42.54149 32.54933 42.91554 32.6439 43.2896 32.7956 43.89561 32.89017 44.27759 32.98474 44.65958 33.13644 45.27869 33.23102 45.66866 33.32559 46.05861 33.4773 46.69023 33.57185 47.08823 33.66643 47.48624 33.81812 48.13113 33.91269 48.53723 34.00726 48.94334 34.15897 49.60089 34.25352 50.01521 34.3481 50.42955 34.4998 51.1008 34.59438 51.52348 34.68895 51.94615 34.84065 52.63058 34.93521 53.06158 35.02979 53.4926 35.18147 54.19061 35.27605 54.62996 35.37062 55.0693 35.52232 55.78024 35.6169 56.2282 35.71146 56.67613 35.86316 57.4018 35.95773 57.85843 36.0523 58.31506 36.20401 59.05415 36.29858 59.51936 36.39314 59.98459 36.54483 60.73741 36.6394 61.21146 36.73398 61.6855 36.88568 62.45306 36.98026 62.93599 37.07481 63.4189 37.22652 64.20024 37.32109 64.69211 37.41566 65.18396 37.56737 65.98021 37.66194 66.48106 37.7565 66.98193 37.9082 67.79211 38.00278 68.30206 38.09735 68.812 38.24904 69.63718 38.34361 70.15634 38.43819 70.67552 38.58987 71.51547 38.68445 72.04395 38.77902 72.57243 38.93073 73.42744 39.0253 73.96529 39.11987 74.50311 39.27156 75.37315 39.36613 75.92035 39.46071 76.46754 39.6124 77.35242 39.70697 77.90916 39.80154 78.4659 39.95323 79.36667 40.0478 79.93301 40.14238 80.49936 40.29408 81.41502 40.38866 81.99103 40.48323 82.56703 40.63493 83.49867 40.72949 84.0845 40.82407 84.67035 40.97575 85.61777 41.07033 86.21346 41.1649 86.80914 41.3166 87.7723 41.41116 88.37788 41.50574 88.98346 41.65744 89.9627 41.75201 90.5782 41.84659 91.1937 41.99829 92.1884 42.09285 92.81398 42.18742 93.43956 42.33911 94.45107 42.43369 95.08698 42.52826 95.72287 42.67996 96.75105 42.77454 97.39716 42.8691 98.04326 43.0208 99.08727 43.11537 99.74368 43.20995 100.4001 43.36165 101.46146 43.45622 102.12827 43.55078 102.79507 43.70247 103.8723 43.79704 104.5496 43.89162 105.22691 44.04332 106.32188 44.1379 107.00989 44.23245 107.69788 44.38416 108.80956 44.47873 109.50822 44.5733 110.2069 44.725 111.33614 44.81958 112.04549 44.91414 112.75485 45.06584 113.90073 45.16042 114.62083 45.25499 115.34093 45.40668 116.50438 45.50125 117.23552 45.59583 117.96666 45.74751 119.14832 45.84209 119.89043 45.93666 120.63254 46.08836 121.83118 46.18294 122.58427 46.27751 123.33739 46.4292 124.55403 46.52377 125.31836 46.61835 126.08267 46.77003 127.31752 46.86461 128.09308 46.95918 128.86864 47.11087 130.12114 47.20544 130.90805 47.30002 131.69495 47.45172 132.96622 47.5463 133.76453 47.64087 134.56282 47.79257 135.8519 47.88713 136.66165 47.9817 137.47142 48.13339 138.77948 48.22797 139.60077 48.32254 140.42205 48.47424 141.74803 48.5688 142.58095 48.66338 143.41387 48.81508 144.75914 48.90965 145.60395 49.00423 146.44875 49.15593 147.81314 49.25049 148.66979 49.34506 149.52642 49.49675 150.9096 49.59132 151.778 49.6859 152.64641 49.8376 154.0482 49.93217 154.9286 50.02673 155.80899 50.17844 157.23087 50.27301 158.12332 50.36758 159.0158 50.51929 160.4563 50.61386 161.36087 50.70842 162.26546 50.8601 163.72615 50.95468 164.64298 51.04926 165.55982 51.20096 167.03969 51.29553 167.96877 51.39009 168.89783 51.5418 170.39749 51.63637 171.33911 51.73094 172.28072 51.88264 173.80126 51.97722 174.75528 52.0718 175.7093 52.22348 177.2487 52.31805 178.21515 52.41263 179.18161 52.56432 180.7417 52.65889 181.72087 52.75346 182.70005 52.90515 184.28055 52.99973 185.27245 53.0943 186.26435 53.246 187.86505 53.34058 188.86986 53.43515 189.87467 53.58684 191.49672 53.68141 192.51442 53.77599 193.53214 53.92767 195.17441 54.02225 196.20485 54.11682 197.23528 54.26851 198.89766 54.36308 199.94112 54.45766 200.98456 54.60936 202.66861 54.70393 203.72539 54.79851 204.78217 54.95021 206.48769 55.04477 207.55767 55.13934 208.62764 55.29103 210.35385 55.3856 211.4371 55.48018 212.52036 55.63188 214.26842 55.72644 215.36498 55.82101 216.46155 55.97272 218.23043 56.06729 219.34043 56.16187 220.45044 56.31357 222.24152 56.40813 223.3652 56.5027 224.48889 56.65439 226.30207 56.74896 227.43927 56.84354 228.57646 56.99524 230.41048 57.08981 231.56136 57.18437 232.71225 57.33607 234.56938 57.43065 235.73406 57.52522 236.89875 57.67693 238.77707 57.7715 239.95563 57.86606 241.13417 58.01775 243.0357 58.11232 244.22824 58.2069 245.42078 58.3586 247.34415 58.45317 248.5506 58.54773 249.75704 58.69943 251.7028 58.794 252.92356 58.88858 254.14429 59.04028 256.11396 59.13486 257.34886 59.22943 258.58375 59.38112 260.57484 59.4757 261.82389 59.57027 263.07295 59.72195 265.08778 59.81653 266.35127 59.9111 267.61473 60.06279 269.65226 60.15736 270.9301 60.25194 272.20799 60.40364 274.26884 60.49821 275.56129 60.59279 276.85374 60.74448 278.9382 60.83905 280.24525 60.93362 281.55229 61.08531 283.6598 61.17989 284.98155 61.27446 286.30329 61.42616 288.43489 61.52072 289.77146 61.6153 291.10804 61.767 293.2632 61.86157 294.6146 61.95615 295.96598 62.10785 298.1452 62.20241 299.51136 62.29698 300.8775 62.44867 303.07969 62.54324 304.46089 62.63782 305.8421 62.78952 308.0697 62.88408 309.46623 62.97865 310.86274 63.13036 313.11454 63.22493 314.52604 63.3195 315.93757 63.4712 318.21275 63.56577 319.6395 63.66034 321.06629 63.81203 323.36705 63.9066 324.8092 64.00117 326.2514 64.15288 328.57624 64.24745 330.03385 64.34201 331.49147 64.49371 333.8416 64.58829 335.31468 64.68286 336.78779 64.83456 339.16236 64.92914 340.6509 65.0237 342.13948 65.17538 344.53895 65.26996 346.04335 65.36453 347.5478 65.51624 349.97358 65.61081 351.49378 65.70537 353.01396 65.85707 355.4641 65.95164 356.99998 66.04622 358.53584 66.19792 361.0115 66.2925 362.5633 66.38707 364.11506 66.53876 366.61634 66.63333 368.1841 66.7279 369.7519 66.8796 372.27885 66.97417 373.8629 67.06874 375.44697 67.22043 378.0007 67.315 379.60096 67.40958 381.20124 67.56128 383.7803 67.65585 385.3965 67.75043 387.01274 67.90211 389.61708 67.99669 391.24964 68.09126 392.8822 68.24295 395.51374 68.33752 397.16288 68.4321 398.81199 68.5838 401.46974 68.67836 403.13536 68.77293 404.80097 68.92464 407.48536 69.01921 409.16755 69.11378 410.8497 69.26549 413.56065 69.36005 415.25938 69.45462 416.95814 69.60631 419.69548 69.70088 421.41093 69.79546 423.12644 69.94716 425.89109 70.04172 427.62348 70.13629 429.3559 70.288 432.1478 70.38257 433.89704 70.47714 435.64625 70.62885 438.4644 70.7234 440.23069 70.81798 441.99693 70.96967 444.84367 71.06424 446.62705 71.15881 448.4104 71.31052 451.2835 71.40509 453.08399 71.49965 454.88444 71.65135 457.78593 71.74593 459.6036 71.8405 461.4213 71.9922 464.34977 72.08678 466.18467 72.18134 468.0196 72.33302 470.97615 72.4276 472.82847 72.52217 474.6808 72.67387 477.66505 72.76845 479.53498 72.863 481.40486 73.01471 484.41798 73.10928 486.30549 73.20386 488.19297 73.35556 491.2337 73.45013 493.13874 73.54471 495.04374 73.6964 498.11277 73.79097 500.03556 73.88554 501.9583 74.03723 505.0562 74.1318 506.9968 74.22638 508.9374 74.37807 512.0636 74.47264 514.0221 74.56721 515.9806 74.71892 519.1358 74.81349 521.11227 74.90807 523.0887 75.05975 526.2725 75.15433 528.26687 75.2489 530.26119 75.40059 533.4734 75.49516 535.4859 75.58974 537.4985 75.74144 540.7411 75.836 542.77206 75.93057 544.803 76.08228 548.0742 76.17685 550.1234 76.27142 552.17269 76.42313 555.474 76.51768 557.54147 76.61226 559.60897 76.76395 562.9385 76.85852 565.02438 76.9531 567.1102 77.1048 570.47067 77.19936 572.5752 77.29393 574.6797 77.44563 578.0691 77.5402 580.1922 77.63478 582.3153 77.78648 585.7352 77.88106 587.8771 77.97562 590.0189 78.1273 593.4683 78.22188 595.629 78.31645 597.7897 78.46815 601.2702 78.56273 603.44979 78.65729 605.6293 78.80899 609.13919 78.90356 611.3375 78.99814 613.5359 79.14984 617.0765 79.24442 619.29409 79.33897 621.5116 79.49066 625.08358 79.58524 627.3202 79.67981 629.5569 79.83151 633.15859 79.92609 635.4143 80.02065 637.67007 80.17235 641.303 80.26692 643.578 80.3615 645.8531 80.5132 649.51699 80.60777 651.8114 80.70235 654.10586 80.85403 657.8009 80.94861 660.1148 81.04318 662.4287 81.19487 666.1549 81.28944 668.48837 81.38402 670.8217 81.5357 674.57937 81.63028 676.9323 81.72485 679.28536 81.87656 683.0745 81.97113 685.44729 82.0657 687.82 82.21739 691.6412 82.31197 694.03359 82.40654 696.42599 82.55823 700.2777 82.6528 702.68997 82.74738 705.10226 82.89908 708.98709 82.99364 711.41946 83.08821 713.8518 83.23991 717.7685 83.33449 720.2207 83.42906 722.6729 83.58076 726.621 83.67532 729.0934 83.7699 731.5658 83.92159 735.54727 84.01616 738.04 84.11073 740.5327 84.26244 744.54647 84.357 747.05929 84.45157 749.5721 84.60327 753.61758 84.69785 756.1508 84.79242 758.684 85.0387 765.31716 85.0387 765.31716"/>
</g>
<use data-text="&#x2022;" xlink:href="#font_3_1" transform="matrix(9.963098,0,0,-9.962899,140.74314,97.95854)"/>
<use data-text="&#x2022;" xlink:href="#font_3_1" transform="matrix(9.963098,0,0,-9.962899,112.39471,126.3064)"/>
<use data-text="(" xlink:href="#font_4_1" transform="matrix(9.963098,0,0,-9.962899,118.406009,135.08466)"/>
<use data-text="0" xlink:href="#font_4_3" transform="matrix(9.963098,0,0,-9.962899,122.2717,135.08466)"/>
<use data-text="," xlink:href="#font_1_1" transform="matrix(9.963098,0,0,-9.962899,127.26245,135.08466)"/>
<use data-text="0" xlink:href="#font_4_3" transform="matrix(9.963098,0,0,-9.962899,131.69068,135.08466)"/>
<use data-text=")" xlink:href="#font_4_2" transform="matrix(9.963098,0,0,-9.962899,136.67221,135.08466)"/>
</svg>
