<svg xmlns="http://www.w3.org/2000/svg" xmlns:xlink="http://www.w3.org/1999/xlink" version="1.1" width="307" height="167" viewBox="0 0 307 167">
<defs>
<path id="font_1_2" d="M.33399964 .30233766C.33999635 .32835389 .36299134 .42037965 .43299867 .42037965 .43798829 .42037965 .46199037 .42037965 .48298646 .40734864 .45498658 .402359 .43499757 .37734986 .43499757 .35334779 .43499757 .33735658 .44599916 .31835938 .47299195 .31835938 .49499513 .31835938 .5269928 .3363495 .5269928 .37635804 .5269928 .42837525 .46798707 .4423828 .43399049 .4423828 .37599183 .4423828 .34098817 .38935853 .32899476 .36634828 .3039856 .43237306 .25 .4423828 .22099304 .4423828 .116989139 .4423828 .05999756 .3133545 .05999756 .28834535 .05999756 .27833558 .069992069 .27833558 .07199097 .27833558 .07998657 .27833558 .08299255 .28033448 .084991458 .28933717 .11898804 .39535523 .18499756 .42037965 .21899414 .42037965 .23799134 .42037965 .272995 .4113617 .272995 .35334779 .272995 .32235719 .2559967 .25532533 .21899414 .11528015 .20298767 .053268434 .16799927 .011245728 .12399292 .011245728 .117996219 .011245728 .09498596 .011245728 .07398987 .024276734 .09899902 .029266358 .12098694 .05027771 .12098694 .07827759 .12098694 .105270389 .09899902 .11328125 .083999637 .11328125 .053985597 .11328125 .0289917 .08728027 .0289917 .055267335 .0289917 .009246826 .07899475-.0107421879 .12298584-.0107421879 .18899536-.0107421879 .22499085 .059280397 .22799683 .0652771 .23999024 .028274537 .27598573-.0107421879 .33599855-.0107421879 .43899537-.0107421879 .49598695 .118270877 .49598695 .14328003 .49598695 .1532898 .4869995 .1532898 .48399354 .1532898 .47499085 .1532898 .47299195 .14929199 .47099305 .14228821 .43798829 .03527832 .36999513 .011245728 .33799745 .011245728 .29899598 .011245728 .2829895 .043273927 .2829895 .07727051 .2829895 .09927368 .2889862 .121276859 .2999878 .16529846L.33399964 .30233766Z"/>
<path id="font_1_3" d="M.48599244 .38136292C.48999024 .39537049 .48999024 .39736939 .48999024 .40437318 .48999024 .42237855 .47599793 .43138124 .46099855 .43138124 .45098878 .43138124 .43499757 .42536927 .42599488 .41036988 .42399598 .405365 .41600038 .37435914 .4119873 .35635377 .40499879 .33035279 .397995 .30334474 .3919983 .27633668L.34700013 .09628296C.34298707 .08126831 .2999878 .011245728 .23399353 .011245728 .18299866 .011245728 .17199707 .055267335 .17199707 .0922699 .17199707 .1382904 .18899536 .20030213 .22299195 .28833009 .23899842 .3293457 .24299622 .3403473 .24299622 .36035157 .24299622 .405365 .21099854 .4423828 .16099549 .4423828 .06599426 .4423828 .0289917 .29733277 .0289917 .28833009 .0289917 .27833558 .038986207 .27833558 .040985109 .27833558 .050994874 .27833558 .051986696 .28033448 .056991579 .29634095 .083999637 .3903656 .12399292 .42037965 .1579895 .42037965 .1659851 .42037965 .18299866 .42037965 .18299866 .3883667 .18299866 .36335755 .17298889 .3373413 .1659851 .31834413 .12599182 .21231079 .10798645 .1552887 .10798645 .10827637 .10798645 .019256592 .17098999-.0107421879 .22999573-.0107421879 .2689972-.0107421879 .30299378 .0062561037 .33099366 .03425598 .31799317-.017745972 .30599977-.06674194 .2659912-.11973572 .23999024-.15385437 .20199585-.18309021 .1559906-.18309021 .14199829-.18309021 .09700012-.18005371 .07998657-.14074707 .09599304-.14074707 .10899353-.14074707 .12298584-.1287384 .1329956-.11973572 .14299011-.10673523 .14299011-.08773804 .14299011-.056747438 .115997318-.052734376 .10598755-.052734376 .08299255-.052734376 .049987794-.068740848 .049987794-.11773682 .049987794-.16796875 .09399414-.20507813 .1559906-.20507813 .25898744-.20507813 .3619995-.11373901 .3899994-.00074768069L.48599244 .38136292Z"/>
<clipPath id="clip_2">
<path transform="matrix(1.00008,0,0,-1.00006,148.90847,159.47679)" d="M-141.73404 0V141.73404H141.73404V0ZM141.73404 141.73404"/>
</clipPath>
<path id="font_3_1" d="M.44400025 .24998474C.44400025 .35688783 .35499574 .44381715 .25 .44381715 .14199829 .44381715 .054992677 .35488893 .054992677 .24998474 .054992677 .14407349 .14199829 .056137086 .25 .056137086 .35499574 .056137086 .44400025 .14308167 .44400025 .24998474Z"/>
<path id="font_4_1" d="M.33099366-.2400055C.33099366-.23701477 .33099366-.23500061 .31399537-.21800232 .18899536-.0920105 .15699768 .09700012 .15699768 .25 .15699768 .42399598 .19499207 .59799197 .31799317 .72299197 .33099366 .73498538 .33099366 .7369995 .33099366 .73999026 .33099366 .746994 .32699586 .75 .32099916 .75 .31098939 .75 .22099304 .6819916 .1619873 .5549927 .11099243 .44499208 .09899902 .33399964 .09899902 .25 .09899902 .17199707 .10998535 .050994874 .16499329-.06201172 .22499085-.18501282 .31098939-.25 .32099916-.25 .32699586-.25 .33099366-.24700928 .33099366-.2400055Z"/>
<path id="font_4_3" d="M.45999146 .31976319C.45999146 .39982606 .45498658 .47988893 .41999818 .5539398 .37399293 .65000918 .2919922 .6660156 .25 .6660156 .18998719 .6660156 .116989139 .64001467 .07598877 .54693606 .04399109 .47789 .038986207 .39982606 .038986207 .31976319 .038986207 .24472046 .042999269 .15464783 .083999637 .07859802 .1269989-.0024719239 .19999695-.022460938 .24899292-.022460938 .30299378-.022460938 .3789978-.0014648438 .4229889 .09359741 .45498658 .16265869 .45999146 .2407074 .45999146 .31976319M.24899292-.00047302247C.20999146-.00047302247 .15098572 .024551392 .1329956 .12062073 .12199402 .18066406 .12199402 .2727356 .12199402 .3317871 .12199402 .39582826 .12199402 .46188355 .12998963 .5159149 .14898682 .63500979 .22399903 .64401248 .24899292 .64401248 .28199769 .64401248 .34799195 .6259918 .36698915 .52693179 .3769989 .47088624 .3769989 .39482118 .3769989 .3317871 .3769989 .25672914 .3769989 .18867493 .3659973 .12461853 .35099793 .029556275 .2939911-.00047302247 .24899292-.00047302247Z"/>
<path id="font_1_1" d="M.20298767 .0009918213C.20298767 .066986087 .17799378 .10598755 .13899231 .10598755 .10598755 .10598755 .085998538 .08099365 .085998538 .052993776 .085998538 .025985718 .10598755 0 .13899231 0 .15098572 0 .1639862 .0039978029 .17399597 .0129852299 .1769867 .01499939 .17799378 .015991211 .1789856 .015991211 .17999268 .015991211 .18099976 .01499939 .18099976 .0009918213 .18099976-.07316589 .1459961-.13328552 .11299133-.16635132 .101989749-.17736817 .101989749-.17936707 .101989749-.18237305 .101989749-.18936157 .10699463-.19335938 .11199951-.19335938 .12298584-.19335938 .20298767-.116256717 .20298767 .0009918213Z"/>
<path id="font_4_4" d="M.2939911 .64004519C.2939911 .66400149 .2939911 .6660156 .2709961 .6660156 .20899964 .60227969 .12098694 .60227969 .08898926 .60227969V.57128909C.10899353 .57128909 .16799927 .57128909 .21998596 .5972748V.07902527C.21998596 .042999269 .21699524 .0309906 .1269989 .0309906H.09498596V0C.12998963 .0029907227 .21699524 .0029907227 .25698854 .0029907227 .29699708 .0029907227 .38398744 .0029907227 .4189911 0V.0309906H.3869934C.29699708 .0309906 .2939911 .041992189 .2939911 .07902527V.64004519Z"/>
<path id="font_4_2" d="M.2889862 .25C.2889862 .32798768 .27799989 .44898988 .22299195 .56199648 .16299439 .68499758 .07699585 .75 .066986087 .75 .06098938 .75 .056991579 .74598696 .056991579 .73999026 .056991579 .7369995 .056991579 .73498538 .07598877 .71699526 .17399597 .6179962 .23098755 .45899964 .23098755 .25 .23098755 .07899475 .19400025-.09700012 .069992069-.2230072 .056991579-.23500061 .056991579-.23701477 .056991579-.2400055 .056991579-.2460022 .06098938-.25 .066986087-.25 .07699585-.25 .16699219-.18200684 .22599793-.055007936 .2769928 .054992677 .2889862 .16600037 .2889862 .25Z"/>
</defs>
<path transform="matrix(1.00008,0,0,-1.00006,148.90847,159.47679)" stroke-width=".19925" stroke-linecap="butt" stroke-miterlimit="10" stroke-linejoin="miter" fill="none" stroke="#929292" d="M-141.73404 0H141.73404M-141.73404 28.3468H141.73404M-141.73404 56.69362H141.73404M-141.73404 85.04042H141.73404M-141.73404 113.38724H141.73404M-141.73404 141.72409H141.73404M-141.73404 0V141.73404M-113.38724 0V141.73404M-85.04042 0V141.73404M-56.69362 0V141.73404M-28.3468 0V141.73404M0 0V141.73404M28.3468 0V141.73404M56.69362 0V141.73404M85.04042 0V141.73404M113.38724 0V141.73404M141.72409 0V141.73404M141.73404 141.73404"/>
<path transform="matrix(1.00008,0,0,-1.00006,148.90847,159.47679)" stroke-width="1.19553" stroke-linecap="butt" stroke-miterlimit="10" stroke-linejoin="miter" fill="none" stroke="#000000" d="M-147.40332 0H146.4469"/>
<path transform="matrix(1.00008,0,0,-1.00006,295.36708,159.47679)" stroke-width=".9564" stroke-linecap="round" stroke-linejoin="round" fill="none" stroke="#000000" d="M-1.91284 2.55046C-1.75343 1.59402 0 .15938 .4782 0 0-.15938-1.75343-1.59402-1.91284-2.55046"/>
<use data-text="x" xlink:href="#font_1_2" transform="matrix(9.963397,0,0,-9.963197,300.24256,161.62192)"/>
<path transform="matrix(1.00008,0,0,-1.00006,148.90847,159.47679)" stroke-width="1.19553" stroke-linecap="butt" stroke-miterlimit="10" stroke-linejoin="miter" fill="none" stroke="#000000" d="M0-5.66927V146.4469"/>
<path transform="matrix(0,-1.00006,-1.00008,-0,148.90847,13.021118)" stroke-width=".9564" stroke-linecap="round" stroke-linejoin="round" fill="none" stroke="#000000" d="M-1.91284 2.55046C-1.75343 1.59402 0 .15938 .4782 0 0-.15938-1.75343-1.59402-1.91284-2.55046"/>
<use data-text="y" xlink:href="#font_1_3" transform="matrix(9.963397,0,0,-9.963197,146.28726,6.208603)"/>
<g clip-path="url(#clip_2)">
<path transform="matrix(1.00008,0,0,-1.00006,148.90847,159.47679)" stroke-width=".79701" stroke-linecap="butt" stroke-miterlimit="10" stroke-linejoin="miter" fill="none" stroke="#0000ff" d="M-141.73404 .02594C-141.73404 .02594-141.4059 .02689-141.27986 .02724-141.15384 .02759-140.95174 .02837-140.82572 .02853-140.69968 .02869-140.49756 .02837-140.37154 .02853-140.24552 .02869-140.0434 .02966-139.91738 .02983-139.79135 .03-139.58924 .02966-139.46321 .02983-139.33719 .03-139.13507 .03078-139.00905 .03113-138.88301 .03148-138.68091 .03226-138.55489 .03242-138.42887 .0326-138.22673 .03226-138.10071 .03242-137.97469 .0326-137.77257 .03337-137.64655 .03372-137.52053 .03407-137.31842 .03485-137.19239 .03502-137.06636 .03519-136.86425 .03485-136.73822 .03502-136.6122 .03519-136.41008 .03598-136.28406 .03633-136.15804 .03668-135.95592 .03726-135.8299 .03761-135.70388 .03796-135.50176 .03874-135.37572 .03891-135.2497 .03908-135.04759 .03874-134.92157 .03891-134.79553 .03908-134.59342 .03987-134.46739 .04022-134.34137 .04057-134.13925 .04115-134.01323 .0415-133.8872 .04185-133.68509 .04245-133.55907 .0428-133.43305 .04315-133.23093 .04376-133.1049 .04411-132.97887 .04446-132.77677 .04523-132.65074 .0454-132.52472 .04556-132.3226 .04523-132.19658 .0454-132.07056 .04556-131.86843 .04634-131.7424 .04669-131.61638 .04704-131.41428 .04765-131.28824 .048-131.16222 .04836-130.9601 .04895-130.83408 .04929-130.70806 .04964-130.50594 .05023-130.37992 .05058-130.25389 .05093-130.05178 .05136-129.92575 .0519-129.79973 .05243-129.59761 .05396-129.47158 .05449-129.34555 .05502-129.14345 .05544-129.01743 .05579-128.89139 .05614-128.68927 .05673-128.56325 .05708-128.43723 .05742-128.2351 .05803-128.10909 .05838-127.98306 .05873-127.78094 .05933-127.65492 .05968-127.5289 .06003-127.32678 .06044-127.20076 .06097-127.07472 .0615-126.87262 .06303-126.7466 .06357-126.62057 .0641-126.41846 .06451-126.29243 .06487-126.16641 .06522-125.96428 .06563-125.83826 .06616-125.71223 .0667-125.51013 .06822-125.3841 .06876-125.25807 .06929-125.05595 .0697-124.92993 .07005-124.80391 .0704-124.60179 .07082-124.47577 .07135-124.34975 .07188-124.14763 .07343-124.0216 .07394-123.89558 .07448-123.69347 .0747-123.56743 .07524-123.4414 .07578-123.2393 .07732-123.11328 .07784-122.98724 .07837-122.78514 .0786-122.65912 .07913-122.5331 .07967-122.33096 .08102-122.20494 .08173-122.07892 .08244-121.8768 .0838-121.75078 .08434-121.62476 .08487-121.42264 .0851-121.29662 .08563-121.17058 .08615-120.96848 .08751-120.84245 .08823-120.71643 .08894-120.51431 .0901-120.38829 .09082-120.26227 .09154-120.06013 .0927-119.93411 .09341-119.80809 .09412-119.60599 .09529-119.47995 .09601-119.35393 .09673-119.15181 .0979-119.02579 .0986-118.89977 .09932-118.69765 .10048-118.57162 .1012-118.4456 .10191-118.24348 .10307-118.11746 .10379-117.99144 .1045-117.78932 .10568-117.66328 .10638-117.53726 .1071-117.33516 .10828-117.20914 .109-117.0831 .10971-116.881 .11086-116.75497 .11157-116.62895 .11229-116.42682 .11328-116.3008 .11418-116.17477 .11507-115.97266 .11717-115.84663 .11807-115.72061 .11896-115.5185 .11977-115.39247 .12067-115.26643 .12157-115.06433 .12366-114.93831 .12456-114.81229 .12546-114.61017 .12627-114.48415 .12715-114.35812 .12805-114.15599 .13016-114.02997 .13104-113.90395 .13194-113.70184 .13274-113.5758 .13364-113.44978 .13454-113.24768 .13644-113.12166 .13753-112.99564 .13861-112.7935 .14035-112.66748 .14143-112.54146 .14252-112.33934 .14424-112.21332 .14532-112.0873 .14641-111.88516 .14832-111.75914 .14922-111.63312 .15012-111.43102 .15073-111.305 .1518-111.17896 .15288-110.97685 .15575-110.85083 .157-110.72481 .15825-110.52267 .1598-110.39665 .16089-110.27063 .16197-110.06851 .1637-109.94249 .16478-109.81647 .16586-109.61435 .16742-109.48833 .16867-109.36229 .16992-109.16019 .17262-109.03416 .17387-108.90814 .17513-108.70602 .17651-108.58 .17776-108.45398 .17902-108.25185 .18152-108.12582 .18295-107.9998 .18437-107.7977 .18689-107.67166 .18813-107.54564 .18938-107.34354 .1908-107.21751 .19203-107.09149 .19328-106.88936 .1958-106.76334 .19722-106.63731 .19865-106.4352 .20097-106.30917 .20241-106.18315 .20384-105.98102 .206-105.855 .20761-105.72897 .20921-105.52687 .21248-105.40085 .2141-105.27481 .21571-105.07271 .21785-104.94669 .21928-104.82066 .2207-104.61853 .22285-104.49251 .22447-104.36649 .22607-104.16437 .22934-104.03835 .23096-103.91232 .23257-103.71022 .23454-103.5842 .23616-103.45816 .23776-103.25604 .24084-103.13002 .24263-103.004 .24443-102.80188 .24733-102.67586 .24911-102.54984 .25092-102.3477 .25381-102.22168 .25562-102.09566 .2574-101.89355 .26013-101.76752 .2621-101.6415 .26408-101.43939 .26791-101.31337 .26988-101.18735 .27187-100.98521 .2744-100.85919 .27638-100.73317 .27835-100.53105 .28218-100.40503 .28416-100.279 .28613-100.07687 .28868-99.95085 .29065-99.82483 .29263-99.62273 .29628-99.4967 .29843-99.37067 .3006-99.16856 .30406-99.04254 .30623-98.91652 .30838-98.71439 .31166-98.58836 .31401-98.46234 .31635-98.26022 .32076-98.1342 .32309-98.00818 .32544-97.80608 .32855-97.68004 .33087-97.55402 .3332-97.3519 .33745-97.22588 .33995-97.09985 .34247-96.89774 .34654-96.77171 .34904-96.64569 .35155-96.44356 .3556-96.31754 .35812-96.19151 .36063-95.98941 .3647-95.86337 .36722-95.73735 .36972-95.53525 .3736-95.40923 .37628-95.2832 .37898-95.08107 .3838-94.95505 .38667-94.82903 .38954-94.6269 .39418-94.50089 .39705-94.37486 .39993-94.17274 .40456-94.04672 .40744-93.9207 .41031-93.71858 .41476-93.59256 .41782-93.46652 .42087-93.26442 .42644-93.1384 .42949-93.01237 .43256-92.81024 .43683-92.68422 .43988-92.5582 .44293-92.35608 .44832-92.23006 .45155-92.10403 .45479-91.90193 .45981-91.7759 .46323-91.64987 .46664-91.44775 .4728-91.32173 .47621-91.19571 .47963-90.99359 .48447-90.86757 .48788-90.74155 .4913-90.53941 .49728-90.41339 .50087-90.28737 .50446-90.08527 .51025-89.95923 .51384-89.8332 .51743-89.6311 .52304-89.50508 .52681-89.37906 .5306-89.17693 .53714-89.0509 .54109-88.92488 .54504-88.72276 .5514-88.59674 .55536-88.47072 .55933-88.2686 .5655-88.14258 .56964-88.01656 .57378-87.81444 .58107-87.68842 .5852-87.56238 .58934-87.36028 .59517-87.23425 .59949-87.10823 .6038-86.9061 .61186-86.78008 .61636-86.65405 .62085-86.45193 .62743-86.32591 .63193-86.19989 .63643-85.99779 .64413-85.87175 .6488-85.74573 .65346-85.54361 .661-85.41759 .66565-85.29156 .67032-85.08945 .67769-84.96342 .68253-84.8374 .68738-84.63528 .69566-84.50926 .7007-84.38324 .70573-84.18112 .71384-84.05508 .71886-83.92906 .72389-83.72696 .73181-83.60094 .73703-83.47491 .74225-83.27278 .75092-83.14676 .75648-83.02074 .76207-82.81862 .77168-82.6926 .77725-82.56657 .78284-82.36446 .79114-82.23843 .7967-82.11241 .80229-81.9103 .81155-81.78427 .81747-81.65823 .82341-81.45613 .83377-81.33011 .83954-81.20409 .84529-81.00195 .85397-80.87593 .85901-80.74991 .86404-80.54779 .87012-80.42177 .87587-80.29575 .88162-80.09364 .89352-79.9676 .90053-79.84158 .90753-79.63947 .91928-79.51344 .92648-79.38742 .93367-79.1853 .94542-79.05928 .95242-78.93326 .95944-78.73114 .97008-78.60512 .97708-78.4791 .98409-78.27698 .99585-78.15094 1.00304-78.02492 1.01022-77.82281 1.02199-77.6968 1.02899-77.57076 1.03601-77.36864 1.04663-77.24261 1.05363-77.1166 1.06065-76.91447 1.07133-76.78845 1.0796-76.66243 1.08788-76.46031 1.10507-76.33429 1.11334-76.20827 1.12161-76.00615 1.13101-75.88013 1.13928-75.75409 1.14755-75.55199 1.16475-75.42596 1.17302-75.29994 1.18129-75.09782 1.19072-74.9718 1.19899-74.84578 1.20726-74.64365 1.22337-74.51762 1.23273-74.3916 1.24207-74.1895 1.25711-74.06346 1.26645-73.93744 1.2758-73.73532 1.29065-73.6093 1.30019-73.48328 1.30972-73.28116 1.3257-73.15514 1.33522-73.02911 1.34476-72.827 1.35962-72.70097 1.36896-72.57495 1.37831-72.37283 1.39336-72.2468 1.40271-72.12077 1.41206-71.91867 1.42583-71.79265 1.43645-71.66661 1.44705-71.4645 1.46866-71.33847 1.47926-71.21245 1.48988-71.01033 1.5024-70.88431 1.513-70.75829 1.5236-70.55617 1.54395-70.43015 1.55582-70.30412 1.5677-70.102 1.58678-69.97598 1.59865-69.84995 1.61052-69.64784 1.62978-69.52182 1.64146-69.3958 1.65317-69.19368 1.6713-69.06766 1.68298-68.94164 1.69467-68.7395 1.71394-68.61348 1.72581-68.48746 1.73769-68.28535 1.75569-68.15932 1.76863-68.0333 1.78159-67.83118 1.80629-67.70515 1.81924-67.57913 1.8322-67.37701 1.84912-67.25099 1.86206-67.12497 1.87502-66.92285 1.89847-66.79683 1.91267-66.6708 1.9269-66.46869 1.95036-66.34265 1.96457-66.21663 1.97879-66.01453 2.00114-65.8885 2.01518-65.76247 2.02922-65.56036 2.05157-65.43434 2.0658-65.30832 2.08-65.10619 2.10222-64.98016 2.11769-64.85414 2.13316-64.65202 2.16083-64.526 2.17738-64.39998 2.19394-64.19786 2.22177-64.07184 2.23708-63.9458 2.25237-63.7437 2.2713-63.61768 2.28767-63.49165 2.30405-63.28954 2.33752-63.16351 2.35516-63.03749 2.37279-62.83536 2.39828-62.70934 2.41484-62.58331 2.4314-62.38121 2.45691-62.25517 2.47453-62.12915 2.49217-61.92703 2.52312-61.80101 2.542-61.67499 2.5609-61.47287 2.59189-61.34685 2.61078-61.22083 2.62967-61.0187 2.65936-60.89268 2.67827-60.76666 2.69716-60.56454 2.72813-60.4385 2.74704-60.31248 2.76593-60.11038 2.79454-59.98436 2.81451-59.85832 2.83449-59.65622 2.86984-59.5302 2.89107-59.40417 2.91231-59.20204 2.9464-59.07602 2.96764-58.95 2.98886-58.74788 3.02295-58.62186 3.04419-58.49583 3.06543-58.29372 3.09825-58.1677 3.12074-58.04166 3.14325-57.83955 3.18282-57.71353 3.20639-57.58751 3.22997-57.38539 3.26715-57.25937 3.29074-57.13335 3.31432-56.93121 3.3528-56.80519 3.37639-56.67917 3.39996-56.47707 3.43607-56.35103 3.46072-56.225 3.48538-56.0229 3.52805-55.89688 3.55415-55.77086 3.58026-55.56873 3.62277-55.4427 3.64888-55.31668 3.67497-55.11456 3.71532-54.98854 3.74231-54.86252 3.7693-54.6604 3.81526-54.53436 3.84352-54.40834 3.87178-54.20624 3.91759-54.08022 3.94603-53.95418 3.97447-53.75208 4.02028-53.62605 4.04854-53.50003 4.0768-53.2979 4.12022-53.17188 4.14975-53.04585 4.17928-52.84373 4.23056-52.71771 4.26135-52.59169 4.29213-52.38959 4.34103-52.26357 4.37164-52.13753 4.40224-51.93541 4.45009-51.80939 4.48195-51.68336 4.51381-51.48125 4.5682-51.35522 4.60133-51.2292 4.63445-51.02707 4.68651-50.90105 4.7207-50.77502 4.75491-50.57292 4.81259-50.44688 4.84787-50.32086 4.88316-50.11876 4.93958-49.99274 4.97504-49.86671 5.0105-49.66458 5.06696-49.53856 5.1035-49.41254 5.14005-49.21042 5.20084-49.0844 5.23846-48.95837 5.27608-48.75626 5.33688-48.63022 5.3747-48.5042 5.4125-48.3021 5.47188-48.17607 5.51096-48.05003 5.55002-47.84793 5.61488-47.72191 5.65628-47.59589 5.69768-47.39375 5.76817-47.26773 5.8094-47.14171 5.85063-46.93959 5.91095-46.81357 5.95343-46.68755 5.99593-46.48544 6.07083-46.35942 6.11565-46.23338 6.16046-46.03127 6.23172-45.90524 6.27654-45.77922 6.32135-45.5771 6.39267-45.45108 6.43875-45.32506 6.48482-45.12292 6.56157-44.9969 6.60873-44.87088 6.65588-44.66878 6.7303-44.54274 6.77872-44.41672 6.82713-44.21461 6.9083-44.0886 6.95778-43.96257 7.00728-43.76044 7.08496-43.63441 7.13556-43.50839 7.18616-43.30627 7.26932-43.18025 7.32242-43.05423 7.37552-42.85213 7.46399-42.72609 7.51836-42.60007 7.57272-42.39795 7.65993-42.27193 7.7143-42.14589 7.76866-41.94379 7.85353-41.81776 7.91023-41.69174 7.96693-41.48961 8.06401-41.36359 8.12305-41.23756 8.1821-41.03545 8.277-40.90942 8.33586-40.7834 8.39473-40.5813 8.48616-40.45528 8.54736-40.32924 8.60857-40.12712 8.7144-40.0011 8.77705-39.87508 8.8397-39.67296 8.93521-39.54694 8.99895-39.42091 9.06267-39.21878 9.16925-39.09276 9.23639-38.96674 9.30354-38.76463 9.41435-38.6386 9.48294-38.51257 9.55153-38.31047 9.66112-38.18445 9.73079-38.05843 9.80046-37.8563 9.91437-37.73027 9.98512-37.60425 10.05588-37.40213 10.16748-37.27611 10.24075-37.15009 10.31403-36.94798 10.43782-36.82195 10.51326-36.69592 10.58868-36.4938 10.70776-36.36778 10.78445-36.24174 10.86115-36.03964 10.98683-35.91362 11.06602-35.7876 11.14523-35.58546 11.27402-35.45944 11.3554-35.33342 11.43677-35.1313 11.56883-35.00528 11.65256-34.87926 11.73627-34.67715 11.87257-34.55113 11.9588-34.4251 12.04503-34.22298 12.1868-34.09695 12.27411-33.97093 12.36143-33.76881 12.49849-33.64279 12.58815-33.51677 12.6778-33.31465 12.82707-33.18863 12.92032-33.0626 13.01357-32.86049 13.16597-32.73445 13.2603-32.60843 13.35463-32.40633 13.50342-32.2803 13.60028-32.15428 13.69713-31.95215 13.85814-31.82613 13.95842-31.7001 14.05869-31.49799 14.22044-31.37196 14.32306-31.24594 14.42566-31.04382 14.59293-30.9178 14.69806-30.79178 14.80319-30.58966 14.97356-30.46364 15.08086-30.3376 15.18816-30.1355 15.36055-30.00948 15.47144-29.88345 15.58234-29.68132 15.76569-29.5553 15.88019-29.42928 15.99469-29.22716 16.17989-29.10114 16.29672-28.97511 16.41357-28.77301 16.60315-28.64699 16.72234-28.52095 16.84152-28.31883 17.03296-28.19281 17.15575-28.06679 17.27853-27.86467 17.48093-27.73865 17.6073-27.61263 17.73367-27.4105 17.93811-27.28448 18.06667-27.15846 18.1952-26.95634 18.40167-26.8303 18.5338-26.70428 18.66594-26.50218 18.88211-26.37616 19.0191-26.25014 19.15611-26.048 19.38087-25.92198 19.5213-25.79596 19.66171-25.59384 19.8885-25.46782 20.03127-25.3418 20.17403-25.13968 20.40393-25.01366 20.5503-24.88763 20.69667-24.68552 20.93517-24.5595 21.08621-24.43346 21.23726-24.23135 21.48326-24.10533 21.63899-23.97931 21.79472-23.77719 22.04932-23.65117 22.20865-23.52515 22.36798-23.32301 22.62445-23.19699 22.78738-23.07097 22.95032-22.86887 23.21538-22.74284 23.383-22.6168 23.55061-22.41469 23.82443-22.28867 23.99547-22.16264 24.1665-21.96053 24.44-21.8345 24.61572-21.70848 24.79144-21.50636 25.08011-21.38034 25.26195-21.25432 25.44377-21.0522 25.74088-20.92616 25.92632-20.80014 26.11174-20.59804 26.40855-20.47202 26.59848-20.346 26.78842-20.14386 27.09943-20.01784 27.2953-19.89182 27.49118-19.6897 27.80972-19.56367 28.01027-19.43765 28.21083-19.23553 28.5356-19.10951 28.74084-18.98349 28.94608-18.78137 29.2782-18.65535 29.48956-18.52931 29.70093-18.32721 30.04712-18.20119 30.26424-18.07516 30.48137-17.87305 30.83269-17.74702 31.05449-17.621 31.27629-17.41887 31.63498-17.29285 31.8629-17.16682 32.09082-16.96472 32.46358-16.8387 32.69727-16.71266 32.93094-16.51054 33.30775-16.38452 33.5472-16.2585 33.78665-16.05638 34.17644-15.93036 34.4231-15.80434 34.66974-15.60222 35.07108-15.4762 35.32494-15.35017 35.5788-15.14806 35.99312-15.02202 36.25273-14.896 36.51233-14.6939 36.93054-14.56787 37.19609-14.44185 37.46164-14.23973 37.89395-14.11371 38.1667-13.98769 38.43945-13.78555 38.88112-13.65953 39.16197-13.53351 39.44283-13.33139 39.9031-13.20537 40.19098-13.07935 40.47887-12.87723 40.94177-12.7512 41.23686-12.62517 41.53195-12.42307 42.01442-12.29704 42.31776-12.17102 42.62112-11.9689 43.11296-11.84288 43.42334-11.71686 43.73372-11.51472 44.2362-11.3887 44.55486-11.26268 44.87352-11.06058 45.39334-10.93454 45.72011-10.80852 46.04688-10.6064 46.57498-10.48038 46.91003-10.35435 47.24509-10.15224 47.7902-10.02621 48.13498-9.90019 48.47974-9.69807 49.04083-9.57205 49.39496-9.44603 49.74908-9.24391 50.32515-9.11787 50.6874-8.99185 51.04962-8.78975 51.63399-8.66373 52.00577-8.5377 52.37755-8.33559 52.98454-8.20956 53.36694-8.08354 53.74936-7.88141 54.37013-7.75539 54.7619-7.62936 55.15367-7.42725 55.78818-7.30122 56.19057-7.1752 56.59294-6.97308 57.24905-6.84706 57.66205-6.72102 58.07506-6.51892 58.74474-6.3929 59.1673-6.26688 59.58984-6.06476 60.27313-5.93874 60.70755-5.81271 61.14198-5.61058 61.8523-5.48456 62.29843-5.35854 62.74457-5.15643 63.46521-5.0304 63.92305-4.90437 64.38089-4.70227 65.12854-4.57625 65.59827-4.45023 66.068-4.2481 66.82692-4.12207 67.30852-3.99605 67.79012-3.79393 68.575-3.66791 69.06938-3.54189 69.56377-3.33977 70.36441-3.21373 70.87177-3.0877 71.37912-2.8856 72.20557-2.75958 72.72606-2.63356 73.24657-2.43144 74.08972-2.30542 74.62317-2.1794 75.15663-1.97726 76.02321-1.85124 76.57088-1.72522 77.11856-1.5231 78.00752-1.39708 78.57051-1.27106 79.1335-1.06894 80.05151-.94292 80.62854-.81688 81.20555-.61478 82.1381-.48875 82.72935-.36273 83.3206-.16061 84.28496-.03459 84.8899 .09142 85.49483 .29353 86.46857 .41956 87.08934 .54558 87.71011 .74768 88.72475 .87372 89.36406 .99974 90.00339 1.20184 91.04109 1.32787 91.69717 1.45389 92.35324 1.65602 93.41924 1.78204 94.09258 1.90807 94.76591 2.11018 95.85944 2.2362 96.55025 2.36223 97.24106 2.56435 98.36252 2.69038 99.07152 2.8164 99.7805 3.01851 100.9329 3.14453 101.66026 3.27055 102.38762 3.47267 103.56761 3.5987 104.31387 3.72472 105.06013 3.92685 106.2728 4.05287 107.03886 4.1789 107.80495 4.38101 109.04936 4.50703 109.83524 4.63306 110.6211 4.83516 111.89638 4.96118 112.70294 5.08722 113.50952 5.28934 114.82106 5.41536 115.64853 5.54138 116.47598 5.7435 117.81755 5.86952 118.6668 5.99554 119.51604 6.19768 120.89761 6.3237 121.76938 6.44972 122.64113 6.65182 124.05576 6.77786 124.94983 6.90388 125.8439 7.10599 127.29602 7.23201 128.21334 7.35803 129.13063 7.56017 130.61956 7.68619 131.56118 7.81221 132.50278 8.01433 134.03376 8.14035 134.99985 8.26637 135.96596 8.46849 137.53287 8.59453 138.52417 8.72055 139.51549 8.92265 141.12729 9.04868 142.14452 9.17471 143.16173 9.37682 144.81237 9.50284 145.8557 9.62886 146.89902 9.831 148.5933 9.95702 149.66419 10.08304 150.73506 10.28516 152.47493 10.41118 153.57389 10.5372 154.67285 10.7393 156.45705 10.86533 157.58483 10.99136 158.7126 11.19348 160.54467 11.3195 161.70215 11.44553 162.85962 11.64764 164.73983 11.77367 165.92719 11.89969 167.11455 12.10182 169.04158 12.22784 170.25992 12.35387 171.47824 12.55597 173.45777 12.682 174.70813 12.80803 175.95851 13.01013 177.98888 13.13615 179.27185 13.26218 180.55481 13.46431 182.63884 13.59033 183.95494 13.71635 185.27103 13.91847 187.40692 14.0445 188.75742 14.17052 190.1079 14.37262 192.3022 14.49866 193.68834 14.62468 195.07447 14.8268 197.32524 14.95282 198.74774 15.07886 200.17023 15.28096 202.48172 15.40698 203.94078 15.533 205.39984 15.73514 207.76566 15.86116 209.2636 15.98718 210.76155 16.1893 213.19974 16.31532 214.73694 16.44135 216.27413 16.64345 218.76619 16.76947 220.34262 16.89551 221.91905 17.09763 224.48046 17.22365 226.09883 17.34967 227.71723 17.55179 230.34671 17.67781 232.00687 17.80383 233.66704 18.00597 236.36096 18.13199 238.06415 18.25801 239.76734 18.46011 242.5341 18.58615 244.2823 18.71217 246.0305 18.91428 248.86986 19.0403 250.66397 19.16632 252.45809 19.36845 255.37212 19.49448 257.21305 19.6205 259.05397 19.82262 262.04344 19.94864 263.93208 20.07466 265.8207 20.27676 268.8872 20.4028 270.825 20.52882 272.7628 20.73094 275.90956 20.85696 277.8983 20.983 279.88706 21.1851 283.1173 21.31113 285.15846 21.43715 287.1996 21.63928 290.516 21.7653 292.60935 21.89133 294.70268 22.09344 298.09773 22.21947 300.2458 22.34549 302.3939 22.54759 305.88603 22.67361 308.09117 22.79965 310.2963 23.00177 313.87696 23.12779 316.13899 23.25381 318.40104 23.45593 322.07316 23.58195 324.3944 23.70798 326.71568 23.9101 330.48664 24.03612 332.8691 24.16214 335.2516 24.36426 339.1215 24.4903 341.56575 24.61632 344.00996 24.81842 347.97776 24.94444 350.48554 25.07047 352.99333 25.2726 357.0665 25.39862 359.64018 25.52464 362.21388 25.72676 366.3939 25.85278 369.0349 25.9788 371.67594 26.18091 375.96455 26.30695 378.6749 26.43297 381.38526 26.63509 385.78919 26.76111 388.56919 26.88715 391.3492 27.08925 395.85823 27.21527 398.71134 27.3413 401.56446 27.54343 406.20338 27.66945 409.13249 27.79547 412.06159 27.99759 416.81788 28.12361 419.82225 28.24963 422.82658 28.45174 427.7031 28.57776 430.78578 28.7038 433.86845 28.90591 438.87648 29.03194 442.03999 29.15796 445.2035 29.36008 450.34 29.4861 453.58616 29.61212 456.83229 29.81424 462.10627 29.94026 465.43598 30.06628 468.76564 30.2684 474.16777 30.39444 477.5842 30.52046 481.0007 30.72256 486.5521 30.84859 490.05949 30.97461 493.56687 31.17674 499.2631 31.30276 502.863 31.42879 506.46296 31.6309 512.3117 31.75693 516.00527 31.88295 519.6988 32.08505 525.6952 32.21109 529.4836 32.33711 533.272 32.53923 539.4222 32.66525 543.30966 32.79129 547.1971 32.9934 553.5114 33.11942 557.50167 33.24544 561.4919 33.44756 567.974 33.57358 572.06869 33.6996 576.1633 33.90173 582.81259 34.02776 587.0133 34.15378 591.214 34.35588 598.03518 34.4819 602.3446 34.60794 606.65408 34.81006 613.65066 34.93608 618.073 35.0621 622.4953 35.26422 629.6789 35.39024 634.2179 35.51627 638.7569 35.71838 646.1293 35.8444 650.7871 35.97043 655.44497 36.17255 663.0091 36.29858 667.78848 36.4246 672.5679 36.62671 680.32968 36.75273 685.2336 36.87875 690.1376 37.08087 698.1005 37.2069 703.1329 37.33292 708.1652 37.53505 716.3387 37.66107 721.5032 37.7871 726.6677 37.9892 735.05636 38.11523 740.3549 38.24126 745.65359 38.44337 754.2582 38.5694 759.692 38.69543 765.1258 38.89754 773.9418 39.02356 779.51828 39.14958 785.09469 39.3517 794.15859 39.47772 799.883 39.60374 805.60739 39.80588 814.9006 39.9319 820.7759 40.05792 826.6511 40.26003 836.20059 40.38605 842.228 40.51208 848.25546 40.7142 858.0337 40.84023 864.2174 40.96625 870.40109 41.16837 880.4494 41.29439 886.7959 41.42041 893.14236 41.62253 903.4458 41.74855 909.95828 41.87457 916.4707 42.07669 927.0493 42.20273 933.73318 42.32875 940.417 42.53085 951.2751 42.65688 958.1309 42.7829 964.9867 42.98502 976.1108 43.11104 983.145 43.23706 990.1792 43.4392 1001.609 43.56522 1008.8287 43.69124 1016.04837 43.89334 1027.7703 44.01938 1035.1793 44.1454 1042.5884 44.34752 1054.6262 44.47354 1062.228 44.59958 1069.83 44.80168 1082.1676 44.9277 1089.9685 45.05373 1097.7693 45.25584 1110.4481 45.38187 1118.451 45.50789 1126.4541 45.71002 1139.435 45.83604 1147.6487 45.96207 1155.8624 46.16417 1169.2199 46.29019 1177.6495 46.41623 1186.0792 46.61833 1199.7608 46.74435 1208.4043 46.87038 1217.0479 47.07251 1231.0752 47.19853 1239.9467 47.32455 1248.8182 47.52667 1263.239 47.6527 1272.3442 47.77872 1281.4495 47.98083 1296.228 48.10687 1305.5709 48.2329 1314.9138 48.435 1330.0923 48.56102 1339.6813 48.68704 1349.2703 48.88916 1364.8432 49.01518 1374.6819 49.1412 1384.5206 49.34334 1400.4971 49.46936 1410.592 49.59538 1420.6869 49.7975 1437.0795 49.92352 1447.4391 50.04955 1457.7987 50.25166 1474.6268 50.37769 1485.2567 50.50372 1495.8866 50.70583 1513.1439 50.83185 1524.0515 50.95787 1534.9591 51.15999 1552.6818 51.28601 1563.8713 51.41203 1575.0609 51.61417 1593.2186 51.74019 1604.6983 51.86621 1616.1779 52.06831 1634.8244 52.19434 1646.6085 52.32037 1658.3928 52.52248 1677.5376 52.6485 1689.631 52.77452 1701.7244 52.97665 1721.3601 53.10268 1733.7693 53.2287 1746.1785 53.43082 1766.3353 53.55684 1779.0676 53.68286 1791.8 53.88498 1812.4712 54.01102 1825.5353 54.13704 1838.5993 54.33914 1859.8176 54.46516 1873.2239 54.59119 1886.6301 54.7933 1908.4021 54.91933 1922.1582 55.04535 1935.9142 55.24748 1958.2589 55.3735 1972.368 55.49953 1986.4772 55.70164 2009.3692 55.82767 2023.8469 55.95369 2038.3248 56.15579 2061.8499 56.28181 2076.7144 56.40785 2091.5789 56.60997 2115.727 56.736 2130.9793 56.86201 2146.2315 57.06413 2170.9925 57.19016 2186.6419 57.31618 2202.291 57.51831 2227.7083 57.64433 2243.7679 57.77036 2259.8275 57.97246 2285.9124 58.09848 2302.3878 58.22452 2318.8629 58.42662 2345.6043 58.55264 2362.51 58.67867 2379.4158 58.8808 2406.8819 59.00682 2424.2322 59.13284 2441.5828 59.33496 2469.7613 59.46098 2487.5599 59.587 2505.3582 59.78912 2534.2457 59.91516 2552.5118 60.04118 2570.778 60.24329 2600.4647 60.36931 2619.2105 60.49533 2637.9564 60.69745 2668.386 60.82347 2687.6182 60.9495 2706.85 61.15163 2738.0814 61.27765 2757.8216 61.40367 2777.5618 61.60579 2809.6392 61.73181 2829.8924 61.85783 2850.1456 62.05994 2883.0142 62.18596 2903.7928 62.312 2924.5714 62.51411 2958.326 62.64014 2979.65 62.76616 3000.974 62.96828 3035.5975 63.0943 3057.4822 63.22032 3079.367 63.42245 3114.9312 63.54848 3137.3802 63.6745 3159.829 63.8766 3196.2513 64.00262 3219.279 64.12866 3242.307 64.33076 3279.711 64.45679 3303.3489 64.58281 3326.9869 64.78494 3365.3848 64.91096 3389.644 65.03699 3413.9034 65.2391 3453.3009 65.36513 3478.1934 65.49115 3503.0858 65.69325 3543.5093 65.81929 3569.0523 65.94531 3594.5953 66.14743 3636.0789 66.27345 3662.2896 66.39948 3688.5006 66.6016 3731.0645 66.72762 3757.9615 66.85364 3784.8585 67.05577 3828.545 67.1818 3856.144 67.30782 3883.7432 67.50993 3928.5596 67.63596 3956.8765 67.76198 3985.1937 67.96408 4031.1815 68.0901 4060.233 68.21614 4089.2845 68.41826 4136.4489 68.54428 4166.26 68.6703 4196.0705 68.87242 4244.497 68.99844 4275.0895 69.12447 4305.681 69.3266 4355.3527 69.45262 4386.745 69.57864 4418.137 69.78075 4469.1286 69.90678 4501.3425 70.0328 4533.5568 70.23491 4585.8649 70.36093 4618.922 70.48695 4651.979 70.68909 4705.676 70.81511 4739.596 70.94113 4773.516 71.14325 4828.587 71.26927 4863.395 71.3953 4898.2028 71.5974 4954.75 71.72343 4990.4665 71.84946 5026.1828 72.05157 5084.1765 72.1776 5120.813 72.30362 5157.4499 72.50574 5216.922 72.63176 5254.5178 72.75778 5292.1135 72.95992 5353.191 73.08594 5391.777 73.21196 5430.363 73.41408 5493.025 73.5401 5532.6188 73.66612 5572.212 73.86823 5636.511 73.99425 5677.139 74.12029 5717.7668 74.3224 5783.745 74.44843 5825.4357 74.57445 5867.126 74.77657 5934.8317 74.90259 5977.6135 75.02861 6020.395 75.23073 6089.8747 75.35675 6133.7775 75.48277 6177.6799 75.68489 6248.9909 75.81093 6294.0339 75.93695 6339.0769 76.13905 6412.209 76.26508 6458.417 76.3911 6504.6247 76.59323 6579.6477 76.71925 6627.0666 76.84528 6674.4855 77.0474 6751.512 77.17342 6800.1789 77.29944 6848.8449 77.50154 6927.879 77.62758 6977.8195 77.7536 7027.7595 77.95572 7108.867 78.08174 7160.112 78.20776 7211.3566 78.40988 7294.579 78.5359 7347.1555 78.66193 7399.7316 78.86406 7485.091 78.99008 7539.045 79.1161 7592.999 79.31822 7680.6477 79.44424 7736.019 79.57027 7791.3908 79.77237 7881.3146 79.89839 7938.125 80.02443 7994.9357 80.22655 8087.2 80.35257 8145.4709 80.47859 8203.741 80.68071 8298.306 80.80673 8358.098 80.93275 8417.89 81.13487 8515.028 81.2609 8576.412 81.38692 8637.796 81.58904 8737.527 81.71507 8800.509 81.8411 8863.49 82.0432 8965.717 82.16922 9030.341 82.29524 9094.965 82.49738 9199.951 82.6234 9266.274 82.74942 9332.598 82.95154 9440.306 83.07756 9508.351 83.20358 9576.3959 83.40569 9686.871 83.53172 9756.693 83.65775 9826.516 83.85986 9939.929 83.98589 10011.578 84.11191 10083.229 84.31403 10199.575 84.44005 10273.097 84.56607 10346.619 84.89421 10541.474 84.89421 10541.474"/>
</g>
<use data-text="&#x2022;" xlink:href="#font_3_1" transform="matrix(9.963397,0,0,-9.963197,146.41727,133.34223)"/>
<use data-text="(" xlink:href="#font_4_1" transform="matrix(9.963397,0,0,-9.963197,123.247409,125.11774)"/>
<use data-text="0" xlink:href="#font_4_3" transform="matrix(9.963397,0,0,-9.963197,127.11322,125.11774)"/>
<use data-text="," xlink:href="#font_1_1" transform="matrix(9.963397,0,0,-9.963197,132.10413,125.11774)"/>
<use data-text="1" xlink:href="#font_4_4" transform="matrix(9.963397,0,0,-9.963197,136.53148,125.11774)"/>
<use data-text=")" xlink:href="#font_4_2" transform="matrix(9.963397,0,0,-9.963197,141.51317,125.11774)"/>
</svg>
