<svg xmlns="http://www.w3.org/2000/svg" xmlns:xlink="http://www.w3.org/1999/xlink" version="1.1" width="292" height="293" viewBox="0 0 292 293">
<defs>
<path id="font_1_7" d="M.33399964 .30233766C.33999635 .32835389 .36299134 .42037965 .43299867 .42037965 .43798829 .42037965 .46199037 .42037965 .48298646 .40734864 .45498658 .402359 .43499757 .37734986 .43499757 .35334779 .43499757 .33735658 .44599916 .31835938 .47299195 .31835938 .49499513 .31835938 .5269928 .3363495 .5269928 .37635804 .5269928 .42837525 .46798707 .4423828 .43399049 .4423828 .37599183 .4423828 .34098817 .38935853 .32899476 .36634828 .3039856 .43237306 .25 .4423828 .22099304 .4423828 .116989139 .4423828 .05999756 .3133545 .05999756 .28834535 .05999756 .27833558 .069992069 .27833558 .07199097 .27833558 .07998657 .27833558 .08299255 .28033448 .084991458 .28933717 .11898804 .39535523 .18499756 .42037965 .21899414 .42037965 .23799134 .42037965 .272995 .4113617 .272995 .35334779 .272995 .32235719 .2559967 .25532533 .21899414 .11528015 .20298767 .053268434 .16799927 .011245728 .12399292 .011245728 .117996219 .011245728 .09498596 .011245728 .07398987 .024276734 .09899902 .029266358 .12098694 .05027771 .12098694 .07827759 .12098694 .105270389 .09899902 .11328125 .083999637 .11328125 .053985597 .11328125 .0289917 .08728027 .0289917 .055267335 .0289917 .009246826 .07899475-.0107421879 .12298584-.0107421879 .18899536-.0107421879 .22499085 .059280397 .22799683 .0652771 .23999024 .028274537 .27598573-.0107421879 .33599855-.0107421879 .43899537-.0107421879 .49598695 .118270877 .49598695 .14328003 .49598695 .1532898 .4869995 .1532898 .48399354 .1532898 .47499085 .1532898 .47299195 .14929199 .47099305 .14228821 .43798829 .03527832 .36999513 .011245728 .33799745 .011245728 .29899598 .011245728 .2829895 .043273927 .2829895 .07727051 .2829895 .09927368 .2889862 .121276859 .2999878 .16529846L.33399964 .30233766Z"/>
<path id="font_1_8" d="M.48599244 .38136292C.48999024 .39537049 .48999024 .39736939 .48999024 .40437318 .48999024 .42237855 .47599793 .43138124 .46099855 .43138124 .45098878 .43138124 .43499757 .42536927 .42599488 .41036988 .42399598 .405365 .41600038 .37435914 .4119873 .35635377 .40499879 .33035279 .397995 .30334474 .3919983 .27633668L.34700013 .09628296C.34298707 .08126831 .2999878 .011245728 .23399353 .011245728 .18299866 .011245728 .17199707 .055267335 .17199707 .0922699 .17199707 .1382904 .18899536 .20030213 .22299195 .28833009 .23899842 .3293457 .24299622 .3403473 .24299622 .36035157 .24299622 .405365 .21099854 .4423828 .16099549 .4423828 .06599426 .4423828 .0289917 .29733277 .0289917 .28833009 .0289917 .27833558 .038986207 .27833558 .040985109 .27833558 .050994874 .27833558 .051986696 .28033448 .056991579 .29634095 .083999637 .3903656 .12399292 .42037965 .1579895 .42037965 .1659851 .42037965 .18299866 .42037965 .18299866 .3883667 .18299866 .36335755 .17298889 .3373413 .1659851 .31834413 .12599182 .21231079 .10798645 .1552887 .10798645 .10827637 .10798645 .019256592 .17098999-.0107421879 .22999573-.0107421879 .2689972-.0107421879 .30299378 .0062561037 .33099366 .03425598 .31799317-.017745972 .30599977-.06674194 .2659912-.11973572 .23999024-.15385437 .20199585-.18309021 .1559906-.18309021 .14199829-.18309021 .09700012-.18005371 .07998657-.14074707 .09599304-.14074707 .10899353-.14074707 .12298584-.1287384 .1329956-.11973572 .14299011-.10673523 .14299011-.08773804 .14299011-.056747438 .115997318-.052734376 .10598755-.052734376 .08299255-.052734376 .049987794-.068740848 .049987794-.11773682 .049987794-.16796875 .09399414-.20507813 .1559906-.20507813 .25898744-.20507813 .3619995-.11373901 .3899994-.00074768069L.48599244 .38136292Z"/>
<clipPath id="clip_2">
<path transform="matrix(1.00003,0,0,-1.00008,143.23177,149.61193)" d="M-141.73404-141.73404V141.73404H141.73404V-141.73404ZM141.73404 141.73404"/>
</clipPath>
<path id="font_3_1" d="M.44400025 .24998474C.44400025 .35688783 .35499574 .44381715 .25 .44381715 .14199829 .44381715 .054992677 .35488893 .054992677 .24998474 .054992677 .14407349 .14199829 .056137086 .25 .056137086 .35499574 .056137086 .44400025 .14308167 .44400025 .24998474Z"/>
<path id="font_4_1" d="M.33099366-.2400055C.33099366-.23701477 .33099366-.23500061 .31399537-.21800232 .18899536-.0920105 .15699768 .09700012 .15699768 .25 .15699768 .42399598 .19499207 .59799197 .31799317 .72299197 .33099366 .73498538 .33099366 .7369995 .33099366 .73999026 .33099366 .746994 .32699586 .75 .32099916 .75 .31098939 .75 .22099304 .6819916 .1619873 .5549927 .11099243 .44499208 .09899902 .33399964 .09899902 .25 .09899902 .17199707 .10998535 .050994874 .16499329-.06201172 .22499085-.18501282 .31098939-.25 .32099916-.25 .32699586-.25 .33099366-.24700928 .33099366-.2400055Z"/>
<path id="font_1_2" d="M.37298585 .37835694C.35499574 .41537477 .32598878 .4423828 .2809906 .4423828 .1639862 .4423828 .039993287 .29533387 .039993287 .14929199 .039993287 .055267335 .09498596-.0107421879 .17298889-.0107421879 .19299317-.0107421879 .24299622-.0067443849 .30299378 .06427002 .31098939 .022247315 .34599305-.0107421879 .3939972-.0107421879 .42900086-.0107421879 .45199586 .012252808 .46798707 .044265748 .4850006 .08027649 .49798585 .14129639 .49798585 .14329529 .49798585 .1532898 .4889984 .1532898 .48599244 .1532898 .47599793 .1532898 .47499085 .14929199 .47200013 .13528443 .45498658 .07026672 .43699647 .011245728 .3959961 .011245728 .36898805 .011245728 .3659973 .037261964 .3659973 .057266237 .3659973 .07926941 .36799623 .08728027 .3789978 .13128662 .3899994 .17329407 .3919983 .18330384 .40098573 .22131348L.43699647 .36135865C.44400025 .38935853 .44400025 .39135743 .44400025 .39537049 .44400025 .41236878 .43199159 .42237855 .4149933 .42237855 .3909912 .42237855 .37599183 .4003601 .37298585 .37835694M.30799867 .119277957C.30299378 .10127258 .30299378 .09927368 .28799439 .08227539 .24398804 .027252198 .20298767 .011245728 .1749878 .011245728 .125 .011245728 .11099243 .06626892 .11099243 .105285648 .11099243 .1552887 .14299011 .27833558 .1659851 .32434083 .19699097 .38336183 .24198914 .42037965 .28199769 .42037965 .34700013 .42037965 .36099244 .3383484 .36099244 .33235169 .36099244 .32633973 .35899354 .32034303 .35798646 .31533814L.30799867 .119277957Z"/>
<path id="font_1_1" d="M.20298767 .0009918213C.20298767 .066986087 .17799378 .10598755 .13899231 .10598755 .10598755 .10598755 .085998538 .08099365 .085998538 .052993776 .085998538 .025985718 .10598755 0 .13899231 0 .15098572 0 .1639862 .0039978029 .17399597 .0129852299 .1769867 .01499939 .17799378 .015991211 .1789856 .015991211 .17999268 .015991211 .18099976 .01499939 .18099976 .0009918213 .18099976-.07316589 .1459961-.13328552 .11299133-.16635132 .101989749-.17736817 .101989749-.17936707 .101989749-.18237305 .101989749-.18936157 .10699463-.19335938 .11199951-.19335938 .12298584-.19335938 .20298767-.116256717 .20298767 .0009918213Z"/>
<path id="font_1_6" d="M.36698915 .3996582H.45298768C.47299195 .3996582 .48298646 .3996582 .48298646 .41966249 .48298646 .43066407 .47299195 .43066407 .45599366 .43066407H.37298585L.3939972 .5449524C.397995 .5660095 .4119873 .6370239 .41799928 .6490326 .4269867 .66804507 .44400025 .68307498 .46499635 .68307498 .46899415 .68307498 .49499513 .68307498 .5139923 .66503909 .46998597 .661026 .45999146 .6260376 .45999146 .6110382 .45999146 .58802798 .47799684 .57603457 .49699403 .57603457 .522995 .57603457 .5519867 .5980377 .5519867 .6360321 .5519867 .6820679 .5059967 .7050781 .46499635 .7050781 .43099977 .7050781 .36799623 .68707278 .33799745 .58802798 .33198548 .56700137 .32899476 .5569763 .30499269 .43066407H.23599243C.21699524 .43066407 .20599365 .43066407 .20599365 .4116516 .20599365 .3996582 .21499634 .3996582 .23399353 .3996582H.2999878L.22499085 .0048828127C.20698548-.09207153 .18998719-.18309021 .13798523-.18309021 .13398743-.18309021 .10899353-.18309021 .08999634-.16506958 .13598633-.1620636 .14498902-.12606812 .14498902-.111068729 .14498902-.08807373 .1269989-.07606506 .10798645-.07606506 .08198547-.07606506 .052993776-.09806824 .052993776-.13606262 .052993776-.18109131 .09700012-.20507813 .13798523-.20507813 .19299317-.20507813 .23298645-.14607239 .25099183-.108062747 .2829895-.04508972 .30599977 .07583618 .30699159 .082839969L.36698915 .3996582Z"/>
<path id="font_4_2" d="M.2889862 .25C.2889862 .32798768 .27799989 .44898988 .22299195 .56199648 .16299439 .68499758 .07699585 .75 .066986087 .75 .06098938 .75 .056991579 .74598696 .056991579 .73999026 .056991579 .7369995 .056991579 .73498538 .07598877 .71699526 .17399597 .6179962 .23098755 .45899964 .23098755 .25 .23098755 .07899475 .19400025-.09700012 .069992069-.2230072 .056991579-.23500061 .056991579-.23701477 .056991579-.2400055 .056991579-.2460022 .06098938-.25 .066986087-.25 .07699585-.25 .16699219-.18200684 .22599793-.055007936 .2769928 .054992677 .2889862 .16600037 .2889862 .25Z"/>
<path id="font_1_3" d="M.23899842 .68333438C.23899842 .6843262 .23899842 .69433596 .22599793 .69433596 .20298767 .69433596 .12998963 .6863251 .10398865 .6843262 .09599304 .68333438 .084991458 .6823273 .084991458 .6643219 .084991458 .6523285 .09399414 .6523285 .10899353 .6523285 .15699768 .6523285 .15899658 .6453247 .15899658 .6353302 .15899658 .6283264 .1499939 .5943451 .14498902 .573349L.06298828 .24731446C.050994874 .1973114 .04699707 .18130493 .04699707 .14628601 .04699707 .05126953 .099990848-.0107421879 .17399597-.0107421879 .2919922-.0107421879 .4149933 .1382904 .4149933 .28233338 .4149933 .37335206 .3619995 .4423828 .28199769 .4423828 .23599243 .4423828 .19499207 .41337586 .16499329 .38235475L.23899842 .68333438M.14498902 .30534364C.15098572 .3273468 .15098572 .3293457 .1599884 .3403473 .20899964 .405365 .2539978 .42037965 .27999879 .42037965 .31599427 .42037965 .34298707 .3903656 .34298707 .32633973 .34298707 .26733399 .30999757 .15229798 .2919922 .11428833 .25898744 .04725647 .21299744 .011245728 .17399597 .011245728 .13999939 .011245728 .10699463 .038253786 .10699463 .11227417 .10699463 .13128662 .10699463 .15029907 .12298584 .21331787L.14498902 .30534364Z"/>
<path id="font_1_4" d="M.3959961 .37998963C.37998963 .37998963 .3659973 .37998963 .35198976 .36598207 .33599855 .35098268 .33399964 .33398438 .33399964 .3269806 .33399964 .30297853 .35198976 .2919922 .37098695 .2919922 .3999939 .2919922 .4269867 .315979 .4269867 .35598756 .4269867 .40522767 .37998963 .4423828 .30899049 .4423828 .17399597 .4423828 .040985109 .2989807 .040985109 .15811157 .040985109 .06819153 .09899902-.0107421879 .20298767-.0107421879 .34599305-.0107421879 .42999269 .09516907 .42999269 .107162479 .42999269 .11315918 .42399598 .120147708 .41799928 .120147708 .41299439 .120147708 .41099549 .1181488 .40499879 .1101532 .32598878 .011245728 .21699524 .011245728 .20498657 .011245728 .14199829 .011245728 .114990238 .06021118 .114990238 .120147708 .114990238 .1611023 .1349945 .25801087 .16899109 .31999208 .19999695 .37698365 .25498963 .42037965 .30999757 .42037965 .34399415 .42037965 .38198854 .40724183 .3959961 .37998963Z"/>
<path id="font_1_5" d="M.5159912 .68333438C.5159912 .6843262 .5159912 .69433596 .5029907 .69433596 .48799134 .69433596 .3929901 .68533328 .37599183 .68333438 .36799623 .6823273 .3619995 .6773224 .3619995 .6643219 .3619995 .6523285 .37098695 .6523285 .38598634 .6523285 .43399049 .6523285 .43598939 .6453247 .43598939 .6353302L.43299867 .6153412 .37298585 .37835694C.35499574 .41537477 .32598878 .4423828 .2809906 .4423828 .1639862 .4423828 .039993287 .29533387 .039993287 .14929199 .039993287 .055267335 .09498596-.0107421879 .17298889-.0107421879 .19299317-.0107421879 .24299622-.0067443849 .30299378 .06427002 .31098939 .022247315 .34599305-.0107421879 .3939972-.0107421879 .42900086-.0107421879 .45199586 .012252808 .46798707 .044265748 .4850006 .08027649 .49798585 .14129639 .49798585 .14329529 .49798585 .1532898 .4889984 .1532898 .48599244 .1532898 .47599793 .1532898 .47499085 .14929199 .47200013 .13528443 .45498658 .07026672 .43699647 .011245728 .3959961 .011245728 .36898805 .011245728 .3659973 .037261964 .3659973 .057266237 .3659973 .08126831 .36799623 .088272098 .37199403 .105285648L.5159912 .68333438M.30799867 .119277957C.30299378 .10127258 .30299378 .09927368 .28799439 .08227539 .24398804 .027252198 .20298767 .011245728 .1749878 .011245728 .125 .011245728 .11099243 .06626892 .11099243 .105285648 .11099243 .1552887 .14299011 .27833558 .1659851 .32434083 .19699097 .38336183 .24198914 .42037965 .28199769 .42037965 .34700013 .42037965 .36099244 .3383484 .36099244 .33235169 .36099244 .32633973 .35899354 .32034303 .35798646 .31533814L.30799867 .119277957Z"/>
</defs>
<path transform="matrix(1.00003,0,0,-1.00008,143.23177,149.61193)" stroke-width=".19925" stroke-linecap="butt" stroke-miterlimit="10" stroke-linejoin="miter" fill="none" stroke="#929292" stroke-opacity=".5" d="M-141.73404-141.73404H141.73404M-141.73404-113.38724H141.73404M-141.73404-85.04042H141.73404M-141.73404-56.69362H141.73404M-141.73404-28.3468H141.73404M-141.73404 0H141.73404M-141.73404 28.3468H141.73404M-141.73404 56.69362H141.73404M-141.73404 85.04042H141.73404M-141.73404 113.38724H141.73404M-141.73404 141.72409H141.73404M-141.73404-141.73404V141.73404M-113.38724-141.73404V141.73404M-85.04042-141.73404V141.73404M-56.69362-141.73404V141.73404M-28.3468-141.73404V141.73404M0-141.73404V141.73404M28.3468-141.73404V141.73404M56.69362-141.73404V141.73404M85.04042-141.73404V141.73404M113.38724-141.73404V141.73404M141.72409-141.73404V141.73404M141.73404 141.73404"/>
<path transform="matrix(1.00003,0,0,-1.00008,143.23177,149.61193)" stroke-width="1.19553" stroke-linecap="butt" stroke-miterlimit="10" stroke-linejoin="miter" fill="none" stroke="#000000" d="M-141.73404 0H143.61248"/>
<path transform="matrix(1.00003,0,0,-1.00008,286.84858,149.61193)" stroke-width=".9564" stroke-linecap="round" stroke-linejoin="round" fill="none" stroke="#000000" d="M-1.91284 2.55046C-1.75343 1.59402 0 .15938 .4782 0 0-.15938-1.75343-1.59402-1.91284-2.55046"/>
<use data-text="x" xlink:href="#font_1_7" transform="matrix(9.962899,0,0,-9.963397,284.958,145.6936)"/>
<path transform="matrix(1.00003,0,0,-1.00008,143.23177,149.61193)" stroke-width="1.19553" stroke-linecap="butt" stroke-miterlimit="10" stroke-linejoin="miter" fill="none" stroke="#000000" d="M0-141.73404V143.61248"/>
<path transform="matrix(0,-1.00008,-1.00003,-0,143.23177,5.987961)" stroke-width=".9564" stroke-linecap="round" stroke-linejoin="round" fill="none" stroke="#000000" d="M-1.91284 2.55046C-1.75343 1.59402 0 .15938 .4782 0 0-.15938-1.75343-1.59402-1.91284-2.55046"/>
<use data-text="y" xlink:href="#font_1_8" transform="matrix(9.962899,0,0,-9.963397,147.14989,6.207443)"/>
<g clip-path="url(#clip_2)">
<path transform="matrix(1.00003,0,0,-1.00008,143.23177,149.61193)" stroke-width=".79701" stroke-linecap="butt" stroke-miterlimit="10" stroke-linejoin="miter" fill="none" stroke="#0000ff" d="M-85.04042-3401.6173C-85.04042-3401.6173-84.79414-3334.5479-84.69958-3309.1375-84.60501-3283.7274-84.45331-3243.3836-84.35873-3218.477-84.26416-3193.5709-84.11246-3154.0413-84.0179-3129.6295-83.92332-3105.2178-83.77162-3066.4608-83.67705-3042.5345-83.58247-3018.6085-83.43079-2980.6285-83.33621-2957.186-83.24165-2933.7437-83.08995-2896.5457-82.99538-2873.578-82.9008-2850.61-82.7491-2814.1529-82.65453-2791.6505-82.55997-2769.148-82.40826-2733.4368-82.31369-2711.396-82.21912-2689.355-82.06743-2654.3809-81.97285-2632.7947-81.8783-2611.2086-81.7266-2576.9556-81.63202-2555.8177-81.53745-2534.6798-81.38574-2501.1427-81.29117-2480.447-81.1966-2459.7515-81.0449-2426.9183-80.95033-2406.6583-80.85576-2386.3983-80.70407-2354.2574-80.6095-2334.4266-80.51492-2314.596-80.36324-2283.1417-80.26866-2263.7322-80.17409-2244.3226-80.02238-2213.5289-79.92781-2194.536-79.83324-2175.5433-79.68155-2145.4256-79.58698-2126.8455-79.4924-2108.2655-79.34071-2078.801-79.24614-2060.624-79.15157-2042.4469-78.99986-2013.6165-78.9053-1995.838-78.81073-1978.0595-78.65903-1949.8745-78.56445-1932.4889-78.46988-1915.1033-78.31818-1887.5332-78.22362-1870.5348-78.12904-1853.5364-77.97736-1826.5935-77.88278-1809.976-77.78821-1793.3585-77.6365-1767.0095-77.54195-1750.7671-77.44737-1734.5248-77.29567-1708.7853-77.2011-1692.9126-77.10652-1677.0399-76.95482-1651.8782-76.86026-1636.3682-76.76569-1620.8582-76.61398-1596.2776-76.51941-1581.1271-76.42484-1565.9766-76.27315-1541.9719-76.17857-1527.174-76.08401-1512.376-75.93231-1488.9257-75.83774-1474.4735-75.74316-1460.0215-75.59146-1437.1238-75.49689-1423.0132-75.40233-1408.9026-75.25063-1386.5484-75.15605-1372.7739-75.06148-1358.9995-74.90979-1337.18-74.81522-1323.7367-74.72066-1310.2932-74.56895-1289.0009-74.47438-1275.8833-74.3798-1262.7656-74.2281-1241.9916-74.13353-1229.1942-74.03896-1216.397-73.88727-1196.1329-73.7927-1183.6493-73.69812-1171.1657-73.54643-1151.394-73.45186-1139.2207-73.35728-1127.0474-73.2056-1107.7792-73.11102-1095.912-73.01645-1084.0448-72.86475-1065.2577-72.77017-1053.6902-72.6756-1042.1227-72.52391-1023.8154-72.42934-1012.54159-72.33476-1001.26779-72.18307-983.42019-72.0885-972.4362-71.99393-961.4523-71.84222-944.0755-71.74767-933.3768-71.65309-922.67807-71.50139-905.746-71.40681-895.3273-71.31224-884.9085-71.16054-868.429-71.06598-858.2855-70.9714-848.1421-70.81972-832.093-70.72514-822.2201-70.63057-812.34719-70.47887-796.7352-70.38431-787.1283-70.28973-777.52139-70.13803-762.32656-70.04346-752.97988-69.94888-743.6332-69.79718-728.85409-69.70262-719.764-69.60805-710.6738-69.45634-696.3025-69.36177-687.4646-69.2672-678.6268-69.11551-664.6559-69.02094-656.0667-68.92638-647.47756-68.77467-633.90579-68.6801-625.55978-68.58553-617.2138-68.43382-604.02297-68.33925-595.9145-68.24469-587.806-68.09299-574.99368-67.99841-567.11959-67.90384-559.2455-67.75215-546.8073-67.65758-539.1633-67.56302-531.5194-67.41132-519.44619-67.31674-512.0272-67.22217-504.60826-67.07047-492.88999-66.97589-485.69258-66.88132-478.49519-66.72963-467.13249-66.63506-460.15336-66.54048-453.17424-66.3888-442.15754-66.29422-435.39186-66.19965-428.6262-66.04796-417.9488-65.95338-411.3912-65.85881-404.8336-65.7071-394.4818-65.61253-388.1293-65.51796-381.7768-65.36627-371.7576-65.2717-365.6066-65.17712-359.45564-65.02544-349.75105-64.93086-343.79719-64.83629-337.84336-64.68459-328.456-64.59003-322.6954-64.49545-316.93479-64.34375-307.84977-64.24918-302.27873-64.1546-296.7077-64.0029-287.9287-63.90834-282.54335-63.81377-277.15794-63.66208-268.6681-63.5675-263.4645-63.47293-258.2609-63.32123-250.06458-63.22667-245.03925-63.1321-240.01393-62.9804-232.09683-62.88582-227.2455-62.79124-222.39418-62.63954-214.75429-62.54497-210.07418-62.45041-205.39406-62.2987-198.02744-62.20413-193.51447-62.10956-189.00148-61.95787-181.89707-61.8633-177.54775-61.76874-173.19843-61.61703-166.35665-61.52246-162.16757-61.42789-157.9785-61.27618-151.38825-61.18161-147.35573-61.08705-143.32323-60.93535-136.98279-60.84077-133.10404-60.7462-129.22528-60.59451-123.12885-60.49994-119.40038-60.40538-115.6719-60.25368-109.81361-60.1591-106.23175-60.06453-102.64989-59.91283-97.0236-59.81825-93.58476-59.72368-90.14594-59.57199-84.7459-59.47742-81.44688-59.38284-78.14787-59.23116-72.96959-59.13658-69.80772-59.042-66.64584-58.89032-61.68594-58.79575-58.65819-58.70117-55.63045-58.54947-50.88322-58.4549-47.98575-58.36032-45.08829-58.20863-40.54501-58.11406-37.77525-58.01949-35.0055-57.8678-30.6686-57.77322-28.02325-57.67865-25.37791-57.52695-21.2336-57.43239-18.70941-57.33781-16.18524-57.18611-12.23581-57.09154-9.8307-56.99696-7.4256-56.84526-3.66455-56.7507-1.37503-56.65613 .91449-56.50444 4.49377-56.40987 6.6706-56.31529 8.84741-56.16359 12.24745-56.06903 14.31396-55.97446 16.38048-55.82275 19.60503-55.72818 21.56459-55.6336 23.52415-55.4819 26.5818-55.38733 28.4372-55.29277 30.29257-55.14107 33.18341-55.0465 34.93695-54.95192 36.69049-54.80023 39.42102-54.70566 41.07553-54.6111 42.73003-54.4594 45.3032-54.36482 46.86159-54.27025 48.41995-54.11855 50.84254-54.02397 52.30724-53.92941 53.77193-53.77771 56.04488-53.68314 57.4181-53.58856 58.79134-53.43687 60.9197-53.3423 62.20457-53.24773 63.48946-53.09604 65.47986-53.00146 66.67874-52.90689 67.87762-52.75519 69.73033-52.66061 70.84538-52.56604 71.96043-52.41435 73.68138-52.31978 74.7153-52.2252 75.74922-52.07352 77.34215-51.97894 78.29715-51.88437 79.25214-51.73268 80.71992-51.6381 81.59828-51.54353 82.47664-51.39183 83.82378-51.29726 84.62778-51.20268 85.43178-51.051 86.66058-50.95642 87.39299-50.86185 88.1254-50.71016 89.2438-50.61559 89.90646-50.52101 90.56914-50.36931 91.5741-50.27475 92.16907-50.18018 92.76404-50.02847 93.66473-49.9339 94.19464-49.83932 94.72455-49.68762 95.52185-49.59306 95.98839-49.49849 96.45493-49.3468 97.15181-49.25223 97.5572-49.15765 97.96259-49.00595 98.56348-48.91139 98.91017-48.81682 99.25687-48.66512 99.76624-48.57054 100.05597-48.47597 100.3457-48.32426 100.76382-48.22969 100.99847-48.13513 101.23311-47.98343 101.56549-47.88885 101.7472-47.79428 101.92891-47.6426 102.17773-47.54802 102.3082-47.45346 102.43866-47.30176 102.60628-47.20718 102.68753-47.11261 102.76878-46.9609 102.85959-46.86633 102.89386-46.77177 102.92812-46.62007 102.94585-46.5255 102.93451-46.43092 102.92316-46.27924 102.86717-46.18466 102.8121-46.09009 102.75702-45.9384 102.63441-45.84383 102.53745-45.74925 102.44048-45.59755 102.25037-45.50298 102.11313-45.4084 101.97588-45.25671 101.72375-45.16214 101.54822-45.06757 101.37268-44.91588 101.06033-44.8213 100.84795-44.72673 100.63556-44.57504 100.26508-44.48047 100.01747-44.3859 99.76987-44.23419 99.34445-44.13962 99.0633-44.04504 98.78214-43.89334 98.30406-43.79878 97.99103-43.70421 97.67801-43.55252 97.15063-43.45795 96.80717-43.36337 96.46371-43.21167 95.8881-43.11711 95.51563-43.02254 95.14313-42.87083 94.52246-42.77626 94.12242-42.68169 93.72238-42.52998 93.05804-42.43542 92.63232-42.34085 92.20659-42.18916 91.5044-42.09459 91.05399-42.00002 90.60359-41.84831 89.8595-41.75375 89.38612-41.65918 88.91275-41.50748 88.13719-41.4129 87.64214-41.31833 87.14708-41.16663 86.3337-41.07205 85.81813-40.9775 85.30255-40.82579 84.4609-40.73122 83.9262-40.63664 83.39148-40.48495 82.51698-40.39038 81.9642-40.29582 81.41144-40.14412 80.51106-40.04955 79.9421-39.95497 79.37311-39.80327 78.44766-39.7087 77.86331-39.61414 77.27896-39.46243 76.3291-39.36786 75.73047-39.27328 75.13185-39.1216 74.16046-39.02702 73.54875-38.93245 72.93703-38.78076 71.94514-38.68619 71.32161-38.59161 70.69807-38.43991 69.68878-38.34534 69.05467-38.25076 68.42056-38.09908 67.39511-38.0045 66.7514-37.90993 66.10771-37.75824 65.0675-37.66367 64.41527-37.56909 63.76305-37.4174 62.71025-37.32283 62.0506-37.22826 61.39093-37.07655 60.32703-36.98198 59.66081-36.8874 58.9946-36.7357 57.92053-36.64114 57.249-36.54657 56.57744-36.39488 55.49689-36.30031 54.82071-36.20573 54.14455-36.05403 53.05577-35.95947 52.37558-35.8649 51.6954-35.7132 50.6011-35.61862 49.91833-35.52405 49.23557-35.37234 48.13893-35.27779 47.45459-35.18321 46.77026-35.03152 45.67145-34.93695 44.9861-34.84238 44.30075-34.69067 43.20067-34.59612 42.51501-34.50154 41.82936-34.34984 40.72926-34.25526 40.04434-34.16069 39.35942-34.00899 38.26152-33.91441 37.57845-33.81985 36.89537-33.66815 35.80217-33.57358 35.1212-33.479 34.44023-33.32732 33.34883-33.23274 32.67044-33.13818 31.99205-32.98648 30.90646-32.8919 30.2318-32.79733 29.55714-32.64563 28.47783-32.55106 27.80785-32.4565 27.13786-32.3048 26.06776-32.21022 25.40294-32.11565 24.73811-31.96396 23.67563-31.86938 23.0162-31.77481 22.35677-31.62312 21.30302-31.52855 20.6502-31.43398 19.99739-31.28227 18.95685-31.1877 18.31105-31.09312 17.66525-30.94144 16.6341-30.84686 15.99567-30.75229 15.35724-30.6006 14.34009-30.50603 13.70972-30.41145 13.07933-30.25977 12.07396-30.16519 11.4523-30.07062 10.83063-29.91891 9.84172-29.82434 9.22905-29.72977 8.61638-29.57806 7.63971-29.4835 7.03651-29.38893 6.43332-29.23724 5.47424-29.14267 4.8816-29.0481 4.28897-28.8964 3.34715-28.80183 2.7652-28.70726 2.18326-28.55556 1.25842-28.46098 .68729-28.36641 .11615-28.2147-.79156-28.12015-1.35124-28.02557-1.9109-27.87389-2.79854-27.77931-3.34653-27.68474-3.89452-27.53304-4.76471-27.43846-5.30074-27.3439-5.83678-27.1922-6.6867-27.09763-7.20996-27.00305-7.73322-26.85135-8.56198-26.75677-9.07204-26.66222-9.58209-26.51051-10.38919-26.41594-10.8861-26.32137-11.38301-26.16968-12.16992-26.0751-12.65346-25.98055-13.13698-25.82884-13.90128-25.73427-14.37106-25.6397-14.84085-25.48799-15.58386-25.39342-16.03935-25.29886-16.49486-25.14716-17.2128-25.05258-17.65402-24.95801-18.09525-24.80632-18.79245-24.71175-19.21938-24.61717-19.64632-24.46548-20.31917-24.37091-20.7311-24.27634-21.14302-24.12463-21.79134-24.03006-22.18831-23.93549-22.5853-23.7838-23.2106-23.68922-23.59233-23.59465-23.97408-23.44296-24.57349-23.34839-24.93968-23.25381-25.3059-23.10213-25.88062-23.00755-26.23169-22.91298-26.58276-22.76128-27.1344-22.6667-27.47005-22.57213-27.8057-22.42043-28.33119-22.32587-28.65088-22.2313-28.97055-22.0796-29.47028-21.98503-29.77417-21.89046-30.07808-21.73875-30.55305-21.6442-30.84123-21.54962-31.12943-21.39792-31.57936-21.30334-31.85123-21.20877-32.12308-21.05707-32.5448-20.96251-32.80063-20.86794-33.05647-20.71625-33.45485-20.62167-33.69513-20.5271-33.93541-20.3754-34.30838-20.28082-34.53252-20.18626-34.75665-20.03456-35.10301-19.93999-35.31065-19.84541-35.51831-19.69371-35.83714-19.59914-36.02911-19.50458-36.22108-19.35287-36.51846-19.2583-36.69435-19.16373-36.87024-19.01204-37.13736-18.91747-37.29688-18.8229-37.45639-18.6712-37.70024-18.57663-37.84402-18.48206-37.98781-18.33035-38.20547-18.23578-38.33322-18.14122-38.46098-17.98952-38.65305-17.89494-38.76491-17.80037-38.87675-17.64868-39.04303-17.55411-39.13948-17.45953-39.23592-17.30785-39.37935-17.21327-39.45999-17.1187-39.54065-16.967-39.65594-16.87242-39.72081-16.77785-39.78569-16.62616-39.87782-16.53159-39.92757-16.43701-39.97731-16.28532-40.04536-16.19075-40.07939-16.09618-40.1134-15.94449-40.15392-15.84991-40.17282-15.75534-40.19171-15.60364-40.2115-15.50906-40.21564-15.41449-40.21977-15.26279-40.21352-15.16823-40.20265-15.07365-40.1918-14.92197-40.16284-14.8274-40.13734-14.73282-40.11186-14.58112-40.0591-14.48656-40.01883-14.39198-39.97858-14.24028-39.90154-14.1457-39.8471-14.05113-39.7927-13.89943-39.69481-13.80487-39.62651-13.7103-39.55823-13.55861-39.43716-13.46404-39.35489-13.36946-39.27261-13.21776-39.12933-13.12318-39.03351-13.02863-38.93767-12.87692-38.77339-12.78235-38.66412-12.68777-38.55486-12.53607-38.36841-12.4415-38.24586-12.34694-38.12332-12.19524-37.91649-12.10066-37.78088-12.00609-37.64526-11.8544-37.41644-11.75983-37.26833-11.66527-37.12021-11.51357-36.87373-11.41899-36.71338-11.32442-36.55302-11.17271-36.2853-11.07814-36.11258-10.98357-35.93987-10.83188-35.6529-10.7373-35.46854-10.64273-35.28418-10.49104-34.97989-10.39647-34.78383-10.3019-34.58777-10.1502-34.26271-10.05563-34.05544-9.96106-33.84816-9.80936-33.50786-9.71478-33.28983-9.62021-33.07181-9.46852-32.71284-9.37395-32.48402-9.27937-32.2552-9.12769-31.87971-9.03311-31.64056-8.93854-31.40143-8.78683-31.00935-8.69228-30.76036-8.5977-30.51137-8.446-30.10457-8.35143-29.84598-8.25685-29.58739-8.10515-29.1645-8.01059-28.89655-7.91602-28.6286-7.76433-28.1917-7.66975-27.91469-7.57518-27.63768-7.42348-27.18555-7.32892-26.89995-7.23434-26.61435-7.08264-26.14989-6.98807-25.85625-6.8935-25.5626-6.74179-25.0853-6.64723-24.78355-6.55266-24.48181-6.40097-23.99074-6.3064-23.68144-6.21182-23.37213-6.06012-22.87044-5.96555-22.55424-5.87099-22.23804-5.71928-21.72563-5.62471-21.4024-5.53014-21.07918-5.37843-20.55432-5.28386-20.2246-5.1893-19.89488-5.0376-19.36156-4.94302-19.02603-4.84845-18.6905-4.69676-18.14746-4.60219-17.80629-4.50763-17.4651-4.35593-16.9135-4.26135-16.56705-4.16678-16.2206-4.01508-15.66037-3.9205-15.30923-3.82593-14.9581-3.67424-14.3919-3.57967-14.03627-3.48509-13.68063-3.3334-13.10585-3.23883-12.74602-3.14426-12.38618-2.99257-11.80646-2.898-11.44278-2.80342-11.0791-2.65172-10.49174-2.55714-10.12483-2.46257-9.75792-2.31088-9.16756-2.21631-8.79825-2.12173-8.42892-1.97005-7.83502-1.87547-7.463-1.7809-7.09097-1.6292-6.49106-1.53464-6.11693-1.44006-5.74281-1.28836-5.14218-1.19379-4.76656-1.09921-4.39093-.94751-3.78679-.85295-3.40967-.75838-3.03256-.60669-2.4265-.51212-2.0485-.41754-1.67047-.26584-1.06345-.17128-.68513-.0767-.30681 .07497 .29988 .16954 .67819 .26411 1.05652 .41582 1.66353 .51038 2.04155 .60495 2.41959 .75664 3.02563 .85121 3.40276 .94579 3.77988 1.09749 4.384 1.19206 4.75963 1.28662 5.13525 1.43832 5.7359 1.5329 6.11002 1.62747 6.48413 1.77917 7.08406 1.87375 7.45607 1.9683 7.8281 2.12001 8.4217 2.21458 8.79132 2.30916 9.16095 2.46085 9.75316 2.55542 10.12007 2.64998 10.48698 2.80168 11.0725 2.89626 11.43587 2.99083 11.79924 3.14253 12.37927 3.2371 12.7391 3.33168 13.09892 3.48337 13.67372 3.57794 14.02936 3.67252 14.38498 3.8242 14.95119 3.91878 15.30232 4.01335 15.65346 4.16504 16.21368 4.25961 16.56013 4.35419 16.90659 4.50589 17.45818 4.60046 17.79935 4.69504 18.14053 4.84673 18.68329 4.9413 19.0191 5.03587 19.35493 5.18756 19.89014 5.28214 20.21983 5.37671 20.54955 5.52841 21.07256 5.62297 21.39546 5.71754 21.71838 5.86925 22.23082 5.96382 22.54732 6.0584 22.86383 6.2101 23.36739 6.30466 23.67668 6.39923 23.98598 6.55092 24.47488 6.6455 24.77663 6.74007 25.07838 6.89177 25.55754 6.98633 25.85149 7.0809 26.14543 7.2326 26.6099 7.32718 26.8952 7.42175 27.1805 7.57346 27.63075 7.66803 27.90778 7.76259 28.18478 7.91428 28.62354 8.00885 28.8918 8.10342 29.16005 8.25513 29.58263 8.3497 29.84122 8.44426 30.09981 8.59596 30.5066 8.69054 30.7556 8.78511 31.0046 8.93681 31.39667 9.03139 31.63582 9.12595 31.87495 9.27765 32.25044 9.37222 32.47926 9.4668 32.70808 9.61848 33.06676 9.71306 33.28508 9.80762 33.50339 9.95932 33.84555 10.0539 34.05284 10.14847 34.26012 10.30017 34.58301 10.39474 34.77907 10.48932 34.97513 10.641 35.28134 10.73558 35.46593 10.83015 35.65053 10.98184 35.93684 11.07642 36.10956 11.17099 36.28227 11.32268 36.55013 11.41725 36.71078 11.51183 36.87143 11.66353 37.11942 11.7581 37.26746 11.85268 37.41551 12.00436 37.64246 12.09894 37.77785 12.19351 37.91324 12.3452 38.12071 12.43977 38.24326 12.53435 38.3658 12.68605 38.55159 12.78061 38.6611 12.87518 38.77061 13.02689 38.93657 13.12146 39.03265 13.21603 39.12872 13.36774 39.27136 13.4623 39.35358 13.55687 39.43579 13.70856 39.55695 13.80313 39.62523 13.8977 39.69351 14.04941 39.79134 14.14397 39.84583 14.23854 39.9003 14.39024 39.97765 14.48482 40.01797 14.57939 40.05829 14.7311 40.111 14.82567 40.13649 14.92023 40.16197 15.07191 40.191 15.16649 40.2018 15.26106 40.21259 15.41277 40.21823 15.50734 40.21434 15.6019 40.21043 15.7536 40.19258 15.84818 40.17368 15.94275 40.15479 16.09445 40.11212 16.18903 40.0781 16.28358 40.04407 16.43529 39.97786 16.52986 39.92844 16.62444 39.879 16.77612 39.7866 16.8707 39.72168 16.96527 39.65675 17.11696 39.54083 17.21153 39.46042 17.3061 39.38 17.45781 39.23816 17.55238 39.14207 17.64696 39.046 17.79865 38.87978 17.89322 38.76793 17.9878 38.65607 18.13948 38.4637 18.23405 38.33583 18.32863 38.20795 18.48032 37.99004 18.57489 37.8462 18.66946 37.70236 18.82117 37.45854 18.91574 37.29904 19.01031 37.13953 19.162 36.87216 19.25658 36.6965 19.35115 36.52084 19.50284 36.22475 19.59741 36.033 19.69199 35.84126 19.84369 35.52226 19.93825 35.31456 20.03282 35.10684 20.18452 34.75989 20.2791 34.53598 20.37367 34.31207 20.52538 33.94069 20.61993 33.70076 20.71451 33.46083 20.8662 33.06284 20.96077 32.8067 21.05534 32.55055 21.20705 32.12671 21.3016 31.85468 21.39618 31.58264 21.54788 31.13399 21.64246 30.846 21.73703 30.55798 21.88873 30.08278 21.9833 29.77893 22.07787 29.4751 22.22955 28.9755 22.32413 28.65605 22.4187 28.33662 22.5704 27.8117 22.66498 27.47653 22.75954 27.14136 22.91124 26.59142 23.00581 26.24034 23.10039 25.88927 23.25209 25.31279 23.34666 24.94618 23.44122 24.57957 23.59293 23.97977 23.6875 23.59796 23.78207 23.21617 23.93376 22.59113 24.02834 22.19438 24.12291 21.79764 24.2746 21.1502 24.36917 20.73845 24.46375 20.3267 24.61545 19.65341 24.71002 19.22673 24.8046 18.80003 24.95628 18.10439 25.05086 17.66312 25.14543 17.22185 25.29712 16.50183 25.3917 16.04628 25.48627 15.59071 25.63795 14.8492 25.73253 14.37971 25.8271 13.91023 25.9788 13.14589 26.07338 12.66254 26.16795 12.1792 26.31966 11.3929 26.41422 10.89606 26.50879 10.39922 26.66048 9.59166 26.75505 9.08154 26.84962 8.57143 27.00133 7.74248 27.09589 7.21947 27.19046 6.69646 27.34216 5.84778 27.43674 5.312 27.53131 4.7762 27.68301 3.90587 27.77757 3.35777 27.87215 2.80968 28.02383 1.92142 28.11841 1.36162 28.21298 .80182 28.36469-.10602 28.45924-.67691 28.55382-1.2478 28.70552-2.17102 28.8001-2.75308 28.89467-3.33516 29.04637-4.2791 29.14095-4.87209 29.2355-5.46507 29.38719-6.42416 29.48177-7.02701 29.57634-7.62984 29.72804-8.60445 29.82262-9.21693 29.91718-9.82942 30.06888-10.81975 30.16345-11.44147 30.25803-12.0632 30.40973-13.06783 30.5043-13.69803 30.59886-14.32822 30.75056-15.34526 30.84514-15.98357 30.93971-16.62187 31.0914-17.65271 31.18597-18.29851 31.28055-18.9443 31.43224-19.98517 31.52681-20.6381 31.62138-21.29105 31.77309-22.34499 31.86766-23.00452 31.96223-23.66406 32.11392-24.72675 32.2085-25.3917 32.30307-26.05664 32.45476-27.12723 32.54933-27.79704 32.6439-28.46686 32.7956-29.54482 32.89017-30.21924 32.98474-30.89368 33.13644-31.97975 33.23102-32.6579 33.32559-33.33604 33.4773-34.42577 33.57185-35.10692 33.66643-35.78809 33.81812-36.88396 33.91269-37.56721 34.00726-38.25047 34.15897-39.34657 34.25352-40.03137 34.3481-40.71619 34.4998-41.81712 34.59438-42.5029 34.68895-43.18867 34.84065-44.28851 34.93521-44.97398 35.02979-45.65945 35.18147-46.75908 35.27605-47.44334 35.37062-48.12761 35.52232-49.22314 35.6169-49.90579 35.71146-50.58844 35.86316-51.6834 35.95773-52.36346 36.0523-53.04355 36.20401-54.1312 36.29858-54.80731 36.39314-55.48341 36.54483-56.56471 36.6394-57.23645 36.73398-57.90817 36.88568-58.98238 36.98026-59.64871 37.07481-60.31505 37.22652-61.37907 37.32109-62.03891 37.41566-62.69876 37.56737-63.75224 37.66194-64.40446 37.7565-65.05669 37.9082-66.0961 38.00278-66.73973 38.09735-67.38338 38.24904-68.40915 38.34361-69.04343 38.43819-69.6777 38.58987-70.6878 38.68445-71.31123 38.77902-71.93465 38.93073-72.92503 39.0253-73.53664 39.11987-74.14822 39.27156-75.12065 39.36613-75.71922 39.46071-76.3178 39.6124-77.26624 39.70697-77.85077 39.80154-78.4353 39.95323-79.36293 40.0478-79.93214 40.14238-80.50137 40.29408-81.40083 40.38866-81.95338 40.48323-82.50594 40.63493-83.37944 40.72949-83.91452 40.82407-84.4496 40.97575-85.29398 41.07033-85.8099 41.1649-86.32582 41.3166-87.1377 41.41116-87.63304 41.50574-88.12839 41.65744-88.90663 41.75201-89.38007 41.84659-89.8535 41.99829-90.59518 42.09285-91.04533 42.18742-91.4955 42.33911-92.19862 42.43369-92.62454 42.52826-93.05045 42.67996-93.7149 42.77454-94.11507 42.8691-94.51523 43.0208-95.1361 43.11537-95.5087 43.20995-95.88132 43.36165-96.45718 43.45622-96.80069 43.55078-97.1442 43.70247-97.67159 43.79704-97.98454 43.89162-98.2975 44.04332-98.77486 44.1379-99.05637 44.23245-99.33788 44.38416-99.76555 44.47873-100.01358 44.5733-100.26161 44.725-100.6316 44.81958-100.84406 44.91414-101.0565 45.06584-101.369 45.16042-101.54477 45.25499-101.72054 45.40668-101.97359 45.50125-102.11095 45.59583-102.24832 45.74751-102.43774 45.84209-102.53485 45.93666-102.63194 46.08836-102.75566 46.18294-102.8108 46.27751-102.86594 46.4292-102.9206 46.52377-102.93234 46.61835-102.94409 46.77003-102.92943 46.86461-102.89558 46.95918-102.86174 47.11087-102.76959 47.20544-102.6884 47.30002-102.60721 47.45172-102.4407 47.5463-102.31035 47.64087-102.18001 47.79257-101.93042 47.88713-101.74893 47.9817-101.56744 48.13339-101.23659 48.22797-101.00237 48.32254-100.76813 48.47424-100.35005 48.5688-100.06071 48.66338-99.7714 48.81508-99.26324 48.90965-98.9171 49.00423-98.57094 49.15593-97.97105 49.25049-97.56584 49.34506-97.16064 49.49675-96.46297 49.59132-95.9966 49.6859-95.53023 49.8376-94.7341 49.93217-94.2046 50.02673-93.6751 50.17844-92.77512 50.27301-92.18031 50.36758-91.58553 50.51929-90.58014 50.61386-89.91772 50.70842-89.2553 50.8601-88.13806 50.95468-87.40598 51.04926-86.67387 51.20096-85.44489 51.29553-84.64119 51.39009-83.8375 51.5418-82.49127 51.63637-81.6134 51.73094-80.73553 51.88264-79.26872 51.97722-78.31401 52.0718-77.35931 52.22348-75.76604 52.31805-74.7326 52.41263-73.69917 52.56432-71.98012 52.65889-70.86572 52.75346-69.75133 52.90515-67.89897 52.99973-66.7008 53.0943-65.50262 53.246-63.51462 53.34058-62.2301 53.43515-60.94557 53.58684-58.81587 53.68141-57.44276 53.77599-56.06966 53.92767-53.79749 54.02225-52.33362 54.11682-50.86977 54.26851-48.45007 54.36308-46.89229 54.45766-45.33452 54.60936-42.76033 54.70393-41.10623 54.79851-39.45213 54.95021-36.72386 55.04477-34.97069 55.13934-33.2175 55.29103-30.32545 55.3856-28.4705 55.48018-26.61554 55.63188-23.56021 55.72644-21.60136 55.82101-19.64252 55.97272-16.4186 56.06729-14.35245 56.16187-12.2863 56.31357-8.88634 56.40813-6.70995 56.5027-4.53355 56.65439-.95535 56.74896 1.3335 56.84354 3.62234 56.99524 7.38196 57.08981 9.78659 57.18437 12.19122 57.33607 16.14128 57.43065 18.66443 57.52522 21.18758 57.67693 25.327 57.7715 27.97179 57.86606 30.61658 58.01775 34.95699 58.11232 37.72638 58.2069 40.49577 58.3586 45.03523 58.45317 47.93167 58.54773 50.82813 58.69943 55.57463 58.794 58.60196 58.88858 61.6293 59.04028 66.58922 59.13486 69.75063 59.22943 72.91202 59.38112 78.08932 59.4757 81.3872 59.57027 84.68507 59.72195 90.08157 59.81653 93.51945 59.9111 96.95734 60.06279 102.58353 60.15736 106.16513 60.25194 109.74675 60.40364 115.60526 60.49821 119.33331 60.59279 123.06137 60.74448 129.15619 60.83905 133.0344 60.93362 136.9126 61.08531 143.25325 61.17989 147.2848 61.27446 151.31635 61.42616 157.90288 61.52072 162.09099 61.6153 166.27912 61.767 173.12129 61.86157 177.4699 61.95615 181.8185 62.10785 188.92076 62.20241 193.43271 62.29698 197.94466 62.44867 205.30988 62.54324 209.98897 62.63782 214.66806 62.78952 222.30608 62.88408 227.15639 62.97865 232.0067 63.13036 239.9221 63.22493 244.94669 63.3195 249.97129 63.4712 258.1673 63.56577 263.3702 63.66034 268.5731 63.81203 277.06126 63.9066 282.44557 64.00117 287.8299 64.15288 296.60649 64.24745 302.17665 64.34201 307.74684 64.49371 316.83177 64.58829 322.59159 64.68286 328.3514 64.83456 337.7372 64.92914 343.68949 65.0237 349.64179 65.17538 359.34144 65.26996 365.49156 65.36453 371.64173 65.51624 381.66429 65.61081 388.01557 65.70537 394.3668 65.85707 404.7112 65.95164 411.26704 66.04622 417.82289 66.19792 428.50053 66.2925 435.26557 66.38707 442.0306 66.53876 453.04664 66.63333 460.0249 66.7279 467.0032 66.8796 478.3637 66.97417 485.5602 67.06874 492.7567 67.22043 504.47434 67.315 511.89228 67.40958 519.3102 67.56128 531.38168 67.65585 539.0236 67.75043 546.66567 67.90211 559.0983 67.99669 566.97036 68.09126 574.84237 68.24295 587.6523 68.33752 595.75967 68.4321 603.867 68.5838 617.0567 68.67836 625.4028 68.77293 633.74887 68.92464 647.3229 69.01921 655.9123 69.11378 664.50167 69.26549 678.47317 69.36005 687.3089 69.45462 696.14468 69.60631 710.5066 69.70088 719.5944 69.79546 728.68228 69.94716 743.46188 70.04172 752.80776 70.13629 762.1535 70.288 777.34689 70.38257 786.9527 70.47714 796.5585 70.62885 812.1681 70.7234 822.03976 70.81798 831.9114 70.96967 847.95846 71.06424 858.1004 71.15881 868.2424 71.31052 884.7185 71.40509 895.13607 71.49965 905.55368 71.65135 922.48519 71.74593 933.183 71.8405 943.8808 71.9922 961.2572 72.08678 972.2386 72.18134 983.2199 72.33302 1001.05758 72.4276 1012.3288 72.52217 1023.60006 72.67387 1041.9063 72.76845 1053.474 72.863 1065.0416 73.01471 1083.833 73.10928 1095.7005 73.20386 1107.5679 73.35556 1126.8352 73.45013 1139.0061 73.54471 1151.1771 73.6964 1170.9397 73.79097 1183.4204 73.88554 1195.9013 74.03723 1216.1631 74.1318 1228.959 74.22638 1241.7548 74.37807 1262.5277 74.47264 1275.644 74.56721 1288.7604 74.71892 1310.0503 74.81349 1323.4923 74.90807 1336.9343 75.05975 1358.7533 75.15433 1372.5248 75.2489 1386.2963 75.40059 1408.6401 75.49516 1422.7477 75.58974 1436.8551 75.74144 1459.7507 75.836 1474.2015 75.93057 1488.6522 76.08228 1512.101 76.17685 1526.8989 76.27142 1541.6968 76.42313 1565.7057 76.51768 1580.8545 76.61226 1596.0034 76.76395 1620.5741 76.85852 1636.0814 76.9531 1651.5889 77.1048 1676.75 77.19936 1692.6211 77.29393 1708.4921 77.44563 1734.228 77.5402 1750.4688 77.63478 1766.7094 77.78648 1793.0569 77.88106 1809.6727 77.97562 1826.2886 78.1273 1853.2274 78.22188 1870.2241 78.31645 1887.221 78.46815 1914.7896 78.56273 1932.1736 78.65729 1949.5575 78.80899 1977.7409 78.90356 1995.5158 78.99814 2013.2907 79.14984 2042.1074 79.24442 2060.2828 79.33897 2078.458 79.49066 2107.9305 79.58524 2126.5108 79.67981 2145.091 79.83151 2175.2069 79.92609 2194.196 80.02065 2213.1854 80.17235 2243.9659 80.26692 2263.3719 80.3615 2282.7779 80.5132 2314.2318 80.60777 2334.0606 80.70235 2353.8897 80.85403 2386.0267 80.94861 2406.285 81.04318 2426.5433 81.19487 2459.374 81.28944 2480.068 81.38402 2500.7623 81.5357 2534.2977 81.63028 2555.4337 81.72485 2576.5697 81.87656 2610.817 81.97113 2632.4012 82.0657 2653.9854 82.21739 2688.9603 82.31197 2710.997 82.40654 2733.0343 82.55823 2768.7305 82.6528 2791.2288 82.74738 2813.7269 82.89908 2850.18 82.99364 2873.1483 83.08821 2896.1165 83.23991 2933.3275 83.33449 2956.7679 83.42906 2980.2086 83.58076 3018.1702 83.67532 3042.0916 83.7699 3066.0133 83.92159 3104.7657 84.01616 3129.1776 84.11073 3153.5894 84.26244 3193.131 84.357 3218.0355 84.45157 3242.94 84.60327 3283.265 84.69785 3308.671 84.79242 3334.0767 85.0387 3401.143 85.0387 3401.143"/>
</g>
<use data-text="&#x2022;" xlink:href="#font_3_1" transform="matrix(9.962899,0,0,-9.963397,94.1373,48.89087)"/>
<use data-text="(" xlink:href="#font_4_1" transform="matrix(9.962899,0,0,-9.963397,78.42383,40.665208)"/>
<use data-text="a" xlink:href="#font_1_2" transform="matrix(9.962899,0,0,-9.963397,82.29794,40.665208)"/>
<use data-text="," xlink:href="#font_1_1" transform="matrix(9.962899,0,0,-9.963397,87.55835,40.665208)"/>
<use data-text="f" xlink:href="#font_1_6" transform="matrix(9.962899,0,0,-9.963397,91.971927,40.665208)"/>
<use data-text="(" xlink:href="#font_4_1" transform="matrix(9.962899,0,0,-9.963397,97.94241,40.665208)"/>
<use data-text="a" xlink:href="#font_1_2" transform="matrix(9.962899,0,0,-9.963397,101.81651,40.665208)"/>
<use data-text=")" xlink:href="#font_4_2" transform="matrix(9.962899,0,0,-9.963397,107.08269,40.665208)"/>
<use data-text=")" xlink:href="#font_4_2" transform="matrix(9.962899,0,0,-9.963397,110.9483,40.665208)"/>
<use data-text="&#x2022;" xlink:href="#font_3_1" transform="matrix(9.962899,0,0,-9.963397,125.31923,192.05332)"/>
<use data-text="(" xlink:href="#font_4_1" transform="matrix(9.962899,0,0,-9.963397,110.59679,200.83202)"/>
<use data-text="b" xlink:href="#font_1_3" transform="matrix(9.962899,0,0,-9.963397,114.4709,200.83202)"/>
<use data-text="," xlink:href="#font_1_1" transform="matrix(9.962899,0,0,-9.963397,118.74498,200.83202)"/>
<use data-text="f" xlink:href="#font_1_6" transform="matrix(9.962899,0,0,-9.963397,123.158557,200.83202)"/>
<use data-text="(" xlink:href="#font_4_1" transform="matrix(9.962899,0,0,-9.963397,129.12435,200.83202)"/>
<use data-text="b" xlink:href="#font_1_3" transform="matrix(9.962899,0,0,-9.963397,132.99947,200.83202)"/>
<use data-text=")" xlink:href="#font_4_2" transform="matrix(9.962899,0,0,-9.963397,137.27458,200.83202)"/>
<use data-text=")" xlink:href="#font_4_2" transform="matrix(9.962899,0,0,-9.963397,141.1402,200.83202)"/>
<use data-text="&#x2022;" xlink:href="#font_3_1" transform="matrix(9.962899,0,0,-9.963397,156.16216,111.598888)"/>
<use data-text="(" xlink:href="#font_4_1" transform="matrix(9.962899,0,0,-9.963397,141.40372,103.37323)"/>
<use data-text="c" xlink:href="#font_1_4" transform="matrix(9.962899,0,0,-9.963397,145.27783,103.37323)"/>
<use data-text="," xlink:href="#font_1_1" transform="matrix(9.962899,0,0,-9.963397,149.58182,103.37323)"/>
<use data-text="f" xlink:href="#font_1_6" transform="matrix(9.962899,0,0,-9.963397,153.99536,103.37323)"/>
<use data-text="(" xlink:href="#font_4_1" transform="matrix(9.962899,0,0,-9.963397,159.96726,103.37323)"/>
<use data-text="c" xlink:href="#font_1_4" transform="matrix(9.962899,0,0,-9.963397,163.84238,103.37323)"/>
<use data-text=")" xlink:href="#font_4_2" transform="matrix(9.962899,0,0,-9.963397,168.1535,103.37323)"/>
<use data-text=")" xlink:href="#font_4_2" transform="matrix(9.962899,0,0,-9.963397,172.01914,103.37323)"/>
<use data-text="&#x2022;" xlink:href="#font_3_1" transform="matrix(9.962899,0,0,-9.963397,187.34409,254.76132)"/>
<use data-text="(" xlink:href="#font_4_1" transform="matrix(9.962899,0,0,-9.963397,171.71163,263.54005)"/>
<use data-text="d" xlink:href="#font_1_5" transform="matrix(9.962899,0,0,-9.963397,175.58574,263.54005)"/>
<use data-text="," xlink:href="#font_1_1" transform="matrix(9.962899,0,0,-9.963397,180.76645,263.54005)"/>
<use data-text="f" xlink:href="#font_1_6" transform="matrix(9.962899,0,0,-9.963397,185.18003,263.54005)"/>
<use data-text="(" xlink:href="#font_4_1" transform="matrix(9.962899,0,0,-9.963397,191.14922,263.54005)"/>
<use data-text="d" xlink:href="#font_1_5" transform="matrix(9.962899,0,0,-9.963397,195.02433,263.54005)"/>
<use data-text=")" xlink:href="#font_4_2" transform="matrix(9.962899,0,0,-9.963397,200.20949,263.54005)"/>
<use data-text=")" xlink:href="#font_4_2" transform="matrix(9.962899,0,0,-9.963397,204.07509,263.54005)"/>
</svg>
