<svg xmlns="http://www.w3.org/2000/svg" xmlns:xlink="http://www.w3.org/1999/xlink" version="1.1" width="250" height="146" viewBox="0 0 250 146">
<defs>
<path id="font_1_2" d="M.33399964 .30233766C.33999635 .32835389 .36299134 .42037965 .43299867 .42037965 .43798829 .42037965 .46199037 .42037965 .48298646 .40734864 .45498658 .402359 .43499757 .37734986 .43499757 .35334779 .43499757 .33735658 .44599916 .31835938 .47299195 .31835938 .49499513 .31835938 .5269928 .3363495 .5269928 .37635804 .5269928 .42837525 .46798707 .4423828 .43399049 .4423828 .37599183 .4423828 .34098817 .38935853 .32899476 .36634828 .3039856 .43237306 .25 .4423828 .22099304 .4423828 .116989139 .4423828 .05999756 .3133545 .05999756 .28834535 .05999756 .27833558 .069992069 .27833558 .07199097 .27833558 .07998657 .27833558 .08299255 .28033448 .084991458 .28933717 .11898804 .39535523 .18499756 .42037965 .21899414 .42037965 .23799134 .42037965 .272995 .4113617 .272995 .35334779 .272995 .32235719 .2559967 .25532533 .21899414 .11528015 .20298767 .053268434 .16799927 .011245728 .12399292 .011245728 .117996219 .011245728 .09498596 .011245728 .07398987 .024276734 .09899902 .029266358 .12098694 .05027771 .12098694 .07827759 .12098694 .105270389 .09899902 .11328125 .083999637 .11328125 .053985597 .11328125 .0289917 .08728027 .0289917 .055267335 .0289917 .009246826 .07899475-.0107421879 .12298584-.0107421879 .18899536-.0107421879 .22499085 .059280397 .22799683 .0652771 .23999024 .028274537 .27598573-.0107421879 .33599855-.0107421879 .43899537-.0107421879 .49598695 .118270877 .49598695 .14328003 .49598695 .1532898 .4869995 .1532898 .48399354 .1532898 .47499085 .1532898 .47299195 .14929199 .47099305 .14228821 .43798829 .03527832 .36999513 .011245728 .33799745 .011245728 .29899598 .011245728 .2829895 .043273927 .2829895 .07727051 .2829895 .09927368 .2889862 .121276859 .2999878 .16529846L.33399964 .30233766Z"/>
<path id="font_1_3" d="M.48599244 .38136292C.48999024 .39537049 .48999024 .39736939 .48999024 .40437318 .48999024 .42237855 .47599793 .43138124 .46099855 .43138124 .45098878 .43138124 .43499757 .42536927 .42599488 .41036988 .42399598 .405365 .41600038 .37435914 .4119873 .35635377 .40499879 .33035279 .397995 .30334474 .3919983 .27633668L.34700013 .09628296C.34298707 .08126831 .2999878 .011245728 .23399353 .011245728 .18299866 .011245728 .17199707 .055267335 .17199707 .0922699 .17199707 .1382904 .18899536 .20030213 .22299195 .28833009 .23899842 .3293457 .24299622 .3403473 .24299622 .36035157 .24299622 .405365 .21099854 .4423828 .16099549 .4423828 .06599426 .4423828 .0289917 .29733277 .0289917 .28833009 .0289917 .27833558 .038986207 .27833558 .040985109 .27833558 .050994874 .27833558 .051986696 .28033448 .056991579 .29634095 .083999637 .3903656 .12399292 .42037965 .1579895 .42037965 .1659851 .42037965 .18299866 .42037965 .18299866 .3883667 .18299866 .36335755 .17298889 .3373413 .1659851 .31834413 .12599182 .21231079 .10798645 .1552887 .10798645 .10827637 .10798645 .019256592 .17098999-.0107421879 .22999573-.0107421879 .2689972-.0107421879 .30299378 .0062561037 .33099366 .03425598 .31799317-.017745972 .30599977-.06674194 .2659912-.11973572 .23999024-.15385437 .20199585-.18309021 .1559906-.18309021 .14199829-.18309021 .09700012-.18005371 .07998657-.14074707 .09599304-.14074707 .10899353-.14074707 .12298584-.1287384 .1329956-.11973572 .14299011-.10673523 .14299011-.08773804 .14299011-.056747438 .115997318-.052734376 .10598755-.052734376 .08299255-.052734376 .049987794-.068740848 .049987794-.11773682 .049987794-.16796875 .09399414-.20507813 .1559906-.20507813 .25898744-.20507813 .3619995-.11373901 .3899994-.00074768069L.48599244 .38136292Z"/>
<clipPath id="clip_2">
<path transform="matrix(1.00009,0,0,-1.00005,120.56023,131.1259)" d="M0 0V113.38724H113.38724V0ZM113.38724 113.38724"/>
</clipPath>
<path id="font_3_1" d="M.44400025 .24998474C.44400025 .35688783 .35499574 .44381715 .25 .44381715 .14199829 .44381715 .054992677 .35488893 .054992677 .24998474 .054992677 .14407349 .14199829 .056137086 .25 .056137086 .35499574 .056137086 .44400025 .14308167 .44400025 .24998474Z"/>
<path id="font_4_1" d="M.33099366-.2400055C.33099366-.23701477 .33099366-.23500061 .31399537-.21800232 .18899536-.0920105 .15699768 .09700012 .15699768 .25 .15699768 .42399598 .19499207 .59799197 .31799317 .72299197 .33099366 .73498538 .33099366 .7369995 .33099366 .73999026 .33099366 .746994 .32699586 .75 .32099916 .75 .31098939 .75 .22099304 .6819916 .1619873 .5549927 .11099243 .44499208 .09899902 .33399964 .09899902 .25 .09899902 .17199707 .10998535 .050994874 .16499329-.06201172 .22499085-.18501282 .31098939-.25 .32099916-.25 .32699586-.25 .33099366-.24700928 .33099366-.2400055Z"/>
<path id="font_4_3" d="M.45999146 .31976319C.45999146 .39982606 .45498658 .47988893 .41999818 .5539398 .37399293 .65000918 .2919922 .6660156 .25 .6660156 .18998719 .6660156 .116989139 .64001467 .07598877 .54693606 .04399109 .47789 .038986207 .39982606 .038986207 .31976319 .038986207 .24472046 .042999269 .15464783 .083999637 .07859802 .1269989-.0024719239 .19999695-.022460938 .24899292-.022460938 .30299378-.022460938 .3789978-.0014648438 .4229889 .09359741 .45498658 .16265869 .45999146 .2407074 .45999146 .31976319M.24899292-.00047302247C.20999146-.00047302247 .15098572 .024551392 .1329956 .12062073 .12199402 .18066406 .12199402 .2727356 .12199402 .3317871 .12199402 .39582826 .12199402 .46188355 .12998963 .5159149 .14898682 .63500979 .22399903 .64401248 .24899292 .64401248 .28199769 .64401248 .34799195 .6259918 .36698915 .52693179 .3769989 .47088624 .3769989 .39482118 .3769989 .3317871 .3769989 .25672914 .3769989 .18867493 .3659973 .12461853 .35099793 .029556275 .2939911-.00047302247 .24899292-.00047302247Z"/>
<path id="font_1_1" d="M.20298767 .0009918213C.20298767 .066986087 .17799378 .10598755 .13899231 .10598755 .10598755 .10598755 .085998538 .08099365 .085998538 .052993776 .085998538 .025985718 .10598755 0 .13899231 0 .15098572 0 .1639862 .0039978029 .17399597 .0129852299 .1769867 .01499939 .17799378 .015991211 .1789856 .015991211 .17999268 .015991211 .18099976 .01499939 .18099976 .0009918213 .18099976-.07316589 .1459961-.13328552 .11299133-.16635132 .101989749-.17736817 .101989749-.17936707 .101989749-.18237305 .101989749-.18936157 .10699463-.19335938 .11199951-.19335938 .12298584-.19335938 .20298767-.116256717 .20298767 .0009918213Z"/>
<path id="font_4_2" d="M.2889862 .25C.2889862 .32798768 .27799989 .44898988 .22299195 .56199648 .16299439 .68499758 .07699585 .75 .066986087 .75 .06098938 .75 .056991579 .74598696 .056991579 .73999026 .056991579 .7369995 .056991579 .73498538 .07598877 .71699526 .17399597 .6179962 .23098755 .45899964 .23098755 .25 .23098755 .07899475 .19400025-.09700012 .069992069-.2230072 .056991579-.23500061 .056991579-.23701477 .056991579-.2400055 .056991579-.2460022 .06098938-.25 .066986087-.25 .07699585-.25 .16699219-.18200684 .22599793-.055007936 .2769928 .054992677 .2889862 .16600037 .2889862 .25Z"/>
</defs>
<path transform="matrix(1.00009,0,0,-1.00005,120.56023,131.1259)" stroke-width=".19925" stroke-linecap="butt" stroke-miterlimit="10" stroke-linejoin="miter" fill="none" stroke="#929292" d="M-113.38724 0H113.38724M-113.38724 28.3468H113.38724M-113.38724 56.69362H113.38724M-113.38724 85.04042H113.38724M-113.38724 113.37727H113.38724M-113.38724 0V113.38724M-85.04042 0V113.38724M-56.69362 0V113.38724M-28.3468 0V113.38724M0 0V113.38724M28.3468 0V113.38724M56.69362 0V113.38724M85.04042 0V113.38724M113.37727 0V113.38724M113.38724 113.38724"/>
<path transform="matrix(1.00009,0,0,-1.00005,120.56023,131.1259)" stroke-width="1.19553" stroke-linecap="butt" stroke-miterlimit="10" stroke-linejoin="miter" fill="none" stroke="#000000" d="M-119.0565 0H118.10008"/>
<path transform="matrix(1.00009,0,0,-1.00005,238.67093,131.1259)" stroke-width=".9564" stroke-linecap="round" stroke-linejoin="round" fill="none" stroke="#000000" d="M-1.91284 2.55046C-1.75343 1.59402 0 .15938 .4782 0 0-.15938-1.75343-1.59402-1.91284-2.55046"/>
<use data-text="x" xlink:href="#font_1_2" transform="matrix(9.963496,0,0,-9.963098,243.5463,133.27101)"/>
<path transform="matrix(1.00009,0,0,-1.00005,120.56023,131.1259)" stroke-width="1.19553" stroke-linecap="butt" stroke-miterlimit="10" stroke-linejoin="miter" fill="none" stroke="#000000" d="M0 0V118.10008"/>
<path transform="matrix(0,-1.00005,-1.00009,-0,120.56023,13.01992)" stroke-width=".9564" stroke-linecap="round" stroke-linejoin="round" fill="none" stroke="#000000" d="M-1.91284 2.55046C-1.75343 1.59402 0 .15938 .4782 0 0-.15938-1.75343-1.59402-1.91284-2.55046"/>
<use data-text="y" xlink:href="#font_1_3" transform="matrix(9.963496,0,0,-9.963098,117.93899,6.207657)"/>
<g clip-path="url(#clip_2)">
<path transform="matrix(1.00009,0,0,-1.00005,120.56023,131.1259)" stroke-width=".79701" stroke-linecap="butt" stroke-miterlimit="10" stroke-linejoin="miter" fill="none" stroke="#0000ff" d="M0 0C0 0 .00075 .16405 .00171 .22707 .00267 .29007 .00493 .39114 .00691 .45415 .00888 .51717 .01292 .61823 .01599 .68124 .01904 .74425 .02489 .84529 .02896 .90831 .03304 .97133 .04037 1.07239 .0454 1.13539 .05043 1.19841 .05925 1.29947 .0653 1.36249 .07135 1.42549 .08202 1.52655 .0891 1.58955 .09616 1.65257 .1083 1.75363 .11633 1.81665 .12436 1.87965 .13799 1.98071 .14703 2.04373 .1561 2.10675 .17157 2.2078 .18166 2.2708 .19174 2.33382 .2086 2.43488 .21971 2.4979 .2308 2.5609 .24954 2.66197 .26166 2.72498 .27377 2.788 .29396 2.88904 .30708 2.95206 .32022 3.01506 .34225 3.11612 .3564 3.17914 .37056 3.24214 .39406 3.34322 .40916 3.40622 .42429 3.46924 .44926 3.5703 .46541 3.63332 .48154 3.69632 .50838 3.79736 .52553 3.86038 .54268 3.9234 .57092 4.02446 .5891 4.08746 .60728 4.15048 .63737 4.25154 .65659 4.31456 .67578 4.37756 .70735 4.47862 .72751 4.54163 .74767 4.60464 .78073 4.7057 .80191 4.76872 .82309 4.83173 .858 4.93279 .8802 4.9958 .90239 5.05882 .93874 5.15987 .96194 5.22287 .98515 5.28589 1.02336 5.38695 1.04759 5.44997 1.07182 5.51297 1.11142 5.61404 1.13669 5.67705 1.16196 5.74007 1.20348 5.84111 1.22969 5.90413 1.25592 5.96713 1.29846 6.06819 1.32571 6.13121 1.35295 6.19421 1.3978 6.29529 1.42606 6.35829 1.45432 6.42131 1.50015 6.52237 1.52943 6.58539 1.55872 6.64839 1.60684 6.74944 1.63715 6.81245 1.66743 6.87547 1.71661 6.97653 1.74786 7.03954 1.77913 7.10255 1.83015 7.20361 1.86249 7.26663 1.89482 7.32964 1.94771 7.4307 1.981 7.4937 2.0143 7.55672 2.06828 7.65778 2.10255 7.7208 2.13681 7.7838 2.19264 7.88486 2.228 7.94788 2.26334 8.0109 2.32095 8.11194 2.35732 8.17494 2.39368 8.23796 2.45273 8.33902 2.49011 8.40204 2.52748 8.46504 2.58846 8.56612 2.62679 8.62912 2.66513 8.69214 2.72714 8.79318 2.7665 8.8562 2.80585 8.9192 2.87016 9.02026 2.91054 9.08328 2.95091 9.14629 3.01625 9.24736 3.0576 9.31036 3.09895 9.37338 3.16612 9.47443 3.20856 9.53745 3.25098 9.60045 3.31995 9.7015 3.3634 9.76453 3.40685 9.82755 3.47731 9.9286 3.52171 9.99161 3.56612 10.05463 3.63805 10.15569 3.68347 10.2187 3.7289 10.28171 3.80269 10.38277 3.84914 10.44577 3.89557 10.50879 3.97086 10.60985 4.01825 10.67287 4.06566 10.73587 4.14243 10.83693 4.19084 10.89995 4.23926 10.96297 4.31783 11.06401 4.36732 11.12701 4.41682 11.19003 4.49718 11.29109 4.5477 11.35411 4.5982 11.41711 4.68002 11.51819 4.73152 11.58119 4.783 11.64421 4.86636 11.74525 4.91881 11.80827 4.97125 11.87128 5.05609 11.97234 5.10956 12.03535 5.16302 12.09836 5.24965 12.19943 5.30418 12.26244 5.35873 12.32545 5.44716 12.4265 5.50273 12.48952 5.55829 12.55252 5.64821 12.65358 5.70473 12.7166 5.76125 12.77962 5.8527 12.88068 5.91019 12.94368 5.96767 13.0067 6.06052 13.10776 6.1191 13.17078 6.17767 13.23378 6.27275 13.33484 6.33235 13.39784 6.39194 13.46086 6.48805 13.56192 6.54861 13.62494 6.60916 13.68794 6.7072 13.789 6.76877 13.85202 6.83034 13.91504 6.92981 14.01608 6.9924 14.07909 7.055 14.1421 7.15631 14.24316 7.21991 14.30618 7.28352 14.36919 7.38626 14.47026 7.45088 14.53326 7.5155 14.59628 7.6201 14.69733 7.68575 14.76035 7.75139 14.82335 7.85747 14.92441 7.92409 14.98743 7.99069 15.05043 8.09824 15.1515 8.16588 15.21451 8.2335 15.27753 8.3429 15.37857 8.41154 15.44159 8.48021 15.5046 8.59108 15.60565 8.66069 15.66867 8.7303 15.73169 8.84267 15.83275 8.9133 15.89575 8.98392 15.95877 9.09808 16.05983 9.1698 16.12285 9.2415 16.18585 9.35745 16.28691 9.43018 16.34991 9.5029 16.41293 9.62033 16.51399 9.69402 16.57701 9.7677 16.64001 9.88661 16.74107 9.96133 16.8041 10.03606 16.86711 10.1568 16.96815 10.23253 17.03116 10.30827 17.09418 10.43051 17.19524 10.5072 17.25826 10.5839 17.32126 10.70761 17.42233 10.78532 17.48534 10.86304 17.54836 10.9886 17.6494 11.06734 17.71242 11.14607 17.77542 11.27307 17.87648 11.35281 17.9395 11.43257 18.0025 11.56142 18.10358 11.64218 18.16658 11.72295 18.2296 11.85323 18.33064 11.935 18.39366 12.01678 18.45667 12.14893 18.55772 12.23174 18.62074 12.31454 18.68376 12.44814 18.78482 12.5319 18.84782 12.61569 18.91084 12.75076 19.01189 12.83556 19.0749 12.92035 19.13791 13.05728 19.23898 13.1431 19.30199 13.22891 19.365 13.36731 19.46606 13.45407 19.52908 13.54085 19.59209 13.68074 19.69315 13.76852 19.75616 13.85632 19.81918 13.998 19.92023 14.08687 19.98323 14.17575 20.04625 14.31924 20.14731 14.40913 20.21033 14.49902 20.27333 14.64398 20.3744 14.73483 20.43741 14.82568 20.50043 14.9721 20.60147 15.06398 20.66449 15.15587 20.7275 15.30414 20.82855 15.39705 20.89157 15.48994 20.95457 15.6397 21.05565 15.73355 21.11865 15.82741 21.18167 15.97865 21.28271 16.07353 21.34573 16.16841 21.40874 16.3215 21.5098 16.4174 21.57281 16.51329 21.63583 16.6678 21.7369 16.76472 21.7999 16.86163 21.86292 17.01802 21.96396 17.11595 22.02698 17.21388 22.08998 17.37167 22.19106 17.47063 22.25406 17.56958 22.31708 17.72922 22.41814 17.82921 22.48116 17.92918 22.54416 18.0903 22.64522 18.19124 22.70824 18.29219 22.77126 18.45477 22.8723 18.55673 22.9353 18.65869 22.99832 18.82314 23.09938 18.92612 23.1624 19.0291 23.2254 19.19502 23.32648 19.29897 23.38948 19.4029 23.4525 19.57031 23.55354 19.67528 23.61656 19.78023 23.67957 19.94945 23.78062 20.05548 23.84364 20.16151 23.90665 20.33252 24.00772 20.43958 24.07072 20.54662 24.13374 20.71912 24.23479 20.82713 24.2978 20.93513 24.36081 21.10916 24.46187 21.21814 24.52489 21.32712 24.5879 21.50255 24.68896 21.61261 24.75197 21.72267 24.81499 21.90033 24.91603 22.01141 24.97905 22.12248 25.04205 22.30121 25.14313 22.41324 25.20613 22.52528 25.26915 22.7059 25.37021 22.81895 25.43323 22.932 25.49623 23.11407 25.59729 23.22815 25.66031 23.34222 25.72333 23.52612 25.82437 23.6412 25.88737 23.7563 25.9504 23.94168 26.05145 24.05774 26.11447 24.17381 26.17747 24.36066 26.27855 24.47775 26.34155 24.59483 26.40457 24.78346 26.50562 24.90163 26.56863 25.01979 26.63164 25.21028 26.7327 25.3294 26.79572 25.44853 26.85872 25.64008 26.9598 25.76022 27.0228 25.88036 27.08582 26.0742 27.18686 26.19536 27.24988 26.31651 27.31288 26.5114 27.41394 26.63351 27.47696 26.75563 27.53998 26.95238 27.64104 27.07556 27.70404 27.19876 27.76706 27.39737 27.8681 27.52151 27.93112 27.64568 27.99413 27.84532 28.0952 27.97049 28.1582 28.09567 28.22122 28.29758 28.32228 28.42378 28.3853 28.54999 28.4483 28.75296 28.54935 28.88011 28.61237 29.00728 28.67538 29.21208 28.77644 29.34033 28.83945 29.46857 28.90247 29.67519 29.00352 29.80444 29.06654 29.9337 29.12955 30.1418 29.23062 30.27203 29.29362 30.40225 29.35664 30.61182 29.45769 30.74306 29.5207 30.8743 29.58371 31.08572 29.68477 31.21799 29.74779 31.35023 29.81079 31.56314 29.91187 31.69638 29.97487 31.8296 30.03789 32.04398 30.13893 32.17822 30.20195 32.31247 30.26495 32.52869 30.36603 32.66396 30.42903 32.79922 30.49205 33.01686 30.59311 33.15315 30.65611 33.28944 30.71913 33.50896 30.82018 33.64626 30.8832 33.78357 30.9462 34.00447 31.04727 34.1428 31.11028 34.28113 31.1733 34.5039 31.27435 34.64325 31.33737 34.7826 31.40038 35.00687 31.50142 35.14717 31.56444 35.28746 31.62746 35.51321 31.72852 35.65453 31.79152 35.79585 31.85454 36.02344 31.9556 36.16579 32.01862 36.30814 32.08162 36.53714 32.1827 36.68051 32.2457 36.82388 32.30872 37.05472 32.40976 37.19911 32.47278 37.3435 32.53578 37.57585 32.63684 37.72119 32.69986 37.86655 32.76286 38.10036 32.86394 38.24672 32.92694 38.3931 32.98996 38.62871 33.091 38.77615 33.15402 38.9236 33.21703 39.16106 33.3181 39.30946 33.3811 39.45787 33.44412 39.69644 33.54518 39.84583 33.60818 39.9952 33.6712 40.2356 33.77225 40.38605 33.83527 40.53651 33.89827 40.77872 33.99934 40.93019 34.06235 41.08167 34.12537 41.32535 34.22643 41.47778 34.28944 41.63022 34.35245 41.8754 34.45349 42.02884 34.51651 42.1823 34.57953 42.42932 34.68059 42.58379 34.74359 42.73825 34.80661 42.98671 34.90767 43.14218 34.97069 43.29767 35.03369 43.54799 35.13477 43.7045 35.19777 43.861 35.26079 44.1128 35.36183 44.27025 35.42485 44.42772 35.48785 44.681 35.58891 44.83948 35.65193 44.99796 35.71494 45.25305 35.81601 45.41257 35.87901 45.57208 35.94203 45.82863 36.04308 45.98915 36.1061 46.14969 36.1691 46.40808 36.27017 46.56963 36.33318 46.73117 36.3962 46.99104 36.49725 47.15355 36.56026 47.31606 36.62328 47.57741 36.72432 47.74094 36.78734 47.90446 36.85034 48.16768 36.95142 48.33221 37.01442 48.49677 37.07744 48.76138 37.1785 48.92696 37.24152 49.09251 37.30452 49.359 37.40556 49.52559 37.46858 49.69218 37.5316 49.96013 37.63266 50.12769 37.69566 50.29524 37.75868 50.56467 37.85974 50.73323 37.92276 50.90181 37.98576 51.17303 38.08682 51.34268 38.14983 51.51234 38.21284 51.78542 38.3139 51.95602 38.37692 52.12663 38.43993 52.40082 38.54099 52.57239 38.604 52.74396 38.667 53.01999 38.76808 53.19264 38.83109 53.3653 38.8941 53.64313 38.99515 53.81679 39.05817 53.99046 39.12117 54.26976 39.22224 54.4444 39.28525 54.61905 39.34827 54.89983 39.44933 55.07549 39.51233 55.25114 39.57535 55.53377 39.67639 55.71043 39.73941 55.88712 39.80241 56.17119 39.90349 56.34888 39.96649 56.52657 40.02951 56.81247 40.13057 56.9912 40.19359 57.1699 40.25659 57.4573 40.35764 57.63698 40.42065 57.81665 40.48367 58.10553 40.58473 58.28622 40.64774 58.4669 40.71075 58.75757 40.81181 58.93935 40.87483 59.12111 40.93784 59.41362 41.0389 59.59637 41.1019 59.77911 41.16492 60.07272 41.26598 60.25642 41.329 60.44012 41.392 60.7356 41.49306 60.92036 41.55608 61.10515 41.61908 61.4024 41.72015 61.58821 41.78316 61.774 41.84618 62.07274 41.94722 62.25949 42.01024 62.44626 42.07324 62.74649 42.17432 62.93427 42.23732 63.12204 42.30034 63.42412 42.4014 63.61292 42.4644 63.80171 42.52742 64.10527 42.62846 64.29503 42.69148 64.48477 42.75449 64.78984 42.85556 64.9806 42.91856 65.17137 42.98158 65.47821 43.08264 65.67006 43.14566 65.86191 43.20866 66.17055 43.30971 66.36342 43.37273 66.5563 43.43575 66.8664 43.5368 67.06024 43.59981 67.25407 43.66283 67.56572 43.76389 67.76051 43.8269 67.9553 43.88991 68.26845 43.99097 68.46426 44.05397 68.66008 44.11699 68.975 44.21805 69.17189 44.28107 69.36879 44.34407 69.6855 44.44513 69.8834 44.50815 70.08133 44.57115 70.39954 44.67221 70.5984 44.73521 70.79727 44.79823 71.11696 44.89929 71.31685 44.96231 71.51674 45.02531 71.83826 45.12639 72.03918 45.18939 72.24011 45.25241 72.56311 45.35347 72.76498 45.41647 72.96687 45.47949 73.29135 45.58054 73.49425 45.64355 73.69714 45.70656 74.02347 45.80763 74.22739 45.87064 74.4313 45.93365 74.75906 46.03471 74.964 46.09773 75.16895 46.16074 75.49855 46.26178 75.70451 46.3248 75.91046 46.38782 76.2415 46.48888 76.44847 46.55188 76.65546 46.6149 76.98834 46.71596 77.19633 46.77898 77.40433 46.84198 77.73868 46.94304 77.94765 47.00604 78.15662 47.06906 78.49245 47.17012 78.70242 47.23314 78.91241 47.29614 79.2501 47.3972 79.46112 47.46022 79.67212 47.52322 80.01122 47.62428 80.22324 47.68729 80.43526 47.7503 80.77621 47.85136 80.98926 47.91438 81.2023 47.97739 81.54475 48.07846 81.75876 48.14146 81.97275 48.20448 82.31668 48.30554 82.53171 48.36855 82.74672 48.43156 83.0925 48.53261 83.30853 48.59563 83.52457 48.65863 83.87177 48.7597 84.08882 48.82271 84.30588 48.88573 84.65494 48.98679 84.87302 49.0498 85.09111 49.11281 85.44164 49.21385 85.66068 49.27687 85.87973 49.33989 86.23172 49.44095 86.45178 49.50395 86.67186 49.56697 87.02565 49.66803 87.2468 49.73105 87.46794 49.79405 87.82358 49.89511 88.04568 49.95811 88.26779 50.02113 88.62456 50.1222 88.84763 50.18521 89.07068 50.24821 89.42929 50.34927 89.65343 50.4123 89.87756 50.4753 90.23798 50.57635 90.46315 50.63936 90.68832 50.70238 91.05019 50.80344 91.27632 50.86646 91.50244 50.92946 91.86578 51.03053 92.09294 51.09354 92.32008 51.15656 92.6853 51.25761 92.91347 51.32062 93.14163 51.38364 93.50827 51.48468 93.73746 51.5477 93.96664 51.6107 94.33513 51.71178 94.56532 51.77478 94.79553 51.8378 95.16551 51.93886 95.39668 52.00188 95.62784 52.06488 95.99928 52.16592 96.23146 52.22894 96.46364 52.29196 96.83694 52.39302 97.07016 52.45602 97.30338 52.51904 97.67809 52.6201 97.91232 52.68312 98.14655 52.74612 98.5231 52.84718 98.75835 52.91019 98.9936 52.9732 99.37164 53.07426 99.60785 53.13728 99.84407 53.20029 100.2236 53.30135 100.46082 53.36436 100.69804 53.42738 101.07938 53.52843 101.31769 53.59143 101.55598 53.65445 101.93916 53.75551 102.17844 53.81853 102.4177 53.88153 102.80193 53.9826 103.0422 54.04561 103.28249 54.10863 103.669 54.20967 103.91032 54.27267 104.15164 54.3357 104.53918 54.43675 104.78145 54.49977 105.02373 54.56277 105.4132 54.66385 105.65648 54.72685 105.89977 54.78987 106.29065 54.89093 106.53496 54.95395 106.77927 55.01695 107.17201 55.118 107.41734 55.18102 107.66267 55.24403 108.05682 55.3451 108.30318 55.4081 108.54951 55.47112 108.94553 55.57217 109.1929 55.6352 109.44026 55.6982 109.83777 55.79926 110.08609 55.86226 110.33441 55.92528 110.73341 56.02634 110.98276 56.08936 111.23209 56.15236 111.6329 56.25342 111.88329 56.31644 112.13367 56.37946 112.5359 56.4805 112.78731 56.5435 113.0387 56.60652 113.44278 56.70758 113.69519 56.7706 113.9476 56.8336 114.35312 56.93468 114.60655 56.99768 114.85999 57.0607 115.26741 57.16174 115.5218 57.22475 115.7762 57.28777 116.18466 57.38882 116.44008 57.45184 116.69548 57.51485 117.10626 57.61592 117.36269 57.67892 117.61911 57.74194 118.03087 57.843 118.28831 57.90602 118.54576 57.96902 118.9598 58.07007 119.21828 58.13309 119.47675 58.1961 119.89183 58.29716 120.15126 58.36017 120.41069 58.42319 120.82767 58.52425 121.08813 58.58727 121.34859 58.65027 121.76698 58.75133 122.02846 58.81433 122.28993 58.87735 122.7102 58.97841 122.9727 59.04143 123.2352 59.10443 123.65688 59.20549 123.9204 59.26851 124.1839 59.33153 124.60745 59.43257 124.87198 59.49557 125.1365 59.5586 125.56152 59.65965 125.82701 59.72267 126.0925 59.78568 126.519 59.88675 126.78552 59.94975 127.05205 60.01277 127.48038 60.11382 127.74792 60.17682 128.01546 60.23984 128.44522 60.3409 128.71378 60.40392 128.98233 60.46692 129.41394 60.568 129.68352 60.631 129.9531 60.69402 130.3862 60.79507 130.65674 60.8581 130.92728 60.9211 131.36185 61.02214 131.6334 61.08516 131.90496 61.14818 132.34134 61.24924 132.61397 61.31224 132.8866 61.37526 133.32485 61.47632 133.59844 61.53934 133.87203 61.60234 134.31136 61.7034 134.5859 61.7664 134.86046 61.82942 135.30165 61.93048 135.57729 61.9935 135.85294 62.0565 136.2959 62.15756 136.57256 62.22058 136.84923 62.2836 137.29367 62.38464 137.57129 62.44765 137.8489 62.51067 138.29483 62.61172 138.57347 62.67474 138.85211 62.73775 139.2999 62.83882 139.57956 62.90182 139.8592 62.96484 140.30843 63.06589 140.58911 63.12889 140.86978 63.19191 141.32085 63.29297 141.60254 63.35599 141.88423 63.41899 142.33679 63.52007 142.61943 63.58307 142.90209 63.64609 143.35611 63.74713 143.63979 63.81015 143.92348 63.87315 144.37934 63.97421 144.66405 64.03723 144.94875 64.10025 145.40604 64.20131 145.69176 64.26431 145.97748 64.32733 146.43662 64.42839 146.72336 64.49141 147.0101 64.55441 147.47072 64.65547 147.75843 64.71848 148.04611 64.7815 148.50823 64.88255 148.79694 64.94557 149.08567 65.00858 149.54962 65.10963 149.83936 65.17265 150.12909 65.23567 150.59449 65.33672 150.88524 65.39972 151.176 65.46274 151.64322 65.5638 151.93502 65.62682 152.22679 65.68982 152.69544 65.7909 152.98824 65.8539 153.28104 65.91692 153.75154 66.01796 154.04537 66.08096 154.33919 66.14398 154.81116 66.24504 155.10594 66.30806 155.40073 66.37106 155.87419 66.47214 156.17 66.53514 156.46579 66.59816 156.94112 66.6992 157.23793 66.76222 157.53475 66.82523 158.01155 66.92628 158.30933 66.9893 158.6071 67.05232 159.08539 67.15338 159.38417 67.21638 159.68297 67.2794 160.16304 67.38046 160.46292 67.44348 160.76282 67.50648 161.24468 67.60754 161.54558 67.67055 161.84648 67.73357 162.3298 67.83463 162.63167 67.89764 162.93354 67.96065 163.41841 68.0617 163.72124 68.12473 164.02407 68.18774 164.51036 68.28879 164.81427 68.35179 165.11817 68.41481 165.60669 68.51587 165.91162 68.57889 166.21654 68.64189 166.7061 68.74297 167.01198 68.80597 167.31786 68.86899 167.80936 68.97003 168.11626 69.03304 168.42316 69.09605 168.91608 69.19711 169.224 69.26013 169.5319 69.32314 170.02667 69.42421 170.3356 69.48721 170.64455 69.55023 171.14078 69.65128 171.45069 69.7143 171.76059 69.7773 172.2583 69.87836 172.56923 69.94138 172.88016 70.0044 173.37967 70.10545 173.69167 70.16846 174.00368 70.23148 174.50504 70.33253 174.818 70.39555 175.13097 70.45856 175.63338 70.55962 175.94736 70.62262 176.26134 70.68564 176.76604 70.7867 177.08104 70.84972 177.39604 70.91272 177.9018 71.01378 178.21776 71.0768 178.5337 71.13982 179.04135 71.24086 179.35836 71.30386 179.67534 71.36688 180.1844 71.46794 180.50241 71.53096 180.82042 71.59396 181.33133 71.69504 181.65036 71.75804 181.96939 71.82106 182.48175 71.9221 182.80179 71.9851 183.12184 72.04813 183.63603 72.14919 183.95709 72.2122 184.27817 72.2752 184.79378 72.37628 185.11586 72.43929 185.43796 72.5023 185.95549 72.60335 186.27854 72.66637 186.60158 72.72937 187.12017 72.83043 187.44422 72.89345 187.76828 72.95647 188.28916 73.05753 188.61425 73.12053 188.93932 73.18355 189.46121 73.28459 189.78726 73.34761 190.11331 73.41061 190.63707 73.51169 190.9642 73.57469 191.29134 73.63771 191.81688 73.73877 192.14504 73.80179 192.47319 73.86479 193.00022 73.96585 193.32933 74.02887 193.65843 74.09189 194.18695 74.19293 194.51708 74.25594 194.8472 74.31895 195.37758 74.42001 195.70873 74.48303 196.03987 74.54604 196.57166 74.64711 196.90381 74.71011 197.23598 74.77313 197.7696 74.87418 198.10282 74.93718 198.436 75.0002 198.97112 75.10126 199.30527 75.16428 199.63942 75.22728 200.17601 75.32835 200.51119 75.39136 200.84636 75.45438 201.38481 75.55542 201.72101 75.61844 202.05719 75.68144 202.59706 75.7825 202.93427 75.84552 203.27149 75.90854 203.8132 76.0096 204.15143 76.0726 204.48967 76.13562 205.03287 76.23666 205.37204 76.29968 205.71123 76.36269 206.25594 76.46376 206.59615 76.52676 206.93634 76.58978 207.48288 76.69084 207.82411 76.75386 208.16533 76.81686 208.71329 76.91792 209.05554 76.98094 209.3978 77.04396 209.9476 77.145 210.29088 77.20801 210.63416 77.27103 211.18544 77.37209 211.52967 77.4351 211.8739 77.49811 212.42667 77.59918 212.77191 77.66219 213.11717 77.7252 213.67173 77.82625 214.01805 77.88925 214.36438 77.95227 214.9208 78.05333 215.2681 78.11635 215.61539 78.17935 216.17284 78.28043 216.52115 78.34343 216.86946 78.40645 217.4292 78.50749 217.77854 78.57051 218.12787 78.63351 218.68866 78.73457 219.03896 78.79759 219.38925 78.86061 219.95195 78.96167 220.30327 79.02467 220.65459 79.08769 221.21869 79.18874 221.57103 79.25175 221.92337 79.31476 222.48934 79.41583 222.8427 79.47884 223.19605 79.54185 223.76345 79.64291 224.11782 79.70593 224.4722 79.76894 225.04145 79.87 225.39684 79.93301 225.75223 79.99603 226.32295 80.09708 226.6793 80.16008 227.03566 80.2231 227.60788 80.32416 227.96524 80.38718 228.32262 80.45018 228.89662 80.55125 229.25507 80.61426 229.61351 80.67728 230.18936 80.77832 230.54878 80.84132 230.9082 80.90434 231.48516 81.0054 231.84554 81.06842 232.20592 81.13142 232.78473 81.2325 233.14618 81.2955 233.50765 81.35852 234.08824 81.45956 234.45072 81.52258 234.81319 81.58559 235.39527 81.68665 235.7587 81.74966 236.12213 81.81268 236.7057 81.91374 237.07016 81.97675 237.43462 82.03976 238.02005 82.14081 238.38552 82.20383 238.75099 82.26683 239.33789 82.3679 239.70432 82.43091 240.07074 82.49393 240.65912 82.59499 241.02658 82.658 241.39405 82.72101 241.98423 82.82205 242.35276 82.88507 242.7213 82.94809 243.31325 83.04915 243.68282 83.11215 244.05237 83.17517 244.64582 83.27623 245.01633 83.33925 245.38684 83.40225 245.98183 83.50333 246.3533 83.56633 246.72478 83.62935 247.32125 83.7304 247.69373 83.79341 248.06623 83.85641 248.66449 83.95747 249.03806 84.0205 249.41164 84.0835 250.01169 84.18457 250.38628 84.24757 250.76087 84.3106 251.3624 84.41164 251.73796 84.47466 252.11353 84.53766 252.71652 84.63872 253.09311 84.70174 253.4697 84.76476 254.07454 84.86581 254.45214 84.92882 254.82975 84.99184 255.43607 85.09288 255.81462 85.1559 256.19319 85.2189 256.801 85.31998 257.1806 85.38298 257.56019 85.446 258.16987 85.54706 258.5504 85.61008 258.93104 85.67308 259.54216 85.77412 259.92375 85.83714 260.30537 85.90016 260.91835 86.00122 261.30097 86.06422 261.6836 86.12724 262.29795 86.2283 262.6816 86.29132 263.06529 86.35432 263.68147 86.4554 264.06617 86.5184 264.45085 86.58142 265.06855 86.68246 265.4542 86.74548 265.8398 86.80849 266.459 86.90955 266.84568 86.97256 267.23234 87.03557 267.85334 87.13664 268.241 87.19965 268.6287 87.26266 269.25114 87.36371 269.63987 87.42673 270.02854 87.48973 270.65287 87.59079 271.04258 87.65381 271.4323 87.71683 272.05809 87.81789 272.44877 87.88089 272.83943 87.94391 273.46669 88.04495 273.85838 88.10797 274.2501 88.17097 274.87919 88.27205 275.2719 88.33505 275.66465 88.39807 276.29518 88.49913 276.68894 88.56215 277.08268 88.62515 277.71504 88.7262 278.1098 88.78922 278.50456 88.85223 279.13844 88.9533 279.53416 89.0163 279.92988 89.07932 280.56523 89.18037 280.96199 89.2434 281.3587 89.3064 281.9959 89.40746 282.39366 89.47046 282.79145 89.53348 283.43006 89.63454 283.8288 89.69756 284.2276 89.76056 284.86808 89.86162 285.26789 89.92464 285.66767 89.98764 286.30958 90.08871 286.7104 90.15172 287.1112 90.21474 287.75495 90.31578 288.15678 90.3788 288.55867 90.4418 289.20387 90.54286 289.60667 90.60588 290.0095 90.6689 290.65617 90.76996 291.05998 90.83296 291.4638 90.89598 292.11238 90.99702 292.5172 91.06004 292.92204 91.12305 293.57203 91.22412 293.97789 91.28712 294.38374 91.35014 295.03559 91.4512 295.44248 91.51422 295.84934 91.57722 296.50267 91.67827 296.9105 91.74129 297.31837 91.8043 297.9731 91.90536 298.382 91.96837 298.79087 92.03139 299.44749 92.13245 299.8574 92.19547 300.26728 92.25847 300.92533 92.35953 301.33625 92.42253 301.74714 92.48555 302.40705 92.58661 302.81898 92.64963 303.2309 92.71263 303.8923 92.81369 304.30519 92.87671 304.71806 92.93971 305.38093 93.04079 305.79484 93.10379 306.2087 93.16681 306.87348 93.26785 307.2884 93.33087 307.7033 93.39388 308.36946 93.49493 308.7854 93.55795 309.20133 93.62097 309.86936 93.72203 310.28633 93.78503 310.7033 93.84805 311.37269 93.9491 311.79066 94.01212 312.20866 94.07512 312.87995 94.1762 313.29893 94.2392 313.71794 94.30222 314.39067 94.40327 314.81065 94.4663 315.23063 94.5293 315.90486 94.63034 316.32585 94.69336 316.7468 94.75638 317.4229 94.85744 317.8449 94.92044 318.2669 94.98346 318.9444 95.08452 319.36747 95.14754 319.79048 95.21054 320.46983 95.3116 320.8939 95.3746 321.31794 95.43762 321.99873 95.53868 322.42375 95.6017 322.84877 95.6647 323.53108 95.76576 323.9571 95.82878 324.38313 95.89178 325.0673 95.99286 325.49436 96.05586 325.9214 96.11888 326.607 96.21992 327.03507 96.28294 327.46315 96.34595 328.15055 96.447 328.57963 96.51003 329.0087 96.57304 329.69767 96.6741 330.1277 96.7371 330.55775 96.80013 331.24815 96.90117 331.6792 96.96419 332.1103 97.02719 332.80253 97.12827 333.2346 97.19127 333.6667 97.25429 334.36039 97.35535 334.7935 97.41837 335.2266 97.48137 335.9221 97.58241 336.35624 97.64543 336.79039 97.70845 337.4873 97.80951 337.92247 97.87251 338.3576 97.93553 339.0564 98.03659 339.49259 98.09961 339.92875 98.16261 340.629 98.26367 341.06614 98.32668 341.50328 98.3897 342.20503 98.49075 342.64317 98.55377 343.08134 98.61678 343.78495 98.71783 344.2241 98.78085 344.66328 98.84386 345.3683 98.94492 345.8085 99.00792 346.24867 99.07094 346.95555 99.172 347.39677 99.23502 347.838 99.29802 348.54634 99.39908 348.9885 99.4621 349.4307 99.52512 350.1405 99.62617 350.5837 99.68918 351.0269 99.7522 351.7386 99.85324 352.1828 99.91626 352.627 99.97926 353.34013 100.08034 353.78535 100.14334 354.2306 100.20636 354.94554 100.30742 355.3918 100.37044 355.83808 100.43344 356.5545 100.53448 357.0017 100.5975 357.4489 100.66052 358.16685 100.76158 358.61509 100.82458 359.06333 100.8876 359.78309 100.98866 360.23234 101.05168 360.68159 101.11469 361.40278 101.21574 361.85304 101.27875 362.30335 101.34177 363.02638 101.44283 363.4777 101.50584 363.92897 101.56885 364.65345 101.6699 365.10575 101.73293 365.55809 101.79593 366.28437 101.89699 366.7377 101.95999 367.19105 102.02301 367.91886 102.12407 368.37315 102.18709 368.82743 102.25009 369.5567 102.35115 370.01203 102.41417 370.46733 102.47719 371.19847 102.57825 371.6548 102.64125 372.11116 102.70427 372.84376 102.80531 373.30104 102.86833 373.75834 102.93134 374.49244 103.03241 374.95075 103.09541 375.40907 103.15843 376.14494 103.25949 376.60435 103.32251 377.06376 103.38551 377.8014 103.48656 378.2618 103.54958 378.72224 103.6126 379.46138 103.71365 379.92277 103.77666 380.38414 103.83968 381.12483 103.94073 381.58717 104.00375 382.0495 104.06676 382.79167 104.16782 383.25505 104.23082 383.71839 104.29384 384.46238 104.3949 384.9268 104.45792 385.39125 104.52092 386.137 104.62198 386.60246 104.685 387.0679 104.748 387.81517 104.84906 388.28157 104.91206 388.74797 104.97508 389.49668 105.07614 389.96415 105.13916 390.43156 105.20216 391.18214 105.30322 391.6506 105.36624 392.11906 105.42926 392.87113 105.53032 393.3405 105.59332 393.80995 105.65634 394.56346 105.75739 395.0339 105.8204 395.50437 105.8834 396.25968 105.98448 396.7312 106.04749 397.2027 106.1105 397.95988 106.21156 398.43238 106.27458 398.90483 106.33759 399.66313 106.43863 400.13655 106.50165 400.61 106.56467 401.37013 106.66573 401.84465 106.72873 402.31919 106.79175 403.0811 106.8928 403.55665 106.95583 404.03218 107.01883 404.79557 107.11989 405.2721 107.18289 405.74858 107.24591 406.51347 107.34697 406.991 107.40999 407.4685 107.47299 408.23524 107.57405 408.71379 107.63707 409.19233 107.70007 409.96049 107.80113 410.44007 107.86414 410.9196 107.92715 411.6896 108.02821 412.1702 108.09123 412.65077 108.15424 413.4222 108.2553 413.9038 108.31831 414.3854 108.38133 415.15876 108.48238 415.6413 108.54538 416.1239 108.6084 416.89826 108.70946 417.38185 108.77248 417.86543 108.83548 418.6421 108.93655 419.1267 108.99956 419.6113 109.06258 420.389 109.16364 420.8746 109.22665 421.36015 109.28966 422.1397 109.3907 422.62638 109.45372 423.113 109.51674 423.89439 109.6178 424.38203 109.6808 424.8697 109.74382 425.65254 109.84488 426.14118 109.9079 426.6298 109.9709 427.41413 110.07196 427.90376 110.13496 428.3934 110.19798 429.17958 110.29904 429.67024 110.36206 430.1609 110.42506 430.9485 110.52612 431.4402 110.58914 431.9319 110.65215 432.72135 110.7532 433.21406 110.81621 433.70677 110.87923 434.49769 110.98029 434.99134 111.0433 435.485 111.10631 436.2774 111.20737 436.7721 111.27039 437.26679 111.3334 438.06105 111.43445 438.55677 111.49745 439.05244 111.56047 439.84815 111.66153 440.34486 111.72455 440.84159 111.78755 441.6391 111.88863 442.13688 111.95163 442.6346 112.01465 443.43363 112.1157 443.93235 112.17873 444.43107 112.24173 445.2315 112.34277 445.73127 112.40579 446.231 112.46881 447.03334 112.56987 447.53407 112.63287 448.03483 112.69589 448.8386 112.79695 449.34037 112.85997 449.84214 112.92297 450.64775 113.02403 451.1505 113.08704 451.6533 113.15005 452.96415 113.31413 452.96415 113.31413"/>
<path transform="matrix(1.00009,0,0,-1.00005,120.56023,131.1259)" stroke-width=".79701" stroke-linecap="butt" stroke-dasharray="2.98883,2.98883" stroke-miterlimit="10" stroke-linejoin="miter" fill="none" stroke="#000000" d="M28.3468 113.38724V-113.38724"/>
<path transform="matrix(1.00009,0,0,-1.00005,120.56023,131.1259)" stroke-width=".79701" stroke-linecap="butt" stroke-dasharray="2.98883,2.98883" stroke-miterlimit="10" stroke-linejoin="miter" fill="none" stroke="#000000" d="M0 28.3468H28.3468"/>
</g>
<use data-text="&#x2022;" xlink:href="#font_3_1" transform="matrix(9.963496,0,0,-9.963098,146.41855,104.99159)"/>
<use data-text="&#x2022;" xlink:href="#font_3_1" transform="matrix(9.963496,0,0,-9.963098,146.41855,133.34001)"/>
<use data-text="&#x2022;" xlink:href="#font_3_1" transform="matrix(9.963496,0,0,-9.963098,118.069,133.34001)"/>
<use data-text="(" xlink:href="#font_4_1" transform="matrix(9.963496,0,0,-9.963098,109.48923,142.11846)"/>
<use data-text="0" xlink:href="#font_4_3" transform="matrix(9.963496,0,0,-9.963098,113.35507,142.11846)"/>
<use data-text="," xlink:href="#font_1_1" transform="matrix(9.963496,0,0,-9.963098,118.34602,142.11846)"/>
<use data-text="0" xlink:href="#font_4_3" transform="matrix(9.963496,0,0,-9.963098,122.774417,142.11846)"/>
<use data-text=")" xlink:href="#font_4_2" transform="matrix(9.963496,0,0,-9.963098,127.75615,142.11846)"/>
</svg>
