<svg xmlns="http://www.w3.org/2000/svg" xmlns:xlink="http://www.w3.org/1999/xlink" version="1.1" width="250" height="252" viewBox="0 0 250 252">
<defs>
<path id="font_1_2" d="M.33399964 .30233766C.33999635 .32835389 .36299134 .42037965 .43299867 .42037965 .43798829 .42037965 .46199037 .42037965 .48298646 .40734864 .45498658 .402359 .43499757 .37734986 .43499757 .35334779 .43499757 .33735658 .44599916 .31835938 .47299195 .31835938 .49499513 .31835938 .5269928 .3363495 .5269928 .37635804 .5269928 .42837525 .46798707 .4423828 .43399049 .4423828 .37599183 .4423828 .34098817 .38935853 .32899476 .36634828 .3039856 .43237306 .25 .4423828 .22099304 .4423828 .116989139 .4423828 .05999756 .3133545 .05999756 .28834535 .05999756 .27833558 .069992069 .27833558 .07199097 .27833558 .07998657 .27833558 .08299255 .28033448 .084991458 .28933717 .11898804 .39535523 .18499756 .42037965 .21899414 .42037965 .23799134 .42037965 .272995 .4113617 .272995 .35334779 .272995 .32235719 .2559967 .25532533 .21899414 .11528015 .20298767 .053268434 .16799927 .011245728 .12399292 .011245728 .117996219 .011245728 .09498596 .011245728 .07398987 .024276734 .09899902 .029266358 .12098694 .05027771 .12098694 .07827759 .12098694 .105270389 .09899902 .11328125 .083999637 .11328125 .053985597 .11328125 .0289917 .08728027 .0289917 .055267335 .0289917 .009246826 .07899475-.0107421879 .12298584-.0107421879 .18899536-.0107421879 .22499085 .059280397 .22799683 .0652771 .23999024 .028274537 .27598573-.0107421879 .33599855-.0107421879 .43899537-.0107421879 .49598695 .118270877 .49598695 .14328003 .49598695 .1532898 .4869995 .1532898 .48399354 .1532898 .47499085 .1532898 .47299195 .14929199 .47099305 .14228821 .43798829 .03527832 .36999513 .011245728 .33799745 .011245728 .29899598 .011245728 .2829895 .043273927 .2829895 .07727051 .2829895 .09927368 .2889862 .121276859 .2999878 .16529846L.33399964 .30233766Z"/>
<path id="font_1_3" d="M.48599244 .38136292C.48999024 .39537049 .48999024 .39736939 .48999024 .40437318 .48999024 .42237855 .47599793 .43138124 .46099855 .43138124 .45098878 .43138124 .43499757 .42536927 .42599488 .41036988 .42399598 .405365 .41600038 .37435914 .4119873 .35635377 .40499879 .33035279 .397995 .30334474 .3919983 .27633668L.34700013 .09628296C.34298707 .08126831 .2999878 .011245728 .23399353 .011245728 .18299866 .011245728 .17199707 .055267335 .17199707 .0922699 .17199707 .1382904 .18899536 .20030213 .22299195 .28833009 .23899842 .3293457 .24299622 .3403473 .24299622 .36035157 .24299622 .405365 .21099854 .4423828 .16099549 .4423828 .06599426 .4423828 .0289917 .29733277 .0289917 .28833009 .0289917 .27833558 .038986207 .27833558 .040985109 .27833558 .050994874 .27833558 .051986696 .28033448 .056991579 .29634095 .083999637 .3903656 .12399292 .42037965 .1579895 .42037965 .1659851 .42037965 .18299866 .42037965 .18299866 .3883667 .18299866 .36335755 .17298889 .3373413 .1659851 .31834413 .12599182 .21231079 .10798645 .1552887 .10798645 .10827637 .10798645 .019256592 .17098999-.0107421879 .22999573-.0107421879 .2689972-.0107421879 .30299378 .0062561037 .33099366 .03425598 .31799317-.017745972 .30599977-.06674194 .2659912-.11973572 .23999024-.15385437 .20199585-.18309021 .1559906-.18309021 .14199829-.18309021 .09700012-.18005371 .07998657-.14074707 .09599304-.14074707 .10899353-.14074707 .12298584-.1287384 .1329956-.11973572 .14299011-.10673523 .14299011-.08773804 .14299011-.056747438 .115997318-.052734376 .10598755-.052734376 .08299255-.052734376 .049987794-.068740848 .049987794-.11773682 .049987794-.16796875 .09399414-.20507813 .1559906-.20507813 .25898744-.20507813 .3619995-.11373901 .3899994-.00074768069L.48599244 .38136292Z"/>
<clipPath id="clip_2">
<path transform="matrix(1.00009,0,0,-1.00003,120.56023,131.12454)" d="M-113.38724-113.38724V113.38724H113.38724V-113.38724ZM113.38724 113.38724"/>
</clipPath>
<path id="font_3_2" d="M.44400025 .24998474C.44400025 .35688783 .35499574 .44381715 .25 .44381715 .14199829 .44381715 .054992677 .35488893 .054992677 .24998474 .054992677 .14407349 .14199829 .056137086 .25 .056137086 .35499574 .056137086 .44400025 .14308167 .44400025 .24998474Z"/>
<path id="font_4_1" d="M.33099366-.2400055C.33099366-.23701477 .33099366-.23500061 .31399537-.21800232 .18899536-.0920105 .15699768 .09700012 .15699768 .25 .15699768 .42399598 .19499207 .59799197 .31799317 .72299197 .33099366 .73498538 .33099366 .7369995 .33099366 .73999026 .33099366 .746994 .32699586 .75 .32099916 .75 .31098939 .75 .22099304 .6819916 .1619873 .5549927 .11099243 .44499208 .09899902 .33399964 .09899902 .25 .09899902 .17199707 .10998535 .050994874 .16499329-.06201172 .22499085-.18501282 .31098939-.25 .32099916-.25 .32699586-.25 .33099366-.24700928 .33099366-.2400055Z"/>
<path id="font_3_1" d="M.6589966 .23046875C.6759949 .23046875 .69400027 .23046875 .69400027 .25045777 .69400027 .27046205 .6759949 .27046205 .6589966 .27046205H.117996219C.100997928 .27046205 .08299255 .27046205 .08299255 .25045777 .08299255 .23046875 .100997928 .23046875 .117996219 .23046875H.6589966Z"/>
<path id="font_4_4" d="M.2939911 .64004519C.2939911 .66400149 .2939911 .6660156 .2709961 .6660156 .20899964 .60227969 .12098694 .60227969 .08898926 .60227969V.57128909C.10899353 .57128909 .16799927 .57128909 .21998596 .5972748V.07902527C.21998596 .042999269 .21699524 .0309906 .1269989 .0309906H.09498596V0C.12998963 .0029907227 .21699524 .0029907227 .25698854 .0029907227 .29699708 .0029907227 .38398744 .0029907227 .4189911 0V.0309906H.3869934C.29699708 .0309906 .2939911 .041992189 .2939911 .07902527V.64004519Z"/>
<path id="font_1_1" d="M.20298767 .0009918213C.20298767 .066986087 .17799378 .10598755 .13899231 .10598755 .10598755 .10598755 .085998538 .08099365 .085998538 .052993776 .085998538 .025985718 .10598755 0 .13899231 0 .15098572 0 .1639862 .0039978029 .17399597 .0129852299 .1769867 .01499939 .17799378 .015991211 .1789856 .015991211 .17999268 .015991211 .18099976 .01499939 .18099976 .0009918213 .18099976-.07316589 .1459961-.13328552 .11299133-.16635132 .101989749-.17736817 .101989749-.17936707 .101989749-.18237305 .101989749-.18936157 .10699463-.19335938 .11199951-.19335938 .12298584-.19335938 .20298767-.116256717 .20298767 .0009918213Z"/>
<path id="font_4_2" d="M.2889862 .25C.2889862 .32798768 .27799989 .44898988 .22299195 .56199648 .16299439 .68499758 .07699585 .75 .066986087 .75 .06098938 .75 .056991579 .74598696 .056991579 .73999026 .056991579 .7369995 .056991579 .73498538 .07598877 .71699526 .17399597 .6179962 .23098755 .45899964 .23098755 .25 .23098755 .07899475 .19400025-.09700012 .069992069-.2230072 .056991579-.23500061 .056991579-.23701477 .056991579-.2400055 .056991579-.2460022 .06098938-.25 .066986087-.25 .07699585-.25 .16699219-.18200684 .22599793-.055007936 .2769928 .054992677 .2889862 .16600037 .2889862 .25Z"/>
<path id="font_4_3" d="M.45999146 .31976319C.45999146 .39982606 .45498658 .47988893 .41999818 .5539398 .37399293 .65000918 .2919922 .6660156 .25 .6660156 .18998719 .6660156 .116989139 .64001467 .07598877 .54693606 .04399109 .47789 .038986207 .39982606 .038986207 .31976319 .038986207 .24472046 .042999269 .15464783 .083999637 .07859802 .1269989-.0024719239 .19999695-.022460938 .24899292-.022460938 .30299378-.022460938 .3789978-.0014648438 .4229889 .09359741 .45498658 .16265869 .45999146 .2407074 .45999146 .31976319M.24899292-.00047302247C.20999146-.00047302247 .15098572 .024551392 .1329956 .12062073 .12199402 .18066406 .12199402 .2727356 .12199402 .3317871 .12199402 .39582826 .12199402 .46188355 .12998963 .5159149 .14898682 .63500979 .22399903 .64401248 .24899292 .64401248 .28199769 .64401248 .34799195 .6259918 .36698915 .52693179 .3769989 .47088624 .3769989 .39482118 .3769989 .3317871 .3769989 .25672914 .3769989 .18867493 .3659973 .12461853 .35099793 .029556275 .2939911-.00047302247 .24899292-.00047302247Z"/>
<path id="font_4_5" d="M.1269989 .07699585 .23298645 .18003845C.3889923 .31811524 .44898988 .3721466 .44898988 .47216798 .44898988 .5860901 .35899354 .6660156 .23699951 .6660156 .12399292 .6660156 .049987794 .57411196 .049987794 .48516847 .049987794 .4291687 .099990848 .4291687 .102996829 .4291687 .11999512 .4291687 .15499878 .44117738 .15499878 .48217774 .15499878 .5081787 .13699341 .5341797 .101989749 .5341797 .09399414 .5341797 .09199524 .5341797 .08898926 .5331726 .11199951 .59806826 .1659851 .63500979 .22399903 .63500979 .31498719 .63500979 .35798646 .5541382 .35798646 .47216798 .35798646 .39215089 .30799867 .31311036 .25299073 .25108338L.06098938 .036987306C.049987794 .025985718 .049987794 .023986817 .049987794 0H.42099L.44898988 .17404175H.42399598C.4189911 .14402771 .4119873 .1000061 .4019928 .084991458 .394989 .07699585 .32899476 .07699585 .30699159 .07699585H.1269989Z"/>
</defs>
<path transform="matrix(1.00009,0,0,-1.00003,120.56023,131.12454)" stroke-width=".19925" stroke-linecap="butt" stroke-miterlimit="10" stroke-linejoin="miter" fill="none" stroke="#929292" d="M-113.38724-113.38724H113.38724M-113.38724-85.04042H113.38724M-113.38724-56.69362H113.38724M-113.38724-28.3468H113.38724M-113.38724 0H113.38724M-113.38724 28.3468H113.38724M-113.38724 56.69362H113.38724M-113.38724 85.04042H113.38724M-113.38724 113.37727H113.38724M-113.38724-113.38724V113.38724M-85.04042-113.38724V113.38724M-56.69362-113.38724V113.38724M-28.3468-113.38724V113.38724M0-113.38724V113.38724M28.3468-113.38724V113.38724M56.69362-113.38724V113.38724M85.04042-113.38724V113.38724M113.37727-113.38724V113.38724M113.38724 113.38724"/>
<path transform="matrix(1.00009,0,0,-1.00003,120.56023,131.12454)" stroke-width="1.19553" stroke-linecap="butt" stroke-miterlimit="10" stroke-linejoin="miter" fill="none" stroke="#000000" d="M-119.0565 0H118.10008"/>
<path transform="matrix(1.00009,0,0,-1.00003,238.67093,131.12454)" stroke-width=".9564" stroke-linecap="round" stroke-linejoin="round" fill="none" stroke="#000000" d="M-1.91284 2.55046C-1.75343 1.59402 0 .15938 .4782 0 0-.15938-1.75343-1.59402-1.91284-2.55046"/>
<use data-text="x" xlink:href="#font_1_2" transform="matrix(9.963496,0,0,-9.962899,243.5463,133.2696)"/>
<path transform="matrix(1.00009,0,0,-1.00003,120.56023,131.12454)" stroke-width="1.19553" stroke-linecap="butt" stroke-miterlimit="10" stroke-linejoin="miter" fill="none" stroke="#000000" d="M0-119.0565V118.10008"/>
<path transform="matrix(0,-1.00003,-1.00009,-0,120.56023,13.020912)" stroke-width=".9564" stroke-linecap="round" stroke-linejoin="round" fill="none" stroke="#000000" d="M-1.91284 2.55046C-1.75343 1.59402 0 .15938 .4782 0 0-.15938-1.75343-1.59402-1.91284-2.55046"/>
<use data-text="y" xlink:href="#font_1_3" transform="matrix(9.963496,0,0,-9.962899,117.93899,6.208786)"/>
<g clip-path="url(#clip_2)">
<path transform="matrix(1.00009,0,0,-1.00003,120.56023,131.12454)" stroke-width=".79701" stroke-linecap="butt" stroke-dasharray="2.98883,2.98883" stroke-miterlimit="10" stroke-linejoin="miter" fill="none" stroke="#0000ff" d="M-113.38724-510.24259C-113.38724-510.24259-113.05908-506.3107-112.93306-504.8064-112.80704-503.30213-112.60492-500.8967-112.4789-499.40058-112.35287-497.90443-112.15074-495.51136-112.02472-494.02326-111.8987-492.53517-111.6966-490.1554-111.57057-488.67536-111.44453-487.1953-111.24243-484.828-111.11641-483.356-110.99039-481.884-110.78825-479.5299-110.66223-478.06608-110.53621-476.60224-110.33409-474.26136-110.20807-472.80555-110.08205-471.34974-109.87993-469.02134-109.75389-467.57356-109.62787-466.1258-109.42577-463.8106-109.29974-462.371-109.17372-460.9314-108.9716-458.62944-108.84558-457.1978-108.71956-455.76628-108.51743-453.47676-108.3914-452.05323-108.26538-450.6297-108.06328-448.3534-107.93724-446.93803-107.81122-445.52268-107.60912-443.25959-107.4831-441.85227-107.35706-440.44493-107.15494-438.1943-107.02892-436.795-106.9029-435.39576-106.70078-433.15843-106.57475-431.7672-106.44873-430.37596-106.2466-428.15113-106.12057-426.7679-105.99455-425.38475-105.79245-423.17308-105.66643-421.79808-105.54039-420.42304-105.33829-418.22447-105.21227-416.8576-105.08624-415.49076-104.88411-413.3054-104.75809-411.9466-104.63206-410.58775-104.42995-408.415-104.30392-407.0641-104.1779-405.71318-103.9758-403.5529-103.84976-402.21015-103.72374-400.8674-103.52162-398.72105-103.3956-397.38648-103.26958-396.0519-103.06746-393.918-102.94144-392.59135-102.81541-391.2647-102.61328-389.1433-102.48726-387.8248-102.36124-386.5063-102.15913-384.39888-102.0331-383.08854-101.90707-381.77818-101.70497-379.68318-101.57895-378.38078-101.45291-377.07835-101.2508-374.99583-101.12477-373.70158-100.99875-372.40733-100.79663-370.33885-100.67061-369.05265-100.54459-367.76643-100.34245-365.7096-100.21643-364.4314-100.09041-363.15324-99.8883-361.11048-99.76228-359.84046-99.63625-358.57048-99.43414-356.54-99.30812-355.27806-99.1821-354.01609-98.97997-351.99885-98.85394-350.74504-98.72792-349.49125-98.5258-347.4872-98.39978-346.24147-98.27376-344.9957-98.07166-343.00428-97.94562-341.76643-97.8196-340.5286-97.61748-338.5496-97.49146-337.31993-97.36543-336.09028-97.16331-334.1252-97.0373-332.9037-96.91127-331.6822-96.70914-329.72953-96.58311-328.51606-96.45709-327.30259-96.25499-325.36323-96.12895-324.15779-96.00293-322.9524-95.80083-321.02549-95.6748-319.8281-95.54877-318.6307-95.34665-316.71705-95.22063-315.5278-95.0946-314.3386-94.89249-312.4381-94.76646-311.2569-94.64044-310.07575-94.43832-308.18775-94.3123-307.0146-94.18628-305.84147-93.98416-303.96675-93.85814-302.80168-93.7321-301.63658-93.53-299.77424-93.40398-298.6173-93.27795-297.46034-93.07582-295.61198-92.9498-294.4632-92.82378-293.3144-92.62166-291.4785-92.49564-290.33766-92.36961-289.1968-92.16751-287.37348-92.04147-286.24067-91.91545-285.10783-91.71333-283.29774-91.58731-282.17308-91.46129-281.0484-91.25917-279.2514-91.13315-278.1349-91.00713-277.0184-90.805-275.23457-90.67897-274.12614-90.55295-273.01768-90.35085-271.24644-90.22481-270.14595-90.09879-269.04539-89.89668-267.28663-89.77066-266.19425-89.64462-265.10188-89.4425-263.35707-89.31648-262.27287-89.19046-261.18864-88.98834-259.45619-88.86232-258.38-88.7363-257.30387-88.53418-255.58472-88.40816-254.51659-88.28214-253.44847-88.08002-251.74179-87.954-250.68172-87.82796-249.62163-87.62585-247.92827-87.49983-246.87624-87.37381-245.82419-87.17168-244.14319-87.04565-243.09932-86.91963-242.05544-86.71751-240.38838-86.59149-239.35266-86.46547-238.31696-86.26337-236.66236-86.13733-235.63457-86.0113-234.60678-85.80919-232.96479-85.68317-231.94503-85.55714-230.92528-85.35503-229.29647-85.229-228.28488-85.10298-227.2733-84.90086-225.65758-84.77484-224.65416-84.64882-223.65074-84.4467-222.04824-84.32066-221.05286-84.19464-220.05748-83.99254-218.46743-83.86652-217.48009-83.74048-216.49275-83.53836-214.91603-83.41234-213.93674-83.28632-212.95745-83.0842-211.39319-82.95818-210.42194-82.83215-209.45069-82.63004-207.89963-82.50401-206.93654-82.37799-205.97345-82.17587-204.43561-82.04985-203.48056-81.92381-202.52552-81.72171-201.00014-81.59569-200.05313-81.46967-199.10613-81.26753-197.59395-81.14151-196.6551-81.01549-195.71627-80.81337-194.2173-80.68735-193.2865-80.56133-192.3557-80.35922-190.8692-80.23318-189.94644-80.10716-189.02368-79.90504-187.5504-79.77902-186.6358-79.653-185.7212-79.45088-184.26113-79.32486-183.35457-79.19884-182.44802-78.99672-181.0004-78.8707-180.10189-78.74467-179.20337-78.54254-177.76898-78.41652-176.87862-78.2905-175.98825-78.0884-174.56708-77.96237-173.68476-77.83633-172.80243-77.63422-171.39373-77.5082-170.51944-77.38217-169.64516-77.18005-168.24977-77.05403-167.38353-76.92801-166.51729-76.72589-165.13439-76.59987-164.27619-76.47385-163.41799-76.27173-162.04828-76.1457-161.19824-76.01967-160.3482-75.81757-158.99172-75.69154-158.14972-75.56552-157.30773-75.3634-155.96369-75.23738-155.12973-75.11136-154.29579-74.90923-152.96497-74.7832-152.13918-74.65718-151.31339-74.45508-149.99576-74.32904-149.17801-74.20302-148.36026-74.0009-147.05512-73.87488-146.2454-73.74886-145.43572-73.54674-144.14376-73.42072-143.34221-73.2947-142.54068-73.09258-141.26194-72.96655-140.46843-72.84053-139.67493-72.6384-138.40866-72.51237-137.6232-72.38635-136.83774-72.18425-135.58466-72.05823-134.80738-71.93219-134.03008-71.73007-132.79022-71.60405-132.02097-71.47803-131.25171-71.27591-130.0243-71.14989-129.26309-71.02386-128.50189-70.82175-127.28781-70.69572-126.53465-70.5697-125.78148-70.36758-124.57974-70.24156-123.83475-70.11552-123.08974-69.91342-121.90208-69.7874-121.16513-69.66138-120.42816-69.45926-119.25209-69.33324-118.52318-69.20721-117.79425-69.00508-116.63228-68.87906-115.91151-68.75304-115.19077-68.55093-114.0411-68.4249-113.3284-68.29887-112.61569-68.09676-111.47937-67.97073-110.77469-67.84471-110.07002-67.6426-108.94617-67.51657-108.24954-67.39055-107.55292-67.18843-106.44226-67.06241-105.75378-66.93639-105.06532-66.73425-103.9679-66.60823-103.28746-66.48221-102.60704-66.2801-101.52206-66.15408-100.84967-66.02805-100.17729-65.82594-99.10551-65.69992-98.4413-65.5739-97.77708-65.37177-96.71852-65.24574-96.06235-65.11972-95.40616-64.9176-94.36008-64.79158-93.71193-64.66556-93.0638-64.46344-92.03104-64.33742-91.39095-64.21138-90.75085-64.00928-89.73042-63.88326-89.09848-63.75723-88.46654-63.55511-87.4602-63.4291-86.8363-63.30307-86.2124-63.10094-85.21767-62.97491-84.60182-62.84889-83.98596-62.64679-83.00531-62.52075-82.3976-62.39473-81.7899-62.19261-80.8216-62.06659-80.22194-61.94057-79.62228-61.73845-78.6673-61.61243-78.07568-61.4864-77.48407-61.28429-76.54156-61.15826-75.95798-61.03224-75.3744-60.83011-74.4451-60.70409-73.86969-60.57806-73.29428-60.37596-72.37817-60.24994-71.8108-60.1239-71.24344-59.9218-70.3398-59.79578-69.78047-59.66975-69.22115-59.46762-68.3307-59.3416-67.77954-59.21558-67.22838-59.01346-66.35117-58.88744-65.80804-58.76141-65.26492-58.5593-64.40016-58.43326-63.86508-58.30724-63.33-58.10513-62.47845-57.97911-61.95154-57.85309-61.42462-57.65097-60.58627-57.52495-60.0674-57.39893-59.54852-57.1968-58.72266-57.07077-58.21182-56.94475-57.70099-56.74265-56.8883-56.61661-56.38564-56.49059-55.88297-56.28848-55.0835-56.16246-54.58887-56.03644-54.09424-55.8343-53.30725-55.70828-52.82066-55.58226-52.33408-55.38014-51.56041-55.25412-51.08186-55.1281-50.60332-54.92596-49.8421-54.79994-49.3716-54.67392-48.9011-54.47182-48.15309-54.3458-47.69075-54.21976-47.22842-54.01765-46.49364-53.89163-46.03934-53.76561-45.58504-53.56348-44.8627-53.43745-44.41644-53.31143-43.9702-53.10931-43.26106-52.98329-42.82298-52.85727-42.38489-52.65515-41.68896-52.52911-41.25893-52.40309-40.82887-52.20099-40.14542-52.07497-39.72342-51.94894-39.3014-51.74683-38.63115-51.6208-38.21732-51.49478-37.80347-51.29265-37.14642-51.16663-36.74062-51.0406-36.33482-50.8385-35.69026-50.71246-35.2925-50.58644-34.89473-50.38434-34.26338-50.25832-33.87376-50.1323-33.48416-49.93016-32.866-49.80414-32.48445-49.67812-32.10289-49.476-31.4972-49.34998-31.12369-49.22395-30.75017-49.02182-30.1578-48.8958-29.79234-48.76978-29.42688-48.56767-28.84697-48.44165-28.48953-48.31561-28.13211-48.11351-27.56541-47.98749-27.21614-47.86147-26.86685-47.65933-26.31328-47.53331-25.97217-47.40729-25.63104-47.20517-25.09067-47.07915-24.7576-46.95313-24.42453-46.75102-23.89673-46.62498-23.57158-46.49896-23.24641-46.29684-22.7311-46.17082-22.41411-46.0448-22.09712-45.84268-21.59573-45.71666-21.28691-45.59064-20.97809-45.3885-20.48904-45.26248-20.18826-45.13646-19.88748-44.93436-19.41177-44.80832-19.11903-44.6823-18.8263-44.4802-18.36304-44.35417-18.07834-44.22815-17.79364-44.02602-17.34373-43.9-17.06708-43.77397-16.7904-43.57185-16.35283-43.44583-16.08434-43.31981-15.81584-43.11768-15.39223-42.99165-15.1319-42.86563-14.87155-42.66353-14.4604-42.5375-14.208-42.41147-13.95558-42.20937-13.557-42.08334-13.31264-41.95732-13.06827-41.75519-12.6829-41.62917-12.4467-41.50314-12.2105-41.30103-11.83821-41.175-11.61017-41.04898-11.38213-40.84688-11.02306-40.72084-10.80305-40.59482-10.58305-40.3927-10.23656-40.26668-10.02448-40.14066-9.8124-39.93854-9.47838-39.81252-9.27446-39.6865-9.07054-39.48436-8.75047-39.35834-8.55472-39.23232-8.35896-39.03021-8.05124-38.90417-7.86353-38.77815-7.67581-38.57605-7.38142-38.45003-7.20175-38.32399-7.02208-38.12187-6.74014-37.99585-6.56851-37.86983-6.39688-37.66771-6.12816-37.54169-5.96469-37.41566-5.80122-37.21355-5.5457-37.08752-5.39027-36.9615-5.23485-36.75938-4.99179-36.63336-4.8444-36.50732-4.69702-36.30522-4.4673-36.1792-4.32797-36.05318-4.18863-35.85104-3.97124-35.72502-3.84006-35.599-3.70888-35.39688-3.50545-35.27086-3.38243-35.14484-3.25941-34.94273-3.06845-34.8167-2.95335-34.69067-2.83826-34.48856-2.65988-34.36253-2.55283-34.23651-2.44577-34.0344-2.28061-33.90837-2.1817-33.78235-2.0828-33.58022-1.93085-33.4542-1.84-33.32817-1.74915-33.12607-1.60953-33.00003-1.52686-32.87401-1.44417-32.6719-1.31863-32.54588-1.24397-32.41985-1.16931-32.21773-1.05537-32.0917-.98875-31.96568-.92215-31.76357-.8223-31.63754-.76384-31.51152-.7054-31.3094-.61798-31.18338-.56747-31.05736-.51695-30.85524-.44202-30.72922-.39966-30.60318-.35728-30.40108-.29631-30.27505-.2621-30.14903-.2279-29.9469-.1794-29.82088-.1531-29.69485-.12682-29.49274-.09077-29.36671-.07266-29.24069-.05453-29.03859-.03244-28.91255-.02248-28.78653-.01251-28.58441-.00288-28.45839-.00084-28.33237 .00117-28.13025-.00179-28.00423-.00778-27.8782-.01376-27.67609-.02995-27.55006-.04411-27.42404-.05826-27.22192-.08752-27.09589-.10985-26.96986-.13216-26.76776-.17465-26.64174-.205-26.5157-.23537-26.31358-.29031-26.18756-.32872-26.06154-.36713-25.85942-.4354-25.7334-.48183-25.60738-.52827-25.40526-.60901-25.27924-.6635-25.15321-.71799-24.9511-.81194-24.82507-.87457-24.69904-.93723-24.49693-1.04439-24.37091-1.11507-24.24489-1.18576-24.04277-1.30537-23.91675-1.38411-23.79073-1.46283-23.5886-1.59567-23.46257-1.68256-23.33655-1.76945-23.13445-1.91548-23.0084-2.01042-22.88239-2.10536-22.68027-2.26385-22.55424-2.36684-22.42822-2.46982-22.2261-2.64153-22.10008-2.75266-21.97406-2.8638-21.77194-3.0487-21.64592-3.1679-21.5199-3.28706-21.31778-3.48445-21.19174-3.61168-21.06572-3.7389-20.86362-3.9496-20.7376-4.08487-20.61156-4.22014-20.40944-4.4433-20.28342-4.58661-20.1574-4.72992-19.95528-4.9663-19.82925-5.11777-19.70323-5.26924-19.50111-5.5187-19.37509-5.67834-19.24907-5.83798-19.04695-6.10065-18.92093-6.26833-18.79489-6.436-18.59279-6.71115-18.46677-6.88686-18.34074-7.06256-18.13863-7.35103-18.0126-7.53479-17.88658-7.71855-17.68445-8.01947-17.55843-8.21127-17.4324-8.40308-17.2303-8.71722-17.10426-8.91719-16.97824-9.11716-16.77612-9.4445-16.6501-9.6525-16.52408-9.8605-16.32196-10.20032-16.19594-10.41635-16.06992-10.63239-15.8678-10.98544-15.74178-11.20964-15.61575-11.43384-15.41364-11.8001-15.2876-12.03233-15.16158-12.26457-14.95947-12.64328-14.83345-12.88356-14.70741-13.12384-14.50531-13.51576-14.37929-13.7642-14.25327-14.01266-14.05113-14.41777-13.92511-14.67427-13.79909-14.93076-13.59697-15.34836-13.47095-15.61288-13.34492-15.87741-13.1428-16.30832-13.01678-16.5809-12.89075-16.85347-12.68864-17.29684-12.56262-17.57747-12.4366-17.85808-12.23448-18.31467-12.10846-18.60344-11.98244-18.89223-11.7803-19.36191-11.65428-19.65884-11.52826-19.95578-11.32616-20.43866-11.20012-20.74364-11.0741-21.04861-10.87198-21.5441-10.74596-21.857-10.61993-22.1699-10.41782-22.67783-10.2918-22.9989-10.16577-23.31996-9.96365-23.84184-9.83763-24.17108-9.71161-24.5003-9.50949-25.03465-9.38345-25.37181-9.25743-25.70895-9.05533-26.25575-8.9293-26.60107-8.80327-26.94638-8.60117-27.50716-8.47514-27.86063-8.34912-28.21411-8.14699-28.78732-8.02097-29.14873-7.89494-29.51012-7.69283-30.09581-7.5668-30.46536-7.44078-30.83493-7.23866-31.4347-7.11264-31.81229-6.9866-32.1899-6.7845-32.80125-6.65848-33.1869-6.53246-33.57254-6.33034-34.19797-6.20432-34.59178-6.0783-34.98558-5.87616-35.62337-5.75014-36.0252-5.62411-36.42706-5.42201-37.07805-5.29597-37.48805-5.16995-37.89807-4.96785-38.56226-4.84183-38.98032-4.7158-39.39836-4.51367-40.07515-4.38765-40.50111-4.26163-40.9271-4.05951-41.61632-3.93349-42.05046-3.80746-42.4846-3.60535-43.18779-3.47931-43.6301-3.35329-44.0724-3.15118-44.78793-3.02516-45.23827-2.89912-45.6886-2.69702-46.41747-2.571-46.87585-2.44498-47.33424-2.24284-48.07556-2.11682-48.54199-1.9908-49.00842-1.78868-49.76297-1.66266-50.23755-1.53664-50.71211-1.33452-51.47987-1.2085-51.9625-1.08246-52.44511-.88036-53.22536-.75433-53.71602-.62831-54.20668-.4262-55.00023-.30017-55.49893-.17415-55.99763 .02795-56.80354 .15398-57.31041 .28-57.81726 .4821-58.63713 .60814-59.15215 .73416-59.66718 .93626-60.4995 1.06229-61.02245 1.18831-61.5454 1.39044-62.39029 1.51646-62.92128 1.64249-63.45227 1.8446-64.31038 1.97063-64.84953 2.09665-65.38869 2.29878-66.2599 2.4248-66.80722 2.55083-67.35454 2.75293-68.23892 2.87895-68.79428 3.00499-69.34964 3.20709-70.24663 3.33311-70.8099 3.45914-71.37318 3.66127-72.28265 3.7873-72.8541 3.91331-73.42554 4.11543-74.34894 4.24146-74.92854 4.36748-75.50815 4.56958-76.44402 4.6956-77.03156 4.82164-77.61908 5.02376-78.5674 5.14978-79.1631 5.2758-79.75879 5.47792-80.72105 5.60394-81.3249 5.72997-81.92876 5.9321-82.9035 6.05812-83.51529 6.18414-84.12706 6.38625-85.11427 6.51228-85.7342 6.6383-86.35414 6.84041-87.3553 6.96643-87.9834 7.09245-88.6115 7.29459-89.62512 7.42061-90.26114 7.54663-90.89717 7.74875-91.92337 7.87477-92.56744 8.0008-93.2115 8.20293-94.25092 8.32895-94.90315 8.45497-95.55537 8.65707-96.60788 8.7831-97.26826 8.90913-97.92867 9.11124-98.99437 9.23726-99.6628 9.36328-100.33122 9.56541-101.4094 9.69144-102.08586 9.81746-102.76234 10.01958-103.85384 10.1456-104.53836 10.27162-105.22287 10.47372-106.32684 10.59975-107.0194 10.72578-107.71196 10.9279-108.82913 11.05392-109.52985 11.17995-110.23058 11.38206-111.36095 11.50809-112.0697 11.63411-112.77847 11.83624-113.92133 11.96227-114.63812 12.08829-115.35493 12.29039-116.511 12.41643-117.23595 12.54245-117.96089 12.74455-119.13017 12.87057-119.86319 12.9966-120.59619 13.19873-121.77794 13.32475-122.51897 13.45078-123.26001 13.6529-124.45496 13.77892-125.20416 13.90494-125.95335 14.10706-127.16153 14.23308-127.91878 14.3591-128.67601 14.56122-129.89664 14.68724-130.66193 14.81328-131.4272 15.01538-132.66117 15.1414-133.4345 15.26743-134.20781 15.46956-135.45412 15.59558-136.23561 15.7216-137.01709 15.92372-138.27748 16.04974-139.067 16.17577-139.85654 16.37787-141.12851 16.50389-141.92609 16.62993-142.72367 16.83205-144.0097 16.95807-144.81543 17.08409-145.62117 17.28621-146.91956 17.41223-147.73334 17.53825-148.54712 17.74039-149.85883 17.86641-150.68065 17.99243-151.50247 18.19453-152.82665 18.32057-153.65651 18.4466-154.48638 18.6487-155.82376 18.77472-156.66179 18.90074-157.49982 19.10287-158.8504 19.2289-159.69647 19.35492-160.54254 19.55704-161.9056 19.68306-162.7597 19.80908-163.61382 20.0112-164.99007 20.13722-165.85234 20.26324-166.71462 20.46536-168.1041 20.59138-168.97441 20.71742-169.84473 20.91953-171.24666 21.04555-172.12502 21.17157-173.00337 21.3737-174.41852 21.49973-175.30504 21.62575-176.19156 21.82787-177.6199 21.95389-178.51447 22.07991-179.40903 22.28201-180.84984 22.40805-181.75244 22.53407-182.65505 22.73619-184.10919 22.86221-185.01984 22.98824-185.93048 23.19035-187.39698 23.31638-188.31578 23.4424-189.23459 23.64452-190.71515 23.77054-191.642 23.89656-192.56885 24.09868-194.061 24.22472-194.9959 24.35074-195.93079 24.55284-197.43703 24.67886-198.38008 24.80489-199.32314 25.00702-200.8417 25.13304-201.7928 25.25906-202.7439 25.46118-204.2758 25.5872-205.23494 25.71323-206.19408 25.91534-207.73845 26.04137-208.70563 26.16739-209.6728 26.3695-211.23038 26.49553-212.20572 26.62157-213.18106 26.82367-214.75185 26.94969-215.73523 27.07571-216.71863 27.27785-218.30187 27.40387-219.29329 27.52989-220.28472 27.73201-221.88117 27.85803-222.88076 27.98405-223.88036 28.18616-225.49002 28.3122-226.49765 28.43822-227.50527 28.64034-229.1274 28.76636-230.14307 28.89238-231.15872 29.0945-232.79419 29.22052-233.81792 29.34654-234.84163 29.54866-236.48943 29.67468-237.5213 29.8007-238.55316 30.00282-240.21504 30.12886-241.25496 30.25488-242.29489 30.45699-243.96839 30.58301-245.01633 30.70903-246.06427 30.91116-247.75183 31.03719-248.80794 31.16321-249.86406 31.36533-251.56398 31.49135-252.62813 31.61737-253.69228 31.81949-255.40552 31.94551-256.4777 32.07153-257.5499 32.27365-259.27565 32.39967-260.35585 32.52571-261.4361 32.72781-263.175 32.85384-264.2634 32.97986-265.3518 33.18198-267.10395 33.308-268.20036 33.43402-269.2968 33.63615-271.06138 33.76218-272.16587 33.8882-273.27037 34.0903-275.04814 34.21634-276.16078 34.34236-277.27345 34.54448-279.06443 34.6705-280.18513 34.79652-281.3058 34.99864-283.10929 35.12466-284.23799 35.25069-285.36674 35.4528-287.1834 35.57883-288.32029 35.70485-289.45719 35.90697-291.28706 36.033-292.43199 36.15903-293.57695 36.36113-295.41929 36.48715-296.57225 36.61317-297.72523 36.8153-299.5809 36.94133-300.7419 37.06735-301.90296 37.26947-303.77095 37.3955-304.94017 37.52151-306.10935 37.72363-307.99143 37.84966-309.1686 37.97568-310.34587 38.1778-312.23954 38.30382-313.4248 38.42986-314.61009 38.63196-316.51783 38.75798-317.71125 38.884-318.9047 39.08612-320.82478 39.21214-322.02626 39.33817-323.22773 39.5403-325.16117 39.66632-326.37065 39.79234-327.58018 39.99445-329.52607 40.12048-330.7436 40.2465-331.96119 40.44862-333.92027 40.57465-335.14598 40.70067-336.3717 40.90279-338.34403 41.02881-339.57777 41.15483-340.81156 41.35695-342.7963 41.48297-344.0381 41.609-345.2799 41.81111-347.2779 41.93715-348.52787 42.06317-349.77784 42.26527-351.789 42.3913-353.047 42.51733-354.30503 42.71944-356.32868 42.84546-357.5947 42.97148-358.86076 43.17361-360.8976 43.29964-362.17185 43.42566-363.44606 43.62778-365.49613 43.7538-366.77839 43.87982-368.0606 44.08194-370.12315 44.20796-371.41346 44.334-372.7037 44.5361-374.7796 44.66212-376.07795 44.78815-377.37629 44.99026-379.4646 45.11629-380.77098 45.24231-382.07734 45.44444-384.1789 45.57047-385.4934 45.69649-386.80796 45.89859-388.92259 46.02463-390.2453 46.15065-391.568 46.35277-393.69584 46.47879-395.02656 46.60481-396.35728 46.80693-398.49775 46.93295-399.83638 47.05898-401.17503 47.2611-403.32795 47.38712-404.67475 47.51314-406.02156 47.71526-408.1884 47.8413-409.54338 47.96732-410.89839 48.16942-413.07768 48.29544-414.44059 48.42148-415.80348 48.62358-417.99528 48.7496-419.36634 48.87563-420.7374 49.07776-422.9431 49.20378-424.32237 49.3298-425.70158 49.53192-427.91978 49.65794-429.30693 49.78397-430.69407 49.98608-432.9247 50.1121-434.32 50.23814-435.71537 50.44025-437.96009 50.56627-439.36344 50.69229-440.76679 50.89441-443.0231 51.02043-444.4345 51.14645-445.8459 51.34859-448.1163 51.47461-449.53587 51.60063-450.9554 51.80273-453.23814 51.92877-454.66575 52.0548-456.09336 52.2569-458.38945 52.38292-459.82508 52.50894-461.2607 52.71107-463.56913 52.8371-465.0129 52.96312-466.45674 53.16524-468.7792 53.29126-470.23106 53.41728-471.68293 53.6194-474.017 53.74544-475.4769 53.87146-476.93678 54.07356-479.28495 54.19958-480.753 54.32562-482.22105 54.52773-484.58155 54.65375-486.05763 54.77977-487.53376 54.9819-489.90757 55.10793-491.3917 55.23395-492.87583 55.43607-495.26213 55.56209-496.7543 55.68811-498.2465 55.89023-500.64598 56.01625-502.14634 56.14229-503.64665 56.34439-506.05937 56.47041-507.56776 56.59644-509.07615 56.79855-511.5013 56.92458-513.0177 57.0506-514.5342 57.25273-516.97268 57.37875-518.49716 57.50478-520.0216 57.70688-522.4724 57.83292-524.00509 57.95894-525.5377 58.16104-528.0026 58.28706-529.5433 58.41309-531.0839 58.61522-533.5605 58.74124-535.1092 58.86726-536.6579 59.06938-539.1485 59.1954-540.7053 59.32143-542.2622 59.52354-544.7652 59.64958-546.3301 59.7756-547.895 59.9777-550.41128 60.10373-551.9842 60.22977-553.5572 60.43187-556.08578 60.55789-557.6669 60.68391-559.248 60.88605-561.7907 61.01207-563.3798 61.13809-564.969 61.34021-567.5233 61.46623-569.1205 61.59225-570.7177 61.79436-573.2861 61.92038-574.8914 62.04642-576.49679 62.24854-579.07766 62.37456-580.6909 62.50058-582.3042 62.7027-584.89749 62.82872-586.5189 62.95474-588.1403 63.15688-590.7476 63.2829-592.3772 63.40892-594.0068 63.61102-596.6265 63.73706-598.26406 63.86308-599.90158 64.06519-602.53378 64.19121-604.17947 64.31723-605.82516 64.51936-608.4714 64.64539-610.1251 64.77141-611.7789 64.97353-614.4367 65.09955-616.09848 65.22557-617.7602 65.42767-620.4321 65.55371-622.10208 65.67973-623.772 65.88185-626.4563 66.00787-628.1343 66.13391-629.81228 66.33601-632.5097 66.46204-634.1958 66.58806-635.88198 66.79019-638.59268 66.91621-640.28689 67.04224-641.981 67.24435-644.7043 67.37038-646.4064 67.4964-648.1085 67.6985-650.84426 67.82452-652.55447 67.95056-654.2648 68.15268-657.0144 68.2787-658.73287 68.40472-660.4513 68.60684-663.2133 68.73286-664.93978 68.85889-666.66629 69.06102-669.4416 69.18704-671.17617 69.31306-672.91067 69.51517-675.6984 69.6412-677.441 69.76723-679.18356 69.96933-681.98458 70.09535-683.7353 70.22137-685.486 70.42351-688.30026 70.54953-690.05899 70.67555-691.81777 70.87767-694.6445 71.0037-696.41128 71.12971-698.17807 71.33182-701.01797 71.45786-702.7929 71.58388-704.5679 71.786-707.42098 71.91202-709.204 72.03806-710.987 72.24016-713.8526 72.36618-715.6436 72.4922-717.43466 72.69434-720.31356 72.82036-722.1127 72.94638-723.91177 73.1485-726.8031 73.27452-728.6102 73.40054-730.41738 73.60265-733.32199 73.72867-735.13729 73.8547-736.9525 74.05682-739.87026 74.18285-741.69369 74.30887-743.5171 74.51099-746.448 74.63701-748.2795 74.76303-750.11099 74.96515-753.0543 75.09117-754.89389 75.2172-756.7334 75.41931-759.69 75.54535-761.53768 75.67137-763.3852 75.87347-766.3544 75.9995-768.20999 76.12552-770.06558 76.32765-773.0479 76.45367-774.9117 76.5797-776.77548 76.78181-779.77108 76.90784-781.6428 77.03386-783.51467 77.23596-786.5227 77.362-788.4025 77.48802-790.2824 77.69014-793.30368 77.81616-795.19168 77.9422-797.0797 78.1443-800.11416 78.27032-802.0102 78.39635-803.90628 78.59848-806.9532 78.7245-808.8573 78.85052-810.76138 79.05264-813.8216 79.17867-815.73379 79.30469-817.6459 79.50679-820.7185 79.63281-822.6388 79.75885-824.5591 79.96097-827.6456 80.08699-829.5741 80.21301-831.5026 80.41513-834.60159 80.54115-836.53799 80.66718-838.47439 80.8693-841.58596 80.99532-843.5304 81.12134-845.4748 81.32346-848.5996 81.4495-850.5522 81.57552-852.5048 81.77762-855.64279 81.90364-857.60348 82.02966-859.5641 82.2318-862.7144 82.35782-864.6832 82.48384-866.65206 82.68596-869.81649 82.81198-871.7933 82.938-873.77017 83.1401-876.94619 83.26614-878.931 83.39217-880.9159 83.59428-884.106 83.7203-886.09909 83.84634-888.0921 84.04845-891.2946 84.17447-893.2956 84.30049-895.2966 84.50261-898.5116 84.62863-900.5207 84.75465-902.52987 84.95679-905.7588 85.08281-907.7761 85.20883-909.7934 85.41093-913.03488 85.53696-915.06008 85.663-917.08529 85.86511-920.3393 85.99113-922.37258 86.11716-924.4058 86.31927-927.67306 86.4453-929.7145 86.57132-931.75588 86.77344-935.03616 86.89946-937.08578 87.02548-939.1354 87.2276-942.42886 87.35364-944.4865 87.47966-946.5441 87.68176-949.8501 87.80779-951.9158 87.9338-953.98147 88.13594-957.3007 88.26196-959.37448 88.38799-961.4481 88.5901-964.7798 88.71613-966.8617 88.84215-968.94357 89.04427-972.2893 89.17029-974.37918 89.29631-976.4691 89.49843-979.8264 89.62445-981.9244 89.75049-984.02236 89.95259-987.39376 90.07861-989.4999 90.20464-991.60598 90.40675-994.98977 90.53278-997.1039 90.6588-999.218 90.86093-1002.6151 90.98695-1004.7373 91.11298-1006.8595 91.31508-1010.26907 91.4411-1012.3993 91.56714-1014.5295 91.76926-1017.9523 91.89528-1020.0907 92.0213-1022.22909 92.22342-1025.665 92.34944-1027.8114 92.47546-1029.9579 92.67758-1033.4064 92.8036-1035.5608 92.92963-1037.7153 93.13174-1041.177 93.25778-1043.3396 93.3838-1045.5021 93.5859-1048.9762 93.71193-1051.1469 93.83795-1053.3176 94.04007-1056.8058 94.16609-1058.9845 94.29211-1061.1632 94.49425-1064.663 94.62027-1066.8497 94.74629-1069.0365 94.94841-1072.5503 95.07443-1074.7453 95.20045-1076.9402 95.40257-1080.4664 95.5286-1082.6694 95.65463-1084.8724 95.85674-1088.4119 95.98276-1090.6229 96.10878-1092.834 96.3109-1096.3858 96.43692-1098.605 96.56294-1100.8242 96.76508-1104.39 96.8911-1106.6173 97.01712-1108.8445 97.21922-1112.422 97.34525-1114.6574 97.47128-1116.8926 97.6734-1120.4841 97.79942-1122.7276 97.92545-1124.9711 98.12756-1128.5751 98.25359-1130.8264 98.37961-1133.0778 98.58173-1136.6943 98.70775-1138.9539 98.83377-1141.2134 99.03589-1144.8439 99.16193-1147.1115 99.28795-1149.3792 99.49005-1153.0221 99.61607-1155.2977 99.7421-1157.5734 99.94421-1161.2288 100.07024-1163.5125 100.19626-1165.7963 100.39839-1169.4656 100.52441-1171.7575 100.65044-1174.0494 100.85255-1177.7312 100.97858-1180.0311 101.1046-1182.3309 101.30672-1186.0254 101.43274-1188.3333 101.55878-1190.6411 101.76088-1194.3488 101.8869-1196.6648 102.01292-1198.9808 102.21504-1202.7015 102.34106-1205.0258 102.46709-1207.35 102.66922-1211.0839 102.79524-1213.4161 102.92126-1215.7484 103.12337-1219.4948 103.24939-1221.8351 103.37543-1224.1753 103.57753-1227.935 103.70355-1230.2833 103.82957-1232.6317 104.03171-1236.4039 104.15773-1238.7603 104.28375-1241.1166 104.48587-1244.902 104.6119-1247.2665 104.73792-1249.6311 104.94003-1253.4297 105.06607-1255.8023 105.1921-1258.1748 105.3942-1261.9859 105.52022-1264.3665 105.64624-1266.7471 105.84836-1270.5714 105.97438-1272.9602 106.1004-1275.349 106.30254-1279.1864 106.42856-1281.5833 106.55458-1283.9801 106.7567-1287.83 106.88272-1290.2349 107.00874-1292.6398 107.21086-1296.5029 107.33688-1298.9159 107.46292-1301.329 107.66502-1305.2053 107.79105-1307.6264 107.91707-1310.0474 108.11919-1313.9363 108.24521-1316.3654 108.37123-1318.7944 108.57336-1322.6967 108.69939-1325.1338 108.82541-1327.5709 109.02751-1331.4854 109.15355-1333.9307 109.27957-1336.376 109.48167-1340.3046 109.6077-1342.7579 109.73372-1345.2113 109.93585-1349.1515 110.06187-1351.6129 110.1879-1354.0742 110.39001-1358.0285 110.51604-1360.498 110.64206-1362.9677 110.84418-1366.9342 110.97021-1369.4118 111.09624-1371.8894 111.29834-1375.8693 111.42436-1378.355 111.55038-1380.8406 111.7525-1384.833 111.87852-1387.3267 112.00455-1389.8203 112.20668-1393.8259 112.3327-1396.3278 112.45872-1398.8296 112.66084-1402.8484 112.78687-1405.3583 112.91289-1407.8682 113.24101-1414.4174 113.24101-1414.4174"/>
<path transform="matrix(1.00009,0,0,-1.00003,120.56023,131.12454)" stroke-width=".79701" stroke-linecap="butt" stroke-miterlimit="10" stroke-linejoin="miter" fill="none" stroke="#0000ff" d="M-113.38724-481.89579C-113.38724-481.89579-113.05908-477.9639-112.93306-476.45964-112.80704-474.9553-112.60492-472.54988-112.4789-471.05378-112.35287-469.55763-112.15074-467.16456-112.02472-465.67646-111.8987-464.18836-111.6966-461.8086-111.57057-460.32856-111.44453-458.8485-111.24243-456.4812-111.11641-455.0092-110.99039-453.5372-110.78825-451.18309-110.66223-449.71925-110.53621-448.2554-110.33409-445.91456-110.20807-444.4587-110.08205-443.00294-109.87993-440.6745-109.75389-439.22676-109.62787-437.779-109.42577-435.46379-109.29974-434.0242-109.17372-432.5846-108.9716-430.2826-108.84558-428.85105-108.71956-427.41947-108.51743-425.12995-108.3914-423.70643-108.26538-422.28288-108.06328-420.0066-107.93724-418.59123-107.81122-417.17588-107.60912-414.91276-107.4831-413.50544-107.35706-412.0981-107.15494-409.8475-107.02892-408.4482-106.9029-407.04893-106.70078-404.8116-106.57475-403.42039-106.44873-402.02915-106.2466-399.8043-106.12057-398.4211-105.99455-397.0379-105.79245-394.8263-105.66643-393.45127-105.54039-392.0762-105.33829-389.87767-105.21227-388.5108-105.08624-387.14393-104.88411-384.9586-104.75809-383.59977-104.63206-382.24095-104.42995-380.06819-104.30392-378.7173-104.1779-377.36637-103.9758-375.2061-103.84976-373.86335-103.72374-372.52058-103.52162-370.37425-103.3956-369.03968-103.26958-367.70509-103.06746-365.5712-102.94144-364.24455-102.81541-362.9179-102.61328-360.79649-102.48726-359.47798-102.36124-358.1595-102.15913-356.05204-102.0331-354.7417-101.90707-353.43138-101.70497-351.33638-101.57895-350.03395-101.45291-348.73155-101.2508-346.649-101.12477-345.35475-100.99875-344.0605-100.79663-341.99205-100.67061-340.70585-100.54459-339.41963-100.34245-337.36277-100.21643-336.0846-100.09041-334.80644-99.8883-332.76368-99.76228-331.49366-99.63625-330.22367-99.43414-328.19319-99.30812-326.93125-99.1821-325.66929-98.97997-323.652-98.85394-322.39823-98.72792-321.1444-98.5258-319.1404-98.39978-317.89466-98.27376-316.64888-98.07166-314.65745-97.94562-313.4196-97.8196-312.18177-97.61748-310.2028-97.49146-308.9731-97.36543-307.74345-97.16331-305.7784-97.0373-304.5569-96.91127-303.3354-96.70914-301.3827-96.58311-300.16926-96.45709-298.95579-96.25499-297.01643-96.12895-295.811-96.00293-294.60557-95.80083-292.67869-95.6748-291.4813-95.54877-290.2839-95.34665-288.3702-95.22063-287.18098-95.0946-285.9918-94.89249-284.09129-94.76646-282.9101-94.64044-281.72895-94.43832-279.8409-94.3123-278.66777-94.18628-277.49464-93.98416-275.61997-93.85814-274.45487-93.7321-273.28977-93.53-271.42744-93.40398-270.27049-93.27795-269.11354-93.07582-267.26518-92.9498-266.1164-92.82378-264.9676-92.62166-263.13169-92.49564-261.99085-92.36961-260.84999-92.16751-259.02668-92.04147-257.89384-91.91545-256.76103-91.71333-254.95092-91.58731-253.82625-91.46129-252.7016-91.25917-250.90457-91.13315-249.78807-91.00713-248.67159-90.805-246.88777-90.67897-245.77931-90.55295-244.67087-90.35085-242.89965-90.22481-241.7991-90.09879-240.69858-89.89668-238.9398-89.77066-237.84745-89.64462-236.75507-89.4425-235.01026-89.31648-233.92604-89.19046-232.84185-88.98834-231.10936-88.86232-230.0332-88.7363-228.95703-88.53418-227.2379-88.40816-226.16979-88.28214-225.10166-88.08002-223.39498-87.954-222.3349-87.82796-221.27483-87.62585-219.58145-87.49983-218.52942-87.37381-217.47739-87.17168-215.79637-87.04565-214.7525-86.91963-213.70864-86.71751-212.04157-86.59149-211.00586-86.46547-209.97014-86.26337-208.31555-86.13733-207.28775-86.0113-206.25997-85.80919-204.61797-85.68317-203.59822-85.55714-202.57848-85.35503-200.94966-85.229-199.93807-85.10298-198.92649-84.90086-197.31078-84.77484-196.30736-84.64882-195.30393-84.4467-193.70143-84.32066-192.70606-84.19464-191.71067-83.99254-190.12062-83.86652-189.13329-83.74048-188.14594-83.53836-186.56922-83.41234-185.58992-83.28632-184.61063-83.0842-183.04637-82.95818-182.07512-82.83215-181.10387-82.63004-179.55283-82.50401-178.58974-82.37799-177.62665-82.17587-176.08879-82.04985-175.13375-81.92381-174.1787-81.72171-172.65334-81.59569-171.70633-81.46967-170.75933-81.26753-169.24715-81.14151-168.3083-81.01549-167.36946-80.81337-165.8705-80.68735-164.9397-80.56133-164.0089-80.35922-162.5224-80.23318-161.59964-80.10716-160.67688-79.90504-159.2036-79.77902-158.289-79.653-157.3744-79.45088-155.9143-79.32486-155.00775-79.19884-154.1012-78.99672-152.6536-78.8707-151.75508-78.74467-150.85657-78.54254-149.42217-78.41652-148.5318-78.2905-147.64144-78.0884-146.22026-77.96237-145.33795-77.83633-144.45563-77.63422-143.04692-77.5082-142.17264-77.38217-141.29836-77.18005-139.90297-77.05403-139.03673-76.92801-138.17049-76.72589-136.78759-76.59987-135.92938-76.47385-135.07118-76.27173-133.70146-76.1457-132.85144-76.01967-132.0014-75.81757-130.6449-75.69154-129.8029-75.56552-128.9609-75.3634-127.61688-75.23738-126.78293-75.11136-125.94897-74.90923-124.61815-74.7832-123.79236-74.65718-122.96658-74.45508-121.64894-74.32904-120.8312-74.20302-120.01346-74.0009-118.7083-73.87488-117.8986-73.74886-117.0889-73.54674-115.79694-73.42072-114.9954-73.2947-114.19386-73.09258-112.91512-72.96655-112.12163-72.84053-111.32813-72.6384-110.06184-72.51237-109.27638-72.38635-108.49094-72.18425-107.23785-72.05823-106.46056-71.93219-105.68326-71.73007-104.4434-71.60405-103.67415-71.47803-102.9049-71.27591-101.67749-71.14989-100.91629-71.02386-100.15508-70.82175-98.94101-70.69572-98.18784-70.5697-97.43468-70.36758-96.23294-70.24156-95.48793-70.11552-94.74294-69.91342-93.55528-69.7874-92.81831-69.66138-92.08136-69.45926-90.90529-69.33324-90.17636-69.20721-89.44745-69.00508-88.28546-68.87906-87.56471-68.75304-86.84395-68.55093-85.6943-68.4249-84.9816-68.29887-84.26888-68.09676-83.13255-67.97073-82.42789-67.84471-81.72322-67.6426-80.59937-67.51657-79.90273-67.39055-79.2061-67.18843-78.09544-67.06241-77.40698-66.93639-76.7185-66.73425-75.62108-66.60823-74.94066-66.48221-74.26022-66.2801-73.17525-66.15408-72.50287-66.02805-71.83047-65.82594-70.75871-65.69992-70.0945-65.5739-69.43027-65.37177-68.3717-65.24574-67.71553-65.11972-67.05936-64.9176-66.01326-64.79158-65.36513-64.66556-64.717-64.46344-63.68422-64.33742-63.04413-64.21138-62.40404-64.00928-61.38362-63.88326-60.75168-63.75723-60.11972-63.55511-59.1134-63.4291-58.4895-63.30307-57.8656-63.10094-56.87085-62.97491-56.255-62.84889-55.63916-62.64679-54.6585-62.52075-54.0508-62.39473-53.4431-62.19261-52.4748-62.06659-51.87514-61.94057-51.27548-61.73845-50.32048-61.61243-49.72887-61.4864-49.13725-61.28429-48.19475-61.15826-47.61118-61.03224-47.0276-60.83011-46.09828-60.70409-45.52287-60.57806-44.94746-60.37596-44.03137-60.24994-43.464-60.1239-42.89664-59.9218-41.993-59.79578-41.43367-59.66975-40.87434-59.46762-39.9839-59.3416-39.43274-59.21558-38.88158-59.01346-38.00436-58.88744-37.46124-58.76141-36.91812-58.5593-36.05336-58.43326-35.51828-58.30724-34.9832-58.10513-34.13164-57.97911-33.60472-57.85309-33.0778-57.65097-32.23947-57.52495-31.7206-57.39893-31.20172-57.1968-30.37584-57.07077-29.865-56.94475-29.35417-56.74265-28.54149-56.61661-28.03882-56.49059-27.53616-56.28848-26.73668-56.16246-26.24207-56.03644-25.74744-55.8343-24.96043-55.70828-24.47386-55.58226-23.98727-55.38014-23.2136-55.25412-22.73505-55.1281-22.25652-54.92596-21.49529-54.79994-21.02478-54.67392-20.55429-54.47182-19.80629-54.3458-19.34395-54.21976-18.8816-54.01765-18.14682-53.89163-17.69252-53.76561-17.23824-53.56348-16.5159-53.43745-16.06964-53.31143-15.62338-53.10931-14.91426-52.98329-14.47617-52.85727-14.03807-52.65515-13.34216-52.52911-12.91211-52.40309-12.48206-52.20099-11.79861-52.07497-11.3766-51.94894-10.9546-51.74683-10.28435-51.6208-9.8705-51.49478-9.45665-51.29265-8.7996-51.16663-8.39381-51.0406-7.988-50.8385-7.34344-50.71246-6.94568-50.58644-6.54793-50.38434-5.91656-50.25832-5.52696-50.1323-5.13734-49.93016-4.5192-49.80414-4.13763-49.67812-3.75609-49.476-3.15039-49.34998-2.77687-49.22395-2.40337-49.02182-1.811-48.8958-1.44553-48.76978-1.08006-48.56767-.50015-48.44165-.14273-48.31561 .21469-48.11351 .78137-47.98749 1.13065-47.86147 1.4799-47.65933 2.0335-47.53331 2.37462-47.40729 2.71573-47.20517 3.2561-47.07915 3.58917-46.95313 3.92226-46.75102 4.45006-46.62498 4.7752-46.49896 5.10036-46.29684 5.61568-46.17082 5.93268-46.0448 6.24966-45.84268 6.75104-45.71666 7.05986-45.59064 7.3687-45.3885 7.85773-45.26248 8.15851-45.13646 8.4593-44.93436 8.935-44.80832 9.22775-44.6823 9.5205-44.4802 9.98373-44.35417 10.26845-44.22815 10.55315-44.02602 11.00305-43.9 11.27971-43.77397 11.55637-43.57185 11.99394-43.44583 12.26244-43.31981 12.53094-43.11768 12.95456-42.99165 13.21489-42.86563 13.47522-42.66353 13.88638-42.5375 14.1388-42.41147 14.3912-42.20937 14.78976-42.08334 15.03413-41.95732 15.27852-41.75519 15.66386-41.62917 15.90007-41.50314 16.13629-41.30103 16.50856-41.175 16.73662-41.04898 16.96466-40.84688 17.32373-40.72084 17.54373-40.59482 17.76373-40.3927 18.11021-40.26668 18.3223-40.14066 18.53438-39.93854 18.8684-39.81252 19.07231-39.6865 19.27625-39.48436 19.5963-39.35834 19.79205-39.23232 19.98781-39.03021 20.29555-38.90417 20.48326-38.77815 20.67097-38.57605 20.96536-38.45003 21.14503-38.32399 21.3247-38.12187 21.60664-37.99585 21.77827-37.86983 21.9499-37.66771 22.21863-37.54169 22.3821-37.41566 22.54556-37.21355 22.80107-37.08752 22.9565-36.9615 23.11192-36.75938 23.355-36.63336 23.50237-36.50732 23.64975-36.30522 23.87947-36.1792 24.01881-36.05318 24.15816-35.85104 24.37555-35.72502 24.50673-35.599 24.6379-35.39688 24.84134-35.27086 24.96434-35.14484 25.08736-34.94273 25.27834-34.8167 25.39342-34.69067 25.50851-34.48856 25.68689-34.36253 25.79395-34.23651 25.901-34.0344 26.06618-33.90837 26.16507-33.78235 26.26398-33.58022 26.41594-33.4542 26.50679-33.32817 26.59763-33.12607 26.73724-33.00003 26.81993-32.87401 26.90262-32.6719 27.02815-32.54588 27.10281-32.41985 27.17746-32.21773 27.29141-32.0917 27.35802-31.96568 27.42464-31.76357 27.52448-31.63754 27.58293-31.51152 27.64139-31.3094 27.72879-31.18338 27.77931-31.05736 27.82983-30.85524 27.90475-30.72922 27.94713-30.60318 27.9895-30.40108 28.05048-30.27505 28.08467-30.14903 28.11888-29.9469 28.16739-29.82088 28.19368-29.69485 28.21996-29.49274 28.256-29.36671 28.27412-29.24069 28.29224-29.03859 28.31435-28.91255 28.32431-28.78653 28.33426-28.58441 28.3439-28.45839 28.34593-28.33237 28.34798-28.13025 28.34499-28.00423 28.339-27.8782 28.33301-27.67609 28.31682-27.55006 28.30267-27.42404 28.28851-27.22192 28.25925-27.09589 28.23694-26.96986 28.21461-26.76776 28.17213-26.64174 28.14177-26.5157 28.11142-26.31358 28.05646-26.18756 28.01807-26.06154 27.97966-25.85942 27.91139-25.7334 27.86494-25.60738 27.8185-25.40526 27.73776-25.27924 27.68329-25.15321 27.6288-24.9511 27.53485-24.82507 27.4722-24.69904 27.40956-24.49693 27.3024-24.37091 27.2317-24.24489 27.16101-24.04277 27.04141-23.91675 26.96268-23.79073 26.88394-23.5886 26.75111-23.46257 26.66422-23.33655 26.57732-23.13445 26.43129-23.0084 26.33635-22.88239 26.24142-22.68027 26.08292-22.55424 25.97995-22.42822 25.87697-22.2261 25.70526-22.10008 25.59412-21.97406 25.48297-21.77194 25.29808-21.64592 25.1789-21.5199 25.05971-21.31778 24.86232-21.19174 24.7351-21.06572 24.60788-20.86362 24.39717-20.7376 24.2619-20.61156 24.12665-20.40944 23.90347-20.28342 23.76016-20.1574 23.61685-19.95528 23.38048-19.82925 23.229-19.70323 23.07755-19.50111 22.82808-19.37509 22.66844-19.24907 22.5088-19.04695 22.24612-18.92093 22.07845-18.79489 21.91077-18.59279 21.63564-18.46677 21.45993-18.34074 21.28423-18.13863 20.99574-18.0126 20.81198-17.88658 20.62822-17.68445 20.3273-17.55843 20.1355-17.4324 19.9437-17.2303 19.62956-17.10426 19.4296-16.97824 19.22963-16.77612 18.90227-16.6501 18.69427-16.52408 18.48628-16.32196 18.14645-16.19594 17.93042-16.06992 17.71439-15.8678 17.36134-15.74178 17.13713-15.61575 16.91293-15.41364 16.54669-15.2876 16.31445-15.16158 16.08221-14.95947 15.7035-14.83345 15.46321-14.70741 15.22293-14.50531 14.83101-14.37929 14.58257-14.25327 14.33412-14.05113 13.929-13.92511 13.67252-13.79909 13.41603-13.59697 12.99843-13.47095 12.7339-13.34492 12.46938-13.1428 12.03845-13.01678 11.76588-12.89075 11.49332-12.68864 11.04993-12.56262 10.76932-12.4366 10.48871-12.23448 10.03212-12.10846 9.74333-11.98244 9.45456-11.7803 8.98488-11.65428 8.68794-11.52826 8.39099-11.32616 7.90813-11.20012 7.60313-11.0741 7.29816-10.87198 6.80267-10.74596 6.48978-10.61993 6.17688-10.41782 5.66895-10.2918 5.34789-10.16577 5.02681-9.96365 4.50493-9.83763 4.1757-9.71161 3.84647-9.50949 3.31212-9.38345 2.97498-9.25743 2.63782-9.05533 2.09102-8.9293 1.74571-8.80327 1.4004-8.60117 .83963-8.47514 .48615-8.34912 .13268-8.14699-.44052-8.02097-.80191-7.89494-1.16331-7.69283-1.749-7.5668-2.11856-7.44078-2.48811-7.23866-3.08788-7.11264-3.46548-6.9866-3.84308-6.7845-4.45445-6.65848-4.84009-6.53246-5.22574-6.33034-5.85115-6.20432-6.24496-6.0783-6.63878-5.87616-7.27655-5.75014-7.6784-5.62411-8.08026-5.42201-8.73123-5.29597-9.14125-5.16995-9.55125-4.96785-10.21545-4.84183-10.6335-4.7158-11.05156-4.51367-11.72833-4.38765-12.15431-4.26163-12.58028-4.05951-13.26952-3.93349-13.70364-3.80746-14.13779-3.60535-14.84099-3.47931-15.28328-3.35329-15.72559-3.15118-16.44113-3.02516-16.89146-2.89912-17.34178-2.69702-18.07066-2.571-18.52905-2.44498-18.98743-2.24284-19.72876-2.11682-20.19518-1.9908-20.6616-1.78868-21.41615-1.66266-21.89073-1.53664-22.36531-1.33452-23.13307-1.2085-23.61569-1.08246-24.09831-.88036-24.87854-.75433-25.3692-.62831-25.85986-.4262-26.65343-.30017-27.15213-.17415-27.65082 .02795-28.45673 .15398-28.9636 .28-29.47046 .4821-30.29031 .60814-30.80534 .73416-31.32037 .93626-32.1527 1.06229-32.67564 1.18831-33.1986 1.39044-34.04349 1.51646-34.57448 1.64249-35.10547 1.8446-35.96358 1.97063-36.50273 2.09665-37.04189 2.29878-37.91309 2.4248-38.4604 2.55083-39.00772 2.75293-39.8921 2.87895-40.44746 3.00499-41.00282 3.20709-41.89983 3.33311-42.4631 3.45914-43.02638 3.66127-43.93584 3.7873-44.50728 3.91331-45.07872 4.11543-46.00212 4.24146-46.58173 4.36748-47.16133 4.56958-48.09721 4.6956-48.68474 4.82164-49.27226 5.02376-50.2206 5.14978-50.81628 5.2758-51.41197 5.47792-52.37424 5.60394-52.9781 5.72997-53.58195 5.9321-54.5567 6.05812-55.16847 6.18414-55.78024 6.38625-56.76746 6.51228-57.3874 6.6383-58.00734 6.84041-59.0085 6.96643-59.6366 7.09245-60.2647 7.29459-61.27832 7.42061-61.91434 7.54663-62.55035 7.74875-63.57657 7.87477-64.22063 8.0008-64.86469 8.20293-65.90411 8.32895-66.55634 8.45497-67.20856 8.65707-68.26108 8.7831-68.92146 8.90913-69.58185 9.11124-70.64755 9.23726-71.31598 9.36328-71.98442 9.56541-73.06259 9.69144-73.73906 9.81746-74.41553 10.01958-75.50703 10.1456-76.19154 10.27162-76.87607 10.47372-77.98003 10.59975-78.67259 10.72578-79.36514 10.9279-80.48232 11.05392-81.18304 11.17995-81.88376 11.38206-83.01413 11.50809-83.7229 11.63411-84.43166 11.83624-85.57451 11.96227-86.29132 12.08829-87.00812 12.29039-88.16418 12.41643-88.88913 12.54245-89.61409 12.74455-90.78337 12.87057-91.51637 12.9966-92.24939 13.19873-93.43112 13.32475-94.17216 13.45078-94.9132 13.6529-96.10814 13.77892-96.85735 13.90494-97.60654 14.10706-98.81473 14.23308-99.57196 14.3591-100.32921 14.56122-101.54984 14.68724-102.31511 14.81328-103.0804 15.01538-104.31436 15.1414-105.08768 15.26743-105.86101 15.46956-107.10732 15.59558-107.8888 15.7216-108.67029 15.92372-109.93066 16.04974-110.7202 16.17577-111.50972 16.37787-112.78171 16.50389-113.57928 16.62993-114.37685 16.83205-115.66289 16.95807-116.46863 17.08409-117.27437 17.28621-118.57275 17.41223-119.38652 17.53825-120.2003 17.74039-121.51202 17.86641-122.33383 17.99243-123.15565 18.19453-124.47984 18.32057-125.30971 18.4466-126.13956 18.6487-127.47696 18.77472-128.31499 18.90074-129.153 19.10287-130.5036 19.2289-131.34966 19.35492-132.19573 19.55704-133.55878 19.68306-134.41289 19.80908-135.267 20.0112-136.64327 20.13722-137.50554 20.26324-138.36782 20.46536-139.75728 20.59138-140.6276 20.71742-141.49791 20.91953-142.89986 21.04555-143.77822 21.17157-144.65656 21.3737-146.07172 21.49973-146.95824 21.62575-147.84476 21.82787-149.2731 21.95389-150.16767 22.07991-151.06223 22.28201-152.50304 22.40805-153.40564 22.53407-154.30825 22.73619-155.76238 22.86221-156.67302 22.98824-157.58367 23.19035-159.05016 23.31638-159.96897 23.4424-160.88777 23.64452-162.36835 23.77054-163.2952 23.89656-164.22205 24.09868-165.71419 24.22472-166.64908 24.35074-167.58397 24.55284-169.09021 24.67886-170.03327 24.80489-170.97632 25.00702-172.49489 25.13304-173.446 25.25906-174.3971 25.46118-175.92899 25.5872-176.88814 25.71323-177.84728 25.91534-179.39163 26.04137-180.35881 26.16739-181.326 26.3695-182.88356 26.49553-183.8589 26.62157-184.83425 26.82367-186.40505 26.94969-187.38843 27.07571-188.37181 27.27785-189.95505 27.40387-190.94647 27.52989-191.93791 27.73201-193.53437 27.85803-194.53395 27.98405-195.53354 28.18616-197.14322 28.3122-198.15084 28.43822-199.15845 28.64034-200.7806 28.76636-201.79625 28.89238-202.8119 29.0945-204.44739 29.22052-205.4711 29.34654-206.49481 29.54866-208.14263 29.67468-209.17449 29.8007-210.20635 30.00282-211.86823 30.12886-212.90816 30.25488-213.94808 30.45699-215.62157 30.58301-216.66953 30.70903-217.71747 30.91116-219.40503 31.03719-220.46114 31.16321-221.51725 31.36533-223.21717 31.49135-224.28131 31.61737-225.34548 31.81949-227.0587 31.94551-228.1309 32.07153-229.2031 32.27365-230.9288 32.39967-232.00905 32.52571-233.08928 32.72781-234.82819 32.85384-235.9166 32.97986-237.00499 33.18198-238.75711 33.308-239.85356 33.43402-240.95 33.63615-242.71457 33.76218-243.81905 33.8882-244.92354 34.0903-246.70133 34.21634-247.81398 34.34236-248.92662 34.54448-250.71762 34.6705-251.8383 34.79652-252.959 34.99864-254.76245 35.12466-255.89119 35.25069-257.0199 35.4528-258.83659 35.57883-259.97349 35.70485-261.11039 35.90697-262.94026 36.033-264.0852 36.15903-265.23014 36.36113-267.07246 36.48715-268.22547 36.61317-269.37843 36.8153-271.2341 36.94133-272.3951 37.06735-273.55613 37.26947-275.42417 37.3955-276.59336 37.52151-277.7625 37.72363-279.6446 37.84966-280.8218 37.97568-281.99906 38.1778-283.89274 38.30382-285.078 38.42986-286.26329 38.63196-288.171 38.75798-289.36445 38.884-290.55787 39.08612-292.47798 39.21214-293.67945 39.33817-294.88093 39.5403-296.81434 39.66632-298.02388 39.79234-299.23338 39.99445-301.17924 40.12048-302.3968 40.2465-303.61436 40.44862-305.57347 40.57465-306.7992 40.70067-308.0249 40.90279-309.99723 41.02881-311.23097 41.15483-312.46473 41.35695-314.4495 41.48297-315.6913 41.609-316.9331 41.81111-318.9311 41.93715-320.18104 42.06317-321.431 42.26527-323.4422 42.3913-324.7002 42.51733-325.9582 42.71944-327.98188 42.84546-329.24794 42.97148-330.51396 43.17361-332.5508 43.29964-333.82505 43.42566-335.09925 43.62778-337.14933 43.7538-338.43156 43.87982-339.7138 44.08194-341.77635 44.20796-343.06663 44.334-344.3569 44.5361-346.4328 44.66212-347.7311 44.78815-349.02946 44.99026-351.1178 45.11629-352.42417 45.24231-353.73054 45.44444-355.8321 45.57047-357.1466 45.69649-358.46116 45.89859-360.57579 46.02463-361.89848 46.15065-363.22117 46.35277-365.349 46.47879-366.67973 46.60481-368.01048 46.80693-370.1509 46.93295-371.48957 47.05898-372.82823 47.2611-374.9811 47.38712-376.32795 47.51314-377.67475 47.71526-379.8416 47.8413-381.1966 47.96732-382.55158 48.16942-384.73088 48.29544-386.09379 48.42148-387.45668 48.62358-389.64845 48.7496-391.01954 48.87563-392.3906 49.07776-394.5963 49.20378-395.97554 49.3298-397.35478 49.53192-399.57295 49.65794-400.9601 49.78397-402.34727 49.98608-404.5779 50.1121-405.9732 50.23814-407.36854 50.44025-409.61326 50.56627-411.01664 50.69229-412.41999 50.89441-414.67628 51.02043-416.08769 51.14645-417.49909 51.34859-419.7695 51.47461-421.18904 51.60063-422.6086 51.80273-424.89134 51.92877-426.31895 52.0548-427.74656 52.2569-430.04264 52.38292-431.47828 52.50894-432.9139 52.71107-435.2223 52.8371-436.6661 52.96312-438.10993 53.16524-440.4324 53.29126-441.88426 53.41728-443.3361 53.6194-445.6702 53.74544-447.13008 53.87146-448.58998 54.07356-450.9381 54.19958-452.40617 54.32562-453.8742 54.52773-456.23475 54.65375-457.71083 54.77977-459.18693 54.9819-461.56077 55.10793-463.0449 55.23395-464.52903 55.43607-466.9153 55.56209-468.4075 55.68811-469.89967 55.89023-472.29917 56.01625-473.7995 56.14229-475.29985 56.34439-477.71257 56.47041-479.22096 56.59644-480.7293 56.79855-483.15449 56.92458-484.6709 57.0506-486.18733 57.25273-488.62586 57.37875-490.1503 57.50478-491.6748 57.70688-494.1256 57.83292-495.65827 57.95894-497.1909 58.16104-499.6558 58.28706-501.19648 58.41309-502.73716 58.61522-505.21369 58.74124-506.76237 58.86726-508.31108 59.06938-510.80168 59.1954-512.3585 59.32143-513.9154 59.52354-516.4184 59.64958-517.9833 59.7756-519.54818 59.9777-522.06448 60.10373-523.6374 60.22977-525.2103 60.43187-527.73898 60.55789-529.32009 60.68391-530.9012 60.88605-533.4439 61.01207-535.033 61.13809-536.6222 61.34021-539.1765 61.46623-540.7737 61.59225-542.37088 61.79436-544.9393 61.92038-546.5446 62.04642-548.14999 62.24854-550.7308 62.37456-552.3441 62.50058-553.9574 62.7027-556.55068 62.82872-558.1721 62.95474-559.7935 63.15688-562.4008 63.2829-564.0304 63.40892-565.66 63.61102-568.2797 63.73706-569.91726 63.86308-571.55477 64.06519-574.18698 64.19121-575.83267 64.31723-577.47836 64.51936-580.1246 64.64539-581.7783 64.77141-583.432 64.97353-586.08987 65.09955-587.75167 65.22557-589.4134 65.42767-592.0853 65.55371-593.75527 65.67973-595.4252 65.88185-598.10946 66.00787-599.7874 66.13391-601.4654 66.33601-604.1629 66.46204-605.84909 66.58806-607.53518 66.79019-610.24588 66.91621-611.94 67.04224-613.6342 67.24435-616.3575 67.37038-618.0596 67.4964-619.7617 67.6985-622.4974 67.82452-624.20767 67.95056-625.91799 68.15268-628.6676 68.2787-630.38607 68.40472-632.1045 68.60684-634.8665 68.73286-636.59298 68.85889-638.31948 69.06102-641.0948 69.18704-642.8293 69.31306-644.5638 69.51517-647.3516 69.6412-649.0942 69.76723-650.83676 69.96933-653.63778 70.09535-655.3885 70.22137-657.13919 70.42351-659.9534 70.54953-661.71218 70.67555-663.47097 70.87767-666.2976 71.0037-668.06448 71.12971-669.83126 71.33182-672.67117 71.45786-674.4461 71.58388-676.22109 71.786-679.07418 71.91202-680.8572 72.03806-682.6402 72.24016-685.50576 72.36618-687.2968 72.4922-689.0878 72.69434-691.96676 72.82036-693.76589 72.94638-695.56497 73.1485-698.4563 73.27452-700.2634 73.40054-702.07058 73.60265-704.97518 73.72867-706.7904 73.8547-708.6057 74.05682-711.5234 74.18285-713.3468 74.30887-715.1703 74.51099-718.1012 74.63701-719.9327 74.76303-721.76419 74.96515-724.7075 75.09117-726.54708 75.2172-728.38656 75.41931-731.3432 75.54535-733.1908 75.67137-735.0384 75.87347-738.00759 75.9995-739.86318 76.12552-741.71878 76.32765-744.7011 76.45367-746.5649 76.5797-748.42868 76.78181-751.4242 76.90784-753.296 77.03386-755.16787 77.23596-758.17587 77.362-760.0557 77.48802-761.9356 77.69014-764.95687 77.81616-766.84487 77.9422-768.7329 78.1443-771.76736 78.27032-773.6634 78.39635-775.55947 78.59848-778.6064 78.7245-780.5105 78.85052-782.41458 79.05264-785.4748 79.17867-787.38699 79.30469-789.2991 79.50679-792.37167 79.63281-794.292 79.75885-796.2123 79.96097-799.2988 80.08699-801.2273 80.21301-803.15579 80.41513-806.25479 80.54115-808.19119 80.66718-810.12759 80.8693-813.23916 80.99532-815.18356 81.12134-817.128 81.32346-820.2528 81.4495-822.2054 81.57552-824.158 81.77762-827.296 81.90364-829.25668 82.02966-831.2173 82.2318-834.3676 82.35782-836.3364 82.48384-838.30526 82.68596-841.46969 82.81198-843.4465 82.938-845.42337 83.1401-848.5993 83.26614-850.5842 83.39217-852.5691 83.59428-855.7592 83.7203-857.75228 83.84634-859.7453 84.04845-862.9478 84.17447-864.9488 84.30049-866.94979 84.50261-870.1648 84.62863-872.17398 84.75465-874.18307 84.95679-877.412 85.08281-879.4293 85.20883-881.4466 85.41093-884.68807 85.53696-886.71328 85.663-888.73849 85.86511-891.9925 85.99113-894.02578 86.11716-896.059 86.31927-899.32626 86.4453-901.3677 86.57132-903.40908 86.77344-906.68936 86.89946-908.73898 87.02548-910.7885 87.2276-914.08206 87.35364-916.1397 87.47966-918.1973 87.68176-921.5033 87.80779-923.569 87.9338-925.63467 88.13594-928.9539 88.26196-931.02767 88.38799-933.1014 88.5901-936.433 88.71613-938.51486 88.84215-940.59677 89.04427-943.94247 89.17029-946.0324 89.29631-948.12228 89.49843-951.4796 89.62445-953.5776 89.75049-955.67556 89.95259-959.04696 90.07861-961.1531 90.20464-963.25918 90.40675-966.6429 90.53278-968.7571 90.6588-970.8712 90.86093-974.2683 90.98695-976.3905 91.11298-978.5127 91.31508-981.92227 91.4411-984.0525 91.56714-986.18276 91.76926-989.60549 91.89528-991.7439 92.0213-993.88229 92.22342-997.3182 92.34944-999.46469 92.47546-1001.6111 92.67758-1005.0595 92.8036-1007.214 92.92963-1009.36849 93.13174-1012.83029 93.25778-1014.9928 93.3838-1017.1553 93.5859-1020.6294 93.71193-1022.8001 93.83795-1024.9708 94.04007-1028.459 94.16609-1030.6377 94.29211-1032.8164 94.49425-1036.3162 94.62027-1038.5029 94.74629-1040.6897 94.94841-1044.2035 95.07443-1046.3984 95.20045-1048.5934 95.40257-1052.1196 95.5286-1054.3226 95.65463-1056.5255 95.85674-1060.0651 95.98276-1062.2761 96.10878-1064.487 96.3109-1068.039 96.43692-1070.2582 96.56294-1072.4773 96.76508-1076.0432 96.8911-1078.2705 97.01712-1080.4977 97.21922-1084.0752 97.34525-1086.3106 97.47128-1088.5458 97.6734-1092.1373 97.79942-1094.3809 97.92545-1096.6243 98.12756-1100.2283 98.25359-1102.4796 98.37961-1104.731 98.58173-1108.3475 98.70775-1110.607 98.83377-1112.8666 99.03589-1116.4971 99.16193-1118.7647 99.28795-1121.0324 99.49005-1124.6753 99.61607-1126.9509 99.7421-1129.2266 99.94421-1132.882 100.07024-1135.1657 100.19626-1137.4495 100.39839-1141.1188 100.52441-1143.4107 100.65044-1145.7026 100.85255-1149.3844 100.97858-1151.6843 101.1046-1153.9841 101.30672-1157.6786 101.43274-1159.9865 101.55878-1162.2943 101.76088-1166.002 101.8869-1168.318 102.01292-1170.634 102.21504-1174.3547 102.34106-1176.679 102.46709-1179.0032 102.66922-1182.737 102.79524-1185.0693 102.92126-1187.4016 103.12337-1191.148 103.24939-1193.4882 103.37543-1195.8285 103.57753-1199.5883 103.70355-1201.9365 103.82957-1204.2849 104.03171-1208.057 104.15773-1210.4135 104.28375-1212.7698 104.48587-1216.5552 104.6119-1218.9198 104.73792-1221.2843 104.94003-1225.0829 105.06607-1227.4555 105.1921-1229.828 105.3942-1233.639 105.52022-1236.0197 105.64624-1238.4004 105.84836-1242.2246 105.97438-1244.6134 106.1004-1247.0022 106.30254-1250.8396 106.42856-1253.2365 106.55458-1255.6333 106.7567-1259.4832 106.88272-1261.8881 107.00874-1264.293 107.21086-1268.1561 107.33688-1270.5691 107.46292-1272.9822 107.66502-1276.8585 107.79105-1279.2796 107.91707-1281.7006 108.11919-1285.5895 108.24521-1288.0186 108.37123-1290.4476 108.57336-1294.3499 108.69939-1296.787 108.82541-1299.2241 109.02751-1303.1386 109.15355-1305.5839 109.27957-1308.0292 109.48167-1311.9578 109.6077-1314.4111 109.73372-1316.8645 109.93585-1320.8047 110.06187-1323.266 110.1879-1325.7274 110.39001-1329.6817 110.51604-1332.1513 110.64206-1334.6209 110.84418-1338.5874 110.97021-1341.065 111.09624-1343.5426 111.29834-1347.5225 111.42436-1350.0082 111.55038-1352.4938 111.7525-1356.4862 111.87852-1358.9799 112.00455-1361.4735 112.20668-1365.4791 112.3327-1367.981 112.45872-1370.4828 112.66084-1374.5016 112.78687-1377.0115 112.91289-1379.5214 113.24101-1386.0706 113.24101-1386.0706"/>
</g>
<use data-text="&#x2022;" xlink:href="#font_3_2" transform="matrix(9.963496,0,0,-9.962899,89.72045,104.99075)"/>
<use data-text="(" xlink:href="#font_4_1" transform="matrix(9.963496,0,0,-9.962899,77.265338,96.76651)"/>
<use data-text="&#x2212;" xlink:href="#font_3_1" transform="matrix(9.963496,0,0,-9.962899,81.140689,96.76651)"/>
<use data-text="1" xlink:href="#font_4_4" transform="matrix(9.963496,0,0,-9.962899,88.88937,96.76651)"/>
<use data-text="," xlink:href="#font_1_1" transform="matrix(9.963496,0,0,-9.962899,93.871829,96.76651)"/>
<use data-text="1" xlink:href="#font_4_4" transform="matrix(9.963496,0,0,-9.962899,98.30022,96.76651)"/>
<use data-text=")" xlink:href="#font_4_2" transform="matrix(9.963496,0,0,-9.962899,103.28195,96.76651)"/>
<use data-text="&#x2022;" xlink:href="#font_3_2" transform="matrix(9.963496,0,0,-9.962899,89.72045,133.33861)"/>
<use data-text="(" xlink:href="#font_4_1" transform="matrix(9.963496,0,0,-9.962899,77.265338,152.08017)"/>
<use data-text="&#x2212;" xlink:href="#font_3_1" transform="matrix(9.963496,0,0,-9.962899,81.140689,152.08017)"/>
<use data-text="1" xlink:href="#font_4_4" transform="matrix(9.963496,0,0,-9.962899,88.88937,152.08017)"/>
<use data-text="," xlink:href="#font_1_1" transform="matrix(9.963496,0,0,-9.962899,93.871829,152.08017)"/>
<use data-text="0" xlink:href="#font_4_3" transform="matrix(9.963496,0,0,-9.962899,98.30022,152.08017)"/>
<use data-text=")" xlink:href="#font_4_2" transform="matrix(9.963496,0,0,-9.962899,103.28195,152.08017)"/>
<use data-text="&#x2022;" xlink:href="#font_3_2" transform="matrix(9.963496,0,0,-9.962899,118.069,161.68647)"/>
<use data-text="(" xlink:href="#font_4_1" transform="matrix(9.963496,0,0,-9.962899,124.08054,161.96247)"/>
<use data-text="0" xlink:href="#font_4_3" transform="matrix(9.963496,0,0,-9.962899,127.94639,161.96247)"/>
<use data-text="," xlink:href="#font_1_1" transform="matrix(9.963496,0,0,-9.962899,132.93735,161.96247)"/>
<use data-text="&#x2212;" xlink:href="#font_3_1" transform="matrix(9.963496,0,0,-9.962899,137.36573,161.96247)"/>
<use data-text="1" xlink:href="#font_4_4" transform="matrix(9.963496,0,0,-9.962899,145.11542,161.96247)"/>
<use data-text=")" xlink:href="#font_4_2" transform="matrix(9.963496,0,0,-9.962899,150.09717,161.96247)"/>
<use data-text="&#x2022;" xlink:href="#font_3_2" transform="matrix(9.963496,0,0,-9.962899,118.069,190.03432)"/>
<use data-text="(" xlink:href="#font_4_1" transform="matrix(9.963496,0,0,-9.962899,124.08054,190.31032)"/>
<use data-text="0" xlink:href="#font_4_3" transform="matrix(9.963496,0,0,-9.962899,127.94639,190.31032)"/>
<use data-text="," xlink:href="#font_1_1" transform="matrix(9.963496,0,0,-9.962899,132.93735,190.31032)"/>
<use data-text="&#x2212;" xlink:href="#font_3_1" transform="matrix(9.963496,0,0,-9.962899,137.36573,190.31032)"/>
<use data-text="2" xlink:href="#font_4_5" transform="matrix(9.963496,0,0,-9.962899,145.11542,190.31032)"/>
<use data-text=")" xlink:href="#font_4_2" transform="matrix(9.963496,0,0,-9.962899,150.09717,190.31032)"/>
</svg>
