<svg xmlns="http://www.w3.org/2000/svg" xmlns:xlink="http://www.w3.org/1999/xlink" version="1.1" width="296" height="296" viewBox="0 0 296 296">
<defs>
<path id="font_1_1" d="M.3039856 .6392822C.3039856 .6642761 .30299378 .666275 .27799989 .666275 .21598816 .60227969 .12399292 .60227969 .09298706 .60227969V.57128909C.11199951 .57128909 .17298889 .57128909 .22698975 .5972748V.08001709C.22698975 .042999269 .22399903 .0309906 .1309967 .0309906H.09899902V0C.1349945 .0029907227 .22399903 .0029907227 .2649994 .0029907227 .30599977 .0029907227 .3959961 .0029907227 .43199159 0V.0309906H.3999939C.30699159 .0309906 .3039856 .042999269 .3039856 .08001709V.6392822Z"/>
<path id="font_2_1" d="M.6749878 .22944641C.69299319 .22944641 .71199038 .22944641 .71199038 .25144959 .71199038 .27246095 .69200137 .27246095 .6749878 .27246095H.12298584C.10598755 .27246095 .085998538 .27246095 .085998538 .25144959 .085998538 .22944641 .10499573 .22944641 .12298584 .22944641H.6749878Z"/>
<path id="font_1_2" d="M.46199037 .17704773H.43399049C.43199159 .16404724 .42399598 .10501099 .41099549 .08900452 .40499879 .07998657 .33599855 .07998657 .31599427 .07998657H.13798523L.23699951 .17404175C.40098573 .3161316 .46199037 .36915589 .46199037 .4711914 .46199037 .5860901 .36698915 .6660156 .24398804 .6660156 .1289978 .6660156 .050994874 .575119 .050994874 .4841919 .050994874 .43418885 .09399414 .42919923 .102996829 .42919923 .125 .42919923 .15499878 .44519044 .15499878 .48120118 .15499878 .51119998 .13398743 .5332031 .102996829 .5332031 .09799194 .5332031 .09498596 .5332031 .09098816 .53219607 .114990238 .6030731 .1789856 .63500979 .23298645 .63500979 .33499146 .63500979 .36999513 .5401764 .36999513 .4711914 .36999513 .36915589 .29299928 .28611756 .24499512 .23408509L.06199646 .035995485C.050994874 .024993897 .050994874 .022994996 .050994874 0H.43399049L.46199037 .17704773Z"/>
<path id="font_1_3" d="M.30499269 .35195924C.397995 .38697816 .44198609 .46006776 .44198609 .5290985 .44198609 .60606387 .35699464 .6660156 .25299073 .6660156 .14898682 .6660156 .070999149 .60705569 .070999149 .5310974 .070999149 .49809266 .09298706 .47909547 .12199402 .47909547 .15098572 .47909547 .17199707 .50009158 .17199707 .5290985 .17199707 .5640869 .147995 .57910159 .11399841 .57910159 .13999939 .6210327 .20098877 .64100649 .25 .64100649 .33299256 .64100649 .34899903 .5750885 .34899903 .52809146 .34899903 .49809266 .34298707 .45005799 .31799317 .41201783 .2869873 .36695863 .2519989 .36495973 .22299195 .36296083 .19799805 .36094667 .19599915 .36094667 .18798828 .36094667 .1789856 .35995484 .17098999 .35894776 .17098999 .34794618 .17098999 .33496095 .1789856 .33496095 .19599915 .33496095H.24299622C.32998658 .33496095 .36799623 .2646637 .36799623 .16937256 .36799623 .04145813 .2999878 .0055389406 .24899292 .0055389406 .22999573 .0055389406 .1329956 .010528564 .08799744 .0843811 .12399292 .07939148 .1519928 .10437012 .1519928 .13838196 .1519928 .17137146 .1269989 .19238281 .09799194 .19238281 .07299805 .19238281 .042999269 .17736817 .042999269 .13537598 .042999269 .046447755 .13598633-.022460938 .2519989-.022460938 .3769989-.022460938 .46998597 .06741333 .46998597 .16937256 .46998597 .25663758 .40098573 .33093263 .30499269 .35195924Z"/>
<path id="font_1_4" d="M.0289917 .19602967V.16503906H.3019867V.07901001C.3019867 .041992189 .29899598 .0309906 .22399903 .0309906H.20199585V0C.2649994 .0029907227 .33499146 .0029907227 .34199525 .0029907227 .34700013 .0029907227 .4189911 .0029907227 .48199464 0V.0309906H.45999146C.3849945 .0309906 .38198854 .041992189 .38198854 .07901001V.16503906H.48399354V.19602967H.38198854V.64974978C.38198854 .669754 .38198854 .6767578 .36299134 .6767578 .35099793 .6767578 .34999085 .67575076 .34098817 .66174319L.0289917 .19602967M.06098938 .19602967 .30799867 .56581118V.19602967H.06098938Z"/>
<path id="font_1_5" d="M.10398865 .3444519C.10398865 .32641603 .10398865 .31539918 .117996219 .31539918 .12599182 .31539918 .1289978 .31941224 .1349945 .32843019 .16499329 .3704834 .21299744 .39453126 .2649994 .39453126 .37199403 .39453126 .37199403 .24029541 .37199403 .20425415 .37199403 .17324829 .37199403 .11125183 .34399415 .06637573 .31698609 .024475098 .2749939 .0055389406 .23599243 .0055389406 .1769867 .0055389406 .10998535 .042434694 .085998538 .116256717 .08699036 .116256717 .09298706 .11425781 .099990848 .11425781 .11999512 .11425781 .14898682 .12724304 .14898682 .16325379 .14898682 .19424439 .1269989 .21224976 .099990848 .21224976 .07899475 .21224976 .050994874 .20025635 .050994874 .1602478 .050994874 .069366458 .1269989-.022460938 .23799134-.022460938 .35899354-.022460938 .46199037 .0753479 .46199037 .19924927 .46199037 .3204193 .37599183 .41952516 .2669983 .41952516 .21899414 .41952516 .16999817 .40351869 .1349945 .36747743V.56477358C.16499329 .5557709 .19599915 .55078127 .22698975 .55078127 .34999085 .55078127 .42199708 .6397705 .42199708 .652771 .42199708 .6617737 .41600038 .6657715 .41099549 .6657715 .40899659 .6657715 .40699769 .6657715 .397995 .6607666 .35099793 .6417694 .30499269 .6337738 .2630005 .6337738 .21998596 .6337738 .1749878 .6417694 .1289978 .6607666 .11898804 .6657715 .116989139 .6657715 .115997318 .6657715 .10398865 .6657715 .10398865 .655777 .10398865 .6387787V.3444519Z"/>
<path id="font_3_1" d="M.33399964 .30233766C.33999635 .32835389 .36299134 .42037965 .43299867 .42037965 .43798829 .42037965 .46199037 .42037965 .48298646 .40734864 .45498658 .402359 .43499757 .37734986 .43499757 .35334779 .43499757 .33735658 .44599916 .31835938 .47299195 .31835938 .49499513 .31835938 .5269928 .3363495 .5269928 .37635804 .5269928 .42837525 .46798707 .4423828 .43399049 .4423828 .37599183 .4423828 .34098817 .38935853 .32899476 .36634828 .3039856 .43237306 .25 .4423828 .22099304 .4423828 .116989139 .4423828 .05999756 .3133545 .05999756 .28834535 .05999756 .27833558 .069992069 .27833558 .07199097 .27833558 .07998657 .27833558 .08299255 .28033448 .084991458 .28933717 .11898804 .39535523 .18499756 .42037965 .21899414 .42037965 .23799134 .42037965 .272995 .4113617 .272995 .35334779 .272995 .32235719 .2559967 .25532533 .21899414 .11528015 .20298767 .053268434 .16799927 .011245728 .12399292 .011245728 .117996219 .011245728 .09498596 .011245728 .07398987 .024276734 .09899902 .029266358 .12098694 .05027771 .12098694 .07827759 .12098694 .105270389 .09899902 .11328125 .083999637 .11328125 .053985597 .11328125 .0289917 .08728027 .0289917 .055267335 .0289917 .009246826 .07899475-.0107421879 .12298584-.0107421879 .18899536-.0107421879 .22499085 .059280397 .22799683 .0652771 .23999024 .028274537 .27598573-.0107421879 .33599855-.0107421879 .43899537-.0107421879 .49598695 .118270877 .49598695 .14328003 .49598695 .1532898 .4869995 .1532898 .48399354 .1532898 .47499085 .1532898 .47299195 .14929199 .47099305 .14228821 .43798829 .03527832 .36999513 .011245728 .33799745 .011245728 .29899598 .011245728 .2829895 .043273927 .2829895 .07727051 .2829895 .09927368 .2889862 .121276859 .2999878 .16529846L.33399964 .30233766Z"/>
<path id="font_3_2" d="M.48599244 .38136292C.48999024 .39537049 .48999024 .39736939 .48999024 .40437318 .48999024 .42237855 .47599793 .43138124 .46099855 .43138124 .45098878 .43138124 .43499757 .42536927 .42599488 .41036988 .42399598 .405365 .41600038 .37435914 .4119873 .35635377 .40499879 .33035279 .397995 .30334474 .3919983 .27633668L.34700013 .09628296C.34298707 .08126831 .2999878 .011245728 .23399353 .011245728 .18299866 .011245728 .17199707 .055267335 .17199707 .0922699 .17199707 .1382904 .18899536 .20030213 .22299195 .28833009 .23899842 .3293457 .24299622 .3403473 .24299622 .36035157 .24299622 .405365 .21099854 .4423828 .16099549 .4423828 .06599426 .4423828 .0289917 .29733277 .0289917 .28833009 .0289917 .27833558 .038986207 .27833558 .040985109 .27833558 .050994874 .27833558 .051986696 .28033448 .056991579 .29634095 .083999637 .3903656 .12399292 .42037965 .1579895 .42037965 .1659851 .42037965 .18299866 .42037965 .18299866 .3883667 .18299866 .36335755 .17298889 .3373413 .1659851 .31834413 .12599182 .21231079 .10798645 .1552887 .10798645 .10827637 .10798645 .019256592 .17098999-.0107421879 .22999573-.0107421879 .2689972-.0107421879 .30299378 .0062561037 .33099366 .03425598 .31799317-.017745972 .30599977-.06674194 .2659912-.11973572 .23999024-.15385437 .20199585-.18309021 .1559906-.18309021 .14199829-.18309021 .09700012-.18005371 .07998657-.14074707 .09599304-.14074707 .10899353-.14074707 .12298584-.1287384 .1329956-.11973572 .14299011-.10673523 .14299011-.08773804 .14299011-.056747438 .115997318-.052734376 .10598755-.052734376 .08299255-.052734376 .049987794-.068740848 .049987794-.11773682 .049987794-.16796875 .09399414-.20507813 .1559906-.20507813 .25898744-.20507813 .3619995-.11373901 .3899994-.00074768069L.48599244 .38136292Z"/>
<clipPath id="clip_4">
<path transform="matrix(1.00009,0,0,-1.00003,147.85105,149.6051)" d="M-141.73404-141.73404V141.73404H141.73404V-141.73404ZM141.73404 141.73404"/>
</clipPath>
<path id="font_5_1" d="M.44400025 .24998474C.44400025 .35688783 .35499574 .44381715 .25 .44381715 .14199829 .44381715 .054992677 .35488893 .054992677 .24998474 .054992677 .14407349 .14199829 .056137086 .25 .056137086 .35499574 .056137086 .44400025 .14308167 .44400025 .24998474Z"/>
</defs>
<path transform="matrix(1.00009,0,0,-1.00003,147.85105,149.6051)" stroke-width=".19925" stroke-linecap="butt" stroke-miterlimit="10" stroke-linejoin="miter" fill="none" stroke="#929292" stroke-opacity=".5" d="M-141.73404-141.73404H141.73404M-141.73404-113.38724H141.73404M-141.73404-85.04042H141.73404M-141.73404-56.69362H141.73404M-141.73404-28.3468H141.73404M-141.73404 0H141.73404M-141.73404 28.3468H141.73404M-141.73404 56.69362H141.73404M-141.73404 85.04042H141.73404M-141.73404 113.38724H141.73404M-141.73404 141.72409H141.73404M-141.73404-141.73404V141.73404M-113.38724-141.73404V141.73404M-85.04042-141.73404V141.73404M-56.69362-141.73404V141.73404M-28.3468-141.73404V141.73404M0-141.73404V141.73404M28.3468-141.73404V141.73404M56.69362-141.73404V141.73404M85.04042-141.73404V141.73404M113.38724-141.73404V141.73404M141.72409-141.73404V141.73404M141.73404 141.73404"/>
<path transform="matrix(1.00009,0,0,-1.00003,147.85105,149.6051)" stroke-width="1.19553" stroke-linecap="butt" stroke-miterlimit="10" stroke-linejoin="miter" fill="none" stroke="#000000" d="M28.3468 2.49069V-2.49069M-28.3468 2.49069V-2.49069M2.49069 28.3468H-2.49069M2.49069-28.3468H-2.49069"/>
<use data-text="1" xlink:href="#font_1_1" transform="matrix(8.967207,0,0,-8.966669,173.8964,161.79247)"/>
<use data-text="&#x2212;" xlink:href="#font_2_1" transform="matrix(8.967207,0,0,-8.966669,113.61396,161.79247)"/>
<use data-text="1" xlink:href="#font_1_1" transform="matrix(8.967207,0,0,-8.966669,120.782619,161.79247)"/>
<use data-text="1" xlink:href="#font_1_1" transform="matrix(8.967207,0,0,-8.966669,136.83306,124.14634)"/>
<use data-text="&#x2212;" xlink:href="#font_2_1" transform="matrix(8.967207,0,0,-8.966669,129.6654,180.42704)"/>
<use data-text="1" xlink:href="#font_1_1" transform="matrix(8.967207,0,0,-8.966669,136.83406,180.42704)"/>
<path transform="matrix(1.00009,0,0,-1.00003,147.85105,149.6051)" stroke-width="1.19553" stroke-linecap="butt" stroke-miterlimit="10" stroke-linejoin="miter" fill="none" stroke="#000000" d="M56.69362 2.49069V-2.49069M-56.69362 2.49069V-2.49069M2.49069 56.69362H-2.49069M2.49069-56.69362H-2.49069"/>
<use data-text="2" xlink:href="#font_1_2" transform="matrix(8.967207,0,0,-8.966669,202.24594,161.79247)"/>
<use data-text="&#x2212;" xlink:href="#font_2_1" transform="matrix(8.967207,0,0,-8.966669,85.264408,161.79247)"/>
<use data-text="2" xlink:href="#font_1_2" transform="matrix(8.967207,0,0,-8.966669,92.43306,161.79247)"/>
<use data-text="2" xlink:href="#font_1_2" transform="matrix(8.967207,0,0,-8.966669,136.83306,95.799488)"/>
<use data-text="&#x2212;" xlink:href="#font_2_1" transform="matrix(8.967207,0,0,-8.966669,129.6654,208.77487)"/>
<use data-text="2" xlink:href="#font_1_2" transform="matrix(8.967207,0,0,-8.966669,136.83406,208.77487)"/>
<path transform="matrix(1.00009,0,0,-1.00003,147.85105,149.6051)" stroke-width="1.19553" stroke-linecap="butt" stroke-miterlimit="10" stroke-linejoin="miter" fill="none" stroke="#000000" d="M85.04042 2.49069V-2.49069M-85.04042 2.49069V-2.49069M2.49069 85.04042H-2.49069M2.49069-85.04042H-2.49069"/>
<use data-text="3" xlink:href="#font_1_3" transform="matrix(8.967207,0,0,-8.966669,230.59549,161.79247)"/>
<use data-text="&#x2212;" xlink:href="#font_2_1" transform="matrix(8.967207,0,0,-8.966669,56.914857,161.79247)"/>
<use data-text="3" xlink:href="#font_1_3" transform="matrix(8.967207,0,0,-8.966669,64.08351,161.79247)"/>
<use data-text="3" xlink:href="#font_1_3" transform="matrix(8.967207,0,0,-8.966669,136.83306,67.45164)"/>
<use data-text="&#x2212;" xlink:href="#font_2_1" transform="matrix(8.967207,0,0,-8.966669,129.6654,237.12274)"/>
<use data-text="3" xlink:href="#font_1_3" transform="matrix(8.967207,0,0,-8.966669,136.83406,237.12274)"/>
<path transform="matrix(1.00009,0,0,-1.00003,147.85105,149.6051)" stroke-width="1.19553" stroke-linecap="butt" stroke-miterlimit="10" stroke-linejoin="miter" fill="none" stroke="#000000" d="M113.38724 2.49069V-2.49069M-113.38724 2.49069V-2.49069M2.49069 113.38724H-2.49069M2.49069-113.38724H-2.49069"/>
<use data-text="4" xlink:href="#font_1_4" transform="matrix(8.967207,0,0,-8.966669,258.94404,161.79247)"/>
<use data-text="&#x2212;" xlink:href="#font_2_1" transform="matrix(8.967207,0,0,-8.966669,28.565308,161.79247)"/>
<use data-text="4" xlink:href="#font_1_4" transform="matrix(8.967207,0,0,-8.966669,35.733964,161.79247)"/>
<use data-text="4" xlink:href="#font_1_4" transform="matrix(8.967207,0,0,-8.966669,136.83306,39.103784)"/>
<use data-text="&#x2212;" xlink:href="#font_2_1" transform="matrix(8.967207,0,0,-8.966669,129.6654,265.46958)"/>
<use data-text="4" xlink:href="#font_1_4" transform="matrix(8.967207,0,0,-8.966669,136.83406,265.46958)"/>
<path transform="matrix(1.00009,0,0,-1.00003,147.85105,149.6051)" stroke-width="1.19553" stroke-linecap="butt" stroke-miterlimit="10" stroke-linejoin="miter" fill="none" stroke="#000000" d="M141.73404 2.49069V-2.49069M-141.73404 2.49069V-2.49069M2.49069 141.73404H-2.49069M2.49069-141.73404H-2.49069"/>
<use data-text="5" xlink:href="#font_1_5" transform="matrix(8.967207,0,0,-8.966669,287.29359,161.79247)"/>
<use data-text="&#x2212;" xlink:href="#font_2_1" transform="matrix(8.967207,0,0,-8.966669,.21575928,161.79247)"/>
<use data-text="5" xlink:href="#font_1_5" transform="matrix(8.967207,0,0,-8.966669,7.3844149,161.79247)"/>
<use data-text="5" xlink:href="#font_1_5" transform="matrix(8.967207,0,0,-8.966669,136.83306,10.755936)"/>
<use data-text="&#x2212;" xlink:href="#font_2_1" transform="matrix(8.967207,0,0,-8.966669,129.6654,293.81745)"/>
<use data-text="5" xlink:href="#font_1_5" transform="matrix(8.967207,0,0,-8.966669,136.83406,293.81745)"/>
<path transform="matrix(1.00009,0,0,-1.00003,147.85105,149.6051)" stroke-width="1.19553" stroke-linecap="butt" stroke-miterlimit="10" stroke-linejoin="miter" fill="none" stroke="#000000" d="M-141.73404 0H143.61248"/>
<path transform="matrix(1.00009,0,0,-1.00003,291.47645,149.6051)" stroke-width=".9564" stroke-linecap="round" stroke-linejoin="round" fill="none" stroke="#000000" d="M-1.91284 2.55046C-1.75343 1.59402 0 .15938 .4782 0 0-.15938-1.75343-1.59402-1.91284-2.55046"/>
<use data-text="x" xlink:href="#font_3_1" transform="matrix(9.963496,0,0,-9.962899,289.58583,145.68698)"/>
<path transform="matrix(1.00009,0,0,-1.00003,147.85105,149.6051)" stroke-width="1.19553" stroke-linecap="butt" stroke-miterlimit="10" stroke-linejoin="miter" fill="none" stroke="#000000" d="M0-141.73404V143.61248"/>
<path transform="matrix(0,-1.00003,-1.00009,-0,147.85105,5.988312)" stroke-width=".9564" stroke-linecap="round" stroke-linejoin="round" fill="none" stroke="#000000" d="M-1.91284 2.55046C-1.75343 1.59402 0 .15938 .4782 0 0-.15938-1.75343-1.59402-1.91284-2.55046"/>
<use data-text="y" xlink:href="#font_3_2" transform="matrix(9.963496,0,0,-9.962899,151.7694,6.207794)"/>
<g clip-path="url(#clip_4)">
<path transform="matrix(1.00009,0,0,-1.00003,147.85105,149.6051)" stroke-width=".79701" stroke-linecap="butt" stroke-miterlimit="10" stroke-linejoin="miter" fill="none" stroke="#0000ff" d="M-141.73404-453.54896C-141.73404-453.54896-141.3237-452.31797-141.1661-451.84519-141.00853-451.37239-140.75579-450.6142-140.59819-450.14143-140.44062-449.6686-140.18785-448.91044-140.03026-448.43766-139.87268-447.96488-139.61994-447.20668-139.46236-446.73387-139.30477-446.2611-139.052-445.5029-138.89443-445.0301-138.73683-444.55735-138.48409-443.79914-138.3265-443.32637-138.16892-442.85356-137.91616-442.09535-137.75858-441.62257-137.60099-441.1498-137.34824-440.3916-137.19066-439.91883-137.03307-439.44606-136.7803-438.6878-136.62273-438.21504-136.46515-437.74226-136.21239-436.98405-136.05481-436.5113-135.89723-436.0385-135.64449-435.2803-135.4869-434.8075-135.32932-434.33473-135.07656-433.5765-134.91896-433.10374-134.76139-432.63096-134.50864-431.87278-134.35105-431.4-134.19347-430.9272-133.9407-430.16899-133.78311-429.6962-133.62554-429.22343-133.37279-428.4652-133.21521-427.99244-133.05762-427.51966-132.80486-426.76148-132.64728-426.28868-132.48969-425.8159-132.23694-425.05769-132.07936-424.5849-131.92177-424.1121-131.669-423.3539-131.51143-422.88114-131.35384-422.40837-131.10109-421.65016-130.94351-421.17738-130.78592-420.7046-130.53316-419.94639-130.37558-419.4736-130.218-419.00083-129.96524-418.2426-129.80767-417.76985-129.65009-417.29707-129.39734-416.53886-129.23975-416.06608-129.08217-415.5933-128.8294-414.83509-128.67182-414.3623-128.51424-413.8895-128.26149-413.13133-128.1039-412.65855-127.94632-412.18577-127.69356-411.42756-127.53596-410.95478-127.37839-410.482-127.12564-409.72377-126.96806-409.25099-126.81047-408.7782-126.55771-408.02003-126.40013-407.54725-126.24254-407.07447-125.98979-406.31626-125.83221-405.84349-125.67462-405.37068-125.42186-404.61247-125.26428-404.1397-125.10669-403.66694-124.85394-402.9087-124.69637-402.43595-124.53877-401.96315-124.28601-401.20494-124.12843-400.73216-123.97086-400.25938-123.7181-399.50117-123.56052-399.0284-123.40294-398.55564-123.15019-397.79743-122.9926-397.32463-122.83502-396.85185-122.58226-396.09364-122.42467-395.62086-122.26709-395.14808-122.01434-394.3899-121.85675-393.9171-121.69917-393.4443-121.44641-392.6861-121.28882-392.21333-121.13124-391.74055-120.8785-390.98234-120.72092-390.50956-120.56332-390.03678-120.31056-389.2786-120.15298-388.8058-119.99539-388.333-119.74265-387.5748-119.58507-387.10206-119.42747-386.62925-119.17471-385.87104-119.01714-385.39826-118.85954-384.92549-118.6068-384.16728-118.44922-383.6945-118.29163-383.2217-118.03888-382.46354-117.8813-381.99073-117.72372-381.51795-117.47095-380.75975-117.31337-380.28697-117.15579-379.81419-116.90305-379.05598-116.74545-378.5832-116.58788-378.1104-116.33511-377.3522-116.17752-376.87944-116.01994-376.40663-115.7672-375.64845-115.6096-375.17567-115.45203-374.70289-115.19926-373.94468-115.04167-373.4719-114.8841-372.9991-114.63135-372.24089-114.47377-371.7681-114.31618-371.29533-114.06342-370.53715-113.90584-370.06437-113.74825-369.59159-113.4955-368.83338-113.33792-368.3606-113.18033-367.8878-112.92757-367.1296-112.76999-366.6568-112.6124-366.18406-112.35965-365.42585-112.20207-364.95307-112.04448-364.48027-111.79173-363.72209-111.63416-363.24928-111.47658-362.7765-111.2238-362.0183-111.06622-361.54554-110.90865-361.07276-110.6559-360.31455-110.4983-359.84175-110.34073-359.36897-110.08797-358.61076-109.93037-358.138-109.7728-357.6652-109.52005-356.907-109.36246-356.43424-109.20488-355.96144-108.95212-355.20323-108.79453-354.73045-108.63695-354.2577-108.3842-353.49946-108.22662-353.02668-108.06903-352.5539-107.81627-351.7957-107.65869-351.3229-107.5011-350.85014-107.24835-350.09193-107.09077-349.61918-106.93318-349.14637-106.68042-348.38816-106.52284-347.91539-106.36525-347.4426-106.1125-346.6844-105.95493-346.2116-105.79733-345.73884-105.54459-344.98066-105.38701-344.50785-105.22943-344.03507-104.97665-343.27687-104.81908-342.80409-104.6615-342.3313-104.40875-341.5731-104.25116-341.1003-104.09358-340.62754-103.84082-339.86933-103.68323-339.39656-103.52565-338.92378-103.2729-338.16557-103.11531-337.69279-102.95773-337.22-102.70497-336.4618-102.54738-335.989-102.3898-335.51625-102.13705-334.75804-101.97948-334.28526-101.82188-333.81248-101.56912-333.05427-101.41154-332.58149-101.25395-332.1087-101.0012-331.3505-100.84363-330.87773-100.68604-330.4049-100.43327-329.6467-100.2757-329.17393-100.1181-328.70118-99.86536-327.94297-99.70778-327.47019-99.55019-326.99739-99.29744-326.2392-99.13986-325.7664-98.98228-325.2936-98.7295-324.53544-98.57193-324.06266-98.41435-323.58988-98.1616-322.83168-98.00401-322.35887-97.84644-321.8861-97.59367-321.12788-97.43608-320.6551-97.2785-320.18235-97.02576-319.42414-96.86816-318.95137-96.71059-318.47856-96.45782-317.72035-96.30023-317.24757-96.14265-316.7748-95.88991-316.0166-95.73233-315.54383-95.57474-315.07106-95.32198-314.3128-95.1644-313.84004-95.0068-313.36726-94.75406-312.60905-94.59648-312.1363-94.43889-311.66349-94.18614-310.9053-94.02856-310.4325-93.87097-309.95973-93.61821-309.2015-93.46063-308.72874-93.30304-308.25596-93.0503-307.49778-92.89272-307.02497-92.73514-306.5522-92.48236-305.79399-92.32478-305.3212-92.1672-304.84843-91.91446-304.0902-91.75687-303.61744-91.59929-303.14466-91.34653-302.38645-91.18893-301.91368-91.03136-301.4409-90.77861-300.68269-90.62102-300.2099-90.46344-299.7371-90.21068-298.9789-90.05309-298.50614-89.89551-298.03337-89.64276-297.27516-89.48518-296.80238-89.32759-296.3296-89.07483-295.57139-88.91725-295.0986-88.75966-294.62583-88.50691-293.8676-88.34933-293.39485-88.19174-292.92204-87.939-292.16386-87.78142-291.69108-87.62383-291.2183-87.37106-290.46009-87.21349-289.9873-87.0559-289.5145-86.80315-288.75633-86.64557-288.2835-86.48799-287.81077-86.23521-287.05256-86.07764-286.57978-85.92006-286.107-85.66731-285.34877-85.50972-284.87599-85.35214-284.4032-85.09938-283.645-84.94179-283.17225-84.78421-282.69947-84.53146-281.94126-84.37387-281.46846-84.2163-280.99568-83.96353-280.23747-83.80594-279.7647-83.64836-279.29194-83.39561-278.5337-83.23804-278.06095-83.08044-277.58815-82.82768-276.82994-82.6701-276.35716-82.51251-275.88438-82.25977-275.12617-82.10219-274.6534-81.9446-274.1806-81.69185-273.42243-81.53427-272.94963-81.37668-272.47685-81.12392-271.71864-80.96634-271.24586-80.80875-270.77308-80.556-270.0149-80.39842-269.54209-80.24084-269.0693-79.98807-268.3111-79.83049-267.83833-79.67291-267.36555-79.42017-266.60734-79.26257-266.13456-79.105-265.66178-78.85223-264.90357-78.69464-264.4308-78.53706-263.958-78.28432-263.1998-78.12672-262.72706-77.96915-262.25425-77.71638-261.49604-77.55879-261.02326-77.40121-260.55049-77.14847-259.79228-76.99089-259.3195-76.8333-258.8467-76.58054-258.0885-76.42296-257.6157-76.26537-257.14295-76.01262-256.38475-75.85504-255.91196-75.69745-255.43917-75.4447-254.68097-75.28712-254.20819-75.12953-253.73542-74.87677-252.97719-74.7192-252.50441-74.5616-252.03163-74.30885-251.27344-74.15128-250.80065-73.9937-250.32787-73.74092-249.56967-73.58334-249.0969-73.42577-248.62412-73.17302-247.86589-73.01543-247.39311-72.85785-246.92034-72.60509-246.16213-72.4475-245.68935-72.28992-245.21657-72.03717-244.45838-71.87958-243.9856-71.722-243.5128-71.46924-242.7546-71.31165-242.28182-71.15407-241.80904-70.90132-241.05083-70.74374-240.57805-70.58615-240.10527-70.3334-239.34708-70.17583-238.87429-70.01823-238.4015-69.76547-237.6433-69.6079-237.17052-69.4503-236.69773-69.19756-235.93953-69.03998-235.46675-68.88239-234.99398-68.62962-234.23575-68.47205-233.76297-68.31445-233.29019-68.0617-232.532-67.90413-232.0592-67.74655-231.58643-67.49377-230.82823-67.3362-230.35546-67.17862-229.88268-66.92587-229.12445-66.76828-228.65167-66.6107-228.1789-66.35794-227.42069-66.20035-226.9479-66.04277-226.47513-65.79002-225.71694-65.63243-225.24416-65.47485-224.77136-65.22209-224.01316-65.0645-223.54038-64.90692-223.0676-64.65417-222.30939-64.4966-221.83661-64.339-221.36383-64.08626-220.60564-63.92868-220.13285-63.77109-219.66007-63.51833-218.90186-63.36075-218.42908-63.20316-217.95629-62.95041-217.19809-62.79283-216.72531-62.63524-216.25254-62.38248-215.49433-62.2249-215.02155-62.0673-214.54877-61.81456-213.79056-61.65698-213.31777-61.4994-212.84499-61.24663-212.08679-61.08905-211.61402-60.93147-211.14124-60.67873-210.38301-60.52113-209.91024-60.36356-209.43746-60.1108-208.67925-59.9532-208.20647-59.79562-207.73369-59.54288-206.9755-59.38528-206.50272-59.2277-206.02993-58.97495-205.27172-58.81735-204.79894-58.65977-204.32616-58.40703-203.56795-58.24945-203.09517-58.09186-202.62239-57.83911-201.8642-57.68153-201.3914-57.52394-200.91863-57.27118-200.16042-57.1136-199.68764-56.95601-199.21485-56.70326-198.45665-56.54568-197.98387-56.38809-197.5111-56.13533-196.75289-55.97775-196.2801-55.82016-195.80733-55.56741-195.04912-55.40984-194.57633-55.25226-194.10355-54.99948-193.34535-54.8419-192.87258-54.68433-192.3998-54.43158-191.64159-54.27399-191.16881-54.11641-190.69603-53.86365-189.9378-53.70605-189.46503-53.54848-188.99225-53.29573-188.23406-53.13814-187.76128-52.98056-187.28849-52.7278-186.53028-52.5702-186.0575-52.41263-185.58472-52.15988-184.8265-52.0023-184.35373-51.84471-183.88095-51.59196-183.12276-51.43439-182.64997-51.2768-182.17719-51.02403-181.41898-50.86646-180.9462-50.70886-180.4734-50.45612-179.71521-50.29854-179.24243-50.14095-178.76966-49.88818-178.01145-49.7306-177.53867-49.57301-177.06589-49.32027-176.30768-49.16269-175.83489-49.00511-175.3621-48.75233-174.60391-48.59476-174.13114-48.43718-173.65836-48.18443-172.90015-48.02684-172.42737-47.86926-171.95459-47.6165-171.19637-47.45891-170.72359-47.30133-170.25081-47.04858-169.49262-46.89099-169.01984-46.73341-168.54705-46.48067-167.78885-46.32307-167.31607-46.1655-166.84329-45.91273-166.08507-45.75516-165.61229-45.59756-165.13951-45.34482-164.38132-45.18724-163.90853-45.02965-163.43575-44.77689-162.67754-44.61931-162.20476-44.46172-161.73197-44.20897-160.97377-44.05139-160.50099-43.8938-160.02822-43.64104-159.27-43.48346-158.79723-43.32587-158.32445-43.07312-157.56624-42.91554-157.09345-42.75797-156.62067-42.50519-155.86248-42.34761-155.3897-42.19003-154.91692-41.93729-154.1587-41.7797-153.68593-41.62212-153.21315-41.36935-152.45493-41.21176-151.98215-41.05418-151.50937-40.80144-150.75118-40.64384-150.2784-40.48627-149.8056-40.23352-149.04741-40.07593-148.57463-39.91835-148.10186-39.66559-147.34363-39.50801-146.87085-39.35042-146.39807-39.09767-145.63988-38.9401-145.16709-38.7825-144.6943-38.52974-143.93611-38.37216-143.46334-38.21457-142.99054-37.96182-142.23233-37.80424-141.75955-37.64665-141.28678-37.39389-140.52857-37.23631-140.05579-37.07872-139.58301-36.82597-138.8248-36.6684-138.352-36.51082-137.87923-36.25804-137.12104-36.10046-136.64826-35.94289-136.17548-35.69014-135.41727-35.53255-134.94449-35.37497-134.47171-35.12221-133.71349-34.96461-133.2407-34.80704-132.76793-34.55429-132.00974-34.3967-131.53696-34.23912-131.06417-33.98637-130.30597-33.82878-129.83319-33.6712-129.36042-33.41844-128.60219-33.26086-128.12941-33.10327-127.65663-32.85052-126.89844-32.69295-126.42564-32.53535-125.95287-32.2826-125.19467-32.12502-124.7219-31.96742-124.2491-31.71468-123.49089-31.5571-123.01811-31.3995-122.54533-31.14674-121.78712-30.98917-121.31435-30.83157-120.84157-30.57883-120.08337-30.42125-119.61058-30.26367-119.1378-30.0109-118.3796-29.85332-117.90681-29.69574-117.43404-29.443-116.67583-29.2854-116.20305-29.12782-115.73027-28.87508-114.97206-28.71748-114.49928-28.5599-114.0265-28.30714-113.2683-28.14955-112.79552-27.99197-112.32272-27.73923-111.56453-27.58163-111.09175-27.42406-110.61897-27.1713-109.86075-27.01372-109.38797-26.85612-108.91519-26.60338-108.157-26.4458-107.6842-26.28821-107.21143-26.03545-106.45323-25.87787-105.98045-25.72028-105.50766-25.46753-104.74945-25.30995-104.27667-25.15236-103.8039-24.8996-103.04568-24.74202-102.5729-24.58443-102.10013-24.33168-101.34193-24.1741-100.86914-24.01653-100.39636-23.76375-99.63815-23.60617-99.16537-23.4486-98.6926-23.19585-97.93439-23.03825-97.46161-22.88068-96.98883-22.62793-96.23062-22.47034-95.75784-22.31276-95.28506-22.06-94.52686-21.9024-94.05408-21.74483-93.58128-21.49208-92.82309-21.33449-92.35031-21.17691-91.87753-20.92415-91.11932-20.76657-90.64655-20.60898-90.17377-20.35623-89.41556-20.19865-88.94276-20.04106-88.46999-19.7883-87.71179-19.63072-87.23901-19.47313-86.76622-19.22038-86.00801-19.0628-85.53523-18.90521-85.06245-18.65245-84.30424-18.49487-83.83147-18.33728-83.35869-18.08453-82.6005-17.92696-82.1277-17.76938-81.65492-17.5166-80.89671-17.35902-80.42393-17.20145-79.95116-16.9487-79.19295-16.7911-78.72017-16.63353-78.24739-16.38078-77.48918-16.22319-77.0164-16.06561-76.54362-15.81285-75.78542-15.65526-75.31264-15.49768-74.83984-15.24493-74.08165-15.08734-73.60887-14.92976-73.1361-14.677-72.37788-14.51942-71.9051-14.36183-71.43233-14.10909-70.67412-13.9515-70.20132-13.79391-69.72855-13.54115-68.97035-13.38358-68.49757-13.22598-68.02478-12.97324-67.26659-12.81566-66.79381-12.65807-66.32103-12.4053-65.5628-12.24773-65.09003-12.09013-64.61725-11.83739-63.85905-11.67981-63.38626-11.52223-62.91348-11.26945-62.15527-11.11188-61.6825-10.9543-61.20972-10.70155-60.4515-10.54396-59.97873-10.38638-59.50595-10.13364-58.74774-9.97604-58.27496-9.81847-57.80219-9.5657-57.04398-9.40811-56.5712-9.25053-56.0984-8.99779-55.34021-8.8402-54.86743-8.68262-54.39465-8.42986-53.63644-8.27228-53.16367-8.11469-52.69089-7.86194-51.93268-7.70436-51.45988-7.54677-50.9871-7.294-50.22891-7.13643-49.75613-6.97884-49.28334-6.72609-48.52515-6.56851-48.05237-6.41092-47.57959-6.15816-46.82137-6.00058-46.34859-5.84299-45.87581-5.59024-45.11761-5.43266-44.64482-5.27509-44.17204-5.02232-43.41385-4.86475-42.94107-4.70717-42.46829-4.4544-41.71007-4.29681-41.23729-4.13924-40.76451-3.88649-40.0063-3.7289-39.53352-3.57132-39.06075-3.31856-38.30254-3.16096-37.82976-3.00339-37.35696-2.75064-36.59877-2.59305-36.12599-2.43547-35.65321-2.18271-34.895-2.02513-34.42223-1.86754-33.94945-1.61479-33.19124-1.45721-32.71844-1.29962-32.24567-1.04686-31.48747-.88928-31.0147-.73169-30.5419-.47894-29.7837-.32137-29.31093-.16377-28.83815 .08896-28.07993 .24654-27.60715 .40413-27.13437 .65688-26.37617 .81445-25.90338 .97203-25.4306 1.2248-24.67241 1.38237-24.19963 1.53995-23.72685 1.79271-22.96863 1.9503-22.49585 2.10788-22.02307 2.36063-21.26486 2.51822-20.79208 2.6758-20.3193 2.92856-19.56111 3.08615-19.08833 3.24373-18.61554 3.49648-17.85733 3.65407-17.38455 3.81165-16.91177 4.0644-16.15356 4.22198-15.68079 4.37958-15.20801 4.63232-14.4498 4.7899-13.977 4.9475-13.50423 5.20026-12.74603 5.35783-12.27325 5.51543-11.80046 5.76817-11.04227 5.92575-10.56949 6.08334-10.09671 6.3361-9.33849 6.49368-8.8657 6.65128-8.39293 6.90402-7.63474 7.0616-7.16194 7.21918-6.68916 7.47194-5.93097 7.62952-5.45819 7.7871-4.98541 8.03986-4.22719 8.19745-3.75441 8.35503-3.28163 8.60777-2.52342 8.76537-2.05064 8.92294-1.57787 9.1757-.81967 9.3333-.3469 9.49088 .12589 9.74362 .88408 9.90121 1.35686 10.05879 1.82964 10.31155 2.58784 10.46913 3.06062 10.62672 3.5334 10.87947 4.2916 11.03705 4.76439 11.19464 5.23717 11.4474 5.99538 11.60498 6.46815 11.76257 6.94095 12.01532 7.69914 12.1729 8.17192 12.33049 8.6447 12.58325 9.40292 12.74083 9.8757 12.89842 10.34848 13.15117 11.10667 13.30875 11.57947 13.46632 12.05225 13.71909 12.81044 13.87666 13.28322 14.03424 13.756 14.287 14.51422 14.4446 14.987 14.60217 15.45978 14.85492 16.21799 15.01251 16.69077 15.17009 17.16354 15.42285 17.92174 15.58044 18.39452 15.73802 18.86731 15.99077 19.62552 16.14836 20.0983 16.30594 20.57108 16.5587 21.32928 16.71628 21.80206 16.87387 22.27484 17.12662 23.03304 17.2842 23.50583 17.44179 23.9786 17.69455 24.73682 17.85213 25.2096 18.00972 25.68239 18.26247 26.44058 18.42004 26.91336 18.57764 27.38614 18.83038 28.14435 18.98796 28.61713 19.14555 29.0899 19.39832 29.84811 19.5559 30.3209 19.71347 30.79369 19.96623 31.55188 20.12381 32.02466 20.28139 32.49744 20.53415 33.25566 20.69174 33.72844 20.84932 34.20122 21.10207 34.95943 21.25966 35.4322 21.41724 35.90498 21.67 36.66318 21.82759 37.13596 21.98517 37.60875 22.23792 38.36696 22.39551 38.83974 22.55309 39.31252 22.80585 40.07072 22.96342 40.5435 23.12102 41.01628 23.37376 41.77448 23.53134 42.24727 23.68893 42.72005 23.9417 43.47826 24.09927 43.95103 24.25687 44.42383 24.50961 45.18202 24.66719 45.6548 24.82478 46.12758 25.07753 46.88579 25.2351 47.35857 25.3927 47.83134 25.64546 48.58955 25.80304 49.06235 25.96062 49.53513 26.21338 50.29332 26.37096 50.7661 26.52853 51.23888 26.7813 51.99709 26.93889 52.46986 27.09647 52.94264 27.34921 53.70087 27.5068 54.17365 27.66438 54.64642 27.91714 55.40462 28.07474 55.8774 28.23232 56.35019 28.48506 57.1084 28.64265 57.58118 28.80023 58.05396 29.053 58.81216 29.21057 59.28494 29.36816 59.75772 29.62091 60.51591 29.77849 60.98871 29.93608 61.46149 30.18884 62.2197 30.34642 62.69247 30.50401 63.16527 30.75676 63.92346 30.91434 64.39624 31.07193 64.86902 31.32468 65.62723 31.48225 66.1 31.63985 66.57278 31.89261 67.331 32.05019 67.80379 32.20776 68.27657 32.46053 69.03476 32.6181 69.50754 32.77568 69.98032 33.02844 70.73853 33.18604 71.2113 33.34361 71.68408 33.59636 72.4423 33.75395 72.91508 33.91153 73.38786 34.16429 74.14606 34.32188 74.61884 34.47946 75.09163 34.73221 75.84982 34.8898 76.3226 35.04738 76.79538 35.30014 77.5536 35.45772 78.02638 35.61531 78.49916 35.86806 79.25735 36.02563 79.73015 36.18323 80.20293 36.43599 80.96114 36.59357 81.43391 36.75116 81.90671 37.0039 82.6649 37.16148 83.13768 37.31908 83.61046 37.57182 84.36867 37.7294 84.84145 37.887 85.31422 38.13976 86.07243 38.29733 86.54523 38.45491 87.018 38.70767 87.7762 38.86525 88.24898 39.02283 88.72176 39.27559 89.47997 39.43318 89.95274 39.59076 90.42552 39.8435 91.18375 40.0011 91.65652 40.15868 92.1293 40.41144 92.8875 40.56903 93.36028 40.72661 93.83307 40.97935 94.59126 41.13695 95.06404 41.29453 95.53682 41.54729 96.29504 41.70486 96.76782 41.86246 97.2406 42.1152 97.9988 42.27278 98.47159 42.43037 98.94437 42.68312 99.70256 42.8407 100.17534 42.99829 100.64813 43.25105 101.40634 43.40863 101.87912 43.56622 102.3519 43.81897 103.1101 43.97655 103.58289 44.13414 104.05566 44.3869 104.81387 44.54448 105.28667 44.70206 105.75945 44.95482 106.51764 45.1124 106.99042 45.26997 107.4632 45.52274 108.2214 45.68033 108.69418 45.8379 109.16696 46.09065 109.92519 46.24825 110.39796 46.40582 110.87074 46.65858 111.62894 46.81618 112.10172 46.97375 112.57451 47.2265 113.3327 47.3841 113.80548 47.54167 114.27826 47.79443 115.03648 47.95201 115.50926 48.1096 115.98204 48.36235 116.74023 48.51993 117.21303 48.67752 117.6858 48.93027 118.444 49.08784 118.91678 49.24544 119.38957 49.4982 120.14778 49.65578 120.62056 49.81337 121.09334 50.06612 121.85155 50.2237 122.32433 50.38129 122.7971 50.63405 123.5553 50.79163 124.02809 50.9492 124.50087 51.20197 125.25908 51.35954 125.73186 51.51712 126.20464 51.76988 126.96284 51.92747 127.43562 52.08505 127.9084 52.3378 128.66663 52.49539 129.1394 52.65297 129.61219 52.90573 130.37038 53.06332 130.84316 53.2209 131.31595 53.47365 132.07415 53.63124 132.54692 53.78882 133.0197 54.04158 133.77793 54.19916 134.2507 54.35675 134.72348 54.6095 135.48168 54.76707 135.95447 54.92467 136.42725 55.17741 137.18544 55.33499 137.65822 55.49258 138.13101 55.74535 138.88922 55.90292 139.362 56.06052 139.83478 56.31326 140.59299 56.47084 141.06577 56.62843 141.53855 56.8812 142.29674 57.03877 142.76953 57.19635 143.24231 57.44911 144.00052 57.60669 144.4733 57.76427 144.94608 58.01703 145.70429 58.17462 146.17707 58.3322 146.64984 58.58495 147.40805 58.74254 147.88083 58.90012 148.3536 59.15288 149.11182 59.31047 149.5846 59.46805 150.05739 59.7208 150.81558 59.87839 151.28836 60.03596 151.76114 60.28873 152.51937 60.4463 152.99214 60.6039 153.46492 60.85664 154.22312 61.01422 154.6959 61.17181 155.16869 61.42456 155.92688 61.58214 156.39966 61.73973 156.87245 61.9925 157.63066 62.15007 158.10344 62.30766 158.57622 62.56041 159.33443 62.71799 159.8072 62.87558 160.27999 63.12834 161.03818 63.28592 161.51097 63.4435 161.98375 63.69626 162.74196 63.85384 163.21474 64.01141 163.68752 64.26418 164.44573 64.42177 164.9185 64.57935 165.39128 64.83209 166.14949 64.98969 166.62227 65.14726 167.09505 65.40002 167.85326 65.55762 168.32604 65.7152 168.79883 65.96794 169.55702 66.12553 170.0298 66.28311 170.50258 66.53586 171.26079 66.69344 171.73357 66.85103 172.20635 67.10379 172.96456 67.26137 173.43735 67.41896 173.91013 67.6717 174.66832 67.82928 175.1411 67.98688 175.61389 68.23964 176.3721 68.39722 176.84488 68.55481 177.31766 68.80756 178.07587 68.96513 178.54865 69.12273 179.02143 69.37549 179.77962 69.53307 180.25241 69.69064 180.72519 69.9434 181.4834 70.10098 181.95618 70.25856 182.42896 70.51132 183.18717 70.66891 183.65995 70.82649 184.13272 71.07924 184.89093 71.23683 185.36371 71.39441 185.83649 71.64717 186.5947 71.80476 187.06748 71.96234 187.54027 72.21509 188.29846 72.37268 188.77124 72.53026 189.24402 72.783 190.00223 72.94058 190.475 73.09818 190.94779 73.35094 191.706 73.50851 192.17879 73.6661 192.65157 73.91885 193.40976 74.07643 193.88254 74.23402 194.35533 74.48679 195.11353 74.64436 195.5863 74.80196 196.05908 75.0547 196.8173 75.21228 197.29009 75.36987 197.76287 75.62263 198.52106 75.78021 198.99385 75.93779 199.46663 76.19055 200.22483 76.34813 200.6976 76.5057 201.17038 76.75847 201.9286 76.91606 202.40139 77.07364 202.87416 77.32639 203.63237 77.48398 204.10515 77.64156 204.57793 77.89432 205.33614 78.05191 205.80892 78.20949 206.28171 78.46223 207.0399 78.61983 207.51268 78.7774 207.98546 79.03015 208.74367 79.18773 209.21645 79.34532 209.68923 79.59808 210.44744 79.75566 210.92023 79.91325 211.393 80.166 212.1512 80.32358 212.62398 80.48117 213.09677 80.73393 213.85497 80.89151 214.32775 81.0491 214.80052 81.30185 215.55875 81.45943 216.03153 81.61702 216.5043 81.86978 217.2625 82.02736 217.73529 82.18494 218.20807 82.4377 218.96627 82.59528 219.43904 82.75285 219.91182 83.00562 220.67005 83.16321 221.14282 83.32079 221.6156 83.57353 222.37381 83.73112 222.84659 83.8887 223.31937 84.14145 224.07756 84.29904 224.55034 84.45662 225.02313 84.70938 225.78134 84.86697 226.25412 85.02455 226.7269 85.2773 227.4851 85.43488 227.95789 85.59247 228.43067 85.84523 229.18888 86.0028 229.66167 86.1604 230.13445 86.41315 230.89264 86.57072 231.36542 86.72832 231.83821 86.98108 232.5964 87.13866 233.06919 87.29625 233.54196 87.549 234.30019 87.70657 234.77297 87.86417 235.24575 88.11693 236.00394 88.2745 236.47673 88.43208 236.94951 88.68484 237.7077 88.84242 238.18048 89 238.65326 89.25276 239.41149 89.41035 239.88426 89.56793 240.35704 89.82068 241.11525 89.97827 241.58803 90.13585 242.0608 90.3886 242.819 90.54619 243.29178 90.70377 243.76457 90.95653 244.52278 91.11412 244.99556 91.2717 245.46834 91.52444 246.22655 91.68202 246.69933 91.83961 247.1721 92.09238 247.9303 92.24995 248.40309 92.40755 248.87587 92.6603 249.63408 92.81787 250.10686 92.97546 250.57965 93.22823 251.33785 93.3858 251.81063 93.5434 252.2834 93.79614 253.04163 93.95372 253.5144 94.11131 253.98719 94.36407 254.74538 94.52165 255.21817 94.67923 255.69095 94.93199 256.44914 95.08957 256.9219 95.24715 257.3947 95.49991 258.15293 95.6575 258.6257 95.81508 259.09849 96.06783 259.8567 96.22542 260.32948 96.383 260.80226 96.63574 261.56044 96.79333 262.03324 96.95091 262.506 97.20367 263.26423 97.36127 263.737 97.51884 264.20979 97.77159 264.968 97.92917 265.44078 98.08676 265.91355 98.33952 266.67176 98.4971 267.14454 98.6547 267.6173 98.90744 268.37553 99.06502 268.8483 99.22261 269.32109 99.47537 270.07929 99.63295 270.55207 99.79054 271.02485 100.04329 271.78306 100.20087 272.25584 100.35846 272.7286 100.61122 273.48683 100.7688 273.95964 100.92638 274.4324 101.17914 275.19059 101.33672 275.66337 101.4943 276.13615 101.74706 276.89436 101.90465 277.36714 102.06223 277.8399 102.31497 278.59815 102.47256 279.0709 102.63014 279.5437 102.88289 280.30189 103.04048 280.77467 103.19806 281.24745 103.45082 282.00566 103.60841 282.47846 103.76599 282.95124 104.01874 283.70945 104.17632 284.1822 104.33391 284.65498 104.58667 285.41319 104.74425 285.88597 104.90184 286.35877 105.15459 287.11698 105.31216 287.58976 105.46976 288.06254 105.72252 288.8207 105.8801 289.2935 106.03769 289.76628 106.29044 290.52449 106.44801 290.99729 106.6056 291.47007 106.85837 292.22828 107.01595 292.70106 107.17352 293.17384 107.42628 293.932 107.58386 294.4048 107.74144 294.8776 107.99419 295.6358 108.15178 296.10859 108.30936 296.58134 108.56212 297.33958 108.71971 297.81236 108.87729 298.28514 109.13004 299.04335 109.28763 299.5161 109.4452 299.9889 109.69797 300.7471 109.85556 301.21989 110.01314 301.69267 110.26588 302.45088 110.42346 302.92366 110.58105 303.39643 110.83382 304.15464 110.9914 304.6274 111.14899 305.1002 111.40173 305.8584 111.55931 306.33119 111.7169 306.80397 111.96967 307.56217 112.12724 308.03495 112.28484 308.50773 112.53758 309.26594 112.69516 309.7387 112.85275 310.2115 113.10551 310.9697 113.26309 311.4425 113.42067 311.91529 113.67343 312.67347 113.83101 313.14625 113.98859 313.61903 114.24133 314.37724 114.39893 314.85 114.5565 315.32279 114.80927 316.08103 114.96686 316.5538 115.12444 317.02659 115.37718 317.78477 115.53477 318.25755 115.69235 318.73033 115.94511 319.48854 116.1027 319.9613 116.26028 320.43409 116.51303 321.1923 116.67061 321.66508 116.8282 322.13786 117.08096 322.89607 117.23854 323.36885 117.39613 323.84165 117.64888 324.59986 117.80646 325.07264 117.96405 325.5454 118.21681 326.3036 118.37439 326.77638 118.53198 327.24916 118.78473 328.0074 118.9423 328.48017 119.0999 328.95295 119.35266 329.71116 119.51024 330.18394 119.66782 330.6567 119.92058 331.4149 120.07816 331.88768 120.23573 332.36048 120.48848 333.11869 120.64607 333.59147 120.80365 334.0642 121.05641 334.82246 121.214 335.29524 121.37158 335.768 121.62433 336.5262 121.78192 336.999 121.9395 337.47178 122.19226 338.22999 122.34985 338.70274 122.50743 339.1755 122.76018 339.93376 122.91776 340.40653 123.07535 340.8793 123.32811 341.6375 123.48569 342.1103 123.64328 342.58308 123.89603 343.34126 124.0536 343.81404 124.2112 344.28684 124.46396 345.04505 124.62154 345.51783 124.77913 345.9906 125.03188 346.7488 125.18945 347.2216 125.34705 347.69438 125.59981 348.45259 125.75739 348.92539 125.91496 349.39817 126.16772 350.15635 126.3253 350.62913 126.48288 351.1019 126.73563 351.8601 126.89322 352.3329 127.0508 352.80567 127.30356 353.5639 127.46115 354.03669 127.61873 354.50947 127.87148 355.26765 128.02907 355.74043 128.18665 356.2132 128.4394 356.9714 128.597 357.44419 128.75458 357.91697 129.00733 358.6752 129.1649 359.14796 129.3225 359.62074 129.57526 360.37895 129.73284 360.8517 129.89043 361.32453 130.14318 362.0827 130.30075 362.55549 130.45835 363.02827 130.7111 363.78648 130.86869 364.25926 131.02628 364.73204 131.27902 365.49028 131.4366 365.96305 131.5942 366.4358 131.84694 367.194 132.00452 367.6668 132.1621 368.13957 132.41487 368.89778 132.57245 369.37059 132.73003 369.84336 132.98278 370.60157 133.14037 371.07435 133.29795 371.5471 133.5507 372.30534 133.7083 372.7781 133.86588 373.2509 134.11862 374.0091 134.27622 374.48188 134.43379 374.95466 134.68656 375.71284 134.84415 376.1856 135.00173 376.6584 135.25447 377.41664 135.41205 377.8894 135.56964 378.36219 135.8224 379.1204 135.97998 379.59318 136.13758 380.06596 136.39032 380.82414 136.5479 381.2969 136.70549 381.7697 136.95825 382.52793 137.11583 383.0007 137.27342 383.47349 137.52617 384.2317 137.68375 384.70448 137.84134 385.17726 138.09409 385.93544 138.25167 386.40824 138.40924 386.881 138.66202 387.63923 138.8196 388.112 138.97718 388.58479 139.22992 389.343 139.38751 389.81578 139.54509 390.28855 139.79785 391.04676 139.95545 391.51954 140.11302 391.9923 140.36577 392.75053 140.52336 393.2233 140.68094 393.69609 140.9337 394.45429 141.0913 394.92707 141.24887 395.39985 141.6592 396.63084 141.6592 396.63084"/>
<path transform="matrix(1.00009,0,0,-1.00003,147.85105,149.6051)" stroke-width=".79701" stroke-linecap="butt" stroke-miterlimit="10" stroke-linejoin="miter" fill="none" stroke="#ff0000" d="M-141.73404-113.38724C-141.73404-113.38724-141.3237-112.97688-141.1661-112.8193-141.00853-112.66171-140.75579-112.40897-140.59819-112.25139-140.44062-112.0938-140.18785-111.84103-140.03026-111.68346-139.87268-111.52586-139.61994-111.27312-139.46236-111.11554-139.30477-110.95796-139.052-110.70518-138.89443-110.5476-138.73683-110.39003-138.48409-110.13728-138.3265-109.97969-138.16892-109.82211-137.91616-109.56935-137.75858-109.41176-137.60099-109.25418-137.34824-109.00143-137.19066-108.84384-137.03307-108.68626-136.7803-108.4335-136.62273-108.27591-136.46515-108.11833-136.21239-107.86559-136.05481-107.70801-135.89723-107.55042-135.64449-107.29767-135.4869-107.14009-135.32932-106.9825-135.07656-106.72974-134.91896-106.57216-134.76139-106.41457-134.50864-106.16182-134.35105-106.00424-134.19347-105.84665-133.9407-105.59389-133.78311-105.43631-133.62554-105.27872-133.37279-105.02597-133.21521-104.8684-133.05762-104.71082-132.80486-104.45804-132.64728-104.30046-132.48969-104.14288-132.23694-103.89014-132.07936-103.73254-131.92177-103.57497-131.669-103.3222-131.51143-103.16461-131.35384-103.00703-131.10109-102.75429-130.94351-102.5967-130.78592-102.43912-130.53316-102.18636-130.37558-102.02876-130.218-101.87119-129.96524-101.61844-129.80767-101.46086-129.65009-101.30327-129.39734-101.05052-129.23975-100.89294-129.08217-100.73535-128.8294-100.48259-128.67182-100.32501-128.51424-100.16742-128.26149-99.91467-128.1039-99.7571-127.94632-99.5995-127.69356-99.34674-127.53596-99.18916-127.37839-99.03157-127.12564-98.77882-126.96806-98.62125-126.81047-98.46367-126.55771-98.21089-126.40013-98.05331-126.24254-97.89574-125.98979-97.64299-125.83221-97.4854-125.67462-97.32782-125.42186-97.07506-125.26428-96.91747-125.10669-96.75989-124.85394-96.50714-124.69637-96.34955-124.53877-96.19197-124.28601-95.93921-124.12843-95.78162-123.97086-95.62404-123.7181-95.37129-123.56052-95.21371-123.40294-95.05612-123.15019-94.80338-122.9926-94.6458-122.83502-94.4882-122.58226-94.23544-122.42467-94.07787-122.26709-93.92027-122.01434-93.66753-121.85675-93.50995-121.69917-93.35236-121.44641-93.0996-121.28882-92.94202-121.13124-92.78442-120.8785-92.53168-120.72092-92.3741-120.56332-92.21652-120.31056-91.96375-120.15298-91.80617-119.99539-91.64859-119.74265-91.39584-119.58507-91.23825-119.42747-91.08067-119.17471-90.82791-119.01714-90.67032-118.85954-90.51274-118.6068-90.26-118.44922-90.1024-118.29163-89.94482-118.03888-89.69208-117.8813-89.53448-117.72372-89.3769-117.47095-89.12415-117.31337-88.96657-117.15579-88.80898-116.90305-88.55623-116.74545-88.39865-116.58788-88.24106-116.33511-87.9883-116.17752-87.83072-116.01994-87.67313-115.7672-87.42038-115.6096-87.2628-115.45203-87.10521-115.19926-86.85245-115.04167-86.69487-114.8841-86.53728-114.63135-86.28453-114.47377-86.12695-114.31618-85.96938-114.06342-85.7166-113.90584-85.55902-113.74825-85.40144-113.4955-85.1487-113.33792-84.9911-113.18033-84.83353-112.92757-84.58076-112.76999-84.42317-112.6124-84.2656-112.35965-84.01285-112.20207-83.85526-112.04448-83.69768-111.79173-83.44493-111.63416-83.28734-111.47658-83.12976-111.2238-82.877-111.06622-82.71942-110.90865-82.56183-110.6559-82.30908-110.4983-82.1515-110.34073-81.99391-110.08797-81.74115-109.93037-81.58357-109.7728-81.42598-109.52005-81.17323-109.36246-81.01566-109.20488-80.85806-108.95212-80.6053-108.79453-80.44772-108.63695-80.29013-108.3842-80.03738-108.22662-79.8798-108.06903-79.72223-107.81627-79.46945-107.65869-79.31187-107.5011-79.1543-107.24835-78.90155-107.09077-78.74396-106.93318-78.58638-106.68042-78.33362-106.52284-78.17603-106.36525-78.01845-106.1125-77.7657-105.95493-77.60811-105.79733-77.45053-105.54459-77.19778-105.38701-77.04019-105.22943-76.88261-104.97665-76.62985-104.81908-76.47227-104.6615-76.31468-104.40875-76.06194-104.25116-75.90436-104.09358-75.74677-103.84082-75.494-103.68323-75.33643-103.52565-75.17883-103.2729-74.92609-103.11531-74.76851-102.95773-74.61092-102.70497-74.35815-102.54738-74.20058-102.3898-74.04298-102.13705-73.79024-101.97948-73.63266-101.82188-73.47508-101.56912-73.2223-101.41154-73.06473-101.25395-72.90715-101.0012-72.6544-100.84363-72.49681-100.68604-72.33923-100.43327-72.08647-100.2757-71.92888-100.1181-71.7713-99.86536-71.51855-99.70778-71.36096-99.55019-71.20338-99.29744-70.95064-99.13986-70.79305-98.98228-70.63547-98.7295-70.3827-98.57193-70.22513-98.41435-70.06754-98.1616-69.81479-98.00401-69.65721-97.84644-69.49962-97.59367-69.24686-97.43608-69.08928-97.2785-68.93169-97.02576-68.67894-96.86816-68.52136-96.71059-68.36377-96.45782-68.11101-96.30023-67.95343-96.14265-67.79584-95.88991-67.54309-95.73233-67.38551-95.57474-67.22794-95.32198-66.97516-95.1644-66.81758-95.0068-66.66-94.75406-66.40726-94.59648-66.24966-94.43889-66.09209-94.18614-65.83934-94.02856-65.68175-93.87097-65.52417-93.61821-65.27141-93.46063-65.11382-93.30304-64.95624-93.0503-64.70349-92.89272-64.5459-92.73514-64.38832-92.48236-64.13556-92.32478-63.97798-92.1672-63.82039-91.91446-63.56764-91.75687-63.41006-91.59929-63.25247-91.34653-62.99971-91.18893-62.84213-91.03136-62.68454-90.77861-62.4318-90.62102-62.27422-90.46344-62.11662-90.21068-61.86386-90.05309-61.70628-89.89551-61.54869-89.64276-61.29594-89.48518-61.13837-89.32759-60.98079-89.07483-60.72801-88.91725-60.57043-88.75966-60.41286-88.50691-60.16011-88.34933-60.00252-88.19174-59.84494-87.939-59.5922-87.78142-59.4346-87.62383-59.27702-87.37106-59.02426-87.21349-58.86667-87.0559-58.70909-86.80315-58.45634-86.64557-58.29875-86.48799-58.14117-86.23521-57.88841-86.07764-57.73083-85.92006-57.57324-85.66731-57.3205-85.50972-57.16292-85.35214-57.00533-85.09938-56.75256-84.94179-56.59499-84.78421-56.4374-84.53146-56.18465-84.37387-56.02707-84.2163-55.86948-83.96353-55.61671-83.80594-55.45914-83.64836-55.30154-83.39561-55.0488-83.23804-54.89122-83.08044-54.73364-82.82768-54.48087-82.6701-54.32329-82.51251-54.16571-82.25977-53.91296-82.10219-53.75537-81.9446-53.5978-81.69185-53.34505-81.53427-53.18745-81.37668-53.02988-81.12392-52.77711-80.96634-52.61952-80.80875-52.46194-80.556-52.2092-80.39842-52.0516-80.24084-51.89403-79.98807-51.64127-79.83049-51.48369-79.67291-51.3261-79.42017-51.07335-79.26257-50.91577-79.105-50.75818-78.85223-50.50542-78.69464-50.34784-78.53706-50.19025-78.28432-49.9375-78.12672-49.77992-77.96915-49.62233-77.71638-49.36957-77.55879-49.21199-77.40121-49.0544-77.14847-48.80165-76.99089-48.64407-76.8333-48.4865-76.58054-48.23372-76.42296-48.07614-76.26537-47.91856-76.01262-47.66582-75.85504-47.50822-75.69745-47.35065-75.4447-47.0979-75.28712-46.9403-75.12953-46.78273-74.87677-46.52997-74.7192-46.37238-74.5616-46.2148-74.30885-45.96205-74.15128-45.80446-73.9937-45.64688-73.74092-45.39412-73.58334-45.23654-73.42577-45.07895-73.17302-44.8262-73.01543-44.66862-72.85785-44.51103-72.60509-44.25827-72.4475-44.1007-72.28992-43.9431-72.03717-43.69035-71.87958-43.53278-71.722-43.37518-71.46924-43.12242-71.31165-42.96484-71.15407-42.80725-70.90132-42.5545-70.74374-42.39693-70.58615-42.23935-70.3334-41.98659-70.17583-41.82901-70.01823-41.67143-69.76547-41.41867-69.6079-41.26108-69.4503-41.1035-69.19756-40.85075-69.03998-40.69316-68.88239-40.53558-68.62962-40.28282-68.47205-40.12523-68.31445-39.96765-68.0617-39.7149-67.90413-39.55731-67.74655-39.39973-67.49377-39.14697-67.3362-38.9894-67.17862-38.8318-66.92587-38.57906-66.76828-38.42148-66.6107-38.26389-66.35794-38.01112-66.20035-37.85355-66.04277-37.69595-65.79002-37.4432-65.63243-37.28563-65.47485-37.12804-65.22209-36.87527-65.0645-36.7177-64.90692-36.5601-64.65417-36.30736-64.4966-36.14978-64.339-35.9922-64.08626-35.73944-63.92868-35.58186-63.77109-35.42429-63.51833-35.17152-63.36075-35.01393-63.20316-34.85635-62.95041-34.6036-62.79283-34.44601-62.63524-34.28844-62.38248-34.03568-62.2249-33.87808-62.0673-33.7205-61.81456-33.46776-61.65698-33.31017-61.4994-33.15259-61.24663-32.89983-61.08905-32.74225-60.93147-32.58466-60.67873-32.33191-60.52113-32.17433-60.36356-32.01674-60.1108-31.76398-59.9532-31.6064-59.79562-31.4488-59.54288-31.19606-59.38528-31.03848-59.2277-30.88089-58.97495-30.62813-58.81735-30.47055-58.65977-30.31296-58.40703-30.06021-58.24945-29.90263-58.09186-29.74506-57.83911-29.4923-57.68153-29.33472-57.52394-29.17714-57.27118-28.92438-57.1136-28.76678-56.95601-28.6092-56.70326-28.35646-56.54568-28.19887-56.38809-28.04129-56.13533-27.78853-55.97775-27.63094-55.82016-27.47336-55.56741-27.22061-55.40984-27.06302-55.25226-26.90544-54.99948-26.65268-54.8419-26.4951-54.68433-26.33751-54.43158-26.08476-54.27399-25.92719-54.11641-25.76959-53.86365-25.51683-53.70605-25.35925-53.54848-25.20166-53.29573-24.94891-53.13814-24.79134-52.98056-24.63374-52.7278-24.38098-52.5702-24.2234-52.41263-24.06581-52.15988-23.81306-52.0023-23.65549-51.84471-23.49791-51.59196-23.24515-51.43439-23.08757-51.2768-22.93-51.02403-22.67723-50.86646-22.51964-50.70886-22.36206-50.45612-22.10931-50.29854-21.95172-50.14095-21.79414-49.88818-21.54138-49.7306-21.38379-49.57301-21.22621-49.32027-20.97346-49.16269-20.81587-49.00511-20.6583-48.75233-20.40553-48.59476-20.24796-48.43718-20.09036-48.18443-19.83762-48.02684-19.68004-47.86926-19.52245-47.6165-19.26968-47.45891-19.1121-47.30133-18.95451-47.04858-18.70177-46.89099-18.54419-46.73341-18.3866-46.48067-18.13385-46.32307-17.97627-46.1655-17.81868-45.91273-17.56592-45.75516-17.40834-45.59756-17.25076-45.34482-16.998-45.18724-16.84042-45.02965-16.68285-44.77689-16.43008-44.61931-16.27249-44.46172-16.11491-44.20897-15.86217-44.05139-15.70457-43.8938-15.547-43.64104-15.29424-43.48346-15.13664-43.32587-14.97906-43.07312-14.72632-42.91554-14.56873-42.75797-14.41115-42.50519-14.15839-42.34761-14.00081-42.19003-13.84322-41.93729-13.59047-41.7797-13.43289-41.62212-13.2753-41.36935-13.02254-41.21176-12.86496-41.05418-12.70737-40.80144-12.45462-40.64384-12.29704-40.48627-12.13945-40.23352-11.8867-40.07593-11.72913-39.91835-11.57153-39.66559-11.31877-39.50801-11.1612-39.35042-11.00362-39.09767-10.75085-38.9401-10.59328-38.7825-10.4357-38.52974-10.18294-38.37216-10.02534-38.21457-9.86777-37.96182-9.61502-37.80424-9.45743-37.64665-9.29985-37.39389-9.04709-37.23631-8.8895-37.07872-8.73192-36.82597-8.47917-36.6684-8.32158-36.51082-8.164-36.25804-7.91124-36.10046-7.75366-35.94289-7.59607-35.69014-7.34332-35.53255-7.18575-35.37497-7.02815-35.12221-6.77539-34.96461-6.61781-34.80704-6.46022-34.55429-6.20747-34.3967-6.0499-34.23912-5.8923-33.98637-5.63956-33.82878-5.48198-33.6712-5.32439-33.41844-5.07162-33.26086-4.91405-33.10327-4.75647-32.85052-4.50371-32.69295-4.34613-32.53535-4.18855-32.2826-3.93579-32.12502-3.7782-31.96742-3.62062-31.71468-3.36787-31.5571-3.21028-31.3995-3.0527-31.14674-2.79994-30.98917-2.64235-30.83157-2.48477-30.57883-2.23203-30.42125-2.07443-30.26367-1.91685-30.0109-1.6641-29.85332-1.50652-29.69574-1.34892-29.443-1.09618-29.2854-.9386-29.12782-.781-28.87508-.52826-28.71748-.37068-28.5599-.21309-28.30714 .03964-28.14955 .19722-27.99197 .35481-27.73923 .60756-27.58163 .76514-27.42406 .92273-27.1713 1.17549-27.01372 1.33307-26.85612 1.49065-26.60338 1.74341-26.4458 1.90099-26.28821 2.05856-26.03545 2.31133-25.87787 2.46892-25.72028 2.6265-25.46753 2.87924-25.30995 3.03683-25.15236 3.19441-24.8996 3.44717-24.74202 3.60477-24.58443 3.76234-24.33168 4.01509-24.1741 4.17268-24.01653 4.33026-23.76375 4.58302-23.60617 4.7406-23.4486 4.8982-23.19585 5.15094-23.03825 5.30852-22.88068 5.46611-22.62793 5.71886-22.47034 5.87643-22.31276 6.03403-22.06 6.28679-21.9024 6.44437-21.74483 6.60196-21.49208 6.8547-21.33449 7.01228-21.17691 7.16988-20.92415 7.42264-20.76657 7.58022-20.60898 7.7378-20.35623 7.99055-20.19865 8.14813-20.04106 8.30571-19.7883 8.55847-19.63072 8.71606-19.47313 8.87364-19.22038 9.12639-19.0628 9.28398-18.90521 9.44156-18.65245 9.69432-18.49487 9.85191-18.33728 10.00949-18.08453 10.26224-17.92696 10.41983-17.76938 10.57741-17.5166 10.83017-17.35902 10.98775-17.20145 11.14534-16.9487 11.39809-16.7911 11.55566-16.63353 11.71326-16.38078 11.966-16.22319 12.12358-16.06561 12.28117-15.81285 12.53394-15.65526 12.69151-15.49768 12.8491-15.24493 13.10185-15.08734 13.25943-14.92976 13.41702-14.677 13.66978-14.51942 13.82736-14.36183 13.98494-14.10909 14.2377-13.9515 14.39528-13.79391 14.55286-13.54115 14.80562-13.38358 14.96321-13.22598 15.12079-12.97324 15.37354-12.81566 15.53113-12.65807 15.6887-12.4053 15.94147-12.24773 16.09906-12.09013 16.25664-11.83739 16.50938-11.67981 16.66698-11.52223 16.82455-11.26945 17.07732-11.11188 17.2349-10.9543 17.39249-10.70155 17.64523-10.54396 17.80281-10.38638 17.9604-10.13364 18.21315-9.97604 18.37073-9.81847 18.52832-9.5657 18.78108-9.40811 18.93866-9.25053 19.09625-8.99779 19.349-8.8402 19.50658-8.68262 19.66417-8.42986 19.91693-8.27228 20.07451-8.11469 20.23209-7.86194 20.48485-7.70436 20.64243-7.54677 20.8-7.294 21.05276-7.13643 21.21036-6.97884 21.36794-6.72609 21.62068-6.56851 21.77827-6.41092 21.93585-6.15816 22.18861-6.00058 22.3462-5.84299 22.50378-5.59024 22.75653-5.43266 22.91412-5.27509 23.0717-5.02232 23.32445-4.86475 23.48203-4.70717 23.63962-4.4544 23.89238-4.29681 24.04996-4.13924 24.20755-3.88649 24.4603-3.7289 24.61787-3.57132 24.77547-3.31856 25.02823-3.16096 25.1858-3.00339 25.3434-2.75064 25.59615-2.59305 25.75372-2.43547 25.91132-2.18271 26.16408-2.02513 26.32166-1.86754 26.47923-1.61479 26.732-1.45721 26.88957-1.29962 27.04715-1.04686 27.29991-.88928 27.4575-.73169 27.61508-.47894 27.86783-.32137 28.02542-.16377 28.183 .08896 28.43576 .24654 28.59335 .40413 28.75093 .65688 29.00368 .81445 29.16127 .97203 29.31885 1.2248 29.5716 1.38237 29.72917 1.53995 29.88676 1.79271 30.13953 1.9503 30.2971 2.10788 30.4547 2.36063 30.70744 2.51822 30.86502 2.6758 31.02261 2.92856 31.27538 3.08615 31.43295 3.24373 31.59055 3.49648 31.84329 3.65407 32.00087 3.81165 32.15846 4.0644 32.41122 4.22198 32.5688 4.37958 32.72638 4.63232 32.97914 4.7899 33.13672 4.9475 33.2943 5.20026 33.54706 5.35783 33.70465 5.51543 33.86223 5.76817 34.11497 5.92575 34.27257 6.08334 34.43015 6.3361 34.6829 6.49368 34.8405 6.65128 34.99808 6.90402 35.25082 7.0616 35.40842 7.21918 35.566 7.47194 35.81874 7.62952 35.97632 7.7871 36.13391 8.03986 36.38667 8.19745 36.54425 8.35503 36.70184 8.60777 36.95459 8.76537 37.11217 8.92294 37.26976 9.1757 37.52252 9.3333 37.6801 9.49088 37.83769 9.74362 38.09044 9.90121 38.24802 10.05879 38.40561 10.31155 38.65837 10.46913 38.81595 10.62672 38.97353 10.87947 39.22629 11.03705 39.38387 11.19464 39.54144 11.4474 39.7942 11.60498 39.9518 11.76257 40.10938 12.01532 40.36212 12.1729 40.51971 12.33049 40.67729 12.58325 40.93005 12.74083 41.08765 12.89842 41.24522 13.15117 41.49797 13.30875 41.65556 13.46632 41.81314 13.71909 42.06589 13.87666 42.22346 14.03424 42.38106 14.287 42.63382 14.4446 42.7914 14.60217 42.94899 14.85492 43.20174 15.01251 43.35931 15.17009 43.5169 15.42285 43.76967 15.58044 43.92725 15.73802 44.08484 15.99077 44.33759 16.14836 44.49516 16.30594 44.65276 16.5587 44.90552 16.71628 45.0631 16.87387 45.22067 17.12662 45.47343 17.2842 45.63101 17.44179 45.78859 17.69455 46.04135 17.85213 46.19894 18.00972 46.35652 18.26247 46.60927 18.42004 46.76686 18.57764 46.92444 18.83038 47.17719 18.98796 47.33478 19.14555 47.49236 19.39832 47.74512 19.5559 47.90271 19.71347 48.06029 19.96623 48.31303 20.12381 48.47061 20.28139 48.6282 20.53415 48.88097 20.69174 49.03854 20.84932 49.19614 21.10207 49.44888 21.25966 49.60646 21.41724 49.76405 21.67 50.01682 21.82759 50.1744 21.98517 50.33199 22.23792 50.58473 22.39551 50.74231 22.55309 50.8999 22.80585 51.15266 22.96342 51.31024 23.12102 51.46782 23.37376 51.72058 23.53134 51.87816 23.68893 52.03574 23.9417 52.2885 24.09927 52.44609 24.25687 52.60367 24.50961 52.85641 24.66719 53.014 24.82478 53.17159 25.07753 53.42433 25.2351 53.58192 25.3927 53.7395 25.64546 53.99226 25.80304 54.14986 25.96062 54.30743 26.21338 54.56018 26.37096 54.71776 26.52853 54.87535 26.7813 55.12811 26.93889 55.28569 27.09647 55.44328 27.34921 55.69603 27.5068 55.8536 27.66438 56.0112 27.91714 56.26396 28.07474 56.42154 28.23232 56.57913 28.48506 56.83188 28.64265 56.98946 28.80023 57.14705 29.053 57.39981 29.21057 57.55739 29.36816 57.71497 29.62091 57.96773 29.77849 58.1253 29.93608 58.28288 30.18884 58.53564 30.34642 58.69324 30.50401 58.85081 30.75676 59.10356 30.91434 59.26115 31.07193 59.41873 31.32468 59.67148 31.48225 59.82907 31.63985 59.98665 31.89261 60.23941 32.05019 60.397 32.20776 60.55458 32.46053 60.80733 32.6181 60.9649 32.77568 61.1225 33.02844 61.37526 33.18604 61.53284 33.34361 61.69043 33.59636 61.94318 33.75395 62.10075 33.91153 62.25835 34.16429 62.51111 34.32188 62.66869 34.47946 62.82628 34.73221 63.07903 34.8898 63.2366 35.04738 63.3942 35.30014 63.64696 35.45772 63.80453 35.61531 63.96211 35.86806 64.21487 36.02563 64.37245 36.18323 64.53003 36.43599 64.78279 36.59357 64.94038 36.75116 65.09796 37.0039 65.35071 37.16148 65.5083 37.31908 65.66588 37.57182 65.91862 37.7294 66.07622 37.887 66.2338 38.13976 66.48656 38.29733 66.64415 38.45491 66.80173 38.70767 67.05447 38.86525 67.21205 39.02283 67.36964 39.27559 67.6224 39.43318 67.77998 39.59076 67.93758 39.8435 68.19032 40.0011 68.3479 40.15868 68.5055 40.41144 68.75826 40.56903 68.91583 40.72661 69.07343 40.97935 69.32617 41.13695 69.48375 41.29453 69.64134 41.54729 69.8941 41.70486 70.05168 41.86246 70.20926 42.1152 70.46202 42.27278 70.6196 42.43037 70.77718 42.68312 71.02992 42.8407 71.18752 42.99829 71.3451 43.25105 71.59785 43.40863 71.75545 43.56622 71.91302 43.81897 72.16577 43.97655 72.32336 44.13414 72.48094 44.3869 72.7337 44.54448 72.8913 44.70206 73.04887 44.95482 73.30162 45.1124 73.4592 45.26997 73.61679 45.52274 73.86955 45.68033 74.02713 45.8379 74.18472 46.09065 74.43747 46.24825 74.59505 46.40582 74.75264 46.65858 75.0054 46.81618 75.16298 46.97375 75.32057 47.2265 75.57332 47.3841 75.7309 47.54167 75.88849 47.79443 76.14125 47.95201 76.29883 48.1096 76.4564 48.36235 76.70917 48.51993 76.86674 48.67752 77.02432 48.93027 77.27707 49.08784 77.43466 49.24544 77.59224 49.4982 77.845 49.65578 78.0026 49.81337 78.16017 50.06612 78.41292 50.2237 78.57051 50.38129 78.72809 50.63405 78.98085 50.79163 79.13844 50.9492 79.29602 51.20197 79.54877 51.35954 79.70634 51.51712 79.86394 51.76988 80.1167 51.92747 80.27428 52.08505 80.43187 52.3378 80.68462 52.49539 80.8422 52.65297 80.99979 52.90573 81.25255 53.06332 81.41013 53.2209 81.56772 53.47365 81.82047 53.63124 81.97804 53.78882 82.13564 54.04158 82.3884 54.19916 82.54597 54.35675 82.70355 54.6095 82.95631 54.76707 83.11389 54.92467 83.27147 55.17741 83.52422 55.33499 83.68181 55.49258 83.83939 55.74535 84.09215 55.90292 84.24974 56.06052 84.40732 56.31326 84.66006 56.47084 84.81766 56.62843 84.97523 56.8812 85.228 57.03877 85.38559 57.19635 85.54317 57.44911 85.79591 57.60669 85.95349 57.76427 86.11108 58.01703 86.36385 58.17462 86.52142 58.3322 86.67902 58.58495 86.93176 58.74254 87.08934 58.90012 87.24693 59.15288 87.4997 59.31047 87.65727 59.46805 87.81487 59.7208 88.06761 59.87839 88.22519 60.03596 88.38278 60.28873 88.63554 60.4463 88.79312 60.6039 88.9507 60.85664 89.20346 61.01422 89.36104 61.17181 89.51862 61.42456 89.77136 61.58214 89.92896 61.73973 90.08653 61.9925 90.3393 62.15007 90.49689 62.30766 90.65446 62.56041 90.90721 62.71799 91.0648 62.87558 91.22238 63.12834 91.47514 63.28592 91.63274 63.4435 91.79031 63.69626 92.04306 63.85384 92.20064 64.01141 92.35823 64.26418 92.611 64.42177 92.76857 64.57935 92.92616 64.83209 93.17891 64.98969 93.33649 65.14726 93.49408 65.40002 93.74684 65.55762 93.90442 65.7152 94.06201 65.96794 94.31476 66.12553 94.47234 66.28311 94.62993 66.53586 94.88268 66.69344 95.04025 66.85103 95.19783 67.10379 95.4506 67.26137 95.60818 67.41896 95.76576 67.6717 96.01851 67.82928 96.1761 67.98688 96.33368 68.23964 96.58644 68.39722 96.74403 68.55481 96.90161 68.80756 97.15436 68.96513 97.31195 69.12273 97.46953 69.37549 97.72229 69.53307 97.87988 69.69064 98.03746 69.9434 98.2902 70.10098 98.44778 70.25856 98.60538 70.51132 98.85814 70.66891 99.01572 70.82649 99.17331 71.07924 99.42606 71.23683 99.58363 71.39441 99.74123 71.64717 99.99399 71.80476 100.15157 71.96234 100.30916 72.21509 100.5619 72.37268 100.71948 72.53026 100.87708 72.783 101.12982 72.94058 101.2874 73.09818 101.44498 73.35094 101.69775 73.50851 101.85533 73.6661 102.01291 73.91885 102.26566 74.07643 102.42325 74.23402 102.58083 74.48679 102.83359 74.64436 102.99118 74.80196 103.14876 75.0547 103.4015 75.21228 103.5591 75.36987 103.71667 75.62263 103.96944 75.78021 104.12703 75.93779 104.2846 76.19055 104.53735 76.34813 104.69493 76.5057 104.85252 76.75847 105.10529 76.91606 105.26286 77.07364 105.42046 77.32639 105.6732 77.48398 105.83078 77.64156 105.98837 77.89432 106.24113 78.05191 106.39871 78.20949 106.5563 78.46223 106.80905 78.61983 106.96663 78.7774 107.12422 79.03015 107.37697 79.18773 107.53455 79.34532 107.69212 79.59808 107.9449 79.75566 108.10248 79.91325 108.26006 80.166 108.5128 80.32358 108.6704 80.48117 108.82797 80.73393 109.08073 80.89151 109.23833 81.0491 109.3959 81.30185 109.64865 81.45943 109.80624 81.61702 109.96382 81.86978 110.21658 82.02736 110.37418 82.18494 110.53175 82.4377 110.7845 82.59528 110.94208 82.75285 111.09967 83.00562 111.35243 83.16321 111.51001 83.32079 111.6676 83.57353 111.92035 83.73112 112.07793 83.8887 112.23552 84.14145 112.48827 84.29904 112.64584 84.45662 112.80344 84.70938 113.0562 84.86697 113.21378 85.02455 113.37137 85.2773 113.62411 85.43488 113.7817 85.59247 113.93927 85.84523 114.19205 86.0028 114.34962 86.1604 114.5072 86.41315 114.75995 86.57072 114.91754 86.72832 115.07512 86.98108 115.32788 87.13866 115.48547 87.29625 115.64305 87.549 115.8958 87.70657 116.05339 87.86417 116.21097 88.11693 116.46373 88.2745 116.62132 88.43208 116.7789 88.68484 117.03165 88.84242 117.18922 89 117.34682 89.25276 117.59958 89.41035 117.75716 89.56793 117.91475 89.82068 118.1675 89.97827 118.32507 90.13585 118.48267 90.3886 118.73541 90.54619 118.89299 90.70377 119.05058 90.95653 119.30334 91.11412 119.46092 91.2717 119.61852 91.52444 119.87126 91.68202 120.02884 91.83961 120.18642 92.09238 120.4392 92.24995 120.59677 92.40755 120.75435 92.6603 121.0071 92.81787 121.16469 92.97546 121.32227 93.22823 121.57503 93.3858 121.73262 93.5434 121.8902 93.79614 122.14294 93.95372 122.30054 94.11131 122.45811 94.36407 122.71088 94.52165 122.86847 94.67923 123.02605 94.93199 123.2788 95.08957 123.43637 95.24715 123.59396 95.49991 123.84673 95.6575 124.0043 95.81508 124.1619 96.06783 124.41464 96.22542 124.57222 96.383 124.72981 96.63574 124.98256 96.79333 125.14014 96.95091 125.29773 97.20367 125.55049 97.36127 125.70807 97.51884 125.86566 97.77159 126.11841 97.92917 126.27599 98.08676 126.43356 98.33952 126.68634 98.4971 126.84392 98.6547 127.0015 98.90744 127.25424 99.06502 127.41183 99.22261 127.56941 99.47537 127.82217 99.63295 127.97977 99.79054 128.13735 100.04329 128.39009 100.20087 128.54769 100.35846 128.70526 100.61122 128.95803 100.7688 129.11562 100.92638 129.2732 101.17914 129.52594 101.33672 129.68352 101.4943 129.84111 101.74706 130.09387 101.90465 130.25145 102.06223 130.40904 102.31497 130.66179 102.47256 130.81937 102.63014 130.97696 102.88289 131.2297 103.04048 131.38729 103.19806 131.54488 103.45082 131.79764 103.60841 131.95522 103.76599 132.11281 104.01874 132.36556 104.17632 132.52313 104.33391 132.68071 104.58667 132.93349 104.74425 133.09107 104.90184 133.24864 105.15459 133.50139 105.31216 133.65898 105.46976 133.81656 105.72252 134.06932 105.8801 134.22692 106.03769 134.38449 106.29044 134.63724 106.44801 134.79483 106.6056 134.95241 106.85837 135.20517 107.01595 135.36277 107.17352 135.52034 107.42628 135.77309 107.58386 135.93067 107.74144 136.08826 107.99419 136.341 108.15178 136.49858 108.30936 136.65618 108.56212 136.90894 108.71971 137.06652 108.87729 137.2241 109.13004 137.47686 109.28763 137.63443 109.4452 137.79203 109.69797 138.04479 109.85556 138.20236 110.01314 138.35996 110.26588 138.6127 110.42346 138.77028 110.58105 138.92786 110.83382 139.18064 110.9914 139.33821 111.14899 139.49579 111.40173 139.74854 111.55931 139.90613 111.7169 140.0637 111.96967 140.31647 112.12724 140.47406 112.28484 140.63164 112.53758 140.88439 112.69516 141.04198 112.85275 141.19956 113.10551 141.45232 113.26309 141.60991 113.42067 141.76749 113.67343 142.02024 113.83101 142.17781 113.98859 142.3354 114.24133 142.58815 114.39893 142.74573 114.5565 142.90332 114.80927 143.15608 114.96686 143.31366 115.12444 143.47126 115.37718 143.724 115.53477 143.88158 115.69235 144.03917 115.94511 144.29193 116.1027 144.44951 116.26028 144.6071 116.51303 144.85985 116.67061 145.01743 116.8282 145.175 117.08096 145.42778 117.23854 145.58536 117.39613 145.74294 117.64888 145.99568 117.80646 146.15328 117.96405 146.31085 118.21681 146.56362 118.37439 146.7212 118.53198 146.87879 118.78473 147.13153 118.9423 147.28913 119.0999 147.4467 119.35266 147.69947 119.51024 147.85706 119.66782 148.01464 119.92058 148.26738 120.07816 148.42496 120.23573 148.58255 120.48848 148.8353 120.64607 148.99288 120.80365 149.15047 121.05641 149.40323 121.214 149.5608 121.37158 149.7184 121.62433 149.97115 121.78192 150.12873 121.9395 150.28632 122.19226 150.53908 122.34985 150.69666 122.50743 150.85425 122.76018 151.107 122.91776 151.26457 123.07535 151.42215 123.32811 151.67493 123.48569 151.8325 123.64328 151.99008 123.89603 152.24283 124.0536 152.40042 124.2112 152.558 124.46396 152.81076 124.62154 152.96836 124.77913 153.12593 125.03188 153.37868 125.18945 153.53627 125.34705 153.69385 125.59981 153.94661 125.75739 154.1042 125.91496 154.26178 126.16772 154.51453 126.3253 154.6721 126.48288 154.8297 126.73563 155.08245 126.89322 155.24002 127.0508 155.39762 127.30356 155.65038 127.46115 155.80796 127.61873 155.96555 127.87148 156.21829 128.02907 156.37587 128.18665 156.53347 128.4394 156.78623 128.597 156.9438 128.75458 157.1014 129.00733 157.35414 129.1649 157.51172 129.3225 157.6693 129.57526 157.92208 129.73284 158.07965 129.89043 158.23723 130.14318 158.48998 130.30075 158.64757 130.45835 158.80515 130.7111 159.0579 130.86869 159.2155 131.02628 159.37308 131.27902 159.62583 131.4366 159.78342 131.5942 159.941 131.84694 160.19374 132.00452 160.35134 132.1621 160.50891 132.41487 160.76168 132.57245 160.91925 132.73003 161.07685 132.98278 161.32959 133.14037 161.48717 133.29795 161.64476 133.5507 161.89752 133.7083 162.0551 133.86588 162.21269 134.11862 162.46544 134.27622 162.62302 134.43379 162.78061 134.68656 163.03337 134.84415 163.19095 135.00173 163.34854 135.25447 163.60129 135.41205 163.75887 135.56964 163.91645 135.8224 164.16922 135.97998 164.3268 136.13758 164.48438 136.39032 164.73712 136.5479 164.89472 136.70549 165.05229 136.95825 165.30506 137.11583 165.46265 137.27342 165.62023 137.52617 165.87297 137.68375 166.03057 137.84134 166.18814 138.09409 166.44089 138.25167 166.59848 138.40924 166.75606 138.66202 167.00882 138.8196 167.1664 138.97718 167.32399 139.22992 167.57674 139.38751 167.73432 139.54509 167.8919 139.79785 168.14467 139.95545 168.30225 140.11302 168.45984 140.36577 168.71259 140.52336 168.87017 140.68094 169.02776 140.9337 169.28052 141.0913 169.4381 141.24887 169.59569 141.6592 170.00601 141.6592 170.00601"/>
</g>
<use data-text="&#x2022;" xlink:href="#font_5_1" transform="matrix(9.963496,0,0,-9.962899,173.70938,95.12347)"/>
<use data-text="&#x2022;" xlink:href="#font_5_1" transform="matrix(9.963496,0,0,-9.962899,145.35982,123.47131)"/>
<use data-text="&#x2022;" xlink:href="#font_5_1" transform="matrix(9.963496,0,0,-9.962899,145.35982,180.16703)"/>
</svg>
