<svg xmlns="http://www.w3.org/2000/svg" xmlns:xlink="http://www.w3.org/1999/xlink" version="1.1" width="286" height="20" viewBox="0 0 286 20">
<defs>
<path id="font_1_1" d="M.6749878 .22944641C.69299319 .22944641 .71199038 .22944641 .71199038 .25144959 .71199038 .27246095 .69200137 .27246095 .6749878 .27246095H.12298584C.10598755 .27246095 .085998538 .27246095 .085998538 .25144959 .085998538 .22944641 .10499573 .22944641 .12298584 .22944641H.6749878Z"/>
<path id="font_2_1" d="M.3039856 .6392822C.3039856 .6642761 .30299378 .666275 .27799989 .666275 .21598816 .60227969 .12399292 .60227969 .09298706 .60227969V.57128909C.11199951 .57128909 .17298889 .57128909 .22698975 .5972748V.08001709C.22698975 .042999269 .22399903 .0309906 .1309967 .0309906H.09899902V0C.1349945 .0029907227 .22399903 .0029907227 .2649994 .0029907227 .30599977 .0029907227 .3959961 .0029907227 .43199159 0V.0309906H.3999939C.30699159 .0309906 .3039856 .042999269 .3039856 .08001709V.6392822Z"/>
<path id="font_2_2" d="M.0289917 .19602967V.16503906H.3019867V.07901001C.3019867 .041992189 .29899598 .0309906 .22399903 .0309906H.20199585V0C.2649994 .0029907227 .33499146 .0029907227 .34199525 .0029907227 .34700013 .0029907227 .4189911 .0029907227 .48199464 0V.0309906H.45999146C.3849945 .0309906 .38198854 .041992189 .38198854 .07901001V.16503906H.48399354V.19602967H.38198854V.64974978C.38198854 .669754 .38198854 .6767578 .36299134 .6767578 .35099793 .6767578 .34999085 .67575076 .34098817 .66174319L.0289917 .19602967M.06098938 .19602967 .30799867 .56581118V.19602967H.06098938Z"/>
</defs>
<path transform="matrix(1.00003,0,0,-1.00006,143.23177,4.6893217)" stroke-width="1.19553" stroke-linecap="butt" stroke-miterlimit="10" stroke-linejoin="miter" fill="none" stroke="#000000" d="M-140.77762 0H140.77762"/>
<path transform="matrix(-1.00003,-0,0,1.00006,2.4499207,4.6893217)" stroke-width=".9564" stroke-linecap="round" stroke-linejoin="round" fill="none" stroke="#000000" d="M-1.91284 2.55046C-1.75343 1.59402 0 .15938 .4782 0 0-.15938-1.75343-1.59402-1.91284-2.55046"/>
<path transform="matrix(1.00003,0,0,-1.00006,284.0136,4.6893217)" stroke-width=".9564" stroke-linecap="round" stroke-linejoin="round" fill="none" stroke="#000000" d="M-1.91284 2.55046C-1.75343 1.59402 0 .15938 .4782 0 0-.15938-1.75343-1.59402-1.91284-2.55046"/>
<path transform="matrix(1.00003,0,0,-1.00006,143.23177,4.6893217)" stroke-width="1.19553" stroke-linecap="butt" stroke-miterlimit="10" stroke-linejoin="miter" fill="none" stroke="#0000ff" d="M-28.3468 0H113.38724"/>
<path transform="matrix(1.00003,0,0,-1.00006,143.23177,4.6893217)" d="M-25.85611 0C-25.85611 1.37558-26.97122 2.49069-28.3468 2.49069-29.72238 2.49069-30.8375 1.37558-30.8375 0-30.8375-1.37558-29.72238-2.49069-28.3468-2.49069-26.97122-2.49069-25.85611-1.37558-25.85611 0ZM-28.3468 0" fill="#0000ff"/>
<path transform="matrix(1.00003,0,0,-1.00006,143.23177,4.6893217)" stroke-width="1.19553" stroke-linecap="butt" stroke-miterlimit="10" stroke-linejoin="miter" fill="none" stroke="#0000ff" d="M-25.85611 0C-25.85611 1.37558-26.97122 2.49069-28.3468 2.49069-29.72238 2.49069-30.8375 1.37558-30.8375 0-30.8375-1.37558-29.72238-2.49069-28.3468-2.49069-26.97122-2.49069-25.85611-1.37558-25.85611 0ZM-28.3468 0"/>
<path transform="matrix(1.00003,0,0,-1.00006,143.23177,4.6893217)" d="M115.87793 0C115.87793 1.37558 114.76282 2.49069 113.38724 2.49069 112.01166 2.49069 110.89655 1.37558 110.89655 0 110.89655-1.37558 112.01166-2.49069 113.38724-2.49069 114.76282-2.49069 115.87793-1.37558 115.87793 0ZM113.38724 0" fill="#0000ff"/>
<path transform="matrix(1.00003,0,0,-1.00006,143.23177,4.6893217)" stroke-width="1.19553" stroke-linecap="butt" stroke-miterlimit="10" stroke-linejoin="miter" fill="none" stroke="#0000ff" d="M115.87793 0C115.87793 1.37558 114.76282 2.49069 113.38724 2.49069 112.01166 2.49069 110.89655 1.37558 110.89655 0 110.89655-1.37558 112.01166-2.49069 113.38724-2.49069 114.76282-2.49069 115.87793-1.37558 115.87793 0ZM113.38724 0"/>
<use data-text="&#x2212;" xlink:href="#font_1_1" transform="matrix(8.966669,0,0,-8.966938,108.996738,18.970179)"/>
<use data-text="1" xlink:href="#font_2_1" transform="matrix(8.966669,0,0,-8.966938,116.16397,18.970179)"/>
<use data-text="4" xlink:href="#font_2_2" transform="matrix(8.966669,0,0,-8.966938,254.3181,18.970179)"/>
</svg>
