<svg xmlns="http://www.w3.org/2000/svg" xmlns:xlink="http://www.w3.org/1999/xlink" version="1.1" width="307" height="308" viewBox="0 0 307 308">
<defs>
<path id="font_1_2" d="M.33399964 .30233766C.33999635 .32835389 .36299134 .42037965 .43299867 .42037965 .43798829 .42037965 .46199037 .42037965 .48298646 .40734864 .45498658 .402359 .43499757 .37734986 .43499757 .35334779 .43499757 .33735658 .44599916 .31835938 .47299195 .31835938 .49499513 .31835938 .5269928 .3363495 .5269928 .37635804 .5269928 .42837525 .46798707 .4423828 .43399049 .4423828 .37599183 .4423828 .34098817 .38935853 .32899476 .36634828 .3039856 .43237306 .25 .4423828 .22099304 .4423828 .116989139 .4423828 .05999756 .3133545 .05999756 .28834535 .05999756 .27833558 .069992069 .27833558 .07199097 .27833558 .07998657 .27833558 .08299255 .28033448 .084991458 .28933717 .11898804 .39535523 .18499756 .42037965 .21899414 .42037965 .23799134 .42037965 .272995 .4113617 .272995 .35334779 .272995 .32235719 .2559967 .25532533 .21899414 .11528015 .20298767 .053268434 .16799927 .011245728 .12399292 .011245728 .117996219 .011245728 .09498596 .011245728 .07398987 .024276734 .09899902 .029266358 .12098694 .05027771 .12098694 .07827759 .12098694 .105270389 .09899902 .11328125 .083999637 .11328125 .053985597 .11328125 .0289917 .08728027 .0289917 .055267335 .0289917 .009246826 .07899475-.0107421879 .12298584-.0107421879 .18899536-.0107421879 .22499085 .059280397 .22799683 .0652771 .23999024 .028274537 .27598573-.0107421879 .33599855-.0107421879 .43899537-.0107421879 .49598695 .118270877 .49598695 .14328003 .49598695 .1532898 .4869995 .1532898 .48399354 .1532898 .47499085 .1532898 .47299195 .14929199 .47099305 .14228821 .43798829 .03527832 .36999513 .011245728 .33799745 .011245728 .29899598 .011245728 .2829895 .043273927 .2829895 .07727051 .2829895 .09927368 .2889862 .121276859 .2999878 .16529846L.33399964 .30233766Z"/>
<path id="font_1_3" d="M.48599244 .38136292C.48999024 .39537049 .48999024 .39736939 .48999024 .40437318 .48999024 .42237855 .47599793 .43138124 .46099855 .43138124 .45098878 .43138124 .43499757 .42536927 .42599488 .41036988 .42399598 .405365 .41600038 .37435914 .4119873 .35635377 .40499879 .33035279 .397995 .30334474 .3919983 .27633668L.34700013 .09628296C.34298707 .08126831 .2999878 .011245728 .23399353 .011245728 .18299866 .011245728 .17199707 .055267335 .17199707 .0922699 .17199707 .1382904 .18899536 .20030213 .22299195 .28833009 .23899842 .3293457 .24299622 .3403473 .24299622 .36035157 .24299622 .405365 .21099854 .4423828 .16099549 .4423828 .06599426 .4423828 .0289917 .29733277 .0289917 .28833009 .0289917 .27833558 .038986207 .27833558 .040985109 .27833558 .050994874 .27833558 .051986696 .28033448 .056991579 .29634095 .083999637 .3903656 .12399292 .42037965 .1579895 .42037965 .1659851 .42037965 .18299866 .42037965 .18299866 .3883667 .18299866 .36335755 .17298889 .3373413 .1659851 .31834413 .12599182 .21231079 .10798645 .1552887 .10798645 .10827637 .10798645 .019256592 .17098999-.0107421879 .22999573-.0107421879 .2689972-.0107421879 .30299378 .0062561037 .33099366 .03425598 .31799317-.017745972 .30599977-.06674194 .2659912-.11973572 .23999024-.15385437 .20199585-.18309021 .1559906-.18309021 .14199829-.18309021 .09700012-.18005371 .07998657-.14074707 .09599304-.14074707 .10899353-.14074707 .12298584-.1287384 .1329956-.11973572 .14299011-.10673523 .14299011-.08773804 .14299011-.056747438 .115997318-.052734376 .10598755-.052734376 .08299255-.052734376 .049987794-.068740848 .049987794-.11773682 .049987794-.16796875 .09399414-.20507813 .1559906-.20507813 .25898744-.20507813 .3619995-.11373901 .3899994-.00074768069L.48599244 .38136292Z"/>
<clipPath id="clip_2">
<path transform="matrix(1.00008,0,0,-1.00008,148.90847,159.47772)" d="M-141.73404-141.73404V141.73404H141.73404V-141.73404ZM141.73404 141.73404"/>
</clipPath>
<path id="font_3_1" d="M.44400025 .24998474C.44400025 .35688783 .35499574 .44381715 .25 .44381715 .14199829 .44381715 .054992677 .35488893 .054992677 .24998474 .054992677 .14407349 .14199829 .056137086 .25 .056137086 .35499574 .056137086 .44400025 .14308167 .44400025 .24998474Z"/>
<path id="font_4_1" d="M.33099366-.2400055C.33099366-.23701477 .33099366-.23500061 .31399537-.21800232 .18899536-.0920105 .15699768 .09700012 .15699768 .25 .15699768 .42399598 .19499207 .59799197 .31799317 .72299197 .33099366 .73498538 .33099366 .7369995 .33099366 .73999026 .33099366 .746994 .32699586 .75 .32099916 .75 .31098939 .75 .22099304 .6819916 .1619873 .5549927 .11099243 .44499208 .09899902 .33399964 .09899902 .25 .09899902 .17199707 .10998535 .050994874 .16499329-.06201172 .22499085-.18501282 .31098939-.25 .32099916-.25 .32699586-.25 .33099366-.24700928 .33099366-.2400055Z"/>
<path id="font_4_4" d="M.2939911 .64004519C.2939911 .66400149 .2939911 .6660156 .2709961 .6660156 .20899964 .60227969 .12098694 .60227969 .08898926 .60227969V.57128909C.10899353 .57128909 .16799927 .57128909 .21998596 .5972748V.07902527C.21998596 .042999269 .21699524 .0309906 .1269989 .0309906H.09498596V0C.12998963 .0029907227 .21699524 .0029907227 .25698854 .0029907227 .29699708 .0029907227 .38398744 .0029907227 .4189911 0V.0309906H.3869934C.29699708 .0309906 .2939911 .041992189 .2939911 .07902527V.64004519Z"/>
<path id="font_1_1" d="M.20298767 .0009918213C.20298767 .066986087 .17799378 .10598755 .13899231 .10598755 .10598755 .10598755 .085998538 .08099365 .085998538 .052993776 .085998538 .025985718 .10598755 0 .13899231 0 .15098572 0 .1639862 .0039978029 .17399597 .0129852299 .1769867 .01499939 .17799378 .015991211 .1789856 .015991211 .17999268 .015991211 .18099976 .01499939 .18099976 .0009918213 .18099976-.07316589 .1459961-.13328552 .11299133-.16635132 .101989749-.17736817 .101989749-.17936707 .101989749-.18237305 .101989749-.18936157 .10699463-.19335938 .11199951-.19335938 .12298584-.19335938 .20298767-.116256717 .20298767 .0009918213Z"/>
<path id="font_4_3" d="M.45999146 .31976319C.45999146 .39982606 .45498658 .47988893 .41999818 .5539398 .37399293 .65000918 .2919922 .6660156 .25 .6660156 .18998719 .6660156 .116989139 .64001467 .07598877 .54693606 .04399109 .47789 .038986207 .39982606 .038986207 .31976319 .038986207 .24472046 .042999269 .15464783 .083999637 .07859802 .1269989-.0024719239 .19999695-.022460938 .24899292-.022460938 .30299378-.022460938 .3789978-.0014648438 .4229889 .09359741 .45498658 .16265869 .45999146 .2407074 .45999146 .31976319M.24899292-.00047302247C.20999146-.00047302247 .15098572 .024551392 .1329956 .12062073 .12199402 .18066406 .12199402 .2727356 .12199402 .3317871 .12199402 .39582826 .12199402 .46188355 .12998963 .5159149 .14898682 .63500979 .22399903 .64401248 .24899292 .64401248 .28199769 .64401248 .34799195 .6259918 .36698915 .52693179 .3769989 .47088624 .3769989 .39482118 .3769989 .3317871 .3769989 .25672914 .3769989 .18867493 .3659973 .12461853 .35099793 .029556275 .2939911-.00047302247 .24899292-.00047302247Z"/>
<path id="font_4_2" d="M.2889862 .25C.2889862 .32798768 .27799989 .44898988 .22299195 .56199648 .16299439 .68499758 .07699585 .75 .066986087 .75 .06098938 .75 .056991579 .74598696 .056991579 .73999026 .056991579 .7369995 .056991579 .73498538 .07598877 .71699526 .17399597 .6179962 .23098755 .45899964 .23098755 .25 .23098755 .07899475 .19400025-.09700012 .069992069-.2230072 .056991579-.23500061 .056991579-.23701477 .056991579-.2400055 .056991579-.2460022 .06098938-.25 .066986087-.25 .07699585-.25 .16699219-.18200684 .22599793-.055007936 .2769928 .054992677 .2889862 .16600037 .2889862 .25Z"/>
</defs>
<path transform="matrix(1.00008,0,0,-1.00008,148.90847,159.47772)" stroke-width=".19925" stroke-linecap="butt" stroke-miterlimit="10" stroke-linejoin="miter" fill="none" stroke="#929292" d="M-141.73404-141.73404H141.73404M-141.73404-113.38724H141.73404M-141.73404-85.04042H141.73404M-141.73404-56.69362H141.73404M-141.73404-28.3468H141.73404M-141.73404 0H141.73404M-141.73404 28.3468H141.73404M-141.73404 56.69362H141.73404M-141.73404 85.04042H141.73404M-141.73404 113.38724H141.73404M-141.73404 141.72409H141.73404M-141.73404-141.73404V141.73404M-113.38724-141.73404V141.73404M-85.04042-141.73404V141.73404M-56.69362-141.73404V141.73404M-28.3468-141.73404V141.73404M0-141.73404V141.73404M28.3468-141.73404V141.73404M56.69362-141.73404V141.73404M85.04042-141.73404V141.73404M113.38724-141.73404V141.73404M141.72409-141.73404V141.73404M141.73404 141.73404"/>
<path transform="matrix(1.00008,0,0,-1.00008,148.90847,159.47772)" stroke-width="1.19553" stroke-linecap="butt" stroke-miterlimit="10" stroke-linejoin="miter" fill="none" stroke="#000000" d="M-147.40332 0H146.4469"/>
<path transform="matrix(1.00008,0,0,-1.00008,295.36708,159.47772)" stroke-width=".9564" stroke-linecap="round" stroke-linejoin="round" fill="none" stroke="#000000" d="M-1.91284 2.55046C-1.75343 1.59402 0 .15938 .4782 0 0-.15938-1.75343-1.59402-1.91284-2.55046"/>
<use data-text="x" xlink:href="#font_1_2" transform="matrix(9.963397,0,0,-9.963397,300.24256,161.6229)"/>
<path transform="matrix(1.00008,0,0,-1.00008,148.90847,159.47772)" stroke-width="1.19553" stroke-linecap="butt" stroke-miterlimit="10" stroke-linejoin="miter" fill="none" stroke="#000000" d="M0-147.40332V146.4469"/>
<path transform="matrix(0,-1.00008,-1.00008,-0,148.90847,13.019104)" stroke-width=".9564" stroke-linecap="round" stroke-linejoin="round" fill="none" stroke="#000000" d="M-1.91284 2.55046C-1.75343 1.59402 0 .15938 .4782 0 0-.15938-1.75343-1.59402-1.91284-2.55046"/>
<use data-text="y" xlink:href="#font_1_3" transform="matrix(9.963397,0,0,-9.963397,146.28726,6.2064669)"/>
<g clip-path="url(#clip_2)">
<path transform="matrix(1.00008,0,0,-1.00008,148.90847,159.47772)" stroke-width=".79701" stroke-linecap="butt" stroke-miterlimit="10" stroke-linejoin="miter" fill="none" stroke="#0000ff" d="M.19073-141.73404C.19073-141.73404 .19354-141.3237 .19463-141.1661 .19571-141.00853 .19737-140.75579 .19852-140.59819 .19966-140.44062 .2017-140.18785 .20285-140.03026 .204-139.87268 .20561-139.61994 .20674-139.46236 .20787-139.30477 .20987-139.052 .21106-138.89443 .21225-138.73683 .2142-138.48409 .2154-138.3265 .21657-138.16892 .21852-137.91616 .21971-137.75858 .22089-137.60099 .22284-137.34824 .22404-137.19066 .22523-137.03307 .22713-136.7803 .22838-136.62273 .22961-136.46515 .23183-136.21239 .23312-136.05481 .23444-135.89723 .23659-135.64449 .23788-135.4869 .2392-135.32932 .24126-135.07656 .24263-134.91896 .244-134.76139 .24646-134.50864 .24783-134.35105 .24919-134.19347 .25122-133.9407 .2526-133.78311 .25395-133.62554 .25635-133.37279 .25777-133.21521 .2592-133.05762 .26154-132.80486 .26297-132.64728 .2644-132.48969 .26666-132.23694 .26816-132.07936 .26964-131.92177 .27223-131.669 .27377-131.51143 .27533-131.35384 .27809-131.10109 .2794-130.94351 .28072-130.78592 .28198-130.53316 .2833-130.37558 .2846-130.218 .28737-129.96524 .28893-129.80767 .29047-129.65009 .293-129.39734 .29454-129.23975 .2961-129.08217 .29819-128.8294 .30017-128.67182 .30214-128.51424 .30684-128.26149 .30882-128.1039 .31079-127.94632 .3129-127.69356 .31444-127.53596 .316-127.37839 .31851-127.12564 .32007-126.96806 .32162-126.81047 .3237-126.55771 .32568-126.40013 .32765-126.24254 .33235-125.98979 .33434-125.83221 .3363-125.67462 .33841-125.42186 .33995-125.26428 .3415-125.10669 .3436-124.85394 .34558-124.69637 .34755-124.53877 .35225-124.28601 .35423-124.12843 .3562-123.97086 .35788-123.7181 .35985-123.56052 .36183-123.40294 .36617-123.15019 .3685-122.9926 .37085-122.83502 .37482-122.58226 .37672-122.42467 .37865-122.26709 .38037-122.01434 .38235-121.85675 .38432-121.69917 .38861-121.44641 .391-121.28882 .39339-121.13124 .39732-120.8785 .39966-120.72092 .40198-120.56332 .40553-120.31056 .40787-120.15298 .41019-119.99539 .41411-119.74265 .4165-119.58507 .41891-119.42747 .42284-119.17471 .42517-119.01714 .42752-118.85954 .43106-118.6068 .43338-118.44922 .43571-118.29163 .43965-118.03888 .44203-117.8813 .44443-117.72372 .44835-117.47095 .45068-117.31337 .45303-117.15579 .45616-116.90305 .45891-116.74545 .46165-116.58788 .46783-116.33511 .47058-116.17752 .47334-116.01994 .47647-115.7672 .4788-115.6096 .48116-115.45203 .48471-115.19926 .48746-115.04167 .4902-114.8841 .49596-114.63135 .4987-114.47377 .50146-114.31618 .50461-114.06342 .50735-113.90584 .51012-113.74825 .51547-113.4955 .51859-113.33792 .52171-113.18033 .52672-112.92757 .52985-112.76999 .53296-112.6124 .53835-112.35965 .54109-112.20207 .54384-112.04448 .547-111.79173 .54974-111.63416 .55249-111.47658 .55782-111.2238 .56099-111.06622 .56416-110.90865 .56949-110.6559 .57266-110.4983 .57584-110.34073 .58038-110.08797 .58391-109.93037 .58745-109.7728 .59467-109.52005 .59819-109.36246 .60172-109.20488 .60631-108.95212 .60942-108.79453 .61253-108.63695 .61714-108.3842 .62067-108.22662 .6242-108.06903 .63142-107.81627 .63495-107.65869 .63847-107.5011 .64267-107.24835 .6462-107.09077 .64972-106.93318 .65652-106.68042 .66048-106.52284 .66443-106.36525 .67122-106.1125 .67474-105.95493 .67827-105.79733 .68246-105.54459 .68599-105.38701 .68953-105.22943 .69637-104.97665 .70026-104.81908 .70415-104.6615 .71022-104.40875 .71411-104.25116 .718-104.09358 .724-103.84082 .72838-103.68323 .73276-103.52565 .74136-103.2729 .74568-103.11531 .75-102.95773 .75563-102.70497 .75952-102.54738 .76343-102.3898 .76947-102.13705 .77379-101.97948 .7781-101.82188 .78593-101.56912 .79066-101.41154 .7954-101.25395 .80365-101.0012 .80797-100.84363 .81229-100.68604 .81749-100.43327 .82181-100.2757 .82613-100.1181 .83438-99.86536 .83911-99.70778 .84384-99.55019 .8513-99.29744 .85597-99.13986 .86064-98.98228 .86775-98.7295 .87285-98.57193 .87793-98.41435 .88759-98.1616 .89275-98.00401 .8979-97.84644 .90489-97.59367 .91005-97.43608 .91519-97.2785 .92485-97.02576 .92995-96.86816 .93503-96.71059 .94173-96.45782 .94682-96.30023 .9519-96.14265 .96118-95.88991 .9667-95.73233 .97221-95.57474 .98108-95.32198 .9866-95.1644 .99213-95.0068 1.00104-94.75406 1.0065-94.59648 1.01196-94.43889 1.02051-94.18614 1.02596-94.02856 1.03142-93.87097 1.03993-93.61821 1.04585-93.46063 1.05179-93.30304 1.06248-93.0503 1.06879-92.89272 1.07507-92.73514 1.08542-92.48236 1.09128-92.32478 1.09715-92.1672 1.10526-91.91446 1.11118-91.75687 1.11711-91.59929 1.1278-91.34653 1.13411-91.18893 1.1404-91.03136 1.14993-90.77861 1.15659-90.62102 1.16325-90.46344 1.17546-90.21068 1.18211-90.05309 1.18877-89.89551 1.19794-89.64276 1.20459-89.48518 1.21126-89.32759 1.22305-89.07483 1.23012-88.91725 1.23718-88.75966 1.24858-88.50691 1.25565-88.34933 1.26271-88.19174 1.2741-87.939 1.28117-87.78142 1.28824-87.62383 1.2996-87.37106 1.30667-87.21349 1.31375-87.0559 1.3247-86.80315 1.3322-86.64557 1.33969-86.48799 1.35326-86.23521 1.36075-86.07764 1.36824-85.92006 1.37885-85.66731 1.38628-85.50972 1.3937-85.35214 1.40652-85.09938 1.41438-84.94179 1.42224-84.78421 1.43466-84.53146 1.44293-84.37387 1.4512-84.2163 1.4658-83.96353 1.47406-83.80594 1.48233-83.64836 1.49435-83.39561 1.50261-83.23804 1.51088-83.08044 1.52513-82.82768 1.53377-82.6701 1.5424-82.51251 1.55627-82.25977 1.56491-82.10219 1.57355-81.9446 1.58742-81.69185 1.59605-81.53427 1.60468-81.37668 1.61813-81.12392 1.6272-80.96634 1.63626-80.80875 1.65195-80.556 1.66136-80.39842 1.67076-80.24084 1.6857-79.98807 1.6951-79.83049 1.70451-79.67291 1.7198-79.42017 1.72928-79.26257 1.73875-79.105 1.7536-78.85223 1.76344-78.69464 1.77327-78.53706 1.79001-78.28432 1.80022-78.12672 1.81041-77.96915 1.82677-77.71638 1.83698-77.55879 1.84717-77.40121 1.86348-77.14847 1.87375-76.99089 1.884-76.8333 1.90033-76.58054 1.91093-76.42296 1.92155-76.26537 1.93933-76.01262 1.9503-75.85504 1.96127-75.69745 1.97906-75.4447 1.9901-75.28712 2.00113-75.12953 2.01848-74.87677 2.02988-74.7192 2.04129-74.5616 2.06088-74.30885 2.07228-74.15128 2.08368-73.9937 2.10025-73.74092 2.11206-73.58334 2.12387-73.42577 2.14531-73.17302 2.15749-73.01543 2.16966-72.85785 2.1877-72.60509 2.19987-72.4475 2.21205-72.28992 2.2327-72.03717 2.2453-71.87958 2.2579-71.722 2.2781-71.46924 2.2907-71.31165 2.3033-71.15407 2.32318-70.90132 2.33612-70.74374 2.34908-70.58615 2.37076-70.3334 2.38414-70.17583 2.3975-70.01823 2.4192-69.76547 2.43259-69.6079 2.44595-69.4503 2.46686-69.19756 2.48059-69.03998 2.49432-68.88239 2.51747-68.62962 2.53162-68.47205 2.54578-68.31445 2.56851-68.0617 2.58267-67.90413 2.59683-67.74655 2.61913-67.49377 2.6337-67.3362 2.64828-67.17862 2.67284-66.92587 2.68777-66.76828 2.70273-66.6107 2.72612-66.35794 2.74141-66.20035 2.7567-66.04277 2.78229-65.79002 2.79807-65.63243 2.81384-65.47485 2.83939-65.22209 2.85516-65.0645 2.87094-64.90692 2.89575-64.65417 2.91182-64.4966 2.92789-64.339 2.95459-64.08626 2.97108-63.92868 2.98758-63.77109 3.01385-63.51833 3.03078-63.36075 3.0477-63.20316 3.07579-62.95041 3.09306-62.79283 3.11034-62.63524 3.13765-62.38248 3.15535-62.2249 3.17303-62.0673 3.20255-61.81456 3.22067-61.65698 3.23878-61.4994 3.26785-61.24663 3.28598-61.08905 3.3041-60.93147 3.33281-60.67873 3.35129-60.52113 3.36975-60.36356 3.40036-60.1108 3.41919-59.9532 3.43802-59.79562 3.46785-59.54288 3.4871-59.38528 3.50638-59.2277 3.53795-58.97495 3.55804-58.81735 3.57814-58.65977 3.61154-58.40703 3.632-58.24945 3.65247-58.09186 3.68507-57.83911 3.70554-57.68153 3.726-57.52394 3.75864-57.27118 3.77951-57.1136 3.80038-56.95601 3.83446-56.70326 3.85606-56.54568 3.87767-56.38809 3.91321-56.13533 3.93523-55.97775 3.95723-55.82016 3.9928-55.56741 4.0148-55.40984 4.03682-55.25226 4.07115-54.99948 4.09396-54.8419 4.11676-54.68433 4.15596-54.43158 4.17917-54.27399 4.20238-54.11641 4.23778-53.86365 4.26135-53.70605 4.28493-53.54848 4.3248-53.29573 4.34915-53.13814 4.3735-52.98056 4.41219-52.7278 4.43697-52.5702 4.46175-52.41263 4.5026-52.15988 4.5278-52.0023 4.553-51.84471 4.59308-51.59196 4.61862-51.43439 4.64418-51.2768 4.68571-51.02403 4.71205-50.86646 4.7384-50.70886 4.78175-50.45612 4.80852-50.29854 4.83527-50.14095 4.87785-49.88818 4.90497-49.7306 4.9321-49.57301 4.97612-49.32027 5.00401-49.16269 5.0319-49.00511 5.07777-48.75233 5.1061-48.59476 5.13441-48.43718 5.17944-48.18443 5.20818-48.02684 5.23691-47.86926 5.28375-47.6165 5.31328-47.45891 5.3428-47.30133 5.39069-47.04858 5.42099-46.89099 5.45128-46.73341 5.50105-46.48067 5.53172-46.32307 5.56238-46.1655 5.61057-45.91273 5.64201-45.75516 5.67345-45.59756 5.72609-45.34482 5.75836-45.18724 5.79063-45.02965 5.84209-44.77689 5.87473-44.61931 5.90736-44.46172 5.96025-44.20897 5.99367-44.05139 6.02707-43.8938 6.0818-43.64104 6.11565-43.48346 6.14948-43.32587 6.203-43.07312 6.23763-42.91554 6.27223-42.75797 6.3298-42.50519 6.36522-42.34761 6.40062-42.19003 6.45706-41.93729 6.49281-41.7797 6.52858-41.62212 6.58604-41.36935 6.623-41.21176 6.65996-41.05418 6.72145-40.80144 6.75926-40.64384 6.79707-40.48627 6.85735-40.23352 6.89551-40.07593 6.93365-39.91835 6.99539-39.66559 7.03435-39.50801 7.07329-39.35042 7.13608-39.09767 7.17622-38.9401 7.21637-38.7825 7.28285-38.52974 7.32372-38.37216 7.36458-38.21457 7.42949-37.96182 7.47078-37.80424 7.51207-37.64665 7.57881-37.39389 7.6213-37.23631 7.6638-37.07872 7.73375-36.82597 7.77702-36.6684 7.82028-36.51082 7.88905-36.25804 7.93317-36.10046 7.97726-35.94289 8.0497-35.69014 8.09494-35.53255 8.14018-35.37497 8.21335-35.12221 8.25931-34.96461 8.30525-34.80704 8.37944-34.55429 8.42625-34.3967 8.47305-34.23912 8.54904-33.98637 8.59668-33.82878 8.64432-33.6712 8.72092-33.41844 8.7697-33.26086 8.81848-33.10327 8.8984-32.85052 8.94833-32.69295 8.99826-32.53535 9.07887-32.2826 9.12958-32.12502 9.18027-31.96742 9.26227-31.71468 9.31381-31.5571 9.36537-31.3995 9.44835-31.14674 9.50111-30.98917 9.55386-30.83157 9.64014-30.57883 9.69402-30.42125 9.74791-30.26367 9.8345-30.0109 9.88953-29.85332 9.94456-29.69574 10.03444-29.443 10.09067-29.2854 10.1469-29.12782 10.23775-28.87508 10.29482-28.71748 10.35188-28.5599 10.44374-28.30714 10.502-28.14955 10.56027-27.99197 10.65506-27.73923 10.71481-27.58163 10.77458-27.42406 10.87186-27.1713 10.93282-27.01372 10.99377-26.85612 11.09247-26.60338 11.15428-26.4458 11.2161-26.28821 11.31502-26.03545 11.37833-25.87787 11.44162-25.72028 11.54573-25.46753 11.6106-25.30995 11.67546-25.15236 11.7802-24.8996 11.8459-24.74202 11.9116-24.58443 12.01738-24.33168 12.08423-24.1741 12.15108-24.01653 12.25934-23.76375 12.32774-23.60617 12.39616-23.4486 12.5073-23.19585 12.57732-23.03825 12.64734-22.88068 12.76093-22.62793 12.83252-22.47034 12.9041-22.31276 13.02055-22.06 13.09334-21.9024 13.16612-21.74483 13.28284-21.49208 13.3572-21.33449 13.43155-21.17691 13.55334-20.92415 13.62926-20.76657 13.70515-20.60898 13.82724-20.35623 13.90434-20.19865 13.98145-20.04106 14.1064-19.7883 14.18506-19.63072 14.26373-19.47313 14.39076-19.22038 14.4714-19.0628 14.55206-18.90521 14.68419-18.65245 14.7664-18.49487 14.84862-18.33728 14.98058-18.08453 15.06398-17.92696 15.1474-17.76938 15.28224-17.5166 15.36763-17.35902 15.45302-17.20145 15.59216-16.9487 15.67947-16.7911 15.7668-16.63353 15.9081-16.38078 15.99698-16.22319 16.08585-16.06561 16.22923-15.81285 16.32008-15.65526 16.41092-15.49768 16.55899-15.24493 16.65182-15.08734 16.74467-14.92976 16.89482-14.677 16.98921-14.51942 17.0836-14.36183 17.23582-14.10909 17.33221-13.9515 17.42859-13.79391 17.58551-13.54115 17.68387-13.38358 17.78221-13.22598 17.94121-12.97324 18.04114-12.81566 18.14107-12.65807 18.30173-12.4053 18.40404-12.24773 18.50635-12.09013 18.67397-11.83739 18.77861-11.67981 18.88327-11.52223 19.0518-11.26945 19.15839-11.11188 19.26497-10.9543 19.43825-10.70155 19.5468-10.54396 19.65536-10.38638 19.83032-10.13364 19.94086-9.97604 20.05139-9.81847 20.23024-9.5657 20.34354-9.40811 20.45683-9.25053 20.64185-8.99779 20.75749-8.8402 20.87312-8.68262 21.05943-8.42986 21.17705-8.27228 21.29466-8.11469 21.48524-7.86194 21.60526-7.70436 21.72528-7.54677 21.91939-7.294 22.04211-7.13643 22.16484-6.97884 22.36473-6.72609 22.48979-6.56851 22.61487-6.41092 22.81607-6.15816 22.94353-6.00058 23.071-5.84299 23.27829-5.59024 23.40851-5.43266 23.53874-5.27509 23.74957-5.02232 23.88213-4.86475 24.0147-4.70717 24.22867-4.4544 24.36398-4.29681 24.49931-4.13924 24.71901-3.88649 24.85751-3.7289 24.99602-3.57132 25.22108-3.31856 25.36229-3.16096 25.5035-3.00339 25.73172-2.75064 25.87527-2.59305 26.01883-2.43547 26.2502-2.18271 26.39693-2.02513 26.54366-1.86754 26.78291-1.61479 26.93282-1.45721 27.08273-1.29962 27.3247-1.04686 27.47739-.88928 27.63007-.73169 27.87831-.47894 28.0332-.32137 28.1881-.16377 28.4357 .08896 28.59378 .24654 28.75185 .40413 29.01038 .65688 29.17252 .81445 29.33466 .97203 29.59705 1.2248 29.76248 1.38237 29.92793 1.53995 30.1962 1.79271 30.36502 1.9503 30.53383 2.10788 30.80699 2.36063 30.97922 2.51822 31.15146 2.6758 31.43068 2.92856 31.6064 3.08615 31.78212 3.24373 32.06644 3.49648 32.2457 3.65407 32.42496 3.81165 32.71548 4.0644 32.89839 4.22198 33.0813 4.37958 33.37749 4.63232 33.56406 4.7899 33.75064 4.9475 34.0528 5.20026 34.24315 5.35783 34.4335 5.51543 34.74184 5.76817 34.93608 5.92575 35.13034 6.08334 35.44513 6.3361 35.64328 6.49368 35.84145 6.65128 36.1622 6.90402 36.36432 7.0616 36.56645 7.21918 36.89381 7.47194 37.10007 7.62952 37.30634 7.7871 37.64056 8.03986 37.85095 8.19745 38.06136 8.35503 38.40193 8.60777 38.61655 8.76537 38.83115 8.92294 39.17873 9.1757 39.39772 9.3333 39.6167 9.49088 39.97145 9.74362 40.19487 9.90121 40.4183 10.05879 40.78006 10.31155 41.00804 10.46913 41.23602 10.62672 41.60536 10.87947 41.83809 11.03705 42.07082 11.19464 42.44814 11.4474 42.68542 11.60498 42.92271 11.76257 43.3063 12.01532 43.54834 12.1729 43.79037 12.33049 44.1828 12.58325 44.42986 12.74083 44.67693 12.89842 45.07706 13.15117 45.3291 13.30875 45.58115 13.46632 45.98941 13.71909 46.2465 13.87666 46.5036 14.03424 46.91978 14.287 47.1821 14.4446 47.44441 14.60217 47.86955 14.85492 48.13713 15.01251 48.40472 15.17009 48.83778 15.42285 49.11078 15.58044 49.38377 15.73802 49.82623 15.99077 50.10475 16.14836 50.38327 16.30594 50.83398 16.5587 51.1182 16.71628 51.4024 16.87387 51.86328 17.12662 52.15326 17.2842 52.44324 17.44179 52.9123 17.69455 53.2082 17.85213 53.50414 18.00972 53.98424 18.26247 54.2861 18.42004 54.58797 18.57764 55.07614 18.83038 55.38388 18.98796 55.69164 19.14555 56.19011 19.39832 56.50415 19.5559 56.81819 19.71347 57.32687 19.96623 57.64735 20.12381 57.96782 20.28139 58.4869 20.53415 58.8139 20.69174 59.14091 20.84932 59.67064 21.10207 60.00426 21.25966 60.33786 21.41724 60.87807 21.67 61.21838 21.82759 61.55872 21.98517 62.10994 22.23792 62.45717 22.39551 62.8044 22.55309 63.36667 22.80585 63.72104 22.96342 64.07542 23.12102 64.64986 23.37376 65.0113 23.53134 65.37277 23.68893 65.9574 23.9417 66.32622 24.09927 66.69505 24.25687 67.29347 24.50961 67.66968 24.66719 68.0459 24.82478 68.65407 25.07753 69.0378 25.2351 69.42152 25.3927 70.04387 25.64546 70.43533 25.80304 70.8268 25.96062 71.45981 26.21338 71.85925 26.37096 72.2587 26.52853 72.90671 26.7813 73.31432 26.93889 73.72192 27.09647 74.38112 27.34921 74.79706 27.5068 75.213 27.66438 75.88795 27.91714 76.31224 28.07474 76.73653 28.23232 77.42253 28.48506 77.8551 28.64265 78.28767 28.80023 78.98839 29.053 79.42996 29.21057 79.87154 29.36816 80.58702 29.62091 81.0377 29.77849 81.4884 29.93608 82.21863 30.18884 82.67833 30.34642 83.13802 30.50401 83.88214 30.75676 84.35095 30.91434 84.81976 31.07193 85.5787 31.32468 86.05731 31.48225 86.53592 31.63985 87.31218 31.89261 87.80043 32.05019 88.2887 32.20776 89.07863 32.46053 89.57643 32.6181 90.07423 32.77568 90.8804 33.02844 91.38834 33.18604 91.89629 33.34361 92.71881 33.59636 93.23744 33.75395 93.75607 33.91153 94.59738 34.16429 95.12634 34.32188 95.65529 34.47946 96.51038 34.73221 97.04984 34.8898 97.5893 35.04738 98.46387 35.30014 99.01442 35.45772 99.56497 35.61531 100.4562 35.86806 101.01793 36.02563 101.57965 36.18323 102.48991 36.43599 103.06297 36.59357 103.63605 36.75116 104.56378 37.0039 105.14824 37.16148 105.73271 37.31908 106.67934 37.57182 107.27545 37.7294 107.87157 37.887 108.83623 38.13976 109.44464 38.29733 110.05305 38.45491 111.0397 38.70767 111.66054 38.86525 112.28136 39.02283 113.28616 39.27559 113.91924 39.43318 114.5523 39.59076 115.57697 39.8435 116.22337 40.0011 116.86978 40.15868 117.91869 40.41144 118.57811 40.56903 119.23755 40.72661 120.30342 40.97935 120.9761 41.13695 121.64879 41.29453 122.74007 41.54729 123.42644 41.70486 124.11281 41.86246 125.22311 42.1152 125.92303 42.27278 126.62297 42.43037 127.75714 42.68312 128.47112 42.8407 129.1851 42.99829 130.34015 43.25105 131.06894 43.40863 131.79775 43.56622 132.9803 43.81897 133.72386 43.97655 134.46743 44.13414 135.66965 44.3869 136.4281 44.54448 137.18654 44.70206 138.41617 44.95482 139.19028 45.1124 139.9644 45.26997 141.218 45.52274 142.0074 45.68033 142.79682 45.8379 144.07474 46.09065 144.87989 46.24825 145.68503 46.40582 146.98876 46.65858 147.81034 46.81618 148.63191 46.97375 149.96263 47.2265 150.80132 47.3841 151.64002 47.54167 152.9995 47.79443 153.85506 47.95201 154.7106 48.1096 156.09519 48.36235 156.96759 48.51993 157.84001 48.67752 159.25255 48.93027 160.14286 49.08784 161.03316 49.24544 162.47574 49.4982 163.3843 49.65578 164.29283 49.81337 165.76413 50.06612 166.69104 50.2237 167.61795 50.38129 169.11945 50.63405 170.06485 50.79163 171.01024 50.9492 172.54027 51.20197 173.5048 51.35954 174.46935 51.51712 176.0323 51.76988 177.01659 51.92747 178.00087 52.08505 179.59462 52.3378 180.59888 52.49539 181.60314 52.65297 183.23018 52.90573 184.25467 53.06332 185.27916 53.2209 186.93778 53.47365 187.98273 53.63124 189.02768 53.78882 190.71985 54.04158 191.78604 54.19916 192.85224 54.35675 194.57917 54.6095 195.66719 54.76707 196.75524 54.92467 198.51782 55.17741 199.62795 55.33499 200.73807 55.49258 202.53607 55.74535 203.66829 55.90292 204.80049 56.06052 206.6335 56.31326 207.78821 56.47084 208.94292 56.62843 210.81226 56.8812 211.99074 57.03877 213.16924 57.19635 215.0794 57.44911 216.28195 57.60669 217.48451 57.76427 219.43102 58.01703 220.65795 58.17462 221.88486 58.3322 223.87319 58.58495 225.12477 58.74254 226.37635 58.90012 228.40174 59.15288 229.67853 59.31047 230.9553 59.46805 233.02413 59.7208 234.32701 59.87839 235.6299 60.03596 237.73979 60.28873 239.06893 60.4463 240.39804 60.6039 242.55055 60.85664 243.90644 61.01422 245.26232 61.17181 247.45709 61.42456 248.84125 61.58214 250.2254 61.73973 252.47084 61.9925 253.88249 62.15007 255.29413 62.30766 257.57588 62.56041 259.01545 62.71799 260.45497 62.87558 262.7883 63.12834 264.25779 63.28592 265.72727 63.4435 268.10728 63.69626 269.60655 63.85384 271.1058 64.01141 273.53407 64.26418 275.06343 64.42177 276.59284 64.57935 279.06916 64.83209 280.62934 64.98969 282.1895 65.14726 284.71638 65.40002 286.3081 65.55762 287.89988 65.7152 290.47825 65.96794 292.10154 66.12553 293.72486 66.28311 296.35108 66.53586 298.00785 66.69344 299.66465 66.85103 302.3523 67.10379 304.04264 67.26137 305.73298 67.41896 308.46607 67.6717 310.1907 67.82928 311.91539 67.98688 314.71318 68.23964 316.4729 68.39722 318.2326 68.55481 321.07893 68.80756 322.8736 68.96513 324.66825 69.12273 327.57585 69.37549 329.40754 69.53307 331.23918 69.69064 334.20597 69.9434 336.0751 70.10098 337.9442 70.25856 340.9727 70.51132 342.8789 70.66891 344.78514 70.82649 347.86924 71.07924 349.81379 71.23683 351.75837 71.39441 354.90937 71.64717 356.894 71.80476 358.87867 71.96234 362.09336 72.21509 364.11784 72.37268 366.14234 72.53026 369.42018 72.783 371.48524 72.94058 373.55033 73.09818 376.8937 73.35094 379.00148 73.50851 381.1092 73.6661 384.5264 73.91885 386.6764 74.07643 388.8264 74.23402 392.30378 74.48679 394.49714 74.64436 396.6905 74.80196 400.24763 75.0547 402.4848 75.21228 404.722 75.36987 408.33988 75.62263 410.62129 75.78021 412.9027 75.93779 416.5983 76.19055 418.92774 76.34813 421.25718 76.5057 425.03358 76.75847 427.41026 76.91606 429.7869 77.07364 433.63258 77.32639 436.0571 77.48398 438.48167 77.64156 442.41188 77.89432 444.88478 78.05191 447.3577 78.20949 451.3568 78.46223 453.88026 78.61983 456.40373 78.7774 460.497 79.03015 463.07215 79.18773 465.64726 79.34532 469.81373 79.59808 472.44004 79.75566 475.06636 79.91325 479.32127 80.166 482.0009 80.32358 484.68049 80.48117 489.01817 80.73393 491.75285 80.89151 494.48756 81.0491 498.9209 81.30185 501.71076 81.45943 504.5006 81.61702 509.01454 81.86978 511.86027 82.02736 514.706 82.18494 519.3174 82.4377 522.2208 82.59528 525.12429 82.75285 529.824 83.00562 532.78646 83.16321 535.7489 83.32079 540.5494 83.57353 543.5722 83.73112 546.59506 83.8887 551.4892 84.14145 554.57296 84.29904 557.65676 84.45662 562.653 84.70938 565.7977 84.86697 568.94247 85.02455 574.03109 85.2773 577.2379 85.43488 580.4448 85.59247 585.63668 85.84523 588.9108 86.0028 592.185 86.1604 597.49417 86.41315 600.83596 86.57072 604.1777 86.72832 609.5875 86.98108 612.99588 87.13866 616.4042 87.29625 621.924 87.549 625.4006 87.70657 628.8772 87.86417 634.5052 88.11693 638.0528 88.2745 641.60037 88.43208 647.34988 88.68484 650.96926 88.84242 654.5886 89 660.44686 89.25276 664.13876 89.41035 667.83059 89.56793 673.8101 89.82068 677.5777 89.97827 681.3452 90.13585 687.449 90.3886 691.2926 90.54619 695.13619 90.70377 701.35848 90.95653 705.27957 91.11412 709.2007 91.2717 715.55227 91.52444 719.5533 91.68202 723.5544 91.83961 730.0346 92.09238 734.11648 92.24995 738.19827 92.40755 744.808 92.6603 748.97238 92.81787 753.1368 92.97546 759.88186 93.22823 764.1307 93.3858 768.3796 93.5434 775.26266 93.79614 779.5952 93.95372 783.9278 94.11131 790.9361 94.36407 795.3569 94.52165 799.7777 94.67923 806.94509 94.93199 811.4573 95.08957 815.9694 95.24715 823.2745 95.49991 827.8777 95.6575 832.48098 95.81508 839.9386 96.06783 844.6342 96.22542 849.3299 96.383 856.9302 96.63574 861.72079 96.79333 866.51138 96.95091 874.27328 97.20367 879.16159 97.36127 884.04989 97.51884 891.9653 97.77159 896.9523 97.92917 901.93936 98.08676 910.0171 98.33952 915.1046 98.4971 920.19216 98.6547 928.42886 98.90744 933.6198 99.06502 938.8108 99.22261 947.2216 99.47537 952.51748 99.63295 957.81326 99.79054 966.38479 100.04329 971.78829 100.20087 977.1918 100.35846 985.9488 100.61122 991.4623 100.7688 996.97579 100.92638 1005.90158 101.17914 1011.5255 101.33672 1017.1495 101.4943 1026.2582 101.74706 1031.9959 101.90465 1037.7335 102.06223 1047.0252 102.31497 1052.8783 102.47256 1058.7316 102.63014 1068.2106 102.88289 1074.1821 103.04048 1080.1538 103.19806 1089.8265 103.45082 1095.9176 103.60841 1102.0087 103.76599 1111.8679 104.01874 1118.0825 104.17632 1124.2973 104.33391 1134.3663 104.58667 1140.7091 104.74425 1147.0519 104.90184 1157.3255 105.15459 1163.7966 105.31216 1170.2678 105.46976 1180.7482 105.72252 1187.3493 105.8801 1193.9503 106.03769 1204.6375 106.29044 1211.3728 106.44801 1218.1082 106.6056 1229.0217 106.85837 1235.8934 107.01595 1242.7651 107.17352 1253.8884 107.42628 1260.8993 107.58386 1267.91 107.74144 1279.2702 107.99419 1286.4225 108.15178 1293.5748 108.30936 1305.1513 108.56212 1312.4487 108.71971 1319.7462 108.87729 1331.5719 109.13004 1339.0178 109.28763 1346.4638 109.4452 1358.5182 109.69797 1366.1138 109.85556 1373.7092 110.01314 1386.0115 110.26588 1393.7606 110.42346 1401.5099 110.58105 1414.0584 110.83382 1421.9647 110.9914 1429.8711 111.14899 1442.679 111.40173 1450.7445 111.55931 1458.81 111.7169 1471.8673 111.96967 1480.0957 112.12724 1488.324 112.28484 1501.6527 112.53758 1510.0485 112.69516 1518.4443 112.85275 1532.0446 113.10551 1540.6069 113.26309 1549.1692 113.42067 1563.0233 113.67343 1571.7595 113.83101 1580.4957 113.98859 1594.6558 114.24133 1603.5714 114.39893 1612.487 114.5565 1626.921 114.80927 1636.0175 114.96686 1645.1138 115.12444 1659.8513 115.37718 1669.1321 115.53477 1678.4129 115.69235 1693.4393 115.94511 1702.9064 116.1027 1712.3734 116.26028 1727.7041 116.51303 1737.3641 116.67061 1747.024 116.8282 1762.6724 117.08096 1772.5286 117.23854 1782.3848 117.39613 1798.3467 117.64888 1808.4006 117.80646 1818.4546 117.96405 1834.7322 118.21681 1844.9904 118.37439 1855.2485 118.53198 1871.8693 118.78473 1882.3348 118.9423 1892.8003 119.0999 1909.7416 119.35266 1920.4185 119.51024 1931.0955 119.66782 1948.3928 119.92058 1959.2868 120.07816 1970.1808 120.23573 1987.8206 120.48848 1998.9346 120.64607 2010.0485 120.80365 2028.0498 121.05641 2039.3886 121.214 2050.727 121.37158 2069.0872 121.62433 2080.6558 121.78192 2092.2244 121.9395 2110.968 122.19226 2122.767 122.34985 2134.5662 122.50743 2153.6595 122.76018 2165.6956 122.91776 2177.732 123.07535 2197.2318 123.32811 2209.5167 123.48569 2221.8013 123.64328 2241.7015 123.89603 2254.236 124.0536 2266.771 124.2112 2287.0716 124.46396 2299.8582 124.62154 2312.6448 124.77913 2333.3485 125.03188 2346.3936 125.18945 2359.439 125.34705 2380.5689 125.59981 2393.88 125.75739 2407.1907 125.91496 2428.7518 126.16772 2442.3297 126.3253 2455.9078 126.48288 2477.8858 126.73563 2491.7403 126.89322 2505.5946 127.0508 2528.0467 127.30356 2542.1824 127.46115 2556.318 127.61873 2579.2 127.87148 2593.6207 128.02907 2608.0416 128.18665 2631.4044 128.4394 2646.1175 128.597 2660.8304 128.75458 2684.6517 129.00733 2699.6612 129.1649 2714.671 129.3225 2738.9837 129.57526 2754.2965 129.73284 2769.6092 129.89043 2794.4017 130.14318 2810.025 130.30075 2825.6485 130.45835 2850.9593 130.7111 2866.9 130.86869 2882.8406 131.02628 2908.6519 131.27902 2924.914 131.4366 2941.1763 131.5942 2967.5196 131.84694 2984.106 132.00452 3000.6925 132.1621 3027.538 132.41487 3044.4576 132.57245 3061.3773 132.73003 3088.782 132.98278 3106.0506 133.14037 3123.319 133.29795 3151.2989 133.5507 3168.9178 133.7083 3186.5369 133.86588 3215.06 134.11862 3233.036 134.27622 3251.012 134.43379 3280.1353 134.68656 3298.4759 134.84415 3316.8167 135.00173 3346.5115 135.25447 3365.2227 135.41205 3383.9337 135.56964 3414.243 135.8224 3433.3326 135.97998 3452.422 136.13758 3483.3333 136.39032 3502.8074 136.5479 3522.2813 136.70549 3553.8209 136.95825 3573.6883 137.11583 3593.5555 137.27342 3625.7249 137.52617 3645.9976 137.68375 3666.2706 137.84134 3699.1185 138.09409 3719.8013 138.25167 3740.4842 138.40924 3773.9656 138.66202 3795.0655 138.8196 3816.165 138.97718 3850.3458 139.22992 3871.8734 139.38751 3893.401 139.54509 3928.258 139.79785 3950.2215 139.95545 3972.185 140.11302 4007.764 140.36577 4030.171 140.52336 4052.5782 140.68094 4088.8536 140.9337 4111.7165 141.0913 4134.5798 141.24887 4194.951 141.6592 4194.951 141.6592"/>
</g>
<use data-text="&#x2022;" xlink:href="#font_3_1" transform="matrix(9.963397,0,0,-9.963397,174.76654,161.6919)"/>
<use data-text="(" xlink:href="#font_4_1" transform="matrix(9.963397,0,0,-9.963397,151.59568,153.46625)"/>
<use data-text="1" xlink:href="#font_4_4" transform="matrix(9.963397,0,0,-9.963397,155.46149,153.46625)"/>
<use data-text="," xlink:href="#font_1_1" transform="matrix(9.963397,0,0,-9.963397,160.4524,153.46625)"/>
<use data-text="0" xlink:href="#font_4_3" transform="matrix(9.963397,0,0,-9.963397,164.87976,153.46625)"/>
<use data-text=")" xlink:href="#font_4_2" transform="matrix(9.963397,0,0,-9.963397,169.86145,153.46625)"/>
</svg>
