<svg xmlns="http://www.w3.org/2000/svg" xmlns:xlink="http://www.w3.org/1999/xlink" version="1.1" width="238" height="239" viewBox="0 0 238 239">
<defs>
<path id="font_1_2" d="M.33399964 .30233766C.33999635 .32835389 .36299134 .42037965 .43299867 .42037965 .43798829 .42037965 .46199037 .42037965 .48298646 .40734864 .45498658 .402359 .43499757 .37734986 .43499757 .35334779 .43499757 .33735658 .44599916 .31835938 .47299195 .31835938 .49499513 .31835938 .5269928 .3363495 .5269928 .37635804 .5269928 .42837525 .46798707 .4423828 .43399049 .4423828 .37599183 .4423828 .34098817 .38935853 .32899476 .36634828 .3039856 .43237306 .25 .4423828 .22099304 .4423828 .116989139 .4423828 .05999756 .3133545 .05999756 .28834535 .05999756 .27833558 .069992069 .27833558 .07199097 .27833558 .07998657 .27833558 .08299255 .28033448 .084991458 .28933717 .11898804 .39535523 .18499756 .42037965 .21899414 .42037965 .23799134 .42037965 .272995 .4113617 .272995 .35334779 .272995 .32235719 .2559967 .25532533 .21899414 .11528015 .20298767 .053268434 .16799927 .011245728 .12399292 .011245728 .117996219 .011245728 .09498596 .011245728 .07398987 .024276734 .09899902 .029266358 .12098694 .05027771 .12098694 .07827759 .12098694 .105270389 .09899902 .11328125 .083999637 .11328125 .053985597 .11328125 .0289917 .08728027 .0289917 .055267335 .0289917 .009246826 .07899475-.0107421879 .12298584-.0107421879 .18899536-.0107421879 .22499085 .059280397 .22799683 .0652771 .23999024 .028274537 .27598573-.0107421879 .33599855-.0107421879 .43899537-.0107421879 .49598695 .118270877 .49598695 .14328003 .49598695 .1532898 .4869995 .1532898 .48399354 .1532898 .47499085 .1532898 .47299195 .14929199 .47099305 .14228821 .43798829 .03527832 .36999513 .011245728 .33799745 .011245728 .29899598 .011245728 .2829895 .043273927 .2829895 .07727051 .2829895 .09927368 .2889862 .121276859 .2999878 .16529846L.33399964 .30233766Z"/>
<path id="font_1_3" d="M.48599244 .38136292C.48999024 .39537049 .48999024 .39736939 .48999024 .40437318 .48999024 .42237855 .47599793 .43138124 .46099855 .43138124 .45098878 .43138124 .43499757 .42536927 .42599488 .41036988 .42399598 .405365 .41600038 .37435914 .4119873 .35635377 .40499879 .33035279 .397995 .30334474 .3919983 .27633668L.34700013 .09628296C.34298707 .08126831 .2999878 .011245728 .23399353 .011245728 .18299866 .011245728 .17199707 .055267335 .17199707 .0922699 .17199707 .1382904 .18899536 .20030213 .22299195 .28833009 .23899842 .3293457 .24299622 .3403473 .24299622 .36035157 .24299622 .405365 .21099854 .4423828 .16099549 .4423828 .06599426 .4423828 .0289917 .29733277 .0289917 .28833009 .0289917 .27833558 .038986207 .27833558 .040985109 .27833558 .050994874 .27833558 .051986696 .28033448 .056991579 .29634095 .083999637 .3903656 .12399292 .42037965 .1579895 .42037965 .1659851 .42037965 .18299866 .42037965 .18299866 .3883667 .18299866 .36335755 .17298889 .3373413 .1659851 .31834413 .12599182 .21231079 .10798645 .1552887 .10798645 .10827637 .10798645 .019256592 .17098999-.0107421879 .22999573-.0107421879 .2689972-.0107421879 .30299378 .0062561037 .33099366 .03425598 .31799317-.017745972 .30599977-.06674194 .2659912-.11973572 .23999024-.15385437 .20199585-.18309021 .1559906-.18309021 .14199829-.18309021 .09700012-.18005371 .07998657-.14074707 .09599304-.14074707 .10899353-.14074707 .12298584-.1287384 .1329956-.11973572 .14299011-.10673523 .14299011-.08773804 .14299011-.056747438 .115997318-.052734376 .10598755-.052734376 .08299255-.052734376 .049987794-.068740848 .049987794-.11773682 .049987794-.16796875 .09399414-.20507813 .1559906-.20507813 .25898744-.20507813 .3619995-.11373901 .3899994-.00074768069L.48599244 .38136292Z"/>
<path id="font_2_1" d="M.44400025 .24998474C.44400025 .35688783 .35499574 .44381715 .25 .44381715 .14199829 .44381715 .054992677 .35488893 .054992677 .24998474 .054992677 .14407349 .14199829 .056137086 .25 .056137086 .35499574 .056137086 .44400025 .14308167 .44400025 .24998474Z"/>
<path id="font_3_1" d="M.33099366-.2400055C.33099366-.23701477 .33099366-.23500061 .31399537-.21800232 .18899536-.0920105 .15699768 .09700012 .15699768 .25 .15699768 .42399598 .19499207 .59799197 .31799317 .72299197 .33099366 .73498538 .33099366 .7369995 .33099366 .73999026 .33099366 .746994 .32699586 .75 .32099916 .75 .31098939 .75 .22099304 .6819916 .1619873 .5549927 .11099243 .44499208 .09899902 .33399964 .09899902 .25 .09899902 .17199707 .10998535 .050994874 .16499329-.06201172 .22499085-.18501282 .31098939-.25 .32099916-.25 .32699586-.25 .33099366-.24700928 .33099366-.2400055Z"/>
<path id="font_3_3" d="M.45999146 .31976319C.45999146 .39982606 .45498658 .47988893 .41999818 .5539398 .37399293 .65000918 .2919922 .6660156 .25 .6660156 .18998719 .6660156 .116989139 .64001467 .07598877 .54693606 .04399109 .47789 .038986207 .39982606 .038986207 .31976319 .038986207 .24472046 .042999269 .15464783 .083999637 .07859802 .1269989-.0024719239 .19999695-.022460938 .24899292-.022460938 .30299378-.022460938 .3789978-.0014648438 .4229889 .09359741 .45498658 .16265869 .45999146 .2407074 .45999146 .31976319M.24899292-.00047302247C.20999146-.00047302247 .15098572 .024551392 .1329956 .12062073 .12199402 .18066406 .12199402 .2727356 .12199402 .3317871 .12199402 .39582826 .12199402 .46188355 .12998963 .5159149 .14898682 .63500979 .22399903 .64401248 .24899292 .64401248 .28199769 .64401248 .34799195 .6259918 .36698915 .52693179 .3769989 .47088624 .3769989 .39482118 .3769989 .3317871 .3769989 .25672914 .3769989 .18867493 .3659973 .12461853 .35099793 .029556275 .2939911-.00047302247 .24899292-.00047302247Z"/>
<path id="font_1_1" d="M.20298767 .0009918213C.20298767 .066986087 .17799378 .10598755 .13899231 .10598755 .10598755 .10598755 .085998538 .08099365 .085998538 .052993776 .085998538 .025985718 .10598755 0 .13899231 0 .15098572 0 .1639862 .0039978029 .17399597 .0129852299 .1769867 .01499939 .17799378 .015991211 .1789856 .015991211 .17999268 .015991211 .18099976 .01499939 .18099976 .0009918213 .18099976-.07316589 .1459961-.13328552 .11299133-.16635132 .101989749-.17736817 .101989749-.17936707 .101989749-.18237305 .101989749-.18936157 .10699463-.19335938 .11199951-.19335938 .12298584-.19335938 .20298767-.116256717 .20298767 .0009918213Z"/>
<path id="font_3_2" d="M.2889862 .25C.2889862 .32798768 .27799989 .44898988 .22299195 .56199648 .16299439 .68499758 .07699585 .75 .066986087 .75 .06098938 .75 .056991579 .74598696 .056991579 .73999026 .056991579 .7369995 .056991579 .73498538 .07598877 .71699526 .17399597 .6179962 .23098755 .45899964 .23098755 .25 .23098755 .07899475 .19400025-.09700012 .069992069-.2230072 .056991579-.23500061 .056991579-.23701477 .056991579-.2400055 .056991579-.2460022 .06098938-.25 .066986087-.25 .07699585-.25 .16699219-.18200684 .22599793-.055007936 .2769928 .054992677 .2889862 .16600037 .2889862 .25Z"/>
</defs>
<path transform="matrix(1.00005,0,0,-1.00003,114.88583,124.09233)" stroke-width=".19925" stroke-linecap="butt" stroke-miterlimit="10" stroke-linejoin="miter" fill="none" stroke="#929292" stroke-opacity=".5" d="M-113.38724-113.38724H113.38724M-113.38724-85.04042H113.38724M-113.38724-56.69362H113.38724M-113.38724-28.3468H113.38724M-113.38724 0H113.38724M-113.38724 28.3468H113.38724M-113.38724 56.69362H113.38724M-113.38724 85.04042H113.38724M-113.38724 113.37727H113.38724M-113.38724-113.38724V113.38724M-85.04042-113.38724V113.38724M-56.69362-113.38724V113.38724M-28.3468-113.38724V113.38724M0-113.38724V113.38724M28.3468-113.38724V113.38724M56.69362-113.38724V113.38724M85.04042-113.38724V113.38724M113.37727-113.38724V113.38724M113.38724 113.38724"/>
<path transform="matrix(1.00005,0,0,-1.00003,114.88583,124.09233)" stroke-width="1.19553" stroke-linecap="butt" stroke-miterlimit="10" stroke-linejoin="miter" fill="none" stroke="#000000" d="M-113.38724 0H118.10008"/>
<path transform="matrix(1.00005,0,0,-1.00003,232.99182,124.09233)" stroke-width=".9564" stroke-linecap="round" stroke-linejoin="round" fill="none" stroke="#000000" d="M-1.91284 2.55046C-1.75343 1.59402 0 .15938 .4782 0 0-.15938-1.75343-1.59402-1.91284-2.55046"/>
<use data-text="x" xlink:href="#font_1_2" transform="matrix(9.963098,0,0,-9.962899,231.10164,120.17421)"/>
<path transform="matrix(1.00005,0,0,-1.00003,114.88583,124.09233)" stroke-width="1.19553" stroke-linecap="butt" stroke-miterlimit="10" stroke-linejoin="miter" fill="none" stroke="#000000" d="M0-113.38724V118.10008"/>
<path transform="matrix(0,-1.00003,-1.00005,-0,114.88583,5.988701)" stroke-width=".9564" stroke-linecap="round" stroke-linejoin="round" fill="none" stroke="#000000" d="M-1.91284 2.55046C-1.75343 1.59402 0 .15938 .4782 0 0-.15938-1.75343-1.59402-1.91284-2.55046"/>
<use data-text="y" xlink:href="#font_1_3" transform="matrix(9.963098,0,0,-9.962899,118.80403,6.2087938)"/>
<path transform="matrix(1.00005,0,0,-1.00003,114.88583,124.09233)" stroke-width=".79701" stroke-linecap="butt" stroke-dasharray="2.98883,2.98883" stroke-miterlimit="10" stroke-linejoin="miter" fill="none" stroke="#000000" d="M28.3468 28.3468-28.3468-28.3468"/>
<path transform="matrix(1.00005,0,0,-1.00003,114.88583,124.09233)" stroke-width=".79701" stroke-linecap="butt" stroke-miterlimit="10" stroke-linejoin="miter" fill="none" stroke="#000000" d="M40.08847 0C40.08847 22.14053 22.14053 40.08847 0 40.08847-22.14053 40.08847-40.08847 22.14053-40.08847 0-40.08847-22.14053-22.14053-40.08847 0-40.08847 22.14053-40.08847 40.08847-22.14053 40.08847 0ZM0 0"/>
<path transform="matrix(1.00005,0,0,-1.00003,114.88583,124.09233)" stroke-width=".79701" stroke-linecap="butt" stroke-miterlimit="10" stroke-linejoin="miter" fill="none" stroke="#0000ff" d="M-44.99562-113.37036C-44.99562-113.37036-44.8656-112.38995-44.81569-112.01566-44.76576-111.64134-44.68565-111.04398-44.63574-110.6726-44.58582-110.30125-44.50574-109.70758-44.45581-109.3391-44.40588-108.97061-44.3258-108.3823-44.27588-108.01683-44.22595-107.65135-44.14586-107.06747-44.09593-106.70494-44.046-106.3424-43.96593-105.76335-43.916-105.40387-43.86607-105.04439-43.786-104.47057-43.73607-104.11404-43.68614-103.7575-43.60605-103.18788-43.55612-102.83415-43.5062-102.48044-43.42612-101.91537-43.37619-101.56467-43.32626-101.21396-43.24619-100.65419-43.19626-100.30641-43.14633-99.95863-43.06624-99.40306-43.01631-99.0581-42.9664-98.71315-42.8863-98.16225-42.83638-97.82018-42.78647-97.4781-42.70638-96.93182-42.65645-96.59264-42.60654-96.25345-42.52643-95.71179-42.4765-95.37547-42.42659-95.03915-42.3465-94.50218-42.29659-94.16869-42.24666-93.8352-42.16656-93.3026-42.11665-92.97186-42.06673-92.64113-41.98662-92.11282-41.9367-91.78497-41.88678-91.45714-41.8067-90.93394-41.75677-90.6089-41.70685-90.28387-41.62677-89.76468-41.57684-89.44235-41.52692-89.12003-41.44682-88.60518-41.3969-88.28574-41.34697-87.96631-41.26689-87.45657-41.21696-87.13995-41.16704-86.82332-41.08696-86.3176-41.03703-86.00368-40.9871-85.68976-40.90701-85.18852-40.85709-84.87735-40.80716-84.56618-40.72708-84.06943-40.67715-83.76096-40.62723-83.4525-40.54715-82.95987-40.49722-82.65411-40.4473-82.34834-40.3672-81.86014-40.31728-81.55719-40.26736-81.25424-40.18727-80.77095-40.13734-80.47064-40.08743-80.17035-40.00732-79.69041-39.9574-79.39276-39.90749-79.09511-39.8274-78.62022-39.77748-78.32527-39.72755-78.0303-39.64746-77.5591-39.59755-77.26685-39.54762-76.9746-39.46751-76.50848-39.4176-76.21881-39.36768-75.92914-39.2876-75.46608-39.23767-75.17897-39.18774-74.89188-39.10767-74.43382-39.05774-74.14954-39.00781-73.86526-38.92772-73.4118-38.87779-73.13005-38.82787-72.8483-38.74779-72.39793-38.69786-72.11877-38.64793-71.8396-38.56786-71.39442-38.51793-71.11789-38.468-70.84135-38.38791-70.39972-38.33798-70.12564-38.28806-69.85156-38.20798-69.41391-38.15805-69.14249-38.10812-68.87105-38.02805-68.43806-37.97812-68.16927-37.92819-67.90047-37.8481-67.47148-37.79817-67.20514-37.74826-66.9388-37.66817-66.51349-37.61824-66.24966-37.56833-65.98586-37.48824-65.56494-37.43831-65.30371-37.3884-65.04248-37.30829-64.6256-37.25836-64.36682-37.20845-64.10806-37.12836-63.69492-37.07845-63.43861-37.02852-63.1823-36.94843-62.77327-36.89851-62.51947-36.84859-62.26567-36.76848-61.86073-36.71857-61.6094-36.66864-61.35806-36.58856-60.95685-36.53864-60.70798-36.48871-60.4591-36.40863-60.06213-36.3587-59.81566-36.30878-59.56918-36.22868-59.17557-36.17876-58.93155-36.12883-58.68755-36.04875-58.29852-35.99883-58.05698-35.9489-57.81543-35.86882-57.4298-35.8189-57.1906-35.76897-56.95139-35.68887-56.56961-35.63895-56.33287-35.58902-56.09613-35.50894-55.71858-35.45901-55.48424-35.40909-55.24988-35.32901-54.87589-35.27908-54.64381-35.22916-54.41173-35.14906-54.04128-35.09914-53.8116-35.04922-53.58194-34.96913-53.21574-34.9192-52.98848-34.8693-52.76122-34.7892-52.39856-34.73927-52.17358-34.68936-51.9486-34.60925-51.58955-34.55934-51.3669-34.50941-51.14426-34.42932-50.78918-34.37941-50.56888-34.32948-50.34857-34.24939-49.99709-34.19948-49.77905-34.14955-49.56102-34.06944-49.21321-34.01953-48.99745-33.9696-48.78171-33.88953-48.43755-33.8396-48.22408-33.78967-48.0106-33.7096-47.67017-33.65967-47.45891-33.60974-47.24767-33.52965-46.91052-33.47972-46.70155-33.4298-46.49258-33.34972-46.15945-33.29979-45.95282-33.24986-45.7462-33.16978-45.41682-33.11986-45.21231-33.06993-45.00781-32.98984-44.68103-32.93991-44.47873-32.88998-44.27644-32.8099-43.95425-32.75998-43.75424-32.71005-43.55423-32.62997-43.235-32.58005-43.03708-32.53012-42.83917-32.45003-42.52342-32.4001-42.32773-32.35019-42.13203-32.2701-41.82005-32.22017-41.62659-32.17026-41.4331-32.09015-41.1246-32.04022-40.93321-31.99031-40.74184-31.91022-40.43643-31.8603-40.24721-31.81038-40.058-31.73029-39.75648-31.68037-39.56941-31.63045-39.38235-31.55034-39.08394-31.50043-38.899-31.4505-38.71405-31.37042-38.41925-31.3205-38.23634-31.27057-38.05344-31.19049-37.76143-31.14056-37.58063-31.09064-37.39981-31.01054-37.11176-30.96062-36.9331-30.91069-36.75446-30.83061-36.46957-30.78069-36.29295-30.73076-36.11633-30.65068-35.83472-30.60075-35.66014-30.55083-35.48557-30.47073-35.20723-30.4208-35.0347-30.37088-34.86217-30.2908-34.5871-30.24088-34.4166-30.19095-34.24611-30.11087-33.97432-30.06094-33.80586-30.01102-33.6374-29.93092-33.36888-29.881-33.20247-29.83109-33.03606-29.75099-32.77086-29.70107-32.60643-29.65115-32.442-29.57106-32.17975-29.52113-32.0173-29.47122-31.85486-29.39111-31.59602-29.34119-31.43556-29.29128-31.27509-29.21118-31.01927-29.16127-30.8607-29.11134-30.70215-29.03125-30.4494-28.98134-30.29277-28.93141-30.13615-28.8513-29.88637-28.80139-29.73178-28.75146-29.5772-28.67139-29.33124-28.62146-29.17856-28.57153-29.0259-28.49146-28.7822-28.44153-28.6314-28.3916-28.48059-28.31151-28.24048-28.26158-28.0916-28.21165-27.9427-28.13158-27.70523-28.08165-27.55827-28.03172-27.41132-27.95164-27.17741-27.90172-27.03232-27.85179-26.88722-27.7717-26.6557-27.72177-26.51239-27.67184-26.36908-27.59177-26.14078-27.54184-25.9994-27.49191-25.85803-27.41183-25.63293-27.36191-25.49335-27.31198-25.35376-27.23189-25.13106-27.18196-24.99332-27.13205-24.85559-27.05196-24.63654-27.00203-24.50067-26.95212-24.3648-26.87202-24.14824-26.8221-24.01405-26.77219-23.87987-26.69208-23.66582-26.64217-23.53351-26.59224-23.40118-26.51215-23.19084-26.46223-23.06032-26.41231-22.9298-26.33221-22.72153-26.2823-22.59274-26.23238-22.46397-26.15227-22.25906-26.10236-22.13208-26.05243-22.0051-25.97235-21.80273-25.92242-21.67749-25.8725-21.55226-25.79242-21.35289-25.7425-21.22939-25.69257-21.10588-25.61247-20.90915-25.56255-20.78732-25.51262-20.66551-25.43254-20.47142-25.38261-20.35133-25.33269-20.23126-25.25261-20.04022-25.20268-19.92181-25.15276-19.8034-25.07266-19.61465-25.02274-19.49792-24.97281-19.38121-24.89273-19.19562-24.8428-19.08052-24.79288-18.96544-24.71278-18.78175-24.66286-18.66832-24.61293-18.5549-24.53285-18.37471-24.48293-18.26305-24.43301-18.15137-24.35292-17.97343-24.303-17.86337-24.25308-17.75331-24.17297-17.57825-24.12305-17.46976-24.07314-17.36127-23.99304-17.18822-23.94313-17.08134-23.8932-16.97447-23.81311-16.80467-23.7632-16.69942-23.71327-16.59415-23.63316-16.42636-23.58325-16.32268-23.53333-16.21898-23.45325-16.05414-23.40332-15.952-23.3534-15.84985-23.27332-15.68707-23.22339-15.58649-23.17346-15.48592-23.09337-15.32594-23.04344-15.22705-22.99352-15.12816-22.91344-14.97107-22.86351-14.87367-22.81358-14.77628-22.7335-14.621-22.68358-14.52504-22.63365-14.4291-22.55356-14.27643-22.50363-14.18204-22.4537-14.08765-22.37363-13.93756-22.3237-13.84467-22.27377-13.75177-22.1937-13.60393-22.14377-13.51247-22.09384-13.42102-22.01375-13.27542-21.96382-13.18547-21.91391-13.09552-21.83382-12.9525-21.78389-12.8641-21.73398-12.77571-21.65388-12.63536-21.60396-12.54834-21.55405-12.46133-21.47394-12.3225-21.42403-12.23692-21.3741-12.15134-21.294-12.01561-21.2441-11.93153-21.19417-11.84747-21.11407-11.71362-21.06416-11.63094-21.01424-11.54825-20.93413-11.41682-20.88422-11.33551-20.83429-11.2542-20.75421-11.12477-20.70428-11.04483-20.65436-10.9649-20.57428-10.8379-20.52435-10.75935-20.47443-10.68082-20.39433-10.55582-20.3444-10.47865-20.29448-10.40149-20.2144-10.27885-20.16447-10.20313-20.11455-10.12738-20.03447-10.0072-19.98454-9.93279-19.93462-9.85837-19.85452-9.73993-19.8046-9.66678-19.75467-9.59363-19.67459-9.47734-19.62466-9.40552-19.57474-9.3337-19.49466-9.21948-19.44473-9.14903-19.3948-9.07858-19.31471-8.9669-19.26479-8.89772-19.21487-8.82854-19.13478-8.71823-19.08485-8.65031-19.03494-8.5824-18.95485-8.4747-18.90492-8.40808-18.85501-8.34148-18.7749-8.23555-18.72499-8.1702-18.67506-8.10484-18.59497-8.00114-18.54506-7.93706-18.49513-7.87296-18.41504-7.77113-18.36513-7.70825-18.3152-7.64536-18.2351-7.5454-18.18518-7.48376-18.13525-7.42213-18.05518-7.32446-18.00525-7.26402-17.95532-7.2036-17.87524-7.10742-17.82532-7.04819-17.77539-6.98897-17.6953-6.89514-17.64537-6.83711-17.59544-6.77908-17.51537-6.68681-17.46544-6.62993-17.41551-6.57304-17.33542-6.48276-17.28549-6.42706-17.23557-6.37138-17.15549-6.28308-17.10556-6.22853-17.05563-6.17398-16.97556-6.0873-16.92563-6.03389-16.8757-5.98048-16.79561-5.89584-16.74568-5.84357-16.69577-5.7913-16.61568-5.70827-16.56575-5.65715-16.51584-5.60603-16.43575-5.52509-16.38582-5.47505-16.3359-5.425-16.2558-5.34543-16.20587-5.2964-16.15596-5.24738-16.07587-5.16954-16.02596-5.12166-15.97603-5.07378-15.89594-4.99799-15.84602-4.95125-15.7961-4.9045-15.71599-4.83044-15.66608-4.78473-15.61615-4.739-15.53607-4.66637-15.48615-4.62166-15.43622-4.57695-15.35614-4.50616-15.30621-4.46248-15.25629-4.41878-15.1762-4.34941-15.12627-4.30676-15.07634-4.2641-14.99626-4.1966-14.94633-4.15495-14.89641-4.11331-14.81633-4.04726-14.7664-4.00658-14.71648-3.9659-14.63638-3.90135-14.58646-3.8617-14.53653-3.82202-14.45645-3.75932-14.40652-3.72067-14.3566-3.68204-14.27652-3.62082-14.2266-3.58313-14.17667-3.54544-14.09657-3.48584-14.04665-3.44905-13.99673-3.41226-13.91664-3.35385-13.86671-3.31798-13.8168-3.2821-13.73671-3.22531-13.68678-3.19038-13.63687-3.15547-13.55676-3.10027-13.50685-3.06625-13.45692-3.03223-13.37683-2.97826-13.32692-2.94513-13.277-2.912-13.1969-2.8597-13.14699-2.82748-13.09706-2.79527-13.01695-2.74417-12.96704-2.71286-12.91711-2.68155-12.83704-2.63213-12.78711-2.6017-12.73718-2.57129-12.6571-2.52322-12.60718-2.49358-12.55725-2.46393-12.47716-2.41684-12.42723-2.38803-12.3773-2.35922-12.29723-2.3139-12.2473-2.28595-12.19737-2.25798-12.1173-2.21358-12.06737-2.18646-12.01744-2.15935-11.93735-2.11679-11.88742-2.09045-11.8375-2.0641-11.75742-2.02219-11.70749-1.99658-11.65756-1.97096-11.57748-1.93047-11.52756-1.90575-11.47763-1.88103-11.39754-1.84232-11.34761-1.81837-11.2977-1.79443-11.2176-1.75644-11.16768-1.73317-11.11777-1.7099-11.03767-1.67311-10.98775-1.65054-10.93784-1.62799-10.85773-1.5923-10.80782-1.57053-10.75789-1.54875-10.6778-1.51454-10.62788-1.49355-10.57796-1.47255-10.49786-1.43948-10.44795-1.41914-10.39803-1.3988-10.31793-1.36658-10.268-1.34691-10.21808-1.32722-10.138-1.29622-10.08807-1.27727-10.03815-1.2583-9.95805-1.22853-9.90813-1.21022-9.8582-1.19193-9.77812-1.16298-9.7282-1.14534-9.67827-1.1277-9.59819-1.10004-9.54826-1.08305-9.49834-1.06607-9.41824-1.0393-9.36832-1.02293-9.31839-1.00656-9.23831-.9807-9.18839-.96498-9.13846-.94926-9.05838-.92473-9.00845-.90962-8.95853-.8945-8.87843-.87048-8.8285-.85597-8.7786-.84145-8.6985-.81885-8.64857-.80493-8.59866-.79103-8.51857-.769-8.46864-.75562-8.41873-.74225-8.33862-.72131-8.2887-.70848-8.23878-.69565-8.15869-.67531-8.10878-.66307-8.05885-.65083-7.97876-.63194-7.92885-.62025-7.87892-.60855-7.79881-.58994-7.7489-.57872-7.69897-.5675-7.6189-.55003-7.56897-.53935-7.51904-.52869-7.43896-.51193-7.38904-.50174-7.33911-.49153-7.25902-.47548-7.20909-.46582-7.15916-.45618-7.07909-.44125-7.02916-.4321-6.97923-.42293-6.89915-.4084-6.84923-.39966-6.7993-.3909-6.71921-.37721-6.66928-.36894-6.61935-.36067-6.53928-.34781-6.48935-.33995-6.43942-.33209-6.35934-.3197-6.30942-.31227-6.25949-.30484-6.1794-.29333-6.12947-.28632-6.07956-.27931-5.99947-.26826-5.94954-.26166-5.89963-.25507-5.81953-.24492-5.7696-.23874-5.7197-.23257-5.63959-.22293-5.58968-.21712-5.53975-.21132-5.45966-.20224-5.40974-.19678-5.35982-.19133-5.27972-.18286-5.22981-.17776-5.17989-.17267-5.0998-.16475-5.04987-.16002-4.99994-.15529-4.91986-.14803-4.86993-.14359-4.82-.13914-4.73993-.13216-4.69-.12802-4.64008-.12389-4.55998-.11752-4.51006-.11375-4.46013-.10999-4.38005-.10425-4.33012-.10077-4.2802-.09729-4.20012-.09189-4.15019-.08865-4.10027-.08542-4.02017-.08035-3.97025-.07742-3.92032-.07448-3.84024-.07008-3.79031-.06746-3.74039-.06483-3.66031-.06078-3.61038-.05838-3.56046-.056-3.48036-.05238-3.43044-.05016-3.38052-.04794-3.30043-.04436-3.2505-.04237-3.20059-.0404-3.1205-.03761-3.07057-.03589-3.02066-.03415-2.94055-.03139-2.89064-.02983-2.84071-.02829-2.76062-.026-2.71071-.02463-2.66078-.02327-2.58069-.02106-2.53078-.01988-2.48085-.01869-2.40076-.017-2.35083-.01599-2.3009-.01497-2.22083-.01343-2.1709-.01253-2.12097-.01164-2.04088-.01021-1.99095-.00949-1.94102-.00877-1.86095-.00793-1.81102-.00734-1.7611-.00674-1.68102-.0057-1.63109-.00517-1.58116-.00464-1.50107-.00386-1.45114-.00345-1.40121-.00304-1.32114-.00244-1.27121-.00215-1.22128-.00186-1.1412-.00145-1.09128-.00128-1.04135-.00111-.96126-.00095-.91133-.00084-.86142-.00073-.78133-.00052-.7314-.00041-.68149-.0003-.6014-.00003-.55147 0-.50156 .00003-.42145 0-.37154 0-.32161 0-.24152 0-.1916 0-.14168 0-.06158 0-.01167 0 .03824 0 .11833 0 .16824 0 .21817 0 .29825 0 .34818 0 .3981 0 .47818 0 .5281 0 .57803 0 .65813-.00009 .70805 0 .75798 .00009 .83806 .00067 .88799 .00084 .93791 .001 1.01799 .00111 1.06792 .00128 1.11784 .00145 1.19794 .00186 1.24786 .00215 1.29779 .00244 1.37787 .0031 1.4278 .00345 1.47772 .0038 1.5578 .00426 1.60773 .00473 1.65765 .0052 1.73775 .00632 1.78767 .00691 1.83759 .0075 1.91768 .00835 1.9676 .00906 2.01752 .00978 2.09761 .0112 2.14754 .0121 2.19745 .01299 2.27756 .01454 2.32747 .01556 2.3774 .01657 2.45749 .01833 2.5074 .01945 2.55733 .02057 2.63742 .02246 2.68733 .02377 2.73726 .02507 2.81735 .02742 2.86728 .02896 2.9172 .03052 2.99728 .03328 3.04721 .03502 3.09714 .03674 3.17722 .0396 3.22714 .0415 3.27707 .04343 3.35716 .0467 3.40709 .04887 3.45702 .05103 3.5371 .05469 3.58702 .05708 3.63695 .05946 3.71703 .06354 3.76695 .06616 3.81688 .0688 3.89697 .07318 3.9469 .07611 3.99683 .07904 4.0769 .08418 4.12683 .08736 4.17676 .09053 4.25684 .09561 4.30676 .09903 4.35667 .10245 4.43678 .10825 4.48671 .11201 4.53662 .11578 4.61671 .12222 4.66664 .1263 4.71655 .13037 4.79665 .13705 4.84657 .14143 4.89648 .14581 4.9766 .1532 5.0265 .15787 5.07643 .16254 5.15652 .17014 5.20644 .17517 5.25636 .18019 5.33647 .18874 5.38638 .1942 5.43631 .19966 5.51639 .20877 5.56631 .21452 5.61624 .22028 5.69632 .2296 5.74625 .23572 5.79617 .24182 5.87627 .2521 5.9262 .25864 5.97612 .26518 6.0562 .27591 6.10612 .28287 6.15605 .28984 6.23613 .30145 6.28606 .30882 6.33598 .3162 6.41608 .32826 6.466 .33606 6.51593 .34386 6.59601 .35678 6.64594 .36505 6.69586 .37332 6.77594 .38707 6.82587 .39577 6.8758 .40445 6.95589 .41864 7.00581 .42776 7.05573 .43689 7.13582 .45192 7.18575 .4615 7.23566 .4711 7.31575 .4869 7.36568 .49698 7.41559 .50705 7.4957 .52356 7.54561 .53418 7.59554 .54478 7.67563 .56238 7.72554 .57353 7.77547 .58469 7.85556 .603 7.90547 .61462 7.9554 .62625 8.0355 .64526 8.08542 .65744 8.13535 .66962 8.21542 .68967 8.26535 .70242 8.31528 .7152 8.39536 .73625 8.44528 .74957 8.49521 .7629 8.5753 .78459 8.62523 .79845 8.67516 .8123 8.75523 .8351 8.80516 .84949 8.85509 .86389 8.93517 .88727 8.98509 .90227 9.03502 .91725 9.11511 .94197 9.16504 .95763 9.21497 .97328 9.29504 .99884 9.34497 1.01515 9.3949 1.03146 9.47498 1.05835 9.5249 1.07527 9.57483 1.0922 9.65492 1.11961 9.70485 1.13713 9.75476 1.15465 9.83485 1.18333 9.88478 1.20157 9.9347 1.21982 10.01479 1.24971 10.06471 1.26862 10.11462 1.2875 10.19473 1.31827 10.24464 1.33783 10.29457 1.35739 10.37466 1.3894 10.42458 1.40962 10.4745 1.42984 10.5546 1.46265 10.6045 1.48358 10.65443 1.50452 10.73453 1.53886 10.78445 1.56058 10.83438 1.5823 10.91446 1.61772 10.96439 1.64017 11.01431 1.6626 11.09439 1.69919 11.14432 1.72235 11.19424 1.7455 11.27434 1.78325 11.32426 1.80713 11.37419 1.83101 11.45427 1.86986 11.5042 1.89452 11.55412 1.91916 11.6342 1.95947 11.68413 1.9849 11.73405 2.01033 11.81415 2.05167 11.86407 2.0779 11.914 2.10411 11.99408 2.14693 12.044 2.17392 12.09393 2.20091 12.17401 2.2447 12.22394 2.27254 12.27385 2.30037 12.35396 2.34589 12.40388 2.37462 12.4538 2.40335 12.53389 2.4502 12.58382 2.47972 12.63373 2.50925 12.71384 2.55707 12.76376 2.58743 12.81367 2.61778 12.89377 2.66739 12.94368 2.6986 12.9936 2.72978 13.0737 2.78024 13.12361 2.81235 13.17354 2.84445 13.25365 2.89699 13.30356 2.93 13.35349 2.963 13.43356 3.01634 13.48349 3.05023 13.53342 3.08414 13.6135 3.13959 13.66342 3.17438 13.71335 3.20918 13.79344 3.26541 13.84337 3.30112 13.8933 3.33682 13.97337 3.3951 14.0233 3.43175 14.07323 3.4684 14.1533 3.52782 14.20323 3.56538 14.25316 3.60295 14.33325 3.66393 14.38318 3.70251 14.4331 3.74109 14.51318 3.80399 14.56311 3.84352 14.61304 3.88306 14.69312 3.94705 14.74304 3.98755 14.79297 4.02805 14.87306 4.09396 14.92299 4.13548 14.9729 4.177 15.053 4.24434 15.10292 4.28688 15.15283 4.3294 15.23293 4.39864 15.28285 4.44215 15.33276 4.48566 15.41287 4.55594 15.46278 4.60046 15.51271 4.64499 15.5928 4.71748 15.64272 4.76309 15.69264 4.8087 15.77274 4.8825 15.82265 4.92918 15.87257 4.97588 15.95267 5.05183 16.0026 5.09961 16.05252 5.14737 16.1326 5.2247 16.18253 5.27348 16.23245 5.32227 16.31253 5.40134 16.36246 5.45125 16.41238 5.50117 16.49248 5.58235 16.5424 5.63336 16.59233 5.68436 16.67241 5.76677 16.72234 5.81891 16.77226 5.87106 16.85234 5.95595 16.90227 6.00923 16.9522 6.06252 17.03229 6.14865 17.08221 6.203 17.13214 6.25737 17.21222 6.34555 17.26215 6.40112 17.31207 6.45668 17.39215 6.54684 17.44208 6.60355 17.492 6.66025 17.5721 6.75201 17.62202 6.80986 17.67194 6.8677 17.75203 6.96147 17.80196 7.02051 17.85187 7.07956 17.93196 7.17517 17.98189 7.23547 18.0318 7.29579 18.11191 7.3937 18.16182 7.45522 18.21175 7.51672 18.29184 7.61612 18.34175 7.67883 18.39168 7.74155 18.47177 7.84325 18.52168 7.90721 18.57161 7.97118 18.6517 8.07475 18.70163 8.13992 18.75156 8.2051 18.83163 8.31052 18.88156 8.37695 18.93149 8.44339 19.01157 8.55106 19.0615 8.61874 19.11142 8.68642 19.19151 8.79584 19.24144 8.86484 19.29137 8.93384 19.37144 9.04584 19.42137 9.11617 19.4713 9.1865 19.55138 9.3002 19.6013 9.37178 19.65123 9.44337 19.73132 9.5592 19.78125 9.63217 19.83118 9.70515 19.91125 9.82347 19.96118 9.89775 20.01111 9.97205 20.0912 10.09204 20.14113 10.16765 20.19104 10.24327 20.27113 10.36575 20.32106 10.44275 20.37097 10.51974 20.45107 10.6443 20.50099 10.7226 20.5509 10.8009 20.63101 10.92746 20.68092 11.00722 20.73085 11.08696 20.81094 11.21631 20.86086 11.29745 20.91078 11.37859 20.99088 11.50949 21.04079 11.592 21.09071 11.67451 21.17082 11.80824 21.22073 11.89218 21.27066 11.97612 21.35074 12.11179 21.40067 12.19711 21.45059 12.28244 21.53067 12.42043 21.5806 12.50725 21.63052 12.59409 21.71062 12.73468 21.76054 12.82301 21.81047 12.91135 21.89055 13.05423 21.94048 13.14394 21.9904 13.23364 22.07048 13.3785 22.1204 13.46965 22.17033 13.56079 22.25043 13.70825 22.30035 13.80096 22.35028 13.89369 22.43036 14.0437 22.48029 14.13792 22.53021 14.23215 22.61029 14.38435 22.66022 14.48006 22.71014 14.57578 22.79024 14.73055 22.84016 14.82782 22.89008 14.9251 22.97017 15.08244 23.0201 15.1812 23.07 15.27997 23.1501 15.43944 23.20003 15.53978 23.24994 15.6401 23.33005 15.8025 23.37996 15.9044 23.42989 16.0063 23.50998 16.17078 23.55989 16.27423 23.60982 16.37767 23.68991 16.54501 23.73982 16.6501 23.78975 16.75517 23.86984 16.92496 23.91977 17.0316 23.9697 17.13824 24.04977 17.31047 24.0997 17.41872 24.14963 17.52698 24.2297 17.70201 24.27963 17.81189 24.32956 17.92177 24.40965 18.0992 24.45958 18.2107 24.5095 18.3222 24.58958 18.50238 24.63951 18.61555 24.68944 18.72874 24.76952 18.91167 24.81944 19.02647 24.86937 19.14128 24.94946 19.32646 24.99939 19.44301 25.04932 19.55954 25.1294 19.74823 25.17932 19.86646 25.22925 19.98468 25.30933 20.17526 25.35925 20.2951 25.40916 20.41495 25.48927 20.60858 25.5392 20.73022 25.58911 20.85188 25.6692 21.04852 25.71913 21.17184 25.76904 21.29517 25.84914 21.4941 25.89906 21.61911 25.94897 21.74411 26.02908 21.94609 26.079 22.07283 26.12892 22.19957 26.20901 22.40413 26.25893 22.53262 26.30885 22.66112 26.38895 22.86856 26.43886 22.9989 26.48878 23.12924 26.56888 23.33995 26.6188 23.47209 26.66873 23.60423 26.74881 23.81752 26.79874 23.95135 26.84866 24.08517 26.92874 24.30098 26.97867 24.43666 27.0286 24.57233 27.10869 24.79182 27.15862 24.9293 27.20854 25.06679 27.28862 25.28831 27.33855 25.4276 27.38847 25.56688 27.46855 25.79202 27.51848 25.93323 27.5684 26.07445 27.6485 26.30235 27.69843 26.44536 27.74835 26.58836 27.82843 26.8191 27.87836 26.96397 27.92828 27.10883 28.00838 27.34277 28.0583 27.4895 28.10822 27.63623 28.18831 27.87288 28.23824 28.02153 28.28815 28.17017 28.36824 28.41028 28.41817 28.56091 28.46808 28.71153 28.54819 28.9547 28.5981 29.1072 28.64803 29.25967 28.72812 29.50563 28.77803 29.65997 28.82796 29.81433 28.90805 30.06337 28.95796 30.21968 29.00789 30.376 29.088 30.62848 29.13791 30.78673 29.18784 30.94499 29.26791 31.20006 29.31784 31.36029 29.36777 31.52052 29.44785 31.7794 29.49777 31.94162 29.5477 32.10382 29.62779 32.36525 29.67772 32.52945 29.72765 32.69363 29.80772 32.9588 29.85765 33.12505 29.90758 33.29128 29.98766 33.55942 30.03758 33.72757 30.08751 33.89572 30.1676 34.1669 30.21753 34.33702 30.26746 34.50714 30.34753 34.78157 30.39746 34.95381 30.44739 35.12605 30.52747 35.40407 30.5774 35.5784 30.62732 35.75273 30.70741 36.03395 30.75734 36.21033 30.80725 36.3867 30.88734 36.67122 30.93727 36.84964 30.98718 37.02805 31.06728 37.31581 31.1172 37.49626 31.16711 37.67671 31.24722 37.96765 31.29713 38.15027 31.34706 38.33289 31.42715 38.62776 31.47707 38.81248 31.527 38.99721 31.60709 39.2948 31.657 39.48161 31.70692 39.66843 31.78702 39.96999 31.83694 40.15897 31.88687 40.34795 31.96695 40.65266 32.01688 40.84367 32.0668 41.0347 32.14688 41.34251 32.19681 41.53575 32.24673 41.72899 32.32683 42.041 32.37675 42.23645 32.42668 42.4319 32.50676 42.74696 32.55669 42.94452 32.60661 43.14206 32.68669 43.46057 32.73662 43.66037 32.78654 43.86015 32.86664 44.18243 32.91656 44.38443 32.96649 44.58644 33.04657 44.91212 33.0965 45.11629 33.14642 45.32045 33.2265 45.64949 33.27643 45.85594 33.32634 46.06238 33.40645 46.39557 33.45638 46.60423 33.50629 46.81288 33.58638 47.14899 33.6363 47.35988 33.68622 47.57076 33.76631 47.91101 33.81624 48.12416 33.86615 48.33733 33.94626 48.6808 33.99617 48.89624 34.0461 49.11168 34.12619 49.45918 34.1761 49.67697 34.22603 49.89476 34.30612 50.24586 34.35603 50.46593 34.40596 50.68599 34.48605 51.04074 34.53598 51.26309 34.5859 51.48543 34.66599 51.84378 34.71591 52.06847 34.76584 52.29315 34.84592 52.65555 34.89584 52.8825 34.94577 53.10947 35.02586 53.47504 35.07579 53.70435 35.12572 53.93365 35.2058 54.30353 35.25572 54.53523 35.30565 54.76694 35.38574 55.14026 35.43567 55.37437 35.4856 55.60847 35.56567 55.98605 35.6156 56.22256 35.66553 56.45908 35.7456 56.84015 35.79553 57.079 35.84546 57.31786 35.92555 57.7028 35.97548 57.94406 36.02539 58.18532 36.10548 58.57414 36.15541 58.8178 36.20532 59.06146 36.28542 59.45413 36.33534 59.70018 36.38525 59.94623 36.46536 60.34264 36.51527 60.5912 36.5652 60.83977 36.6453 61.24066 36.6952 61.49174 36.74513 61.74284 36.82523 62.1475 36.87514 62.40094 36.92506 62.65437 37.00516 63.06241 37.05508 63.31836 37.10501 63.57431 37.18509 63.98723 37.23502 64.24571 37.28494 64.5042 37.36502 64.92038 37.41495 65.1813 37.46487 65.44223 37.54497 65.86288 37.5949 66.12639 37.64482 66.38991 37.7249 66.8146 37.77483 67.08058 37.82475 67.34656 37.90483 67.7749 37.95476 68.0434 38.00468 68.31189 38.08478 68.7446 38.1347 69.01575 38.18463 69.28688 38.26471 69.72395 38.31464 69.9976 38.36456 70.27126 38.44464 70.71188 38.49457 70.98813 38.54448 71.26436 38.62459 71.70976 38.67451 71.98859 38.72443 72.2674 38.80452 72.71623 38.85445 72.99768 38.90436 73.27914 38.98445 73.73308 39.03438 74.01718 39.08429 74.30127 39.1644 74.75877 39.21431 75.04533 39.26424 75.3319 39.34433 75.79329 39.39424 76.08255 39.44417 76.37181 39.52426 76.83815 39.57417 77.13016 39.6241 77.42218 39.7042 77.89268 39.75412 78.18729 39.80405 78.48187 39.88412 78.95618 39.93405 79.25348 39.98398 79.5508 40.06406 80.03008 40.11398 80.33008 40.16391 80.63007 40.244 81.11311 40.29393 81.41576 40.34386 81.7184 40.42393 82.20595 40.47386 82.51135 40.52379 82.81677 40.60387 83.3089 40.6538 83.61694 40.70372 83.92497 40.78381 84.42078 40.83374 84.73158 40.88367 85.04239 40.96375 85.54341 41.01367 85.85704 41.0636 86.17067 41.14368 86.6757 41.1936 86.99202 41.24352 87.30835 41.32362 87.81787 41.37355 88.13696 41.42346 88.45605 41.50356 88.97 41.55348 89.29184 41.6034 89.61368 41.68349 90.13193 41.7334 90.45667 41.78333 90.78139 41.86343 91.30481 41.91335 91.6323 41.96327 91.95976 42.04337 92.48682 42.09328 92.81702 42.1432 93.1472 42.2233 93.67897 42.27321 94.01212 42.32314 94.34525 42.40323 94.88197 42.45316 95.21803 42.50308 95.55411 42.58316 96.09557 42.63309 96.43434 42.68301 96.77312 42.7631 97.31805 42.81303 97.6597 42.86296 98.00136 42.94304 98.55217 42.99297 98.89677 43.0429 99.24136 43.12297 99.79587 43.1729 100.14334 43.22282 100.49081 43.30292 101.05075 43.35284 101.40117 43.40277 101.75159 43.48285 102.3157 43.53278 102.66895 43.5827 103.02217 43.66278 103.59091 43.7127 103.94708 43.76263 104.30324 43.84273 104.87688 43.89265 105.23605 43.94257 105.59523 44.02266 106.17377 44.07259 106.53583 44.1225 106.89787 44.20259 107.48048 44.25252 107.84555 44.30243 108.2106 44.38254 108.79883 44.43245 109.16695 44.48238 109.53506 44.56247 110.12769 44.61238 110.49873 44.66231 110.86978 44.7424 111.46733 44.79231 111.84132 44.84224 112.21533 44.97226 113.19432 44.97226 113.19432"/>
<use data-text="&#x2022;" xlink:href="#font_2_1" transform="matrix(9.963098,0,0,-9.962899,140.74314,97.95854)"/>
<use data-text="&#x2022;" xlink:href="#font_2_1" transform="matrix(9.963098,0,0,-9.962899,84.047298,154.65425)"/>
<use data-text="&#x2022;" xlink:href="#font_2_1" transform="matrix(9.963098,0,0,-9.962899,112.39471,126.3064)"/>
<use data-text="(" xlink:href="#font_3_1" transform="matrix(9.963098,0,0,-9.962899,118.406009,135.08466)"/>
<use data-text="0" xlink:href="#font_3_3" transform="matrix(9.963098,0,0,-9.962899,122.2717,135.08466)"/>
<use data-text="," xlink:href="#font_1_1" transform="matrix(9.963098,0,0,-9.962899,127.26245,135.08466)"/>
<use data-text="0" xlink:href="#font_3_3" transform="matrix(9.963098,0,0,-9.962899,131.69068,135.08466)"/>
<use data-text=")" xlink:href="#font_3_2" transform="matrix(9.963098,0,0,-9.962899,136.67221,135.08466)"/>
</svg>
