<svg xmlns="http://www.w3.org/2000/svg" xmlns:xlink="http://www.w3.org/1999/xlink" version="1.1" width="109" height="89" viewBox="0 0 109 89">
<defs>
<path id="font_1_2" d="M.33399964 .30233766C.33999635 .32835389 .36299134 .42037965 .43299867 .42037965 .43798829 .42037965 .46199037 .42037965 .48298646 .40734864 .45498658 .402359 .43499757 .37734986 .43499757 .35334779 .43499757 .33735658 .44599916 .31835938 .47299195 .31835938 .49499513 .31835938 .5269928 .3363495 .5269928 .37635804 .5269928 .42837525 .46798707 .4423828 .43399049 .4423828 .37599183 .4423828 .34098817 .38935853 .32899476 .36634828 .3039856 .43237306 .25 .4423828 .22099304 .4423828 .116989139 .4423828 .05999756 .3133545 .05999756 .28834535 .05999756 .27833558 .069992069 .27833558 .07199097 .27833558 .07998657 .27833558 .08299255 .28033448 .084991458 .28933717 .11898804 .39535523 .18499756 .42037965 .21899414 .42037965 .23799134 .42037965 .272995 .4113617 .272995 .35334779 .272995 .32235719 .2559967 .25532533 .21899414 .11528015 .20298767 .053268434 .16799927 .011245728 .12399292 .011245728 .117996219 .011245728 .09498596 .011245728 .07398987 .024276734 .09899902 .029266358 .12098694 .05027771 .12098694 .07827759 .12098694 .105270389 .09899902 .11328125 .083999637 .11328125 .053985597 .11328125 .0289917 .08728027 .0289917 .055267335 .0289917 .009246826 .07899475-.0107421879 .12298584-.0107421879 .18899536-.0107421879 .22499085 .059280397 .22799683 .0652771 .23999024 .028274537 .27598573-.0107421879 .33599855-.0107421879 .43899537-.0107421879 .49598695 .118270877 .49598695 .14328003 .49598695 .1532898 .4869995 .1532898 .48399354 .1532898 .47499085 .1532898 .47299195 .14929199 .47099305 .14228821 .43798829 .03527832 .36999513 .011245728 .33799745 .011245728 .29899598 .011245728 .2829895 .043273927 .2829895 .07727051 .2829895 .09927368 .2889862 .121276859 .2999878 .16529846L.33399964 .30233766Z"/>
<path id="font_1_3" d="M.48599244 .38136292C.48999024 .39537049 .48999024 .39736939 .48999024 .40437318 .48999024 .42237855 .47599793 .43138124 .46099855 .43138124 .45098878 .43138124 .43499757 .42536927 .42599488 .41036988 .42399598 .405365 .41600038 .37435914 .4119873 .35635377 .40499879 .33035279 .397995 .30334474 .3919983 .27633668L.34700013 .09628296C.34298707 .08126831 .2999878 .011245728 .23399353 .011245728 .18299866 .011245728 .17199707 .055267335 .17199707 .0922699 .17199707 .1382904 .18899536 .20030213 .22299195 .28833009 .23899842 .3293457 .24299622 .3403473 .24299622 .36035157 .24299622 .405365 .21099854 .4423828 .16099549 .4423828 .06599426 .4423828 .0289917 .29733277 .0289917 .28833009 .0289917 .27833558 .038986207 .27833558 .040985109 .27833558 .050994874 .27833558 .051986696 .28033448 .056991579 .29634095 .083999637 .3903656 .12399292 .42037965 .1579895 .42037965 .1659851 .42037965 .18299866 .42037965 .18299866 .3883667 .18299866 .36335755 .17298889 .3373413 .1659851 .31834413 .12599182 .21231079 .10798645 .1552887 .10798645 .10827637 .10798645 .019256592 .17098999-.0107421879 .22999573-.0107421879 .2689972-.0107421879 .30299378 .0062561037 .33099366 .03425598 .31799317-.017745972 .30599977-.06674194 .2659912-.11973572 .23999024-.15385437 .20199585-.18309021 .1559906-.18309021 .14199829-.18309021 .09700012-.18005371 .07998657-.14074707 .09599304-.14074707 .10899353-.14074707 .12298584-.1287384 .1329956-.11973572 .14299011-.10673523 .14299011-.08773804 .14299011-.056747438 .115997318-.052734376 .10598755-.052734376 .08299255-.052734376 .049987794-.068740848 .049987794-.11773682 .049987794-.16796875 .09399414-.20507813 .1559906-.20507813 .25898744-.20507813 .3619995-.11373901 .3899994-.00074768069L.48599244 .38136292Z"/>
<path id="font_2_1" d="M.44400025 .24998474C.44400025 .35688783 .35499574 .44381715 .25 .44381715 .14199829 .44381715 .054992677 .35488893 .054992677 .24998474 .054992677 .14407349 .14199829 .056137086 .25 .056137086 .35499574 .056137086 .44400025 .14308167 .44400025 .24998474Z"/>
<path id="font_3_1" d="M.33099366-.2400055C.33099366-.23701477 .33099366-.23500061 .31399537-.21800232 .18899536-.0920105 .15699768 .09700012 .15699768 .25 .15699768 .42399598 .19499207 .59799197 .31799317 .72299197 .33099366 .73498538 .33099366 .7369995 .33099366 .73999026 .33099366 .746994 .32699586 .75 .32099916 .75 .31098939 .75 .22099304 .6819916 .1619873 .5549927 .11099243 .44499208 .09899902 .33399964 .09899902 .25 .09899902 .17199707 .10998535 .050994874 .16499329-.06201172 .22499085-.18501282 .31098939-.25 .32099916-.25 .32699586-.25 .33099366-.24700928 .33099366-.2400055Z"/>
<path id="font_3_3" d="M.45999146 .31976319C.45999146 .39982606 .45498658 .47988893 .41999818 .5539398 .37399293 .65000918 .2919922 .6660156 .25 .6660156 .18998719 .6660156 .116989139 .64001467 .07598877 .54693606 .04399109 .47789 .038986207 .39982606 .038986207 .31976319 .038986207 .24472046 .042999269 .15464783 .083999637 .07859802 .1269989-.0024719239 .19999695-.022460938 .24899292-.022460938 .30299378-.022460938 .3789978-.0014648438 .4229889 .09359741 .45498658 .16265869 .45999146 .2407074 .45999146 .31976319M.24899292-.00047302247C.20999146-.00047302247 .15098572 .024551392 .1329956 .12062073 .12199402 .18066406 .12199402 .2727356 .12199402 .3317871 .12199402 .39582826 .12199402 .46188355 .12998963 .5159149 .14898682 .63500979 .22399903 .64401248 .24899292 .64401248 .28199769 .64401248 .34799195 .6259918 .36698915 .52693179 .3769989 .47088624 .3769989 .39482118 .3769989 .3317871 .3769989 .25672914 .3769989 .18867493 .3659973 .12461853 .35099793 .029556275 .2939911-.00047302247 .24899292-.00047302247Z"/>
<path id="font_1_1" d="M.20298767 .0009918213C.20298767 .066986087 .17799378 .10598755 .13899231 .10598755 .10598755 .10598755 .085998538 .08099365 .085998538 .052993776 .085998538 .025985718 .10598755 0 .13899231 0 .15098572 0 .1639862 .0039978029 .17399597 .0129852299 .1769867 .01499939 .17799378 .015991211 .1789856 .015991211 .17999268 .015991211 .18099976 .01499939 .18099976 .0009918213 .18099976-.07316589 .1459961-.13328552 .11299133-.16635132 .101989749-.17736817 .101989749-.17936707 .101989749-.18237305 .101989749-.18936157 .10699463-.19335938 .11199951-.19335938 .12298584-.19335938 .20298767-.116256717 .20298767 .0009918213Z"/>
<path id="font_3_2" d="M.2889862 .25C.2889862 .32798768 .27799989 .44898988 .22299195 .56199648 .16299439 .68499758 .07699585 .75 .066986087 .75 .06098938 .75 .056991579 .74598696 .056991579 .73999026 .056991579 .7369995 .056991579 .73498538 .07598877 .71699526 .17399597 .6179962 .23098755 .45899964 .23098755 .25 .23098755 .07899475 .19400025-.09700012 .069992069-.2230072 .056991579-.23500061 .056991579-.23701477 .056991579-.2400055 .056991579-.2460022 .06098938-.25 .066986087-.25 .07699585-.25 .16699219-.18200684 .22599793-.055007936 .2769928 .054992677 .2889862 .16600037 .2889862 .25Z"/>
<path id="font_3_5" d="M.1269989 .07699585 .23298645 .18003845C.3889923 .31811524 .44898988 .3721466 .44898988 .47216798 .44898988 .5860901 .35899354 .6660156 .23699951 .6660156 .12399292 .6660156 .049987794 .57411196 .049987794 .48516847 .049987794 .4291687 .099990848 .4291687 .102996829 .4291687 .11999512 .4291687 .15499878 .44117738 .15499878 .48217774 .15499878 .5081787 .13699341 .5341797 .101989749 .5341797 .09399414 .5341797 .09199524 .5341797 .08898926 .5331726 .11199951 .59806826 .1659851 .63500979 .22399903 .63500979 .31498719 .63500979 .35798646 .5541382 .35798646 .47216798 .35798646 .39215089 .30799867 .31311036 .25299073 .25108338L.06098938 .036987306C.049987794 .025985718 .049987794 .023986817 .049987794 0H.42099L.44898988 .17404175H.42399598C.4189911 .14402771 .4119873 .1000061 .4019928 .084991458 .394989 .07699585 .32899476 .07699585 .30699159 .07699585H.1269989Z"/>
<path id="font_4_85" d="M.33099366-.2400055C.33099366-.23701477 .33099366-.23500061 .31399537-.21800232 .18899536-.0920105 .15699768 .09700012 .15699768 .25 .15699768 .42399598 .19499207 .59799197 .31799317 .72299197 .33099366 .7350006 .33099366 .7369995 .33099366 .73999026 .33099366 .746994 .32699586 .75 .32099916 .75 .31098939 .75 .22099304 .6819916 .1619873 .5549927 .11099243 .44499208 .09899902 .33399964 .09899902 .25 .09899902 .17199707 .10998535 .050994874 .16499329-.06201172 .22499085-.18501282 .31098939-.25 .32099916-.25 .32699586-.25 .33099366-.24700928 .33099366-.2400055Z"/>
<path id="font_3_4" d="M.2939911 .64004519C.2939911 .66400149 .2939911 .6660156 .2709961 .6660156 .20899964 .60227969 .12098694 .60227969 .08898926 .60227969V.57128909C.10899353 .57128909 .16799927 .57128909 .21998596 .5972748V.07902527C.21998596 .042999269 .21699524 .0309906 .1269989 .0309906H.09498596V0C.12998963 .0029907227 .21699524 .0029907227 .25698854 .0029907227 .29699708 .0029907227 .38398744 .0029907227 .4189911 0V.0309906H.3869934C.29699708 .0309906 .2939911 .041992189 .2939911 .07902527V.64004519Z"/>
</defs>
<path transform="matrix(1.00006,0,0,-1,25.877709,74.427)" stroke-width=".19925" stroke-linecap="butt" stroke-miterlimit="10" stroke-linejoin="miter" fill="none" stroke="#929292" d="M0 0H56.69362M0 28.3468H56.69362M0 56.68365H56.69362M0 0V56.69362M28.3468 0V56.69362M56.68365 0V56.69362M56.69362 56.69362"/>
<path transform="matrix(1.00006,0,0,-1,25.877709,74.427)" stroke-width="1.19553" stroke-linecap="butt" stroke-miterlimit="10" stroke-linejoin="miter" fill="none" stroke="#000000" d="M0 0H61.40646"/>
<path transform="matrix(1.00006,0,0,-1,87.28785,74.427)" stroke-width=".9564" stroke-linecap="round" stroke-linejoin="round" fill="none" stroke="#000000" d="M-1.91284 2.55046C-1.75343 1.59402 0 .15938 .4782 0 0-.15938-1.75343-1.59402-1.91284-2.55046"/>
<use data-text="x" xlink:href="#font_1_2" transform="matrix(9.963197,0,0,-9.9626,92.16268,76.57201)"/>
<path transform="matrix(1.00006,0,0,-1,25.877709,74.427)" stroke-width="1.19553" stroke-linecap="butt" stroke-miterlimit="10" stroke-linejoin="miter" fill="none" stroke="#000000" d="M0 0V61.40646"/>
<path transform="matrix(0,-1,-1.00006,-0,25.877709,13.020542)" stroke-width=".9564" stroke-linecap="round" stroke-linejoin="round" fill="none" stroke="#000000" d="M-1.91284 2.55046C-1.75343 1.59402 0 .15938 .4782 0 0-.15938-1.75343-1.59402-1.91284-2.55046"/>
<use data-text="y" xlink:href="#font_1_3" transform="matrix(9.963197,0,0,-9.9626,23.256554,6.2089998)"/>
<path transform="matrix(1.00006,0,0,-1,25.877709,74.427)" stroke-width=".79701" stroke-linecap="butt" stroke-miterlimit="10" stroke-linejoin="miter" fill="none" stroke="#0000ff" d="M0 0C0 0 .08186 .16354 .11331 .2262 .14474 .28885 .1952 .38914 .22664 .45155 .25807 .51396 .30852 .61388 .33995 .67604 .3714 .7382 .42184 .83778 .45328 .89966 .48473 .96153 .53517 1.06036 .56662 1.122 .59805 1.18362 .6485 1.28249 .67993 1.34387 .71136 1.40526 .76183 1.50339 .79326 1.56447 .8247 1.62555 .87514 1.72328 .90657 1.78421 .93802 1.84512 .98846 1.94284 1.01991 2.00351 1.05135 2.06418 1.1018 2.16113 1.13324 2.2215 1.16467 2.28188 1.21512 2.37851 1.24655 2.43863 1.278 2.49876 1.32845 2.59508 1.35988 2.65489 1.39133 2.71472 1.44177 2.81027 1.47322 2.86987 1.50465 2.92946 1.5551 3.02501 1.58653 3.08441 1.61797 3.14383 1.66843 3.23898 1.69986 3.2981 1.7313 3.3572 1.78174 3.4516 1.81317 3.51047 1.84462 3.56932 1.89507 3.66379 1.92651 3.72241 1.95795 3.78102 2.0084 3.87473 2.03984 3.93304 2.07127 3.99138 2.12172 4.08469 2.15315 4.14284 2.18459 4.20099 2.23505 4.29428 2.26648 4.35219 2.29793 4.41008 2.34836 4.50264 2.3798 4.56024 2.41124 4.61784 2.4617 4.71011 2.49313 4.76743 2.52457 4.82474 2.57503 4.91623 2.60646 4.9733 2.6379 5.03038 2.68834 5.12187 2.71977 5.17876 2.75122 5.23564 2.80167 5.32677 2.83311 5.38335 2.86455 5.43993 2.91501 5.5303 2.94644 5.58664 2.97787 5.64297 3.02832 5.73338 3.05975 5.7895 3.09119 5.84561 3.14165 5.9352 3.17308 5.99106 3.20453 6.04694 3.25496 6.13658 3.2864 6.1922 3.31784 6.24782 3.3683 6.33672 3.39973 6.39203 3.43117 6.44734 3.48163 6.5359 3.51306 6.59099 3.5445 6.64609 3.59494 6.73425 3.62637 6.78911 3.65782 6.84395 3.70827 6.93173 3.73972 6.98633 3.77115 7.04094 3.82161 7.12842 3.85304 7.18271 3.88448 7.23701 3.93492 7.32373 3.96635 7.37779 3.99779 7.43184 4.04825 7.51854 4.07968 7.57243 4.11113 7.62633 4.16156 7.71263 4.19301 7.7662 4.22444 7.8198 4.2749 7.9054 4.30634 7.95868 4.33777 8.01196 4.38823 8.0972 4.41966 8.1503 4.4511 8.2034 4.50154 8.28864 4.53297 8.34149 4.56442 8.39435 4.61487 8.47879 4.64632 8.53136 4.67775 8.58392 4.7282 8.66806 4.75963 8.72038 4.79106 8.7727 4.84152 8.85645 4.87296 8.90854 4.90439 8.96062 4.95485 9.04405 4.98628 9.09583 5.01773 9.1476 5.06816 9.23027 5.09961 9.28181 5.13104 9.33337 5.18149 9.416 5.21294 9.46738 5.24437 9.51874 5.29483 9.601 5.32626 9.65207 5.3577 9.70313 5.40814 9.78464 5.43958 9.83546 5.47102 9.88628 5.52147 9.96783 5.55292 10.01843 5.58435 10.06902 5.63478 10.14981 5.66623 10.20009 5.69766 10.25038 5.74812 10.33084 5.77956 10.38089 5.81099 10.43094 5.86145 10.51103 5.89288 10.56084 5.92433 10.61064 5.97476 10.69034 6.00621 10.7399 6.03764 10.78946 6.08809 10.86879 6.11954 10.91812 6.15097 10.96744 6.20143 11.04636 6.23286 11.09544 6.2643 11.14453 6.31474 11.22314 6.34618 11.27193 6.37762 11.32071 6.42807 11.39856 6.4595 11.4471 6.49095 11.49564 6.54138 11.57353 6.57283 11.62184 6.60426 11.67015 6.65472 11.74722 6.68616 11.7953 6.71759 11.84337 6.76805 11.92049 6.79948 11.9683 6.83093 12.01614 6.88136 12.09251 6.9128 12.14003 6.94424 12.18756 6.99469 12.2636 7.02614 12.31087 7.05757 12.35815 7.10802 12.4338 7.13945 12.48087 7.17088 12.52791 7.22134 12.60318 7.25278 12.64998 7.28423 12.6968 7.33467 12.7717 7.3661 12.81825 7.39755 12.86482 7.44798 12.93933 7.47943 12.98564 7.51086 13.03197 7.56133 13.10616 7.59276 13.15216 7.62419 13.19818 7.67465 13.2716 7.70609 13.3174 7.73752 13.36319 7.78796 13.43666 7.8194 13.48221 7.85085 13.52774 7.90129 13.60046 7.93274 13.6457 7.96417 13.69093 8.01462 13.76328 8.04605 13.80833 8.07748 13.8534 8.12794 13.92572 8.15938 13.97054 8.19081 14.01535 8.24127 14.0869 8.2727 14.13144 8.30415 14.17596 8.35458 14.2472 8.38603 14.29147 8.41747 14.33577 8.46793 14.4066 8.49936 14.45064 8.53079 14.49469 8.58125 14.56522 8.61269 14.60896 8.64412 14.6527 8.69456 14.72246 8.726 14.76596 8.75745 14.80946 8.80789 14.87921 8.83934 14.92255 8.87077 14.96587 8.92122 15.03523 8.95265 15.07826 8.98409 15.12128 9.03455 15.18996 9.06598 15.23268 9.09741 15.27539 9.14787 15.34369 9.1793 15.38622 9.21075 15.42876 9.26118 15.49704 9.29263 15.53935 9.32407 15.58165 9.37453 15.64917 9.40596 15.69118 9.4374 15.73317 9.48784 15.80037 9.51927 15.84213 9.5507 15.88388 9.60117 15.9507 9.6326 15.99222 9.66405 16.03374 9.7145 16.10016 9.74594 16.14143 9.77737 16.18271 9.82782 16.24881 9.85925 16.2898 9.89069 16.33078 9.94115 16.39612 9.97258 16.43686 10.00401 16.4776 10.05447 16.543 10.0859 16.5835 10.11736 16.624 10.16779 16.68857 10.19923 16.72882 10.23067 16.76909 10.28113 16.8337 10.31256 16.87372 10.344 16.91374 10.39444 16.9776 10.42587 17.01733 10.4573 17.05705 10.50777 17.12057 10.5392 17.16006 10.57065 17.19954 10.6211 17.26271 10.65254 17.30194 10.68398 17.34117 10.73442 17.40393 10.76585 17.44295 10.79729 17.48195 10.84775 17.54433 10.87918 17.58308 10.91061 17.62186 10.96107 17.68385 10.99251 17.72237 11.02396 17.7609 11.07439 17.82251 11.10583 17.86078 11.13727 17.89906 11.18771 17.96036 11.21916 17.99832 11.2506 18.0363 11.30104 18.09682 11.33247 18.13457 11.3639 18.17232 11.41437 18.23288 11.4458 18.27039 11.47725 18.30789 11.5277 18.3677 11.55914 18.4049 11.59058 18.44211 11.641 18.50154 11.67245 18.53856 11.70389 18.57558 11.75435 18.63501 11.78578 18.6718 11.81721 18.70859 11.86766 18.76723 11.8991 18.80371 11.93054 18.8402 11.98099 18.89853 12.01244 18.93477 12.04387 18.97101 12.09431 19.02902 12.12576 19.06496 12.1572 19.10089 12.20764 19.15816 12.23907 19.19386 12.27051 19.22955 12.32097 19.28679 12.3524 19.32231 12.38385 19.35785 12.4343 19.4147 12.46573 19.44992 12.49718 19.48514 12.5476 19.54124 12.57906 19.57622 12.61049 19.61119 12.66095 19.66736 12.69238 19.70209 12.72382 19.73683 12.77426 19.7922 12.8057 19.82666 12.83714 19.8611 12.88759 19.91617 12.91902 19.95036 12.95047 19.98457 13.00092 20.03925 13.03236 20.0732 13.0638 20.10716 13.11424 20.16147 13.14568 20.19518 13.17711 20.2289 13.22757 20.28282 13.259 20.3163 13.29045 20.34978 13.3409 20.40329 13.37233 20.43654 13.40378 20.46979 13.45421 20.52292 13.48566 20.55592 13.51709 20.58893 13.56755 20.64174 13.59898 20.67444 13.63042 20.70714 13.68086 20.75919 13.7123 20.79164 13.74373 20.8241 13.79419 20.87622 13.82562 20.90845 13.85707 20.94067 13.90752 20.992 13.93896 21.02393 13.9704 21.05586 14.02084 21.10687 14.05228 21.13855 14.08371 21.17024 14.13417 21.22081 14.1656 21.25232 14.19704 21.28381 14.24748 21.33437 14.27892 21.36563 14.31036 21.39688 14.36081 21.44675 14.39226 21.47765 14.42369 21.50856 14.47415 21.55772 14.50558 21.58838 14.53702 21.61905 14.58746 21.66821 14.6189 21.69868 14.65033 21.72917 14.70079 21.77788 14.73222 21.8081 14.76367 21.83835 14.81412 21.88675 14.84557 21.91669 14.877 21.94662 14.92744 21.99425 14.95888 22.02396 14.99031 22.05365 15.04077 22.10133 15.0722 22.13078 15.10364 22.16025 15.15408 22.20718 15.18552 22.23634 15.21696 22.26549 15.26741 22.31209 15.29886 22.341 15.33029 22.36992 15.38075 22.41614 15.41219 22.44481 15.44362 22.4735 15.49406 22.51932 15.5255 22.54776 15.55693 22.5762 15.60739 22.62163 15.63882 22.64983 15.67027 22.67802 15.72072 22.72308 15.75217 22.75104 15.7836 22.779 15.83405 22.82368 15.86548 22.8514 15.89691 22.8791 15.94737 22.92346 15.9788 22.9509 16.01024 22.97832 16.06068 23.02188 16.09212 23.04907 16.12357 23.07625 16.17401 23.11989 16.20546 23.14684 16.2369 23.17377 16.28735 23.21664 16.31879 23.24329 16.35022 23.26991 16.40067 23.31242 16.4321 23.33888 16.46353 23.36533 16.51399 23.4078 16.54543 23.43402 16.57687 23.46025 16.6273 23.50197 16.65875 23.52788 16.69019 23.5538 16.74065 23.59521 16.77208 23.62088 16.80351 23.64656 16.85397 23.68764 16.8854 23.71301 16.91684 23.73839 16.96729 23.7787 16.99872 23.80385 17.03017 23.82898 17.08061 23.8693 17.11206 23.89426 17.1435 23.9192 17.19394 23.95914 17.22539 23.9838 17.25682 24.00845 17.30727 24.0476 17.3387 24.07202 17.37013 24.09644 17.4206 24.13565 17.45203 24.15982 17.48347 24.184 17.5339 24.22244 17.56535 24.24632 17.59679 24.2702 17.64723 24.30827 17.67868 24.33197 17.71011 24.35568 17.76057 24.39372 17.792 24.41718 17.82344 24.44064 17.87389 24.47795 17.90532 24.5011 17.93677 24.52425 17.98721 24.56128 18.01866 24.58415 18.0501 24.60701 18.10054 24.64328 18.13199 24.66591 18.16342 24.68852 18.21387 24.72478 18.2453 24.74722 18.27673 24.76965 18.3272 24.80553 18.35863 24.82767 18.39008 24.8498 18.4405 24.88493 18.47194 24.90683 18.50339 24.92871 18.55383 24.96388 18.58528 24.98553 18.61671 25.0072 18.66718 25.04155 18.69861 25.06296 18.73004 25.08438 18.78049 25.11879 18.81192 25.13995 18.84337 25.16113 18.89381 25.19478 18.92525 25.21565 18.9567 25.23653 19.00713 25.26984 19.03857 25.29048 19.07 25.31113 19.12047 25.34404 19.1519 25.36444 19.18333 25.38484 19.2338 25.41737 19.26523 25.43755 19.29668 25.4577 19.3471 25.48993 19.37854 25.50978 19.40999 25.52963 19.46043 25.5611 19.49188 25.5807 19.52332 25.60033 19.57378 25.63177 19.60521 25.65121 19.63664 25.67065 19.68709 25.70172 19.71852 25.72086 19.74995 25.73999 19.80042 25.77036 19.83185 25.78918 19.8633 25.80803 19.91373 25.83801 19.94518 25.85667 19.97661 25.87532 20.02707 25.9053 20.0585 25.9237 20.08994 25.94212 20.1404 25.97134 20.17183 25.98946 20.20326 26.00758 20.25371 26.03647 20.28514 26.05434 20.31659 26.07222 20.36703 26.10072 20.39848 26.11836 20.42992 26.13599 20.48038 26.16412 20.51181 26.1815 20.54324 26.1989 20.59369 26.22668 20.62512 26.24379 20.65656 26.2609 20.70702 26.28792 20.73845 26.30478 20.7699 26.32164 20.82033 26.34871 20.85178 26.36533 20.88321 26.38194 20.93367 26.40823 20.9651 26.4246 20.99654 26.44098 21.047 26.46729 21.07843 26.48341 21.10986 26.49954 21.16031 26.5251 21.19174 26.54094 21.22319 26.55678 21.27364 26.58202 21.30508 26.59761 21.33652 26.61322 21.38696 26.63806 21.4184 26.65341 21.44983 26.66876 21.50029 26.69324 21.53172 26.70834 21.56316 26.72346 21.61362 26.74753 21.64505 26.7624 21.6765 26.77728 21.72693 26.80098 21.75838 26.81561 21.78981 26.83025 21.84027 26.85356 21.8717 26.86795 21.90314 26.88235 21.9536 26.90532 21.98503 26.91942 22.01646 26.9335 22.06691 26.95575 22.09834 26.96959 22.12979 26.98344 22.18024 27.0057 22.21169 27.01933 22.24312 27.03296 22.29356 27.05447 22.325 27.06778 22.35643 27.0811 22.40689 27.1023 22.43832 27.11537 22.46976 27.12843 22.52022 27.14917 22.55165 27.16206 22.5831 27.17496 22.63353 27.1957 22.66498 27.20836 22.69641 27.22102 22.74687 27.24104 22.7783 27.25334 22.80974 27.26564 22.86018 27.28497 22.89162 27.29703 22.92305 27.30908 22.97351 27.3284 23.00494 27.34029 23.03639 27.35216 23.08684 27.3711 23.11829 27.38266 23.14972 27.39423 23.20016 27.41241 23.2316 27.42375 23.26303 27.43509 23.31349 27.45332 23.34492 27.46442 23.37636 27.47551 23.42682 27.49292 23.45825 27.50377 23.4897 27.51463 23.54013 27.5321 23.57158 27.54271 23.60301 27.55331 23.65346 27.57 23.6849 27.58034 23.71634 27.59065 23.76678 27.60703 23.79822 27.61711 23.82965 27.62718 23.88011 27.64316 23.91154 27.653 23.943 27.66284 23.99344 27.67845 24.02489 27.68803 24.05632 27.69763 24.10675 27.71286 24.1382 27.72221 24.16963 27.73157 24.2201 27.74646 24.25153 27.75552 24.28296 27.76459 24.33342 27.7787 24.36485 27.78752 24.3963 27.79634 24.44673 27.81052 24.47818 27.81909 24.50961 27.82767 24.56006 27.84105 24.5915 27.84938 24.62294 27.85771 24.67339 27.87114 24.70482 27.87923 24.73625 27.88731 24.78671 27.89996 24.81815 27.90778 24.8496 27.91557 24.90004 27.9279 24.93147 27.93546 24.96292 27.94301 25.01335 27.95496 25.0448 27.96227 25.07623 27.96957 25.1267 27.98116 25.15813 27.98822 25.18956 27.99529 25.24 28.00645 25.27144 28.0133 25.30289 28.02014 25.35333 28.03093 25.38477 28.03754 25.41621 28.04413 25.46666 28.0546 25.49811 28.06088 25.52954 28.06718 25.57999 28.07689 25.61142 28.08295 25.64285 28.08899 25.69331 28.09877 25.72475 28.10457 25.7562 28.11038 25.80664 28.11932 25.83807 28.1249 25.86952 28.13048 25.91995 28.13947 25.9514 28.1448 25.98283 28.15013 26.0333 28.15837 26.06473 28.1634 26.09616 28.16844 26.1466 28.17635 26.17804 28.18114 26.20947 28.18591 26.25993 28.19345 26.29137 28.198 26.32281 28.20256 26.37326 28.2097 26.40471 28.21402 26.43614 28.21832 26.48659 28.22513 26.51802 28.22914 26.54945 28.23315 26.59991 28.23921 26.63135 28.24298 26.66278 28.24677 26.71324 28.2528 26.74467 28.2564 26.77612 28.25998 26.82655 28.26564 26.858 28.26894 26.88943 28.27223 26.9399 28.27713 26.97133 28.28018 27.00276 28.28325 27.0532 28.28818 27.08464 28.291 27.11607 28.29381 27.16653 28.298 27.19797 28.3005 27.22942 28.30302 27.27986 28.3069 27.31131 28.30916 27.34274 28.31143 27.39319 28.31491 27.42462 28.31694 27.45605 28.31898 27.50652 28.32208 27.53795 28.32388 27.56938 28.32567 27.61983 28.32838 27.65126 28.32993 27.68271 28.33148 27.73315 28.3338 27.7646 28.33511 27.79604 28.33643 27.8465 28.33842 27.87793 28.33945 27.90936 28.34047 27.95981 28.34169 27.99124 28.34247 28.02267 28.34325 28.07314 28.34454 28.10457 28.34506 28.13602 28.3456 28.18646 28.34613 28.21791 28.34636 28.24934 28.34659 28.29979 28.34674 28.33122 28.3468 28.36266 28.34686 28.41312 28.34697 28.44455 28.3468 28.47598 28.34663 28.52643 28.34596 28.55786 28.34549 28.58931 28.34502 28.63976 28.34406 28.6712 28.34334 28.70264 28.34262 28.7531 28.34126 28.78453 28.34032 28.81596 28.33936 28.86641 28.33766 28.89784 28.33643 28.92928 28.33517 28.97974 28.3327 29.01117 28.33122 29.04262 28.32973 29.09306 28.32727 29.12451 28.32559 29.15594 28.32393 29.20639 28.32109 29.23782 28.31912 29.26926 28.31714 29.31972 28.31354 29.35115 28.31133 29.38258 28.3091 29.43303 28.30556 29.46446 28.30312 29.49591 28.30066 29.54636 28.29634 29.5778 28.2936 29.60924 28.29085 29.65968 28.28621 29.69113 28.28322 29.72256 28.28021 29.77301 28.2752 29.80444 28.27196 29.83588 28.26872 29.88634 28.2633 29.91777 28.25984 29.94922 28.25638 29.99965 28.2506 30.0311 28.24689 30.06253 28.24316 30.11298 28.23698 30.14442 28.23303 30.17586 28.22908 30.22632 28.22258 30.25775 28.21832 30.28918 28.21408 30.33963 28.20682 30.37106 28.20232 30.40251 28.19783 30.45296 28.19061 30.4844 28.18588 30.51584 28.18117 30.56628 28.17314 30.59773 28.16817 30.62917 28.1632 30.67961 28.15521 30.71104 28.15 30.74248 28.14479 30.79294 28.13605 30.82437 28.13052 30.85582 28.125 30.90625 28.11595 30.93768 28.1102 30.96913 28.10445 31.01958 28.095 31.05103 28.089 31.08246 28.08302 31.13292 28.07318 31.16435 28.06696 31.19579 28.06071 31.24623 28.0505 31.27766 28.04402 31.30911 28.03755 31.35956 28.02701 31.39099 28.02023 31.42244 28.01346 31.47289 28.00214 31.50433 27.99513 31.53577 27.98813 31.58621 27.97688 31.61765 27.96962 31.64908 27.96237 31.69954 27.9503 31.73097 27.94281 31.76242 27.93532 31.81285 27.9233 31.84428 27.91556 31.87573 27.90782 31.92618 27.89505 31.95763 27.88701 31.98906 27.87897 32.03952 27.86586 32.07095 27.85759 32.10239 27.84932 32.15283 27.83583 32.18427 27.82732 32.2157 27.8188 32.26616 27.80493 32.29759 27.79617 32.32904 27.78741 32.37947 27.77318 32.41092 27.76418 32.44235 27.75517 32.49281 27.74052 32.52425 27.7313 32.55568 27.72206 32.60614 27.70703 32.63757 27.69756 32.669 27.68808 32.71945 27.67273 32.75089 27.66296 32.78233 27.65318 32.83278 27.63707 32.86423 27.62704 32.89566 27.61703 32.94612 27.60098 32.97755 27.59071 33.00899 27.58046 33.05943 27.56364 33.09087 27.55309 33.1223 27.54254 33.17276 27.52538 33.2042 27.51459 33.23564 27.50378 33.28607 27.48627 33.31752 27.47522 33.34895 27.46419 33.39941 27.44629 33.43085 27.435 33.46228 27.42372 33.51274 27.40543 33.54417 27.3939 33.5756 27.3824 33.62605 27.36371 33.65749 27.35196 33.68893 27.34021 33.73938 27.32112 33.77083 27.30913 33.80226 27.29713 33.85272 27.27776 33.88416 27.26546 33.91559 27.25316 33.96603 27.23302 33.99747 27.22047 34.0289 27.20793 34.07936 27.18782 34.1108 27.17505 34.14224 27.16228 34.19267 27.14134 34.22412 27.12833 34.25555 27.11533 34.30602 27.09445 34.33745 27.08119 34.36888 27.06793 34.41934 27.04631 34.45078 27.03275 34.48221 27.01918 34.53265 26.99722 34.56409 26.98343 34.59554 26.96964 34.64598 26.9473 34.67743 26.93326 34.70886 26.91924 34.75931 26.8965 34.79074 26.88223 34.82217 26.86795 34.87263 26.8449 34.90407 26.8303 34.9355 26.81573 34.98596 26.79193 35.0174 26.7771 35.04884 26.76228 35.09927 26.73846 35.13072 26.72348 35.16216 26.70848 35.21262 26.68427 35.24405 26.66898 35.27548 26.65369 35.32594 26.62878 35.35738 26.61319 35.38881 26.59758 35.43925 26.57231 35.47069 26.55652 35.50214 26.54074 35.55258 26.51546 35.58403 26.49942 35.61546 26.4834 35.6659 26.45735 35.69734 26.44104 35.72878 26.42473 35.77924 26.39833 35.81067 26.38177 35.8421 26.36522 35.89256 26.33846 35.924 26.32166 35.95544 26.30486 36.00587 26.27771 36.03732 26.26067 36.06876 26.24362 36.1192 26.21614 36.15065 26.1988 36.18208 26.18147 36.23254 26.15323 36.26398 26.13567 36.29541 26.11809 36.34586 26.0899 36.37729 26.07208 36.40874 26.05426 36.45918 26.02527 36.49063 26.0072 36.52206 25.98914 36.5725 25.96019 36.60394 25.94188 36.63538 25.92358 36.68584 25.89388 36.71727 25.87527 36.7487 25.85669 36.79916 25.82663 36.8306 25.8078 36.86205 25.78896 36.91248 25.75853 36.94391 25.73946 36.97536 25.72037 37.0258 25.68958 37.05725 25.67026 37.08868 25.65092 37.13913 25.61975 37.17056 25.60019 37.202 25.58063 37.25246 25.54903 37.28389 25.52924 37.31534 25.50945 37.36578 25.47748 37.39722 25.45744 37.42867 25.43741 37.4791 25.4051 37.51054 25.38477 37.54198 25.36443 37.59244 25.3314 37.62387 25.31082 37.6553 25.29024 37.70576 25.25723 37.7372 25.23642 37.76865 25.2156 37.81908 25.18184 37.85051 25.16072 37.88196 25.13962 37.9324 25.10551 37.96385 25.08415 37.99529 25.06279 38.04573 25.02827 38.07716 25.00673 38.1086 24.98518 38.15906 24.95065 38.19049 24.92888 38.22192 24.9071 38.27238 24.87186 38.30382 24.84973 38.33527 24.82759 38.3857 24.79166 38.41714 24.76927 38.44858 24.7469 38.49904 24.71094 38.53047 24.68839 38.5619 24.66583 38.61237 24.62944 38.6438 24.60664 38.67523 24.58385 38.72568 24.54712 38.75711 24.52402 38.78856 24.50093 38.839 24.4635 38.87045 24.44011 38.90189 24.41672 38.95233 24.37892 38.98376 24.35535 39.0152 24.33176 39.06566 24.29395 39.09709 24.27011 39.12852 24.24629 39.17899 24.20775 39.21042 24.18362 39.24187 24.1595 39.2923 24.12059 39.32375 24.09624 39.35518 24.07188 39.40564 24.03261 39.43707 24.00801 39.4685 23.98341 39.51895 23.94374 39.55038 23.9189 39.58182 23.89407 39.63228 23.85402 39.66371 23.82895 39.69516 23.80386 39.7456 23.76349 39.77705 23.73811 39.80849 23.71274 39.85893 23.67159 39.89037 23.64597 39.9218 23.62036 39.97226 23.57927 40.0037 23.5534 40.03513 23.52754 40.08559 23.48566 40.11702 23.45955 40.14847 23.43344 40.1989 23.3916 40.23035 23.36525 40.26178 23.33891 40.31224 23.2963 40.34367 23.26965 40.3751 23.24303 40.42555 23.20009 40.45699 23.1732 40.48842 23.14633 40.53888 23.103 40.57031 23.07588 40.60176 23.04877 40.6522 23.00507 40.68365 22.9777 40.71509 22.95035 40.76553 22.90625 40.79697 22.87865 40.8284 22.85104 40.87886 22.80656 40.9103 22.77873 40.94173 22.7509 40.99219 22.7061 41.02362 22.67795 41.05507 22.64981 41.1055 22.60425 41.13695 22.57587 41.16838 22.54749 41.21884 22.50198 41.25027 22.47337 41.28171 22.44475 41.33215 22.3984 41.36359 22.36955 41.39502 22.3407 41.44548 22.2944 41.47691 22.2653 41.50836 22.23622 41.5588 22.18916 41.59026 22.15976 41.62169 22.13037 41.67213 22.08301 41.70357 22.05336 41.735 22.02373 41.78546 21.97597 41.8169 21.9461 41.84833 21.91623 41.89877 21.86809 41.9302 21.83797 41.96165 21.80785 42.0121 21.75932 42.04355 21.72897 42.07498 21.69861 42.12543 21.64977 42.15688 21.61911 42.18831 21.58844 42.23875 21.53883 42.27019 21.50793 42.30162 21.47704 42.35208 21.42747 42.38351 21.39633 42.41496 21.3652 42.46541 21.31482 42.49686 21.28345 42.52829 21.25208 42.57872 21.20175 42.61017 21.17014 42.6416 21.1385 42.69206 21.08743 42.7235 21.05551 42.75493 21.02359 42.80537 20.97218 42.8368 20.94002 42.86826 20.90785 42.9187 20.85606 42.95013 20.82367 42.98158 20.79126 43.03203 20.73907 43.06348 20.70644 43.09491 20.6738 43.14536 20.62125 43.17679 20.58836 43.20822 20.55548 43.25868 20.50253 43.29012 20.4694 43.32156 20.43628 43.37201 20.38301 43.40344 20.34961 43.43489 20.3162 43.48532 20.26215 43.51677 20.22849 43.5482 20.19484 43.59866 20.14085 43.6301 20.10695 43.66153 20.07304 43.71198 20.01825 43.74341 19.9841 43.77486 19.94997 43.8253 19.89522 43.85674 19.86082 43.88818 19.82645 43.93863 19.77094 43.97008 19.73627 44.00151 19.70158 44.05196 19.64574 44.08339 19.61082 44.11482 19.5759 44.16528 19.51968 44.19672 19.48453 44.22815 19.44936 44.2786 19.39276 44.31003 19.35736 44.34148 19.32195 44.39192 19.26495 44.42337 19.22932 44.4548 19.1937 44.50526 19.1363 44.5367 19.10043 44.56813 19.06454 44.61858 19.00684 44.65001 18.97066 44.68144 18.93448 44.7319 18.87604 44.76334 18.8396 44.79478 18.80318 44.84523 18.74478 44.87668 18.70813 44.90811 18.67148 44.95856 18.61229 44.98999 18.57533 45.02142 18.53838 45.07188 18.47882 45.10332 18.44168 45.13475 18.40454 45.1852 18.34497 45.21663 18.30759 45.24808 18.2702 45.29852 18.2099 45.32997 18.17221 45.3614 18.13452 45.41187 18.07388 45.4433 18.03595 45.47473 17.99803 45.52518 17.93706 45.55661 17.89883 45.58804 17.86061 45.6385 17.79889 45.66994 17.76044 45.70139 17.72197 45.75182 17.66022 45.78326 17.62158 45.8147 17.58293 45.86516 17.52081 45.89659 17.48187 45.92802 17.44293 45.97849 17.38004 46.00992 17.34087 46.04135 17.30168 46.0918 17.23885 46.12323 17.19942 46.15468 17.16 46.20512 17.0964 46.23657 17.05669 46.268 17.01697 46.31847 16.95305 46.3499 16.91309 46.38133 16.87312 46.43178 16.80876 46.46321 16.76862 46.49464 16.72845 46.5451 16.6641 46.57654 16.62372 46.60799 16.58334 46.65842 16.51826 46.68987 16.47752 46.7213 16.43678 46.77176 16.371 46.80319 16.33002 46.83463 16.28903 46.88509 16.22327 46.91652 16.1821 46.94795 16.14093 46.9984 16.07477 47.02983 16.03331 47.06128 15.99185 47.11172 15.92491 47.14317 15.88322 47.1746 15.84152 47.22507 15.77463 47.2565 15.73268 47.28793 15.69075 47.33838 15.62305 47.36981 15.58087 47.40125 15.53868 47.4517 15.47104 47.48314 15.42862 47.51459 15.38618 47.56502 15.31778 47.59647 15.27505 47.6279 15.23235 47.67836 15.16362 47.7098 15.12065 47.74123 15.0777 47.79169 15.00858 47.82312 14.96536 47.85455 14.92216 47.905 14.85268 47.93643 14.80923 47.96788 14.76578 48.01833 14.69595 48.04977 14.6522 48.0812 14.60846 48.13164 14.53787 48.16309 14.4939 48.19452 14.44992 48.24498 14.37932 48.27641 14.33516 48.30785 14.29099 48.3583 14.22002 48.38974 14.17555 48.42119 14.13109 48.47162 14.0594 48.50307 14.01465 48.5345 13.9699 48.58495 13.89783 48.6164 13.85289 48.64783 13.80795 48.69829 13.73586 48.72972 13.69067 48.76115 13.64551 48.8116 13.57266 48.84303 13.52719 48.87448 13.4817 48.92493 13.40855 48.95638 13.36282 48.98781 13.3171 49.03824 13.24356 49.06969 13.19759 49.10112 13.15163 49.15158 13.0777 49.18301 13.0315 49.21445 12.98529 49.26491 12.91103 49.29634 12.86453 49.32779 12.81802 49.37822 12.74303 49.40965 12.69627 49.4411 12.64952 49.49155 12.57457 49.523 12.52757 49.55443 12.48059 49.60489 12.4048 49.63632 12.35759 49.66776 12.31038 49.7182 12.23463 49.74963 12.18718 49.78108 12.13971 49.83153 12.06322 49.86296 12.01546 49.89441 11.96768 49.94484 11.89088 49.97629 11.84288 50.00772 11.79488 50.05818 11.71762 50.08961 11.66943 50.12105 11.62123 50.17151 11.54402 50.20294 11.49554 50.23439 11.44707 50.28482 11.36871 50.31625 11.31993 50.3477 11.27115 50.39815 11.19286 50.4296 11.14389 50.46103 11.09492 50.51147 11.0162 50.54291 10.967 50.57434 10.91779 50.6248 10.83871 50.65623 10.78922 50.68767 10.73972 50.73813 10.65988 50.76956 10.61014 50.80101 10.5604 50.85144 10.48062 50.88289 10.43063 50.91432 10.38065 50.96478 10.30013 50.99622 10.24983 51.02765 10.19955 51.07811 10.11864 51.10954 10.06818 51.14098 10.0177 51.19142 9.93677 51.22285 9.88606 51.2543 9.83537 51.30475 9.75368 51.3362 9.70267 51.36763 9.65167 51.41808 9.56973 51.44951 9.51842 51.48094 9.46712 51.5314 9.3844 51.56284 9.33286 51.59427 9.2813 51.64473 9.1986 51.67616 9.14687 51.70761 9.09515 51.75804 9.01196 51.78949 8.96 51.82092 8.90805 51.87138 8.82455 51.90282 8.7723 51.93425 8.72003 51.98471 8.63577 52.01614 8.58327 52.04758 8.53076 52.09802 8.44656 52.12946 8.39381 52.1609 8.34106 52.21135 8.2561 52.2428 8.20306 52.27423 8.15002 52.32468 8.06473 52.35611 8.01144 52.38754 7.95816 52.438 7.8725 52.46944 7.81898 52.50087 7.76546 52.55133 7.6794 52.58276 7.62563 52.61421 7.57185 52.66464 7.48541 52.69609 7.43141 52.72752 7.37743 52.77798 7.29059 52.80942 7.23634 52.84085 7.18211 52.8913 7.09496 52.92273 7.0404 52.95416 6.98587 53.00462 6.89795 53.03606 6.84317 53.0675 6.78838 53.11795 6.70052 53.1494 6.6455 53.18083 6.59045 53.23128 6.50179 53.26271 6.44653 53.29414 6.39127 53.3446 6.30263 53.37604 6.24713 53.40747 6.19162 53.45793 6.10223 53.48936 6.04643 53.52081 5.99062 53.57124 5.90091 53.60269 5.84486 53.63412 5.78882 53.68459 5.69873 53.71602 5.64246 53.74745 5.58617 53.7979 5.49568 53.82933 5.43915 53.86076 5.38263 53.91122 5.29175 53.94266 5.23499 53.9741 5.17822 54.02455 5.08698 54.056 5.02997 54.08743 4.97296 54.13786 4.8814 54.16931 4.82408 54.20074 4.76677 54.2512 4.67444 54.28264 4.6169 54.31407 4.55936 54.36453 4.46706 54.39597 4.40929 54.42741 4.3515 54.47784 4.25839 54.5093 4.20036 54.54073 4.14233 54.59117 4.04929 54.62262 3.99101 54.65405 3.93274 54.7045 3.83893 54.73593 3.78036 54.76736 3.72179 54.81783 3.62766 54.84926 3.56885 54.8807 3.51006 54.93115 3.41553 54.9626 3.35648 54.99403 3.29744 55.04446 3.20253 55.07591 3.14325 55.10735 3.08395 55.1578 2.98866 55.18924 2.92912 55.22067 2.8696 55.27112 2.77397 55.30255 2.71416 55.334 2.65433 55.38445 2.55795 55.41588 2.4979 55.44733 2.43782 55.49777 2.34149 55.52922 2.28119 55.56065 2.22089 55.6111 2.12373 55.64253 2.06319 55.67397 2.00264 55.72443 1.90555 55.75586 1.84476 55.78731 1.78397 55.83775 1.68611 55.86919 1.62503 55.90063 1.56393 55.95107 1.46577 55.98251 1.40445 56.01395 1.34312 56.0644 1.24455 56.09584 1.18298 56.12727 1.12141 56.17772 1.02246 56.20915 .96065 56.2406 .89883 56.29105 .7995 56.32248 .73746 56.35393 .67542 56.40437 .5757 56.43582 .51341 56.46725 .45113 56.5177 .35107 56.54913 .28848 56.58057 .22589 56.66246 .06227 56.66246 .06227"/>
<use data-text="&#x2022;" xlink:href="#font_2_1" transform="matrix(9.963197,0,0,-9.9626,23.386559,76.641)" fill="#0000ff"/>
<use data-text="(" xlink:href="#font_3_1" transform="matrix(9.963197,0,0,-9.9626,.21717072,85.41901)"/>
<use data-text="0" xlink:href="#font_3_3" transform="matrix(9.963197,0,0,-9.9626,4.0828936,85.41901)"/>
<use data-text="," xlink:href="#font_1_1" transform="matrix(9.963197,0,0,-9.9626,9.073708,85.42)"/>
<use data-text="0" xlink:href="#font_3_3" transform="matrix(9.963197,0,0,-9.9626,13.501976,85.41901)"/>
<use data-text=")" xlink:href="#font_3_2" transform="matrix(9.963197,0,0,-9.9626,18.483559,85.41901)"/>
<use data-text="&#x2022;" xlink:href="#font_2_1" transform="matrix(9.963197,0,0,-9.9626,80.083957,76.641)" fill="#0000ff"/>
<use data-text="(" xlink:href="#font_3_1" transform="matrix(9.963197,0,0,-9.9626,86.094318,85.41901)"/>
<use data-text="2" xlink:href="#font_3_5" transform="matrix(9.963197,0,0,-9.9626,89.96004,85.41901)"/>
<use data-text="," xlink:href="#font_1_1" transform="matrix(9.963197,0,0,-9.9626,94.95085,85.42)"/>
<use data-text="0" xlink:href="#font_3_3" transform="matrix(9.963197,0,0,-9.9626,99.37912,85.41901)"/>
<use data-text=")" xlink:href="#font_3_2" transform="matrix(9.963197,0,0,-9.9626,104.3607,85.41901)"/>
<use data-text="&#x2022;" xlink:href="#font_2_1" transform="matrix(9.963197,0,0,-9.9626,51.73526,48.294004)" fill="#0000ff"/>
<use data-text="(" xlink:href="#font_4_85" transform="matrix(9.963197,0,0,-9.9626,43.15474,40.070005)"/>
<use data-text="1" xlink:href="#font_3_4" transform="matrix(9.963197,0,0,-9.9626,47.030977,40.071004)"/>
<use data-text="," xlink:href="#font_1_1" transform="matrix(9.963197,0,0,-9.9626,52.012277,40.070005)"/>
<use data-text="1" xlink:href="#font_3_4" transform="matrix(9.963197,0,0,-9.9626,56.440546,40.071004)"/>
<use data-text=")" xlink:href="#font_3_2" transform="matrix(9.963197,0,0,-9.9626,61.422136,40.071004)"/>
</svg>
