<svg xmlns="http://www.w3.org/2000/svg" xmlns:xlink="http://www.w3.org/1999/xlink" version="1.1" width="238" height="239" viewBox="0 0 238 239">
<defs>
<path id="font_1_1" d="M.33399964 .30233766C.33999635 .32835389 .36299134 .42037965 .43299867 .42037965 .43798829 .42037965 .46199037 .42037965 .48298646 .40734864 .45498658 .402359 .43499757 .37734986 .43499757 .35334779 .43499757 .33735658 .44599916 .31835938 .47299195 .31835938 .49499513 .31835938 .5269928 .3363495 .5269928 .37635804 .5269928 .42837525 .46798707 .4423828 .43399049 .4423828 .37599183 .4423828 .34098817 .38935853 .32899476 .36634828 .3039856 .43237306 .25 .4423828 .22099304 .4423828 .116989139 .4423828 .05999756 .3133545 .05999756 .28834535 .05999756 .27833558 .069992069 .27833558 .07199097 .27833558 .07998657 .27833558 .08299255 .28033448 .084991458 .28933717 .11898804 .39535523 .18499756 .42037965 .21899414 .42037965 .23799134 .42037965 .272995 .4113617 .272995 .35334779 .272995 .32235719 .2559967 .25532533 .21899414 .11528015 .20298767 .053268434 .16799927 .011245728 .12399292 .011245728 .117996219 .011245728 .09498596 .011245728 .07398987 .024276734 .09899902 .029266358 .12098694 .05027771 .12098694 .07827759 .12098694 .105270389 .09899902 .11328125 .083999637 .11328125 .053985597 .11328125 .0289917 .08728027 .0289917 .055267335 .0289917 .009246826 .07899475-.0107421879 .12298584-.0107421879 .18899536-.0107421879 .22499085 .059280397 .22799683 .0652771 .23999024 .028274537 .27598573-.0107421879 .33599855-.0107421879 .43899537-.0107421879 .49598695 .118270877 .49598695 .14328003 .49598695 .1532898 .4869995 .1532898 .48399354 .1532898 .47499085 .1532898 .47299195 .14929199 .47099305 .14228821 .43798829 .03527832 .36999513 .011245728 .33799745 .011245728 .29899598 .011245728 .2829895 .043273927 .2829895 .07727051 .2829895 .09927368 .2889862 .121276859 .2999878 .16529846L.33399964 .30233766Z"/>
<path id="font_1_2" d="M.48599244 .38136292C.48999024 .39537049 .48999024 .39736939 .48999024 .40437318 .48999024 .42237855 .47599793 .43138124 .46099855 .43138124 .45098878 .43138124 .43499757 .42536927 .42599488 .41036988 .42399598 .405365 .41600038 .37435914 .4119873 .35635377 .40499879 .33035279 .397995 .30334474 .3919983 .27633668L.34700013 .09628296C.34298707 .08126831 .2999878 .011245728 .23399353 .011245728 .18299866 .011245728 .17199707 .055267335 .17199707 .0922699 .17199707 .1382904 .18899536 .20030213 .22299195 .28833009 .23899842 .3293457 .24299622 .3403473 .24299622 .36035157 .24299622 .405365 .21099854 .4423828 .16099549 .4423828 .06599426 .4423828 .0289917 .29733277 .0289917 .28833009 .0289917 .27833558 .038986207 .27833558 .040985109 .27833558 .050994874 .27833558 .051986696 .28033448 .056991579 .29634095 .083999637 .3903656 .12399292 .42037965 .1579895 .42037965 .1659851 .42037965 .18299866 .42037965 .18299866 .3883667 .18299866 .36335755 .17298889 .3373413 .1659851 .31834413 .12599182 .21231079 .10798645 .1552887 .10798645 .10827637 .10798645 .019256592 .17098999-.0107421879 .22999573-.0107421879 .2689972-.0107421879 .30299378 .0062561037 .33099366 .03425598 .31799317-.017745972 .30599977-.06674194 .2659912-.11973572 .23999024-.15385437 .20199585-.18309021 .1559906-.18309021 .14199829-.18309021 .09700012-.18005371 .07998657-.14074707 .09599304-.14074707 .10899353-.14074707 .12298584-.1287384 .1329956-.11973572 .14299011-.10673523 .14299011-.08773804 .14299011-.056747438 .115997318-.052734376 .10598755-.052734376 .08299255-.052734376 .049987794-.068740848 .049987794-.11773682 .049987794-.16796875 .09399414-.20507813 .1559906-.20507813 .25898744-.20507813 .3619995-.11373901 .3899994-.00074768069L.48599244 .38136292Z"/>
<clipPath id="clip_2">
<path transform="matrix(1.00005,0,0,-1.00003,114.88583,124.09233)" d="M-113.38724-113.38724V113.38724H113.38724V-113.38724ZM113.38724 113.38724"/>
</clipPath>
</defs>
<path transform="matrix(1.00005,0,0,-1.00003,114.88583,124.09233)" stroke-width=".19925" stroke-linecap="butt" stroke-miterlimit="10" stroke-linejoin="miter" fill="none" stroke="#929292" stroke-opacity=".5" d="M-113.38724-113.38724H113.38724M-113.38724-85.04042H113.38724M-113.38724-56.69362H113.38724M-113.38724-28.3468H113.38724M-113.38724 0H113.38724M-113.38724 28.3468H113.38724M-113.38724 56.69362H113.38724M-113.38724 85.04042H113.38724M-113.38724 113.37727H113.38724M-113.38724-113.38724V113.38724M-85.04042-113.38724V113.38724M-56.69362-113.38724V113.38724M-28.3468-113.38724V113.38724M0-113.38724V113.38724M28.3468-113.38724V113.38724M56.69362-113.38724V113.38724M85.04042-113.38724V113.38724M113.37727-113.38724V113.38724M113.38724 113.38724"/>
<path transform="matrix(1.00005,0,0,-1.00003,114.88583,124.09233)" stroke-width="1.19553" stroke-linecap="butt" stroke-miterlimit="10" stroke-linejoin="miter" fill="none" stroke="#000000" d="M-113.38724 0H118.10008"/>
<path transform="matrix(1.00005,0,0,-1.00003,232.99182,124.09233)" stroke-width=".9564" stroke-linecap="round" stroke-linejoin="round" fill="none" stroke="#000000" d="M-1.91284 2.55046C-1.75343 1.59402 0 .15938 .4782 0 0-.15938-1.75343-1.59402-1.91284-2.55046"/>
<use data-text="x" xlink:href="#font_1_1" transform="matrix(9.963098,0,0,-9.962899,231.10164,120.17421)"/>
<path transform="matrix(1.00005,0,0,-1.00003,114.88583,124.09233)" stroke-width="1.19553" stroke-linecap="butt" stroke-miterlimit="10" stroke-linejoin="miter" fill="none" stroke="#000000" d="M0-113.38724V118.10008"/>
<path transform="matrix(0,-1.00003,-1.00005,-0,114.88583,5.988701)" stroke-width=".9564" stroke-linecap="round" stroke-linejoin="round" fill="none" stroke="#000000" d="M-1.91284 2.55046C-1.75343 1.59402 0 .15938 .4782 0 0-.15938-1.75343-1.59402-1.91284-2.55046"/>
<use data-text="y" xlink:href="#font_1_2" transform="matrix(9.963098,0,0,-9.962899,118.80403,6.2087938)"/>
<g clip-path="url(#clip_2)">
<path transform="matrix(1.00005,0,0,-1.00003,114.88583,124.09233)" stroke-width=".79701" stroke-linecap="butt" stroke-miterlimit="10" stroke-linejoin="miter" fill="none" stroke="#0000ff" d="M-85.04042-425.20213C-85.04042-425.20213-84.79414-419.5539-84.69958-417.39875-84.60501-415.24357-84.45331-411.80384-84.35873-409.66929-84.26416-407.53468-84.11246-404.12849-84.0179-402.0142-83.92332-399.89994-83.77162-396.52519-83.67705-394.43095-83.58247-392.33674-83.43079-388.99436-83.33621-386.92036-83.24165-384.84635-83.08995-381.53688-82.99538-379.48289-82.9008-377.42893-82.7491-374.15086-82.65453-372.11674-82.55997-370.08265-82.40826-366.83674-82.31369-364.82243-82.21912-362.8081-82.06743-359.5935-81.97285-357.59904-81.8783-355.60456-81.7266-352.4222-81.63202-350.44746-81.53745-348.4727-81.38574-345.32157-81.29117-343.3664-81.1966-341.4112-81.0449-338.29145-80.95033-336.3558-80.85576-334.42018-80.70407-331.3319-80.6095-329.41575-80.51492-327.49958-80.36324-324.44227-80.26866-322.5453-80.17409-320.64833-80.02238-317.62129-79.92781-315.74366-79.83324-313.866-79.68155-310.87074-79.58698-309.01249-79.4924-307.1542-79.34071-304.18983-79.24614-302.35054-79.15157-300.51124-78.99986-297.57627-78.9053-295.75605-78.81073-293.93586-78.65903-291.0329-78.56445-289.23164-78.46988-287.4304-78.31818-284.55628-78.22362-282.77388-78.12904-280.99147-77.97736-278.14888-77.88278-276.38529-77.78821-274.6217-77.6365-271.80815-77.54195-270.06333-77.44737-268.31849-77.29567-265.5359-77.2011-263.80967-77.10652-262.08345-76.95482-259.32966-76.86026-257.62178-76.76569-255.91391-76.61398-253.1897-76.51941-251.5005-76.42484-249.81131-76.27315-247.11789-76.17857-245.44713-76.08401-243.77635-75.93231-241.11128-75.83774-239.45864-75.74316-237.80599-75.59146-235.17032-75.49689-233.5359-75.40233-231.90149-75.25063-229.29512-75.15605-227.6789-75.06148-226.06267-74.90979-223.48537-74.81522-221.88722-74.72066-220.28907-74.56895-217.74063-74.47438-216.16042-74.3798-214.5802-74.2281-212.0604-74.13353-210.49806-74.03896-208.93573-73.88727-206.44478-73.7927-204.90015-73.69812-203.35552-73.54643-200.89232-73.45186-199.3654-73.35728-197.83849-73.2056-195.40419-73.11102-193.89508-73.01645-192.38599-72.86475-189.9803-72.77017-188.48879-72.6756-186.99729-72.52391-184.61939-72.42934-183.14522-72.33476-181.67105-72.18307-179.32071-72.0885-177.86394-71.99393-176.40715-71.84222-174.08528-71.74767-172.64579-71.65309-171.2063-71.50139-168.91129-71.40681-167.48908-71.31224-166.06688-71.16054-163.80055-71.06598-162.39551-70.9714-160.99047-70.81972-158.75043-70.72514-157.3625-70.63057-155.97457-70.47887-153.76316-70.38431-152.39221-70.28973-151.02127-70.13803-148.83582-70.04346-147.48162-69.94888-146.1274-69.79718-143.96933-69.70262-142.63198-69.60805-141.29463-69.45634-139.16353-69.36177-137.84293-69.2672-136.52234-69.11551-134.41779-69.02094-133.11399-68.92638-131.8102-68.77467-129.73326-68.6801-128.44605-68.58553-127.15881-68.43382-125.10732-68.33925-123.83647-68.24469-122.56564-68.09299-120.54102-67.99841-119.2866-67.90384-118.0322-67.75215-116.03365-67.65758-114.79558-67.56302-113.5575-67.41132-111.58534-67.31674-110.36334-67.22217-109.14134-67.07047-107.19402-66.97589-105.98824-66.88132-104.78244-66.72963-102.86232-66.63506-101.6728-66.54048-100.48328-66.3888-98.58846-66.29422-97.41489-66.19965-96.24133-66.04796-94.37224-65.95338-93.21451-65.85881-92.0568-65.7071-90.21268-65.61253-89.0708-65.51796-87.92892-65.36627-86.11076-65.2717-84.98462-65.17712-83.85847-65.02544-82.06465-64.93086-80.95422-64.83629-79.8438-64.68459-78.0762-64.59003-76.98137-64.49545-75.88654-64.34375-74.14278-64.24918-73.06343-64.1546-71.9841-64.0029-70.26604-63.90834-69.20216-63.81377-68.1383-63.66208-66.44432-63.5675-65.39583-63.47293-64.34734-63.32123-62.67856-63.22667-61.64531-63.1321-60.61206-62.9804-58.96701-62.88582-57.94882-62.79124-56.93065-62.63954-55.30997-62.54497-54.30685-62.45041-53.30374-62.2987-51.70703-62.20413-50.71896-62.10956-49.7309-61.95787-48.15866-61.8633-47.18555-61.76874-46.21245-61.61703-44.66359-61.52246-43.70537-61.42789-42.74713-61.27618-41.22264-61.18161-40.27922-61.08705-39.3358-60.93535-37.83461-60.84077-36.90585-60.7462-35.97708-60.59451-34.49945-60.49994-33.58527-60.40538-32.67108-60.25368-31.21666-60.1591-30.31702-60.06453-29.41736-59.91283-27.98622-59.81825-27.10109-59.72368-26.21596-59.57199-24.80843-59.47742-23.9375-59.38284-23.06657-59.23116-21.68073-59.13658-20.82408-59.042-19.96745-58.89032-18.60574-58.79575-17.76346-58.70117-16.92117-58.54947-15.58173-58.4549-14.75342-58.36032-13.92511-58.20863-12.60783-58.11406-11.79356-58.01949-10.97931-57.8678-9.68503-57.77322-8.88475-57.67865-8.08447-57.52695-6.81221-57.43239-6.02568-57.33781-5.23914-57.18611-3.98853-57.09154-3.21591-56.99696-2.4433-56.84526-1.21605-56.7507-.45718-56.65613 .30168-56.50444 1.50809-56.40987 2.25351-56.31529 2.99892-56.16359 4.1836-56.06903 4.91534-55.97446 5.64708-55.82275 6.80922-55.72818 7.52745-55.6336 8.24568-55.4819 9.387-55.38733 10.09196-55.29277 10.79694-55.14107 11.91676-55.0465 12.60847-54.95192 13.30017-54.80023 14.39888-54.70566 15.0774-54.6111 15.7559-54.4594 16.83345-54.36482 17.49875-54.27025 18.16405-54.11855 19.22028-54.02397 19.8725-53.92941 20.52473-53.77771 21.56024-53.68314 22.19957-53.58856 22.83888-53.43687 23.85379-53.3423 24.48033-53.24773 25.10687-53.09604 26.10158-53.00146 26.71527-52.90689 27.32895-52.75519 28.30261-52.66061 28.90347-52.56604 29.50433-52.41435 30.45753-52.31978 31.04584-52.2252 31.63414-52.07352 32.56787-51.97894 33.14363-51.88437 33.71939-51.73268 34.63245-51.6381 35.1956-51.54353 35.75876-51.39183 36.65166-51.29726 37.20258-51.20268 37.7535-51.051 38.62761-50.95642 39.16629-50.86185 39.70497-50.71016 40.55873-50.61559 41.08504-50.52101 41.61134-50.36931 42.44547-50.27475 42.95966-50.18018 43.47385-50.02847 44.28896-49.9339 44.79103-49.83932 45.2931-49.68762 46.08815-49.59306 46.57828-49.49849 47.0684-49.3468 47.8452-49.25223 48.32355-49.15765 48.80191-49.00595 49.55954-48.91139 50.02603-48.81682 50.49251-48.66512 51.23096-48.57054 51.68568-48.47597 52.14041-48.32426 52.86029-48.22969 53.30338-48.13513 53.74644-47.98343 54.44762-47.88885 54.8791-47.79428 55.3106-47.6426 55.99329-47.54802 56.41331-47.45346 56.83334-47.30176 57.49782-47.20718 57.90645-47.11261 58.31506-46.9609 58.96124-46.86633 59.35847-46.77177 59.7557-46.62007 60.3834-46.5255 60.76941-46.43092 61.15543-46.27924 61.7656-46.18466 62.14056-46.09009 62.51552-45.9384 63.10805-45.84383 63.4719-45.74925 63.83575-45.59755 64.41028-45.50298 64.76303-45.4084 65.1158-45.25671 65.67249-45.16214 66.01437-45.06757 66.35626-44.91588 66.89612-44.8213 67.2272-44.72673 67.55829-44.57504 68.08032-44.48047 68.40067-44.3859 68.72102-44.23419 69.22643-44.13962 69.53609-44.04504 69.84575-43.89334 70.33354-43.79878 70.63258-43.70421 70.93163-43.55252 71.4029-43.45795 71.69142-43.36337 71.97997-43.21167 72.43407-43.11711 72.7122-43.02254 72.99036-42.87083 73.42834-42.77626 73.69623-42.68169 73.96413-42.52998 74.3855-42.43542 74.64307-42.34085 74.90062-42.18916 75.30527-42.09459 75.5527-42.00002 75.80013-41.84831 76.1892-41.75375 76.42642-41.65918 76.66365-41.50748 77.03531-41.4129 77.26251-41.31833 77.48972-41.16663 77.84665-41.07205 78.06401-40.9775 78.28136-40.82579 78.62158-40.73122 78.82916-40.63664 79.03674-40.48495 79.3623-40.39038 79.56015-40.29582 79.75801-40.14412 80.06723-40.04955 80.25525-39.95497 80.44327-39.80327 80.7369-39.7087 80.9153-39.61414 81.09372-39.46243 81.37225-39.36786 81.54118-39.27328 81.71011-39.1216 81.97331-39.02702 82.13289-38.93245 82.29247-38.78076 82.54109-38.68619 82.6913-38.59161 82.84152-38.43991 83.07469-38.34534 83.21553-38.25076 83.35638-38.09908 83.57474-38.0045 83.70647-37.90993 83.8382-37.75824 84.04236-37.66367 84.16496-37.56909 84.28755-37.4174 84.4766-37.32283 84.59013-37.22826 84.70369-37.07655 84.87868-36.98198 84.98332-36.8874 85.08797-36.7357 85.24878-36.64114 85.3445-36.54657 85.4402-36.39488 85.58626-36.30031 85.67322-36.20573 85.76018-36.05403 85.89287-35.95947 85.97124-35.8649 86.0496-35.7132 86.16838-35.61862 86.23811-35.52405 86.30785-35.37234 86.41277-35.27779 86.47385-35.18321 86.53493-35.03152 86.62581-34.93695 86.67844-34.84238 86.73106-34.69067 86.80884-34.59612 86.85318-34.50154 86.89752-34.34984 86.96202-34.25526 86.9981-34.16069 87.03415-34.00899 87.08536-33.91441 87.11313-33.81985 87.14091-33.66815 87.17867-33.57358 87.19835-33.479 87.21802-33.32732 87.24327-33.23274 87.25502-33.13818 87.26677-32.98648 87.27936-32.8919 87.28313-32.79733 87.2869-32.64563 87.28645-32.55106 87.28226-32.4565 87.27806-32.3048 87.26483-32.21022 87.25284-32.11565 87.24084-31.96396 87.21536-31.86938 87.19576-31.77481 87.17615-31.62312 87.1387-31.52855 87.1114-31.43398 87.0841-31.28227 87.03381-31.1877 86.99895-31.09312 86.9641-30.94144 86.9024-30.84686 86.86009-30.75229 86.8178-30.6006 86.74368-30.50603 86.694-30.41145 86.64432-30.25977 86.55896-30.16519 86.50195-30.07062 86.44495-29.91891 86.3473-29.82434 86.2831-29.72977 86.21887-29.57806 86.11043-29.4835 86.03914-29.38893 85.96786-29.23724 85.84766-29.14267 85.76924-29.0481 85.69081-28.8964 85.55927-28.80183 85.47382-28.70726 85.38837-28.55556 85.2456-28.46098 85.1533-28.36641 85.06102-28.2147 84.90765-28.12015 84.80858-28.02557 84.7095-27.87389 84.54497-27.77931 84.43918-27.68474 84.33339-27.53304 84.15842-27.43846 84.04602-27.3439 83.93361-27.1922 83.74805-27.09763 83.62904-27.00305 83.51004-26.85135 83.31383-26.75677 83.1883-26.66222 83.06274-26.51051 82.85608-26.41594 82.72417-26.32137 82.59227-26.16968 82.37578-26.0751 82.23758-25.98055 82.09937-25.82884 81.87248-25.73427 81.72803-25.6397 81.58359-25.48799 81.34708-25.39342 81.19646-25.29886 81.04582-25.14716 80.79906-25.05258 80.64236-24.95801 80.48569-24.80632 80.22972-24.71175 80.0671-24.61717 79.90446-24.46548 79.63876-24.37091 79.47018-24.27634 79.30162-24.12463 79.02649-24.03006 78.8521-23.93549 78.67769-23.7838 78.39339-23.68922 78.21323-23.59465 78.03307-23.44296 77.73947-23.34839 77.55362-23.25381 77.36775-23.10213 77.06503-23.00755 76.87366-22.91298 76.68228-22.76128 76.37108-22.6667 76.17426-22.57213 75.97742-22.42043 75.65723-22.32587 75.45494-22.2313 75.25264-22.0796 74.92381-21.98503 74.71617-21.89046 74.50851-21.73875 74.17122-21.6442 73.95836-21.54962 73.7455-21.39792 73.40004-21.30334 73.18195-21.20877 72.96387-21.05707 72.6097-20.96251 72.3865-20.86794 72.16333-20.71625 71.80144-20.62167 71.57333-20.5271 71.34523-20.3754 70.97548-20.28082 70.74245-20.18626 70.50941-20.03456 70.13174-19.93999 69.8938-19.84541 69.65584-19.69371 69.27003-19.59914 69.02742-19.50458 68.78479-19.35287 68.39235-19.2583 68.14505-19.16373 67.89775-19.01204 67.49693-18.91747 67.24493-18.8229 66.99295-18.6712 66.58525-18.57663 66.32883-18.48206 66.0724-18.33035 65.65756-18.23578 65.3967-18.14122 65.13583-17.98952 64.71384-17.89494 64.44858-17.80037 64.18332-17.64868 63.75433-17.55411 63.48488-17.45953 63.21542-17.30785 62.78014-17.21327 62.50648-17.1187 62.23283-16.967 61.79031-16.87242 61.51251-16.77785 61.23471-16.62616 60.78601-16.53159 60.50426-16.43701 60.2225-16.28532 59.76753-16.19075 59.48175-16.09618 59.19597-15.94449 58.73413-15.84991 58.44452-15.75534 58.1549-15.60364 57.68765-15.50906 57.39432-15.41449 57.10098-15.26279 56.62733-15.16823 56.33028-15.07365 56.0332-14.92197 55.55392-14.8274 55.25325-14.73282 54.95259-14.58112 54.46753-14.48656 54.16325-14.39198 53.859-14.24028 53.36797-14.1457 53.06027-14.05113 52.7526-13.89943 52.25662-13.80487 51.94563-13.7103 51.63466-13.55861 51.13315-13.46404 50.81886-13.36946 50.50458-13.21776 49.9979-13.12318 49.68044-13.02863 49.36298-12.87692 48.85133-12.78235 48.53075-12.68777 48.21014-12.53607 47.69347-12.4415 47.36981-12.34694 47.04616-12.19524 46.52472-12.10066 46.19807-12.00609 45.87143-11.8544 45.34499-11.75983 45.01552-11.66527 44.68604-11.51357 44.15565-11.41899 43.82344-11.32442 43.49121-11.17271 42.95596-11.07814 42.62097-10.98357 42.28598-10.83188 41.74658-10.7373 41.40901-10.64273 41.07144-10.49104 40.5281-10.39647 40.18796-10.3019 39.84781-10.1502 39.29999-10.05563 38.95738-9.96106 38.61478-9.80936 38.06354-9.71478 37.7186-9.62021 37.37364-9.46852 36.81844-9.37395 36.47115-9.27937 36.12386-9.12769 35.565-9.03311 35.2155-8.93854 34.86598-8.78683 34.30368-8.69228 33.95206-8.5977 33.60043-8.446 33.03491-8.35143 32.68124-8.25685 32.32759-8.10515 31.75874-8.01059 31.40312-7.91602 31.04749-7.76433 30.47559-7.66975 30.11803-7.57518 29.76048-7.42348 29.18541-7.32892 28.82605-7.23434 28.46669-7.08264 27.88902-6.98807 27.528-6.8935 27.16696-6.74179 26.58661-6.64723 26.22389-6.55266 25.86118-6.40097 25.27802-6.3064 24.91374-6.21182 24.54947-6.06012 23.9641-5.96555 23.59839-5.87099 23.23268-5.71928 22.645-5.62471 22.27785-5.53014 21.91069-5.37843 21.3206-5.28386 20.95212-5.1893 20.58363-5.0376 19.99174-4.94302 19.62207-4.84845 19.25238-4.69676 18.65851-4.60219 18.28769-4.50763 17.91685-4.35593 17.32132-4.26135 16.94942-4.16678 16.57751-4.01508 15.98012-3.9205 15.60725-3.82593 15.23439-3.67424 14.63582-3.57967 14.26207-3.48509 13.8883-3.3334 13.288-3.23883 12.9134-3.14426 12.53882-2.99257 11.93755-2.898 11.56216-2.80342 11.18678-2.65172 10.58391-2.55714 10.20787-2.46257 9.83185-2.31088 9.2284-2.21631 8.85188-2.12173 8.47536-1.97005 7.8712-1.87547 7.49414-1.7809 7.11708-1.6292 6.51172-1.53464 6.13423-1.44006 5.75676-1.28836 5.15126-1.19379 4.77347-1.09921 4.39569-.94751 3.78947-.85295 3.4114-.75838 3.03334-.60669 2.42674-.51212 2.0485-.41754 1.67023-.26584 1.06345-.17128 .68513-.0767 .30681 .07497-.29988 .16954-.67819 .26411-1.05652 .41582-1.6633 .51038-2.04155 .60495-2.41982 .75664-3.0264 .85121-3.4045 .94579-3.78258 1.09749-4.38878 1.19206-4.76656 1.28662-5.14435 1.43832-5.74983 1.5329-6.12732 1.62747-6.50479 1.77917-7.11015 1.87375-7.48721 1.9683-7.86426 2.12001-8.46837 2.21458-8.84496 2.30916-9.22154 2.46085-9.82535 2.55542-10.20139 2.64998-10.57742 2.80168-11.17992 2.89626-11.55524 2.99083-11.93057 3.14253-12.53189 3.2371-12.9065 3.33168-13.28108 3.48337-13.8814 3.57794-14.25514 3.67252-14.6289 3.8242-15.22748 3.91878-15.60034 4.01335-15.97319 4.16504-16.57059 4.25961-16.94249 4.35419-17.31439 4.50589-17.90994 4.60046-18.28076 4.69504-18.6516 4.84673-19.2454 4.9413-19.61516 5.03587-19.9849 5.18756-20.57716 5.28214-20.94565 5.37671-21.31412 5.52841-21.90384 5.62297-22.27094 5.71754-22.63803 5.86925-23.2257 5.96382-23.59148 6.0584-23.95724 6.2101-24.54298 6.30466-24.90724 6.39923-25.27151 6.55092-25.85425 6.6455-26.21698 6.74007-26.5797 6.89177-27.16043 6.98633-27.52151 7.0809-27.88261 7.2326-28.46025 7.32718-28.81955 7.42175-29.17885 7.57346-29.75356 7.66803-30.11111 7.76259-30.46866 7.91428-31.04092 8.00885-31.39662 8.10342-31.75232 8.25513-32.32112 8.3497-32.67477 8.44426-33.02843 8.59596-33.59396 8.69054-33.94557 8.78511-34.29718 8.93681-34.8595 9.03139-35.209 9.12595-35.55852 9.27765-36.11739 9.37222-36.46468 9.4668-36.81197 9.61848-37.3671 9.71306-37.7121 9.80762-38.05711 9.95932-38.60872 10.0539-38.95132 10.14847-39.29393 10.30017-39.84131 10.39474-40.18147 10.48932-40.52162 10.641-41.06532 10.73558-41.40295 10.83015-41.7406 10.98184-42.27994 11.07642-42.61493 11.17099-42.94992 11.32268-43.48509 11.41725-43.81738 11.51183-44.14967 11.66353-44.68042 11.7581-45.00989 11.85268-45.33936 12.00436-45.86543 12.09894-46.19202 12.19351-46.5186 12.3452-47.04012 12.43977-47.36377 12.53435-47.68741 12.68605-48.20406 12.78061-48.52469 12.87518-48.84534 13.02689-49.35728 13.12146-49.67482 13.21603-49.99234 13.36774-50.49896 13.4623-50.81325 13.55687-51.12753 13.70856-51.62903 13.80313-51.94002 13.8977-52.251 14.04941-52.74698 14.14397-53.05467 14.23854-53.36235 14.39024-53.85336 14.48482-54.15764 14.57939-54.4619 14.7311-54.94696 14.82567-55.24763 14.92023-55.5483 15.07191-56.02759 15.16649-56.32465 15.26106-56.6217 15.41277-57.09529 15.50734-57.38869 15.6019-57.68208 15.7536-58.14972 15.84818-58.43933 15.94275-58.72894 16.09445-59.19034 16.18903-59.47612 16.28358-59.7619 16.43529-60.21727 16.52986-60.49908 16.62444-60.7809 16.77612-61.22952 16.8707-61.50732 16.96527-61.78513 17.11696-62.22757 17.21153-62.50128 17.3061-62.775 17.45781-63.2106 17.55238-63.48012 17.64696-63.74963 17.79865-64.17856 17.89322-64.44382 17.9878-64.70908 18.13948-65.13107 18.23405-65.39194 18.32863-65.6528 18.48032-66.06764 18.57489-66.32407 18.66946-66.58049 18.82117-66.98819 18.91574-67.24019 19.01031-67.49217 19.162-67.89293 19.25658-68.14029 19.35115-68.38766 19.50284-68.78041 19.59741-69.0231 19.69199-69.26578 19.84369-69.65154 19.93825-69.88948 20.03282-70.12741 20.18452-70.50502 20.2791-70.73811 20.37367-70.9712 20.52538-71.34128 20.61993-71.56944 20.71451-71.7976 20.8662-72.1595 20.96077-72.38261 21.05534-72.60573 21.20705-72.95955 21.3016-73.17763 21.39618-73.39572 21.54788-73.74155 21.64246-73.95447 21.73703-74.16739 21.88873-74.50462 21.9833-74.71228 22.07787-74.91992 22.22955-75.24869 22.32413-75.45105 22.4187-75.6534 22.5704-75.97385 22.66498-76.17079 22.75954-76.36775 22.91124-76.67926 23.00581-76.87064 23.10039-77.06201 23.25209-77.36435 23.34666-77.55016 23.44122-77.73595 23.59293-78.02962 23.6875-78.20978 23.78207-78.38994 23.93376-78.67416 24.02834-78.84863 24.12291-79.02309 24.2746-79.29852 24.36917-79.46716 24.46375-79.6358 24.61545-79.90138 24.71002-80.06407 24.8046-80.22676 24.95628-80.48308 25.05086-80.63977 25.14543-80.79645 25.29712-81.0428 25.3917-81.19342 25.48627-81.34404 25.63795-81.58093 25.73253-81.72545 25.8271-81.86996 25.9788-82.09671 26.07338-82.23497 26.16795-82.37323 26.31966-82.59004 26.41422-82.72202 26.50879-82.85399 26.66048-83.0606 26.75505-83.18613 26.84962-83.31166 27.00133-83.50781 27.09589-83.62688 27.19046-83.74594 27.34216-83.93182 27.43674-84.04428 27.53131-84.15675 27.68301-84.33167 27.77757-84.43745 27.87215-84.54324 28.02383-84.70778 28.11841-84.80684 28.21298-84.90591 28.36469-85.05922 28.45924-85.15158 28.55382-85.24393 28.70552-85.38707 28.8001-85.47252 28.89467-85.55797 29.04637-85.68915 29.14095-85.76752 29.2355-85.84589 29.38719-85.966 29.48177-86.03741 29.57634-86.10881 29.72804-86.21796 29.82262-86.28223 29.91718-86.3465 30.06888-86.44365 30.16345-86.50066 30.25803-86.55766 30.40973-86.6434 30.5043-86.69313 30.59886-86.74287 30.75056-86.81686 30.84514-86.85924 30.93971-86.9016 31.0914-86.9636 31.18597-86.99852 31.28055-87.03343 31.43224-87.08368 31.52681-87.11098 31.62138-87.13828 31.77309-87.1757 31.86766-87.19531 31.96223-87.21494 32.11392-87.24042 32.2085-87.25241 32.30307-87.2644 32.45476-87.27757 32.54933-87.28183 32.6439-87.28609 32.7956-87.28677 32.89017-87.28313 32.98474-87.27948 33.13644-87.26707 33.23102-87.25545 33.32559-87.2438 33.4773-87.21889 33.57185-87.1992 33.66643-87.17953 33.81812-87.14134 33.91269-87.11356 34.00726-87.08578 34.15897-87.03496 34.25352-86.99895 34.3481-86.96295 34.4998-86.89839 34.59438-86.85405 34.68895-86.80971 34.84065-86.732 34.93521-86.6793 35.02979-86.62662 35.18147-86.5353 35.27605-86.47427 35.37062-86.41325 35.52232-86.30902 35.6169-86.23941 35.71146-86.1698 35.86316-86.05084 35.95773-85.97253 36.0523-85.89423 36.20401-85.76184 36.29858-85.67496 36.39314-85.58806 36.54483-85.44194 36.6394-85.34622 36.73398-85.25052 36.88568-85.08966 36.98026-84.98506 37.07481-84.88045 37.22652-84.70584 37.32109-84.5923 37.41566-84.47876 37.56737-84.28923 37.66194-84.16669 37.7565-84.04414 37.9082-83.84067 38.00278-83.70906 38.09735-83.57745 38.24904-83.35898 38.34361-83.21812 38.43819-83.07729 38.58987-82.84404 38.68445-82.6939 38.77902-82.54375 38.93073-82.29543 39.0253-82.13591 39.11987-81.97641 39.27156-81.71309 39.36613-81.5442 39.46071-81.37534 39.6124-81.09717 39.70697-80.91876 39.80154-80.74034 39.95323-80.44629 40.0478-80.25827 40.14238-80.07025 40.29408-79.76129 40.38866-79.56361 40.48323-79.36595 40.63493-79.04102 40.72949-78.8335 40.82407-78.62598 40.97575-78.28526 41.07033-78.0679 41.1649-77.85054 41.3166-77.49411 41.41116-77.26685 41.50574-77.03958 41.65744-76.66705 41.75201-76.42989 41.84659-76.19272 41.99829-75.8047 42.09285-75.55746 42.18742-75.31021 42.33911-74.90538 42.43369-74.64781 42.52826-74.39024 42.67996-73.96877 42.77454-73.70099 42.8691-73.43323 43.0208-72.99593 43.11537-72.71783 43.20995-72.43974 43.36165-71.98508 43.45622-71.69661 43.55078-71.40814 43.70247-70.9376 43.79704-70.63863 43.89162-70.33965 44.04332-69.85138 44.1379-69.54172 44.23245-69.23206 44.38416-68.72708 44.47873-68.40674 44.5733-68.08638 44.725-67.56384 44.81958-67.23282 44.91414-66.9018 45.06584-66.36263 45.16042-66.02084 45.25499-65.67908 45.40668-65.12233 45.50125-64.76953 45.59583-64.41672 45.74751-63.84177 45.84209-63.47797 45.93666-63.11417 46.08836-62.52225 46.18294-62.14748 46.27751-61.7727 46.4292-61.16277 46.52377-60.77676 46.61835-60.39075 46.77003-59.76262 46.86461-59.36539 46.95918-58.96815 47.11087-58.32237 47.20544-57.9138 47.30002-57.50523 47.45172-56.84065 47.5463-56.42067 47.64087-56.0007 47.79257-55.31831 47.88713-54.88689 47.9817-54.45546 48.13339-53.7541 48.22797-53.31116 48.32254-52.8682 48.47424-52.14894 48.5688-51.69434 48.66338-51.23973 48.81508-50.50116 48.90965-50.03468 49.00423-49.56822 49.15593-48.81052 49.25049-48.33221 49.34506-47.85393 49.49675-47.07742 49.59132-46.58736 49.6859-46.09729 49.8376-45.30217 49.93217-44.8001 50.02673-44.29802 50.17844-43.48286 50.27301-42.96873 50.36758-42.4546 50.51929-41.6208 50.61386-41.09456 50.70842-40.56831 50.8601-39.71431 50.95468-39.17581 51.04926-38.63731 51.20096-37.76413 51.29553-37.21338 51.39009-36.66264 51.5418-35.7697 51.63637-35.20642 51.73094-34.64314 51.88264-33.72931 51.97722-33.1536 52.0718-32.57788 52.22348-31.6452 52.31805-31.05707 52.41263-30.46893 52.56432-29.51556 52.65889-28.91472 52.75346-28.31387 52.90515-27.34009 52.99973-26.72652 53.0943-26.11295 53.246-25.11893 53.34058-24.49245 53.43515-23.86597 53.58684-22.85062 53.68141-22.21124 53.77599-21.57185 53.92767-20.5363 54.02225-19.8842 54.11682-19.23209 54.26851-18.17642 54.36308-17.51129 54.45766-16.84616 54.60936-15.76883 54.70393-15.09038 54.79851-14.41193 54.95021-13.31311 55.04477-12.62144 55.13934-11.9298 55.29103-10.81029 55.3856-10.10538 55.48018-9.40045 55.63188-8.2591 55.72644-7.54086 55.82101-6.82263 55.97272-5.66045 56.06729-4.92876 56.16187-4.19708 56.31357-3.01273 56.40813-2.26735 56.5027-1.52199 56.65439-.3155 56.74896 .44334 56.84354 1.20221 56.99524 2.4295 57.08981 3.20206 57.18437 3.97461 57.33607 5.22505 57.43065 6.0114 57.52522 6.79776 57.67693 8.06938 57.7715 8.8696 57.86606 9.66982 58.01775 10.96466 58.11232 11.77887 58.2069 12.59306 58.3586 13.90973 58.45317 14.73785 58.54773 15.56598 58.69943 16.90504 58.794 17.74745 58.88858 18.58986 59.04028 19.95282 59.13486 20.80939 59.22943 21.66595 59.38112 23.05032 59.4757 23.92107 59.57027 24.79181 59.72195 26.19995 59.81653 27.08508 59.9111 27.97021 60.06279 29.40103 60.15736 30.30058 60.25194 31.20012 60.40364 32.65427 60.49821 33.56839 60.59279 34.48251 60.74448 35.96028 60.83905 36.88899 60.93362 37.81769 61.08531 39.31851 61.17989 40.26192 61.27446 41.20532 61.42616 42.73026 61.52072 43.68849 61.6153 44.64671 61.767 46.19519 61.86157 47.16824 61.95615 48.14131 62.10785 49.71384 62.20241 50.70166 62.29698 51.68948 62.44867 53.28493 62.54324 54.28783 62.63782 55.29071 62.78952 56.9116 62.88408 57.9298 62.97865 58.94797 63.13036 60.5931 63.22493 61.62627 63.3195 62.65945 63.4712 64.32794 63.56577 65.37637 63.66034 66.4248 63.81203 68.11884 63.9066 69.18271 64.00117 70.24657 64.15288 71.96469 64.24745 73.04398 64.34201 74.12326 64.49371 75.8667 64.58829 76.96147 64.68286 78.05624 64.83456 79.8241 64.92914 80.93434 65.0237 82.04459 65.17538 83.83734 65.26996 84.96342 65.36453 86.08951 65.51624 87.9086 65.61081 89.05048 65.70537 90.19235 65.85707 92.03578 65.95164 93.19331 66.04622 94.35086 66.19792 96.21982 66.2925 97.39326 66.38707 98.5667 66.53876 100.46127 66.63333 101.65074 66.7279 102.84021 66.8796 104.76044 66.97417 105.96617 67.06874 107.1719 67.22043 109.11893 67.315 110.34087 67.40958 111.56279 67.56128 113.53517 67.65585 114.77307 67.75043 116.01097 67.90211 118.0086 67.99669 119.26283 68.09126 120.51704 68.24295 122.54192 68.33752 123.81268 68.4321 125.08347 68.5838 127.13452 68.67836 128.4218 68.77293 129.70909 68.92464 131.78676 69.01921 133.09062 69.11378 134.39449 69.26549 136.49872 69.36005 137.81914 69.45462 139.13956 69.60631 141.27017 69.70088 142.60733 69.79546 143.9445 69.94716 146.10242 70.04172 147.45652 70.13629 148.8106 70.288 150.9958 70.38257 152.36669 70.47714 153.73757 70.62885 155.94905 70.7234 157.33698 70.81798 158.7249 70.96967 160.96494 71.06424 162.36998 71.15881 163.77503 71.31052 166.04141 71.40509 167.46356 71.49965 168.8857 71.65135 171.18047 71.74593 172.61985 71.8405 174.0592 71.9922 176.38097 72.08678 177.83756 72.18134 179.29415 72.33302 181.644 72.4276 183.11798 72.52217 184.59197 72.67387 186.96953 72.76845 188.4611 72.863 189.95269 73.01471 192.3591 73.10928 193.86827 73.20386 195.37743 73.35556 197.81147 73.45013 199.33815 73.54471 200.86484 73.6964 203.32715 73.79097 204.8716 73.88554 206.41605 74.03723 208.90724 74.1318 210.46952 74.22638 212.03179 74.37807 214.55127 74.47264 216.13143 74.56721 217.71158 74.71892 220.26013 74.81349 221.85825 74.90807 223.45635 75.05975 226.0335 75.15433 227.64948 75.2489 229.26548 75.40059 231.87097 75.49516 233.50519 75.58974 235.13942 75.74144 237.77535 75.836 239.42794 75.93057 241.08052 76.08228 243.74509 76.17685 245.41599 76.27142 247.08689 76.42313 249.78151 76.51768 251.47064 76.61226 253.15979 76.76395 255.88265 76.85852 257.5902 76.9531 259.29777 77.1048 262.05149 77.19936 263.77766 77.29393 265.5038 77.44563 268.2865 77.5402 270.0313 77.63478 271.77607 77.78648 274.58934 77.88106 276.35285 77.97562 278.11637 78.1273 280.95909 78.22188 282.74143 78.31645 284.52378 78.46815 287.39759 78.56273 289.1988 78.65729 290.99998 78.80899 293.90315 78.90356 295.72319 78.99814 297.5432 79.14984 300.4771 79.24442 302.31636 79.33897 304.1556 79.49066 307.12086 79.58524 308.97917 79.67981 310.8375 79.83151 313.8325 79.92609 315.70988 80.02065 317.5873 80.17235 320.6135 80.26692 322.51026 80.3615 324.40699 80.5132 327.46415 80.60777 329.38026 80.70235 331.29637 80.85403 334.38478 80.94861 336.32035 81.04318 338.2559 81.19487 341.3754 81.28944 343.33049 81.38402 345.28556 81.5357 348.43644 81.63028 350.41114 81.72485 352.38584 81.87656 355.56828 81.97113 357.5627 82.0657 359.55714 82.21739 362.77159 82.31197 364.78569 82.40654 366.79975 82.55823 370.04475 82.6528 372.07868 82.74738 374.1126 82.89908 377.39079 82.99364 379.44483 83.08821 381.49885 83.23991 384.80885 83.33449 386.88273 83.42906 388.9566 83.58076 392.29798 83.67532 394.392 83.7699 396.48609 83.92159 399.8609 84.01616 401.97529 84.11073 404.0897 84.26244 407.4967 84.357 409.6312 84.45157 411.7657 84.60327 415.20445 84.69785 417.35935 84.79242 419.51426 85.0387 425.16236 85.0387 425.16236"/>
</g>
</svg>
