<svg xmlns="http://www.w3.org/2000/svg" xmlns:xlink="http://www.w3.org/1999/xlink" version="1.1" width="292" height="154" viewBox="0 0 292 154">
<defs>
<path id="font_1_1" d="M.33399964 .30233766C.33999635 .32835389 .36299134 .42037965 .43299867 .42037965 .43798829 .42037965 .46199037 .42037965 .48298646 .40734864 .45498658 .402359 .43499757 .37734986 .43499757 .35334779 .43499757 .33735658 .44599916 .31835938 .47299195 .31835938 .49499513 .31835938 .5269928 .3363495 .5269928 .37635804 .5269928 .42837525 .46798707 .4423828 .43399049 .4423828 .37599183 .4423828 .34098817 .38935853 .32899476 .36634828 .3039856 .43237306 .25 .4423828 .22099304 .4423828 .116989139 .4423828 .05999756 .3133545 .05999756 .28834535 .05999756 .27833558 .069992069 .27833558 .07199097 .27833558 .07998657 .27833558 .08299255 .28033448 .084991458 .28933717 .11898804 .39535523 .18499756 .42037965 .21899414 .42037965 .23799134 .42037965 .272995 .4113617 .272995 .35334779 .272995 .32235719 .2559967 .25532533 .21899414 .11528015 .20298767 .053268434 .16799927 .011245728 .12399292 .011245728 .117996219 .011245728 .09498596 .011245728 .07398987 .024276734 .09899902 .029266358 .12098694 .05027771 .12098694 .07827759 .12098694 .105270389 .09899902 .11328125 .083999637 .11328125 .053985597 .11328125 .0289917 .08728027 .0289917 .055267335 .0289917 .009246826 .07899475-.0107421879 .12298584-.0107421879 .18899536-.0107421879 .22499085 .059280397 .22799683 .0652771 .23999024 .028274537 .27598573-.0107421879 .33599855-.0107421879 .43899537-.0107421879 .49598695 .118270877 .49598695 .14328003 .49598695 .1532898 .4869995 .1532898 .48399354 .1532898 .47499085 .1532898 .47299195 .14929199 .47099305 .14228821 .43798829 .03527832 .36999513 .011245728 .33799745 .011245728 .29899598 .011245728 .2829895 .043273927 .2829895 .07727051 .2829895 .09927368 .2889862 .121276859 .2999878 .16529846L.33399964 .30233766Z"/>
<path id="font_1_2" d="M.48599244 .38136292C.48999024 .39537049 .48999024 .39736939 .48999024 .40437318 .48999024 .42237855 .47599793 .43138124 .46099855 .43138124 .45098878 .43138124 .43499757 .42536927 .42599488 .41036988 .42399598 .405365 .41600038 .37435914 .4119873 .35635377 .40499879 .33035279 .397995 .30334474 .3919983 .27633668L.34700013 .09628296C.34298707 .08126831 .2999878 .011245728 .23399353 .011245728 .18299866 .011245728 .17199707 .055267335 .17199707 .0922699 .17199707 .1382904 .18899536 .20030213 .22299195 .28833009 .23899842 .3293457 .24299622 .3403473 .24299622 .36035157 .24299622 .405365 .21099854 .4423828 .16099549 .4423828 .06599426 .4423828 .0289917 .29733277 .0289917 .28833009 .0289917 .27833558 .038986207 .27833558 .040985109 .27833558 .050994874 .27833558 .051986696 .28033448 .056991579 .29634095 .083999637 .3903656 .12399292 .42037965 .1579895 .42037965 .1659851 .42037965 .18299866 .42037965 .18299866 .3883667 .18299866 .36335755 .17298889 .3373413 .1659851 .31834413 .12599182 .21231079 .10798645 .1552887 .10798645 .10827637 .10798645 .019256592 .17098999-.0107421879 .22999573-.0107421879 .2689972-.0107421879 .30299378 .0062561037 .33099366 .03425598 .31799317-.017745972 .30599977-.06674194 .2659912-.11973572 .23999024-.15385437 .20199585-.18309021 .1559906-.18309021 .14199829-.18309021 .09700012-.18005371 .07998657-.14074707 .09599304-.14074707 .10899353-.14074707 .12298584-.1287384 .1329956-.11973572 .14299011-.10673523 .14299011-.08773804 .14299011-.056747438 .115997318-.052734376 .10598755-.052734376 .08299255-.052734376 .049987794-.068740848 .049987794-.11773682 .049987794-.16796875 .09399414-.20507813 .1559906-.20507813 .25898744-.20507813 .3619995-.11373901 .3899994-.00074768069L.48599244 .38136292Z"/>
<clipPath id="clip_2">
<path transform="matrix(1.00003,0,0,-1.00006,143.23177,149.6102)" d="M-141.73404 0V141.73404H141.73404V0ZM141.73404 141.73404"/>
</clipPath>
</defs>
<path transform="matrix(1.00003,0,0,-1.00006,143.23177,149.6102)" stroke-width=".19925" stroke-linecap="butt" stroke-miterlimit="10" stroke-linejoin="miter" fill="none" stroke="#929292" stroke-opacity=".5" d="M-141.73404 0H141.73404M-141.73404 28.3468H141.73404M-141.73404 56.69362H141.73404M-141.73404 85.04042H141.73404M-141.73404 113.38724H141.73404M-141.73404 141.72409H141.73404M-141.73404 0V141.73404M-113.38724 0V141.73404M-85.04042 0V141.73404M-56.69362 0V141.73404M-28.3468 0V141.73404M0 0V141.73404M28.3468 0V141.73404M56.69362 0V141.73404M85.04042 0V141.73404M113.38724 0V141.73404M141.72409 0V141.73404M141.73404 141.73404"/>
<path transform="matrix(1.00003,0,0,-1.00006,143.23177,149.6102)" stroke-width="1.19553" stroke-linecap="butt" stroke-miterlimit="10" stroke-linejoin="miter" fill="none" stroke="#000000" d="M-141.73404 0H143.61248"/>
<path transform="matrix(1.00003,0,0,-1.00006,286.84858,149.6102)" stroke-width=".9564" stroke-linecap="round" stroke-linejoin="round" fill="none" stroke="#000000" d="M-1.91284 2.55046C-1.75343 1.59402 0 .15938 .4782 0 0-.15938-1.75343-1.59402-1.91284-2.55046"/>
<use data-text="x" xlink:href="#font_1_1" transform="matrix(9.962899,0,0,-9.963197,284.958,145.69197)"/>
<path transform="matrix(1.00003,0,0,-1.00006,143.23177,149.6102)" stroke-width="1.19553" stroke-linecap="butt" stroke-miterlimit="10" stroke-linejoin="miter" fill="none" stroke="#000000" d="M0 0V143.61248"/>
<path transform="matrix(0,-1.00006,-1.00003,-0,143.23177,5.9891207)" stroke-width=".9564" stroke-linecap="round" stroke-linejoin="round" fill="none" stroke="#000000" d="M-1.91284 2.55046C-1.75343 1.59402 0 .15938 .4782 0 0-.15938-1.75343-1.59402-1.91284-2.55046"/>
<use data-text="y" xlink:href="#font_1_2" transform="matrix(9.962899,0,0,-9.963197,147.14989,6.208603)"/>
<g clip-path="url(#clip_2)">
<path transform="matrix(1.00003,0,0,-1.00006,143.23177,149.6102)" stroke-width=".79701" stroke-linecap="butt" stroke-miterlimit="10" stroke-linejoin="miter" fill="none" stroke="#0000ff" d="M-141.73404 708.6702C-141.73404 708.6702-141.52902 706.6212-141.4503 705.8354-141.37157 705.04959-141.24529 703.7908-141.16655 703.0066-141.08782 702.22238-140.96154 700.966-140.88282 700.1834-140.80408 699.40078-140.6778 698.1469-140.59906 697.36587-140.52033 696.5848-140.39405 695.33346-140.31533 694.5539-140.23659 693.7744-140.1103 692.5256-140.03157 691.7476-139.95284 690.96969-139.82656 689.72329-139.74784 688.94699-139.6691 688.1706-139.54282 686.92709-139.46408 686.1523-139.38535 685.3775-139.25907 684.13607-139.18035 683.36288-139.10161 682.58969-138.97533 681.3511-138.89659 680.5795-138.81786 679.80789-138.69158 678.5718-138.61286 677.80178-138.53412 677.0317-138.40784 675.7981-138.3291 675.0296-138.25037 674.2611-138.12409 673.0299-138.04537 672.26309-137.96663 671.4962-137.84035 670.2679-137.76161 669.5026-137.68288 668.73739-137.5566 667.5111-137.47788 666.7473-137.39914 665.9836-137.27286 664.7603-137.19412 663.99819-137.11539 663.23599-136.9891 662.0147-136.91039 661.25418-136.83165 660.4935-136.70537 659.27517-136.62664 658.5162-136.5479 657.75717-136.42162 656.54129-136.3429 655.7838-136.26416 655.0264-136.13788 653.813-136.05915 653.05709-135.98041 652.3012-135.85413 651.0902-135.77539 650.336-135.69667 649.5817-135.57039 648.37368-135.49166 647.6209-135.41292 646.8683-135.28664 645.66226-135.2079 644.9111-135.12918 644.16-135.0029 642.95687-134.92417 642.2073-134.84543 641.4578-134.71915 640.25717-134.64041 639.50918-134.56169 638.76119-134.43541 637.5626-134.35668 636.81619-134.27794 636.0697-134.15166 634.87399-134.07292 634.1292-133.9942 633.38449-133.86792 632.1916-133.78919 631.44839-133.71045 630.70516-133.58417 629.5144-133.50543 628.7727-133.42671 628.031-133.30043 626.8427-133.2217 626.1026-133.14296 625.36257-133.01668 624.17709-132.93795 623.4386-132.85923 622.70016-132.73294 621.5172-132.6542 620.7802-132.57547 620.0433-132.44919 618.8625-132.37046 618.1271-132.29174 617.39169-132.16545 616.2137-132.08672 615.4799-132.00798 614.74618-131.8817 613.57058-131.80297 612.83847-131.72425 612.10629-131.59796 610.93356-131.51923 610.20297-131.44049 609.47238-131.31421 608.3018-131.23548 607.5727-131.15676 606.84359-131.03047 605.67556-130.95174 604.94808-130.873 604.2206-130.74672 603.05538-130.66799 602.32949-130.58927 601.6036-130.46298 600.4408-130.38425 599.7165-130.30551 598.9922-130.17923 597.8319-130.1005 597.10916-130.02178 596.3864-129.8955 595.22866-129.81676 594.50747-129.73802 593.78628-129.61174 592.631-129.533 591.9114-129.45429 591.1917-129.328 590.03897-129.24927 589.32089-129.17053 588.60287-129.04425 587.45248-128.96552 586.736-128.8868 586.0196-128.76052 584.8721-128.68178 584.1572-128.60305 583.44247-128.47676 582.29739-128.39803 581.5841-128.3193 580.87088-128.19303 579.7283-128.11429 579.01657-128.03556 578.3048-127.90927 577.1643-127.83054 576.45419-127.75182 575.7441-127.62552 574.6068-127.5468 573.8983-127.46806 573.1898-127.34178 572.0547-127.26305 571.34768-127.18433 570.6406-127.05803 569.508-126.97931 568.80258-126.90057 568.09719-126.77429 566.9674-126.69556 566.26358-126.61684 565.55978-126.49054 564.43209-126.41182 563.7298-126.33308 563.0275-126.2068 561.9027-126.12807 561.202-126.04935 560.50137-125.92305 559.379-125.84433 558.6799-125.7656 557.9808-125.63931 556.8609-125.56058 556.1634-125.48186 555.4658-125.35556 554.34848-125.27684 553.6525-125.1981 552.95657-125.07182 551.8416-124.99309 551.1473-124.91435 550.4529-124.78807 549.3408-124.70935 548.648-124.63062 547.95529-124.50433 546.8453-124.4256 546.15408-124.34686 545.4628-124.22058 544.35568-124.14186 543.6661-124.06313 542.97647-123.93684 541.8718-123.85811 541.1837-123.77937 540.49569-123.65309 539.3935-123.57437 538.70706-123.49564 538.02059-123.36935 536.92086-123.29062 536.2359-123.21188 535.551-123.0856 534.45388-123.00688 533.77047-122.92815 533.0871-122.80186 531.9924-122.72313 531.3106-122.6444 530.6289-122.51811 529.53707-122.43939 528.8568-122.36066 528.17666-122.23438 527.08688-122.15564 526.4082-122.0769 525.7296-121.95062 524.6427-121.8719 523.9657-121.79317 523.2887-121.66689 522.2042-121.58815 521.5288-121.50941 520.85336-121.38313 519.77139-121.30441 519.0975-121.22568 518.4236-121.0994 517.3441-121.02066 516.6718-120.94193 515.99948-120.81564 514.9225-120.73692 514.2518-120.65819 513.58108-120.5319 512.5069-120.45317 511.83775-120.37444 511.1686-120.24815 510.09654-120.16943 509.42897-120.0907 508.76139-119.96442 507.69218-119.88568 507.0262-119.80695 506.36024-119.68066 505.29356-119.60194 504.6291-119.52321 503.96464-119.39693 502.9-119.31819 502.23716-119.23946 501.5743-119.11317 500.5129-119.03445 499.8517-118.95572 499.1905-118.82944 498.13117-118.7507 497.47145-118.67197 496.8117-118.54568 495.75498-118.46696 495.0968-118.38823 494.43864-118.26195 493.38435-118.18321 492.7278-118.10448 492.07127-117.9782 491.01979-117.89948 490.36485-117.82074 489.70994-117.69446 488.6609-117.61572 488.0075-117.53699 487.35417-117.4107 486.3076-117.33199 485.6558-117.25325 485.004-117.12697 483.95997-117.04823 483.30973-116.9695 482.6595-116.84322 481.61796-116.76448 480.96925-116.68576 480.32057-116.55948 479.28157-116.48074 478.6344-116.40201 477.9873-116.27573 476.9507-116.19699 476.3052-116.11827 475.6597-115.99199 474.62593-115.91325 473.98204-115.83452 473.33815-115.70824 472.3069-115.6295 471.6645-115.55078 471.02214-115.4245 469.99299-115.34576 469.35218-115.26703 468.71134-115.14075 467.68507-115.06201 467.04585-114.98329 466.40666-114.85701 465.38279-114.77827 464.7452-114.69954 464.1076-114.57326 463.0866-114.49452 462.4506-114.4158 461.81459-114.28952 460.7957-114.21078 460.16117-114.13205 459.52665-114.00577 458.51026-113.92703 457.87736-113.84831 457.24446-113.72203 456.23088-113.6433 455.5996-113.56456 454.96833-113.43828 453.95726-113.35954 453.32749-113.28082 452.69773-113.15454 451.68879-113.0758 451.06056-112.99707 450.43235-112.87079 449.4262-112.79205 448.79969-112.71333 448.17314-112.58705 447.16984-112.50832 446.54487-112.42958 445.9199-112.3033 444.91874-112.22456 444.29524-112.14584 443.67176-112.01956 442.67308-111.94083 442.0512-111.86209 441.42939-111.73581 440.43357-111.65707 439.81327-111.57835 439.19297-111.45207 438.19923-111.37334 437.5805-111.2946 436.96177-111.16832 435.9709-111.08958 435.3538-111.01086 434.7367-110.88458 433.7483-110.80585 433.13273-110.72711 432.51719-110.60083 431.53126-110.5221 430.91728-110.44337 430.30329-110.3171 429.31983-110.23836 428.70744-110.15962 428.09507-110.03334 427.11448-109.9546 426.50367-109.87589 425.89283-109.7496 424.9143-109.67087 424.30506-109.59213 423.6958-109.46585 422.7202-109.38712 422.11253-109.3084 421.50483-109.18211 420.5313-109.10338 419.92518-109.02464 419.31904-108.89836 418.3484-108.81963 417.74388-108.7409 417.13938-108.61461 416.17118-108.53589 415.5682-108.45715 414.96528-108.33087 413.99958-108.25214 413.39817-108.17342 412.79679-108.04712 411.83354-107.9684 411.23377-107.88966 410.63398-107.76338 409.6736-107.68465 409.07539-107.60593 408.47718-107.47963 407.51887-107.40091 406.9222-107.32217 406.3256-107.19589 405.37013-107.11716 404.7751-107.03844 404.18006-106.91214 403.22709-106.83342 402.6336-106.75468 402.04014-106.6284 401.08964-106.54967 400.49775-106.47095 399.90583-106.34465 398.95783-106.26593 398.3675-106.1872 397.7771-106.06091 396.83164-105.98218 396.24284-105.90344 395.65406-105.77716 394.711-105.69844 394.12385-105.6197 393.53669-105.49342 392.5965-105.41469 392.0109-105.33595 391.4253-105.20967 390.4872-105.13095 389.90315-105.05222 389.3191-104.92593 388.38389-104.8472 387.80146-104.76846 387.21903-104.64218 386.28623-104.56346 385.70539-104.48473 385.1245-104.35844 384.1942-104.27971 383.6149-104.20097 383.0356-104.07469 382.10783-103.99597 381.53007-103.91724 380.95234-103.79095 380.02705-103.71222 379.45085-103.63348 378.8747-103.5072 377.95185-103.42848 377.37727-103.34975 376.80274-103.22346 375.88276-103.14473 375.30976-103.066 374.73674-102.93971 373.81886-102.861 373.2474-102.78226 372.67597-102.65598 371.76094-102.57724 371.1911-102.4985 370.62129-102.37222 369.7087-102.2935 369.14048-102.21477 368.5722-102.08849 367.6621-102.00975 367.0954-101.93102 366.5287-101.80473 365.6211-101.72601 365.056-101.64728 364.4909-101.521 363.58616-101.44226 363.02265-101.36353 362.4591-101.23724 361.5564-101.15852 360.99446-101.07979 360.4325-100.9535 359.53276-100.87477 358.97236-100.79604 358.41194-100.66975 357.51429-100.59103 356.95545-100.5123 356.39659-100.38602 355.5018-100.30728 354.94456-100.22855 354.38734-100.10226 353.49497-100.02354 352.9393-99.94481 352.38365-99.81853 351.4938-99.73979 350.93968-99.66106 350.3856-99.53477 349.49818-99.45605 348.9457-99.37732 348.3932-99.25104 347.50868-99.1723 346.95774-99.09357 346.4068-98.96729 345.52436-98.88857 344.97499-98.80983 344.42564-98.68355 343.54606-98.60481 342.9983-98.52608 342.45057-98.3998 341.57344-98.32108 341.0272-98.24234 340.48097-98.11606 339.606-98.03732 339.06135-97.95859 338.51667-97.8323 337.6445-97.75357 337.1015-97.67485 336.5585-97.54857 335.68916-97.46983 335.1477-97.3911 334.6063-97.26482 333.7391-97.18608 333.19914-97.10736 332.6592-96.98108 331.7945-96.90234 331.2562-96.82361 330.71788-96.69733 329.85597-96.61859 329.31929-96.53987 328.7826-96.41359 327.9232-96.33485 327.388-96.25612 326.85279-96.12984 325.99555-96.0511 325.4619-95.97238 324.92829-95.8461 324.07389-95.76736 323.54185-95.68863 323.00984-95.56235 322.15785-95.48361 321.62745-95.40489 321.09706-95.27861 320.24794-95.19987 319.7191-95.12114 319.19026-94.99486 318.34327-94.91612 317.81593-94.8374 317.2886-94.71112 316.4441-94.63239 315.91838-94.55365 315.39268-94.42737 314.551-94.34863 314.0269-94.26991 313.5028-94.14363 312.66358-94.0649 312.14103-93.98616 311.61848-93.85988 310.78175-93.78114 310.2608-93.70242 309.7398-93.57614 308.90559-93.4974 308.38618-93.41867 307.86677-93.29239 307.03504-93.21365 306.51719-93.13493 305.9993-93.00865 305.1701-92.92992 304.6538-92.85118 304.1375-92.7249 303.3107-92.64616 302.79606-92.56744 302.28138-92.44116 301.4574-92.36243 300.94435-92.28369 300.4313-92.15741 299.60978-92.07867 299.09828-91.99995 298.5868-91.87367 297.76783-91.79494 297.25785-91.7162 296.74784-91.58992 295.93095-91.51118 295.42256-91.43246 294.9142-91.30618 294.10054-91.22745 293.5938-91.14871 293.08705-91.02243 292.27549-90.9437 291.77024-90.86497 291.26496-90.7387 290.4559-90.65996 289.95228-90.58122 289.44865-90.45494 288.64244-90.3762 288.14039-90.29749 287.63829-90.1712 286.83415-90.09247 286.33366-90.01373 285.83317-89.88745 285.0319-89.80872 284.533-89.73 284.0341-89.6037 283.2353-89.52498 282.73796-89.44624 282.24064-89.31996 281.4443-89.24123 280.94856-89.1625 280.45277-89.03621 279.65898-88.95749 279.16477-88.87875 278.67057-88.75247 277.8792-88.67374 277.3866-88.59502 276.894-88.46872 276.1055-88.39 275.6145-88.31126 275.12348-88.18498 274.33705-88.10625 273.8476-88.02753 273.35813-87.90123 272.57456-87.82251 272.0867-87.74377 271.59886-87.6175 270.81776-87.53876 270.33149-87.46004 269.84519-87.33374 269.0666-87.25502 268.58186-87.17628 268.0971-87.05 267.321-86.97127 266.83787-86.89253 266.35469-86.76625 265.5811-86.68753 265.0995-86.6088 264.6179-86.48251 263.84675-86.40378 263.36674-86.32504 262.88676-86.19876 262.11848-86.12004 261.64006-86.0413 261.16166-85.91502 260.39543-85.83629 259.91856-85.75755 259.44169-85.63127 258.67835-85.55255 258.20314-85.47382 257.72789-85.34753 256.96696-85.2688 256.4933-85.19006 256.0196-85.06378 255.26122-84.98506 254.7891-84.90633 254.31696-84.78004 253.56107-84.70131 253.09052-84.62257 252.61995-84.49629 251.86649-84.41757 251.39756-84.33884 250.92862-84.21255 250.17804-84.13382 249.71065-84.05508 249.24327-83.9288 248.49477-83.85008 248.02895-83.77135 247.56313-83.64507 246.81749-83.56633 246.3533-83.4876 245.8891-83.36131 245.14597-83.2826 244.68328-83.20386 244.22057-83.07758 243.47949-82.99884 243.01842-82.9201 242.55735-82.79382 241.81954-82.7151 241.36008-82.63637 240.9006-82.51009 240.16487-82.43135 239.70691-82.35262 239.24897-82.22633 238.51578-82.14761 238.05939-82.06888 237.603-81.9426 236.87226-81.86386 236.41747-81.78513 235.96268-81.65884 235.23477-81.58012 234.78162-81.50139 234.32846-81.3751 233.60295-81.29637 233.15137-81.21764 232.69979-81.09135 231.9768-81.01263 231.52677-80.9339 231.07672-80.80762 230.35625-80.72888 229.90776-80.65015 229.45929-80.52386 228.7413-80.44514 228.29439-80.36641 227.84749-80.24013 227.13202-80.16139 226.68666-80.08266 226.2413-79.95638 225.52828-79.87766 225.08455-79.79892 224.64081-79.67264 223.93059-79.5939 223.48848-79.51517 223.04636-79.38889 222.33864-79.31017 221.89803-79.23143 221.45742-79.10515 220.75183-79.02641 220.31278-78.94768 219.87374-78.8214 219.17102-78.74266 218.73358-78.66394 218.29615-78.53766 217.59583-78.45892 217.16-78.38019 216.7242-78.2539 216.02675-78.17517 215.59249-78.09645 215.15824-77.97017 214.46292-77.89143 214.03017-77.8127 213.59741-77.68642 212.90459-77.60768 212.47345-77.52896 212.04233-77.40268 211.35233-77.32394 210.9228-77.24521 210.49329-77.11893 209.8058-77.04019 209.37778-76.96147 208.94977-76.83519 208.26439-76.75645 207.83795-76.67772 207.4115-76.55144 206.72895-76.4727 206.30417-76.39398 205.8794-76.2677 205.19966-76.18896 204.77645-76.11023 204.35324-75.98395 203.67563-75.90521 203.2539-75.82649 202.83219-75.70021 202.15709-75.62148 201.737-75.54274 201.31691-75.41646 200.64467-75.33772 200.22615-75.259 199.80762-75.13272 199.13745-75.05399 198.72048-74.97525 198.30352-74.84897 197.63622-74.77023 197.22087-74.69151 196.80551-74.56523 196.14067-74.4865 195.7269-74.40776 195.31311-74.28148 194.65076-74.20274 194.23853-74.12402 193.8263-73.99774 193.1664-73.919 192.75579-73.84027 192.34519-73.71399 191.68814-73.63525 191.2791-73.55653 190.87006-73.43025 190.2151-73.35152 189.8076-73.27278 189.40012-73.1465 188.7481-73.06776 188.34217-72.98904 187.93625-72.86276 187.28629-72.78403 186.88191-72.70529 186.47754-72.57901 185.83046-72.50027 185.42772-72.42155 185.02498-72.29527 184.38034-72.21654 183.97916-72.1378 183.57798-72.01152 182.93584-71.93279 182.53621-71.85406 182.13658-71.72778 181.49689-71.64905 181.09888-71.57031 180.70088-71.44403 180.06406-71.3653 179.66762-71.28658 179.27118-71.1603 178.63642-71.08156 178.24153-71.00282 177.84665-70.87654 177.21479-70.7978 176.82152-70.71909 176.42826-70.59279 175.79883-70.51407 175.40712-70.43533 175.01541-70.30905 174.38849-70.23032 173.99834-70.1516 173.6082-70.0253 172.98377-69.94658 172.59519-69.86784 172.2066-69.74156 171.58467-69.66283 171.19765-69.5841 170.81063-69.45781 170.19116-69.37909 169.80576-69.30035 169.42035-69.17407 168.80373-69.09534 168.41989-69.01662 168.03606-68.89032 167.42153-68.8116 167.03925-68.73286 166.65695-68.60658 166.04529-68.52785 165.66463-68.44911 165.28397-68.32283 164.67476-68.24411 164.29566-68.16537 163.91654-68.0391 163.30983-67.96036 162.93228-67.88162 162.55475-67.75534 161.95053-67.67662 161.57456-67.59789 161.19858-67.4716 160.59687-67.39287 160.22245-67.31413 159.84803-67.18785 159.24875-67.10913 158.87595-67.0304 158.50315-66.90411 157.90674-66.82538 157.5355-66.74664 157.16428-66.62036 156.56996-66.54164 156.20027-66.4629 155.8306-66.33662 155.23914-66.25789 154.87108-66.17915 154.50302-66.05287 153.91402-65.97415 153.54752-65.89542 153.18102-65.76913 152.5945-65.6904 152.22957-65.61166 151.86463-65.48538 151.28057-65.40666 150.91725-65.32793 150.55394-65.20164 149.97274-65.12291 149.61098-65.04417 149.24922-64.9179 148.6701-64.83917 148.30992-64.76044 147.94972-64.63416 147.37352-64.55542 147.0149-64.47668 146.65627-64.3504 146.08214-64.27168 145.72507-64.19295 145.36798-64.06667 144.79674-63.98793 144.44129-63.9092 144.08583-63.78291 143.51703-63.7042 143.16313-63.62546 142.80924-63.49918 142.24295-63.42044 141.89061-63.3417 141.53827-63.21542 140.97441-63.1367 140.6237-63.05797 140.273-62.93169 139.71202-62.85295 139.36287-62.77422 139.0137-62.64793 138.45479-62.56921 138.1072-62.49048 137.75962-62.3642 137.20357-62.28546 136.85759-62.20673 136.51163-62.08044 135.9581-62.00172 135.61362-61.92299 135.26914-61.7967 134.71776-61.71797 134.37485-61.63924 134.03192-61.51295 133.48334-61.43423 133.14209-61.3555 132.80086-61.22922 132.2551-61.15048 131.91542-61.07175 131.57575-60.94547 131.0321-60.86674 130.69394-60.78801 130.35578-60.66173 129.81462-60.583 129.47808-60.50426 129.14151-60.37798 128.6032-60.29924 128.26827-60.22052 127.93333-60.09424 127.39749-60.0155 127.06407-59.93677 126.73065-59.81049 126.19695-59.73175 125.86508-59.65303 125.5332-59.52675 125.0024-59.44801 124.67215-59.36928 124.3419-59.243 123.81346-59.16426 123.48483-59.08554 123.15619-58.95926 122.63063-58.88052 122.30356-58.80179 121.97649-58.6755 121.45305-58.59677 121.12749-58.51805 120.80193-58.39177 120.28099-58.31303 119.95705-58.2343 119.63309-58.10802 119.11497-58.02928 118.79265-57.95056 118.47032-57.82428 117.95465-57.74554 117.6339-57.66681 117.31313-57.54053 116.79996-57.46179 116.48074-57.38307 116.16153-57.25679 115.65085-57.17805 115.3332-57.09932 115.01556-56.97304 114.50739-56.8943 114.19131-56.81558 113.87523-56.6893 113.36957-56.61057 113.05504-56.53183 112.74051-56.40555 112.23727-56.32681 111.92438-56.2481 111.61148-56.12181 111.11107-56.04308 110.79977-55.96434 110.4885-55.83806 109.99054-55.75932 109.6808-55.6806 109.37108-55.55432 108.87569-55.47559 108.56746-55.39685 108.25925-55.27057 107.7659-55.19183 107.45929-55.11311 107.1527-54.98683 106.66261-54.9081 106.35762-54.82936 106.05264-54.70308 105.5646-54.62434 105.26114-54.54562 104.95766-54.41934 104.47214-54.3406 104.17027-54.26187 103.86841-54.13559 103.38577-54.05685 103.08548-53.97813 102.78517-53.85185 102.3046-53.77312 102.00584-53.69438 101.70709-53.5681 101.22942-53.48936 100.9323-53.41064 100.63518-53.28436 100.15991-53.20563 99.86436-53.12689 99.5688-53.00061 99.09605-52.92188 98.80205-52.84315 98.50804-52.71687 98.0378-52.63814 97.74536-52.5594 97.45291-52.43312 96.9851-52.35439 96.69429-52.27567 96.40347-52.14937 95.93854-52.07065 95.64928-51.99191 95.36002-51.86563 94.89716-51.7869 94.60947-51.70818 94.32176-51.58188 93.86177-51.50316 93.57568-51.42442 93.2896-51.29814 92.83206-51.2194 92.54755-51.14069 92.26302-51.01439 91.80798-50.93567 91.52502-50.85693 91.24207-50.73065 90.78954-50.65192 90.50813-50.5732 90.22673-50.4469 89.77669-50.36818 89.49686-50.28944 89.21701-50.16316 88.76941-50.08443 88.4912-50.0057 88.21298-49.87941 87.76826-49.80069 87.49161-49.72195 87.21495-49.59567 86.7723-49.51694 86.4972-49.4382 86.2221-49.31192 85.78232-49.2332 85.50885-49.15446 85.23538-49.02818 84.79803-48.94945 84.52612-48.87071 84.25421-48.74443 83.81937-48.66571 83.54901-48.58698 83.27867-48.4607 82.84633-48.38196 82.57755-48.30322 82.30876-48.17694 81.87886-48.09822 81.6117-48.01949 81.34451-47.8932 80.9175-47.81447 80.65189-47.73573 80.38628-47.60945 79.96133-47.53073 79.69728-47.452 79.43321-47.32571 79.01115-47.24698 78.74872-47.16824 78.48628-47.04196 78.06671-46.96324 77.80579-46.8845 77.54486-46.75822 77.12735-46.67949 76.86804-46.60075 76.60872-46.47447 76.19449-46.39575 75.9368-46.31702 75.67911-46.19073 75.26692-46.112 75.01071-46.03326 74.75452-45.90698 74.34492-45.82826 74.09029-45.74953 73.83565-45.62325 73.42847-45.54451 73.17546-45.46577 72.92245-45.3395 72.5181-45.26077 72.26671-45.18204 72.0153-45.05576 71.6134-44.97702 71.36357-44.89828 71.11374-44.772 70.71431-44.69328 70.46605-44.61455 70.21777-44.48827 69.82088-44.40953 69.57416-44.3308 69.32744-44.20451 68.93303-44.1258 68.68788-44.04706 68.44273-43.92078 68.05083-43.84204 67.80724-43.7633 67.56363-43.63702 67.17418-43.5583 66.9322-43.47957 66.69023-43.35329 66.30359-43.27455 66.06325-43.19582 65.8229-43.06953 65.43875-42.99081 65.19989-42.91208 64.96104-42.7858 64.57903-42.70706 64.34174-42.62833 64.10446-42.50204 63.7253-42.42332 63.48964-42.34459 63.25398-42.2183 62.87721-42.13957 62.64316-42.06084 62.40912-41.93456 62.03522-41.85583 61.80273-41.7771 61.57025-41.65082 61.19849-41.57208 60.96751-41.49335 60.73653-41.36707 60.36728-41.28833 60.13791-41.20961 59.90854-41.08333 59.5421-41.0046 59.31436-40.92586 59.08661-40.79958 58.72269-40.72084 58.49643-40.64212 58.27017-40.51584 57.90837-40.4371 57.68369-40.35837 57.459-40.23209 57.09999-40.15335 56.877-40.07463 56.65399-39.94835 56.2978-39.86961 56.07637-39.79088 55.85492-39.6646 55.50089-39.58586 55.28094-39.50714 55.06099-39.38086 54.70944-39.30212 54.49112-39.22339 54.2728-39.0971 53.92413-39.01837 53.70737-38.93965 53.4906-38.81337 53.144-38.73463 52.9288-38.6559 52.7136-38.52962 52.36986-38.45088 52.15628-38.37216 51.94269-38.24588 51.60143-38.16714 51.3894-38.08841 51.17738-37.96213 50.8386-37.88339 50.62813-37.80467 50.41768-37.67839 50.08133-37.59966 49.87248-37.52092 49.66364-37.39464 49.33017-37.3159 49.1229-37.23718 48.9156-37.1109 48.58421-37.03217 48.3785-36.95343 48.17278-36.82715 47.84431-36.74841 47.64015-36.6697 47.43599-36.54341 47.1096-36.46468 46.907-36.38594 46.7044-36.25966 46.38089-36.18092 46.1799-36.1022 45.97893-35.97592 45.65784-35.89719 45.45842-35.81845 45.259-35.69217 44.94043-35.61343 44.74258-35.53471 44.54472-35.40843 44.22859-35.3297 44.03235-35.25096 43.83612-35.12468 43.52286-35.04594 43.32819-34.96722 43.13351-34.84094 42.82231-34.7622 42.6292-34.68347 42.43608-34.55719 42.12778-34.47845 41.93628-34.39973 41.74478-34.27345 41.4389-34.19472 41.24896-34.11598 41.05904-33.9897 40.75568-33.91096 40.56729-33.83224 40.3789-33.70596 40.07805-33.62723 39.89124-33.5485 39.7044-33.42221 39.40604-33.34348 39.2208-33.26476 39.03554-33.13846 38.73964-33.05974 38.556-32.981 38.37236-32.85472 38.0793-32.77599 37.89723-32.69727 37.71516-32.57097 37.42418-32.49225 37.24367-32.41351 37.06316-32.28723 36.77505-32.2085 36.59616-32.12978 36.41725-32.00348 36.13159-31.92476 35.95427-31.84602 35.77693-31.71974 35.49377-31.641 35.31801-31.56229 35.14224-31.43599 34.86157-31.35727 34.68736-31.27853 34.51315-31.15225 34.235-31.07352 34.06235-30.9948 33.88971-30.8685 33.614-30.78978 33.44296-30.71104 33.27193-30.58476 32.9991-30.50603 32.82962-30.42729 32.66016-30.30101 32.38937-30.22229 32.22147-30.14355 32.05356-30.01727 31.78568-29.93854 31.61938-29.8598 31.45308-29.73352 31.18764-29.6548 31.02292-29.57607 30.85818-29.44978 30.59521-29.37105 30.43205-29.29231 30.26889-29.16603 30.00839-29.08731 29.84685-29.00858 29.68529-28.8823 29.42764-28.80356 29.26767-28.72482 29.10768-28.59854 28.85213-28.51982 28.6937-28.44109 28.53526-28.3148 28.28264-28.23607 28.12576-28.15733 27.9689-28.03105 27.71834-27.95233 27.56303-27.8736 27.40773-27.74731 27.16005-27.66858 27.00635-27.58984 26.85266-27.46356 26.60744-27.38484 26.4553-27.3061 26.30319-27.17982 26.06044-27.10109 25.90988-27.02235 25.75932-26.89607 25.51903-26.81735 25.37007-26.73862 25.22113-26.61234 24.9837-26.5336 24.83632-26.45486 24.68893-26.32858 24.4536-26.24986 24.30775-26.17113 24.16193-26.04485 23.92946-25.96611 23.78525-25.88737 23.64105-25.7611 23.41107-25.68237 23.26837-25.60364 23.12567-25.47736 22.89783-25.39862 22.75667-25.31989 22.61552-25.1936 22.3905-25.11488 22.25104-25.03615 22.11157-24.90987 21.88936-24.83113 21.75145-24.7524 21.61356-24.62611 21.39348-24.5474 21.25706-24.46866 21.12067-24.34238 20.90308-24.26364 20.7683-24.1849 20.63351-24.05862 20.41876-23.9799 20.28558-23.90117 20.15242-23.77489 19.94016-23.69615 19.80849-23.61742 19.67682-23.49113 19.46669-23.41241 19.3366-23.33368 19.2065-23.2074 18.99924-23.12866 18.87076-23.04993 18.74226-22.92365 18.53738-22.84492 18.41054-22.76619 18.28368-22.63991 18.08167-22.56117 17.95638-22.48244 17.83107-22.35616 17.6312-22.27742 17.5074-22.1987 17.38359-22.07242 17.18622-21.99368 17.06404-21.91495 16.94186-21.78867 16.74731-21.70993 16.62674-21.63121 16.50618-21.50493 16.31407-21.4262 16.19507-21.34746 16.07607-21.22118 15.88646-21.14244 15.76901-21.06372 15.65158-20.93744 15.46448-20.8587 15.34859-20.77997 15.23271-20.65369 15.04811-20.57495 14.93379-20.49623 14.81947-20.36995 14.63737-20.29121 14.52461-20.21248 14.41187-20.0862 14.2322-20.00746 14.12105-19.92874 14.0099-19.80246 13.83307-19.72372 13.72354-19.64499 13.61403-19.5187 13.43962-19.43997 13.33167-19.36125 13.22372-19.23497 13.05188-19.15623 12.94542-19.0775 12.83896-18.95122 12.66919-18.87248 12.56435-18.79376 12.45952-18.66748 12.293-18.58875 12.18977-18.51001 12.08655-18.38373 11.9221-18.305 11.82039-18.22627 11.71866-18.09999 11.5567-18.02126 11.45662-17.94252 11.35652-17.81624 11.19745-17.7375 11.0989-17.65878 11.00037-17.5325 10.84337-17.45377 10.7464-17.37503 10.64941-17.24875 10.49527-17.17001 10.39992-17.0913 10.30458-16.96501 10.1529-16.88628 10.0591-16.80754 9.9653-16.68126 9.8161-16.60252 9.72388-16.5238 9.63165-16.39752 9.48497-16.31879 9.39429-16.24005 9.3036-16.11377 9.15936-16.03503 9.07031-15.95631 8.98126-15.83003 8.83989-15.7513 8.7524-15.67256 8.6649-15.54628 8.52559-15.46754 8.43967-15.38882 8.35373-15.26254 8.2173-15.1838 8.133-15.10507 8.04868-14.97879 7.91469-14.90005 7.83194-14.82133 7.7492-14.69505 7.61772-14.61632 7.53653-14.53758 7.45534-14.4113 7.32635-14.33257 7.24673-14.25385 7.1671-14.12755 7.04062-14.04883 6.96254-13.9701 6.88446-13.84381 6.76045-13.76508 6.684-13.68636 6.60754-13.56006 6.48639-13.48134 6.4115-13.4026 6.33662-13.27632 6.21753-13.19759 6.1442-13.11887 6.07086-12.99257 5.95464-12.91385 5.88293-12.83511 5.81122-12.70883 5.69745-12.6301 5.6273-12.55138 5.55716-12.42508 5.44589-12.34636 5.3773-12.26762 5.3087-12.14134 5.19994-12.0626 5.1329-11.98389 5.06589-11.85759 4.95955-11.77887 4.89415-11.70013 4.82875-11.57385 4.7253-11.49512 4.66145-11.41638 4.5976-11.2901 4.49622-11.21138 4.43394-11.13264 4.37166-11.00636 4.27315-10.92763 4.21248-10.84889 4.15181-10.72261 4.0558-10.64389 3.99664-10.56516 3.93747-10.43887 3.84352-10.36014 3.78598-10.2814 3.72844-10.15512 3.63777-10.0764 3.58183-9.99767 3.52591-9.87138 3.43729-9.79265 3.38286-9.71391 3.32843-9.58763 3.24237-9.50891 3.18951-9.43018 3.13666-9.3039 3.05305-9.22516 3.0018-9.14642 2.95056-9.02014 2.86975-8.94142 2.82013-8.86269 2.77051-8.7364 2.69215-8.65767 2.64409-8.57893 2.59602-8.45265 2.52017-8.37393 2.47368-8.2952 2.42717-8.16891 2.3538-8.09018 2.30887-8.01144 2.26393-7.88516 2.19308-7.80644 2.1497-7.7277 2.10632-7.60143 2.03796-7.52269 1.99615-7.44395 1.95433-7.31767 1.88841-7.23895 1.84822-7.16022 1.80803-7.03394 1.74493-6.9552 1.70636-6.87646 1.66777-6.75018 1.60718-6.67146 1.5701-6.59273 1.53302-6.46645 1.47456-6.38771 1.43904-6.30898 1.40352-6.1827 1.34793-6.10397 1.31404-6.02524 1.28014-5.89896 1.22693-5.82022 1.19466-5.74149 1.16238-5.6152 1.11205-5.53648 1.08133-5.45775 1.0506-5.33147 1.00241-5.25273 .97319-5.174 .94397-5.04771 .89827-4.969 .87068-4.89026 .8431-4.76398 .80022-4.68524 .77423-4.6065 .74825-4.48022 .70787-4.4015 .6834-4.32277 .65892-4.19649 .62067-4.11775 .59775-4.03902 .57483-3.91273 .5394-3.83401 .51817-3.75528 .49693-3.629 .46431-3.55026 .44464-3.47153 .42496-3.34525 .39447-3.26651 .37628-3.18779 .35811-3.06151 .33014-2.98277 .31358-2.90404 .29703-2.77776 .2719-2.69902 .25691-2.6203 .24191-2.49402 .21889-2.41528 .20544-2.33655 .192-2.21027 .17183-2.13153 .16002-2.05281 .14821-1.92653 .1305-1.8478 .12022-1.76906 .10997-1.64278 .09476-1.56404 .08606-1.48532 .07738-1.35904 .06459-1.2803 .05751-1.20157 .05045-1.07529 .04054-.99655 .03502-.91783 .0295-.79155 .02167-.71281 .01772-.63408 .01376-.5078 .00885-.42906 .00647-.35034 .00407-.14532 .00041-.14532 .00041"/>
</g>
</svg>
