<svg xmlns="http://www.w3.org/2000/svg" xmlns:xlink="http://www.w3.org/1999/xlink" version="1.1" width="307" height="167" viewBox="0 0 307 167">
<defs>
<path id="font_1_2" d="M.33399964 .30233766C.33999635 .32835389 .36299134 .42037965 .43299867 .42037965 .43798829 .42037965 .46199037 .42037965 .48298646 .40734864 .45498658 .402359 .43499757 .37734986 .43499757 .35334779 .43499757 .33735658 .44599916 .31835938 .47299195 .31835938 .49499513 .31835938 .5269928 .3363495 .5269928 .37635804 .5269928 .42837525 .46798707 .4423828 .43399049 .4423828 .37599183 .4423828 .34098817 .38935853 .32899476 .36634828 .3039856 .43237306 .25 .4423828 .22099304 .4423828 .116989139 .4423828 .05999756 .3133545 .05999756 .28834535 .05999756 .27833558 .069992069 .27833558 .07199097 .27833558 .07998657 .27833558 .08299255 .28033448 .084991458 .28933717 .11898804 .39535523 .18499756 .42037965 .21899414 .42037965 .23799134 .42037965 .272995 .4113617 .272995 .35334779 .272995 .32235719 .2559967 .25532533 .21899414 .11528015 .20298767 .053268434 .16799927 .011245728 .12399292 .011245728 .117996219 .011245728 .09498596 .011245728 .07398987 .024276734 .09899902 .029266358 .12098694 .05027771 .12098694 .07827759 .12098694 .105270389 .09899902 .11328125 .083999637 .11328125 .053985597 .11328125 .0289917 .08728027 .0289917 .055267335 .0289917 .009246826 .07899475-.0107421879 .12298584-.0107421879 .18899536-.0107421879 .22499085 .059280397 .22799683 .0652771 .23999024 .028274537 .27598573-.0107421879 .33599855-.0107421879 .43899537-.0107421879 .49598695 .118270877 .49598695 .14328003 .49598695 .1532898 .4869995 .1532898 .48399354 .1532898 .47499085 .1532898 .47299195 .14929199 .47099305 .14228821 .43798829 .03527832 .36999513 .011245728 .33799745 .011245728 .29899598 .011245728 .2829895 .043273927 .2829895 .07727051 .2829895 .09927368 .2889862 .121276859 .2999878 .16529846L.33399964 .30233766Z"/>
<path id="font_1_3" d="M.48599244 .38136292C.48999024 .39537049 .48999024 .39736939 .48999024 .40437318 .48999024 .42237855 .47599793 .43138124 .46099855 .43138124 .45098878 .43138124 .43499757 .42536927 .42599488 .41036988 .42399598 .405365 .41600038 .37435914 .4119873 .35635377 .40499879 .33035279 .397995 .30334474 .3919983 .27633668L.34700013 .09628296C.34298707 .08126831 .2999878 .011245728 .23399353 .011245728 .18299866 .011245728 .17199707 .055267335 .17199707 .0922699 .17199707 .1382904 .18899536 .20030213 .22299195 .28833009 .23899842 .3293457 .24299622 .3403473 .24299622 .36035157 .24299622 .405365 .21099854 .4423828 .16099549 .4423828 .06599426 .4423828 .0289917 .29733277 .0289917 .28833009 .0289917 .27833558 .038986207 .27833558 .040985109 .27833558 .050994874 .27833558 .051986696 .28033448 .056991579 .29634095 .083999637 .3903656 .12399292 .42037965 .1579895 .42037965 .1659851 .42037965 .18299866 .42037965 .18299866 .3883667 .18299866 .36335755 .17298889 .3373413 .1659851 .31834413 .12599182 .21231079 .10798645 .1552887 .10798645 .10827637 .10798645 .019256592 .17098999-.0107421879 .22999573-.0107421879 .2689972-.0107421879 .30299378 .0062561037 .33099366 .03425598 .31799317-.017745972 .30599977-.06674194 .2659912-.11973572 .23999024-.15385437 .20199585-.18309021 .1559906-.18309021 .14199829-.18309021 .09700012-.18005371 .07998657-.14074707 .09599304-.14074707 .10899353-.14074707 .12298584-.1287384 .1329956-.11973572 .14299011-.10673523 .14299011-.08773804 .14299011-.056747438 .115997318-.052734376 .10598755-.052734376 .08299255-.052734376 .049987794-.068740848 .049987794-.11773682 .049987794-.16796875 .09399414-.20507813 .1559906-.20507813 .25898744-.20507813 .3619995-.11373901 .3899994-.00074768069L.48599244 .38136292Z"/>
<clipPath id="clip_2">
<path transform="matrix(1.00008,0,0,-1.00006,148.90847,159.47679)" d="M-141.73404 0V141.73404H141.73404V0ZM141.73404 141.73404"/>
</clipPath>
<path id="font_3_1" d="M.44400025 .24998474C.44400025 .35688783 .35499574 .44381715 .25 .44381715 .14199829 .44381715 .054992677 .35488893 .054992677 .24998474 .054992677 .14407349 .14199829 .056137086 .25 .056137086 .35499574 .056137086 .44400025 .14308167 .44400025 .24998474Z"/>
<path id="font_4_1" d="M.33099366-.2400055C.33099366-.23701477 .33099366-.23500061 .31399537-.21800232 .18899536-.0920105 .15699768 .09700012 .15699768 .25 .15699768 .42399598 .19499207 .59799197 .31799317 .72299197 .33099366 .73498538 .33099366 .7369995 .33099366 .73999026 .33099366 .746994 .32699586 .75 .32099916 .75 .31098939 .75 .22099304 .6819916 .1619873 .5549927 .11099243 .44499208 .09899902 .33399964 .09899902 .25 .09899902 .17199707 .10998535 .050994874 .16499329-.06201172 .22499085-.18501282 .31098939-.25 .32099916-.25 .32699586-.25 .33099366-.24700928 .33099366-.2400055Z"/>
<path id="font_4_3" d="M.45999146 .31976319C.45999146 .39982606 .45498658 .47988893 .41999818 .5539398 .37399293 .65000918 .2919922 .6660156 .25 .6660156 .18998719 .6660156 .116989139 .64001467 .07598877 .54693606 .04399109 .47789 .038986207 .39982606 .038986207 .31976319 .038986207 .24472046 .042999269 .15464783 .083999637 .07859802 .1269989-.0024719239 .19999695-.022460938 .24899292-.022460938 .30299378-.022460938 .3789978-.0014648438 .4229889 .09359741 .45498658 .16265869 .45999146 .2407074 .45999146 .31976319M.24899292-.00047302247C.20999146-.00047302247 .15098572 .024551392 .1329956 .12062073 .12199402 .18066406 .12199402 .2727356 .12199402 .3317871 .12199402 .39582826 .12199402 .46188355 .12998963 .5159149 .14898682 .63500979 .22399903 .64401248 .24899292 .64401248 .28199769 .64401248 .34799195 .6259918 .36698915 .52693179 .3769989 .47088624 .3769989 .39482118 .3769989 .3317871 .3769989 .25672914 .3769989 .18867493 .3659973 .12461853 .35099793 .029556275 .2939911-.00047302247 .24899292-.00047302247Z"/>
<path id="font_1_1" d="M.20298767 .0009918213C.20298767 .066986087 .17799378 .10598755 .13899231 .10598755 .10598755 .10598755 .085998538 .08099365 .085998538 .052993776 .085998538 .025985718 .10598755 0 .13899231 0 .15098572 0 .1639862 .0039978029 .17399597 .0129852299 .1769867 .01499939 .17799378 .015991211 .1789856 .015991211 .17999268 .015991211 .18099976 .01499939 .18099976 .0009918213 .18099976-.07316589 .1459961-.13328552 .11299133-.16635132 .101989749-.17736817 .101989749-.17936707 .101989749-.18237305 .101989749-.18936157 .10699463-.19335938 .11199951-.19335938 .12298584-.19335938 .20298767-.116256717 .20298767 .0009918213Z"/>
<path id="font_4_4" d="M.2939911 .64004519C.2939911 .66400149 .2939911 .6660156 .2709961 .6660156 .20899964 .60227969 .12098694 .60227969 .08898926 .60227969V.57128909C.10899353 .57128909 .16799927 .57128909 .21998596 .5972748V.07902527C.21998596 .042999269 .21699524 .0309906 .1269989 .0309906H.09498596V0C.12998963 .0029907227 .21699524 .0029907227 .25698854 .0029907227 .29699708 .0029907227 .38398744 .0029907227 .4189911 0V.0309906H.3869934C.29699708 .0309906 .2939911 .041992189 .2939911 .07902527V.64004519Z"/>
<path id="font_4_2" d="M.2889862 .25C.2889862 .32798768 .27799989 .44898988 .22299195 .56199648 .16299439 .68499758 .07699585 .75 .066986087 .75 .06098938 .75 .056991579 .74598696 .056991579 .73999026 .056991579 .7369995 .056991579 .73498538 .07598877 .71699526 .17399597 .6179962 .23098755 .45899964 .23098755 .25 .23098755 .07899475 .19400025-.09700012 .069992069-.2230072 .056991579-.23500061 .056991579-.23701477 .056991579-.2400055 .056991579-.2460022 .06098938-.25 .066986087-.25 .07699585-.25 .16699219-.18200684 .22599793-.055007936 .2769928 .054992677 .2889862 .16600037 .2889862 .25Z"/>
</defs>
<path transform="matrix(1.00008,0,0,-1.00006,148.90847,159.47679)" stroke-width=".19925" stroke-linecap="butt" stroke-miterlimit="10" stroke-linejoin="miter" fill="none" stroke="#929292" d="M-141.73404 0H141.73404M-141.73404 28.3468H141.73404M-141.73404 56.69362H141.73404M-141.73404 85.04042H141.73404M-141.73404 113.38724H141.73404M-141.73404 141.72409H141.73404M-141.73404 0V141.73404M-113.38724 0V141.73404M-85.04042 0V141.73404M-56.69362 0V141.73404M-28.3468 0V141.73404M0 0V141.73404M28.3468 0V141.73404M56.69362 0V141.73404M85.04042 0V141.73404M113.38724 0V141.73404M141.72409 0V141.73404M141.73404 141.73404"/>
<path transform="matrix(1.00008,0,0,-1.00006,148.90847,159.47679)" stroke-width="1.19553" stroke-linecap="butt" stroke-miterlimit="10" stroke-linejoin="miter" fill="none" stroke="#000000" d="M-147.40332 0H146.4469"/>
<path transform="matrix(1.00008,0,0,-1.00006,295.36708,159.47679)" stroke-width=".9564" stroke-linecap="round" stroke-linejoin="round" fill="none" stroke="#000000" d="M-1.91284 2.55046C-1.75343 1.59402 0 .15938 .4782 0 0-.15938-1.75343-1.59402-1.91284-2.55046"/>
<use data-text="x" xlink:href="#font_1_2" transform="matrix(9.963397,0,0,-9.963197,300.24256,161.62192)"/>
<path transform="matrix(1.00008,0,0,-1.00006,148.90847,159.47679)" stroke-width="1.19553" stroke-linecap="butt" stroke-miterlimit="10" stroke-linejoin="miter" fill="none" stroke="#000000" d="M0-5.66927V146.4469"/>
<path transform="matrix(0,-1.00006,-1.00008,-0,148.90847,13.021118)" stroke-width=".9564" stroke-linecap="round" stroke-linejoin="round" fill="none" stroke="#000000" d="M-1.91284 2.55046C-1.75343 1.59402 0 .15938 .4782 0 0-.15938-1.75343-1.59402-1.91284-2.55046"/>
<use data-text="y" xlink:href="#font_1_3" transform="matrix(9.963397,0,0,-9.963197,146.28726,6.208603)"/>
<g clip-path="url(#clip_2)">
<path transform="matrix(1.00008,0,0,-1.00006,148.90847,159.47679)" stroke-width=".79701" stroke-linecap="butt" stroke-miterlimit="10" stroke-linejoin="miter" fill="none" stroke="#0000ff" d="M-141.73404 4206.9938C-141.73404 4206.9938-141.3237 4145.6589-141.1661 4122.6018-141.00853 4099.545-140.75579 4063.2813-140.59819 4040.8145-140.44062 4018.3477-140.18785 3982.697-140.03026 3960.6773-139.87268 3938.6578-139.61994 3903.6959-139.46236 3882.112-139.30477 3860.528-139.052 3826.2725-138.89443 3805.1156-138.73683 3783.9586-138.48409 3750.3636-138.3265 3729.6268-138.16892 3708.89-137.91616 3675.9854-137.75858 3655.6593-137.60099 3635.3333-137.34824 3603.055-137.19066 3583.1314-137.03307 3563.2078-136.7803 3531.593-136.62273 3512.0645-136.46515 3492.536-136.21239 3461.522-136.05481 3442.383-135.89723 3423.244-135.64449 3392.882-135.4869 3374.1239-135.32932 3355.3656-135.07656 3325.5743-134.91896 3307.1868-134.76139 3288.7996-134.50864 3259.625-134.35105 3241.6007-134.19347 3223.5762-133.9407 3194.9454-133.78311 3177.279-133.62554 3159.613-133.37279 3131.5904-133.21521 3114.2762-133.05762 3096.962-132.80486 3069.456-132.64728 3052.4898-132.48969 3035.5235-132.23694 3008.6224-132.07936 2991.995-131.92177 2975.368-131.669 2948.96-131.51143 2932.6527-131.35384 2916.3453-131.10109 2890.4447-130.94351 2874.4625-130.78592 2858.48-130.53316 2833.1263-130.37558 2817.4635-130.218 2801.8006-129.96524 2776.9285-129.80767 2761.5755-129.65009 2746.2227-129.39734 2721.8607-129.23975 2706.8099-129.08217 2691.7589-128.8294 2667.8514-128.67182 2653.0989-128.51424 2638.3465-128.26149 2614.9429-128.1039 2600.4842-127.94632 2586.0255-127.69356 2563.0626-127.53596 2548.8902-127.37839 2534.7178-127.12564 2512.2303-126.96806 2498.3404-126.81047 2484.4505-126.55771 2462.3978-126.40013 2448.7816-126.24254 2435.165-125.98979 2413.55-125.83221 2400.2034-125.67462 2386.857-125.42186 2365.6695-125.26428 2352.5894-125.10669 2339.509-124.85394 2318.751-124.69637 2305.931-124.53877 2293.111-124.28601 2272.7584-124.12843 2260.1922-123.97086 2247.6263-123.7181 2227.682-123.56052 2215.364-123.40294 2203.0462-123.15019 2183.4827-122.9926 2171.4144-122.83502 2159.3458-122.58226 2140.2108-122.42467 2128.3829-122.26709 2116.555-122.01434 2097.7674-121.85675 2086.167-121.69917 2074.5667-121.44641 2056.1458-121.28882 2044.7758-121.13124 2033.4059-120.8785 2015.3645-120.72092 2004.2211-120.56332 1993.0774-120.31056 1975.3839-120.15298 1964.4608-119.99539 1953.5377-119.74265 1936.2002-119.58507 1925.4953-119.42747 1914.7902-119.17471 1897.7998-119.01714 1887.3064-118.85954 1876.813-118.6068 1860.1517-118.44922 1849.866-118.29163 1839.5802-118.03888 1823.2543-117.8813 1813.1737-117.72372 1803.0933-117.47095 1787.0927-117.31337 1777.2125-117.15579 1767.3324-116.90305 1751.6484-116.74545 1741.9646-116.58788 1732.2807-116.33511 1716.9108-116.17752 1707.4177-116.01994 1697.9247-115.7672 1682.8511-115.6096 1673.5453-115.45203 1664.2395-115.19926 1649.47-115.04167 1640.348-114.8841 1631.226-114.63135 1616.7398-114.47377 1607.8004-114.31618 1598.861-114.06342 1584.6771-113.90584 1575.9193-113.74825 1567.1614-113.4955 1553.2649-113.33792 1544.6797-113.18033 1536.0945-112.92757 1522.4601-112.76999 1514.043-112.6124 1505.6259-112.35965 1492.266-112.20207 1484.0149-112.04448 1475.7638-111.79173 1462.6626-111.63416 1454.5751-111.47658 1446.4876-111.2238 1433.653-111.06622 1425.7252-110.90865 1417.7975-110.6559 1405.2081-110.4983 1397.4376-110.34073 1389.6671-110.08797 1377.3357-109.93037 1369.7206-109.7728 1362.1056-109.52005 1350.0177-109.36246 1342.5534-109.20488 1335.089-108.95212 1323.2396-108.79453 1315.9229-108.63695 1308.6061-108.3842 1296.9906-108.22662 1289.8192-108.06903 1282.6477-107.81627 1271.2656-107.65869 1264.2359-107.5011 1257.2062-107.24835 1246.0426-107.09077 1239.1538-106.93318 1232.265-106.68042 1221.3394-106.52284 1214.5862-106.36525 1207.8329-106.1125 1197.1005-105.95493 1190.4812-105.79733 1183.862-105.54459 1173.3671-105.38701 1166.8794-105.22943 1160.3916-104.97665 1150.082-104.81908 1143.7222-104.6615 1137.3622-104.40875 1127.2723-104.25116 1121.0411-104.09358 1114.8099-103.84082 1104.92-103.68323 1098.8121-103.52565 1092.7042-103.2729 1083.0073-103.11531 1077.02-102.95773 1071.0327-102.70497 1061.5281-102.54738 1055.6596-102.3898 1049.791-102.13705 1040.4762-101.97948 1034.7239-101.82188 1028.9714-101.56912 1019.8396-101.41154 1014.2004-101.25395 1008.5611-101.0012 999.6067-100.84363 994.08-100.68604 988.55337-100.43327 979.7856-100.2757 974.3679-100.1181 968.95028-99.86536 960.34408-99.70778 955.0331-99.55019 949.7221-99.29744 941.2955-99.13986 936.0901-98.98228 930.88467-98.7295 922.617-98.57193 917.516-98.41435 912.41506-98.1616 904.3255-98.00401 899.3256-97.84644 894.32577-97.59367 886.381-97.43608 881.4804-97.2785 876.5798-97.02576 868.8088-96.86816 864.00546-96.71059 859.20217-96.45782 851.57058-96.30023 846.8614-96.14265 842.15219-95.88991 834.6798-95.73233 830.06509-95.57474 825.4503-95.32198 818.1249-95.1644 813.6014-95.0068 809.0778-94.75406 801.89456-94.59648 797.4625-94.43889 793.0305-94.18614 786.00289-94.02856 781.65847-93.87097 777.31399-93.61821 770.41079-93.46063 766.15066-93.30304 761.8905-93.0503 755.1303-92.89272 750.9543-92.73514 746.7783-92.48236 740.14517-92.32478 736.0529-92.1672 731.9607-91.91446 725.47097-91.75687 721.4604-91.59929 717.4498-91.34653 711.07998-91.18893 707.1477-91.03136 703.21548-90.77861 696.97378-90.62102 693.1196-90.46344 689.26547-90.21068 683.1468-90.05309 679.3697-89.89551 675.5926-89.64276 669.5985-89.48518 665.897-89.32759 662.19546-89.07483 656.32058-88.91725 652.6916-88.75966 649.0626-88.50691 643.2993-88.34933 639.7418-88.19174 636.1843-87.939 630.538-87.78142 627.0516-87.62383 623.5652-87.37106 618.0312-87.21349 614.61398-87.0559 611.19686-86.80315 605.7727-86.64557 602.4229-86.48799 599.0731-86.23521 593.7539-86.07764 590.471-85.92006 587.1881-85.66731 581.9791-85.50972 578.7622-85.35214 575.5453-85.09938 570.4385-84.94179 567.2857-84.78421 564.1329-84.53146 559.1299-84.37387 556.0388-84.2163 552.94778-83.96353 548.0379-83.80594 545.0074-83.64836 541.97689-83.39561 537.167-83.23804 534.19699-83.08044 531.2269-82.82768 526.5131-82.6701 523.6015-82.51251 520.6899-82.25977 516.0656-82.10219 513.2119-81.9446 510.35829-81.69185 505.8303-81.53427 503.03434-81.37668 500.23835-81.12392 495.80229-80.96634 493.06044-80.80875 490.3186-80.556 485.9602-80.39842 483.27296-80.24084 480.58573-79.98807 476.32643-79.83049 473.69267-79.67291 471.0589-79.42017 466.87174-79.26257 464.2906-79.105 461.70948-78.85223 457.61936-78.69464 455.08967-78.53706 452.55995-78.28432 448.53916-78.12672 446.05827-77.96915 443.57737-77.71638 439.63978-77.55879 437.20896-77.40121 434.77815-77.14847 430.9211-76.99089 428.53874-76.8333 426.15638-76.58054 422.37419-76.42296 420.0385-76.26537 417.70283-76.01262 413.99348-75.85504 411.7048-75.69745 409.4161-75.4447 405.78584-75.28712 403.54325-75.12953 401.30064-74.87677 397.7405-74.7192 395.54173-74.5616 393.34294-74.30885 389.8513-74.15128 387.6959-73.9937 385.5405-73.74092 382.12013-73.58334 380.0071-73.42577 377.8941-73.17302 374.5377-73.01543 372.46669-72.85785 370.39567-72.60509 367.11058-72.4475 365.08067-72.28992 363.05076-72.03717 359.8262-71.87958 357.8365-71.722 355.8468-71.46924 352.69017-71.31165 350.74028-71.15407 348.79039-70.90132 345.69468-70.74374 343.7829-70.58615 341.87117-70.3334 338.83543-70.17583 336.9618-70.01823 335.08815-69.76547 332.11515-69.6079 330.27909-69.4503 328.44303-69.19756 325.52897-69.03998 323.72874-68.88239 321.92848-68.62962 319.0684-68.47205 317.30424-68.31445 315.54008-68.0617 312.74284-67.90413 311.01387-67.74655 309.28486-67.49377 306.53779-67.3362 304.84284-67.17862 303.14787-66.92587 300.4587-66.76828 298.79765-66.6107 297.1366-66.35794 294.49873-66.20035 292.87104-66.04277 291.24336-65.79002 288.66203-65.63243 287.06639-65.47485 285.47074-65.22209 282.93556-65.0645 281.3707-64.90692 279.80586-64.65417 277.3211-64.4966 275.78797-64.339 274.2548-64.08626 271.82304-63.92868 270.32066-63.77109 268.81828-63.51833 266.43309-63.36075 264.9598-63.20316 263.48655-62.95041 261.14659-62.79283 259.7023-62.63524 258.258-62.38248 255.9654-62.2249 254.55033-62.0673 253.13527-61.81456 250.89104-61.65698 249.50347-61.4994 248.11589-61.24663 245.90946-61.08905 244.5496-60.93147 243.18976-60.67873 241.0349-60.52113 239.70259-60.36356 238.3703-60.1108 236.25388-59.9532 234.94727-59.79562 233.64066-59.54288 231.56581-59.38528 230.28537-59.2277 229.00492-58.97495 226.97327-58.81735 225.71863-58.65977 224.464-58.40703 222.47277-58.24945 221.24274-58.09186 220.0127-57.83911 218.05919-57.68153 216.85335-57.52394 215.64749-57.27118 213.73342-57.1136 212.55175-56.95601 211.37007-56.70326 209.49445-56.54568 208.33666-56.38809 207.17888-56.13533 205.34226-55.97775 204.20723-55.82016 203.0722-55.56741 201.26915-55.40984 200.15608-55.25226 199.04302-54.99948 197.27544-54.8419 196.18494-54.68433 195.09445-54.43158 193.36551-54.27399 192.29644-54.11641 191.22736-53.86365 189.52803-53.70605 188.47972-53.54848 187.4314-53.29573 185.76787-53.13814 184.74085-52.98056 183.71384-52.7278 182.08423-52.5702 181.07769-52.41263 180.07115-52.15988 178.47324-52.0023 177.48633-51.84471 176.49942-51.59196 174.93192-51.43439 173.96462-51.2768 172.9973-51.02403 171.46277-50.86646 170.51468-50.70886 169.5666-50.45612 168.06061-50.29854 167.13137-50.14095 166.20212-49.88818 164.72815-49.7306 163.81726-49.57301 162.90637-49.32027 161.459-49.16269 160.56632-49.00511 159.67363-48.75233 158.2577-48.59476 157.38326-48.43718 156.50882-48.18443 155.12175-48.02684 154.2638-47.86926 153.40586-47.6165 152.04042-47.45891 151.19969-47.30133 150.35897-47.04858 149.028-46.89099 148.20436-46.73341 147.38074-46.48067 146.07126-46.32307 145.26355-46.1655 144.45584-45.91273 143.17447-45.75516 142.38285-45.59756 141.59122-45.34482 140.33391-45.18724 139.55794-45.02965 138.78197-44.77689 137.55057-44.61931 136.79013-44.46172 136.0297-44.20897 134.82268-44.05139 134.07724-43.8938 133.33182-43.64104 132.14835-43.48346 131.41757-43.32587 130.6868-43.07312 129.52655-42.91554 128.81023-42.75797 128.09392-42.50519 126.95671-42.34761 126.25479-42.19003 125.55287-41.93729 124.43921-41.7797 123.75127-41.62212 123.06334-41.36935 121.97098-41.21176 121.29662-41.05418 120.62224-40.80144 119.55182-40.64384 118.89084-40.48627 118.22986-40.23352 117.18056-40.07593 116.53264-39.91835 115.88474-39.66559 114.85603-39.50801 114.22115-39.35042 113.58627-39.09767 112.57928-38.9401 111.95682-38.7825 111.33435-38.52974 110.34528-38.37216 109.73488-38.21457 109.1245-37.96182 108.15532-37.80424 107.55746-37.64665 106.95963-37.39389 106.01184-37.23631 105.42592-37.07872 104.84001-36.82597 103.909-36.6684 103.33461-36.51082 102.76021-36.25804 101.84926-36.10046 101.2861-35.94289 100.72295-35.69014 99.82779-35.53255 99.27568-35.37497 98.72356-35.12221 97.84778-34.96461 97.30676-34.80704 96.76573-34.55429 95.90643-34.3967 95.37634-34.23912 94.84625-33.98637 94.00586-33.82878 93.48616-33.6712 92.96645-33.41844 92.1402-33.26086 91.63057-33.10327 91.12094-32.85052 90.31247-32.69295 89.81303-32.53535 89.31361-32.2826 88.5204-32.12502 88.03099-31.96742 87.54158-31.71468 86.76532-31.5571 86.28569-31.3995 85.80608-31.14674 85.04433-30.98917 84.57413-30.83157 84.10393-30.57883 83.35777-30.42125 82.89676-30.26367 82.43575-30.0109 81.7032-29.85332 81.25137-29.69574 80.79955-29.443 80.08295-29.2854 79.64018-29.12782 79.1974-28.87508 78.49394-28.71748 78.06012-28.5599 77.62628-28.30714 76.9386-28.14955 76.51335-27.99197 76.08812-27.73923 75.41212-27.58163 74.99515-27.42406 74.57817-27.1713 73.91664-27.01372 73.50807-26.85612 73.09952-26.60338 72.45102-26.4458 72.05043-26.28821 71.64986-26.03545 71.01361-25.87787 70.6209-25.72028 70.22816-25.46753 69.60475-25.30995 69.21991-25.15236 68.83505-24.8996 68.22421-24.74202 67.84703-24.58443 67.46985-24.33168 66.87108-24.1741 66.5014-24.01653 66.13171-23.76375 65.54495-23.60617 65.1826-23.4486 64.82024-23.19585 64.24489-23.03825 63.88974-22.88068 63.53459-22.62793 62.97102-22.47034 62.62283-22.31276 62.27466-22.06 61.7215-21.9024 61.38016-21.74483 61.0388-21.49208 60.49701-21.33449 60.16257-21.17691 59.82813-20.92415 59.29753-20.76657 58.96962-20.60898 58.64171-20.35623 58.1206-20.19865 57.79918-20.04106 57.47775-19.7883 56.96782-19.63072 56.65295-19.47313 56.33807-19.22038 55.83823-19.0628 55.52965-18.90521 55.22105-18.65245 54.73123-18.49487 54.42883-18.33728 54.12643-18.08453 53.64673-17.92696 53.35008-17.76938 53.05345-17.5166 52.58162-17.35902 52.2908-17.20145 51.99998-16.9487 51.5389-16.7911 51.25401-16.63353 50.96913-16.38078 50.51683-16.22319 50.23755-16.06561 49.95825-15.81285 49.51482-15.65526 49.24098-15.49768 48.96715-15.24493 48.53224-15.08734 48.26387-14.92976 47.9955-14.677 47.5697-14.51942 47.30667-14.36183 47.04362-14.10909 46.62581-13.9515 46.36806-13.79391 46.11032-13.54115 45.70158-13.38358 45.44893-13.22598 45.19626-12.97324 44.7947-12.81566 44.54707-12.65807 44.29947-12.4053 43.90695-12.24773 43.66428-12.09013 43.42159-11.83739 43.03589-11.67981 42.7979-11.52223 42.55989-11.26945 42.18208-11.11188 41.94882-10.9543 41.71556-10.70155 41.34526-10.54396 41.11662-10.38638 40.88799-10.13364 40.52481-9.97604 40.30084-9.81847 40.07687-9.5657 39.72185-9.40811 39.50238-9.25053 39.28291-8.99779 38.93431-8.8402 38.71906-8.68262 38.50378-8.42986 38.16187-8.27228 37.95087-8.11469 37.73987-7.86194 37.40504-7.70436 37.19824-7.54677 36.99146-7.294 36.66306-7.13643 36.46034-6.97884 36.25763-6.72609 35.93578-6.56851 35.73714-6.41092 35.5385-6.15816 35.22337-6.00058 35.02864-5.84299 34.8339-5.59024 34.52444-5.43266 34.33356-5.27509 34.14267-5.02232 33.83986-4.86475 33.65274-4.70717 33.4656-4.4544 33.16835-4.29681 32.9849-4.13924 32.80144-3.88649 32.51013-3.7289 32.33046-3.57132 32.15079-3.31856 31.86595-3.16096 31.68988-3.00339 31.51381-2.75064 31.23412-2.59305 31.0614-2.43547 30.88869-2.18271 30.61433-2.02513 30.44504-1.86754 30.27576-1.61479 30.00708-1.45721 29.84122-1.29962 29.67535-1.04686 29.41206-.88928 29.2495-.73169 29.08693-.47894 28.828-.32137 28.66946-.16377 28.51093 .08896 28.26228 .24654 28.10674 .40413 27.95119 .65688 27.70135 .81445 27.54834 .97203 27.39531 1.2248 27.15367 1.38237 27.00377 1.53995 26.85387 1.79271 26.61494 1.9503 26.46785 2.10788 26.32076 2.36063 26.088 2.51822 25.94362 2.6758 25.79922 2.92856 25.56877 3.08615 25.42715 3.24373 25.28554 3.49648 25.06128 3.65407 24.92284 3.81165 24.7844 4.0644 24.56503 4.22198 24.42929 4.37958 24.29356 4.63232 24.07741 4.7899 23.94441 4.9475 23.81143 5.20026 23.60138 5.35783 23.4708 5.51543 23.34021 5.76817 23.13145 5.92575 23.00322 6.08334 22.87497 6.3361 22.67159 6.49368 22.54646 6.65128 22.42133 6.90402 22.2241 7.0616 22.10138 7.21918 21.97865 7.47194 21.7823 7.62952 21.66191 7.7871 21.54153 8.03986 21.35168 8.19745 21.2337 8.35503 21.11572 8.60777 20.92719 8.76537 20.81155 8.92294 20.6959 9.1757 20.5135 9.3333 20.4002 9.49088 20.28691 9.74362 20.10623 9.90121 19.99492 10.05879 19.88359 10.31155 19.70683 10.46913 19.59785 10.62672 19.48886 10.87947 19.31642 11.03705 19.20943 11.19464 19.10243 11.4474 18.93129 11.60498 18.82664 11.76257 18.72198 12.01532 18.55736 12.1729 18.4551 12.33049 18.35283 12.58325 18.19028 12.74083 18.08958 12.89842 17.98889 13.15117 17.82805 13.30875 17.72928 13.46632 17.63052 13.71909 17.47437 13.87666 17.37764 14.03424 17.2809 14.287 17.12685 14.4446 17.03203 14.60217 16.93721 14.85492 16.7867 15.01251 16.69423 15.17009 16.60176 15.42285 16.45634 15.58044 16.3655 15.73802 16.27466 15.99077 16.12865 16.14836 16.03935 16.30594 15.95006 16.5587 15.8092 16.71628 15.72188 16.87387 15.63455 17.12662 15.49576 17.2842 15.41 17.44179 15.32425 17.69455 15.18797 17.85213 15.10378 18.00972 15.01959 18.26247 14.88538 18.42004 14.80316 18.57764 14.72095 18.83038 14.59186 18.98796 14.51122 19.14555 14.43056 19.39832 14.30093 19.5559 14.22183 19.71347 14.14275 19.96623 14.01859 20.12381 13.94112 20.28139 13.86365 20.53415 13.73933 20.69174 13.66342 20.84932 13.58752 21.10207 13.4683 21.25966 13.39395 21.41724 13.3196 21.67 13.20067 21.82759 13.1275 21.98517 13.05435 22.23792 12.93828 22.39551 12.86668 22.55309 12.7951 22.80585 12.68152 22.96342 12.6115 23.12102 12.54147 23.37376 12.43076 23.53134 12.36192 23.68893 12.29309 23.9417 12.18265 24.09927 12.11537 24.25687 12.04811 24.50961 11.9431 24.66719 11.87704 24.82478 11.81097 25.07753 11.70401 25.2351 11.63914 25.3927 11.57428 25.64546 11.47284 25.80304 11.40947 25.96062 11.34612 26.21338 11.24455 26.37096 11.18239 26.52853 11.12022 26.7813 11.02232 26.93889 10.96136 27.09647 10.9004 27.34921 10.80275 27.5068 10.74292 27.66438 10.6831 27.91714 10.58875 28.07474 10.53014 28.23232 10.47151 28.48506 10.37778 28.64265 10.32034 28.80023 10.26291 29.053 10.17241 29.21057 10.11618 29.36816 10.05995 29.62091 9.9701 29.77849 9.91505 29.93608 9.86003 30.18884 9.77344 30.34642 9.71954 30.50401 9.66565 30.75676 9.57973 30.91434 9.52663 31.07193 9.47353 31.32468 9.38864 31.48225 9.33675 31.63985 9.28485 31.89261 9.20326 32.05019 9.1525 32.20776 9.10173 32.46053 9.0208 32.6181 8.97081 32.77568 8.92084 33.02844 8.84096 33.18604 8.79218 33.34361 8.7434 33.59636 8.66718 33.75395 8.61917 33.91153 8.57115 34.16429 8.4933 34.32188 8.44615 34.47946 8.39899 34.73221 8.32521 34.8898 8.27919 35.04738 8.23317 35.30014 8.15927 35.45772 8.1144 35.61531 8.06952 35.86806 7.9997 36.02563 7.95566 36.18323 7.91162 36.43599 7.84055 36.59357 7.79692 36.75116 7.7533 37.0039 7.6837 37.16148 7.6412 37.31908 7.59871 37.57182 7.53203 37.7294 7.49068 37.887 7.44933 38.13976 7.38405 38.29733 7.34319 38.45491 7.30232 38.70767 7.2362 38.86525 7.19612 39.02283 7.15604 39.27559 7.0936 39.43318 7.05424 39.59076 7.01488 39.8435 6.95096 40.0011 6.91238 40.15868 6.8738 40.41144 6.8135 40.56903 6.77612 40.72661 6.73874 40.97935 6.67987 41.13695 6.64291 41.29453 6.60596 41.54729 6.54585 41.70486 6.50967 41.86246 6.4735 42.1152 6.4175 42.27278 6.38208 42.43037 6.34668 42.68312 6.28946 42.8407 6.25449 42.99829 6.2195 43.25105 6.16412 43.40863 6.12991 43.56622 6.09572 43.81897 6.04135 43.97655 6.00793 44.13414 5.97452 44.3869 5.92163 44.54448 5.88899 44.70206 5.85635 44.95482 5.8045 45.1124 5.77264 45.26997 5.74078 45.52274 5.69081 45.68033 5.6593 45.8379 5.6278 46.09065 5.57663 46.24825 5.54555 46.40582 5.51448 46.65858 5.4655 46.81618 5.43526 46.97375 5.40503 47.2265 5.35707 47.3841 5.32756 47.54167 5.29803 47.79443 5.25154 47.95201 5.22244 48.1096 5.19336 48.36235 5.14609 48.51993 5.11777 48.67752 5.08945 48.93027 5.04625 49.08784 5.01828 49.24544 4.99033 49.4982 4.94376 49.65578 4.9162 49.81337 4.88866 50.06612 4.84651 50.2237 4.81975 50.38129 4.793 50.63405 4.74962 50.79163 4.7233 50.9492 4.69696 51.20197 4.65543 51.35954 4.62988 51.51712 4.60432 51.76988 4.5642 51.92747 4.53905 52.08505 4.5139 52.3378 4.47342 52.49539 4.44864 52.65297 4.42386 52.90573 4.38483 53.06332 4.36041 53.2209 4.336 53.47365 4.29617 53.63124 4.2726 53.78882 4.24902 54.04158 4.21364 54.19916 4.19041 54.35675 4.1672 54.6095 4.1284 54.76707 4.1052 54.92467 4.08199 55.17741 4.0454 55.33499 4.02301 55.49258 4.00064 55.74535 3.96547 55.90292 3.94388 56.06052 3.92227 56.31326 3.88853 56.47084 3.8673 56.62843 3.84607 56.8812 3.81198 57.03877 3.79074 57.19635 3.7695 57.44911 3.73506 57.60669 3.71419 57.76427 3.69331 58.01703 3.66032 58.17462 3.64023 58.3322 3.62013 58.58495 3.58891 58.74254 3.56929 58.90012 3.54968 59.15288 3.51842 59.31047 3.4988 59.46805 3.47916 59.7208 3.44716 59.87839 3.42784 60.03596 3.40852 60.28873 3.37798 60.4463 3.35951 60.6039 3.34103 60.85664 3.31268 61.01422 3.29463 61.17181 3.27657 61.42456 3.24744 61.58214 3.22932 61.73973 3.2112 61.9925 3.18169 62.15007 3.164 62.30766 3.1463 62.56041 3.11899 62.71799 3.10172 62.87558 3.08444 63.12834 3.05635 63.28592 3.03943 63.4435 3.0225 63.69626 2.99629 63.85384 2.97974 64.01141 2.96318 64.26418 2.93617 64.42177 2.92004 64.57935 2.90392 64.83209 2.8791 64.98969 2.86339 65.14726 2.84767 65.40002 2.82243 65.55762 2.80672 65.7152 2.791 65.96794 2.76541 66.12553 2.75006 66.28311 2.73471 66.53586 2.71094 66.69344 2.69598 66.85103 2.68105 67.10379 2.65729 67.26137 2.64235 67.41896 2.62743 67.6717 2.60287 67.82928 2.5883 67.98688 2.57372 68.23964 2.5514 68.39722 2.53725 68.55481 2.5231 68.80756 2.49994 68.96513 2.48622 69.12273 2.47249 69.37549 2.45158 69.53307 2.4382 69.69064 2.42484 69.9434 2.40314 70.10098 2.38976 70.25856 2.37637 70.51132 2.3547 70.66891 2.34175 70.82649 2.3288 71.07924 2.30893 71.23683 2.29633 71.39441 2.28372 71.64717 2.26352 71.80476 2.25092 71.96234 2.23831 72.21509 2.21767 72.37268 2.20549 72.53026 2.19331 72.783 2.1753 72.94058 2.16312 73.09818 2.15094 73.35094 2.1295 73.50851 2.11769 73.6661 2.10588 73.91885 2.0893 74.07643 2.0779 74.23402 2.06648 74.48679 2.0469 74.64436 2.0355 74.80196 2.02411 75.0547 2.00668 75.21228 1.99571 75.36987 1.98473 75.62263 1.96733 75.78021 1.95634 75.93779 1.94537 76.19055 1.92719 76.34813 1.91656 76.5057 1.90596 76.75847 1.89006 76.91606 1.87979 77.07364 1.86954 77.32639 1.85286 77.48398 1.84259 77.64156 1.83234 77.89432 1.81604 78.05191 1.80583 78.20949 1.79564 78.46223 1.7789 78.61983 1.76906 78.7774 1.75923 79.03015 1.7443 79.18773 1.7349 79.34532 1.72548 79.59808 1.71057 79.75566 1.70116 79.91325 1.69174 80.166 1.67645 80.32358 1.66698 80.48117 1.65752 80.73393 1.64188 80.89151 1.63283 81.0491 1.62376 81.30185 1.61067 81.45943 1.60167 81.61702 1.59267 81.86978 1.577 82.02736 1.56793 82.18494 1.55888 82.4377 1.54463 82.59528 1.53636 82.75285 1.52809 83.00562 1.51645 83.16321 1.50824 83.32079 1.50003 83.57353 1.48538 83.73112 1.47711 83.8887 1.46884 84.14145 1.45642 84.29904 1.44856 84.45662 1.4407 84.70938 1.4283 84.86697 1.42044 85.02455 1.41258 85.2773 1.3998 85.43488 1.39189 85.59247 1.38399 85.84523 1.37122 86.0028 1.36336 86.1604 1.3555 86.41315 1.34267 86.57072 1.33522 86.72832 1.32779 86.98108 1.31677 87.13866 1.30971 87.29625 1.30263 87.549 1.29126 87.70657 1.2842 87.86417 1.27713 88.11693 1.26575 88.2745 1.25867 88.43208 1.2516 88.68484 1.24022 88.84242 1.23314 89 1.22607 89.25276 1.21436 89.41035 1.20764 89.56793 1.20091 89.82068 1.19101 89.97827 1.18471 90.13585 1.17842 90.3886 1.16887 90.54619 1.16222 90.70377 1.15555 90.95653 1.14334 91.11412 1.13669 91.2717 1.13004 91.52444 1.12007 91.68202 1.11421 91.83961 1.10834 92.09238 1.10023 92.24995 1.0943 92.40755 1.08838 92.6603 1.07768 92.81787 1.07138 92.97546 1.0651 93.22823 1.05475 93.3858 1.04889 93.5434 1.04301 93.79614 1.03452 93.95372 1.02899 94.11131 1.02348 94.36407 1.01462 94.52165 1.0091 94.67923 1.00359 94.93199 .99472 95.08957 .9892 95.24715 .98369 95.49991 .97482 95.6575 .9693 95.81508 .96378 96.06783 .95486 96.22542 .9494 96.383 .94394 96.63574 .93503 96.79333 .92995 96.95091 .92485 97.20367 .91737 97.36127 .91264 97.51884 .90791 97.77159 .90086 97.92917 .89577 98.08676 .89067 98.33952 .88097 98.4971 .87587 98.6547 .87077 98.90744 .86374 99.06502 .85901 99.22261 .85428 99.47537 .84644 99.63295 .8417 99.79054 .83699 100.04329 .82951 100.20087 .82483 100.35846 .82016 100.61122 .81229 100.7688 .80797 100.92638 .80365 101.17914 .798 101.33672 .79369 101.4943 .78937 101.74706 .78114 101.90465 .77682 102.06223 .7725 102.31497 .76688 102.47256 .76256 102.63014 .75824 102.88289 .75 103.04048 .74568 103.19806 .74136 103.45082 .73535 103.60841 .7314 103.76599 .72745 104.01874 .72108 104.17632 .71713 104.33391 .71318 104.58667 .7068 104.74425 .70285 104.90184 .6989 105.15459 .69247 105.31216 .68858 105.46976 .6847 105.72252 .67827 105.8801 .67474 106.03769 .67122 106.29044 .6666 106.44801 .66307 106.6056 .65955 106.85837 .65312 107.01595 .64922 107.17352 .64532 107.42628 .63847 107.58386 .63495 107.74144 .63142 107.99419 .62723 108.15178 .6237 108.30936 .62018 108.56212 .61295 108.71971 .60942 108.87729 .6059 109.13004 .60136 109.28763 .59819 109.4452 .59502 109.69797 .58968 109.85556 .5865 110.01314 .58333 110.26588 .57838 110.42346 .57527 110.58105 .57214 110.83382 .56714 110.9914 .56401 111.14899 .5609 111.40173 .55594 111.55931 .55276 111.7169 .54959 111.96967 .54427 112.12724 .54109 112.28484 .53792 112.53758 .53296 112.69516 .52985 112.85275 .52672 113.10551 .52135 113.26309 .51859 113.42067 .51584 113.67343 .5127 113.83101 .50995 113.98859 .50719 114.24133 .50146 114.39893 .4987 114.5565 .49596 114.80927 .4928 114.96686 .49004 115.12444 .48729 115.37718 .4815 115.53477 .4788 115.69235 .47612 115.94511 .47293 116.1027 .47058 116.26028 .46825 116.51303 .46469 116.67061 .46193 116.8282 .45918 117.08096 .45343 117.23854 .45068 117.39613 .44794 117.64888 .44443 117.80646 .44203 117.96405 .43965 118.21681 .43571 118.37439 .43338 118.53198 .43106 118.78473 .42752 118.9423 .42517 119.0999 .42284 119.35266 .41891 119.51024 .4165 119.66782 .41411 119.92058 .41019 120.07816 .40787 120.23573 .40553 120.48848 .40198 120.64607 .39966 120.80365 .39732 121.05641 .39297 121.214 .391 121.37158 .38902 121.62433 .38736 121.78192 .38538 121.9395 .3834 122.19226 .37907 122.34985 .37672 122.50743 .37439 122.76018 .37042 122.91776 .3685 123.07535 .3666 123.32811 .36485 123.48569 .36288 123.64328 .3609 123.89603 .3562 124.0536 .35423 124.2112 .35225 124.46396 .35059 124.62154 .3486 124.77913 .34663 125.03188 .34193 125.18945 .33995 125.34705 .33798 125.59981 .33588 125.75739 .33434 125.91496 .33278 126.16772 .3307 126.3253 .32872 126.48288 .32674 126.73563 .32205 126.89322 .32007 127.0508 .3181 127.30356 .316 127.46115 .31444 127.61873 .3129 127.87148 .31036 128.02907 .30882 128.18665 .30727 128.4394 .30475 128.597 .30319 128.75458 .30165 129.00733 .29955 129.1649 .29758 129.3225 .2956 129.57526 .2909 129.73284 .28893 129.89043 .28694 130.14318 .28455 130.30075 .2833 130.45835 .28204 130.7111 .28102 130.86869 .27983 131.02628 .27864 131.27902 .27614 131.4366 .27464 131.5942 .27316 131.84694 .27051 132.00452 .26903 132.1621 .26753 132.41487 .26527 132.57245 .26384 132.73003 .2624 132.98278 .26007 133.14037 .25864 133.29795 .25722 133.5507 .25488 133.7083 .25345 133.86588 .25203 134.11862 .24962 134.27622 .24826 134.43379 .24689 134.68656 .24481 134.84415 .2435 135.00173 .24219 135.25447 .24005 135.41205 .23874 135.56964 .23743 135.8224 .23529 135.97998 .23398 136.13758 .23268 136.39032 .23053 136.5479 .22922 136.70549 .22792 136.95825 .22571 137.11583 .22447 137.27342 .22322 137.52617 .22133 137.68375 .22015 137.84134 .21896 138.09409 .217 138.25167 .21582 138.40924 .21463 138.66202 .21268 138.8196 .2115 138.97718 .21031 139.22992 .2083 139.38751 .20717 139.54509 .20602 139.79785 .20439 139.95545 .20328 140.11302 .20215 140.36577 .20007 140.52336 .19896 140.68094 .19783 140.9337 .19614 141.0913 .19507 141.24887 .19398 141.6592 .19118 141.6592 .19118"/>
</g>
<use data-text="&#x2022;" xlink:href="#font_3_1" transform="matrix(9.963397,0,0,-9.963197,146.41727,133.34223)"/>
<use data-text="(" xlink:href="#font_4_1" transform="matrix(9.963397,0,0,-9.963197,123.247409,125.11774)"/>
<use data-text="0" xlink:href="#font_4_3" transform="matrix(9.963397,0,0,-9.963197,127.11322,125.11774)"/>
<use data-text="," xlink:href="#font_1_1" transform="matrix(9.963397,0,0,-9.963197,132.10413,125.11774)"/>
<use data-text="1" xlink:href="#font_4_4" transform="matrix(9.963397,0,0,-9.963197,136.53148,125.11774)"/>
<use data-text=")" xlink:href="#font_4_2" transform="matrix(9.963397,0,0,-9.963197,141.51317,125.11774)"/>
</svg>
