<svg xmlns="http://www.w3.org/2000/svg" xmlns:xlink="http://www.w3.org/1999/xlink" version="1.1" width="250" height="167" viewBox="0 0 250 167">
<defs>
<path id="font_1_2" d="M.33399964 .30233766C.33999635 .32835389 .36299134 .42037965 .43299867 .42037965 .43798829 .42037965 .46199037 .42037965 .48298646 .40734864 .45498658 .402359 .43499757 .37734986 .43499757 .35334779 .43499757 .33735658 .44599916 .31835938 .47299195 .31835938 .49499513 .31835938 .5269928 .3363495 .5269928 .37635804 .5269928 .42837525 .46798707 .4423828 .43399049 .4423828 .37599183 .4423828 .34098817 .38935853 .32899476 .36634828 .3039856 .43237306 .25 .4423828 .22099304 .4423828 .116989139 .4423828 .05999756 .3133545 .05999756 .28834535 .05999756 .27833558 .069992069 .27833558 .07199097 .27833558 .07998657 .27833558 .08299255 .28033448 .084991458 .28933717 .11898804 .39535523 .18499756 .42037965 .21899414 .42037965 .23799134 .42037965 .272995 .4113617 .272995 .35334779 .272995 .32235719 .2559967 .25532533 .21899414 .11528015 .20298767 .053268434 .16799927 .011245728 .12399292 .011245728 .117996219 .011245728 .09498596 .011245728 .07398987 .024276734 .09899902 .029266358 .12098694 .05027771 .12098694 .07827759 .12098694 .105270389 .09899902 .11328125 .083999637 .11328125 .053985597 .11328125 .0289917 .08728027 .0289917 .055267335 .0289917 .009246826 .07899475-.0107421879 .12298584-.0107421879 .18899536-.0107421879 .22499085 .059280397 .22799683 .0652771 .23999024 .028274537 .27598573-.0107421879 .33599855-.0107421879 .43899537-.0107421879 .49598695 .118270877 .49598695 .14328003 .49598695 .1532898 .4869995 .1532898 .48399354 .1532898 .47499085 .1532898 .47299195 .14929199 .47099305 .14228821 .43798829 .03527832 .36999513 .011245728 .33799745 .011245728 .29899598 .011245728 .2829895 .043273927 .2829895 .07727051 .2829895 .09927368 .2889862 .121276859 .2999878 .16529846L.33399964 .30233766Z"/>
<path id="font_1_3" d="M.48599244 .38136292C.48999024 .39537049 .48999024 .39736939 .48999024 .40437318 .48999024 .42237855 .47599793 .43138124 .46099855 .43138124 .45098878 .43138124 .43499757 .42536927 .42599488 .41036988 .42399598 .405365 .41600038 .37435914 .4119873 .35635377 .40499879 .33035279 .397995 .30334474 .3919983 .27633668L.34700013 .09628296C.34298707 .08126831 .2999878 .011245728 .23399353 .011245728 .18299866 .011245728 .17199707 .055267335 .17199707 .0922699 .17199707 .1382904 .18899536 .20030213 .22299195 .28833009 .23899842 .3293457 .24299622 .3403473 .24299622 .36035157 .24299622 .405365 .21099854 .4423828 .16099549 .4423828 .06599426 .4423828 .0289917 .29733277 .0289917 .28833009 .0289917 .27833558 .038986207 .27833558 .040985109 .27833558 .050994874 .27833558 .051986696 .28033448 .056991579 .29634095 .083999637 .3903656 .12399292 .42037965 .1579895 .42037965 .1659851 .42037965 .18299866 .42037965 .18299866 .3883667 .18299866 .36335755 .17298889 .3373413 .1659851 .31834413 .12599182 .21231079 .10798645 .1552887 .10798645 .10827637 .10798645 .019256592 .17098999-.0107421879 .22999573-.0107421879 .2689972-.0107421879 .30299378 .0062561037 .33099366 .03425598 .31799317-.017745972 .30599977-.06674194 .2659912-.11973572 .23999024-.15385437 .20199585-.18309021 .1559906-.18309021 .14199829-.18309021 .09700012-.18005371 .07998657-.14074707 .09599304-.14074707 .10899353-.14074707 .12298584-.1287384 .1329956-.11973572 .14299011-.10673523 .14299011-.08773804 .14299011-.056747438 .115997318-.052734376 .10598755-.052734376 .08299255-.052734376 .049987794-.068740848 .049987794-.11773682 .049987794-.16796875 .09399414-.20507813 .1559906-.20507813 .25898744-.20507813 .3619995-.11373901 .3899994-.00074768069L.48599244 .38136292Z"/>
<clipPath id="clip_2">
<path transform="matrix(1.00009,0,0,-1,120.56023,131.12)" d="M-113.38724-113.38724V113.38724H0V-113.38724ZM0 113.38724"/>
</clipPath>
<path id="font_3_1" d="M.44400025 .24998474C.44400025 .35688783 .35499574 .44381715 .25 .44381715 .14199829 .44381715 .054992677 .35488893 .054992677 .24998474 .054992677 .14407349 .14199829 .056137086 .25 .056137086 .35499574 .056137086 .44400025 .14308167 .44400025 .24998474Z"/>
<path id="font_4_1" d="M.33099366-.2400055C.33099366-.23701477 .33099366-.23500061 .31399537-.21800232 .18899536-.0920105 .15699768 .09700012 .15699768 .25 .15699768 .42399598 .19499207 .59799197 .31799317 .72299197 .33099366 .73498538 .33099366 .7369995 .33099366 .73999026 .33099366 .746994 .32699586 .75 .32099916 .75 .31098939 .75 .22099304 .6819916 .1619873 .5549927 .11099243 .44499208 .09899902 .33399964 .09899902 .25 .09899902 .17199707 .10998535 .050994874 .16499329-.06201172 .22499085-.18501282 .31098939-.25 .32099916-.25 .32699586-.25 .33099366-.24700928 .33099366-.2400055Z"/>
<path id="font_4_3" d="M.45999146 .31976319C.45999146 .39982606 .45498658 .47988893 .41999818 .5539398 .37399293 .65000918 .2919922 .6660156 .25 .6660156 .18998719 .6660156 .116989139 .64001467 .07598877 .54693606 .04399109 .47789 .038986207 .39982606 .038986207 .31976319 .038986207 .24472046 .042999269 .15464783 .083999637 .07859802 .1269989-.0024719239 .19999695-.022460938 .24899292-.022460938 .30299378-.022460938 .3789978-.0014648438 .4229889 .09359741 .45498658 .16265869 .45999146 .2407074 .45999146 .31976319M.24899292-.00047302247C.20999146-.00047302247 .15098572 .024551392 .1329956 .12062073 .12199402 .18066406 .12199402 .2727356 .12199402 .3317871 .12199402 .39582826 .12199402 .46188355 .12998963 .5159149 .14898682 .63500979 .22399903 .64401248 .24899292 .64401248 .28199769 .64401248 .34799195 .6259918 .36698915 .52693179 .3769989 .47088624 .3769989 .39482118 .3769989 .3317871 .3769989 .25672914 .3769989 .18867493 .3659973 .12461853 .35099793 .029556275 .2939911-.00047302247 .24899292-.00047302247Z"/>
<path id="font_1_1" d="M.20298767 .0009918213C.20298767 .066986087 .17799378 .10598755 .13899231 .10598755 .10598755 .10598755 .085998538 .08099365 .085998538 .052993776 .085998538 .025985718 .10598755 0 .13899231 0 .15098572 0 .1639862 .0039978029 .17399597 .0129852299 .1769867 .01499939 .17799378 .015991211 .1789856 .015991211 .17999268 .015991211 .18099976 .01499939 .18099976 .0009918213 .18099976-.07316589 .1459961-.13328552 .11299133-.16635132 .101989749-.17736817 .101989749-.17936707 .101989749-.18237305 .101989749-.18936157 .10699463-.19335938 .11199951-.19335938 .12298584-.19335938 .20298767-.116256717 .20298767 .0009918213Z"/>
<path id="font_4_2" d="M.2889862 .25C.2889862 .32798768 .27799989 .44898988 .22299195 .56199648 .16299439 .68499758 .07699585 .75 .066986087 .75 .06098938 .75 .056991579 .74598696 .056991579 .73999026 .056991579 .7369995 .056991579 .73498538 .07598877 .71699526 .17399597 .6179962 .23098755 .45899964 .23098755 .25 .23098755 .07899475 .19400025-.09700012 .069992069-.2230072 .056991579-.23500061 .056991579-.23701477 .056991579-.2400055 .056991579-.2460022 .06098938-.25 .066986087-.25 .07699585-.25 .16699219-.18200684 .22599793-.055007936 .2769928 .054992677 .2889862 .16600037 .2889862 .25Z"/>
</defs>
<path transform="matrix(1.00009,0,0,-1,120.56023,131.12)" stroke-width=".19925" stroke-linecap="butt" stroke-miterlimit="10" stroke-linejoin="miter" fill="none" stroke="#929292" d="M-113.38724-28.3468H113.38724M-113.38724 0H113.38724M-113.38724 28.3468H113.38724M-113.38724 56.69362H113.38724M-113.38724 85.04042H113.38724M-113.38724 113.37727H113.38724M-113.38724-28.3468V113.38724M-85.04042-28.3468V113.38724M-56.69362-28.3468V113.38724M-28.3468-28.3468V113.38724M0-28.3468V113.38724M28.3468-28.3468V113.38724M56.69362-28.3468V113.38724M85.04042-28.3468V113.38724M113.37727-28.3468V113.38724M113.38724 113.38724"/>
<path transform="matrix(1.00009,0,0,-1,120.56023,131.12)" stroke-width="1.19553" stroke-linecap="butt" stroke-miterlimit="10" stroke-linejoin="miter" fill="none" stroke="#000000" d="M-119.0565 0H118.10008"/>
<path transform="matrix(1.00009,0,0,-1,238.67093,131.12)" stroke-width=".9564" stroke-linecap="round" stroke-linejoin="round" fill="none" stroke="#000000" d="M-1.91284 2.55046C-1.75343 1.59402 0 .15938 .4782 0 0-.15938-1.75343-1.59402-1.91284-2.55046"/>
<use data-text="x" xlink:href="#font_1_2" transform="matrix(9.963496,0,0,-9.9626,243.5463,133.265)"/>
<path transform="matrix(1.00009,0,0,-1,120.56023,131.12)" stroke-width="1.19553" stroke-linecap="butt" stroke-miterlimit="10" stroke-linejoin="miter" fill="none" stroke="#000000" d="M0-34.01608V118.10008"/>
<path transform="matrix(0,-1,-1.00009,-0,120.56023,13.019913)" stroke-width=".9564" stroke-linecap="round" stroke-linejoin="round" fill="none" stroke="#000000" d="M-1.91284 2.55046C-1.75343 1.59402 0 .15938 .4782 0 0-.15938-1.75343-1.59402-1.91284-2.55046"/>
<use data-text="y" xlink:href="#font_1_3" transform="matrix(9.963496,0,0,-9.9626,117.93899,6.2079927)"/>
<g clip-path="url(#clip_2)">
<path transform="matrix(1.00009,0,0,-1,120.56023,131.12)" stroke-width=".79701" stroke-linecap="butt" stroke-miterlimit="10" stroke-linejoin="miter" fill="none" stroke="#0000ff" d="M-113.38724 453.54896C-113.38724 453.54896-113.22316 452.23719-113.16014 451.734-113.09714 451.23088-112.99606 450.42469-112.93306 449.92256-112.87004 449.42045-112.76898 448.616-112.70596 448.11497-112.64296 447.61396-112.54192 446.8113-112.4789 446.3113-112.4159 445.81126-112.31482 445.01014-112.25182 444.51106-112.1888 444.012-112.08774 443.21238-112.02472 442.71434-111.96172 442.21626-111.86066 441.41847-111.79765 440.92143-111.73463 440.4244-111.63358 439.62809-111.57057 439.13203-111.50755 438.63594-111.4065 437.84114-111.34348 437.34608-111.28047 436.85105-111.17941 436.05805-111.11641 435.564-111.05339 435.06999-110.95233 434.27845-110.88931 433.78544-110.82631 433.29243-110.72525 432.5027-110.66223 432.0107-110.59921 431.5187-110.49817 430.73045-110.43517 430.23948-110.37215 429.7485-110.27109 428.96208-110.20807 428.4721-110.14507 427.98219-110.04399 427.19725-109.98099 426.70826-109.91797 426.21925-109.81691 425.43577-109.75389 424.9478-109.69089 424.4598-109.58984 423.67823-109.52682 423.19129-109.46382 422.7043-109.36275 421.92414-109.29974 421.4382-109.23672 420.95228-109.13567 420.1739-109.07265 419.689-109.00964 419.2041-108.90858 418.42723-108.84558 417.94328-108.78256 417.45936-108.6815 416.68394-108.6185 416.20103-108.55548 415.7181-108.45442 414.94456-108.3914 414.46266-108.3284 413.98075-108.22734 413.20863-108.16434 412.72776-108.10132 412.24684-108.00026 411.4766-107.93724 410.99674-107.87424 410.51686-107.77318 409.748-107.71016 409.26918-107.64714 408.7903-107.5461 408.02339-107.4831 407.5455-107.42007 407.0676-107.31902 406.3017-107.256 405.82487-107.193 405.348-107.09192 404.5844-107.02892 404.10859-106.9659 403.63273-106.86484 402.8701-106.80182 402.39527-106.73882 401.92045-106.63777 401.1601-106.57475 400.6863-106.51175 400.21253-106.41068 399.45323-106.34767 398.98039-106.28465 398.50755-106.1836 397.7501-106.12057 397.27836-106.05757 396.80659-105.95651 396.051-105.89351 395.5802-105.83049 395.1094-105.72943 394.35493-105.66643 393.8851-105.60341 393.41526-105.50235 392.66264-105.43933 392.19386-105.37633 391.72508-105.27527 390.97428-105.21227 390.50654-105.14925 390.0388-105.04819 389.28938-104.98517 388.82267-104.92216 388.35597-104.8211 387.60844-104.75809 387.14268-104.69507 386.67695-104.59402 385.93049-104.53102 385.46574-104.468 385.00099-104.36694 384.2568-104.30392 383.7931-104.24092 383.32939-104.13985 382.5863-104.07684 382.12355-104.01382 381.66075-103.91278 380.9195-103.84976 380.45783-103.78676 379.99613-103.6857 379.25669-103.62268 378.796-103.55968 378.33534-103.4586 377.59736-103.3956 377.13768-103.33258 376.67796-103.23152 375.94145-103.1685 375.48277-103.1055 375.0241-103.00444 374.2894-102.94144 373.83177-102.87842 373.3741-102.77736 372.6409-102.71436 372.18424-102.65134 371.7275-102.55028 370.99583-102.48726 370.54017-102.42426 370.08448-102.3232 369.35456-102.2602 368.89997-102.19717 368.44538-102.09612 367.71726-102.0331 367.26368-101.9701 366.8101-101.86903 366.08345-101.80602 365.63084-101.743 365.1782-101.64195 364.45314-101.57895 364.00148-101.51593 363.54985-101.41487 362.8262-101.35185 362.37556-101.28885 361.92494-101.18777 361.2031-101.12477 360.75355-101.06175 360.304-100.96071 359.58396-100.89769 359.1354-100.83469 358.6869-100.73363 357.96833-100.67061 357.52076-100.6076 357.07319-100.50653 356.35618-100.44353 355.90956-100.38051 355.46293-100.27945 354.74736-100.21643 354.3018-100.15343 353.85627-100.05237 353.1429-99.98936 352.6984-99.92635 352.25386-99.82529 351.54158-99.76228 351.098-99.69926 350.65446-99.5982 349.94404-99.53519 349.5015-99.47218 349.059-99.37112 348.34996-99.30812 347.90846-99.2451 347.46696-99.14404 346.7598-99.08102 346.3193-99.01802 345.87886-98.91696 345.1731-98.85394 344.73365-98.79092 344.29417-98.68988 343.5903-98.62688 343.15184-98.56386 342.71339-98.4628 342.011-98.39978 341.5735-98.33678 341.136-98.2357 340.43513-98.1727 339.99864-98.10968 339.56217-98.00864 338.8631-97.94562 338.42768-97.88261 337.9922-97.78156 337.29463-97.71854 336.86015-97.65553 336.42567-97.55446 335.72956-97.49146 335.2961-97.42844 334.86265-97.32738 334.16835-97.26436 333.73594-97.20135 333.30354-97.1003 332.61103-97.0373 332.17967-96.97427 331.7483-96.87321 331.05726-96.81021 330.62684-96.7472 330.1964-96.64613 329.50688-96.58311 329.07749-96.52011 328.6481-96.41905 327.9604-96.35605 327.53205-96.29303 327.10365-96.19197 326.41746-96.12895 325.99006-96.06595 325.5626-95.96489 324.87788-95.90187 324.45149-95.83885 324.0251-95.73781 323.34223-95.6748 322.91685-95.61179 322.4915-95.51073 321.81-95.44771 321.38566-95.3847 320.9613-95.28363 320.2817-95.22063 319.85838-95.15761 319.43504-95.05656 318.75685-94.99355 318.33457-94.93054 317.91224-94.82948 317.2359-94.76646 316.8146-94.70346 316.3933-94.60239 315.71846-94.53938 315.2981-94.47636 314.87779-94.37532 314.2044-94.3123 313.7851-94.2493 313.3658-94.14822 312.69429-94.08522 312.27598-94.0222 311.8577-93.92114 311.18766-93.85814 310.77033-93.79512 310.35298-93.69406 309.68443-93.63104 309.2681-93.56804 308.8518-93.46698 308.185-93.40398 307.76979-93.34096 307.35459-93.2399 306.68959-93.17688 306.2754-93.11388 305.86116-93.01282 305.1977-92.9498 304.78443-92.88678 304.37117-92.78574 303.70918-92.72273 303.2969-92.65971 302.8847-92.55865 302.22453-92.49564 301.81333-92.43263 301.4021-92.33156 300.7434-92.26855 300.33317-92.20554 299.92295-92.10449 299.26573-92.04147 298.85649-91.97847 298.44728-91.87741 297.7919-91.81439 297.3837-91.75137 296.9755-91.65031 296.32157-91.58731 295.91438-91.52429 295.50718-91.42325 294.8551-91.36023 294.4489-91.29723 294.04277-91.19615 293.3921-91.13315 292.98695-91.07013 292.5818-90.96907 291.933-90.90607 291.52888-90.84305 291.12474-90.74199 290.4774-90.67897 290.07423-90.61597 289.67109-90.51491 289.0252-90.4519 288.62306-90.38889 288.22093-90.28783 287.57695-90.22481 287.1758-90.1618 286.77467-90.06075 286.13215-89.99773 285.732-89.93471 285.33183-89.83366 284.69078-89.77066 284.29164-89.70764 283.8925-89.60658 283.25325-89.54356 282.8552-89.48056 282.4571-89.37949 281.81968-89.31648 281.4226-89.25346 281.02558-89.15242 280.3896-89.0894 279.99354-89.0264 279.59745-88.92534 278.96299-88.86232 278.56788-88.7993 278.17274-88.69824 277.53974-88.63524 277.1457-88.57222 276.75166-88.47118 276.12083-88.40816 275.7278-88.34515 275.3348-88.24408 274.70506-88.18108 274.313-88.11806 273.92094-88.017 273.2931-87.954 272.90205-87.89098 272.511-87.78992 271.8846-87.7269 271.49458-87.6639 271.10456-87.56284 270.48-87.49983 270.091-87.43681 269.70198-87.33575 269.0789-87.27274 268.69087-87.20973 268.3028-87.10867 267.6812-87.04565 267.2942-86.98264 266.90718-86.88159 266.28739-86.81859 265.9014-86.75557 265.51548-86.65451 264.8975-86.59149 264.51255-86.52849 264.12757-86.42741 263.51066-86.36441 263.1267-86.30139 262.74275-86.20035 262.1281-86.13733 261.74516-86.07433 261.36225-85.97327 260.74864-85.91025 260.36668-85.84723 259.98469-85.74617 259.37297-85.68317 258.99205-85.62015 258.61116-85.5191 258.00129-85.45609 257.62135-85.39308 257.2414-85.292 256.63258-85.229 256.25367-85.16599 255.87474-85.06493 255.2682-85.00192 254.8903-84.9389 254.51239-84.83786 253.9069-84.77484 253.52997-84.71184 253.15303-84.61076 252.54938-84.54776 252.17353-84.48474 251.79767-84.38368 251.19582-84.32066 250.82097-84.25766 250.44614-84.1566 249.84577-84.09358 249.4719-84.03056 249.098-83.92952 248.49913-83.86652 248.12627-83.8035 247.75342-83.70244 247.15637-83.63942 246.78453-83.57642 246.41269-83.47534 245.81716-83.41234 245.44628-83.34932 245.0754-83.24828 244.48131-83.18526 244.11145-83.12225 243.74158-83.0212 243.14936-82.95818 242.78054-82.89516 242.4117-82.7941 241.82089-82.7311 241.45308-82.66808 241.08527-82.56703 240.49629-82.50401 240.1295-82.44101 239.76271-82.33994 239.17519-82.27693 238.8094-82.21391 238.44364-82.11285 237.85794-82.04985 237.4932-81.98683 237.12844-81.88579 236.54424-81.82277 236.18044-81.75977 235.81664-81.65869 235.23392-81.59569 234.87114-81.53267 234.50836-81.43161 233.9275-81.36859 233.56574-81.30559 233.20398-81.20453 232.62453-81.14151 232.2638-81.07849 231.90308-80.97745 231.32547-80.91444 230.96576-80.85143 230.60605-80.75037 230.02993-80.68735 229.67118-80.62434 229.31243-80.52327 228.73778-80.46027 228.38005-80.39725 228.02231-80.2962 227.44947-80.23318 227.09282-80.17018 226.73616-80.06912 226.16516-80.0061 225.80947-79.94308 225.45377-79.84203 224.8839-79.77902 224.52916-79.716 224.17443-79.61496 223.6064-79.55194 223.25273-79.48894 222.89908-79.38786 222.33286-79.32486 221.98021-79.26184 221.62757-79.16078 221.06282-79.09778 220.71115-79.03476 220.35948-78.93372 219.79619-78.8707 219.44554-78.8077 219.0949-78.70662 218.53347-78.64362 218.18384-78.5806 217.8342-78.47954 217.27419-78.41652 216.92559-78.35352 216.57697-78.25246 216.01882-78.18944 215.67122-78.12642 215.32363-78.02538 214.76696-77.96237 214.4203-77.89935 214.07367-77.7983 213.5185-77.73528 213.17288-77.67227 212.82727-77.5712 212.27393-77.5082 211.92932-77.44518 211.58473-77.34413 211.0328-77.28111 210.68924-77.21811 210.34568-77.11705 209.7956-77.05403 209.45305-76.99101 209.1105-76.88995 208.5619-76.82695 208.22032-76.76393 207.87874-76.66289 207.33162-76.59987 206.99105-76.53687 206.65047-76.43579 206.10521-76.37279 205.76566-76.30977 205.4261-76.20871 204.88227-76.1457 204.54373-76.08269 204.2052-75.98164 203.66323-75.91862 203.32572-75.85562 202.98819-75.75455 202.44771-75.69154 202.11115-75.62852 201.7746-75.52747 201.23557-75.46445 200.90004-75.40144 200.56452-75.3004 200.02727-75.23738 199.69283-75.17436 199.35839-75.0733 198.82299-75.0103 198.4895-74.94728 198.15602-74.84622 197.62175-74.7832 197.28922-74.7202 196.95668-74.61913 196.42427-74.55612 196.09282-74.4931 195.76137-74.39206 195.23073-74.32904 194.9003-74.26604 194.56987-74.16498 194.04074-74.10196 193.71126-74.03894 193.38179-73.93788 192.85413-73.87488 192.52568-73.81186 192.19722-73.71082 191.6714-73.6478 191.34398-73.5848 191.01656-73.48372 190.49216-73.42072 190.16576-73.3577 189.83936-73.25664 189.31679-73.19363 188.9914-73.13062 188.66602-73.02957 188.14496-72.96655 187.82053-72.90355 187.4961-72.80247 186.97652-72.73947 186.6531-72.67645 186.3297-72.5754 185.8119-72.51237 185.48958-72.44937 185.16725-72.34833 184.6513-72.28531 184.32994-72.22229 184.00858-72.12123 183.49376-72.05823 183.17334-71.99521 182.85294-71.89415 182.33995-71.83113 182.02062-71.76813 181.7013-71.66705 181.19011-71.60405 180.87181-71.54103 180.55352-71.43999 180.0438-71.37697 179.72644-71.31396 179.4091-71.2129 178.90087-71.14989 178.58454-71.08687 178.26822-70.98581 177.76184-70.9228 177.44654-70.85979 177.13123-70.75874 176.62635-70.69572 176.312-70.63272 175.99765-70.53165 175.49423-70.46864 175.18091-70.40562 174.86757-70.30457 174.36595-70.24156 174.05371-70.17854 173.74146-70.0775 173.24164-70.01448 172.9304-69.95148 172.61917-69.8504 172.12082-69.7874 171.81056-69.72438 171.5003-69.62332 171.00348-69.5603 170.69417-69.4973 170.38488-69.39626 169.88956-69.33324 169.58127-69.27022 169.273-69.16916 168.77944-69.10616 168.47225-69.04314 168.16504-68.94208 167.67328-68.87906 167.3671-68.81606 167.06092-68.715 166.57065-68.652 166.26543-68.58897 165.9602-68.48792 165.47142-68.4249 165.1672-68.3619 164.863-68.26083 164.37609-68.19781 164.07289-68.1348 163.7697-68.03374 163.28424-67.97073 162.98203-67.90771 162.67981-67.80667 162.19583-67.74365 161.89464-67.68065 161.59343-67.57957 161.1113-67.51657 160.81113-67.45355 160.51094-67.3525 160.03023-67.28949 159.73107-67.22647 159.43192-67.12543 158.95307-67.06241 158.65493-66.9994 158.35678-66.89833 157.87935-66.83533 157.58223-66.77231 157.28511-66.67125 156.80953-66.60823 156.51343-66.54523 156.21732-66.44418 155.74323-66.38116 155.44808-66.31815 155.15294-66.21709 154.68033-66.15408 154.3862-66.09106 154.09209-65.99 153.6213-65.92699 153.32822-65.86398 153.03511-65.76292 152.56577-65.69992 152.2737-65.6369 151.98162-65.53584 151.51412-65.47282 151.22306-65.40982 150.93199-65.30876 150.46599-65.24574 150.17589-65.18272 149.88579-65.08167 149.42124-65.01866 149.13216-64.95564 148.84308-64.8546 148.3804-64.79158 148.09235-64.72858 147.80428-64.6275 147.34302-64.5645 147.05599-64.50148 146.76894-64.40042 146.30954-64.33742 146.02352-64.2744 145.73749-64.17336 145.27956-64.11034 144.9945-64.04733 144.70944-63.94626 144.25299-63.88326 143.96897-63.82024 143.68492-63.71918 143.23026-63.65616 142.9473-63.59315 142.66434-63.49211 142.21154-63.4291 141.92954-63.36607 141.64754-63.26501 141.19585-63.20201 140.91481-63.13899 140.63378-63.03793 140.18393-62.97491 139.90396-62.91191 139.62401-62.81085 139.17597-62.74785 138.89702-62.68483 138.61808-62.58377 138.17153-62.52075 137.89354-62.45775 137.61556-62.35669 137.17047-62.29367 136.89351-62.23065 136.61653-62.1296 136.1733-62.06659 135.89737-62.00357 135.62143-61.90253 135.1796-61.83951 134.9047-61.7765 134.62978-61.67543 134.1898-61.61243 133.91591-61.54941 133.64202-61.44835 133.20352-61.38535 132.93059-61.32233 132.65766-61.22128 132.22064-61.15826 131.94873-61.09526 131.6768-60.99419 131.24166-60.93118 130.97075-60.86816 130.69986-60.7671 130.26613-60.70409 129.99625-60.64108 129.72637-60.54004 129.29448-60.47702 129.02564-60.414 128.75678-60.31294 128.32637-60.24994 128.05847-60.18692 127.79059-60.08586 127.36165-60.02284 127.09477-59.95984 126.82791-59.85878 126.40077-59.79578 126.135-59.73276 125.8692-59.6317 125.44391-59.56868 125.17908-59.50568 124.91425-59.40462 124.49-59.3416 124.2262-59.27858 123.96239-59.17754 123.54044-59.11453 123.27763-59.05151 123.01485-58.95045 122.59395-58.88744 122.3321-58.82443 122.07027-58.72336 121.65129-58.66035 121.39049-58.59734 121.12967-58.49628 120.7121-58.43326 120.4523-58.37025 120.19252-58.26921 119.7768-58.20619 119.51802-58.14319 119.25925-58.04211 118.84494-57.97911 118.58719-57.91609 118.32944-57.81503 117.91699-57.75201 117.66026-57.68901 117.40353-57.58797 116.99258-57.52495 116.7368-57.46193 116.48103-57.36087 116.07155-57.29787 115.8168-57.23485 115.56204-57.13379 115.15442-57.07077 114.90068-57.00777 114.64694-56.90671 114.24074-56.8437 113.988-56.78069 113.73529-56.67963 113.33093-56.61661 113.07925-56.5536 112.82758-56.45255 112.42462-56.38953 112.17397-56.3265 111.9233-56.22546 111.52225-56.16246 111.27255-56.09944 111.02284-55.99838 110.62286-55.93536 110.37418-55.87236 110.12547-55.77129 109.72778-55.70828 109.48012-55.64526 109.23244-55.5442 108.83572-55.48119 108.58908-55.41818 108.34242-55.31714 107.94801-55.25412 107.70238-55.19112 107.45674-55.09004 107.06337-55.02704 106.8187-54.96402 106.57402-54.86296 106.18256-54.79994 105.93892-54.73694 105.69527-54.6359 105.30522-54.57288 105.06259-54.50986 104.81998-54.4088 104.43178-54.3458 104.19017-54.28278 103.94856-54.18172 103.56178-54.1187 103.3212-54.0557 103.08061-53.95464 102.6957-53.89163 102.45613-53.82861 102.21655-53.72755 101.83311-53.66454 101.59451-53.60153 101.3559-53.50047 100.97395-53.43745 100.73636-53.37444 100.49876-53.27339 100.11865-53.21039 99.88208-53.14737 99.64551-53.04631 99.26683-52.98329 99.0313-52.92029 98.79575-52.81921 98.4189-52.75621 98.18437-52.69319 97.94984-52.59213 97.5745-52.52911 97.34094-52.46611 97.10738-52.36507 96.73347-52.30205 96.50093-52.23904 96.26839-52.13797 95.8963-52.07497 95.66484-52.01195 95.43338-51.91089 95.06314-51.84787 94.83264-51.78487 94.60213-51.68382 94.23302-51.6208 94.00346-51.55779 93.77391-51.45673 93.40665-51.39372 93.17818-51.3307 92.9497-51.22964 92.58424-51.16663 92.3568-51.10362 92.12936-51.00256 91.76535-50.93956 91.53888-50.87654 91.3124-50.77548 90.94986-50.71246 90.7244-50.64946 90.49893-50.5484 90.13828-50.48538 89.91383-50.42236 89.68939-50.32132 89.33012-50.25832 89.1067-50.1953 88.88329-50.09424 88.52588-50.03122 88.30348-49.96822 88.08107-49.86714 87.72517-49.80414 87.50372-49.74112 87.28227-49.64008 86.92784-49.57706 86.70741-49.51405 86.48698-49.413 86.13441-49.34998 85.91501-49.28697 85.6956-49.1859 85.34444-49.1229 85.12605-49.05988 84.90768-48.95882 84.55835-48.8958 84.34099-48.8328 84.12364-48.73175 83.7758-48.66873 83.5594-48.60571 83.343-48.50465 82.99666-48.44165 82.78127-48.37863 82.56589-48.27757 82.22139-48.21455 82.00702-48.15155 81.79266-48.05049 81.4496-47.98749 81.23625-47.92447 81.0229-47.82341 80.68169-47.76039 80.46936-47.69739 80.25703-47.59633 79.91724-47.53331 79.70593-47.47029 79.49461-47.36925 79.15668-47.30624 78.9464-47.24323 78.7361-47.14217 78.39963-47.07915 78.1903-47.01614 77.98099-46.91507 77.646-46.85207 77.4377-46.78905 77.2294-46.688 76.89626-46.62498 76.68896-46.56198 76.48169-46.46092 76.15002-46.3979 75.94371-46.3349 75.7374-46.23383 75.4072-46.17082 75.2019-46.1078 74.9966-46.00674 74.66821-45.94373 74.46399-45.88072 74.25977-45.77968 73.93318-45.71666 73.72998-45.65364 73.52678-45.55258 73.20168-45.48958 72.99942-45.42656 72.79718-45.3255 72.4736-45.26248 72.27232-45.19948 72.07104-45.09842 71.74889-45.03542 71.54869-44.9724 71.3485-44.87134 71.02856-44.80832 70.82939-44.74532 70.6302-44.64426 70.31131-44.58124 70.1131-44.51822 69.91489-44.41718 69.5979-44.35417 69.4007-44.29115 69.2035-44.1901 68.88795-44.12708 68.69177-44.06407 68.49559-43.963 68.1819-43.9 67.98674-43.83698 67.79158-43.73593 67.47935-43.67291 67.28517-43.60991 67.09097-43.50885 66.78021-43.44583 66.58705-43.38283 66.39388-43.28175 66.08492-43.21875 65.89282-43.15573 65.70073-43.05467 65.39363-42.99165 65.2025-42.92865 65.01135-42.8276 64.70529-42.76459 64.51518-42.70157 64.32507-42.60051 64.02132-42.5375 63.83221-42.47449 63.64313-42.37343 63.34041-42.31041 63.15227-42.2474 62.96413-42.14635 62.66333-42.08334 62.4762-42.02032 62.28908-41.91927 61.9897-41.85625 61.8036-41.79324 61.61751-41.69218 61.31998-41.62917 61.1349-41.56615 60.94983-41.4651 60.65372-41.4021 60.46967-41.33908 60.28561-41.23802 59.99135-41.175 59.80832-41.112 59.62529-41.01093 59.33243-40.94792 59.15042-40.8849 58.9684-40.78386 58.67749-40.72084 58.49643-40.65784 58.31537-40.55678 58.02548-40.49376 57.84544-40.43076 57.66542-40.32968 57.37782-40.26668 57.1988-40.20366 57.01979-40.10262 56.73325-40.0396 56.55519-39.9766 56.37715-39.87553 56.09245-39.81252 55.91547-39.7495 55.73848-39.64844 55.45558-39.58543 55.27963-39.52242 55.10368-39.42136 54.82227-39.35834 54.64728-39.29533 54.47229-39.19427 54.19232-39.13127 54.01836-39.06825 53.84438-38.9672 53.56628-38.90417 53.39334-38.84117 53.22038-38.74011 52.94371-38.6771 52.77177-38.61407 52.59984-38.51303 52.32503-38.45003 52.15411-38.38701 51.9832-38.28595 51.70987-38.22293 51.53992-38.15993 51.36995-38.05885 51.0981-37.99585 50.92917-37.93283 50.76025-37.83179 50.49023-37.76877 50.32233-37.70576 50.15442-37.6047 49.88582-37.54169 49.71893-37.47868 49.55205-37.37761 49.28531-37.3146 49.11945-37.25159 48.95357-37.15054 48.68831-37.08752 48.5234-37.02452 48.35849-36.92346 48.09471-36.86044 47.93082-36.79742 47.76692-36.69637 47.505-36.63336 47.34213-36.57034 47.17926-36.46928 46.91878-36.40627 46.75691-36.34326 46.59506-36.2422 46.33641-36.1792 46.17558-36.11618 46.01474-36.01512 45.75757-35.9521 45.5977-35.8891 45.43784-35.78804 45.18214-35.72502 45.0233-35.662 44.86446-35.56096 44.61055-35.49796 44.45277-35.43494 44.29501-35.33388 44.04297-35.27086 43.88615-35.20786 43.72935-35.10678 43.47835-35.04378 43.32256-34.98076 43.16676-34.87971 42.91805-34.8167 42.76328-34.7537 42.6085-34.65263 42.36086-34.58961 42.20703-34.52661 42.05322-34.42554 41.80746-34.36253 41.6547-34.29951 41.5019-34.19847 41.25757-34.13545 41.1058-34.07245 40.95404-33.97139 40.71155-33.90837 40.5608-33.84535 40.41006-33.7443 40.16899-33.68129 40.01926-33.61827 39.86954-33.51721 39.63033-33.4542 39.48161-33.39119 39.3329-33.29013 39.09518-33.22713 38.94743-33.16411 38.79968-33.06305 38.56345-33.00003 38.41672-32.93703 38.26999-32.83597 38.03552-32.77295 37.88988-32.70993 37.74422-32.60889 37.51161-32.54588 37.36694-32.48286 37.22226-32.3818 36.99075-32.31879 36.84703-32.25578 36.70331-32.15471 36.47366-32.0917 36.33102-32.02869 36.18839-31.92764 35.96051-31.86462 35.8189-31.80162 35.67728-31.70056 35.45088-31.63754 35.31023-31.57454 35.16956-31.47346 34.94466-31.41046 34.80501-31.34744 34.66537-31.2464 34.44234-31.18338 34.30371-31.12038 34.16508-31.01932 33.94353-30.9563 33.80586-30.89328 33.6682-30.79222 33.44812-30.72922 33.31146-30.6662 33.17482-30.56516 32.95654-30.50214 32.82097-30.43913 32.6854-30.33806 32.46889-30.27505 32.33435-30.21204 32.19981-30.11098 31.9848-30.04796 31.85123-29.98495 31.71764-29.8839 31.50417-29.82088 31.37154-29.75786 31.23892-29.65681 31.02692-29.59381 30.89531-29.53079 30.7637-29.42973 30.55351-29.36671 30.42299-29.30371 30.29247-29.20264 30.08405-29.13963 29.95453-29.07661 29.82503-28.97557 29.61812-28.91255 29.48956-28.84955 29.36102-28.74849 29.15556-28.68547 29.02805-28.62247 28.90053-28.5214 28.69691-28.45839 28.57042-28.39537 28.44392-28.29433 28.24179-28.23131 28.11624-28.1683 27.9907-28.06723 27.79005-28.00423 27.66554-27.94121 27.54102-27.84015 27.34224-27.77715 27.21873-27.71413 27.09525-27.61308 26.89787-27.55006 26.77539-27.48706 26.65291-27.38599 26.4574-27.32298 26.33594-27.25996 26.21446-27.1589 26.02037-27.09589 25.89992-27.03288 25.77948-26.93182 25.58725-26.8688 25.46782-26.80579 25.34839-26.70474 25.15762-26.64174 25.03917-26.57872 24.92072-26.47766 24.73141-26.41464 24.61398-26.35164 24.49655-26.25056 24.30911-26.18756 24.19269-26.12454 24.07628-26.0235 23.89026-25.96048 23.77487-25.89748 23.65947-25.79642 23.47531-25.7334 23.36093-25.6704 23.24655-25.56932 23.06387-25.50632 22.95045-25.4433 22.83702-25.34225 22.65584-25.27924 22.54343-25.21623 22.43103-25.11516 22.2517-25.05215 22.1403-24.98914 22.02892-24.88808 21.851-24.82507 21.74065-24.76205 21.6303-24.66101 21.4542-24.59799 21.34486-24.53499 21.23553-24.43391 21.06093-24.37091 20.95256-24.30789 20.8442-24.20683 20.67107-24.14381 20.5637-24.08081 20.45634-23.97977 20.28508-23.91675 20.17874-23.85373 20.07242-23.75267 19.90257-23.68967 19.79726-23.62665 19.69194-23.52559 19.52394-23.46257 19.41963-23.39957 19.31534-23.2985 19.14879-23.23549 19.0455-23.17247 18.94221-23.07143 18.77751-23.0084 18.67525-22.9454 18.57298-22.84435 18.40974-22.78133 18.30846-22.71832 18.20715-22.61725 18.0454-22.55424 17.94513-22.49123 17.84485-22.39018 17.68494-22.32716 17.5857-22.26416 17.48643-22.16309 17.32794-22.10008 17.2297-22.03706 17.13147-21.936 16.97484-21.873 16.87762-21.80998 16.78041-21.70894 16.62526-21.64592 16.52899-21.58292 16.43274-21.48184 16.27907-21.41884 16.18382-21.35582 16.08858-21.25476 15.93675-21.19174 15.84254-21.12874 15.74835-21.0277 15.59793-20.96468 15.50475-20.90166 15.41156-20.8006 15.26299-20.7376 15.17082-20.67458 15.07866-20.57352 14.93158-20.5105 14.84036-20.4475 14.74915-20.34642 14.60356-20.28342 14.51337-20.2204 14.42317-20.11935 14.27943-20.05634 14.19026-19.99333 14.10109-19.89227 13.95877-19.82925 13.8706-19.76625 13.78246-19.66518 13.642-19.60217 13.55487-19.53915 13.46773-19.43811 13.32869-19.37509 13.24257-19.31209 13.15645-19.21101 13.01926-19.14801 12.93417-19.08499 12.84909-18.98393 12.71336-18.92093 12.62923-18.85791 12.5451-18.75687 12.41086-18.69385 12.32774-18.63084 12.24464-18.52977 12.11226-18.46677 12.03017-18.40375 11.94807-18.30269 11.81711-18.23967 11.73604-18.17667 11.65497-18.07562 11.52586-18.0126 11.4458-17.94958 11.36575-17.84853 11.23813-17.78552 11.15904-17.7225 11.07994-17.62144 10.9538-17.55843 10.87572-17.49542 10.79764-17.39435 10.67334-17.33134 10.5963-17.26833 10.51926-17.16728 10.39636-17.10426 10.32034-17.04126 10.24432-16.9402 10.12328-16.87718 10.04828-16.81418 9.97327-16.7131 9.85371-16.6501 9.77966-16.58708 9.70561-16.48604 9.58754-16.42302 9.51451-16.36002 9.44148-16.25894 9.32529-16.19594 9.25327-16.13292 9.18126-16.03186 9.06647-15.96886 8.99547-15.90584 8.92448-15.8048 8.81154-15.74178 8.74158-15.67877 8.6716-15.5777 8.56007-15.5147 8.49113-15.45168 8.4222-15.35062 8.31252-15.2876 8.24458-15.2246 8.17667-15.12355 8.06847-15.06053 8.00151-14.99751 7.93454-14.89645 7.82782-14.83345 7.76189-14.77043 7.69594-14.66937 7.59106-14.60635 7.52614-14.54335 7.46121-14.44229 7.35777-14.37929 7.29387-14.31627 7.22997-14.21521 7.12839-14.15219 7.06549-14.08919 7.0026-13.98813 6.90251-13.92511 6.84058-13.8621 6.77864-13.76103 6.68002-13.69803 6.61911-13.63501 6.5582-13.53397 6.46143-13.47095 6.40155-13.40794 6.34166-13.30687 6.2463-13.24387 6.18744-13.18085 6.12859-13.07979 6.03506-13.01678 5.97723-12.95377 5.91939-12.85272 5.82736-12.7897 5.77048-12.7267 5.7136-12.62563 5.62305-12.56262 5.56718-12.4996 5.51132-12.39854 5.42262-12.33553 5.36778-12.27252 5.31293-12.17148 5.22568-12.10846 5.17184-12.04544 5.11801-11.94438 5.0326-11.88138 4.9798-11.81836 4.927-11.7173 4.84299-11.65428 4.79121-11.59128 4.73944-11.49022 4.65727-11.42722 4.6065-11.3642 4.55576-11.26314 4.47508-11.20012 4.4253-11.13712 4.37549-11.03606 4.29628-10.97304 4.2475-10.91003 4.19872-10.80896 4.12138-10.74596 4.07362-10.68294 4.02586-10.5819 3.95001-10.51888 3.90321-10.45587 3.8564-10.3548 3.78203-10.2918 3.73624-10.22878 3.69046-10.12772 3.61789-10.06471 3.57318-10.0017 3.52847-9.90065 3.4577-9.83763 3.414-9.77463 3.37032-9.67355 3.30101-9.61055 3.2583-9.54753 3.21558-9.44647 3.14781-9.38345 3.10605-9.32045 3.06429-9.2194 2.99799-9.15639 2.95724-9.09337 2.9165-8.99231 2.852-8.9293 2.81235-8.86629 2.77267-8.76523 2.70999-8.70221 2.67134-8.6392 2.6327-8.53815 2.57149-8.47514 2.5338-8.41212 2.49611-8.31107 2.43637-8.24805 2.3997-8.18504 2.36304-8.08398 2.30515-8.02097 2.26952-7.95796 2.23387-7.85689 2.17744-7.79388 2.14278-7.73087 2.1081-7.62982 2.05316-7.5668 2.0195-7.5038 1.98584-7.40273 1.9327-7.33972 1.90012-7.2767 1.86754-7.17564 1.81627-7.11264 1.78464-7.04962 1.75302-6.94858 1.70284-6.88556 1.67218-6.82256 1.64151-6.72148 1.59319-6.65848 1.56361-6.59546 1.53403-6.4944 1.4875-6.43138 1.45894-6.36838 1.43037-6.26733 1.38533-6.20432 1.35773-6.1413 1.33012-6.04024 1.28653-5.97723 1.25996-5.91422 1.23338-5.81316 1.19167-5.75014 1.1661-5.68713 1.14055-5.58607 1.10023-5.52307 1.0757-5.46005 1.05116-5.359 1.01271-5.29597 .9892-5.23297 .96568-5.13191 .92865-5.0689 .90616-5.00587 .88365-4.90483 .84854-4.84183 .827-4.77881 .80545-4.67775 .7714-4.61473 .75087-4.55173 .73035-4.45065 .69856-4.38765 .67906-4.32463 .65956-4.22357 .62881-4.16057 .61029-4.09755 .59177-3.9965 .56287-3.93349 .54541-3.87048 .52795-3.76941 .50087-3.7064 .48444-3.64339 .468-3.54233 .44237-3.47931 .4269-3.4163 .41142-3.31526 .3873-3.25224 .37283-3.18922 .35838-3.08817 .33609-3.02516 .32265-2.96214 .30922-2.86108 .28836-2.79807 .27594-2.73506 .26352-2.634 .24454-2.571 .23312-2.50798 .22173-2.40692 .20418-2.3439 .19376-2.2809 .18333-2.17984 .16728-2.11682 .15787-2.0538 .14845-1.95276 .13425-1.88976 .12585-1.82674 .11746-1.72568 .10468-1.66266 .0973-1.59966 .08992-1.49858 .07901-1.43558 .07266-1.37256 .0663-1.2715 .05685-1.2085 .05145-1.14548 .04605-1.04443 .0381-.98141 .03372-.91841 .02934-.81734 .02324-.75433 .01988-.69131 .01651-.59026 .01183-.52724 .00949-.46423 .00717-.36319 .00432-.30017 .00302-.23715 .00171-.07309 0-.07309 0"/>
</g>
<path transform="matrix(1.00009,0,0,-1,120.56023,131.12)" stroke-width=".79701" stroke-linecap="butt" stroke-dasharray="2.98883,2.98883" stroke-miterlimit="10" stroke-linejoin="miter" fill="none" stroke="#000000" d="M113.38724 28.3468H-113.38724"/>
<path transform="matrix(1.00009,0,0,-1,120.56023,131.12)" stroke-width=".79701" stroke-linecap="butt" stroke-dasharray="2.98883,2.98883" stroke-miterlimit="10" stroke-linejoin="miter" fill="none" stroke="#000000" d="M-28.3468 0V28.3468"/>
<use data-text="&#x2022;" xlink:href="#font_3_1" transform="matrix(9.963496,0,0,-9.9626,89.72045,104.987)"/>
<use data-text="&#x2022;" xlink:href="#font_3_1" transform="matrix(9.963496,0,0,-9.9626,89.72045,133.334)"/>
<use data-text="&#x2022;" xlink:href="#font_3_1" transform="matrix(9.963496,0,0,-9.9626,118.069,133.334)"/>
<use data-text="(" xlink:href="#font_4_1" transform="matrix(9.963496,0,0,-9.9626,109.48923,142.112)"/>
<use data-text="0" xlink:href="#font_4_3" transform="matrix(9.963496,0,0,-9.9626,113.35507,142.112)"/>
<use data-text="," xlink:href="#font_1_1" transform="matrix(9.963496,0,0,-9.9626,118.34602,142.112)"/>
<use data-text="0" xlink:href="#font_4_3" transform="matrix(9.963496,0,0,-9.9626,122.774417,142.112)"/>
<use data-text=")" xlink:href="#font_4_2" transform="matrix(9.963496,0,0,-9.9626,127.75615,142.112)"/>
</svg>
