<svg xmlns="http://www.w3.org/2000/svg" xmlns:xlink="http://www.w3.org/1999/xlink" version="1.1" width="307" height="167" viewBox="0 0 307 167">
<defs>
<path id="font_1_2" d="M.33399964 .30233766C.33999635 .32835389 .36299134 .42037965 .43299867 .42037965 .43798829 .42037965 .46199037 .42037965 .48298646 .40734864 .45498658 .402359 .43499757 .37734986 .43499757 .35334779 .43499757 .33735658 .44599916 .31835938 .47299195 .31835938 .49499513 .31835938 .5269928 .3363495 .5269928 .37635804 .5269928 .42837525 .46798707 .4423828 .43399049 .4423828 .37599183 .4423828 .34098817 .38935853 .32899476 .36634828 .3039856 .43237306 .25 .4423828 .22099304 .4423828 .116989139 .4423828 .05999756 .3133545 .05999756 .28834535 .05999756 .27833558 .069992069 .27833558 .07199097 .27833558 .07998657 .27833558 .08299255 .28033448 .084991458 .28933717 .11898804 .39535523 .18499756 .42037965 .21899414 .42037965 .23799134 .42037965 .272995 .4113617 .272995 .35334779 .272995 .32235719 .2559967 .25532533 .21899414 .11528015 .20298767 .053268434 .16799927 .011245728 .12399292 .011245728 .117996219 .011245728 .09498596 .011245728 .07398987 .024276734 .09899902 .029266358 .12098694 .05027771 .12098694 .07827759 .12098694 .105270389 .09899902 .11328125 .083999637 .11328125 .053985597 .11328125 .0289917 .08728027 .0289917 .055267335 .0289917 .009246826 .07899475-.0107421879 .12298584-.0107421879 .18899536-.0107421879 .22499085 .059280397 .22799683 .0652771 .23999024 .028274537 .27598573-.0107421879 .33599855-.0107421879 .43899537-.0107421879 .49598695 .118270877 .49598695 .14328003 .49598695 .1532898 .4869995 .1532898 .48399354 .1532898 .47499085 .1532898 .47299195 .14929199 .47099305 .14228821 .43798829 .03527832 .36999513 .011245728 .33799745 .011245728 .29899598 .011245728 .2829895 .043273927 .2829895 .07727051 .2829895 .09927368 .2889862 .121276859 .2999878 .16529846L.33399964 .30233766Z"/>
<path id="font_1_3" d="M.48599244 .38136292C.48999024 .39537049 .48999024 .39736939 .48999024 .40437318 .48999024 .42237855 .47599793 .43138124 .46099855 .43138124 .45098878 .43138124 .43499757 .42536927 .42599488 .41036988 .42399598 .405365 .41600038 .37435914 .4119873 .35635377 .40499879 .33035279 .397995 .30334474 .3919983 .27633668L.34700013 .09628296C.34298707 .08126831 .2999878 .011245728 .23399353 .011245728 .18299866 .011245728 .17199707 .055267335 .17199707 .0922699 .17199707 .1382904 .18899536 .20030213 .22299195 .28833009 .23899842 .3293457 .24299622 .3403473 .24299622 .36035157 .24299622 .405365 .21099854 .4423828 .16099549 .4423828 .06599426 .4423828 .0289917 .29733277 .0289917 .28833009 .0289917 .27833558 .038986207 .27833558 .040985109 .27833558 .050994874 .27833558 .051986696 .28033448 .056991579 .29634095 .083999637 .3903656 .12399292 .42037965 .1579895 .42037965 .1659851 .42037965 .18299866 .42037965 .18299866 .3883667 .18299866 .36335755 .17298889 .3373413 .1659851 .31834413 .12599182 .21231079 .10798645 .1552887 .10798645 .10827637 .10798645 .019256592 .17098999-.0107421879 .22999573-.0107421879 .2689972-.0107421879 .30299378 .0062561037 .33099366 .03425598 .31799317-.017745972 .30599977-.06674194 .2659912-.11973572 .23999024-.15385437 .20199585-.18309021 .1559906-.18309021 .14199829-.18309021 .09700012-.18005371 .07998657-.14074707 .09599304-.14074707 .10899353-.14074707 .12298584-.1287384 .1329956-.11973572 .14299011-.10673523 .14299011-.08773804 .14299011-.056747438 .115997318-.052734376 .10598755-.052734376 .08299255-.052734376 .049987794-.068740848 .049987794-.11773682 .049987794-.16796875 .09399414-.20507813 .1559906-.20507813 .25898744-.20507813 .3619995-.11373901 .3899994-.00074768069L.48599244 .38136292Z"/>
<clipPath id="clip_2">
<path transform="matrix(1.00008,0,0,-1.00006,148.90847,159.47679)" d="M-141.73404 0V141.73404H141.73404V0ZM141.73404 141.73404"/>
</clipPath>
<path id="font_3_1" d="M.44400025 .24998474C.44400025 .35688783 .35499574 .44381715 .25 .44381715 .14199829 .44381715 .054992677 .35488893 .054992677 .24998474 .054992677 .14407349 .14199829 .056137086 .25 .056137086 .35499574 .056137086 .44400025 .14308167 .44400025 .24998474Z"/>
<path id="font_4_1" d="M.33099366-.2400055C.33099366-.23701477 .33099366-.23500061 .31399537-.21800232 .18899536-.0920105 .15699768 .09700012 .15699768 .25 .15699768 .42399598 .19499207 .59799197 .31799317 .72299197 .33099366 .73498538 .33099366 .7369995 .33099366 .73999026 .33099366 .746994 .32699586 .75 .32099916 .75 .31098939 .75 .22099304 .6819916 .1619873 .5549927 .11099243 .44499208 .09899902 .33399964 .09899902 .25 .09899902 .17199707 .10998535 .050994874 .16499329-.06201172 .22499085-.18501282 .31098939-.25 .32099916-.25 .32699586-.25 .33099366-.24700928 .33099366-.2400055Z"/>
<path id="font_4_3" d="M.45999146 .31976319C.45999146 .39982606 .45498658 .47988893 .41999818 .5539398 .37399293 .65000918 .2919922 .6660156 .25 .6660156 .18998719 .6660156 .116989139 .64001467 .07598877 .54693606 .04399109 .47789 .038986207 .39982606 .038986207 .31976319 .038986207 .24472046 .042999269 .15464783 .083999637 .07859802 .1269989-.0024719239 .19999695-.022460938 .24899292-.022460938 .30299378-.022460938 .3789978-.0014648438 .4229889 .09359741 .45498658 .16265869 .45999146 .2407074 .45999146 .31976319M.24899292-.00047302247C.20999146-.00047302247 .15098572 .024551392 .1329956 .12062073 .12199402 .18066406 .12199402 .2727356 .12199402 .3317871 .12199402 .39582826 .12199402 .46188355 .12998963 .5159149 .14898682 .63500979 .22399903 .64401248 .24899292 .64401248 .28199769 .64401248 .34799195 .6259918 .36698915 .52693179 .3769989 .47088624 .3769989 .39482118 .3769989 .3317871 .3769989 .25672914 .3769989 .18867493 .3659973 .12461853 .35099793 .029556275 .2939911-.00047302247 .24899292-.00047302247Z"/>
<path id="font_1_1" d="M.20298767 .0009918213C.20298767 .066986087 .17799378 .10598755 .13899231 .10598755 .10598755 .10598755 .085998538 .08099365 .085998538 .052993776 .085998538 .025985718 .10598755 0 .13899231 0 .15098572 0 .1639862 .0039978029 .17399597 .0129852299 .1769867 .01499939 .17799378 .015991211 .1789856 .015991211 .17999268 .015991211 .18099976 .01499939 .18099976 .0009918213 .18099976-.07316589 .1459961-.13328552 .11299133-.16635132 .101989749-.17736817 .101989749-.17936707 .101989749-.18237305 .101989749-.18936157 .10699463-.19335938 .11199951-.19335938 .12298584-.19335938 .20298767-.116256717 .20298767 .0009918213Z"/>
<path id="font_4_4" d="M.2939911 .64004519C.2939911 .66400149 .2939911 .6660156 .2709961 .6660156 .20899964 .60227969 .12098694 .60227969 .08898926 .60227969V.57128909C.10899353 .57128909 .16799927 .57128909 .21998596 .5972748V.07902527C.21998596 .042999269 .21699524 .0309906 .1269989 .0309906H.09498596V0C.12998963 .0029907227 .21699524 .0029907227 .25698854 .0029907227 .29699708 .0029907227 .38398744 .0029907227 .4189911 0V.0309906H.3869934C.29699708 .0309906 .2939911 .041992189 .2939911 .07902527V.64004519Z"/>
<path id="font_4_2" d="M.2889862 .25C.2889862 .32798768 .27799989 .44898988 .22299195 .56199648 .16299439 .68499758 .07699585 .75 .066986087 .75 .06098938 .75 .056991579 .74598696 .056991579 .73999026 .056991579 .7369995 .056991579 .73498538 .07598877 .71699526 .17399597 .6179962 .23098755 .45899964 .23098755 .25 .23098755 .07899475 .19400025-.09700012 .069992069-.2230072 .056991579-.23500061 .056991579-.23701477 .056991579-.2400055 .056991579-.2460022 .06098938-.25 .066986087-.25 .07699585-.25 .16699219-.18200684 .22599793-.055007936 .2769928 .054992677 .2889862 .16600037 .2889862 .25Z"/>
</defs>
<path transform="matrix(1.00008,0,0,-1.00006,148.90847,159.47679)" stroke-width=".19925" stroke-linecap="butt" stroke-miterlimit="10" stroke-linejoin="miter" fill="none" stroke="#929292" d="M-141.73404 0H141.73404M-141.73404 28.3468H141.73404M-141.73404 56.69362H141.73404M-141.73404 85.04042H141.73404M-141.73404 113.38724H141.73404M-141.73404 141.72409H141.73404M-141.73404 0V141.73404M-113.38724 0V141.73404M-85.04042 0V141.73404M-56.69362 0V141.73404M-28.3468 0V141.73404M0 0V141.73404M28.3468 0V141.73404M56.69362 0V141.73404M85.04042 0V141.73404M113.38724 0V141.73404M141.72409 0V141.73404M141.73404 141.73404"/>
<path transform="matrix(1.00008,0,0,-1.00006,148.90847,159.47679)" stroke-width="1.19553" stroke-linecap="butt" stroke-miterlimit="10" stroke-linejoin="miter" fill="none" stroke="#000000" d="M-147.40332 0H146.4469"/>
<path transform="matrix(1.00008,0,0,-1.00006,295.36708,159.47679)" stroke-width=".9564" stroke-linecap="round" stroke-linejoin="round" fill="none" stroke="#000000" d="M-1.91284 2.55046C-1.75343 1.59402 0 .15938 .4782 0 0-.15938-1.75343-1.59402-1.91284-2.55046"/>
<use data-text="x" xlink:href="#font_1_2" transform="matrix(9.963397,0,0,-9.963197,300.24256,161.62192)"/>
<path transform="matrix(1.00008,0,0,-1.00006,148.90847,159.47679)" stroke-width="1.19553" stroke-linecap="butt" stroke-miterlimit="10" stroke-linejoin="miter" fill="none" stroke="#000000" d="M0-5.66927V146.4469"/>
<path transform="matrix(0,-1.00006,-1.00008,-0,148.90847,13.021118)" stroke-width=".9564" stroke-linecap="round" stroke-linejoin="round" fill="none" stroke="#000000" d="M-1.91284 2.55046C-1.75343 1.59402 0 .15938 .4782 0 0-.15938-1.75343-1.59402-1.91284-2.55046"/>
<use data-text="y" xlink:href="#font_1_3" transform="matrix(9.963397,0,0,-9.963197,146.28726,6.208603)"/>
<g clip-path="url(#clip_2)">
<path transform="matrix(1.00008,0,0,-1.00006,148.90847,159.47679)" stroke-width=".79701" stroke-linecap="butt" stroke-miterlimit="10" stroke-linejoin="miter" fill="none" stroke="#0000ff" d="M-141.73404 2.32487C-141.73404 2.32487-141.3237 2.34373-141.1661 2.3504-141.00853 2.35706-140.75579 2.36623-140.59819 2.37288-140.44062 2.37955-140.18785 2.3917-140.03026 2.3984-139.87268 2.40512-139.61994 2.41461-139.46236 2.42133-139.30477 2.42805-139.052 2.4402-138.89443 2.44685-138.73683 2.45352-138.48409 2.46268-138.3265 2.46935-138.16892 2.476-137.91616 2.4878-137.75858 2.49486-137.60099 2.50194-137.34824 2.51332-137.19066 2.52039-137.03307 2.52745-136.7803 2.53883-136.62273 2.5459-136.46515 2.55296-136.21239 2.56435-136.05481 2.57143-135.89723 2.57849-135.64449 2.58987-135.4869 2.59694-135.32932 2.60402-135.07656 2.61496-134.91896 2.62245-134.76139 2.62994-134.50864 2.64351-134.35105 2.651-134.19347 2.6585-133.9407 2.6691-133.78311 2.67653-133.62554 2.68396-133.37279 2.69722-133.21521 2.70465-133.05762 2.71208-132.80486 2.72267-132.64728 2.73016-132.48969 2.73766-132.23694 2.75085-132.07936 2.75871-131.92177 2.76657-131.669 2.77898-131.51143 2.78683-131.35384 2.7947-131.10109 2.80751-130.94351 2.81537-130.78592 2.82323-130.53316 2.83563-130.37558 2.84349-130.218 2.85135-129.96524 2.86418-129.80767 2.87204-129.65009 2.8799-129.39734 2.89229-129.23975 2.90015-129.08217 2.908-128.8294 2.92043-128.67182 2.9287-128.51424 2.93697-128.26149 2.95158-128.1039 2.95985-127.94632 2.96812-127.69356 2.98013-127.53596 2.9884-127.37839 2.99667-127.12564 3.01132-126.96806 3.01953-126.81047 3.02774-126.55771 3.03944-126.40013 3.04765-126.24254 3.05586-125.98979 3.0701-125.83221 3.07878-125.67462 3.08748-125.42186 3.10167-125.26428 3.11037-125.10669 3.11906-124.85394 3.13287-124.69637 3.14151-124.53877 3.15015-124.28601 3.16365-124.12843 3.17264-123.97086 3.18164-123.7181 3.19739-123.56052 3.20639-123.40294 3.2154-123.15019 3.22847-122.9926 3.23753-122.83502 3.24658-122.58226 3.26263-122.42467 3.2717-122.26709 3.28076-122.01434 3.2938-121.85675 3.30286-121.69917 3.3119-121.44641 3.32755-121.28882 3.337-121.13124 3.34648-120.8785 3.36177-120.72092 3.37119-120.56332 3.3806-120.31056 3.39551-120.15298 3.40492-119.99539 3.41432-119.74265 3.42963-119.58507 3.43909-119.42747 3.44856-119.17471 3.46385-119.01714 3.47327-118.85954 3.48268-118.6068 3.49716-118.44922 3.507-118.29163 3.51683-118.03888 3.53436-117.8813 3.54419-117.72372 3.55403-117.47095 3.56818-117.31337 3.57794-117.15579 3.58772-116.90305 3.60445-116.74545 3.6147-116.58788 3.62497-116.33511 3.64165-116.17752 3.6519-116.01994 3.66217-115.7672 3.67847-115.6096 3.68866-115.45203 3.69887-115.19926 3.71524-115.04167 3.72543-114.8841 3.73564-114.63135 3.75159-114.47377 3.76219-114.31618 3.7728-114.06342 3.79138-113.90584 3.80199-113.74825 3.8126-113.4955 3.82816-113.33792 3.83876-113.18033 3.84938-112.92757 3.86751-112.76999 3.87856-112.6124 3.88959-112.35965 3.90738-112.20207 3.91835-112.04448 3.92932-111.79173 3.94673-111.63416 3.9577-111.47658 3.96869-111.2238 3.98647-111.06622 3.9975-110.90865 4.00854-110.6559 4.02625-110.4983 4.0373-110.34073 4.04832-110.08797 4.06569-109.93037 4.07709-109.7728 4.08849-109.52005 4.10806-109.36246 4.11948-109.20488 4.13087-108.95212 4.14787-108.79453 4.15927-108.63695 4.17067-108.3842 4.18983-108.22662 4.20164-108.06903 4.21347-107.81627 4.23267-107.65869 4.24448-107.5011 4.25629-107.24835 4.27512-107.09077 4.28688-106.93318 4.29863-106.68042 4.31708-106.52284 4.32925-106.36525 4.34143-106.1125 4.3625-105.95493 4.37468-105.79733 4.38686-105.54459 4.40489-105.38701 4.41707-105.22943 4.42924-104.97665 4.44987-104.81908 4.46248-104.6615 4.47507-104.40875 4.4953-104.25116 4.50789-104.09358 4.5205-103.84082 4.54071-103.68323 4.55331-103.52565 4.56592-103.2729 4.58612-103.11531 4.59872-102.95773 4.61133-102.70497 4.6312-102.54738 4.64415-102.3898 4.6571-102.13705 4.67921-101.97948 4.69215-101.82188 4.70511-101.56912 4.72455-101.41154 4.73756-101.25395 4.75058-101.0012 4.77264-100.84363 4.78601-100.68604 4.7994-100.43327 4.82071-100.2757 4.83403-100.1181 4.84734-99.86536 4.8683-99.70778 4.88205-99.55019 4.89578-99.29744 4.9193-99.13986 4.93307-98.98228 4.94687-98.7295 4.96774-98.57193 4.98152-98.41435 4.99532-98.1616 5.0184-98.00401 5.03256-97.84644 5.0467-97.59367 5.06946-97.43608 5.0836-97.2785 5.09776-97.02576 5.12048-96.86816 5.13464-96.71059 5.14879-96.45782 5.17116-96.30023 5.18567-96.14265 5.2002-95.88991 5.22481-95.73233 5.23932-95.57474 5.25385-95.32198 5.27577-95.1644 5.29036-95.0068 5.30493-94.75406 5.32944-94.59648 5.34444-94.43889 5.35942-94.18614 5.38356-94.02856 5.39848-93.87097 5.41342-93.61821 5.43718-93.46063 5.45212-93.30304 5.46707-93.0503 5.49084-92.89272 5.5062-92.73514 5.52155-92.48236 5.54713-92.32478 5.56285-92.1672 5.57857-91.91446 5.6038-91.75687 5.61952-91.59929 5.63524-91.34653 5.66046-91.18893 5.67618-91.03136 5.6919-90.77861 5.71712-90.62102 5.73283-90.46344 5.74857-90.21068 5.77338-90.05309 5.7895-89.89551 5.80563-89.64276 5.8327-89.48518 5.8492-89.32759 5.86569-89.07483 5.89195-88.91725 5.90845-88.75966 5.92494-88.50691 5.95158-88.34933 5.96814-88.19174 5.9847-87.939 6.01134-87.78142 6.02783-87.62383 6.04433-87.37106 6.07018-87.21349 6.0871-87.0559 6.10402-86.80315 6.13249-86.64557 6.14981-86.48799 6.16714-86.23521 6.19482-86.07764 6.2121-85.92006 6.22937-85.66731 6.25711-85.50972 6.27438-85.35214 6.29166-85.09938 6.31934-84.94179 6.33667-84.78421 6.35399-84.53146 6.3817-84.37387 6.39938-84.2163 6.41708-83.96353 6.44621-83.80594 6.46426-83.64836 6.48233-83.39561 6.51146-83.23804 6.52957-83.08044 6.5477-82.82768 6.57642-82.6701 6.59488-82.51251 6.61336-82.25977 6.64433-82.10219 6.66281-81.9446 6.68127-81.69185 6.70964-81.53427 6.72812-81.37668 6.74658-81.12392 6.77713-80.96634 6.79602-80.80875 6.81491-80.556 6.84511-80.39842 6.86436-80.24084 6.88364-79.98807 6.91525-79.83049 6.93486-79.67291 6.95447-79.42017 6.98648-79.26257 7.00581-79.105 7.02513-78.85223 7.05447-78.69464 7.07414-78.53706 7.09381-78.28432 7.12764-78.12672 7.14767-77.96915 7.16771-77.71638 7.19856-77.55879 7.21861-77.40121 7.23865-77.14847 7.2721-76.99089 7.29214-76.8333 7.31218-76.58054 7.34262-76.42296 7.36308-76.26537 7.38354-76.01262 7.41878-75.85504 7.43964-75.69745 7.46051-75.4447 7.49272-75.28712 7.5136-75.12953 7.53447-74.87677 7.56892-74.7192 7.59016-74.5616 7.61139-74.30885 7.64548-74.15128 7.66672-73.9937 7.68796-73.74092 7.72205-73.58334 7.74329-73.42577 7.76453-73.17302 7.79825-73.01543 7.81984-72.85785 7.84145-72.60509 7.87698-72.4475 7.899-72.28992 7.92102-72.03717 7.95657-71.87958 7.97858-71.722 8.0006-71.46924 8.03537-71.31165 8.05774-71.15407 8.08012-70.90132 8.11707-70.74374 8.13992-70.58615 8.16278-70.3334 8.19966-70.17583 8.22253-70.01823 8.24539-69.76547 8.28156-69.6079 8.30472-69.4503 8.32787-69.19756 8.36592-69.03998 8.3895-68.88239 8.41307-68.62962 8.45107-68.47205 8.4747-68.31445 8.49834-68.0617 8.53633-67.90413 8.5599-67.74655 8.58348-67.49377 8.62074-67.3362 8.64468-67.17862 8.66862-66.92587 8.70808-66.76828 8.7325-66.6107 8.75691-66.35794 8.79631-66.20035 8.82072-66.04277 8.84514-65.79002 8.88376-65.63243 8.90854-65.47485 8.93332-65.22209 8.97423-65.0645 8.99936-64.90692 9.0245-64.65417 9.06462-64.4966 9.08977-64.339 9.11491-64.08626 9.1554-63.92868 9.1806-63.77109 9.20581-63.51833 9.24588-63.36075 9.27144-63.20316 9.297-62.95041 9.33852-62.79283 9.36487-62.63524 9.3912-62.38248 9.43498-62.2249 9.46132-62.0673 9.48767-61.81456 9.52841-61.65698 9.55475-61.4994 9.5811-61.24663 9.62402-61.08905 9.65121-60.93147 9.67839-60.67873 9.72351-60.52113 9.75069-60.36356 9.77788-60.1108 9.82002-59.9532 9.84715-59.79562 9.87427-59.54288 9.91866-59.38528 9.9462-59.2277 9.97372-58.97495 10.01772-58.81735 10.04567-58.65977 10.07362-58.40703 10.11949-58.24945 10.14775-58.09186 10.17601-57.83911 10.22072-57.68153 10.2494-57.52394 10.27809-57.27118 10.32579-57.1136 10.35452-56.95601 10.38326-56.70326 10.42787-56.54568 10.4566-56.38809 10.48534-56.13533 10.53218-55.97775 10.5617-55.82016 10.59123-55.56741 10.63953-55.40984 10.66939-55.25226 10.69926-54.99948 10.74721-54.8419 10.7771-54.68433 10.80699-54.43158 10.8545-54.27399 10.88481-54.11641 10.9151-53.86365 10.96487-53.70605 10.99554-53.54848 11.0262-53.29573 11.07516-53.13814 11.10583-52.98056 11.13649-52.7278 11.18547-52.5702 11.21655-52.41263 11.24765-52.15988 11.29845-52.0023 11.3299-51.84471 11.36133-51.59196 11.41135-51.43439 11.4432-51.2768 11.47507-51.02403 11.52728-50.86646 11.55956-50.70886 11.59184-50.45612 11.64365-50.29854 11.67592-50.14095 11.70819-49.88818 11.75963-49.7306 11.79227-49.57301 11.8249-49.32027 11.87779-49.16269 11.91121-49.00511 11.94463-48.75233 11.99979-48.59476 12.03319-48.43718 12.0666-48.18443 12.11871-48.02684 12.15213-47.86926 12.18555-47.6165 12.23991-47.45891 12.27411-47.30133 12.30832-47.04858 12.36406-46.89099 12.39868-46.73341 12.43329-46.48067 12.48865-46.32307 12.52368-46.1655 12.55873-45.91273 12.61632-45.75516 12.65129-45.59756 12.68626-45.34482 12.74045-45.18724 12.77586-45.02965 12.81126-44.77689 12.8703-44.61931 12.9065-44.46172 12.94267-44.20897 13.0005-44.05139 13.03668-43.8938 13.07286-43.64104 13.1307-43.48346 13.16731-43.32587 13.20392-43.07312 13.26357-42.91554 13.30052-42.75797 13.33748-42.50519 13.39638-42.34761 13.43375-42.19003 13.47113-41.93729 13.53224-41.7797 13.56999-41.62212 13.60774-41.36935 13.66772-41.21176 13.70583-41.05418 13.74391-40.80144 13.80608-40.64384 13.84467-40.48627 13.88324-40.23352 13.94536-40.07593 13.98395-39.91835 14.02252-39.66559 14.08348-39.50801 14.12279-39.35042 14.16208-39.09767 14.22752-38.9401 14.26724-38.7825 14.30698-38.52974 14.3694-38.37216 14.40913-38.21457 14.44885-37.96182 14.51309-37.80424 14.55359-37.64665 14.59409-37.39389 14.66016-37.23631 14.70108-37.07872 14.742-36.82597 14.8073-36.6684 14.84859-36.51082 14.88988-36.25804 14.95697-36.10046 14.99867-35.94289 15.04037-35.69014 15.10707-35.53255 15.14919-35.37497 15.19131-35.12221 15.25983-34.96461 15.30232-34.80704 15.3448-34.55429 15.4126-34.3967 15.45543-34.23912 15.49828-33.98637 15.56752-33.82878 15.61115-33.6712 15.65477-33.41844 15.72578-33.26086 15.76988-33.10327 15.81398-32.85052 15.88496-32.69295 15.92906-32.53535 15.97316-32.2826 16.0434-32.12502 16.0878-31.96742 16.13222-31.71468 16.2039-31.5571 16.24915-31.3995 16.29439-31.14674 16.36827-30.98917 16.41394-30.83157 16.4596-30.57883 16.53233-30.42125 16.5783-30.26367 16.62427-30.0109 16.69846-29.85332 16.74525-29.69574 16.79207-29.443 16.86845-29.2854 16.91568-29.12782 16.96289-28.87508 17.03851-28.71748 17.08566-28.5599 17.13281-28.30714 17.20764-28.14955 17.25565-27.99197 17.30367-27.73923 17.38292-27.58163 17.4317-27.42406 17.48048-27.1713 17.55852-27.01372 17.6073-26.85612 17.65608-26.60338 17.73415-26.4458 17.78336-26.28821 17.83257-26.03545 17.91208-25.87787 17.96199-25.72028 18.01192-25.46753 18.09286-25.30995 18.14322-25.15236 18.19357-24.8996 18.27376-24.74202 18.32489-24.58443 18.376-24.33168 18.46025-24.1741 18.51175-24.01653 18.56323-23.76375 18.64404-23.60617 18.69601-23.4486 18.74797-23.19585 18.83357-23.03825 18.88632-22.88068 18.93907-22.62793 19.02351-22.47034 19.07622-22.31276 19.1289-22.06 19.21263-21.9024 19.2661-21.74483 19.31956-21.49208 19.40729-21.33449 19.4616-21.17691 19.5159-20.92415 19.60281-20.76657 19.65753-20.60898 19.71227-20.35623 19.80104-20.19865 19.85608-20.04106 19.9111-19.7883 19.99875-19.63072 20.05418-19.47313 20.10962-19.22038 20.19945-19.0628 20.25574-18.90521 20.31201-18.65245 20.4029-18.49487 20.4599-18.33728 20.5169-18.08453 20.60924-17.92696 20.66666-17.76938 20.72408-17.5166 20.81598-17.35902 20.87383-17.20145 20.93167-16.9487 21.02498-16.7911 21.08362-16.63353 21.14226-16.38078 21.23701-16.22319 21.29643-16.06561 21.35583-15.81285 21.45207-15.65526 21.51183-15.49768 21.57158-15.24493 21.66669-15.08734 21.72723-14.92976 21.78778-14.677 21.8873-14.51942 21.94826-14.36183 22.00922-14.10909 22.10532-13.9515 22.1667-13.79391 22.22809-13.54115 22.32822-13.38358 22.39075-13.22598 22.45326-12.97324 22.55444-12.81566 22.61739-12.65807 22.68034-12.4053 22.78111-12.24773 22.84448-12.09013 22.90784-11.83739 23.01007-11.67981 23.07416-11.52223 23.13826-11.26945 23.24156-11.11188 23.30643-10.9543 23.3713-10.70155 23.47644-10.54396 23.54173-10.38638 23.60703-10.13364 23.71089-9.97604 23.77702-9.81847 23.84315-9.5657 23.95148-9.40811 24.01839-9.25053 24.0853-8.99779 24.19211-8.8402 24.25931-8.68262 24.32652-8.42986 24.43478-8.27228 24.50282-8.11469 24.57088-7.86194 24.68091-7.70436 24.7498-7.54677 24.8187-7.294 24.92978-7.13643 24.99939-6.97884 25.069-6.72609 25.18117-6.56851 25.25156-6.41092 25.32195-6.15816 25.43594-6.00058 25.50676-5.84299 25.57756-5.59024 25.69037-5.43266 25.76195-5.27509 25.83354-5.02232 25.9504-4.86475 26.02277-4.70717 26.09514-4.4544 26.2108-4.29681 26.28358-4.13924 26.35638-3.88649 26.47351-3.7289 26.54744-3.57132 26.62137-3.31856 26.74176-3.16096 26.81648-3.00339 26.8912-2.75064 27.01076-2.59305 27.08595-2.43547 27.16113-2.18271 27.28255-2.02513 27.35844-1.86754 27.43436-1.61479 27.55641-1.45721 27.6331-1.29962 27.7098-1.04686 27.83371-.88928 27.91124-.73169 27.98877-.47894 28.11447-.32137 28.19194-.16377 28.26941 .08896 28.39139 .24654 28.46964 .40413 28.54788 .65688 28.67604 .81445 28.75598 .97203 28.8359 1.2248 28.96507 1.38237 29.04578 1.53995 29.12648 1.79271 29.25624 1.9503 29.33774 2.10788 29.41924 2.36063 29.55077 2.51822 29.63316 2.6758 29.71556 2.92856 29.84837 3.08615 29.93161 3.24373 30.01485 3.49648 30.1491 3.65407 30.2331 3.81165 30.3171 4.0644 30.4523 4.22198 30.53717 4.37958 30.62202 4.63232 30.75894 4.7899 30.8447 4.9475 30.93045 5.20026 31.06866 5.35783 31.15526 5.51543 31.24185 5.76817 31.38142 5.92575 31.46884 6.08334 31.55627 6.3361 31.69708 6.49368 31.78548 6.65128 31.87387 6.90402 32.01674 7.0616 32.10597 7.21918 32.19522 7.47194 32.33858 7.62952 32.42865 7.7871 32.51872 8.03986 32.6642 8.19745 32.75522 8.35503 32.84625 8.60777 32.99289 8.76537 33.08482 8.92294 33.17674 9.1757 33.3249 9.3333 33.41786 9.49088 33.51082 9.74362 33.6609 9.90121 33.75482 10.05879 33.84874 10.31155 34.00009 10.46913 34.09479 10.62672 34.18948 10.87947 34.34172 11.03705 34.43736 11.19464 34.53302 11.4474 34.68759 11.60498 34.78426 11.76257 34.88094 12.01532 35.03656 12.1729 35.13419 12.33049 35.23181 12.58325 35.38927 12.74083 35.48799 12.89842 35.58672 13.15117 35.74603 13.30875 35.8457 13.46632 35.94539 13.71909 36.10587 13.87666 36.20644 14.03424 36.307 14.287 36.469 14.4446 36.57065 14.60217 36.6723 14.85492 36.83649 15.01251 36.93916 15.17009 37.04184 15.42285 37.20702 15.58044 37.31071 15.73802 37.4144 15.99077 37.58182 16.14836 37.6866 16.30594 37.79137 16.5587 37.96008 16.71628 38.06593 16.87387 38.17178 17.12662 38.34276 17.2842 38.44958 17.44179 38.55641 17.69455 38.72795 17.85213 38.83585 18.00972 38.94376 18.26247 39.1183 18.42004 39.22728 18.57764 39.33627 18.83038 39.51122 18.98796 39.62134 19.14555 39.73146 19.39832 39.90973 19.5559 40.021 19.71347 40.13226 19.96623 40.31091 20.12381 40.42325 20.28139 40.5356 20.53415 40.71729 20.69174 40.83072 20.84932 40.94414 21.10207 41.12619 21.25966 41.24075 21.41724 41.35532 21.67 41.5405 21.82759 41.65642 21.98517 41.77235 22.23792 41.95944 22.39551 42.0764 22.55309 42.19337 22.80585 42.38145 22.96342 42.49944 23.12102 42.61742 23.37376 42.80742 23.53134 42.92679 23.68893 43.04616 23.9417 43.23914 24.09927 43.35976 24.25687 43.4804 24.50961 43.67448 24.66719 43.79619 24.82478 43.9179 25.07753 44.11404 25.2351 44.23694 25.3927 44.35983 25.64546 44.55788 25.80304 44.68202 25.96062 44.80618 26.21338 45.00645 26.37096 45.13187 26.52853 45.25728 26.7813 45.45935 26.93889 45.58603 27.09647 45.7127 27.34921 45.91695 27.5068 46.04495 27.66438 46.17294 27.91714 46.37932 28.07474 46.50864 28.23232 46.63795 28.48506 46.84642 28.64265 46.97707 28.80023 47.10771 29.053 47.3183 29.21057 47.45026 29.36816 47.58223 29.62091 47.79512 29.77849 47.92822 29.93608 48.06134 30.18884 48.27498 30.34642 48.40964 30.50401 48.5443 30.75676 48.7628 30.91434 48.89885 31.07193 49.03488 31.32468 49.25308 31.48225 49.3902 31.63985 49.52733 31.89261 49.74861 32.05019 49.88719 32.20776 50.02576 32.46053 50.24873 32.6181 50.38893 32.77568 50.52911 33.02844 50.7561 33.18604 50.8976 33.34361 51.0391 33.59636 51.26604 33.75395 51.40886 33.91153 51.55168 34.16429 51.78264 34.32188 51.92703 34.47946 52.07143 34.73221 52.30371 34.8898 52.44954 35.04738 52.59537 35.30014 52.83096 35.45772 52.9781 35.61531 53.12523 35.86806 53.36142 36.02563 53.51012 36.18323 53.65883 36.43599 53.89966 36.59357 54.04993 36.75116 54.2002 37.0039 54.44138 37.16148 54.5932 37.31908 54.74503 37.57182 54.99106 37.7294 55.14426 37.887 55.29745 38.13976 55.54288 38.29733 55.69748 38.45491 55.85207 38.70767 56.10208 38.86525 56.25847 39.02283 56.41486 39.27559 56.66672 39.43318 56.82466 39.59076 56.98262 39.8435 57.23727 40.0011 57.39691 40.15868 57.55655 40.41144 57.81396 40.56903 57.97522 40.72661 58.13646 40.97935 58.39656 41.13695 58.55914 41.29453 58.72171 41.54729 58.98264 41.70486 59.14696 41.86246 59.31126 42.1152 59.57732 42.27278 59.74344 42.43037 59.90955 42.68312 60.17645 42.8407 60.34422 42.99829 60.51201 43.25105 60.78328 43.40863 60.9528 43.56622 61.12234 43.81897 61.39488 43.97655 61.56615 44.13414 61.73741 44.3869 62.01443 44.54448 62.18727 44.70206 62.3601 44.95482 62.63728 45.1124 62.81186 45.26997 62.98643 45.52274 63.26921 45.68033 63.44553 45.8379 63.62184 46.09065 63.90462 46.24825 64.08266 46.40582 64.2607 46.65858 64.54889 46.81618 64.72887 46.97375 64.90884 47.2265 65.19818 47.3841 65.37982 47.54167 65.56148 47.79443 65.85452 47.95201 66.03816 48.1096 66.2218 48.36235 66.5179 48.51993 66.7034 48.67752 66.8889 48.93027 67.18794 49.08784 67.37514 49.24544 67.56232 49.4982 67.8632 49.65578 68.05249 49.81337 68.24176 50.06612 68.54822 50.2237 68.73935 50.38129 68.9305 50.63405 69.23729 50.79163 69.43011 50.9492 69.62294 51.20197 69.93419 51.35954 70.1291 51.51712 70.32402 51.76988 70.63803 51.92747 70.83499 52.08505 71.03195 52.3378 71.34988 52.49539 71.54869 52.65297 71.74751 52.90573 72.06706 53.06332 72.26799 53.2209 72.46892 53.47365 72.79398 53.63124 72.99683 53.78882 73.19966 54.04158 73.5251 54.19916 73.72998 54.35675 73.93486 54.6095 74.2663 54.76707 74.47351 54.92467 74.68073 55.17741 75.01457 55.33499 75.22353 55.49258 75.4325 55.74535 75.7686 55.90292 75.9796 56.06052 76.19061 56.31326 76.53099 56.47084 76.74434 56.62843 76.95769 56.8812 77.30196 57.03877 77.51729 57.19635 77.7326 57.44911 78.07861 57.60669 78.29628 57.76427 78.51395 58.01703 78.86627 58.17462 79.08609 58.3322 79.30592 58.58495 79.65869 58.74254 79.88068 58.90012 80.10265 59.15288 80.46167 59.31047 80.68607 59.46805 80.91045 59.7208 81.27115 59.87839 81.49794 60.03596 81.72472 60.28873 82.09167 60.4463 82.32062 60.6039 82.54956 60.85664 82.91725 61.01422 83.14807 61.17181 83.37888 61.42456 83.75084 61.58214 83.98416 61.73973 84.21748 61.9925 84.59386 62.15007 84.82977 62.30766 85.06567 62.56041 85.44623 62.71799 85.68446 62.87558 85.92271 63.12834 86.30641 63.28592 86.54694 63.4435 86.78746 63.69626 87.1752 63.85384 87.41808 64.01141 87.66093 64.26418 88.05186 64.42177 88.29742 64.57935 88.543 64.83209 88.93988 64.98969 89.18802 65.14726 89.43617 65.40002 89.83572 65.55762 90.08597 65.7152 90.33623 65.96794 90.73904 66.12553 90.99171 66.28311 91.24437 66.53586 91.65137 66.69344 91.90695 66.85103 92.16255 67.10379 92.57578 67.26137 92.83388 67.41896 93.092 67.6717 93.5066 67.82928 93.7673 67.98688 94.028 68.23964 94.44945 68.39722 94.71283 68.55481 94.97623 68.80756 95.3998 68.96513 95.66571 69.12273 95.93163 69.37549 96.36086 69.53307 96.62941 69.69064 96.89796 69.9434 97.33023 70.10098 97.60132 70.25856 97.87239 70.51132 98.30934 70.66891 98.58318 70.82649 98.85701 71.07924 99.29797 71.23683 99.57498 71.39441 99.852 71.64717 100.29994 71.80476 100.57977 71.96234 100.85962 72.21509 101.30956 72.37268 101.5919 72.53026 101.87427 72.783 102.32964 72.94058 102.61487 73.09818 102.9001 73.35094 103.35953 73.50851 103.64777 73.6661 103.936 73.91885 104.40128 74.07643 104.69234 74.23402 104.9834 74.48679 105.45181 74.64436 105.74557 74.80196 106.03934 75.0547 106.51292 75.21228 106.80963 75.36987 107.10632 75.62263 107.5844 75.78021 107.88403 75.93779 108.18369 76.19055 108.66646 76.34813 108.96928 76.5057 109.2721 76.75847 109.76051 76.91606 110.06664 77.07364 110.37276 77.32639 110.86649 77.48398 111.17566 77.64156 111.48485 77.89432 111.98312 78.05191 112.29506 78.20949 112.60701 78.46223 113.10905 78.61983 113.424 78.7774 113.73892 79.03015 114.24629 79.18773 114.56502 79.34532 114.88374 79.59808 115.3993 79.75566 115.7212 79.91325 116.0431 80.166 116.5603 80.32358 116.88516 80.48117 117.21 80.73393 117.73456 80.89151 118.06253 81.0491 118.39049 81.30185 118.9174 81.45943 119.24898 81.61702 119.58055 81.86978 120.11707 82.02736 120.4523 82.18494 120.78754 82.4377 121.32709 82.59528 121.66513 82.75285 122.00317 83.00562 122.5475 83.16321 122.8888 83.32079 123.23007 83.57353 123.77985 83.73112 124.12498 83.8887 124.47011 84.14145 125.02759 84.29904 125.37631 84.45662 125.72505 84.70938 126.2866 84.86697 126.63846 85.02455 126.99031 85.2773 127.55695 85.43488 127.91228 85.59247 128.26761 85.84523 128.84027 86.0028 129.19951 86.1604 129.55875 86.41315 130.13855 86.57072 130.50145 86.72832 130.86435 86.98108 131.44857 87.13866 131.81507 87.29625 132.18158 87.549 132.77288 87.70657 133.14296 87.86417 133.51306 88.11693 134.10866 88.2745 134.48253 88.43208 134.85642 88.68484 135.46027 88.84242 135.83768 89 136.2151 89.25276 136.82134 89.41035 137.20278 89.56793 137.5842 89.82068 138.20136 89.97827 138.58689 90.13585 138.97241 90.3886 139.59239 90.54619 139.98139 90.70377 140.37039 90.95653 140.99753 91.11412 141.3906 91.2717 141.78368 91.52444 142.41753 91.68202 142.81452 91.83961 143.21149 92.09238 143.85102 92.24995 144.25185 92.40755 144.65267 92.6603 145.29828 92.81787 145.70343 92.97546 146.10858 93.22823 146.76256 93.3858 147.17189 93.5434 147.58124 93.79614 148.24077 93.95372 148.65377 94.11131 149.06678 94.36407 149.73183 94.52165 150.14862 94.67923 150.56542 94.93199 151.2364 95.08957 151.65776 95.24715 152.07912 95.49991 152.75969 95.6575 153.18549 95.81508 153.61127 96.06783 154.29656 96.22542 154.72661 96.383 155.15666 96.63574 155.8505 96.79333 156.28504 96.95091 156.71959 97.20367 157.41951 97.36127 157.85861 97.51884 158.29773 97.77159 159.0066 97.92917 159.44992 98.08676 159.89325 98.33952 160.60633 98.4971 161.05379 98.6547 161.50124 98.90744 162.2228 99.06502 162.67493 99.22261 163.12708 99.47537 163.85552 99.63295 164.31252 99.79054 164.76952 100.04329 165.5075 100.20087 165.9687 100.35846 166.4299 100.61122 167.17063 100.7688 167.63657 100.92638 168.10251 101.17914 168.856 101.33672 169.32692 101.4943 169.79785 101.74706 170.55539 101.90465 171.0307 102.06223 171.50601 102.31497 172.27259 102.47256 172.75263 102.63014 173.23268 102.88289 174.00531 103.04048 174.49057 103.19806 174.97583 103.45082 175.76001 103.60841 176.25014 103.76599 176.74027 104.01874 177.52861 104.17632 178.02312 104.33391 178.51761 104.58667 179.31476 104.74425 179.81426 104.90184 180.31375 105.15459 181.11794 105.31216 181.62313 105.46976 182.12831 105.72252 182.94525 105.8801 183.45536 106.03769 183.96546 106.29044 184.785 106.44801 185.29969 106.6056 185.81436 106.85837 186.64449 107.01595 187.16481 107.17352 187.68512 107.42628 188.52379 107.58386 189.0498 107.74144 189.57582 107.99419 190.42519 108.15178 190.956 108.30936 191.4868 108.56212 192.33956 108.71971 192.8756 108.87729 193.41164 109.13004 194.2781 109.28763 194.81943 109.4452 195.36074 109.69797 196.23014 109.85556 196.77709 110.01314 197.32405 110.26588 198.20886 110.42346 198.76157 110.58105 199.31429 110.83382 200.20264 110.9914 200.76078 111.14899 201.3189 111.40173 202.22035 111.55931 202.78418 111.7169 203.348 111.96967 204.25524 112.12724 204.82447 112.28484 205.39368 112.53758 206.31151 112.69516 206.8868 112.85275 207.4621 113.10551 208.3902 113.26309 208.97077 113.42067 209.55133 113.67343 210.48516 113.83101 211.07118 113.98859 211.6572 114.24133 212.60176 114.39893 213.1945 114.5565 213.78723 114.80927 214.74514 114.96686 215.34334 115.12444 215.94156 115.37718 216.90148 115.53477 217.50605 115.69235 218.11061 115.94511 219.08945 116.1027 219.70073 116.26028 220.31201 116.51303 221.29512 116.67061 221.91188 116.8282 222.52864 117.08096 223.52288 117.23854 224.14594 117.39613 224.76898 117.64888 225.77312 117.80646 226.40248 117.96405 227.03185 118.21681 228.04624 118.37439 228.68196 118.53198 229.31768 118.78473 230.3421 118.9423 230.98436 119.0999 231.6266 119.35266 232.66266 119.51024 233.31098 119.66782 233.95929 119.92058 235.0019 120.07816 235.65706 120.23573 236.31223 120.48848 237.37107 120.64607 238.03299 120.80365 238.69493 121.05641 239.75966 121.214 240.42797 121.37158 241.09627 121.62433 242.17527 121.78192 242.84975 121.9395 243.52423 122.19226 244.60756 122.34985 245.28925 122.50743 245.97093 122.76018 247.07379 122.91776 247.76293 123.07535 248.45207 123.32811 249.56053 123.48569 250.25609 123.64328 250.95163 123.89603 252.07337 124.0536 252.77606 124.2112 253.47876 124.46396 254.61048 124.62154 255.32067 124.77913 256.03089 125.03188 257.17768 125.18945 257.8947 125.34705 258.61174 125.59981 259.7649 125.75739 260.48866 125.91496 261.2124 126.16772 262.38 126.3253 263.1111 126.48288 263.84226 126.73563 265.01924 126.89322 265.75825 127.0508 266.49726 127.30356 267.69096 127.46115 268.4374 127.61873 269.18385 127.87148 270.38447 128.02907 271.13819 128.18665 271.89186 128.4394 273.1086 128.597 273.86964 128.75458 274.63066 129.00733 275.8543 129.1649 276.62318 129.3225 277.39207 129.57526 278.63414 129.73284 279.4113 129.89043 280.18849 130.14318 281.4397 130.30075 282.22453 130.45835 283.00938 130.7111 284.276 130.86869 285.06806 131.02628 285.86009 131.27902 287.13279 131.4366 287.93318 131.5942 288.73359 131.84694 290.02873 132.00452 290.8368 132.1621 291.64488 132.41487 292.9414 132.57245 293.7573 132.73003 294.57319 132.98278 295.89234 133.14037 296.71717 133.29795 297.542 133.5507 298.86906 133.7083 299.7021 133.86588 300.53517 134.11862 301.8799 134.27622 302.7212 134.43379 303.56254 134.68656 304.9156 134.84415 305.76585 135.00173 306.61613 135.25447 307.9909 135.41205 308.8494 135.56964 309.7079 135.8224 311.08619 135.97998 311.9533 136.13758 312.82044 136.39032 314.22285 136.5479 315.09916 136.70549 315.97547 136.95825 317.38447 137.11583 318.26924 137.27342 319.154 137.52617 320.58265 137.68375 321.47608 137.84134 322.36949 138.09409 323.80583 138.25167 324.70845 138.40924 325.61103 138.66202 327.07008 138.8196 327.9814 138.97718 328.8928 139.22992 330.35624 139.38751 331.27696 139.54509 332.19767 139.79785 333.68724 139.95545 334.61744 140.11302 335.54765 140.36577 337.04237 140.52336 337.9813 140.68094 338.92018 140.9337 340.43507 141.0913 341.3845 141.24887 342.3339 141.6592 344.82405 141.6592 344.82405"/>
</g>
<use data-text="&#x2022;" xlink:href="#font_3_1" transform="matrix(9.963397,0,0,-9.963197,146.41727,133.34223)"/>
<use data-text="(" xlink:href="#font_4_1" transform="matrix(9.963397,0,0,-9.963197,123.247409,125.11774)"/>
<use data-text="0" xlink:href="#font_4_3" transform="matrix(9.963397,0,0,-9.963197,127.11322,125.11774)"/>
<use data-text="," xlink:href="#font_1_1" transform="matrix(9.963397,0,0,-9.963197,132.10413,125.11774)"/>
<use data-text="1" xlink:href="#font_4_4" transform="matrix(9.963397,0,0,-9.963197,136.53148,125.11774)"/>
<use data-text=")" xlink:href="#font_4_2" transform="matrix(9.963397,0,0,-9.963197,141.51317,125.11774)"/>
</svg>
