<svg xmlns="http://www.w3.org/2000/svg" xmlns:xlink="http://www.w3.org/1999/xlink" version="1.1" width="307" height="167" viewBox="0 0 307 167">
<defs>
<path id="font_1_2" d="M.33399964 .30233766C.33999635 .32835389 .36299134 .42037965 .43299867 .42037965 .43798829 .42037965 .46199037 .42037965 .48298646 .40734864 .45498658 .402359 .43499757 .37734986 .43499757 .35334779 .43499757 .33735658 .44599916 .31835938 .47299195 .31835938 .49499513 .31835938 .5269928 .3363495 .5269928 .37635804 .5269928 .42837525 .46798707 .4423828 .43399049 .4423828 .37599183 .4423828 .34098817 .38935853 .32899476 .36634828 .3039856 .43237306 .25 .4423828 .22099304 .4423828 .116989139 .4423828 .05999756 .3133545 .05999756 .28834535 .05999756 .27833558 .069992069 .27833558 .07199097 .27833558 .07998657 .27833558 .08299255 .28033448 .084991458 .28933717 .11898804 .39535523 .18499756 .42037965 .21899414 .42037965 .23799134 .42037965 .272995 .4113617 .272995 .35334779 .272995 .32235719 .2559967 .25532533 .21899414 .11528015 .20298767 .053268434 .16799927 .011245728 .12399292 .011245728 .117996219 .011245728 .09498596 .011245728 .07398987 .024276734 .09899902 .029266358 .12098694 .05027771 .12098694 .07827759 .12098694 .105270389 .09899902 .11328125 .083999637 .11328125 .053985597 .11328125 .0289917 .08728027 .0289917 .055267335 .0289917 .009246826 .07899475-.0107421879 .12298584-.0107421879 .18899536-.0107421879 .22499085 .059280397 .22799683 .0652771 .23999024 .028274537 .27598573-.0107421879 .33599855-.0107421879 .43899537-.0107421879 .49598695 .118270877 .49598695 .14328003 .49598695 .1532898 .4869995 .1532898 .48399354 .1532898 .47499085 .1532898 .47299195 .14929199 .47099305 .14228821 .43798829 .03527832 .36999513 .011245728 .33799745 .011245728 .29899598 .011245728 .2829895 .043273927 .2829895 .07727051 .2829895 .09927368 .2889862 .121276859 .2999878 .16529846L.33399964 .30233766Z"/>
<path id="font_1_3" d="M.48599244 .38136292C.48999024 .39537049 .48999024 .39736939 .48999024 .40437318 .48999024 .42237855 .47599793 .43138124 .46099855 .43138124 .45098878 .43138124 .43499757 .42536927 .42599488 .41036988 .42399598 .405365 .41600038 .37435914 .4119873 .35635377 .40499879 .33035279 .397995 .30334474 .3919983 .27633668L.34700013 .09628296C.34298707 .08126831 .2999878 .011245728 .23399353 .011245728 .18299866 .011245728 .17199707 .055267335 .17199707 .0922699 .17199707 .1382904 .18899536 .20030213 .22299195 .28833009 .23899842 .3293457 .24299622 .3403473 .24299622 .36035157 .24299622 .405365 .21099854 .4423828 .16099549 .4423828 .06599426 .4423828 .0289917 .29733277 .0289917 .28833009 .0289917 .27833558 .038986207 .27833558 .040985109 .27833558 .050994874 .27833558 .051986696 .28033448 .056991579 .29634095 .083999637 .3903656 .12399292 .42037965 .1579895 .42037965 .1659851 .42037965 .18299866 .42037965 .18299866 .3883667 .18299866 .36335755 .17298889 .3373413 .1659851 .31834413 .12599182 .21231079 .10798645 .1552887 .10798645 .10827637 .10798645 .019256592 .17098999-.0107421879 .22999573-.0107421879 .2689972-.0107421879 .30299378 .0062561037 .33099366 .03425598 .31799317-.017745972 .30599977-.06674194 .2659912-.11973572 .23999024-.15385437 .20199585-.18309021 .1559906-.18309021 .14199829-.18309021 .09700012-.18005371 .07998657-.14074707 .09599304-.14074707 .10899353-.14074707 .12298584-.1287384 .1329956-.11973572 .14299011-.10673523 .14299011-.08773804 .14299011-.056747438 .115997318-.052734376 .10598755-.052734376 .08299255-.052734376 .049987794-.068740848 .049987794-.11773682 .049987794-.16796875 .09399414-.20507813 .1559906-.20507813 .25898744-.20507813 .3619995-.11373901 .3899994-.00074768069L.48599244 .38136292Z"/>
<clipPath id="clip_2">
<path transform="matrix(1.00008,0,0,-1.00006,148.90847,159.47679)" d="M-141.73404 0V141.73404H141.73404V0ZM141.73404 141.73404"/>
</clipPath>
<path id="font_3_1" d="M.44400025 .24998474C.44400025 .35688783 .35499574 .44381715 .25 .44381715 .14199829 .44381715 .054992677 .35488893 .054992677 .24998474 .054992677 .14407349 .14199829 .056137086 .25 .056137086 .35499574 .056137086 .44400025 .14308167 .44400025 .24998474Z"/>
<path id="font_4_1" d="M.33099366-.2400055C.33099366-.23701477 .33099366-.23500061 .31399537-.21800232 .18899536-.0920105 .15699768 .09700012 .15699768 .25 .15699768 .42399598 .19499207 .59799197 .31799317 .72299197 .33099366 .73498538 .33099366 .7369995 .33099366 .73999026 .33099366 .746994 .32699586 .75 .32099916 .75 .31098939 .75 .22099304 .6819916 .1619873 .5549927 .11099243 .44499208 .09899902 .33399964 .09899902 .25 .09899902 .17199707 .10998535 .050994874 .16499329-.06201172 .22499085-.18501282 .31098939-.25 .32099916-.25 .32699586-.25 .33099366-.24700928 .33099366-.2400055Z"/>
<path id="font_4_3" d="M.45999146 .31976319C.45999146 .39982606 .45498658 .47988893 .41999818 .5539398 .37399293 .65000918 .2919922 .6660156 .25 .6660156 .18998719 .6660156 .116989139 .64001467 .07598877 .54693606 .04399109 .47789 .038986207 .39982606 .038986207 .31976319 .038986207 .24472046 .042999269 .15464783 .083999637 .07859802 .1269989-.0024719239 .19999695-.022460938 .24899292-.022460938 .30299378-.022460938 .3789978-.0014648438 .4229889 .09359741 .45498658 .16265869 .45999146 .2407074 .45999146 .31976319M.24899292-.00047302247C.20999146-.00047302247 .15098572 .024551392 .1329956 .12062073 .12199402 .18066406 .12199402 .2727356 .12199402 .3317871 .12199402 .39582826 .12199402 .46188355 .12998963 .5159149 .14898682 .63500979 .22399903 .64401248 .24899292 .64401248 .28199769 .64401248 .34799195 .6259918 .36698915 .52693179 .3769989 .47088624 .3769989 .39482118 .3769989 .3317871 .3769989 .25672914 .3769989 .18867493 .3659973 .12461853 .35099793 .029556275 .2939911-.00047302247 .24899292-.00047302247Z"/>
<path id="font_1_1" d="M.20298767 .0009918213C.20298767 .066986087 .17799378 .10598755 .13899231 .10598755 .10598755 .10598755 .085998538 .08099365 .085998538 .052993776 .085998538 .025985718 .10598755 0 .13899231 0 .15098572 0 .1639862 .0039978029 .17399597 .0129852299 .1769867 .01499939 .17799378 .015991211 .1789856 .015991211 .17999268 .015991211 .18099976 .01499939 .18099976 .0009918213 .18099976-.07316589 .1459961-.13328552 .11299133-.16635132 .101989749-.17736817 .101989749-.17936707 .101989749-.18237305 .101989749-.18936157 .10699463-.19335938 .11199951-.19335938 .12298584-.19335938 .20298767-.116256717 .20298767 .0009918213Z"/>
<path id="font_4_4" d="M.2939911 .64004519C.2939911 .66400149 .2939911 .6660156 .2709961 .6660156 .20899964 .60227969 .12098694 .60227969 .08898926 .60227969V.57128909C.10899353 .57128909 .16799927 .57128909 .21998596 .5972748V.07902527C.21998596 .042999269 .21699524 .0309906 .1269989 .0309906H.09498596V0C.12998963 .0029907227 .21699524 .0029907227 .25698854 .0029907227 .29699708 .0029907227 .38398744 .0029907227 .4189911 0V.0309906H.3869934C.29699708 .0309906 .2939911 .041992189 .2939911 .07902527V.64004519Z"/>
<path id="font_4_2" d="M.2889862 .25C.2889862 .32798768 .27799989 .44898988 .22299195 .56199648 .16299439 .68499758 .07699585 .75 .066986087 .75 .06098938 .75 .056991579 .74598696 .056991579 .73999026 .056991579 .7369995 .056991579 .73498538 .07598877 .71699526 .17399597 .6179962 .23098755 .45899964 .23098755 .25 .23098755 .07899475 .19400025-.09700012 .069992069-.2230072 .056991579-.23500061 .056991579-.23701477 .056991579-.2400055 .056991579-.2460022 .06098938-.25 .066986087-.25 .07699585-.25 .16699219-.18200684 .22599793-.055007936 .2769928 .054992677 .2889862 .16600037 .2889862 .25Z"/>
</defs>
<path transform="matrix(1.00008,0,0,-1.00006,148.90847,159.47679)" stroke-width=".19925" stroke-linecap="butt" stroke-miterlimit="10" stroke-linejoin="miter" fill="none" stroke="#929292" d="M-141.73404 0H141.73404M-141.73404 28.3468H141.73404M-141.73404 56.69362H141.73404M-141.73404 85.04042H141.73404M-141.73404 113.38724H141.73404M-141.73404 141.72409H141.73404M-141.73404 0V141.73404M-113.38724 0V141.73404M-85.04042 0V141.73404M-56.69362 0V141.73404M-28.3468 0V141.73404M0 0V141.73404M28.3468 0V141.73404M56.69362 0V141.73404M85.04042 0V141.73404M113.38724 0V141.73404M141.72409 0V141.73404M141.73404 141.73404"/>
<path transform="matrix(1.00008,0,0,-1.00006,148.90847,159.47679)" stroke-width="1.19553" stroke-linecap="butt" stroke-miterlimit="10" stroke-linejoin="miter" fill="none" stroke="#000000" d="M-147.40332 0H146.4469"/>
<path transform="matrix(1.00008,0,0,-1.00006,295.36708,159.47679)" stroke-width=".9564" stroke-linecap="round" stroke-linejoin="round" fill="none" stroke="#000000" d="M-1.91284 2.55046C-1.75343 1.59402 0 .15938 .4782 0 0-.15938-1.75343-1.59402-1.91284-2.55046"/>
<use data-text="x" xlink:href="#font_1_2" transform="matrix(9.963397,0,0,-9.963197,300.24256,161.62192)"/>
<path transform="matrix(1.00008,0,0,-1.00006,148.90847,159.47679)" stroke-width="1.19553" stroke-linecap="butt" stroke-miterlimit="10" stroke-linejoin="miter" fill="none" stroke="#000000" d="M0-5.66927V146.4469"/>
<path transform="matrix(0,-1.00006,-1.00008,-0,148.90847,13.021118)" stroke-width=".9564" stroke-linecap="round" stroke-linejoin="round" fill="none" stroke="#000000" d="M-1.91284 2.55046C-1.75343 1.59402 0 .15938 .4782 0 0-.15938-1.75343-1.59402-1.91284-2.55046"/>
<use data-text="y" xlink:href="#font_1_3" transform="matrix(9.963397,0,0,-9.963197,146.28726,6.208603)"/>
<g clip-path="url(#clip_2)">
<path transform="matrix(1.00008,0,0,-1.00006,148.90847,159.47679)" stroke-width=".79701" stroke-linecap="butt" stroke-miterlimit="10" stroke-linejoin="miter" fill="none" stroke="#0000ff" d="M-141.73404 .0255C-141.73404 .0255-141.3237 .02577-141.1661 .02594-141.00853 .02611-140.75579 .02664-140.59819 .02681-140.44062 .02698-140.18785 .02713-140.03026 .02724-139.87268 .02734-139.61994 .0275-139.46236 .02766-139.30477 .02783-139.052 .02837-138.89443 .02853-138.73683 .02869-138.48409 .02885-138.3265 .02896-138.16892 .02907-137.91616 .02922-137.75858 .02939-137.60099 .02956-137.34824 .03009-137.19066 .03026-137.03307 .03043-136.7803 .03053-136.62273 .0307-136.46515 .03087-136.21239 .0314-136.05481 .03157-135.89723 .03174-135.64449 .03183-135.4869 .032-135.32932 .03217-135.07656 .03268-134.91896 .03285-134.76139 .03302-134.50864 .03311-134.35105 .03328-134.19347 .03345-133.9407 .03398-133.78311 .03415-133.62554 .03432-133.37279 .03442-133.21521 .03459-133.05762 .03476-132.80486 .03523-132.64728 .03546-132.48969 .03569-132.23694 .03616-132.07936 .03633-131.92177 .0365-131.669 .03659-131.51143 .03674-131.35384 .03691-131.10109 .03738-130.94351 .03761-130.78592 .03784-130.53316 .03825-130.37558 .03848-130.218 .03871-129.96524 .03918-129.80767 .03935-129.65009 .03952-129.39734 .03961-129.23975 .03978-129.08217 .03995-128.8294 .04042-128.67182 .04065-128.51424 .04086-128.26149 .04128-128.1039 .0415-127.94632 .04173-127.69356 .04214-127.53596 .04237-127.37839 .0426-127.12564 .04301-126.96806 .04324-126.81047 .04347-126.55771 .04388-126.40013 .04411-126.24254 .04434-125.98979 .04475-125.83221 .04497-125.67462 .0452-125.42186 .0456-125.26428 .04582-125.10669 .04605-124.85394 .0464-124.69637 .04669-124.53877 .04698-124.28601 .04771-124.12843 .048-123.97086 .0483-123.7181 .04865-123.56052 .04887-123.40294 .04909-123.15019 .04944-122.9926 .04973-122.83502 .05002-122.58226 .05074-122.42467 .05103-122.26709 .05132-122.01434 .05167-121.85675 .0519-121.69917 .05212-121.44641 .05247-121.28882 .05276-121.13124 .05305-120.8785 .05376-120.72092 .05405-120.56332 .05434-120.31056 .05463-120.15298 .05492-119.99539 .0552-119.74265 .05586-119.58507 .05621-119.42747 .05656-119.17471 .05722-119.01714 .05751-118.85954 .0578-118.6068 .05809-118.44922 .05838-118.29163 .05867-118.03888 .05933-117.8813 .05968-117.72372 .06003-117.47095 .06062-117.31337 .06097-117.15579 .06131-116.90305 .06192-116.74545 .06227-116.58788 .06262-116.33511 .06322-116.17752 .06357-116.01994 .06392-115.7672 .06451-115.6096 .06487-115.45203 .06522-115.19926 .06581-115.04167 .06616-114.8841 .06651-114.63135 .06711-114.47377 .06746-114.31618 .06781-114.06342 .0684-113.90584 .06876-113.74825 .0691-113.4955 .06964-113.33792 .07005-113.18033 .07047-112.92757 .07138-112.76999 .0718-112.6124 .0722-112.35965 .07274-112.20207 .07309-112.04448 .07344-111.79173 .07396-111.63416 .07437-111.47658 .07478-111.2238 .0757-111.06622 .07611-110.90865 .07652-110.6559 .07701-110.4983 .07742-110.34073 .07782-110.08797 .07866-109.93037 .07913-109.7728 .0796-109.52005 .0804-109.36246 .08087-109.20488 .08134-108.95212 .08218-108.79453 .0826-108.63695 .08301-108.3842 .08348-108.22662 .0839-108.06903 .0843-107.81627 .08516-107.65869 .08563-107.5011 .08609-107.24835 .08688-107.09077 .08736-106.93318 .08783-106.68042 .08856-106.52284 .0891-106.36525 .08963-106.1125 .09071-105.95493 .09125-105.79733 .09178-105.54459 .09251-105.38701 .09299-105.22943 .09346-104.97665 .09418-104.81908 .09471-104.6615 .09525-104.40875 .09634-104.25116 .09688-104.09358 .09741-103.84082 .09807-103.68323 .0986-103.52565 .09914-103.2729 .10017-103.11531 .10077-102.95773 .10136-102.70497 .10239-102.54738 .10292-102.3898 .10345-102.13705 .10413-101.97948 .10466-101.82188 .1052-101.56912 .10622-101.41154 .10681-101.25395 .1074-101.0012 .10834-100.84363 .109-100.68604 .10965-100.43327 .11092-100.2757 .11157-100.1181 .11223-99.86536 .11316-99.70778 .11375-99.55019 .11433-99.29744 .11525-99.13986 .1159-98.98228 .11656-98.7295 .11786-98.57193 .1185-98.41435 .11916-98.1616 .12001-98.00401 .12067-97.84644 .12132-97.59367 .1226-97.43608 .12326-97.2785 .12392-97.02576 .12477-96.86816 .12543-96.71059 .12608-96.45782 .1273-96.30023 .12802-96.14265 .12874-95.88991 .12984-95.73233 .13062-95.57474 .13138-95.32198 .13286-95.1644 .13364-95.0068 .13441-94.75406 .13551-94.59648 .13623-94.43889 .13695-94.18614 .13806-94.02856 .13882-93.87097 .1396-93.61821 .14108-93.46063 .14186-93.30304 .14264-93.0503 .14368-92.89272 .14445-92.73514 .14523-92.48236 .14665-92.32478 .14748-92.1672 .14832-91.91446 .14967-91.75687 .15051-91.59929 .15134-91.34653 .1527-91.18893 .15353-91.03136 .15437-90.77861 .15565-90.62102 .15656-90.46344 .15746-90.21068 .15913-90.05309 .16002-89.89551 .16092-89.64276 .16216-89.48518 .16306-89.32759 .16394-89.07483 .16556-88.91725 .16652-88.75966 .16747-88.50691 .16907-88.34933 .16997-88.19174 .17087-87.939 .17204-87.78142 .173-87.62383 .17397-87.37106 .17587-87.21349 .1769-87.0559 .17792-86.80315 .1794-86.64557 .18034-86.48799 .1813-86.23521 .1828-86.07764 .1838-85.92006 .18483-85.66731 .18663-85.50972 .18771-85.35214 .18878-85.09938 .19052-84.94179 .1916-84.78421 .19267-84.53146 .19441-84.37387 .1955-84.2163 .19656-83.96353 .1983-83.80594 .19939-83.64836 .20045-83.39561 .20213-83.23804 .20328-83.08044 .2044-82.82768 .20647-82.6701 .20761-82.51251 .20874-82.25977 .21037-82.10219 .2115-81.9446 .21262-81.69185 .21463-81.53427 .21582-81.37668 .217-81.12392 .2189-80.96634 .22015-80.80875 .22139-80.556 .22366-80.39842 .2249-80.24084 .22615-79.98807 .22798-79.83049 .22922-79.67291 .23047-79.42017 .23268-79.26257 .23398-79.105 .23529-78.85223 .23743-78.69464 .23874-78.53706 .24005-78.28432 .24213-78.12672 .2435-77.96915 .24487-77.71638 .24733-77.55879 .2487-77.40121 .25006-77.14847 .25209-76.99089 .25345-76.8333 .25482-76.58054 .25722-76.42296 .25864-76.26537 .26007-76.01262 .26234-75.85504 .26384-75.69745 .26534-75.4447 .26797-75.28712 .26947-75.12953 .27095-74.87677 .27316-74.7192 .27464-74.5616 .27614-74.30885 .27908-74.15128 .28027-73.9937 .28146-73.74092 .2817-73.58334 .2833-73.42577 .28491-73.17302 .28996-73.01543 .29195-72.85785 .29393-72.60509 .29602-72.4475 .29758-72.28992 .29912-72.03717 .30165-71.87958 .30319-71.722 .30475-71.46924 .30727-71.31165 .30882-71.15407 .31036-70.90132 .3129-70.74374 .31444-70.58615 .316-70.3334 .3181-70.17583 .32007-70.01823 .32205-69.76547 .32674-69.6079 .32872-69.4503 .3307-69.19756 .33278-69.03998 .33434-68.88239 .33588-68.62962 .33798-68.47205 .33995-68.31445 .34193-68.0617 .34663-67.90413 .3486-67.74655 .35059-67.49377 .35225-67.3362 .35423-67.17862 .3562-66.92587 .36053-66.76828 .36288-66.6107 .36522-66.35794 .36919-66.20035 .37111-66.04277 .37302-65.79002 .37476-65.63243 .37672-65.47485 .37871-65.22209 .383-65.0645 .38538-64.90692 .38777-64.65417 .39204-64.4966 .39403-64.339 .39601-64.08626 .39774-63.92868 .39966-63.77109 .40157-63.51833 .40553-63.36075 .40787-63.20316 .41019-62.95041 .41411-62.79283 .4165-62.63524 .41891-62.38248 .42284-62.2249 .42517-62.0673 .42752-61.81456 .43106-61.65698 .43338-61.4994 .43571-61.24663 .43929-61.08905 .44203-60.93147 .4448-60.67873 .45053-60.52113 .45328-60.36356 .45604-60.1108 .45955-59.9532 .46193-59.79562 .46432-59.54288 .46825-59.38528 .47058-59.2277 .47293-58.97495 .47612-58.81735 .4788-58.65977 .4815-58.40703 .48729-58.24945 .49004-58.09186 .4928-57.83911 .49596-57.68153 .4987-57.52394 .50146-57.27118 .50676-57.1136 .50995-56.95601 .51312-56.70326 .51888-56.54568 .52164-56.38809 .52438-56.13533 .52715-55.97775 .52985-55.82016 .53253-55.56741 .53792-55.40984 .54109-55.25226 .54427-54.99948 .54959-54.8419 .55276-54.68433 .55594-54.43158 .5609-54.27399 .56401-54.11641 .56714-53.86365 .57214-53.70605 .57527-53.54848 .57838-53.29573 .58333-53.13814 .5865-52.98056 .58968-52.7278 .59467-52.5702 .59819-52.41263 .60172-52.15988 .60849-52.0023 .61203-51.84471 .61555-51.59196 .62018-51.43439 .6237-51.2768 .62723-51.02403 .63402-50.86646 .63754-50.70886 .64107-50.45612 .64569-50.29854 .64922-50.14095 .65276-49.88818 .65955-49.7306 .66307-49.57301 .6666-49.32027 .67122-49.16269 .67474-49.00511 .67827-48.75233 .6847-48.59476 .68858-48.43718 .69247-48.18443 .6989-48.02684 .70285-47.86926 .7068-47.6165 .71318-47.45891 .71713-47.30133 .72108-47.04858 .72708-46.89099 .7314-46.73341 .73572-46.48067 .74396-46.32307 .74828-46.1655 .7526-45.91273 .7586-45.75516 .76256-45.59756 .76651-45.34482 .7725-45.18724 .77682-45.02965 .78114-44.77689 .78902-44.61931 .79369-44.46172 .79836-44.20897 .80624-44.05139 .81056-43.8938 .81488-43.64104 .82053-43.48346 .82483-43.32587 .82915-43.07312 .83699-42.91554 .8417-42.75797 .84644-42.50519 .85385-42.34761 .85901-42.19003 .86417-41.93729 .8738-41.7797 .87889-41.62212 .88399-41.36935 .89108-41.21176 .89577-41.05418 .90045-40.80144 .90755-40.64384 .91264-40.48627 .91774-40.23352 .92744-40.07593 .93254-39.91835 .93764-39.66559 .9443-39.50801 .9494-39.35042 .9545-39.09767 .96378-38.9401 .9693-38.7825 .97482-38.52974 .98369-38.37216 .9892-38.21457 .99472-37.96182 1.00359-37.80424 1.0091-37.64665 1.01462-37.39389 1.02313-37.23631 1.02899-37.07872 1.03487-36.82597 1.04561-36.6684 1.05148-36.51082 1.05736-36.25804 1.06546-36.10046 1.07138-35.94289 1.07732-35.69014 1.08801-35.53255 1.0943-35.37497 1.1006-35.12221 1.1105-34.96461 1.11679-34.80704 1.12308-34.55429 1.13342-34.3967 1.13971-34.23912 1.14601-33.98637 1.15598-33.82878 1.16222-33.6712 1.16844-33.41844 1.17805-33.26086 1.18471-33.10327 1.19138-32.85052 1.2035-32.69295 1.21022-32.53535 1.21693-32.2826 1.22643-32.12502 1.23314-31.96742 1.23987-31.71468 1.2516-31.5571 1.25867-31.3995 1.26575-31.14674 1.27713-30.98917 1.2842-30.83157 1.29126-30.57883 1.30228-30.42125 1.30971-30.26367 1.31714-30.0109 1.3304-29.85332 1.33783-29.69574 1.34526-29.443 1.35585-29.2854 1.36336-29.12782 1.37085-28.87508 1.38399-28.71748 1.39189-28.5599 1.3998-28.30714 1.41258-28.14955 1.42044-27.99197 1.4283-27.73923 1.4407-27.58163 1.44856-27.42406 1.45642-27.1713 1.46884-27.01372 1.47711-26.85612 1.48538-26.60338 1.4996-26.4458 1.50824-26.28821 1.51688-26.03545 1.53076-25.87787 1.53938-25.72028 1.54802-25.46753 1.56189-25.30995 1.57053-25.15236 1.57916-24.8996 1.59303-24.74202 1.60167-24.58443 1.6103-24.33168 1.62376-24.1741 1.63283-24.01653 1.64188-23.76375 1.65752-23.60617 1.66698-23.4486 1.67645-23.19585 1.69174-23.03825 1.70116-22.88068 1.71057-22.62793 1.72511-22.47034 1.7349-22.31276 1.74466-22.06 1.76183-21.9024 1.77167-21.74483 1.7815-21.49208 1.796-21.33449 1.80583-21.17691 1.81567-20.92415 1.83234-20.76657 1.84259-20.60898 1.85286-20.35623 1.86919-20.19865 1.87979-20.04106 1.89041-19.7883 1.90854-19.63072 1.91914-19.47313 1.92976-19.22038 1.94574-19.0628 1.95634-18.90521 1.96696-18.65245 1.98431-18.49487 1.99571-18.33728 2.00711-18.08453 2.02713-17.92696 2.03853-17.76938 2.04993-17.5166 2.06648-17.35902 2.0779-17.20145 2.0893-16.9487 2.1089-16.7911 2.12071-16.63353 2.13252-16.38078 2.15094-16.22319 2.16312-16.06561 2.1753-15.81285 2.19635-15.65526 2.20853-15.49768 2.2207-15.24493 2.23831-15.08734 2.25092-14.92976 2.26352-14.677 2.28635-14.51942 2.29935-14.36183 2.31236-14.10909 2.33182-13.9515 2.34477-13.79391 2.35773-13.54115 2.37947-13.38358 2.39278-13.22598 2.4061-12.97324 2.42741-12.81566 2.4408-12.65807 2.45416-12.4053 2.47545-12.24773 2.48924-12.09013 2.50302-11.83739 2.52612-11.67981 2.54027-11.52223 2.55443-11.26945 2.5768-11.11188 2.59132-10.9543 2.60583-10.70155 2.63-10.54396 2.64496-10.38638 2.6599-10.13364 2.68404-9.97604 2.69902-9.81847 2.71402-9.5657 2.73816-9.40811 2.75308-9.25053 2.76802-8.99779 2.79143-8.8402 2.80672-8.68262 2.822-8.42986 2.84726-8.27228 2.86339-8.11469 2.87952-7.86194 2.90652-7.70436 2.92308-7.54677 2.93964-7.294 2.96628-7.13643 2.98277-6.97884 2.99927-6.72609 3.02518-6.56851 3.04202-6.41092 3.05888-6.15816 3.08698-6.00058 3.10431-5.84299 3.12164-5.59024 3.14932-5.43266 3.16702-5.27509 3.18472-5.02232 3.21384-4.86475 3.2319-4.70717 3.24997-4.4544 3.2791-4.29681 3.29723-4.13924 3.31535-3.88649 3.34406-3.7289 3.36253-3.57132 3.381-3.31856 3.41118-3.16096 3.43044-3.00339 3.4497-2.75064 3.4817-2.59305 3.50137-2.43547 3.52104-2.18271 3.55264-2.02513 3.57233-1.86754 3.592-1.61479 3.62321-1.45721 3.64325-1.29962 3.66328-1.04686 3.69597-.88928 3.71678-.73169 3.7376-.47894 3.77211-.32137 3.79333-.16377 3.81458 .08896 3.84866 .24654 3.8699 .40413 3.89114 .65688 3.92444 .81445 3.94646 .97203 3.96848 1.2248 4.0062 1.38237 4.02864 1.53995 4.05107 1.79271 4.08537 1.9503 4.10823 2.10788 4.1311 2.36063 4.16986 2.51822 4.19344 2.6758 4.21703 2.92856 4.25464 3.08615 4.27823 3.24373 4.3018 3.49648 4.33943 3.65407 4.36343 3.81165 4.38744 4.0644 4.42645 4.22198 4.45123 4.37958 4.47601 4.63232 4.51651 4.7899 4.54207 4.9475 4.56763 5.20026 4.60959 5.35783 4.6355 5.51543 4.66142 5.76817 4.70294 5.92575 4.72891 6.08334 4.7549 6.3361 4.79604 6.49368 4.82278 6.65128 4.84955 6.90402 4.8943 7.0616 4.92183 7.21918 4.94936 7.47194 4.99336 7.62952 5.02132 7.7871 5.04927 8.03986 5.09508 8.19745 5.1234 8.35503 5.15172 8.60777 5.19638 8.76537 5.22548 8.92294 5.25458 9.1757 5.3033 9.3333 5.33318 9.49088 5.36307 9.74362 5.41064 9.90121 5.44089 10.05879 5.47113 10.31155 5.52051 10.46913 5.55118 10.62672 5.58183 10.87947 5.63042 11.03705 5.66191 11.19464 5.6934 11.4474 5.74599 11.60498 5.77826 11.76257 5.81053 12.01532 5.86197 12.1729 5.8946 12.33049 5.92725 12.58325 5.98013 12.74083 6.01357 12.89842 6.047 13.15117 6.10133 13.30875 6.13554 13.46632 6.16974 13.71909 6.2255 13.87666 6.2601 14.03424 6.29472 14.287 6.3497 14.4446 6.38512 14.60217 6.42052 14.85492 6.47876 15.01251 6.5153 15.17009 6.55185 15.42285 6.61157 15.58044 6.64853 15.73802 6.68549 15.99077 6.74394 16.14836 6.78175 16.30594 6.81955 16.5587 6.88245 16.71628 6.92102 16.87387 6.95961 17.12662 7.02092 17.2842 7.05986 17.44179 7.09882 17.69455 7.1616 17.85213 7.20175 18.00972 7.2419 18.26247 7.30838 18.42004 7.34924 18.57764 7.3901 18.83038 7.45467 18.98796 7.4963 19.14555 7.53793 19.39832 7.60692 19.5559 7.64941 19.71347 7.69191 19.96623 7.75928 20.12381 7.80255 20.28139 7.84581 20.53415 7.91682 20.69174 7.96129 20.84932 8.00575 21.10207 8.0778 21.25966 8.12305 21.41724 8.16829 21.67 8.2414 21.82759 8.28741 21.98517 8.33344 22.23792 8.40799 22.39551 8.4548 22.55309 8.5016 22.80585 8.57678 22.96342 8.62479 23.12102 8.67279 23.37376 8.75162 23.53134 8.80083 23.68893 8.85004 23.9417 8.92955 24.09927 8.97946 24.25687 9.02939 24.50961 9.11 24.66719 9.1607 24.82478 9.21141 25.07753 9.29301 25.2351 9.34497 25.3927 9.39693 25.64546 9.48218 25.80304 9.53528 25.96062 9.58838 26.21338 9.67387 26.37096 9.72777 26.52853 9.78166 26.7813 9.86864 26.93889 9.9237 27.09647 9.97879 27.34921 10.06819 27.5068 10.12483 27.66438 10.18147 27.91714 10.27458 28.07474 10.33202 28.23232 10.38945 28.48506 10.48058 28.64265 10.53877 28.80023 10.59698 29.053 10.69176 29.21057 10.75157 29.36816 10.8114 29.62091 10.90906 29.77849 10.97002 29.93608 11.03098 30.18884 11.12894 30.34642 11.19104 30.50401 11.25313 30.75676 11.35397 30.91434 11.4177 31.07193 11.48143 31.32468 11.58546 31.48225 11.65039 31.63985 11.71532 31.89261 11.81963 32.05019 11.8857 32.20776 11.95175 32.46053 12.05936 32.6181 12.12663 32.77568 12.1939 33.02844 12.30174 33.18604 12.37057 33.34361 12.4394 33.59636 12.55235 33.75395 12.62274 33.91153 12.69313 34.16429 12.80635 34.32188 12.87794 34.47946 12.94952 34.73221 13.06561 34.8898 13.13876 35.04738 13.21191 35.30014 13.33086 35.45772 13.4052 35.61531 13.47955 35.86806 13.59871 36.02563 13.67467 36.18323 13.75064 36.43599 13.87526 36.59357 13.95279 36.75116 14.03032 37.0039 14.15448 37.16148 14.23352 37.31908 14.31255 37.57182 14.44144 37.7294 14.52245 37.887 14.60345 38.13976 14.73523 38.29733 14.81744 38.45491 14.89964 38.70767 15.03125 38.86525 15.11504 39.02283 15.1988 39.27559 15.33551 39.43318 15.42126 39.59076 15.50702 39.8435 15.6454 40.0011 15.73312 40.15868 15.82086 40.41144 15.96434 40.56903 16.05363 40.72661 16.14293 40.97935 16.28589 41.13695 16.37674 41.29453 16.46758 41.54729 16.61566 41.70486 16.7085 41.86246 16.80135 42.1152 16.95107 42.27278 17.04588 42.43037 17.1407 42.68312 17.29512 42.8407 17.3919 42.99829 17.4887 43.25105 17.64484 43.40863 17.74356 43.56622 17.84229 43.81897 18.00273 43.97655 18.10344 44.13414 18.20413 44.3869 18.36668 44.54448 18.46936 44.70206 18.57204 44.95482 18.73885 45.1124 18.8435 45.26997 18.94815 45.52274 19.11671 45.68033 19.2237 45.8379 19.33069 46.09065 19.50539 46.24825 19.61473 46.40582 19.72406 46.65858 19.90048 46.81618 20.01178 46.97375 20.1231 47.2265 20.30377 47.3841 20.41707 47.54167 20.53036 47.79443 20.71272 47.95201 20.82841 48.1096 20.94412 48.36235 21.13261 48.51993 21.251 48.67752 21.3694 48.93027 21.56143 49.08784 21.68181 49.24544 21.8022 49.4982 21.99594 49.65578 22.11867 49.81337 22.2414 50.06612 22.44087 50.2237 22.56636 50.38129 22.69183 50.63405 22.89487 50.79163 23.02312 50.9492 23.15135 51.20197 23.3601 51.35954 23.49069 51.51712 23.62128 51.76988 23.83133 51.92747 23.96431 52.08505 24.0973 52.3378 24.3131 52.49539 24.4492 52.65297 24.5853 52.90573 24.80644 53.06332 24.94531 53.2209 25.08418 53.47365 25.30887 53.63124 25.45007 53.78882 25.5913 54.04158 25.81868 54.19916 25.96307 54.35675 26.10745 54.6095 26.34322 54.76707 26.49078 54.92467 26.63834 55.17741 26.87642 55.33499 27.02669 55.49258 27.17697 55.74535 27.42082 55.90292 27.57384 56.06052 27.72687 56.31326 27.97435 56.47084 28.12965 56.62843 28.28496 56.8812 28.53453 57.03877 28.69325 57.19635 28.85197 57.44911 29.11098 57.60669 29.27373 57.76427 29.43648 58.01703 29.7002 58.17462 29.8663 58.3322 30.03241 58.58495 30.30157 58.74254 30.471 58.90012 30.6404 59.15288 30.91458 59.31047 31.08736 59.46805 31.26013 59.7208 31.53995 59.87839 31.71626 60.03596 31.89258 60.28873 32.17824 60.4463 32.35815 60.6039 32.53807 60.85664 32.8295 61.01422 33.01302 61.17181 33.19653 61.42456 33.49368 61.58214 33.68086 61.73973 33.86804 61.9925 34.1711 62.15007 34.3621 62.30766 34.55312 62.56041 34.8627 62.71799 35.05762 62.87558 35.25255 63.12834 35.56816 63.28592 35.76698 63.4435 35.96579 63.69626 36.28772 63.85384 36.49063 64.01141 36.69353 64.26418 37.02242 64.42177 37.2294 64.57935 37.43637 64.83209 37.77132 64.98969 37.98244 65.14726 38.19356 65.40002 38.53557 65.55762 38.75107 65.7152 38.96657 65.96794 39.316 66.12553 39.53569 66.28311 39.75539 66.53586 40.11044 66.69344 40.33458 66.85103 40.55872 67.10379 40.92245 67.26137 41.15121 67.41896 41.37997 67.6717 41.74997 67.82928 41.98341 67.98688 42.21686 68.23964 42.5956 68.39722 42.83379 68.55481 43.07198 68.80756 43.45729 68.96513 43.70016 69.12273 43.94302 69.37549 44.33635 69.53307 44.58426 69.69064 44.83218 69.9434 45.23402 70.10098 45.48697 70.25856 45.73991 70.51132 46.14949 70.66891 46.40742 70.82649 46.66536 71.07924 47.08275 71.23683 47.34602 71.39441 47.60928 71.64717 48.0364 71.80476 48.30496 71.96234 48.57352 72.21509 49.00768 72.37268 49.28163 72.53026 49.55559 72.783 49.99997 72.94058 50.2795 73.09818 50.55904 73.35094 51.01122 73.50851 51.29639 73.6661 51.58157 73.91885 52.04391 74.07643 52.33492 74.23402 52.62592 74.48679 53.0969 74.64436 53.39378 74.80196 53.69066 75.0547 54.17186 75.21228 54.47469 75.36987 54.77751 75.62263 55.26753 75.78021 55.57635 75.93779 55.8852 76.19055 56.38535 76.34813 56.70053 76.5057 57.01572 76.75847 57.5265 76.91606 57.84805 77.07364 58.1696 77.32639 58.68993 77.48398 59.01807 77.64156 59.34622 77.89432 59.8783 78.05191 60.21317 78.20949 60.54803 78.46223 61.08998 78.61983 61.43163 78.7774 61.77327 79.03015 62.32706 79.18773 62.67561 79.34532 63.02415 79.59808 63.58835 79.75566 63.9438 79.91325 64.29926 80.166 64.875 80.32358 65.23753 80.48117 65.60007 80.73393 66.18668 80.89151 66.55676 81.0491 66.92685 81.30185 67.52739 81.45943 67.905 81.61702 68.2826 81.86978 68.89314 82.02736 69.27829 82.18494 69.66345 82.4377 70.28816 82.59528 70.68102 82.75285 71.07387 83.00562 71.7088 83.16321 72.1097 83.32079 72.51059 83.57353 73.16133 83.73112 73.57037 83.8887 73.97942 84.14145 74.64061 84.29904 75.05788 84.45662 75.47514 84.70938 76.15202 84.86697 76.57782 85.02455 77.0036 85.2773 77.69254 85.43488 78.12672 85.59247 78.56093 85.84523 79.26402 86.0028 79.70721 86.1604 80.15042 86.41315 80.86894 86.57072 81.32101 86.72832 81.77309 86.98108 82.50415 87.13866 82.96553 87.29625 83.42691 87.549 84.17569 87.70657 84.64638 87.86417 85.11705 88.11693 85.878 88.2745 86.35793 88.43208 86.83786 88.68484 87.61555 88.84242 88.10538 89 88.5952 89.25276 89.38869 89.41035 89.8883 89.56793 90.38791 89.82068 91.1965 89.97827 91.70627 90.13585 92.21602 90.3886 93.04166 90.54619 93.56227 90.70377 94.08287 90.95653 94.92776 91.11412 95.45853 91.2717 95.98929 91.52444 96.84639 91.68202 97.38765 91.83961 97.92892 92.09238 98.8071 92.24995 99.35959 92.40755 99.91208 92.6603 100.80612 92.81787 101.36958 92.97546 101.93304 93.22823 102.84575 93.3858 103.42068 93.5434 103.9956 93.79614 104.9268 93.95372 105.5133 94.11131 106.09981 94.36407 107.04942 94.52165 107.64787 94.67923 108.24634 94.93199 109.21594 95.08957 109.82658 95.24715 110.43721 95.49991 111.42609 95.6575 112.04895 95.81508 112.67183 96.06783 113.68018 96.22542 114.31589 96.383 114.9516 96.63574 115.98221 96.79333 116.63083 96.95091 117.27945 97.20367 118.32928 97.36127 118.99075 97.51884 119.65222 97.77159 120.7233 97.92917 121.39827 98.08676 122.07323 98.33952 123.16716 98.4971 123.85551 98.6547 124.54385 98.90744 125.65697 99.06502 126.35948 99.22261 127.062 99.47537 128.20183 99.63295 128.91881 99.79054 129.63578 100.04329 130.79569 100.20087 131.52701 100.35846 132.25833 100.61122 133.4437 100.7688 134.18972 100.92638 134.93573 101.17914 136.14257 101.33672 136.90389 101.4943 137.66522 101.74706 138.90013 101.90465 139.67688 102.06223 140.45363 102.31497 141.71024 102.47256 142.50223 102.63014 143.29422 102.88289 144.57689 103.04048 145.38509 103.19806 146.19329 103.45082 147.50299 103.60841 148.32721 103.76599 149.15145 104.01874 150.48412 104.17632 151.32556 104.33391 152.167 104.58667 153.53328 104.74425 154.39183 104.90184 155.25038 105.15459 156.63799 105.31216 157.51346 105.46976 158.38892 105.72252 159.80803 105.8801 160.70169 106.03769 161.59535 106.29044 163.04277 106.44801 163.95438 106.6056 164.86598 106.85837 166.34209 107.01595 167.27194 107.17352 168.20178 107.42628 169.70719 107.58386 170.65613 107.74144 171.60506 107.99419 173.14316 108.15178 174.11124 108.30936 175.07932 108.56212 176.64582 108.71971 177.63339 108.87729 178.62097 109.13004 180.22158 109.28763 181.22908 109.4452 182.2366 109.69797 183.86687 109.85556 184.89485 110.01314 185.92282 110.26588 187.58911 110.42346 188.63803 110.58105 189.68695 110.83382 191.38477 110.9914 192.45475 111.14899 193.52472 111.40173 195.258 111.55931 196.34975 111.7169 197.44152 111.96967 199.20963 112.12724 200.32347 112.28484 201.43732 112.53758 203.24158 112.69516 204.37764 112.85275 205.5137 113.10551 207.35254 113.26309 208.51142 113.42067 209.67028 113.67343 211.54721 113.83101 212.72995 113.98859 213.9127 114.24133 215.82912 114.39893 217.03588 114.5565 218.24262 114.80927 220.1962 114.96686 221.42743 115.12444 222.65868 115.37718 224.65398 115.53477 225.90982 115.69235 227.16565 115.94511 229.19744 116.1027 230.47873 116.26028 231.76001 116.51303 233.83712 116.67061 235.14452 116.8282 236.45192 117.08096 238.56752 117.23854 239.90157 117.39613 241.2356 117.64888 243.39871 117.80646 244.7594 117.96405 246.12009 118.21681 248.32015 118.37439 249.7085 118.53198 251.09685 118.78473 253.34899 118.9423 254.76572 119.0999 256.18247 119.35266 258.47447 119.51024 259.91944 119.66782 261.36436 119.92058 263.70555 120.07816 265.17997 120.23573 266.65437 120.48848 269.04154 120.64607 270.54603 120.80365 272.05049 121.05641 274.48857 121.214 276.02326 121.37158 277.5579 121.62433 280.04118 121.78192 281.60688 121.9395 283.17256 122.19226 285.71055 122.34985 287.3077 122.50743 288.9049 122.76018 291.4895 122.91776 293.11845 123.07535 294.74739 123.32811 297.38554 123.48569 299.0481 123.64328 300.71067 123.89603 303.4047 124.0536 305.10105 124.2112 306.7974 124.46396 309.5436 124.62154 311.27424 124.77913 313.00486 125.03188 315.80879 125.18945 317.57414 125.34705 319.3395 125.59981 322.1965 125.75739 323.99778 125.91496 325.799 126.16772 328.71806 126.3253 330.5563 126.48288 332.3946 126.73563 335.37153 126.89322 337.24684 127.0508 339.12214 127.30356 342.15907 127.46115 344.07228 127.61873 345.98554 127.87148 349.08427 128.02907 351.03617 128.18665 352.98805 128.4394 356.1492 128.597 358.14015 128.75458 360.1311 129.00733 363.3543 129.1649 365.3856 129.3225 367.4169 129.57526 370.70777 129.73284 372.78028 129.89043 374.85279 130.14318 378.2081 130.30075 380.32286 130.45835 382.43763 130.7111 385.8647 130.86869 388.02204 131.02628 390.1794 131.27902 393.6711 131.4366 395.87174 131.5942 398.07237 131.84694 401.6381 132.00452 403.88279 132.1621 406.12748 132.41487 409.75978 132.57245 412.04997 132.73003 414.34013 132.98278 418.051 133.14037 420.38887 133.29795 422.72669 133.5507 426.51448 133.7083 428.89949 133.86588 431.2845 134.11862 435.14588 134.27622 437.57835 134.43379 440.01084 134.68656 443.94889 134.84415 446.4311 135.00173 448.9133 135.25447 452.9364 135.41205 455.46855 135.56964 458.00074 135.8224 462.09776 135.97998 464.68119 136.13758 467.2646 136.39032 471.45155 136.5479 474.088 136.70549 476.72447 136.95825 480.99397 137.11583 483.683 137.27342 486.372 137.52617 490.72486 137.68375 493.46873 137.84134 496.21263 138.09409 500.6596 138.25167 503.45906 138.40924 506.25856 138.66202 510.7894 138.8196 513.6453 138.97718 516.5013 139.22992 521.12899 139.38751 524.04269 139.54509 526.9564 139.79785 531.67349 139.95545 534.6455 140.11302 537.6175 140.36577 542.4298 140.52336 545.4628 140.68094 548.49588 140.9337 553.411 141.0913 556.50558 141.24887 559.6001 141.6592 567.76626 141.6592 567.76626"/>
</g>
<use data-text="&#x2022;" xlink:href="#font_3_1" transform="matrix(9.963397,0,0,-9.963197,146.41727,133.34223)"/>
<use data-text="(" xlink:href="#font_4_1" transform="matrix(9.963397,0,0,-9.963197,123.247409,125.11774)"/>
<use data-text="0" xlink:href="#font_4_3" transform="matrix(9.963397,0,0,-9.963197,127.11322,125.11774)"/>
<use data-text="," xlink:href="#font_1_1" transform="matrix(9.963397,0,0,-9.963197,132.10413,125.11774)"/>
<use data-text="1" xlink:href="#font_4_4" transform="matrix(9.963397,0,0,-9.963197,136.53148,125.11774)"/>
<use data-text=")" xlink:href="#font_4_2" transform="matrix(9.963397,0,0,-9.963197,141.51317,125.11774)"/>
</svg>
