<svg xmlns="http://www.w3.org/2000/svg" xmlns:xlink="http://www.w3.org/1999/xlink" version="1.1" width="296" height="296" viewBox="0 0 296 296">
<defs>
<path id="font_1_1" d="M.3039856 .6392822C.3039856 .6642761 .30299378 .666275 .27799989 .666275 .21598816 .60227969 .12399292 .60227969 .09298706 .60227969V.57128909C.11199951 .57128909 .17298889 .57128909 .22698975 .5972748V.08001709C.22698975 .042999269 .22399903 .0309906 .1309967 .0309906H.09899902V0C.1349945 .0029907227 .22399903 .0029907227 .2649994 .0029907227 .30599977 .0029907227 .3959961 .0029907227 .43199159 0V.0309906H.3999939C.30699159 .0309906 .3039856 .042999269 .3039856 .08001709V.6392822Z"/>
<path id="font_2_1" d="M.6749878 .22944641C.69299319 .22944641 .71199038 .22944641 .71199038 .25144959 .71199038 .27246095 .69200137 .27246095 .6749878 .27246095H.12298584C.10598755 .27246095 .085998538 .27246095 .085998538 .25144959 .085998538 .22944641 .10499573 .22944641 .12298584 .22944641H.6749878Z"/>
<path id="font_1_2" d="M.46199037 .17704773H.43399049C.43199159 .16404724 .42399598 .10501099 .41099549 .08900452 .40499879 .07998657 .33599855 .07998657 .31599427 .07998657H.13798523L.23699951 .17404175C.40098573 .3161316 .46199037 .36915589 .46199037 .4711914 .46199037 .5860901 .36698915 .6660156 .24398804 .6660156 .1289978 .6660156 .050994874 .575119 .050994874 .4841919 .050994874 .43418885 .09399414 .42919923 .102996829 .42919923 .125 .42919923 .15499878 .44519044 .15499878 .48120118 .15499878 .51119998 .13398743 .5332031 .102996829 .5332031 .09799194 .5332031 .09498596 .5332031 .09098816 .53219607 .114990238 .6030731 .1789856 .63500979 .23298645 .63500979 .33499146 .63500979 .36999513 .5401764 .36999513 .4711914 .36999513 .36915589 .29299928 .28611756 .24499512 .23408509L.06199646 .035995485C.050994874 .024993897 .050994874 .022994996 .050994874 0H.43399049L.46199037 .17704773Z"/>
<path id="font_1_3" d="M.30499269 .35195924C.397995 .38697816 .44198609 .46006776 .44198609 .5290985 .44198609 .60606387 .35699464 .6660156 .25299073 .6660156 .14898682 .6660156 .070999149 .60705569 .070999149 .5310974 .070999149 .49809266 .09298706 .47909547 .12199402 .47909547 .15098572 .47909547 .17199707 .50009158 .17199707 .5290985 .17199707 .5640869 .147995 .57910159 .11399841 .57910159 .13999939 .6210327 .20098877 .64100649 .25 .64100649 .33299256 .64100649 .34899903 .5750885 .34899903 .52809146 .34899903 .49809266 .34298707 .45005799 .31799317 .41201783 .2869873 .36695863 .2519989 .36495973 .22299195 .36296083 .19799805 .36094667 .19599915 .36094667 .18798828 .36094667 .1789856 .35995484 .17098999 .35894776 .17098999 .34794618 .17098999 .33496095 .1789856 .33496095 .19599915 .33496095H.24299622C.32998658 .33496095 .36799623 .2646637 .36799623 .16937256 .36799623 .04145813 .2999878 .0055389406 .24899292 .0055389406 .22999573 .0055389406 .1329956 .010528564 .08799744 .0843811 .12399292 .07939148 .1519928 .10437012 .1519928 .13838196 .1519928 .17137146 .1269989 .19238281 .09799194 .19238281 .07299805 .19238281 .042999269 .17736817 .042999269 .13537598 .042999269 .046447755 .13598633-.022460938 .2519989-.022460938 .3769989-.022460938 .46998597 .06741333 .46998597 .16937256 .46998597 .25663758 .40098573 .33093263 .30499269 .35195924Z"/>
<path id="font_1_4" d="M.0289917 .19602967V.16503906H.3019867V.07901001C.3019867 .041992189 .29899598 .0309906 .22399903 .0309906H.20199585V0C.2649994 .0029907227 .33499146 .0029907227 .34199525 .0029907227 .34700013 .0029907227 .4189911 .0029907227 .48199464 0V.0309906H.45999146C.3849945 .0309906 .38198854 .041992189 .38198854 .07901001V.16503906H.48399354V.19602967H.38198854V.64974978C.38198854 .669754 .38198854 .6767578 .36299134 .6767578 .35099793 .6767578 .34999085 .67575076 .34098817 .66174319L.0289917 .19602967M.06098938 .19602967 .30799867 .56581118V.19602967H.06098938Z"/>
<path id="font_1_5" d="M.10398865 .3444519C.10398865 .32641603 .10398865 .31539918 .117996219 .31539918 .12599182 .31539918 .1289978 .31941224 .1349945 .32843019 .16499329 .3704834 .21299744 .39453126 .2649994 .39453126 .37199403 .39453126 .37199403 .24029541 .37199403 .20425415 .37199403 .17324829 .37199403 .11125183 .34399415 .06637573 .31698609 .024475098 .2749939 .0055389406 .23599243 .0055389406 .1769867 .0055389406 .10998535 .042434694 .085998538 .116256717 .08699036 .116256717 .09298706 .11425781 .099990848 .11425781 .11999512 .11425781 .14898682 .12724304 .14898682 .16325379 .14898682 .19424439 .1269989 .21224976 .099990848 .21224976 .07899475 .21224976 .050994874 .20025635 .050994874 .1602478 .050994874 .069366458 .1269989-.022460938 .23799134-.022460938 .35899354-.022460938 .46199037 .0753479 .46199037 .19924927 .46199037 .3204193 .37599183 .41952516 .2669983 .41952516 .21899414 .41952516 .16999817 .40351869 .1349945 .36747743V.56477358C.16499329 .5557709 .19599915 .55078127 .22698975 .55078127 .34999085 .55078127 .42199708 .6397705 .42199708 .652771 .42199708 .6617737 .41600038 .6657715 .41099549 .6657715 .40899659 .6657715 .40699769 .6657715 .397995 .6607666 .35099793 .6417694 .30499269 .6337738 .2630005 .6337738 .21998596 .6337738 .1749878 .6417694 .1289978 .6607666 .11898804 .6657715 .116989139 .6657715 .115997318 .6657715 .10398865 .6657715 .10398865 .655777 .10398865 .6387787V.3444519Z"/>
<path id="font_3_2" d="M.33399964 .30233766C.33999635 .32835389 .36299134 .42037965 .43299867 .42037965 .43798829 .42037965 .46199037 .42037965 .48298646 .40734864 .45498658 .402359 .43499757 .37734986 .43499757 .35334779 .43499757 .33735658 .44599916 .31835938 .47299195 .31835938 .49499513 .31835938 .5269928 .3363495 .5269928 .37635804 .5269928 .42837525 .46798707 .4423828 .43399049 .4423828 .37599183 .4423828 .34098817 .38935853 .32899476 .36634828 .3039856 .43237306 .25 .4423828 .22099304 .4423828 .116989139 .4423828 .05999756 .3133545 .05999756 .28834535 .05999756 .27833558 .069992069 .27833558 .07199097 .27833558 .07998657 .27833558 .08299255 .28033448 .084991458 .28933717 .11898804 .39535523 .18499756 .42037965 .21899414 .42037965 .23799134 .42037965 .272995 .4113617 .272995 .35334779 .272995 .32235719 .2559967 .25532533 .21899414 .11528015 .20298767 .053268434 .16799927 .011245728 .12399292 .011245728 .117996219 .011245728 .09498596 .011245728 .07398987 .024276734 .09899902 .029266358 .12098694 .05027771 .12098694 .07827759 .12098694 .105270389 .09899902 .11328125 .083999637 .11328125 .053985597 .11328125 .0289917 .08728027 .0289917 .055267335 .0289917 .009246826 .07899475-.0107421879 .12298584-.0107421879 .18899536-.0107421879 .22499085 .059280397 .22799683 .0652771 .23999024 .028274537 .27598573-.0107421879 .33599855-.0107421879 .43899537-.0107421879 .49598695 .118270877 .49598695 .14328003 .49598695 .1532898 .4869995 .1532898 .48399354 .1532898 .47499085 .1532898 .47299195 .14929199 .47099305 .14228821 .43798829 .03527832 .36999513 .011245728 .33799745 .011245728 .29899598 .011245728 .2829895 .043273927 .2829895 .07727051 .2829895 .09927368 .2889862 .121276859 .2999878 .16529846L.33399964 .30233766Z"/>
<path id="font_3_3" d="M.48599244 .38136292C.48999024 .39537049 .48999024 .39736939 .48999024 .40437318 .48999024 .42237855 .47599793 .43138124 .46099855 .43138124 .45098878 .43138124 .43499757 .42536927 .42599488 .41036988 .42399598 .405365 .41600038 .37435914 .4119873 .35635377 .40499879 .33035279 .397995 .30334474 .3919983 .27633668L.34700013 .09628296C.34298707 .08126831 .2999878 .011245728 .23399353 .011245728 .18299866 .011245728 .17199707 .055267335 .17199707 .0922699 .17199707 .1382904 .18899536 .20030213 .22299195 .28833009 .23899842 .3293457 .24299622 .3403473 .24299622 .36035157 .24299622 .405365 .21099854 .4423828 .16099549 .4423828 .06599426 .4423828 .0289917 .29733277 .0289917 .28833009 .0289917 .27833558 .038986207 .27833558 .040985109 .27833558 .050994874 .27833558 .051986696 .28033448 .056991579 .29634095 .083999637 .3903656 .12399292 .42037965 .1579895 .42037965 .1659851 .42037965 .18299866 .42037965 .18299866 .3883667 .18299866 .36335755 .17298889 .3373413 .1659851 .31834413 .12599182 .21231079 .10798645 .1552887 .10798645 .10827637 .10798645 .019256592 .17098999-.0107421879 .22999573-.0107421879 .2689972-.0107421879 .30299378 .0062561037 .33099366 .03425598 .31799317-.017745972 .30599977-.06674194 .2659912-.11973572 .23999024-.15385437 .20199585-.18309021 .1559906-.18309021 .14199829-.18309021 .09700012-.18005371 .07998657-.14074707 .09599304-.14074707 .10899353-.14074707 .12298584-.1287384 .1329956-.11973572 .14299011-.10673523 .14299011-.08773804 .14299011-.056747438 .115997318-.052734376 .10598755-.052734376 .08299255-.052734376 .049987794-.068740848 .049987794-.11773682 .049987794-.16796875 .09399414-.20507813 .1559906-.20507813 .25898744-.20507813 .3619995-.11373901 .3899994-.00074768069L.48599244 .38136292Z"/>
<clipPath id="clip_4">
<path transform="matrix(1.00009,0,0,-1.00003,147.85105,149.6051)" d="M-141.73404-141.73404V141.73404H141.73404V-141.73404ZM141.73404 141.73404"/>
</clipPath>
<path id="font_5_2" d="M.44400025 .24998474C.44400025 .35688783 .35499574 .44381715 .25 .44381715 .14199829 .44381715 .054992677 .35488893 .054992677 .24998474 .054992677 .14407349 .14199829 .056137086 .25 .056137086 .35499574 .056137086 .44400025 .14308167 .44400025 .24998474Z"/>
<path id="font_6_1" d="M.33099366-.2400055C.33099366-.23701477 .33099366-.23500061 .31399537-.21800232 .18899536-.0920105 .15699768 .09700012 .15699768 .25 .15699768 .42399598 .19499207 .59799197 .31799317 .72299197 .33099366 .73498538 .33099366 .7369995 .33099366 .73999026 .33099366 .746994 .32699586 .75 .32099916 .75 .31098939 .75 .22099304 .6819916 .1619873 .5549927 .11099243 .44499208 .09899902 .33399964 .09899902 .25 .09899902 .17199707 .10998535 .050994874 .16499329-.06201172 .22499085-.18501282 .31098939-.25 .32099916-.25 .32699586-.25 .33099366-.24700928 .33099366-.2400055Z"/>
<path id="font_5_1" d="M.6589966 .23046875C.6759949 .23046875 .69400027 .23046875 .69400027 .25045777 .69400027 .27046205 .6759949 .27046205 .6589966 .27046205H.117996219C.100997928 .27046205 .08299255 .27046205 .08299255 .25045777 .08299255 .23046875 .100997928 .23046875 .117996219 .23046875H.6589966Z"/>
<path id="font_6_4" d="M.2939911 .64004519C.2939911 .66400149 .2939911 .6660156 .2709961 .6660156 .20899964 .60227969 .12098694 .60227969 .08898926 .60227969V.57128909C.10899353 .57128909 .16799927 .57128909 .21998596 .5972748V.07902527C.21998596 .042999269 .21699524 .0309906 .1269989 .0309906H.09498596V0C.12998963 .0029907227 .21699524 .0029907227 .25698854 .0029907227 .29699708 .0029907227 .38398744 .0029907227 .4189911 0V.0309906H.3869934C.29699708 .0309906 .2939911 .041992189 .2939911 .07902527V.64004519Z"/>
<path id="font_3_1" d="M.20298767 .0009918213C.20298767 .066986087 .17799378 .10598755 .13899231 .10598755 .10598755 .10598755 .085998538 .08099365 .085998538 .052993776 .085998538 .025985718 .10598755 0 .13899231 0 .15098572 0 .1639862 .0039978029 .17399597 .0129852299 .1769867 .01499939 .17799378 .015991211 .1789856 .015991211 .17999268 .015991211 .18099976 .01499939 .18099976 .0009918213 .18099976-.07316589 .1459961-.13328552 .11299133-.16635132 .101989749-.17736817 .101989749-.17936707 .101989749-.18237305 .101989749-.18936157 .10699463-.19335938 .11199951-.19335938 .12298584-.19335938 .20298767-.116256717 .20298767 .0009918213Z"/>
<path id="font_6_3" d="M.45999146 .31976319C.45999146 .39982606 .45498658 .47988893 .41999818 .5539398 .37399293 .65000918 .2919922 .6660156 .25 .6660156 .18998719 .6660156 .116989139 .64001467 .07598877 .54693606 .04399109 .47789 .038986207 .39982606 .038986207 .31976319 .038986207 .24472046 .042999269 .15464783 .083999637 .07859802 .1269989-.0024719239 .19999695-.022460938 .24899292-.022460938 .30299378-.022460938 .3789978-.0014648438 .4229889 .09359741 .45498658 .16265869 .45999146 .2407074 .45999146 .31976319M.24899292-.00047302247C.20999146-.00047302247 .15098572 .024551392 .1329956 .12062073 .12199402 .18066406 .12199402 .2727356 .12199402 .3317871 .12199402 .39582826 .12199402 .46188355 .12998963 .5159149 .14898682 .63500979 .22399903 .64401248 .24899292 .64401248 .28199769 .64401248 .34799195 .6259918 .36698915 .52693179 .3769989 .47088624 .3769989 .39482118 .3769989 .3317871 .3769989 .25672914 .3769989 .18867493 .3659973 .12461853 .35099793 .029556275 .2939911-.00047302247 .24899292-.00047302247Z"/>
<path id="font_6_2" d="M.2889862 .25C.2889862 .32798768 .27799989 .44898988 .22299195 .56199648 .16299439 .68499758 .07699585 .75 .066986087 .75 .06098938 .75 .056991579 .74598696 .056991579 .73999026 .056991579 .7369995 .056991579 .73498538 .07598877 .71699526 .17399597 .6179962 .23098755 .45899964 .23098755 .25 .23098755 .07899475 .19400025-.09700012 .069992069-.2230072 .056991579-.23500061 .056991579-.23701477 .056991579-.2400055 .056991579-.2460022 .06098938-.25 .066986087-.25 .07699585-.25 .16699219-.18200684 .22599793-.055007936 .2769928 .054992677 .2889862 .16600037 .2889862 .25Z"/>
<path id="font_6_5" d="M.1269989 .07699585 .23298645 .18003845C.3889923 .31811524 .44898988 .3721466 .44898988 .47216798 .44898988 .5860901 .35899354 .6660156 .23699951 .6660156 .12399292 .6660156 .049987794 .57411196 .049987794 .48516847 .049987794 .4291687 .099990848 .4291687 .102996829 .4291687 .11999512 .4291687 .15499878 .44117738 .15499878 .48217774 .15499878 .5081787 .13699341 .5341797 .101989749 .5341797 .09399414 .5341797 .09199524 .5341797 .08898926 .5331726 .11199951 .59806826 .1659851 .63500979 .22399903 .63500979 .31498719 .63500979 .35798646 .5541382 .35798646 .47216798 .35798646 .39215089 .30799867 .31311036 .25299073 .25108338L.06098938 .036987306C.049987794 .025985718 .049987794 .023986817 .049987794 0H.42099L.44898988 .17404175H.42399598C.4189911 .14402771 .4119873 .1000061 .4019928 .084991458 .394989 .07699585 .32899476 .07699585 .30699159 .07699585H.1269989Z"/>
</defs>
<path transform="matrix(1.00009,0,0,-1.00003,147.85105,149.6051)" stroke-width=".19925" stroke-linecap="butt" stroke-miterlimit="10" stroke-linejoin="miter" fill="none" stroke="#929292" stroke-opacity=".5" d="M-141.73404-141.73404H141.73404M-141.73404-113.38724H141.73404M-141.73404-85.04042H141.73404M-141.73404-56.69362H141.73404M-141.73404-28.3468H141.73404M-141.73404 0H141.73404M-141.73404 28.3468H141.73404M-141.73404 56.69362H141.73404M-141.73404 85.04042H141.73404M-141.73404 113.38724H141.73404M-141.73404 141.72409H141.73404M-141.73404-141.73404V141.73404M-113.38724-141.73404V141.73404M-85.04042-141.73404V141.73404M-56.69362-141.73404V141.73404M-28.3468-141.73404V141.73404M0-141.73404V141.73404M28.3468-141.73404V141.73404M56.69362-141.73404V141.73404M85.04042-141.73404V141.73404M113.38724-141.73404V141.73404M141.72409-141.73404V141.73404M141.73404 141.73404"/>
<path transform="matrix(1.00009,0,0,-1.00003,147.85105,149.6051)" stroke-width="1.19553" stroke-linecap="butt" stroke-miterlimit="10" stroke-linejoin="miter" fill="none" stroke="#000000" d="M28.3468 2.49069V-2.49069M-28.3468 2.49069V-2.49069M2.49069 28.3468H-2.49069M2.49069-28.3468H-2.49069"/>
<use data-text="1" xlink:href="#font_1_1" transform="matrix(8.967207,0,0,-8.966669,173.8964,161.79247)"/>
<use data-text="&#x2212;" xlink:href="#font_2_1" transform="matrix(8.967207,0,0,-8.966669,113.61396,161.79247)"/>
<use data-text="1" xlink:href="#font_1_1" transform="matrix(8.967207,0,0,-8.966669,120.782619,161.79247)"/>
<use data-text="1" xlink:href="#font_1_1" transform="matrix(8.967207,0,0,-8.966669,136.83306,124.14634)"/>
<use data-text="&#x2212;" xlink:href="#font_2_1" transform="matrix(8.967207,0,0,-8.966669,129.6654,180.42704)"/>
<use data-text="1" xlink:href="#font_1_1" transform="matrix(8.967207,0,0,-8.966669,136.83406,180.42704)"/>
<path transform="matrix(1.00009,0,0,-1.00003,147.85105,149.6051)" stroke-width="1.19553" stroke-linecap="butt" stroke-miterlimit="10" stroke-linejoin="miter" fill="none" stroke="#000000" d="M56.69362 2.49069V-2.49069M-56.69362 2.49069V-2.49069M2.49069 56.69362H-2.49069M2.49069-56.69362H-2.49069"/>
<use data-text="2" xlink:href="#font_1_2" transform="matrix(8.967207,0,0,-8.966669,202.24594,161.79247)"/>
<use data-text="&#x2212;" xlink:href="#font_2_1" transform="matrix(8.967207,0,0,-8.966669,85.264408,161.79247)"/>
<use data-text="2" xlink:href="#font_1_2" transform="matrix(8.967207,0,0,-8.966669,92.43306,161.79247)"/>
<use data-text="2" xlink:href="#font_1_2" transform="matrix(8.967207,0,0,-8.966669,136.83306,95.799488)"/>
<use data-text="&#x2212;" xlink:href="#font_2_1" transform="matrix(8.967207,0,0,-8.966669,129.6654,208.77487)"/>
<use data-text="2" xlink:href="#font_1_2" transform="matrix(8.967207,0,0,-8.966669,136.83406,208.77487)"/>
<path transform="matrix(1.00009,0,0,-1.00003,147.85105,149.6051)" stroke-width="1.19553" stroke-linecap="butt" stroke-miterlimit="10" stroke-linejoin="miter" fill="none" stroke="#000000" d="M85.04042 2.49069V-2.49069M-85.04042 2.49069V-2.49069M2.49069 85.04042H-2.49069M2.49069-85.04042H-2.49069"/>
<use data-text="3" xlink:href="#font_1_3" transform="matrix(8.967207,0,0,-8.966669,230.59549,161.79247)"/>
<use data-text="&#x2212;" xlink:href="#font_2_1" transform="matrix(8.967207,0,0,-8.966669,56.914857,161.79247)"/>
<use data-text="3" xlink:href="#font_1_3" transform="matrix(8.967207,0,0,-8.966669,64.08351,161.79247)"/>
<use data-text="3" xlink:href="#font_1_3" transform="matrix(8.967207,0,0,-8.966669,136.83306,67.45164)"/>
<use data-text="&#x2212;" xlink:href="#font_2_1" transform="matrix(8.967207,0,0,-8.966669,129.6654,237.12274)"/>
<use data-text="3" xlink:href="#font_1_3" transform="matrix(8.967207,0,0,-8.966669,136.83406,237.12274)"/>
<path transform="matrix(1.00009,0,0,-1.00003,147.85105,149.6051)" stroke-width="1.19553" stroke-linecap="butt" stroke-miterlimit="10" stroke-linejoin="miter" fill="none" stroke="#000000" d="M113.38724 2.49069V-2.49069M-113.38724 2.49069V-2.49069M2.49069 113.38724H-2.49069M2.49069-113.38724H-2.49069"/>
<use data-text="4" xlink:href="#font_1_4" transform="matrix(8.967207,0,0,-8.966669,258.94404,161.79247)"/>
<use data-text="&#x2212;" xlink:href="#font_2_1" transform="matrix(8.967207,0,0,-8.966669,28.565308,161.79247)"/>
<use data-text="4" xlink:href="#font_1_4" transform="matrix(8.967207,0,0,-8.966669,35.733964,161.79247)"/>
<use data-text="4" xlink:href="#font_1_4" transform="matrix(8.967207,0,0,-8.966669,136.83306,39.103784)"/>
<use data-text="&#x2212;" xlink:href="#font_2_1" transform="matrix(8.967207,0,0,-8.966669,129.6654,265.46958)"/>
<use data-text="4" xlink:href="#font_1_4" transform="matrix(8.967207,0,0,-8.966669,136.83406,265.46958)"/>
<path transform="matrix(1.00009,0,0,-1.00003,147.85105,149.6051)" stroke-width="1.19553" stroke-linecap="butt" stroke-miterlimit="10" stroke-linejoin="miter" fill="none" stroke="#000000" d="M141.73404 2.49069V-2.49069M-141.73404 2.49069V-2.49069M2.49069 141.73404H-2.49069M2.49069-141.73404H-2.49069"/>
<use data-text="5" xlink:href="#font_1_5" transform="matrix(8.967207,0,0,-8.966669,287.29359,161.79247)"/>
<use data-text="&#x2212;" xlink:href="#font_2_1" transform="matrix(8.967207,0,0,-8.966669,.21575928,161.79247)"/>
<use data-text="5" xlink:href="#font_1_5" transform="matrix(8.967207,0,0,-8.966669,7.3844149,161.79247)"/>
<use data-text="5" xlink:href="#font_1_5" transform="matrix(8.967207,0,0,-8.966669,136.83306,10.755936)"/>
<use data-text="&#x2212;" xlink:href="#font_2_1" transform="matrix(8.967207,0,0,-8.966669,129.6654,293.81745)"/>
<use data-text="5" xlink:href="#font_1_5" transform="matrix(8.967207,0,0,-8.966669,136.83406,293.81745)"/>
<path transform="matrix(1.00009,0,0,-1.00003,147.85105,149.6051)" stroke-width="1.19553" stroke-linecap="butt" stroke-miterlimit="10" stroke-linejoin="miter" fill="none" stroke="#000000" d="M-141.73404 0H143.61248"/>
<path transform="matrix(1.00009,0,0,-1.00003,291.47645,149.6051)" stroke-width=".9564" stroke-linecap="round" stroke-linejoin="round" fill="none" stroke="#000000" d="M-1.91284 2.55046C-1.75343 1.59402 0 .15938 .4782 0 0-.15938-1.75343-1.59402-1.91284-2.55046"/>
<use data-text="x" xlink:href="#font_3_2" transform="matrix(9.963496,0,0,-9.962899,289.58583,145.68698)"/>
<path transform="matrix(1.00009,0,0,-1.00003,147.85105,149.6051)" stroke-width="1.19553" stroke-linecap="butt" stroke-miterlimit="10" stroke-linejoin="miter" fill="none" stroke="#000000" d="M0-141.73404V143.61248"/>
<path transform="matrix(0,-1.00003,-1.00009,-0,147.85105,5.988312)" stroke-width=".9564" stroke-linecap="round" stroke-linejoin="round" fill="none" stroke="#000000" d="M-1.91284 2.55046C-1.75343 1.59402 0 .15938 .4782 0 0-.15938-1.75343-1.59402-1.91284-2.55046"/>
<use data-text="y" xlink:href="#font_3_3" transform="matrix(9.963496,0,0,-9.962899,151.7694,6.207794)"/>
<g clip-path="url(#clip_4)">
<path transform="matrix(1.00009,0,0,-1.00003,147.85105,149.6051)" stroke-width=".79701" stroke-linecap="butt" stroke-miterlimit="10" stroke-linejoin="miter" fill="none" stroke="#0000ff" d="M-42.5202-911.5271C-42.5202-911.5271-42.3355-890.71987-42.26456-882.83859-42.19363-874.95736-42.07988-862.44998-42.00894-854.7245-41.938-846.999-41.82423-834.72927-41.75331-827.1588-41.68237-819.5884-41.56862-807.57937-41.49768-800.162-41.42676-792.7446-41.31297-780.96939-41.24205-773.6997-41.17111-766.43008-41.05736-754.8875-40.98642-747.76736-40.9155-740.6472-40.80173-729.3552-40.73079-722.38259-40.65985-715.4099-40.54608-704.3441-40.47516-697.51339-40.40422-690.68258-40.29047-679.8403-40.21953-673.15109-40.1486-666.46188-40.03482-655.8498-39.9639-649.30227-39.89296-642.75466-39.7792-632.3689-39.70827-625.96078-39.63734-619.5526-39.52357-609.38839-39.45264-603.1167-39.3817-596.845-39.26794-586.89596-39.19702-580.7588-39.12608-574.62167-39.01231-564.88766-38.94138-558.88449-38.87045-552.88137-38.75668-543.3652-38.68575-537.49246-38.6148-531.61978-38.50105-522.3019-38.43013-516.55807-38.35919-510.8142-38.24542-501.71119-38.17448-496.09468-38.10355-490.47819-37.98979-481.56916-37.91887-476.07814-37.84793-470.5871-37.73416-461.88493-37.66322-456.51918-37.5923-451.1534-37.47855-442.6482-37.40761-437.40534-37.33667-432.16249-37.2229-423.8548-37.15198-418.7322-37.08104-413.60963-36.96727-405.48866-36.89633-400.48518-36.82541-395.4817-36.71164-387.55766-36.64072-382.6707-36.56978-377.7837-36.45601-370.0338-36.38507-365.26319-36.31415-360.49259-36.2004-352.94404-36.12946-348.28739-36.05852-343.6307-35.94475-336.24659-35.87383-331.70127-35.80289-327.15596-35.68913-319.96156-35.6182-315.5278-35.54727-311.09407-35.43349-304.07106-35.36256-299.7458-35.29163-295.42057-35.17786-288.57298-35.10692-284.35435-35.036-280.13575-34.92224-273.45365-34.8513-269.34098-34.78036-265.22828-34.6666-258.7202-34.59567-254.71295-34.52473-250.70572-34.41098-244.36505-34.34004-240.45954-34.26912-236.55403-34.15533-230.36843-34.08441-226.56468-34.01347-222.76096-33.89972-216.74909-33.82878-213.04485-33.75786-209.34062-33.64409-203.47426-33.57315-199.86714-33.50221-196.26001-33.38844-190.55663-33.31752-187.04714-33.24658-183.53766-33.13283-177.98929-33.06189-174.57318-32.99097-171.15709-32.87718-165.74822-32.80626-162.42621-32.73532-159.10422-32.62157-153.8591-32.55063-150.63048-32.4797-147.40187-32.36594-142.2954-32.295-139.15654-32.22406-136.0177-32.1103-131.05796-32.03938-128.00788-31.96844-124.9578-31.85468-120.136-31.78374-117.17366-31.71281-114.21133-31.59904-109.53244-31.5281-106.65736-31.45717-103.78229-31.34341-99.24324-31.27248-96.45206-31.20155-93.66089-31.08778-89.24835-31.01685-86.54047-30.9459-83.83258-30.83215-79.56015-30.76123-76.93552-30.69029-74.31088-30.57652-70.1686-30.50558-67.62384-30.43466-65.07907-30.3209-61.06044-30.24997-58.5946-30.17903-56.12877-30.06526-52.23865-29.99434-49.85172-29.9234-47.4648-29.80963-43.70155-29.7387-41.39127-29.66777-39.08098-29.554-35.43607-29.48308-33.20073-29.41214-30.96541-29.29837-27.44186-29.22743-25.28053-29.15651-23.1192-29.04276-19.71106-28.97182-17.6233-28.90088-15.53557-28.78711-12.2492-28.71619-10.2334-28.64525-8.2176-28.5315-5.0417-28.46056-3.0948-28.38963-1.14789-28.27585 1.9201-28.20493 3.79852-28.13399 5.67694-28.02022 8.63396-27.94928 10.44362-27.87836 12.25328-27.7646 15.09874-27.69366 16.8413-27.62273 18.58385-27.50896 21.32524-27.43803 23.00279-27.3671 24.68034-27.25334 27.31862-27.1824 28.93202-27.11148 30.54543-26.9977 33.081-26.92677 34.63113-26.85583 36.18127-26.74208 38.61589-26.67114 40.10446-26.60022 41.59305-26.48645 43.9319-26.41551 45.3598-26.34457 46.78772-26.2308 49.02701-26.15988 50.39586-26.08894 51.76471-25.97519 53.91458-25.90425 55.22557-25.83333 56.53656-25.71954 58.59132-25.64862 59.84465-25.57768 61.09798-25.46393 63.0619-25.39299 64.2587-25.32207 65.45549-25.2083 67.32802-25.13736 68.4703-25.06642 69.61261-24.95267 71.40292-24.88174 72.49162-24.8108 73.58034-24.69704 75.28171-24.6261 76.317-24.55518 77.35228-24.4414 78.96954-24.37047 79.95334-24.29953 80.93713-24.18578 82.47426-24.11484 83.40758-24.04391 84.3409-23.93015 85.79623-23.8592 86.68016-23.78827 87.5641-23.67451 88.94353-23.60359 89.77844-23.53265 90.61334-23.41888 91.9105-23.34795 92.69763-23.27702 93.48476-23.16327 94.71098-23.09233 95.4516-23.0214 96.19223-22.90762 97.34041-22.8367 98.03558-22.76576 98.73077-22.652 99.81142-22.58105 100.46213-22.51013 101.11285-22.39636 102.11827-22.32544 102.7256-22.2545 103.33293-22.14073 104.27455-22.0698 104.8394-21.99887 105.40425-21.88512 106.27351-21.81418 106.79665-21.74324 107.31978-21.62947 108.12692-21.55855 108.60985-21.48761 109.09276-21.37386 109.83475-21.30292 110.27727-21.232 110.7198-21.11821 111.39607-21.04729 111.79938-20.97635 112.20267-20.86258 112.81804-20.79164 113.18393-20.72072 113.54984-20.60696 114.10757-20.53603 114.43657-20.46509 114.76555-20.35132 115.2626-20.2804 115.55511-20.20946 115.84761-20.0957 116.2876-20.02477 116.54475-19.95384 116.80191-19.84006 117.18517-19.76913 117.40854-19.6982 117.6319-19.58444 117.96474-19.5135 118.15466-19.44258 118.3446-19.32881 118.6212-19.25787 118.77751-19.18694 118.93384-19.07317 119.15685-19.00224 119.28142-18.9313 119.406-18.81755 119.58131-18.74661 119.67546-18.67569 119.7696-18.5619 119.89616-18.49098 119.96007-18.42004 120.02397-18.30629 120.10161-18.23535 120.13612-18.16443 120.17062-18.05066 120.20297-17.97972 120.20879-17.90878 120.2146-17.79503 120.20015-17.7241 120.17807-17.65317 120.156-17.5394 120.09845-17.46846 120.0496-17.39754 120.00076-17.28377 119.90166-17.21283 119.82599-17.14189 119.7503-17.02814 119.60541-16.9572 119.50418-16.88628 119.40294-16.7725 119.2213-16.70157 119.09628-16.63063 118.97128-16.51688 118.75262-16.44595 118.6032-16.37502 118.45378-16.26125 118.19247-16.1903 118.01927-16.11938 117.84608-16.00563 117.5503-15.9347 117.3549-15.86375 117.15952-15.74998 116.82841-15.67906 116.61093-15.60812 116.39345-15.49435 116.02568-15.42342 115.78738-15.35248 115.54907-15.23872 115.15196-15.1678 114.89333-15.09686 114.63467-14.9831 114.2022-14.91216 113.92313-14.84123 113.64407-14.72748 113.18022-14.65654 112.88202-14.5856 112.58382-14.47183 112.09048-14.40091 111.77386-14.32997 111.45723-14.21622 110.93427-14.14528 110.59995-14.07436 110.26563-13.96057 109.71552-13.88965 109.3642-13.81871 109.01288-13.70494 108.43623-13.634 108.06787-13.56308 107.69952-13.44933 107.09317-13.37839 106.70927-13.30745 106.32538-13.19368 105.7003-13.12276 105.30092-13.05182 104.90154-12.93806 104.2452-12.86713 103.83073-12.7962 103.41629-12.68242 102.74202-12.6115 102.31383-12.54056 101.88564-12.4268 101.18651-12.35587 100.74457-12.28494 100.30263-12.17117 99.58351-12.10023 99.12862-12.0293 98.6737-11.91553 97.93301-11.8446 97.46593-11.77367 96.99884-11.65991 96.24142-11.58897 95.76216-11.51805 95.28291-11.40427 94.50253-11.33334 94.01169-11.2624 93.52084-11.14865 92.72543-11.07771 92.22444-11.00679 91.72343-10.89302 90.91222-10.82208 90.40085-10.75114 89.88948-10.63739 89.05975-10.56647 88.53877-10.49553 88.0178-10.38176 87.17639-10.31082 86.646-10.2399 86.1156-10.12611 85.25516-10.05519 84.71602-9.98425 84.17686-9.8705 83.30704-9.79956 82.76009-9.72864 82.21313-9.61487 81.3291-9.54393 80.77386-9.47299 80.21863-9.35924 79.3208-9.28831 78.75824-9.21738 78.19566-9.1036 77.2883-9.03267 76.71925-8.96175 76.1502-8.84799 75.23238-8.77705 74.6569-8.70612 74.08144-8.59235 73.15257-8.52142 72.57164-8.45049 71.9907-8.33672 71.05608-8.26578 70.46994-8.19484 69.88379-8.08109 68.93866-8.01016 68.34703-7.93922 67.75542-7.82545 66.80226-7.75452 66.20598-7.6836 65.6097-7.56984 64.64996-7.4989 64.04935-7.42796 63.44873-7.3142 62.48087-7.24327 61.87714-7.17233 61.2734-7.05858 60.3048-6.98764 59.69801-6.91672 59.09122-6.80293 58.11407-6.73201 57.50374-6.66107 56.89342-6.5473 55.91153-6.47636 55.2991-6.40544 54.68668-6.29169 53.70412-6.22075 53.08969-6.14981 52.47528-6.03604 51.48737-5.96512 50.87079-5.89418 50.25421-5.78043 49.2637-5.70949 48.64581-5.63857 48.02791-5.52478 47.03616-5.45386 46.41736-5.38292 45.79857-5.26917 44.80536-5.19823 44.18591-5.1273 43.56647-5.01353 42.5724-4.9426 41.95271-4.87166 41.33302-4.75789 40.33939-4.68697 39.71951-4.61603 39.09964-4.50227 38.10417-4.43134 37.48503-4.36041 36.86589-4.24663 35.87534-4.1757 35.25703-4.10477 34.63872-3.99101 33.64636-3.92007 33.02858-3.84915 32.41081-3.73538 31.42068-3.66444 30.80447-3.5935 30.18826-3.47975 29.20235-3.40883 28.58728-3.33789 27.97221-3.22412 26.98431-3.15318 26.3714-3.08226 25.75848-2.96848 24.77992-2.89755 24.16977-2.82661 23.55962-2.71286 22.58208-2.64192 21.97379-2.571 21.3655-2.45723 20.39087-2.38629 19.78557-2.31535 19.18027-2.2016 18.21324-2.13068 17.61119-2.05974 17.00916-1.94597 16.04552-1.87503 15.44635-1.80411 14.84717-1.69035 13.88837-1.61942 13.29274-1.54848 12.69711-1.43471 11.74478-1.36377 11.15341-1.29285 10.56204-1.17908 9.61792-1.10814 9.03052-1.0372 8.44312-.92345 7.50317-.85252 6.91972-.78159 6.33627-.66782 5.4045-.59688 4.82538-.52596 4.24626-.4122 3.32018-.34126 2.74574-.27032 2.17131-.15656 1.25429-.08563 .68513-.0147 .11597 .09903-.7923 .16997-1.35641 .24089-1.92053 .35468-2.82161 .4256-3.3807 .49654-3.93979 .6103-4.83287 .68124-5.38594 .75217-5.93903 .86592-6.81966 .93686-7.36697 1.0078-7.91429 1.12157-8.78938 1.19249-9.33069 1.26343-9.87201 1.37718-10.73363 1.44812-11.26846 1.51904-11.8033 1.63283-12.65646 1.70375-13.18547 1.77469-13.7145 1.88844-14.55869 1.95938-15.08128 2.0303-15.60388 2.14407-16.43602 2.21501-16.95201 2.28595-17.46799 2.39972-18.29105 2.47064-18.80025 2.54158-19.30945 2.65533-20.11974 2.72627-20.6221 2.7972-21.12447 2.91098-21.92538 2.9819-22.42102 3.05284-22.91667 3.1666-23.70628 3.23753-24.19443 3.30846-24.68257 3.42223-25.45871 3.49316-25.9393 3.5641-26.41988 3.67786-27.18477 3.74878-27.6582 3.81972-28.13164 3.93349-28.88606 4.00443-29.35158 4.07535-29.8171 4.18913-30.55556 4.26006-31.0134 4.331-31.47124 4.44475-32.20113 4.51569-32.65141 4.58661-33.1017 4.70038-33.81685 4.77132-34.25873 4.84225-34.7006 4.95601-35.40182 5.02693-35.8362 5.09787-36.27055 5.21164-36.963 5.28258-37.38943 5.3535-37.81589 5.46727-38.49193 5.5382-38.9098 5.60913-39.32768 5.7229-39.99155 5.79384-40.4012 5.86476-40.81084 5.97853-41.4613 6.04947-41.8623 6.1204-42.2633 6.23416-42.89886 6.30508-43.29141 6.37602-43.68396 6.48979-44.3071 6.56073-44.69154 6.63165-45.07599 6.7454-45.68658 6.81635-46.06226 6.88728-46.43793 7.00105-47.03207 7.07198-47.39923 7.14291-47.76639 7.25667-48.35 7.3276-48.70851 7.39854-49.06702 7.51231-49.6334 7.58324-49.98322 7.65417-50.33302 7.76794-50.88872 7.83888-51.22978 7.9098-51.57083 8.02356-52.10933 8.0945-52.44133 8.16544-52.77333 8.2792-53.29967 8.35013-53.62259 8.42107-53.94551 8.53482-54.45483 8.60576-54.76881 8.67668-55.0828 8.79047-55.5804 8.86139-55.88562 8.93233-56.19086 9.04608-56.67218 9.11702-56.96869 9.18794-57.26521 9.30171-57.73509 9.37265-58.0228 9.44359-58.3105 9.55736-58.76407 9.62828-59.04228 9.69922-59.3205 9.81297-59.75937 9.88391-60.02805 9.95483-60.29672 10.06862-60.71855 10.13954-60.97876 10.21048-61.23897 10.32423-61.65213 10.39517-61.90353 10.4661-62.15492 10.57986-62.54881 10.6508-62.79065 10.72174-63.0325 10.8355-63.4135 10.90642-63.64665 10.97736-63.8798 11.09113-64.24693 11.16206-64.47107 11.23299-64.6952 11.34677-65.04686 11.4177-65.26218 11.48863-65.4775 11.60239-65.8167 11.67332-66.02303 11.74425-66.22934 11.85802-66.55229 11.92896-66.74925 11.9999-66.94621 12.11365-67.25418 12.18457-67.44261 12.25551-67.63104 12.36928-67.92816 12.44022-68.1074 12.51114-68.28665 12.62491-68.56447 12.69583-68.7346 12.76677-68.90472 12.88054-69.1721 12.95148-69.33366 13.0224-69.49521 13.13617-69.74632 13.2071-69.89899 13.27805-70.05167 13.3918-70.28984 13.46272-70.43404 13.53366-70.57825 13.64743-70.803 13.71837-70.93839 13.78929-71.07378 13.90305-71.28346 13.97398-71.40984 14.04492-71.53621 14.15869-71.73157 14.22961-71.8493 14.30055-71.96704 14.4143-72.14926 14.48524-72.25848 14.55618-72.36769 14.66995-72.53601 14.74088-72.63652 14.81181-72.73703 14.92558-72.89058 14.99652-72.98299 15.06744-73.0754 15.1812-73.2189 15.25214-73.30263 15.32307-73.38634 15.43684-73.51143 15.50777-73.58636 15.5787-73.66132 15.69246-73.77542 15.7634-73.84288 15.83432-73.91032 15.9481-74.01369 16.01903-74.07254 16.08997-74.13141 16.20372-74.21667 16.27466-74.2672 16.34558-74.3177 16.45935-74.39384 16.53029-74.43674 16.60123-74.47964 16.715-74.5416 16.78592-74.57646 16.85686-74.61131 16.97061-74.66118 17.04155-74.68806 17.11247-74.71494 17.22626-74.75146 17.29718-74.77023 17.36812-74.78902 17.48187-74.81233 17.55281-74.82343 17.62373-74.83453 17.7375-74.84666 17.80844-74.85025 17.87938-74.85384 17.99313-74.8534 18.06406-74.84938 18.135-74.84537 18.24876-74.83284 18.3197-74.82127 18.39063-74.80971 18.50441-74.78493 18.57533-74.7659 18.64627-74.74689 18.76003-74.71031 18.83096-74.68414 18.90189-74.65799 19.01566-74.61034 19.0866-74.57733 19.15753-74.54433 19.27129-74.48663 19.34221-74.44626 19.41315-74.40588 19.52692-74.33398 19.59785-74.28622 19.66878-74.23846 19.78255-74.15598 19.85347-74.10196 19.92441-74.04794 20.03818-73.95747 20.10912-73.89693 20.18004-73.83638 20.29381-73.73303 20.36475-73.66553 20.43568-73.598 20.54944-73.4848 20.62036-73.41032 20.6913-73.33586 20.80507-73.20952 20.876-73.12874 20.94693-73.04797 21.06068-72.91473 21.13162-72.82814 21.20256-72.74155 21.31633-72.5979 21.38727-72.5046 21.45819-72.41129 21.57195-72.25516 21.64288-72.15555 21.71382-72.05592 21.82759-71.89154 21.89851-71.78659 21.96945-71.68164 22.08322-71.50957 22.15416-71.39903 22.22508-71.2885 22.33884-71.10658 22.40977-70.98985 22.48071-70.87314 22.59448-70.68034 22.6654-70.55774 22.73634-70.43513 22.8501-70.23393 22.92104-70.10619 22.99196-69.97842 23.10574-69.76973 23.17667-69.63687 23.2476-69.504 23.36136-69.28673 23.4323-69.14853 23.50322-69.01033 23.61699-68.78433 23.68793-68.64075 23.75887-68.49715 23.87263-68.26181 23.94356-68.11348 24.0145-67.96513 24.12825-67.72478 24.19919-67.5715 24.27011-67.41824 24.3839-67.16673 24.45482-67.00877 24.52576-66.85083 24.63951-66.5955 24.71045-66.43306 24.78137-66.27061 24.89514-66.00502 24.96608-65.83789 25.03702-65.67076 25.15077-65.39958 25.2217-65.22844 25.29263-65.0573 25.4064-64.77965 25.47734-64.6043 25.54826-64.42894 25.66205-64.14394 25.73297-63.96457 25.80391-63.7852 25.91766-63.49458 25.9886-63.31143 26.05952-63.12828 26.1733-62.83157 26.24423-62.64445 26.31517-62.45734 26.42892-62.15349 26.49985-61.96278 26.57079-61.77208 26.68456-61.46394 26.7555-61.26987 26.82642-61.07578 26.94019-60.7614 27.01111-60.56396 27.08205-60.36652 27.19582-60.0476 27.26675-59.8468 27.33768-59.646 27.45145-59.32066 27.52238-59.11668 27.59332-58.9127 27.70708-58.58311 27.778-58.3766 27.84894-58.1701 27.9627-57.83769 28.03365-57.62833 28.10457-57.41895 28.21832-57.08 28.28926-56.8675 28.3602-56.65498 28.47397-56.31125 28.5449-56.09671 28.61583-55.88216 28.72958-55.5383 28.80052-55.32117 28.87146-55.10403 28.98523-54.75125 29.05615-54.53178 29.12709-54.31232 29.24086-53.9607 29.3118-53.73936 29.38272-53.51804 29.49648-53.16 29.56741-52.93658 29.63835-52.71315 29.75212-52.35425 29.82304-52.12903 29.89398-51.90382 30.00774-51.54024 30.07867-51.31326 30.14961-51.0863 30.26338-50.72188 30.3343-50.49316 30.40524-50.26445 30.519-49.89494 30.58994-49.66486 30.66086-49.43477 30.77463-49.06569 30.84557-48.83482 30.9165-48.60397 31.03027-48.23326 31.1012-48.0009 31.17213-47.76852 31.28589-47.39337 31.35683-47.16003 31.42775-46.92671 31.54153-46.5534 31.61246-46.31917 31.6834-46.08495 31.79715-45.70685 31.86809-45.47185 31.93901-45.23683 32.05278-44.86104 32.12372-44.62537 32.19466-44.38971 32.30841-44.00954 32.37933-43.77327 32.45027-43.537 32.56404-43.15878 32.63498-42.92245 32.7059-42.68613 32.81969-42.30656 32.89061-42.06993 32.96155-41.8333 33.0753-41.45348 33.14624-41.21696 33.21716-40.98045 33.33093-40.60193 33.40187-40.3653 33.47281-40.12866 33.58656-39.74821 33.65749-39.51147 33.72842-39.27473 33.8422-38.89502 33.91313-38.65892 33.98405-38.42284 34.09782-38.04547 34.16875-37.80986 34.23969-37.57426 34.35345-37.19623 34.4244-36.96078 34.49532-36.72536 34.60909-36.34773 34.68002-36.11302 34.75096-35.87831 34.86472-35.50262 34.93564-35.26913 35.00658-35.03563 35.12035-34.6628 35.19128-34.43001 35.2622-34.19722 35.37598-33.82327 35.4469-33.59132 35.51784-33.35936 35.6316-32.989 35.70255-32.75826 35.77347-32.5275 35.88722-32.15752 35.95816-31.9282 36.0291-31.6989 36.14287-31.33345 36.21379-31.10551 36.28473-30.8776 36.3985-30.5124 36.46944-30.28543 36.54036-30.05847 36.65411-29.69489 36.72505-29.46967 36.79599-29.24445 36.90976-28.88542 36.98068-28.66212 37.05162-28.43881 37.16537-28.08151 37.23631-27.86018 37.30725-27.63885 37.42102-27.28644 37.49194-27.06691 37.56288-26.8474 37.67664-26.49544 37.74757-26.27797 37.8185-26.06049 37.93227-25.71497 38.0032-25.49939 38.07414-25.28383 38.18791-24.93776 38.25883-24.72429 38.32977-24.51083 38.44353-24.17145 38.51447-23.96086 38.58539-23.75029 38.69917-23.41505 38.7701-23.20651 38.84103-22.99797 38.95479-22.66399 39.02573-22.45778 39.09665-22.25159 39.21042-21.92357 39.28136-21.7203 39.3523-21.51704 39.46605-21.19359 39.53697-20.99278 39.60791-20.79198 39.72168-20.47108 39.79262-20.27304 39.86354-20.07501 39.97733-19.76051 40.04825-19.56541 40.11919-19.3703 40.23294-19.05908 40.30388-18.86687 40.3748-18.67465 40.48857-18.36946 40.55951-18.18 40.63045-17.99052 40.7442-17.6875 40.81512-17.50133 40.88606-17.31517 40.99983-17.02086 41.07077-16.83826 41.1417-16.65564 41.25546-16.36499 41.32639-16.18513 41.39732-16.00528 41.5111-15.7189 41.58203-15.54193 41.65295-15.36496 41.76672-15.083 41.83766-14.90958 41.9086-14.73615 42.02235-14.46169 42.09328-14.2919 42.16422-14.12213 42.27798-13.8521 42.34892-13.68593 42.41985-13.51974 42.53362-13.25708 42.60454-13.09421 42.67548-12.93132 42.78925-12.67165 42.86018-12.51201 42.9311-12.35237 43.04486-12.09908 43.1158-11.94365 43.18674-11.78822 43.3005-11.54373 43.37143-11.39174 43.44237-11.23973 43.55614-10.99643 43.62708-10.84804 43.698-10.69963 43.81175-10.4667 43.88269-10.32207 43.95363-10.17744 44.0674-9.94646 44.13832-9.80562 44.20926-9.66476 44.32301-9.44373 44.39395-9.3069 44.46489-9.17009 44.57866-8.9529 44.64958-8.81944 44.72052-8.68597 44.83427-8.47432 44.90521-8.34494 44.97614-8.21555 45.0899-8.01236 45.16084-7.88689 45.23178-7.76141 45.34555-7.56227 45.41647-7.4405 45.48741-7.31874 45.60117-7.12663 45.6721-7.00926 45.74303-6.89189 45.85681-6.7083 45.92773-6.59445 45.99867-6.48062 46.11243-6.29898 46.18336-6.18874 46.25429-6.07849 46.36806-5.90567 46.439-5.79988 46.50993-5.69409 46.62369-5.52843 46.69461-5.42618 46.76555-5.32393 46.87932-5.16125 46.95026-5.06285 47.02118-4.96443 47.13496-4.81091 47.20589-4.71681 47.27682-4.62271 47.39058-4.47517 47.46152-4.38463 47.53244-4.29407 47.64621-4.15088 47.71715-4.0641 47.78809-3.97733 47.90184-3.84157 47.97276-3.75917 48.0437-3.67677 48.15747-3.54903 48.22841-3.47025 48.29933-3.39145 48.4131-3.26656 48.48402-3.19125 48.55496-3.11594 48.66873-2.99869 48.73967-2.92741 48.8106-2.85612 48.92436-2.74525 48.9953-2.6774 49.06624-2.60953 49.18-2.50243 49.25092-2.4382 49.32185-2.374 49.43562-2.27464 49.50656-2.21458 49.57748-2.15453 49.69125-2.0621 49.76218-2.00522 49.83311-1.94833 49.94688-1.85799 50.01782-1.80453 50.08875-1.75107 50.2025-1.66965 50.27344-1.61984 50.34438-1.57004 50.45815-1.49234 50.52907-1.44553 50.6-1.39873 50.71378-1.32573 50.78471-1.28246 50.85564-1.2392 50.96939-1.17357 51.04033-1.13367 51.11127-1.09377 51.22504-1.03172 51.29597-.99483 51.3669-.95793 51.48065-.9015 51.55159-.86766 51.62253-.83382 51.7363-.78218 51.80722-.75087 51.87816-.71954 51.99191-.66994 52.06285-.64186 52.13377-.61378 52.24754-.5736 52.31848-.54845 52.38942-.5233 52.50319-.48367 52.57411-.46065 52.64505-.4376 52.7588-.40288 52.82974-.38235 52.90067-.36183 53.01445-.33066 53.08537-.31271 53.15631-.29477 53.27007-.26837 53.341-.25302 53.41193-.23766 53.5257-.21512 53.59663-.20198 53.66757-.18884 53.78133-.16975 53.85225-.1583 53.92319-.14684 54.03696-.12914 54.1079-.11935 54.17882-.10959 54.2926-.09605 54.36353-.08778 54.43446-.07951 54.54822-.06609 54.61916-.05968 54.69008-.05325 54.80385-.04611 54.87479-.0415 54.94572-.0369 55.05948-.02995 55.1304-.02637 55.20134-.02278 55.31511-.01794 55.38605-.01556 55.45697-.01317 55.57074-.01086 55.64166-.00906 55.7126-.00728 55.82637-.00389 55.89731-.00258 55.96823-.00127 56.082-.00009 56.15294 .00041 56.22388 .00095 56.33763 .00139 56.40855 .00128 56.47949 .00117 56.59326-.00006 56.6642-.00041 56.73512-.00076 56.84889-.00194 56.91982-.00128 56.99075-.00063 57.10452 .0036 57.17546 .0043 57.24638 .00502 57.36014 .00336 57.43108 .00389 57.50201 .00441 57.61578 .00653 57.6867 .0082 57.75764 .00987 57.87141 .01305 57.94235 .01599 58.01328 .01892 58.12703 .02538 58.19797 .02939 58.2689 .0334 58.38268 .04013 58.45361 .04497 58.52454 .04982 58.63829 .05748 58.70923 .06444 58.78017 .07138 58.89394 .08585 58.96486 .09514 59.0358 .10443 59.14955 .12038 59.22049 .13147 59.29141 .14258 59.40518 .16154 59.47612 .17517 59.54706 .18878 59.66083 .21268 59.73175 .22966 59.80269 .24664 59.91644 .27795 59.98738 .29758 60.05832 .31718 60.17209 .34848 60.24301 .37111 60.31395 .39372 60.4277 .43413 60.49864 .46065 60.56956 .48715 60.68333 .5318 60.75427 .56229 60.82521 .59276 60.93896 .64551 61.00989 .68037 61.08083 .71523 61.1946 .77399 61.26553 .81358 61.33646 .8532 61.45024 .92143 61.52116 .96584 61.5921 1.01024 61.70586 1.08398 61.7768 1.13367 61.84772 1.18335 61.96149 1.26848 62.03242 1.32397 62.10336 1.37949 62.21712 1.47304 62.28804 1.53377 62.35898 1.5945 62.47275 1.6945 62.54369 1.76172 62.61461 1.82893 62.72838 1.94366 62.7993 2.0182 62.87024 2.09274 62.98401 2.2172 63.05495 2.29892 63.12587 2.38065 63.23964 2.51889 63.31058 2.60733 63.38152 2.69577 63.49527 2.84047 63.5662 2.93648 63.63713 3.0325 63.7509 3.1943 63.82184 3.29938 63.89276 3.40446 64.00653 3.57985 64.07745 3.69386 64.14839 3.80788 64.26216 3.99866 64.3331 4.1212 64.40402 4.24374 64.51778 4.44562 64.58871 4.5771 64.65965 4.70857 64.77342 4.92703 64.84435 5.0689 64.91528 5.21075 65.02905 5.44756 65.09999 5.59962 65.17091 5.7517 65.28468 6.00214 65.3556 6.16495 65.42654 6.32776 65.54031 6.59912 65.61125 6.7731 65.68217 6.94707 65.79593 7.2329 65.86687 7.41888 65.9378 7.60486 66.05157 7.91568 66.1225 8.11353 66.19344 8.31139 66.30719 8.6348 66.37813 8.84496 66.44905 9.05513 66.56282 9.40462 66.63376 9.62828 66.7047 9.85196 66.81847 10.21968 66.88939 10.45702 66.96033 10.69437 67.07408 11.08704 67.14502 11.33896 67.21596 11.5909 67.32973 12.00685 67.40065 12.27283 67.47159 12.5388 67.58534 12.97578 67.65628 13.25598 67.7272 13.53618 67.84097 13.9959 67.91191 14.29234 67.98285 14.5888 68.0966 15.07962 68.16753 15.39272 68.23846 15.7058 68.35223 16.219 68.42317 16.54887 68.4941 16.87877 68.60788 17.42308 68.6788 17.77037 68.74974 18.11766 68.8635 18.68771 68.93443 19.05197 69.00536 19.41624 69.11913 20.01251 69.19006 20.39587 69.261 20.77924 69.37476 21.4123 69.44568 21.81505 69.51662 22.21779 69.63039 22.877 69.70132 23.29865 69.77225 23.7203 69.88602 24.41182 69.95694 24.85405 70.02788 25.2963 70.14165 26.02301 70.21259 26.48602 70.28351 26.94902 70.39728 27.70734 70.46822 28.19109 70.53915 28.67485 70.65291 29.46739 70.72383 29.9727 70.79477 30.47801 70.90854 31.30447 70.97948 31.83305 71.0504 32.36165 71.16417 33.2296 71.23509 33.7825 71.30603 34.33539 71.4198 35.24208 71.49074 35.81802 71.56166 36.39397 71.67542 37.33319 71.74635 37.93356 71.81729 38.53394 71.93106 39.51836 72.00198 40.14513 72.07292 40.77191 72.18669 41.79889 72.25763 42.451 72.32855 43.1031 72.44232 44.16682 72.51324 44.84508 72.58418 45.52335 72.69795 46.63316 72.76889 47.33952 72.83981 48.04588 72.95357 49.20114 73.0245 49.93607 73.09544 50.67099 73.20921 51.8731 73.28014 52.6364 73.35107 53.3997 73.46483 54.64534 73.53577 55.43752 73.60669 56.22969 73.72046 57.52287 73.7914 58.3459 73.86234 59.16891 73.9761 60.51512 74.04704 61.36934 74.11797 62.22357 74.23172 63.61732 74.30266 64.50264 74.3736 65.38795 74.48737 66.83195 74.55829 67.75015 74.62923 68.66835 74.74298 70.16884 74.81392 71.12047 74.88484 72.0721 74.99861 73.62366 75.06955 74.6089 75.14049 75.59415 75.25424 77.20099 75.32516 78.22145 75.3961 79.24191 75.50987 80.9071 75.58081 81.96378 75.65173 83.02043 75.76552 84.74352 75.83644 85.83714 75.90738 86.93077 76.02113 88.71483 76.09207 89.8459 76.163 90.97697 76.27676 92.82025 76.3477 93.98918 76.41864 95.15813 76.5324 97.06352 76.60332 98.27089 76.67426 99.47824 76.78802 101.44331 76.85896 102.691 76.92989 103.93869 77.04366 105.97438 77.11458 107.26335 77.18552 108.55234 77.29929 110.65025 77.37022 111.98105 77.44115 113.31184 77.55492 115.48123 77.62585 116.85487 77.6968 118.22853 77.81055 120.46466 77.88147 121.8814 77.95241 123.29813 78.06618 125.60513 78.13712 127.06581 78.20804 128.52648 78.32181 130.90316 78.39273 132.40895 78.46367 133.91475 78.57744 136.36589 78.64838 137.91863 78.7193 139.47135 78.83305 141.99951 78.90399 143.6 78.97493 145.2005 79.0887 147.80522 79.15962 149.45397 79.23056 151.10272 79.34433 153.7857 79.41527 155.48313 79.48619 157.18054 79.59996 159.94016 79.67088 161.68787 79.74182 163.43558 79.85559 166.28076 79.92653 168.0795 79.99745 169.87822 80.1112 172.80055 80.18214 174.6519 80.25308 176.50327 80.36685 179.51837 80.43777 181.42285 80.50871 183.32732 80.62247 186.41994 80.6934 188.37805 80.76433 190.33618 80.8781 193.5211 80.94904 195.53569 81.01997 197.5503 81.13374 200.8273 81.20468 202.89794 81.2756 204.96858 81.38936 208.3323 81.4603 210.45955 81.53123 212.58679 81.645 216.04387 81.71593 218.22968 81.78687 220.4155 81.90062 223.96756 81.97156 226.21346 82.04248 228.45935 82.15625 232.1098 82.22719 234.41655 82.29813 236.7233 82.41188 240.47048 82.4828 242.83892 82.55374 245.20735 82.66751 249.05527 82.73845 251.48665 82.80939 253.91805 82.92316 257.86747 82.99408 260.3628 83.06502 262.8581 83.17877 266.91099 83.24971 269.47117 83.32063 272.03135 83.4344 276.18775 83.50534 278.81483 83.57628 281.44194 83.69003 285.7109 83.76096 288.40553 83.8319 291.10014 83.94566 295.47325 84.0166 298.2358 84.08752 300.99836 84.2013 305.48283 84.27222 308.3161 84.34315 311.14936 84.45692 315.75144 84.52786 318.6559 84.59879 321.56044 84.71255 326.2735 84.7835 329.24964 84.85443 332.22578 85.03911 340.1059 85.03911 340.1059"/>
</g>
<use data-text="&#x2022;" xlink:href="#font_5_2" transform="matrix(9.963496,0,0,-9.962899,117.01127,151.81917)"/>
<use data-text="(" xlink:href="#font_6_1" transform="matrix(9.963496,0,0,-9.962899,86.090488,143.59392)"/>
<use data-text="&#x2212;" xlink:href="#font_5_1" transform="matrix(9.963496,0,0,-9.962899,89.96483,143.59392)"/>
<use data-text="1" xlink:href="#font_6_4" transform="matrix(9.963496,0,0,-9.962899,97.71452,143.59392)"/>
<use data-text="," xlink:href="#font_3_1" transform="matrix(9.963496,0,0,-9.962899,102.69597,143.59392)"/>
<use data-text="0" xlink:href="#font_6_3" transform="matrix(9.963496,0,0,-9.962899,107.12436,143.59392)"/>
<use data-text=")" xlink:href="#font_6_2" transform="matrix(9.963496,0,0,-9.962899,112.106098,143.59392)"/>
<use data-text="&#x2022;" xlink:href="#font_5_2" transform="matrix(9.963496,0,0,-9.962899,145.35982,151.81917)"/>
<use data-text="(" xlink:href="#font_6_1" transform="matrix(9.963496,0,0,-9.962899,151.37137,160.59743)"/>
<use data-text="0" xlink:href="#font_6_3" transform="matrix(9.963496,0,0,-9.962899,155.23722,160.59743)"/>
<use data-text="," xlink:href="#font_3_1" transform="matrix(9.963496,0,0,-9.962899,160.22818,160.59743)"/>
<use data-text="0" xlink:href="#font_6_3" transform="matrix(9.963496,0,0,-9.962899,164.65656,160.59743)"/>
<use data-text=")" xlink:href="#font_6_2" transform="matrix(9.963496,0,0,-9.962899,169.6383,160.59743)"/>
<use data-text="&#x2022;" xlink:href="#font_5_2" transform="matrix(9.963496,0,0,-9.962899,202.05893,151.81917)"/>
<use data-text="(" xlink:href="#font_6_1" transform="matrix(9.963496,0,0,-9.962899,178.88784,143.59392)"/>
<use data-text="2" xlink:href="#font_6_5" transform="matrix(9.963496,0,0,-9.962899,182.75368,143.59392)"/>
<use data-text="," xlink:href="#font_3_1" transform="matrix(9.963496,0,0,-9.962899,187.74465,143.59392)"/>
<use data-text="0" xlink:href="#font_6_3" transform="matrix(9.963496,0,0,-9.962899,192.17304,143.59392)"/>
<use data-text=")" xlink:href="#font_6_2" transform="matrix(9.963496,0,0,-9.962899,197.15477,143.59392)"/>
</svg>
