<svg xmlns="http://www.w3.org/2000/svg" xmlns:xlink="http://www.w3.org/1999/xlink" version="1.1" width="286" height="20" viewBox="0 0 286 20">
<defs>
<path id="font_1_1" d="M.6749878 .22944641C.69299319 .22944641 .71199038 .22944641 .71199038 .25144959 .71199038 .27246095 .69200137 .27246095 .6749878 .27246095H.12298584C.10598755 .27246095 .085998538 .27246095 .085998538 .25144959 .085998538 .22944641 .10499573 .22944641 .12298584 .22944641H.6749878Z"/>
<path id="font_2_1" d="M.3039856 .6392822C.3039856 .6642761 .30299378 .666275 .27799989 .666275 .21598816 .60227969 .12399292 .60227969 .09298706 .60227969V.57128909C.11199951 .57128909 .17298889 .57128909 .22698975 .5972748V.08001709C.22698975 .042999269 .22399903 .0309906 .1309967 .0309906H.09899902V0C.1349945 .0029907227 .22399903 .0029907227 .2649994 .0029907227 .30599977 .0029907227 .3959961 .0029907227 .43199159 0V.0309906H.3999939C.30699159 .0309906 .3039856 .042999269 .3039856 .08001709V.6392822Z"/>
<path id="font_2_2" d="M.46199037 .17704773H.43399049C.43199159 .16404724 .42399598 .10501099 .41099549 .08900452 .40499879 .07998657 .33599855 .07998657 .31599427 .07998657H.13798523L.23699951 .17404175C.40098573 .3161316 .46199037 .36915589 .46199037 .4711914 .46199037 .5860901 .36698915 .6660156 .24398804 .6660156 .1289978 .6660156 .050994874 .575119 .050994874 .4841919 .050994874 .43418885 .09399414 .42919923 .102996829 .42919923 .125 .42919923 .15499878 .44519044 .15499878 .48120118 .15499878 .51119998 .13398743 .5332031 .102996829 .5332031 .09799194 .5332031 .09498596 .5332031 .09098816 .53219607 .114990238 .6030731 .1789856 .63500979 .23298645 .63500979 .33499146 .63500979 .36999513 .5401764 .36999513 .4711914 .36999513 .36915589 .29299928 .28611756 .24499512 .23408509L.06199646 .035995485C.050994874 .024993897 .050994874 .022994996 .050994874 0H.43399049L.46199037 .17704773Z"/>
</defs>
<path transform="matrix(1.00003,0,0,-1.00006,143.23177,4.6893217)" stroke-width="1.19553" stroke-linecap="butt" stroke-miterlimit="10" stroke-linejoin="miter" fill="none" stroke="#000000" d="M-140.77762 0H140.77762"/>
<path transform="matrix(-1.00003,-0,0,1.00006,2.4499207,4.6893217)" stroke-width=".9564" stroke-linecap="round" stroke-linejoin="round" fill="none" stroke="#000000" d="M-1.91284 2.55046C-1.75343 1.59402 0 .15938 .4782 0 0-.15938-1.75343-1.59402-1.91284-2.55046"/>
<path transform="matrix(1.00003,0,0,-1.00006,284.0136,4.6893217)" stroke-width=".9564" stroke-linecap="round" stroke-linejoin="round" fill="none" stroke="#000000" d="M-1.91284 2.55046C-1.75343 1.59402 0 .15938 .4782 0 0-.15938-1.75343-1.59402-1.91284-2.55046"/>
<path transform="matrix(1.00003,0,0,-1.00006,143.23177,4.6893217)" stroke-width="1.19553" stroke-linecap="butt" stroke-miterlimit="10" stroke-linejoin="miter" fill="none" stroke="#0000ff" d="M-28.3468 0H56.69362"/>
<path transform="matrix(1.00003,0,0,-1.00006,143.23177,4.6893217)" d="M-25.85611 0C-25.85611 1.37558-26.97122 2.49069-28.3468 2.49069-29.72238 2.49069-30.8375 1.37558-30.8375 0-30.8375-1.37558-29.72238-2.49069-28.3468-2.49069-26.97122-2.49069-25.85611-1.37558-25.85611 0ZM-28.3468 0" fill="#0000ff"/>
<path transform="matrix(1.00003,0,0,-1.00006,143.23177,4.6893217)" stroke-width="1.19553" stroke-linecap="butt" stroke-miterlimit="10" stroke-linejoin="miter" fill="none" stroke="#0000ff" d="M-25.85611 0C-25.85611 1.37558-26.97122 2.49069-28.3468 2.49069-29.72238 2.49069-30.8375 1.37558-30.8375 0-30.8375-1.37558-29.72238-2.49069-28.3468-2.49069-26.97122-2.49069-25.85611-1.37558-25.85611 0ZM-28.3468 0"/>
<path transform="matrix(1.00003,0,0,-1.00006,143.23177,4.6893217)" d="M59.18431 0C59.18431 1.37558 58.0692 2.49069 56.69362 2.49069 55.31802 2.49069 54.20293 1.37558 54.20293 0 54.20293-1.37558 55.31802-2.49069 56.69362-2.49069 58.0692-2.49069 59.18431-1.37558 59.18431 0ZM56.69362 0" fill="#ffffff"/>
<path transform="matrix(1.00003,0,0,-1.00006,143.23177,4.6893217)" stroke-width="1.19553" stroke-linecap="butt" stroke-miterlimit="10" stroke-linejoin="miter" fill="none" stroke="#0000ff" d="M59.18431 0C59.18431 1.37558 58.0692 2.49069 56.69362 2.49069 55.31802 2.49069 54.20293 1.37558 54.20293 0 54.20293-1.37558 55.31802-2.49069 56.69362-2.49069 58.0692-2.49069 59.18431-1.37558 59.18431 0ZM56.69362 0"/>
<use data-text="&#x2212;" xlink:href="#font_1_1" transform="matrix(8.966669,0,0,-8.966938,108.996738,18.970179)"/>
<use data-text="1" xlink:href="#font_2_1" transform="matrix(8.966669,0,0,-8.966938,116.16397,18.970179)"/>
<use data-text="2" xlink:href="#font_2_2" transform="matrix(8.966669,0,0,-8.966938,197.6234,18.970179)"/>
</svg>
