<svg xmlns="http://www.w3.org/2000/svg" xmlns:xlink="http://www.w3.org/1999/xlink" version="1.1" width="286" height="21" viewBox="0 0 286 21">
<defs>
<path id="font_1_1" d="M.3039856 .6392822C.3039856 .6642761 .30299378 .666275 .27799989 .666275 .21598816 .60227969 .12399292 .60227969 .09298706 .60227969V.57128909C.11199951 .57128909 .17298889 .57128909 .22698975 .5972748V.08001709C.22698975 .042999269 .22399903 .0309906 .1309967 .0309906H.09899902V0C.1349945 .0029907227 .22399903 .0029907227 .2649994 .0029907227 .30599977 .0029907227 .3959961 .0029907227 .43199159 0V.0309906H.3999939C.30699159 .0309906 .3039856 .042999269 .3039856 .08001709V.6392822Z"/>
<path id="font_1_2" d="M.30499269 .35195924C.397995 .38697816 .44198609 .46006776 .44198609 .5290985 .44198609 .60606387 .35699464 .6660156 .25299073 .6660156 .14898682 .6660156 .070999149 .60705569 .070999149 .5310974 .070999149 .49809266 .09298706 .47909547 .12199402 .47909547 .15098572 .47909547 .17199707 .50009158 .17199707 .5290985 .17199707 .5640869 .147995 .57910159 .11399841 .57910159 .13999939 .6210327 .20098877 .64100649 .25 .64100649 .33299256 .64100649 .34899903 .5750885 .34899903 .52809146 .34899903 .49809266 .34298707 .45005799 .31799317 .41201783 .2869873 .36695863 .2519989 .36495973 .22299195 .36296083 .19799805 .36094667 .19599915 .36094667 .18798828 .36094667 .1789856 .35995484 .17098999 .35894776 .17098999 .34794618 .17098999 .33496095 .1789856 .33496095 .19599915 .33496095H.24299622C.32998658 .33496095 .36799623 .2646637 .36799623 .16937256 .36799623 .04145813 .2999878 .0055389406 .24899292 .0055389406 .22999573 .0055389406 .1329956 .010528564 .08799744 .0843811 .12399292 .07939148 .1519928 .10437012 .1519928 .13838196 .1519928 .17137146 .1269989 .19238281 .09799194 .19238281 .07299805 .19238281 .042999269 .17736817 .042999269 .13537598 .042999269 .046447755 .13598633-.022460938 .2519989-.022460938 .3769989-.022460938 .46998597 .06741333 .46998597 .16937256 .46998597 .25663758 .40098573 .33093263 .30499269 .35195924Z"/>
</defs>
<path transform="matrix(1.00003,0,0,-1,143.23177,4.6879999)" stroke-width="1.19553" stroke-linecap="butt" stroke-miterlimit="10" stroke-linejoin="miter" fill="none" stroke="#000000" d="M-140.77762 0H140.77762"/>
<path transform="matrix(-1.00003,-0,0,1,2.4499207,4.6879999)" stroke-width=".9564" stroke-linecap="round" stroke-linejoin="round" fill="none" stroke="#000000" d="M-1.91284 2.55046C-1.75343 1.59402 0 .15938 .4782 0 0-.15938-1.75343-1.59402-1.91284-2.55046"/>
<path transform="matrix(1.00003,0,0,-1,284.0136,4.6879999)" stroke-width=".9564" stroke-linecap="round" stroke-linejoin="round" fill="none" stroke="#000000" d="M-1.91284 2.55046C-1.75343 1.59402 0 .15938 .4782 0 0-.15938-1.75343-1.59402-1.91284-2.55046"/>
<path transform="matrix(1.00003,0,0,-1,143.23177,4.6879999)" stroke-width="1.19553" stroke-linecap="butt" stroke-miterlimit="10" stroke-linejoin="miter" fill="none" stroke="#0000ff" d="M28.3468 0H85.04042"/>
<path transform="matrix(1.00003,0,0,-1,143.23177,4.6879999)" d="M30.8375 0C30.8375 1.37558 29.72238 2.49069 28.3468 2.49069 26.97122 2.49069 25.85611 1.37558 25.85611 0 25.85611-1.37558 26.97122-2.49069 28.3468-2.49069 29.72238-2.49069 30.8375-1.37558 30.8375 0ZM28.3468 0" fill="#ffffff"/>
<path transform="matrix(1.00003,0,0,-1,143.23177,4.6879999)" stroke-width="1.19553" stroke-linecap="butt" stroke-miterlimit="10" stroke-linejoin="miter" fill="none" stroke="#0000ff" d="M30.8375 0C30.8375 1.37558 29.72238 2.49069 28.3468 2.49069 26.97122 2.49069 25.85611 1.37558 25.85611 0 25.85611-1.37558 26.97122-2.49069 28.3468-2.49069 29.72238-2.49069 30.8375-1.37558 30.8375 0ZM28.3468 0"/>
<path transform="matrix(1.00003,0,0,-1,143.23177,4.6879999)" d="M87.53111 0C87.53111 1.37558 86.416 2.49069 85.04042 2.49069 83.66484 2.49069 82.54973 1.37558 82.54973 0 82.54973-1.37558 83.66484-2.49069 85.04042-2.49069 86.416-2.49069 87.53111-1.37558 87.53111 0ZM85.04042 0" fill="#0000ff"/>
<path transform="matrix(1.00003,0,0,-1,143.23177,4.6879999)" stroke-width="1.19553" stroke-linecap="butt" stroke-miterlimit="10" stroke-linejoin="miter" fill="none" stroke="#0000ff" d="M87.53111 0C87.53111 1.37558 86.416 2.49069 85.04042 2.49069 83.66484 2.49069 82.54973 1.37558 82.54973 0 82.54973-1.37558 83.66484-2.49069 85.04042-2.49069 86.416-2.49069 87.53111-1.37558 87.53111 0ZM85.04042 0"/>
<use data-text="1" xlink:href="#font_1_1" transform="matrix(8.966669,0,0,-8.9664,169.27555,18.967999)"/>
<use data-text="3" xlink:href="#font_1_2" transform="matrix(8.966669,0,0,-8.9664,225.97126,18.967999)"/>
</svg>
