<svg xmlns="http://www.w3.org/2000/svg" xmlns:xlink="http://www.w3.org/1999/xlink" version="1.1" width="296" height="296" viewBox="0 0 296 296">
<defs>
<path id="font_1_1" d="M.3039856 .6392822C.3039856 .6642761 .30299378 .666275 .27799989 .666275 .21598816 .60227969 .12399292 .60227969 .09298706 .60227969V.57128909C.11199951 .57128909 .17298889 .57128909 .22698975 .5972748V.08001709C.22698975 .042999269 .22399903 .0309906 .1309967 .0309906H.09899902V0C.1349945 .0029907227 .22399903 .0029907227 .2649994 .0029907227 .30599977 .0029907227 .3959961 .0029907227 .43199159 0V.0309906H.3999939C.30699159 .0309906 .3039856 .042999269 .3039856 .08001709V.6392822Z"/>
<path id="font_2_1" d="M.6749878 .22944641C.69299319 .22944641 .71199038 .22944641 .71199038 .25144959 .71199038 .27246095 .69200137 .27246095 .6749878 .27246095H.12298584C.10598755 .27246095 .085998538 .27246095 .085998538 .25144959 .085998538 .22944641 .10499573 .22944641 .12298584 .22944641H.6749878Z"/>
<path id="font_1_2" d="M.46199037 .17704773H.43399049C.43199159 .16404724 .42399598 .10501099 .41099549 .08900452 .40499879 .07998657 .33599855 .07998657 .31599427 .07998657H.13798523L.23699951 .17404175C.40098573 .3161316 .46199037 .36915589 .46199037 .4711914 .46199037 .5860901 .36698915 .6660156 .24398804 .6660156 .1289978 .6660156 .050994874 .575119 .050994874 .4841919 .050994874 .43418885 .09399414 .42919923 .102996829 .42919923 .125 .42919923 .15499878 .44519044 .15499878 .48120118 .15499878 .51119998 .13398743 .5332031 .102996829 .5332031 .09799194 .5332031 .09498596 .5332031 .09098816 .53219607 .114990238 .6030731 .1789856 .63500979 .23298645 .63500979 .33499146 .63500979 .36999513 .5401764 .36999513 .4711914 .36999513 .36915589 .29299928 .28611756 .24499512 .23408509L.06199646 .035995485C.050994874 .024993897 .050994874 .022994996 .050994874 0H.43399049L.46199037 .17704773Z"/>
<path id="font_1_3" d="M.30499269 .35195924C.397995 .38697816 .44198609 .46006776 .44198609 .5290985 .44198609 .60606387 .35699464 .6660156 .25299073 .6660156 .14898682 .6660156 .070999149 .60705569 .070999149 .5310974 .070999149 .49809266 .09298706 .47909547 .12199402 .47909547 .15098572 .47909547 .17199707 .50009158 .17199707 .5290985 .17199707 .5640869 .147995 .57910159 .11399841 .57910159 .13999939 .6210327 .20098877 .64100649 .25 .64100649 .33299256 .64100649 .34899903 .5750885 .34899903 .52809146 .34899903 .49809266 .34298707 .45005799 .31799317 .41201783 .2869873 .36695863 .2519989 .36495973 .22299195 .36296083 .19799805 .36094667 .19599915 .36094667 .18798828 .36094667 .1789856 .35995484 .17098999 .35894776 .17098999 .34794618 .17098999 .33496095 .1789856 .33496095 .19599915 .33496095H.24299622C.32998658 .33496095 .36799623 .2646637 .36799623 .16937256 .36799623 .04145813 .2999878 .0055389406 .24899292 .0055389406 .22999573 .0055389406 .1329956 .010528564 .08799744 .0843811 .12399292 .07939148 .1519928 .10437012 .1519928 .13838196 .1519928 .17137146 .1269989 .19238281 .09799194 .19238281 .07299805 .19238281 .042999269 .17736817 .042999269 .13537598 .042999269 .046447755 .13598633-.022460938 .2519989-.022460938 .3769989-.022460938 .46998597 .06741333 .46998597 .16937256 .46998597 .25663758 .40098573 .33093263 .30499269 .35195924Z"/>
<path id="font_1_4" d="M.0289917 .19602967V.16503906H.3019867V.07901001C.3019867 .041992189 .29899598 .0309906 .22399903 .0309906H.20199585V0C.2649994 .0029907227 .33499146 .0029907227 .34199525 .0029907227 .34700013 .0029907227 .4189911 .0029907227 .48199464 0V.0309906H.45999146C.3849945 .0309906 .38198854 .041992189 .38198854 .07901001V.16503906H.48399354V.19602967H.38198854V.64974978C.38198854 .669754 .38198854 .6767578 .36299134 .6767578 .35099793 .6767578 .34999085 .67575076 .34098817 .66174319L.0289917 .19602967M.06098938 .19602967 .30799867 .56581118V.19602967H.06098938Z"/>
<path id="font_1_5" d="M.10398865 .3444519C.10398865 .32641603 .10398865 .31539918 .117996219 .31539918 .12599182 .31539918 .1289978 .31941224 .1349945 .32843019 .16499329 .3704834 .21299744 .39453126 .2649994 .39453126 .37199403 .39453126 .37199403 .24029541 .37199403 .20425415 .37199403 .17324829 .37199403 .11125183 .34399415 .06637573 .31698609 .024475098 .2749939 .0055389406 .23599243 .0055389406 .1769867 .0055389406 .10998535 .042434694 .085998538 .116256717 .08699036 .116256717 .09298706 .11425781 .099990848 .11425781 .11999512 .11425781 .14898682 .12724304 .14898682 .16325379 .14898682 .19424439 .1269989 .21224976 .099990848 .21224976 .07899475 .21224976 .050994874 .20025635 .050994874 .1602478 .050994874 .069366458 .1269989-.022460938 .23799134-.022460938 .35899354-.022460938 .46199037 .0753479 .46199037 .19924927 .46199037 .3204193 .37599183 .41952516 .2669983 .41952516 .21899414 .41952516 .16999817 .40351869 .1349945 .36747743V.56477358C.16499329 .5557709 .19599915 .55078127 .22698975 .55078127 .34999085 .55078127 .42199708 .6397705 .42199708 .652771 .42199708 .6617737 .41600038 .6657715 .41099549 .6657715 .40899659 .6657715 .40699769 .6657715 .397995 .6607666 .35099793 .6417694 .30499269 .6337738 .2630005 .6337738 .21998596 .6337738 .1749878 .6417694 .1289978 .6607666 .11898804 .6657715 .116989139 .6657715 .115997318 .6657715 .10398865 .6657715 .10398865 .655777 .10398865 .6387787V.3444519Z"/>
<path id="font_3_1" d="M.33399964 .30233766C.33999635 .32835389 .36299134 .42037965 .43299867 .42037965 .43798829 .42037965 .46199037 .42037965 .48298646 .40734864 .45498658 .402359 .43499757 .37734986 .43499757 .35334779 .43499757 .33735658 .44599916 .31835938 .47299195 .31835938 .49499513 .31835938 .5269928 .3363495 .5269928 .37635804 .5269928 .42837525 .46798707 .4423828 .43399049 .4423828 .37599183 .4423828 .34098817 .38935853 .32899476 .36634828 .3039856 .43237306 .25 .4423828 .22099304 .4423828 .116989139 .4423828 .05999756 .3133545 .05999756 .28834535 .05999756 .27833558 .069992069 .27833558 .07199097 .27833558 .07998657 .27833558 .08299255 .28033448 .084991458 .28933717 .11898804 .39535523 .18499756 .42037965 .21899414 .42037965 .23799134 .42037965 .272995 .4113617 .272995 .35334779 .272995 .32235719 .2559967 .25532533 .21899414 .11528015 .20298767 .053268434 .16799927 .011245728 .12399292 .011245728 .117996219 .011245728 .09498596 .011245728 .07398987 .024276734 .09899902 .029266358 .12098694 .05027771 .12098694 .07827759 .12098694 .105270389 .09899902 .11328125 .083999637 .11328125 .053985597 .11328125 .0289917 .08728027 .0289917 .055267335 .0289917 .009246826 .07899475-.0107421879 .12298584-.0107421879 .18899536-.0107421879 .22499085 .059280397 .22799683 .0652771 .23999024 .028274537 .27598573-.0107421879 .33599855-.0107421879 .43899537-.0107421879 .49598695 .118270877 .49598695 .14328003 .49598695 .1532898 .4869995 .1532898 .48399354 .1532898 .47499085 .1532898 .47299195 .14929199 .47099305 .14228821 .43798829 .03527832 .36999513 .011245728 .33799745 .011245728 .29899598 .011245728 .2829895 .043273927 .2829895 .07727051 .2829895 .09927368 .2889862 .121276859 .2999878 .16529846L.33399964 .30233766Z"/>
<path id="font_3_2" d="M.48599244 .38136292C.48999024 .39537049 .48999024 .39736939 .48999024 .40437318 .48999024 .42237855 .47599793 .43138124 .46099855 .43138124 .45098878 .43138124 .43499757 .42536927 .42599488 .41036988 .42399598 .405365 .41600038 .37435914 .4119873 .35635377 .40499879 .33035279 .397995 .30334474 .3919983 .27633668L.34700013 .09628296C.34298707 .08126831 .2999878 .011245728 .23399353 .011245728 .18299866 .011245728 .17199707 .055267335 .17199707 .0922699 .17199707 .1382904 .18899536 .20030213 .22299195 .28833009 .23899842 .3293457 .24299622 .3403473 .24299622 .36035157 .24299622 .405365 .21099854 .4423828 .16099549 .4423828 .06599426 .4423828 .0289917 .29733277 .0289917 .28833009 .0289917 .27833558 .038986207 .27833558 .040985109 .27833558 .050994874 .27833558 .051986696 .28033448 .056991579 .29634095 .083999637 .3903656 .12399292 .42037965 .1579895 .42037965 .1659851 .42037965 .18299866 .42037965 .18299866 .3883667 .18299866 .36335755 .17298889 .3373413 .1659851 .31834413 .12599182 .21231079 .10798645 .1552887 .10798645 .10827637 .10798645 .019256592 .17098999-.0107421879 .22999573-.0107421879 .2689972-.0107421879 .30299378 .0062561037 .33099366 .03425598 .31799317-.017745972 .30599977-.06674194 .2659912-.11973572 .23999024-.15385437 .20199585-.18309021 .1559906-.18309021 .14199829-.18309021 .09700012-.18005371 .07998657-.14074707 .09599304-.14074707 .10899353-.14074707 .12298584-.1287384 .1329956-.11973572 .14299011-.10673523 .14299011-.08773804 .14299011-.056747438 .115997318-.052734376 .10598755-.052734376 .08299255-.052734376 .049987794-.068740848 .049987794-.11773682 .049987794-.16796875 .09399414-.20507813 .1559906-.20507813 .25898744-.20507813 .3619995-.11373901 .3899994-.00074768069L.48599244 .38136292Z"/>
<clipPath id="clip_4">
<path transform="matrix(1.00009,0,0,-1.00003,147.85105,149.6051)" d="M-141.73404-141.73404V141.73404H141.73404V-141.73404ZM141.73404 141.73404"/>
</clipPath>
</defs>
<path transform="matrix(1.00009,0,0,-1.00003,147.85105,149.6051)" stroke-width=".19925" stroke-linecap="butt" stroke-miterlimit="10" stroke-linejoin="miter" fill="none" stroke="#929292" stroke-opacity=".5" d="M-141.73404-141.73404H141.73404M-141.73404-113.38724H141.73404M-141.73404-85.04042H141.73404M-141.73404-56.69362H141.73404M-141.73404-28.3468H141.73404M-141.73404 0H141.73404M-141.73404 28.3468H141.73404M-141.73404 56.69362H141.73404M-141.73404 85.04042H141.73404M-141.73404 113.38724H141.73404M-141.73404 141.72409H141.73404M-141.73404-141.73404V141.73404M-113.38724-141.73404V141.73404M-85.04042-141.73404V141.73404M-56.69362-141.73404V141.73404M-28.3468-141.73404V141.73404M0-141.73404V141.73404M28.3468-141.73404V141.73404M56.69362-141.73404V141.73404M85.04042-141.73404V141.73404M113.38724-141.73404V141.73404M141.72409-141.73404V141.73404M141.73404 141.73404"/>
<path transform="matrix(1.00009,0,0,-1.00003,147.85105,149.6051)" stroke-width="1.19553" stroke-linecap="butt" stroke-miterlimit="10" stroke-linejoin="miter" fill="none" stroke="#000000" d="M28.3468 2.49069V-2.49069M-28.3468 2.49069V-2.49069M2.49069 28.3468H-2.49069M2.49069-28.3468H-2.49069"/>
<use data-text="1" xlink:href="#font_1_1" transform="matrix(8.967207,0,0,-8.966669,173.8964,161.79247)"/>
<use data-text="&#x2212;" xlink:href="#font_2_1" transform="matrix(8.967207,0,0,-8.966669,113.61396,161.79247)"/>
<use data-text="1" xlink:href="#font_1_1" transform="matrix(8.967207,0,0,-8.966669,120.782619,161.79247)"/>
<use data-text="1" xlink:href="#font_1_1" transform="matrix(8.967207,0,0,-8.966669,136.83306,124.14634)"/>
<use data-text="&#x2212;" xlink:href="#font_2_1" transform="matrix(8.967207,0,0,-8.966669,129.6654,180.42704)"/>
<use data-text="1" xlink:href="#font_1_1" transform="matrix(8.967207,0,0,-8.966669,136.83406,180.42704)"/>
<path transform="matrix(1.00009,0,0,-1.00003,147.85105,149.6051)" stroke-width="1.19553" stroke-linecap="butt" stroke-miterlimit="10" stroke-linejoin="miter" fill="none" stroke="#000000" d="M56.69362 2.49069V-2.49069M-56.69362 2.49069V-2.49069M2.49069 56.69362H-2.49069M2.49069-56.69362H-2.49069"/>
<use data-text="2" xlink:href="#font_1_2" transform="matrix(8.967207,0,0,-8.966669,202.24594,161.79247)"/>
<use data-text="&#x2212;" xlink:href="#font_2_1" transform="matrix(8.967207,0,0,-8.966669,85.264408,161.79247)"/>
<use data-text="2" xlink:href="#font_1_2" transform="matrix(8.967207,0,0,-8.966669,92.43306,161.79247)"/>
<use data-text="2" xlink:href="#font_1_2" transform="matrix(8.967207,0,0,-8.966669,136.83306,95.799488)"/>
<use data-text="&#x2212;" xlink:href="#font_2_1" transform="matrix(8.967207,0,0,-8.966669,129.6654,208.77487)"/>
<use data-text="2" xlink:href="#font_1_2" transform="matrix(8.967207,0,0,-8.966669,136.83406,208.77487)"/>
<path transform="matrix(1.00009,0,0,-1.00003,147.85105,149.6051)" stroke-width="1.19553" stroke-linecap="butt" stroke-miterlimit="10" stroke-linejoin="miter" fill="none" stroke="#000000" d="M85.04042 2.49069V-2.49069M-85.04042 2.49069V-2.49069M2.49069 85.04042H-2.49069M2.49069-85.04042H-2.49069"/>
<use data-text="3" xlink:href="#font_1_3" transform="matrix(8.967207,0,0,-8.966669,230.59549,161.79247)"/>
<use data-text="&#x2212;" xlink:href="#font_2_1" transform="matrix(8.967207,0,0,-8.966669,56.914857,161.79247)"/>
<use data-text="3" xlink:href="#font_1_3" transform="matrix(8.967207,0,0,-8.966669,64.08351,161.79247)"/>
<use data-text="3" xlink:href="#font_1_3" transform="matrix(8.967207,0,0,-8.966669,136.83306,67.45164)"/>
<use data-text="&#x2212;" xlink:href="#font_2_1" transform="matrix(8.967207,0,0,-8.966669,129.6654,237.12274)"/>
<use data-text="3" xlink:href="#font_1_3" transform="matrix(8.967207,0,0,-8.966669,136.83406,237.12274)"/>
<path transform="matrix(1.00009,0,0,-1.00003,147.85105,149.6051)" stroke-width="1.19553" stroke-linecap="butt" stroke-miterlimit="10" stroke-linejoin="miter" fill="none" stroke="#000000" d="M113.38724 2.49069V-2.49069M-113.38724 2.49069V-2.49069M2.49069 113.38724H-2.49069M2.49069-113.38724H-2.49069"/>
<use data-text="4" xlink:href="#font_1_4" transform="matrix(8.967207,0,0,-8.966669,258.94404,161.79247)"/>
<use data-text="&#x2212;" xlink:href="#font_2_1" transform="matrix(8.967207,0,0,-8.966669,28.565308,161.79247)"/>
<use data-text="4" xlink:href="#font_1_4" transform="matrix(8.967207,0,0,-8.966669,35.733964,161.79247)"/>
<use data-text="4" xlink:href="#font_1_4" transform="matrix(8.967207,0,0,-8.966669,136.83306,39.103784)"/>
<use data-text="&#x2212;" xlink:href="#font_2_1" transform="matrix(8.967207,0,0,-8.966669,129.6654,265.46958)"/>
<use data-text="4" xlink:href="#font_1_4" transform="matrix(8.967207,0,0,-8.966669,136.83406,265.46958)"/>
<path transform="matrix(1.00009,0,0,-1.00003,147.85105,149.6051)" stroke-width="1.19553" stroke-linecap="butt" stroke-miterlimit="10" stroke-linejoin="miter" fill="none" stroke="#000000" d="M141.73404 2.49069V-2.49069M-141.73404 2.49069V-2.49069M2.49069 141.73404H-2.49069M2.49069-141.73404H-2.49069"/>
<use data-text="5" xlink:href="#font_1_5" transform="matrix(8.967207,0,0,-8.966669,287.29359,161.79247)"/>
<use data-text="&#x2212;" xlink:href="#font_2_1" transform="matrix(8.967207,0,0,-8.966669,.21575928,161.79247)"/>
<use data-text="5" xlink:href="#font_1_5" transform="matrix(8.967207,0,0,-8.966669,7.3844149,161.79247)"/>
<use data-text="5" xlink:href="#font_1_5" transform="matrix(8.967207,0,0,-8.966669,136.83306,10.755936)"/>
<use data-text="&#x2212;" xlink:href="#font_2_1" transform="matrix(8.967207,0,0,-8.966669,129.6654,293.81745)"/>
<use data-text="5" xlink:href="#font_1_5" transform="matrix(8.967207,0,0,-8.966669,136.83406,293.81745)"/>
<path transform="matrix(1.00009,0,0,-1.00003,147.85105,149.6051)" stroke-width="1.19553" stroke-linecap="butt" stroke-miterlimit="10" stroke-linejoin="miter" fill="none" stroke="#000000" d="M-141.73404 0H143.61248"/>
<path transform="matrix(1.00009,0,0,-1.00003,291.47645,149.6051)" stroke-width=".9564" stroke-linecap="round" stroke-linejoin="round" fill="none" stroke="#000000" d="M-1.91284 2.55046C-1.75343 1.59402 0 .15938 .4782 0 0-.15938-1.75343-1.59402-1.91284-2.55046"/>
<use data-text="x" xlink:href="#font_3_1" transform="matrix(9.963496,0,0,-9.962899,289.58583,145.68698)"/>
<path transform="matrix(1.00009,0,0,-1.00003,147.85105,149.6051)" stroke-width="1.19553" stroke-linecap="butt" stroke-miterlimit="10" stroke-linejoin="miter" fill="none" stroke="#000000" d="M0-141.73404V143.61248"/>
<path transform="matrix(0,-1.00003,-1.00009,-0,147.85105,5.988312)" stroke-width=".9564" stroke-linecap="round" stroke-linejoin="round" fill="none" stroke="#000000" d="M-1.91284 2.55046C-1.75343 1.59402 0 .15938 .4782 0 0-.15938-1.75343-1.59402-1.91284-2.55046"/>
<use data-text="y" xlink:href="#font_3_2" transform="matrix(9.963496,0,0,-9.962899,151.7694,6.207794)"/>
<g clip-path="url(#clip_4)">
<path transform="matrix(1.00009,0,0,-1.00003,147.85105,149.6051)" stroke-width=".79701" stroke-linecap="butt" stroke-miterlimit="10" stroke-linejoin="miter" fill="none" stroke="#0000ff" d="M-141.73404 127.56062C-141.73404 127.56062-141.3237 127.35526-141.1661 127.27646-141.00853 127.19766-140.75579 127.0715-140.59819 126.9927-140.44062 126.91393-140.18785 126.78732-140.03026 126.70853-139.87268 126.62973-139.61994 126.50357-139.46236 126.42479-139.30477 126.346-139.052 126.2194-138.89443 126.14061-138.73683 126.06181-138.48409 125.93565-138.3265 125.85687-138.16892 125.77808-137.91616 125.65147-137.75858 125.57268-137.60099 125.4939-137.34824 125.36772-137.19066 125.28894-137.03307 125.21014-136.7803 125.08356-136.62273 125.00476-136.46515 124.92598-136.21239 124.79982-136.05481 124.72102-135.89723 124.64223-135.64449 124.51563-135.4869 124.43683-135.32932 124.35805-135.07656 124.23189-134.91896 124.15309-134.76139 124.0743-134.50864 123.94771-134.35105 123.86893-134.19347 123.79013-133.9407 123.66397-133.78311 123.58517-133.62554 123.50638-133.37279 123.37978-133.21521 123.301-133.05762 123.2222-132.80486 123.09604-132.64728 123.01724-132.48969 122.93845-132.23694 122.81186-132.07936 122.73308-131.92177 122.65428-131.669 122.52812-131.51143 122.44933-131.35384 122.37054-131.10109 122.24394-130.94351 122.16515-130.78592 122.08635-130.53316 121.96019-130.37558 121.8814-130.218 121.80261-129.96524 121.67603-129.80767 121.59723-129.65009 121.51843-129.39734 121.39227-129.23975 121.31348-129.08217 121.2347-128.8294 121.10811-128.67182 121.02931-128.51424 120.95052-128.26149 120.82436-128.1039 120.74556-127.94632 120.66678-127.69356 120.54018-127.53596 120.46138-127.37839 120.38258-127.12564 120.25642-126.96806 120.17764-126.81047 120.09885-126.55771 119.97226-126.40013 119.89346-126.24254 119.81467-125.98979 119.6885-125.83221 119.60973-125.67462 119.53093-125.42186 119.40433-125.26428 119.32553-125.10669 119.24675-124.85394 119.12057-124.69637 119.0418-124.53877 118.963-124.28601 118.83641-124.12843 118.75761-123.97086 118.67883-123.7181 118.55267-123.56052 118.47388-123.40294 118.39508-123.15019 118.26848-122.9926 118.18968-122.83502 118.1109-122.58226 117.98474-122.42467 117.90594-122.26709 117.82715-122.01434 117.70056-121.85675 117.62178-121.69917 117.54298-121.44641 117.41682-121.28882 117.33803-121.13124 117.25923-120.8785 117.13263-120.72092 117.05385-120.56332 116.97505-120.31056 116.84889-120.15298 116.7701-119.99539 116.6913-119.74265 116.56471-119.58507 116.48593-119.42747 116.40714-119.17471 116.28098-119.01714 116.20218-118.85954 116.1234-118.6068 115.99681-118.44922 115.91801-118.29163 115.83922-118.03888 115.71306-117.8813 115.63426-117.72372 115.55548-117.47095 115.42888-117.31337 115.35008-117.15579 115.27129-116.90305 115.14513-116.74545 115.06633-116.58788 114.98755-116.33511 114.86096-116.17752 114.78217-116.01994 114.70337-115.7672 114.57721-115.6096 114.49841-115.45203 114.41963-115.19926 114.29303-115.04167 114.21423-114.8841 114.13544-114.63135 114.00928-114.47377 113.9305-114.31618 113.8517-114.06342 113.72511-113.90584 113.64632-113.74825 113.56752-113.4955 113.44136-113.33792 113.36258-113.18033 113.28378-112.92757 113.15718-112.76999 113.07838-112.6124 112.9996-112.35965 112.87343-112.20207 112.79465-112.04448 112.71585-111.79173 112.58926-111.63416 112.51047-111.47658 112.43169-111.2238 112.30553-111.06622 112.22673-110.90865 112.14793-110.6559 112.02133-110.4983 111.94254-110.34073 111.86375-110.08797 111.7376-109.93037 111.6588-109.7728 111.58-109.52005 111.45341-109.36246 111.37463-109.20488 111.29584-108.95212 111.16968-108.79453 111.09088-108.63695 111.01208-108.3842 110.88548-108.22662 110.8067-108.06903 110.7279-107.81627 110.60175-107.65869 110.52295-107.5011 110.44415-107.24835 110.31757-107.09077 110.23878-106.93318 110.15999-106.68042 110.03383-106.52284 109.95503-106.36525 109.87625-106.1125 109.74966-105.95493 109.67087-105.79733 109.59207-105.54459 109.46591-105.38701 109.38712-105.22943 109.30833-104.97665 109.18173-104.81908 109.10294-104.6615 109.02414-104.40875 108.89798-104.25116 108.81918-104.09358 108.7404-103.84082 108.61382-103.68323 108.53502-103.52565 108.45622-103.2729 108.33006-103.11531 108.25127-102.95773 108.17249-102.70497 108.04588-102.54738 107.96709-102.3898 107.88829-102.13705 107.76213-101.97948 107.68335-101.82188 107.60455-101.56912 107.47797-101.41154 107.39917-101.25395 107.32037-101.0012 107.19421-100.84363 107.11543-100.68604 107.03664-100.43327 106.91003-100.2757 106.83124-100.1181 106.75246-99.86536 106.62628-99.70778 106.5475-99.55019 106.4687-99.29744 106.34212-99.13986 106.26332-98.98228 106.18454-98.7295 106.05838-98.57193 105.97958-98.41435 105.90079-98.1616 105.77419-98.00401 105.69539-97.84644 105.61661-97.59367 105.49045-97.43608 105.41165-97.2785 105.33286-97.02576 105.20627-96.86816 105.12749-96.71059 105.04869-96.45782 104.92253-96.30023 104.84373-96.14265 104.76494-95.88991 104.63834-95.73233 104.55956-95.57474 104.48076-95.32198 104.3546-95.1644 104.2758-95.0068 104.197-94.75406 104.07042-94.59648 103.99164-94.43889 103.91284-94.18614 103.78668-94.02856 103.70789-93.87097 103.6291-93.61821 103.50252-93.46063 103.42372-93.30304 103.34492-93.0503 103.21877-92.89272 103.13997-92.73514 103.06119-92.48236 102.93459-92.32478 102.85579-92.1672 102.777-91.91446 102.65083-91.75687 102.57204-91.59929 102.49326-91.34653 102.36667-91.18893 102.28787-91.03136 102.20908-90.77861 102.08292-90.62102 102.00412-90.46344 101.92534-90.21068 101.79874-90.05309 101.71994-89.89551 101.64114-89.64276 101.51498-89.48518 101.4362-89.32759 101.3574-89.07483 101.23082-88.91725 101.15202-88.75966 101.07323-88.50691 100.94707-88.34933 100.86829-88.19174 100.78949-87.939 100.66289-87.78142 100.58409-87.62383 100.50531-87.37106 100.37914-87.21349 100.30035-87.0559 100.22156-86.80315 100.09497-86.64557 100.01617-86.48799 99.9374-86.23521 99.81123-86.07764 99.73244-85.92006 99.65364-85.66731 99.52704-85.50972 99.44824-85.35214 99.36946-85.09938 99.2433-84.94179 99.1645-84.78421 99.08571-84.53146 98.95912-84.37387 98.88034-84.2163 98.80154-83.96353 98.67538-83.80594 98.59659-83.64836 98.51779-83.39561 98.39119-83.23804 98.31241-83.08044 98.23361-82.82768 98.10745-82.6701 98.02866-82.51251 97.94986-82.25977 97.82327-82.10219 97.74449-81.9446 97.6657-81.69185 97.53954-81.53427 97.46074-81.37668 97.38196-81.12392 97.25537-80.96634 97.17657-80.80875 97.09778-80.556 96.97162-80.39842 96.89282-80.24084 96.81404-79.98807 96.68744-79.83049 96.60864-79.67291 96.52985-79.42017 96.40369-79.26257 96.32489-79.105 96.24611-78.85223 96.11952-78.69464 96.04073-78.53706 95.96193-78.28432 95.83577-78.12672 95.75697-77.96915 95.67819-77.71638 95.55159-77.55879 95.4728-77.40121 95.394-77.14847 95.26784-76.99089 95.18906-76.8333 95.11026-76.58054 94.98367-76.42296 94.90488-76.26537 94.82608-76.01262 94.69992-75.85504 94.62114-75.69745 94.54234-75.4447 94.41574-75.28712 94.33694-75.12953 94.25816-74.87677 94.13199-74.7192 94.0532-74.5616 93.97441-74.30885 93.84782-74.15128 93.76903-73.9937 93.69025-73.74092 93.56409-73.58334 93.48529-73.42577 93.4065-73.17302 93.27989-73.01543 93.2011-72.85785 93.12231-72.60509 92.99615-72.4475 92.91736-72.28992 92.83856-72.03717 92.71198-71.87958 92.6332-71.722 92.5544-71.46924 92.42824-71.31165 92.34944-71.15407 92.27065-70.90132 92.14406-70.74374 92.06528-70.58615 91.98648-70.3334 91.86032-70.17583 91.78152-70.01823 91.70273-69.76547 91.57613-69.6079 91.49734-69.4503 91.41855-69.19756 91.29239-69.03998 91.2136-68.88239 91.13481-68.62962 91.00822-68.47205 90.92943-68.31445 90.85063-68.0617 90.72447-67.90413 90.64568-67.74655 90.5669-67.49377 90.44029-67.3362 90.3615-67.17862 90.2827-66.92587 90.15654-66.76828 90.07774-66.6107 89.99896-66.35794 89.87238-66.20035 89.79358-66.04277 89.71478-65.79002 89.58862-65.63243 89.50983-65.47485 89.43105-65.22209 89.30444-65.0645 89.22565-64.90692 89.14685-64.65417 89.02069-64.4966 88.94191-64.339 88.86311-64.08626 88.73653-63.92868 88.65773-63.77109 88.57893-63.51833 88.45277-63.36075 88.374-63.20316 88.2952-62.95041 88.1686-62.79283 88.0898-62.63524 88.01102-62.38248 87.88484-62.2249 87.80606-62.0673 87.72726-61.81456 87.60068-61.65698 87.52188-61.4994 87.4431-61.24663 87.31694-61.08905 87.23814-60.93147 87.15935-60.67873 87.03275-60.52113 86.95395-60.36356 86.87517-60.1108 86.74901-59.9532 86.67021-59.79562 86.59142-59.54288 86.46483-59.38528 86.38605-59.2277 86.30725-58.97495 86.18109-58.81735 86.1023-58.65977 86.0235-58.40703 85.89691-58.24945 85.81813-58.09186 85.73933-57.83911 85.61317-57.68153 85.53438-57.52394 85.45558-57.27118 85.32898-57.1136 85.2502-56.95601 85.1714-56.70326 85.04524-56.54568 84.96645-56.38809 84.88766-56.13533 84.76108-55.97775 84.68228-55.82016 84.60349-55.56741 84.47733-55.40984 84.39853-55.25226 84.31975-54.99948 84.19315-54.8419 84.11435-54.68433 84.03555-54.43158 83.9094-54.27399 83.8306-54.11641 83.75182-53.86365 83.62523-53.70605 83.54643-53.54848 83.46764-53.29573 83.34148-53.13814 83.26268-52.98056 83.1839-52.7278 83.0573-52.5702 82.9785-52.41263 82.8997-52.15988 82.77354-52.0023 82.69476-51.84471 82.61597-51.59196 82.48938-51.43439 82.41058-51.2768 82.33179-51.02403 82.20563-50.86646 82.12685-50.70886 82.04805-50.45612 81.92145-50.29854 81.84265-50.14095 81.76387-49.88818 81.6377-49.7306 81.55891-49.57301 81.48012-49.32027 81.35353-49.16269 81.27473-49.00511 81.19595-48.75233 81.0698-48.59476 80.991-48.43718 80.9122-48.18443 80.7856-48.02684 80.7068-47.86926 80.62802-47.6165 80.50186-47.45891 80.42307-47.30133 80.34427-47.04858 80.21768-46.89099 80.1389-46.73341 80.0601-46.48067 79.93394-46.32307 79.85515-46.1655 79.77635-45.91273 79.64977-45.75516 79.57098-45.59756 79.49219-45.34482 79.36603-45.18724 79.28723-45.02965 79.20844-44.77689 79.08183-44.61931 79.00305-44.46172 78.92426-44.20897 78.7981-44.05139 78.7193-43.8938 78.64052-43.64104 78.51393-43.48346 78.43513-43.32587 78.35634-43.07312 78.23018-42.91554 78.15138-42.75797 78.0726-42.50519 77.946-42.34761 77.8672-42.19003 77.7884-41.93729 77.66225-41.7797 77.58345-41.62212 77.50467-41.36935 77.37808-41.21176 77.29929-41.05418 77.22049-40.80144 77.09433-40.64384 77.01553-40.48627 76.93675-40.23352 76.81015-40.07593 76.73135-39.91835 76.65256-39.66559 76.5264-39.50801 76.44762-39.35042 76.36882-39.09767 76.24223-38.9401 76.16344-38.7825 76.08464-38.52974 75.95848-38.37216 75.8797-38.21457 75.8009-37.96182 75.6743-37.80424 75.5955-37.64665 75.51672-37.39389 75.39055-37.23631 75.31177-37.07872 75.23297-36.82597 75.10638-36.6684 75.02759-36.51082 74.9488-36.25804 74.82265-36.10046 74.74385-35.94289 74.66505-35.69014 74.53845-35.53255 74.45966-35.37497 74.38087-35.12221 74.25471-34.96461 74.17592-34.80704 74.09712-34.55429 73.97054-34.3967 73.89175-34.23912 73.81296-33.98637 73.6868-33.82878 73.608-33.6712 73.5292-33.41844 73.40262-33.26086 73.32384-33.10327 73.24504-32.85052 73.11888-32.69295 73.04008-32.53535 72.96129-32.2826 72.83469-32.12502 72.7559-31.96742 72.67711-31.71468 72.55095-31.5571 72.47215-31.3995 72.39337-31.14674 72.26678-30.98917 72.18799-30.83157 72.10919-30.57883 71.98303-30.42125 71.90424-30.26367 71.82545-30.0109 71.69885-29.85332 71.62006-29.69574 71.54126-29.443 71.4151-29.2854 71.3363-29.12782 71.25752-28.87508 71.13094-28.71748 71.05214-28.5599 70.97334-28.30714 70.84718-28.14955 70.76839-27.99197 70.6896-27.73923 70.563-27.58163 70.4842-27.42406 70.40541-27.1713 70.27925-27.01372 70.20047-26.85612 70.12167-26.60338 69.99509-26.4458 69.91629-26.28821 69.8375-26.03545 69.71133-25.87787 69.63255-25.72028 69.55376-25.46753 69.42715-25.30995 69.34836-25.15236 69.26958-24.8996 69.1434-24.74202 69.06462-24.58443 68.98582-24.33168 68.85924-24.1741 68.78044-24.01653 68.70166-23.76375 68.5755-23.60617 68.4967-23.4486 68.41791-23.19585 68.29132-23.03825 68.21252-22.88068 68.13374-22.62793 68.00758-22.47034 67.92879-22.31276 67.84999-22.06 67.72339-21.9024 67.6446-21.74483 67.56581-21.49208 67.43965-21.33449 67.36086-21.17691 67.28206-20.92415 67.15547-20.76657 67.07669-20.60898 66.9979-20.35623 66.87173-20.19865 66.79294-20.04106 66.71414-19.7883 66.58754-19.63072 66.50876-19.47313 66.42996-19.22038 66.3038-19.0628 66.225-18.90521 66.14622-18.65245 66.01964-18.49487 65.94084-18.33728 65.86205-18.08453 65.73589-17.92696 65.65709-17.76938 65.57831-17.5166 65.4517-17.35902 65.37291-17.20145 65.29411-16.9487 65.16795-16.7911 65.08916-16.63353 65.01038-16.38078 64.88379-16.22319 64.805-16.06561 64.7262-15.81285 64.60004-15.65526 64.52124-15.49768 64.44246-15.24493 64.31586-15.08734 64.23706-14.92976 64.15826-14.677 64.0321-14.51942 63.95332-14.36183 63.87453-14.10909 63.74794-13.9515 63.66914-13.79391 63.59035-13.54115 63.46419-13.38358 63.3854-13.22598 63.30661-12.97324 63.18001-12.81566 63.10121-12.65807 63.02243-12.4053 62.89626-12.24773 62.81747-12.09013 62.73868-11.83739 62.61209-11.67981 62.5333-11.52223 62.45451-11.26945 62.32835-11.11188 62.24956-10.9543 62.17076-10.70155 62.04417-10.54396 61.96538-10.38638 61.8866-10.13364 61.76044-9.97604 61.68164-9.81847 61.60284-9.5657 61.47624-9.40811 61.39746-9.25053 61.31866-8.99779 61.1925-8.8402 61.11371-8.68262 61.03491-8.42986 60.90833-8.27228 60.82954-8.11469 60.75075-7.86194 60.62459-7.70436 60.54579-7.54677 60.467-7.294 60.3404-7.13643 60.26161-6.97884 60.18282-6.72609 60.05666-6.56851 59.97786-6.41092 59.89908-6.15816 59.77249-6.00058 59.6937-5.84299 59.6149-5.59024 59.48874-5.43266 59.40994-5.27509 59.33116-5.02232 59.20456-4.86475 59.12576-4.70717 59.04697-4.4544 58.9208-4.29681 58.84201-4.13924 58.76323-3.88649 58.63664-3.7289 58.55785-3.57132 58.47905-3.31856 58.35289-3.16096 58.2741-3.00339 58.19531-2.75064 58.06871-2.59305 57.98991-2.43547 57.91112-2.18271 57.78496-2.02513 57.70618-1.86754 57.62738-1.61479 57.5008-1.45721 57.422-1.29962 57.3432-1.04686 57.21704-.88928 57.13826-.73169 57.05946-.47894 56.93286-.32137 56.85406-.16377 56.77528 .08896 56.64905 .24654 56.57033 .40413 56.4916 .65688 56.36537 .81445 56.28658 .97203 56.2078 1.2248 56.0812 1.38237 56.00241 1.53995 55.92361 1.79271 55.79745 1.9503 55.71866 2.10788 55.63988 2.36063 55.51329 2.51822 55.4345 2.6758 55.3557 2.92856 55.22954 3.08615 55.15074 3.24373 55.07196 3.49648 54.94536 3.65407 54.86656 3.81165 54.78777 4.0644 54.6616 4.22198 54.58282 4.37958 54.50403 4.63232 54.37744 4.7899 54.29865 4.9475 54.21985 5.20026 54.09369 5.35783 54.01491 5.51543 53.93611 5.76817 53.80951 5.92575 53.73071 6.08334 53.65193 6.3361 53.52576 6.49368 53.44698 6.65128 53.36818 6.90402 53.2416 7.0616 53.1628 7.21918 53.08401 7.47194 52.95784 7.62952 52.87906 7.7871 52.80026 8.03986 52.67366 8.19745 52.59486 8.35503 52.51608 8.60777 52.38992 8.76537 52.31113 8.92294 52.23233 9.1757 52.10574 9.3333 52.02695 9.49088 51.94817 9.74362 51.822 9.90121 51.74321 10.05879 51.66441 10.31155 51.53781 10.46913 51.45903 10.62672 51.38023 10.87947 51.25407 11.03705 51.17528 11.19464 51.09648 11.4474 50.9699 11.60498 50.89111 11.76257 50.81232 12.01532 50.68616 12.1729 50.60736 12.33049 50.52856 12.58325 50.40196 12.74083 50.32318 12.89842 50.24438 13.15117 50.11823 13.30875 50.03943 13.46632 49.96065 13.71909 49.83406 13.87666 49.75526 14.03424 49.67647 14.287 49.55031 14.4446 49.47151 14.60217 49.39273 14.85492 49.26614 15.01251 49.18735 15.17009 49.10855 15.42285 48.98239 15.58044 48.9036 15.73802 48.82481 15.99077 48.69821 16.14836 48.61942 16.30594 48.54062 16.5587 48.41446 16.71628 48.33568 16.87387 48.25688 17.12662 48.1303 17.2842 48.0515 17.44179 47.9727 17.69455 47.84654 17.85213 47.76776 18.00972 47.68896 18.26247 47.56236 18.42004 47.48357 18.57764 47.40479 18.83038 47.27861 18.98796 47.19983 19.14555 47.12103 19.39832 46.99445 19.5559 46.91565 19.71347 46.83687 19.96623 46.7107 20.12381 46.63191 20.28139 46.55312 20.53415 46.42651 20.69174 46.34772 20.84932 46.26894 21.10207 46.14278 21.25966 46.06398 21.41724 45.98518 21.67 45.8586 21.82759 45.7798 21.98517 45.70102 22.23792 45.57486 22.39551 45.49606 22.55309 45.41727 22.80585 45.29066 22.96342 45.21188 23.12102 45.13309 23.37376 45.00693 23.53134 44.92813 23.68893 44.84933 23.9417 44.72275 24.09927 44.64397 24.25687 44.56517 24.50961 44.43901 24.66719 44.36021 24.82478 44.28142 25.07753 44.15483 25.2351 44.07605 25.3927 43.99725 25.64546 43.8711 25.80304 43.7923 25.96062 43.71352 26.21338 43.58691 26.37096 43.50812 26.52853 43.42932 26.7813 43.30316 26.93889 43.22437 27.09647 43.14558 27.34921 43.019 27.5068 42.9402 27.66438 42.8614 27.91714 42.73524 28.07474 42.65645 28.23232 42.57767 28.48506 42.45107 28.64265 42.37227 28.80023 42.29347 29.053 42.16731 29.21057 42.08853 29.36816 42.00974 29.62091 41.88315 29.77849 41.80435 29.93608 41.72556 30.18884 41.5994 30.34642 41.52061 30.50401 41.44182 30.75676 41.31522 30.91434 41.23642 31.07193 41.15764 31.32468 41.03146 31.48225 40.95268 31.63985 40.87389 31.89261 40.7473 32.05019 40.6685 32.20776 40.58972 32.46053 40.46355 32.6181 40.38477 32.77568 40.30597 33.02844 40.17937 33.18604 40.10057 33.34361 40.02179 33.59636 39.89563 33.75395 39.81683 33.91153 39.73804 34.16429 39.61145 34.32188 39.53265 34.47946 39.45387 34.73221 39.32771 34.8898 39.24892 35.04738 39.17012 35.30014 39.04352 35.45772 38.96474 35.61531 38.88594 35.86806 38.75978 36.02563 38.68098 36.18323 38.60219 36.43599 38.4756 36.59357 38.39682 36.75116 38.31802 37.0039 38.19186 37.16148 38.11307 37.31908 38.03427 37.57182 37.90768 37.7294 37.8289 37.887 37.7501 38.13976 37.62395 38.29733 37.54515 38.45491 37.46637 38.70767 37.33977 38.86525 37.26097 39.02283 37.18217 39.27559 37.05602 39.43318 36.97722 39.59076 36.89844 39.8435 36.77185 40.0011 36.69305 40.15868 36.61426 40.41144 36.4881 40.56903 36.4093 40.72661 36.33052 40.97935 36.20392 41.13695 36.12512 41.29453 36.04633 41.54729 35.92017 41.70486 35.84138 41.86246 35.76259 42.1152 35.636 42.27278 35.5572 42.43037 35.47841 42.68312 35.35225 42.8407 35.27347 42.99829 35.19467 43.25105 35.06807 43.40863 34.98927 43.56622 34.91049 43.81897 34.78432 43.97655 34.70554 44.13414 34.62674 44.3869 34.50015 44.54448 34.42136 44.70206 34.34258 44.95482 34.2164 45.1124 34.13762 45.26997 34.05882 45.52274 33.93222 45.68033 33.85342 45.8379 33.77464 46.09065 33.64848 46.24825 33.56969 46.40582 33.49089 46.65858 33.3643 46.81618 33.2855 46.97375 33.20673 47.2265 33.08057 47.3841 33.00177 47.54167 32.92297 47.79443 32.79637 47.95201 32.71759 48.1096 32.6388 48.36235 32.51263 48.51993 32.43384 48.67752 32.35504 48.93027 32.22845 49.08784 32.14967 49.24544 32.07088 49.4982 31.94472 49.65578 31.86592 49.81337 31.78712 50.06612 31.66054 50.2237 31.58176 50.38129 31.50296 50.63405 31.3768 50.79163 31.298 50.9492 31.21922 51.20197 31.09262 51.35954 31.01382 51.51712 30.93503 51.76988 30.80887 51.92747 30.73007 52.08505 30.65129 52.3378 30.5247 52.49539 30.4459 52.65297 30.36711 52.90573 30.24095 53.06332 30.16216 53.2209 30.08337 53.47365 29.95677 53.63124 29.87798 53.78882 29.79918 54.04158 29.67302 54.19916 29.59424 54.35675 29.51544 54.6095 29.38885 54.76707 29.31006 54.92467 29.23126 55.17741 29.1051 55.33499 29.02632 55.49258 28.94753 55.74535 28.82092 55.90292 28.74213 56.06052 28.66335 56.31326 28.53717 56.47084 28.45839 56.62843 28.3796 56.8812 28.253 57.03877 28.17421 57.19635 28.09543 57.44911 27.96925 57.60669 27.89047 57.76427 27.81168 58.01703 27.68507 58.17462 27.60628 58.3322 27.5275 58.58495 27.40134 58.74254 27.32254 58.90012 27.24374 59.15288 27.11716 59.31047 27.03836 59.46805 26.95958 59.7208 26.83342 59.87839 26.75462 60.03596 26.67583 60.28873 26.54922 60.4463 26.47044 60.6039 26.39165 60.85664 26.26549 61.01422 26.18669 61.17181 26.1079 61.42456 25.98131 61.58214 25.90253 61.73973 25.82373 61.9925 25.69757 62.15007 25.61877 62.30766 25.53998 62.56041 25.41339 62.71799 25.33461 62.87558 25.25581 63.12834 25.12965 63.28592 25.05086 63.4435 24.97208 63.69626 24.84547 63.85384 24.76668 64.01141 24.68788 64.26418 24.56172 64.42177 24.48293 64.57935 24.40414 64.83209 24.27756 64.98969 24.19876 65.14726 24.11996 65.40002 23.9938 65.55762 23.91501 65.7152 23.83623 65.96794 23.70963 66.12553 23.63083 66.28311 23.55203 66.53586 23.42587 66.69344 23.34709 66.85103 23.2683 67.10379 23.14171 67.26137 23.06291 67.41896 22.98412 67.6717 22.85796 67.82928 22.77917 67.98688 22.70038 68.23964 22.57378 68.39722 22.49498 68.55481 22.4162 68.80756 22.29002 68.96513 22.21124 69.12273 22.13245 69.37549 22.00586 69.53307 21.92706 69.69064 21.84828 69.9434 21.7221 70.10098 21.64333 70.25856 21.56453 70.51132 21.43793 70.66891 21.35913 70.82649 21.28035 71.07924 21.15419 71.23683 21.0754 71.39441 20.9966 71.64717 20.87001 71.80476 20.79121 71.96234 20.71243 72.21509 20.58627 72.37268 20.50748 72.53026 20.42868 72.783 20.3021 72.94058 20.22331 73.09818 20.14452 73.35094 20.01836 73.50851 19.93956 73.6661 19.86076 73.91885 19.73416 74.07643 19.65538 74.23402 19.57658 74.48679 19.45042 74.64436 19.37163 74.80196 19.29283 75.0547 19.16624 75.21228 19.08746 75.36987 19.00867 75.62263 18.8825 75.78021 18.80371 75.93779 18.72493 76.19055 18.59833 76.34813 18.51953 76.5057 18.44073 76.75847 18.31458 76.91606 18.23578 77.07364 18.157 77.32639 18.03041 77.48398 17.95161 77.64156 17.87282 77.89432 17.74666 78.05191 17.66786 78.20949 17.58908 78.46223 17.46248 78.61983 17.38368 78.7774 17.30489 79.03015 17.17873 79.18773 17.09995 79.34532 17.02115 79.59808 16.89456 79.75566 16.81577 79.91325 16.73697 80.166 16.61081 80.32358 16.53203 80.48117 16.45323 80.73393 16.32663 80.89151 16.24783 81.0491 16.16905 81.30185 16.04288 81.45943 15.9641 81.61702 15.8853 81.86978 15.75871 82.02736 15.67992 82.18494 15.60114 82.4377 15.47496 82.59528 15.39618 82.75285 15.31738 83.00562 15.19078 83.16321 15.11198 83.32079 15.0332 83.57353 14.90704 83.73112 14.82825 83.8887 14.74945 84.14145 14.62286 84.29904 14.54407 84.45662 14.46529 84.70938 14.33913 84.86697 14.26033 85.02455 14.18153 85.2773 14.05495 85.43488 13.97617 85.59247 13.89737 85.84523 13.77121 86.0028 13.69241 86.1604 13.61362 86.41315 13.48701 86.57072 13.40823 86.72832 13.32944 86.98108 13.20328 87.13866 13.12448 87.29625 13.04568 87.549 12.9191 87.70657 12.84032 87.86417 12.76152 88.11693 12.63536 88.2745 12.55656 88.43208 12.47778 88.68484 12.35118 88.84242 12.27238 89 12.19359 89.25276 12.06743 89.41035 11.98863 89.56793 11.90985 89.82068 11.78326 89.97827 11.70447 90.13585 11.62567 90.3886 11.49951 90.54619 11.42072 90.70377 11.34193 90.95653 11.21533 91.11412 11.13654 91.2717 11.05774 91.52444 10.93158 91.68202 10.8528 91.83961 10.774 92.09238 10.64742 92.24995 10.56862 92.40755 10.48982 92.6603 10.36366 92.81787 10.28488 92.97546 10.20609 93.22823 10.07948 93.3858 10.00069 93.5434 9.9219 93.79614 9.79573 93.95372 9.71695 94.11131 9.63815 94.36407 9.51157 94.52165 9.43277 94.67923 9.35399 94.93199 9.22781 95.08957 9.14903 95.24715 9.07024 95.49991 8.94363 95.6575 8.86484 95.81508 8.78606 96.06783 8.6599 96.22542 8.5811 96.383 8.5023 96.63574 8.37572 96.79333 8.29692 96.95091 8.21814 97.20367 8.09198 97.36127 8.01318 97.51884 7.93439 97.77159 7.8078 97.92917 7.72902 98.08676 7.65022 98.33952 7.52406 98.4971 7.44527 98.6547 7.36647 98.90744 7.23987 99.06502 7.16109 99.22261 7.08229 99.47537 6.95613 99.63295 6.87733 99.79054 6.79854 100.04329 6.67195 100.20087 6.59317 100.35846 6.51437 100.61122 6.38821 100.7688 6.30942 100.92638 6.23064 101.17914 6.10403 101.33672 6.02524 101.4943 5.94644 101.74706 5.82028 101.90465 5.74149 102.06223 5.6627 102.31497 5.53612 102.47256 5.45732 102.63014 5.37852 102.88289 5.25237 103.04048 5.17357 103.19806 5.09479 103.45082 4.96819 103.60841 4.88939 103.76599 4.8106 104.01874 4.68443 104.17632 4.60565 104.33391 4.52686 104.58667 4.40027 104.74425 4.32147 104.90184 4.24268 105.15459 4.11652 105.31216 4.03773 105.46976 3.95894 105.72252 3.83234 105.8801 3.75354 106.03769 3.67476 106.29044 3.54858 106.44801 3.4698 106.6056 3.391 106.85837 3.26442 107.01595 3.18562 107.17352 3.10684 107.42628 2.98067 107.58386 2.90189 107.74144 2.82309 107.99419 2.6965 108.15178 2.6177 108.30936 2.53893 108.56212 2.41277 108.71971 2.33397 108.87729 2.25517 109.13004 2.12857 109.28763 2.04977 109.4452 1.971 109.69797 1.84483 109.85556 1.76604 110.01314 1.68724 110.26588 1.56065 110.42346 1.48187 110.58105 1.40308 110.83382 1.27692 110.9914 1.19812 111.14899 1.11932 111.40173 .99272 111.55931 .91394 111.7169 .83514 111.96967 .70898 112.12724 .63019 112.28484 .55139 112.53758 .4248 112.69516 .34602 112.85275 .26723 113.10551 .14107 113.26309 .06227 113.42067-.0165 113.67343-.14308 113.83101-.22188 113.98859-.30067 114.24133-.42683 114.39893-.50563 114.5565-.58441 114.80927-.711 114.96686-.7898 115.12444-.86859 115.37718-.99475 115.53477-1.07355 115.69235-1.15233 115.94511-1.27893 116.1027-1.35773 116.26028-1.43652 116.51303-1.56268 116.67061-1.64146 116.8282-1.72026 117.08096-1.84685 117.23854-1.92564 117.39613-2.00444 117.64888-2.1306 117.80646-2.20938 117.96405-2.28818 118.21681-2.41478 118.37439-2.49358 118.53198-2.57236 118.78473-2.69853 118.9423-2.77731 119.0999-2.85611 119.35266-2.9827 119.51024-3.0615 119.66782-3.14027 119.92058-3.26645 120.07816-3.34523 120.23573-3.42403 120.48848-3.55061 120.64607-3.62941 120.80365-3.70819 121.05641-3.83435 121.214-3.91315 121.37158-3.99194 121.62433-4.11855 121.78192-4.19734 121.9395-4.27612 122.19226-4.40228 122.34985-4.48108 122.50743-4.55988 122.76018-4.68646 122.91776-4.76524 123.07535-4.84404 123.32811-4.9702 123.48569-5.049 123.64328-5.12779 123.89603-5.2544 124.0536-5.33318 124.2112-5.41197 124.46396-5.53813 124.62154-5.61693 124.77913-5.69572 125.03188-5.82231 125.18945-5.9011 125.34705-5.97989 125.59981-6.10605 125.75739-6.18484 125.91496-6.26363 126.16772-6.39023 126.3253-6.46902 126.48288-6.54782 126.73563-6.67398 126.89322-6.75278 127.0508-6.83156 127.30356-6.95815 127.46115-7.03694 127.61873-7.11574 127.87148-7.2419 128.02907-7.3207 128.18665-7.39948 128.4394-7.52608 128.597-7.60487 128.75458-7.68367 129.00733-7.80983 129.1649-7.88861 129.3225-7.9674 129.57526-8.094 129.73284-8.17279 129.89043-8.25159 130.14318-8.37775 130.30075-8.45653 130.45835-8.53532 130.7111-8.66193 130.86869-8.74072 131.02628-8.8195 131.27902-8.94568 131.4366-9.02446 131.5942-9.10326 131.84694-9.22984 132.00452-9.30864 132.1621-9.38742 132.41487-9.5136 132.57245-9.59238 132.73003-9.67117 132.98278-9.79776 133.14037-9.87656 133.29795-9.95534 133.5507-10.0815 133.7083-10.1603 133.86588-10.23909 134.11862-10.36569 134.27622-10.44449 134.43379-10.52327 134.68656-10.64943 134.84415-10.72823 135.00173-10.80702 135.25447-10.93361 135.41205-11.01239 135.56964-11.09119 135.8224-11.21735 135.97998-11.29614 136.13758-11.37494 136.39032-11.50154 136.5479-11.58032 136.70549-11.65912 136.95825-11.78528 137.11583-11.86407 137.27342-11.94287 137.52617-12.06946 137.68375-12.14824 137.84134-12.22704 138.09409-12.3532 138.25167-12.43199 138.40924-12.51077 138.66202-12.63737 138.8196-12.71617 138.97718-12.79497 139.22992-12.92113 139.38751-12.99992 139.54509-13.0787 139.79785-13.20529 139.95545-13.28409 140.11302-13.36288 140.36577-13.48904 140.52336-13.56784 140.68094-13.64662 140.9337-13.77322 141.0913-13.85202 141.24887-13.93082 141.6592-14.13576 141.6592-14.13576"/>
</g>
</svg>
