<svg xmlns="http://www.w3.org/2000/svg" xmlns:xlink="http://www.w3.org/1999/xlink" version="1.1" width="304" height="146" viewBox="0 0 304 146">
<defs>
<path id="font_1_5" d="M.33399964 .30233766C.33999635 .32835389 .36299134 .42037965 .43299867 .42037965 .43798829 .42037965 .46199037 .42037965 .48298646 .40734864 .45498658 .402359 .43499757 .37734986 .43499757 .35334779 .43499757 .33735658 .44599916 .31835938 .47299195 .31835938 .49499513 .31835938 .5269928 .3363495 .5269928 .37635804 .5269928 .42837525 .46798707 .4423828 .43399049 .4423828 .37599183 .4423828 .34098817 .38935853 .32899476 .36634828 .3039856 .43237306 .25 .4423828 .22099304 .4423828 .116989139 .4423828 .05999756 .3133545 .05999756 .28834535 .05999756 .27833558 .069992069 .27833558 .07199097 .27833558 .07998657 .27833558 .08299255 .28033448 .084991458 .28933717 .11898804 .39535523 .18499756 .42037965 .21899414 .42037965 .23799134 .42037965 .272995 .4113617 .272995 .35334779 .272995 .32235719 .2559967 .25532533 .21899414 .11528015 .20298767 .053268434 .16799927 .011245728 .12399292 .011245728 .117996219 .011245728 .09498596 .011245728 .07398987 .024276734 .09899902 .029266358 .12098694 .05027771 .12098694 .07827759 .12098694 .105270389 .09899902 .11328125 .083999637 .11328125 .053985597 .11328125 .0289917 .08728027 .0289917 .055267335 .0289917 .009246826 .07899475-.0107421879 .12298584-.0107421879 .18899536-.0107421879 .22499085 .059280397 .22799683 .0652771 .23999024 .028274537 .27598573-.0107421879 .33599855-.0107421879 .43899537-.0107421879 .49598695 .118270877 .49598695 .14328003 .49598695 .1532898 .4869995 .1532898 .48399354 .1532898 .47499085 .1532898 .47299195 .14929199 .47099305 .14228821 .43798829 .03527832 .36999513 .011245728 .33799745 .011245728 .29899598 .011245728 .2829895 .043273927 .2829895 .07727051 .2829895 .09927368 .2889862 .121276859 .2999878 .16529846L.33399964 .30233766Z"/>
<path id="font_1_6" d="M.48599244 .38136292C.48999024 .39537049 .48999024 .39736939 .48999024 .40437318 .48999024 .42237855 .47599793 .43138124 .46099855 .43138124 .45098878 .43138124 .43499757 .42536927 .42599488 .41036988 .42399598 .405365 .41600038 .37435914 .4119873 .35635377 .40499879 .33035279 .397995 .30334474 .3919983 .27633668L.34700013 .09628296C.34298707 .08126831 .2999878 .011245728 .23399353 .011245728 .18299866 .011245728 .17199707 .055267335 .17199707 .0922699 .17199707 .1382904 .18899536 .20030213 .22299195 .28833009 .23899842 .3293457 .24299622 .3403473 .24299622 .36035157 .24299622 .405365 .21099854 .4423828 .16099549 .4423828 .06599426 .4423828 .0289917 .29733277 .0289917 .28833009 .0289917 .27833558 .038986207 .27833558 .040985109 .27833558 .050994874 .27833558 .051986696 .28033448 .056991579 .29634095 .083999637 .3903656 .12399292 .42037965 .1579895 .42037965 .1659851 .42037965 .18299866 .42037965 .18299866 .3883667 .18299866 .36335755 .17298889 .3373413 .1659851 .31834413 .12599182 .21231079 .10798645 .1552887 .10798645 .10827637 .10798645 .019256592 .17098999-.0107421879 .22999573-.0107421879 .2689972-.0107421879 .30299378 .0062561037 .33099366 .03425598 .31799317-.017745972 .30599977-.06674194 .2659912-.11973572 .23999024-.15385437 .20199585-.18309021 .1559906-.18309021 .14199829-.18309021 .09700012-.18005371 .07998657-.14074707 .09599304-.14074707 .10899353-.14074707 .12298584-.1287384 .1329956-.11973572 .14299011-.10673523 .14299011-.08773804 .14299011-.056747438 .115997318-.052734376 .10598755-.052734376 .08299255-.052734376 .049987794-.068740848 .049987794-.11773682 .049987794-.16796875 .09399414-.20507813 .1559906-.20507813 .25898744-.20507813 .3619995-.11373901 .3899994-.00074768069L.48599244 .38136292Z"/>
<path id="font_2_6" d="M.68699648 .32714845C.70199587 .32714845 .72099307 .32714845 .72099307 .34713746 .72099307 .36714173 .70199587 .36714173 .6879883 .36714173H.08898926C.07499695 .36714173 .055999757 .36714173 .055999757 .34713746 .055999757 .32714845 .07499695 .32714845 .08999634 .32714845H.68699648M.6879883 .13284302C.70199587 .13284302 .72099307 .13284302 .72099307 .15284729 .72099307 .17285156 .70199587 .17285156 .68699648 .17285156H.08999634C.07499695 .17285156 .055999757 .17285156 .055999757 .15284729 .055999757 .13284302 .07499695 .13284302 .08898926 .13284302H.6879883Z"/>
<path id="font_1_2" d="M.36698915 .3996582H.45298768C.47299195 .3996582 .48298646 .3996582 .48298646 .41966249 .48298646 .43066407 .47299195 .43066407 .45599366 .43066407H.37298585L.3939972 .5449524C.397995 .5660095 .4119873 .6370239 .41799928 .6490326 .4269867 .66804507 .44400025 .68307498 .46499635 .68307498 .46899415 .68307498 .49499513 .68307498 .5139923 .66503909 .46998597 .661026 .45999146 .6260376 .45999146 .6110382 .45999146 .58802798 .47799684 .57603457 .49699403 .57603457 .522995 .57603457 .5519867 .5980377 .5519867 .6360321 .5519867 .6820679 .5059967 .7050781 .46499635 .7050781 .43099977 .7050781 .36799623 .68707278 .33799745 .58802798 .33198548 .56700137 .32899476 .5569763 .30499269 .43066407H.23599243C.21699524 .43066407 .20599365 .43066407 .20599365 .4116516 .20599365 .3996582 .21499634 .3996582 .23399353 .3996582H.2999878L.22499085 .0048828127C.20698548-.09207153 .18998719-.18309021 .13798523-.18309021 .13398743-.18309021 .10899353-.18309021 .08999634-.16506958 .13598633-.1620636 .14498902-.12606812 .14498902-.111068729 .14498902-.08807373 .1269989-.07606506 .10798645-.07606506 .08198547-.07606506 .052993776-.09806824 .052993776-.13606262 .052993776-.18109131 .09700012-.20507813 .13798523-.20507813 .19299317-.20507813 .23298645-.14607239 .25099183-.108062747 .2829895-.04508972 .30599977 .07583618 .30699159 .082839969L.36698915 .3996582Z"/>
<path id="font_2_1" d="M.33099366-.2400055C.33099366-.23701477 .33099366-.23500061 .31399537-.21800232 .18899536-.0920105 .15699768 .09700012 .15699768 .25 .15699768 .42399598 .19499207 .59799197 .31799317 .72299197 .33099366 .73498538 .33099366 .7369995 .33099366 .73999026 .33099366 .746994 .32699586 .75 .32099916 .75 .31098939 .75 .22099304 .6819916 .1619873 .5549927 .11099243 .44499208 .09899902 .33399964 .09899902 .25 .09899902 .17199707 .10998535 .050994874 .16499329-.06201172 .22499085-.18501282 .31098939-.25 .32099916-.25 .32699586-.25 .33099366-.24700928 .33099366-.2400055Z"/>
<path id="font_2_2" d="M.2889862 .25C.2889862 .32798768 .27799989 .44898988 .22299195 .56199648 .16299439 .68499758 .07699585 .75 .066986087 .75 .06098938 .75 .056991579 .74598696 .056991579 .73999026 .056991579 .7369995 .056991579 .73498538 .07598877 .71699526 .17399597 .6179962 .23098755 .45899964 .23098755 .25 .23098755 .07899475 .19400025-.09700012 .069992069-.2230072 .056991579-.23500061 .056991579-.23701477 .056991579-.2400055 .056991579-.2460022 .06098938-.25 .066986087-.25 .07699585-.25 .16699219-.18200684 .22599793-.055007936 .2769928 .054992677 .2889862 .16600037 .2889862 .25Z"/>
<path id="font_1_3" d="M.47099305 .3773346C.47200013 .3833313 .47399903 .38833619 .47399903 .39535523 .47399903 .41236878 .46199037 .42237855 .44499208 .42237855 .43499757 .42237855 .4079895 .41537477 .4039917 .3793335 .38598634 .41636659 .35099793 .4423828 .31098939 .4423828 .19699097 .4423828 .07299805 .30226136 .07299805 .15812683 .07299805 .059020997 .13398743 0 .20599365 0 .2649994 0 .31199647 .04701233 .32199098 .058029176L.32299806 .057022096C.3019867-.031982423 .2899933-.07295227 .2899933-.07495117 .28599549-.08395386 .2519989-.18309021 .1459961-.18309021 .1269989-.18309021 .09399414-.18206787 .06599426-.17297364 .09599304-.16394043 .10699463-.13793946 .10699463-.12094116 .10699463-.10494995 .09599304-.0859375 .068984989-.0859375 .04699707-.0859375 .01499939-.10394287 .01499939-.14395142 .01499939-.18508911 .051986696-.20507813 .147995-.20507813 .272995-.20507813 .34498597-.12693787 .3600006-.06695557L.47099305 .3773346M.34098817 .12809754C.33499146 .10206604 .31199647 .077041629 .2899933 .058029176 .2689972 .040008546 .23799134 .021987915 .20899964 .021987915 .15899658 .021987915 .14399719 .074035648 .14399719 .11407471 .14399719 .16212464 .17298889 .28024293 .19999695 .33128358 .22698975 .38034059 .269989 .42037965 .31199647 .42037965 .37799073 .42037965 .3919983 .33929444 .3919983 .33428956 .3919983 .32928468 .3899994 .3232727 .3889923 .3192749L.34098817 .12809754Z"/>
<path id="font_1_4" d="M.2869873 .68333438C.2869873 .6843262 .2869873 .69433596 .27398683 .69433596 .25099183 .69433596 .17799378 .6863251 .1519928 .6843262 .14399719 .68333438 .1329956 .6823273 .1329956 .6643219 .1329956 .6523285 .14199829 .6523285 .15699768 .6523285 .20498657 .6523285 .20698548 .6453247 .20698548 .6353302L.20399475 .6153412 .05899048 .039260866C.054992677 .025253296 .054992677 .023254395 .054992677 .01725769 .054992677-.0057525637 .07499695-.0107421879 .083999637-.0107421879 .099990848-.0107421879 .115997318 .0012512207 .12098694 .015258789L.13999939 .091278079 .1619873 .18130493C.16799927 .2033081 .17399597 .22531128 .1789856 .24832154 .18099976 .25431825 .18899536 .28733827 .18998719 .29333497 .19299317 .30233766 .22399903 .35835267 .2579956 .38536073 .27999879 .4013672 .31098939 .42037965 .35398866 .42037965 .39698792 .42037965 .4079895 .3863678 .4079895 .35035707 .4079895 .29634095 .36999513 .18730164 .34599305 .12628174 .33799745 .103271488 .33299256 .091278079 .33299256 .0712738 .33299256 .024261475 .36799623-.0107421879 .4149933-.0107421879 .5089874-.0107421879 .54599 .13528443 .54599 .14329529 .54599 .1532898 .5369873 .1532898 .5339966 .1532898 .5239868 .1532898 .5239868 .15029907 .5189972 .13528443 .5039978 .08227539 .47200013 .011245728 .4169922 .011245728 .3999939 .011245728 .3929901 .021255494 .3929901 .044265748 .3929901 .0692749 .4019928 .09327698 .41099549 .11528015 .4269867 .15829468 .47200013 .2773285 .47200013 .3353424 .47200013 .4003601 .43199159 .4423828 .35699464 .4423828 .2939911 .4423828 .24598694 .41137696 .20899964 .36535646L.2869873 .68333438Z"/>
<path id="font_3_2" d="M.44400025 .24998474C.44400025 .35688783 .35499574 .44381715 .25 .44381715 .14199829 .44381715 .054992677 .35488893 .054992677 .24998474 .054992677 .14407349 .14199829 .056137086 .25 .056137086 .35499574 .056137086 .44400025 .14308167 .44400025 .24998474Z"/>
<path id="font_2_3" d="M.45999146 .31976319C.45999146 .39982606 .45498658 .47988893 .41999818 .5539398 .37399293 .65000918 .2919922 .6660156 .25 .6660156 .18998719 .6660156 .116989139 .64001467 .07598877 .54693606 .04399109 .47789 .038986207 .39982606 .038986207 .31976319 .038986207 .24472046 .042999269 .15464783 .083999637 .07859802 .1269989-.0024719239 .19999695-.022460938 .24899292-.022460938 .30299378-.022460938 .3789978-.0014648438 .4229889 .09359741 .45498658 .16265869 .45999146 .2407074 .45999146 .31976319M.24899292-.00047302247C.20999146-.00047302247 .15098572 .024551392 .1329956 .12062073 .12199402 .18066406 .12199402 .2727356 .12199402 .3317871 .12199402 .39582826 .12199402 .46188355 .12998963 .5159149 .14898682 .63500979 .22399903 .64401248 .24899292 .64401248 .28199769 .64401248 .34799195 .6259918 .36698915 .52693179 .3769989 .47088624 .3769989 .39482118 .3769989 .3317871 .3769989 .25672914 .3769989 .18867493 .3659973 .12461853 .35099793 .029556275 .2939911-.00047302247 .24899292-.00047302247Z"/>
<path id="font_1_1" d="M.20298767 .0009918213C.20298767 .066986087 .17799378 .10598755 .13899231 .10598755 .10598755 .10598755 .085998538 .08099365 .085998538 .052993776 .085998538 .025985718 .10598755 0 .13899231 0 .15098572 0 .1639862 .0039978029 .17399597 .0129852299 .1769867 .01499939 .17799378 .015991211 .1789856 .015991211 .17999268 .015991211 .18099976 .01499939 .18099976 .0009918213 .18099976-.07316589 .1459961-.13328552 .11299133-.16635132 .101989749-.17736817 .101989749-.17936707 .101989749-.18237305 .101989749-.18936157 .10699463-.19335938 .11199951-.19335938 .12298584-.19335938 .20298767-.116256717 .20298767 .0009918213Z"/>
<path id="font_3_1" d="M.6589966 .23046875C.6759949 .23046875 .69400027 .23046875 .69400027 .25045777 .69400027 .27046205 .6759949 .27046205 .6589966 .27046205H.117996219C.100997928 .27046205 .08299255 .27046205 .08299255 .25045777 .08299255 .23046875 .100997928 .23046875 .117996219 .23046875H.6589966Z"/>
<path id="font_2_4" d="M.1269989 .07699585 .23298645 .18003845C.3889923 .31811524 .44898988 .3721466 .44898988 .47216798 .44898988 .5860901 .35899354 .6660156 .23699951 .6660156 .12399292 .6660156 .049987794 .57411196 .049987794 .48516847 .049987794 .4291687 .099990848 .4291687 .102996829 .4291687 .11999512 .4291687 .15499878 .44117738 .15499878 .48217774 .15499878 .5081787 .13699341 .5341797 .101989749 .5341797 .09399414 .5341797 .09199524 .5341797 .08898926 .5331726 .11199951 .59806826 .1659851 .63500979 .22399903 .63500979 .31498719 .63500979 .35798646 .5541382 .35798646 .47216798 .35798646 .39215089 .30799867 .31311036 .25299073 .25108338L.06098938 .036987306C.049987794 .025985718 .049987794 .023986817 .049987794 0H.42099L.44898988 .17404175H.42399598C.4189911 .14402771 .4119873 .1000061 .4019928 .084991458 .394989 .07699585 .32899476 .07699585 .30699159 .07699585H.1269989Z"/>
<path id="font_2_5" d="M.2899933 .35191346C.37199403 .37893678 .42999269 .4490509 .42999269 .52809146 .42999269 .6100464 .34199525 .6660156 .24598694 .6660156 .14498902 .6660156 .068984989 .60606387 .068984989 .53009036 .068984989 .49710084 .09098816 .47808839 .11999512 .47808839 .15098572 .47808839 .17098999 .50009158 .17098999 .5290985 .17098999 .57910159 .12399292 .57910159 .10899353 .57910159 .13999939 .62802127 .20599365 .64100649 .24198914 .64100649 .2829895 .64100649 .33799745 .6190338 .33799745 .5290985 .33799745 .51708987 .33599855 .45906068 .30999757 .4149933 .27999879 .36691285 .24598694 .36390687 .22099304 .36291505 .21299744 .36190797 .18899536 .35990907 .18199158 .35990907 .17399597 .35890199 .16699219 .35791017 .16699219 .3479004 .16699219 .33691407 .17399597 .33691407 .19099427 .33691407H.23498535C.31698609 .33691407 .35398866 .2686615 .35398866 .17037964 .35398866 .034469606 .2849884 .0055389406 .24099732 .0055389406 .19799805 .0055389406 .12298584 .022491456 .08799744 .08137512 .12298584 .07637024 .1539917 .09837341 .1539917 .1363678 .1539917 .17237854 .1269989 .19238281 .09799194 .19238281 .07398987 .19238281 .041992189 .17837525 .041992189 .1343689 .041992189 .043441774 .1349945-.022460938 .24398804-.022460938 .3659973-.022460938 .45700074 .06838989 .45700074 .17037964 .45700074 .252594 .3939972 .33088685 .2899933 .35191346Z"/>
</defs>
<path transform="matrix(1.00006,0,0,-1.00005,120.556148,131.1259)" stroke-width=".19925" stroke-linecap="butt" stroke-miterlimit="10" stroke-linejoin="miter" fill="none" stroke="#929292" d="M-113.38724 0H141.73404M-113.38724 28.3468H141.73404M-113.38724 56.69362H141.73404M-113.38724 85.04042H141.73404M-113.38724 113.37727H141.73404M-113.38724 0V113.38724M-85.04042 0V113.38724M-56.69362 0V113.38724M-28.3468 0V113.38724M0 0V113.38724M28.3468 0V113.38724M56.69362 0V113.38724M85.04042 0V113.38724M113.38724 0V113.38724M141.72409 0V113.38724M141.73404 113.38724"/>
<path transform="matrix(1.00006,0,0,-1.00005,120.556148,131.1259)" stroke-width="1.19553" stroke-linecap="butt" stroke-miterlimit="10" stroke-linejoin="miter" fill="none" stroke="#000000" d="M-119.0565 0H146.4469"/>
<path transform="matrix(1.00006,0,0,-1.00005,267.0118,131.1259)" stroke-width=".9564" stroke-linecap="round" stroke-linejoin="round" fill="none" stroke="#000000" d="M-1.91284 2.55046C-1.75343 1.59402 0 .15938 .4782 0 0-.15938-1.75343-1.59402-1.91284-2.55046"/>
<use data-text="x" xlink:href="#font_1_5" transform="matrix(9.963197,0,0,-9.963098,271.88725,133.27101)"/>
<path transform="matrix(1.00006,0,0,-1.00005,120.556148,131.1259)" stroke-width="1.19553" stroke-linecap="butt" stroke-miterlimit="10" stroke-linejoin="miter" fill="none" stroke="#000000" d="M0-5.66927V118.10008"/>
<path transform="matrix(0,-1.00005,-1.00006,-0,120.556148,13.01992)" stroke-width=".9564" stroke-linecap="round" stroke-linejoin="round" fill="none" stroke="#000000" d="M-1.91284 2.55046C-1.75343 1.59402 0 .15938 .4782 0 0-.15938-1.75343-1.59402-1.91284-2.55046"/>
<use data-text="y" xlink:href="#font_1_6" transform="matrix(9.963197,0,0,-9.963098,117.93499,6.207657)"/>
<path transform="matrix(1.00006,0,0,-1.00005,120.556148,131.1259)" stroke-width=".79701" stroke-linecap="butt" stroke-miterlimit="10" stroke-linejoin="miter" fill="none" stroke="#0000ff" d="M-56.69362 113.38724C-56.69362 113.38724-56.52954 112.73172-56.46652 112.48064-56.40352 112.22954-56.30244 111.82756-56.23944 111.57748-56.17642 111.32741-56.07536 110.92723-56.01234 110.67824-55.94934 110.42924-55.8483 110.03087-55.78528 109.78288-55.72226 109.53491-55.6212 109.138-55.5582 108.89099-55.49518 108.64397-55.39412 108.24854-55.3311 108.00255-55.2681 107.75658-55.16704 107.36298-55.10403 107.11801-55.04102 106.87305-54.93996 106.48094-54.87694 106.23694-54.81393 105.99294-54.71288 105.60231-54.64986 105.35933-54.58685 105.11633-54.4858 104.72755-54.42279 104.4856-54.35977 104.24362-54.25871 103.85628-54.1957 103.61533-54.13269 103.37437-54.03163 102.98888-53.96861 102.74895-53.9056 102.50902-53.80455 102.12495-53.74155 101.88603-53.67853 101.64713-53.57747 101.26491-53.51445 101.02702-53.45145 100.78914-53.35037 100.40837-53.28737 100.17145-53.22435 99.93452-53.12329 99.55525-53.06027 99.31935-52.99727 99.08345-52.89622 98.70604-52.8332 98.47116-52.77019 98.23627-52.66913 97.86026-52.60612 97.6264-52.5431 97.39253-52.44205 97.0184-52.37903 96.78555-52.31602 96.5527-52.21497 96.18005-52.15196 95.94817-52.08894 95.71626-51.98788 95.3451-51.92487 95.11423-51.86186 94.88335-51.7608 94.51402-51.69778 94.28418-51.63478 94.05434-51.53372 93.68643-51.47072 93.45761-51.4077 93.22879-51.30664 92.86272-51.24362 92.63492-51.18062 92.40712-51.07956 92.04247-51.01654 91.81569-50.95352 91.5889-50.85248 91.22618-50.78947 91.00035-50.72646 90.77454-50.6254 90.41286-50.56238 90.18805-50.49937 89.96324-50.3983 89.60385-50.3353 89.38007-50.27228 89.15628-50.17122 88.79788-50.1082 88.5751-50.0452 88.35234-49.94415 87.99623-49.88113 87.77448-49.81812 87.55273-49.71706 87.19766-49.65405 86.97688-49.59103 86.7561-49.48997 86.40288-49.42696 86.18318-49.36395 85.96349-49.2629 85.6121-49.19989 85.39337-49.13687 85.17462-49.03581 84.82436-48.9728 84.60657-48.90979 84.3888-48.80873 84.04039-48.74571 83.82368-48.68271 83.60698-48.58165 83.26038-48.51865 83.0447-48.45563 82.82901-48.35457 82.48381-48.29155 82.26915-48.22855 82.05447-48.12749 81.71118-48.06447 81.4975-48.00145 81.2838-47.9004 80.94156-47.8374 80.72888-47.77438 80.5162-47.67332 80.17624-47.6103 79.96458-47.5473 79.75293-47.44623 79.41402-47.38322 79.20332-47.3202 78.99261-47.21916 78.65556-47.15614 78.44594-47.09314 78.23631-46.99208 77.90106-46.92906 77.69246-46.86604 77.48386-46.76498 77.15009-46.70198 76.94243-46.63896 76.73479-46.5379 76.40251-46.47488 76.19588-46.41188 75.98926-46.31082 75.65881-46.24782 75.4532-46.1848 75.24759-46.08374 74.91864-46.02072 74.714-45.95772 74.50937-45.85666 74.18187-45.79364 73.97826-45.73064 73.77464-45.62958 73.44894-45.56657 73.24641-45.50356 73.04387-45.4025 72.71997-45.33948 72.51845-45.27647 72.31693-45.17542 71.99449-45.1124 71.79393-45.04938 71.59337-44.94833 71.2725-44.88533 71.0729-44.82231 70.8733-44.72125 70.5539-44.65823 70.35532-44.59523 70.15672-44.49416 69.83913-44.43115 69.64162-44.36813 69.44412-44.26709 69.1283-44.20407 68.93182-44.14107 68.73535-44.04001 68.421-43.97699 68.2255-43.91397 68.02998-43.81291 67.71718-43.74991 67.52261-43.68689 67.32806-43.58583 67.01668-43.52281 66.82321-43.45981 66.62973-43.35875 66.32059-43.29575 66.12813-43.23273 65.93567-43.13167 65.62756-43.06865 65.43605-43.00565 65.24455-42.90459 64.93837-42.84157 64.7479-42.77856 64.55742-42.6775 64.25264-42.6145 64.06319-42.55148 63.87372-42.45042 63.5708-42.3874 63.38237-42.3244 63.19395-42.22334 62.89243-42.16032 62.70502-42.0973 62.51761-41.99626 62.21796-41.93326 62.03156-41.87024 61.84517-41.76918 61.547-41.70616 61.36156-41.64316 61.17613-41.54208 60.87943-41.47908 60.69502-41.41606 60.5106-41.31502 60.21576-41.252 60.03236-41.189 59.84897-41.08794 59.55562-41.02492 59.37317-40.9619 59.19073-40.86084 58.89886-40.79784 58.71745-40.73482 58.53603-40.63376 58.24596-40.57074 58.06563-40.50774 57.88528-40.40668 57.59697-40.34367 57.41766-40.28065 57.23836-40.1796 56.95154-40.11658 56.7732-40.05357 56.59485-39.95251 56.30951-39.8895 56.13217-39.82649 55.95483-39.72543 55.67136-39.66243 55.49504-39.59941 55.31873-39.49835 55.03673-39.43533 54.86137-39.37233 54.68602-39.27127 54.4055-39.20825 54.23117-39.14523 54.05682-39.04419 53.77817-38.98119 53.60484-38.91817 53.43152-38.81711 53.15428-38.75409 52.98201-38.69109 52.80972-38.59001 52.53432-38.52701 52.36304-38.46399 52.19176-38.36295 51.91777-38.29993 51.74753-38.23692 51.57729-38.13586 51.30515-38.07285 51.13593-38.00983 50.96669-37.90877 50.69604-37.84576 50.52779-37.78275 50.35951-37.6817 50.09035-37.61868 49.9231-37.55568 49.75584-37.4546 49.48853-37.3916 49.3223-37.32858 49.15607-37.22752 48.89024-37.1645 48.72496-37.1015 48.5597-37.00044 48.29533-36.93742 48.13109-36.87442 47.96683-36.77336 47.70425-36.71036 47.54109-36.64734 47.37793-36.54628 47.11716-36.48326 46.95502-36.42026 46.79286-36.31918 46.53357-36.25618 46.37238-36.19316 46.2112-36.09212 45.95338-36.02911 45.79321-35.9661 45.63304-35.86504 45.37709-35.80202 45.21794-35.73901 45.05879-35.63794 44.8043-35.57494 44.64612-35.51192 44.48793-35.41087 44.23494-35.34785 44.07776-35.28485 43.9206-35.18379 43.66945-35.12077 43.5133-35.05775 43.35715-34.9567 43.10742-34.89369 42.9523-34.83067 42.79718-34.72963 42.5493-34.66661 42.39519-34.6036 42.24109-34.50253 41.99464-34.43953 41.84155-34.37651 41.68846-34.27545 41.44385-34.21243 41.2918-34.14943 41.13972-34.04837 40.89659-33.98535 40.74548-33.92235 40.59438-33.82129 40.35275-33.75829 40.20265-33.69527 40.05257-33.59421 39.81279-33.53119 39.66371-33.46819 39.51465-33.36711 39.27635-33.30411 39.12825-33.24109 38.98013-33.14005 38.74332-33.07704 38.59622-33.01402 38.44913-32.91296 38.21408-32.84995 38.06808-32.78694 37.92209-32.68587 37.68883-32.62286 37.54385-32.55984 37.39886-32.4588 37.1671-32.39578 37.02307-32.33278 36.87904-32.23172 36.64883-32.1687 36.50577-32.10568 36.3627-32.00462 36.1339-31.94162 35.99191-31.8786 35.84991-31.77756 35.62334-31.71454 35.48236-31.65154 35.3414-31.55046 35.11588-31.48746 34.97586-31.42444 34.83586-31.32338 34.61224-31.26036 34.47327-31.19736 34.33429-31.0963 34.11208-31.03328 33.97412-30.97028 33.83617-30.86922 33.6158-30.80621 33.47885-30.7432 33.34192-30.64214 33.12305-30.57912 32.98708-30.51611 32.85109-30.41504 32.63368-30.35204 32.49872-30.28902 32.36375-30.18797 32.14816-30.12497 32.01428-30.06195 31.8804-29.96089 31.66666-29.89787 31.53374-29.83487 31.4008-29.7338 31.18811-29.67079 31.0562-29.60777 30.9243-29.50673 30.7139-29.44371 30.58301-29.3807 30.45212-29.27965 30.24277-29.21663 30.11285-29.15361 29.98293-29.05255 29.7754-28.98955 29.64658-28.92653 29.51773-28.82549 29.31207-28.76247 29.18419-28.69946 29.0563-28.59839 28.85168-28.53539 28.72482-28.47237 28.59798-28.3713 28.39565-28.30829 28.2698-28.24529 28.14397-28.14424 27.94269-28.08122 27.81781-28.01822 27.69292-27.91714 27.4935-27.85414 27.36969-27.79112 27.2459-27.69006 27.04826-27.62704 26.92548-27.56404 26.80269-27.46297 26.60652-27.39996 26.48471-27.33694 26.3629-27.2359 26.16823-27.1729 26.04742-27.10988 25.92664-27.00882 25.7338-26.9458 25.61401-26.8828 25.49425-26.78172 25.3029-26.71872 25.18408-26.6557 25.06526-26.55466 24.8754-26.49164 24.7576-26.42863 24.6398-26.32758 24.45178-26.26456 24.335-26.20154 24.21822-26.10048 24.03165-26.03748 23.91588-25.97446 23.80013-25.87341 23.61539-25.8104 23.50064-25.74739 23.3859-25.64632 23.20259-25.58331 23.08887-25.5203 22.97514-25.41924 22.79367-25.35622 22.68098-25.29321 22.56828-25.19217 22.38829-25.12915 22.27657-25.06615 22.16483-24.96507 21.98631-24.90207 21.8756-24.83905 21.76488-24.73799 21.58821-24.67497 21.47852-24.61197 21.36882-24.5109 21.19359-24.44789 21.08492-24.38487 20.97623-24.28383 20.80286-24.22083 20.69519-24.1578 20.58752-24.05675 20.41563-23.99373 20.30894-23.93073 20.20224-23.82965 20.0318-23.76665 19.92613-23.70363 19.82047-23.60258 19.65184-23.53957 19.54724-23.47656 19.44266-23.3755 19.27586-23.31248 19.17223-23.24947 19.06859-23.1484 18.90292-23.0854 18.80025-23.02238 18.69757-22.92134 18.53375-22.85832 18.43216-22.79532 18.33057-22.69424 18.16855-22.63124 18.06796-22.56822 17.96739-22.46716 17.80684-22.40414 17.70723-22.34114 17.6076-22.2401 17.44855-22.17708 17.34995-22.11407 17.25134-22.013 17.09415-21.95 16.99657-21.88698 16.89899-21.78592 16.7432-21.7229 16.64665-21.6599 16.5501-21.55882 16.39615-21.49582 16.30061-21.4328 16.2051-21.33176 16.05261-21.26875 15.95804-21.20573 15.86346-21.10468 15.71248-21.04166 15.61893-20.97865 15.52538-20.87758 15.37625-20.81458 15.2837-20.75156 15.19118-20.65051 15.04347-20.5875 14.95197-20.52449 14.86044-20.42343 14.7146-20.36041 14.6241-20.2974 14.5336-20.19633 14.38922-20.13333 14.29968-20.07031 14.21014-19.96927 14.06725-19.90625 13.97874-19.84325 13.89024-19.74217 13.74918-19.67917 13.6617-19.61615 13.5742-19.51509 13.43457-19.45207 13.3481-19.38907 13.26164-19.28802 13.12386-19.225 13.0384-19.16199 12.95296-19.06093 12.81667-18.99792 12.73216-18.9349 12.64767-18.83385 12.51288-18.77083 12.4294-18.70782 12.34593-18.60677 12.2129-18.54376 12.13052-18.48074 12.04813-18.37968 11.91696-18.31668 11.83553-18.25366 11.75409-18.1526 11.62402-18.08958 11.54355-18.02658 11.46309-17.9255 11.33487-17.8625 11.2555-17.79948 11.1761-17.69844 11.04967-17.63542 10.9713-17.57242 10.89294-17.47136 10.768-17.40834 10.6906-17.34532 10.61319-17.24426 10.48972-17.18126 10.41333-17.11824 10.33694-17.0172 10.21535-16.95418 10.13997-16.89117 10.0646-16.7901 9.94443-16.7271 9.87007-16.66408 9.79572-16.56302 9.67738-16.5 9.60405-16.437 9.53072-16.33595 9.41388-16.27293 9.3415-16.20992 9.26912-16.10886 9.15376-16.04585 9.08241-15.98283 9.01108-15.88177 8.89748-15.81876 8.82722-15.75575 8.75696-15.6547 8.64522-15.59169 8.57591-15.52867 8.5066-15.42761 8.39598-15.36461 8.32764-15.30159 8.2593-15.20053 8.15051-15.13751 8.08325-15.07451 8.01598-14.97343 7.90901-14.91043 7.84277-14.84741 7.77652-14.74637 7.67104-14.68335 7.60574-14.62035 7.54045-14.51929 7.43643-14.45627 7.37216-14.39325 7.30789-14.29219 7.20573-14.22919 7.14249-14.16617 7.07925-14.06512 6.97855-14.0021 6.91628-13.9391 6.85399-13.83803 6.75478-13.77502 6.69351-13.712 6.63225-13.61095 6.53484-13.54793 6.47466-13.48492 6.41447-13.38388 6.31885-13.32086 6.25967-13.25784 6.20052-13.15678 6.10637-13.09378 6.04816-13.03076 5.98994-12.9297 5.89735-12.86668 5.8401-12.80368 5.78285-12.70262 5.69176-12.63962 5.63551-12.5766 5.57928-12.47554 5.48996-12.41254 5.43481-12.34952 5.37968-12.24846 5.29213-12.18544 5.23802-12.12244 5.1839-12.02138 5.09784-11.95837 5.04468-11.89536 4.99152-11.7943 4.90694-11.73128 4.8548-11.66827 4.80264-11.56721 4.71992-11.5042 4.6688-11.44118 4.61768-11.34012 4.53642-11.27711 4.48627-11.2141 4.4361-11.11305 4.35635-11.05003 4.3072-10.98703 4.25806-10.88596 4.18016-10.82295 4.13203-10.75993 4.0839-10.65887 4.00742-10.59586 3.96031-10.53285 3.9132-10.43181 3.83855-10.36879 3.79248-10.30577 3.7464-10.20471 3.67317-10.14171 3.62811-10.07869 3.58305-9.97763 3.51167-9.91461 3.46764-9.85161 3.4236-9.75055 3.35371-9.68755 3.31064-9.62453 3.26755-9.52347 3.19914-9.46046 3.15707-9.39745 3.11502-9.29639 3.04846-9.23337 3.00742-9.17036 2.96637-9.0693 2.90125-9.0063 2.86122-8.94328 2.8212-8.84222 2.75792-8.7792 2.71892-8.7162 2.6799-8.61514 2.6181-8.55212 2.58008-8.4891 2.54204-8.38805 2.4817-8.32504 2.44469-8.26202 2.40767-8.16098 2.3492-8.09796 2.3132-8.03496 2.2772-7.93388 2.22015-7.87088 2.18517-7.80786 2.15019-7.7068 2.09499-7.64378 2.06104-7.58078 2.02707-7.47974 1.97336-7.41672 1.94035-7.3537 1.90735-7.25264 1.85512-7.18964 1.82314-7.12662 1.79115-7.02556 1.7407-6.96254 1.70981-6.89954 1.6789-6.79848 1.63031-6.73547 1.60039-6.67245 1.57045-6.5714 1.52295-6.50839 1.49397-6.44537 1.465-6.34431 1.41936-6.2813 1.39146-6.21829 1.36357-6.11723 1.31972-6.05423 1.29285-5.99121 1.26596-5.89015 1.2236-5.82713 1.19768-5.76413 1.17177-5.66307 1.13089-5.60005 1.10599-5.53703 1.08109-5.43597 1.04205-5.37297 1.01817-5.30995 .9943-5.20891 .9567-5.14589 .93384-5.08289 .91096-4.98181 .87523-4.91881 .85338-4.85579 .83154-4.75473 .79726-4.69171 .77638-4.62871 .75551-4.52766 .7227-4.46465 .70285-4.40163 .683-4.30057 .65205-4.23756 .63321-4.17455 .61438-4.07349 .58485-4.01047 .56705-3.94746 .54922-3.8464 .52156-3.7834 .50476-3.72038 .48796-3.61932 .46176-3.55632 .44592-3.4933 .43008-3.39224 .40538-3.32922 .39056-3.26622 .37573-3.16516 .35281-3.10216 .33908-3.03914 .32536-2.93808 .30429-2.87506 .29152-2.81206 .27875-2.711 .25871-2.64798 .24696-2.58496 .23521-2.48392 .21747-2.42091 .20674-2.3579 .196-2.25684 .17932-2.19382 .16954-2.13081 .15976-2.02974 .14499-1.96674 .13623-1.90372 .12747-1.80266 .11414-1.73964 .10638-1.67664 .09865-1.57559 .08716-1.51257 .08044-1.44955 .07372-1.3485 .06364-1.28549 .05794-1.22247 .05225-1.12141 .04402-1.0584 .03935-.99539 .03468-.89433 .02792-.83133 .02422-.76831 .0205-.66725 .01523-.60425 .01253-.54123 .00984-.44017 .00641-.37715 .00473-.31415 .00307-.21307 .00107-.15009 .00041-.08708-.00021 .01396-.00034 .07698 0 .13998 .00034 .24104 .00165 .30406 .00302 .36708 .00438 .46812 .00761 .53113 .00993 .59415 .01225 .6952 .01651 .75822 .01988 .82123 .02324 .9223 .02977 .9853 .03415 1.04832 .03853 1.14938 .04605 1.2124 .05145 1.2754 .05685 1.37645 .06667 1.43947 .07309 1.50249 .0795 1.60355 .09036 1.66655 .09775 1.72957 .10512 1.83063 .1179 1.89365 .1263 1.95665 .13469 2.05771 .14888 2.12071 .1583 2.18373 .1677 2.28479 .18376 2.3478 .1942 2.41081 .20462 2.51187 .2221 2.57489 .23355 2.6379 .245 2.73895 .26433 2.80196 .27681 2.86497 .28929 2.96603 .31009 3.02905 .32352 3.09206 .33696 3.19312 .35925 3.25613 .3737 3.31915 .38815 3.4202 .4123 3.4832 .42776 3.54622 .44324 3.64728 .4688 3.7103 .48529 3.7733 .50179 3.87437 .5292 3.93738 .54672 4.0004 .56422 4.10146 .59312 4.16447 .6116 4.22748 .63007 4.32852 .66043 4.39154 .67993 4.45456 .69943 4.55562 .73158 4.61862 .75217 4.68164 .77275 4.7827 .80676 4.84572 .82831 4.90872 .84984 5.00978 .88495 5.07278 .90744 5.1358 .92995 5.23686 .96692 5.29987 .9905 5.36288 1.01407 5.46394 1.05284 5.52696 1.07744 5.58997 1.10204 5.69102 1.14229 5.75403 1.16783 5.81705 1.19339 5.9181 1.23512 5.98112 1.26169 6.04413 1.28827 6.14519 1.33185 6.2082 1.35945 6.27122 1.38704 6.37227 1.43204 6.43527 1.46066 6.49829 1.48929 6.59935 1.53612 6.66237 1.56577 6.72537 1.59541 6.82645 1.64374 6.88945 1.67433 6.95247 1.70494 7.05351 1.75475 7.11653 1.78636 7.17953 1.81798 7.2806 1.86966 7.34361 1.9023 7.40663 1.93494 7.50769 1.98802 7.5707 2.02167 7.63371 2.05533 7.73477 2.11028 7.79779 2.14494 7.8608 2.17963 7.96185 2.23604 8.02486 2.27167 8.08788 2.3073 8.18893 2.3652 8.25194 2.40187 8.31496 2.43854 8.41602 2.49828 8.47903 2.53595 8.54204 2.57364 8.6431 2.6348 8.7061 2.67351 8.76912 2.7122 8.87018 2.77522 8.9332 2.81494 8.9962 2.85466 9.09726 2.91911 9.16028 2.95985 9.2233 3.0006 9.32434 3.06686 9.38734 3.10863 9.45036 3.15039 9.55142 3.21817 9.61444 3.2609 9.67744 3.3036 9.77852 3.37286 9.84152 3.41661 9.90454 3.46034 10.00558 3.53146 10.0686 3.57622 10.1316 3.62097 10.23267 3.69354 10.29568 3.73927 10.3587 3.785 10.45976 3.85905 10.52277 3.9058 10.58578 3.95255 10.68684 4.0284 10.74986 4.07622 10.81287 4.12404 10.91393 4.20169 10.97693 4.25053 11.03995 4.2994 11.141 4.37851 11.20403 4.42831 11.26703 4.47812 11.36809 4.55878 11.4311 4.60954 11.49411 4.6603 11.59517 4.7424 11.65817 4.79424 11.72119 4.84608 11.82225 4.93039 11.88527 4.98326 11.94827 5.03613 12.04933 5.12148 12.11235 5.17531 12.17537 5.22914 12.27641 5.31639 12.33942 5.37125 12.40244 5.4261 12.5035 5.51477 12.56651 5.57063 12.62952 5.62651 12.73059 5.71704 12.7936 5.77393 12.85661 5.83081 12.95766 5.92285 13.02068 5.9807 13.08368 6.03854 13.18474 6.13205 13.24776 6.1909 13.31078 6.24977 13.41183 6.34508 13.47484 6.40501 13.53786 6.46495 13.63892 6.5621 13.70193 6.623 13.76494 6.68391 13.866 6.78209 13.929 6.84402 13.99202 6.90596 14.09308 7.00644 14.1561 7.06938 14.2191 7.13234 14.32016 7.23386 14.38318 7.29776 14.44618 7.36168 14.54724 7.4651 14.61024 7.53003 14.67326 7.59496 14.77432 7.69983 14.83734 7.76578 14.90034 7.83171 15.0014 7.93843 15.06442 8.0054 15.12744 8.07236 15.22849 8.1805 15.29149 8.24847 15.3545 8.31647 15.45557 8.42647 15.51859 8.49547 15.58159 8.56447 15.68266 8.67589 15.74567 8.74591 15.80869 8.81592 15.90973 8.92924 15.97275 9.00023 16.03575 9.07123 16.13681 9.1856 16.19983 9.2576 16.26285 9.32962 16.3639 9.44624 16.42691 9.51927 16.48993 9.5923 16.59097 9.71 16.65399 9.784 16.717 9.85799 16.81807 9.97754 16.88107 10.0526 16.94409 10.12767 17.04515 10.24901 17.10817 10.3251 17.17117 10.40118 17.27223 10.52402 17.33525 10.60106 17.39825 10.6781 17.49931 10.8024 17.56232 10.88048 17.62534 10.95856 17.7264 11.0847 17.78941 11.16379 17.85242 11.24289 17.95348 11.37045 18.0165 11.45056 18.07951 11.53067 18.18056 11.6601 18.24356 11.74123 18.30658 11.82236 18.40764 11.95326 18.47066 12.03535 18.53366 12.11745 18.63474 12.24983 18.69774 12.33295 18.76076 12.41606 18.8618 12.5503 18.92482 12.63441 18.98782 12.71855 19.08888 12.8542 19.1519 12.93935 19.21492 13.0245 19.31598 13.16203 19.37898 13.2482 19.442 13.33437 19.54305 13.47334 19.60606 13.56047 19.66907 13.64761 19.77014 13.78809 19.83315 13.87624 19.89616 13.96439 19.99722 14.10672 20.06024 14.19589 20.12325 14.28506 20.2243 14.4288 20.28732 14.519 20.35033 14.60919 20.45139 14.75478 20.51439 14.846 20.57741 14.9372 20.67847 15.08427 20.74149 15.17645 20.80449 15.26862 20.90555 15.41718 20.96857 15.51036 21.03159 15.60355 21.13263 15.75389 21.19563 15.84818 21.25865 15.94246 21.35971 16.09465 21.42273 16.18988 21.48573 16.28513 21.5868 16.43837 21.64981 16.53462 21.71283 16.63087 21.81387 16.78639 21.87689 16.88367 21.9399 16.98096 22.04095 17.13751 22.10397 17.23575 22.16699 17.33398 22.26805 17.49248 22.33105 17.59174 22.39407 17.691 22.49512 17.8509 22.55814 17.95117 22.62114 18.05144 22.72221 18.21323 22.78522 18.31451 22.84824 18.4158 22.9493 18.57898 23.01231 18.68129 23.07532 18.7836 23.17638 18.94864 23.2394 19.05197 23.3024 19.15532 23.40346 19.32182 23.46646 19.42613 23.52948 19.53043 23.63054 19.69841 23.69356 19.80373 23.75656 19.90906 23.85762 20.07884 23.92064 20.18524 23.98366 20.29164 24.0847 20.46327 24.1477 20.57063 24.21072 20.67798 24.31178 20.85074 24.3748 20.95905 24.4378 21.06737 24.53888 21.24196 24.60188 21.35135 24.6649 21.46075 24.76595 21.63715 24.82896 21.74756 24.89197 21.85797 24.99303 22.03584 25.05605 22.14722 25.11906 22.2586 25.22012 22.43794 25.28313 22.55035 25.34615 22.66275 25.44719 22.84395 25.51021 22.95737 25.57321 23.07079 25.67429 23.25346 25.73729 23.36784 25.80031 23.48222 25.90137 23.66638 25.96439 23.78178 26.02739 23.89719 26.12843 24.08315 26.19145 24.19963 26.25446 24.3161 26.35553 24.50385 26.41853 24.62134 26.48155 24.73885 26.58261 24.92807 26.64563 25.04652 26.70863 25.16498 26.8097 25.35576 26.87271 25.47517 26.93573 25.5946 27.03677 25.78683 27.09978 25.90727 27.1628 26.02773 27.26385 26.22174 27.32687 26.34328 27.38988 26.4648 27.49095 26.66063 27.55396 26.78317 27.61697 26.90572 27.71802 27.10303 27.78104 27.22652 27.84404 27.35002 27.9451 27.54881 28.00812 27.67334 28.07114 27.79785 28.1722 27.99849 28.2352 28.12404 28.29822 28.24957 28.39926 28.4517 28.46228 28.5782 28.52528 28.7047 28.62636 28.90833 28.68936 29.03583 28.75238 29.16335 28.85344 29.3688 28.91646 29.49734 28.97946 29.6259 29.0805 29.83275 29.14352 29.96231 29.20653 30.09189 29.3076 30.30061 29.3706 30.4312 29.43362 30.56178 29.53468 30.77193 29.5977 30.90353 29.6607 31.03514 29.76176 31.24713 29.82478 31.37975 29.8878 31.51237 29.98885 31.72585 30.05185 31.85944 30.11487 31.99301 30.21593 32.20798 30.27895 32.34258 30.34195 32.47717 30.44302 32.694 30.50603 32.82962 30.56905 32.96524 30.67009 33.18346 30.73311 33.32011 30.79611 33.45677 30.89717 33.67685 30.96019 33.81451 31.02321 33.95218 31.12427 34.17374 31.18727 34.31236 31.25029 34.45099 31.35133 34.67401 31.41435 34.81366 31.47736 34.95331 31.57843 35.1782 31.64143 35.31886 31.70445 35.45953 31.80551 35.68587 31.86853 35.82755 31.93153 35.96922 32.03258 36.19739 32.0956 36.34009 32.1586 36.48279 32.25967 36.71245 32.32268 36.85611 32.3857 36.99977 32.48676 37.2309 32.54977 37.3756 32.61278 37.52028 32.71382 37.75325 32.77684 37.89897 32.83986 38.04468 32.94092 38.27907 33.00392 38.4258 33.06694 38.57253 33.168 38.80878 33.23102 38.95653 33.29402 39.10426 33.3951 39.34193 33.4581 39.4907 33.52112 39.63947 33.62216 39.879 33.68518 40.02878 33.74818 40.17856 33.84924 40.41957 33.91226 40.57031 33.97528 40.72105 34.07634 40.96355 34.13934 41.11531 34.20236 41.26707 34.3034 41.51141 34.36642 41.6642 34.42943 41.817 34.5305 42.06274 34.5935 42.21655 34.65652 42.37036 34.75758 42.61797 34.8206 42.7728 34.8836 42.92763 34.98465 43.17671 35.04767 43.3325 35.11067 43.4883 35.21175 43.73886 35.27475 43.89568 35.33777 44.05249 35.43883 44.3049 35.50185 44.46272 35.56485 44.62054 35.6659 44.87439 35.72891 45.03323 35.79193 45.19208 35.89299 45.4478 35.956 45.60767 36.01901 45.76752 36.12007 46.02472 36.18309 46.18553 36.2461 46.34636 36.34717 46.605 36.41017 46.76686 36.47319 46.92871 36.57423 47.18921 36.63725 47.35208 36.70026 47.51497 36.80132 47.77687 36.86433 47.94077 36.92735 48.10466 37.02841 48.36842 37.09142 48.53334 37.15443 48.69826 37.25548 48.96346 37.3185 49.12938 37.3815 49.2953 37.48257 49.56236 37.54558 49.72931 37.6086 49.89626 37.70966 50.1648 37.77267 50.33269 37.83568 50.5006 37.93672 50.77061 37.99974 50.93956 38.06274 51.10849 38.16382 51.38034 38.22682 51.5503 38.28984 51.72026 38.3909 51.99353 38.45392 52.1645 38.51692 52.33548 38.61797 52.61061 38.68098 52.7826 38.744 52.95459 38.84506 53.2312 38.90807 53.40414 38.97108 53.5771 39.07214 53.85521 39.13516 54.02917 39.19817 54.20316 39.29924 54.4831 39.36224 54.65808 39.42526 54.83307 39.5263 55.11444 39.58932 55.29045 39.65233 55.46646 39.75339 55.7497 39.8164 55.92671 39.87943 56.10374 39.98048 56.38843 40.04349 56.56644 40.1065 56.74443 40.20755 57.03061 40.27057 57.20963 40.33357 57.38864 40.43465 57.67667 40.49765 57.8567 40.56067 58.03674 40.66173 58.32619 40.72475 58.50723 40.78775 58.6883 40.8888 58.9796 40.95181 59.16167 41.01482 59.34375 41.11589 59.63646 41.1789 59.81955 41.24191 60.00264 41.34297 60.29723 41.40599 60.48134 41.469 60.66545 41.57005 60.9615 41.63306 61.14658 41.69608 61.33165 41.79713 61.62918 41.86014 61.81528 41.92316 62.00139 42.02422 62.30075 42.08723 62.48787 42.15024 62.675 42.2513 62.9758 42.3143 63.16394 42.37732 63.35208 42.47838 63.65474 42.5414 63.84389 42.6044 64.03305 42.70546 64.33719 42.76848 64.5273 42.8315 64.7174 42.93256 65.02304 42.99556 65.21417 43.05858 65.4053 43.15962 65.71278 43.22264 65.90494 43.28564 66.09709 43.38672 66.40599 43.44972 66.59917 43.51274 66.79233 43.6138 67.10309 43.67682 67.29729 43.73982 67.49147 43.84087 67.8037 43.90388 67.99886 43.96689 68.19402 44.06796 68.5077 44.13097 68.70389 44.19398 68.90007 44.29504 69.21562 44.35806 69.41281 44.42107 69.61002 44.52213 69.927 44.58513 70.12521 44.64815 70.32343 44.7492 70.64224 44.81221 70.84149 44.87523 71.04073 44.97629 71.36098 45.0393 71.56123 45.10231 71.76149 45.20337 72.08359 45.26637 72.28487 45.32939 72.48615 45.43045 72.80972 45.49347 73.01196 45.55647 73.2142 45.65753 73.53926 45.72055 73.74252 45.78357 73.94579 45.88463 74.27269 45.94763 74.47697 46.01065 74.68126 46.1117 75.00964 46.17471 75.21487 46.23772 75.42012 46.33879 75.74998 46.4018 75.95625 46.46481 76.1625 46.56587 76.49417 46.62889 76.7015 46.6919 76.90886 46.79294 77.24231 46.85596 77.45067 46.91896 77.65903 47.02003 77.99397 47.08304 78.2033 47.14606 78.4126 47.24712 78.74908 47.31013 78.95935 47.37314 79.16963 47.4742 79.50758 47.5372 79.71889 47.60022 79.9302 47.70128 80.26993 47.76428 80.48232 47.8273 80.6947 47.92836 81.03625 47.99138 81.24965 48.05438 81.46306 48.15544 81.80606 48.21844 82.02043 48.28146 82.23479 48.38252 82.5793 48.44554 82.79468 48.50854 83.01006 48.6096 83.35641 48.67262 83.57281 48.73564 83.78922 48.8367 84.13704 48.8997 84.3544 48.96272 84.57176 49.06377 84.92108 49.12679 85.13947 49.18979 85.35783 49.29086 85.70894 49.35387 85.92842 49.41689 86.14789 49.51794 86.50082 49.58096 86.72125 49.64397 86.94168 49.74501 87.29575 49.80803 87.51714 49.87103 87.73851 49.9721 88.09442 50.03511 88.3169 50.09813 88.53935 50.19919 88.89706 50.2622 89.12054 50.32521 89.34402 50.42627 89.70322 50.48927 89.92766 50.55229 90.1521 50.65335 90.51277 50.71635 90.73824 50.77937 90.96368 50.88043 91.32623 50.94345 91.5527 51.00645 91.77919 51.10751 92.14314 51.17052 92.37064 51.23354 92.59813 51.3346 92.96393 51.39761 93.19246 51.46062 93.42099 51.56168 93.7882 51.6247 94.01773 51.68771 94.24728 51.78876 94.61641 51.85176 94.84691 51.91478 95.07742 52.01584 95.44759 52.07886 95.67912 52.14186 95.91064 52.24294 96.28311 52.30594 96.51566 52.36896 96.7482 52.47002 97.1217 52.53304 97.35521 52.59604 97.58871 52.69708 97.96407 52.7601 98.19864 52.8231 98.43323 52.92418 98.81038 52.98718 99.04599 53.0502 99.2816 53.15126 99.66023 53.21428 99.8968 53.27728 100.13338 53.37834 100.51347 53.44135 100.75105 53.50436 100.98865 53.60542 101.3706 53.66843 101.6092 53.73145 101.84782 53.8325 102.2312 53.89552 102.47083 53.95853 102.71045 54.05959 103.09569 54.12259 103.33633 54.18561 103.57698 54.28667 103.96371 54.34969 104.2053 54.41269 104.44691 54.51375 104.83511 54.57677 105.07774 54.63979 105.32036 54.74083 105.71042 54.80383 105.95406 54.86685 106.1977 54.96791 106.58917 55.03093 106.83385 55.09393 107.07852 55.195 107.47182 55.25801 107.71751 55.32103 107.96321 55.42209 108.358 55.4851 108.60466 55.54811 108.85132 55.64915 109.24757 55.71217 109.49525 55.77518 109.74292 55.87625 110.14105 55.93925 110.38974 56.00227 110.63843 56.10333 111.03798 56.16635 111.28769 56.22935 111.5374 56.33041 111.9388 56.39342 112.18953 56.45644 112.44026 56.6205 113.09482 56.6205 113.09482"/>
<use data-text="y" xlink:href="#font_1_6" transform="matrix(9.963197,0,0,-9.963098,180.89977,11.814941)" fill="#0000ff"/>
<use data-text="=" xlink:href="#font_2_6" transform="matrix(9.963197,0,0,-9.963098,188.91024,11.814941)" fill="#0000ff"/>
<use data-text="f" xlink:href="#font_1_2" transform="matrix(9.963197,0,0,-9.963098,199.42688,11.814941)" fill="#0000ff"/>
<use data-text="(" xlink:href="#font_2_1" transform="matrix(9.963197,0,0,-9.963098,205.37723,11.814941)" fill="#0000ff"/>
<use data-text="x" xlink:href="#font_1_5" transform="matrix(9.963197,0,0,-9.963098,209.25145,11.814941)" fill="#0000ff"/>
<use data-text=")" xlink:href="#font_2_2" transform="matrix(9.963197,0,0,-9.963098,214.9458,11.814941)" fill="#0000ff"/>
<path transform="matrix(1.00006,0,0,-1.00005,120.556148,131.1259)" stroke-width=".79701" stroke-linecap="butt" stroke-miterlimit="10" stroke-linejoin="miter" fill="none" stroke="#ff0000" d="M-113.38724 113.38724C-113.38724 113.38724-113.22316 112.73172-113.16014 112.48064-113.09714 112.22954-112.99606 111.82756-112.93306 111.57748-112.87004 111.32741-112.76898 110.92723-112.70596 110.67824-112.64296 110.42924-112.54192 110.03087-112.4789 109.78288-112.4159 109.53491-112.31482 109.138-112.25182 108.89099-112.1888 108.64397-112.08774 108.24854-112.02472 108.00255-111.96172 107.75658-111.86066 107.36298-111.79765 107.11801-111.73463 106.87305-111.63358 106.48094-111.57057 106.23694-111.50755 105.99294-111.4065 105.60231-111.34348 105.35933-111.28047 105.11633-111.17941 104.72755-111.11641 104.4856-111.05339 104.24362-110.95233 103.85628-110.88931 103.61533-110.82631 103.37437-110.72525 102.98888-110.66223 102.74895-110.59921 102.50902-110.49817 102.12495-110.43517 101.88603-110.37215 101.64713-110.27109 101.26491-110.20807 101.02702-110.14507 100.78914-110.04399 100.40837-109.98099 100.17145-109.91797 99.93452-109.81691 99.55525-109.75389 99.31935-109.69089 99.08345-109.58984 98.70604-109.52682 98.47116-109.46382 98.23627-109.36275 97.86026-109.29974 97.6264-109.23672 97.39253-109.13567 97.0184-109.07265 96.78555-109.00964 96.5527-108.90858 96.18005-108.84558 95.94817-108.78256 95.71626-108.6815 95.3451-108.6185 95.11423-108.55548 94.88335-108.45442 94.51402-108.3914 94.28418-108.3284 94.05434-108.22734 93.68643-108.16434 93.45761-108.10132 93.22879-108.00026 92.86272-107.93724 92.63492-107.87424 92.40712-107.77318 92.04247-107.71016 91.81569-107.64714 91.5889-107.5461 91.22618-107.4831 91.00035-107.42007 90.77454-107.31902 90.41286-107.256 90.18805-107.193 89.96324-107.09192 89.60385-107.02892 89.38007-106.9659 89.15628-106.86484 88.79788-106.80182 88.5751-106.73882 88.35234-106.63777 87.99623-106.57475 87.77448-106.51175 87.55273-106.41068 87.19766-106.34767 86.97688-106.28465 86.7561-106.1836 86.40288-106.12057 86.18318-106.05757 85.96349-105.95651 85.6121-105.89351 85.39337-105.83049 85.17462-105.72943 84.82436-105.66643 84.60657-105.60341 84.3888-105.50235 84.04039-105.43933 83.82368-105.37633 83.60698-105.27527 83.26038-105.21227 83.0447-105.14925 82.82901-105.04819 82.48381-104.98517 82.26915-104.92216 82.05447-104.8211 81.71118-104.75809 81.4975-104.69507 81.2838-104.59402 80.94156-104.53102 80.72888-104.468 80.5162-104.36694 80.17624-104.30392 79.96458-104.24092 79.75293-104.13985 79.41402-104.07684 79.20332-104.01382 78.99261-103.91278 78.65556-103.84976 78.44594-103.78676 78.23631-103.6857 77.90106-103.62268 77.69246-103.55968 77.48386-103.4586 77.15009-103.3956 76.94243-103.33258 76.73479-103.23152 76.40251-103.1685 76.19588-103.1055 75.98926-103.00444 75.65881-102.94144 75.4532-102.87842 75.24759-102.77736 74.91864-102.71436 74.714-102.65134 74.50937-102.55028 74.18187-102.48726 73.97826-102.42426 73.77464-102.3232 73.44894-102.2602 73.24641-102.19717 73.04387-102.09612 72.71997-102.0331 72.51845-101.9701 72.31693-101.86903 71.99449-101.80602 71.79393-101.743 71.59337-101.64195 71.2725-101.57895 71.0729-101.51593 70.8733-101.41487 70.5539-101.35185 70.35532-101.28885 70.15672-101.18777 69.83913-101.12477 69.64162-101.06175 69.44412-100.96071 69.1283-100.89769 68.93182-100.83469 68.73535-100.73363 68.421-100.67061 68.2255-100.6076 68.02998-100.50653 67.71718-100.44353 67.52261-100.38051 67.32806-100.27945 67.01668-100.21643 66.82321-100.15343 66.62973-100.05237 66.32059-99.98936 66.12813-99.92635 65.93567-99.82529 65.62756-99.76228 65.43605-99.69926 65.24455-99.5982 64.93837-99.53519 64.7479-99.47218 64.55742-99.37112 64.25264-99.30812 64.06319-99.2451 63.87372-99.14404 63.5708-99.08102 63.38237-99.01802 63.19395-98.91696 62.89243-98.85394 62.70502-98.79092 62.51761-98.68988 62.21796-98.62688 62.03156-98.56386 61.84517-98.4628 61.547-98.39978 61.36156-98.33678 61.17613-98.2357 60.87943-98.1727 60.69502-98.10968 60.5106-98.00864 60.21576-97.94562 60.03236-97.88261 59.84897-97.78156 59.55562-97.71854 59.37317-97.65553 59.19073-97.55446 58.89886-97.49146 58.71745-97.42844 58.53603-97.32738 58.24596-97.26436 58.06563-97.20135 57.88528-97.1003 57.59697-97.0373 57.41766-96.97427 57.23836-96.87321 56.95154-96.81021 56.7732-96.7472 56.59485-96.64613 56.30951-96.58311 56.13217-96.52011 55.95483-96.41905 55.67136-96.35605 55.49504-96.29303 55.31873-96.19197 55.03673-96.12895 54.86137-96.06595 54.68602-95.96489 54.4055-95.90187 54.23117-95.83885 54.05682-95.73781 53.77817-95.6748 53.60484-95.61179 53.43152-95.51073 53.15428-95.44771 52.98201-95.3847 52.80972-95.28363 52.53432-95.22063 52.36304-95.15761 52.19176-95.05656 51.91777-94.99355 51.74753-94.93054 51.57729-94.82948 51.30515-94.76646 51.13593-94.70346 50.96669-94.60239 50.69604-94.53938 50.52779-94.47636 50.35951-94.37532 50.09035-94.3123 49.9231-94.2493 49.75584-94.14822 49.48853-94.08522 49.3223-94.0222 49.15607-93.92114 48.89024-93.85814 48.72496-93.79512 48.5597-93.69406 48.29533-93.63104 48.13109-93.56804 47.96683-93.46698 47.70425-93.40398 47.54109-93.34096 47.37793-93.2399 47.11716-93.17688 46.95502-93.11388 46.79286-93.01282 46.53357-92.9498 46.37238-92.88678 46.2112-92.78574 45.95338-92.72273 45.79321-92.65971 45.63304-92.55865 45.37709-92.49564 45.21794-92.43263 45.05879-92.33156 44.8043-92.26855 44.64612-92.20554 44.48793-92.10449 44.23494-92.04147 44.07776-91.97847 43.9206-91.87741 43.66945-91.81439 43.5133-91.75137 43.35715-91.65031 43.10742-91.58731 42.9523-91.52429 42.79718-91.42325 42.5493-91.36023 42.39519-91.29723 42.24109-91.19615 41.99464-91.13315 41.84155-91.07013 41.68846-90.96907 41.44385-90.90607 41.2918-90.84305 41.13972-90.74199 40.89659-90.67897 40.74548-90.61597 40.59438-90.51491 40.35275-90.4519 40.20265-90.38889 40.05257-90.28783 39.81279-90.22481 39.66371-90.1618 39.51465-90.06075 39.27635-89.99773 39.12825-89.93471 38.98013-89.83366 38.74332-89.77066 38.59622-89.70764 38.44913-89.60658 38.21408-89.54356 38.06808-89.48056 37.92209-89.37949 37.68883-89.31648 37.54385-89.25346 37.39886-89.15242 37.1671-89.0894 37.02307-89.0264 36.87904-88.92534 36.64883-88.86232 36.50577-88.7993 36.3627-88.69824 36.1339-88.63524 35.99191-88.57222 35.84991-88.47118 35.62334-88.40816 35.48236-88.34515 35.3414-88.24408 35.11588-88.18108 34.97586-88.11806 34.83586-88.017 34.61224-87.954 34.47327-87.89098 34.33429-87.78992 34.11208-87.7269 33.97412-87.6639 33.83617-87.56284 33.6158-87.49983 33.47885-87.43681 33.34192-87.33575 33.12305-87.27274 32.98708-87.20973 32.85109-87.10867 32.63368-87.04565 32.49872-86.98264 32.36375-86.88159 32.14816-86.81859 32.01428-86.75557 31.8804-86.65451 31.66666-86.59149 31.53374-86.52849 31.4008-86.42741 31.18811-86.36441 31.0562-86.30139 30.9243-86.20035 30.7139-86.13733 30.58301-86.07433 30.45212-85.97327 30.24277-85.91025 30.11285-85.84723 29.98293-85.74617 29.7754-85.68317 29.64658-85.62015 29.51773-85.5191 29.31207-85.45609 29.18419-85.39308 29.0563-85.292 28.85168-85.229 28.72482-85.16599 28.59798-85.06493 28.39565-85.00192 28.2698-84.9389 28.14397-84.83786 27.94269-84.77484 27.81781-84.71184 27.69292-84.61076 27.4935-84.54776 27.36969-84.48474 27.2459-84.38368 27.04826-84.32066 26.92548-84.25766 26.80269-84.1566 26.60652-84.09358 26.48471-84.03056 26.3629-83.92952 26.16823-83.86652 26.04742-83.8035 25.92664-83.70244 25.7338-83.63942 25.61401-83.57642 25.49425-83.47534 25.3029-83.41234 25.18408-83.34932 25.06526-83.24828 24.8754-83.18526 24.7576-83.12225 24.6398-83.0212 24.45178-82.95818 24.335-82.89516 24.21822-82.7941 24.03165-82.7311 23.91588-82.66808 23.80013-82.56703 23.61539-82.50401 23.50064-82.44101 23.3859-82.33994 23.20259-82.27693 23.08887-82.21391 22.97514-82.11285 22.79367-82.04985 22.68098-81.98683 22.56828-81.88579 22.38829-81.82277 22.27657-81.75977 22.16483-81.65869 21.98631-81.59569 21.8756-81.53267 21.76488-81.43161 21.58821-81.36859 21.47852-81.30559 21.36882-81.20453 21.19359-81.14151 21.08492-81.07849 20.97623-80.97745 20.80286-80.91444 20.69519-80.85143 20.58752-80.75037 20.41563-80.68735 20.30894-80.62434 20.20224-80.52327 20.0318-80.46027 19.92613-80.39725 19.82047-80.2962 19.65184-80.23318 19.54724-80.17018 19.44266-80.06912 19.27586-80.0061 19.17223-79.94308 19.06859-79.84203 18.90292-79.77902 18.80025-79.716 18.69757-79.61496 18.53375-79.55194 18.43216-79.48894 18.33057-79.38786 18.16855-79.32486 18.06796-79.26184 17.96739-79.16078 17.80684-79.09778 17.70723-79.03476 17.6076-78.93372 17.44855-78.8707 17.34995-78.8077 17.25134-78.70662 17.09415-78.64362 16.99657-78.5806 16.89899-78.47954 16.7432-78.41652 16.64665-78.35352 16.5501-78.25246 16.39615-78.18944 16.30061-78.12642 16.2051-78.02538 16.05261-77.96237 15.95804-77.89935 15.86346-77.7983 15.71248-77.73528 15.61893-77.67227 15.52538-77.5712 15.37625-77.5082 15.2837-77.44518 15.19118-77.34413 15.04347-77.28111 14.95197-77.21811 14.86044-77.11705 14.7146-77.05403 14.6241-76.99101 14.5336-76.88995 14.38922-76.82695 14.29968-76.76393 14.21014-76.66289 14.06725-76.59987 13.97874-76.53687 13.89024-76.43579 13.74918-76.37279 13.6617-76.30977 13.5742-76.20871 13.43457-76.1457 13.3481-76.08269 13.26164-75.98164 13.12386-75.91862 13.0384-75.85562 12.95296-75.75455 12.81667-75.69154 12.73216-75.62852 12.64767-75.52747 12.51288-75.46445 12.4294-75.40144 12.34593-75.3004 12.2129-75.23738 12.13052-75.17436 12.04813-75.0733 11.91696-75.0103 11.83553-74.94728 11.75409-74.84622 11.62402-74.7832 11.54355-74.7202 11.46309-74.61913 11.33487-74.55612 11.2555-74.4931 11.1761-74.39206 11.04967-74.32904 10.9713-74.26604 10.89294-74.16498 10.768-74.10196 10.6906-74.03894 10.61319-73.93788 10.48972-73.87488 10.41333-73.81186 10.33694-73.71082 10.21535-73.6478 10.13997-73.5848 10.0646-73.48372 9.94443-73.42072 9.87007-73.3577 9.79572-73.25664 9.67738-73.19363 9.60405-73.13062 9.53072-73.02957 9.41388-72.96655 9.3415-72.90355 9.26912-72.80247 9.15376-72.73947 9.08241-72.67645 9.01108-72.5754 8.89748-72.51237 8.82722-72.44937 8.75696-72.34833 8.64522-72.28531 8.57591-72.22229 8.5066-72.12123 8.39598-72.05823 8.32764-71.99521 8.2593-71.89415 8.15051-71.83113 8.08325-71.76813 8.01598-71.66705 7.90901-71.60405 7.84277-71.54103 7.77652-71.43999 7.67104-71.37697 7.60574-71.31396 7.54045-71.2129 7.43643-71.14989 7.37216-71.08687 7.30789-70.98581 7.20573-70.9228 7.14249-70.85979 7.07925-70.75874 6.97855-70.69572 6.91628-70.63272 6.85399-70.53165 6.75478-70.46864 6.69351-70.40562 6.63225-70.30457 6.53484-70.24156 6.47466-70.17854 6.41447-70.0775 6.31885-70.01448 6.25967-69.95148 6.20052-69.8504 6.10637-69.7874 6.04816-69.72438 5.98994-69.62332 5.89735-69.5603 5.8401-69.4973 5.78285-69.39626 5.69176-69.33324 5.63551-69.27022 5.57928-69.16916 5.48996-69.10616 5.43481-69.04314 5.37968-68.94208 5.29213-68.87906 5.23802-68.81606 5.1839-68.715 5.09784-68.652 5.04468-68.58897 4.99152-68.48792 4.90694-68.4249 4.8548-68.3619 4.80264-68.26083 4.71992-68.19781 4.6688-68.1348 4.61768-68.03374 4.53642-67.97073 4.48627-67.90771 4.4361-67.80667 4.35635-67.74365 4.3072-67.68065 4.25806-67.57957 4.18016-67.51657 4.13203-67.45355 4.0839-67.3525 4.00742-67.28949 3.96031-67.22647 3.9132-67.12543 3.83855-67.06241 3.79248-66.9994 3.7464-66.89833 3.67317-66.83533 3.62811-66.77231 3.58305-66.67125 3.51167-66.60823 3.46764-66.54523 3.4236-66.44418 3.35371-66.38116 3.31064-66.31815 3.26755-66.21709 3.19914-66.15408 3.15707-66.09106 3.11502-65.99 3.04846-65.92699 3.00742-65.86398 2.96637-65.76292 2.90125-65.69992 2.86122-65.6369 2.8212-65.53584 2.75792-65.47282 2.71892-65.40982 2.6799-65.30876 2.6181-65.24574 2.58008-65.18272 2.54204-65.08167 2.4817-65.01866 2.44469-64.95564 2.40767-64.8546 2.3492-64.79158 2.3132-64.72858 2.2772-64.6275 2.22015-64.5645 2.18517-64.50148 2.15019-64.40042 2.09499-64.33742 2.06104-64.2744 2.02707-64.17336 1.97336-64.11034 1.94035-64.04733 1.90735-63.94626 1.85512-63.88326 1.82314-63.82024 1.79115-63.71918 1.7407-63.65616 1.70981-63.59315 1.6789-63.49211 1.63031-63.4291 1.60039-63.36607 1.57045-63.26501 1.52295-63.20201 1.49397-63.13899 1.465-63.03793 1.41936-62.97491 1.39146-62.91191 1.36357-62.81085 1.31972-62.74785 1.29285-62.68483 1.26596-62.58377 1.2236-62.52075 1.19768-62.45775 1.17177-62.35669 1.13089-62.29367 1.10599-62.23065 1.08109-62.1296 1.04205-62.06659 1.01817-62.00357 .9943-61.90253 .9567-61.83951 .93384-61.7765 .91096-61.67543 .87523-61.61243 .85338-61.54941 .83154-61.44835 .79726-61.38535 .77638-61.32233 .75551-61.22128 .7227-61.15826 .70285-61.09526 .683-60.99419 .65205-60.93118 .63321-60.86816 .61438-60.7671 .58485-60.70409 .56705-60.64108 .54922-60.54004 .52156-60.47702 .50476-60.414 .48796-60.31294 .46176-60.24994 .44592-60.18692 .43008-60.08586 .40538-60.02284 .39056-59.95984 .37573-59.85878 .35281-59.79578 .33908-59.73276 .32536-59.6317 .30429-59.56868 .29152-59.50568 .27875-59.40462 .25871-59.3416 .24696-59.27858 .23521-59.17754 .21747-59.11453 .20674-59.05151 .196-58.95045 .17932-58.88744 .16954-58.82443 .15976-58.72336 .14499-58.66035 .13623-58.59734 .12747-58.49628 .11414-58.43326 .10638-58.37025 .09865-58.26921 .08716-58.20619 .08044-58.14319 .07372-58.04211 .06364-57.97911 .05794-57.91609 .05225-57.81503 .04402-57.75201 .03935-57.68901 .03468-57.58797 .02792-57.52495 .02422-57.46193 .0205-57.36087 .01523-57.29787 .01253-57.23485 .00984-57.13379 .00641-57.07077 .00473-57.00777 .00307-56.90671 .00107-56.8437 .00041-56.78069-.00021-56.67963-.00034-56.61661 0-56.5536 .00034-56.45255 .00165-56.38953 .00302-56.3265 .00438-56.22546 .00761-56.16246 .00993-56.09944 .01225-55.99838 .01651-55.93536 .01988-55.87236 .02324-55.77129 .02977-55.70828 .03415-55.64526 .03853-55.5442 .04605-55.48119 .05145-55.41818 .05685-55.31714 .06667-55.25412 .07309-55.19112 .0795-55.09004 .09036-55.02704 .09775-54.96402 .10512-54.86296 .1179-54.79994 .1263-54.73694 .13469-54.6359 .14888-54.57288 .1583-54.50986 .1677-54.4088 .18376-54.3458 .1942-54.28278 .20462-54.18172 .2221-54.1187 .23355-54.0557 .245-53.95464 .26433-53.89163 .27681-53.82861 .28929-53.72755 .31009-53.66454 .32352-53.60153 .33696-53.50047 .35925-53.43745 .3737-53.37444 .38815-53.27339 .4123-53.21039 .42776-53.14737 .44324-53.04631 .4688-52.98329 .48529-52.92029 .50179-52.81921 .5292-52.75621 .54672-52.69319 .56422-52.59213 .59312-52.52911 .6116-52.46611 .63007-52.36507 .66043-52.30205 .67993-52.23904 .69943-52.13797 .73158-52.07497 .75217-52.01195 .77275-51.91089 .80676-51.84787 .82831-51.78487 .84984-51.68382 .88495-51.6208 .90744-51.55779 .92995-51.45673 .96692-51.39372 .9905-51.3307 1.01407-51.22964 1.05284-51.16663 1.07744-51.10362 1.10204-51.00256 1.14229-50.93956 1.16783-50.87654 1.19339-50.77548 1.23512-50.71246 1.26169-50.64946 1.28827-50.5484 1.33185-50.48538 1.35945-50.42236 1.38704-50.32132 1.43204-50.25832 1.46066-50.1953 1.48929-50.09424 1.53612-50.03122 1.56577-49.96822 1.59541-49.86714 1.64374-49.80414 1.67433-49.74112 1.70494-49.64008 1.75475-49.57706 1.78636-49.51405 1.81798-49.413 1.86966-49.34998 1.9023-49.28697 1.93494-49.1859 1.98802-49.1229 2.02167-49.05988 2.05533-48.95882 2.11028-48.8958 2.14494-48.8328 2.17963-48.73175 2.23604-48.66873 2.27167-48.60571 2.3073-48.50465 2.3652-48.44165 2.40187-48.37863 2.43854-48.27757 2.49828-48.21455 2.53595-48.15155 2.57364-48.05049 2.6348-47.98749 2.67351-47.92447 2.7122-47.82341 2.77522-47.76039 2.81494-47.69739 2.85466-47.59633 2.91911-47.53331 2.95985-47.47029 3.0006-47.36925 3.06686-47.30624 3.10863-47.24323 3.15039-47.14217 3.21817-47.07915 3.2609-47.01614 3.3036-46.91507 3.37286-46.85207 3.41661-46.78905 3.46034-46.688 3.53146-46.62498 3.57622-46.56198 3.62097-46.46092 3.69354-46.3979 3.73927-46.3349 3.785-46.23383 3.85905-46.17082 3.9058-46.1078 3.95255-46.00674 4.0284-45.94373 4.07622-45.88072 4.12404-45.77968 4.20169-45.71666 4.25053-45.65364 4.2994-45.55258 4.37851-45.48958 4.42831-45.42656 4.47812-45.3255 4.55878-45.26248 4.60954-45.19948 4.6603-45.09842 4.7424-45.03542 4.79424-44.9724 4.84608-44.87134 4.93039-44.80832 4.98326-44.74532 5.03613-44.64426 5.12148-44.58124 5.17531-44.51822 5.22914-44.41718 5.31639-44.35417 5.37125-44.29115 5.4261-44.1901 5.51477-44.12708 5.57063-44.06407 5.62651-43.963 5.71704-43.9 5.77393-43.83698 5.83081-43.73593 5.92285-43.67291 5.9807-43.60991 6.03854-43.50885 6.13205-43.44583 6.1909-43.38283 6.24977-43.28175 6.34508-43.21875 6.40501-43.15573 6.46495-43.05467 6.5621-42.99165 6.623-42.92865 6.68391-42.8276 6.78209-42.76459 6.84402-42.70157 6.90596-42.60051 7.00644-42.5375 7.06938-42.47449 7.13234-42.37343 7.23386-42.31041 7.29776-42.2474 7.36168-42.14635 7.4651-42.08334 7.53003-42.02032 7.59496-41.91927 7.69983-41.85625 7.76578-41.79324 7.83171-41.69218 7.93843-41.62917 8.0054-41.56615 8.07236-41.4651 8.1805-41.4021 8.24847-41.33908 8.31647-41.23802 8.42647-41.175 8.49547-41.112 8.56447-41.01093 8.67589-40.94792 8.74591-40.8849 8.81592-40.78386 8.92924-40.72084 9.00023-40.65784 9.07123-40.55678 9.1856-40.49376 9.2576-40.43076 9.32962-40.32968 9.44624-40.26668 9.51927-40.20366 9.5923-40.10262 9.71-40.0396 9.784-39.9766 9.85799-39.87553 9.97754-39.81252 10.0526-39.7495 10.12767-39.64844 10.24901-39.58543 10.3251-39.52242 10.40118-39.42136 10.52402-39.35834 10.60106-39.29533 10.6781-39.19427 10.8024-39.13127 10.88048-39.06825 10.95856-38.9672 11.0847-38.90417 11.16379-38.84117 11.24289-38.74011 11.37045-38.6771 11.45056-38.61407 11.53067-38.51303 11.6601-38.45003 11.74123-38.38701 11.82236-38.28595 11.95326-38.22293 12.03535-38.15993 12.11745-38.05885 12.24983-37.99585 12.33295-37.93283 12.41606-37.83179 12.5503-37.76877 12.63441-37.70576 12.71855-37.6047 12.8542-37.54169 12.93935-37.47868 13.0245-37.37761 13.16203-37.3146 13.2482-37.25159 13.33437-37.15054 13.47334-37.08752 13.56047-37.02452 13.64761-36.92346 13.78809-36.86044 13.87624-36.79742 13.96439-36.69637 14.10672-36.63336 14.19589-36.57034 14.28506-36.46928 14.4288-36.40627 14.519-36.34326 14.60919-36.2422 14.75478-36.1792 14.846-36.11618 14.9372-36.01512 15.08427-35.9521 15.17645-35.8891 15.26862-35.78804 15.41718-35.72502 15.51036-35.662 15.60355-35.56096 15.75389-35.49796 15.84818-35.43494 15.94246-35.33388 16.09465-35.27086 16.18988-35.20786 16.28513-35.10678 16.43837-35.04378 16.53462-34.98076 16.63087-34.87971 16.78639-34.8167 16.88367-34.7537 16.98096-34.65263 17.13751-34.58961 17.23575-34.52661 17.33398-34.42554 17.49248-34.36253 17.59174-34.29951 17.691-34.19847 17.8509-34.13545 17.95117-34.07245 18.05144-33.97139 18.21323-33.90837 18.31451-33.84535 18.4158-33.7443 18.57898-33.68129 18.68129-33.61827 18.7836-33.51721 18.94864-33.4542 19.05197-33.39119 19.15532-33.29013 19.32182-33.22713 19.42613-33.16411 19.53043-33.06305 19.69841-33.00003 19.80373-32.93703 19.90906-32.83597 20.07884-32.77295 20.18524-32.70993 20.29164-32.60889 20.46327-32.54588 20.57063-32.48286 20.67798-32.3818 20.85074-32.31879 20.95905-32.25578 21.06737-32.15471 21.24196-32.0917 21.35135-32.02869 21.46075-31.92764 21.63715-31.86462 21.74756-31.80162 21.85797-31.70056 22.03584-31.63754 22.14722-31.57454 22.2586-31.47346 22.43794-31.41046 22.55035-31.34744 22.66275-31.2464 22.84395-31.18338 22.95737-31.12038 23.07079-31.01932 23.25346-30.9563 23.36784-30.89328 23.48222-30.79222 23.66638-30.72922 23.78178-30.6662 23.89719-30.56516 24.08315-30.50214 24.19963-30.43913 24.3161-30.33806 24.50385-30.27505 24.62134-30.21204 24.73885-30.11098 24.92807-30.04796 25.04652-29.98495 25.16498-29.8839 25.35576-29.82088 25.47517-29.75786 25.5946-29.65681 25.78683-29.59381 25.90727-29.53079 26.02773-29.42973 26.22174-29.36671 26.34328-29.30371 26.4648-29.20264 26.66063-29.13963 26.78317-29.07661 26.90572-28.97557 27.10303-28.91255 27.22652-28.84955 27.35002-28.74849 27.54881-28.68547 27.67334-28.62247 27.79785-28.5214 27.99849-28.45839 28.12404-28.39537 28.24957-28.29433 28.4517-28.23131 28.5782-28.1683 28.7047-28.06723 28.90833-28.00423 29.03583-27.94121 29.16335-27.84015 29.3688-27.77715 29.49734-27.71413 29.6259-27.61308 29.83275-27.55006 29.96231-27.48706 30.09189-27.38599 30.30061-27.32298 30.4312-27.25996 30.56178-27.1589 30.77193-27.09589 30.90353-27.03288 31.03514-26.93182 31.24713-26.8688 31.37975-26.80579 31.51237-26.70474 31.72585-26.64174 31.85944-26.57872 31.99301-26.47766 32.20798-26.41464 32.34258-26.35164 32.47717-26.25056 32.694-26.18756 32.82962-26.12454 32.96524-26.0235 33.18346-25.96048 33.32011-25.89748 33.45677-25.79642 33.67685-25.7334 33.81451-25.6704 33.95218-25.56932 34.17374-25.50632 34.31236-25.4433 34.45099-25.34225 34.67401-25.27924 34.81366-25.21623 34.95331-25.11516 35.1782-25.05215 35.31886-24.98914 35.45953-24.88808 35.68587-24.82507 35.82755-24.76205 35.96922-24.66101 36.19739-24.59799 36.34009-24.53499 36.48279-24.43391 36.71245-24.37091 36.85611-24.30789 36.99977-24.20683 37.2309-24.14381 37.3756-24.08081 37.52028-23.97977 37.75325-23.91675 37.89897-23.85373 38.04468-23.75267 38.27907-23.68967 38.4258-23.62665 38.57253-23.52559 38.80878-23.46257 38.95653-23.39957 39.10426-23.2985 39.34193-23.23549 39.4907-23.17247 39.63947-23.07143 39.879-23.0084 40.02878-22.9454 40.17856-22.84435 40.41957-22.78133 40.57031-22.71832 40.72105-22.61725 40.96355-22.55424 41.11531-22.49123 41.26707-22.39018 41.51141-22.32716 41.6642-22.26416 41.817-22.16309 42.06274-22.10008 42.21655-22.03706 42.37036-21.936 42.61797-21.873 42.7728-21.80998 42.92763-21.70894 43.17671-21.64592 43.3325-21.58292 43.4883-21.48184 43.73886-21.41884 43.89568-21.35582 44.05249-21.25476 44.3049-21.19174 44.46272-21.12874 44.62054-21.0277 44.87439-20.96468 45.03323-20.90166 45.19208-20.8006 45.4478-20.7376 45.60767-20.67458 45.76752-20.57352 46.02472-20.5105 46.18553-20.4475 46.34636-20.34642 46.605-20.28342 46.76686-20.2204 46.92871-20.11935 47.18921-20.05634 47.35208-19.99333 47.51497-19.89227 47.77687-19.82925 47.94077-19.76625 48.10466-19.66518 48.36842-19.60217 48.53334-19.53915 48.69826-19.43811 48.96346-19.37509 49.12938-19.31209 49.2953-19.21101 49.56236-19.14801 49.72931-19.08499 49.89626-18.98393 50.1648-18.92093 50.33269-18.85791 50.5006-18.75687 50.77061-18.69385 50.93956-18.63084 51.10849-18.52977 51.38034-18.46677 51.5503-18.40375 51.72026-18.30269 51.99353-18.23967 52.1645-18.17667 52.33548-18.07562 52.61061-18.0126 52.7826-17.94958 52.95459-17.84853 53.2312-17.78552 53.40414-17.7225 53.5771-17.62144 53.85521-17.55843 54.02917-17.49542 54.20316-17.39435 54.4831-17.33134 54.65808-17.26833 54.83307-17.16728 55.11444-17.10426 55.29045-17.04126 55.46646-16.9402 55.7497-16.87718 55.92671-16.81418 56.10374-16.7131 56.38843-16.6501 56.56644-16.58708 56.74443-16.48604 57.03061-16.42302 57.20963-16.36002 57.38864-16.25894 57.67667-16.19594 57.8567-16.13292 58.03674-16.03186 58.32619-15.96886 58.50723-15.90584 58.6883-15.8048 58.9796-15.74178 59.16167-15.67877 59.34375-15.5777 59.63646-15.5147 59.81955-15.45168 60.00264-15.35062 60.29723-15.2876 60.48134-15.2246 60.66545-15.12355 60.9615-15.06053 61.14658-14.99751 61.33165-14.89645 61.62918-14.83345 61.81528-14.77043 62.00139-14.66937 62.30075-14.60635 62.48787-14.54335 62.675-14.44229 62.9758-14.37929 63.16394-14.31627 63.35208-14.21521 63.65474-14.15219 63.84389-14.08919 64.03305-13.98813 64.33719-13.92511 64.5273-13.8621 64.7174-13.76103 65.02304-13.69803 65.21417-13.63501 65.4053-13.53397 65.71278-13.47095 65.90494-13.40794 66.09709-13.30687 66.40599-13.24387 66.59917-13.18085 66.79233-13.07979 67.10309-13.01678 67.29729-12.95377 67.49147-12.85272 67.8037-12.7897 67.99886-12.7267 68.19402-12.62563 68.5077-12.56262 68.70389-12.4996 68.90007-12.39854 69.21562-12.33553 69.41281-12.27252 69.61002-12.17148 69.927-12.10846 70.12521-12.04544 70.32343-11.94438 70.64224-11.88138 70.84149-11.81836 71.04073-11.7173 71.36098-11.65428 71.56123-11.59128 71.76149-11.49022 72.08359-11.42722 72.28487-11.3642 72.48615-11.26314 72.80972-11.20012 73.01196-11.13712 73.2142-11.03606 73.53926-10.97304 73.74252-10.91003 73.94579-10.80896 74.27269-10.74596 74.47697-10.68294 74.68126-10.5819 75.00964-10.51888 75.21487-10.45587 75.42012-10.3548 75.74998-10.2918 75.95625-10.22878 76.1625-10.12772 76.49417-10.06471 76.7015-10.0017 76.90886-9.90065 77.24231-9.83763 77.45067-9.77463 77.65903-9.67355 77.99397-9.61055 78.2033-9.54753 78.4126-9.44647 78.74908-9.38345 78.95935-9.32045 79.16963-9.2194 79.50758-9.15639 79.71889-9.09337 79.9302-8.99231 80.26993-8.9293 80.48232-8.86629 80.6947-8.76523 81.03625-8.70221 81.24965-8.6392 81.46306-8.53815 81.80606-8.47514 82.02043-8.41212 82.23479-8.31107 82.5793-8.24805 82.79468-8.18504 83.01006-8.08398 83.35641-8.02097 83.57281-7.95796 83.78922-7.85689 84.13704-7.79388 84.3544-7.73087 84.57176-7.62982 84.92108-7.5668 85.13947-7.5038 85.35783-7.40273 85.70894-7.33972 85.92842-7.2767 86.14789-7.17564 86.50082-7.11264 86.72125-7.04962 86.94168-6.94858 87.29575-6.88556 87.51714-6.82256 87.73851-6.72148 88.09442-6.65848 88.3169-6.59546 88.53935-6.4944 88.89706-6.43138 89.12054-6.36838 89.34402-6.26733 89.70322-6.20432 89.92766-6.1413 90.1521-6.04024 90.51277-5.97723 90.73824-5.91422 90.96368-5.81316 91.32623-5.75014 91.5527-5.68713 91.77919-5.58607 92.14314-5.52307 92.37064-5.46005 92.59813-5.359 92.96393-5.29597 93.19246-5.23297 93.42099-5.13191 93.7882-5.0689 94.01773-5.00587 94.24728-4.90483 94.61641-4.84183 94.84691-4.77881 95.07742-4.67775 95.44759-4.61473 95.67912-4.55173 95.91064-4.45065 96.28311-4.38765 96.51566-4.32463 96.7482-4.22357 97.1217-4.16057 97.35521-4.09755 97.58871-3.9965 97.96407-3.93349 98.19864-3.87048 98.43323-3.76941 98.81038-3.7064 99.04599-3.64339 99.2816-3.54233 99.66023-3.47931 99.8968-3.4163 100.13338-3.31526 100.51347-3.25224 100.75105-3.18922 100.98865-3.08817 101.3706-3.02516 101.6092-2.96214 101.84782-2.86108 102.2312-2.79807 102.47083-2.73506 102.71045-2.634 103.09569-2.571 103.33633-2.50798 103.57698-2.40692 103.96371-2.3439 104.2053-2.2809 104.44691-2.17984 104.83511-2.11682 105.07774-2.0538 105.32036-1.95276 105.71042-1.88976 105.95406-1.82674 106.1977-1.72568 106.58917-1.66266 106.83385-1.59966 107.07852-1.49858 107.47182-1.43558 107.71751-1.37256 107.96321-1.2715 108.358-1.2085 108.60466-1.14548 108.85132-1.04443 109.24757-.98141 109.49525-.91841 109.74292-.81734 110.14105-.75433 110.38974-.69131 110.63843-.59026 111.03798-.52724 111.28769-.46423 111.5374-.36319 111.9388-.30017 112.18953-.23715 112.44026-.07309 113.09482-.07309 113.09482"/>
<use data-text="y" xlink:href="#font_1_6" transform="matrix(9.963197,0,0,-9.963098,124.20236,11.814941)" fill="#ff0000"/>
<use data-text="=" xlink:href="#font_2_6" transform="matrix(9.963197,0,0,-9.963098,132.21283,11.814941)" fill="#ff0000"/>
<use data-text="g" xlink:href="#font_1_3" transform="matrix(9.963197,0,0,-9.963098,142.72948,11.814941)" fill="#ff0000"/>
<use data-text="(" xlink:href="#font_2_1" transform="matrix(9.963197,0,0,-9.963098,147.83878,11.814941)" fill="#ff0000"/>
<use data-text="x" xlink:href="#font_1_5" transform="matrix(9.963197,0,0,-9.963098,151.713,11.814941)" fill="#ff0000"/>
<use data-text=")" xlink:href="#font_2_2" transform="matrix(9.963197,0,0,-9.963098,157.40734,11.814941)" fill="#ff0000"/>
<path transform="matrix(1.00006,0,0,-1.00005,120.556148,131.1259)" stroke-width=".79701" stroke-linecap="butt" stroke-miterlimit="10" stroke-linejoin="miter" fill="none" stroke="#00ff00" d="M28.3468 113.38724C28.3468 113.38724 28.51086 112.73172 28.57387 112.48064 28.63689 112.22954 28.73795 111.82756 28.80096 111.57748 28.86397 111.32741 28.96504 110.92723 29.02805 110.67824 29.09106 110.42924 29.19211 110.03087 29.25513 109.78288 29.31813 109.53491 29.41919 109.138 29.48221 108.89099 29.54523 108.64397 29.64629 108.24854 29.70929 108.00255 29.77231 107.75658 29.87335 107.36298 29.93637 107.11801 29.99937 106.87305 30.10045 106.48094 30.16345 106.23694 30.22647 105.99294 30.32753 105.60231 30.39053 105.35933 30.45355 105.11633 30.5546 104.72755 30.61761 104.4856 30.68062 104.24362 30.7817 103.85628 30.8447 103.61533 30.90771 103.37437 31.00877 102.98888 31.0718 102.74895 31.1348 102.50902 31.23584 102.12495 31.29886 101.88603 31.36188 101.64713 31.46294 101.26491 31.52594 101.02702 31.58896 100.78914 31.69002 100.40837 31.75304 100.17145 31.81604 99.93452 31.91711 99.55525 31.98012 99.31935 32.04314 99.08345 32.14418 98.70604 32.2072 98.47116 32.2702 98.23627 32.37126 97.86026 32.43428 97.6264 32.4973 97.39253 32.59836 97.0184 32.66136 96.78555 32.72438 96.5527 32.82542 96.18005 32.88844 95.94817 32.95145 95.71626 33.05252 95.3451 33.11552 95.11423 33.17854 94.88335 33.2796 94.51402 33.3426 94.28418 33.40562 94.05434 33.50667 93.68643 33.56969 93.45761 33.63269 93.22879 33.73376 92.86272 33.79677 92.63492 33.85979 92.40712 33.96085 92.04247 34.02386 91.81569 34.08687 91.5889 34.18791 91.22618 34.25093 91.00035 34.31395 90.77454 34.41501 90.41286 34.47801 90.18805 34.54103 89.96324 34.64209 89.60385 34.70511 89.38007 34.76811 89.15628 34.86919 88.79788 34.93219 88.5751 34.99521 88.35234 35.09625 87.99623 35.15927 87.77448 35.22227 87.55273 35.32333 87.19766 35.38635 86.97688 35.44937 86.7561 35.55043 86.40288 35.61343 86.18318 35.67645 85.96349 35.7775 85.6121 35.84052 85.39337 35.90352 85.17462 36.0046 84.82436 36.0676 84.60657 36.13062 84.3888 36.23167 84.04039 36.29468 83.82368 36.3577 83.60698 36.45874 83.26038 36.52176 83.0447 36.58476 82.82901 36.68584 82.48381 36.74884 82.26915 36.81186 82.05447 36.91292 81.71118 36.97594 81.4975 37.03894 81.2838 37.13998 80.94156 37.203 80.72888 37.26602 80.5162 37.36708 80.17624 37.43008 79.96458 37.4931 79.75293 37.59416 79.41402 37.65718 79.20332 37.72018 78.99261 37.82124 78.65556 37.88425 78.44594 37.94727 78.23631 38.04832 77.90106 38.11134 77.69246 38.17435 77.48386 38.2754 77.15009 38.33842 76.94243 38.40144 76.73479 38.5025 76.40251 38.5655 76.19588 38.62852 75.98926 38.72957 75.65881 38.79259 75.4532 38.85559 75.24759 38.95667 74.91864 39.01967 74.714 39.08269 74.50937 39.18375 74.18187 39.24677 73.97826 39.30977 73.77464 39.41081 73.44894 39.47383 73.24641 39.53683 73.04387 39.63791 72.71997 39.70091 72.51845 39.76393 72.31693 39.86499 71.99449 39.92801 71.79393 39.99101 71.59337 40.09206 71.2725 40.15508 71.0729 40.2181 70.8733 40.31915 70.5539 40.38216 70.35532 40.44518 70.15672 40.54623 69.83913 40.60925 69.64162 40.67226 69.44412 40.77332 69.1283 40.83632 68.93182 40.89934 68.73535 41.0004 68.421 41.06342 68.2255 41.12642 68.02998 41.22748 67.71718 41.2905 67.52261 41.35352 67.32806 41.45457 67.01668 41.51758 66.82321 41.5806 66.62973 41.68164 66.32059 41.74466 66.12813 41.80766 65.93567 41.90874 65.62756 41.97174 65.43605 42.03476 65.24455 42.13582 64.93837 42.19884 64.7479 42.26184 64.55742 42.36288 64.25264 42.4259 64.06319 42.4889 63.87372 42.58998 63.5708 42.65298 63.38237 42.716 63.19395 42.81706 62.89243 42.88008 62.70502 42.94308 62.51761 43.04413 62.21796 43.10715 62.03156 43.17017 61.84517 43.27122 61.547 43.33423 61.36156 43.39725 61.17613 43.4983 60.87943 43.56133 60.69502 43.62433 60.5106 43.72539 60.21576 43.78839 60.03236 43.85141 59.84897 43.95247 59.55562 44.01549 59.37317 44.07849 59.19073 44.17955 58.89886 44.24257 58.71745 44.30559 58.53603 44.40665 58.24596 44.46965 58.06563 44.53267 57.88528 44.63371 57.59697 44.69673 57.41766 44.75974 57.23836 44.86081 56.95154 44.92381 56.7732 44.98683 56.59485 45.08789 56.30951 45.15091 56.13217 45.21391 55.95483 45.31496 55.67136 45.37798 55.49504 45.44098 55.31873 45.54205 55.03673 45.60506 54.86137 45.66808 54.68602 45.76913 54.4055 45.83215 54.23117 45.89516 54.05682 45.9962 53.77817 46.05922 53.60484 46.12224 53.43152 46.2233 53.15428 46.2863 52.98201 46.34932 52.80972 46.45038 52.53432 46.5134 52.36304 46.5764 52.19176 46.67746 51.91777 46.74046 51.74753 46.80348 51.57729 46.90454 51.30515 46.96756 51.13593 47.03056 50.96669 47.13162 50.69604 47.19464 50.52779 47.25766 50.35951 47.3587 50.09035 47.4217 49.9231 47.48473 49.75584 47.58578 49.48853 47.6488 49.3223 47.7118 49.15607 47.81288 48.89024 47.87589 48.72496 47.9389 48.5597 48.03996 48.29533 48.10298 48.13109 48.16599 47.96683 48.26703 47.70425 48.33005 47.54109 48.39305 47.37793 48.49413 47.11716 48.55713 46.95502 48.62015 46.79286 48.7212 46.53357 48.78423 46.37238 48.84723 46.2112 48.94827 45.95338 49.01129 45.79321 49.07431 45.63304 49.17537 45.37709 49.23837 45.21794 49.30139 45.05879 49.40245 44.8043 49.46547 44.64612 49.52847 44.48793 49.62953 44.23494 49.69254 44.07776 49.75555 43.9206 49.85661 43.66945 49.91963 43.5133 49.98264 43.35715 50.0837 43.10742 50.14671 42.9523 50.20973 42.79718 50.31078 42.5493 50.37378 42.39519 50.4368 42.24109 50.53786 41.99464 50.60088 41.84155 50.66388 41.68846 50.76495 41.44385 50.82796 41.2918 50.89098 41.13972 50.99203 40.89659 51.05505 40.74548 51.11806 40.59438 51.2191 40.35275 51.28212 40.20265 51.34512 40.05257 51.4462 39.81279 51.5092 39.66371 51.57222 39.51465 51.67328 39.27635 51.7363 39.12825 51.7993 38.98013 51.90034 38.74332 51.96336 38.59622 52.02638 38.44913 52.12744 38.21408 52.19044 38.06808 52.25346 37.92209 52.35452 37.68883 52.41754 37.54385 52.48055 37.39886 52.5816 37.1671 52.6446 37.02307 52.70763 36.87904 52.80869 36.64883 52.8717 36.50577 52.93471 36.3627 53.03577 36.1339 53.09879 35.99191 53.1618 35.84991 53.26285 35.62334 53.32585 35.48236 53.38887 35.3414 53.48993 35.11588 53.55295 34.97586 53.61595 34.83586 53.71703 34.61224 53.78003 34.47327 53.84305 34.33429 53.9441 34.11208 54.00713 33.97412 54.07013 33.83617 54.17117 33.6158 54.23419 33.47885 54.2972 33.34192 54.39827 33.12305 54.46127 32.98708 54.52429 32.85109 54.62535 32.63368 54.68837 32.49872 54.75137 32.36375 54.85242 32.14816 54.91544 32.01428 54.97845 31.8804 55.07951 31.66666 55.14252 31.53374 55.20554 31.4008 55.3066 31.18811 55.36961 31.0562 55.43262 30.9243 55.53368 30.7139 55.59668 30.58301 55.6597 30.45212 55.76076 30.24277 55.82378 30.11285 55.88678 29.98293 55.98784 29.7754 56.05086 29.64658 56.11388 29.51773 56.21492 29.31207 56.27792 29.18419 56.34094 29.0563 56.442 28.85168 56.50502 28.72482 56.56802 28.59798 56.6691 28.39565 56.7321 28.2698 56.79512 28.14397 56.89616 27.94269 56.95918 27.81781 57.02219 27.69292 57.12325 27.4935 57.18626 27.36969 57.24927 27.2459 57.35034 27.04826 57.41335 26.92548 57.47636 26.80269 57.57742 26.60652 57.64044 26.48471 57.70345 26.3629 57.80449 26.16823 57.86751 26.04742 57.93053 25.92664 58.03159 25.7338 58.09459 25.61401 58.15761 25.49425 58.25867 25.3029 58.32169 25.18408 58.38469 25.06526 58.48575 24.8754 58.54875 24.7576 58.61177 24.6398 58.71283 24.45178 58.77585 24.335 58.83885 24.21822 58.93991 24.03165 59.00293 23.91588 59.06595 23.80013 59.16699 23.61539 59.23 23.50064 59.29301 23.3859 59.39407 23.20259 59.45709 23.08887 59.5201 22.97514 59.62117 22.79367 59.68417 22.68098 59.7472 22.56828 59.84824 22.38829 59.91125 22.27657 59.97426 22.16483 60.07532 21.98631 60.13834 21.8756 60.20134 21.76488 60.30241 21.58821 60.36542 21.47852 60.42844 21.36882 60.5295 21.19359 60.59251 21.08492 60.65552 20.97623 60.75656 20.80286 60.81958 20.69519 60.8826 20.58752 60.98366 20.41563 61.04666 20.30894 61.10968 20.20224 61.21074 20.0318 61.27376 19.92613 61.33676 19.82047 61.43782 19.65184 61.50082 19.54724 61.56384 19.44266 61.6649 19.27586 61.72792 19.17223 61.79092 19.06859 61.89198 18.90292 61.955 18.80025 62.01802 18.69757 62.11906 18.53375 62.18207 18.43216 62.24509 18.33057 62.34615 18.16855 62.40916 18.06796 62.47217 17.96739 62.57324 17.80684 62.63625 17.70723 62.69926 17.6076 62.80031 17.44855 62.86333 17.34995 62.92633 17.25134 63.02739 17.09415 63.09041 16.99657 63.15341 16.89899 63.25449 16.7432 63.31749 16.64665 63.38051 16.5501 63.48157 16.39615 63.54459 16.30061 63.60759 16.2051 63.70863 16.05261 63.77165 15.95804 63.83467 15.86346 63.93573 15.71248 63.99873 15.61893 64.06175 15.52538 64.16281 15.37625 64.22583 15.2837 64.28883 15.19118 64.3899 15.04347 64.4529 14.95197 64.51591 14.86044 64.61697 14.7146 64.68 14.6241 64.743 14.5336 64.84406 14.38922 64.90707 14.29968 64.9701 14.21014 65.07114 14.06725 65.13414 13.97874 65.19716 13.89024 65.29822 13.74918 65.36124 13.6617 65.42424 13.5742 65.52531 13.43457 65.58832 13.3481 65.65134 13.26164 65.75238 13.12386 65.8154 13.0384 65.8784 12.95296 65.97946 12.81667 66.04248 12.73216 66.10548 12.64767 66.20656 12.51288 66.26956 12.4294 66.33258 12.34593 66.43362 12.2129 66.49664 12.13052 66.55965 12.04813 66.66072 11.91696 66.72372 11.83553 66.78674 11.75409 66.8878 11.62402 66.9508 11.54355 67.01382 11.46309 67.11488 11.33487 67.1779 11.2555 67.2409 11.1761 67.34196 11.04967 67.40497 10.9713 67.46799 10.89294 67.56905 10.768 67.63206 10.6906 67.69507 10.61319 67.79613 10.48972 67.85915 10.41333 67.92216 10.33694 68.02321 10.21535 68.08621 10.13997 68.14923 10.0646 68.25029 9.94443 68.31331 9.87007 68.37631 9.79572 68.47739 9.67738 68.54039 9.60405 68.60341 9.53072 68.70445 9.41388 68.76747 9.3415 68.83047 9.26912 68.93153 9.15376 68.99455 9.08241 69.05756 9.01108 69.15863 8.89748 69.22163 8.82722 69.28465 8.75696 69.3857 8.64522 69.44872 8.57591 69.51172 8.5066 69.6128 8.39598 69.6758 8.32764 69.73882 8.2593 69.83987 8.15051 69.90288 8.08325 69.9659 8.01598 70.06696 7.90901 70.12997 7.84277 70.19298 7.77652 70.29404 7.67104 70.35704 7.60574 70.42006 7.54045 70.52112 7.43643 70.58414 7.37216 70.64714 7.30789 70.7482 7.20573 70.81122 7.14249 70.87424 7.07925 70.97528 6.97855 71.03828 6.91628 71.1013 6.85399 71.20236 6.75478 71.26538 6.69351 71.32838 6.63225 71.42946 6.53484 71.49246 6.47466 71.55548 6.41447 71.65652 6.31885 71.71954 6.25967 71.78255 6.20052 71.8836 6.10637 71.94662 6.04816 72.00963 5.98994 72.1107 5.89735 72.1737 5.8401 72.23672 5.78285 72.33777 5.69176 72.40079 5.63551 72.46379 5.57928 72.56487 5.48996 72.62787 5.43481 72.69089 5.37968 72.79195 5.29213 72.85495 5.23802 72.91797 5.1839 73.01901 5.09784 73.08203 5.04468 73.14503 4.99152 73.24611 4.90694 73.30911 4.8548 73.37213 4.80264 73.47319 4.71992 73.53621 4.6688 73.59921 4.61768 73.70027 4.53642 73.76329 4.48627 73.82631 4.4361 73.92735 4.35635 73.99036 4.3072 74.05338 4.25806 74.15443 4.18016 74.21745 4.13203 74.28046 4.0839 74.38153 4.00742 74.44453 3.96031 74.50755 3.9132 74.6086 3.83855 74.67162 3.79248 74.73462 3.7464 74.83568 3.67317 74.8987 3.62811 74.9617 3.58305 75.06277 3.51167 75.12578 3.46764 75.1888 3.4236 75.28984 3.35371 75.35286 3.31064 75.41586 3.26755 75.51694 3.19914 75.57994 3.15707 75.64296 3.11502 75.74402 3.04846 75.80702 3.00742 75.87004 2.96637 75.97108 2.90125 76.0341 2.86122 76.0971 2.8212 76.19818 2.75792 76.26118 2.71892 76.3242 2.6799 76.42526 2.6181 76.48828 2.58008 76.55128 2.54204 76.65234 2.4817 76.71536 2.44469 76.77838 2.40767 76.87943 2.3492 76.94243 2.3132 77.00545 2.2772 77.1065 2.22015 77.16953 2.18517 77.23253 2.15019 77.3336 2.09499 77.3966 2.06104 77.45963 2.02707 77.56067 1.97336 77.62369 1.94035 77.68669 1.90735 77.78775 1.85512 77.85077 1.82314 77.91377 1.79115 78.01485 1.7407 78.07785 1.70981 78.14087 1.6789 78.24191 1.63031 78.30493 1.60039 78.36794 1.57045 78.46901 1.52295 78.53201 1.49397 78.59503 1.465 78.69609 1.41936 78.7591 1.39146 78.82211 1.36357 78.92316 1.31972 78.98618 1.29285 79.04918 1.26596 79.15025 1.2236 79.21326 1.19768 79.27628 1.17177 79.37733 1.13089 79.44035 1.10599 79.50336 1.08109 79.60442 1.04205 79.66743 1.01817 79.73045 .9943 79.8315 .9567 79.8945 .93384 79.95752 .91096 80.05858 .87523 80.1216 .85338 80.1846 .83154 80.28568 .79726 80.34868 .77638 80.4117 .75551 80.51274 .7227 80.57576 .70285 80.63876 .683 80.73982 .65205 80.80284 .63321 80.86584 .61438 80.96692 .58485 81.02992 .56705 81.09294 .54922 81.19398 .52156 81.257 .50476 81.32 .48796 81.42108 .46176 81.48409 .44592 81.5471 .43008 81.64816 .40538 81.71117 .39056 81.77419 .37573 81.87523 .35281 81.93825 .33908 82.00125 .32536 82.10233 .30429 82.16533 .29152 82.22835 .27875 82.3294 .25871 82.39243 .24696 82.45543 .23521 82.55647 .21747 82.61949 .20674 82.68251 .196 82.78357 .17932 82.84657 .16954 82.90959 .15976 83.01065 .14499 83.07367 .13623 83.13667 .12747 83.23775 .11414 83.30075 .10638 83.36377 .09865 83.46481 .08716 83.52783 .08044 83.59084 .07372 83.6919 .06364 83.75491 .05794 83.81792 .05225 83.91899 .04402 83.982 .03935 84.04501 .03468 84.14606 .02792 84.20908 .02422 84.27208 .0205 84.37315 .01523 84.43616 .01253 84.49918 .00984 84.60023 .00641 84.66324 .00473 84.72626 .00307 84.8273 .00107 84.89032 .00041 84.95332-.00021 85.0544-.00034 85.1174 0 85.18042 .00034 85.28148 .00165 85.3445 .00302 85.4075 .00438 85.50854 .00761 85.57156 .00993 85.63458 .01225 85.73564 .01651 85.79865 .01988 85.86166 .02324 85.96272 .02977 86.02574 .03415 86.08875 .03853 86.18982 .04605 86.25282 .05145 86.31584 .05685 86.41689 .06667 86.4799 .07309 86.54291 .0795 86.64397 .09036 86.70699 .09775 86.76999 .10512 86.87106 .1179 86.93407 .1263 86.99709 .13469 87.09813 .14888 87.16115 .1583 87.22415 .1677 87.32523 .18376 87.38823 .1942 87.45125 .20462 87.5523 .2221 87.61531 .23355 87.67833 .245 87.77937 .26433 87.84239 .27681 87.9054 .28929 88.00647 .31009 88.06947 .32352 88.13249 .33696 88.23355 .35925 88.29657 .3737 88.35957 .38815 88.46062 .4123 88.52364 .42776 88.58665 .44324 88.68771 .4688 88.75072 .48529 88.81374 .50179 88.9148 .5292 88.97781 .54672 89.04082 .56422 89.14189 .59312 89.2049 .6116 89.26791 .63007 89.36896 .66043 89.43198 .67993 89.49498 .69943 89.59604 .73158 89.65906 .75217 89.72208 .77275 89.82314 .80676 89.88614 .82831 89.94916 .84984 90.0502 .88495 90.11322 .90744 90.17622 .92995 90.2773 .96692 90.3403 .9905 90.40332 1.01407 90.50438 1.05284 90.56738 1.07744 90.6304 1.10204 90.73145 1.14229 90.79446 1.16783 90.85747 1.19339 90.95854 1.23512 91.02155 1.26169 91.08456 1.28827 91.18562 1.33185 91.24864 1.35945 91.31165 1.38704 91.41269 1.43204 91.47571 1.46066 91.53873 1.48929 91.63979 1.53612 91.70279 1.56577 91.76581 1.59541 91.86687 1.64374 91.92989 1.67433 91.99289 1.70494 92.09395 1.75475 92.15695 1.78636 92.21997 1.81798 92.32103 1.86966 92.38405 1.9023 92.44705 1.93494 92.54811 1.98802 92.61113 2.02167 92.67415 2.05533 92.7752 2.11028 92.83821 2.14494 92.90123 2.17963 93.00227 2.23604 93.06529 2.27167 93.1283 2.3073 93.22937 2.3652 93.29237 2.40187 93.3554 2.43854 93.45645 2.49828 93.51945 2.53595 93.58247 2.57364 93.68352 2.6348 93.74654 2.67351 93.80954 2.7122 93.91061 2.77522 93.97362 2.81494 94.03664 2.85466 94.1377 2.91911 94.20071 2.95985 94.26372 3.0006 94.36476 3.06686 94.42778 3.10863 94.4908 3.15039 94.59186 3.21817 94.65486 3.2609 94.71788 3.3036 94.81894 3.37286 94.88196 3.41661 94.94496 3.46034 95.04602 3.53146 95.10902 3.57622 95.17204 3.62097 95.2731 3.69354 95.33612 3.73927 95.39912 3.785 95.50018 3.85905 95.5632 3.9058 95.62622 3.95255 95.72728 4.0284 95.79028 4.07622 95.8533 4.12404 95.95435 4.20169 96.01736 4.25053 96.08037 4.2994 96.18144 4.37851 96.24445 4.42831 96.30746 4.47812 96.40852 4.55878 96.47153 4.60954 96.53455 4.6603 96.63559 4.7424 96.69861 4.79424 96.76161 4.84608 96.86269 4.93039 96.92569 4.98326 96.98871 5.03613 97.08977 5.12148 97.15279 5.17531 97.21579 5.22914 97.31683 5.31639 97.37985 5.37125 97.44287 5.4261 97.54393 5.51477 97.60693 5.57063 97.66995 5.62651 97.77101 5.71704 97.83403 5.77393 97.89703 5.83081 97.9981 5.92285 98.0611 5.9807 98.12411 6.03854 98.22517 6.13205 98.2882 6.1909 98.3512 6.24977 98.45226 6.34508 98.51527 6.40501 98.5783 6.46495 98.67935 6.5621 98.74236 6.623 98.80537 6.68391 98.90642 6.78209 98.96944 6.84402 99.03244 6.90596 99.13351 7.00644 99.19652 7.06938 99.25954 7.13234 99.3606 7.23386 99.4236 7.29776 99.48662 7.36168 99.58766 7.4651 99.65068 7.53003 99.71368 7.59496 99.81476 7.69983 99.87776 7.76578 99.94078 7.83171 100.04184 7.93843 100.10486 8.0054 100.16786 8.07236 100.2689 8.1805 100.33192 8.24847 100.39494 8.31647 100.496 8.42647 100.559 8.49547 100.62202 8.56447 100.72308 8.67589 100.7861 8.74591 100.8491 8.81592 100.95016 8.92924 101.01317 9.00023 101.07619 9.07123 101.17725 9.1856 101.24026 9.2576 101.30327 9.32962 101.40433 9.44624 101.46735 9.51927 101.53036 9.5923 101.63141 9.71 101.69441 9.784 101.75743 9.85799 101.85849 9.97754 101.92151 10.0526 101.98451 10.12767 102.08559 10.24901 102.14859 10.3251 102.21161 10.40118 102.31267 10.52402 102.37567 10.60106 102.43869 10.6781 102.53973 10.8024 102.60275 10.88048 102.66576 10.95856 102.76683 11.0847 102.82983 11.16379 102.89285 11.24289 102.99391 11.37045 103.05693 11.45056 103.11993 11.53067 103.22098 11.6601 103.284 11.74123 103.34702 11.82236 103.44807 11.95326 103.51108 12.03535 103.5741 12.11745 103.67516 12.24983 103.73817 12.33295 103.80118 12.41606 103.90224 12.5503 103.96524 12.63441 104.02826 12.71855 104.12932 12.8542 104.19234 12.93935 104.25534 13.0245 104.3564 13.16203 104.41942 13.2482 104.48244 13.33437 104.58348 13.47334 104.64648 13.56047 104.7095 13.64761 104.81056 13.78809 104.87358 13.87624 104.93658 13.96439 105.03766 14.10672 105.10066 14.19589 105.16368 14.28506 105.26474 14.4288 105.32774 14.519 105.39076 14.60919 105.4918 14.75478 105.55482 14.846 105.61783 14.9372 105.7189 15.08427 105.7819 15.17645 105.84492 15.26862 105.94598 15.41718 106.009 15.51036 106.072 15.60355 106.17305 15.75389 106.23607 15.84818 106.29909 15.94246 106.40015 16.09465 106.46315 16.18988 106.52617 16.28513 106.62723 16.43837 106.69025 16.53462 106.75325 16.63087 106.85431 16.78639 106.91731 16.88367 106.98033 16.98096 107.08139 17.13751 107.14441 17.23575 107.20741 17.33398 107.30847 17.49248 107.37149 17.59174 107.43451 17.691 107.53555 17.8509 107.59856 17.95117 107.66158 18.05144 107.76263 18.21323 107.82565 18.31451 107.88866 18.4158 107.98973 18.57898 108.05273 18.68129 108.11575 18.7836 108.21681 18.94864 108.27982 19.05197 108.34283 19.15532 108.44388 19.32182 108.5069 19.42613 108.5699 19.53043 108.67097 19.69841 108.73398 19.80373 108.797 19.90906 108.89806 20.07884 108.96107 20.18524 109.02408 20.29164 109.12512 20.46327 109.18814 20.57063 109.25116 20.67798 109.35222 20.85074 109.41522 20.95905 109.47824 21.06737 109.5793 21.24196 109.64232 21.35135 109.70532 21.46075 109.80638 21.63715 109.86938 21.74756 109.9324 21.85797 110.03346 22.03584 110.09648 22.14722 110.15948 22.2586 110.26054 22.43794 110.32356 22.55035 110.38658 22.66275 110.48763 22.84395 110.55063 22.95737 110.61365 23.07079 110.7147 23.25346 110.77773 23.36784 110.84073 23.48222 110.9418 23.66638 111.0048 23.78178 111.06783 23.89719 111.16887 24.08315 111.23187 24.19963 111.29489 24.3161 111.39595 24.50385 111.45897 24.62134 111.52197 24.73885 111.62305 24.92807 111.68605 25.04652 111.74907 25.16498 111.85013 25.35576 111.91315 25.47517 111.97615 25.5946 112.0772 25.78683 112.14021 25.90727 112.20323 26.02773 112.30429 26.22174 112.3673 26.34328 112.43031 26.4648 112.53137 26.66063 112.59439 26.78317 112.6574 26.90572 112.75845 27.10303 112.82146 27.22652 112.88448 27.35002 112.98553 27.54881 113.04855 27.67334 113.11156 27.79785 113.21262 27.99849 113.27563 28.12404 113.33865 28.24957 113.4397 28.4517 113.5027 28.5782 113.56572 28.7047 113.66678 28.90833 113.7298 29.03583 113.7928 29.16335 113.89388 29.3688 113.95688 29.49734 114.0199 29.6259 114.12094 29.83275 114.18394 29.96231 114.24696 30.09189 114.34802 30.30061 114.41104 30.4312 114.47404 30.56178 114.57512 30.77193 114.63812 30.90353 114.70114 31.03514 114.8022 31.24713 114.86522 31.37975 114.92822 31.51237 115.02927 31.72585 115.09229 31.85944 115.1553 31.99301 115.25636 32.20798 115.31937 32.34258 115.38239 32.47717 115.48344 32.694 115.54646 32.82962 115.60947 32.96524 115.71053 33.18346 115.77353 33.32011 115.83655 33.45677 115.9376 33.67685 116.00063 33.81451 116.06363 33.95218 116.16469 34.17374 116.2277 34.31236 116.29073 34.45099 116.39177 34.67401 116.45477 34.81366 116.51779 34.95331 116.61885 35.1782 116.68187 35.31886 116.74487 35.45953 116.84595 35.68587 116.90895 35.82755 116.97197 35.96922 117.07301 36.19739 117.13602 36.34009 117.19904 36.48279 117.3001 36.71245 117.36311 36.85611 117.42612 36.99977 117.52719 37.2309 117.5902 37.3756 117.65321 37.52028 117.75426 37.75325 117.81728 37.89897 117.88028 38.04468 117.98134 38.27907 118.04436 38.4258 118.10738 38.57253 118.20844 38.80878 118.27144 38.95653 118.33446 39.10426 118.43552 39.34193 118.49854 39.4907 118.56154 39.63947 118.6626 39.879 118.7256 40.02878 118.78862 40.17856 118.88968 40.41957 118.9527 40.57031 119.0157 40.72105 119.11676 40.96355 119.17978 41.11531 119.2428 41.26707 119.34384 41.51141 119.40685 41.6642 119.46986 41.817 119.57092 42.06274 119.63394 42.21655 119.69695 42.37036 119.79802 42.61797 119.86102 42.7728 119.92404 42.92763 120.02509 43.17671 120.0881 43.3325 120.15111 43.4883 120.25217 43.73886 120.31519 43.89568 120.37819 44.05249 120.47926 44.3049 120.54227 44.46272 120.60529 44.62054 120.70633 44.87439 120.76935 45.03323 120.83235 45.19208 120.93341 45.4478 120.99643 45.60767 121.05945 45.76752 121.1605 46.02472 121.22351 46.18553 121.28653 46.34636 121.38759 46.605 121.4506 46.76686 121.51361 46.92871 121.61467 47.18921 121.67767 47.35208 121.74069 47.51497 121.84175 47.77687 121.90477 47.94077 121.96777 48.10466 122.06883 48.36842 122.13185 48.53334 122.19487 48.69826 122.29591 48.96346 122.35892 49.12938 122.42194 49.2953 122.523 49.56236 122.58601 49.72931 122.64902 49.89626 122.75009 50.1648 122.8131 50.33269 122.87611 50.5006 122.97716 50.77061 123.04018 50.93956 123.10318 51.10849 123.20424 51.38034 123.26726 51.5503 123.33026 51.72026 123.43134 51.99353 123.49434 52.1645 123.55736 52.33548 123.6584 52.61061 123.72142 52.7826 123.78442 52.95459 123.88548 53.2312 123.9485 53.40414 124.01152 53.5771 124.11258 53.85521 124.17558 54.02917 124.2386 54.20316 124.33966 54.4831 124.40268 54.65808 124.46568 54.83307 124.56674 55.11444 124.62975 55.29045 124.69276 55.46646 124.79382 55.7497 124.85684 55.92671 124.91985 56.10374 125.0209 56.38843 125.08392 56.56644 125.14694 56.74443 125.24799 57.03061 125.31099 57.20963 125.37401 57.38864 125.47507 57.67667 125.53809 57.8567 125.60109 58.03674 125.70216 58.32619 125.76517 58.50723 125.82819 58.6883 125.92923 58.9796 125.99225 59.16167 126.05525 59.34375 126.15631 59.63646 126.21933 59.81955 126.28233 60.00264 126.3834 60.29723 126.44641 60.48134 126.50943 60.66545 126.61047 60.9615 126.6735 61.14658 126.7365 61.33165 126.83755 61.62918 126.90057 61.81528 126.9636 62.00139 127.06465 62.30075 127.12766 62.48787 127.19067 62.675 127.29172 62.9758 127.35474 63.16394 127.41774 63.35208 127.51881 63.65474 127.58182 63.84389 127.64484 64.03305 127.7459 64.33719 127.80891 64.5273 127.87192 64.7174 127.97298 65.02304 128.036 65.21417 128.09902 65.4053 128.20006 65.71278 128.26306 65.90494 128.32608 66.09709 128.42714 66.40599 128.49016 66.59917 128.55316 66.79233 128.65424 67.10309 128.71724 67.29729 128.78026 67.49147 128.8813 67.8037 128.94432 67.99886 129.00733 68.19402 129.10839 68.5077 129.1714 68.70389 129.2344 68.90007 129.33548 69.21562 129.39849 69.41281 129.4615 69.61002 129.56255 69.927 129.62557 70.12521 129.68857 70.32343 129.78963 70.64224 129.85265 70.84149 129.91567 71.04073 130.01673 71.36098 130.07973 71.56123 130.14275 71.76149 130.24379 72.08359 130.30681 72.28487 130.36981 72.48615 130.47089 72.80972 130.53389 73.01196 130.59691 73.2142 130.69797 73.53926 130.76099 73.74252 130.82399 73.94579 130.92505 74.27269 130.98807 74.47697 131.05109 74.68126 131.15213 75.00964 131.21514 75.21487 131.27816 75.42012 131.37921 75.74998 131.44223 75.95625 131.50524 76.1625 131.60631 76.49417 131.66931 76.7015 131.73233 76.90886 131.83338 77.24231 131.8964 77.45067 131.9594 77.65903 132.06046 77.99397 132.12348 78.2033 132.18648 78.4126 132.28755 78.74908 132.35056 78.95935 132.41358 79.16963 132.51462 79.50758 132.57764 79.71889 132.64064 79.9302 132.7417 80.26993 132.80472 80.48232 132.86774 80.6947 132.9688 81.03625 133.0318 81.24965 133.09482 81.46306 133.19586 81.80606 133.25888 82.02043 133.32189 82.23479 133.42296 82.5793 133.48596 82.79468 133.54898 83.01006 133.65004 83.35641 133.71306 83.57281 133.77606 83.78922 133.87712 84.13704 133.94014 84.3544 134.00316 84.57176 134.1042 84.92108 134.1672 85.13947 134.23023 85.35783 134.33129 85.70894 134.3943 85.92842 134.4573 86.14789 134.55838 86.50082 134.62139 86.72125 134.6844 86.94168 134.78545 87.29575 134.84847 87.51714 134.91147 87.73851 135.01253 88.09442 135.07555 88.3169 135.13855 88.53935 135.23963 88.89706 135.30263 89.12054 135.36565 89.34402 135.46669 89.70322 135.52971 89.92766 135.59272 90.1521 135.69377 90.51277 135.75679 90.73824 135.81981 90.96368 135.92087 91.32623 135.98387 91.5527 136.04689 91.77919 136.14794 92.14314 136.21096 92.37064 136.27396 92.59813 136.37503 92.96393 136.43804 93.19246 136.50106 93.42099 136.60211 93.7882 136.66513 94.01773 136.72814 94.24728 136.82918 94.61641 136.8922 94.84691 136.95522 95.07742 137.05628 95.44759 137.11928 95.67912 137.1823 95.91064 137.28336 96.28311 137.34638 96.51566 137.40938 96.7482 137.51045 97.1217 137.57346 97.35521 137.63648 97.58871 137.73752 97.96407 137.80054 98.19864 137.86354 98.43323 137.9646 98.81038 138.02762 99.04599 138.09062 99.2816 138.1917 99.66023 138.2547 99.8968 138.31772 100.13338 138.41876 100.51347 138.48178 100.75105 138.54479 100.98865 138.64585 101.3706 138.70886 101.6092 138.77188 101.84782 138.87294 102.2312 138.93595 102.47083 138.99897 102.71045 139.1 103.09569 139.16303 103.33633 139.22603 103.57698 139.3271 103.96371 139.3901 104.2053 139.45313 104.44691 139.55419 104.83511 139.6172 105.07774 139.6802 105.32036 139.78125 105.71042 139.84427 105.95406 139.90729 106.1977 140.00835 106.58917 140.07135 106.83385 140.13437 107.07852 140.23543 107.47182 140.29845 107.71751 140.36145 107.96321 140.46253 108.358 140.52553 108.60466 140.58855 108.85132 140.68959 109.24757 140.75261 109.49525 140.81562 109.74292 140.91667 110.14105 140.97969 110.38974 141.0427 110.63843 141.14377 111.03798 141.20677 111.28769 141.26979 111.5374 141.37084 111.9388 141.43386 112.18953 141.49686 112.44026 141.66094 113.09482 141.66094 113.09482"/>
<use data-text="y" xlink:href="#font_1_6" transform="matrix(9.963197,0,0,-9.963098,265.94486,11.814941)" fill="#00ff00"/>
<use data-text="=" xlink:href="#font_2_6" transform="matrix(9.963197,0,0,-9.963098,273.95533,11.814941)" fill="#00ff00"/>
<use data-text="h" xlink:href="#font_1_4" transform="matrix(9.963197,0,0,-9.963098,284.472,11.814941)" fill="#00ff00"/>
<use data-text="(" xlink:href="#font_2_1" transform="matrix(9.963197,0,0,-9.963098,290.2123,11.814941)" fill="#00ff00"/>
<use data-text="x" xlink:href="#font_1_5" transform="matrix(9.963197,0,0,-9.963098,294.08656,11.814941)" fill="#00ff00"/>
<use data-text=")" xlink:href="#font_2_2" transform="matrix(9.963197,0,0,-9.963098,299.78089,11.814941)" fill="#00ff00"/>
<use data-text="&#x2022;" xlink:href="#font_3_2" transform="matrix(9.963197,0,0,-9.963098,118.064998,133.34001)"/>
<use data-text="(" xlink:href="#font_2_1" transform="matrix(9.963197,0,0,-9.963098,124.076358,142.11846)"/>
<use data-text="0" xlink:href="#font_2_3" transform="matrix(9.963197,0,0,-9.963098,127.94208,142.11846)"/>
<use data-text="," xlink:href="#font_1_1" transform="matrix(9.963197,0,0,-9.963098,132.93289,142.11846)"/>
<use data-text="0" xlink:href="#font_2_3" transform="matrix(9.963197,0,0,-9.963098,137.36115,142.11846)"/>
<use data-text=")" xlink:href="#font_2_2" transform="matrix(9.963197,0,0,-9.963098,142.34275,142.11846)"/>
<use data-text="&#x2022;" xlink:href="#font_3_2" transform="matrix(9.963197,0,0,-9.963098,61.368608,133.34001)"/>
<use data-text="(" xlink:href="#font_2_1" transform="matrix(9.963197,0,0,-9.963098,67.37895,142.11846)"/>
<use data-text="&#x2212;" xlink:href="#font_3_1" transform="matrix(9.963197,0,0,-9.963098,71.25418,142.11846)"/>
<use data-text="2" xlink:href="#font_2_4" transform="matrix(9.963197,0,0,-9.963098,79.002658,142.11846)"/>
<use data-text="," xlink:href="#font_1_1" transform="matrix(9.963197,0,0,-9.963098,83.98494,142.11846)"/>
<use data-text="0" xlink:href="#font_2_3" transform="matrix(9.963197,0,0,-9.963098,88.41321,142.11846)"/>
<use data-text=")" xlink:href="#font_2_2" transform="matrix(9.963197,0,0,-9.963098,93.39479,142.11846)"/>
<use data-text="&#x2022;" xlink:href="#font_3_2" transform="matrix(9.963197,0,0,-9.963098,203.1111,133.34001)"/>
<use data-text="(" xlink:href="#font_2_1" transform="matrix(9.963197,0,0,-9.963098,209.12146,142.11846)"/>
<use data-text="3" xlink:href="#font_2_5" transform="matrix(9.963197,0,0,-9.963098,212.98719,142.11846)"/>
<use data-text="," xlink:href="#font_1_1" transform="matrix(9.963197,0,0,-9.963098,217.978,142.11846)"/>
<use data-text="0" xlink:href="#font_2_3" transform="matrix(9.963197,0,0,-9.963098,222.40625,142.11846)"/>
<use data-text=")" xlink:href="#font_2_2" transform="matrix(9.963197,0,0,-9.963098,227.38785,142.11846)"/>
</svg>
