<svg xmlns="http://www.w3.org/2000/svg" xmlns:xlink="http://www.w3.org/1999/xlink" version="1.1" width="307" height="167" viewBox="0 0 307 167">
<defs>
<path id="font_1_2" d="M.33399964 .30233766C.33999635 .32835389 .36299134 .42037965 .43299867 .42037965 .43798829 .42037965 .46199037 .42037965 .48298646 .40734864 .45498658 .402359 .43499757 .37734986 .43499757 .35334779 .43499757 .33735658 .44599916 .31835938 .47299195 .31835938 .49499513 .31835938 .5269928 .3363495 .5269928 .37635804 .5269928 .42837525 .46798707 .4423828 .43399049 .4423828 .37599183 .4423828 .34098817 .38935853 .32899476 .36634828 .3039856 .43237306 .25 .4423828 .22099304 .4423828 .116989139 .4423828 .05999756 .3133545 .05999756 .28834535 .05999756 .27833558 .069992069 .27833558 .07199097 .27833558 .07998657 .27833558 .08299255 .28033448 .084991458 .28933717 .11898804 .39535523 .18499756 .42037965 .21899414 .42037965 .23799134 .42037965 .272995 .4113617 .272995 .35334779 .272995 .32235719 .2559967 .25532533 .21899414 .11528015 .20298767 .053268434 .16799927 .011245728 .12399292 .011245728 .117996219 .011245728 .09498596 .011245728 .07398987 .024276734 .09899902 .029266358 .12098694 .05027771 .12098694 .07827759 .12098694 .105270389 .09899902 .11328125 .083999637 .11328125 .053985597 .11328125 .0289917 .08728027 .0289917 .055267335 .0289917 .009246826 .07899475-.0107421879 .12298584-.0107421879 .18899536-.0107421879 .22499085 .059280397 .22799683 .0652771 .23999024 .028274537 .27598573-.0107421879 .33599855-.0107421879 .43899537-.0107421879 .49598695 .118270877 .49598695 .14328003 .49598695 .1532898 .4869995 .1532898 .48399354 .1532898 .47499085 .1532898 .47299195 .14929199 .47099305 .14228821 .43798829 .03527832 .36999513 .011245728 .33799745 .011245728 .29899598 .011245728 .2829895 .043273927 .2829895 .07727051 .2829895 .09927368 .2889862 .121276859 .2999878 .16529846L.33399964 .30233766Z"/>
<path id="font_1_3" d="M.48599244 .38136292C.48999024 .39537049 .48999024 .39736939 .48999024 .40437318 .48999024 .42237855 .47599793 .43138124 .46099855 .43138124 .45098878 .43138124 .43499757 .42536927 .42599488 .41036988 .42399598 .405365 .41600038 .37435914 .4119873 .35635377 .40499879 .33035279 .397995 .30334474 .3919983 .27633668L.34700013 .09628296C.34298707 .08126831 .2999878 .011245728 .23399353 .011245728 .18299866 .011245728 .17199707 .055267335 .17199707 .0922699 .17199707 .1382904 .18899536 .20030213 .22299195 .28833009 .23899842 .3293457 .24299622 .3403473 .24299622 .36035157 .24299622 .405365 .21099854 .4423828 .16099549 .4423828 .06599426 .4423828 .0289917 .29733277 .0289917 .28833009 .0289917 .27833558 .038986207 .27833558 .040985109 .27833558 .050994874 .27833558 .051986696 .28033448 .056991579 .29634095 .083999637 .3903656 .12399292 .42037965 .1579895 .42037965 .1659851 .42037965 .18299866 .42037965 .18299866 .3883667 .18299866 .36335755 .17298889 .3373413 .1659851 .31834413 .12599182 .21231079 .10798645 .1552887 .10798645 .10827637 .10798645 .019256592 .17098999-.0107421879 .22999573-.0107421879 .2689972-.0107421879 .30299378 .0062561037 .33099366 .03425598 .31799317-.017745972 .30599977-.06674194 .2659912-.11973572 .23999024-.15385437 .20199585-.18309021 .1559906-.18309021 .14199829-.18309021 .09700012-.18005371 .07998657-.14074707 .09599304-.14074707 .10899353-.14074707 .12298584-.1287384 .1329956-.11973572 .14299011-.10673523 .14299011-.08773804 .14299011-.056747438 .115997318-.052734376 .10598755-.052734376 .08299255-.052734376 .049987794-.068740848 .049987794-.11773682 .049987794-.16796875 .09399414-.20507813 .1559906-.20507813 .25898744-.20507813 .3619995-.11373901 .3899994-.00074768069L.48599244 .38136292Z"/>
<clipPath id="clip_2">
<path transform="matrix(1.00008,0,0,-1.00006,148.90847,159.47679)" d="M-141.73404 0V141.73404H141.73404V0ZM141.73404 141.73404"/>
</clipPath>
<path id="font_3_1" d="M.44400025 .24998474C.44400025 .35688783 .35499574 .44381715 .25 .44381715 .14199829 .44381715 .054992677 .35488893 .054992677 .24998474 .054992677 .14407349 .14199829 .056137086 .25 .056137086 .35499574 .056137086 .44400025 .14308167 .44400025 .24998474Z"/>
<path id="font_4_1" d="M.33099366-.2400055C.33099366-.23701477 .33099366-.23500061 .31399537-.21800232 .18899536-.0920105 .15699768 .09700012 .15699768 .25 .15699768 .42399598 .19499207 .59799197 .31799317 .72299197 .33099366 .73498538 .33099366 .7369995 .33099366 .73999026 .33099366 .746994 .32699586 .75 .32099916 .75 .31098939 .75 .22099304 .6819916 .1619873 .5549927 .11099243 .44499208 .09899902 .33399964 .09899902 .25 .09899902 .17199707 .10998535 .050994874 .16499329-.06201172 .22499085-.18501282 .31098939-.25 .32099916-.25 .32699586-.25 .33099366-.24700928 .33099366-.2400055Z"/>
<path id="font_4_3" d="M.45999146 .31976319C.45999146 .39982606 .45498658 .47988893 .41999818 .5539398 .37399293 .65000918 .2919922 .6660156 .25 .6660156 .18998719 .6660156 .116989139 .64001467 .07598877 .54693606 .04399109 .47789 .038986207 .39982606 .038986207 .31976319 .038986207 .24472046 .042999269 .15464783 .083999637 .07859802 .1269989-.0024719239 .19999695-.022460938 .24899292-.022460938 .30299378-.022460938 .3789978-.0014648438 .4229889 .09359741 .45498658 .16265869 .45999146 .2407074 .45999146 .31976319M.24899292-.00047302247C.20999146-.00047302247 .15098572 .024551392 .1329956 .12062073 .12199402 .18066406 .12199402 .2727356 .12199402 .3317871 .12199402 .39582826 .12199402 .46188355 .12998963 .5159149 .14898682 .63500979 .22399903 .64401248 .24899292 .64401248 .28199769 .64401248 .34799195 .6259918 .36698915 .52693179 .3769989 .47088624 .3769989 .39482118 .3769989 .3317871 .3769989 .25672914 .3769989 .18867493 .3659973 .12461853 .35099793 .029556275 .2939911-.00047302247 .24899292-.00047302247Z"/>
<path id="font_1_1" d="M.20298767 .0009918213C.20298767 .066986087 .17799378 .10598755 .13899231 .10598755 .10598755 .10598755 .085998538 .08099365 .085998538 .052993776 .085998538 .025985718 .10598755 0 .13899231 0 .15098572 0 .1639862 .0039978029 .17399597 .0129852299 .1769867 .01499939 .17799378 .015991211 .1789856 .015991211 .17999268 .015991211 .18099976 .01499939 .18099976 .0009918213 .18099976-.07316589 .1459961-.13328552 .11299133-.16635132 .101989749-.17736817 .101989749-.17936707 .101989749-.18237305 .101989749-.18936157 .10699463-.19335938 .11199951-.19335938 .12298584-.19335938 .20298767-.116256717 .20298767 .0009918213Z"/>
<path id="font_4_4" d="M.2939911 .64004519C.2939911 .66400149 .2939911 .6660156 .2709961 .6660156 .20899964 .60227969 .12098694 .60227969 .08898926 .60227969V.57128909C.10899353 .57128909 .16799927 .57128909 .21998596 .5972748V.07902527C.21998596 .042999269 .21699524 .0309906 .1269989 .0309906H.09498596V0C.12998963 .0029907227 .21699524 .0029907227 .25698854 .0029907227 .29699708 .0029907227 .38398744 .0029907227 .4189911 0V.0309906H.3869934C.29699708 .0309906 .2939911 .041992189 .2939911 .07902527V.64004519Z"/>
<path id="font_4_2" d="M.2889862 .25C.2889862 .32798768 .27799989 .44898988 .22299195 .56199648 .16299439 .68499758 .07699585 .75 .066986087 .75 .06098938 .75 .056991579 .74598696 .056991579 .73999026 .056991579 .7369995 .056991579 .73498538 .07598877 .71699526 .17399597 .6179962 .23098755 .45899964 .23098755 .25 .23098755 .07899475 .19400025-.09700012 .069992069-.2230072 .056991579-.23500061 .056991579-.23701477 .056991579-.2400055 .056991579-.2460022 .06098938-.25 .066986087-.25 .07699585-.25 .16699219-.18200684 .22599793-.055007936 .2769928 .054992677 .2889862 .16600037 .2889862 .25Z"/>
</defs>
<path transform="matrix(1.00008,0,0,-1.00006,148.90847,159.47679)" stroke-width=".19925" stroke-linecap="butt" stroke-miterlimit="10" stroke-linejoin="miter" fill="none" stroke="#929292" d="M-141.73404 0H141.73404M-141.73404 28.3468H141.73404M-141.73404 56.69362H141.73404M-141.73404 85.04042H141.73404M-141.73404 113.38724H141.73404M-141.73404 141.72409H141.73404M-141.73404 0V141.73404M-113.38724 0V141.73404M-85.04042 0V141.73404M-56.69362 0V141.73404M-28.3468 0V141.73404M0 0V141.73404M28.3468 0V141.73404M56.69362 0V141.73404M85.04042 0V141.73404M113.38724 0V141.73404M141.72409 0V141.73404M141.73404 141.73404"/>
<path transform="matrix(1.00008,0,0,-1.00006,148.90847,159.47679)" stroke-width="1.19553" stroke-linecap="butt" stroke-miterlimit="10" stroke-linejoin="miter" fill="none" stroke="#000000" d="M-147.40332 0H146.4469"/>
<path transform="matrix(1.00008,0,0,-1.00006,295.36708,159.47679)" stroke-width=".9564" stroke-linecap="round" stroke-linejoin="round" fill="none" stroke="#000000" d="M-1.91284 2.55046C-1.75343 1.59402 0 .15938 .4782 0 0-.15938-1.75343-1.59402-1.91284-2.55046"/>
<use data-text="x" xlink:href="#font_1_2" transform="matrix(9.963397,0,0,-9.963197,300.24256,161.62192)"/>
<path transform="matrix(1.00008,0,0,-1.00006,148.90847,159.47679)" stroke-width="1.19553" stroke-linecap="butt" stroke-miterlimit="10" stroke-linejoin="miter" fill="none" stroke="#000000" d="M0-5.66927V146.4469"/>
<path transform="matrix(0,-1.00006,-1.00008,-0,148.90847,13.021118)" stroke-width=".9564" stroke-linecap="round" stroke-linejoin="round" fill="none" stroke="#000000" d="M-1.91284 2.55046C-1.75343 1.59402 0 .15938 .4782 0 0-.15938-1.75343-1.59402-1.91284-2.55046"/>
<use data-text="y" xlink:href="#font_1_3" transform="matrix(9.963397,0,0,-9.963197,146.28726,6.208603)"/>
<g clip-path="url(#clip_2)">
<path transform="matrix(1.00008,0,0,-1.00006,148.90847,159.47679)" stroke-width=".79701" stroke-linecap="butt" stroke-miterlimit="10" stroke-linejoin="miter" fill="none" stroke="#0000ff" d="M-141.73404 .38148C-141.73404 .38148-141.3237 .38712-141.1661 .38927-141.00853 .39143-140.75579 .39479-140.59819 .39705-140.44062 .39932-140.18785 .40344-140.03026 .4057-139.87268 .40797-139.61994 .41122-139.46236 .41348-139.30477 .41576-139.052 .41975-138.89443 .42213-138.73683 .42453-138.48409 .4284-138.3265 .43079-138.16892 .43317-137.91616 .43703-137.75858 .43944-137.60099 .44183-137.34824 .4457-137.19066 .4481-137.03307 .4505-136.7803 .45424-136.62273 .45676-136.46515 .45926-136.21239 .46364-136.05481 .46626-135.89723 .4689-135.64449 .47316-135.4869 .47578-135.32932 .47841-135.07656 .48253-134.91896 .48529-134.76139 .48804-134.50864 .49292-134.35105 .49567-134.19347 .49841-133.9407 .50243-133.78311 .50519-133.62554 .50793-133.37279 .5127-133.21521 .51556-133.05762 .51845-132.80486 .52307-132.64728 .52596-132.48969 .52882-132.23694 .53334-132.07936 .53633-131.92177 .53932-131.669 .54446-131.51143 .54758-131.35384 .5507-131.10109 .55618-130.94351 .55882-130.78592 .56145-130.53316 .56398-130.37558 .56662-130.218 .56924-129.96524 .57474-129.80767 .57785-129.65009 .58096-129.39734 .58598-129.23975 .5891-129.08217 .59221-128.8294 .59639-128.67182 .60034-128.51424 .6043-128.26149 .6137-128.1039 .61765-127.94632 .6216-127.69356 .62578-127.53596 .62889-127.37839 .63202-127.12564 .63702-126.96806 .64015-126.81047 .64326-126.55771 .64743-126.40013 .65138-126.24254 .65533-125.98979 .66473-125.83221 .66869-125.67462 .67264-125.42186 .67682-125.26428 .67993-125.10669 .68304-124.85394 .68723-124.69637 .69118-124.53877 .69513-124.28601 .70453-124.12843 .70848-123.97086 .71243-123.7181 .71577-123.56052 .71973-123.40294 .72368-123.15019 .73236-122.9926 .73703-122.83502 .7417-122.58226 .74963-122.42467 .75346-122.26709 .7573-122.01434 .76076-121.85675 .76471-121.69917 .76866-121.44641 .77722-121.28882 .78201-121.13124 .7868-120.8785 .79465-120.72092 .79932-120.56332 .80399-120.31056 .81108-120.15298 .81575-119.99539 .82042-119.74265 .82826-119.58507 .83304-119.42747 .83783-119.17471 .84567-119.01714 .85036-118.85954 .85504-118.6068 .86212-118.44922 .86679-118.29163 .87146-118.03888 .8793-117.8813 .8841-117.72372 .88889-117.47095 .89673-117.31337 .9014-117.15579 .90607-116.90305 .91231-116.74545 .91783-116.58788 .92334-116.33511 .93567-116.17752 .9412-116.01994 .94672-115.7672 .95296-115.6096 .95763-115.45203 .9623-115.19926 .9694-115.04167 .97493-114.8841 .98044-114.63135 .99191-114.47377 .99742-114.31618 1.00294-114.06342 1.0092-113.90584 1.01472-113.74825 1.02025-113.4955 1.03098-113.33792 1.0372-113.18033 1.04344-112.92757 1.05347-112.76999 1.05971-112.6124 1.06593-112.35965 1.07668-112.20207 1.08218-112.04448 1.0877-111.79173 1.09398-111.63416 1.09949-111.47658 1.10501-111.2238 1.11563-111.06622 1.122-110.90865 1.12834-110.6559 1.13899-110.4983 1.14534-110.34073 1.15169-110.08797 1.16077-109.93037 1.16783-109.7728 1.17491-109.52005 1.18932-109.36246 1.19638-109.20488 1.20346-108.95212 1.21265-108.79453 1.21887-108.63695 1.2251-108.3842 1.2343-108.22662 1.24136-108.06903 1.24844-107.81627 1.26285-107.65869 1.26991-107.5011 1.277-107.24835 1.28534-107.09077 1.2924-106.93318 1.29947-106.68042 1.31303-106.52284 1.32095-106.36525 1.32887-106.1125 1.34244-105.95493 1.3495-105.79733 1.35657-105.54459 1.36493-105.38701 1.372-105.22943 1.37907-104.97665 1.39273-104.81908 1.40053-104.6615 1.40834-104.40875 1.42043-104.25116 1.42822-104.09358 1.43602-103.84082 1.44801-103.68323 1.45677-103.52565 1.46553-103.2729 1.48274-103.11531 1.49138-102.95773 1.50002-102.70497 1.51126-102.54738 1.51906-102.3898 1.52687-102.13705 1.53897-101.97948 1.54759-101.82188 1.55623-101.56912 1.57188-101.41154 1.58134-101.25395 1.59082-101.0012 1.60732-100.84363 1.61595-100.68604 1.62459-100.43327 1.635-100.2757 1.64363-100.1181 1.65227-99.86536 1.66876-99.70778 1.67822-99.55019 1.6877-99.29744 1.70262-99.13986 1.71196-98.98228 1.72131-98.7295 1.7355-98.57193 1.74571-98.41435 1.7559-98.1616 1.77518-98.00401 1.78549-97.84644 1.79582-97.59367 1.80978-97.43608 1.82011-97.2785 1.83043-97.02576 1.84969-96.86816 1.8599-96.71059 1.87009-96.45782 1.88344-96.30023 1.89365-96.14265 1.90384-95.88991 1.9224-95.73233 1.93343-95.57474 1.94446-95.32198 1.96219-95.1644 1.97322-95.0068 1.98427-94.75406 2.0021-94.59648 2.01302-94.43889 2.02394-94.18614 2.04103-94.02856 2.05194-93.87097 2.06285-93.61821 2.07986-93.46063 2.09174-93.30304 2.1036-93.0503 2.12498-92.89272 2.13759-92.73514 2.15019-92.48236 2.17082-92.32478 2.18257-92.1672 2.19432-91.91446 2.2105-91.75687 2.22237-91.59929 2.23424-91.34653 2.25562-91.18893 2.26822-91.03136 2.28082-90.77861 2.29988-90.62102 2.3132-90.46344 2.32652-90.21068 2.35092-90.05309 2.36423-89.89551 2.37755-89.64276 2.3959-89.48518 2.40921-89.32759 2.42253-89.07483 2.4461-88.91725 2.46027-88.75966 2.47441-88.50691 2.49715-88.34933 2.51129-88.19174 2.52545-87.939 2.54819-87.78142 2.56235-87.62383 2.57649-87.37106 2.59923-87.21349 2.61337-87.0559 2.62753-86.80315 2.64943-86.64557 2.66441-86.48799 2.6794-86.23521 2.70651-86.07764 2.72151-85.92006 2.73651-85.66731 2.75768-85.50972 2.77255-85.35214 2.78745-85.09938 2.81306-84.94179 2.82878-84.78421 2.8445-84.53146 2.86932-84.37387 2.88588-84.2163 2.90244-83.96353 2.93161-83.80594 2.94815-83.64836 2.9647-83.39561 2.98871-83.23804 3.00525-83.08044 3.0218-82.82768 3.05025-82.6701 3.06754-82.51251 3.08482-82.25977 3.11255-82.10219 3.12984-81.9446 3.14713-81.69185 3.17485-81.53427 3.19212-81.37668 3.20938-81.12392 3.23628-80.96634 3.2544-80.80875 3.27252-80.556 3.3039-80.39842 3.32274-80.24084 3.34157-79.98807 3.37138-79.83049 3.39021-79.67291 3.40906-79.42017 3.4396-79.26257 3.45856-79.105 3.47752-78.85223 3.50723-78.69464 3.5269-78.53706 3.54657-78.28432 3.58003-78.12672 3.60043-77.96915 3.62083-77.71638 3.65356-77.55879 3.67397-77.40121 3.69437-77.14847 3.72697-76.99089 3.7475-76.8333 3.76802-76.58054 3.80066-76.42296 3.82188-76.26537 3.84312-76.01262 3.87866-75.85504 3.9006-75.69745 3.92256-75.4447 3.95813-75.28712 3.98021-75.12953 4.00227-74.87677 4.03699-74.7192 4.05978-74.5616 4.0826-74.30885 4.12177-74.15128 4.14456-73.9937 4.16737-73.74092 4.20052-73.58334 4.22415-73.42577 4.24779-73.17302 4.29063-73.01543 4.31499-72.85785 4.33934-72.60509 4.37541-72.4475 4.39977-72.28992 4.42412-72.03717 4.4654-71.87958 4.4906-71.722 4.51581-71.46924 4.55623-71.31165 4.58142-71.15407 4.60663-70.90132 4.64635-70.74374 4.67226-70.58615 4.69818-70.3334 4.74153-70.17583 4.7683-70.01823 4.79504-69.76547 4.83842-69.6079 4.86517-69.4503 4.89192-69.19756 4.9337-69.03998 4.96118-68.88239 4.98868-68.62962 5.03494-68.47205 5.06326-68.31445 5.0916-68.0617 5.13702-67.90413 5.16534-67.74655 5.19368-67.49377 5.23828-67.3362 5.26743-67.17862 5.29659-66.92587 5.34569-66.76828 5.37556-66.6107 5.40544-66.35794 5.45222-66.20035 5.48283-66.04277 5.51343-65.79002 5.5646-65.63243 5.59616-65.47485 5.62772-65.22209 5.6788-65.0645 5.71036-64.90692 5.74191-64.65417 5.79152-64.4966 5.82367-64.339 5.85582-64.08626 5.90918-63.92868 5.94218-63.77109 5.97519-63.51833 6.02773-63.36075 6.06157-63.20316 6.09541-62.95041 6.1516-62.79283 6.18614-62.63524 6.2207-62.38248 6.27531-62.2249 6.31071-62.0673 6.34612-61.81456 6.4051-61.65698 6.44135-61.4994 6.47758-61.24663 6.53572-61.08905 6.57196-60.93147 6.6082-60.67873 6.66563-60.52113 6.70259-60.36356 6.73955-60.1108 6.80072-59.9532 6.83841-59.79562 6.87608-59.54288 6.93571-59.38528 6.97423-59.2277 7.01276-58.97495 7.07591-58.81735 7.1161-58.65977 7.1563-58.40703 7.2231-58.24945 7.26402-58.09186 7.30495-57.83911 7.37016-57.68153 7.41109-57.52394 7.45201-57.27118 7.51726-57.1136 7.55902-56.95601 7.60078-56.70326 7.66893-56.54568 7.71214-56.38809 7.75534-56.13533 7.82642-55.97775 7.87045-55.82016 7.91449-55.56741 7.98558-55.40984 8.02962-55.25226 8.07365-54.99948 8.14232-54.8419 8.18793-54.68433 8.23354-54.43158 8.3119-54.27399 8.35834-54.11641 8.40479-53.86365 8.47556-53.70605 8.5227-53.54848 8.56987-53.29573 8.6496-53.13814 8.69832-52.98056 8.74704-52.7278 8.82437-52.5702 8.87393-52.41263 8.9235-52.15988 9.00519-52.0023 9.0556-51.84471 9.106-51.59196 9.18614-51.43439 9.23726-51.2768 9.28839-51.02403 9.37143-50.86646 9.42412-50.70886 9.47682-50.45612 9.5635-50.29854 9.61703-50.14095 9.67056-49.88818 9.7557-49.7306 9.80995-49.57301 9.8642-49.32027 9.95224-49.16269 10.00804-49.00511 10.06386-48.75233 10.15556-48.59476 10.2122-48.43718 10.26886-48.18443 10.35887-48.02684 10.41635-47.86926 10.47383-47.6165 10.56754-47.45891 10.62659-47.30133 10.68562-47.04858 10.78137-46.89099 10.84198-46.73341 10.90259-46.48067 11.00212-46.32307 11.06345-46.1655 11.12477-45.91273 11.22115-45.75516 11.28404-45.59756 11.34694-45.34482 11.45218-45.18724 11.51674-45.02965 11.5813-44.77689 11.68416-44.61931 11.74945-44.46172 11.81474-44.20897 11.9205-44.05139 11.98735-43.8938 12.05418-43.64104 12.16359-43.48346 12.2313-43.32587 12.29898-43.07312 12.406-42.91554 12.47525-42.75797 12.5445-42.50519 12.65964-42.34761 12.73045-42.19003 12.80125-41.93729 12.91412-41.7797 12.98564-41.62212 13.05717-41.36935 13.17209-41.21176 13.24602-41.05418 13.31995-40.80144 13.44292-40.64384 13.51854-40.48627 13.59415-40.23352 13.7147-40.07593 13.79103-39.91835 13.86736-39.66559 13.99081-39.50801 14.06871-39.35042 14.1466-39.09767 14.27216-38.9401 14.35245-38.7825 14.43275-38.52974 14.56572-38.37216 14.64745-38.21457 14.72917-37.96182 14.859-37.80424 14.94157-37.64665 15.02415-37.39389 15.15764-37.23631 15.24261-37.07872 15.3276-36.82597 15.46751-36.6684 15.55405-36.51082 15.64058-36.25804 15.77812-36.10046 15.86635-35.94289 15.95456-35.69014 16.0994-35.53255 16.18988-35.37497 16.28038-35.12221 16.42668-34.96461 16.51862-34.80704 16.61053-34.55429 16.75891-34.3967 16.85252-34.23912 16.94614-33.98637 17.09807-33.82878 17.19337-33.6712 17.28867-33.41844 17.44182-33.26086 17.5394-33.10327 17.63698-32.85052 17.79681-32.69295 17.89667-32.53535 17.99654-32.2826 18.15773-32.12502 18.25916-31.96742 18.36057-31.71468 18.52457-31.5571 18.62766-31.3995 18.73076-31.14674 18.89673-30.98917 19.00224-30.83157 19.10774-30.57883 19.28029-30.42125 19.38806-30.26367 19.49585-30.0109 19.66902-29.85332 19.77908-29.69574 19.88914-29.443 20.06888-29.2854 20.18135-29.12782 20.29381-28.87508 20.47552-28.71748 20.58966-28.5599 20.7038-28.30714 20.8875-28.14955 21.00403-27.99197 21.12057-27.73923 21.3101-27.58163 21.42964-27.42406 21.54918-27.1713 21.74371-27.01372 21.86565-26.85612 21.98758-26.60338 22.18494-26.4458 22.30856-26.28821 22.43219-26.03545 22.63005-25.87787 22.75667-25.72028 22.88329-25.46753 23.09146-25.30995 23.2212-25.15236 23.35097-24.8996 23.5604-24.74202 23.69182-24.58443 23.82324-24.33168 24.03477-24.1741 24.16847-24.01653 24.30219-23.76375 24.5187-23.60617 24.65552-23.4486 24.79234-23.19585 25.0146-23.03825 25.15466-22.88068 25.29472-22.62793 25.52187-22.47034 25.66505-22.31276 25.80824-22.06 26.0411-21.9024 26.18669-21.74483 26.33228-21.49208 26.56569-21.33449 26.7144-21.17691 26.8631-20.92415 27.1067-20.76657 27.25853-20.60898 27.41034-20.35623 27.6545-20.19865 27.80872-20.04106 27.96294-19.7883 28.2128-19.63072 28.37015-19.47313 28.52751-19.22038 28.78152-19.0628 28.94283-18.90521 29.10414-18.65245 29.3684-18.49487 29.53282-18.33728 29.69724-18.08453 29.96117-17.92696 30.12799-17.76938 30.29482-17.5166 30.56448-17.35902 30.73528-17.20145 30.90607-16.9487 31.18436-16.7911 31.35898-16.63353 31.53362-16.38078 31.8162-16.22319 31.99396-16.06561 32.1717-15.81285 32.45845-15.65526 32.64017-15.49768 32.82187-15.24493 33.11801-15.08734 33.30368-14.92976 33.48936-14.677 33.78964-14.51942 33.97844-14.36183 34.16724-14.10909 34.47168-13.9515 34.66444-13.79391 34.85721-13.54115 35.17104-13.38358 35.36775-13.22598 35.56445-12.97324 35.88245-12.81566 36.0823-12.65807 36.28215-12.4053 36.60347-12.24773 36.8081-12.09013 37.01274-11.83739 37.34795-11.67981 37.55725-11.52223 37.76657-11.26945 38.10362-11.11188 38.31679-10.9543 38.52995-10.70155 38.8765-10.54396 39.09363-10.38638 39.31076-10.13364 39.66063-9.97604 39.88171-9.81847 40.1028-9.5657 40.4605-9.40811 40.6871-9.25053 40.9137-8.99779 41.2837-8.8402 41.51498-8.68262 41.74626-8.42986 42.11885-8.27228 42.3541-8.11469 42.58936-7.86194 42.97049-7.70436 43.21054-7.54677 43.45059-7.294 43.8388-7.13643 44.08426-6.97884 44.32971-6.72609 44.72948-6.56851 44.9796-6.41092 45.22974-6.15816 45.63214-6.00058 45.88707-5.84299 46.14201-5.59024 46.55658-5.43266 46.81703-5.27509 47.0775-5.02232 47.49915-4.86475 47.76428-4.70717 48.02943-4.4544 48.45734-4.29681 48.72798-4.13924 48.99864-3.88649 49.43803-3.7289 49.71504-3.57132 49.99205-3.31856 50.44217-3.16096 50.72458-3.00339 51.007-2.75064 51.46346-2.59305 51.75056-2.43547 52.03767-2.18271 52.5004-2.02513 52.79385-1.86754 53.08731-1.61479 53.56586-1.45721 53.86566-1.29962 54.16548-1.04686 54.64944-.88928 54.95479-.73169 55.26015-.47894 55.75664-.32137 56.06642-.16377 56.3762 .08896 56.87143 .24654 57.18758 .40413 57.50371 .65688 58.02074 .81445 58.34503 .97203 58.66934 1.2248 59.19408 1.38237 59.525 1.53995 59.85591 1.79271 60.39243 1.9503 60.73006 2.10788 61.06769 2.36063 61.61398 2.51822 61.95845 2.6758 62.30293 2.92856 62.86137 3.08615 63.21281 3.24373 63.56425 3.49648 64.1329 3.65407 64.49141 3.81165 64.84991 4.0644 65.43097 4.22198 65.7968 4.37958 66.16263 4.63232 66.75497 4.7899 67.12814 4.9475 67.50131 5.20026 68.1056 5.35783 68.48631 5.51543 68.86703 5.76817 69.48366 5.92575 69.87218 6.08334 70.2607 6.3361 70.89024 6.49368 71.28658 6.65128 71.6829 6.90402 72.3244 7.0616 72.72865 7.21918 73.1329 7.47194 73.78763 7.62952 74.20015 7.7871 74.61267 8.03986 75.28111 8.19745 75.70192 8.35503 76.12273 8.60777 76.80388 8.76537 77.2331 8.92294 77.66231 9.1757 78.35747 9.3333 78.79544 9.49088 79.2334 9.74362 79.94292 9.90121 80.38977 10.05879 80.83664 10.31155 81.56012 10.46913 82.01611 10.62672 82.47209 10.87947 83.21074 11.03705 83.6762 11.19464 84.14165 11.4474 84.89629 11.60498 85.37086 11.76257 85.84544 12.01532 86.61264 12.1729 87.0967 12.33049 87.58076 12.58325 88.36559 12.74083 88.85973 12.89842 89.35387 13.15117 90.15411 13.30875 90.65822 13.46632 91.16234 13.71909 91.97885 13.87666 92.49304 14.03424 93.00723 14.287 93.83957 14.4446 94.36421 14.60217 94.88884 14.85492 95.73909 15.01251 96.27429 15.17009 96.8095 15.42285 97.67558 15.58044 98.22157 15.73802 98.76756 15.99077 99.65247 16.14836 100.20952 16.30594 100.76657 16.5587 101.66795 16.71628 102.2364 16.87387 102.80484 17.12662 103.72656 17.2842 104.30653 17.44179 104.8865 17.69455 105.8246 17.85213 106.41644 18.00972 107.00829 18.26247 107.96849 18.42004 108.57222 18.57764 109.17595 18.83038 110.15228 18.98796 110.76778 19.14555 111.38327 19.39832 112.38022 19.5559 113.00832 19.71347 113.63643 19.96623 114.65376 20.12381 115.29471 20.28139 115.93565 20.53415 116.9738 20.69174 117.62782 20.84932 118.28185 21.10207 119.34128 21.25966 120.00851 21.41724 120.67575 21.67 121.75612 21.82759 122.43678 21.98517 123.11746 22.23792 124.2199 22.39551 124.91435 22.55309 125.60883 22.80585 126.73335 22.96342 127.44211 23.12102 128.15088 23.37376 129.29972 23.53134 130.02263 23.68893 130.74555 23.9417 131.9148 24.09927 132.65247 24.25687 133.39015 24.50961 134.58695 24.66719 135.33939 24.82478 136.09185 25.07753 137.30817 25.2351 138.07563 25.3927 138.84308 25.64546 140.08776 25.80304 140.8707 25.96062 141.65363 26.21338 142.91963 26.37096 143.71852 26.52853 144.51741 26.7813 145.81342 26.93889 146.62863 27.09647 147.44387 27.34921 148.76222 27.5068 149.59412 27.66438 150.42601 27.91714 151.7759 28.07474 152.62448 28.23232 153.47307 28.48506 154.84506 28.64265 155.7102 28.80023 156.57535 29.053 157.97678 29.21057 158.85994 29.36816 159.7431 29.62091 161.17403 29.77849 162.07543 29.93608 162.97684 30.18884 164.43727 30.34642 165.35668 30.50401 166.27608 30.75676 167.76427 30.91434 168.7019 31.07193 169.63956 31.32468 171.15743 31.48225 172.11464 31.63985 173.07184 31.89261 174.62435 32.05019 175.60089 32.20776 176.57744 32.46053 178.15727 32.6181 179.1529 32.77568 180.14852 33.02844 181.76079 33.18604 182.77669 33.34361 183.7926 33.59636 185.43762 33.75395 186.4749 33.91153 187.51218 34.16429 189.19477 34.32188 190.25269 34.47946 191.31061 34.73221 193.02075 34.8898 194.09967 35.04738 195.17859 35.30014 196.92774 35.45772 198.02886 35.61531 199.12998 35.86806 200.91243 36.02563 202.03589 36.18323 203.15933 36.43599 204.97983 36.59357 206.12596 36.75116 207.2721 37.0039 209.12757 37.16148 210.2965 37.31908 211.46544 37.57182 213.3587 37.7294 214.55094 37.887 215.74317 38.13976 217.67247 38.29733 218.8893 38.45491 220.10613 38.70767 222.0794 38.86525 223.32109 39.02283 224.56276 39.27559 226.57234 39.43318 227.8385 39.59076 229.10466 39.8435 231.15396 40.0011 232.44678 40.15868 233.73958 40.41144 235.83737 40.56903 237.15624 40.72661 238.4751 40.97935 240.60683 41.13695 241.95223 41.29453 243.2976 41.54729 245.48014 41.70486 246.85288 41.86246 248.22563 42.1152 250.44622 42.27278 251.84609 42.43037 253.24597 42.68312 255.5143 42.8407 256.94227 42.99829 258.37025 43.25105 260.6803 43.40863 262.1379 43.56622 263.59553 43.81897 265.96064 43.97655 267.44776 44.13414 268.93489 44.3869 271.3393 44.54448 272.8562 44.70206 274.3731 44.95482 276.83235 45.1124 278.38059 45.26997 279.9288 45.52274 282.436 45.68033 284.01484 45.8379 285.59364 46.09065 288.14949 46.24825 289.75978 46.40582 291.37007 46.65858 293.9775 46.81618 295.62068 46.97375 297.26387 47.2265 299.9253 47.3841 301.60267 47.54167 303.28007 47.79443 305.99903 47.95201 307.7101 48.1096 309.42124 48.36235 312.19035 48.51993 313.9352 48.67752 315.68006 48.93027 318.5051 49.08784 320.2857 49.24544 322.06636 49.4982 324.9515 49.65578 326.7686 49.81337 328.5857 50.06612 331.52827 50.2237 333.3821 50.38129 335.23594 50.63405 338.2389 50.79163 340.1297 50.9492 342.0205 51.20197 345.08058 51.35954 347.00965 51.51712 348.9387 51.76988 352.06465 51.92747 354.0332 52.08505 356.00175 52.3378 359.1892 52.49539 361.19776 52.65297 363.20628 52.90573 366.4604 53.06332 368.50938 53.2209 370.55836 53.47365 373.87556 53.63124 375.96549 53.78882 378.0554 54.04158 381.43968 54.19916 383.57209 54.35675 385.7045 54.6095 389.15834 54.76707 391.3344 54.92467 393.5105 55.17741 397.03565 55.33499 399.2559 55.49258 401.47618 55.74535 405.07215 55.90292 407.33659 56.06052 409.601 56.31326 413.26698 56.47084 415.57643 56.62843 417.8859 56.8812 421.62455 57.03877 423.9815 57.19635 426.3385 57.44911 430.15885 57.60669 432.56394 57.76427 434.96903 58.01703 438.86207 58.17462 441.3159 58.3322 443.76976 58.58495 447.74638 58.74254 450.24955 58.90012 452.75273 59.15288 456.80348 59.31047 459.35707 59.46805 461.91065 59.7208 466.04826 59.87839 468.65406 60.03596 471.2598 60.28873 475.4796 60.4463 478.13786 60.6039 480.7961 60.85664 485.1011 61.01422 487.81288 61.17181 490.52464 61.42456 494.9142 61.58214 497.68254 61.73973 500.45085 61.9925 504.9417 62.15007 507.76499 62.30766 510.58827 62.56041 515.15176 62.71799 518.0308 62.87558 520.9099 63.12834 525.5766 63.28592 528.51559 63.4435 531.4545 63.69626 536.21456 63.85384 539.2131 64.01141 542.2116 64.26418 547.0681 64.42177 550.1269 64.57935 553.18569 64.83209 558.13839 64.98969 561.2587 65.14726 564.379 65.40002 569.4328 65.55762 572.6163 65.7152 575.79977 65.96794 580.9565 66.12553 584.2031 66.28311 587.4497 66.53586 592.70217 66.69344 596.0157 66.85103 599.3293 67.10379 604.7046 67.26137 608.08529 67.41896 611.46597 67.6717 616.9321 67.82928 620.3815 67.98688 623.83078 68.23964 629.4264 68.39722 632.9458 68.55481 636.4653 68.80756 642.1579 68.96513 645.7472 69.12273 649.3365 69.37549 655.1517 69.53307 658.815 69.69064 662.4784 69.9434 668.4119 70.10098 672.1502 70.25856 675.8884 70.51132 681.9454 70.66891 685.7578 70.82649 689.57028 71.07924 695.73849 71.23683 699.62759 71.39441 703.5167 71.64717 709.8187 71.80476 713.788 71.96234 717.7573 72.21509 724.18667 72.37268 728.23568 72.53026 732.28469 72.783 738.84036 72.94058 742.9705 73.09818 747.10067 73.35094 753.7874 73.50851 758.0029 73.6661 762.2184 73.91885 769.05288 74.07643 773.35287 74.23402 777.65286 74.48679 784.6075 74.64436 788.99429 74.80196 793.38107 75.0547 800.49526 75.21228 804.9696 75.36987 809.444 75.62263 816.67977 75.78021 821.24258 75.93779 825.8054 76.19055 833.1966 76.34813 837.8555 76.5057 842.51437 76.75847 850.0672 76.91606 854.8205 77.07364 859.5738 77.32639 867.26516 77.48398 872.11428 77.64156 876.9634 77.89432 884.8237 78.05191 889.76956 78.20949 894.7154 78.46223 902.7136 78.61983 907.76058 78.7774 912.80746 79.03015 920.994 79.18773 926.1443 79.34532 931.29458 79.59808 939.62747 79.75566 944.8801 79.91325 950.13278 80.166 958.6425 80.32358 964.0018 80.48117 969.36099 80.73393 978.0363 80.89151 983.50576 81.0491 988.97518 81.30185 997.8418 81.45943 1003.4215 81.61702 1009.0012 81.86978 1018.02908 82.02736 1023.7205 82.18494 1029.412 82.4377 1038.6348 82.59528 1044.4417 82.75285 1050.2487 83.00562 1059.648 83.16321 1065.5729 83.32079 1071.4978 83.57353 1081.0988 83.73112 1087.1444 83.8887 1093.1901 84.14145 1102.9784 84.29904 1109.1459 84.45662 1115.3134 84.70938 1125.306 84.86697 1131.5955 85.02455 1137.8849 85.2773 1148.0621 85.43488 1154.4758 85.59247 1160.8897 85.84523 1171.2733 86.0028 1177.8217 86.1604 1184.37 86.41315 1194.9884 86.57072 1201.6719 86.72832 1208.3554 86.98108 1219.1752 87.13866 1225.9917 87.29625 1232.8084 87.549 1243.848 87.70657 1250.8013 87.86417 1257.7545 88.11693 1269.0104 88.2745 1276.1056 88.43208 1283.2008 88.68484 1294.6997 88.84242 1301.9385 89 1309.1773 89.25276 1320.8937 89.41035 1328.2775 89.56793 1335.6611 89.82068 1347.6203 89.97827 1355.1554 90.13585 1362.6904 90.3886 1374.8981 90.54619 1382.5852 90.70377 1390.2723 90.95653 1402.7169 91.11412 1410.5591 91.2717 1418.4014 91.52444 1431.1045 91.68202 1439.1067 91.83961 1447.1088 92.09238 1460.0692 92.24995 1468.2329 92.40755 1476.3966 92.6603 1489.616 92.81787 1497.9448 92.97546 1506.2736 93.22823 1519.7637 93.3858 1528.2614 93.5434 1536.7592 93.79614 1550.5253 93.95372 1559.1904 94.11131 1567.8556 94.36407 1581.8722 94.52165 1590.7139 94.67923 1599.5554 94.93199 1613.8901 95.08957 1622.9146 95.24715 1631.939 95.49991 1646.549 95.6575 1655.7554 95.81508 1664.9619 96.06783 1679.8772 96.22542 1689.2684 96.383 1698.6598 96.63574 1713.8604 96.79333 1723.4415 96.95091 1733.0228 97.20367 1748.5465 97.36127 1758.3231 97.51884 1768.0997 97.77159 1783.9306 97.92917 1793.9046 98.08676 1803.8787 98.33952 1820.0342 98.4971 1830.2092 98.6547 1840.3844 98.90744 1856.8578 99.06502 1867.2396 99.22261 1877.6216 99.47537 1894.4432 99.63295 1905.0348 99.79054 1915.6265 100.04329 1932.7695 100.20087 1943.5765 100.35846 1954.3837 100.61122 1971.8976 100.7688 1982.9246 100.92638 1993.9515 101.17914 2011.8032 101.33672 2023.0512 101.4943 2034.2991 101.74706 2052.5164 101.90465 2063.9918 102.06223 2075.467 102.31497 2094.05 102.47256 2105.7567 102.63014 2117.4632 102.88289 2136.4212 103.04048 2148.3643 103.19806 2160.3077 103.45082 2179.653 103.60841 2191.8353 103.76599 2204.0174 104.01874 2223.7359 104.17632 2236.1654 104.33391 2248.5948 104.58667 2268.7327 104.74425 2281.4183 104.90184 2294.1038 105.15459 2314.651 105.31216 2327.5933 105.46976 2340.536 105.72252 2361.4964 105.8801 2374.6986 106.03769 2387.9007 106.29044 2409.275 106.44801 2422.7457 106.6056 2436.2166 106.85837 2458.0435 107.01595 2471.7869 107.17352 2485.5303 107.42628 2507.7769 107.58386 2521.7987 107.74144 2535.82 107.99419 2558.5404 108.15178 2572.845 108.30936 2587.1497 108.56212 2610.3026 108.71971 2624.8975 108.87729 2639.4925 109.13004 2663.1439 109.28763 2678.0357 109.4452 2692.9276 109.69797 2717.0364 109.85556 2732.2276 110.01314 2747.4185 110.26588 2772.023 110.42346 2787.5213 110.58105 2803.0198 110.83382 2828.1168 110.9914 2843.9295 111.14899 2859.7425 111.40173 2885.358 111.55931 2901.489 111.7169 2917.62 111.96967 2943.7349 112.12724 2960.1915 112.28484 2976.648 112.53758 3003.3055 112.69516 3020.097 112.85275 3036.8887 113.10551 3064.089 113.26309 3081.2139 113.42067 3098.3385 113.67343 3126.0467 113.83101 3143.519 113.98859 3160.9918 114.24133 3189.3116 114.39893 3207.1429 114.5565 3224.974 114.80927 3253.842 114.96686 3272.035 115.12444 3290.2279 115.37718 3319.703 115.53477 3338.2642 115.69235 3356.8258 115.94511 3386.8787 116.1027 3405.8128 116.26028 3424.7469 116.51303 3455.4083 116.67061 3474.7283 116.8282 3494.048 117.08096 3525.3448 117.23854 3545.0572 117.39613 3564.7696 117.64888 3596.6937 117.80646 3616.8013 117.96405 3636.9093 118.21681 3669.4644 118.37439 3689.9808 118.53198 3710.4974 118.78473 3743.7388 118.9423 3764.6697 119.0999 3785.6007 119.35266 3819.4832 119.51024 3840.837 119.66782 3862.191 119.92058 3896.7857 120.07816 3918.5736 120.23573 3940.3616 120.48848 3975.641 120.64607 3997.8692 120.80365 4020.097 121.05641 4056.0997 121.214 4078.777 121.37158 4101.454 121.62433 4138.174 121.78192 4161.3117 121.9395 4184.4489 122.19226 4221.936 122.34985 4245.534 122.50743 4269.1325 122.76018 4307.319 122.91776 4331.391 123.07535 4355.464 123.32811 4394.4636 123.48569 4419.033 123.64328 4443.6027 123.89603 4483.403 124.0536 4508.472 124.2112 4533.542 124.46396 4574.143 124.62154 4599.7165 124.77913 4625.2897 125.03188 4666.6965 125.18945 4692.787 125.34705 4718.878 125.59981 4761.1379 125.75739 4787.76 125.91496 4814.3815 126.16772 4857.5036 126.3253 4884.659 126.48288 4911.8156 126.73563 4955.7717 126.89322 4983.4807 127.0508 5011.189 127.30356 5056.0935 127.46115 5084.3649 127.61873 5112.636 127.87148 5158.4 128.02907 5187.241 128.18665 5216.083 128.4394 5262.8088 128.597 5292.235 128.75458 5321.6608 129.00733 5369.303 129.1649 5399.3225 129.3225 5429.342 129.57526 5477.9675 129.73284 5508.593 129.89043 5539.2185 130.14318 5588.803 130.30075 5620.05 130.45835 5651.297 130.7111 5701.9187 130.86869 5733.8 131.02628 5765.681 131.27902 5817.3039 131.4366 5849.828 131.5942 5882.3527 131.84694 5935.039 132.00452 5968.212 132.1621 6001.385 132.41487 6055.076 132.57245 6088.915 132.73003 6122.7546 132.98278 6177.564 133.14037 6212.101 133.29795 6246.638 133.5507 6302.5979 133.7083 6337.8356 133.86588 6373.0739 134.11862 6430.12 134.27622 6466.072 134.43379 6502.024 134.68656 6560.2707 134.84415 6596.9519 135.00173 6633.6335 135.25447 6693.023 135.41205 6730.4455 135.56964 6767.867 135.8224 6828.486 135.97998 6866.665 136.13758 6904.844 136.39032 6966.6667 136.5479 7005.6149 136.70549 7044.5627 136.95825 7107.6418 137.11583 7147.3767 137.27342 7187.1115 137.52617 7251.4499 137.68375 7291.995 137.84134 7332.541 138.09409 7398.237 138.25167 7439.6027 138.40924 7480.9685 138.66202 7547.931 138.8196 7590.131 138.97718 7632.33 139.22992 7700.6916 139.38751 7743.7468 139.54509 7786.802 139.79785 7856.516 139.95545 7900.443 140.11302 7944.37 140.36577 8015.528 140.52336 8060.342 140.68094 8105.1564 140.9337 8177.707 141.0913 8223.433 141.24887 8269.159 141.6592 8389.902 141.6592 8389.902"/>
</g>
<use data-text="&#x2022;" xlink:href="#font_3_1" transform="matrix(9.963397,0,0,-9.963197,146.41727,133.34223)"/>
<use data-text="(" xlink:href="#font_4_1" transform="matrix(9.963397,0,0,-9.963197,123.247409,125.11774)"/>
<use data-text="0" xlink:href="#font_4_3" transform="matrix(9.963397,0,0,-9.963197,127.11322,125.11774)"/>
<use data-text="," xlink:href="#font_1_1" transform="matrix(9.963397,0,0,-9.963197,132.10413,125.11774)"/>
<use data-text="1" xlink:href="#font_4_4" transform="matrix(9.963397,0,0,-9.963197,136.53148,125.11774)"/>
<use data-text=")" xlink:href="#font_4_2" transform="matrix(9.963397,0,0,-9.963197,141.51317,125.11774)"/>
</svg>
