<svg xmlns="http://www.w3.org/2000/svg" xmlns:xlink="http://www.w3.org/1999/xlink" version="1.1" width="307" height="167" viewBox="0 0 307 167">
<defs>
<path id="font_1_2" d="M.33399964 .30233766C.33999635 .32835389 .36299134 .42037965 .43299867 .42037965 .43798829 .42037965 .46199037 .42037965 .48298646 .40734864 .45498658 .402359 .43499757 .37734986 .43499757 .35334779 .43499757 .33735658 .44599916 .31835938 .47299195 .31835938 .49499513 .31835938 .5269928 .3363495 .5269928 .37635804 .5269928 .42837525 .46798707 .4423828 .43399049 .4423828 .37599183 .4423828 .34098817 .38935853 .32899476 .36634828 .3039856 .43237306 .25 .4423828 .22099304 .4423828 .116989139 .4423828 .05999756 .3133545 .05999756 .28834535 .05999756 .27833558 .069992069 .27833558 .07199097 .27833558 .07998657 .27833558 .08299255 .28033448 .084991458 .28933717 .11898804 .39535523 .18499756 .42037965 .21899414 .42037965 .23799134 .42037965 .272995 .4113617 .272995 .35334779 .272995 .32235719 .2559967 .25532533 .21899414 .11528015 .20298767 .053268434 .16799927 .011245728 .12399292 .011245728 .117996219 .011245728 .09498596 .011245728 .07398987 .024276734 .09899902 .029266358 .12098694 .05027771 .12098694 .07827759 .12098694 .105270389 .09899902 .11328125 .083999637 .11328125 .053985597 .11328125 .0289917 .08728027 .0289917 .055267335 .0289917 .009246826 .07899475-.0107421879 .12298584-.0107421879 .18899536-.0107421879 .22499085 .059280397 .22799683 .0652771 .23999024 .028274537 .27598573-.0107421879 .33599855-.0107421879 .43899537-.0107421879 .49598695 .118270877 .49598695 .14328003 .49598695 .1532898 .4869995 .1532898 .48399354 .1532898 .47499085 .1532898 .47299195 .14929199 .47099305 .14228821 .43798829 .03527832 .36999513 .011245728 .33799745 .011245728 .29899598 .011245728 .2829895 .043273927 .2829895 .07727051 .2829895 .09927368 .2889862 .121276859 .2999878 .16529846L.33399964 .30233766Z"/>
<path id="font_1_3" d="M.48599244 .38136292C.48999024 .39537049 .48999024 .39736939 .48999024 .40437318 .48999024 .42237855 .47599793 .43138124 .46099855 .43138124 .45098878 .43138124 .43499757 .42536927 .42599488 .41036988 .42399598 .405365 .41600038 .37435914 .4119873 .35635377 .40499879 .33035279 .397995 .30334474 .3919983 .27633668L.34700013 .09628296C.34298707 .08126831 .2999878 .011245728 .23399353 .011245728 .18299866 .011245728 .17199707 .055267335 .17199707 .0922699 .17199707 .1382904 .18899536 .20030213 .22299195 .28833009 .23899842 .3293457 .24299622 .3403473 .24299622 .36035157 .24299622 .405365 .21099854 .4423828 .16099549 .4423828 .06599426 .4423828 .0289917 .29733277 .0289917 .28833009 .0289917 .27833558 .038986207 .27833558 .040985109 .27833558 .050994874 .27833558 .051986696 .28033448 .056991579 .29634095 .083999637 .3903656 .12399292 .42037965 .1579895 .42037965 .1659851 .42037965 .18299866 .42037965 .18299866 .3883667 .18299866 .36335755 .17298889 .3373413 .1659851 .31834413 .12599182 .21231079 .10798645 .1552887 .10798645 .10827637 .10798645 .019256592 .17098999-.0107421879 .22999573-.0107421879 .2689972-.0107421879 .30299378 .0062561037 .33099366 .03425598 .31799317-.017745972 .30599977-.06674194 .2659912-.11973572 .23999024-.15385437 .20199585-.18309021 .1559906-.18309021 .14199829-.18309021 .09700012-.18005371 .07998657-.14074707 .09599304-.14074707 .10899353-.14074707 .12298584-.1287384 .1329956-.11973572 .14299011-.10673523 .14299011-.08773804 .14299011-.056747438 .115997318-.052734376 .10598755-.052734376 .08299255-.052734376 .049987794-.068740848 .049987794-.11773682 .049987794-.16796875 .09399414-.20507813 .1559906-.20507813 .25898744-.20507813 .3619995-.11373901 .3899994-.00074768069L.48599244 .38136292Z"/>
<clipPath id="clip_2">
<path transform="matrix(1.00008,0,0,-1.00006,148.90847,159.47679)" d="M-141.73404 0V141.73404H141.73404V0ZM141.73404 141.73404"/>
</clipPath>
<path id="font_3_1" d="M.44400025 .24998474C.44400025 .35688783 .35499574 .44381715 .25 .44381715 .14199829 .44381715 .054992677 .35488893 .054992677 .24998474 .054992677 .14407349 .14199829 .056137086 .25 .056137086 .35499574 .056137086 .44400025 .14308167 .44400025 .24998474Z"/>
<path id="font_4_1" d="M.33099366-.2400055C.33099366-.23701477 .33099366-.23500061 .31399537-.21800232 .18899536-.0920105 .15699768 .09700012 .15699768 .25 .15699768 .42399598 .19499207 .59799197 .31799317 .72299197 .33099366 .73498538 .33099366 .7369995 .33099366 .73999026 .33099366 .746994 .32699586 .75 .32099916 .75 .31098939 .75 .22099304 .6819916 .1619873 .5549927 .11099243 .44499208 .09899902 .33399964 .09899902 .25 .09899902 .17199707 .10998535 .050994874 .16499329-.06201172 .22499085-.18501282 .31098939-.25 .32099916-.25 .32699586-.25 .33099366-.24700928 .33099366-.2400055Z"/>
<path id="font_4_3" d="M.45999146 .31976319C.45999146 .39982606 .45498658 .47988893 .41999818 .5539398 .37399293 .65000918 .2919922 .6660156 .25 .6660156 .18998719 .6660156 .116989139 .64001467 .07598877 .54693606 .04399109 .47789 .038986207 .39982606 .038986207 .31976319 .038986207 .24472046 .042999269 .15464783 .083999637 .07859802 .1269989-.0024719239 .19999695-.022460938 .24899292-.022460938 .30299378-.022460938 .3789978-.0014648438 .4229889 .09359741 .45498658 .16265869 .45999146 .2407074 .45999146 .31976319M.24899292-.00047302247C.20999146-.00047302247 .15098572 .024551392 .1329956 .12062073 .12199402 .18066406 .12199402 .2727356 .12199402 .3317871 .12199402 .39582826 .12199402 .46188355 .12998963 .5159149 .14898682 .63500979 .22399903 .64401248 .24899292 .64401248 .28199769 .64401248 .34799195 .6259918 .36698915 .52693179 .3769989 .47088624 .3769989 .39482118 .3769989 .3317871 .3769989 .25672914 .3769989 .18867493 .3659973 .12461853 .35099793 .029556275 .2939911-.00047302247 .24899292-.00047302247Z"/>
<path id="font_1_1" d="M.20298767 .0009918213C.20298767 .066986087 .17799378 .10598755 .13899231 .10598755 .10598755 .10598755 .085998538 .08099365 .085998538 .052993776 .085998538 .025985718 .10598755 0 .13899231 0 .15098572 0 .1639862 .0039978029 .17399597 .0129852299 .1769867 .01499939 .17799378 .015991211 .1789856 .015991211 .17999268 .015991211 .18099976 .01499939 .18099976 .0009918213 .18099976-.07316589 .1459961-.13328552 .11299133-.16635132 .101989749-.17736817 .101989749-.17936707 .101989749-.18237305 .101989749-.18936157 .10699463-.19335938 .11199951-.19335938 .12298584-.19335938 .20298767-.116256717 .20298767 .0009918213Z"/>
<path id="font_4_4" d="M.2939911 .64004519C.2939911 .66400149 .2939911 .6660156 .2709961 .6660156 .20899964 .60227969 .12098694 .60227969 .08898926 .60227969V.57128909C.10899353 .57128909 .16799927 .57128909 .21998596 .5972748V.07902527C.21998596 .042999269 .21699524 .0309906 .1269989 .0309906H.09498596V0C.12998963 .0029907227 .21699524 .0029907227 .25698854 .0029907227 .29699708 .0029907227 .38398744 .0029907227 .4189911 0V.0309906H.3869934C.29699708 .0309906 .2939911 .041992189 .2939911 .07902527V.64004519Z"/>
<path id="font_4_2" d="M.2889862 .25C.2889862 .32798768 .27799989 .44898988 .22299195 .56199648 .16299439 .68499758 .07699585 .75 .066986087 .75 .06098938 .75 .056991579 .74598696 .056991579 .73999026 .056991579 .7369995 .056991579 .73498538 .07598877 .71699526 .17399597 .6179962 .23098755 .45899964 .23098755 .25 .23098755 .07899475 .19400025-.09700012 .069992069-.2230072 .056991579-.23500061 .056991579-.23701477 .056991579-.2400055 .056991579-.2460022 .06098938-.25 .066986087-.25 .07699585-.25 .16699219-.18200684 .22599793-.055007936 .2769928 .054992677 .2889862 .16600037 .2889862 .25Z"/>
</defs>
<path transform="matrix(1.00008,0,0,-1.00006,148.90847,159.47679)" stroke-width=".19925" stroke-linecap="butt" stroke-miterlimit="10" stroke-linejoin="miter" fill="none" stroke="#929292" d="M-141.73404 0H141.73404M-141.73404 28.3468H141.73404M-141.73404 56.69362H141.73404M-141.73404 85.04042H141.73404M-141.73404 113.38724H141.73404M-141.73404 141.72409H141.73404M-141.73404 0V141.73404M-113.38724 0V141.73404M-85.04042 0V141.73404M-56.69362 0V141.73404M-28.3468 0V141.73404M0 0V141.73404M28.3468 0V141.73404M56.69362 0V141.73404M85.04042 0V141.73404M113.38724 0V141.73404M141.72409 0V141.73404M141.73404 141.73404"/>
<path transform="matrix(1.00008,0,0,-1.00006,148.90847,159.47679)" stroke-width="1.19553" stroke-linecap="butt" stroke-miterlimit="10" stroke-linejoin="miter" fill="none" stroke="#000000" d="M-147.40332 0H146.4469"/>
<path transform="matrix(1.00008,0,0,-1.00006,295.36708,159.47679)" stroke-width=".9564" stroke-linecap="round" stroke-linejoin="round" fill="none" stroke="#000000" d="M-1.91284 2.55046C-1.75343 1.59402 0 .15938 .4782 0 0-.15938-1.75343-1.59402-1.91284-2.55046"/>
<use data-text="x" xlink:href="#font_1_2" transform="matrix(9.963397,0,0,-9.963197,300.24256,161.62192)"/>
<path transform="matrix(1.00008,0,0,-1.00006,148.90847,159.47679)" stroke-width="1.19553" stroke-linecap="butt" stroke-miterlimit="10" stroke-linejoin="miter" fill="none" stroke="#000000" d="M0-5.66927V146.4469"/>
<path transform="matrix(0,-1.00006,-1.00008,-0,148.90847,13.021118)" stroke-width=".9564" stroke-linecap="round" stroke-linejoin="round" fill="none" stroke="#000000" d="M-1.91284 2.55046C-1.75343 1.59402 0 .15938 .4782 0 0-.15938-1.75343-1.59402-1.91284-2.55046"/>
<use data-text="y" xlink:href="#font_1_3" transform="matrix(9.963397,0,0,-9.963197,146.28726,6.208603)"/>
<g clip-path="url(#clip_2)">
<path transform="matrix(1.00008,0,0,-1.00006,148.90847,159.47679)" stroke-width=".79701" stroke-linecap="butt" stroke-miterlimit="10" stroke-linejoin="miter" fill="none" stroke="#0000ff" d="M-141.73404 .22144C-141.73404 .22144-141.3237 .22363-141.1661 .22447-141.00853 .2253-140.75579 .22661-140.59819 .22751-140.44062 .22841-140.18785 .23006-140.03026 .23096-139.87268 .23186-139.61994 .23308-139.46236 .23398-139.30477 .23488-139.052 .23656-138.89443 .23744-138.73683 .23834-138.48409 .23958-138.3265 .24048-138.16892 .24136-137.91616 .24298-137.75858 .24394-137.60099 .2449-137.34824 .24643-137.19066 .24739-137.03307 .24835-136.7803 .2499-136.62273 .25085-136.46515 .25182-136.21239 .25336-136.05481 .25432-135.89723 .25528-135.64449 .25676-135.4869 .25777-135.32932 .25879-135.07656 .26065-134.91896 .26166-134.76139 .26268-134.50864 .26411-134.35105 .26514-134.19347 .26614-133.9407 .268-133.78311 .26903-133.62554 .27003-133.37279 .27147-133.21521 .27249-133.05762 .27351-132.80486 .2753-132.64728 .27638-132.48969 .27747-132.23694 .27931-132.07936 .28027-131.92177 .28123-131.669 .28246-131.51143 .2833-131.35384 .28413-131.10109 .28514-130.94351 .28632-130.78592 .2875-130.53316 .2908-130.37558 .29195-130.218 .29309-129.96524 .29341-129.80767 .29454-129.65009 .29568-129.39734 .29898-129.23975 .30017-129.08217 .30136-128.8294 .30202-128.67182 .30319-128.51424 .30438-128.26149 .30763-128.1039 .30882-127.94632 .31001-127.69356 .31065-127.53596 .31184-127.37839 .31303-127.12564 .31633-126.96806 .31747-126.81047 .3186-126.55771 .31894-126.40013 .32007-126.24254 .3212-125.98979 .3245-125.83221 .32568-125.67462 .32686-125.42186 .32753-125.26428 .32872-125.10669 .32991-124.85394 .33278-124.69637 .33434-124.53877 .33588-124.28601 .33876-124.12843 .33995-123.97086 .34116-123.7181 .34181-123.56052 .34299-123.40294 .34418-123.15019 .34706-122.9926 .3486-122.83502 .35016-122.58226 .35268-122.42467 .35423-122.26709 .35577-122.01434 .35867-121.85675 .35985-121.69917 .36104-121.44641 .3617-121.28882 .36288-121.13124 .36406-120.8785 .36696-120.72092 .3685-120.56332 .37006-120.31056 .37257-120.15298 .37413-119.99539 .37567-119.74265 .3782-119.58507 .37975-119.42747 .3813-119.17471 .38382-119.01714 .38538-118.85954 .38693-118.6068 .38945-118.44922 .391-118.29163 .39255-118.03888 .39508-117.8813 .39662-117.72372 .39818-117.47095 .4007-117.31337 .40225-117.15579 .40381-116.90305 .40631-116.74545 .40787-116.58788 .40941-116.33511 .41188-116.17752 .41348-116.01994 .4151-115.7672 .41794-115.6096 .41956-115.45203 .42116-115.19926 .42363-115.04167 .42517-114.8841 .42673-114.63135 .42923-114.47377 .43079-114.31618 .43234-114.06342 .43486-113.90584 .43642-113.74825 .43796-113.4955 .44049-113.33792 .44203-113.18033 .44359-112.92757 .4461-112.76999 .44766-112.6124 .4492-112.35965 .45131-112.20207 .45328-112.04448 .45526-111.79173 .45996-111.63416 .46193-111.47658 .46391-111.2238 .466-111.06622 .46756-110.90865 .46912-110.6559 .4712-110.4983 .47319-110.34073 .47516-110.08797 .47986-109.93037 .48183-109.7728 .48381-109.52005 .4859-109.36246 .48746-109.20488 .48901-108.95212 .4911-108.79453 .49309-108.63695 .49506-108.3842 .49976-108.22662 .50174-108.06903 .50371-107.81627 .50545-107.65869 .50735-107.5011 .50928-107.24835 .5136-107.09077 .51556-106.93318 .51755-106.68042 .51965-106.52284 .52164-106.36525 .5236-106.1125 .52751-105.95493 .52985-105.79733 .53217-105.54459 .53651-105.38701 .5385-105.22943 .54047-104.97665 .54214-104.81908 .54411-104.6615 .5461-104.40875 .55043-104.25116 .55276-104.09358 .55511-103.84082 .55908-103.68323 .56099-103.52565 .56291-103.2729 .56464-103.11531 .56662-102.95773 .56859-102.70497 .57288-102.54738 .57527-102.3898 .57765-102.13705 .58159-101.97948 .58391-101.82188 .58624-101.56912 .5898-101.41154 .59212-101.25395 .59445-101.0012 .59839-100.84363 .60077-100.68604 .60316-100.43327 .60709-100.2757 .60942-100.1181 .61177-99.86536 .61531-99.70778 .61765-99.55019 .62-99.29744 .62392-99.13986 .6263-98.98228 .6287-98.7295 .63261-98.57193 .63495-98.41435 .63728-98.1616 .64084-98.00401 .64317-97.84644 .64551-97.59367 .64908-97.43608 .65182-97.2785 .65457-97.02576 .66032-96.86816 .66307-96.71059 .66582-96.45782 .66934-96.30023 .67172-96.14265 .6741-95.88991 .67763-95.73233 .68037-95.57474 .68312-95.32198 .68886-95.1644 .6916-95.0068 .69435-94.75406 .69792-94.59648 .70026-94.43889 .70259-94.18614 .70573-94.02856 .70848-93.87097 .71123-93.61821 .71698-93.46063 .72015-93.30304 .72333-93.0503 .72871-92.89272 .7314-92.73514 .7341-92.48236 .73688-92.32478 .73962-92.1672 .74239-91.91446 .74812-91.75687 .7513-91.59929 .75449-91.34653 .75986-91.18893 .76256-91.03136 .76524-90.77861 .768-90.62102 .77077-90.46344 .77351-90.21068 .77928-90.05309 .78246-89.89551 .78563-89.64276 .79057-89.48518 .79369-89.32759 .7968-89.07483 .80182-88.91725 .80493-88.75966 .80806-88.50691 .813-88.34933 .8162-88.19174 .81937-87.939 .82469-87.78142 .82787-87.62383 .83104-87.37106 .836-87.21349 .83911-87.0559 .84222-86.80315 .84724-86.64557 .85036-86.48799 .85347-86.23521 .85806-86.07764 .86159-85.92006 .86513-85.66731 .87234-85.50972 .87587-85.35214 .8794-85.09938 .884-84.94179 .88712-84.78421 .89023-84.53146 .89484-84.37387 .89836-84.2163 .9019-83.96353 .90912-83.80594 .91264-83.64836 .91617-83.39561 .92036-83.23804 .92389-83.08044 .92741-82.82768 .93465-82.6701 .93817-82.51251 .9417-82.25977 .94588-82.10219 .9494-81.9446 .95293-81.69185 .95972-81.53427 .96367-81.37668 .96764-81.12392 .974-80.96634 .97795-80.80875 .9819-80.556 .98827-80.39842 .99222-80.24084 .99619-79.98807 1.00261-79.83049 1.0065-79.67291 1.01039-79.42017 1.01646-79.26257 1.02036-79.105 1.02425-78.85223 1.03065-78.69464 1.0346-78.53706 1.03856-78.28432 1.04494-78.12672 1.04889-77.96915 1.05284-77.71638 1.05927-77.55879 1.06316-77.40121 1.06705-77.14847 1.07312-76.99089 1.07701-76.8333 1.0809-76.58054 1.0869-76.42296 1.09128-76.26537 1.09566-76.01262 1.10426-75.85504 1.10858-75.69745 1.1129-75.4447 1.1181-75.28712 1.12242-75.12953 1.12674-74.87677 1.135-74.7192 1.13971-74.5616 1.14444-74.30885 1.15227-74.15128 1.15659-73.9937 1.1609-73.74092 1.16655-73.58334 1.17087-73.42577 1.17519-73.17302 1.18307-73.01543 1.18774-72.85785 1.1924-72.60509 1.19987-72.4475 1.20459-72.28992 1.20932-72.03717 1.21718-71.87958 1.22191-71.722 1.22664-71.46924 1.2341-71.31165 1.23877-71.15407 1.24344-70.90132 1.25092-70.74374 1.25565-70.58615 1.26038-70.3334 1.26822-70.17583 1.27295-70.01823 1.27768-69.76547 1.28473-69.6079 1.28983-69.4503 1.2949-69.19756 1.30461-69.03998 1.30971-68.88239 1.31479-68.62962 1.32149-68.47205 1.32658-68.31445 1.33167-68.0617 1.34096-67.90413 1.34648-67.74655 1.35199-67.49377 1.36128-67.3362 1.36638-67.17862 1.37148-66.92587 1.37814-66.76828 1.38324-66.6107 1.38832-66.35794 1.39761-66.20035 1.40314-66.04277 1.40866-65.79002 1.41751-65.63243 1.42303-65.47485 1.42856-65.22209 1.43741-65.0645 1.44293-64.90692 1.44846-64.65417 1.45732-64.4966 1.46283-64.339 1.46835-64.08626 1.47687-63.92868 1.48273-63.77109 1.4886-63.51833 1.49934-63.36075 1.50522-63.20316 1.51108-62.95041 1.51918-62.79283 1.52512-62.63524 1.53105-62.38248 1.54211-62.2249 1.54803-62.0673 1.55397-61.81456 1.56207-61.65698 1.56793-61.4994 1.5738-61.24663 1.5842-61.08905 1.59042-60.93147 1.59665-60.67873 1.60663-60.52113 1.61292-60.36356 1.61922-60.1108 1.62955-59.9532 1.63585-59.79562 1.64214-59.54288 1.65204-59.38528 1.65833-59.2277 1.66463-58.97495 1.67496-58.81735 1.68126-58.65977 1.68755-58.40703 1.6971-58.24945 1.70375-58.09186 1.71042-57.83911 1.72256-57.68153 1.72928-57.52394 1.736-57.27118 1.74548-57.1136 1.7522-56.95601 1.75893-56.70326 1.77065-56.54568 1.77771-56.38809 1.78477-56.13533 1.79617-55.97775 1.80324-55.82016 1.8103-55.56741 1.82169-55.40984 1.82877-55.25226 1.83583-54.99948 1.8472-54.8419 1.85426-54.68433 1.86134-54.43158 1.87273-54.27399 1.87979-54.11641 1.88686-53.86365 1.89789-53.70605 1.90532-53.54848 1.91275-53.29573 1.926-53.13814 1.93343-52.98056 1.94086-52.7278 1.95146-52.5702 1.95895-52.41263 1.96645-52.15988 1.97964-52.0023 1.9875-51.84471 1.99536-51.59196 2.00818-51.43439 2.01561-51.2768 2.02304-51.02403 2.03328-50.86646 2.04114-50.70886 2.049-50.45612 2.06401-50.29854 2.07228-50.14095 2.08055-49.88818 2.09296-49.7306 2.10081-49.57301 2.10867-49.32027 2.12067-49.16269 2.12894-49.00511 2.1372-48.75233 2.15224-48.59476 2.1605-48.43718 2.16878-48.18443 2.1804-48.02684 2.18861-47.86926 2.19682-47.6165 2.21114-47.45891 2.21977-47.30133 2.22841-47.04858 2.24228-46.89099 2.25092-46.73341 2.25955-46.48067 2.27336-46.32307 2.28206-46.1655 2.29074-45.91273 2.30457-45.75516 2.31363-45.59756 2.3227-45.34482 2.33838-45.18724 2.34738-45.02965 2.35637-44.77689 2.36945-44.61931 2.37851-44.46172 2.38757-44.20897 2.40321-44.05139 2.41269-43.8938 2.42215-43.64104 2.43745-43.48346 2.44685-43.32587 2.45627-43.07312 2.47118-42.91554 2.48059-42.75797 2.49-42.50519 2.50493-42.34761 2.51477-42.19003 2.5246-41.93729 2.54169-41.7797 2.55153-41.62212 2.56136-41.36935 2.57587-41.21176 2.5857-41.05418 2.59554-40.80144 2.61226-40.64384 2.62245-40.48627 2.63266-40.23352 2.64903-40.07593 2.65923-39.91835 2.66943-39.66559 2.68538-39.50801 2.69598-39.35042 2.7066-39.09767 2.72517-38.9401 2.73578-38.7825 2.7464-38.52974 2.76195-38.37216 2.77255-38.21457 2.78317-37.96182 2.8013-37.80424 2.81235-37.64665 2.82338-37.39389 2.84111-37.23631 2.85214-37.07872 2.86317-36.82597 2.8809-36.6684 2.89194-36.51082 2.90298-36.25804 2.92075-36.10046 2.93172-35.94289 2.9427-35.69014 2.95969-35.53255 2.97108-35.37497 2.98248-35.12221 3.00209-34.96461 3.0139-34.80704 3.02571-34.55429 3.04456-34.3967 3.0563-34.23912 3.06805-33.98637 3.08687-33.82878 3.0987-33.6712 3.1105-33.41844 3.12933-33.26086 3.14151-33.10327 3.15369-32.85052 3.17397-32.69295 3.1865-32.53535 3.19902-32.2826 3.2193-32.12502 3.2319-31.96742 3.2445-31.71468 3.26472-31.5571 3.27733-31.3995 3.28993-31.14674 3.31013-30.98917 3.32274-30.83157 3.33534-30.57883 3.35521-30.42125 3.36816-30.26367 3.3811-30.0109 3.40279-29.85332 3.41617-29.69574 3.42955-29.443 3.45123-29.2854 3.46461-29.12782 3.478-28.87508 3.49924-28.71748 3.51262-28.5599 3.526-28.30714 3.54729-28.14955 3.56107-27.99197 3.57486-27.73923 3.59836-27.58163 3.6121-27.42406 3.62584-27.1713 3.64638-27.01372 3.66013-26.85612 3.67387-26.60338 3.69658-26.4458 3.71117-26.28821 3.72574-26.03545 3.75066-25.87787 3.76523-25.72028 3.77982-25.46753 3.80174-25.30995 3.81627-25.15236 3.83078-24.8996 3.85495-24.74202 3.8699-24.58443 3.88484-24.33168 3.90862-24.1741 3.92397-24.01653 3.93933-23.76375 3.96533-23.60617 3.98064-23.4486 3.99593-23.19585 4.0189-23.03825 4.03426-22.88068 4.04962-22.62793 4.07558-22.47034 4.09135-22.31276 4.10715-22.06 4.13196-21.9024 4.14803-21.74483 4.1641-21.49208 4.19078-21.33449 4.20728-21.17691 4.22377-20.92415 4.25043-20.76657 4.26697-20.60898 4.28352-20.35623 4.31017-20.19865 4.32666-20.04106 4.34315-19.7883 4.36899-19.63072 4.38591-19.47313 4.40283-19.22038 4.43172-19.0628 4.44864-18.90521 4.46556-18.65245 4.49063-18.49487 4.50789-18.33728 4.52516-18.08453 4.55551-17.92696 4.5732-17.76938 4.5909-17.5166 4.61781-17.35902 4.6355-17.20145 4.6532-16.9487 4.6827-16.7911 4.7008-16.63353 4.71893-16.38078 4.74765-16.22319 4.76611-16.06561 4.78459-15.81285 4.81519-15.65526 4.83403-15.49768 4.85286-15.24493 4.88304-15.08734 4.90193-14.92976 4.92082-14.677 4.95139-14.51942 4.97028-14.36183 4.98918-14.10909 5.01892-13.9515 5.0382-13.79391 5.05745-13.54115 5.08945-13.38358 5.10912-13.22598 5.12878-12.97324 5.16003-12.81566 5.18007-12.65807 5.2001-12.4053 5.23314-12.24773 5.2536-12.09013 5.27406-11.83739 5.3071-11.67981 5.32756-11.52223 5.34802-11.26945 5.38028-11.11188 5.4011-10.9543 5.4219-10.70155 5.4564-10.54396 5.47765-10.38638 5.49889-10.13364 5.53296-9.97604 5.5542-9.81847 5.57544-9.5657 5.6091-9.40811 5.63075-9.25053 5.65242-8.99779 5.68834-8.8402 5.71036-8.68262 5.73238-8.42986 5.76712-8.27228 5.7895-8.11469 5.81187-7.86194 5.84888-7.70436 5.87167-7.54677 5.89449-7.294 5.93108-7.13643 5.95387-6.97884 5.97668-6.72609 6.01285-6.56851 6.03606-6.41092 6.05928-6.15816 6.09763-6.00058 6.12126-5.84299 6.14491-5.59024 6.18246-5.43266 6.20647-5.27509 6.23048-5.02232 6.26993-4.86475 6.29428-4.70717 6.31863-4.4544 6.35773-4.29681 6.38208-4.13924 6.40643-3.88649 6.44511-3.7289 6.4699-3.57132 6.49467-3.31856 6.53552-3.16096 6.56073-3.00339 6.58594-2.75064 6.626-2.59305 6.65155-2.43547 6.67711-2.18271 6.71864-2.02513 6.745-1.86754 6.77133-1.61479 6.81511-1.45721 6.84145-1.29962 6.86777-1.04686 6.90811-.88928 6.93486-.73169 6.96162-.47894 7.00716-.32137 7.03435-.16377 7.06152 .08896 7.10368 .24654 7.1308 .40413 7.15791 .65688 7.20197 .81445 7.22986 .97203 7.25775 1.2248 7.30362 1.38237 7.33194 1.53995 7.36026 1.79271 7.40529 1.9503 7.43402 2.10788 7.46275 2.36063 7.51003 2.51822 7.53912 2.6758 7.56822 2.92856 7.61433 3.08615 7.64378 3.24373 7.67325 3.49648 7.7216 3.65407 7.7515 3.81165 7.78139 4.0644 7.8289 4.22198 7.8592 4.37958 7.8895 4.63232 7.93921 4.7899 7.96994 4.9475 8.00066 5.20026 8.04959 5.35783 8.08066 5.51543 8.11174 5.76817 8.16254 5.92575 8.19398 6.08334 8.22542 6.3361 8.27545 6.49368 8.30731 6.65128 8.33917 6.90402 8.39102 7.0616 8.42366 7.21918 8.4563 7.47194 8.50954 7.62952 8.5426 7.7871 8.57567 8.03986 8.62857 8.19745 8.66199 8.35503 8.6954 8.60777 8.74976 8.76537 8.78352 8.92294 8.8173 9.1757 8.87125 9.3333 8.9055 9.49088 8.93977 9.74362 8.99547 9.90121 9.03052 10.05879 9.06555 10.31155 9.1227 10.46913 9.15811 10.62672 9.19351 10.87947 9.2503 11.03705 9.2857 11.19464 9.32112 11.4474 9.37714 11.60498 9.41331 11.76257 9.4495 12.01532 9.50957 12.1729 9.54652 12.33049 9.58348 12.58325 9.64236 12.74083 9.67975 12.89842 9.71713 13.15117 9.77826 13.30875 9.816 13.46632 9.85374 13.71909 9.91373 13.87666 9.95181 14.03424 9.98991 14.287 10.05173 14.4446 10.09067 14.60217 10.12962 14.85492 10.19318 15.01251 10.23253 15.17009 10.2719 15.42285 10.33427 15.58044 10.37442 15.73802 10.41457 15.99077 10.48099 16.14836 10.52191 16.30594 10.56284 16.5587 10.62846 16.71628 10.66939 16.87387 10.71031 17.12662 10.7752 17.2842 10.8169 17.44179 10.8586 17.69455 10.92758 17.85213 10.97002 18.00972 11.01244 18.26247 11.08028 18.42004 11.1227 18.57764 11.16513 18.83038 11.2325 18.98796 11.27582 19.14555 11.31914 19.39832 11.3909 19.5559 11.435 19.71347 11.4791 19.96623 11.54892 20.12381 11.59373 20.28139 11.63855 20.53415 11.7125 20.69174 11.7581 20.84932 11.80371 21.10207 11.87686 21.25966 11.92247 21.41724 11.96806 21.67 12.04039 21.82759 12.08682 21.98517 12.13327 22.23792 12.20966 22.39551 12.25725 22.55309 12.30482 22.80585 12.38188 22.96342 12.42982 23.12102 12.47778 23.37376 12.55443 23.53134 12.60284 23.68893 12.65126 23.9417 12.72968 24.09927 12.77888 24.25687 12.8281 24.50961 12.9076 24.66719 12.95752 24.82478 13.00745 25.07753 13.08806 25.2351 13.13876 25.3927 13.18945 25.64546 13.2719 25.80304 13.32303 25.96062 13.37415 26.21338 13.45532 26.37096 13.50728 26.52853 13.55925 26.7813 13.6445 26.93889 13.6976 27.09647 13.7507 27.34921 13.83661 27.5068 13.89008 27.66438 13.94354 27.91714 14.02869 28.07474 14.08298 28.23232 14.13728 28.48506 14.22643 28.64265 14.28152 28.80023 14.33661 29.053 14.42462 29.21057 14.48006 29.36816 14.5355 29.62091 14.62456 29.77849 14.6812 29.93608 14.73784 30.18884 14.83095 30.34642 14.88837 30.50401 14.94579 30.75676 15.03693 30.91434 15.09514 31.07193 15.15334 31.32468 15.2489 31.48225 15.30794 31.63985 15.36699 31.89261 15.46098 32.05019 15.52074 32.20776 15.5805 32.46053 15.67819 32.6181 15.73874 32.77568 15.79929 33.02844 15.89578 33.18604 15.95717 33.34361 16.01855 33.59636 16.11871 33.75395 16.18124 33.91153 16.24376 34.16429 16.34459 34.32188 16.40788 34.47946 16.47119 34.73221 16.5734 34.8898 16.63756 35.04738 16.7017 35.30014 16.80534 35.45772 16.87027 35.61531 16.9352 35.86806 17.03986 36.02563 17.10556 36.18323 17.17126 36.43599 17.27705 36.59357 17.3439 36.75116 17.41074 37.0039 17.51979 37.16148 17.58742 37.31908 17.65506 37.57182 17.7629 37.7294 17.83136 37.887 17.89984 38.13976 18.01091 38.29733 18.08093 38.45491 18.15096 38.70767 18.26532 38.86525 18.33614 39.02283 18.40694 39.27559 18.51974 39.43318 18.59132 39.59076 18.66292 39.8435 18.77936 40.0011 18.85214 40.15868 18.92494 40.41144 19.04245 40.56903 19.11601 40.72661 19.18958 40.97935 19.30774 41.13695 19.38245 41.29453 19.45714 41.54729 19.5786 41.70486 19.65451 41.86246 19.73041 42.1152 19.8529 42.27278 19.92961 42.43037 20.0063 42.68312 20.12982 42.8407 20.20729 42.99829 20.28477 43.25105 20.40935 43.40863 20.48802 43.56622 20.56668 43.81897 20.69405 43.97655 20.77435 44.13414 20.85464 44.3869 20.9853 44.54448 21.06674 44.70206 21.14818 44.95482 21.2791 45.1124 21.36131 45.26997 21.44353 45.52274 21.57591 45.68033 21.65933 45.8379 21.74274 46.09065 21.87798 46.24825 21.96254 46.40582 22.04709 46.65858 22.18303 46.81618 22.26878 46.97375 22.35454 47.2265 22.49368 47.3841 22.58063 47.54167 22.66759 47.79443 22.80743 47.95201 22.89552 48.1096 22.98363 48.36235 23.12596 48.51993 23.2156 48.67752 23.30525 48.93027 23.45082 49.08784 23.54173 49.24544 23.63264 49.4982 23.77885 49.65578 23.8709 49.81337 23.96295 50.06612 24.11205 50.2237 24.20523 50.38129 24.29843 50.63405 24.44824 50.79163 24.54263 50.9492 24.63702 51.20197 24.78961 51.35954 24.88564 51.51712 24.98164 51.76988 25.13747 51.92747 25.23468 52.08505 25.3319 52.3378 25.48798 52.49539 25.58633 52.65297 25.6847 52.90573 25.84369 53.06332 25.94362 53.2209 26.04353 53.47365 26.20505 53.63124 26.30652 53.78882 26.40799 54.04158 26.572 54.19916 26.67503 54.35675 26.77808 54.6095 26.94493 54.76707 27.04918 54.92467 27.15341 55.17741 27.3209 55.33499 27.42635 55.49258 27.5318 55.74535 27.70216 55.90292 27.80916 56.06052 27.91615 56.31326 28.08966 56.47084 28.19757 56.62843 28.30547 56.8812 28.4774 57.03877 28.58685 57.19635 28.6963 57.44911 28.87491 57.60669 28.98651 57.76427 29.09813 58.01703 29.2782 58.17462 29.39137 58.3322 29.50455 58.58495 29.68748 58.74254 29.80229 58.90012 29.91708 59.15288 30.1024 59.31047 30.21883 59.46805 30.33524 59.7208 30.52336 59.87839 30.6414 60.03596 30.75945 60.28873 30.94997 60.4463 31.06963 60.6039 31.18929 60.85664 31.38255 61.01422 31.50389 61.17181 31.62523 61.42456 31.82114 61.58214 31.94421 61.73973 32.06729 61.9925 32.2662 62.15007 32.39104 62.30766 32.51585 62.56041 32.71735 62.71799 32.8439 62.87558 32.97046 63.12834 33.17488 63.28592 33.30324 63.4435 33.43161 63.69626 33.63899 63.85384 33.76909 64.01141 33.89919 64.26418 34.10909 64.42177 34.24098 64.57935 34.3729 64.83209 34.5861 64.98969 34.7198 65.14726 34.8535 65.40002 35.06908 65.55762 35.20468 65.7152 35.3403 65.96794 35.55972 66.12553 35.69734 66.28311 35.83495 66.53586 36.05698 66.69344 36.1965 66.85103 36.33601 67.10379 36.56161 67.26137 36.70299 67.41896 36.84438 67.6717 37.07225 67.82928 37.21556 67.98688 37.35887 68.23964 37.59048 68.39722 37.7359 68.55481 37.8813 68.80756 38.11615 68.96513 38.2636 69.12273 38.41104 69.37549 38.64917 69.53307 38.79865 69.69064 38.94814 69.9434 39.18947 70.10098 39.34103 70.25856 39.49261 70.51132 39.73753 70.66891 39.89124 70.82649 40.04492 71.07924 40.29292 71.23683 40.44878 71.39441 40.60463 71.64717 40.8564 71.80476 41.01454 71.96234 41.17267 72.21509 41.42822 72.37268 41.58852 72.53026 41.74881 72.783 42.00745 72.94058 42.16985 73.09818 42.33223 73.35094 42.59424 73.50851 42.75896 73.6661 42.92369 73.91885 43.19016 74.07643 43.35716 74.23402 43.52417 74.48679 43.79337 74.64436 43.96272 74.80196 44.13206 75.0547 44.40598 75.21228 44.57779 75.36987 44.7496 75.62263 45.02692 75.78021 45.20107 75.93779 45.37523 76.19055 45.65634 76.34813 45.83301 76.5057 46.00969 76.75847 46.29532 76.91606 46.47446 77.07364 46.6536 77.32639 46.9426 77.48398 47.12413 77.64156 47.30568 77.89432 47.59872 78.05191 47.7829 78.20949 47.96707 78.46223 48.26495 78.61983 48.45158 78.7774 48.63821 79.03015 48.93887 79.18773 49.12808 79.34532 49.3173 79.59808 49.62354 79.75566 49.81538 79.91325 50.00723 80.166 50.31622 80.32358 50.51091 80.48117 50.70558 80.73393 51.02104 80.89151 51.21854 81.0491 51.41605 81.30185 51.73431 81.45943 51.93439 81.61702 52.13446 81.86978 52.45778 82.02736 52.66061 82.18494 52.86346 82.4377 53.19064 82.59528 53.39636 82.75285 53.60208 83.00562 53.93475 83.16321 54.14336 83.32079 54.35196 83.57353 54.68834 83.73112 54.89987 83.8887 55.1114 84.14145 55.45345 84.29904 55.66806 84.45662 55.88266 84.70938 56.22914 84.86697 56.44662 85.02455 56.66411 85.2773 57.01509 85.43488 57.23558 85.59247 57.45607 85.84523 57.8121 86.0028 58.03577 86.1604 58.25943 86.41315 58.62086 86.57072 58.84764 86.72832 59.07442 86.98108 59.4406 87.13866 59.67033 87.29625 59.90005 87.549 60.2705 87.70657 60.5034 87.86417 60.7363 88.11693 61.11255 88.2745 61.349 88.43208 61.58545 88.68484 61.96785 88.84242 62.2076 89 62.44734 89.25276 62.83395 89.41035 63.077 89.56793 63.32005 89.82068 63.71303 89.97827 63.95938 90.13585 64.20573 90.3886 64.60275 90.54619 64.85257 90.70377 65.1024 90.95653 65.50653 91.11412 65.76003 91.2717 66.01352 91.52444 66.42264 91.68202 66.67961 91.83961 66.93658 92.09238 67.3517 92.24995 67.61215 92.40755 67.87262 92.6603 68.29277 92.81787 68.55682 92.97546 68.82088 93.22823 69.24738 93.3858 69.51532 93.5434 69.78328 93.79614 70.21649 93.95372 70.4881 94.11131 70.75972 94.36407 71.19771 94.52165 71.47299 94.67923 71.74826 94.93199 72.19287 95.08957 72.47215 95.24715 72.75145 95.49991 73.20276 95.6575 73.48602 95.81508 73.76929 96.06783 74.22658 96.22542 74.51373 96.383 74.8009 96.63574 75.26479 96.79333 75.55573 96.95091 75.84666 97.20367 76.31566 97.36127 76.61069 97.51884 76.9057 97.77159 77.38255 97.92917 77.68207 98.08676 77.9816 98.33952 78.46594 98.4971 78.76949 98.6547 79.07303 98.90744 79.5621 99.06502 79.86984 99.22261 80.1776 99.47537 80.67534 99.63295 80.98753 99.79054 81.29971 100.04329 81.80342 100.20087 82.11992 100.35846 82.43643 100.61122 82.9481 100.7688 83.26874 100.92638 83.58937 101.17914 84.10571 101.33672 84.43097 101.4943 84.75624 101.74706 85.28316 101.90465 85.6131 102.06223 85.94304 102.31497 86.47469 102.47256 86.80907 102.63014 87.14345 102.88289 87.68396 103.04048 88.02321 103.19806 88.36244 103.45082 88.91032 103.60841 89.2542 103.76599 89.59807 104.01874 90.15297 104.17632 90.50165 104.33391 90.85031 104.58667 91.41371 104.74425 91.76726 104.90184 92.12079 105.15459 92.69121 105.31216 93.04973 105.46976 93.40823 105.72252 93.98743 105.8801 94.35123 106.03769 94.71503 106.29044 95.30304 106.44801 95.67175 106.6056 96.04048 106.85837 96.63504 107.01595 97.00874 107.17352 97.38243 107.42628 97.98598 107.58386 98.36519 107.74144 98.7444 107.99419 99.35764 108.15178 99.74196 108.30936 100.12627 108.56212 100.74568 108.71971 101.13515 108.87729 101.52463 109.13004 102.15387 109.28763 102.54912 109.4452 102.94437 109.69797 103.58327 109.85556 103.98386 110.01314 104.38445 110.26588 105.03001 110.42346 105.43631 110.58105 105.84259 110.83382 106.50026 110.9914 106.91212 111.14899 107.324 111.40173 107.9873 111.55931 108.40482 111.7169 108.82233 111.96967 109.49748 112.12724 109.9213 112.28484 110.34512 112.53758 111.02983 112.69516 111.45941 112.85275 111.88899 113.10551 112.5819 113.26309 113.0174 113.42067 113.45291 113.67343 114.15681 113.83101 114.59833 113.98859 115.03984 114.24133 115.75188 114.39893 116.19958 114.5565 116.64728 114.80927 117.37108 114.96686 117.82507 115.12444 118.27907 115.37718 119.01155 115.53477 119.47173 115.69235 119.93192 115.94511 120.67511 116.1027 121.14175 116.26028 121.60841 116.51303 122.3619 116.67061 122.83516 116.8282 123.30843 117.08096 124.07285 117.23854 124.55276 117.39613 125.0327 117.64888 125.80751 117.80646 126.29416 117.96405 126.78079 118.21681 127.56679 118.37439 128.06021 118.53198 128.55364 118.78473 129.35016 118.9423 129.8505 119.0999 130.35082 119.35266 131.1591 119.51024 131.66628 119.66782 132.17345 119.92058 132.99155 120.07816 133.50586 120.23573 134.02017 120.48848 134.85132 120.64607 135.37313 120.80365 135.89493 121.05641 136.7376 121.214 137.26679 121.37158 137.79599 121.62433 138.65103 121.78192 139.18726 121.9395 139.72348 122.19226 140.58805 122.34985 141.13152 122.50743 141.67499 122.76018 142.55269 122.91776 143.10433 123.07535 143.65595 123.32811 144.54807 123.48569 145.10739 123.64328 145.66672 123.89603 146.56868 124.0536 147.13556 124.2112 147.70244 124.46396 148.61841 124.62154 149.19315 124.77913 149.7679 125.03188 150.69503 125.18945 151.27799 125.34705 151.86095 125.59981 152.80352 125.75739 153.39482 125.91496 153.98613 126.16772 154.94037 126.3253 155.53978 126.48288 156.13919 126.73563 157.10715 126.89322 157.71501 127.0508 158.32288 127.30356 159.30493 127.46115 159.92096 127.61873 160.53699 127.87148 161.53046 128.02907 162.15502 128.18665 162.77957 128.4394 163.78853 128.597 164.4224 128.75458 165.05625 129.00733 166.08092 129.1649 166.72348 129.3225 167.36605 129.57526 168.40254 129.73284 169.05356 129.89043 169.70459 130.14318 170.75533 130.30075 171.41567 130.45835 172.07599 130.7111 173.14293 130.86869 173.81279 131.02628 174.48265 131.27902 175.56424 131.4366 176.24364 131.5942 176.92305 131.84694 178.02101 132.00452 178.70954 132.1621 179.39807 132.41487 180.50821 132.57245 181.20616 132.73003 181.90412 132.98278 183.0317 133.14037 183.73996 133.29795 184.44824 133.5507 185.59304 133.7083 186.31098 133.86588 187.02892 134.11862 188.18682 134.27622 188.91442 134.43379 189.64202 134.68656 190.81671 134.84415 191.55506 135.00173 192.29341 135.25447 193.48738 135.41205 194.23593 135.56964 194.98447 135.8224 196.19136 135.97998 196.9501 136.13758 197.70885 136.39032 198.93502 136.5479 199.7045 136.70549 200.474 136.95825 201.716 137.11583 202.49611 137.27342 203.27622 137.52617 204.5359 137.68375 205.32706 137.84134 206.11823 138.09409 207.39583 138.25167 208.19826 138.40924 209.0007 138.66202 210.29706 138.8196 211.11054 138.97718 211.92401 139.22992 213.23636 139.38751 214.0613 139.54509 214.88623 139.79785 216.21968 139.95545 217.0562 140.11302 217.89272 140.36577 219.24245 140.52336 220.09046 140.68094 220.93845 140.9337 222.30823 141.0913 223.16797 141.24887 224.02771 141.6592 226.28699 141.6592 226.28699"/>
</g>
<use data-text="&#x2022;" xlink:href="#font_3_1" transform="matrix(9.963397,0,0,-9.963197,146.41727,133.34223)"/>
<use data-text="(" xlink:href="#font_4_1" transform="matrix(9.963397,0,0,-9.963197,123.247409,125.11774)"/>
<use data-text="0" xlink:href="#font_4_3" transform="matrix(9.963397,0,0,-9.963197,127.11322,125.11774)"/>
<use data-text="," xlink:href="#font_1_1" transform="matrix(9.963397,0,0,-9.963197,132.10413,125.11774)"/>
<use data-text="1" xlink:href="#font_4_4" transform="matrix(9.963397,0,0,-9.963197,136.53148,125.11774)"/>
<use data-text=")" xlink:href="#font_4_2" transform="matrix(9.963397,0,0,-9.963197,141.51317,125.11774)"/>
</svg>
