<svg xmlns="http://www.w3.org/2000/svg" xmlns:xlink="http://www.w3.org/1999/xlink" version="1.1" width="347" height="348" viewBox="0 0 347 348">
<defs>
<path id="font_1_2" d="M.33399964 .30233766C.33999635 .32835389 .36299134 .42037965 .43299867 .42037965 .43798829 .42037965 .46199037 .42037965 .48298646 .40734864 .45498658 .402359 .43499757 .37734986 .43499757 .35334779 .43499757 .33735658 .44599916 .31835938 .47299195 .31835938 .49499513 .31835938 .5269928 .3363495 .5269928 .37635804 .5269928 .42837525 .46798707 .4423828 .43399049 .4423828 .37599183 .4423828 .34098817 .38935853 .32899476 .36634828 .3039856 .43237306 .25 .4423828 .22099304 .4423828 .116989139 .4423828 .05999756 .3133545 .05999756 .28834535 .05999756 .27833558 .069992069 .27833558 .07199097 .27833558 .07998657 .27833558 .08299255 .28033448 .084991458 .28933717 .11898804 .39535523 .18499756 .42037965 .21899414 .42037965 .23799134 .42037965 .272995 .4113617 .272995 .35334779 .272995 .32235719 .2559967 .25532533 .21899414 .11528015 .20298767 .053268434 .16799927 .011245728 .12399292 .011245728 .117996219 .011245728 .09498596 .011245728 .07398987 .024276734 .09899902 .029266358 .12098694 .05027771 .12098694 .07827759 .12098694 .105270389 .09899902 .11328125 .083999637 .11328125 .053985597 .11328125 .0289917 .08728027 .0289917 .055267335 .0289917 .009246826 .07899475-.0107421879 .12298584-.0107421879 .18899536-.0107421879 .22499085 .059280397 .22799683 .0652771 .23999024 .028274537 .27598573-.0107421879 .33599855-.0107421879 .43899537-.0107421879 .49598695 .118270877 .49598695 .14328003 .49598695 .1532898 .4869995 .1532898 .48399354 .1532898 .47499085 .1532898 .47299195 .14929199 .47099305 .14228821 .43798829 .03527832 .36999513 .011245728 .33799745 .011245728 .29899598 .011245728 .2829895 .043273927 .2829895 .07727051 .2829895 .09927368 .2889862 .121276859 .2999878 .16529846L.33399964 .30233766Z"/>
<path id="font_1_3" d="M.48599244 .38136292C.48999024 .39537049 .48999024 .39736939 .48999024 .40437318 .48999024 .42237855 .47599793 .43138124 .46099855 .43138124 .45098878 .43138124 .43499757 .42536927 .42599488 .41036988 .42399598 .405365 .41600038 .37435914 .4119873 .35635377 .40499879 .33035279 .397995 .30334474 .3919983 .27633668L.34700013 .09628296C.34298707 .08126831 .2999878 .011245728 .23399353 .011245728 .18299866 .011245728 .17199707 .055267335 .17199707 .0922699 .17199707 .1382904 .18899536 .20030213 .22299195 .28833009 .23899842 .3293457 .24299622 .3403473 .24299622 .36035157 .24299622 .405365 .21099854 .4423828 .16099549 .4423828 .06599426 .4423828 .0289917 .29733277 .0289917 .28833009 .0289917 .27833558 .038986207 .27833558 .040985109 .27833558 .050994874 .27833558 .051986696 .28033448 .056991579 .29634095 .083999637 .3903656 .12399292 .42037965 .1579895 .42037965 .1659851 .42037965 .18299866 .42037965 .18299866 .3883667 .18299866 .36335755 .17298889 .3373413 .1659851 .31834413 .12599182 .21231079 .10798645 .1552887 .10798645 .10827637 .10798645 .019256592 .17098999-.0107421879 .22999573-.0107421879 .2689972-.0107421879 .30299378 .0062561037 .33099366 .03425598 .31799317-.017745972 .30599977-.06674194 .2659912-.11973572 .23999024-.15385437 .20199585-.18309021 .1559906-.18309021 .14199829-.18309021 .09700012-.18005371 .07998657-.14074707 .09599304-.14074707 .10899353-.14074707 .12298584-.1287384 .1329956-.11973572 .14299011-.10673523 .14299011-.08773804 .14299011-.056747438 .115997318-.052734376 .10598755-.052734376 .08299255-.052734376 .049987794-.068740848 .049987794-.11773682 .049987794-.16796875 .09399414-.20507813 .1559906-.20507813 .25898744-.20507813 .3619995-.11373901 .3899994-.00074768069L.48599244 .38136292Z"/>
<clipPath id="clip_2">
<path transform="matrix(1.00006,0,0,-1.00002,171.58319,176.53128)" d="M-170.08086-170.08086V170.08086H170.08086V-170.08086ZM170.08086 170.08086"/>
</clipPath>
<path id="font_3_2" d="M.44400025 .24998474C.44400025 .35688783 .35499574 .44381715 .25 .44381715 .14199829 .44381715 .054992677 .35488893 .054992677 .24998474 .054992677 .14407349 .14199829 .056137086 .25 .056137086 .35499574 .056137086 .44400025 .14308167 .44400025 .24998474Z"/>
<path id="font_4_1" d="M.33099366-.2400055C.33099366-.23701477 .33099366-.23500061 .31399537-.21800232 .18899536-.0920105 .15699768 .09700012 .15699768 .25 .15699768 .42399598 .19499207 .59799197 .31799317 .72299197 .33099366 .73498538 .33099366 .7369995 .33099366 .73999026 .33099366 .746994 .32699586 .75 .32099916 .75 .31098939 .75 .22099304 .6819916 .1619873 .5549927 .11099243 .44499208 .09899902 .33399964 .09899902 .25 .09899902 .17199707 .10998535 .050994874 .16499329-.06201172 .22499085-.18501282 .31098939-.25 .32099916-.25 .32699586-.25 .33099366-.24700928 .33099366-.2400055Z"/>
<path id="font_5_1" d="M.46398927-1.609787 .24899292-.85987856 .10998535-1.0228577 .12599182-1.037857 .19400025-.9578705 .42399598-1.7597656C.45700074-1.7597656 .45799256-1.7597656 .46598817-1.7357788L1.0149994 .000030517579C1.019989 .015014648 1.019989 .01902771 1.019989 .02003479 1.019989 .031036377 1.0119934 .040039064 1 .040039064 .9850006 .040039064 .98098757 .027038575 .97698977 .014022827L.46398927-1.609787Z"/>
<path id="font_6_1" d="M.33499146 .63612368C.33499146 .6630554 .33299256 .6640625 .30499269 .6640625 .24099732 .6014404 .1499939 .6004486 .10899353 .6004486V.5644531C.1329956 .5644531 .19898987 .5644531 .2539978 .592453V.08203125C.2539978 .04899597 .2539978 .035995485 .1539917 .035995485H.115997318V0C.13398743 .0009918213 .25698854 .0039978029 .2939911 .0039978029 .32499696 .0039978029 .45098878 .0009918213 .47299195 0V.035995485H.43499757C.33499146 .035995485 .33499146 .04899597 .33499146 .08203125V.63612368Z"/>
<path id="font_6_2" d="M.5049896 .18203736H.47099305C.46798707 .16001892 .45799256 .100997928 .44499208 .09098816 .43699647 .084991458 .3600006 .084991458 .34599305 .084991458H.1619873C.2669983 .17803955 .3019867 .20603943 .3619995 .25306703 .43598939 .312088 .5049896 .374115 .5049896 .46914674 .5049896 .5900879 .39898683 .6640625 .2709961 .6640625 .14698792 .6640625 .06298828 .57710269 .06298828 .4851532 .06298828 .43414308 .10598755 .42915345 .115997318 .42915345 .13999939 .42915345 .16899109 .44615174 .16899109 .48214723 .16899109 .5001526 .1619873 .53515627 .10998535 .53515627 .14099121 .6060791 .20899964 .62805178 .2559967 .62805178 .35598756 .62805178 .4079895 .5501404 .4079895 .46914674 .4079895 .38212586 .34599305 .3130951 .31399537 .27708436L.07299805 .038986207C.06298828 .02999878 .06298828 .027999878 .06298828 0H.47499085L.5049896 .18203736Z"/>
<path id="font_1_1" d="M.20298767 .0009918213C.20298767 .066986087 .17799378 .10598755 .13899231 .10598755 .10598755 .10598755 .085998538 .08099365 .085998538 .052993776 .085998538 .025985718 .10598755 0 .13899231 0 .15098572 0 .1639862 .0039978029 .17399597 .0129852299 .1769867 .01499939 .17799378 .015991211 .1789856 .015991211 .17999268 .015991211 .18099976 .01499939 .18099976 .0009918213 .18099976-.07316589 .1459961-.13328552 .11299133-.16635132 .101989749-.17736817 .101989749-.17936707 .101989749-.18237305 .101989749-.18936157 .10699463-.19335938 .11199951-.19335938 .12298584-.19335938 .20298767-.116256717 .20298767 .0009918213Z"/>
<path id="font_4_3" d="M.45999146 .31976319C.45999146 .39982606 .45498658 .47988893 .41999818 .5539398 .37399293 .65000918 .2919922 .6660156 .25 .6660156 .18998719 .6660156 .116989139 .64001467 .07598877 .54693606 .04399109 .47789 .038986207 .39982606 .038986207 .31976319 .038986207 .24472046 .042999269 .15464783 .083999637 .07859802 .1269989-.0024719239 .19999695-.022460938 .24899292-.022460938 .30299378-.022460938 .3789978-.0014648438 .4229889 .09359741 .45498658 .16265869 .45999146 .2407074 .45999146 .31976319M.24899292-.00047302247C.20999146-.00047302247 .15098572 .024551392 .1329956 .12062073 .12199402 .18066406 .12199402 .2727356 .12199402 .3317871 .12199402 .39582826 .12199402 .46188355 .12998963 .5159149 .14898682 .63500979 .22399903 .64401248 .24899292 .64401248 .28199769 .64401248 .34799195 .6259918 .36698915 .52693179 .3769989 .47088624 .3769989 .39482118 .3769989 .3317871 .3769989 .25672914 .3769989 .18867493 .3659973 .12461853 .35099793 .029556275 .2939911-.00047302247 .24899292-.00047302247Z"/>
<path id="font_4_2" d="M.2889862 .25C.2889862 .32798768 .27799989 .44898988 .22299195 .56199648 .16299439 .68499758 .07699585 .75 .066986087 .75 .06098938 .75 .056991579 .74598696 .056991579 .73999026 .056991579 .7369995 .056991579 .73498538 .07598877 .71699526 .17399597 .6179962 .23098755 .45899964 .23098755 .25 .23098755 .07899475 .19400025-.09700012 .069992069-.2230072 .056991579-.23500061 .056991579-.23701477 .056991579-.2400055 .056991579-.2460022 .06098938-.25 .066986087-.25 .07699585-.25 .16699219-.18200684 .22599793-.055007936 .2769928 .054992677 .2889862 .16600037 .2889862 .25Z"/>
<path id="font_3_1" d="M.6589966 .23046875C.6759949 .23046875 .69400027 .23046875 .69400027 .25045777 .69400027 .27046205 .6759949 .27046205 .6589966 .27046205H.117996219C.100997928 .27046205 .08299255 .27046205 .08299255 .25045777 .08299255 .23046875 .100997928 .23046875 .117996219 .23046875H.6589966Z"/>
<path id="font_4_4" d="M.2939911 .64004519C.2939911 .66400149 .2939911 .6660156 .2709961 .6660156 .20899964 .60227969 .12098694 .60227969 .08898926 .60227969V.57128909C.10899353 .57128909 .16799927 .57128909 .21998596 .5972748V.07902527C.21998596 .042999269 .21699524 .0309906 .1269989 .0309906H.09498596V0C.12998963 .0029907227 .21699524 .0029907227 .25698854 .0029907227 .29699708 .0029907227 .38398744 .0029907227 .4189911 0V.0309906H.3869934C.29699708 .0309906 .2939911 .041992189 .2939911 .07902527V.64004519Z"/>
</defs>
<path transform="matrix(1.00006,0,0,-1.00002,171.58319,176.53128)" stroke-width=".19925" stroke-linecap="butt" stroke-miterlimit="10" stroke-linejoin="miter" fill="none" stroke="#929292" stroke-opacity=".5" d="M-170.08086-170.08086H170.08086M-170.08086-155.90744H170.08086M-170.08086-141.73404H170.08086M-170.08086-127.56062H170.08086M-170.08086-113.38724H170.08086M-170.08086-99.21382H170.08086M-170.08086-85.04042H170.08086M-170.08086-70.867H170.08086M-170.08086-56.69362H170.08086M-170.08086-42.5202H170.08086M-170.08086-28.3468H170.08086M-170.08086-14.17339H170.08086M-170.08086 0H170.08086M-170.08086 14.17339H170.08086M-170.08086 28.3468H170.08086M-170.08086 42.5202H170.08086M-170.08086 56.69362H170.08086M-170.08086 70.867H170.08086M-170.08086 85.04042H170.08086M-170.08086 99.21382H170.08086M-170.08086 113.38724H170.08086M-170.08086 127.56062H170.08086M-170.08086 141.73404H170.08086M-170.08086 155.90744H170.08086M-170.08086 170.07587H170.08086M-170.08086-170.08086V170.08086M-155.90744-170.08086V170.08086M-141.73404-170.08086V170.08086M-127.56062-170.08086V170.08086M-113.38724-170.08086V170.08086M-99.21382-170.08086V170.08086M-85.04042-170.08086V170.08086M-70.867-170.08086V170.08086M-56.69362-170.08086V170.08086M-42.5202-170.08086V170.08086M-28.3468-170.08086V170.08086M-14.17339-170.08086V170.08086M0-170.08086V170.08086M14.17339-170.08086V170.08086M28.3468-170.08086V170.08086M42.5202-170.08086V170.08086M56.69362-170.08086V170.08086M70.867-170.08086V170.08086M85.04042-170.08086V170.08086M99.21382-170.08086V170.08086M113.38724-170.08086V170.08086M127.56062-170.08086V170.08086M141.73404-170.08086V170.08086M155.90744-170.08086V170.08086M170.07587-170.08086V170.08086M170.08086 170.08086"/>
<path transform="matrix(1.00006,0,0,-1.00002,171.58319,176.53128)" stroke-width="1.19553" stroke-linecap="butt" stroke-miterlimit="10" stroke-linejoin="miter" fill="none" stroke="#000000" d="M-170.08086 0H170.54186"/>
<path transform="matrix(1.00006,0,0,-1.00002,342.13526,176.53128)" stroke-width=".9564" stroke-linecap="round" stroke-linejoin="round" fill="none" stroke="#000000" d="M-1.91284 2.55046C-1.75343 1.59402 0 .15938 .4782 0 0-.15938-1.75343-1.59402-1.91284-2.55046"/>
<use data-text="x" xlink:href="#font_1_2" transform="matrix(9.963197,0,0,-9.962799,340.24433,172.6132)"/>
<path transform="matrix(1.00006,0,0,-1.00002,171.58319,176.53128)" stroke-width="1.19553" stroke-linecap="butt" stroke-miterlimit="10" stroke-linejoin="miter" fill="none" stroke="#000000" d="M0-170.08086V170.54186"/>
<path transform="matrix(0,-1.00002,-1.00006,-0,171.58319,5.9860079)" stroke-width=".9564" stroke-linecap="round" stroke-linejoin="round" fill="none" stroke="#000000" d="M-1.91284 2.55046C-1.75343 1.59402 0 .15938 .4782 0 0-.15938-1.75343-1.59402-1.91284-2.55046"/>
<use data-text="y" xlink:href="#font_1_3" transform="matrix(9.963197,0,0,-9.962799,175.50144,6.2058565)"/>
<g clip-path="url(#clip_2)">
<path transform="matrix(1.00006,0,0,-1.00002,171.58319,176.53128)" stroke-width=".79701" stroke-linecap="butt" stroke-miterlimit="10" stroke-linejoin="miter" fill="none" stroke="#0000ff" d="M-70.867-552.76278C-70.867-552.76278-70.66185-548.6645-70.58305-547.0948-70.50426-545.52517-70.37788-543.01309-70.29909-541.44979-70.2203-539.88638-70.09392-537.3843-70.01512-535.8272-69.93633-534.27017-69.80995-531.77828-69.73117-530.22756-69.65237-528.6769-69.526-526.1952-69.4472-524.6508-69.36841-523.1065-69.24203-520.63516-69.16325-519.09707-69.08446-517.55899-68.95807-515.0971-68.87927-513.5653-68.80048-512.0335-68.6741-509.58238-68.59532-508.05696-68.51653-506.53153-68.39015-504.0902-68.31136-502.57109-68.23257-501.05195-68.10619-498.62095-68.0274-497.10813-67.94861-495.59529-67.82224-493.1741-67.74344-491.66767-67.66466-490.1612-67.53827-487.75074-67.45947-486.25056-67.38068-484.75038-67.2543-482.3494-67.1755-480.8555-67.09673-479.36158-66.97035-476.97096-66.89156-475.48338-66.81276-473.99583-66.68639-471.61537-66.6076-470.13417-66.52881-468.65299-66.40242-466.28279-66.32362-464.8079-66.24483-463.333-66.11845-460.97273-66.03967-459.50413-65.96088-458.03553-65.8345-455.68556-65.7557-454.22328-65.67691-452.76097-65.55054-450.4209-65.47176-448.9649-65.39296-447.5089-65.26657-445.17915-65.18777-443.72947-65.109-442.2798-64.9826-439.9599-64.90382-438.51655-64.82503-437.07313-64.69865-434.76353-64.61986-433.32649-64.54108-431.88948-64.4147-429.59007-64.3359-428.1594-64.25711-426.72874-64.13074-424.43959-64.05194-423.0152-63.97316-421.59086-63.84677-419.31166-63.76797-417.89353-63.68918-416.47544-63.5628-414.20619-63.48402-412.79435-63.40523-411.3825-63.27885-409.12355-63.20006-407.7181-63.12126-406.31263-62.99489-404.06385-62.9161-402.66474-62.83731-401.26564-62.71092-399.0271-62.63213-397.6343-62.55333-396.24153-62.42696-394.01295-62.34818-392.6264-62.26938-391.23985-62.143-389.02116-62.06421-387.641-61.98543-386.26078-61.85904-384.05278-61.78026-382.6789-61.70146-381.305-61.57509-379.10649-61.49629-377.7389-61.41751-376.37129-61.29112-374.18348-61.21233-372.82225-61.13353-371.46098-61.00716-369.28297-60.92836-367.92805-60.84958-366.5731-60.7232-364.40544-60.64441-363.05683-60.56561-361.7082-60.43924-359.55039-60.36046-358.20805-60.28166-356.86573-60.15527-354.71827-60.07648-353.38224-59.99768-352.0462-59.8713-349.90855-59.79253-348.5789-59.71373-347.2492-59.58736-345.12229-59.50856-343.79893-59.42976-342.47557-59.30339-340.35807-59.22461-339.041-59.14581-337.72395-59.01944-335.61714-58.94064-334.30644-58.86186-332.99574-58.73546-330.89884-58.65668-329.5944-58.57788-328.2899-58.4515-326.2029-58.37271-324.9048-58.29393-323.6067-58.16756-321.53038-58.08876-320.23857-58.00996-318.94679-57.88359-316.8799-57.8048-315.59443-57.72601-314.30894-57.59962-312.25273-57.52083-310.9736-57.44203-309.69447-57.31566-307.6482-57.23688-306.3753-57.15808-305.1024-57.03171-303.066-56.95291-301.79948-56.87411-300.53294-56.74774-298.5072-56.66896-297.247-56.59016-295.98686-56.46378-293.97099-56.38498-292.71708-56.30618-291.46315-56.17981-289.45719-56.10103-288.20957-56.02223-286.96195-55.89586-284.96629-55.81706-283.725-55.73828-282.48377-55.6119-280.49836-55.53311-279.26338-55.45432-278.0284-55.32794-276.0529-55.24915-274.82426-55.17036-273.59559-55.04398-271.63035-54.96518-270.40803-54.88638-269.18574-54.76001-267.23075-54.68121-266.01475-54.60243-264.79875-54.47606-262.85365-54.39726-261.64396-54.31847-260.43428-54.1921-258.49949-54.11331-257.29609-54.03452-256.09269-53.90813-254.16779-53.82933-252.97069-53.75053-251.77359-53.62416-249.85898-53.54538-248.66825-53.46658-247.47751-53.34021-245.57315-53.26141-244.38872-53.18262-243.20429-53.05624-241.3098-52.97746-240.13167-52.89867-238.95354-52.7723-237.06938-52.6935-235.89756-52.61472-234.72573-52.48831-232.85146-52.40953-231.68593-52.33073-230.5204-52.20436-228.6564-52.12556-227.49724-52.04678-226.33808-51.92041-224.48433-51.84161-223.33147-51.76282-222.17859-51.63644-220.33475-51.55765-219.18819-51.47887-218.04163-51.35248-216.20809-51.27368-215.06783-51.19489-213.92755-51.06851-212.10393-50.98973-210.96996-50.91093-209.836-50.78456-208.02262-50.70576-206.895-50.62697-205.76743-50.5006-203.9643-50.42181-202.843-50.34302-201.7217-50.21663-199.92848-50.13783-198.81348-50.05904-197.69849-49.93266-195.91551-49.85388-194.80689-49.77509-193.69826-49.64871-191.92554-49.56992-190.82321-49.49113-189.72087-49.36475-187.95806-49.28596-186.86203-49.20717-185.76599-49.0808-184.01349-49.002-182.92375-48.92322-181.83403-48.79683-180.09143-48.71803-179.008-48.63924-177.92458-48.51286-176.19222-48.43407-175.11516-48.35529-174.03809-48.22891-172.316-48.15012-171.24524-48.07132-170.17449-47.94495-168.46228-47.86617-167.39781-47.78737-166.33335-47.66098-164.63147-47.58218-163.5733-47.50339-162.51515-47.37701-160.82315-47.29823-159.7713-47.21944-158.71944-47.09306-157.0377-47.01427-155.99222-46.93547-154.94672-46.8091-153.27526-46.73032-152.23606-46.65152-151.19687-46.52515-149.5353-46.44635-148.5024-46.36757-147.46949-46.24117-145.81818-46.16238-144.79164-46.08359-143.7651-45.95721-142.12407-45.87842-141.10382-45.79964-140.08359-45.67326-138.45243-45.59447-137.43849-45.51567-136.42458-45.3893-134.80371-45.3105-133.7961-45.23172-132.78847-45.10533-131.17752-45.02654-130.1762-44.94774-129.17487-44.82137-127.57422-44.74258-126.57921-44.66379-125.58417-44.53741-123.99342-44.45862-123.0047-44.37982-122.01598-44.25345-120.43549-44.17467-119.45314-44.09587-118.47078-43.9695-116.9005-43.8907-115.92448-43.8119-114.94849-43.68552-113.38847-43.60674-112.41878-43.52794-111.44907-43.40157-109.899-43.32277-108.93555-43.24399-107.97209-43.1176-106.43196-43.03882-105.4748-42.96002-104.51765-42.83365-102.9878-42.75485-102.03699-42.67607-101.0862-42.54968-99.56654-42.47089-98.62212-42.39209-97.67767-42.26572-96.16829-42.18692-95.23015-42.10814-94.292-41.98177-92.79257-41.90297-91.86067-41.82417-90.92879-41.6978-89.43922-41.61902-88.51369-41.54022-87.58817-41.41383-86.10924-41.33504-85.19006-41.25624-84.2709-41.12987-82.80186-41.05109-81.88895-40.97229-80.97603-40.84592-79.51694-40.76712-78.6103-40.68832-77.70369-40.56195-76.25485-40.48317-75.35458-40.40437-74.45433-40.278-73.01576-40.1992-72.1218-40.12042-71.22784-39.99402-69.79916-39.91524-68.9115-39.83644-68.02385-39.71007-66.60542-39.63127-65.72414-39.55249-64.84283-39.42612-63.4347-39.34732-62.5597-39.26852-61.6847-39.14215-60.28642-39.06335-59.41772-38.98457-58.54903-38.85818-57.16109-38.77939-56.29869-38.70059-55.4363-38.57422-54.05824-38.49544-53.20216-38.41664-52.34605-38.29027-50.97827-38.21147-50.12854-38.13268-49.27882-38.0063-47.92128-37.92752-47.07787-37.84872-46.23442-37.72235-44.88678-37.64355-44.04965-37.56476-43.21252-37.43837-41.87521-37.35959-41.04437-37.28079-40.21356-37.15442-38.88612-37.07562-38.0616-36.99684-37.23708-36.87045-35.91989-36.79167-35.10175-36.71288-34.28357-36.5865-32.97667-36.5077-32.16481-36.42892-31.35295-36.30254-30.05592-36.22374-29.25037-36.14494-28.44481-36.01857-27.15805-35.93977-26.35886-35.861-25.55966-35.73462-24.28316-35.65582-23.49025-35.57703-22.69737-35.45065-21.43082-35.37187-20.64415-35.29308-19.8575-35.1667-18.60085-35.0879-17.82056-35.00911-17.04025-34.88272-15.79422-34.80394-15.0203-34.72514-14.24635-34.59877-13.01022-34.51997-12.24254-34.44118-11.47484-34.3148-10.24866-34.23602-9.48727-34.15723-8.72588-34.03085-7.50995-33.95206-6.75493-33.87328-5.9999-33.74687-4.79417-33.66809-4.04552-33.5893-3.29684-33.46292-2.1014-33.38412-1.35902-33.30534-.61665-33.17897 .56882-33.10017 1.30495-33.02138 2.04108-32.895 3.2167-32.81621 3.94646-32.73743 4.67622-32.61104 5.84116-32.53224 6.56462-32.45345 7.28809-32.32707 8.44356-32.24829 9.1607-32.1695 9.87787-32.04312 11.02264-31.96432 11.73344-31.88553 12.44424-31.75916 13.5792-31.68037 14.28368-31.60158 14.98819-31.4752 16.11281-31.39641 16.811-31.31761 17.5092-31.19122 18.62393-31.11244 19.31584-31.03365 20.00772-30.90727 21.11215-30.82848 21.79774-30.7497 22.48334-30.6233 23.57785-30.54453 24.25716-30.46573 24.93643-30.33936 26.0207-30.26056 26.69363-30.18178 27.36656-30.05539 28.44057-29.9766 29.1072-29.8978 29.77383-29.77142 30.83794-29.69263 31.49826-29.61385 32.15858-29.48747 33.21243-29.40868 33.86641-29.32988 34.52037-29.2035 35.56396-29.12473 36.21164-29.04593 36.8593-28.91956 37.89299-28.84076 38.53436-28.76196 39.17572-28.63557 40.1991-28.5568 40.83417-28.478 41.46922-28.35162 42.48271-28.27283 43.11148-28.19403 43.74023-28.06766 44.74347-27.98888 45.36588-27.91008 45.98827-27.7837 46.98123-27.70491 47.59732-27.62613 48.21342-27.49973 49.1965-27.42094 49.80629-27.34215 50.41609-27.21577 51.38885-27.13698 51.99236-27.0582 52.59584-26.93182 53.55876-26.85303 54.1559-26.77423 54.75304-26.64786 55.70528-26.56906 56.2961-26.49028 56.88693-26.36389 57.82965-26.2851 58.41425-26.2063 58.99884-26.07993 59.93123-26.00114 60.50946-25.92235 61.08768-25.79597 62.00989-25.71718 62.58174-25.63838 63.15361-25.51201 64.06554-25.43323 64.63112-25.35443 65.19667-25.22806 66.09871-25.14926 66.65797-25.07047 67.21724-24.94408 68.10896-24.8653 68.66193-24.7865 69.21489-24.66013 70.09673-24.58133 70.64339-24.50255 71.19005-24.37616 72.06161-24.29738 72.60191-24.21858 73.14221-24.09221 74.00352-24.01341 74.53752-23.93463 75.07153-23.80824 75.92294-23.72945 76.45064-23.65065 76.97835-23.52428 77.81944-23.44548 78.34084-23.3667 78.86223-23.24033 79.69344-23.16153 80.20853-23.08273 80.72362-22.95636 81.54457-22.87758 82.05331-22.79878 82.56204-22.67241 83.37273-22.59361 83.87515-22.51482 84.37758-22.38843 85.17838-22.30965 85.67451-22.23085 86.17064-22.10448 86.96112-22.02568 87.45096-21.94688 87.94078-21.82051 88.72137-21.74173 89.2049-21.66293 89.68843-21.53656 90.45874-21.45776 90.9359-21.37898 91.41307-21.25258 92.17313-21.1738 92.644-21.095 93.11487-20.96863 93.86504-20.88983 94.3296-20.81105 94.79416-20.68468 95.53407-20.60588 95.99228-20.52708 96.45049-20.40071 97.18013-20.32191 97.63202-20.24313 98.08394-20.11676 98.80368-20.03796 99.24928-19.95917 99.69489-19.83278 100.40431-19.754 100.84363-19.6752 101.28291-19.54883 101.98247-19.47003 102.41547-19.39124 102.84846-19.26486 103.53769-19.18608 103.96437-19.10728 104.39108-18.98091 105.07047-18.90211 105.49081-18.82332 105.91115-18.69693 106.57985-18.61815 106.99387-18.53935 107.40791-18.41298 108.06717-18.33418 108.4749-18.2554 108.88263-18.12901 109.53117-18.05023 109.93254-17.97144 110.33391-17.84506 110.97258-17.76627 111.3677-17.68748 111.76283-17.5611 112.3916-17.4823 112.78036-17.4035 113.16914-17.27713 113.7873-17.19833 114.1697-17.11955 114.5521-16.99318 115.16034-16.91438 115.5365-16.83559 115.91267-16.70921 116.51097-16.63043 116.88083-16.55164 117.25069-16.42526 117.83873-16.34647 118.20222-16.26767 118.56573-16.14128 119.14352-16.0625 119.50072-15.9837 119.85793-15.85733 120.42581-15.77853 120.7767-15.69974 121.12761-15.57336 121.68517-15.49458 122.02977-15.41579 122.37437-15.28941 122.92209-15.21062 123.26035-15.13184 123.59857-15.00543 124.1356-14.92665 124.46754-14.84785 124.79948-14.72148 125.32706-14.64268 125.65271-14.5639 125.97833-14.43753 126.49522-14.35873 126.8145-14.27994 127.13377-14.15356 127.64078-14.07477 127.95381-13.99599 128.26683-13.86961 128.7639-13.79082 129.07064-13.71202 129.37735-13.58563 129.86414-13.50685 130.16452-13.42805 130.46488-13.30168 130.94147-13.22289 131.23548-13.14409 131.52948-13.01772 131.9958-12.93893 132.28353-12.86014 132.57122-12.73376 133.02759-12.65497 133.30907-12.57617 133.59052-12.44978 134.037-12.371 134.31212-12.2922 134.5872-12.16583 135.02301-12.08704 135.29181-12.00826 135.56061-11.88187 135.98696-11.80309 136.24945-11.72429 136.51195-11.59792 136.9276-11.51912 137.18375-11.44034 137.43988-11.31396 137.84569-11.23517 138.09552-11.15637 138.34537-11.02998 138.74085-10.95119 138.98439-10.8724 139.22792-10.74603 139.61353-10.66724 139.85076-10.58844 140.088-10.46207 140.46329-10.38329 140.69422-10.30449 140.92514-10.17812 141.2906-10.09932 141.51517-10.02052 141.73975-9.89413 142.0945-9.81535 142.31276-9.73656 142.53104-9.61018 142.87635-9.53139 143.0883-9.45259 143.30028-9.32622 143.63489-9.24744 143.84049-9.16864 144.0461-9.04227 144.37082-8.96347 144.57019-8.88469 144.76955-8.75829 145.08434-8.6795 145.27738-8.60071 145.47045-8.47433 145.77495-8.39554 145.96167-8.31676 146.14836-8.19038 146.44268-8.11159 146.62302-8.03279 146.80336-7.90642 147.0874-7.82762 147.26143-7.74884 147.43549-7.62247 147.70958-7.54367 147.87738-7.46487 148.04515-7.33849 148.30937-7.2597 148.47081-7.18091 148.63225-7.05453 148.88578-6.97574 149.04091-6.89694 149.19603-6.77057 149.4401-6.69179 149.58892-6.61299 149.73775-6.48662 149.97113-6.40782 150.1136-6.32903 150.25608-6.20264 150.4796-6.12386 150.61577-6.04506 150.75194-5.91869 150.96515-5.83989 151.09503-5.76111 151.22489-5.63472 151.42823-5.55594 151.55179-5.47714 151.67534-5.35077 151.86835-5.27197 151.98561-5.19319 152.10288-5.06682 152.28606-4.98802 152.39698-4.90923 152.50788-4.78284 152.68035-4.70404 152.78496-4.62526 152.88954-4.49889 153.05258-4.42009 153.15088-4.3413 153.24918-4.21492 153.40152-4.13614 153.49344-4.05734 153.58539-3.93097 153.72783-3.85217 153.81352-3.77338 153.89922-3.64699 154.03171-3.5682 154.11112-3.48941 154.19049-3.36304 154.31273-3.28424 154.38578-3.20544 154.4588-3.07907 154.57083-3.00029 154.63751-2.9215 154.70418-2.79512 154.80596-2.71632 154.86632-2.63754 154.92668-2.51115 155.01853-2.43237 155.07263-2.35358 155.12677-2.22719 155.20871-2.14839 155.25647-2.06961 155.30425-1.94324 155.37548-1.86444 155.41695-1.78564 155.4584-1.65927 155.52019-1.58047 155.55535-1.5017 155.59052-1.37532 155.6416-1.29652 155.67041-1.21773 155.6992-1.09134 155.74048-1.01256 155.76297-.93376 155.78548-.80739 155.8164-.72859 155.83261-.6498 155.8488-.52342 155.86986-.44464 155.87976-.36584 155.88965-.23947 155.90039-.16068 155.90398-.08188 155.90758 .04448 155.90848 .12326 155.9057 .20206 155.90296 .32843 155.89315 .40723 155.8841 .48601 155.87503 .6124 155.85576 .69118 155.8404 .76997 155.82503 .89635 155.79508 .97514 155.77336 1.05392 155.75164 1.1803 155.71178 1.2591 155.68383 1.33789 155.65586 1.46428 155.60613 1.54308 155.5718 1.62186 155.53748 1.74823 155.47702 1.82703 155.4364 1.90582 155.39577 2.0322 155.32588 2.11098 155.27896 2.18977 155.23203 2.31615 155.15145 2.39494 155.09816 2.47374 155.04486 2.60013 154.95439 2.67891 154.89487 2.7577 154.83533 2.88408 154.73497 2.96288 154.66909 3.04167 154.60318 3.16805 154.4922 3.24683 154.41994 3.32562 154.34769 3.452 154.2268 3.53079 154.14832 3.60957 154.06981 3.73596 153.93898 3.81474 153.85419 3.89354 153.7694 4.01993 153.62828 4.09872 153.53713 4.1775 153.44597 4.30388 153.29462 4.38268 153.19716 4.46147 153.0997 4.58784 152.93845 4.66664 152.83469 4.74542 152.73093 4.8718 152.55942 4.95059 152.4493 5.02939 152.33917 5.15578 152.1574 5.23456 152.04099 5.31335 151.92455 5.43973 151.7329 5.51852 151.61017 5.59732 151.48744 5.7237 151.28548 5.80247 151.15644 5.88127 151.02742 6.00764 150.81555 6.08644 150.68022 6.16524 150.54489 6.29163 150.32271 6.3704 150.18106 6.4492 150.03945 6.57558 149.80742 6.65437 149.65943 6.73315 149.51143 6.85954 149.26873 6.93832 149.11444 7.01712 148.96013 7.1435 148.70796 7.22229 148.54737 7.30107 148.38678 7.42744 148.12392 7.50624 147.95696 7.58504 147.79001 7.71143 147.51732 7.79022 147.34406 7.869 147.1708 7.99538 146.88779 8.07417 146.70822 8.15297 146.52867 8.27934 146.23577 8.35812 146.0499 8.43692 145.86405 8.5633 145.5608 8.64209 145.36865 8.72089 145.17649 8.84727 144.86338 8.92606 144.6649 9.00485 144.46645 9.13123 144.14307 9.21002 143.93825 9.28882 143.73342 9.41519 143.39978 9.49397 143.18866 9.57277 142.97754 9.69914 142.634 9.77794 142.41658 9.85672 142.19915 9.98311 141.84537 10.06189 141.62158 10.14069 141.3978 10.26707 141.03374 10.34587 140.80365 10.42465 140.57355 10.55103 140.19962 10.62982 139.96323 10.70862 139.72684 10.83499 139.34258 10.91379 139.09987 10.99257 138.8572 11.11894 138.46303 11.19774 138.21404 11.27654 137.96504 11.40292 137.56063 11.4817 137.30529 11.5605 137.04991 11.68687 136.63526 11.76567 136.3736 11.84447 136.11194 11.97084 135.68737 12.04962 135.41942 12.12842 135.15145 12.25479 134.71657 12.33359 134.4423 12.41238 134.16805 12.53876 133.72327 12.61754 133.44272 12.69633 133.16216 12.82272 132.70713 12.90152 132.4202 12.9803 132.13327 13.10669 131.66797 13.18547 131.37474 13.26427 131.08153 13.39064 130.60633 13.46944 130.30681 13.54822 130.00728 13.67459 129.52184 13.75339 129.21596 13.83218 128.91007 13.95857 128.41436 14.03737 128.10218 14.11615 127.78998 14.24252 127.28432 14.32132 126.96588 14.40012 126.64746 14.52649 126.13191 14.60527 125.80713 14.68407 125.48233 14.81044 124.95615 14.88924 124.62498 14.96803 124.29384 15.09442 123.75777 15.1732 123.42036 15.252 123.08298 15.37837 122.53696 15.45717 122.19327 15.53596 121.84956 15.66234 121.29327 15.74112 120.94322 15.81992 120.59317 15.94629 120.02664 16.02509 119.67027 16.10387 119.31392 16.23026 118.73747 16.30904 118.37482 16.38783 118.01216 16.51422 117.42548 16.59302 117.05644 16.6718 116.68742 16.79817 116.09047 16.87697 115.71513 16.95576 115.33981 17.08214 114.73297 17.16093 114.35135 17.23972 113.96973 17.36609 113.35262 17.44489 112.96463 17.52368 112.57664 17.65007 111.94928 17.72885 111.555 17.80765 111.1607 17.93402 110.52339 18.01282 110.12286 18.09161 109.72234 18.21799 109.07513 18.29677 108.66823 18.37556 108.26135 18.50194 107.60344 18.58073 107.19025 18.65953 106.77707 18.7859 106.1097 18.86469 105.69022 18.94348 105.2707 19.06987 104.59267 19.14867 104.16681 19.22745 103.74095 19.35384 103.05309 19.43262 102.62091 19.51141 102.18877 19.63779 101.49055 19.71658 101.05211 19.79536 100.61365 19.92174 99.90555 20.00053 99.4608 20.07933 99.01604 20.20572 98.29768 20.28452 97.84657 20.3633 97.39545 20.48967 96.66684 20.56847 96.20941 20.64726 95.752 20.77364 95.01343 20.85242 94.54976 20.93121 94.0861 21.05759 93.33765 21.13638 92.86761 21.21518 92.3976 21.34155 91.6385 21.42033 91.16212 21.49913 90.68573 21.62552 89.91676 21.70432 89.43413 21.78311 88.9515 21.90948 88.17264 21.98827 87.68365 22.06706 87.19466 22.19344 86.40517 22.27223 85.90982 22.35101 85.41446 22.4774 84.61507 22.55618 84.11348 22.63498 83.6119 22.76137 82.80255 22.84016 82.29466 22.91895 81.78677 23.04532 80.96718 23.12411 80.45293 23.20291 79.93867 23.32928 79.1088 23.40808 78.58824 23.48686 78.06769 23.61324 77.22794 23.69203 76.70108 23.77083 76.17424 23.89722 75.32416 23.976 74.79099 24.0548 74.25784 24.18117 73.39786 24.25996 72.85841 24.33876 72.31895 24.46513 71.44873 24.54391 70.90292 24.62271 70.35709 24.74908 69.47667 24.82788 68.92448 24.90668 68.3723 25.03305 67.48154 25.11183 66.92313 25.19063 66.3647 25.31702 65.46443 25.39581 64.89972 25.4746 64.33499 25.60098 63.42403 25.67976 62.85295 25.75856 62.28186 25.88493 61.36107 25.96373 60.78369 26.04251 60.2063 26.16888 59.27518 26.24768 58.6915 26.32648 58.1078 26.45287 57.16681 26.53166 56.57681 26.61044 55.98683 26.73682 55.03557 26.81561 54.43922 26.89441 53.84286 27.02078 52.88133 27.09956 52.27869 27.17836 51.67603 27.30473 50.70462 27.38353 50.09566 27.46233 49.48672 27.5887 48.50497 27.66748 47.88972 27.74628 47.27446 27.87267 46.2829 27.95146 45.6613 28.03026 45.03967 28.15663 44.03741 28.23541 43.4095 28.31421 42.78159 28.44058 41.76982 28.51938 41.13565 28.59816 40.50148 28.72455 39.4794 28.80333 38.83887 28.88213 38.19835 29.00851 37.16605 29.08731 36.51918 29.16609 35.87228 29.29247 34.82973 29.37126 34.17654 29.45006 33.52335 29.57643 32.47092 29.65523 31.81143 29.73401 31.15193 29.86038 30.08916 29.93918 29.42337 30.01797 28.75758 30.14436 27.68494 30.22314 27.01285 30.30194 26.34076 30.42831 25.25786 30.50711 24.57939 30.5859 23.90094 30.71228 22.80777 30.79106 22.123 30.86986 21.43825 30.99623 20.33517 31.07503 19.64412 31.15382 18.95308 31.2802 17.83969 31.35898 17.14233 31.43777 16.44498 31.56416 15.3217 31.64296 14.61803 31.72174 13.91438 31.84813 12.78084 31.92691 12.07082 32.0057 11.36081 32.13208 10.21701 32.21088 9.50069 32.28966 8.78436 32.41603 7.63068 32.49483 6.90805 32.57362 6.18542 32.70001 5.02142 32.77881 4.2925 32.85759 3.56357 32.98396 2.38966 33.06276 1.65443 33.14156 .9192 33.26793-.26492 33.34671-1.0065 33.4255-1.74808 33.55188-2.9425 33.63068-3.6904 33.70947-4.4383 33.83585-5.64261 33.91463-6.39679 33.99342-7.15099 34.11981-8.36555 34.19861-9.1261 34.2774-9.88666 34.40378-11.11148 34.48256-11.87834 34.56136-12.6452 34.68773-13.87997 34.76653-14.65308 34.8453-15.42616 34.9717-16.67084 35.05048-17.4503 35.12927-18.22975 35.25566-19.48505 35.33446-20.27087 35.41324-21.05669 35.53961-22.3219 35.61841-23.11395 35.6972-23.90602 35.82358-25.18115 35.90237-25.97952 35.98116-26.77788 36.10753-28.06328 36.18633-28.868 36.26512-29.67273 36.3915-30.96832 36.47028-31.7794 36.54907-32.5905 36.67546-33.89636 36.75426-34.71376 36.83305-35.53114 36.95943-36.84695 37.03821-37.6706 37.117-38.49422 37.24338-39.81998 37.32217-40.6499 37.40097-41.47984 37.52734-42.81586 37.60612-43.65216 37.68492-44.48845 37.81131-45.83467 37.8901-46.67732 37.96889-47.51997 38.09528-48.87646 38.17406-49.72542 38.25285-50.57437 38.37923-51.94081 38.45802-52.796 38.5368-53.6512 38.66318-55.02753 38.74197-55.88908 38.82077-56.75064 38.94716-58.1376 39.02596-59.00551 39.10474-59.87344 39.23111-61.2703 39.3099-62.14445 39.3887-63.0186 39.51508-64.42542 39.59386-65.30586 39.67265-66.18634 39.79903-67.6034 39.87782-68.4902 39.95662-69.37703 40.083-70.80437 40.16177-71.69748 40.24057-72.5906 40.36696-74.02782 40.44576-74.92725 40.52455-75.82668 40.65092-77.27414 40.7297-78.17993 40.8085-79.08571 40.93488-80.54344 41.01367-81.45554 41.09245-82.36763 41.21884-83.83525 41.29762-84.75363 41.37642-85.67203 41.5028-87.14996 41.5816-88.07466 41.66039-88.99936 41.78676-90.4872 41.86555-91.41818 41.94435-92.34918 42.07072-93.84727 42.14952-94.78464 42.2283-95.72198 42.35468-97.23035 42.43347-98.17401 42.51227-99.11765 42.63864-100.63591 42.71742-101.58586 42.79622-102.53581 42.9226-104.06433 43.0014-105.02065 43.0802-105.97696 43.20657-107.51573 43.28535-108.47835 43.36415-109.44096 43.49052-110.9897 43.56932-111.95856 43.64812-112.92741 43.77449-114.48602 43.85327-115.46124 43.93207-116.43646 44.05846-118.00577 44.13725-118.98729 44.21603-119.96883 44.34242-121.54758 44.4212-122.5354 44.5-123.52322 44.62637-125.11269 44.70517-126.10686 44.78395-127.10106 44.91032-128.70034 44.98912-129.70082 45.06792-130.70131 45.19429-132.31093 45.27309-133.3177 45.35187-134.32451 45.47826-135.94399 45.55705-136.95708 45.63585-137.97017 45.76222-139.59993 45.841-140.61939 45.9198-141.63883 46.04617-143.27886 46.12497-144.30461 46.20377-145.33036 46.33014-146.98027 46.40892-148.01233 46.48772-149.04439 46.6141-150.7046 46.6929-151.74297 46.7717-152.78133 46.89807-154.45145 46.97685-155.4961 47.05565-156.54076 47.18202-158.22113 47.26082-159.27216 47.3396-160.32317 47.46599-162.01381 47.54477-163.07112 47.62357-164.12845 47.74995-165.82898 47.82875-166.89261 47.90753-167.95623 48.0339-169.66709 48.1127-170.737 48.1915-171.80693 48.31787-173.52768 48.39667-174.6039 48.47545-175.68012 48.60182-177.41112 48.68062-178.4937 48.75941-179.5763 48.88579-181.31757 48.96457-182.40645 49.04337-183.49533 49.16975-185.24648 49.24855-186.34168 49.32735-187.43686 49.45372-189.19829 49.5325-190.29984 49.6113-191.40139 49.73767-193.17307 49.81647-194.28092 49.89526-195.38877 50.02164-197.17034 50.10042-198.28449 50.17921-199.39864 50.3056-201.19054 50.3844-202.31098 50.46318-203.43144 50.58957-205.2332 50.66835-206.35996 50.74715-207.48673 50.87352-209.29877 50.95232-210.43187 51.0311-211.565 51.15747-213.3873 51.23627-214.52672 51.31506-215.66614 51.44144-217.49834 51.52023-218.64405 51.59901-219.78977 51.7254-221.63228 51.8042-222.7843 51.883-223.93633 52.00937-225.78873 52.08815-226.94704 52.16695-228.10538 52.29332-229.96804 52.37212-231.1327 52.45091-232.2974 52.57729-234.17032 52.65607-235.34133 52.73486-236.5123 52.86125-238.39511 52.94005-239.57239 53.01884-240.74968 53.14522-242.64282 53.224-243.82642 53.3028-245.01001 53.42917-246.91303 53.50797-248.1029 53.58675-249.2928 53.71313-251.20609 53.79192-252.40235 53.87071-253.59859 53.99709-255.52214 54.07588-256.7247 54.15466-257.92726 54.28105-259.8607 54.35985-261.06953 54.43864-262.27839 54.56502-264.22209 54.64381-265.4373 54.7226-266.6525 54.84897-268.60649 54.92776-269.828 55.00656-271.0495 55.13293-273.01338 55.21172-274.2412 55.29051-275.46903 55.4169-277.44316 55.4957-278.67729 55.5745-279.9114 55.70087-281.89549 55.77965-283.1359 55.85844-284.3763 55.98482-286.37065 56.06361-287.61744 56.14241-288.8642 56.26878-290.8688 56.34756-292.12187 56.42636-293.37495 56.55275-295.38945 56.63155-296.64884 56.71033-297.9082 56.83672-299.93299 56.9155-301.19868 56.9943-302.46437 57.12067-304.49906 57.19946-305.77104 57.27824-307.04304 57.40462-309.08799 57.48341-310.36634 57.56221-311.64469 57.68858-313.6999 57.76738-314.98454 57.84616-316.26918 57.97255-318.3343 58.05135-319.62525 58.13014-320.91618 58.25652-322.9916 58.3353-324.28886 58.4141-325.58613 58.54047-327.67143 58.61926-328.97499 58.69806-330.27854 58.82443-332.3741 58.90321-333.684 58.98201-334.99394 59.1084-337.09977 59.1872-338.416 59.26599-339.7322 59.39236-341.84794 59.47115-343.17045 59.54994-344.49296 59.67632-346.61894 59.75511-347.9478 59.8339-349.2767 59.96028-351.41294 60.03906-352.7481 60.11786-354.0833 60.24423-356.22947 60.32303-357.57093 60.40181-358.9124 60.5282-361.06886 60.607-362.41664 60.68579-363.76445 60.81216-365.9308 60.89096-367.28489 60.96974-368.63896 61.09612-370.81556 61.17491-372.176 61.25371-373.53645 61.38008-375.7233 61.45886-377.09007 61.53766-378.45683 61.66405-380.6536 61.74284-382.02665 61.82164-383.39967 61.94801-385.60676 62.0268-386.9861 62.10559-388.36546 62.23196-390.5824 62.31076-391.96809 62.38956-393.35374 62.51593-395.58097 62.59471-396.973 62.67351-398.365 62.7999-400.60249 62.8787-402.0008 62.95747-403.3991 63.08386-405.6465 63.16264-407.05113 63.24144-408.45573 63.36781-410.7134 63.44661-412.12434 63.52539-413.53526 63.65176-415.80287 63.73056-417.2201 63.80936-418.6373 63.93573-420.91517 64.01453-422.33876 64.0933-423.7623 64.2197-426.0504 64.2985-427.48033 64.37729-428.9102 64.50366-431.2082 64.58244-432.64439 64.66124-434.08058 64.78761-436.38883 64.86641-437.8314 64.9452-439.27394 65.07158-441.59245 65.15036-443.0413 65.22916-444.49018 65.35555-446.81858 65.43434-448.2737 65.51314-449.72889 65.63951-452.0676 65.71829-453.52906 65.79709-454.9905 65.92346-457.33915 66.00226-458.8069 66.08104-460.27464 66.20743-462.6335 66.28621-464.1076 66.365-465.58174 66.49138-467.95088 66.57018-469.4313 66.64896-470.91175 66.77534-473.29078 66.85414-474.77748 66.93294-476.2642 67.05931-478.65357 67.1381-480.14659 67.21689-481.6396 67.34326-484.03886 67.42206-485.53816 67.50085-487.03749 67.62723-489.447 67.70601-490.95265 67.7848-492.45835 67.9112-494.8781 67.98999-496.3901 68.06879-497.90208 68.19516-500.33174 68.27394-501.85 68.35274-503.36833 68.47911-505.8083 68.5579-507.3329 68.6367-508.85749 68.76308-511.30729 68.84186-512.8382 68.92065-514.36917 69.04703-516.82968 69.12582-518.3669 69.2046-519.9042 69.33101-522.37417 69.40979-523.91769 69.48859-525.46127 69.61496-527.9419 69.69376-529.4918 69.77254-531.0417 69.89891-533.5322 69.9777-535.08847 70.0565-536.64456 70.18288-539.145 70.26167-540.7075 70.34045-542.26998 70.46684-544.7807 70.54564-546.34957 70.62444-547.9184 70.82959-552.0145 70.82959-552.0145"/>
<path transform="matrix(1.00006,0,0,-1.00002,171.58319,176.53128)" stroke-width="1.19553" stroke-linecap="butt" stroke-miterlimit="10" stroke-linejoin="miter" fill="none" stroke="#ff0000" d="M-170.08086 0H-33.23946"/>
<path transform="matrix(1.00006,0,0,-1.00002,171.58319,176.53128)" stroke-width="1.19553" stroke-linecap="butt" stroke-miterlimit="10" stroke-linejoin="miter" fill="none" stroke="#ff0000" d="M33.23946 0H170.08086"/>
</g>
<use data-text="&#x2022;" xlink:href="#font_3_2" transform="matrix(9.963197,0,0,-9.962799,202.33405,178.74533)"/>
<use data-text="(" xlink:href="#font_4_1" transform="matrix(9.963197,0,0,-9.962799,208.34439,166.98409)"/>
<use data-text="&#x221a;" xlink:href="#font_5_1" transform="matrix(9.963197,0,0,-9.962799,212.21863,155.47686)"/>
<path transform="matrix(1.00006,0,0,-1.00002,-45.2438,3.4458056)" stroke-width=".3985" stroke-linecap="butt" stroke-miterlimit="10" stroke-linejoin="miter" fill="none" stroke="#000000" d="M267.41-151.829H277.744"/>
<use data-text="1" xlink:href="#font_6_1" transform="matrix(6.9742186,0,0,-6.97394,223.3783,163.062)"/>
<use data-text="1" xlink:href="#font_6_1" transform="matrix(6.9742186,0,0,-6.97394,227.34662,163.062)"/>
<path transform="matrix(1.00006,0,0,-1.00002,-45.2438,3.4458056)" stroke-width=".3985" stroke-linecap="butt" stroke-miterlimit="10" stroke-linejoin="miter" fill="none" stroke="#000000" d="M268.606-161.045H276.548"/>
<use data-text="2" xlink:href="#font_6_2" transform="matrix(6.9742186,0,0,-6.97394,225.36344,170.42014)"/>
<use data-text="," xlink:href="#font_1_1" transform="matrix(9.963197,0,0,-9.962799,232.51688,166.98407)"/>
<use data-text="0" xlink:href="#font_4_3" transform="matrix(9.963197,0,0,-9.962799,236.94412,166.98407)"/>
<use data-text=")" xlink:href="#font_4_2" transform="matrix(9.963197,0,0,-9.962799,241.92572,166.98407)"/>
<use data-text="&#x2022;" xlink:href="#font_3_2" transform="matrix(9.963197,0,0,-9.962799,135.85105,178.74533)"/>
<use data-text="(" xlink:href="#font_4_1" transform="matrix(9.963197,0,0,-9.962799,89.61528,166.98409)"/>
<use data-text="&#x2212;" xlink:href="#font_3_1" transform="matrix(9.963197,0,0,-9.962799,93.48952,166.98409)"/>
<use data-text="&#x221a;" xlink:href="#font_5_1" transform="matrix(9.963197,0,0,-9.962799,101.23897,155.47686)"/>
<path transform="matrix(1.00006,0,0,-1.00002,-163.97292,3.4458056)" stroke-width=".3985" stroke-linecap="butt" stroke-miterlimit="10" stroke-linejoin="miter" fill="none" stroke="#000000" d="M275.159-151.829H285.492"/>
<use data-text="1" xlink:href="#font_6_1" transform="matrix(6.9742186,0,0,-6.97394,112.39766,163.062)"/>
<use data-text="1" xlink:href="#font_6_1" transform="matrix(6.9742186,0,0,-6.97394,116.36598,163.062)"/>
<path transform="matrix(1.00006,0,0,-1.00002,-163.97292,3.4458056)" stroke-width=".3985" stroke-linecap="butt" stroke-miterlimit="10" stroke-linejoin="miter" fill="none" stroke="#000000" d="M276.354-161.045H284.297"/>
<use data-text="2" xlink:href="#font_6_2" transform="matrix(6.9742186,0,0,-6.97394,114.38377,170.42014)"/>
<use data-text="," xlink:href="#font_1_1" transform="matrix(9.963197,0,0,-9.962799,121.53621,166.98407)"/>
<use data-text="0" xlink:href="#font_4_3" transform="matrix(9.963197,0,0,-9.962799,125.96449,166.98407)"/>
<use data-text=")" xlink:href="#font_4_2" transform="matrix(9.963197,0,0,-9.962799,130.94606,166.98407)"/>
<use data-text="&#x2022;" xlink:href="#font_3_2" transform="matrix(9.963197,0,0,-9.962799,169.09204,22.834198)"/>
<use data-text="(" xlink:href="#font_4_1" transform="matrix(9.963197,0,0,-9.962799,175.1034,14.610031)"/>
<use data-text="0" xlink:href="#font_4_3" transform="matrix(9.963197,0,0,-9.962799,178.96912,14.610031)"/>
<use data-text="," xlink:href="#font_1_1" transform="matrix(9.963197,0,0,-9.962799,183.95993,14.610031)"/>
<use data-text="1" xlink:href="#font_4_4" transform="matrix(9.963197,0,0,-9.962799,188.38819,14.610031)"/>
<use data-text="1" xlink:href="#font_4_4" transform="matrix(9.963197,0,0,-9.962799,193.36978,14.610031)"/>
<use data-text=")" xlink:href="#font_4_2" transform="matrix(9.963197,0,0,-9.962799,198.35138,14.610031)"/>
</svg>
