<svg xmlns="http://www.w3.org/2000/svg" xmlns:xlink="http://www.w3.org/1999/xlink" version="1.1" width="307" height="167" viewBox="0 0 307 167">
<defs>
<path id="font_1_2" d="M.33399964 .30233766C.33999635 .32835389 .36299134 .42037965 .43299867 .42037965 .43798829 .42037965 .46199037 .42037965 .48298646 .40734864 .45498658 .402359 .43499757 .37734986 .43499757 .35334779 .43499757 .33735658 .44599916 .31835938 .47299195 .31835938 .49499513 .31835938 .5269928 .3363495 .5269928 .37635804 .5269928 .42837525 .46798707 .4423828 .43399049 .4423828 .37599183 .4423828 .34098817 .38935853 .32899476 .36634828 .3039856 .43237306 .25 .4423828 .22099304 .4423828 .116989139 .4423828 .05999756 .3133545 .05999756 .28834535 .05999756 .27833558 .069992069 .27833558 .07199097 .27833558 .07998657 .27833558 .08299255 .28033448 .084991458 .28933717 .11898804 .39535523 .18499756 .42037965 .21899414 .42037965 .23799134 .42037965 .272995 .4113617 .272995 .35334779 .272995 .32235719 .2559967 .25532533 .21899414 .11528015 .20298767 .053268434 .16799927 .011245728 .12399292 .011245728 .117996219 .011245728 .09498596 .011245728 .07398987 .024276734 .09899902 .029266358 .12098694 .05027771 .12098694 .07827759 .12098694 .105270389 .09899902 .11328125 .083999637 .11328125 .053985597 .11328125 .0289917 .08728027 .0289917 .055267335 .0289917 .009246826 .07899475-.0107421879 .12298584-.0107421879 .18899536-.0107421879 .22499085 .059280397 .22799683 .0652771 .23999024 .028274537 .27598573-.0107421879 .33599855-.0107421879 .43899537-.0107421879 .49598695 .118270877 .49598695 .14328003 .49598695 .1532898 .4869995 .1532898 .48399354 .1532898 .47499085 .1532898 .47299195 .14929199 .47099305 .14228821 .43798829 .03527832 .36999513 .011245728 .33799745 .011245728 .29899598 .011245728 .2829895 .043273927 .2829895 .07727051 .2829895 .09927368 .2889862 .121276859 .2999878 .16529846L.33399964 .30233766Z"/>
<path id="font_1_3" d="M.48599244 .38136292C.48999024 .39537049 .48999024 .39736939 .48999024 .40437318 .48999024 .42237855 .47599793 .43138124 .46099855 .43138124 .45098878 .43138124 .43499757 .42536927 .42599488 .41036988 .42399598 .405365 .41600038 .37435914 .4119873 .35635377 .40499879 .33035279 .397995 .30334474 .3919983 .27633668L.34700013 .09628296C.34298707 .08126831 .2999878 .011245728 .23399353 .011245728 .18299866 .011245728 .17199707 .055267335 .17199707 .0922699 .17199707 .1382904 .18899536 .20030213 .22299195 .28833009 .23899842 .3293457 .24299622 .3403473 .24299622 .36035157 .24299622 .405365 .21099854 .4423828 .16099549 .4423828 .06599426 .4423828 .0289917 .29733277 .0289917 .28833009 .0289917 .27833558 .038986207 .27833558 .040985109 .27833558 .050994874 .27833558 .051986696 .28033448 .056991579 .29634095 .083999637 .3903656 .12399292 .42037965 .1579895 .42037965 .1659851 .42037965 .18299866 .42037965 .18299866 .3883667 .18299866 .36335755 .17298889 .3373413 .1659851 .31834413 .12599182 .21231079 .10798645 .1552887 .10798645 .10827637 .10798645 .019256592 .17098999-.0107421879 .22999573-.0107421879 .2689972-.0107421879 .30299378 .0062561037 .33099366 .03425598 .31799317-.017745972 .30599977-.06674194 .2659912-.11973572 .23999024-.15385437 .20199585-.18309021 .1559906-.18309021 .14199829-.18309021 .09700012-.18005371 .07998657-.14074707 .09599304-.14074707 .10899353-.14074707 .12298584-.1287384 .1329956-.11973572 .14299011-.10673523 .14299011-.08773804 .14299011-.056747438 .115997318-.052734376 .10598755-.052734376 .08299255-.052734376 .049987794-.068740848 .049987794-.11773682 .049987794-.16796875 .09399414-.20507813 .1559906-.20507813 .25898744-.20507813 .3619995-.11373901 .3899994-.00074768069L.48599244 .38136292Z"/>
<clipPath id="clip_2">
<path transform="matrix(1.00008,0,0,-1.00006,148.90847,159.47679)" d="M-141.73404 0V141.73404H141.73404V0ZM141.73404 141.73404"/>
</clipPath>
<path id="font_3_1" d="M.44400025 .24998474C.44400025 .35688783 .35499574 .44381715 .25 .44381715 .14199829 .44381715 .054992677 .35488893 .054992677 .24998474 .054992677 .14407349 .14199829 .056137086 .25 .056137086 .35499574 .056137086 .44400025 .14308167 .44400025 .24998474Z"/>
<path id="font_4_1" d="M.33099366-.2400055C.33099366-.23701477 .33099366-.23500061 .31399537-.21800232 .18899536-.0920105 .15699768 .09700012 .15699768 .25 .15699768 .42399598 .19499207 .59799197 .31799317 .72299197 .33099366 .73498538 .33099366 .7369995 .33099366 .73999026 .33099366 .746994 .32699586 .75 .32099916 .75 .31098939 .75 .22099304 .6819916 .1619873 .5549927 .11099243 .44499208 .09899902 .33399964 .09899902 .25 .09899902 .17199707 .10998535 .050994874 .16499329-.06201172 .22499085-.18501282 .31098939-.25 .32099916-.25 .32699586-.25 .33099366-.24700928 .33099366-.2400055Z"/>
<path id="font_4_3" d="M.45999146 .31976319C.45999146 .39982606 .45498658 .47988893 .41999818 .5539398 .37399293 .65000918 .2919922 .6660156 .25 .6660156 .18998719 .6660156 .116989139 .64001467 .07598877 .54693606 .04399109 .47789 .038986207 .39982606 .038986207 .31976319 .038986207 .24472046 .042999269 .15464783 .083999637 .07859802 .1269989-.0024719239 .19999695-.022460938 .24899292-.022460938 .30299378-.022460938 .3789978-.0014648438 .4229889 .09359741 .45498658 .16265869 .45999146 .2407074 .45999146 .31976319M.24899292-.00047302247C.20999146-.00047302247 .15098572 .024551392 .1329956 .12062073 .12199402 .18066406 .12199402 .2727356 .12199402 .3317871 .12199402 .39582826 .12199402 .46188355 .12998963 .5159149 .14898682 .63500979 .22399903 .64401248 .24899292 .64401248 .28199769 .64401248 .34799195 .6259918 .36698915 .52693179 .3769989 .47088624 .3769989 .39482118 .3769989 .3317871 .3769989 .25672914 .3769989 .18867493 .3659973 .12461853 .35099793 .029556275 .2939911-.00047302247 .24899292-.00047302247Z"/>
<path id="font_1_1" d="M.20298767 .0009918213C.20298767 .066986087 .17799378 .10598755 .13899231 .10598755 .10598755 .10598755 .085998538 .08099365 .085998538 .052993776 .085998538 .025985718 .10598755 0 .13899231 0 .15098572 0 .1639862 .0039978029 .17399597 .0129852299 .1769867 .01499939 .17799378 .015991211 .1789856 .015991211 .17999268 .015991211 .18099976 .01499939 .18099976 .0009918213 .18099976-.07316589 .1459961-.13328552 .11299133-.16635132 .101989749-.17736817 .101989749-.17936707 .101989749-.18237305 .101989749-.18936157 .10699463-.19335938 .11199951-.19335938 .12298584-.19335938 .20298767-.116256717 .20298767 .0009918213Z"/>
<path id="font_4_4" d="M.2939911 .64004519C.2939911 .66400149 .2939911 .6660156 .2709961 .6660156 .20899964 .60227969 .12098694 .60227969 .08898926 .60227969V.57128909C.10899353 .57128909 .16799927 .57128909 .21998596 .5972748V.07902527C.21998596 .042999269 .21699524 .0309906 .1269989 .0309906H.09498596V0C.12998963 .0029907227 .21699524 .0029907227 .25698854 .0029907227 .29699708 .0029907227 .38398744 .0029907227 .4189911 0V.0309906H.3869934C.29699708 .0309906 .2939911 .041992189 .2939911 .07902527V.64004519Z"/>
<path id="font_4_2" d="M.2889862 .25C.2889862 .32798768 .27799989 .44898988 .22299195 .56199648 .16299439 .68499758 .07699585 .75 .066986087 .75 .06098938 .75 .056991579 .74598696 .056991579 .73999026 .056991579 .7369995 .056991579 .73498538 .07598877 .71699526 .17399597 .6179962 .23098755 .45899964 .23098755 .25 .23098755 .07899475 .19400025-.09700012 .069992069-.2230072 .056991579-.23500061 .056991579-.23701477 .056991579-.2400055 .056991579-.2460022 .06098938-.25 .066986087-.25 .07699585-.25 .16699219-.18200684 .22599793-.055007936 .2769928 .054992677 .2889862 .16600037 .2889862 .25Z"/>
</defs>
<path transform="matrix(1.00008,0,0,-1.00006,148.90847,159.47679)" stroke-width=".19925" stroke-linecap="butt" stroke-miterlimit="10" stroke-linejoin="miter" fill="none" stroke="#929292" d="M-141.73404 0H141.73404M-141.73404 28.3468H141.73404M-141.73404 56.69362H141.73404M-141.73404 85.04042H141.73404M-141.73404 113.38724H141.73404M-141.73404 141.72409H141.73404M-141.73404 0V141.73404M-113.38724 0V141.73404M-85.04042 0V141.73404M-56.69362 0V141.73404M-28.3468 0V141.73404M0 0V141.73404M28.3468 0V141.73404M56.69362 0V141.73404M85.04042 0V141.73404M113.38724 0V141.73404M141.72409 0V141.73404M141.73404 141.73404"/>
<path transform="matrix(1.00008,0,0,-1.00006,148.90847,159.47679)" stroke-width="1.19553" stroke-linecap="butt" stroke-miterlimit="10" stroke-linejoin="miter" fill="none" stroke="#000000" d="M-147.40332 0H146.4469"/>
<path transform="matrix(1.00008,0,0,-1.00006,295.36708,159.47679)" stroke-width=".9564" stroke-linecap="round" stroke-linejoin="round" fill="none" stroke="#000000" d="M-1.91284 2.55046C-1.75343 1.59402 0 .15938 .4782 0 0-.15938-1.75343-1.59402-1.91284-2.55046"/>
<use data-text="x" xlink:href="#font_1_2" transform="matrix(9.963397,0,0,-9.963197,300.24256,161.62192)"/>
<path transform="matrix(1.00008,0,0,-1.00006,148.90847,159.47679)" stroke-width="1.19553" stroke-linecap="butt" stroke-miterlimit="10" stroke-linejoin="miter" fill="none" stroke="#000000" d="M0-5.66927V146.4469"/>
<path transform="matrix(0,-1.00006,-1.00008,-0,148.90847,13.021118)" stroke-width=".9564" stroke-linecap="round" stroke-linejoin="round" fill="none" stroke="#000000" d="M-1.91284 2.55046C-1.75343 1.59402 0 .15938 .4782 0 0-.15938-1.75343-1.59402-1.91284-2.55046"/>
<use data-text="y" xlink:href="#font_1_3" transform="matrix(9.963397,0,0,-9.963197,146.28726,6.208603)"/>
<g clip-path="url(#clip_2)">
<path transform="matrix(1.00008,0,0,-1.00006,148.90847,159.47679)" stroke-width=".79701" stroke-linecap="butt" stroke-miterlimit="10" stroke-linejoin="miter" fill="none" stroke="#0000ff" d="M-141.73404 .19073C-141.73404 .19073-141.3237 .19354-141.1661 .19463-141.00853 .19571-140.75579 .19737-140.59819 .19852-140.44062 .19966-140.18785 .2017-140.03026 .20285-139.87268 .204-139.61994 .20561-139.46236 .20674-139.30477 .20787-139.052 .20987-138.89443 .21106-138.73683 .21225-138.48409 .2142-138.3265 .2154-138.16892 .21657-137.91616 .21852-137.75858 .21971-137.60099 .22089-137.34824 .22284-137.19066 .22404-137.03307 .22523-136.7803 .22713-136.62273 .22838-136.46515 .22961-136.21239 .23183-136.05481 .23312-135.89723 .23444-135.64449 .23659-135.4869 .23788-135.32932 .2392-135.07656 .24126-134.91896 .24263-134.76139 .244-134.50864 .24646-134.35105 .24783-134.19347 .24919-133.9407 .25122-133.78311 .2526-133.62554 .25395-133.37279 .25635-133.21521 .25777-133.05762 .2592-132.80486 .26154-132.64728 .26297-132.48969 .2644-132.23694 .26666-132.07936 .26816-131.92177 .26964-131.669 .27223-131.51143 .27377-131.35384 .27533-131.10109 .27809-130.94351 .2794-130.78592 .28072-130.53316 .28198-130.37558 .2833-130.218 .2846-129.96524 .28737-129.80767 .28893-129.65009 .29047-129.39734 .293-129.23975 .29454-129.08217 .2961-128.8294 .29819-128.67182 .30017-128.51424 .30214-128.26149 .30684-128.1039 .30882-127.94632 .31079-127.69356 .3129-127.53596 .31444-127.37839 .316-127.12564 .31851-126.96806 .32007-126.81047 .32162-126.55771 .3237-126.40013 .32568-126.24254 .32765-125.98979 .33235-125.83221 .33434-125.67462 .3363-125.42186 .33841-125.26428 .33995-125.10669 .3415-124.85394 .3436-124.69637 .34558-124.53877 .34755-124.28601 .35225-124.12843 .35423-123.97086 .3562-123.7181 .35788-123.56052 .35985-123.40294 .36183-123.15019 .36617-122.9926 .3685-122.83502 .37085-122.58226 .37482-122.42467 .37672-122.26709 .37865-122.01434 .38037-121.85675 .38235-121.69917 .38432-121.44641 .38861-121.28882 .391-121.13124 .39339-120.8785 .39732-120.72092 .39966-120.56332 .40198-120.31056 .40553-120.15298 .40787-119.99539 .41019-119.74265 .41411-119.58507 .4165-119.42747 .41891-119.17471 .42284-119.01714 .42517-118.85954 .42752-118.6068 .43106-118.44922 .43338-118.29163 .43571-118.03888 .43965-117.8813 .44203-117.72372 .44443-117.47095 .44835-117.31337 .45068-117.15579 .45303-116.90305 .45616-116.74545 .45891-116.58788 .46165-116.33511 .46783-116.17752 .47058-116.01994 .47334-115.7672 .47647-115.6096 .4788-115.45203 .48116-115.19926 .48471-115.04167 .48746-114.8841 .4902-114.63135 .49596-114.47377 .4987-114.31618 .50146-114.06342 .50461-113.90584 .50735-113.74825 .51012-113.4955 .51547-113.33792 .51859-113.18033 .52171-112.92757 .52672-112.76999 .52985-112.6124 .53296-112.35965 .53835-112.20207 .54109-112.04448 .54384-111.79173 .547-111.63416 .54974-111.47658 .55249-111.2238 .55782-111.06622 .56099-110.90865 .56416-110.6559 .56949-110.4983 .57266-110.34073 .57584-110.08797 .58038-109.93037 .58391-109.7728 .58745-109.52005 .59467-109.36246 .59819-109.20488 .60172-108.95212 .60631-108.79453 .60942-108.63695 .61253-108.3842 .61714-108.22662 .62067-108.06903 .6242-107.81627 .63142-107.65869 .63495-107.5011 .63847-107.24835 .64267-107.09077 .6462-106.93318 .64972-106.68042 .65652-106.52284 .66048-106.36525 .66443-106.1125 .67122-105.95493 .67474-105.79733 .67827-105.54459 .68246-105.38701 .68599-105.22943 .68953-104.97665 .69637-104.81908 .70026-104.6615 .70415-104.40875 .71022-104.25116 .71411-104.09358 .718-103.84082 .724-103.68323 .72838-103.52565 .73276-103.2729 .74136-103.11531 .74568-102.95773 .75-102.70497 .75563-102.54738 .75952-102.3898 .76343-102.13705 .76947-101.97948 .77379-101.82188 .7781-101.56912 .78593-101.41154 .79066-101.25395 .7954-101.0012 .80365-100.84363 .80797-100.68604 .81229-100.43327 .81749-100.2757 .82181-100.1181 .82613-99.86536 .83438-99.70778 .83911-99.55019 .84384-99.29744 .8513-99.13986 .85597-98.98228 .86064-98.7295 .86775-98.57193 .87285-98.41435 .87793-98.1616 .88759-98.00401 .89275-97.84644 .8979-97.59367 .90489-97.43608 .91005-97.2785 .91519-97.02576 .92485-96.86816 .92995-96.71059 .93503-96.45782 .94173-96.30023 .94682-96.14265 .9519-95.88991 .96118-95.73233 .9667-95.57474 .97221-95.32198 .98108-95.1644 .9866-95.0068 .99213-94.75406 1.00104-94.59648 1.0065-94.43889 1.01196-94.18614 1.02051-94.02856 1.02596-93.87097 1.03142-93.61821 1.03993-93.46063 1.04585-93.30304 1.05179-93.0503 1.06248-92.89272 1.06879-92.73514 1.07507-92.48236 1.08542-92.32478 1.09128-92.1672 1.09715-91.91446 1.10526-91.75687 1.11118-91.59929 1.11711-91.34653 1.1278-91.18893 1.13411-91.03136 1.1404-90.77861 1.14993-90.62102 1.15659-90.46344 1.16325-90.21068 1.17546-90.05309 1.18211-89.89551 1.18877-89.64276 1.19794-89.48518 1.20459-89.32759 1.21126-89.07483 1.22305-88.91725 1.23012-88.75966 1.23718-88.50691 1.24858-88.34933 1.25565-88.19174 1.26271-87.939 1.2741-87.78142 1.28117-87.62383 1.28824-87.37106 1.2996-87.21349 1.30667-87.0559 1.31375-86.80315 1.3247-86.64557 1.3322-86.48799 1.33969-86.23521 1.35326-86.07764 1.36075-85.92006 1.36824-85.66731 1.37885-85.50972 1.38628-85.35214 1.3937-85.09938 1.40652-84.94179 1.41438-84.78421 1.42224-84.53146 1.43466-84.37387 1.44293-84.2163 1.4512-83.96353 1.4658-83.80594 1.47406-83.64836 1.48233-83.39561 1.49435-83.23804 1.50261-83.08044 1.51088-82.82768 1.52513-82.6701 1.53377-82.51251 1.5424-82.25977 1.55627-82.10219 1.56491-81.9446 1.57355-81.69185 1.58742-81.53427 1.59605-81.37668 1.60468-81.12392 1.61813-80.96634 1.6272-80.80875 1.63626-80.556 1.65195-80.39842 1.66136-80.24084 1.67076-79.98807 1.6857-79.83049 1.6951-79.67291 1.70451-79.42017 1.7198-79.26257 1.72928-79.105 1.73875-78.85223 1.7536-78.69464 1.76344-78.53706 1.77327-78.28432 1.79001-78.12672 1.80022-77.96915 1.81041-77.71638 1.82677-77.55879 1.83698-77.40121 1.84717-77.14847 1.86348-76.99089 1.87375-76.8333 1.884-76.58054 1.90033-76.42296 1.91093-76.26537 1.92155-76.01262 1.93933-75.85504 1.9503-75.69745 1.96127-75.4447 1.97906-75.28712 1.9901-75.12953 2.00113-74.87677 2.01848-74.7192 2.02988-74.5616 2.04129-74.30885 2.06088-74.15128 2.07228-73.9937 2.08368-73.74092 2.10025-73.58334 2.11206-73.42577 2.12387-73.17302 2.14531-73.01543 2.15749-72.85785 2.16966-72.60509 2.1877-72.4475 2.19987-72.28992 2.21205-72.03717 2.2327-71.87958 2.2453-71.722 2.2579-71.46924 2.2781-71.31165 2.2907-71.15407 2.3033-70.90132 2.32318-70.74374 2.33612-70.58615 2.34908-70.3334 2.37076-70.17583 2.38414-70.01823 2.3975-69.76547 2.4192-69.6079 2.43259-69.4503 2.44595-69.19756 2.46686-69.03998 2.48059-68.88239 2.49432-68.62962 2.51747-68.47205 2.53162-68.31445 2.54578-68.0617 2.56851-67.90413 2.58267-67.74655 2.59683-67.49377 2.61913-67.3362 2.6337-67.17862 2.64828-66.92587 2.67284-66.76828 2.68777-66.6107 2.70273-66.35794 2.72612-66.20035 2.74141-66.04277 2.7567-65.79002 2.78229-65.63243 2.79807-65.47485 2.81384-65.22209 2.83939-65.0645 2.85516-64.90692 2.87094-64.65417 2.89575-64.4966 2.91182-64.339 2.92789-64.08626 2.95459-63.92868 2.97108-63.77109 2.98758-63.51833 3.01385-63.36075 3.03078-63.20316 3.0477-62.95041 3.07579-62.79283 3.09306-62.63524 3.11034-62.38248 3.13765-62.2249 3.15535-62.0673 3.17303-61.81456 3.20255-61.65698 3.22067-61.4994 3.23878-61.24663 3.26785-61.08905 3.28598-60.93147 3.3041-60.67873 3.33281-60.52113 3.35129-60.36356 3.36975-60.1108 3.40036-59.9532 3.41919-59.79562 3.43802-59.54288 3.46785-59.38528 3.4871-59.2277 3.50638-58.97495 3.53795-58.81735 3.55804-58.65977 3.57814-58.40703 3.61154-58.24945 3.632-58.09186 3.65247-57.83911 3.68507-57.68153 3.70554-57.52394 3.726-57.27118 3.75864-57.1136 3.77951-56.95601 3.80038-56.70326 3.83446-56.54568 3.85606-56.38809 3.87767-56.13533 3.91321-55.97775 3.93523-55.82016 3.95723-55.56741 3.9928-55.40984 4.0148-55.25226 4.03682-54.99948 4.07115-54.8419 4.09396-54.68433 4.11676-54.43158 4.15596-54.27399 4.17917-54.11641 4.20238-53.86365 4.23778-53.70605 4.26135-53.54848 4.28493-53.29573 4.3248-53.13814 4.34915-52.98056 4.3735-52.7278 4.41219-52.5702 4.43697-52.41263 4.46175-52.15988 4.5026-52.0023 4.5278-51.84471 4.553-51.59196 4.59308-51.43439 4.61862-51.2768 4.64418-51.02403 4.68571-50.86646 4.71205-50.70886 4.7384-50.45612 4.78175-50.29854 4.80852-50.14095 4.83527-49.88818 4.87785-49.7306 4.90497-49.57301 4.9321-49.32027 4.97612-49.16269 5.00401-49.00511 5.0319-48.75233 5.07777-48.59476 5.1061-48.43718 5.13441-48.18443 5.17944-48.02684 5.20818-47.86926 5.23691-47.6165 5.28375-47.45891 5.31328-47.30133 5.3428-47.04858 5.39069-46.89099 5.42099-46.73341 5.45128-46.48067 5.50105-46.32307 5.53172-46.1655 5.56238-45.91273 5.61057-45.75516 5.64201-45.59756 5.67345-45.34482 5.72609-45.18724 5.75836-45.02965 5.79063-44.77689 5.84209-44.61931 5.87473-44.46172 5.90736-44.20897 5.96025-44.05139 5.99367-43.8938 6.02707-43.64104 6.0818-43.48346 6.11565-43.32587 6.14948-43.07312 6.203-42.91554 6.23763-42.75797 6.27223-42.50519 6.3298-42.34761 6.36522-42.19003 6.40062-41.93729 6.45706-41.7797 6.49281-41.62212 6.52858-41.36935 6.58604-41.21176 6.623-41.05418 6.65996-40.80144 6.72145-40.64384 6.75926-40.48627 6.79707-40.23352 6.85735-40.07593 6.89551-39.91835 6.93365-39.66559 6.99539-39.50801 7.03435-39.35042 7.07329-39.09767 7.13608-38.9401 7.17622-38.7825 7.21637-38.52974 7.28285-38.37216 7.32372-38.21457 7.36458-37.96182 7.42949-37.80424 7.47078-37.64665 7.51207-37.39389 7.57881-37.23631 7.6213-37.07872 7.6638-36.82597 7.73375-36.6684 7.77702-36.51082 7.82028-36.25804 7.88905-36.10046 7.93317-35.94289 7.97726-35.69014 8.0497-35.53255 8.09494-35.37497 8.14018-35.12221 8.21335-34.96461 8.25931-34.80704 8.30525-34.55429 8.37944-34.3967 8.42625-34.23912 8.47305-33.98637 8.54904-33.82878 8.59668-33.6712 8.64432-33.41844 8.72092-33.26086 8.7697-33.10327 8.81848-32.85052 8.8984-32.69295 8.94833-32.53535 8.99826-32.2826 9.07887-32.12502 9.12958-31.96742 9.18027-31.71468 9.26227-31.5571 9.31381-31.3995 9.36537-31.14674 9.44835-30.98917 9.50111-30.83157 9.55386-30.57883 9.64014-30.42125 9.69402-30.26367 9.74791-30.0109 9.8345-29.85332 9.88953-29.69574 9.94456-29.443 10.03444-29.2854 10.09067-29.12782 10.1469-28.87508 10.23775-28.71748 10.29482-28.5599 10.35188-28.30714 10.44374-28.14955 10.502-27.99197 10.56027-27.73923 10.65506-27.58163 10.71481-27.42406 10.77458-27.1713 10.87186-27.01372 10.93282-26.85612 10.99377-26.60338 11.09247-26.4458 11.15428-26.28821 11.2161-26.03545 11.31502-25.87787 11.37833-25.72028 11.44162-25.46753 11.54573-25.30995 11.6106-25.15236 11.67546-24.8996 11.7802-24.74202 11.8459-24.58443 11.9116-24.33168 12.01738-24.1741 12.08423-24.01653 12.15108-23.76375 12.25934-23.60617 12.32774-23.4486 12.39616-23.19585 12.5073-23.03825 12.57732-22.88068 12.64734-22.62793 12.76093-22.47034 12.83252-22.31276 12.9041-22.06 13.02055-21.9024 13.09334-21.74483 13.16612-21.49208 13.28284-21.33449 13.3572-21.17691 13.43155-20.92415 13.55334-20.76657 13.62926-20.60898 13.70515-20.35623 13.82724-20.19865 13.90434-20.04106 13.98145-19.7883 14.1064-19.63072 14.18506-19.47313 14.26373-19.22038 14.39076-19.0628 14.4714-18.90521 14.55206-18.65245 14.68419-18.49487 14.7664-18.33728 14.84862-18.08453 14.98058-17.92696 15.06398-17.76938 15.1474-17.5166 15.28224-17.35902 15.36763-17.20145 15.45302-16.9487 15.59216-16.7911 15.67947-16.63353 15.7668-16.38078 15.9081-16.22319 15.99698-16.06561 16.08585-15.81285 16.22923-15.65526 16.32008-15.49768 16.41092-15.24493 16.55899-15.08734 16.65182-14.92976 16.74467-14.677 16.89482-14.51942 16.98921-14.36183 17.0836-14.10909 17.23582-13.9515 17.33221-13.79391 17.42859-13.54115 17.58551-13.38358 17.68387-13.22598 17.78221-12.97324 17.94121-12.81566 18.04114-12.65807 18.14107-12.4053 18.30173-12.24773 18.40404-12.09013 18.50635-11.83739 18.67397-11.67981 18.77861-11.52223 18.88327-11.26945 19.0518-11.11188 19.15839-10.9543 19.26497-10.70155 19.43825-10.54396 19.5468-10.38638 19.65536-10.13364 19.83032-9.97604 19.94086-9.81847 20.05139-9.5657 20.23024-9.40811 20.34354-9.25053 20.45683-8.99779 20.64185-8.8402 20.75749-8.68262 20.87312-8.42986 21.05943-8.27228 21.17705-8.11469 21.29466-7.86194 21.48524-7.70436 21.60526-7.54677 21.72528-7.294 21.91939-7.13643 22.04211-6.97884 22.16484-6.72609 22.36473-6.56851 22.48979-6.41092 22.61487-6.15816 22.81607-6.00058 22.94353-5.84299 23.071-5.59024 23.27829-5.43266 23.40851-5.27509 23.53874-5.02232 23.74957-4.86475 23.88213-4.70717 24.0147-4.4544 24.22867-4.29681 24.36398-4.13924 24.49931-3.88649 24.71901-3.7289 24.85751-3.57132 24.99602-3.31856 25.22108-3.16096 25.36229-3.00339 25.5035-2.75064 25.73172-2.59305 25.87527-2.43547 26.01883-2.18271 26.2502-2.02513 26.39693-1.86754 26.54366-1.61479 26.78291-1.45721 26.93282-1.29962 27.08273-1.04686 27.3247-.88928 27.47739-.73169 27.63007-.47894 27.87831-.32137 28.0332-.16377 28.1881 .08896 28.4357 .24654 28.59378 .40413 28.75185 .65688 29.01038 .81445 29.17252 .97203 29.33466 1.2248 29.59705 1.38237 29.76248 1.53995 29.92793 1.79271 30.1962 1.9503 30.36502 2.10788 30.53383 2.36063 30.80699 2.51822 30.97922 2.6758 31.15146 2.92856 31.43068 3.08615 31.6064 3.24373 31.78212 3.49648 32.06644 3.65407 32.2457 3.81165 32.42496 4.0644 32.71548 4.22198 32.89839 4.37958 33.0813 4.63232 33.37749 4.7899 33.56406 4.9475 33.75064 5.20026 34.0528 5.35783 34.24315 5.51543 34.4335 5.76817 34.74184 5.92575 34.93608 6.08334 35.13034 6.3361 35.44513 6.49368 35.64328 6.65128 35.84145 6.90402 36.1622 7.0616 36.36432 7.21918 36.56645 7.47194 36.89381 7.62952 37.10007 7.7871 37.30634 8.03986 37.64056 8.19745 37.85095 8.35503 38.06136 8.60777 38.40193 8.76537 38.61655 8.92294 38.83115 9.1757 39.17873 9.3333 39.39772 9.49088 39.6167 9.74362 39.97145 9.90121 40.19487 10.05879 40.4183 10.31155 40.78006 10.46913 41.00804 10.62672 41.23602 10.87947 41.60536 11.03705 41.83809 11.19464 42.07082 11.4474 42.44814 11.60498 42.68542 11.76257 42.92271 12.01532 43.3063 12.1729 43.54834 12.33049 43.79037 12.58325 44.1828 12.74083 44.42986 12.89842 44.67693 13.15117 45.07706 13.30875 45.3291 13.46632 45.58115 13.71909 45.98941 13.87666 46.2465 14.03424 46.5036 14.287 46.91978 14.4446 47.1821 14.60217 47.44441 14.85492 47.86955 15.01251 48.13713 15.17009 48.40472 15.42285 48.83778 15.58044 49.11078 15.73802 49.38377 15.99077 49.82623 16.14836 50.10475 16.30594 50.38327 16.5587 50.83398 16.71628 51.1182 16.87387 51.4024 17.12662 51.86328 17.2842 52.15326 17.44179 52.44324 17.69455 52.9123 17.85213 53.2082 18.00972 53.50414 18.26247 53.98424 18.42004 54.2861 18.57764 54.58797 18.83038 55.07614 18.98796 55.38388 19.14555 55.69164 19.39832 56.19011 19.5559 56.50415 19.71347 56.81819 19.96623 57.32687 20.12381 57.64735 20.28139 57.96782 20.53415 58.4869 20.69174 58.8139 20.84932 59.14091 21.10207 59.67064 21.25966 60.00426 21.41724 60.33786 21.67 60.87807 21.82759 61.21838 21.98517 61.55872 22.23792 62.10994 22.39551 62.45717 22.55309 62.8044 22.80585 63.36667 22.96342 63.72104 23.12102 64.07542 23.37376 64.64986 23.53134 65.0113 23.68893 65.37277 23.9417 65.9574 24.09927 66.32622 24.25687 66.69505 24.50961 67.29347 24.66719 67.66968 24.82478 68.0459 25.07753 68.65407 25.2351 69.0378 25.3927 69.42152 25.64546 70.04387 25.80304 70.43533 25.96062 70.8268 26.21338 71.45981 26.37096 71.85925 26.52853 72.2587 26.7813 72.90671 26.93889 73.31432 27.09647 73.72192 27.34921 74.38112 27.5068 74.79706 27.66438 75.213 27.91714 75.88795 28.07474 76.31224 28.23232 76.73653 28.48506 77.42253 28.64265 77.8551 28.80023 78.28767 29.053 78.98839 29.21057 79.42996 29.36816 79.87154 29.62091 80.58702 29.77849 81.0377 29.93608 81.4884 30.18884 82.21863 30.34642 82.67833 30.50401 83.13802 30.75676 83.88214 30.91434 84.35095 31.07193 84.81976 31.32468 85.5787 31.48225 86.05731 31.63985 86.53592 31.89261 87.31218 32.05019 87.80043 32.20776 88.2887 32.46053 89.07863 32.6181 89.57643 32.77568 90.07423 33.02844 90.8804 33.18604 91.38834 33.34361 91.89629 33.59636 92.71881 33.75395 93.23744 33.91153 93.75607 34.16429 94.59738 34.32188 95.12634 34.47946 95.65529 34.73221 96.51038 34.8898 97.04984 35.04738 97.5893 35.30014 98.46387 35.45772 99.01442 35.61531 99.56497 35.86806 100.4562 36.02563 101.01793 36.18323 101.57965 36.43599 102.48991 36.59357 103.06297 36.75116 103.63605 37.0039 104.56378 37.16148 105.14824 37.31908 105.73271 37.57182 106.67934 37.7294 107.27545 37.887 107.87157 38.13976 108.83623 38.29733 109.44464 38.45491 110.05305 38.70767 111.0397 38.86525 111.66054 39.02283 112.28136 39.27559 113.28616 39.43318 113.91924 39.59076 114.5523 39.8435 115.57697 40.0011 116.22337 40.15868 116.86978 40.41144 117.91869 40.56903 118.57811 40.72661 119.23755 40.97935 120.30342 41.13695 120.9761 41.29453 121.64879 41.54729 122.74007 41.70486 123.42644 41.86246 124.11281 42.1152 125.22311 42.27278 125.92303 42.43037 126.62297 42.68312 127.75714 42.8407 128.47112 42.99829 129.1851 43.25105 130.34015 43.40863 131.06894 43.56622 131.79775 43.81897 132.9803 43.97655 133.72386 44.13414 134.46743 44.3869 135.66965 44.54448 136.4281 44.70206 137.18654 44.95482 138.41617 45.1124 139.19028 45.26997 139.9644 45.52274 141.218 45.68033 142.0074 45.8379 142.79682 46.09065 144.07474 46.24825 144.87989 46.40582 145.68503 46.65858 146.98876 46.81618 147.81034 46.97375 148.63191 47.2265 149.96263 47.3841 150.80132 47.54167 151.64002 47.79443 152.9995 47.95201 153.85506 48.1096 154.7106 48.36235 156.09519 48.51993 156.96759 48.67752 157.84001 48.93027 159.25255 49.08784 160.14286 49.24544 161.03316 49.4982 162.47574 49.65578 163.3843 49.81337 164.29283 50.06612 165.76413 50.2237 166.69104 50.38129 167.61795 50.63405 169.11945 50.79163 170.06485 50.9492 171.01024 51.20197 172.54027 51.35954 173.5048 51.51712 174.46935 51.76988 176.0323 51.92747 177.01659 52.08505 178.00087 52.3378 179.59462 52.49539 180.59888 52.65297 181.60314 52.90573 183.23018 53.06332 184.25467 53.2209 185.27916 53.47365 186.93778 53.63124 187.98273 53.78882 189.02768 54.04158 190.71985 54.19916 191.78604 54.35675 192.85224 54.6095 194.57917 54.76707 195.66719 54.92467 196.75524 55.17741 198.51782 55.33499 199.62795 55.49258 200.73807 55.74535 202.53607 55.90292 203.66829 56.06052 204.80049 56.31326 206.6335 56.47084 207.78821 56.62843 208.94292 56.8812 210.81226 57.03877 211.99074 57.19635 213.16924 57.44911 215.0794 57.60669 216.28195 57.76427 217.48451 58.01703 219.43102 58.17462 220.65795 58.3322 221.88486 58.58495 223.87319 58.74254 225.12477 58.90012 226.37635 59.15288 228.40174 59.31047 229.67853 59.46805 230.9553 59.7208 233.02413 59.87839 234.32701 60.03596 235.6299 60.28873 237.73979 60.4463 239.06893 60.6039 240.39804 60.85664 242.55055 61.01422 243.90644 61.17181 245.26232 61.42456 247.45709 61.58214 248.84125 61.73973 250.2254 61.9925 252.47084 62.15007 253.88249 62.30766 255.29413 62.56041 257.57588 62.71799 259.01545 62.87558 260.45497 63.12834 262.7883 63.28592 264.25779 63.4435 265.72727 63.69626 268.10728 63.85384 269.60655 64.01141 271.1058 64.26418 273.53407 64.42177 275.06343 64.57935 276.59284 64.83209 279.06916 64.98969 280.62934 65.14726 282.1895 65.40002 284.71638 65.55762 286.3081 65.7152 287.89988 65.96794 290.47825 66.12553 292.10154 66.28311 293.72486 66.53586 296.35108 66.69344 298.00785 66.85103 299.66465 67.10379 302.3523 67.26137 304.04264 67.41896 305.73298 67.6717 308.46607 67.82928 310.1907 67.98688 311.91539 68.23964 314.71318 68.39722 316.4729 68.55481 318.2326 68.80756 321.07893 68.96513 322.8736 69.12273 324.66825 69.37549 327.57585 69.53307 329.40754 69.69064 331.23918 69.9434 334.20597 70.10098 336.0751 70.25856 337.9442 70.51132 340.9727 70.66891 342.8789 70.82649 344.78514 71.07924 347.86924 71.23683 349.81379 71.39441 351.75837 71.64717 354.90937 71.80476 356.894 71.96234 358.87867 72.21509 362.09336 72.37268 364.11784 72.53026 366.14234 72.783 369.42018 72.94058 371.48524 73.09818 373.55033 73.35094 376.8937 73.50851 379.00148 73.6661 381.1092 73.91885 384.5264 74.07643 386.6764 74.23402 388.8264 74.48679 392.30378 74.64436 394.49714 74.80196 396.6905 75.0547 400.24763 75.21228 402.4848 75.36987 404.722 75.62263 408.33988 75.78021 410.62129 75.93779 412.9027 76.19055 416.5983 76.34813 418.92774 76.5057 421.25718 76.75847 425.03358 76.91606 427.41026 77.07364 429.7869 77.32639 433.63258 77.48398 436.0571 77.64156 438.48167 77.89432 442.41188 78.05191 444.88478 78.20949 447.3577 78.46223 451.3568 78.61983 453.88026 78.7774 456.40373 79.03015 460.497 79.18773 463.07215 79.34532 465.64726 79.59808 469.81373 79.75566 472.44004 79.91325 475.06636 80.166 479.32127 80.32358 482.0009 80.48117 484.68049 80.73393 489.01817 80.89151 491.75285 81.0491 494.48756 81.30185 498.9209 81.45943 501.71076 81.61702 504.5006 81.86978 509.01454 82.02736 511.86027 82.18494 514.706 82.4377 519.3174 82.59528 522.2208 82.75285 525.12429 83.00562 529.824 83.16321 532.78646 83.32079 535.7489 83.57353 540.5494 83.73112 543.5722 83.8887 546.59506 84.14145 551.4892 84.29904 554.57296 84.45662 557.65676 84.70938 562.653 84.86697 565.7977 85.02455 568.94247 85.2773 574.03109 85.43488 577.2379 85.59247 580.4448 85.84523 585.63668 86.0028 588.9108 86.1604 592.185 86.41315 597.49417 86.57072 600.83596 86.72832 604.1777 86.98108 609.5875 87.13866 612.99588 87.29625 616.4042 87.549 621.924 87.70657 625.4006 87.86417 628.8772 88.11693 634.5052 88.2745 638.0528 88.43208 641.60037 88.68484 647.34988 88.84242 650.96926 89 654.5886 89.25276 660.44686 89.41035 664.13876 89.56793 667.83059 89.82068 673.8101 89.97827 677.5777 90.13585 681.3452 90.3886 687.449 90.54619 691.2926 90.70377 695.13619 90.95653 701.35848 91.11412 705.27957 91.2717 709.2007 91.52444 715.55227 91.68202 719.5533 91.83961 723.5544 92.09238 730.0346 92.24995 734.11648 92.40755 738.19827 92.6603 744.808 92.81787 748.97238 92.97546 753.1368 93.22823 759.88186 93.3858 764.1307 93.5434 768.3796 93.79614 775.26266 93.95372 779.5952 94.11131 783.9278 94.36407 790.9361 94.52165 795.3569 94.67923 799.7777 94.93199 806.94509 95.08957 811.4573 95.24715 815.9694 95.49991 823.2745 95.6575 827.8777 95.81508 832.48098 96.06783 839.9386 96.22542 844.6342 96.383 849.3299 96.63574 856.9302 96.79333 861.72079 96.95091 866.51138 97.20367 874.27328 97.36127 879.16159 97.51884 884.04989 97.77159 891.9653 97.92917 896.9523 98.08676 901.93936 98.33952 910.0171 98.4971 915.1046 98.6547 920.19216 98.90744 928.42886 99.06502 933.6198 99.22261 938.8108 99.47537 947.2216 99.63295 952.51748 99.79054 957.81326 100.04329 966.38479 100.20087 971.78829 100.35846 977.1918 100.61122 985.9488 100.7688 991.4623 100.92638 996.97579 101.17914 1005.90158 101.33672 1011.5255 101.4943 1017.1495 101.74706 1026.2582 101.90465 1031.9959 102.06223 1037.7335 102.31497 1047.0252 102.47256 1052.8783 102.63014 1058.7316 102.88289 1068.2106 103.04048 1074.1821 103.19806 1080.1538 103.45082 1089.8265 103.60841 1095.9176 103.76599 1102.0087 104.01874 1111.8679 104.17632 1118.0825 104.33391 1124.2973 104.58667 1134.3663 104.74425 1140.7091 104.90184 1147.0519 105.15459 1157.3255 105.31216 1163.7966 105.46976 1170.2678 105.72252 1180.7482 105.8801 1187.3493 106.03769 1193.9503 106.29044 1204.6375 106.44801 1211.3728 106.6056 1218.1082 106.85837 1229.0217 107.01595 1235.8934 107.17352 1242.7651 107.42628 1253.8884 107.58386 1260.8993 107.74144 1267.91 107.99419 1279.2702 108.15178 1286.4225 108.30936 1293.5748 108.56212 1305.1513 108.71971 1312.4487 108.87729 1319.7462 109.13004 1331.5719 109.28763 1339.0178 109.4452 1346.4638 109.69797 1358.5182 109.85556 1366.1138 110.01314 1373.7092 110.26588 1386.0115 110.42346 1393.7606 110.58105 1401.5099 110.83382 1414.0584 110.9914 1421.9647 111.14899 1429.8711 111.40173 1442.679 111.55931 1450.7445 111.7169 1458.81 111.96967 1471.8673 112.12724 1480.0957 112.28484 1488.324 112.53758 1501.6527 112.69516 1510.0485 112.85275 1518.4443 113.10551 1532.0446 113.26309 1540.6069 113.42067 1549.1692 113.67343 1563.0233 113.83101 1571.7595 113.98859 1580.4957 114.24133 1594.6558 114.39893 1603.5714 114.5565 1612.487 114.80927 1626.921 114.96686 1636.0175 115.12444 1645.1138 115.37718 1659.8513 115.53477 1669.1321 115.69235 1678.4129 115.94511 1693.4393 116.1027 1702.9064 116.26028 1712.3734 116.51303 1727.7041 116.67061 1737.3641 116.8282 1747.024 117.08096 1762.6724 117.23854 1772.5286 117.39613 1782.3848 117.64888 1798.3467 117.80646 1808.4006 117.96405 1818.4546 118.21681 1834.7322 118.37439 1844.9904 118.53198 1855.2485 118.78473 1871.8693 118.9423 1882.3348 119.0999 1892.8003 119.35266 1909.7416 119.51024 1920.4185 119.66782 1931.0955 119.92058 1948.3928 120.07816 1959.2868 120.23573 1970.1808 120.48848 1987.8206 120.64607 1998.9346 120.80365 2010.0485 121.05641 2028.0498 121.214 2039.3886 121.37158 2050.727 121.62433 2069.0872 121.78192 2080.6558 121.9395 2092.2244 122.19226 2110.968 122.34985 2122.767 122.50743 2134.5662 122.76018 2153.6595 122.91776 2165.6956 123.07535 2177.732 123.32811 2197.2318 123.48569 2209.5167 123.64328 2221.8013 123.89603 2241.7015 124.0536 2254.236 124.2112 2266.771 124.46396 2287.0716 124.62154 2299.8582 124.77913 2312.6448 125.03188 2333.3485 125.18945 2346.3936 125.34705 2359.439 125.59981 2380.5689 125.75739 2393.88 125.91496 2407.1907 126.16772 2428.7518 126.3253 2442.3297 126.48288 2455.9078 126.73563 2477.8858 126.89322 2491.7403 127.0508 2505.5946 127.30356 2528.0467 127.46115 2542.1824 127.61873 2556.318 127.87148 2579.2 128.02907 2593.6207 128.18665 2608.0416 128.4394 2631.4044 128.597 2646.1175 128.75458 2660.8304 129.00733 2684.6517 129.1649 2699.6612 129.3225 2714.671 129.57526 2738.9837 129.73284 2754.2965 129.89043 2769.6092 130.14318 2794.4017 130.30075 2810.025 130.45835 2825.6485 130.7111 2850.9593 130.86869 2866.9 131.02628 2882.8406 131.27902 2908.6519 131.4366 2924.914 131.5942 2941.1763 131.84694 2967.5196 132.00452 2984.106 132.1621 3000.6925 132.41487 3027.538 132.57245 3044.4576 132.73003 3061.3773 132.98278 3088.782 133.14037 3106.0506 133.29795 3123.319 133.5507 3151.2989 133.7083 3168.9178 133.86588 3186.5369 134.11862 3215.06 134.27622 3233.036 134.43379 3251.012 134.68656 3280.1353 134.84415 3298.4759 135.00173 3316.8167 135.25447 3346.5115 135.41205 3365.2227 135.56964 3383.9337 135.8224 3414.243 135.97998 3433.3326 136.13758 3452.422 136.39032 3483.3333 136.5479 3502.8074 136.70549 3522.2813 136.95825 3553.8209 137.11583 3573.6883 137.27342 3593.5555 137.52617 3625.7249 137.68375 3645.9976 137.84134 3666.2706 138.09409 3699.1185 138.25167 3719.8013 138.40924 3740.4842 138.66202 3773.9656 138.8196 3795.0655 138.97718 3816.165 139.22992 3850.3458 139.38751 3871.8734 139.54509 3893.401 139.79785 3928.258 139.95545 3950.2215 140.11302 3972.185 140.36577 4007.764 140.52336 4030.171 140.68094 4052.5782 140.9337 4088.8536 141.0913 4111.7165 141.24887 4134.5798 141.6592 4194.951 141.6592 4194.951"/>
</g>
<use data-text="&#x2022;" xlink:href="#font_3_1" transform="matrix(9.963397,0,0,-9.963197,146.41727,133.34223)"/>
<use data-text="(" xlink:href="#font_4_1" transform="matrix(9.963397,0,0,-9.963197,123.247409,125.11774)"/>
<use data-text="0" xlink:href="#font_4_3" transform="matrix(9.963397,0,0,-9.963197,127.11322,125.11774)"/>
<use data-text="," xlink:href="#font_1_1" transform="matrix(9.963397,0,0,-9.963197,132.10413,125.11774)"/>
<use data-text="1" xlink:href="#font_4_4" transform="matrix(9.963397,0,0,-9.963197,136.53148,125.11774)"/>
<use data-text=")" xlink:href="#font_4_2" transform="matrix(9.963397,0,0,-9.963197,141.51317,125.11774)"/>
</svg>
