<svg xmlns="http://www.w3.org/2000/svg" xmlns:xlink="http://www.w3.org/1999/xlink" version="1.1" width="134" height="133" viewBox="0 0 134 133">
<defs>
<path id="font_1_2" d="M.33399964 .30233766C.33999635 .32835389 .36299134 .42037965 .43299867 .42037965 .43798829 .42037965 .46199037 .42037965 .48298646 .40734864 .45498658 .402359 .43499757 .37734986 .43499757 .35334779 .43499757 .33735658 .44599916 .31835938 .47299195 .31835938 .49499513 .31835938 .5269928 .3363495 .5269928 .37635804 .5269928 .42837525 .46798707 .4423828 .43399049 .4423828 .37599183 .4423828 .34098817 .38935853 .32899476 .36634828 .3039856 .43237306 .25 .4423828 .22099304 .4423828 .116989139 .4423828 .05999756 .3133545 .05999756 .28834535 .05999756 .27833558 .069992069 .27833558 .07199097 .27833558 .07998657 .27833558 .08299255 .28033448 .084991458 .28933717 .11898804 .39535523 .18499756 .42037965 .21899414 .42037965 .23799134 .42037965 .272995 .4113617 .272995 .35334779 .272995 .32235719 .2559967 .25532533 .21899414 .11528015 .20298767 .053268434 .16799927 .011245728 .12399292 .011245728 .117996219 .011245728 .09498596 .011245728 .07398987 .024276734 .09899902 .029266358 .12098694 .05027771 .12098694 .07827759 .12098694 .105270389 .09899902 .11328125 .083999637 .11328125 .053985597 .11328125 .0289917 .08728027 .0289917 .055267335 .0289917 .009246826 .07899475-.0107421879 .12298584-.0107421879 .18899536-.0107421879 .22499085 .059280397 .22799683 .0652771 .23999024 .028274537 .27598573-.0107421879 .33599855-.0107421879 .43899537-.0107421879 .49598695 .118270877 .49598695 .14328003 .49598695 .1532898 .4869995 .1532898 .48399354 .1532898 .47499085 .1532898 .47299195 .14929199 .47099305 .14228821 .43798829 .03527832 .36999513 .011245728 .33799745 .011245728 .29899598 .011245728 .2829895 .043273927 .2829895 .07727051 .2829895 .09927368 .2889862 .121276859 .2999878 .16529846L.33399964 .30233766Z"/>
<path id="font_1_3" d="M.48599244 .38136292C.48999024 .39537049 .48999024 .39736939 .48999024 .40437318 .48999024 .42237855 .47599793 .43138124 .46099855 .43138124 .45098878 .43138124 .43499757 .42536927 .42599488 .41036988 .42399598 .405365 .41600038 .37435914 .4119873 .35635377 .40499879 .33035279 .397995 .30334474 .3919983 .27633668L.34700013 .09628296C.34298707 .08126831 .2999878 .011245728 .23399353 .011245728 .18299866 .011245728 .17199707 .055267335 .17199707 .0922699 .17199707 .1382904 .18899536 .20030213 .22299195 .28833009 .23899842 .3293457 .24299622 .3403473 .24299622 .36035157 .24299622 .405365 .21099854 .4423828 .16099549 .4423828 .06599426 .4423828 .0289917 .29733277 .0289917 .28833009 .0289917 .27833558 .038986207 .27833558 .040985109 .27833558 .050994874 .27833558 .051986696 .28033448 .056991579 .29634095 .083999637 .3903656 .12399292 .42037965 .1579895 .42037965 .1659851 .42037965 .18299866 .42037965 .18299866 .3883667 .18299866 .36335755 .17298889 .3373413 .1659851 .31834413 .12599182 .21231079 .10798645 .1552887 .10798645 .10827637 .10798645 .019256592 .17098999-.0107421879 .22999573-.0107421879 .2689972-.0107421879 .30299378 .0062561037 .33099366 .03425598 .31799317-.017745972 .30599977-.06674194 .2659912-.11973572 .23999024-.15385437 .20199585-.18309021 .1559906-.18309021 .14199829-.18309021 .09700012-.18005371 .07998657-.14074707 .09599304-.14074707 .10899353-.14074707 .12298584-.1287384 .1329956-.11973572 .14299011-.10673523 .14299011-.08773804 .14299011-.056747438 .115997318-.052734376 .10598755-.052734376 .08299255-.052734376 .049987794-.068740848 .049987794-.11773682 .049987794-.16796875 .09399414-.20507813 .1559906-.20507813 .25898744-.20507813 .3619995-.11373901 .3899994-.00074768069L.48599244 .38136292Z"/>
<path id="font_2_2" d="M.44400025 .24998474C.44400025 .35688783 .35499574 .44381715 .25 .44381715 .14199829 .44381715 .054992677 .35488893 .054992677 .24998474 .054992677 .14407349 .14199829 .056137086 .25 .056137086 .35499574 .056137086 .44400025 .14308167 .44400025 .24998474Z"/>
<path id="font_3_1" d="M.33099366-.2400055C.33099366-.23701477 .33099366-.23500061 .31399537-.21800232 .18899536-.0920105 .15699768 .09700012 .15699768 .25 .15699768 .42399598 .19499207 .59799197 .31799317 .72299197 .33099366 .73498538 .33099366 .7369995 .33099366 .73999026 .33099366 .746994 .32699586 .75 .32099916 .75 .31098939 .75 .22099304 .6819916 .1619873 .5549927 .11099243 .44499208 .09899902 .33399964 .09899902 .25 .09899902 .17199707 .10998535 .050994874 .16499329-.06201172 .22499085-.18501282 .31098939-.25 .32099916-.25 .32699586-.25 .33099366-.24700928 .33099366-.2400055Z"/>
<path id="font_3_3" d="M.2939911 .64004519C.2939911 .66400149 .2939911 .6660156 .2709961 .6660156 .20899964 .60227969 .12098694 .60227969 .08898926 .60227969V.57128909C.10899353 .57128909 .16799927 .57128909 .21998596 .5972748V.07902527C.21998596 .042999269 .21699524 .0309906 .1269989 .0309906H.09498596V0C.12998963 .0029907227 .21699524 .0029907227 .25698854 .0029907227 .29699708 .0029907227 .38398744 .0029907227 .4189911 0V.0309906H.3869934C.29699708 .0309906 .2939911 .041992189 .2939911 .07902527V.64004519Z"/>
<path id="font_1_1" d="M.20298767 .0009918213C.20298767 .066986087 .17799378 .10598755 .13899231 .10598755 .10598755 .10598755 .085998538 .08099365 .085998538 .052993776 .085998538 .025985718 .10598755 0 .13899231 0 .15098572 0 .1639862 .0039978029 .17399597 .0129852299 .1769867 .01499939 .17799378 .015991211 .1789856 .015991211 .17999268 .015991211 .18099976 .01499939 .18099976 .0009918213 .18099976-.07316589 .1459961-.13328552 .11299133-.16635132 .101989749-.17736817 .101989749-.17936707 .101989749-.18237305 .101989749-.18936157 .10699463-.19335938 .11199951-.19335938 .12298584-.19335938 .20298767-.116256717 .20298767 .0009918213Z"/>
<path id="font_3_2" d="M.2889862 .25C.2889862 .32798768 .27799989 .44898988 .22299195 .56199648 .16299439 .68499758 .07699585 .75 .066986087 .75 .06098938 .75 .056991579 .74598696 .056991579 .73999026 .056991579 .7369995 .056991579 .73498538 .07598877 .71699526 .17399597 .6179962 .23098755 .45899964 .23098755 .25 .23098755 .07899475 .19400025-.09700012 .069992069-.2230072 .056991579-.23500061 .056991579-.23701477 .056991579-.2400055 .056991579-.2460022 .06098938-.25 .066986087-.25 .07699585-.25 .16699219-.18200684 .22599793-.055007936 .2769928 .054992677 .2889862 .16600037 .2889862 .25Z"/>
<path id="font_2_1" d="M.6589966 .23046875C.6759949 .23046875 .69400027 .23046875 .69400027 .25045777 .69400027 .27046205 .6759949 .27046205 .6589966 .27046205H.117996219C.100997928 .27046205 .08299255 .27046205 .08299255 .25045777 .08299255 .23046875 .100997928 .23046875 .117996219 .23046875H.6589966Z"/>
</defs>
<path transform="matrix(1.00008,0,0,-1.00005,4.8391039,74.43107)" stroke-width=".19925" stroke-linecap="butt" stroke-miterlimit="10" stroke-linejoin="miter" fill="none" stroke="#929292" d="M0-56.69362H113.38724M0-28.3468H113.38724M0 0H113.38724M0 28.3468H113.38724M0 56.68365H113.38724M0-56.69362V56.69362M28.3468-56.69362V56.69362M56.69362-56.69362V56.69362M85.04042-56.69362V56.69362M113.37727-56.69362V56.69362M113.38724 56.69362"/>
<path transform="matrix(1.00008,0,0,-1.00005,4.8391039,74.43107)" stroke-width="1.19553" stroke-linecap="butt" stroke-miterlimit="10" stroke-linejoin="miter" fill="none" stroke="#000000" d="M0 0H118.10008"/>
<path transform="matrix(1.00008,0,0,-1.00005,122.94863,74.43107)" stroke-width=".9564" stroke-linecap="round" stroke-linejoin="round" fill="none" stroke="#000000" d="M-1.91284 2.55046C-1.75343 1.59402 0 .15938 .4782 0 0-.15938-1.75343-1.59402-1.91284-2.55046"/>
<use data-text="x" xlink:href="#font_1_2" transform="matrix(9.963397,0,0,-9.963098,127.82394,76.57617)"/>
<path transform="matrix(1.00008,0,0,-1.00005,4.8391039,74.43107)" stroke-width="1.19553" stroke-linecap="butt" stroke-miterlimit="10" stroke-linejoin="miter" fill="none" stroke="#000000" d="M0-56.69362V61.40646"/>
<path transform="matrix(0,-1.00005,-1.00008,-0,4.8391039,13.021542)" stroke-width=".9564" stroke-linecap="round" stroke-linejoin="round" fill="none" stroke="#000000" d="M-1.91284 2.55046C-1.75343 1.59402 0 .15938 .4782 0 0-.15938-1.75343-1.59402-1.91284-2.55046"/>
<use data-text="y" xlink:href="#font_1_3" transform="matrix(9.963397,0,0,-9.963098,2.2178956,6.209656)"/>
<path transform="matrix(1.00008,0,0,-1.00005,4.8391039,74.43107)" stroke-width=".79701" stroke-linecap="butt" stroke-miterlimit="10" stroke-linejoin="miter" fill="none" stroke="#0000ff" d="M0 0C0 0 .16405 2.03902 .22707 2.53682 .29007 3.03462 .39114 3.3302 .45415 3.58789 .51717 3.84558 .61823 4.188 .68124 4.39413 .74425 4.60028 .84529 4.89626 .90831 5.07365 .97133 5.25104 1.07239 5.5144 1.13539 5.67271 1.19841 5.83102 1.29947 6.07037 1.36249 6.21469 1.42549 6.35902 1.52655 6.57957 1.58955 6.71297 1.65257 6.84637 1.75363 7.05157 1.81665 7.17622 1.87965 7.30086 1.98071 7.49385 2.04373 7.61134 2.10675 7.72885 2.2078 7.91168 2.2708 8.02313 2.33382 8.13457 2.43488 8.30836 2.4979 8.41458 2.5609 8.5208 2.66197 8.68707 2.72498 8.78873 2.788 8.89038 2.88904 9.0496 2.95206 9.1473 3.01506 9.24498 3.11612 9.39876 3.17914 9.4929 3.24214 9.58705 3.34322 9.73503 3.40622 9.82594 3.46924 9.91685 3.5703 10.06017 3.63332 10.1482 3.69632 10.23624 3.79736 10.37505 3.86038 10.4605 3.9234 10.54594 4.02446 10.68114 4.08746 10.76411 4.15048 10.8471 4.25154 10.97792 4.31456 11.05869 4.37756 11.13945 4.47862 11.26753 4.54163 11.34633 4.60464 11.42511 4.7057 11.54979 4.76872 11.6266 4.83173 11.70341 4.93279 11.82489 4.9958 11.89996 5.05882 11.97504 5.15987 12.09425 5.22287 12.16771 5.28589 12.24117 5.38695 12.35757 5.44997 12.4294 5.51297 12.50124 5.61404 12.61508 5.67705 12.68547 5.74007 12.75584 5.84111 12.8677 5.90413 12.93677 5.96713 13.00583 6.06819 13.11555 6.13121 13.18332 6.19421 13.25107 6.29529 13.35855 6.35829 13.42511 6.42131 13.49165 6.52237 13.5976 6.58539 13.663 6.64839 13.7284 6.74944 13.83229 6.81245 13.89656 6.87547 13.96083 6.97653 14.063 7.03954 14.12625 7.10255 14.18948 7.20361 14.2903 7.26663 14.35245 7.32964 14.41461 7.4307 14.51309 7.4937 14.57436 7.55672 14.63562 7.65778 14.73372 7.7208 14.79408 7.7838 14.85445 7.88486 14.95007 7.94788 15.00948 8.0109 15.0689 8.11194 15.16362 8.17494 15.22229 8.23796 15.28098 8.33902 15.3746 8.40204 15.43251 8.46504 15.49042 8.56612 15.58257 8.62912 15.6397 8.69214 15.69682 8.79318 15.78795 8.8562 15.84428 8.9192 15.90062 9.02026 15.99016 9.08328 16.04585 9.14629 16.10153 9.24736 16.19064 9.31036 16.24568 9.37338 16.3007 9.47443 16.38818 9.53745 16.44249 9.60045 16.49678 9.7015 16.58342 9.76453 16.63713 9.82755 16.69084 9.9286 16.77657 9.99161 16.8296 10.05463 16.88264 10.15569 16.96704 10.2187 17.01949 10.28171 17.07193 10.38277 17.15575 10.44577 17.20764 10.50879 17.25954 10.60985 17.34233 10.67287 17.39365 10.73587 17.44495 10.83693 17.52664 10.89995 17.57747 10.96297 17.62828 11.06401 17.7097 11.12701 17.76 11.19003 17.81029 11.29109 17.89018 11.35411 17.93993 11.41711 17.98967 11.51819 18.06923 11.58119 18.11856 11.64421 18.1679 11.74525 18.24664 11.80827 18.29549 11.87128 18.34433 11.97234 18.4223 12.03535 18.47066 12.09836 18.51901 12.19943 18.59622 12.26244 18.6441 12.32545 18.692 12.4265 18.76836 12.48952 18.81581 12.55252 18.86328 12.65358 18.9392 12.7166 18.98625 12.77962 19.0333 12.88068 19.10837 12.94368 19.15492 13.0067 19.20149 13.10776 19.2757 13.17078 19.32188 13.23378 19.36809 13.33484 19.44214 13.39784 19.48799 13.46086 19.53383 13.56192 19.60693 13.62494 19.65234 13.68794 19.69777 13.789 19.77037 13.85202 19.81541 13.91504 19.86047 14.01608 19.93248 14.07909 19.97719 14.1421 20.0219 14.24316 20.09325 14.30618 20.13766 14.36919 20.18207 14.47026 20.25328 14.53326 20.29726 14.59628 20.34125 14.69733 20.41109 14.76035 20.45471 14.82335 20.49834 14.92441 20.56839 14.98743 20.61171 15.05043 20.65504 15.1515 20.72398 15.21451 20.767 15.27753 20.81003 15.37857 20.87914 15.44159 20.92184 15.5046 20.96457 15.60565 21.03265 15.66867 21.07497 15.73169 21.11728 15.83275 21.18472 15.89575 21.22679 15.95877 21.26886 16.05983 21.33635 16.12285 21.37817 16.18585 21.41998 16.28691 21.48674 16.34991 21.52826 16.41293 21.56978 16.51399 21.63634 16.57701 21.67749 16.64001 21.71866 16.74107 21.78412 16.8041 21.82498 16.86711 21.86584 16.96815 21.93137 17.03116 21.97205 17.09418 22.01273 17.19524 22.07787 17.25826 22.11824 17.32126 22.15863 17.42233 22.22307 17.48534 22.26315 17.54836 22.30324 17.6494 22.36732 17.71242 22.40718 17.77542 22.44702 17.87648 22.51074 17.9395 22.55035 18.0025 22.58995 18.10358 22.65329 18.16658 22.69266 18.2296 22.73201 18.33064 22.79498 18.39366 22.83409 18.45667 22.87321 18.55772 22.93578 18.62074 22.97467 18.68376 23.01355 18.78482 23.07574 18.84782 23.1144 18.91084 23.15303 19.01189 23.21489 19.0749 23.25323 19.13791 23.29156 19.23898 23.35262 19.30199 23.39078 19.365 23.42892 19.46606 23.49034 19.52908 23.52832 19.59209 23.5663 19.69315 23.62683 19.75616 23.66458 19.81918 23.70233 19.92023 23.76283 19.98323 23.8004 20.04625 23.83795 20.14731 23.89803 20.21033 23.93533 20.27333 23.97266 20.3744 24.03235 20.43741 24.06943 20.50043 24.1065 20.60147 24.16582 20.66449 24.20265 20.7275 24.23949 20.82855 24.29836 20.89157 24.335 20.95457 24.37166 21.05565 24.43037 21.11865 24.46692 21.18167 24.50346 21.28271 24.56206 21.34573 24.59842 21.40874 24.63478 21.5098 24.693 21.57281 24.72905 21.63583 24.7651 21.7369 24.8225 21.7999 24.85837 21.86292 24.89426 21.96396 24.95193 22.02698 24.9877 22.08998 25.02345 22.19106 25.08058 22.25406 25.11617 22.31708 25.15176 22.41814 25.2088 22.48116 25.2442 22.54416 25.2796 22.64522 25.3362 22.70824 25.37137 22.77126 25.40652 22.8723 25.46262 22.9353 25.49767 22.99832 25.5327 23.09938 25.5891 23.1624 25.62396 23.2254 25.65881 23.32648 25.71436 23.38948 25.74896 23.4525 25.78358 23.55354 25.83904 23.61656 25.87355 23.67957 25.90805 23.78062 25.9633 23.84364 25.99768 23.90665 26.03207 24.00772 26.08717 24.07072 26.12138 24.13374 26.1556 24.23479 26.2102 24.2978 26.24423 24.36081 26.27826 24.46187 26.3328 24.52489 26.36664 24.5879 26.40048 24.68896 26.45445 24.75197 26.48817 24.81499 26.5219 24.91603 26.57619 24.97905 26.60971 25.04205 26.64325 25.14313 26.69661 25.20613 26.72997 25.26915 26.76332 25.37021 26.81693 25.43323 26.85022 25.49623 26.8835 25.59729 26.93689 25.66031 26.97002 25.72333 27.00314 25.82437 27.05603 25.88737 27.08897 25.9504 27.12192 26.05145 27.17467 26.11447 27.20749 26.17747 27.24031 26.27855 27.29288 26.34155 27.32558 26.40457 27.35828 26.50562 27.4107 26.56863 27.44322 26.63164 27.47574 26.7327 27.52762 26.79572 27.56001 26.85872 27.5924 26.9598 27.64452 27.0228 27.67679 27.08582 27.70906 27.18686 27.76062 27.24988 27.79272 27.31288 27.82483 27.41394 27.87614 27.47696 27.90819 27.53998 27.94025 27.64104 27.99176 27.70404 28.02368 27.76706 28.0556 27.8681 28.10663 27.93112 28.1383 27.99413 28.16998 28.0952 28.2205 28.1582 28.25206 28.22122 28.28363 28.32228 28.33432 28.3853 28.36581 28.4483 28.39732 28.54935 28.44777 28.61237 28.47916 28.67538 28.51053 28.77644 28.56085 28.83945 28.59204 28.90247 28.62323 29.00352 28.67297 29.06654 28.70407 29.12955 28.73515 29.23062 28.78508 29.29362 28.8161 29.35664 28.84712 29.45769 28.89679 29.5207 28.9277 29.58371 28.9586 29.68477 29.00813 29.74779 29.03886 29.81079 29.06958 29.91187 29.11855 29.97487 29.14915 30.03789 29.17975 30.13893 29.22891 30.20195 29.25946 30.26495 29.29 30.36603 29.3389 30.42903 29.36932 30.49205 29.39973 30.59311 29.44844 30.65611 29.47874 30.71913 29.50903 30.82018 29.55757 30.8832 29.58774 30.9462 29.61792 31.04727 29.66626 31.11028 29.69632 31.1733 29.72636 31.27435 29.7745 31.33737 29.80444 31.40038 29.83438 31.50142 29.88232 31.56444 29.91216 31.62746 29.94197 31.72852 29.98965 31.79152 30.01941 31.85454 30.04918 31.9556 30.09705 32.01862 30.1267 32.08162 30.15634 32.1827 30.20357 32.2457 30.2331 32.30872 30.26262 32.40976 30.31003 32.47278 30.3395 32.53578 30.36896 32.63684 30.41612 32.69986 30.44547 32.76286 30.47481 32.86394 30.52179 32.92694 30.55101 32.98996 30.58023 33.091 30.62697 33.15402 30.65611 33.21703 30.68527 33.3181 30.7322 33.3811 30.76123 33.44412 30.79027 33.54518 30.83661 33.60818 30.86546 33.6712 30.89432 33.77225 30.94048 33.83527 30.96927 33.89827 30.99806 33.99934 31.04434 34.06235 31.07307 34.12537 31.1018 34.22643 31.14777 34.28944 31.17645 34.35245 31.20514 34.45349 31.25128 34.51651 31.27985 34.57953 31.30841 34.68059 31.35391 34.74359 31.38235 34.80661 31.4108 34.90767 31.45647 34.97069 31.48485 35.03369 31.51324 35.13477 31.55867 35.19777 31.58693 35.26079 31.6152 35.36183 31.66037 35.42485 31.68858 35.48785 31.71678 35.58891 31.7621 35.65193 31.79024 35.71494 31.81837 35.81601 31.8635 35.87901 31.89145 35.94203 31.9194 36.04308 31.96396 36.1061 31.99179 36.1691 32.01964 36.27017 32.06432 36.33318 32.09215 36.3962 32.11998 36.49725 32.16472 36.56026 32.19249 36.62328 32.22026 36.72432 32.26474 36.78734 32.2924 36.85034 32.32005 36.95142 32.36435 37.01442 32.39189 37.07744 32.41945 37.1785 32.46346 37.24152 32.49094 37.30452 32.51842 37.40556 32.56264 37.46858 32.59 37.5316 32.61736 37.63266 32.66087 37.69566 32.68819 37.75868 32.71548 37.85974 32.75949 37.92276 32.7868 37.98576 32.8141 38.08682 32.8578 38.14983 32.885 38.21284 32.91217 38.3139 32.95567 38.37692 32.98274 38.43993 33.0098 38.54099 33.05305 38.604 33.08006 38.667 33.10706 38.76808 33.15051 38.83109 33.17738 38.8941 33.20425 38.99515 33.24702 39.05817 33.27383 39.12117 33.30066 39.22224 33.3439 39.28525 33.37073 39.34827 33.39754 39.44933 33.44055 39.51233 33.46718 39.57535 33.4938 39.67639 33.5362 39.73941 33.56277 39.80241 33.58934 39.90349 33.63223 39.96649 33.6588 40.02951 33.68538 40.13057 33.72794 40.19359 33.7544 40.25659 33.78084 40.35764 33.82321 40.42065 33.84953 40.48367 33.87587 40.58473 33.91798 40.64774 33.94426 40.71075 33.97055 40.81181 34.01271 40.87483 34.039 40.93784 34.06529 41.0389 34.10756 41.1019 34.13373 41.16492 34.15988 41.26598 34.20148 41.329 34.22758 41.392 34.25368 41.49306 34.29584 41.55608 34.32188 41.61908 34.34792 41.72015 34.38937 41.78316 34.4153 41.84618 34.44121 41.94722 34.48286 42.01024 34.50873 42.07324 34.53459 42.17432 34.57593 42.23732 34.60173 42.30034 34.62753 42.4014 34.66899 42.4644 34.69472 42.52742 34.72046 42.62846 34.76167 42.69148 34.7873 42.75449 34.8129 42.85556 34.85385 42.91856 34.87941 42.98158 34.90497 43.08264 34.946 43.14566 34.97156 43.20866 34.9971 43.30971 35.03818 43.37273 35.06367 43.43575 35.08917 43.5368 35.12994 43.59981 35.15538 43.66283 35.1808 43.76389 35.22176 43.8269 35.24707 43.88991 35.27238 43.99097 35.31264 44.05397 35.3379 44.11699 35.36317 44.21805 35.40398 44.28107 35.42917 44.34407 35.45438 44.44513 35.49442 44.50815 35.51956 44.57115 35.54471 44.67221 35.58531 44.73521 35.6104 44.79823 35.63548 44.89929 35.67535 44.96231 35.70038 45.02531 35.7254 45.12639 35.76581 45.18939 35.79077 45.25241 35.81573 45.35347 35.85547 45.41647 35.88031 45.47949 35.90515 45.58054 35.945 45.64355 35.96985 45.70656 35.99469 45.80763 36.03459 45.87064 36.05937 45.93365 36.08415 46.03471 36.12376 46.09773 36.14848 46.16074 36.1732 46.26178 36.21294 46.3248 36.23758 46.38782 36.26224 46.48888 36.30173 46.55188 36.32626 46.6149 36.3508 46.71596 36.38995 46.77898 36.41449 46.84198 36.43903 46.94304 36.47868 47.00604 36.50316 47.06906 36.52763 47.17012 36.56662 47.23314 36.59097 47.29614 36.61533 47.3972 36.65442 47.46022 36.67877 47.52322 36.70313 47.62428 36.7423 47.68729 36.76659 47.7503 36.79088 47.85136 36.82977 47.91438 36.85396 47.97739 36.87813 48.07846 36.91676 48.14146 36.94089 48.20448 36.96501 48.30554 37.00365 48.36855 37.02783 48.43156 37.05202 48.53261 37.09114 48.59563 37.11522 48.65863 37.13928 48.7597 37.17734 48.82271 37.20128 48.88573 37.22523 48.98679 37.26378 49.0498 37.28778 49.11281 37.31178 49.21385 37.35036 49.27687 37.3743 49.33989 37.39824 49.44095 37.43655 49.50395 37.46037 49.56697 37.48419 49.66803 37.52225 49.73105 37.546 49.79405 37.56976 49.89511 37.6079 49.95811 37.63165 50.02113 37.65541 50.1222 37.6936 50.18521 37.7173 50.24821 37.741 50.34927 37.77893 50.4123 37.8025 50.4753 37.82608 50.57635 37.86377 50.63936 37.88728 50.70238 37.91081 50.80344 37.94853 50.86646 37.97206 50.92946 37.99557 51.03053 38.03333 51.09354 38.05684 51.15656 38.08035 51.25761 38.11823 51.32062 38.14162 51.38364 38.16501 51.48468 38.2022 51.5477 38.22554 51.6107 38.24887 51.71178 38.28654 51.77478 38.30988 51.8378 38.3332 51.93886 38.37057 52.00188 38.39378 52.06488 38.417 52.16592 38.45406 52.22894 38.47726 52.29196 38.50047 52.39302 38.53802 52.45602 38.56117 52.51904 38.58434 52.6201 38.62114 52.68312 38.64423 52.74612 38.66731 52.84718 38.70467 52.91019 38.7277 52.9732 38.75073 53.07426 38.78734 53.13728 38.81032 53.20029 38.83331 53.30135 38.8704 53.36436 38.89337 53.42738 38.91634 53.52843 38.95305 53.59143 38.97598 53.65445 38.9989 53.75551 39.03574 53.81853 39.05861 53.88153 39.08147 53.9826 39.11792 54.04561 39.14078 54.10863 39.16365 54.20967 39.20065 54.27267 39.22339 54.3357 39.24614 54.43675 39.28203 54.49977 39.3047 54.56277 39.3274 54.66385 39.36421 54.72685 39.38689 54.78987 39.40958 54.89093 39.44559 54.95395 39.4682 55.01695 39.49083 55.118 39.52734 55.18102 39.54996 55.24403 39.57259 55.3451 39.60878 55.4081 39.63127 55.47112 39.65378 55.57217 39.68973 55.6352 39.71217 55.6982 39.7346 55.79926 39.7706 55.86226 39.79305 55.92528 39.81548 56.02634 39.85149 56.08936 39.87393 56.15236 39.89636 56.25342 39.93251 56.31644 39.95482 56.37946 39.97714 56.4805 40.01253 56.5435 40.03484 56.60652 40.05716 56.70758 40.0934 56.7706 40.11572 56.8336 40.13803 56.93468 40.17355 56.99768 40.19574 57.0607 40.21794 57.16174 40.25363 57.22475 40.27576 57.28777 40.2979 57.38882 40.3332 57.45184 40.35535 57.51485 40.37749 57.61592 40.4133 57.67892 40.43536 57.74194 40.45744 57.843 40.49251 57.90602 40.51453 57.96902 40.53654 58.07007 40.5721 58.13309 40.59412 58.1961 40.61612 58.29716 40.65132 58.36017 40.67326 58.42319 40.69522 58.52425 40.73053 58.58727 40.75243 58.65027 40.7743 58.75133 40.80931 58.81433 40.83113 58.87735 40.85297 58.97841 40.88802 59.04143 40.90985 59.10443 40.9317 59.20549 40.96674 59.26851 40.98859 59.33153 41.01044 59.43257 41.04553 59.49557 41.0673 59.5586 41.08907 59.65965 41.12393 59.72267 41.14558 59.78568 41.16725 59.88675 41.2018 59.94975 41.22345 60.01277 41.24512 60.11382 41.28015 60.17682 41.30174 60.23984 41.32335 60.3409 41.35764 60.40392 41.37917 60.46692 41.40071 60.568 41.43547 60.631 41.45702 60.69402 41.47856 60.79507 41.51295 60.8581 41.53444 60.9211 41.55592 61.02214 41.5904 61.08516 41.61186 61.14818 41.63335 61.24924 41.66788 61.31224 41.68929 61.37526 41.71071 61.47632 41.74487 61.53934 41.76628 61.60234 41.7877 61.7034 41.82236 61.7664 41.8437 61.82942 41.86507 61.93048 41.89903 61.9935 41.92027 62.0565 41.94151 62.15756 41.97559 62.22058 41.99683 62.2836 42.01807 62.38464 42.05214 62.44765 42.07338 62.51067 42.09462 62.61172 42.12877 62.67474 42.14993 62.73775 42.17111 62.83882 42.2049 62.90182 42.22607 62.96484 42.24725 63.06589 42.28151 63.12889 42.30263 63.19191 42.32375 63.29297 42.35735 63.35599 42.37834 63.41899 42.39932 63.52007 42.43303 63.58307 42.45403 63.64609 42.47502 63.74713 42.50873 63.81015 42.52971 63.87315 42.5507 63.97421 42.58441 64.03723 42.60541 64.10025 42.6264 64.20131 42.66011 64.26431 42.68109 64.32733 42.70209 64.42839 42.73593 64.49141 42.7568 64.55441 42.77768 64.65547 42.81088 64.71848 42.83163 64.7815 42.85237 64.88255 42.88564 64.94557 42.90645 65.00858 42.92726 65.10963 42.9609 65.17265 42.98172 65.23567 43.00253 65.33672 43.03586 65.39972 43.05653 65.46274 43.07722 65.5638 43.11023 65.62682 43.13094 65.68982 43.15164 65.7909 43.18509 65.8539 43.20578 65.91692 43.22647 66.01796 43.25954 66.08096 43.28017 66.14398 43.3008 66.24504 43.33397 66.30806 43.35455 66.37106 43.37514 66.47214 43.408 66.53514 43.42853 66.59816 43.44905 66.6992 43.4819 66.76222 43.50249 66.82523 43.52307 66.92628 43.55637 66.9893 43.57689 67.05232 43.59741 67.15338 43.63002 67.21638 43.65042 67.2794 43.67082 67.38046 43.70355 67.44348 43.72395 67.50648 43.74435 67.60754 43.77708 67.67055 43.79749 67.73357 43.81789 67.83463 43.85062 67.89764 43.87102 67.96065 43.89142 68.0617 43.92421 68.12473 43.94455 68.18774 43.96489 68.28879 43.99736 68.35179 44.01764 68.41481 44.03792 68.51587 44.07053 68.57889 44.09074 68.64189 44.11096 68.74297 44.14319 68.80597 44.1634 68.86899 44.18362 68.97003 44.21634 69.03304 44.2365 69.09605 44.25667 69.19711 44.28865 69.26013 44.30875 69.32314 44.32884 69.42421 44.36125 69.48721 44.38141 69.55023 44.40157 69.65128 44.43391 69.7143 44.45407 69.7773 44.47423 69.87836 44.5067 69.94138 44.52673 70.0044 44.54677 70.10545 44.57857 70.16846 44.59854 70.23148 44.61852 70.33253 44.65074 70.39555 44.67078 70.45856 44.69081 70.55962 44.7231 70.62262 44.74301 70.68564 44.76294 70.7867 44.79453 70.84972 44.81438 70.91272 44.83423 71.01378 44.86627 71.0768 44.88618 71.13982 44.9061 71.24086 44.93814 71.30386 44.958 71.36688 44.97784 71.46794 45.00955 71.53096 45.02934 71.59396 45.04913 71.69504 45.08087 71.75804 45.10072 71.82106 45.12057 71.9221 45.15273 71.9851 45.17252 72.04813 45.1923 72.14919 45.22372 72.2122 45.24345 72.2752 45.26318 72.37628 45.29515 72.43929 45.31482 72.5023 45.3345 72.60335 45.36572 72.66637 45.38533 72.72937 45.40494 72.83043 45.4366 72.89345 45.45627 72.95647 45.47594 73.05753 45.50758 73.12053 45.52719 73.18355 45.54681 73.28459 45.57814 73.34761 45.5977 73.41061 45.61726 73.51169 45.64865 73.57469 45.66821 73.63771 45.68777 73.73877 45.71921 73.80179 45.73872 73.86479 45.75822 73.96585 45.78928 74.02887 45.80878 74.09189 45.8283 74.19293 45.85979 74.25594 45.87929 74.31895 45.89879 74.42001 45.92992 74.48303 45.94936 74.54604 45.9688 74.64711 46 74.71011 46.01944 74.77313 46.03888 74.87418 46.07011 74.93718 46.08951 75.0002 46.10889 75.10126 46.13988 75.16428 46.15915 75.22728 46.1784 75.32835 46.20901 75.39136 46.22835 75.45438 46.24767 75.55542 46.2791 75.61844 46.29842 75.68144 46.31775 75.7825 46.34836 75.84552 46.36763 75.90854 46.38689 76.0096 46.418 76.0726 46.43726 76.13562 46.45653 76.23666 46.48726 76.29968 46.50647 76.36269 46.52567 76.46376 46.55653 76.52676 46.57568 76.58978 46.59482 76.69084 46.6253 76.75386 46.64445 76.81686 46.66359 76.91792 46.6945 76.98094 46.71365 77.04396 46.73279 77.145 46.76335 77.20801 46.78242 77.27103 46.8015 77.37209 46.83218 77.4351 46.8512 77.49811 46.87021 77.59918 46.90053 77.66219 46.91954 77.7252 46.93857 77.82625 46.9693 77.88925 46.98833 77.95227 47.00734 78.05333 47.03769 78.11635 47.05666 78.17935 47.0756 78.28043 47.10605 78.34343 47.125 78.40645 47.14395 78.50749 47.17438 78.57051 47.19333 78.63351 47.2123 78.73457 47.24278 78.79759 47.26169 78.86061 47.28058 78.96167 47.31076 79.02467 47.32959 79.08769 47.34842 79.18874 47.37866 79.25175 47.39749 79.31476 47.41634 79.41583 47.44662 79.47884 47.46541 79.54185 47.48418 79.64291 47.51411 79.70593 47.53288 79.76894 47.55167 79.87 47.58202 79.93301 47.6008 79.99603 47.61957 80.09708 47.64957 80.16008 47.66827 80.2231 47.68698 80.32416 47.71703 80.38718 47.73573 80.45018 47.75446 80.55125 47.78456 80.61426 47.80322 80.67728 47.82187 80.77832 47.85161 80.84132 47.87027 80.90434 47.88892 81.0054 47.9191 81.06842 47.93774 81.13142 47.95639 81.2325 47.98619 81.2955 48.00479 81.35852 48.02338 81.45956 48.0533 81.52258 48.07182 81.58559 48.09036 81.68665 48.1199 81.74966 48.13844 81.81268 48.15697 81.91374 48.18695 81.97675 48.20547 82.03976 48.22401 82.14081 48.25363 82.20383 48.2721 82.26683 48.29057 82.3679 48.32022 82.43091 48.3387 82.49393 48.35716 82.59499 48.38684 82.658 48.4053 82.72101 48.42378 82.82205 48.45352 82.88507 48.47192 82.94809 48.49034 83.04915 48.51974 83.11215 48.5381 83.17517 48.55644 83.27623 48.5859 83.33925 48.60428 83.40225 48.62263 83.50333 48.6521 83.56633 48.67047 83.62935 48.68883 83.7304 48.71829 83.79341 48.73663 83.85641 48.75499 83.95747 48.78452 84.0205 48.80281 84.0835 48.82112 84.18457 48.85031 84.24757 48.86856 84.3106 48.88681 84.41164 48.91606 84.47466 48.93431 84.53766 48.95255 84.63872 48.98181 84.70174 49.00006 84.76476 49.0183 84.86581 49.0476 84.92882 49.0658 84.99184 49.08397 85.09288 49.11293 85.1559 49.13112 85.2189 49.14929 85.31998 49.17868 85.38298 49.19687 85.446 49.21504 85.54706 49.24405 85.61008 49.26218 85.67308 49.28029 85.77412 49.30936 85.83714 49.32748 85.90016 49.3456 86.00122 49.37474 86.06422 49.3928 86.12724 49.41086 86.2283 49.43968 86.29132 49.45769 86.35432 49.47568 86.4554 49.50455 86.5184 49.52255 86.58142 49.54054 86.68246 49.56937 86.74548 49.58743 86.80849 49.6055 86.90955 49.63469 86.97256 49.65276 87.03557 49.67082 87.13664 49.69969 87.19965 49.71764 87.26266 49.73558 87.36371 49.7642 87.42673 49.78207 87.48973 49.79996 87.59079 49.82866 87.65381 49.84653 87.71683 49.86441 87.81789 49.89304 87.88089 49.91098 87.94391 49.92891 88.04495 49.95798 88.10797 49.97586 88.17097 49.99373 88.27205 50.02206 88.33505 50.03987 88.39807 50.0577 88.49913 50.0865 88.56215 50.10431 88.62515 50.12213 88.7262 50.15057 88.78922 50.16833 88.85223 50.18608 88.9533 50.21458 89.0163 50.23235 89.07932 50.2501 89.18037 50.27855 89.2434 50.29636 89.3064 50.31418 89.40746 50.34306 89.47046 50.36082 89.53348 50.37857 89.63454 50.4067 89.69756 50.4244 89.76056 50.4421 89.86162 50.47072 89.92464 50.4884 89.98764 50.5061 90.08871 50.53436 90.15172 50.552 90.21474 50.56963 90.31578 50.59795 90.3788 50.61559 90.4418 50.63322 90.54286 50.66159 90.60588 50.67917 90.6689 50.69673 90.76996 50.72473 90.83296 50.74231 90.89598 50.75989 90.99702 50.78833 91.06004 50.80591 91.12305 50.82347 91.22412 50.85153 91.28712 50.86905 91.35014 50.88657 91.4512 50.91463 91.51422 50.9322 91.57722 50.94977 91.67827 50.97821 91.74129 50.99579 91.8043 51.01337 91.90536 51.04149 91.96837 51.05894 92.03139 51.07639 92.13245 51.10419 92.19547 51.12164 92.25847 51.1391 92.35953 51.16734 92.42253 51.1848 92.48555 51.20224 92.58661 51.23013 92.64963 51.24751 92.71263 51.26491 92.81369 51.29285 92.87671 51.31024 92.93971 51.32764 93.04079 51.35556 93.10379 51.37296 93.16681 51.39034 93.26785 51.41829 93.33087 51.43567 93.39388 51.45306 93.49493 51.48106 93.55795 51.4984 93.62097 51.51573 93.72203 51.54341 93.78503 51.56068 93.84805 51.57794 93.9491 51.6057 94.01212 51.62296 94.07512 51.64023 94.1762 51.66797 94.2392 51.68524 94.30222 51.70251 94.40327 51.73024 94.4663 51.74753 94.5293 51.76482 94.63034 51.7926 94.69336 51.80983 94.75638 51.82704 94.85744 51.85452 94.92044 51.87167 94.98346 51.88881 95.08452 51.9163 95.14754 51.93352 95.21054 51.95074 95.3116 51.97858 95.3746 51.9958 95.43762 52.01303 95.53868 52.04056 95.6017 52.05766 95.6647 52.07477 95.76576 52.10197 95.82878 52.11908 95.89178 52.13618 95.99286 52.16377 96.05586 52.18094 96.11888 52.1981 96.21992 52.2257 96.28294 52.2428 96.34595 52.25989 96.447 52.28711 96.51003 52.30421 96.57304 52.3213 96.6741 52.34903 96.7371 52.36606 96.80013 52.3831 96.90117 52.41008 96.96419 52.42705 97.02719 52.44403 97.12827 52.47144 97.19127 52.48846 97.25429 52.50551 97.35535 52.53285 97.41837 52.54988 97.48137 52.56693 97.58241 52.5944 97.64543 52.61131 97.70845 52.62823 97.80951 52.65495 97.87251 52.67188 97.93553 52.68878 98.03659 52.71631 98.09961 52.73328 98.16261 52.75026 98.26367 52.77736 98.32668 52.79428 98.3897 52.81119 98.49075 52.83835 98.55377 52.85527 98.61678 52.87218 98.71783 52.8994 98.78085 52.91626 98.84386 52.93312 98.94492 52.96 99.00792 52.9768 99.07094 52.9936 99.172 53.02055 99.23502 53.03735 99.29802 53.05415 99.39908 53.08105 99.4621 53.09792 99.52512 53.11478 99.62617 53.1421 99.68918 53.1589 99.7522 53.1757 99.85324 53.2023 99.91626 53.21904 99.97926 53.23576 100.08034 53.26279 100.14334 53.27959 100.20636 53.29639 100.30742 53.3234 100.37044 53.34013 100.43344 53.35687 100.53448 53.38351 100.5975 53.40025 100.66052 53.41699 100.76158 53.44408 100.82458 53.46082 100.8876 53.47755 100.98866 53.50433 101.05168 53.52095 101.11469 53.53757 101.21574 53.56401 101.27875 53.58063 101.34177 53.59724 101.44283 53.62407 101.50584 53.64075 101.56885 53.65742 101.6699 53.6842 101.73293 53.70088 101.79593 53.71754 101.89699 53.74438 101.95999 53.761 102.02301 53.77762 102.12407 53.80412 102.18709 53.82068 102.25009 53.83723 102.35115 53.86383 102.41417 53.88039 102.47719 53.89694 102.57825 53.92351 102.64125 53.94006 102.70427 53.95662 102.80531 53.9832 102.86833 53.99976 102.93134 54.01631 103.03241 54.04295 103.09541 54.05945 103.15843 54.07594 103.25949 54.10226 103.32251 54.1187 103.38551 54.13513 103.48656 54.16147 103.54958 54.17796 103.6126 54.19446 103.71365 54.22116 103.77666 54.23766 103.83968 54.25415 103.94073 54.28049 104.00375 54.29692 104.06676 54.31335 104.16782 54.33974 104.23082 54.35617 104.29384 54.3726 104.3949 54.399 104.45792 54.41544 104.52092 54.43185 104.62198 54.45831 104.685 54.47469 104.748 54.49106 104.84906 54.5172 104.91206 54.53351 104.97508 54.54982 105.07614 54.57596 105.13916 54.59233 105.20216 54.6087 105.30322 54.63528 105.36624 54.6516 105.42926 54.66791 105.53032 54.69366 105.59332 54.70998 105.65634 54.72629 105.75739 54.75293 105.8204 54.76924 105.8834 54.78555 105.98448 54.81139 106.04749 54.82764 106.1105 54.84389 106.21156 54.87015 106.27458 54.88646 106.33759 54.90277 106.43863 54.92905 106.50165 54.9453 106.56467 54.96155 106.66573 54.98749 106.72873 55.00368 106.79175 55.01987 106.8928 55.04588 106.95583 55.06207 107.01883 55.07826 107.11989 55.10428 107.18289 55.12047 107.24591 55.13666 107.34697 55.16267 107.40999 55.17886 107.47299 55.19505 107.57405 55.22105 107.63707 55.23724 107.70007 55.25343 107.80113 55.27951 107.86414 55.29564 107.92715 55.31177 108.02821 55.33752 108.09123 55.3536 108.15424 55.36969 108.2553 55.39543 108.31831 55.41158 108.38133 55.4277 108.48238 55.45383 108.54538 55.46996 108.6084 55.48608 108.70946 55.51184 108.77248 55.52791 108.83548 55.54398 108.93655 55.5698 108.99956 55.58588 109.06258 55.60196 109.16364 55.62782 109.22665 55.64384 109.28966 55.65987 109.3907 55.68533 109.45372 55.70137 109.51674 55.71739 109.6178 55.7433 109.6808 55.75932 109.74382 55.77534 109.84488 55.80089 109.9079 55.81685 109.9709 55.83281 110.07196 55.85841 110.13496 55.87437 110.19798 55.89034 110.29904 55.91594 110.36206 55.9319 110.42506 55.94786 110.52612 55.97346 110.58914 55.98943 110.65215 56.00539 110.7532 56.031 110.81621 56.04697 110.87923 56.06293 110.98029 56.08853 111.0433 56.10449 111.10631 56.12045 111.20737 56.14612 111.27039 56.16202 111.3334 56.17792 111.43445 56.20328 111.49745 56.21912 111.56047 56.23495 111.66153 56.26038 111.72455 56.27621 111.78755 56.29205 111.88863 56.31746 111.95163 56.3333 112.01465 56.34914 112.1157 56.37456 112.17873 56.3904 112.24173 56.40623 112.34277 56.43166 112.40579 56.4475 112.46881 56.46333 112.56987 56.48875 112.63287 56.5046 112.69589 56.52043 112.79695 56.5459 112.85997 56.56168 112.92297 56.57745 113.02403 56.60263 113.08704 56.61835 113.15005 56.63406 113.31413 56.675 113.31413 56.675"/>
<path transform="matrix(1.00008,0,0,-1.00005,4.8391039,74.43107)" stroke-width=".79701" stroke-linecap="butt" stroke-miterlimit="10" stroke-linejoin="miter" fill="none" stroke="#0000ff" d="M0 0C0 0 .16405-2.03902 .22707-2.53682 .29007-3.03462 .39114-3.3302 .45415-3.58789 .51717-3.84558 .61823-4.188 .68124-4.39413 .74425-4.60028 .84529-4.89626 .90831-5.07365 .97133-5.25104 1.07239-5.5144 1.13539-5.67271 1.19841-5.83102 1.29947-6.07037 1.36249-6.21469 1.42549-6.35902 1.52655-6.57957 1.58955-6.71297 1.65257-6.84637 1.75363-7.05157 1.81665-7.17622 1.87965-7.30086 1.98071-7.49385 2.04373-7.61134 2.10675-7.72885 2.2078-7.91168 2.2708-8.02313 2.33382-8.13457 2.43488-8.30836 2.4979-8.41458 2.5609-8.5208 2.66197-8.68707 2.72498-8.78873 2.788-8.89038 2.88904-9.0496 2.95206-9.1473 3.01506-9.24498 3.11612-9.39876 3.17914-9.4929 3.24214-9.58705 3.34322-9.73503 3.40622-9.82594 3.46924-9.91685 3.5703-10.06017 3.63332-10.1482 3.69632-10.23624 3.79736-10.37505 3.86038-10.4605 3.9234-10.54594 4.02446-10.68114 4.08746-10.76411 4.15048-10.8471 4.25154-10.97792 4.31456-11.05869 4.37756-11.13945 4.47862-11.26753 4.54163-11.34633 4.60464-11.42511 4.7057-11.54979 4.76872-11.6266 4.83173-11.70341 4.93279-11.82489 4.9958-11.89996 5.05882-11.97504 5.15987-12.09425 5.22287-12.16771 5.28589-12.24117 5.38695-12.35757 5.44997-12.4294 5.51297-12.50124 5.61404-12.61508 5.67705-12.68547 5.74007-12.75584 5.84111-12.8677 5.90413-12.93677 5.96713-13.00583 6.06819-13.11555 6.13121-13.18332 6.19421-13.25107 6.29529-13.35855 6.35829-13.42511 6.42131-13.49165 6.52237-13.5976 6.58539-13.663 6.64839-13.7284 6.74944-13.83229 6.81245-13.89656 6.87547-13.96083 6.97653-14.063 7.03954-14.12625 7.10255-14.18948 7.20361-14.2903 7.26663-14.35245 7.32964-14.41461 7.4307-14.51309 7.4937-14.57436 7.55672-14.63562 7.65778-14.73372 7.7208-14.79408 7.7838-14.85445 7.88486-14.95007 7.94788-15.00948 8.0109-15.0689 8.11194-15.16362 8.17494-15.22229 8.23796-15.28098 8.33902-15.3746 8.40204-15.43251 8.46504-15.49042 8.56612-15.58257 8.62912-15.6397 8.69214-15.69682 8.79318-15.78795 8.8562-15.84428 8.9192-15.90062 9.02026-15.99016 9.08328-16.04585 9.14629-16.10153 9.24736-16.19064 9.31036-16.24568 9.37338-16.3007 9.47443-16.38818 9.53745-16.44249 9.60045-16.49678 9.7015-16.58342 9.76453-16.63713 9.82755-16.69084 9.9286-16.77657 9.99161-16.8296 10.05463-16.88264 10.15569-16.96704 10.2187-17.01949 10.28171-17.07193 10.38277-17.15575 10.44577-17.20764 10.50879-17.25954 10.60985-17.34233 10.67287-17.39365 10.73587-17.44495 10.83693-17.52664 10.89995-17.57747 10.96297-17.62828 11.06401-17.7097 11.12701-17.76 11.19003-17.81029 11.29109-17.89018 11.35411-17.93993 11.41711-17.98967 11.51819-18.06923 11.58119-18.11856 11.64421-18.1679 11.74525-18.24664 11.80827-18.29549 11.87128-18.34433 11.97234-18.4223 12.03535-18.47066 12.09836-18.51901 12.19943-18.59622 12.26244-18.6441 12.32545-18.692 12.4265-18.76836 12.48952-18.81581 12.55252-18.86328 12.65358-18.9392 12.7166-18.98625 12.77962-19.0333 12.88068-19.10837 12.94368-19.15492 13.0067-19.20149 13.10776-19.2757 13.17078-19.32188 13.23378-19.36809 13.33484-19.44214 13.39784-19.48799 13.46086-19.53383 13.56192-19.60693 13.62494-19.65234 13.68794-19.69777 13.789-19.77037 13.85202-19.81541 13.91504-19.86047 14.01608-19.93248 14.07909-19.97719 14.1421-20.0219 14.24316-20.09325 14.30618-20.13766 14.36919-20.18207 14.47026-20.25328 14.53326-20.29726 14.59628-20.34125 14.69733-20.41109 14.76035-20.45471 14.82335-20.49834 14.92441-20.56839 14.98743-20.61171 15.05043-20.65504 15.1515-20.72398 15.21451-20.767 15.27753-20.81003 15.37857-20.87914 15.44159-20.92184 15.5046-20.96457 15.60565-21.03265 15.66867-21.07497 15.73169-21.11728 15.83275-21.18472 15.89575-21.22679 15.95877-21.26886 16.05983-21.33635 16.12285-21.37817 16.18585-21.41998 16.28691-21.48674 16.34991-21.52826 16.41293-21.56978 16.51399-21.63634 16.57701-21.67749 16.64001-21.71866 16.74107-21.78412 16.8041-21.82498 16.86711-21.86584 16.96815-21.93137 17.03116-21.97205 17.09418-22.01273 17.19524-22.07787 17.25826-22.11824 17.32126-22.15863 17.42233-22.22307 17.48534-22.26315 17.54836-22.30324 17.6494-22.36732 17.71242-22.40718 17.77542-22.44702 17.87648-22.51074 17.9395-22.55035 18.0025-22.58995 18.10358-22.65329 18.16658-22.69266 18.2296-22.73201 18.33064-22.79498 18.39366-22.83409 18.45667-22.87321 18.55772-22.93578 18.62074-22.97467 18.68376-23.01355 18.78482-23.07574 18.84782-23.1144 18.91084-23.15303 19.01189-23.21489 19.0749-23.25323 19.13791-23.29156 19.23898-23.35262 19.30199-23.39078 19.365-23.42892 19.46606-23.49034 19.52908-23.52832 19.59209-23.5663 19.69315-23.62683 19.75616-23.66458 19.81918-23.70233 19.92023-23.76283 19.98323-23.8004 20.04625-23.83795 20.14731-23.89803 20.21033-23.93533 20.27333-23.97266 20.3744-24.03235 20.43741-24.06943 20.50043-24.1065 20.60147-24.16582 20.66449-24.20265 20.7275-24.23949 20.82855-24.29836 20.89157-24.335 20.95457-24.37166 21.05565-24.43037 21.11865-24.46692 21.18167-24.50346 21.28271-24.56206 21.34573-24.59842 21.40874-24.63478 21.5098-24.693 21.57281-24.72905 21.63583-24.7651 21.7369-24.8225 21.7999-24.85837 21.86292-24.89426 21.96396-24.95193 22.02698-24.9877 22.08998-25.02345 22.19106-25.08058 22.25406-25.11617 22.31708-25.15176 22.41814-25.2088 22.48116-25.2442 22.54416-25.2796 22.64522-25.3362 22.70824-25.37137 22.77126-25.40652 22.8723-25.46262 22.9353-25.49767 22.99832-25.5327 23.09938-25.5891 23.1624-25.62396 23.2254-25.65881 23.32648-25.71436 23.38948-25.74896 23.4525-25.78358 23.55354-25.83904 23.61656-25.87355 23.67957-25.90805 23.78062-25.9633 23.84364-25.99768 23.90665-26.03207 24.00772-26.08717 24.07072-26.12138 24.13374-26.1556 24.23479-26.2102 24.2978-26.24423 24.36081-26.27826 24.46187-26.3328 24.52489-26.36664 24.5879-26.40048 24.68896-26.45445 24.75197-26.48817 24.81499-26.5219 24.91603-26.57619 24.97905-26.60971 25.04205-26.64325 25.14313-26.69661 25.20613-26.72997 25.26915-26.76332 25.37021-26.81693 25.43323-26.85022 25.49623-26.8835 25.59729-26.93689 25.66031-26.97002 25.72333-27.00314 25.82437-27.05603 25.88737-27.08897 25.9504-27.12192 26.05145-27.17467 26.11447-27.20749 26.17747-27.24031 26.27855-27.29288 26.34155-27.32558 26.40457-27.35828 26.50562-27.4107 26.56863-27.44322 26.63164-27.47574 26.7327-27.52762 26.79572-27.56001 26.85872-27.5924 26.9598-27.64452 27.0228-27.67679 27.08582-27.70906 27.18686-27.76062 27.24988-27.79272 27.31288-27.82483 27.41394-27.87614 27.47696-27.90819 27.53998-27.94025 27.64104-27.99176 27.70404-28.02368 27.76706-28.0556 27.8681-28.10663 27.93112-28.1383 27.99413-28.16998 28.0952-28.2205 28.1582-28.25206 28.22122-28.28363 28.32228-28.33432 28.3853-28.36581 28.4483-28.39732 28.54935-28.44777 28.61237-28.47916 28.67538-28.51053 28.77644-28.56085 28.83945-28.59204 28.90247-28.62323 29.00352-28.67297 29.06654-28.70407 29.12955-28.73515 29.23062-28.78508 29.29362-28.8161 29.35664-28.84712 29.45769-28.89679 29.5207-28.9277 29.58371-28.9586 29.68477-29.00813 29.74779-29.03886 29.81079-29.06958 29.91187-29.11855 29.97487-29.14915 30.03789-29.17975 30.13893-29.22891 30.20195-29.25946 30.26495-29.29 30.36603-29.3389 30.42903-29.36932 30.49205-29.39973 30.59311-29.44844 30.65611-29.47874 30.71913-29.50903 30.82018-29.55757 30.8832-29.58774 30.9462-29.61792 31.04727-29.66626 31.11028-29.69632 31.1733-29.72636 31.27435-29.7745 31.33737-29.80444 31.40038-29.83438 31.50142-29.88232 31.56444-29.91216 31.62746-29.94197 31.72852-29.98965 31.79152-30.01941 31.85454-30.04918 31.9556-30.09705 32.01862-30.1267 32.08162-30.15634 32.1827-30.20357 32.2457-30.2331 32.30872-30.26262 32.40976-30.31003 32.47278-30.3395 32.53578-30.36896 32.63684-30.41612 32.69986-30.44547 32.76286-30.47481 32.86394-30.52179 32.92694-30.55101 32.98996-30.58023 33.091-30.62697 33.15402-30.65611 33.21703-30.68527 33.3181-30.7322 33.3811-30.76123 33.44412-30.79027 33.54518-30.83661 33.60818-30.86546 33.6712-30.89432 33.77225-30.94048 33.83527-30.96927 33.89827-30.99806 33.99934-31.04434 34.06235-31.07307 34.12537-31.1018 34.22643-31.14777 34.28944-31.17645 34.35245-31.20514 34.45349-31.25128 34.51651-31.27985 34.57953-31.30841 34.68059-31.35391 34.74359-31.38235 34.80661-31.4108 34.90767-31.45647 34.97069-31.48485 35.03369-31.51324 35.13477-31.55867 35.19777-31.58693 35.26079-31.6152 35.36183-31.66037 35.42485-31.68858 35.48785-31.71678 35.58891-31.7621 35.65193-31.79024 35.71494-31.81837 35.81601-31.8635 35.87901-31.89145 35.94203-31.9194 36.04308-31.96396 36.1061-31.99179 36.1691-32.01964 36.27017-32.06432 36.33318-32.09215 36.3962-32.11998 36.49725-32.16472 36.56026-32.19249 36.62328-32.22026 36.72432-32.26474 36.78734-32.2924 36.85034-32.32005 36.95142-32.36435 37.01442-32.39189 37.07744-32.41945 37.1785-32.46346 37.24152-32.49094 37.30452-32.51842 37.40556-32.56264 37.46858-32.59 37.5316-32.61736 37.63266-32.66087 37.69566-32.68819 37.75868-32.71548 37.85974-32.75949 37.92276-32.7868 37.98576-32.8141 38.08682-32.8578 38.14983-32.885 38.21284-32.91217 38.3139-32.95567 38.37692-32.98274 38.43993-33.0098 38.54099-33.05305 38.604-33.08006 38.667-33.10706 38.76808-33.15051 38.83109-33.17738 38.8941-33.20425 38.99515-33.24702 39.05817-33.27383 39.12117-33.30066 39.22224-33.3439 39.28525-33.37073 39.34827-33.39754 39.44933-33.44055 39.51233-33.46718 39.57535-33.4938 39.67639-33.5362 39.73941-33.56277 39.80241-33.58934 39.90349-33.63223 39.96649-33.6588 40.02951-33.68538 40.13057-33.72794 40.19359-33.7544 40.25659-33.78084 40.35764-33.82321 40.42065-33.84953 40.48367-33.87587 40.58473-33.91798 40.64774-33.94426 40.71075-33.97055 40.81181-34.01271 40.87483-34.039 40.93784-34.06529 41.0389-34.10756 41.1019-34.13373 41.16492-34.15988 41.26598-34.20148 41.329-34.22758 41.392-34.25368 41.49306-34.29584 41.55608-34.32188 41.61908-34.34792 41.72015-34.38937 41.78316-34.4153 41.84618-34.44121 41.94722-34.48286 42.01024-34.50873 42.07324-34.53459 42.17432-34.57593 42.23732-34.60173 42.30034-34.62753 42.4014-34.66899 42.4644-34.69472 42.52742-34.72046 42.62846-34.76167 42.69148-34.7873 42.75449-34.8129 42.85556-34.85385 42.91856-34.87941 42.98158-34.90497 43.08264-34.946 43.14566-34.97156 43.20866-34.9971 43.30971-35.03818 43.37273-35.06367 43.43575-35.08917 43.5368-35.12994 43.59981-35.15538 43.66283-35.1808 43.76389-35.22176 43.8269-35.24707 43.88991-35.27238 43.99097-35.31264 44.05397-35.3379 44.11699-35.36317 44.21805-35.40398 44.28107-35.42917 44.34407-35.45438 44.44513-35.49442 44.50815-35.51956 44.57115-35.54471 44.67221-35.58531 44.73521-35.6104 44.79823-35.63548 44.89929-35.67535 44.96231-35.70038 45.02531-35.7254 45.12639-35.76581 45.18939-35.79077 45.25241-35.81573 45.35347-35.85547 45.41647-35.88031 45.47949-35.90515 45.58054-35.945 45.64355-35.96985 45.70656-35.99469 45.80763-36.03459 45.87064-36.05937 45.93365-36.08415 46.03471-36.12376 46.09773-36.14848 46.16074-36.1732 46.26178-36.21294 46.3248-36.23758 46.38782-36.26224 46.48888-36.30173 46.55188-36.32626 46.6149-36.3508 46.71596-36.38995 46.77898-36.41449 46.84198-36.43903 46.94304-36.47868 47.00604-36.50316 47.06906-36.52763 47.17012-36.56662 47.23314-36.59097 47.29614-36.61533 47.3972-36.65442 47.46022-36.67877 47.52322-36.70313 47.62428-36.7423 47.68729-36.76659 47.7503-36.79088 47.85136-36.82977 47.91438-36.85396 47.97739-36.87813 48.07846-36.91676 48.14146-36.94089 48.20448-36.96501 48.30554-37.00365 48.36855-37.02783 48.43156-37.05202 48.53261-37.09114 48.59563-37.11522 48.65863-37.13928 48.7597-37.17734 48.82271-37.20128 48.88573-37.22523 48.98679-37.26378 49.0498-37.28778 49.11281-37.31178 49.21385-37.35036 49.27687-37.3743 49.33989-37.39824 49.44095-37.43655 49.50395-37.46037 49.56697-37.48419 49.66803-37.52225 49.73105-37.546 49.79405-37.56976 49.89511-37.6079 49.95811-37.63165 50.02113-37.65541 50.1222-37.6936 50.18521-37.7173 50.24821-37.741 50.34927-37.77893 50.4123-37.8025 50.4753-37.82608 50.57635-37.86377 50.63936-37.88728 50.70238-37.91081 50.80344-37.94853 50.86646-37.97206 50.92946-37.99557 51.03053-38.03333 51.09354-38.05684 51.15656-38.08035 51.25761-38.11823 51.32062-38.14162 51.38364-38.16501 51.48468-38.2022 51.5477-38.22554 51.6107-38.24887 51.71178-38.28654 51.77478-38.30988 51.8378-38.3332 51.93886-38.37057 52.00188-38.39378 52.06488-38.417 52.16592-38.45406 52.22894-38.47726 52.29196-38.50047 52.39302-38.53802 52.45602-38.56117 52.51904-38.58434 52.6201-38.62114 52.68312-38.64423 52.74612-38.66731 52.84718-38.70467 52.91019-38.7277 52.9732-38.75073 53.07426-38.78734 53.13728-38.81032 53.20029-38.83331 53.30135-38.8704 53.36436-38.89337 53.42738-38.91634 53.52843-38.95305 53.59143-38.97598 53.65445-38.9989 53.75551-39.03574 53.81853-39.05861 53.88153-39.08147 53.9826-39.11792 54.04561-39.14078 54.10863-39.16365 54.20967-39.20065 54.27267-39.22339 54.3357-39.24614 54.43675-39.28203 54.49977-39.3047 54.56277-39.3274 54.66385-39.36421 54.72685-39.38689 54.78987-39.40958 54.89093-39.44559 54.95395-39.4682 55.01695-39.49083 55.118-39.52734 55.18102-39.54996 55.24403-39.57259 55.3451-39.60878 55.4081-39.63127 55.47112-39.65378 55.57217-39.68973 55.6352-39.71217 55.6982-39.7346 55.79926-39.7706 55.86226-39.79305 55.92528-39.81548 56.02634-39.85149 56.08936-39.87393 56.15236-39.89636 56.25342-39.93251 56.31644-39.95482 56.37946-39.97714 56.4805-40.01253 56.5435-40.03484 56.60652-40.05716 56.70758-40.0934 56.7706-40.11572 56.8336-40.13803 56.93468-40.17355 56.99768-40.19574 57.0607-40.21794 57.16174-40.25363 57.22475-40.27576 57.28777-40.2979 57.38882-40.3332 57.45184-40.35535 57.51485-40.37749 57.61592-40.4133 57.67892-40.43536 57.74194-40.45744 57.843-40.49251 57.90602-40.51453 57.96902-40.53654 58.07007-40.5721 58.13309-40.59412 58.1961-40.61612 58.29716-40.65132 58.36017-40.67326 58.42319-40.69522 58.52425-40.73053 58.58727-40.75243 58.65027-40.7743 58.75133-40.80931 58.81433-40.83113 58.87735-40.85297 58.97841-40.88802 59.04143-40.90985 59.10443-40.9317 59.20549-40.96674 59.26851-40.98859 59.33153-41.01044 59.43257-41.04553 59.49557-41.0673 59.5586-41.08907 59.65965-41.12393 59.72267-41.14558 59.78568-41.16725 59.88675-41.2018 59.94975-41.22345 60.01277-41.24512 60.11382-41.28015 60.17682-41.30174 60.23984-41.32335 60.3409-41.35764 60.40392-41.37917 60.46692-41.40071 60.568-41.43547 60.631-41.45702 60.69402-41.47856 60.79507-41.51295 60.8581-41.53444 60.9211-41.55592 61.02214-41.5904 61.08516-41.61186 61.14818-41.63335 61.24924-41.66788 61.31224-41.68929 61.37526-41.71071 61.47632-41.74487 61.53934-41.76628 61.60234-41.7877 61.7034-41.82236 61.7664-41.8437 61.82942-41.86507 61.93048-41.89903 61.9935-41.92027 62.0565-41.94151 62.15756-41.97559 62.22058-41.99683 62.2836-42.01807 62.38464-42.05214 62.44765-42.07338 62.51067-42.09462 62.61172-42.12877 62.67474-42.14993 62.73775-42.17111 62.83882-42.2049 62.90182-42.22607 62.96484-42.24725 63.06589-42.28151 63.12889-42.30263 63.19191-42.32375 63.29297-42.35735 63.35599-42.37834 63.41899-42.39932 63.52007-42.43303 63.58307-42.45403 63.64609-42.47502 63.74713-42.50873 63.81015-42.52971 63.87315-42.5507 63.97421-42.58441 64.03723-42.60541 64.10025-42.6264 64.20131-42.66011 64.26431-42.68109 64.32733-42.70209 64.42839-42.73593 64.49141-42.7568 64.55441-42.77768 64.65547-42.81088 64.71848-42.83163 64.7815-42.85237 64.88255-42.88564 64.94557-42.90645 65.00858-42.92726 65.10963-42.9609 65.17265-42.98172 65.23567-43.00253 65.33672-43.03586 65.39972-43.05653 65.46274-43.07722 65.5638-43.11023 65.62682-43.13094 65.68982-43.15164 65.7909-43.18509 65.8539-43.20578 65.91692-43.22647 66.01796-43.25954 66.08096-43.28017 66.14398-43.3008 66.24504-43.33397 66.30806-43.35455 66.37106-43.37514 66.47214-43.408 66.53514-43.42853 66.59816-43.44905 66.6992-43.4819 66.76222-43.50249 66.82523-43.52307 66.92628-43.55637 66.9893-43.57689 67.05232-43.59741 67.15338-43.63002 67.21638-43.65042 67.2794-43.67082 67.38046-43.70355 67.44348-43.72395 67.50648-43.74435 67.60754-43.77708 67.67055-43.79749 67.73357-43.81789 67.83463-43.85062 67.89764-43.87102 67.96065-43.89142 68.0617-43.92421 68.12473-43.94455 68.18774-43.96489 68.28879-43.99736 68.35179-44.01764 68.41481-44.03792 68.51587-44.07053 68.57889-44.09074 68.64189-44.11096 68.74297-44.14319 68.80597-44.1634 68.86899-44.18362 68.97003-44.21634 69.03304-44.2365 69.09605-44.25667 69.19711-44.28865 69.26013-44.30875 69.32314-44.32884 69.42421-44.36125 69.48721-44.38141 69.55023-44.40157 69.65128-44.43391 69.7143-44.45407 69.7773-44.47423 69.87836-44.5067 69.94138-44.52673 70.0044-44.54677 70.10545-44.57857 70.16846-44.59854 70.23148-44.61852 70.33253-44.65074 70.39555-44.67078 70.45856-44.69081 70.55962-44.7231 70.62262-44.74301 70.68564-44.76294 70.7867-44.79453 70.84972-44.81438 70.91272-44.83423 71.01378-44.86627 71.0768-44.88618 71.13982-44.9061 71.24086-44.93814 71.30386-44.958 71.36688-44.97784 71.46794-45.00955 71.53096-45.02934 71.59396-45.04913 71.69504-45.08087 71.75804-45.10072 71.82106-45.12057 71.9221-45.15273 71.9851-45.17252 72.04813-45.1923 72.14919-45.22372 72.2122-45.24345 72.2752-45.26318 72.37628-45.29515 72.43929-45.31482 72.5023-45.3345 72.60335-45.36572 72.66637-45.38533 72.72937-45.40494 72.83043-45.4366 72.89345-45.45627 72.95647-45.47594 73.05753-45.50758 73.12053-45.52719 73.18355-45.54681 73.28459-45.57814 73.34761-45.5977 73.41061-45.61726 73.51169-45.64865 73.57469-45.66821 73.63771-45.68777 73.73877-45.71921 73.80179-45.73872 73.86479-45.75822 73.96585-45.78928 74.02887-45.80878 74.09189-45.8283 74.19293-45.85979 74.25594-45.87929 74.31895-45.89879 74.42001-45.92992 74.48303-45.94936 74.54604-45.9688 74.64711-46 74.71011-46.01944 74.77313-46.03888 74.87418-46.07011 74.93718-46.08951 75.0002-46.10889 75.10126-46.13988 75.16428-46.15915 75.22728-46.1784 75.32835-46.20901 75.39136-46.22835 75.45438-46.24767 75.55542-46.2791 75.61844-46.29842 75.68144-46.31775 75.7825-46.34836 75.84552-46.36763 75.90854-46.38689 76.0096-46.418 76.0726-46.43726 76.13562-46.45653 76.23666-46.48726 76.29968-46.50647 76.36269-46.52567 76.46376-46.55653 76.52676-46.57568 76.58978-46.59482 76.69084-46.6253 76.75386-46.64445 76.81686-46.66359 76.91792-46.6945 76.98094-46.71365 77.04396-46.73279 77.145-46.76335 77.20801-46.78242 77.27103-46.8015 77.37209-46.83218 77.4351-46.8512 77.49811-46.87021 77.59918-46.90053 77.66219-46.91954 77.7252-46.93857 77.82625-46.9693 77.88925-46.98833 77.95227-47.00734 78.05333-47.03769 78.11635-47.05666 78.17935-47.0756 78.28043-47.10605 78.34343-47.125 78.40645-47.14395 78.50749-47.17438 78.57051-47.19333 78.63351-47.2123 78.73457-47.24278 78.79759-47.26169 78.86061-47.28058 78.96167-47.31076 79.02467-47.32959 79.08769-47.34842 79.18874-47.37866 79.25175-47.39749 79.31476-47.41634 79.41583-47.44662 79.47884-47.46541 79.54185-47.48418 79.64291-47.51411 79.70593-47.53288 79.76894-47.55167 79.87-47.58202 79.93301-47.6008 79.99603-47.61957 80.09708-47.64957 80.16008-47.66827 80.2231-47.68698 80.32416-47.71703 80.38718-47.73573 80.45018-47.75446 80.55125-47.78456 80.61426-47.80322 80.67728-47.82187 80.77832-47.85161 80.84132-47.87027 80.90434-47.88892 81.0054-47.9191 81.06842-47.93774 81.13142-47.95639 81.2325-47.98619 81.2955-48.00479 81.35852-48.02338 81.45956-48.0533 81.52258-48.07182 81.58559-48.09036 81.68665-48.1199 81.74966-48.13844 81.81268-48.15697 81.91374-48.18695 81.97675-48.20547 82.03976-48.22401 82.14081-48.25363 82.20383-48.2721 82.26683-48.29057 82.3679-48.32022 82.43091-48.3387 82.49393-48.35716 82.59499-48.38684 82.658-48.4053 82.72101-48.42378 82.82205-48.45352 82.88507-48.47192 82.94809-48.49034 83.04915-48.51974 83.11215-48.5381 83.17517-48.55644 83.27623-48.5859 83.33925-48.60428 83.40225-48.62263 83.50333-48.6521 83.56633-48.67047 83.62935-48.68883 83.7304-48.71829 83.79341-48.73663 83.85641-48.75499 83.95747-48.78452 84.0205-48.80281 84.0835-48.82112 84.18457-48.85031 84.24757-48.86856 84.3106-48.88681 84.41164-48.91606 84.47466-48.93431 84.53766-48.95255 84.63872-48.98181 84.70174-49.00006 84.76476-49.0183 84.86581-49.0476 84.92882-49.0658 84.99184-49.08397 85.09288-49.11293 85.1559-49.13112 85.2189-49.14929 85.31998-49.17868 85.38298-49.19687 85.446-49.21504 85.54706-49.24405 85.61008-49.26218 85.67308-49.28029 85.77412-49.30936 85.83714-49.32748 85.90016-49.3456 86.00122-49.37474 86.06422-49.3928 86.12724-49.41086 86.2283-49.43968 86.29132-49.45769 86.35432-49.47568 86.4554-49.50455 86.5184-49.52255 86.58142-49.54054 86.68246-49.56937 86.74548-49.58743 86.80849-49.6055 86.90955-49.63469 86.97256-49.65276 87.03557-49.67082 87.13664-49.69969 87.19965-49.71764 87.26266-49.73558 87.36371-49.7642 87.42673-49.78207 87.48973-49.79996 87.59079-49.82866 87.65381-49.84653 87.71683-49.86441 87.81789-49.89304 87.88089-49.91098 87.94391-49.92891 88.04495-49.95798 88.10797-49.97586 88.17097-49.99373 88.27205-50.02206 88.33505-50.03987 88.39807-50.0577 88.49913-50.0865 88.56215-50.10431 88.62515-50.12213 88.7262-50.15057 88.78922-50.16833 88.85223-50.18608 88.9533-50.21458 89.0163-50.23235 89.07932-50.2501 89.18037-50.27855 89.2434-50.29636 89.3064-50.31418 89.40746-50.34306 89.47046-50.36082 89.53348-50.37857 89.63454-50.4067 89.69756-50.4244 89.76056-50.4421 89.86162-50.47072 89.92464-50.4884 89.98764-50.5061 90.08871-50.53436 90.15172-50.552 90.21474-50.56963 90.31578-50.59795 90.3788-50.61559 90.4418-50.63322 90.54286-50.66159 90.60588-50.67917 90.6689-50.69673 90.76996-50.72473 90.83296-50.74231 90.89598-50.75989 90.99702-50.78833 91.06004-50.80591 91.12305-50.82347 91.22412-50.85153 91.28712-50.86905 91.35014-50.88657 91.4512-50.91463 91.51422-50.9322 91.57722-50.94977 91.67827-50.97821 91.74129-50.99579 91.8043-51.01337 91.90536-51.04149 91.96837-51.05894 92.03139-51.07639 92.13245-51.10419 92.19547-51.12164 92.25847-51.1391 92.35953-51.16734 92.42253-51.1848 92.48555-51.20224 92.58661-51.23013 92.64963-51.24751 92.71263-51.26491 92.81369-51.29285 92.87671-51.31024 92.93971-51.32764 93.04079-51.35556 93.10379-51.37296 93.16681-51.39034 93.26785-51.41829 93.33087-51.43567 93.39388-51.45306 93.49493-51.48106 93.55795-51.4984 93.62097-51.51573 93.72203-51.54341 93.78503-51.56068 93.84805-51.57794 93.9491-51.6057 94.01212-51.62296 94.07512-51.64023 94.1762-51.66797 94.2392-51.68524 94.30222-51.70251 94.40327-51.73024 94.4663-51.74753 94.5293-51.76482 94.63034-51.7926 94.69336-51.80983 94.75638-51.82704 94.85744-51.85452 94.92044-51.87167 94.98346-51.88881 95.08452-51.9163 95.14754-51.93352 95.21054-51.95074 95.3116-51.97858 95.3746-51.9958 95.43762-52.01303 95.53868-52.04056 95.6017-52.05766 95.6647-52.07477 95.76576-52.10197 95.82878-52.11908 95.89178-52.13618 95.99286-52.16377 96.05586-52.18094 96.11888-52.1981 96.21992-52.2257 96.28294-52.2428 96.34595-52.25989 96.447-52.28711 96.51003-52.30421 96.57304-52.3213 96.6741-52.34903 96.7371-52.36606 96.80013-52.3831 96.90117-52.41008 96.96419-52.42705 97.02719-52.44403 97.12827-52.47144 97.19127-52.48846 97.25429-52.50551 97.35535-52.53285 97.41837-52.54988 97.48137-52.56693 97.58241-52.5944 97.64543-52.61131 97.70845-52.62823 97.80951-52.65495 97.87251-52.67188 97.93553-52.68878 98.03659-52.71631 98.09961-52.73328 98.16261-52.75026 98.26367-52.77736 98.32668-52.79428 98.3897-52.81119 98.49075-52.83835 98.55377-52.85527 98.61678-52.87218 98.71783-52.8994 98.78085-52.91626 98.84386-52.93312 98.94492-52.96 99.00792-52.9768 99.07094-52.9936 99.172-53.02055 99.23502-53.03735 99.29802-53.05415 99.39908-53.08105 99.4621-53.09792 99.52512-53.11478 99.62617-53.1421 99.68918-53.1589 99.7522-53.1757 99.85324-53.2023 99.91626-53.21904 99.97926-53.23576 100.08034-53.26279 100.14334-53.27959 100.20636-53.29639 100.30742-53.3234 100.37044-53.34013 100.43344-53.35687 100.53448-53.38351 100.5975-53.40025 100.66052-53.41699 100.76158-53.44408 100.82458-53.46082 100.8876-53.47755 100.98866-53.50433 101.05168-53.52095 101.11469-53.53757 101.21574-53.56401 101.27875-53.58063 101.34177-53.59724 101.44283-53.62407 101.50584-53.64075 101.56885-53.65742 101.6699-53.6842 101.73293-53.70088 101.79593-53.71754 101.89699-53.74438 101.95999-53.761 102.02301-53.77762 102.12407-53.80412 102.18709-53.82068 102.25009-53.83723 102.35115-53.86383 102.41417-53.88039 102.47719-53.89694 102.57825-53.92351 102.64125-53.94006 102.70427-53.95662 102.80531-53.9832 102.86833-53.99976 102.93134-54.01631 103.03241-54.04295 103.09541-54.05945 103.15843-54.07594 103.25949-54.10226 103.32251-54.1187 103.38551-54.13513 103.48656-54.16147 103.54958-54.17796 103.6126-54.19446 103.71365-54.22116 103.77666-54.23766 103.83968-54.25415 103.94073-54.28049 104.00375-54.29692 104.06676-54.31335 104.16782-54.33974 104.23082-54.35617 104.29384-54.3726 104.3949-54.399 104.45792-54.41544 104.52092-54.43185 104.62198-54.45831 104.685-54.47469 104.748-54.49106 104.84906-54.5172 104.91206-54.53351 104.97508-54.54982 105.07614-54.57596 105.13916-54.59233 105.20216-54.6087 105.30322-54.63528 105.36624-54.6516 105.42926-54.66791 105.53032-54.69366 105.59332-54.70998 105.65634-54.72629 105.75739-54.75293 105.8204-54.76924 105.8834-54.78555 105.98448-54.81139 106.04749-54.82764 106.1105-54.84389 106.21156-54.87015 106.27458-54.88646 106.33759-54.90277 106.43863-54.92905 106.50165-54.9453 106.56467-54.96155 106.66573-54.98749 106.72873-55.00368 106.79175-55.01987 106.8928-55.04588 106.95583-55.06207 107.01883-55.07826 107.11989-55.10428 107.18289-55.12047 107.24591-55.13666 107.34697-55.16267 107.40999-55.17886 107.47299-55.19505 107.57405-55.22105 107.63707-55.23724 107.70007-55.25343 107.80113-55.27951 107.86414-55.29564 107.92715-55.31177 108.02821-55.33752 108.09123-55.3536 108.15424-55.36969 108.2553-55.39543 108.31831-55.41158 108.38133-55.4277 108.48238-55.45383 108.54538-55.46996 108.6084-55.48608 108.70946-55.51184 108.77248-55.52791 108.83548-55.54398 108.93655-55.5698 108.99956-55.58588 109.06258-55.60196 109.16364-55.62782 109.22665-55.64384 109.28966-55.65987 109.3907-55.68533 109.45372-55.70137 109.51674-55.71739 109.6178-55.7433 109.6808-55.75932 109.74382-55.77534 109.84488-55.80089 109.9079-55.81685 109.9709-55.83281 110.07196-55.85841 110.13496-55.87437 110.19798-55.89034 110.29904-55.91594 110.36206-55.9319 110.42506-55.94786 110.52612-55.97346 110.58914-55.98943 110.65215-56.00539 110.7532-56.031 110.81621-56.04697 110.87923-56.06293 110.98029-56.08853 111.0433-56.10449 111.10631-56.12045 111.20737-56.14612 111.27039-56.16202 111.3334-56.17792 111.43445-56.20328 111.49745-56.21912 111.56047-56.23495 111.66153-56.26038 111.72455-56.27621 111.78755-56.29205 111.88863-56.31746 111.95163-56.3333 112.01465-56.34914 112.1157-56.37456 112.17873-56.3904 112.24173-56.40623 112.34277-56.43166 112.40579-56.4475 112.46881-56.46333 112.56987-56.48875 112.63287-56.5046 112.69589-56.52043 112.79695-56.5459 112.85997-56.56168 112.92297-56.57745 113.02403-56.60263 113.08704-56.61835 113.15005-56.63406 113.31413-56.675 113.31413-56.675"/>
<path transform="matrix(1.00008,0,0,-1.00005,4.8391039,74.43107)" stroke-width=".79701" stroke-linecap="butt" stroke-dasharray="2.98883,2.98883" stroke-miterlimit="10" stroke-linejoin="miter" fill="none" stroke="#000000" d="M28.3468 56.69362V-56.69362"/>
<use data-text="&#x2022;" xlink:href="#font_2_2" transform="matrix(9.963397,0,0,-9.963098,30.697175,48.296766)"/>
<use data-text="(" xlink:href="#font_3_1" transform="matrix(9.963397,0,0,-9.963098,36.708654,57.075204)"/>
<use data-text="1" xlink:href="#font_3_3" transform="matrix(9.963397,0,0,-9.963098,40.57445,57.075204)"/>
<use data-text="," xlink:href="#font_1_1" transform="matrix(9.963397,0,0,-9.963098,45.565366,57.075204)"/>
<use data-text="1" xlink:href="#font_3_3" transform="matrix(9.963397,0,0,-9.963098,49.993726,57.075204)"/>
<use data-text=")" xlink:href="#font_3_2" transform="matrix(9.963397,0,0,-9.963098,54.97542,57.075204)"/>
<use data-text="&#x2022;" xlink:href="#font_2_2" transform="matrix(9.963397,0,0,-9.963098,30.697175,104.99359)"/>
<use data-text="(" xlink:href="#font_3_1" transform="matrix(9.963397,0,0,-9.963098,36.708654,96.76819)"/>
<use data-text="1" xlink:href="#font_3_3" transform="matrix(9.963397,0,0,-9.963098,40.57445,96.76819)"/>
<use data-text="," xlink:href="#font_1_1" transform="matrix(9.963397,0,0,-9.963098,45.565366,96.76819)"/>
<use data-text="&#x2212;" xlink:href="#font_2_1" transform="matrix(9.963397,0,0,-9.963098,49.993726,96.76819)"/>
<use data-text="1" xlink:href="#font_3_3" transform="matrix(9.963397,0,0,-9.963098,57.742345,96.76819)"/>
<use data-text=")" xlink:href="#font_3_2" transform="matrix(9.963397,0,0,-9.963098,62.72404,96.76819)"/>
</svg>
