<svg xmlns="http://www.w3.org/2000/svg" xmlns:xlink="http://www.w3.org/1999/xlink" version="1.1" width="296" height="296" viewBox="0 0 296 296">
<defs>
<path id="font_1_1" d="M.3039856 .6392822C.3039856 .6642761 .30299378 .666275 .27799989 .666275 .21598816 .60227969 .12399292 .60227969 .09298706 .60227969V.57128909C.11199951 .57128909 .17298889 .57128909 .22698975 .5972748V.08001709C.22698975 .042999269 .22399903 .0309906 .1309967 .0309906H.09899902V0C.1349945 .0029907227 .22399903 .0029907227 .2649994 .0029907227 .30599977 .0029907227 .3959961 .0029907227 .43199159 0V.0309906H.3999939C.30699159 .0309906 .3039856 .042999269 .3039856 .08001709V.6392822Z"/>
<path id="font_2_1" d="M.6749878 .22944641C.69299319 .22944641 .71199038 .22944641 .71199038 .25144959 .71199038 .27246095 .69200137 .27246095 .6749878 .27246095H.12298584C.10598755 .27246095 .085998538 .27246095 .085998538 .25144959 .085998538 .22944641 .10499573 .22944641 .12298584 .22944641H.6749878Z"/>
<path id="font_1_2" d="M.46199037 .17704773H.43399049C.43199159 .16404724 .42399598 .10501099 .41099549 .08900452 .40499879 .07998657 .33599855 .07998657 .31599427 .07998657H.13798523L.23699951 .17404175C.40098573 .3161316 .46199037 .36915589 .46199037 .4711914 .46199037 .5860901 .36698915 .6660156 .24398804 .6660156 .1289978 .6660156 .050994874 .575119 .050994874 .4841919 .050994874 .43418885 .09399414 .42919923 .102996829 .42919923 .125 .42919923 .15499878 .44519044 .15499878 .48120118 .15499878 .51119998 .13398743 .5332031 .102996829 .5332031 .09799194 .5332031 .09498596 .5332031 .09098816 .53219607 .114990238 .6030731 .1789856 .63500979 .23298645 .63500979 .33499146 .63500979 .36999513 .5401764 .36999513 .4711914 .36999513 .36915589 .29299928 .28611756 .24499512 .23408509L.06199646 .035995485C.050994874 .024993897 .050994874 .022994996 .050994874 0H.43399049L.46199037 .17704773Z"/>
<path id="font_1_3" d="M.30499269 .35195924C.397995 .38697816 .44198609 .46006776 .44198609 .5290985 .44198609 .60606387 .35699464 .6660156 .25299073 .6660156 .14898682 .6660156 .070999149 .60705569 .070999149 .5310974 .070999149 .49809266 .09298706 .47909547 .12199402 .47909547 .15098572 .47909547 .17199707 .50009158 .17199707 .5290985 .17199707 .5640869 .147995 .57910159 .11399841 .57910159 .13999939 .6210327 .20098877 .64100649 .25 .64100649 .33299256 .64100649 .34899903 .5750885 .34899903 .52809146 .34899903 .49809266 .34298707 .45005799 .31799317 .41201783 .2869873 .36695863 .2519989 .36495973 .22299195 .36296083 .19799805 .36094667 .19599915 .36094667 .18798828 .36094667 .1789856 .35995484 .17098999 .35894776 .17098999 .34794618 .17098999 .33496095 .1789856 .33496095 .19599915 .33496095H.24299622C.32998658 .33496095 .36799623 .2646637 .36799623 .16937256 .36799623 .04145813 .2999878 .0055389406 .24899292 .0055389406 .22999573 .0055389406 .1329956 .010528564 .08799744 .0843811 .12399292 .07939148 .1519928 .10437012 .1519928 .13838196 .1519928 .17137146 .1269989 .19238281 .09799194 .19238281 .07299805 .19238281 .042999269 .17736817 .042999269 .13537598 .042999269 .046447755 .13598633-.022460938 .2519989-.022460938 .3769989-.022460938 .46998597 .06741333 .46998597 .16937256 .46998597 .25663758 .40098573 .33093263 .30499269 .35195924Z"/>
<path id="font_1_4" d="M.0289917 .19602967V.16503906H.3019867V.07901001C.3019867 .041992189 .29899598 .0309906 .22399903 .0309906H.20199585V0C.2649994 .0029907227 .33499146 .0029907227 .34199525 .0029907227 .34700013 .0029907227 .4189911 .0029907227 .48199464 0V.0309906H.45999146C.3849945 .0309906 .38198854 .041992189 .38198854 .07901001V.16503906H.48399354V.19602967H.38198854V.64974978C.38198854 .669754 .38198854 .6767578 .36299134 .6767578 .35099793 .6767578 .34999085 .67575076 .34098817 .66174319L.0289917 .19602967M.06098938 .19602967 .30799867 .56581118V.19602967H.06098938Z"/>
<path id="font_1_5" d="M.10398865 .3444519C.10398865 .32641603 .10398865 .31539918 .117996219 .31539918 .12599182 .31539918 .1289978 .31941224 .1349945 .32843019 .16499329 .3704834 .21299744 .39453126 .2649994 .39453126 .37199403 .39453126 .37199403 .24029541 .37199403 .20425415 .37199403 .17324829 .37199403 .11125183 .34399415 .06637573 .31698609 .024475098 .2749939 .0055389406 .23599243 .0055389406 .1769867 .0055389406 .10998535 .042434694 .085998538 .116256717 .08699036 .116256717 .09298706 .11425781 .099990848 .11425781 .11999512 .11425781 .14898682 .12724304 .14898682 .16325379 .14898682 .19424439 .1269989 .21224976 .099990848 .21224976 .07899475 .21224976 .050994874 .20025635 .050994874 .1602478 .050994874 .069366458 .1269989-.022460938 .23799134-.022460938 .35899354-.022460938 .46199037 .0753479 .46199037 .19924927 .46199037 .3204193 .37599183 .41952516 .2669983 .41952516 .21899414 .41952516 .16999817 .40351869 .1349945 .36747743V.56477358C.16499329 .5557709 .19599915 .55078127 .22698975 .55078127 .34999085 .55078127 .42199708 .6397705 .42199708 .652771 .42199708 .6617737 .41600038 .6657715 .41099549 .6657715 .40899659 .6657715 .40699769 .6657715 .397995 .6607666 .35099793 .6417694 .30499269 .6337738 .2630005 .6337738 .21998596 .6337738 .1749878 .6417694 .1289978 .6607666 .11898804 .6657715 .116989139 .6657715 .115997318 .6657715 .10398865 .6657715 .10398865 .655777 .10398865 .6387787V.3444519Z"/>
<path id="font_3_1" d="M.33399964 .30233766C.33999635 .32835389 .36299134 .42037965 .43299867 .42037965 .43798829 .42037965 .46199037 .42037965 .48298646 .40734864 .45498658 .402359 .43499757 .37734986 .43499757 .35334779 .43499757 .33735658 .44599916 .31835938 .47299195 .31835938 .49499513 .31835938 .5269928 .3363495 .5269928 .37635804 .5269928 .42837525 .46798707 .4423828 .43399049 .4423828 .37599183 .4423828 .34098817 .38935853 .32899476 .36634828 .3039856 .43237306 .25 .4423828 .22099304 .4423828 .116989139 .4423828 .05999756 .3133545 .05999756 .28834535 .05999756 .27833558 .069992069 .27833558 .07199097 .27833558 .07998657 .27833558 .08299255 .28033448 .084991458 .28933717 .11898804 .39535523 .18499756 .42037965 .21899414 .42037965 .23799134 .42037965 .272995 .4113617 .272995 .35334779 .272995 .32235719 .2559967 .25532533 .21899414 .11528015 .20298767 .053268434 .16799927 .011245728 .12399292 .011245728 .117996219 .011245728 .09498596 .011245728 .07398987 .024276734 .09899902 .029266358 .12098694 .05027771 .12098694 .07827759 .12098694 .105270389 .09899902 .11328125 .083999637 .11328125 .053985597 .11328125 .0289917 .08728027 .0289917 .055267335 .0289917 .009246826 .07899475-.0107421879 .12298584-.0107421879 .18899536-.0107421879 .22499085 .059280397 .22799683 .0652771 .23999024 .028274537 .27598573-.0107421879 .33599855-.0107421879 .43899537-.0107421879 .49598695 .118270877 .49598695 .14328003 .49598695 .1532898 .4869995 .1532898 .48399354 .1532898 .47499085 .1532898 .47299195 .14929199 .47099305 .14228821 .43798829 .03527832 .36999513 .011245728 .33799745 .011245728 .29899598 .011245728 .2829895 .043273927 .2829895 .07727051 .2829895 .09927368 .2889862 .121276859 .2999878 .16529846L.33399964 .30233766Z"/>
<path id="font_3_2" d="M.48599244 .38136292C.48999024 .39537049 .48999024 .39736939 .48999024 .40437318 .48999024 .42237855 .47599793 .43138124 .46099855 .43138124 .45098878 .43138124 .43499757 .42536927 .42599488 .41036988 .42399598 .405365 .41600038 .37435914 .4119873 .35635377 .40499879 .33035279 .397995 .30334474 .3919983 .27633668L.34700013 .09628296C.34298707 .08126831 .2999878 .011245728 .23399353 .011245728 .18299866 .011245728 .17199707 .055267335 .17199707 .0922699 .17199707 .1382904 .18899536 .20030213 .22299195 .28833009 .23899842 .3293457 .24299622 .3403473 .24299622 .36035157 .24299622 .405365 .21099854 .4423828 .16099549 .4423828 .06599426 .4423828 .0289917 .29733277 .0289917 .28833009 .0289917 .27833558 .038986207 .27833558 .040985109 .27833558 .050994874 .27833558 .051986696 .28033448 .056991579 .29634095 .083999637 .3903656 .12399292 .42037965 .1579895 .42037965 .1659851 .42037965 .18299866 .42037965 .18299866 .3883667 .18299866 .36335755 .17298889 .3373413 .1659851 .31834413 .12599182 .21231079 .10798645 .1552887 .10798645 .10827637 .10798645 .019256592 .17098999-.0107421879 .22999573-.0107421879 .2689972-.0107421879 .30299378 .0062561037 .33099366 .03425598 .31799317-.017745972 .30599977-.06674194 .2659912-.11973572 .23999024-.15385437 .20199585-.18309021 .1559906-.18309021 .14199829-.18309021 .09700012-.18005371 .07998657-.14074707 .09599304-.14074707 .10899353-.14074707 .12298584-.1287384 .1329956-.11973572 .14299011-.10673523 .14299011-.08773804 .14299011-.056747438 .115997318-.052734376 .10598755-.052734376 .08299255-.052734376 .049987794-.068740848 .049987794-.11773682 .049987794-.16796875 .09399414-.20507813 .1559906-.20507813 .25898744-.20507813 .3619995-.11373901 .3899994-.00074768069L.48599244 .38136292Z"/>
<path id="font_4_90" d="M.72698977-.010345459C.72698977-.00033569337 .72698977 .010650635 .71598818 .010650635 .70700076 .010650635 .70599368 .0026550294 .7049866-.0073394777 .69898989-.061340333 .6569977-.09133911 .6139984-.09133911 .5669861-.09133911 .5419922-.05734253 .5179901 .006652832 .6359863 .059570314 .72099307 .1876831 .72099307 .3387909 .72099307 .5429535 .56999209 .7050781 .3880005 .7050781 .20899964 .7050781 .055999757 .54496768 .055999757 .3387909 .055999757 .13664246 .20698548-.022460938 .3889923-.022460938 .41999818-.022460938 .45498658-.016464234 .48399354-.007461548 .49899293-.1023407 .5130005-.19433594 .60598757-.19433594 .70799258-.1945343 .72698977-.061538698 .72698977-.010528564V-.010345459M.62098696 .33866883C.62098696 .2605896 .60899356 .11946106 .5029907 .04147339 .48098756 .097457889 .44898988 .14746094 .3899994 .14746094 .33898927 .14746094 .30799867 .10446167 .30799867 .06347656 .30799867 .036468507 .32099916 .017471314 .32199098 .015472412 .2679901 .035461427 .1559906 .10845947 .1559906 .33866883 .1559906 .59898379 .29599 .68006899 .3880005 .68006899 .4850006 .6794586 .62098696 .5934601 .62098696 .3384552V.33866883M.47698976 .025497437C.44299317 .0065307619 .41099549 .002532959 .3889923 .002532959 .33799745 .002532959 .32998658 .048461915 .32998658 .06347656 .32998658 .09246826 .35099793 .12545777 .3899994 .12545777 .44400025 .12545777 .46598817 .083465579 .47698976 .025497437Z"/>
<path id="font_4_109" d="M.5349884 0V.0309906C.46499635 .0309906 .45700074 .037994386 .45700074 .08705139V.4423828L.30999757 .43066407V.3996582C.37998963 .3996582 .3880005 .39266969 .3880005 .34373475V.16601563C.3880005 .07910156 .33999635 .011245728 .2669983 .011245728 .18299866 .011245728 .1789856 .058135988 .1789856 .11009216V.4423828L.03199768 .43066407V.3996582C.10998535 .3996582 .10998535 .39666749 .10998535 .3078003V.15802002C.10998535 .080093387 .10998535-.0107421879 .2619934-.0107421879 .31799317-.0107421879 .3619995 .017242432 .3909912 .07910156V-.0107421879L.5349884 0Z"/>
<path id="font_4_28" d="M.48298646 .08912659V.14511109H.45799256V.08912659C.45799256 .03112793 .43299867 .025131226 .42199708 .025131226 .3889923 .025131226 .3849945 .070129398 .3849945 .07511902V.27508546C.3849945 .31707765 .3849945 .3560791 .34899903 .39312745 .30999757 .43223573 .2599945 .4482422 .21199036 .4482422 .12998963 .4482422 .06098938 .40115357 .06098938 .335083 .06098938 .30508424 .08099365 .28808595 .10699463 .28808595 .1349945 .28808595 .15299988 .30807496 .15299988 .33407594 .15299988 .3460846 .147995 .37908937 .101989749 .38008119 .1289978 .41519166 .17799378 .426239 .20999146 .426239 .25898744 .426239 .31599427 .38710023 .31599427 .29808045V.26107789C.2649994 .25808717 .19499207 .25508119 .13198853 .22509766 .056991579 .19110108 .03199768 .13911438 .03199768 .09512329 .03199768 .014251709 .1289978-.0107421879 .19198609-.0107421879 .2579956-.0107421879 .3039856 .029251099 .32299806 .07624817 .32699586 .036132814 .35398866-.005859375 .40098573-.005859375 .42199708-.005859375 .48298646 .008132935 .48298646 .08912659M.31599427 .14013672C.31599427 .04525757 .24398804 .011245728 .19898987 .011245728 .1499939 .011245728 .10899353 .04624939 .10899353 .09625244 .10899353 .15124512 .15098572 .23425293 .31599427 .24024964V.14013672Z"/>
<path id="font_4_47" d="M.5269928 0V.0309906C.45700074 .0309906 .44898988 .038009645 .44898988 .0871582V.69433596L.30499269 .6826172V.6516113C.375 .6516113 .3829956 .64463809 .3829956 .59580996V.38035584C.35398866 .41636659 .31098939 .4423828 .25698854 .4423828 .13899231 .4423828 .033996583 .3443451 .033996583 .21531677 .033996583 .088272098 .13198853-.0107421879 .24598694-.0107421879 .30999757-.0107421879 .35499574 .023254395 .37998963 .055267335V-.0107421879L.5269928 0M.37998963 .117996219C.37998963 .099990848 .37998963 .09799194 .36898805 .08099365 .33898927 .033218385 .2939911 .011245728 .25099183 .011245728 .20599365 .011245728 .16999817 .037216188 .1459961 .075164798 .11999512 .1161499 .116989139 .17320252 .116989139 .21421814 .116989139 .25125123 .11898804 .31129457 .147995 .35632325 .16899109 .38734437 .20698548 .42037965 .26098634 .42037965 .29599 .42037965 .33799745 .405365 .36898805 .3603363 .37998963 .34332276 .37998963 .34132386 .37998963 .32330323V.117996219Z"/>
<path id="font_4_96" d="M.3639984 .38137818C.3639984 .41337586 .33299256 .4423828 .2899933 .4423828 .21699524 .4423828 .18099976 .37538148 .16699219 .3323822V.4423828L.027999878 .43066407V.3996582C.09799194 .3996582 .10598755 .39266969 .10598755 .34370423V.07595825C.10598755 .0309906 .09498596 .0309906 .027999878 .0309906V0L.14199829 .0029907227C.18199158 .0029907227 .22898865 .0029907227 .2689972 0V.0309906H.24798584C.17399597 .0309906 .17199707 .04197693 .17199707 .07795715V.23181153C.17199707 .33137513 .21398926 .42037965 .2899933 .42037965 .29699708 .42037965 .29899598 .42037965 .30099488 .41937257 .2979889 .41838075 .27799989 .40637208 .27799989 .3803711 .27799989 .35237123 .29899598 .33737184 .32099916 .33737184 .33898927 .33737184 .3639984 .3493805 .3639984 .38137818Z"/>
<path id="font_4_77" d="M.5349884 0V.0309906C.48298646 .0309906 .45799256 .0309906 .45700074 .061019899V.25221253C.45700074 .3383026 .45700074 .36932374 .42599488 .405365 .4119873 .42237855 .3789978 .4423828 .32099916 .4423828 .24798584 .4423828 .20098877 .39935304 .17298889 .33729554V.4423828L.03199768 .43066407V.3996582C.101989749 .3996582 .10998535 .39266969 .10998535 .34370423V.07595825C.10998535 .0309906 .09899902 .0309906 .03199768 .0309906V0L.14498902 .0029907227 .25698854 0V.0309906C.18998719 .0309906 .1789856 .0309906 .1789856 .07595825V.25978089C.1789856 .36431886 .25 .42037965 .31399537 .42037965 .3769989 .42037965 .3880005 .36631776 .3880005 .30926515V.076034549C.3880005 .0309906 .3769989 .0309906 .30999757 .0309906V0L.4229889 .0029907227 .5349884 0Z"/>
<path id="font_4_105" d="M.33198548 .12385559V.18066406H.30699159V.12585449C.30699159 .052108766 .2769928 .014251709 .23999024 .014251709 .17298889 .014251709 .17298889 .10491943 .17298889 .12187195V.3996582H.31599427V.43066407H.17298889V.6142578H.147995C.14698792 .5324249 .116989139 .42565919 .018997193 .42166139V.3996582H.10398865V.12408447C.10398865 .0012512207 .19699097-.0107421879 .23298645-.0107421879 .3039856-.0107421879 .33198548 .060180665 .33198548 .12408447V.12385559Z"/>
<path id="font_4_65" d="M.33299256 0V.0309906H.30699159C.22799683 .0309906 .22499085 .041992189 .22499085 .07795715V.6046295C.22499085 .64060977 .22799683 .6516113 .30699159 .6516113H.33299256V.6826172C.2979889 .6796112 .21899414 .6796112 .18099976 .6796112 .14199829 .6796112 .06298828 .6796112 .027999878 .6826172V.6516113H.053985597C.1329956 .6516113 .13598633 .64060977 .13598633 .6046295V.07795715C.13598633 .041992189 .1329956 .0309906 .053985597 .0309906H.027999878V0C.06298828 .0029907227 .14199829 .0029907227 .17999268 .0029907227 .21899414 .0029907227 .2979889 .0029907227 .33299256 0Z"/>
<path id="font_4_111" d="M.7299957 .6516113V.6826172C.69898989 .680603 .6589966 .6796112 .6329956 .6796112L.5189972 .6826172V.6516113C.57099917 .6506195 .59199526 .6246033 .59199526 .6016083 .59199526 .5936127 .58898928 .5876007 .58699038 .581604L.4039917 .09954834 .21299744 .60461428C.20698548 .61860659 .20698548 .62260439 .20698548 .62260439 .20698548 .6516113 .2639923 .6516113 .2889862 .6516113V.6826172C.25299073 .6796112 .18399048 .6796112 .1459961 .6796112L.018997193 .6826172V.6516113C.083999637 .6516113 .102996829 .6516113 .116989139 .6136017L.34899903-.00047302247C.35598756-.019470215 .36099244-.022460938 .37399293-.022460938 .3909912-.022460938 .3929901-.017471314 .397995-.0034637452L.62098696 .58461C.6349945 .62161257 .6619873 .6506195 .7299957 .6516113Z"/>
</defs>
<path transform="matrix(1.00009,0,0,-1.00003,147.85105,149.6051)" stroke-width=".19925" stroke-linecap="butt" stroke-miterlimit="10" stroke-linejoin="miter" fill="none" stroke="#929292" stroke-opacity=".5" d="M-141.73404-141.73404H141.73404M-141.73404-113.38724H141.73404M-141.73404-85.04042H141.73404M-141.73404-56.69362H141.73404M-141.73404-28.3468H141.73404M-141.73404 0H141.73404M-141.73404 28.3468H141.73404M-141.73404 56.69362H141.73404M-141.73404 85.04042H141.73404M-141.73404 113.38724H141.73404M-141.73404 141.72409H141.73404M-141.73404-141.73404V141.73404M-113.38724-141.73404V141.73404M-85.04042-141.73404V141.73404M-56.69362-141.73404V141.73404M-28.3468-141.73404V141.73404M0-141.73404V141.73404M28.3468-141.73404V141.73404M56.69362-141.73404V141.73404M85.04042-141.73404V141.73404M113.38724-141.73404V141.73404M141.72409-141.73404V141.73404M141.73404 141.73404"/>
<path transform="matrix(1.00009,0,0,-1.00003,147.85105,149.6051)" stroke-width="1.19553" stroke-linecap="butt" stroke-miterlimit="10" stroke-linejoin="miter" fill="none" stroke="#000000" d="M28.3468 2.49069V-2.49069M-28.3468 2.49069V-2.49069M2.49069 28.3468H-2.49069M2.49069-28.3468H-2.49069"/>
<use data-text="1" xlink:href="#font_1_1" transform="matrix(8.967207,0,0,-8.966669,173.8964,161.79247)"/>
<use data-text="&#x2212;" xlink:href="#font_2_1" transform="matrix(8.967207,0,0,-8.966669,113.61396,161.79247)"/>
<use data-text="1" xlink:href="#font_1_1" transform="matrix(8.967207,0,0,-8.966669,120.782619,161.79247)"/>
<use data-text="1" xlink:href="#font_1_1" transform="matrix(8.967207,0,0,-8.966669,136.83306,124.14634)"/>
<use data-text="&#x2212;" xlink:href="#font_2_1" transform="matrix(8.967207,0,0,-8.966669,129.6654,180.42704)"/>
<use data-text="1" xlink:href="#font_1_1" transform="matrix(8.967207,0,0,-8.966669,136.83406,180.42704)"/>
<path transform="matrix(1.00009,0,0,-1.00003,147.85105,149.6051)" stroke-width="1.19553" stroke-linecap="butt" stroke-miterlimit="10" stroke-linejoin="miter" fill="none" stroke="#000000" d="M56.69362 2.49069V-2.49069M-56.69362 2.49069V-2.49069M2.49069 56.69362H-2.49069M2.49069-56.69362H-2.49069"/>
<use data-text="2" xlink:href="#font_1_2" transform="matrix(8.967207,0,0,-8.966669,202.24594,161.79247)"/>
<use data-text="&#x2212;" xlink:href="#font_2_1" transform="matrix(8.967207,0,0,-8.966669,85.264408,161.79247)"/>
<use data-text="2" xlink:href="#font_1_2" transform="matrix(8.967207,0,0,-8.966669,92.43306,161.79247)"/>
<use data-text="2" xlink:href="#font_1_2" transform="matrix(8.967207,0,0,-8.966669,136.83306,95.799488)"/>
<use data-text="&#x2212;" xlink:href="#font_2_1" transform="matrix(8.967207,0,0,-8.966669,129.6654,208.77487)"/>
<use data-text="2" xlink:href="#font_1_2" transform="matrix(8.967207,0,0,-8.966669,136.83406,208.77487)"/>
<path transform="matrix(1.00009,0,0,-1.00003,147.85105,149.6051)" stroke-width="1.19553" stroke-linecap="butt" stroke-miterlimit="10" stroke-linejoin="miter" fill="none" stroke="#000000" d="M85.04042 2.49069V-2.49069M-85.04042 2.49069V-2.49069M2.49069 85.04042H-2.49069M2.49069-85.04042H-2.49069"/>
<use data-text="3" xlink:href="#font_1_3" transform="matrix(8.967207,0,0,-8.966669,230.59549,161.79247)"/>
<use data-text="&#x2212;" xlink:href="#font_2_1" transform="matrix(8.967207,0,0,-8.966669,56.914857,161.79247)"/>
<use data-text="3" xlink:href="#font_1_3" transform="matrix(8.967207,0,0,-8.966669,64.08351,161.79247)"/>
<use data-text="3" xlink:href="#font_1_3" transform="matrix(8.967207,0,0,-8.966669,136.83306,67.45164)"/>
<use data-text="&#x2212;" xlink:href="#font_2_1" transform="matrix(8.967207,0,0,-8.966669,129.6654,237.12274)"/>
<use data-text="3" xlink:href="#font_1_3" transform="matrix(8.967207,0,0,-8.966669,136.83406,237.12274)"/>
<path transform="matrix(1.00009,0,0,-1.00003,147.85105,149.6051)" stroke-width="1.19553" stroke-linecap="butt" stroke-miterlimit="10" stroke-linejoin="miter" fill="none" stroke="#000000" d="M113.38724 2.49069V-2.49069M-113.38724 2.49069V-2.49069M2.49069 113.38724H-2.49069M2.49069-113.38724H-2.49069"/>
<use data-text="4" xlink:href="#font_1_4" transform="matrix(8.967207,0,0,-8.966669,258.94404,161.79247)"/>
<use data-text="&#x2212;" xlink:href="#font_2_1" transform="matrix(8.967207,0,0,-8.966669,28.565308,161.79247)"/>
<use data-text="4" xlink:href="#font_1_4" transform="matrix(8.967207,0,0,-8.966669,35.733964,161.79247)"/>
<use data-text="4" xlink:href="#font_1_4" transform="matrix(8.967207,0,0,-8.966669,136.83306,39.103784)"/>
<use data-text="&#x2212;" xlink:href="#font_2_1" transform="matrix(8.967207,0,0,-8.966669,129.6654,265.46958)"/>
<use data-text="4" xlink:href="#font_1_4" transform="matrix(8.967207,0,0,-8.966669,136.83406,265.46958)"/>
<path transform="matrix(1.00009,0,0,-1.00003,147.85105,149.6051)" stroke-width="1.19553" stroke-linecap="butt" stroke-miterlimit="10" stroke-linejoin="miter" fill="none" stroke="#000000" d="M141.73404 2.49069V-2.49069M-141.73404 2.49069V-2.49069M2.49069 141.73404H-2.49069M2.49069-141.73404H-2.49069"/>
<use data-text="5" xlink:href="#font_1_5" transform="matrix(8.967207,0,0,-8.966669,287.29359,161.79247)"/>
<use data-text="&#x2212;" xlink:href="#font_2_1" transform="matrix(8.967207,0,0,-8.966669,.21575928,161.79247)"/>
<use data-text="5" xlink:href="#font_1_5" transform="matrix(8.967207,0,0,-8.966669,7.3844149,161.79247)"/>
<use data-text="5" xlink:href="#font_1_5" transform="matrix(8.967207,0,0,-8.966669,136.83306,10.755936)"/>
<use data-text="&#x2212;" xlink:href="#font_2_1" transform="matrix(8.967207,0,0,-8.966669,129.6654,293.81745)"/>
<use data-text="5" xlink:href="#font_1_5" transform="matrix(8.967207,0,0,-8.966669,136.83406,293.81745)"/>
<path transform="matrix(1.00009,0,0,-1.00003,147.85105,149.6051)" stroke-width="1.19553" stroke-linecap="butt" stroke-miterlimit="10" stroke-linejoin="miter" fill="none" stroke="#000000" d="M-141.73404 0H143.61248"/>
<path transform="matrix(1.00009,0,0,-1.00003,291.47645,149.6051)" stroke-width=".9564" stroke-linecap="round" stroke-linejoin="round" fill="none" stroke="#000000" d="M-1.91284 2.55046C-1.75343 1.59402 0 .15938 .4782 0 0-.15938-1.75343-1.59402-1.91284-2.55046"/>
<use data-text="x" xlink:href="#font_3_1" transform="matrix(9.963496,0,0,-9.962899,289.58583,145.68698)"/>
<path transform="matrix(1.00009,0,0,-1.00003,147.85105,149.6051)" stroke-width="1.19553" stroke-linecap="butt" stroke-miterlimit="10" stroke-linejoin="miter" fill="none" stroke="#000000" d="M0-141.73404V143.61248"/>
<path transform="matrix(0,-1.00003,-1.00009,-0,147.85105,5.988312)" stroke-width=".9564" stroke-linecap="round" stroke-linejoin="round" fill="none" stroke="#000000" d="M-1.91284 2.55046C-1.75343 1.59402 0 .15938 .4782 0 0-.15938-1.75343-1.59402-1.91284-2.55046"/>
<use data-text="y" xlink:href="#font_3_2" transform="matrix(9.963496,0,0,-9.962899,151.7694,6.207794)"/>
<use data-text="Q" xlink:href="#font_4_90" transform="matrix(9.963496,0,0,-9.962899,194.34824,81.28105)"/>
<use data-text="u" xlink:href="#font_4_109" transform="matrix(9.963496,0,0,-9.962899,202.09983,81.28105)"/>
<use data-text="a" xlink:href="#font_4_28" transform="matrix(9.963496,0,0,-9.962899,207.63953,81.28105)"/>
<use data-text="d" xlink:href="#font_4_47" transform="matrix(9.963496,0,0,-9.962899,212.62128,81.28105)"/>
<use data-text="r" xlink:href="#font_4_96" transform="matrix(9.963496,0,0,-9.962899,218.16098,81.28105)"/>
<use data-text="a" xlink:href="#font_4_28" transform="matrix(9.963496,0,0,-9.962899,222.06665,81.28105)"/>
<use data-text="n" xlink:href="#font_4_77" transform="matrix(9.963496,0,0,-9.962899,227.0484,81.28105)"/>
<use data-text="t" xlink:href="#font_4_105" transform="matrix(9.963496,0,0,-9.962899,232.31912,81.28105)"/>
<use data-text="I" xlink:href="#font_4_65" transform="matrix(9.963496,0,0,-9.962899,239.5028,81.28105)"/>
<use data-text="Q" xlink:href="#font_4_90" transform="matrix(9.963496,0,0,-9.962899,50.6633,81.28105)"/>
<use data-text="u" xlink:href="#font_4_109" transform="matrix(9.963496,0,0,-9.962899,58.4149,81.28105)"/>
<use data-text="a" xlink:href="#font_4_28" transform="matrix(9.963496,0,0,-9.962899,63.954607,81.28105)"/>
<use data-text="d" xlink:href="#font_4_47" transform="matrix(9.963496,0,0,-9.962899,68.93634,81.28105)"/>
<use data-text="r" xlink:href="#font_4_96" transform="matrix(9.963496,0,0,-9.962899,74.47606,81.28105)"/>
<use data-text="a" xlink:href="#font_4_28" transform="matrix(9.963496,0,0,-9.962899,78.38173,81.28105)"/>
<use data-text="n" xlink:href="#font_4_77" transform="matrix(9.963496,0,0,-9.962899,83.36348,81.28105)"/>
<use data-text="t" xlink:href="#font_4_105" transform="matrix(9.963496,0,0,-9.962899,88.6342,81.28105)"/>
<use data-text="I" xlink:href="#font_4_65" transform="matrix(9.963496,0,0,-9.962899,95.81789,81.28105)"/>
<use data-text="I" xlink:href="#font_4_65" transform="matrix(9.963496,0,0,-9.962899,99.69368,81.28105)"/>
<use data-text="Q" xlink:href="#font_4_90" transform="matrix(9.963496,0,0,-9.962899,48.72612,223.01932)"/>
<use data-text="u" xlink:href="#font_4_109" transform="matrix(9.963496,0,0,-9.962899,56.477724,223.01932)"/>
<use data-text="a" xlink:href="#font_4_28" transform="matrix(9.963496,0,0,-9.962899,62.017427,223.01932)"/>
<use data-text="d" xlink:href="#font_4_47" transform="matrix(9.963496,0,0,-9.962899,66.99916,223.01932)"/>
<use data-text="r" xlink:href="#font_4_96" transform="matrix(9.963496,0,0,-9.962899,72.53888,223.01932)"/>
<use data-text="a" xlink:href="#font_4_28" transform="matrix(9.963496,0,0,-9.962899,76.44455,223.01932)"/>
<use data-text="n" xlink:href="#font_4_77" transform="matrix(9.963496,0,0,-9.962899,81.4263,223.01932)"/>
<use data-text="t" xlink:href="#font_4_105" transform="matrix(9.963496,0,0,-9.962899,86.69702,223.01932)"/>
<use data-text="I" xlink:href="#font_4_65" transform="matrix(9.963496,0,0,-9.962899,93.88071,223.01932)"/>
<use data-text="I" xlink:href="#font_4_65" transform="matrix(9.963496,0,0,-9.962899,97.7565,223.01932)"/>
<use data-text="I" xlink:href="#font_4_65" transform="matrix(9.963496,0,0,-9.962899,101.632328,223.01932)"/>
<use data-text="Q" xlink:href="#font_4_90" transform="matrix(9.963496,0,0,-9.962899,190.6119,223.01932)"/>
<use data-text="u" xlink:href="#font_4_109" transform="matrix(9.963496,0,0,-9.962899,198.3635,223.01932)"/>
<use data-text="a" xlink:href="#font_4_28" transform="matrix(9.963496,0,0,-9.962899,203.9032,223.01932)"/>
<use data-text="d" xlink:href="#font_4_47" transform="matrix(9.963496,0,0,-9.962899,208.88494,223.01932)"/>
<use data-text="r" xlink:href="#font_4_96" transform="matrix(9.963496,0,0,-9.962899,214.42465,223.01932)"/>
<use data-text="a" xlink:href="#font_4_28" transform="matrix(9.963496,0,0,-9.962899,218.33032,223.01932)"/>
<use data-text="n" xlink:href="#font_4_77" transform="matrix(9.963496,0,0,-9.962899,223.31208,223.01932)"/>
<use data-text="t" xlink:href="#font_4_105" transform="matrix(9.963496,0,0,-9.962899,228.5828,223.01932)"/>
<use data-text="I" xlink:href="#font_4_65" transform="matrix(9.963496,0,0,-9.962899,235.76648,223.01932)"/>
<use data-text="V" xlink:href="#font_4_111" transform="matrix(9.963496,0,0,-9.962899,239.36328,223.01932)"/>
</svg>
