<svg xmlns="http://www.w3.org/2000/svg" xmlns:xlink="http://www.w3.org/1999/xlink" version="1.1" width="250" height="252" viewBox="0 0 250 252">
<defs>
<path id="font_1_2" d="M.33399964 .30233766C.33999635 .32835389 .36299134 .42037965 .43299867 .42037965 .43798829 .42037965 .46199037 .42037965 .48298646 .40734864 .45498658 .402359 .43499757 .37734986 .43499757 .35334779 .43499757 .33735658 .44599916 .31835938 .47299195 .31835938 .49499513 .31835938 .5269928 .3363495 .5269928 .37635804 .5269928 .42837525 .46798707 .4423828 .43399049 .4423828 .37599183 .4423828 .34098817 .38935853 .32899476 .36634828 .3039856 .43237306 .25 .4423828 .22099304 .4423828 .116989139 .4423828 .05999756 .3133545 .05999756 .28834535 .05999756 .27833558 .069992069 .27833558 .07199097 .27833558 .07998657 .27833558 .08299255 .28033448 .084991458 .28933717 .11898804 .39535523 .18499756 .42037965 .21899414 .42037965 .23799134 .42037965 .272995 .4113617 .272995 .35334779 .272995 .32235719 .2559967 .25532533 .21899414 .11528015 .20298767 .053268434 .16799927 .011245728 .12399292 .011245728 .117996219 .011245728 .09498596 .011245728 .07398987 .024276734 .09899902 .029266358 .12098694 .05027771 .12098694 .07827759 .12098694 .105270389 .09899902 .11328125 .083999637 .11328125 .053985597 .11328125 .0289917 .08728027 .0289917 .055267335 .0289917 .009246826 .07899475-.0107421879 .12298584-.0107421879 .18899536-.0107421879 .22499085 .059280397 .22799683 .0652771 .23999024 .028274537 .27598573-.0107421879 .33599855-.0107421879 .43899537-.0107421879 .49598695 .118270877 .49598695 .14328003 .49598695 .1532898 .4869995 .1532898 .48399354 .1532898 .47499085 .1532898 .47299195 .14929199 .47099305 .14228821 .43798829 .03527832 .36999513 .011245728 .33799745 .011245728 .29899598 .011245728 .2829895 .043273927 .2829895 .07727051 .2829895 .09927368 .2889862 .121276859 .2999878 .16529846L.33399964 .30233766Z"/>
<path id="font_1_3" d="M.48599244 .38136292C.48999024 .39537049 .48999024 .39736939 .48999024 .40437318 .48999024 .42237855 .47599793 .43138124 .46099855 .43138124 .45098878 .43138124 .43499757 .42536927 .42599488 .41036988 .42399598 .405365 .41600038 .37435914 .4119873 .35635377 .40499879 .33035279 .397995 .30334474 .3919983 .27633668L.34700013 .09628296C.34298707 .08126831 .2999878 .011245728 .23399353 .011245728 .18299866 .011245728 .17199707 .055267335 .17199707 .0922699 .17199707 .1382904 .18899536 .20030213 .22299195 .28833009 .23899842 .3293457 .24299622 .3403473 .24299622 .36035157 .24299622 .405365 .21099854 .4423828 .16099549 .4423828 .06599426 .4423828 .0289917 .29733277 .0289917 .28833009 .0289917 .27833558 .038986207 .27833558 .040985109 .27833558 .050994874 .27833558 .051986696 .28033448 .056991579 .29634095 .083999637 .3903656 .12399292 .42037965 .1579895 .42037965 .1659851 .42037965 .18299866 .42037965 .18299866 .3883667 .18299866 .36335755 .17298889 .3373413 .1659851 .31834413 .12599182 .21231079 .10798645 .1552887 .10798645 .10827637 .10798645 .019256592 .17098999-.0107421879 .22999573-.0107421879 .2689972-.0107421879 .30299378 .0062561037 .33099366 .03425598 .31799317-.017745972 .30599977-.06674194 .2659912-.11973572 .23999024-.15385437 .20199585-.18309021 .1559906-.18309021 .14199829-.18309021 .09700012-.18005371 .07998657-.14074707 .09599304-.14074707 .10899353-.14074707 .12298584-.1287384 .1329956-.11973572 .14299011-.10673523 .14299011-.08773804 .14299011-.056747438 .115997318-.052734376 .10598755-.052734376 .08299255-.052734376 .049987794-.068740848 .049987794-.11773682 .049987794-.16796875 .09399414-.20507813 .1559906-.20507813 .25898744-.20507813 .3619995-.11373901 .3899994-.00074768069L.48599244 .38136292Z"/>
<clipPath id="clip_2">
<path transform="matrix(1.00009,0,0,-1.00003,120.56023,131.12454)" d="M-113.38724-113.38724V113.38724H113.38724V-113.38724ZM113.38724 113.38724"/>
</clipPath>
<path id="font_3_2" d="M.44400025 .24998474C.44400025 .35688783 .35499574 .44381715 .25 .44381715 .14199829 .44381715 .054992677 .35488893 .054992677 .24998474 .054992677 .14407349 .14199829 .056137086 .25 .056137086 .35499574 .056137086 .44400025 .14308167 .44400025 .24998474Z"/>
<path id="font_4_1" d="M.33099366-.2400055C.33099366-.23701477 .33099366-.23500061 .31399537-.21800232 .18899536-.0920105 .15699768 .09700012 .15699768 .25 .15699768 .42399598 .19499207 .59799197 .31799317 .72299197 .33099366 .73498538 .33099366 .7369995 .33099366 .73999026 .33099366 .746994 .32699586 .75 .32099916 .75 .31098939 .75 .22099304 .6819916 .1619873 .5549927 .11099243 .44499208 .09899902 .33399964 .09899902 .25 .09899902 .17199707 .10998535 .050994874 .16499329-.06201172 .22499085-.18501282 .31098939-.25 .32099916-.25 .32699586-.25 .33099366-.24700928 .33099366-.2400055Z"/>
<path id="font_3_1" d="M.6589966 .23046875C.6759949 .23046875 .69400027 .23046875 .69400027 .25045777 .69400027 .27046205 .6759949 .27046205 .6589966 .27046205H.117996219C.100997928 .27046205 .08299255 .27046205 .08299255 .25045777 .08299255 .23046875 .100997928 .23046875 .117996219 .23046875H.6589966Z"/>
<path id="font_4_4" d="M.2939911 .64004519C.2939911 .66400149 .2939911 .6660156 .2709961 .6660156 .20899964 .60227969 .12098694 .60227969 .08898926 .60227969V.57128909C.10899353 .57128909 .16799927 .57128909 .21998596 .5972748V.07902527C.21998596 .042999269 .21699524 .0309906 .1269989 .0309906H.09498596V0C.12998963 .0029907227 .21699524 .0029907227 .25698854 .0029907227 .29699708 .0029907227 .38398744 .0029907227 .4189911 0V.0309906H.3869934C.29699708 .0309906 .2939911 .041992189 .2939911 .07902527V.64004519Z"/>
<path id="font_1_1" d="M.20298767 .0009918213C.20298767 .066986087 .17799378 .10598755 .13899231 .10598755 .10598755 .10598755 .085998538 .08099365 .085998538 .052993776 .085998538 .025985718 .10598755 0 .13899231 0 .15098572 0 .1639862 .0039978029 .17399597 .0129852299 .1769867 .01499939 .17799378 .015991211 .1789856 .015991211 .17999268 .015991211 .18099976 .01499939 .18099976 .0009918213 .18099976-.07316589 .1459961-.13328552 .11299133-.16635132 .101989749-.17736817 .101989749-.17936707 .101989749-.18237305 .101989749-.18936157 .10699463-.19335938 .11199951-.19335938 .12298584-.19335938 .20298767-.116256717 .20298767 .0009918213Z"/>
<path id="font_4_3" d="M.45999146 .31976319C.45999146 .39982606 .45498658 .47988893 .41999818 .5539398 .37399293 .65000918 .2919922 .6660156 .25 .6660156 .18998719 .6660156 .116989139 .64001467 .07598877 .54693606 .04399109 .47789 .038986207 .39982606 .038986207 .31976319 .038986207 .24472046 .042999269 .15464783 .083999637 .07859802 .1269989-.0024719239 .19999695-.022460938 .24899292-.022460938 .30299378-.022460938 .3789978-.0014648438 .4229889 .09359741 .45498658 .16265869 .45999146 .2407074 .45999146 .31976319M.24899292-.00047302247C.20999146-.00047302247 .15098572 .024551392 .1329956 .12062073 .12199402 .18066406 .12199402 .2727356 .12199402 .3317871 .12199402 .39582826 .12199402 .46188355 .12998963 .5159149 .14898682 .63500979 .22399903 .64401248 .24899292 .64401248 .28199769 .64401248 .34799195 .6259918 .36698915 .52693179 .3769989 .47088624 .3769989 .39482118 .3769989 .3317871 .3769989 .25672914 .3769989 .18867493 .3659973 .12461853 .35099793 .029556275 .2939911-.00047302247 .24899292-.00047302247Z"/>
<path id="font_4_2" d="M.2889862 .25C.2889862 .32798768 .27799989 .44898988 .22299195 .56199648 .16299439 .68499758 .07699585 .75 .066986087 .75 .06098938 .75 .056991579 .74598696 .056991579 .73999026 .056991579 .7369995 .056991579 .73498538 .07598877 .71699526 .17399597 .6179962 .23098755 .45899964 .23098755 .25 .23098755 .07899475 .19400025-.09700012 .069992069-.2230072 .056991579-.23500061 .056991579-.23701477 .056991579-.2400055 .056991579-.2460022 .06098938-.25 .066986087-.25 .07699585-.25 .16699219-.18200684 .22599793-.055007936 .2769928 .054992677 .2889862 .16600037 .2889862 .25Z"/>
<path id="font_4_5" d="M.1269989 .07699585 .23298645 .18003845C.3889923 .31811524 .44898988 .3721466 .44898988 .47216798 .44898988 .5860901 .35899354 .6660156 .23699951 .6660156 .12399292 .6660156 .049987794 .57411196 .049987794 .48516847 .049987794 .4291687 .099990848 .4291687 .102996829 .4291687 .11999512 .4291687 .15499878 .44117738 .15499878 .48217774 .15499878 .5081787 .13699341 .5341797 .101989749 .5341797 .09399414 .5341797 .09199524 .5341797 .08898926 .5331726 .11199951 .59806826 .1659851 .63500979 .22399903 .63500979 .31498719 .63500979 .35798646 .5541382 .35798646 .47216798 .35798646 .39215089 .30799867 .31311036 .25299073 .25108338L.06098938 .036987306C.049987794 .025985718 .049987794 .023986817 .049987794 0H.42099L.44898988 .17404175H.42399598C.4189911 .14402771 .4119873 .1000061 .4019928 .084991458 .394989 .07699585 .32899476 .07699585 .30699159 .07699585H.1269989Z"/>
</defs>
<path transform="matrix(1.00009,0,0,-1.00003,120.56023,131.12454)" stroke-width=".19925" stroke-linecap="butt" stroke-miterlimit="10" stroke-linejoin="miter" fill="none" stroke="#929292" d="M-113.38724-113.38724H113.38724M-113.38724-85.04042H113.38724M-113.38724-56.69362H113.38724M-113.38724-28.3468H113.38724M-113.38724 0H113.38724M-113.38724 28.3468H113.38724M-113.38724 56.69362H113.38724M-113.38724 85.04042H113.38724M-113.38724 113.37727H113.38724M-113.38724-113.38724V113.38724M-85.04042-113.38724V113.38724M-56.69362-113.38724V113.38724M-28.3468-113.38724V113.38724M0-113.38724V113.38724M28.3468-113.38724V113.38724M56.69362-113.38724V113.38724M85.04042-113.38724V113.38724M113.37727-113.38724V113.38724M113.38724 113.38724"/>
<path transform="matrix(1.00009,0,0,-1.00003,120.56023,131.12454)" stroke-width="1.19553" stroke-linecap="butt" stroke-miterlimit="10" stroke-linejoin="miter" fill="none" stroke="#000000" d="M-119.0565 0H118.10008"/>
<path transform="matrix(1.00009,0,0,-1.00003,238.67093,131.12454)" stroke-width=".9564" stroke-linecap="round" stroke-linejoin="round" fill="none" stroke="#000000" d="M-1.91284 2.55046C-1.75343 1.59402 0 .15938 .4782 0 0-.15938-1.75343-1.59402-1.91284-2.55046"/>
<use data-text="x" xlink:href="#font_1_2" transform="matrix(9.963496,0,0,-9.962899,243.5463,133.2696)"/>
<path transform="matrix(1.00009,0,0,-1.00003,120.56023,131.12454)" stroke-width="1.19553" stroke-linecap="butt" stroke-miterlimit="10" stroke-linejoin="miter" fill="none" stroke="#000000" d="M0-119.0565V118.10008"/>
<path transform="matrix(0,-1.00003,-1.00009,-0,120.56023,13.020912)" stroke-width=".9564" stroke-linecap="round" stroke-linejoin="round" fill="none" stroke="#000000" d="M-1.91284 2.55046C-1.75343 1.59402 0 .15938 .4782 0 0-.15938-1.75343-1.59402-1.91284-2.55046"/>
<use data-text="y" xlink:href="#font_1_3" transform="matrix(9.963496,0,0,-9.962899,117.93899,6.208786)"/>
<g clip-path="url(#clip_2)">
<path transform="matrix(1.00009,0,0,-1.00003,120.56023,131.12454)" stroke-width=".79701" stroke-linecap="butt" stroke-dasharray="2.98883,2.98883" stroke-miterlimit="10" stroke-linejoin="miter" fill="none" stroke="#0000ff" d="M-113.38724 255.12128C-113.38724 255.12128-113.05908 253.15535-112.93306 252.4032-112.80704 251.65105-112.60492 250.44834-112.4789 249.70027-112.35287 248.95221-112.15074 247.75566-112.02472 247.01161-111.8987 246.26758-111.6966 245.07769-111.57057 244.33766-111.44453 243.59766-111.24243 242.41399-111.11641 241.678-110.99039 240.94199-110.78825 239.76494-110.66223 239.03302-110.53621 238.30112-110.33409 237.13066-110.20807 236.40277-110.08205 235.67487-109.87993 234.51064-109.75389 233.78676-109.62787 233.0629-109.42577 231.90529-109.29974 231.18549-109.17372 230.4657-108.9716 229.3147-108.84558 228.5989-108.71956 227.88312-108.51743 226.73838-108.3914 226.02661-108.26538 225.31485-108.06328 224.1767-107.93724 223.46901-107.81122 222.76134-107.60912 221.62978-107.4831 220.92612-107.35706 220.22246-107.15494 219.09714-107.02892 218.39749-106.9029 217.69786-106.70078 216.57921-106.57475 215.88359-106.44873 215.18798-106.2466 214.07555-106.12057 213.38394-105.99455 212.69235-105.79245 211.58652-105.66643 210.89902-105.54039 210.2115-105.33829 209.11223-105.21227 208.4288-105.08624 207.74536-104.88411 206.6527-104.75809 205.97328-104.63206 205.29389-104.42995 204.20749-104.30392 203.53203-104.1779 202.85659-103.9758 201.77643-103.84976 201.10506-103.72374 200.4337-103.52162 199.36052-103.3956 198.69322-103.26958 198.02594-103.06746 196.959-102.94144 196.29567-102.81541 195.63236-102.61328 194.57164-102.48726 193.91239-102.36124 193.25315-102.15913 192.19942-102.0331 191.54425-101.90707 190.88909-101.70497 189.84159-101.57895 189.19039-101.45291 188.53917-101.2508 187.4979-101.12477 186.85079-100.99875 186.20366-100.79663 185.16942-100.67061 184.52632-100.54459 183.88321-100.34245 182.85477-100.21643 182.2157-100.09041 181.57662-99.8883 180.55522-99.76228 179.92023-99.63625 179.28522-99.43414 178.26999-99.30812 177.63903-99.1821 177.00804-98.97997 175.9994-98.85394 175.37252-98.72792 174.7456-98.5258 173.74359-98.39978 173.12071-98.27376 172.49785-98.07166 171.50212-97.94562 170.8832-97.8196 170.26428-97.61748 169.27478-97.49146 168.65996-97.36543 168.04512-97.16331 167.0626-97.0373 166.45185-96.91127 165.8411-96.70914 164.86475-96.58311 164.25803-96.45709 163.65129-96.25499 162.68161-96.12895 162.07889-96.00293 161.47618-95.80083 160.51273-95.6748 159.91405-95.54877 159.31536-95.34665 158.3585-95.22063 157.76389-95.0946 157.16928-94.89249 156.21904-94.76646 155.62845-94.64044 155.03787-94.43832 154.09386-94.3123 153.5073-94.18628 152.92072-93.98416 151.98337-93.85814 151.40084-93.7321 150.81829-93.53 149.8871-93.40398 149.30864-93.27795 148.73018-93.07582 147.80599-92.9498 147.2316-92.82378 146.6572-92.62166 145.73925-92.49564 145.16883-92.36961 144.5984-92.16751 143.68674-92.04147 143.12033-91.91545 142.55391-91.71333 141.64885-91.58731 141.08654-91.46129 140.5242-91.25917 139.62569-91.13315 139.06743-91.00713 138.50919-90.805 137.61727-90.67897 137.06305-90.55295 136.50884-90.35085 135.62322-90.22481 135.07295-90.09879 134.52268-89.89668 133.6433-89.77066 133.0971-89.64462 132.55094-89.4425 131.67853-89.31648 131.13643-89.19046 130.59432-88.98834 129.72808-88.86232 129.18999-88.7363 128.65192-88.53418 127.79236-88.40816 127.25829-88.28214 126.72423-88.08002 125.87088-87.954 125.34085-87.82796 124.81082-87.62585 123.96413-87.49983 123.43811-87.37381 122.9121-87.17168 122.07158-87.04565 121.54965-86.91963 121.02771-86.71751 120.19418-86.59149 119.67632-86.46547 119.15846-86.26337 118.33116-86.13733 117.81728-86.0113 117.30339-85.80919 116.48239-85.68317 115.9725-85.55714 115.46263-85.35503 114.64822-85.229 114.14244-85.10298 113.63666-84.90086 112.82878-84.77484 112.32707-84.64882 111.82536-84.4467 111.0241-84.32066 110.52641-84.19464 110.02873-83.99254 109.2337-83.86652 108.74004-83.74048 108.24637-83.53836 107.45801-83.41234 106.96837-83.28632 106.47873-83.0842 105.69658-82.95818 105.21095-82.83215 104.72533-82.63004 103.9498-82.50401 103.46826-82.37799 102.98672-82.17587 102.21779-82.04985 101.74026-81.92381 101.26274-81.72171 100.50006-81.59569 100.02657-81.46967 99.55307-81.26753 98.79697-81.14151 98.32755-81.01549 97.85812-80.81337 97.10863-80.68735 96.64323-80.56133 96.17784-80.35922 95.43459-80.23318 94.9732-80.10716 94.51183-79.90504 93.77519-79.77902 93.3179-79.653 92.86061-79.45088 92.13055-79.32486 91.67728-79.19884 91.224-78.99672 90.50018-78.8707 90.05093-78.74467 89.60168-78.54254 88.88448-78.41652 88.4393-78.2905 87.99413-78.0884 87.28354-77.96237 86.84238-77.83633 86.40121-77.63422 85.69684-77.5082 85.2597-77.38217 84.82257-77.18005 84.12486-77.05403 83.69176-76.92801 83.25865-76.72589 82.56718-76.59987 82.13809-76.47385 81.709-76.27173 81.02414-76.1457 80.59912-76.01967 80.1741-75.81757 79.49583-75.69154 79.07484-75.56552 78.65385-75.3634 77.98183-75.23738 77.56487-75.11136 77.1479-74.90923 76.48247-74.7832 76.06958-74.65718 75.6567-74.45508 74.99788-74.32904 74.589-74.20302 74.18013-74.0009 73.52754-73.87488 73.1227-73.74886 72.71785-73.54674 72.07187-73.42072 71.6711-73.2947 71.27034-73.09258 70.63095-72.96655 70.2342-72.84053 69.83746-72.6384 69.20433-72.51237 68.8116-72.38635 68.41887-72.18425 67.79231-72.05823 67.40369-71.93219 67.01505-71.73007 66.39511-71.60405 66.01048-71.47803 65.62585-71.27591 65.01213-71.14989 64.63153-71.02386 64.25095-70.82175 63.64389-70.69572 63.26732-70.5697 62.89073-70.36758 62.28986-70.24156 61.91736-70.11552 61.54486-69.91342 60.95103-69.7874 60.58255-69.66138 60.21407-69.45926 59.62602-69.33324 59.26158-69.20721 58.89713-69.00508 58.31613-68.87906 57.95575-68.75304 57.59538-68.55093 57.02054-68.4249 56.6642-68.29887 56.30785-68.09676 55.73967-67.97073 55.38733-67.84471 55.035-67.6426 54.47307-67.51657 54.12477-67.39055 53.77646-67.18843 53.22112-67.06241 52.87688-66.93639 52.53265-66.73425 51.98393-66.60823 51.64372-66.48221 51.30353-66.2801 50.76103-66.15408 50.42484-66.02805 50.08864-65.82594 49.55275-65.69992 49.22064-65.5739 48.88852-65.37177 48.35925-65.24574 48.03116-65.11972 47.70306-64.9176 47.18002-64.79158 46.85596-64.66556 46.53189-64.46344 46.01552-64.33742 45.69547-64.21138 45.37543-64.00928 44.8652-63.88326 44.54924-63.75723 44.23326-63.55511 43.73009-63.4291 43.41815-63.30307 43.1062-63.10094 42.60881-62.97491 42.3009-62.84889 41.99298-62.64679 41.50264-62.52075 41.19879-62.39473 40.89496-62.19261 40.41078-62.06659 40.11096-61.94057 39.81113-61.73845 39.33363-61.61243 39.03784-61.4864 38.74203-61.28429 38.27078-61.15826 37.97899-61.03224 37.6872-60.83011 37.22253-60.70409 36.93484-60.57806 36.64714-60.37596 36.18907-60.24994 35.9054-60.1239 35.6217-59.9218 35.16989-59.79578 34.89023-59.66975 34.61058-59.46762 34.16534-59.3416 33.88976-59.21558 33.61418-59.01346 33.17557-58.88744 32.90402-58.76141 32.63246-58.5593 32.20007-58.43326 31.93254-58.30724 31.665-58.10513 31.23921-57.97911 30.97575-57.85309 30.71231-57.65097 30.29312-57.52495 30.03369-57.39893 29.77425-57.1968 29.36131-57.07077 29.1059-56.94475 28.8505-56.74265 28.44414-56.61661 28.19281-56.49059 27.94147-56.28848 27.54173-56.16246 27.29443-56.03644 27.04712-55.8343 26.65363-55.70828 26.41032-55.58226 26.16704-55.38014 25.7802-55.25412 25.54092-55.1281 25.30167-54.92596 24.92104-54.79994 24.68579-54.67392 24.45053-54.47182 24.07654-54.3458 23.84537-54.21976 23.61421-54.01765 23.24681-53.89163 23.01967-53.76561 22.79251-53.56348 22.43134-53.43745 22.2082-53.31143 21.98509-53.10931 21.63052-52.98329 21.41148-52.85727 21.19243-52.65515 20.84447-52.52911 20.62946-52.40309 20.41444-52.20099 20.0727-52.07497 19.8617-51.94894 19.6507-51.74683 19.31557-51.6208 19.10866-51.49478 18.90173-51.29265 18.57321-51.16663 18.3703-51.0406 18.1674-50.8385 17.84511-50.71246 17.64624-50.58644 17.44736-50.38434 17.13168-50.25832 16.93687-50.1323 16.74208-49.93016 16.433-49.80414 16.24222-49.67812 16.05142-49.476 15.74858-49.34998 15.56183-49.22395 15.37508-49.02182 15.07889-48.8958 14.89616-48.76978 14.71344-48.56767 14.42348-48.44165 14.24477-48.31561 14.06606-48.11351 13.7827-47.98749 13.60806-47.86147 13.43341-47.65933 13.15662-47.53331 12.98607-47.40729 12.81552-47.20517 12.54533-47.07915 12.3788-46.95313 12.21227-46.75102 11.94835-46.62498 11.78578-46.49896 11.62321-46.29684 11.36554-46.17082 11.20705-46.0448 11.04855-45.84268 10.79785-45.71666 10.64345-45.59064 10.48904-45.3885 10.2445-45.26248 10.09412-45.13646 9.94373-44.93436 9.70587-44.80832 9.55951-44.6823 9.41315-44.4802 9.18152-44.35417 9.03917-44.22815 8.89682-44.02602 8.67186-43.9 8.53354-43.77397 8.3952-43.57185 8.1764-43.44583 8.04216-43.31981 7.90791-43.11768 7.6961-42.99165 7.56595-42.86563 7.43578-42.66353 7.2302-42.5375 7.10399-42.41147 6.97778-42.20937 6.77849-42.08334 6.65631-41.95732 6.53413-41.75519 6.34145-41.62917 6.22334-41.50314 6.10524-41.30103 5.9191-41.175 5.80508-41.04898 5.69107-40.84688 5.51152-40.72084 5.40152-40.59482 5.29152-40.3927 5.11827-40.26668 5.01224-40.14066 4.9062-39.93854 4.73918-39.81252 4.63722-39.6865 4.53526-39.48436 4.37523-39.35834 4.27736-39.23232 4.17949-39.03021 4.02562-38.90417 3.93176-38.77815 3.8379-38.57605 3.6907-38.45003 3.60088-38.32399 3.51105-38.12187 3.37006-37.99585 3.28424-37.86983 3.19843-37.66771 3.06406-37.54169 2.98233-37.41566 2.9006-37.21355 2.77284-37.08752 2.69513-36.9615 2.61742-36.75938 2.49588-36.63336 2.4222-36.50732 2.34851-36.30522 2.23364-36.1792 2.16399-36.05318 2.09431-35.85104 1.9856-35.72502 1.92001-35.599 1.85443-35.39688 1.75272-35.27086 1.69121-35.14484 1.6297-34.94273 1.53421-34.8167 1.47667-34.69067 1.41913-34.48856 1.32994-34.36253 1.27641-34.23651 1.22289-34.0344 1.14029-33.90837 1.09084-33.78235 1.04138-33.58022 .96541-33.4542 .91998-33.32817 .87456-33.12607 .80475-33.00003 .76343-32.87401 .72209-32.6719 .6593-32.54588 .62198-32.41985 .58466-32.21773 .52768-32.0917 .49437-31.96568 .46107-31.76357 .41113-31.63754 .38191-31.51152 .35269-31.3094 .30898-31.18338 .28372-31.05736 .25847-30.85524 .221-30.72922 .19983-30.60318 .17865-30.40108 .14815-30.27505 .13104-30.14903 .11395-29.9469 .08969-29.82088 .07655-29.69485 .06342-29.49274 .04538-29.36671 .03633-29.24069 .02727-29.03859 .0162-28.91255 .01123-28.78653 .00626-28.58441 .00143-28.45839 .00041-28.33237-.00058-28.13025 .00089-28.00423 .00389-27.8782 .00688-27.67609 .01498-27.55006 .02205-27.42404 .02911-27.22192 .04376-27.09589 .05492-26.96986 .06607-26.76776 .08733-26.64174 .1025-26.5157 .11768-26.31358 .14516-26.18756 .16435-26.06154 .18356-25.85942 .2177-25.7334 .2409-25.60738 .26413-25.40526 .3045-25.27924 .33174-25.15321 .359-24.9511 .40596-24.82507 .43727-24.69904 .4686-24.49693 .52219-24.37091 .55753-24.24489 .59286-24.04277 .6527-23.91675 .69205-23.79073 .7314-23.5886 .79782-23.46257 .84126-23.33655 .88472-23.13445 .95775-23.0084 1.0052-22.88239 1.05267-22.68027 1.13191-22.55424 1.18341-22.42822 1.2349-22.2261 1.32076-22.10008 1.37631-21.97406 1.43188-21.77194 1.52434-21.64592 1.58394-21.5199 1.64352-21.31778 1.74223-21.19174 1.80583-21.06572 1.86945-20.86362 1.9748-20.7376 2.04242-20.61156 2.11006-20.40944 2.22165-20.28342 2.2933-20.1574 2.36494-19.95528 2.48314-19.82925 2.55888-19.70323 2.63461-19.50111 2.75935-19.37509 2.83916-19.24907 2.91898-19.04695 3.05031-18.92093 3.13416-18.79489 3.21799-18.59279 3.35558-18.46677 3.44342-18.34074 3.53128-18.13863 3.6755-18.0126 3.7674-17.88658 3.85927-17.68445 4.00974-17.55843 4.10564-17.4324 4.20152-17.2303 4.35861-17.10426 4.45859-16.97824 4.55855-16.77612 4.72224-16.6501 4.82623-16.52408 4.93024-16.32196 5.10016-16.19594 5.20818-16.06992 5.3162-15.8678 5.4927-15.74178 5.60481-15.61575 5.7169-15.41364 5.90005-15.2876 6.01616-15.16158 6.13228-14.95947 6.32162-14.83345 6.44177-14.70741 6.5619-14.50531 6.75787-14.37929 6.8821-14.25327 7.00632-14.05113 7.20888-13.92511 7.33713-13.79909 7.46536-13.59697 7.67418-13.47095 7.80644-13.34492 7.93869-13.1428 8.15414-13.01678 8.29044-12.89075 8.42673-12.68864 8.64842-12.56262 8.78873-12.4366 8.92903-12.23448 9.15733-12.10846 9.30171-11.98244 9.4461-11.7803 9.68095-11.65428 9.8294-11.52826 9.97787-11.32616 10.21933-11.20012 10.37181-11.0741 10.5243-10.87198 10.77205-10.74596 10.9285-10.61993 11.08495-10.41782 11.3389-10.2918 11.49944-10.16577 11.65997-9.96365 11.92093-9.83763 12.08554-9.71161 12.25014-9.50949 12.51732-9.38345 12.6859-9.25743 12.85446-9.05533 13.12787-8.9293 13.30052-8.80327 13.47318-8.60117 13.75357-8.47514 13.93031-8.34912 14.10706-8.14699 14.39366-8.02097 14.57436-7.89494 14.75505-7.69283 15.0479-7.5668 15.23268-7.44078 15.41747-7.23866 15.71735-7.11264 15.90614-6.9866 16.09494-6.7845 16.40062-6.65848 16.59344-6.53246 16.78625-6.33034 17.09898-6.20432 17.29588-6.0783 17.49277-5.87616 17.81168-5.75014 18.0126-5.62411 18.21353-5.42201 18.53902-5.29597 18.74402-5.16995 18.94902-4.96785 19.28111-4.84183 19.49014-4.7158 19.69917-4.51367 20.03757-4.38765 20.25055-4.26163 20.46353-4.05951 20.80815-3.93349 21.02522-3.80746 21.2423-3.60535 21.5939-3.47931 21.81505-3.35329 22.0362-3.15118 22.39397-3.02516 22.61913-2.89912 22.84428-2.69702 23.20872-2.571 23.43791-2.44498 23.6671-2.24284 24.03777-2.11682 24.27098-1.9908 24.5042-1.78868 24.88148-1.66266 25.11877-1.53664 25.35605-1.33452 25.73993-1.2085 25.98123-1.08246 26.22253-.88036 26.61267-.75433 26.858-.62831 27.10333-.4262 27.5001-.30017 27.74945-.17415 27.9988 .02795 28.40176 .15398 28.6552 .28 28.90862 .4821 29.31856 .60814 29.57607 .73416 29.83357 .93626 30.24974 1.06229 30.51122 1.18831 30.77269 1.39044 31.19514 1.51646 31.46063 1.64249 31.72612 1.8446 32.15518 1.97063 32.42476 2.09665 32.69434 2.29878 33.12996 2.4248 33.40361 2.55083 33.67726 2.75293 34.11945 2.87895 34.39713 3.00499 34.6748 3.20709 35.1233 3.33311 35.40494 3.45914 35.68657 3.66127 36.14131 3.7873 36.42703 3.91331 36.71275 4.11543 37.17447 4.24146 37.46426 4.36748 37.75406 4.56958 38.222 4.6956 38.51578 4.82164 38.80954 5.02376 39.28369 5.14978 39.58154 5.2758 39.87938 5.47792 40.36052 5.60394 40.66245 5.72997 40.96437 5.9321 41.45175 6.05812 41.75764 6.18414 42.06352 6.38625 42.55713 6.51228 42.8671 6.6383 43.17706 6.84041 43.67764 6.96643 43.99168 7.09245 44.30573 7.29459 44.81255 7.42061 45.13055 7.54663 45.44858 7.74875 45.96169 7.87477 46.2837 8.0008 46.60573 8.20293 47.12546 8.32895 47.45157 8.45497 47.77768 8.65707 48.30394 8.7831 48.63412 8.90913 48.96432 9.11124 49.49718 9.23726 49.83139 9.36328 50.1656 9.56541 50.7047 9.69144 51.04292 9.81746 51.38116 10.01958 51.92691 10.1456 52.26917 10.27162 52.61142 10.47372 53.16342 10.59975 53.50969 10.72578 53.85597 10.9279 54.41457 11.05392 54.76492 11.17995 55.11528 11.38206 55.68048 11.50809 56.03485 11.63411 56.38922 11.83624 56.96065 11.96227 57.31905 12.08829 57.67746 12.29039 58.2555 12.41643 58.61797 12.54245 58.98044 12.74455 59.56508 12.87057 59.9316 12.9966 60.2981 13.19873 60.88896 13.32475 61.25948 13.45078 61.63 13.6529 62.22748 13.77892 62.60208 13.90494 62.97667 14.10706 63.58076 14.23308 63.95938 14.3591 64.338 14.56122 64.94832 14.68724 65.33095 14.81328 65.71358 15.01538 66.33057 15.1414 66.71724 15.26743 67.1039 15.46956 67.72705 15.59558 68.1178 15.7216 68.50853 15.92372 69.13873 16.04974 69.5335 16.17577 69.92825 16.37787 70.56425 16.50389 70.96304 16.62993 71.36182 16.83205 72.00485 16.95807 72.40771 17.08409 72.81058 17.28621 73.45978 17.41223 73.86667 17.53825 74.27354 17.74039 74.9294 17.86641 75.34032 17.99243 75.75122 18.19453 76.41333 18.32057 76.82825 18.4466 77.24318 18.6487 77.91188 18.77472 78.33089 18.90074 78.74991 19.10287 79.4252 19.2289 79.84824 19.35492 80.27126 19.55704 80.95279 19.68306 81.37985 19.80908 81.8069 20.0112 82.49503 20.13722 82.92616 20.26324 83.35728 20.46536 84.05203 20.59138 84.4872 20.71742 84.92235 20.91953 85.62332 21.04555 86.0625 21.17157 86.50166 21.3737 87.20926 21.49973 87.65251 21.62575 88.09578 21.82787 88.80995 21.95389 89.25722 22.07991 89.7045 22.28201 90.42491 22.40805 90.87622 22.53407 91.32751 22.73619 92.0546 22.86221 92.50992 22.98824 92.96523 23.19035 93.69849 23.31638 94.15788 23.4424 94.6173 23.64452 95.35757 23.77054 95.821 23.89656 96.28441 24.09868 97.0305 24.22472 97.49794 24.35074 97.9654 24.55284 98.7185 24.67886 99.19003 24.80489 99.66154 25.00702 100.42084 25.13304 100.8964 25.25906 101.37193 25.46118 102.13791 25.5872 102.61746 25.71323 103.09703 25.91534 103.86922 26.04137 104.3528 26.16739 104.8364 26.3695 105.61519 26.49553 106.10286 26.62157 106.59052 26.82367 107.37592 26.94969 107.8676 27.07571 108.3593 27.27785 109.15092 27.40387 109.64664 27.52989 110.14233 27.73201 110.94058 27.85803 111.44037 27.98405 111.94017 28.18616 112.74501 28.3122 113.24883 28.43822 113.75262 28.64034 114.56369 28.76636 115.07152 28.89238 115.57935 29.0945 116.3971 29.22052 116.90895 29.34654 117.4208 29.54866 118.24472 29.67468 118.76065 29.8007 119.27657 30.00282 120.10753 30.12886 120.62747 30.25488 121.14743 30.45699 121.98419 30.58301 122.50816 30.70903 123.03212 30.91116 123.87592 31.03719 124.40396 31.16321 124.93202 31.36533 125.78198 31.49135 126.31406 31.61737 126.84612 31.81949 127.70276 31.94551 128.23885 32.07153 128.77495 32.27365 129.63782 32.39967 130.17792 32.52571 130.71804 32.72781 131.5875 32.85384 132.1317 32.97986 132.6759 33.18198 133.55196 33.308 134.10018 33.43402 134.64839 33.63615 135.53067 33.76218 136.08292 33.8882 136.63516 34.0903 137.52407 34.21634 138.08039 34.34236 138.6367 34.54448 139.5322 34.6705 140.09255 34.79652 140.6529 34.99864 141.55463 35.12466 142.11899 35.25069 142.68335 35.4528 143.59169 35.57883 144.16014 35.70485 144.72859 35.90697 145.64354 36.033 146.21599 36.15903 146.78845 36.36113 147.70964 36.48715 148.28612 36.61317 148.86261 36.8153 149.79045 36.94133 150.37096 37.06735 150.95146 37.26947 151.88547 37.3955 152.47006 37.52151 153.05466 37.72363 153.9957 37.84966 154.5843 37.97568 155.17292 38.1778 156.11977 38.30382 156.7124 38.42986 157.30504 38.63196 158.25891 38.75798 158.85562 38.884 159.45233 39.08612 160.41239 39.21214 161.0131 39.33817 161.61385 39.5403 162.58058 39.66632 163.18532 39.79234 163.79007 39.99445 164.76302 40.12048 165.3718 40.2465 165.98058 40.44862 166.96013 40.57465 167.57299 40.70067 168.18584 40.90279 169.172 41.02881 169.78888 41.15483 170.40576 41.35695 171.39815 41.48297 172.01905 41.609 172.63994 41.81111 173.63893 41.93715 174.26392 42.06317 174.8889 42.26527 175.8945 42.3913 176.5235 42.51733 177.1525 42.71944 178.16432 42.84546 178.79735 42.97148 179.43038 43.17361 180.4488 43.29964 181.0859 43.42566 181.723 43.62778 182.74806 43.7538 183.38918 43.87982 184.03029 44.08194 185.06157 44.20796 185.70671 44.334 186.35186 44.5361 187.3898 44.66212 188.03897 44.78815 188.68814 44.99026 189.7323 45.11629 190.38549 45.24231 191.03867 45.44444 192.08945 45.57047 192.7467 45.69649 193.40396 45.89859 194.46129 46.02463 195.12264 46.15065 195.78398 46.35277 196.8479 46.47879 197.51326 46.60481 198.17862 46.80693 199.24886 46.93295 199.91819 47.05898 200.58751 47.2611 201.66397 47.38712 202.33737 47.51314 203.01078 47.71526 204.0942 47.8413 204.77169 47.96732 205.44919 48.16942 206.53885 48.29544 207.22029 48.42148 207.90174 48.62358 208.99764 48.7496 209.68317 48.87563 210.3687 49.07776 211.47158 49.20378 212.16118 49.3298 212.85079 49.53192 213.95987 49.65794 214.65345 49.78397 215.34702 49.98608 216.46236 50.1121 217.16 50.23814 217.85767 50.44025 218.98003 50.56627 219.6817 50.69229 220.38338 50.89441 221.51155 51.02043 222.21724 51.14645 222.92293 51.34859 224.05814 51.47461 224.76792 51.60063 225.47769 51.80273 226.61908 51.92877 227.33287 52.0548 228.04666 52.2569 229.1947 52.38292 229.91252 52.50894 230.63034 52.71107 231.78456 52.8371 232.50646 52.96312 233.22835 53.16524 234.3896 53.29126 235.11553 53.41728 235.84145 53.6194 237.0085 53.74544 237.73845 53.87146 238.46839 54.07356 239.64246 54.19958 240.37648 54.32562 241.11052 54.52773 242.29077 54.65375 243.02881 54.77977 243.76685 54.9819 244.95377 55.10793 245.69585 55.23395 246.43791 55.43607 247.63106 55.56209 248.37714 55.68811 249.12322 55.89023 250.32297 56.01625 251.07315 56.14229 251.82332 56.34439 253.0297 56.47041 253.78388 56.59644 254.53806 56.79855 255.75064 56.92458 256.50886 57.0506 257.26707 57.25273 258.48634 57.37875 259.24855 57.50478 260.0108 57.70688 261.2362 57.83292 262.00254 57.95894 262.76884 58.16104 264.0013 58.28706 264.77165 58.41309 265.54197 58.61522 266.78025 58.74124 267.55458 58.86726 268.32893 59.06938 269.57423 59.1954 270.35267 59.32143 271.1311 59.52354 272.38258 59.64958 273.165 59.7756 273.94749 59.9777 275.2056 60.10373 275.9921 60.22977 276.77857 60.43187 278.0429 60.55789 278.83345 60.68391 279.624 60.88605 280.89537 61.01207 281.6899 61.13809 282.4845 61.34021 283.76167 61.46623 284.56025 61.59225 285.35884 61.79436 286.643 61.92038 287.4457 62.04642 288.24839 62.24854 289.5388 62.37456 290.34544 62.50058 291.15208 62.7027 292.44874 62.82872 293.25947 62.95474 294.07017 63.15688 295.3738 63.2829 296.18858 63.40892 297.0034 63.61102 298.31327 63.73706 299.13203 63.86308 299.95079 64.06519 301.26689 64.19121 302.0897 64.31723 302.91255 64.51936 304.2357 64.64539 305.06257 64.77141 305.88945 64.97353 307.21836 65.09955 308.04924 65.22557 308.8801 65.42767 310.21607 65.55371 311.05104 65.67973 311.886 65.88185 313.22813 66.00787 314.0671 66.13391 314.9061 66.33601 316.25486 66.46204 317.0979 66.58806 317.94099 66.79019 319.29634 66.91621 320.14344 67.04224 320.9905 67.24435 322.35215 67.37038 323.2032 67.4964 324.05424 67.6985 325.4221 67.82452 326.27723 67.95056 327.13236 68.15268 328.5072 68.2787 329.36643 68.40472 330.22563 68.60684 331.60664 68.73286 332.46989 68.85889 333.3331 69.06102 334.7208 69.18704 335.58805 69.31306 336.4553 69.51517 337.8492 69.6412 338.7205 69.76723 339.59175 69.96933 340.99226 70.09535 341.8676 70.22137 342.743 70.42351 344.15013 70.54953 345.0295 70.67555 345.90888 70.87767 347.3222 71.0037 348.2056 71.12971 349.089 71.33182 350.50898 71.45786 351.39646 71.58388 352.2839 71.786 353.71049 71.91202 354.60197 72.03806 355.49348 72.24016 356.92628 72.36618 357.8218 72.4922 358.71733 72.69434 360.15678 72.82036 361.0563 72.94638 361.95588 73.1485 363.40156 73.27452 364.3051 73.40054 365.20869 73.60265 366.66099 73.72867 367.56864 73.8547 368.47624 74.05682 369.9351 74.18285 370.84684 74.30887 371.75856 74.51099 373.224 74.63701 374.1397 74.76303 375.05549 74.96515 376.52717 75.09117 377.4469 75.2172 378.36668 75.41931 379.84504 75.54535 380.7688 75.67137 381.6926 75.87347 383.1772 75.9995 384.10499 76.12552 385.03279 76.32765 386.52397 76.45367 387.45585 76.5797 388.38774 76.78181 389.8855 76.90784 390.82145 77.03386 391.75733 77.23596 393.26136 77.362 394.20127 77.48802 395.1412 77.69014 396.65184 77.81616 397.59584 77.9422 398.53984 78.1443 400.05708 78.27032 401.0051 78.39635 401.95314 78.59848 403.4766 78.7245 404.42863 78.85052 405.38069 79.05264 406.9108 79.17867 407.86689 79.30469 408.82295 79.50679 410.35926 79.63281 411.3194 79.75885 412.27955 79.96097 413.8228 80.08699 414.78706 80.21301 415.75129 80.41513 417.30079 80.54115 418.26899 80.66718 419.23719 80.8693 420.79298 80.99532 421.76518 81.12134 422.7374 81.32346 424.2998 81.4495 425.2761 81.57552 426.2524 81.77762 427.8214 81.90364 428.8017 82.02966 429.78205 82.2318 431.3572 82.35782 432.3416 82.48384 433.326 82.68596 434.90824 82.81198 435.89665 82.938 436.88508 83.1401 438.47306 83.26614 439.4655 83.39217 440.45796 83.59428 442.053 83.7203 443.0495 83.84634 444.04606 84.04845 445.6473 84.17447 446.6478 84.30049 447.6483 84.50261 449.25578 84.62863 450.26036 84.75465 451.26493 84.95679 452.8794 85.08281 453.88807 85.20883 454.8967 85.41093 456.51744 85.53696 457.53004 85.663 458.54264 85.86511 460.16966 85.99113 461.18629 86.11716 462.2029 86.31927 463.8365 86.4453 464.8572 86.57132 465.8779 86.77344 467.51808 86.89946 468.54289 87.02548 469.56767 87.2276 471.21443 87.35364 472.24324 87.47966 473.27207 87.68176 474.92503 87.80779 475.95787 87.9338 476.9907 88.13594 478.65037 88.26196 479.6872 88.38799 480.72407 88.5901 482.3899 88.71613 483.43083 88.84215 484.47178 89.04427 486.14466 89.17029 487.18959 89.29631 488.23454 89.49843 489.9132 89.62445 490.96217 89.75049 492.01115 89.95259 493.69685 90.07861 494.7499 90.20464 495.80296 90.40675 497.49485 90.53278 498.55195 90.6588 499.609 90.86093 501.30754 90.98695 502.36866 91.11298 503.42976 91.31508 505.13453 91.4411 506.19963 91.56714 507.26475 91.76926 508.97615 91.89528 510.04533 92.0213 511.11454 92.22342 512.8325 92.34944 513.9057 92.47546 514.97897 92.67758 516.7032 92.8036 517.7804 92.92963 518.85769 93.13174 520.5885 93.25778 521.6698 93.3838 522.7511 93.5859 524.4881 93.71193 525.5734 93.83795 526.6588 94.04007 528.40286 94.16609 529.49227 94.29211 530.5816 94.49425 532.3315 94.62027 533.42489 94.74629 534.51828 94.94841 536.2752 95.07443 537.3726 95.20045 538.4701 95.40257 540.2332 95.5286 541.3347 95.65463 542.43618 95.85674 544.20596 95.98276 545.31149 96.10878 546.41696 96.3109 548.1929 96.43692 549.3025 96.56294 550.41207 96.76508 552.195 96.8911 553.30868 97.01712 554.42227 97.21922 556.211 97.34525 557.3286 97.47128 558.4463 97.6734 560.2421 97.79942 561.3638 97.92545 562.4855 98.12756 564.28756 98.25359 565.4132 98.37961 566.5389 98.58173 568.34719 98.70775 569.4769 98.83377 570.6067 99.03589 572.4219 99.16193 573.5557 99.28795 574.6896 99.49005 576.51107 99.61607 577.64889 99.7421 578.7866 99.94421 580.6144 100.07024 581.7562 100.19626 582.89816 100.39839 584.7328 100.52441 585.8787 100.65044 587.0247 100.85255 588.8656 100.97858 590.01559 101.1046 591.16549 101.30672 593.0127 101.43274 594.1666 101.55878 595.32058 101.76088 597.1744 101.8869 598.3324 102.01292 599.4904 102.21504 601.35079 102.34106 602.5129 102.46709 603.675 102.66922 605.54196 102.79524 606.70809 102.92126 607.8742 103.12337 609.7474 103.24939 610.9175 103.37543 612.08767 103.57753 613.9675 103.70355 615.14169 103.82957 616.31588 104.03171 618.2019 104.15773 619.3801 104.28375 620.5583 104.48587 622.451 104.6119 623.63327 104.73792 624.8155 104.94003 626.71487 105.06607 627.9011 105.1921 629.0874 105.3942 630.9929 105.52022 632.1832 105.64624 633.3736 105.84836 635.2857 105.97438 636.48007 106.1004 637.67446 106.30254 639.5932 106.42856 640.7916 106.55458 641.99 106.7567 643.915 106.88272 645.11746 107.00874 646.3198 107.21086 648.2514 107.33688 649.45797 107.46292 650.6644 107.66502 652.6026 107.79105 653.8132 107.91707 655.0237 108.11919 656.96817 108.24521 658.1827 108.37123 659.3972 108.57336 661.34829 108.69939 662.56686 108.82541 663.78549 109.02751 665.7427 109.15355 666.96536 109.27957 668.188 109.48167 670.1523 109.6077 671.37899 109.73372 672.60568 109.93585 674.57577 110.06187 675.80648 110.1879 677.0371 110.39001 679.0142 110.51604 680.249 110.64206 681.4838 110.84418 683.4671 110.97021 684.7059 111.09624 685.9447 111.29834 687.93466 111.42436 689.1775 111.55038 690.4203 111.7525 692.4165 111.87852 693.6633 112.00455 694.91018 112.20668 696.91299 112.3327 698.1639 112.45872 699.4148 112.66084 701.4242 112.78687 702.67916 112.91289 703.9341 113.24101 707.2087 113.24101 707.2087"/>
<path transform="matrix(1.00009,0,0,-1.00003,120.56023,131.12454)" stroke-width=".79701" stroke-linecap="butt" stroke-miterlimit="10" stroke-linejoin="miter" fill="none" stroke="#0000ff" d="M-113.38724 510.24259C-113.38724 510.24259-113.05908 506.3107-112.93306 504.8064-112.80704 503.30213-112.60492 500.8967-112.4789 499.40058-112.35287 497.90443-112.15074 495.51136-112.02472 494.02326-111.8987 492.53517-111.6966 490.1554-111.57057 488.67536-111.44453 487.1953-111.24243 484.828-111.11641 483.356-110.99039 481.884-110.78825 479.5299-110.66223 478.06608-110.53621 476.60224-110.33409 474.26136-110.20807 472.80555-110.08205 471.34974-109.87993 469.02134-109.75389 467.57356-109.62787 466.1258-109.42577 463.8106-109.29974 462.371-109.17372 460.9314-108.9716 458.62944-108.84558 457.1978-108.71956 455.76628-108.51743 453.47676-108.3914 452.05323-108.26538 450.6297-108.06328 448.3534-107.93724 446.93803-107.81122 445.52268-107.60912 443.25959-107.4831 441.85227-107.35706 440.44493-107.15494 438.1943-107.02892 436.795-106.9029 435.39576-106.70078 433.15843-106.57475 431.7672-106.44873 430.37596-106.2466 428.15113-106.12057 426.7679-105.99455 425.38475-105.79245 423.17308-105.66643 421.79808-105.54039 420.42304-105.33829 418.22447-105.21227 416.8576-105.08624 415.49076-104.88411 413.3054-104.75809 411.9466-104.63206 410.58775-104.42995 408.415-104.30392 407.0641-104.1779 405.71318-103.9758 403.5529-103.84976 402.21015-103.72374 400.8674-103.52162 398.72105-103.3956 397.38648-103.26958 396.0519-103.06746 393.918-102.94144 392.59135-102.81541 391.2647-102.61328 389.1433-102.48726 387.8248-102.36124 386.5063-102.15913 384.39888-102.0331 383.08854-101.90707 381.77818-101.70497 379.68318-101.57895 378.38078-101.45291 377.07835-101.2508 374.99583-101.12477 373.70158-100.99875 372.40733-100.79663 370.33885-100.67061 369.05265-100.54459 367.76643-100.34245 365.7096-100.21643 364.4314-100.09041 363.15324-99.8883 361.11048-99.76228 359.84046-99.63625 358.57048-99.43414 356.54-99.30812 355.27806-99.1821 354.01609-98.97997 351.99885-98.85394 350.74504-98.72792 349.49125-98.5258 347.4872-98.39978 346.24147-98.27376 344.9957-98.07166 343.00428-97.94562 341.76643-97.8196 340.5286-97.61748 338.5496-97.49146 337.31993-97.36543 336.09028-97.16331 334.1252-97.0373 332.9037-96.91127 331.6822-96.70914 329.72953-96.58311 328.51606-96.45709 327.30259-96.25499 325.36323-96.12895 324.15779-96.00293 322.9524-95.80083 321.02549-95.6748 319.8281-95.54877 318.6307-95.34665 316.71705-95.22063 315.5278-95.0946 314.3386-94.89249 312.4381-94.76646 311.2569-94.64044 310.07575-94.43832 308.18775-94.3123 307.0146-94.18628 305.84147-93.98416 303.96675-93.85814 302.80168-93.7321 301.63658-93.53 299.77424-93.40398 298.6173-93.27795 297.46034-93.07582 295.61198-92.9498 294.4632-92.82378 293.3144-92.62166 291.4785-92.49564 290.33766-92.36961 289.1968-92.16751 287.37348-92.04147 286.24067-91.91545 285.10783-91.71333 283.29774-91.58731 282.17308-91.46129 281.0484-91.25917 279.2514-91.13315 278.1349-91.00713 277.0184-90.805 275.23457-90.67897 274.12614-90.55295 273.01768-90.35085 271.24644-90.22481 270.14595-90.09879 269.04539-89.89668 267.28663-89.77066 266.19425-89.64462 265.10188-89.4425 263.35707-89.31648 262.27287-89.19046 261.18864-88.98834 259.45619-88.86232 258.38-88.7363 257.30387-88.53418 255.58472-88.40816 254.51659-88.28214 253.44847-88.08002 251.74179-87.954 250.68172-87.82796 249.62163-87.62585 247.92827-87.49983 246.87624-87.37381 245.82419-87.17168 244.14319-87.04565 243.09932-86.91963 242.05544-86.71751 240.38838-86.59149 239.35266-86.46547 238.31696-86.26337 236.66236-86.13733 235.63457-86.0113 234.60678-85.80919 232.96479-85.68317 231.94503-85.55714 230.92528-85.35503 229.29647-85.229 228.28488-85.10298 227.2733-84.90086 225.65758-84.77484 224.65416-84.64882 223.65074-84.4467 222.04824-84.32066 221.05286-84.19464 220.05748-83.99254 218.46743-83.86652 217.48009-83.74048 216.49275-83.53836 214.91603-83.41234 213.93674-83.28632 212.95745-83.0842 211.39319-82.95818 210.42194-82.83215 209.45069-82.63004 207.89963-82.50401 206.93654-82.37799 205.97345-82.17587 204.43561-82.04985 203.48056-81.92381 202.52552-81.72171 201.00014-81.59569 200.05313-81.46967 199.10613-81.26753 197.59395-81.14151 196.6551-81.01549 195.71627-80.81337 194.2173-80.68735 193.2865-80.56133 192.3557-80.35922 190.8692-80.23318 189.94644-80.10716 189.02368-79.90504 187.5504-79.77902 186.6358-79.653 185.7212-79.45088 184.26113-79.32486 183.35457-79.19884 182.44802-78.99672 181.0004-78.8707 180.10189-78.74467 179.20337-78.54254 177.76898-78.41652 176.87862-78.2905 175.98825-78.0884 174.56708-77.96237 173.68476-77.83633 172.80243-77.63422 171.39373-77.5082 170.51944-77.38217 169.64516-77.18005 168.24977-77.05403 167.38353-76.92801 166.51729-76.72589 165.13439-76.59987 164.27619-76.47385 163.41799-76.27173 162.04828-76.1457 161.19824-76.01967 160.3482-75.81757 158.99172-75.69154 158.14972-75.56552 157.30773-75.3634 155.96369-75.23738 155.12973-75.11136 154.29579-74.90923 152.96497-74.7832 152.13918-74.65718 151.31339-74.45508 149.99576-74.32904 149.17801-74.20302 148.36026-74.0009 147.05512-73.87488 146.2454-73.74886 145.43572-73.54674 144.14376-73.42072 143.34221-73.2947 142.54068-73.09258 141.26194-72.96655 140.46843-72.84053 139.67493-72.6384 138.40866-72.51237 137.6232-72.38635 136.83774-72.18425 135.58466-72.05823 134.80738-71.93219 134.03008-71.73007 132.79022-71.60405 132.02097-71.47803 131.25171-71.27591 130.0243-71.14989 129.26309-71.02386 128.50189-70.82175 127.28781-70.69572 126.53465-70.5697 125.78148-70.36758 124.57974-70.24156 123.83475-70.11552 123.08974-69.91342 121.90208-69.7874 121.16513-69.66138 120.42816-69.45926 119.25209-69.33324 118.52318-69.20721 117.79425-69.00508 116.63228-68.87906 115.91151-68.75304 115.19077-68.55093 114.0411-68.4249 113.3284-68.29887 112.61569-68.09676 111.47937-67.97073 110.77469-67.84471 110.07002-67.6426 108.94617-67.51657 108.24954-67.39055 107.55292-67.18843 106.44226-67.06241 105.75378-66.93639 105.06532-66.73425 103.9679-66.60823 103.28746-66.48221 102.60704-66.2801 101.52206-66.15408 100.84967-66.02805 100.17729-65.82594 99.10551-65.69992 98.4413-65.5739 97.77708-65.37177 96.71852-65.24574 96.06235-65.11972 95.40616-64.9176 94.36008-64.79158 93.71193-64.66556 93.0638-64.46344 92.03104-64.33742 91.39095-64.21138 90.75085-64.00928 89.73042-63.88326 89.09848-63.75723 88.46654-63.55511 87.4602-63.4291 86.8363-63.30307 86.2124-63.10094 85.21767-62.97491 84.60182-62.84889 83.98596-62.64679 83.00531-62.52075 82.3976-62.39473 81.7899-62.19261 80.8216-62.06659 80.22194-61.94057 79.62228-61.73845 78.6673-61.61243 78.07568-61.4864 77.48407-61.28429 76.54156-61.15826 75.95798-61.03224 75.3744-60.83011 74.4451-60.70409 73.86969-60.57806 73.29428-60.37596 72.37817-60.24994 71.8108-60.1239 71.24344-59.9218 70.3398-59.79578 69.78047-59.66975 69.22115-59.46762 68.3307-59.3416 67.77954-59.21558 67.22838-59.01346 66.35117-58.88744 65.80804-58.76141 65.26492-58.5593 64.40016-58.43326 63.86508-58.30724 63.33-58.10513 62.47845-57.97911 61.95154-57.85309 61.42462-57.65097 60.58627-57.52495 60.0674-57.39893 59.54852-57.1968 58.72266-57.07077 58.21182-56.94475 57.70099-56.74265 56.8883-56.61661 56.38564-56.49059 55.88297-56.28848 55.0835-56.16246 54.58887-56.03644 54.09424-55.8343 53.30725-55.70828 52.82066-55.58226 52.33408-55.38014 51.56041-55.25412 51.08186-55.1281 50.60332-54.92596 49.8421-54.79994 49.3716-54.67392 48.9011-54.47182 48.15309-54.3458 47.69075-54.21976 47.22842-54.01765 46.49364-53.89163 46.03934-53.76561 45.58504-53.56348 44.8627-53.43745 44.41644-53.31143 43.9702-53.10931 43.26106-52.98329 42.82298-52.85727 42.38489-52.65515 41.68896-52.52911 41.25893-52.40309 40.82887-52.20099 40.14542-52.07497 39.72342-51.94894 39.3014-51.74683 38.63115-51.6208 38.21732-51.49478 37.80347-51.29265 37.14642-51.16663 36.74062-51.0406 36.33482-50.8385 35.69026-50.71246 35.2925-50.58644 34.89473-50.38434 34.26338-50.25832 33.87376-50.1323 33.48416-49.93016 32.866-49.80414 32.48445-49.67812 32.10289-49.476 31.4972-49.34998 31.12369-49.22395 30.75017-49.02182 30.1578-48.8958 29.79234-48.76978 29.42688-48.56767 28.84697-48.44165 28.48953-48.31561 28.13211-48.11351 27.56541-47.98749 27.21614-47.86147 26.86685-47.65933 26.31328-47.53331 25.97217-47.40729 25.63104-47.20517 25.09067-47.07915 24.7576-46.95313 24.42453-46.75102 23.89673-46.62498 23.57158-46.49896 23.24641-46.29684 22.7311-46.17082 22.41411-46.0448 22.09712-45.84268 21.59573-45.71666 21.28691-45.59064 20.97809-45.3885 20.48904-45.26248 20.18826-45.13646 19.88748-44.93436 19.41177-44.80832 19.11903-44.6823 18.8263-44.4802 18.36304-44.35417 18.07834-44.22815 17.79364-44.02602 17.34373-43.9 17.06708-43.77397 16.7904-43.57185 16.35283-43.44583 16.08434-43.31981 15.81584-43.11768 15.39223-42.99165 15.1319-42.86563 14.87155-42.66353 14.4604-42.5375 14.208-42.41147 13.95558-42.20937 13.557-42.08334 13.31264-41.95732 13.06827-41.75519 12.6829-41.62917 12.4467-41.50314 12.2105-41.30103 11.83821-41.175 11.61017-41.04898 11.38213-40.84688 11.02306-40.72084 10.80305-40.59482 10.58305-40.3927 10.23656-40.26668 10.02448-40.14066 9.8124-39.93854 9.47838-39.81252 9.27446-39.6865 9.07054-39.48436 8.75047-39.35834 8.55472-39.23232 8.35896-39.03021 8.05124-38.90417 7.86353-38.77815 7.67581-38.57605 7.38142-38.45003 7.20175-38.32399 7.02208-38.12187 6.74014-37.99585 6.56851-37.86983 6.39688-37.66771 6.12816-37.54169 5.96469-37.41566 5.80122-37.21355 5.5457-37.08752 5.39027-36.9615 5.23485-36.75938 4.99179-36.63336 4.8444-36.50732 4.69702-36.30522 4.4673-36.1792 4.32797-36.05318 4.18863-35.85104 3.97124-35.72502 3.84006-35.599 3.70888-35.39688 3.50545-35.27086 3.38243-35.14484 3.25941-34.94273 3.06845-34.8167 2.95335-34.69067 2.83826-34.48856 2.65988-34.36253 2.55283-34.23651 2.44577-34.0344 2.28061-33.90837 2.1817-33.78235 2.0828-33.58022 1.93085-33.4542 1.84-33.32817 1.74915-33.12607 1.60953-33.00003 1.52686-32.87401 1.44417-32.6719 1.31863-32.54588 1.24397-32.41985 1.16931-32.21773 1.05537-32.0917 .98875-31.96568 .92215-31.76357 .8223-31.63754 .76384-31.51152 .7054-31.3094 .61798-31.18338 .56747-31.05736 .51695-30.85524 .44202-30.72922 .39966-30.60318 .35728-30.40108 .29631-30.27505 .2621-30.14903 .2279-29.9469 .1794-29.82088 .1531-29.69485 .12682-29.49274 .09077-29.36671 .07266-29.24069 .05453-29.03859 .03244-28.91255 .02248-28.78653 .01251-28.58441 .00288-28.45839 .00084-28.33237-.00117-28.13025 .00179-28.00423 .00778-27.8782 .01376-27.67609 .02995-27.55006 .04411-27.42404 .05826-27.22192 .08752-27.09589 .10985-26.96986 .13216-26.76776 .17465-26.64174 .205-26.5157 .23537-26.31358 .29031-26.18756 .32872-26.06154 .36713-25.85942 .4354-25.7334 .48183-25.60738 .52827-25.40526 .60901-25.27924 .6635-25.15321 .71799-24.9511 .81194-24.82507 .87457-24.69904 .93723-24.49693 1.04439-24.37091 1.11507-24.24489 1.18576-24.04277 1.30537-23.91675 1.38411-23.79073 1.46283-23.5886 1.59567-23.46257 1.68256-23.33655 1.76945-23.13445 1.91548-23.0084 2.01042-22.88239 2.10536-22.68027 2.26385-22.55424 2.36684-22.42822 2.46982-22.2261 2.64153-22.10008 2.75266-21.97406 2.8638-21.77194 3.0487-21.64592 3.1679-21.5199 3.28706-21.31778 3.48445-21.19174 3.61168-21.06572 3.7389-20.86362 3.9496-20.7376 4.08487-20.61156 4.22014-20.40944 4.4433-20.28342 4.58661-20.1574 4.72992-19.95528 4.9663-19.82925 5.11777-19.70323 5.26924-19.50111 5.5187-19.37509 5.67834-19.24907 5.83798-19.04695 6.10065-18.92093 6.26833-18.79489 6.436-18.59279 6.71115-18.46677 6.88686-18.34074 7.06256-18.13863 7.35103-18.0126 7.53479-17.88658 7.71855-17.68445 8.01947-17.55843 8.21127-17.4324 8.40308-17.2303 8.71722-17.10426 8.91719-16.97824 9.11716-16.77612 9.4445-16.6501 9.6525-16.52408 9.8605-16.32196 10.20032-16.19594 10.41635-16.06992 10.63239-15.8678 10.98544-15.74178 11.20964-15.61575 11.43384-15.41364 11.8001-15.2876 12.03233-15.16158 12.26457-14.95947 12.64328-14.83345 12.88356-14.70741 13.12384-14.50531 13.51576-14.37929 13.7642-14.25327 14.01266-14.05113 14.41777-13.92511 14.67427-13.79909 14.93076-13.59697 15.34836-13.47095 15.61288-13.34492 15.87741-13.1428 16.30832-13.01678 16.5809-12.89075 16.85347-12.68864 17.29684-12.56262 17.57747-12.4366 17.85808-12.23448 18.31467-12.10846 18.60344-11.98244 18.89223-11.7803 19.36191-11.65428 19.65884-11.52826 19.95578-11.32616 20.43866-11.20012 20.74364-11.0741 21.04861-10.87198 21.5441-10.74596 21.857-10.61993 22.1699-10.41782 22.67783-10.2918 22.9989-10.16577 23.31996-9.96365 23.84184-9.83763 24.17108-9.71161 24.5003-9.50949 25.03465-9.38345 25.37181-9.25743 25.70895-9.05533 26.25575-8.9293 26.60107-8.80327 26.94638-8.60117 27.50716-8.47514 27.86063-8.34912 28.21411-8.14699 28.78732-8.02097 29.14873-7.89494 29.51012-7.69283 30.09581-7.5668 30.46536-7.44078 30.83493-7.23866 31.4347-7.11264 31.81229-6.9866 32.1899-6.7845 32.80125-6.65848 33.1869-6.53246 33.57254-6.33034 34.19797-6.20432 34.59178-6.0783 34.98558-5.87616 35.62337-5.75014 36.0252-5.62411 36.42706-5.42201 37.07805-5.29597 37.48805-5.16995 37.89807-4.96785 38.56226-4.84183 38.98032-4.7158 39.39836-4.51367 40.07515-4.38765 40.50111-4.26163 40.9271-4.05951 41.61632-3.93349 42.05046-3.80746 42.4846-3.60535 43.18779-3.47931 43.6301-3.35329 44.0724-3.15118 44.78793-3.02516 45.23827-2.89912 45.6886-2.69702 46.41747-2.571 46.87585-2.44498 47.33424-2.24284 48.07556-2.11682 48.54199-1.9908 49.00842-1.78868 49.76297-1.66266 50.23755-1.53664 50.71211-1.33452 51.47987-1.2085 51.9625-1.08246 52.44511-.88036 53.22536-.75433 53.71602-.62831 54.20668-.4262 55.00023-.30017 55.49893-.17415 55.99763 .02795 56.80354 .15398 57.31041 .28 57.81726 .4821 58.63713 .60814 59.15215 .73416 59.66718 .93626 60.4995 1.06229 61.02245 1.18831 61.5454 1.39044 62.39029 1.51646 62.92128 1.64249 63.45227 1.8446 64.31038 1.97063 64.84953 2.09665 65.38869 2.29878 66.2599 2.4248 66.80722 2.55083 67.35454 2.75293 68.23892 2.87895 68.79428 3.00499 69.34964 3.20709 70.24663 3.33311 70.8099 3.45914 71.37318 3.66127 72.28265 3.7873 72.8541 3.91331 73.42554 4.11543 74.34894 4.24146 74.92854 4.36748 75.50815 4.56958 76.44402 4.6956 77.03156 4.82164 77.61908 5.02376 78.5674 5.14978 79.1631 5.2758 79.75879 5.47792 80.72105 5.60394 81.3249 5.72997 81.92876 5.9321 82.9035 6.05812 83.51529 6.18414 84.12706 6.38625 85.11427 6.51228 85.7342 6.6383 86.35414 6.84041 87.3553 6.96643 87.9834 7.09245 88.6115 7.29459 89.62512 7.42061 90.26114 7.54663 90.89717 7.74875 91.92337 7.87477 92.56744 8.0008 93.2115 8.20293 94.25092 8.32895 94.90315 8.45497 95.55537 8.65707 96.60788 8.7831 97.26826 8.90913 97.92867 9.11124 98.99437 9.23726 99.6628 9.36328 100.33122 9.56541 101.4094 9.69144 102.08586 9.81746 102.76234 10.01958 103.85384 10.1456 104.53836 10.27162 105.22287 10.47372 106.32684 10.59975 107.0194 10.72578 107.71196 10.9279 108.82913 11.05392 109.52985 11.17995 110.23058 11.38206 111.36095 11.50809 112.0697 11.63411 112.77847 11.83624 113.92133 11.96227 114.63812 12.08829 115.35493 12.29039 116.511 12.41643 117.23595 12.54245 117.96089 12.74455 119.13017 12.87057 119.86319 12.9966 120.59619 13.19873 121.77794 13.32475 122.51897 13.45078 123.26001 13.6529 124.45496 13.77892 125.20416 13.90494 125.95335 14.10706 127.16153 14.23308 127.91878 14.3591 128.67601 14.56122 129.89664 14.68724 130.66193 14.81328 131.4272 15.01538 132.66117 15.1414 133.4345 15.26743 134.20781 15.46956 135.45412 15.59558 136.23561 15.7216 137.01709 15.92372 138.27748 16.04974 139.067 16.17577 139.85654 16.37787 141.12851 16.50389 141.92609 16.62993 142.72367 16.83205 144.0097 16.95807 144.81543 17.08409 145.62117 17.28621 146.91956 17.41223 147.73334 17.53825 148.54712 17.74039 149.85883 17.86641 150.68065 17.99243 151.50247 18.19453 152.82665 18.32057 153.65651 18.4466 154.48638 18.6487 155.82376 18.77472 156.66179 18.90074 157.49982 19.10287 158.8504 19.2289 159.69647 19.35492 160.54254 19.55704 161.9056 19.68306 162.7597 19.80908 163.61382 20.0112 164.99007 20.13722 165.85234 20.26324 166.71462 20.46536 168.1041 20.59138 168.97441 20.71742 169.84473 20.91953 171.24666 21.04555 172.12502 21.17157 173.00337 21.3737 174.41852 21.49973 175.30504 21.62575 176.19156 21.82787 177.6199 21.95389 178.51447 22.07991 179.40903 22.28201 180.84984 22.40805 181.75244 22.53407 182.65505 22.73619 184.10919 22.86221 185.01984 22.98824 185.93048 23.19035 187.39698 23.31638 188.31578 23.4424 189.23459 23.64452 190.71515 23.77054 191.642 23.89656 192.56885 24.09868 194.061 24.22472 194.9959 24.35074 195.93079 24.55284 197.43703 24.67886 198.38008 24.80489 199.32314 25.00702 200.8417 25.13304 201.7928 25.25906 202.7439 25.46118 204.2758 25.5872 205.23494 25.71323 206.19408 25.91534 207.73845 26.04137 208.70563 26.16739 209.6728 26.3695 211.23038 26.49553 212.20572 26.62157 213.18106 26.82367 214.75185 26.94969 215.73523 27.07571 216.71863 27.27785 218.30187 27.40387 219.29329 27.52989 220.28472 27.73201 221.88117 27.85803 222.88076 27.98405 223.88036 28.18616 225.49002 28.3122 226.49765 28.43822 227.50527 28.64034 229.1274 28.76636 230.14307 28.89238 231.15872 29.0945 232.79419 29.22052 233.81792 29.34654 234.84163 29.54866 236.48943 29.67468 237.5213 29.8007 238.55316 30.00282 240.21504 30.12886 241.25496 30.25488 242.29489 30.45699 243.96839 30.58301 245.01633 30.70903 246.06427 30.91116 247.75183 31.03719 248.80794 31.16321 249.86406 31.36533 251.56398 31.49135 252.62813 31.61737 253.69228 31.81949 255.40552 31.94551 256.4777 32.07153 257.5499 32.27365 259.27565 32.39967 260.35585 32.52571 261.4361 32.72781 263.175 32.85384 264.2634 32.97986 265.3518 33.18198 267.10395 33.308 268.20036 33.43402 269.2968 33.63615 271.06138 33.76218 272.16587 33.8882 273.27037 34.0903 275.04814 34.21634 276.16078 34.34236 277.27345 34.54448 279.06443 34.6705 280.18513 34.79652 281.3058 34.99864 283.10929 35.12466 284.23799 35.25069 285.36674 35.4528 287.1834 35.57883 288.32029 35.70485 289.45719 35.90697 291.28706 36.033 292.43199 36.15903 293.57695 36.36113 295.41929 36.48715 296.57225 36.61317 297.72523 36.8153 299.5809 36.94133 300.7419 37.06735 301.90296 37.26947 303.77095 37.3955 304.94017 37.52151 306.10935 37.72363 307.99143 37.84966 309.1686 37.97568 310.34587 38.1778 312.23954 38.30382 313.4248 38.42986 314.61009 38.63196 316.51783 38.75798 317.71125 38.884 318.9047 39.08612 320.82478 39.21214 322.02626 39.33817 323.22773 39.5403 325.16117 39.66632 326.37065 39.79234 327.58018 39.99445 329.52607 40.12048 330.7436 40.2465 331.96119 40.44862 333.92027 40.57465 335.14598 40.70067 336.3717 40.90279 338.34403 41.02881 339.57777 41.15483 340.81156 41.35695 342.7963 41.48297 344.0381 41.609 345.2799 41.81111 347.2779 41.93715 348.52787 42.06317 349.77784 42.26527 351.789 42.3913 353.047 42.51733 354.30503 42.71944 356.32868 42.84546 357.5947 42.97148 358.86076 43.17361 360.8976 43.29964 362.17185 43.42566 363.44606 43.62778 365.49613 43.7538 366.77839 43.87982 368.0606 44.08194 370.12315 44.20796 371.41346 44.334 372.7037 44.5361 374.7796 44.66212 376.07795 44.78815 377.37629 44.99026 379.4646 45.11629 380.77098 45.24231 382.07734 45.44444 384.1789 45.57047 385.4934 45.69649 386.80796 45.89859 388.92259 46.02463 390.2453 46.15065 391.568 46.35277 393.69584 46.47879 395.02656 46.60481 396.35728 46.80693 398.49775 46.93295 399.83638 47.05898 401.17503 47.2611 403.32795 47.38712 404.67475 47.51314 406.02156 47.71526 408.1884 47.8413 409.54338 47.96732 410.89839 48.16942 413.07768 48.29544 414.44059 48.42148 415.80348 48.62358 417.99528 48.7496 419.36634 48.87563 420.7374 49.07776 422.9431 49.20378 424.32237 49.3298 425.70158 49.53192 427.91978 49.65794 429.30693 49.78397 430.69407 49.98608 432.9247 50.1121 434.32 50.23814 435.71537 50.44025 437.96009 50.56627 439.36344 50.69229 440.76679 50.89441 443.0231 51.02043 444.4345 51.14645 445.8459 51.34859 448.1163 51.47461 449.53587 51.60063 450.9554 51.80273 453.23814 51.92877 454.66575 52.0548 456.09336 52.2569 458.38945 52.38292 459.82508 52.50894 461.2607 52.71107 463.56913 52.8371 465.0129 52.96312 466.45674 53.16524 468.7792 53.29126 470.23106 53.41728 471.68293 53.6194 474.017 53.74544 475.4769 53.87146 476.93678 54.07356 479.28495 54.19958 480.753 54.32562 482.22105 54.52773 484.58155 54.65375 486.05763 54.77977 487.53376 54.9819 489.90757 55.10793 491.3917 55.23395 492.87583 55.43607 495.26213 55.56209 496.7543 55.68811 498.2465 55.89023 500.64598 56.01625 502.14634 56.14229 503.64665 56.34439 506.05937 56.47041 507.56776 56.59644 509.07615 56.79855 511.5013 56.92458 513.0177 57.0506 514.5342 57.25273 516.97268 57.37875 518.49716 57.50478 520.0216 57.70688 522.4724 57.83292 524.00509 57.95894 525.5377 58.16104 528.0026 58.28706 529.5433 58.41309 531.0839 58.61522 533.5605 58.74124 535.1092 58.86726 536.6579 59.06938 539.1485 59.1954 540.7053 59.32143 542.2622 59.52354 544.7652 59.64958 546.3301 59.7756 547.895 59.9777 550.41128 60.10373 551.9842 60.22977 553.5572 60.43187 556.08578 60.55789 557.6669 60.68391 559.248 60.88605 561.7907 61.01207 563.3798 61.13809 564.969 61.34021 567.5233 61.46623 569.1205 61.59225 570.7177 61.79436 573.2861 61.92038 574.8914 62.04642 576.49679 62.24854 579.07766 62.37456 580.6909 62.50058 582.3042 62.7027 584.89749 62.82872 586.5189 62.95474 588.1403 63.15688 590.7476 63.2829 592.3772 63.40892 594.0068 63.61102 596.6265 63.73706 598.26406 63.86308 599.90158 64.06519 602.53378 64.19121 604.17947 64.31723 605.82516 64.51936 608.4714 64.64539 610.1251 64.77141 611.7789 64.97353 614.4367 65.09955 616.09848 65.22557 617.7602 65.42767 620.4321 65.55371 622.10208 65.67973 623.772 65.88185 626.4563 66.00787 628.1343 66.13391 629.81228 66.33601 632.5097 66.46204 634.1958 66.58806 635.88198 66.79019 638.59268 66.91621 640.28689 67.04224 641.981 67.24435 644.7043 67.37038 646.4064 67.4964 648.1085 67.6985 650.84426 67.82452 652.55447 67.95056 654.2648 68.15268 657.0144 68.2787 658.73287 68.40472 660.4513 68.60684 663.2133 68.73286 664.93978 68.85889 666.66629 69.06102 669.4416 69.18704 671.17617 69.31306 672.91067 69.51517 675.6984 69.6412 677.441 69.76723 679.18356 69.96933 681.98458 70.09535 683.7353 70.22137 685.486 70.42351 688.30026 70.54953 690.05899 70.67555 691.81777 70.87767 694.6445 71.0037 696.41128 71.12971 698.17807 71.33182 701.01797 71.45786 702.7929 71.58388 704.5679 71.786 707.42098 71.91202 709.204 72.03806 710.987 72.24016 713.8526 72.36618 715.6436 72.4922 717.43466 72.69434 720.31356 72.82036 722.1127 72.94638 723.91177 73.1485 726.8031 73.27452 728.6102 73.40054 730.41738 73.60265 733.32199 73.72867 735.13729 73.8547 736.9525 74.05682 739.87026 74.18285 741.69369 74.30887 743.5171 74.51099 746.448 74.63701 748.2795 74.76303 750.11099 74.96515 753.0543 75.09117 754.89389 75.2172 756.7334 75.41931 759.69 75.54535 761.53768 75.67137 763.3852 75.87347 766.3544 75.9995 768.20999 76.12552 770.06558 76.32765 773.0479 76.45367 774.9117 76.5797 776.77548 76.78181 779.77108 76.90784 781.6428 77.03386 783.51467 77.23596 786.5227 77.362 788.4025 77.48802 790.2824 77.69014 793.30368 77.81616 795.19168 77.9422 797.0797 78.1443 800.11416 78.27032 802.0102 78.39635 803.90628 78.59848 806.9532 78.7245 808.8573 78.85052 810.76138 79.05264 813.8216 79.17867 815.73379 79.30469 817.6459 79.50679 820.7185 79.63281 822.6388 79.75885 824.5591 79.96097 827.6456 80.08699 829.5741 80.21301 831.5026 80.41513 834.60159 80.54115 836.53799 80.66718 838.47439 80.8693 841.58596 80.99532 843.5304 81.12134 845.4748 81.32346 848.5996 81.4495 850.5522 81.57552 852.5048 81.77762 855.64279 81.90364 857.60348 82.02966 859.5641 82.2318 862.7144 82.35782 864.6832 82.48384 866.65206 82.68596 869.81649 82.81198 871.7933 82.938 873.77017 83.1401 876.94619 83.26614 878.931 83.39217 880.9159 83.59428 884.106 83.7203 886.09909 83.84634 888.0921 84.04845 891.2946 84.17447 893.2956 84.30049 895.2966 84.50261 898.5116 84.62863 900.5207 84.75465 902.52987 84.95679 905.7588 85.08281 907.7761 85.20883 909.7934 85.41093 913.03488 85.53696 915.06008 85.663 917.08529 85.86511 920.3393 85.99113 922.37258 86.11716 924.4058 86.31927 927.67306 86.4453 929.7145 86.57132 931.75588 86.77344 935.03616 86.89946 937.08578 87.02548 939.1354 87.2276 942.42886 87.35364 944.4865 87.47966 946.5441 87.68176 949.8501 87.80779 951.9158 87.9338 953.98147 88.13594 957.3007 88.26196 959.37448 88.38799 961.4481 88.5901 964.7798 88.71613 966.8617 88.84215 968.94357 89.04427 972.2893 89.17029 974.37918 89.29631 976.4691 89.49843 979.8264 89.62445 981.9244 89.75049 984.02236 89.95259 987.39376 90.07861 989.4999 90.20464 991.60598 90.40675 994.98977 90.53278 997.1039 90.6588 999.218 90.86093 1002.6151 90.98695 1004.7373 91.11298 1006.8595 91.31508 1010.26907 91.4411 1012.3993 91.56714 1014.5295 91.76926 1017.9523 91.89528 1020.0907 92.0213 1022.22909 92.22342 1025.665 92.34944 1027.8114 92.47546 1029.9579 92.67758 1033.4064 92.8036 1035.5608 92.92963 1037.7153 93.13174 1041.177 93.25778 1043.3396 93.3838 1045.5021 93.5859 1048.9762 93.71193 1051.1469 93.83795 1053.3176 94.04007 1056.8058 94.16609 1058.9845 94.29211 1061.1632 94.49425 1064.663 94.62027 1066.8497 94.74629 1069.0365 94.94841 1072.5503 95.07443 1074.7453 95.20045 1076.9402 95.40257 1080.4664 95.5286 1082.6694 95.65463 1084.8724 95.85674 1088.4119 95.98276 1090.6229 96.10878 1092.834 96.3109 1096.3858 96.43692 1098.605 96.56294 1100.8242 96.76508 1104.39 96.8911 1106.6173 97.01712 1108.8445 97.21922 1112.422 97.34525 1114.6574 97.47128 1116.8926 97.6734 1120.4841 97.79942 1122.7276 97.92545 1124.9711 98.12756 1128.5751 98.25359 1130.8264 98.37961 1133.0778 98.58173 1136.6943 98.70775 1138.9539 98.83377 1141.2134 99.03589 1144.8439 99.16193 1147.1115 99.28795 1149.3792 99.49005 1153.0221 99.61607 1155.2977 99.7421 1157.5734 99.94421 1161.2288 100.07024 1163.5125 100.19626 1165.7963 100.39839 1169.4656 100.52441 1171.7575 100.65044 1174.0494 100.85255 1177.7312 100.97858 1180.0311 101.1046 1182.3309 101.30672 1186.0254 101.43274 1188.3333 101.55878 1190.6411 101.76088 1194.3488 101.8869 1196.6648 102.01292 1198.9808 102.21504 1202.7015 102.34106 1205.0258 102.46709 1207.35 102.66922 1211.0839 102.79524 1213.4161 102.92126 1215.7484 103.12337 1219.4948 103.24939 1221.8351 103.37543 1224.1753 103.57753 1227.935 103.70355 1230.2833 103.82957 1232.6317 104.03171 1236.4039 104.15773 1238.7603 104.28375 1241.1166 104.48587 1244.902 104.6119 1247.2665 104.73792 1249.6311 104.94003 1253.4297 105.06607 1255.8023 105.1921 1258.1748 105.3942 1261.9859 105.52022 1264.3665 105.64624 1266.7471 105.84836 1270.5714 105.97438 1272.9602 106.1004 1275.349 106.30254 1279.1864 106.42856 1281.5833 106.55458 1283.9801 106.7567 1287.83 106.88272 1290.2349 107.00874 1292.6398 107.21086 1296.5029 107.33688 1298.9159 107.46292 1301.329 107.66502 1305.2053 107.79105 1307.6264 107.91707 1310.0474 108.11919 1313.9363 108.24521 1316.3654 108.37123 1318.7944 108.57336 1322.6967 108.69939 1325.1338 108.82541 1327.5709 109.02751 1331.4854 109.15355 1333.9307 109.27957 1336.376 109.48167 1340.3046 109.6077 1342.7579 109.73372 1345.2113 109.93585 1349.1515 110.06187 1351.6129 110.1879 1354.0742 110.39001 1358.0285 110.51604 1360.498 110.64206 1362.9677 110.84418 1366.9342 110.97021 1369.4118 111.09624 1371.8894 111.29834 1375.8693 111.42436 1378.355 111.55038 1380.8406 111.7525 1384.833 111.87852 1387.3267 112.00455 1389.8203 112.20668 1393.8259 112.3327 1396.3278 112.45872 1398.8296 112.66084 1402.8484 112.78687 1405.3583 112.91289 1407.8682 113.24101 1414.4174 113.24101 1414.4174"/>
</g>
<use data-text="&#x2022;" xlink:href="#font_3_2" transform="matrix(9.963496,0,0,-9.962899,89.72045,133.33861)"/>
<use data-text="(" xlink:href="#font_4_1" transform="matrix(9.963496,0,0,-9.962899,77.265338,142.11687)"/>
<use data-text="&#x2212;" xlink:href="#font_3_1" transform="matrix(9.963496,0,0,-9.962899,81.140689,142.11687)"/>
<use data-text="1" xlink:href="#font_4_4" transform="matrix(9.963496,0,0,-9.962899,88.88937,142.11687)"/>
<use data-text="," xlink:href="#font_1_1" transform="matrix(9.963496,0,0,-9.962899,93.871829,142.11687)"/>
<use data-text="0" xlink:href="#font_4_3" transform="matrix(9.963496,0,0,-9.962899,98.30022,142.11687)"/>
<use data-text=")" xlink:href="#font_4_2" transform="matrix(9.963496,0,0,-9.962899,103.28195,142.11687)"/>
<use data-text="&#x2022;" xlink:href="#font_3_2" transform="matrix(9.963496,0,0,-9.962899,118.069,76.64291)"/>
<use data-text="(" xlink:href="#font_4_1" transform="matrix(9.963496,0,0,-9.962899,94.89892,76.919918)"/>
<use data-text="0" xlink:href="#font_4_3" transform="matrix(9.963496,0,0,-9.962899,98.76476,76.919918)"/>
<use data-text="," xlink:href="#font_1_1" transform="matrix(9.963496,0,0,-9.962899,103.755718,76.919918)"/>
<use data-text="2" xlink:href="#font_4_5" transform="matrix(9.963496,0,0,-9.962899,108.184108,76.919918)"/>
<use data-text=")" xlink:href="#font_4_2" transform="matrix(9.963496,0,0,-9.962899,113.16584,76.919918)"/>
<use data-text="&#x2022;" xlink:href="#font_3_2" transform="matrix(9.963496,0,0,-9.962899,118.069,104.99075)"/>
<use data-text="(" xlink:href="#font_4_1" transform="matrix(9.963496,0,0,-9.962899,124.08054,105.26776)"/>
<use data-text="0" xlink:href="#font_4_3" transform="matrix(9.963496,0,0,-9.962899,127.94639,105.26776)"/>
<use data-text="," xlink:href="#font_1_1" transform="matrix(9.963496,0,0,-9.962899,132.93735,105.26776)"/>
<use data-text="1" xlink:href="#font_4_4" transform="matrix(9.963496,0,0,-9.962899,137.36573,105.26776)"/>
<use data-text=")" xlink:href="#font_4_2" transform="matrix(9.963496,0,0,-9.962899,142.34748,105.26776)"/>
</svg>
