<svg xmlns="http://www.w3.org/2000/svg" xmlns:xlink="http://www.w3.org/1999/xlink" version="1.1" width="241" height="243" viewBox="0 0 241 243">
<defs>
<path id="font_1_2" d="M.33399964 .30233766C.33999635 .32835389 .36299134 .42037965 .43299867 .42037965 .43798829 .42037965 .46199037 .42037965 .48298646 .40734864 .45498658 .402359 .43499757 .37734986 .43499757 .35334779 .43499757 .33735658 .44599916 .31835938 .47299195 .31835938 .49499513 .31835938 .5269928 .3363495 .5269928 .37635804 .5269928 .42837525 .46798707 .4423828 .43399049 .4423828 .37599183 .4423828 .34098817 .38935853 .32899476 .36634828 .3039856 .43237306 .25 .4423828 .22099304 .4423828 .116989139 .4423828 .05999756 .3133545 .05999756 .28834535 .05999756 .27833558 .069992069 .27833558 .07199097 .27833558 .07998657 .27833558 .08299255 .28033448 .084991458 .28933717 .11898804 .39535523 .18499756 .42037965 .21899414 .42037965 .23799134 .42037965 .272995 .4113617 .272995 .35334779 .272995 .32235719 .2559967 .25532533 .21899414 .11528015 .20298767 .053268434 .16799927 .011245728 .12399292 .011245728 .117996219 .011245728 .09498596 .011245728 .07398987 .024276734 .09899902 .029266358 .12098694 .05027771 .12098694 .07827759 .12098694 .105270389 .09899902 .11328125 .083999637 .11328125 .053985597 .11328125 .0289917 .08728027 .0289917 .055267335 .0289917 .009246826 .07899475-.0107421879 .12298584-.0107421879 .18899536-.0107421879 .22499085 .059280397 .22799683 .0652771 .23999024 .028274537 .27598573-.0107421879 .33599855-.0107421879 .43899537-.0107421879 .49598695 .118270877 .49598695 .14328003 .49598695 .1532898 .4869995 .1532898 .48399354 .1532898 .47499085 .1532898 .47299195 .14929199 .47099305 .14228821 .43798829 .03527832 .36999513 .011245728 .33799745 .011245728 .29899598 .011245728 .2829895 .043273927 .2829895 .07727051 .2829895 .09927368 .2889862 .121276859 .2999878 .16529846L.33399964 .30233766Z"/>
<path id="font_1_3" d="M.48599244 .38136292C.48999024 .39537049 .48999024 .39736939 .48999024 .40437318 .48999024 .42237855 .47599793 .43138124 .46099855 .43138124 .45098878 .43138124 .43499757 .42536927 .42599488 .41036988 .42399598 .405365 .41600038 .37435914 .4119873 .35635377 .40499879 .33035279 .397995 .30334474 .3919983 .27633668L.34700013 .09628296C.34298707 .08126831 .2999878 .011245728 .23399353 .011245728 .18299866 .011245728 .17199707 .055267335 .17199707 .0922699 .17199707 .1382904 .18899536 .20030213 .22299195 .28833009 .23899842 .3293457 .24299622 .3403473 .24299622 .36035157 .24299622 .405365 .21099854 .4423828 .16099549 .4423828 .06599426 .4423828 .0289917 .29733277 .0289917 .28833009 .0289917 .27833558 .038986207 .27833558 .040985109 .27833558 .050994874 .27833558 .051986696 .28033448 .056991579 .29634095 .083999637 .3903656 .12399292 .42037965 .1579895 .42037965 .1659851 .42037965 .18299866 .42037965 .18299866 .3883667 .18299866 .36335755 .17298889 .3373413 .1659851 .31834413 .12599182 .21231079 .10798645 .1552887 .10798645 .10827637 .10798645 .019256592 .17098999-.0107421879 .22999573-.0107421879 .2689972-.0107421879 .30299378 .0062561037 .33099366 .03425598 .31799317-.017745972 .30599977-.06674194 .2659912-.11973572 .23999024-.15385437 .20199585-.18309021 .1559906-.18309021 .14199829-.18309021 .09700012-.18005371 .07998657-.14074707 .09599304-.14074707 .10899353-.14074707 .12298584-.1287384 .1329956-.11973572 .14299011-.10673523 .14299011-.08773804 .14299011-.056747438 .115997318-.052734376 .10598755-.052734376 .08299255-.052734376 .049987794-.068740848 .049987794-.11773682 .049987794-.16796875 .09399414-.20507813 .1559906-.20507813 .25898744-.20507813 .3619995-.11373901 .3899994-.00074768069L.48599244 .38136292Z"/>
<clipPath id="clip_2">
<path transform="matrix(1.00003,0,0,-1.00003,116.015949,126.58742)" d="M-113.3855-113.3855V113.3855H113.3855V-113.3855ZM113.3855 113.3855"/>
</clipPath>
<path id="font_3_2" d="M.44400025 .24998474C.44400025 .35688783 .35499574 .44381715 .25 .44381715 .14199829 .44381715 .054992677 .35488893 .054992677 .24998474 .054992677 .14407349 .14199829 .056137086 .25 .056137086 .35499574 .056137086 .44400025 .14308167 .44400025 .24998474Z"/>
<path id="font_4_1" d="M.33099366-.2400055C.33099366-.23701477 .33099366-.23500061 .31399537-.21800232 .18899536-.0920105 .15699768 .09700012 .15699768 .25 .15699768 .42399598 .19499207 .59799197 .31799317 .72299197 .33099366 .73498538 .33099366 .7369995 .33099366 .73999026 .33099366 .746994 .32699586 .75 .32099916 .75 .31098939 .75 .22099304 .6819916 .1619873 .5549927 .11099243 .44499208 .09899902 .33399964 .09899902 .25 .09899902 .17199707 .10998535 .050994874 .16499329-.06201172 .22499085-.18501282 .31098939-.25 .32099916-.25 .32699586-.25 .33099366-.24700928 .33099366-.2400055Z"/>
<path id="font_3_1" d="M.6589966 .23046875C.6759949 .23046875 .69400027 .23046875 .69400027 .25045777 .69400027 .27046205 .6759949 .27046205 .6589966 .27046205H.117996219C.100997928 .27046205 .08299255 .27046205 .08299255 .25045777 .08299255 .23046875 .100997928 .23046875 .117996219 .23046875H.6589966Z"/>
<path id="font_4_3" d="M.2939911 .64004519C.2939911 .66400149 .2939911 .6660156 .2709961 .6660156 .20899964 .60227969 .12098694 .60227969 .08898926 .60227969V.57128909C.10899353 .57128909 .16799927 .57128909 .21998596 .5972748V.07902527C.21998596 .042999269 .21699524 .0309906 .1269989 .0309906H.09498596V0C.12998963 .0029907227 .21699524 .0029907227 .25698854 .0029907227 .29699708 .0029907227 .38398744 .0029907227 .4189911 0V.0309906H.3869934C.29699708 .0309906 .2939911 .041992189 .2939911 .07902527V.64004519Z"/>
<path id="font_1_1" d="M.20298767 .0009918213C.20298767 .066986087 .17799378 .10598755 .13899231 .10598755 .10598755 .10598755 .085998538 .08099365 .085998538 .052993776 .085998538 .025985718 .10598755 0 .13899231 0 .15098572 0 .1639862 .0039978029 .17399597 .0129852299 .1769867 .01499939 .17799378 .015991211 .1789856 .015991211 .17999268 .015991211 .18099976 .01499939 .18099976 .0009918213 .18099976-.07316589 .1459961-.13328552 .11299133-.16635132 .101989749-.17736817 .101989749-.17936707 .101989749-.18237305 .101989749-.18936157 .10699463-.19335938 .11199951-.19335938 .12298584-.19335938 .20298767-.116256717 .20298767 .0009918213Z"/>
<path id="font_4_4" d="M.1269989 .07699585 .23298645 .18003845C.3889923 .31811524 .44898988 .3721466 .44898988 .47216798 .44898988 .5860901 .35899354 .6660156 .23699951 .6660156 .12399292 .6660156 .049987794 .57411196 .049987794 .48516847 .049987794 .4291687 .099990848 .4291687 .102996829 .4291687 .11999512 .4291687 .15499878 .44117738 .15499878 .48217774 .15499878 .5081787 .13699341 .5341797 .101989749 .5341797 .09399414 .5341797 .09199524 .5341797 .08898926 .5331726 .11199951 .59806826 .1659851 .63500979 .22399903 .63500979 .31498719 .63500979 .35798646 .5541382 .35798646 .47216798 .35798646 .39215089 .30799867 .31311036 .25299073 .25108338L.06098938 .036987306C.049987794 .025985718 .049987794 .023986817 .049987794 0H.42099L.44898988 .17404175H.42399598C.4189911 .14402771 .4119873 .1000061 .4019928 .084991458 .394989 .07699585 .32899476 .07699585 .30699159 .07699585H.1269989Z"/>
<path id="font_4_2" d="M.2889862 .25C.2889862 .32798768 .27799989 .44898988 .22299195 .56199648 .16299439 .68499758 .07699585 .75 .066986087 .75 .06098938 .75 .056991579 .74598696 .056991579 .73999026 .056991579 .7369995 .056991579 .73498538 .07598877 .71699526 .17399597 .6179962 .23098755 .45899964 .23098755 .25 .23098755 .07899475 .19400025-.09700012 .069992069-.2230072 .056991579-.23500061 .056991579-.23701477 .056991579-.2400055 .056991579-.2460022 .06098938-.25 .066986087-.25 .07699585-.25 .16699219-.18200684 .22599793-.055007936 .2769928 .054992677 .2889862 .16600037 .2889862 .25Z"/>
<path id="font_4_5" d="M.44898988 .20022583C.44898988 .3193512 .36698915 .41944886 .25898744 .41944886 .21099854 .41944886 .16799927 .40345765 .13198853 .36842347V.5637665C.1519928 .5577698 .18499756 .55078127 .21699524 .55078127 .33999635 .55078127 .4099884 .6417694 .4099884 .6547699 .4099884 .6607666 .40699769 .6657715 .3999939 .6657715 .39898683 .6657715 .39698792 .6657715 .3919983 .66278079 .37199403 .6537781 .32299806 .6337738 .2559967 .6337738 .21598816 .6337738 .16999817 .6407776 .12298584 .6617737 .114990238 .66477969 .11299133 .66477969 .11099243 .66477969 .100997928 .66477969 .100997928 .6567688 .100997928 .6407776V.34439088C.100997928 .32637025 .100997928 .31835938 .114990238 .31835938 .12199402 .31835938 .12399292 .32136537 .12799073 .32736207 .13899231 .3433838 .17599488 .39746095 .25698854 .39746095 .30899049 .39746095 .33399964 .35139466 .34199525 .33337403 .35798646 .29632569 .3600006 .25727845 .3600006 .20722962 .3600006 .17222595 .3600006 .11222839 .33599855 .07035828 .31199647 .031463624 .2749939 .0055389406 .22898865 .0055389406 .1559906 .0055389406 .09899902 .058380128 .08198547 .11723328 .084991458 .1162262 .08799744 .115234378 .09899902 .115234378 .13198853 .115234378 .14898682 .14022827 .14898682 .16423035 .14898682 .18823242 .13198853 .21322632 .09899902 .21322632 .084991458 .21322632 .049987794 .20622254 .049987794 .16023255 .049987794 .07434082 .11898804-.022460938 .23098755-.022460938 .34700013-.022460938 .44898988 .073349 .44898988 .20022583Z"/>
</defs>
<path transform="matrix(1.00003,0,0,-1.00003,116.015949,126.58742)" stroke-width=".19925" stroke-linecap="butt" stroke-miterlimit="10" stroke-linejoin="miter" fill="none" stroke="#929292" d="M-113.3855-113.3855H113.3855M-113.3855-85.03911H113.3855M-113.3855-56.69275H113.3855M-113.3855-28.34636H113.3855M-113.3855 0H113.3855M-113.3855 28.34636H113.3855M-113.3855 56.69275H113.3855M-113.3855 85.03911H113.3855M-113.3855 113.38351H113.3855M-113.3855-113.3855V113.3855M-85.03911-113.3855V113.3855M-56.69275-113.3855V113.3855M-28.34636-113.3855V113.3855M0-113.3855V113.3855M28.34636-113.3855V113.3855M56.69275-113.3855V113.3855M85.03911-113.3855V113.3855M113.38351-113.3855V113.3855M113.3855 113.3855"/>
<path transform="matrix(1.00003,0,0,-1.00003,116.015949,126.58742)" stroke-width="1.19553" stroke-linecap="butt" stroke-miterlimit="10" stroke-linejoin="miter" fill="none" stroke="#000000" d="M-114.51933 0H113.56293"/>
<path transform="matrix(1.00003,0,0,-1.00003,229.58228,126.58742)" stroke-width=".9564" stroke-linecap="round" stroke-linejoin="round" fill="none" stroke="#000000" d="M-1.91284 2.55046C-1.75343 1.59402 0 .15938 .4782 0 0-.15938-1.75343-1.59402-1.91284-2.55046"/>
<use data-text="x" xlink:href="#font_1_2" transform="matrix(9.962899,0,0,-9.962899,234.4575,128.73249)"/>
<path transform="matrix(1.00003,0,0,-1.00003,116.015949,126.58742)" stroke-width="1.19553" stroke-linecap="butt" stroke-miterlimit="10" stroke-linejoin="miter" fill="none" stroke="#000000" d="M0-114.51933V113.56293"/>
<path transform="matrix(0,-1.00003,-1.00003,-0,116.015949,13.02108)" stroke-width=".9564" stroke-linecap="round" stroke-linejoin="round" fill="none" stroke="#000000" d="M-1.91284 2.55046C-1.75343 1.59402 0 .15938 .4782 0 0-.15938-1.75343-1.59402-1.91284-2.55046"/>
<use data-text="y" xlink:href="#font_1_3" transform="matrix(9.962899,0,0,-9.962899,113.39487,6.2088015)"/>
<g clip-path="url(#clip_2)">
<path transform="matrix(1.00003,0,0,-1.00003,116.015949,126.58742)" stroke-width=".79701" stroke-linecap="butt" stroke-miterlimit="10" stroke-linejoin="miter" fill="none" stroke="#0000ff" d="M-22.6771-697.32089C-22.6771-697.32089-22.61147-690.24996-22.58626-687.54946-22.56105-684.849-22.52063-680.53646-22.49542-677.8577-22.47021-675.179-22.4298-670.9003-22.40459-668.2433-22.3794-665.5861-22.33896-661.3428-22.31377-658.70718-22.28856-656.07156-22.24814-651.8618-22.22293-649.2476-22.19772-646.63339-22.1573-642.45846-22.1321-639.8657-22.10689-637.273-22.06647-633.1326-22.04126-630.5612-22.01607-627.98977-21.97563-623.8828-21.95044-621.3325-21.92523-618.7822-21.88481-614.70956-21.8596-612.1805-21.8344-609.6515-21.79398-605.613-21.76877-603.105-21.74356-600.597-21.70314-596.5916-21.67793-594.1046-21.65273-591.61758-21.6123-587.64627-21.58711-585.1802-21.5619-582.7142-21.52148-578.7764-21.49628-576.3312-21.47107-573.8859-21.43065-569.981-21.40544-567.5565-21.38023-565.132-21.33981-561.2608-21.3146-558.85696-21.2894-556.45309-21.24898-552.61447-21.22379-550.23117-21.19858-547.84786-21.15816-544.0424-21.13295-541.67977-21.10774-539.317-21.06732-535.5447-21.04211-533.2026-21.0169-530.86038-20.97649-527.1209-20.95128-524.7991-20.92607-522.47726-20.88565-518.77-20.86046-516.4683-20.83525-514.1667-20.79483-510.49156-20.76962-508.2102-20.74442-505.92884-20.704-502.287-20.67879-500.02583-20.65358-497.76466-20.61316-494.15446-20.58795-491.91319-20.56274-489.6719-20.52232-486.09346-20.49713-483.87226-20.47192-481.65107-20.4315-478.1056-20.4063-475.90443-20.38109-473.70323-20.34067-470.18913-20.31546-468.0076-20.29025-465.82609-20.24983-462.34315-20.22462-460.18147-20.19942-458.01976-20.159-454.5696-20.13379-452.42759-20.1086-450.2855-20.06818-446.8655-20.04297-444.74305-20.01776-442.62055-19.97734-439.23313-19.95213-437.13023-19.92693-435.02735-19.8865-431.67039-19.8613-429.58689-19.83609-427.50337-19.79567-424.1778-19.77046-422.11378-19.74527-420.04975-19.70485-416.75553-19.67964-414.71076-19.65443-412.66596-19.61401-409.40205-19.5888-407.3763-19.5636-405.35054-19.52318-402.117-19.49797-400.11048-19.47276-398.10395-19.43234-394.902-19.40714-392.9146-19.38194-390.92726-19.34152-387.7553-19.31631-385.78688-19.2911-383.8184-19.25069-380.677-19.22548-378.72743-19.20027-376.77784-19.15985-373.66636-19.13464-371.73554-19.10945-369.80473-19.06902-366.7235-19.04381-364.8115-19.01862-362.89949-18.9782-359.84846-18.95299-357.9551-18.9278-356.0617-18.88737-353.0402-18.86217-351.16539-18.83696-349.29057-18.79652-346.29917-18.77132-344.4428-18.74611-342.58647-18.7057-339.62409-18.6805-337.78627-18.6553-335.94844-18.61485-333.01646-18.58966-331.19706-18.56445-329.37767-18.52405-326.4746-18.49884-324.67338-18.47363-322.8721-18.43321-319.9979-18.408-318.2148-18.3828-316.4317-18.34236-313.58689-18.31717-311.822-18.29198-310.0571-18.25154-307.2415-18.22635-305.49476-18.20114-303.748-18.1607-300.9614-18.1355-299.23258-18.1103-297.5037-18.06989-294.74543-18.04468-293.0343-18.01947-291.32319-17.97905-288.5932-17.95384-286.89997-17.92865-285.20674-17.88821-282.50617-17.86302-280.83076-17.83781-279.15538-17.7974-276.4826-17.77219-274.8248-17.74698-273.16703-17.70656-270.52275-17.68135-268.8825-17.65614-267.24229-17.61572-264.6259-17.59052-263.00315-17.56532-261.38035-17.52489-258.7921-17.4997-257.18669-17.47449-255.5813-17.43407-253.02043-17.40886-251.43248-17.38365-249.84453-17.34323-247.31246-17.31802-245.74182-17.29282-244.1712-17.2524-241.66613-17.22719-240.11252-17.202-238.55893-17.16156-236.08104-17.13637-234.54454-17.11116-233.00804-17.07074-230.55788-17.04553-229.0385-17.02032-227.51912-16.9799-225.09626-16.9547-223.59389-16.92949-222.09154-16.88907-219.69603-16.86386-218.21051-16.83867-216.72499-16.79823-214.35602-16.77304-212.88727-16.74783-211.41852-16.70741-209.0768-16.6822-207.62474-16.657-206.17269-16.61658-203.85726-16.59137-202.42182-16.56616-200.98639-16.52574-198.6979-16.50053-197.27912-16.47533-195.8603-16.4349-193.59844-16.40971-192.19608-16.3845-190.79375-16.34409-188.55792-16.31888-187.17198-16.29367-185.78601-16.25325-183.57659-16.22804-182.20703-16.20284-180.83747-16.16241-178.65442-16.1372-177.30109-16.112-175.94777-16.07158-173.79038-16.04639-172.4532-16.02118-171.11602-15.98076-168.98462-15.95555-167.6636-15.93034-166.34256-15.88992-164.23717-15.86472-162.93213-15.83951-161.6271-15.79909-159.54697-15.77388-158.25786-15.74867-156.96877-15.70825-154.91436-15.68306-153.64119-15.65785-152.36803-15.61743-150.33919-15.59222-149.08179-15.56702-147.8244-15.5266-145.82042-15.50139-144.5787-15.47618-143.33699-15.43576-141.35849-15.41055-140.13236-15.38535-138.90625-15.34492-136.95223-15.31973-135.74166-15.29453-134.53107-15.2541-132.60237-15.2289-131.40735-15.20369-130.21233-15.16327-128.30841-15.13806-127.12874-15.11285-125.94907-15.07243-124.06944-15.04723-122.90509-15.02202-121.7407-14.9816-119.88582-14.95639-118.73677-14.9312-117.58772-14.89078-115.7574-14.86557-114.62349-14.84036-113.48958-14.79994-111.68312-14.77473-110.56427-14.74953-109.4454-14.7091-107.66328-14.6839-106.55954-14.65869-105.45578-14.61827-103.69801-14.59306-102.60915-14.56787-101.52028-14.52745-99.78581-14.50224-98.71178-14.47704-97.63774-14.43661-95.9274-14.4114-94.86821-14.3862-93.80905-14.34578-92.12245-14.32057-91.07794-14.29536-90.03345-14.25494-88.3701-14.22974-87.34018-14.20454-86.31026-14.16412-84.67043-14.13892-83.65501-14.11371-82.63962-14.07329-81.02267-14.04808-80.02184-14.02287-79.021-13.98245-77.42818-13.95724-76.4417-13.93204-75.4552-13.89162-73.88411-13.86641-72.9119-13.84122-71.93967-13.8008-70.39249-13.77559-69.43459-13.75038-68.47672-13.70996-66.95184-13.68475-66.00807-13.65955-65.06432-13.61913-63.5623-13.59392-62.6326-13.56871-61.7029-13.52829-60.22311-13.50308-59.30739-13.47789-58.39168-13.43747-56.93443-13.41226-56.03268-13.38705-55.13097-13.34663-53.69626-13.32143-52.80835-13.29622-51.92044-13.2558-50.50742-13.23059-49.63322-13.20538-48.75903-13.16496-47.36816-13.13977-46.50775-13.11458-45.64734-13.07413-44.27875-13.04893-43.43195-13.02373-42.58511-12.9833-41.2378-12.9581-40.40446-12.9329-39.57115-12.89247-38.24586-12.86726-37.42596-12.84206-36.6061-12.80164-35.30176-12.77643-34.49532-12.75125-33.68887-12.71082-32.40686-12.68562-31.61371-12.66042-30.82054-12.61998-29.55876-12.59477-28.77881-12.56956-27.99884-12.52916-26.759-12.50395-25.99226-12.47874-25.22552-12.43831-24.0064-12.4131-23.2527-12.38791-22.49901-12.34749-21.30093-12.3223-20.56018-12.29709-19.81944-12.25667-18.6418-12.23146-17.91396-12.20625-17.18613-12.16582-16.02937-12.14063-15.31445-12.11542-14.59953-12.075-13.46349-12.04979-12.7613-12.0246-12.05911-11.98416-10.94312-11.95897-10.25357-11.93376-9.56403-11.89334-8.46838-11.86813-7.79152-11.84293-7.11464-11.8025-6.03949-11.7773-5.37514-11.75209-4.71078-11.71167-3.65523-11.68646-3.00331-11.66127-2.35138-11.62083-1.31595-11.59564-.67647-11.57043-.03696-11.53001 .97847-11.5048 1.60571-11.4796 2.23296-11.43918 3.22919-11.41397 3.84424-11.38876 4.45929-11.34834 5.43579-11.32314 6.03865-11.29793 6.64148-11.2575 7.5983-11.23232 8.1891-11.2071 8.77989-11.16669 9.7179-11.14148 10.29674-11.11627 10.87558-11.07585 11.794-11.05064 12.36095-11.02544 12.92789-10.98502 13.82771-10.95981 14.38286-10.9346 14.938-10.89418 15.81871-10.86899 16.36203-10.84378 16.90536-10.80336 17.76712-10.77815 18.29883-10.75294 18.83054-10.71252 19.67406-10.68732 20.19418-10.66211 20.7143-10.62169 21.53896-10.59648 22.0475-10.57127 22.55602-10.53085 23.36215-10.50566 23.85928-10.48045 24.35641-10.44003 25.1447-10.41483 25.6305-10.38962 26.11629-10.3492 26.88611-10.32399 27.36053-10.29878 27.83496-10.25836 28.58667-10.23315 29.04993-10.20795 29.51315-10.16753 30.24712-10.14233 30.69925-10.11713 31.15138-10.0767 31.86757-10.0515 32.30861-10.02629 32.74966-9.98587 33.44795-9.96066 33.87799-9.93546 34.30806-9.89503 34.98901-9.86983 35.40822-9.84462 35.82742-9.8042 36.4909-9.779 36.89932-9.7538 37.30772-9.71338 37.95409-9.68817 38.35176-9.66296 38.74942-9.62254 39.37848-9.59734 39.76544-9.57213 40.15242-9.53171 40.7644-9.5065 41.14073-9.4813 41.51704-9.44087 42.11194-9.41566 42.47777-9.39047 42.8436-9.35005 43.42184-9.32484 43.77736-9.29964 44.13286-9.25922 44.69489-9.23401 45.04-9.2088 45.3851-9.16838 45.9299-9.14317 46.26466-9.11797 46.59944-9.07755 47.12817-9.05234 47.45274-9.02715 47.77731-8.98672 48.28949-8.96152 48.60397-8.93631 48.91846-8.89589 49.41484-8.87068 49.7193-8.84547 50.02374-8.80505 50.50378-8.77985 50.79828-8.75464 51.09279-8.71422 51.55733-8.68901 51.8419-8.66382 52.12646-8.6234 52.57455-8.59819 52.84926-8.57298 53.12396-8.53256 53.5567-8.50735 53.82176-8.48215 54.08684-8.44173 54.50432-8.41652 54.75975-8.39131 55.0152-8.35089 55.41698-8.32568 55.6628-8.30049 55.90862-8.26007 56.29515-8.23486 56.5314-8.20966 56.76765-8.16924 57.13876-8.14403 57.36559-8.11882 57.5924-8.0784 57.94868-8.05319 58.16629-8.02798 58.38388-7.98756 58.72559-7.96236 58.93385-7.93716 59.14214-7.89673 59.4684-7.87154 59.66742-7.84633 59.86646-7.80591 60.17844-7.7807 60.3684-7.7555 60.55835-7.71507 60.85553-7.68987 61.03648-7.66466 61.21742-7.62424 61.50047-7.59903 61.67247-7.57384 61.84447-7.5334 62.11304-7.50821 62.27611-7.483 62.43918-7.44258 62.69345-7.41737 62.84775-7.39217 63.00204-7.35175 63.24258-7.32654 63.38815-7.30133 63.5337-7.26091 63.75996-7.2357 63.8969-7.21051 64.03383-7.17007 64.24677-7.14488 64.37509-7.11967 64.50345-7.07925 64.7021-7.05405 64.82191-7.02884 64.94171-6.98842 65.12706-6.96323 65.23853-6.93802 65.34999-6.89758 65.52214-6.87238 65.62529-6.84718 65.72844-6.80675 65.88712-6.78156 65.98196-6.75636 66.07681-6.71593 66.22217-6.69072 66.30887-6.66551 66.39555-6.62509 66.52826-6.59988 66.6068-6.57469 66.68532-6.53427 66.80434-6.50906 66.87488-6.48387 66.9454-6.44342 67.05249-6.41823 67.1151-6.39302 67.17772-6.35262 67.2715-6.32741 67.32619-6.3022 67.38084-6.26178 67.46217-6.23657 67.50914-6.21136 67.55609-6.17094 67.62546-6.14574 67.66469-6.12054 67.70389-6.08011 67.76022-6.05492 67.79175-6.02971 67.82329-5.98927 67.86786-5.96408 67.89192-5.93887 67.91599-5.89845 67.94867-5.87325 67.9652-5.84804 67.98172-5.80762 68.00198-5.78241 68.01105-5.7572 68.02011-5.71678 68.02869-5.69159 68.0305-5.66638 68.03233-5.62596 68.02951-5.60075 68.02411-5.57555 68.0187-5.53513 68.00418-5.50992 67.9916-5.48471 67.97899-5.44429 67.953-5.41908 67.93329-5.39388 67.91356-5.35345 67.87611-5.32826 67.84937-5.30305 67.82262-5.26263 67.77414-5.23743 67.74045-5.21222 67.70677-5.1718 67.64714-5.14659 67.60663-5.12138 67.56613-5.08096 67.49579-5.05576 67.4485-5.03055 67.4012-4.99013 67.31982-4.96494 67.2658-4.93973 67.21176-4.8993 67.11969-4.8741 67.05905-4.84889 66.9984-4.80847 66.89587-4.78326 66.82867-4.75806 66.76149-4.71764 66.64847-4.69243 66.57478-4.66722 66.50111-4.6268 66.37778-4.60161 66.2977-4.5764 66.21764-4.53598 66.08408-4.51077 65.9977-4.48557 65.91133-4.44514 65.76784-4.41994 65.6752-4.39473 65.58258-4.35431 65.42883-4.3291 65.33003-4.3039 65.23126-4.26347 65.06802-4.23827 64.96317-4.21307 64.85832-4.17265 64.68518-4.14745 64.57431-4.12224 64.46347-4.08182 64.28088-4.05661 64.16411-4.0314 64.04733-3.99098 63.85529-3.96577 63.73262-3.94057 63.60995-3.90015 63.4085-3.87494 63.28001-3.84975 63.15155-3.80933 62.94081-3.78412 62.80666-3.75891 62.6725-3.71849 62.45287-3.69328 62.31314-3.66808 62.1734-3.62766 61.94481-3.60245 61.79955-3.57724 61.6543-3.53682 61.41689-3.51161 61.26616-3.48642 61.11543-3.446 60.86935-3.42079 60.7132-3.39558 60.55705-3.35516 60.30215-3.32996 60.1407-3.30475 59.97926-3.26433 59.71626-3.23912 59.5496-3.21391 59.38293-3.1735 59.11133-3.14828 58.93948-3.1231 58.76764-3.08267 58.48792-3.05746 58.311-3.03226 58.13411-2.99184 57.84634-2.96663 57.66446-2.94142 57.48257-2.901 57.18692-2.8758 57.00009-2.85059 56.81326-2.81017 56.5096-2.78496 56.31792-2.75977 56.12622-2.71935 55.81494-2.69414 55.6185-2.66893 55.42207-2.62851 55.10324-2.6033 54.90215-2.5781 54.70105-2.53767 54.37479-2.51247 54.1691-2.48726 53.9634-2.44684 53.62987-2.42163 53.41959-2.39644 53.20934-2.356 52.86841-2.33081 52.65367-2.3056 52.43893-2.26518 52.09094-2.23997 51.87183-2.21477 51.65273-2.17435 51.29785-2.14914 51.07451-2.12393 50.85114-2.08351 50.48964-2.0583 50.26204-2.03311 50.03442-1.99268 49.66586-1.96748 49.43408-1.94228 49.2023-1.90186 48.8273-1.87665 48.59152-1.85144 48.35573-1.81102 47.97447-1.78581 47.73466-1.7606 47.49486-1.72018 47.10693-1.69498 46.8632-1.66978 46.61948-1.62935 46.22551-1.60416 45.97798-1.57895 45.73047-1.53853 45.3305-1.51332 45.07918-1.48811 44.82787-1.4477 44.42162-1.42249 44.16664-1.39728 43.91165-1.35686 43.50002-1.33165 43.24144-1.30646 42.98286-1.26602 42.56512-1.24083 42.30302-1.21562 42.04092-1.1752 41.61795-1.15 41.35242-1.12479 41.08687-1.08437 40.65811-1.05916 40.38916-1.03395 40.12021-.99355 39.6862-.96834 39.41399-.94315 39.14174-.9027 38.70248-.8775 38.42711-.8523 38.15175-.81187 37.7078-.78668 37.42926-.76147 37.15073-.72104 36.7012-.69583 36.41956-.67062 36.13792-.6302 35.68398-.605 35.3994-.5798 35.1148-.53938 34.65599-.51419 34.36848-.48898 34.08101-.44855 33.61761-.42334 33.3273-.39815 33.03699-.35773 32.56915-.33252 32.2761-.30731 31.983-.26688 31.51073-.24167 31.215-.21646 30.91927-.17606 30.44296-.15086 30.14465-.12566 29.84634-.08524 29.36578-.06003 29.06497-.03482 28.76414 .00557 28.27983 .03078 27.97655 .05598 27.67325 .0964 27.18471 .12161 26.87904 .14682 26.57336 .18724 26.08138 .21243 25.77348 .23764 25.46562 .27806 24.97017 .30327 24.66006 .32848 24.34998 .3689 23.85077 .3941 23.53851 .41931 23.22626 .45973 22.72382 .48494 22.40952 .51015 22.09521 .55057 21.58951 .57576 21.27325 .60097 20.957 .64139 20.44826 .6666 20.13016 .6918 19.81206 .73222 19.30054 .75743 18.98059 .78264 18.66063 .82306 18.14589 .84827 17.82417 .87347 17.50244 .9139 16.98512 .9391 16.66179 .9643 16.33846 1.00471 15.8187 1.02992 15.49377 1.05513 15.16885 1.09555 14.64642 1.12076 14.31996 1.14597 13.99352 1.18639 13.46875 1.2116 13.14088 1.2368 12.81303 1.27722 12.28627 1.30243 11.95705 1.32762 11.62784 1.36804 11.09862 1.39325 10.76811 1.41846 10.43759 1.45888 9.90659 1.48409 9.57492 1.5093 9.24327 1.54971 8.71043 1.57492 8.37769 1.60013 8.04492 1.64055 7.51045 1.66576 7.17664 1.69095 6.84282 1.73137 6.3066 1.75658 5.97177 1.78178 5.63695 1.8222 5.09915 1.84741 4.76346 1.87262 4.42775 1.91304 3.88875 1.93825 3.55229 1.96346 3.2158 2.00388 2.67552 2.02908 2.33833 2.05428 2.00114 2.0947 1.4599 2.1199 1.12206 2.14511 .78421 2.18553 .2418 2.21074-.09662 2.23595-.43506 2.27637-.9783 2.30157-1.31721 2.32678-1.65613 2.3672-2.19998 2.39241-2.53929 2.4176-2.87859 2.45802-3.42307 2.48323-3.76274 2.50844-4.10242 2.54886-4.64746 2.57407-4.98741 2.59927-5.32736 2.6397-5.87274 2.6649-6.21286 2.69011-6.553 2.73053-7.09859 2.75574-7.43884 2.78093-7.77907 2.82137-8.32489 2.84656-8.66515 2.87177-9.0054 2.91219-9.551 2.9374-9.8912 2.9626-10.2314 3.00302-10.77701 3.02823-11.11708 3.05344-11.45715 3.09386-12.0023 3.11906-12.34218 3.14426-12.68207 3.1847-13.22708 3.20988-13.56668 3.23509-13.90628 3.27551-14.45056 3.30072-14.78978 3.32593-15.12901 3.36635-15.67279 3.39156-16.0116 3.41676-16.35042 3.45718-16.89348 3.48239-17.23177 3.50758-17.57007 3.54802-18.11218 3.57321-18.44987 3.59842-18.78755 3.63884-19.32863 3.66405-19.66563 3.68925-20.00264 3.72968-20.54253 3.75488-20.8788 3.78009-21.21506 3.82051-21.75374 3.84572-22.0892 3.87091-22.42464 3.91135-22.962 3.93654-23.29655 3.96175-23.63112 4.00215-24.16689 4.02736-24.50046 4.05257-24.83403 4.093-25.36824 4.11821-25.70074 4.14342-26.03325 4.18384-26.56558 4.20903-26.89694 4.23422-27.22832 4.27467-27.75883 4.29987-28.089 4.32507-28.41917 4.3655-28.94771 4.39069-29.27657 4.4159-29.60542 4.45631-30.13171 4.48152-30.4592 4.50673-30.78665 4.54716-31.31075 4.57237-31.6368 4.59756-31.96284 4.63799-32.4846 4.66318-32.80913 4.68839-33.13367 4.7288-33.65292 4.75401-33.97583 4.77922-34.29875 4.81964-34.81525 4.84485-35.13649 4.87006-35.45775 4.91048-35.9717 4.93568-36.29118 4.96089-36.61067 5.00131-37.12155 5.0265-37.43921 5.05171-37.75687 5.09213-38.26491 5.11734-38.58066 5.14255-38.89641 5.18297-39.40118 5.20818-39.71494 5.23338-40.02867 5.2738-40.53024 5.29901-40.84193 5.32422-41.15361 5.36464-41.65178 5.38983-41.96133 5.41504-42.27086 5.45546-42.76553 5.48067-43.07283 5.50587-43.38016 5.5463-43.87122 5.5715-44.17622 5.59671-44.48125 5.63713-44.96849 5.66234-45.27113 5.68755-45.57379 5.72797-46.05731 5.75316-46.35748 5.77837-46.65765 5.81879-47.13704 5.844-47.43466 5.8692-47.73228 5.90962-48.20755 5.93483-48.5026 5.96004-48.7976 6.00046-49.26872 6.02567-49.56107 6.05087-49.85344 6.0913-50.32013 6.11649-50.60971 6.1417-50.89929 6.18211-51.36148 6.20732-51.64821 6.23253-51.93494 6.27295-52.39244 6.29816-52.67624 6.32336-52.96007 6.36378-53.41292 6.38899-53.69374 6.4142-53.97455 6.45462-54.4225 6.47983-54.70024 6.50502-54.97798 6.54544-55.42091 6.57065-55.6955 6.59586-55.97006 6.63628-56.40782 6.66148-56.67915 6.68669-56.9505 6.72711-57.3831 6.75232-57.65114 6.77753-57.91917 6.81795-58.34636 6.84315-58.61101 6.86835-58.87567 6.90877-59.29742 6.93398-59.55861 6.95918-59.8198 6.9996-60.23582 7.02481-60.49348 7.05002-60.75113 7.09044-61.16153 7.11565-61.41554 7.14085-61.66957 7.18127-62.07396 7.20648-62.32431 7.23167-62.57463 7.2721-62.97327 7.2973-63.2198 7.32251-63.46637 7.36293-63.85863 7.38814-64.1013 7.41335-64.344 7.45377-64.73012 7.47897-64.96889 7.50418-65.20764 7.5446-65.5874 7.56981-65.82217 7.595-66.05695 7.63542-66.43027 7.66063-66.66093 7.68584-66.89162 7.72626-67.25824 7.75146-67.48474 7.77667-67.71124 7.8171-68.07114 7.8423-68.29341 7.86751-68.51566 7.90793-68.86871 7.93314-69.08665 7.95833-69.30463 7.99876-69.65073 8.02396-69.86427 8.04916-70.07782 8.08958-70.41673 8.11479-70.62578 8.14-70.83484 8.18042-71.16653 8.20563-71.37103 8.23083-71.57555 8.27126-71.89987 8.29646-72.09976 8.32166-72.29965 8.36209-72.61653 8.38728-72.8117 8.41249-73.0069 8.45291-73.31612 8.47812-73.50653 8.50333-73.69695 8.54375-73.99857 8.56895-74.18413 8.59416-74.36969 8.63458-74.66333 8.65979-74.84392 8.68498-75.0245 8.72542-75.31015 8.75061-75.4857 8.77582-75.66127 8.81624-75.93875 8.84145-76.10924 8.86665-76.27974 8.90707-76.54913 8.93228-76.71443 8.95749-76.87976 8.99791-77.14066 9.02312-77.3007 9.04831-77.46072 9.08875-77.71318 9.11394-77.86792 9.13914-78.02266 9.17957-78.2666 9.20477-78.41594 9.22998-78.56528 9.2704-78.8004 9.29561-78.94423 9.32082-79.08806 9.36124-79.31425 9.38644-79.45255 9.41164-79.59082 9.45207-79.80824 9.47726-79.94087 9.50247-80.07352 9.5429-80.2816 9.5681-80.40852 9.5933-80.53545 9.63373-80.73454 9.65894-80.85567 9.68414-80.9768 9.72456-81.1664 9.74977-81.28163 9.77495-81.39685 9.8154-81.5769 9.84059-81.68623 9.8658-81.79553 9.90622-81.96616 9.93143-82.06944 9.95663-82.17271 9.99706-82.33344 10.02226-82.4306 10.04747-82.52776 10.08789-82.67871 10.1131-82.7697 10.1383-82.86072 10.17871-83.00177 10.2039-83.0865 10.22911-83.17122 10.26955-83.30197 10.29475-83.38036 10.31996-83.45874 10.36038-83.57948 10.38557-83.65146 10.41078-83.72346 10.4512-83.83376 10.47641-83.89923 10.50162-83.9647 10.54205-84.06447 10.56723-84.12337 10.59244-84.18225 10.63286-84.27142 10.65807-84.32372 10.68327-84.37599 10.72371-84.45464 10.74892-84.50017 10.77411-84.54573 10.81453-84.6133 10.83974-84.652 10.86494-84.6907 10.90536-84.74731 10.93056-84.77916 10.95576-84.81102 10.99619-84.85669 11.0214-84.88159 11.0466-84.9065 11.08702-84.9408 11.11223-84.95866 11.13744-84.97653 11.17786-84.99957 11.20306-85.0103 11.22827-85.02104 11.26869-85.03246 11.29388-85.036 11.31909-85.03954 11.35951-85.03954 11.38472-85.03583 11.40993-85.0321 11.45035-85.02023 11.47556-85.00919 11.50076-84.99812 11.54118-84.97462 11.56639-84.95616 11.5916-84.93768 11.63202-84.90204 11.65723-84.87605 11.68242-84.85007 11.72284-84.80235 11.74805-84.76878 11.77325-84.73521 11.81367-84.67532 11.83888-84.6341 11.86409-84.59286 11.90451-84.5206 11.92972-84.47163 11.95493-84.42267 11.99535-84.33792 12.02055-84.28114 12.04575-84.22437 12.08617-84.12706 12.11137-84.06238 12.13658-83.99768 12.177-83.88759 12.20221-83.81496 12.22742-83.74232 12.26784-83.61952 12.29305-83.53883 12.31825-83.45816 12.35867-83.32222 12.38388-83.23338 12.40907-83.14455 12.4495-82.99559 12.4747-82.8986 12.49991-82.8016 12.54033-82.6396 12.56554-82.53433 12.59074-82.42906 12.63116-82.25351 12.65637-82.13985 12.68158-82.0262 12.722-81.83728 12.74721-81.7152 12.7724-81.59311 12.81282-81.3906 12.83803-81.26001 12.86324-81.12941 12.90366-80.9131 12.92886-80.77393 12.95407-80.63474 12.99449-80.40472 13.0197-80.25688 13.0449-80.10902 13.08533-79.86485 13.11053-79.70825 13.13573-79.55165 13.17616-79.29362 13.20135-79.12822 13.22656-78.96284 13.26698-78.69052 13.29219-78.51619 13.3174-78.34187 13.35782-78.05513 13.38303-77.87181 13.40823-77.6885 13.44865-77.38731 13.47386-77.19499 13.49905-77.00266 13.53949-76.68704 13.56468-76.48555 13.58989-76.28407 13.63031-75.95352 13.65552-75.7428 13.68073-75.5321 13.72115-75.1869 13.74635-74.96692 13.77156-74.74695 13.81198-74.38664 13.83719-74.1573 13.86238-73.928 13.90282-73.55284 13.92801-73.31406 13.95322-73.07527 13.99364-72.6847 14.01884-72.43636 14.04405-72.18803 14.08447-71.78215 14.10968-71.52423 14.13489-71.26633 14.17531-70.84502 14.20052-70.57742 14.22571-70.30984 14.26614-69.87303 14.29134-69.59567 14.31654-69.31833 14.35696-68.86562 14.38217-68.57845 14.40738-68.29126 14.4478-67.82289 14.473-67.52583 14.49821-67.22876 14.53864-66.74448 14.56384-66.43741 14.58904-66.13034 14.62947-65.62987 14.65466-65.31274 14.67987-64.9956 14.72029-64.479 14.7455-64.15175 14.7707-63.82448 14.81113-63.29158 14.83633-62.95406 14.86154-62.61655 14.90196-62.06702 14.92717-61.7192 14.95236-61.37137 14.9928-60.80539 15.01799-60.44719 15.0432-60.08902 15.08362-59.50627 15.10883-59.13766 15.13403-58.76906 15.17445-58.16963 15.19966-57.7905 15.22487-57.41138 15.26529-56.79488 15.2905-56.4051 15.3157-56.01534 15.35612-55.38174 15.38132-54.9813 15.40652-54.58086 15.44695-53.93019 15.47215-53.519 15.49736-53.10779 15.53778-52.43967 15.56299-52.0176 15.5882-51.5955 15.62862-50.90988 15.65382-50.47691 15.67903-50.04395 15.71945-49.341 15.74464-48.89705 15.76985-48.45311 15.81027-47.73224 15.83548-47.27722 15.86069-46.82219 15.90111-46.08372 15.92632-45.61751 15.9515-45.15129 15.99194-44.39453 16.01715-43.91707 16.04236-43.43959 16.08278-42.6649 16.10797-42.17621 16.13318-41.6875 16.17358-40.89485 16.19879-40.39478 16.224-39.89471 16.26443-39.0836 16.28964-38.572 16.31485-38.06041 16.35526-37.23067 16.38046-36.70753 16.40567-36.18442 16.4461-35.33638 16.4713-34.80164 16.4965-34.26688 16.53693-33.39984 16.56212-32.85342 16.58733-32.30699 16.62775-31.42155 16.65295-30.86336 16.67816-30.30515 16.7186-29.40036 16.74379-28.83028 16.769-28.2602 16.80942-27.3365 16.83463-26.75456 16.85982-26.17262 16.90024-25.22998 16.92545-24.63602 16.95065-24.04204 16.99107-23.07974 17.01628-22.47362 17.04149-21.86751 17.08191-20.88576 17.10712-20.26755 17.13232-19.64932 17.17274-18.64836 17.19795-18.01794 17.22314-17.38751 17.26357-16.36667 17.28877-15.72389 17.31398-15.0811 17.3544-14.0404 17.37961-13.38518 17.40482-12.72997 17.44524-11.66917 17.47044-11.00151 17.49565-10.33385 17.53607-9.25328 17.56128-8.5731 17.58647-7.89291 17.62689-6.79202 17.6521-6.0992 17.6773-5.40637 17.71773-4.28525 17.74294-3.5797 17.76814-2.87416 17.80856-1.73239 17.83377-1.0141 17.85898-.29579 17.8994 .86613 17.9246 1.59732 17.9498 2.3285 17.99022 3.5116 18.01543 4.25574 18.04063 4.9999 18.08105 6.20348 18.10626 6.96063 18.13147 7.71776 18.17189 8.94252 18.1971 9.71274 18.2223 10.48296 18.26273 11.72845 18.28793 12.51181 18.31313 13.29517 18.35355 14.562 18.37875 15.35866 18.40396 16.1553 18.44438 17.4436 18.46959 18.25359 18.4948 19.06357 18.53522 20.373 18.56042 21.19635 18.58563 22.01971 18.62605 23.35092 18.65126 24.18774 18.67645 25.02458 18.71689 26.37721 18.74208 27.22766 18.76729 28.07811 18.80771 29.45311 18.83292 30.31714 18.85812 31.18118 18.89854 32.57735 18.92375 33.45508 18.94896 34.33281 18.98938 35.75168 19.01459 36.64326 19.03978 37.53485 19.08022 38.9756 19.10541 39.88101 19.13062 40.78644 19.17104 42.24962 19.19624 43.16896 19.22145 44.08829 19.26187 45.57356 19.28708 46.50696 19.31229 47.44037 19.3527 48.94878 19.37791 49.89629 19.4031 50.84378 19.44354 52.37428 19.46873 53.33595 19.49394 54.2976 19.53436 55.85129 19.55957 56.82726 19.58478 57.80322 19.6252 59.37979 19.6504 60.37003 19.67561 61.36029 19.71603 62.95961 19.74124 63.96428 19.76643 64.96896 19.80687 66.59184 19.83206 67.61104 19.85727 68.63023 19.89769 70.27625 19.9229 71.30997 19.9481 72.34369 19.98853 74.01302 20.01373 75.0614 20.03894 76.10979 20.07936 77.8029 20.10457 78.86603 20.12976 79.92915 20.1702 81.64578 20.19539 82.72368 20.2206 83.80157 20.26102 85.54196 20.28622 86.63474 20.31143 87.72748 20.35185 89.49182 20.37706 90.59958 20.40227 91.7073 20.44269 93.49576 20.4679 94.61856 20.49309 95.74135 20.53352 97.55397 20.55872 98.69188 20.58392 99.82979 20.62434 101.6667 20.64955 102.8198 20.67476 103.97287 20.71518 105.83421 20.74039 107.00253 20.7656 108.17085 20.80602 110.05655 20.83122 111.24022 20.85643 112.4239 20.89685 114.33449 20.92204 115.53362 20.94725 116.73274 20.98767 118.66812 21.01288 119.88272 21.03809 121.09732 21.0785 123.05745 21.10371 124.28761 21.12892 125.51779 21.16934 127.50305 21.19455 128.74892 21.21976 129.99478 21.26018 132.0054 21.28537 133.26697 21.31058 134.52855 21.351 136.56415 21.3762 137.8415 21.40141 139.11888 21.44183 141.18003 21.46704 142.47332 21.49225 143.76662 21.53267 145.85347 21.55788 147.16274 21.58308 148.47199 21.6235 150.58425 21.6487 151.9095 21.6739 153.23477 21.71432 155.37305 21.73953 156.7144 21.76474 158.05579 21.80516 160.21958 21.83037 161.57718 21.85558 162.93482 21.896 165.12534 21.92119 166.49922 21.9464 167.87311 21.98683 170.08902 22.01202 171.47922 22.03723 172.86942 22.07765 175.11212 22.10286 176.51882 22.12805 177.92549 22.16849 180.19448 22.1937 181.61766 22.2189 183.04087 22.25932 185.33646 22.28453 186.77622 22.30974 188.21596 22.35014 190.53795 22.37535 191.99436 22.40054 193.45075 22.44098 195.79972 22.46619 197.27288 22.4914 198.74605 22.5318 201.122 22.557 202.61196 22.58221 204.10193 22.64784 208.0115 22.64784 208.0115"/>
</g>
<use data-text="&#x2022;" xlink:href="#font_3_2" transform="matrix(9.962899,0,0,-9.962899,107.8557,60.76844)"/>
<use data-text="(" xlink:href="#font_4_1" transform="matrix(9.962899,0,0,-9.962899,71.95563,52.54319)"/>
<use data-text="&#x2212;" xlink:href="#font_3_1" transform="matrix(9.962899,0,0,-9.962899,75.830738,52.54319)"/>
<use data-text="1" xlink:href="#font_4_3" transform="matrix(9.962899,0,0,-9.962899,83.57898,52.54319)"/>
<use data-text="," xlink:href="#font_1_1" transform="matrix(9.962899,0,0,-9.962899,88.56113,52.54319)"/>
<use data-text="1" xlink:href="#font_4_3" transform="matrix(9.962899,0,0,-9.962899,92.98924,52.54319)"/>
<use data-text="2" xlink:href="#font_4_4" transform="matrix(9.962899,0,0,-9.962899,97.97069,52.54319)"/>
<use data-text=")" xlink:href="#font_4_2" transform="matrix(9.962899,0,0,-9.962899,102.95213,52.54319)"/>
<use data-text="&#x2022;" xlink:href="#font_3_2" transform="matrix(9.962899,0,0,-9.962899,124.86421,213.84305)"/>
<use data-text="(" xlink:href="#font_4_1" transform="matrix(9.962899,0,0,-9.962899,130.87439,222.6213)"/>
<use data-text="2" xlink:href="#font_4_4" transform="matrix(9.962899,0,0,-9.962899,134.73999,222.6213)"/>
<use data-text="," xlink:href="#font_1_1" transform="matrix(9.962899,0,0,-9.962899,139.73065,222.6213)"/>
<use data-text="&#x2212;" xlink:href="#font_3_1" transform="matrix(9.962899,0,0,-9.962899,144.15879,222.6213)"/>
<use data-text="1" xlink:href="#font_4_3" transform="matrix(9.962899,0,0,-9.962899,151.908,222.6213)"/>
<use data-text="5" xlink:href="#font_4_5" transform="matrix(9.962899,0,0,-9.962899,156.88945,222.6213)"/>
<use data-text=")" xlink:href="#font_4_2" transform="matrix(9.962899,0,0,-9.962899,161.8709,222.6213)"/>
</svg>
