<svg xmlns="http://www.w3.org/2000/svg" xmlns:xlink="http://www.w3.org/1999/xlink" version="1.1" width="307" height="167" viewBox="0 0 307 167">
<defs>
<path id="font_1_2" d="M.33399964 .30233766C.33999635 .32835389 .36299134 .42037965 .43299867 .42037965 .43798829 .42037965 .46199037 .42037965 .48298646 .40734864 .45498658 .402359 .43499757 .37734986 .43499757 .35334779 .43499757 .33735658 .44599916 .31835938 .47299195 .31835938 .49499513 .31835938 .5269928 .3363495 .5269928 .37635804 .5269928 .42837525 .46798707 .4423828 .43399049 .4423828 .37599183 .4423828 .34098817 .38935853 .32899476 .36634828 .3039856 .43237306 .25 .4423828 .22099304 .4423828 .116989139 .4423828 .05999756 .3133545 .05999756 .28834535 .05999756 .27833558 .069992069 .27833558 .07199097 .27833558 .07998657 .27833558 .08299255 .28033448 .084991458 .28933717 .11898804 .39535523 .18499756 .42037965 .21899414 .42037965 .23799134 .42037965 .272995 .4113617 .272995 .35334779 .272995 .32235719 .2559967 .25532533 .21899414 .11528015 .20298767 .053268434 .16799927 .011245728 .12399292 .011245728 .117996219 .011245728 .09498596 .011245728 .07398987 .024276734 .09899902 .029266358 .12098694 .05027771 .12098694 .07827759 .12098694 .105270389 .09899902 .11328125 .083999637 .11328125 .053985597 .11328125 .0289917 .08728027 .0289917 .055267335 .0289917 .009246826 .07899475-.0107421879 .12298584-.0107421879 .18899536-.0107421879 .22499085 .059280397 .22799683 .0652771 .23999024 .028274537 .27598573-.0107421879 .33599855-.0107421879 .43899537-.0107421879 .49598695 .118270877 .49598695 .14328003 .49598695 .1532898 .4869995 .1532898 .48399354 .1532898 .47499085 .1532898 .47299195 .14929199 .47099305 .14228821 .43798829 .03527832 .36999513 .011245728 .33799745 .011245728 .29899598 .011245728 .2829895 .043273927 .2829895 .07727051 .2829895 .09927368 .2889862 .121276859 .2999878 .16529846L.33399964 .30233766Z"/>
<path id="font_1_3" d="M.48599244 .38136292C.48999024 .39537049 .48999024 .39736939 .48999024 .40437318 .48999024 .42237855 .47599793 .43138124 .46099855 .43138124 .45098878 .43138124 .43499757 .42536927 .42599488 .41036988 .42399598 .405365 .41600038 .37435914 .4119873 .35635377 .40499879 .33035279 .397995 .30334474 .3919983 .27633668L.34700013 .09628296C.34298707 .08126831 .2999878 .011245728 .23399353 .011245728 .18299866 .011245728 .17199707 .055267335 .17199707 .0922699 .17199707 .1382904 .18899536 .20030213 .22299195 .28833009 .23899842 .3293457 .24299622 .3403473 .24299622 .36035157 .24299622 .405365 .21099854 .4423828 .16099549 .4423828 .06599426 .4423828 .0289917 .29733277 .0289917 .28833009 .0289917 .27833558 .038986207 .27833558 .040985109 .27833558 .050994874 .27833558 .051986696 .28033448 .056991579 .29634095 .083999637 .3903656 .12399292 .42037965 .1579895 .42037965 .1659851 .42037965 .18299866 .42037965 .18299866 .3883667 .18299866 .36335755 .17298889 .3373413 .1659851 .31834413 .12599182 .21231079 .10798645 .1552887 .10798645 .10827637 .10798645 .019256592 .17098999-.0107421879 .22999573-.0107421879 .2689972-.0107421879 .30299378 .0062561037 .33099366 .03425598 .31799317-.017745972 .30599977-.06674194 .2659912-.11973572 .23999024-.15385437 .20199585-.18309021 .1559906-.18309021 .14199829-.18309021 .09700012-.18005371 .07998657-.14074707 .09599304-.14074707 .10899353-.14074707 .12298584-.1287384 .1329956-.11973572 .14299011-.10673523 .14299011-.08773804 .14299011-.056747438 .115997318-.052734376 .10598755-.052734376 .08299255-.052734376 .049987794-.068740848 .049987794-.11773682 .049987794-.16796875 .09399414-.20507813 .1559906-.20507813 .25898744-.20507813 .3619995-.11373901 .3899994-.00074768069L.48599244 .38136292Z"/>
<clipPath id="clip_2">
<path transform="matrix(1.00008,0,0,-1.00006,148.90847,159.47679)" d="M-141.73404 0V141.73404H141.73404V0ZM141.73404 141.73404"/>
</clipPath>
<path id="font_3_1" d="M.44400025 .24998474C.44400025 .35688783 .35499574 .44381715 .25 .44381715 .14199829 .44381715 .054992677 .35488893 .054992677 .24998474 .054992677 .14407349 .14199829 .056137086 .25 .056137086 .35499574 .056137086 .44400025 .14308167 .44400025 .24998474Z"/>
<path id="font_4_1" d="M.33099366-.2400055C.33099366-.23701477 .33099366-.23500061 .31399537-.21800232 .18899536-.0920105 .15699768 .09700012 .15699768 .25 .15699768 .42399598 .19499207 .59799197 .31799317 .72299197 .33099366 .73498538 .33099366 .7369995 .33099366 .73999026 .33099366 .746994 .32699586 .75 .32099916 .75 .31098939 .75 .22099304 .6819916 .1619873 .5549927 .11099243 .44499208 .09899902 .33399964 .09899902 .25 .09899902 .17199707 .10998535 .050994874 .16499329-.06201172 .22499085-.18501282 .31098939-.25 .32099916-.25 .32699586-.25 .33099366-.24700928 .33099366-.2400055Z"/>
<path id="font_4_3" d="M.45999146 .31976319C.45999146 .39982606 .45498658 .47988893 .41999818 .5539398 .37399293 .65000918 .2919922 .6660156 .25 .6660156 .18998719 .6660156 .116989139 .64001467 .07598877 .54693606 .04399109 .47789 .038986207 .39982606 .038986207 .31976319 .038986207 .24472046 .042999269 .15464783 .083999637 .07859802 .1269989-.0024719239 .19999695-.022460938 .24899292-.022460938 .30299378-.022460938 .3789978-.0014648438 .4229889 .09359741 .45498658 .16265869 .45999146 .2407074 .45999146 .31976319M.24899292-.00047302247C.20999146-.00047302247 .15098572 .024551392 .1329956 .12062073 .12199402 .18066406 .12199402 .2727356 .12199402 .3317871 .12199402 .39582826 .12199402 .46188355 .12998963 .5159149 .14898682 .63500979 .22399903 .64401248 .24899292 .64401248 .28199769 .64401248 .34799195 .6259918 .36698915 .52693179 .3769989 .47088624 .3769989 .39482118 .3769989 .3317871 .3769989 .25672914 .3769989 .18867493 .3659973 .12461853 .35099793 .029556275 .2939911-.00047302247 .24899292-.00047302247Z"/>
<path id="font_1_1" d="M.20298767 .0009918213C.20298767 .066986087 .17799378 .10598755 .13899231 .10598755 .10598755 .10598755 .085998538 .08099365 .085998538 .052993776 .085998538 .025985718 .10598755 0 .13899231 0 .15098572 0 .1639862 .0039978029 .17399597 .0129852299 .1769867 .01499939 .17799378 .015991211 .1789856 .015991211 .17999268 .015991211 .18099976 .01499939 .18099976 .0009918213 .18099976-.07316589 .1459961-.13328552 .11299133-.16635132 .101989749-.17736817 .101989749-.17936707 .101989749-.18237305 .101989749-.18936157 .10699463-.19335938 .11199951-.19335938 .12298584-.19335938 .20298767-.116256717 .20298767 .0009918213Z"/>
<path id="font_4_4" d="M.2939911 .64004519C.2939911 .66400149 .2939911 .6660156 .2709961 .6660156 .20899964 .60227969 .12098694 .60227969 .08898926 .60227969V.57128909C.10899353 .57128909 .16799927 .57128909 .21998596 .5972748V.07902527C.21998596 .042999269 .21699524 .0309906 .1269989 .0309906H.09498596V0C.12998963 .0029907227 .21699524 .0029907227 .25698854 .0029907227 .29699708 .0029907227 .38398744 .0029907227 .4189911 0V.0309906H.3869934C.29699708 .0309906 .2939911 .041992189 .2939911 .07902527V.64004519Z"/>
<path id="font_4_2" d="M.2889862 .25C.2889862 .32798768 .27799989 .44898988 .22299195 .56199648 .16299439 .68499758 .07699585 .75 .066986087 .75 .06098938 .75 .056991579 .74598696 .056991579 .73999026 .056991579 .7369995 .056991579 .73498538 .07598877 .71699526 .17399597 .6179962 .23098755 .45899964 .23098755 .25 .23098755 .07899475 .19400025-.09700012 .069992069-.2230072 .056991579-.23500061 .056991579-.23701477 .056991579-.2400055 .056991579-.2460022 .06098938-.25 .066986087-.25 .07699585-.25 .16699219-.18200684 .22599793-.055007936 .2769928 .054992677 .2889862 .16600037 .2889862 .25Z"/>
</defs>
<path transform="matrix(1.00008,0,0,-1.00006,148.90847,159.47679)" stroke-width=".19925" stroke-linecap="butt" stroke-miterlimit="10" stroke-linejoin="miter" fill="none" stroke="#929292" d="M-141.73404 0H141.73404M-141.73404 28.3468H141.73404M-141.73404 56.69362H141.73404M-141.73404 85.04042H141.73404M-141.73404 113.38724H141.73404M-141.73404 141.72409H141.73404M-141.73404 0V141.73404M-113.38724 0V141.73404M-85.04042 0V141.73404M-56.69362 0V141.73404M-28.3468 0V141.73404M0 0V141.73404M28.3468 0V141.73404M56.69362 0V141.73404M85.04042 0V141.73404M113.38724 0V141.73404M141.72409 0V141.73404M141.73404 141.73404"/>
<path transform="matrix(1.00008,0,0,-1.00006,148.90847,159.47679)" stroke-width="1.19553" stroke-linecap="butt" stroke-miterlimit="10" stroke-linejoin="miter" fill="none" stroke="#000000" d="M-147.40332 0H146.4469"/>
<path transform="matrix(1.00008,0,0,-1.00006,295.36708,159.47679)" stroke-width=".9564" stroke-linecap="round" stroke-linejoin="round" fill="none" stroke="#000000" d="M-1.91284 2.55046C-1.75343 1.59402 0 .15938 .4782 0 0-.15938-1.75343-1.59402-1.91284-2.55046"/>
<use data-text="x" xlink:href="#font_1_2" transform="matrix(9.963397,0,0,-9.963197,300.24256,161.62192)"/>
<path transform="matrix(1.00008,0,0,-1.00006,148.90847,159.47679)" stroke-width="1.19553" stroke-linecap="butt" stroke-miterlimit="10" stroke-linejoin="miter" fill="none" stroke="#000000" d="M0-5.66927V146.4469"/>
<path transform="matrix(0,-1.00006,-1.00008,-0,148.90847,13.021118)" stroke-width=".9564" stroke-linecap="round" stroke-linejoin="round" fill="none" stroke="#000000" d="M-1.91284 2.55046C-1.75343 1.59402 0 .15938 .4782 0 0-.15938-1.75343-1.59402-1.91284-2.55046"/>
<use data-text="y" xlink:href="#font_1_3" transform="matrix(9.963397,0,0,-9.963197,146.28726,6.208603)"/>
<g clip-path="url(#clip_2)">
<path transform="matrix(1.00008,0,0,-1.00006,148.90847,159.47679)" stroke-width=".79701" stroke-linecap="butt" stroke-miterlimit="10" stroke-linejoin="miter" fill="none" stroke="#0000ff" d="M-141.73404 907.0979C-141.73404 907.0979-141.3237 897.6587-141.1661 894.15249-141.00853 890.64627-140.75579 885.2252-140.59819 881.8273-140.44062 878.4294-140.18785 873.0143-140.03026 869.6626-139.87268 866.3109-139.61994 860.9754-139.46236 857.6705-139.30477 854.36557-139.052 849.1015-138.89443 845.8427-138.73683 842.5839-138.48409 837.39669-138.3265 834.1832-138.16892 830.9698-137.91616 825.8525-137.75858 822.6825-137.60099 819.5125-137.34824 814.46347-137.19066 811.3361-137.03307 808.2088-136.7803 803.227-136.62273 800.14297-136.46515 797.0589-136.21239 792.1496-136.05481 789.10848-135.89723 786.0673-135.64449 781.22268-135.4869 778.2245-135.32932 775.2263-135.07656 770.4566-134.91896 767.49978-134.76139 764.54287-134.50864 759.82986-134.35105 756.9133-134.19347 753.9969-133.9407 749.356-133.78311 746.4797-133.62554 743.60336-133.37279 739.0198-133.21521 736.1827-133.05762 733.3456-132.80486 728.82937-132.64728 726.03189-132.48969 723.2344-132.23694 718.77957-132.07936 716.0204-131.92177 713.26119-131.669 708.8664-131.51143 706.1455-131.35384 703.4246-131.10109 699.0931-130.94351 696.4099-130.78592 693.7268-130.53316 689.4542-130.37558 686.8072-130.218 684.16018-129.96524 679.94277-129.80767 677.332-129.65009 674.7212-129.39734 670.5647-129.23975 667.9905-129.08217 665.41629-128.8294 661.3167-128.67182 658.7787-128.51424 656.24069-128.26149 652.2014-128.1039 649.698-127.94632 647.1946-127.69356 643.2047-127.53596 640.73587-127.37839 638.2669-127.12564 634.3381-126.96806 631.9038-126.81047 629.46957-126.55771 625.5926-126.40013 623.1912-126.24254 620.78988-125.98979 616.96456-125.83221 614.59628-125.67462 612.228-125.42186 608.4585-125.26428 606.1224-125.10669 603.7863-124.85394 600.06277-124.69637 597.7593-124.53877 595.45578-124.28601 591.7917-124.12843 589.5203-123.97086 587.2489-123.7181 583.629-123.56052 581.38858-123.40294 579.14816-123.15019 575.5814-122.9926 573.3728-122.83502 571.1642-122.58226 567.6492-122.42467 565.4703-122.26709 563.29147-122.01434 559.81838-121.85675 557.66909-121.69917 555.5197-121.44641 552.09848-121.28882 549.9794-121.13124 547.86038-120.8785 544.4862-120.72092 542.3966-120.56332 540.30697-120.31056 536.98068-120.15298 534.9189-119.99539 532.8571-119.74265 529.5703-119.58507 527.53677-119.42747 525.5032-119.17471 522.2665-119.01714 520.2623-118.85954 518.2582-118.6068 515.06918-118.44922 513.0921-118.29163 511.11509-118.03888 507.96379-117.8813 506.0132-117.72372 504.06266-117.47095 500.95655-117.31337 499.03379-117.15579 497.111-116.90305 494.05036-116.74545 492.15513-116.58788 490.2599-116.33511 487.24467-116.17752 485.3742-116.01994 483.50379-115.7672 480.51957-115.6096 478.67424-115.45203 476.82884-115.19926 473.89247-115.04167 472.0741-114.8841 470.25575-114.63135 467.36256-114.47377 465.56874-114.31618 463.77497-114.06342 460.91548-113.90584 459.14555-113.74825 457.37565-113.4955 454.55668-113.33792 452.81233-113.18033 451.068-112.92757 448.2932-112.76999 446.5734-112.6124 444.85359-112.35965 442.1142-112.20207 440.41709-112.04448 438.71998-111.79173 436.0158-111.63416 434.34169-111.47658 432.66755-111.2238 430.0012-111.06622 428.351-110.90865 426.7008-110.6559 424.07557-110.4983 422.44819-110.34073 420.8208-110.08797 418.2273-109.93037 416.62187-109.7728 415.01646-109.52005 412.46009-109.36246 410.87736-109.20488 409.2946-108.95212 406.77586-108.79453 405.21455-108.63695 403.65324-108.3842 401.16487-108.22662 399.62446-108.06903 398.084-107.81627 395.63096-107.65869 394.11219-107.5011 392.5934-107.24835 390.17597-107.09077 388.6782-106.93318 387.18043-106.68042 384.7942-106.52284 383.31733-106.36525 381.84046-106.1125 379.49034-105.95493 378.03388-105.79733 376.5774-105.54459 374.2567-105.38701 372.82005-105.22943 371.3834-104.97665 369.09657-104.81908 367.67936-104.6615 366.26213-104.40875 364.0034-104.25116 362.60569-104.09358 361.20796-103.84082 358.9835-103.68323 357.60554-103.52565 356.22755-103.2729 354.03288-103.11531 352.67417-102.95773 351.31544-102.70497 349.15299-102.54738 347.81288-102.3898 346.47276-102.13705 344.33763-101.97948 343.0156-101.82188 341.69358-101.56912 339.58793-101.41154 338.2845-101.25395 336.98106-101.0012 334.90675-100.84363 333.6213-100.68604 332.33589-100.43327 330.28773-100.2757 329.01997-100.1181 327.75218-99.86536 325.73405-99.70778 324.48393-99.55019 323.2338-99.29744 321.24266-99.13986 320.00975-98.98228 318.77684-98.7295 316.81404-98.57193 315.59788-98.41435 314.3817-98.1616 312.4438-98.00401 311.2444-97.84644 310.04496-97.59367 308.13575-97.43608 306.95317-97.2785 305.7706-97.02576 303.88749-96.86816 302.7212-96.71059 301.55497-96.45782 299.69825-96.30023 298.54765-96.14265 297.39707-95.88991 295.5637-95.73233 294.4286-95.57474 293.2935-95.32198 291.48576-95.1644 290.3666-95.0068 289.2475-94.75406 287.4656-94.59648 286.36265-94.43889 285.25965-94.18614 283.50483-94.02856 282.417-93.87097 281.32923-93.61821 279.5959-93.46063 278.52247-93.30304 277.449-93.0503 275.7387-92.89272 274.6802-92.73514 273.6217-92.48236 271.93733-92.32478 270.89335-92.1672 269.84934-91.91446 268.18544-91.75687 267.1558-91.59929 266.12614-91.34653 264.4874-91.18893 263.4723-91.03136 262.45719-90.77861 260.8406-90.62102 259.8394-90.46344 258.8382-90.21068 257.2437-90.05309 256.25624-89.89551 255.26879-89.64276 253.69614-89.48518 252.72243-89.32759 251.7487-89.07483 250.19873-88.91725 249.23833-88.75966 248.27793-88.50691 246.74782-88.34933 245.8005-88.19174 244.8532-87.939 243.3447-87.78142 242.4107-87.62383 241.47672-87.37106 239.99025-87.21349 239.06893-87.0559 238.14759-86.80315 236.67894-86.64557 235.7704-86.48799 234.86185-86.23521 233.4163-86.07764 232.52072-85.92006 231.62516-85.66731 230.19925-85.50972 229.31562-85.35214 228.43199-85.09938 227.02289-84.94179 226.15204-84.78421 225.28119-84.53146 223.8978-84.37387 223.03908-84.2163 222.18035-83.96353 220.81061-83.80594 219.96286-83.64836 219.11511-83.39561 217.76471-83.23804 216.92903-83.08044 216.09336-82.82768 214.76386-82.6701 213.93976-82.51251 213.11566-82.25977 211.80283-82.10219 210.98943-81.9446 210.17601-81.69185 208.87923-81.53427 208.07715-81.37668 207.27507-81.12392 205.99881-80.96634 205.20854-80.80875 204.41829-80.556 203.16124-80.39842 202.38149-80.24084 201.60173-79.98807 200.35814-79.83049 199.5886-79.67291 198.81903-79.42017 197.59354-79.26257 196.83504-79.105 196.07654-78.85223 194.86963-78.69464 194.12174-78.53706 193.37384-78.28432 192.18238-78.12672 191.44475-77.96915 190.70714-77.71638 189.53266-77.55879 188.80542-77.40121 188.07819-77.14847 186.92072-76.99089 186.20326-76.8333 185.48581-76.58054 184.34215-76.42296 183.63442-76.26537 182.9267-76.01262 181.80017-75.85504 181.10234-75.69745 180.40451-75.4447 179.293-75.28712 178.60488-75.12953 177.91677-74.87677 176.82169-74.7192 176.14287-74.5616 175.46405-74.30885 174.38207-74.15128 173.71244-73.9937 173.0428-73.74092 171.9765-73.58334 171.3166-73.42577 170.65671-73.17302 169.60715-73.01543 168.95624-72.85785 168.30535-72.60509 167.26769-72.4475 166.6253-72.28992 165.98293-72.03717 164.95955-71.87958 164.32636-71.722 163.69316-71.46924 162.68598-71.31165 162.0616-71.15407 161.43723-70.90132 160.44208-70.74374 159.82624-70.58615 159.21039-70.3334 158.22998-70.17583 157.6229-70.01823 157.0158-69.76547 156.04973-69.6079 155.45069-69.4503 154.85163-69.19756 153.89653-69.03998 153.30529-68.88239 152.71404-68.62962 151.77191-68.47205 151.1893-68.31445 150.6067-68.0617 149.6806-67.90413 149.10622-67.74655 148.53182-67.49377 147.61632-67.3362 147.04949-67.17862 146.48267-66.92587 145.57955-66.76828 145.02089-66.6107 144.46224-66.35794 143.57387-66.20035 143.023-66.04277 142.47214-65.79002 141.59421-65.63243 141.05063-65.47485 140.50704-65.22209 139.64112-65.0645 139.10507-64.90692 138.56903-64.65417 137.71567-64.4966 137.1872-64.339 136.6587-64.08626 135.81754-63.92868 135.29615-63.77109 134.77475-63.51833 133.94344-63.36075 133.4293-63.20316 132.91518-62.95041 132.09757-62.79283 131.59058-62.63524 131.0836-62.38248 130.27538-62.2249 129.77523-62.0673 129.27509-61.81456 128.47893-61.65698 127.98581-61.4994 127.49269-61.24663 126.70734-61.08905 126.22105-60.93147 125.73479-60.67873 124.96075-60.52113 124.48096-60.36356 124.00114-60.1108 123.23601-59.9532 122.76291-59.79562 122.28983-59.54288 121.53772-59.38528 121.07126-59.2277 120.60478-58.97495 119.8608-58.81735 119.4008-58.65977 118.9408-58.40703 118.20973-58.24945 117.75586-58.09186 117.30199-57.83911 116.57703-57.68153 116.12952-57.52394 115.682-57.27118 114.97159-57.1136 114.53043-56.95601 114.08926-56.70326 113.38533-56.54568 112.94994-56.38809 112.51453-56.13533 111.82132-55.97775 111.39235-55.82016 110.96338-55.56741 110.28117-55.40984 109.85815-55.25226 109.43513-54.99948 108.76097-54.8419 108.3434-54.68433 107.92583-54.43158 107.26022-54.27399 106.84854-54.11641 106.43686-53.86365 105.7821-53.70605 105.37619-53.54848 104.97026-53.29573 104.32326-53.13814 103.92287-52.98056 103.52246-52.7278 102.88525-52.5702 102.4903-52.41263 102.09535-52.15988 101.46576-52.0023 101.07634-51.84471 100.6869-51.59196 100.06764-51.43439 99.68356-51.2768 99.29948-51.02403 98.68701-50.86646 98.30809-50.70886 97.92915-50.45612 97.32602-50.29854 96.95251-50.14095 96.579-49.88818 95.98433-49.7306 95.61597-49.57301 95.2476-49.32027 94.66103-49.16269 94.29759-49.00511 93.93416-48.75233 93.35492-48.59476 92.99652-48.43718 92.6381-48.18443 92.06795-48.02684 91.71448-47.86926 91.361-47.6165 90.79724-47.45891 90.44887-47.30133 90.10051-47.04858 89.5471-46.89099 89.20358-46.73341 88.86008-46.48067 88.31221-46.32307 87.97302-46.1655 87.63383-45.91273 87.09326-45.75516 86.75888-45.59756 86.4245-45.34482 85.89256-45.18724 85.56291-45.02965 85.23326-44.77689 84.7081-44.61931 84.38295-44.46172 84.0578-44.20897 83.53996-44.05139 83.21942-43.8938 82.8989-43.64104 82.38896-43.48346 82.07277-43.32587 81.75656-43.07312 81.2524-42.91554 80.94038-42.75797 80.62839-42.50519 80.13156-42.34761 79.824-42.19003 79.51643-41.93729 79.02687-41.7797 78.72363-41.62212 78.4204-41.36935 77.93756-41.21176 77.6384-41.05418 77.33923-40.80144 76.86258-40.64384 76.56743-40.48627 76.2723-40.23352 75.80223-40.07593 75.51117-39.91835 75.22011-39.66559 74.75655-39.50801 74.46962-39.35042 74.1827-39.09767 73.72629-38.9401 73.4432-38.7825 73.16014-38.52974 72.70845-38.37216 72.42934-38.21457 72.1502-37.96182 71.70657-37.80424 71.43147-37.64665 71.15637-37.39389 70.71802-37.23631 70.44658-37.07872 70.17516-36.82597 69.7427-36.6684 69.4751-36.51082 69.2075-36.25804 68.78171-36.10046 68.5179-35.94289 68.25407-35.69014 67.83406-35.53255 67.57367-35.37497 67.31328-35.12221 66.89815-34.96461 66.64111-34.80704 66.38408-34.55429 65.97443-34.3967 65.72112-34.23912 65.4678-33.98637 65.06502-33.82878 64.81537-33.6712 64.56573-33.41844 64.16797-33.26086 63.92174-33.10327 63.67552-32.85052 63.28354-32.69295 63.04066-32.53535 62.7978-32.2826 62.41095-32.12502 62.17126-31.96742 61.93158-31.71468 61.54944-31.5571 61.31311-31.3995 61.07678-31.14674 60.70078-30.98917 60.46793-30.83157 60.23508-30.57883 59.86464-30.42125 59.63486-30.26367 59.40508-30.0109 59.0384-29.85332 58.81175-29.69574 58.58508-29.443 58.2246-29.2854 58.00116-29.12782 57.77774-28.87508 57.42189-28.71748 57.2014-28.5599 56.98091-28.30714 56.62938-28.14955 56.41203-27.99197 56.19467-27.73923 55.84886-27.58163 55.63475-27.42406 55.42062-27.1713 55.07991-27.01372 54.86871-26.85612 54.65753-26.60338 54.32114-26.4458 54.11266-26.28821 53.90417-26.03545 53.57193-25.87787 53.3661-25.72028 53.16026-25.46753 52.83182-25.30995 52.62904-25.15236 52.42627-24.8996 52.10445-24.74202 51.90454-24.58443 51.70465-24.33168 51.38559-24.1741 51.18826-24.01653 50.99094-23.76375 50.67685-23.60617 50.48236-23.4486 50.28786-23.19585 49.97826-23.03825 49.7864-22.88068 49.59456-22.62793 49.2887-22.47034 49.09953-22.31276 48.91039-22.06 48.60962-21.9024 48.42305-21.74483 48.23648-21.49208 47.93877-21.33449 47.75478-21.17691 47.57079-20.92415 47.27835-20.76657 47.09688-20.60898 46.91539-20.35623 46.6258-20.19865 46.44678-20.04106 46.26776-19.7883 45.98312-19.63072 45.80663-19.47313 45.63013-19.22038 45.34883-19.0628 45.17468-18.90521 45.00052-18.65245 44.72302-18.49487 44.55139-18.33728 44.37976-18.08453 44.1068-17.92696 43.93764-17.76938 43.76846-17.5166 43.49896-17.35902 43.33208-17.20145 43.16519-16.9487 42.89935-16.7911 42.73474-16.63353 42.57014-16.38078 42.30801-16.22319 42.14563-16.06561 41.98323-15.81285 41.72446-15.65526 41.56429-15.49768 41.40411-15.24493 41.14914-15.08734 40.99118-14.92976 40.83324-14.677 40.58165-14.51942 40.42586-14.36183 40.27007-14.10909 40.02194-13.9515 39.8683-13.79391 39.71468-13.54115 39.4701-13.38358 39.31856-13.22598 39.16702-12.97324 38.92552-12.81566 38.77615-12.65807 38.62677-12.4053 38.38934-12.24773 38.24197-12.09013 38.09459-11.83739 37.85924-11.67981 37.71384-11.52223 37.56844-11.26945 37.33723-11.11188 37.19392-10.9543 37.05061-10.70155 36.8222-10.54396 36.68094-10.38638 36.53967-10.13364 36.31508-9.97604 36.17574-9.81847 36.03639-9.5657 35.81407-9.40811 35.67659-9.25053 35.53911-8.99779 35.3203-8.8402 35.18478-8.68262 35.04929-8.42986 34.8336-8.27228 34.6999-8.11469 34.56621-7.86194 34.353-7.70436 34.22108-7.54677 34.08919-7.294 33.87923-7.13643 33.74919-6.97884 33.61916-6.72609 33.41197-6.56851 33.28378-6.41092 33.1556-6.15816 32.95172-6.00058 32.82529-5.84299 32.69885-5.59024 32.4972-5.43266 32.37242-5.27509 32.24767-5.02232 32.04906-4.86475 31.92604-4.70717 31.80304-4.4544 31.60701-4.29681 31.48572-4.13924 31.36444-3.88649 31.17148-3.7289 31.0519-3.57132 30.9323-3.31856 30.74171-3.16096 30.62367-3.00339 30.50563-2.75064 30.31743-2.59305 30.20108-2.43547 30.08472-2.18271 29.89973-2.02513 29.78499-1.86754 29.67024-1.61479 29.48726-1.45721 29.37407-1.29962 29.2609-1.04686 29.08076-.88928 28.96922-.73169 28.85767-.47894 28.67938-.32137 28.56998-.16377 28.46059 .08896 28.2886 .24654 28.18071 .40413 28.0728 .65688 27.89928 .81445 27.79228 .97203 27.68529 1.2248 27.51492 1.38237 27.40948 1.53995 27.30403 1.79271 27.1362 1.9503 27.03232 2.10788 26.92844 2.36063 26.76344 2.51822 26.66077 2.6758 26.55809 2.92856 26.3937 3.08615 26.29224 3.24373 26.19077 3.49648 26.02927 3.65407 25.92934 3.81165 25.82942 4.0644 25.67043 4.22198 25.57207 4.37958 25.47371 4.63232 25.31757 4.7899 25.22041 4.9475 25.12326 5.20026 24.9678 5.35783 24.87178 5.51543 24.77577 5.76817 24.6228 5.92575 24.52835 6.08334 24.4339 6.3361 24.28416 6.49368 24.19098 6.65128 24.0978 6.90402 23.94862 7.0616 23.85663 7.21918 23.76462 7.47194 23.61838 7.62952 23.52788 7.7871 23.43738 8.03986 23.29372 8.19745 23.20435 8.35503 23.11499 8.60777 22.97234 8.76537 22.88383 8.92294 22.79533 9.1757 22.65324 9.3333 22.56636 9.49088 22.47946 9.74362 22.34328 9.90121 22.25752 10.05879 22.17177 10.31155 22.03287 10.46913 21.94826 10.62672 21.86365 10.87947 21.73062 11.03705 21.64764 11.19464 21.56465 11.4474 21.43227 11.60498 21.35007 11.76257 21.26785 12.01532 21.1365 12.1729 21.05507 12.33049 20.97363 12.58325 20.84335 12.74083 20.7631 12.89842 20.68288 13.15117 20.55544 13.30875 20.47676 13.46632 20.3981 13.71909 20.27394 13.87666 20.19604 14.03424 20.11815 14.287 19.99202 14.4446 19.91533 14.60217 19.83864 14.85492 19.71875 15.01251 19.64326 15.17009 19.56776 15.42285 19.44597 15.58044 19.3712 15.73802 19.29645 15.99077 19.17789 16.14836 19.10432 16.30594 19.03076 16.5587 18.91364 16.71628 18.84091 16.87387 18.76819 17.12662 18.65167 17.2842 18.5801 17.44179 18.50851 17.69455 18.39532 17.85213 18.32489 18.00972 18.25444 18.26247 18.14195 18.42004 18.07228 18.57764 18.00261 18.83038 17.89156 18.98796 17.82272 19.14555 17.75388 19.39832 17.6438 19.5559 17.57617 19.71347 17.50853 19.96623 17.4021 20.12381 17.33525 20.28139 17.2684 20.53415 17.16039 20.69174 17.09431 20.84932 17.02824 21.10207 16.92395 21.25966 16.85902 21.41724 16.79408 21.67 16.69048 21.82759 16.62633 21.98517 16.56216 22.23792 16.45958 22.39551 16.39664 22.55309 16.33368 22.80585 16.23474 22.96342 16.17259 23.12102 16.11043 23.37376 16.01027 23.53134 15.94853 23.68893 15.88678 23.9417 15.78806 24.09927 15.72751 24.25687 15.66695 24.50961 15.57185 24.66719 15.51208 24.82478 15.45233 25.07753 15.35568 25.2351 15.29669 25.3927 15.23772 25.64546 15.14474 25.80304 15.08691 25.96062 15.02907 26.21338 14.93713 26.37096 14.87971 26.52853 14.8223 26.7813 14.72961 26.93889 14.67297 27.09647 14.61633 27.34921 14.52728 27.5068 14.4714 27.66438 14.41554 27.91714 14.32536 28.07474 14.27028 28.23232 14.21518 28.48506 14.12822 28.64265 14.07434 28.80023 14.02045 29.053 13.93533 29.21057 13.88187 29.36816 13.8284 29.62091 13.7417 29.77849 13.68895 29.93608 13.6362 30.18884 13.55356 30.34642 13.50166 30.50401 13.44975 30.75676 13.36629 30.91434 13.3148 31.07193 13.2633 31.32468 13.18129 31.48225 13.13054 31.63985 13.07977 31.89261 12.99886 32.05019 12.94887 32.20776 12.89888 32.46053 12.81938 32.6181 12.77023 32.77568 12.72108 33.02844 12.64297 33.18604 12.59462 33.34361 12.54626 33.59636 12.46925 33.75395 12.4216 33.91153 12.37396 34.16429 12.2984 34.32188 12.25119 34.47946 12.20398 34.73221 12.128 34.8898 12.0812 35.04738 12.0344 35.30014 11.95982 35.45772 11.91382 35.61531 11.8678 35.86806 11.79463 36.02563 11.74945 36.18323 11.70427 36.43599 11.63258 36.59357 11.5881 36.75116 11.54364 37.0039 11.47304 37.16148 11.42892 37.31908 11.38483 37.57182 11.31383 37.7294 11.27019 37.887 11.22656 38.13976 11.15732 38.29733 11.11447 38.45491 11.07164 38.70767 11.0035 38.86525 10.96136 39.02283 10.91924 39.27559 10.85254 39.43318 10.81084 39.59076 10.76913 39.8435 10.70161 40.0011 10.66075 40.15868 10.61989 40.41144 10.55678 40.56903 10.51628 40.72661 10.47578 40.97935 10.40894 41.13695 10.36879 41.29453 10.32864 41.54729 10.26627 41.70486 10.22691 41.86246 10.18755 42.1152 10.124 42.27278 10.08505 42.43037 10.0461 42.68312 9.98434 42.8407 9.9462 42.99829 9.90804 43.25105 9.8477 43.40863 9.80995 43.56622 9.7722 43.81897 9.71146 43.97655 9.67413 44.13414 9.63681 44.3869 9.57751 44.54448 9.54091 44.70206 9.5043 44.95482 9.44646 45.1124 9.41028 45.26997 9.3741 45.52274 9.31584 45.68033 9.28009 45.8379 9.24432 46.09065 9.1879 46.24825 9.1525 46.40582 9.1171 46.65858 9.05994 46.81618 9.02489 46.97375 8.98985 47.2265 8.93414 47.3841 8.89989 47.54167 8.86562 47.79443 8.81168 47.95201 8.77791 48.1096 8.74413 48.36235 8.68977 48.51993 8.65636 48.67752 8.62296 48.93027 8.56969 49.08784 8.53699 49.24544 8.50429 49.4982 8.45285 49.65578 8.42064 49.81337 8.38843 50.06612 8.33694 50.2237 8.30472 50.38129 8.27248 50.63405 8.22021 50.79163 8.18835 50.9492 8.1565 51.20197 8.10611 51.35954 8.07504 51.51712 8.04396 51.76988 7.99503 51.92747 7.96431 52.08505 7.93358 52.3378 7.88388 52.49539 7.85358 52.65297 7.82327 52.90573 7.77533 53.06332 7.74586 53.2209 7.71642 53.47365 7.67067 53.63124 7.6412 53.78882 7.61174 54.04158 7.56259 54.19916 7.5335 54.35675 7.50441 54.6095 7.45975 54.76707 7.43141 54.92467 7.40309 55.17741 7.35767 55.33499 7.32933 55.49258 7.30101 55.74535 7.25522 55.90292 7.22725 56.06052 7.1993 56.31326 7.1553 56.47084 7.12778 56.62843 7.10025 56.8812 7.05585 57.03877 7.02873 57.19635 7.00162 57.44911 6.95903 57.60669 6.93228 57.76427 6.90552 58.01703 6.86217 58.17462 6.83582 58.3322 6.80948 58.58495 6.76837 58.74254 6.74239 58.90012 6.71642 59.15288 6.67409 59.31047 6.64853 59.46805 6.62297 59.7208 6.58327 59.87839 6.55812 60.03596 6.53297 60.28873 6.4925 60.4463 6.4673 60.6039 6.4421 60.85664 6.40125 61.01422 6.37646 61.17181 6.35168 61.42456 6.31265 61.58214 6.28865 61.73973 6.26465 61.9925 6.22702 62.15007 6.20345 62.30766 6.17987 62.56041 6.14224 62.71799 6.11867 62.87558 6.0951 63.12834 6.05667 63.28592 6.03346 63.4435 6.01025 63.69626 5.97408 63.85384 5.95128 64.01141 5.92848 64.26418 5.8919 64.42177 5.8691 64.57935 5.8463 64.83209 5.80936 64.98969 5.78691 65.14726 5.76448 65.40002 5.72939 65.55762 5.70732 65.7152 5.68524 65.96794 5.6494 66.12553 5.62773 66.28311 5.60608 66.53586 5.57236 66.69344 5.55118 66.85103 5.53 67.10379 5.49622 67.26137 5.47505 67.41896 5.45387 67.6717 5.41936 67.82928 5.39848 67.98688 5.37761 68.23964 5.34499 68.39722 5.32452 68.55481 5.30406 68.80756 5.27145 68.96513 5.25099 69.12273 5.23053 69.37549 5.19713 69.53307 5.17703 69.69064 5.15694 69.9434 5.1257 70.10098 5.1061 70.25856 5.08649 70.51132 5.05486 70.66891 5.03558 70.82649 5.01633 71.07924 4.98615 71.23683 4.96725 71.39441 4.94836 71.64717 4.91824 71.80476 4.89935 71.96234 4.88045 72.21509 4.8499 72.37268 4.831 72.53026 4.8121 72.783 4.78156 72.94058 4.76309 73.09818 4.74461 73.35094 4.71585 73.50851 4.69778 73.6661 4.67972 73.91885 4.6506 74.07643 4.6329 74.23402 4.6152 74.48679 4.58751 74.64436 4.57018 74.80196 4.55284 75.0547 4.52516 75.21228 4.50789 75.36987 4.49063 75.62263 4.46288 75.78021 4.44562 75.93779 4.42834 76.19055 4.40025 76.34813 4.38333 76.5057 4.36641 76.75847 4.34013 76.91606 4.32364 77.07364 4.30714 77.32639 4.28087 77.48398 4.26437 77.64156 4.24788 77.89432 4.22125 78.05191 4.2047 78.20949 4.18814 78.46223 4.16112 78.61983 4.14499 78.7774 4.12886 79.03015 4.10405 79.18773 4.08833 79.34532 4.07262 79.59808 4.04703 79.75566 4.03168 79.91325 4.01633 80.166 3.99297 80.32358 3.9776 80.48117 3.96225 80.73393 3.93623 80.89151 3.92094 81.0491 3.90565 81.30185 3.88225 81.45943 3.8673 81.61702 3.85236 81.86978 3.82782 82.02736 3.81325 82.18494 3.79866 82.4377 3.77635 82.59528 3.76219 82.75285 3.74805 83.00562 3.72531 83.16321 3.71117 83.32079 3.697 83.57353 3.67429 83.73112 3.66013 83.8887 3.64598 84.14145 3.62323 84.29904 3.60909 84.45662 3.59492 84.70938 3.57178 84.86697 3.55804 85.02455 3.54431 85.2773 3.52342 85.43488 3.51004 85.59247 3.49666 85.84523 3.47496 86.0028 3.4616 86.1604 3.44821 86.41315 3.42696 86.57072 3.41357 86.72832 3.4002 86.98108 3.37808 87.13866 3.36513 87.29625 3.35219 87.549 3.33269 87.70657 3.32014 87.86417 3.3076 88.11693 3.28732 88.2745 3.27472 88.43208 3.26213 88.68484 3.24193 88.84242 3.22932 89 3.21672 89.25276 3.19608 89.41035 3.1839 89.56793 3.17172 89.82068 3.15369 89.97827 3.14151 90.13585 3.12933 90.3886 3.10832 90.54619 3.09608 90.70377 3.08385 90.95653 3.06508 91.11412 3.05327 91.2717 3.04146 91.52444 3.02228 91.68202 3.01088 91.83961 2.99948 92.09238 2.98248 92.24995 2.97108 92.40755 2.95969 92.6603 2.9401 92.81787 2.9287 92.97546 2.9173 93.22823 2.89993 93.3858 2.8889 93.5434 2.87787 93.79614 2.86009 93.95372 2.84912 94.11131 2.83813 94.36407 2.82037 94.52165 2.80975 94.67923 2.79915 94.93199 2.78317 95.08957 2.77255 95.24715 2.76195 95.49991 2.7438 95.6575 2.73318 95.81508 2.72258 96.06783 2.70625 96.22542 2.69598 96.383 2.68573 96.63574 2.66943 96.79333 2.65923 96.95091 2.64903 97.20367 2.63266 97.36127 2.62245 97.51884 2.61226 97.77159 2.59589 97.92917 2.5857 98.08676 2.57552 98.33952 2.55878 98.4971 2.54893 98.6547 2.53911 98.90744 2.52423 99.06502 2.51477 99.22261 2.5053 99.47537 2.49 99.63295 2.48059 99.79054 2.47118 100.04329 2.45627 100.20087 2.44685 100.35846 2.43745 100.61122 2.42215 100.7688 2.41269 100.92638 2.40321 101.17914 2.38792 101.33672 2.37851 101.4943 2.3691 101.74706 2.35378 101.90465 2.34477 102.06223 2.33577 102.31497 2.32233 102.47256 2.31363 102.63014 2.30493 102.88289 2.29074 103.04048 2.28206 103.19806 2.27336 103.45082 2.25955 103.60841 2.25092 103.76599 2.24228 104.01874 2.22841 104.17632 2.21977 104.33391 2.21114 104.58667 2.19725 104.74425 2.18861 104.90184 2.18 105.15459 2.16576 105.31216 2.15749 105.46976 2.14922 105.72252 2.1372 105.8801 2.12894 106.03769 2.12067 106.29044 2.106 106.44801 2.0978 106.6056 2.08958 106.85837 2.07755 107.01595 2.06969 107.17352 2.06183 107.42628 2.049 107.58386 2.04114 107.74144 2.03328 107.99419 2.02089 108.15178 2.01302 108.30936 2.00516 108.56212 1.99197 108.71971 1.98447 108.87729 1.97697 109.13004 1.96638 109.28763 1.95895 109.4452 1.95152 109.69797 1.93828 109.85556 1.93085 110.01314 1.9234 110.26588 1.91281 110.42346 1.90532 110.58105 1.89783 110.83382 1.88426 110.9914 1.87677 111.14899 1.86928 111.40173 1.8583 111.55931 1.85124 111.7169 1.84418 111.96967 1.83281 112.12724 1.82573 112.28484 1.81866 112.53758 1.80687 112.69516 1.80022 112.85275 1.79355 113.10551 1.78436 113.26309 1.77771 113.42067 1.77106 113.67343 1.75928 113.83101 1.7522 113.98859 1.74513 114.24133 1.7334 114.39893 1.72668 114.5565 1.71996 114.80927 1.71005 114.96686 1.70375 115.12444 1.69746 115.37718 1.68755 115.53477 1.68126 115.69235 1.67496 115.94511 1.66463 116.1027 1.65833 116.26028 1.65204 116.51303 1.64214 116.67061 1.63585 116.8282 1.62955 117.08096 1.61922 117.23854 1.61292 117.39613 1.60663 117.64888 1.59665 117.80646 1.59042 117.96405 1.5842 118.21681 1.57423 118.37439 1.56793 118.53198 1.56165 118.78473 1.55095 118.9423 1.54501 119.0999 1.5391 119.35266 1.53099 119.51024 1.52512 119.66782 1.51924 119.92058 1.50848 120.07816 1.50261 120.23573 1.49675 120.48848 1.48825 120.64607 1.48273 120.80365 1.47722 121.05641 1.46835 121.214 1.46283 121.37158 1.45732 121.62433 1.44846 121.78192 1.44293 121.9395 1.43741 122.19226 1.42856 122.34985 1.42303 122.50743 1.41751 122.76018 1.40866 122.91776 1.40314 123.07535 1.39761 123.32811 1.38875 123.48569 1.38324 123.64328 1.37772 123.89603 1.36844 124.0536 1.36336 124.2112 1.35826 124.46396 1.35156 124.62154 1.34648 124.77913 1.34138 125.03188 1.33167 125.18945 1.32658 125.34705 1.32149 125.59981 1.31479 125.75739 1.30971 125.91496 1.30461 126.16772 1.2949 126.3253 1.28983 126.48288 1.28473 126.73563 1.27768 126.89322 1.27295 127.0508 1.26822 127.30356 1.26038 127.46115 1.25565 127.61873 1.25092 127.87148 1.24344 128.02907 1.23877 128.18665 1.2341 128.4394 1.22664 128.597 1.22191 128.75458 1.21718 129.00733 1.20932 129.1649 1.20459 129.3225 1.19987 129.57526 1.1924 129.73284 1.18774 129.89043 1.18307 130.14318 1.1756 130.30075 1.17087 130.45835 1.16614 130.7111 1.15788 130.86869 1.15356 131.02628 1.14925 131.27902 1.14403 131.4366 1.13971 131.5942 1.13539 131.84694 1.12674 132.00452 1.12242 132.1621 1.1181 132.41487 1.1129 132.57245 1.10858 132.73003 1.10426 132.98278 1.09566 133.14037 1.09128 133.29795 1.0869 133.5507 1.0809 133.7083 1.07701 133.86588 1.07312 134.11862 1.06705 134.27622 1.06316 134.43379 1.05927 134.68656 1.0532 134.84415 1.04889 135.00173 1.04457 135.25447 1.03635 135.41205 1.03203 135.56964 1.02771 135.8224 1.0217 135.97998 1.01775 136.13758 1.0138 136.39032 1.007 136.5479 1.00348 136.70549 .99995 136.95825 .99576 137.11583 .99222 137.27342 .9887 137.52617 .9819 137.68375 .97795 137.84134 .974 138.09409 .96764 138.25167 .96367 138.40924 .95972 138.66202 .95293 138.8196 .9494 138.97718 .94588 139.22992 .9417 139.38751 .93817 139.54509 .93465 139.79785 .92741 139.95545 .92389 140.11302 .92036 140.36577 .91617 140.52336 .91264 140.68094 .90912 140.9337 .9019 141.0913 .89836 141.24887 .89484 141.6592 .88712 141.6592 .88712"/>
</g>
<use data-text="&#x2022;" xlink:href="#font_3_1" transform="matrix(9.963397,0,0,-9.963197,146.41727,133.34223)"/>
<use data-text="(" xlink:href="#font_4_1" transform="matrix(9.963397,0,0,-9.963197,123.247409,125.11774)"/>
<use data-text="0" xlink:href="#font_4_3" transform="matrix(9.963397,0,0,-9.963197,127.11322,125.11774)"/>
<use data-text="," xlink:href="#font_1_1" transform="matrix(9.963397,0,0,-9.963197,132.10413,125.11774)"/>
<use data-text="1" xlink:href="#font_4_4" transform="matrix(9.963397,0,0,-9.963197,136.53148,125.11774)"/>
<use data-text=")" xlink:href="#font_4_2" transform="matrix(9.963397,0,0,-9.963197,141.51317,125.11774)"/>
</svg>
