<svg xmlns="http://www.w3.org/2000/svg" xmlns:xlink="http://www.w3.org/1999/xlink" version="1.1" width="163" height="146" viewBox="0 0 163 146">
<defs>
<path id="font_1_5" d="M.33399964 .30233766C.33999635 .32835389 .36299134 .42037965 .43299867 .42037965 .43798829 .42037965 .46199037 .42037965 .48298646 .40734864 .45498658 .402359 .43499757 .37734986 .43499757 .35334779 .43499757 .33735658 .44599916 .31835938 .47299195 .31835938 .49499513 .31835938 .5269928 .3363495 .5269928 .37635804 .5269928 .42837525 .46798707 .4423828 .43399049 .4423828 .37599183 .4423828 .34098817 .38935853 .32899476 .36634828 .3039856 .43237306 .25 .4423828 .22099304 .4423828 .116989139 .4423828 .05999756 .3133545 .05999756 .28834535 .05999756 .27833558 .069992069 .27833558 .07199097 .27833558 .07998657 .27833558 .08299255 .28033448 .084991458 .28933717 .11898804 .39535523 .18499756 .42037965 .21899414 .42037965 .23799134 .42037965 .272995 .4113617 .272995 .35334779 .272995 .32235719 .2559967 .25532533 .21899414 .11528015 .20298767 .053268434 .16799927 .011245728 .12399292 .011245728 .117996219 .011245728 .09498596 .011245728 .07398987 .024276734 .09899902 .029266358 .12098694 .05027771 .12098694 .07827759 .12098694 .105270389 .09899902 .11328125 .083999637 .11328125 .053985597 .11328125 .0289917 .08728027 .0289917 .055267335 .0289917 .009246826 .07899475-.0107421879 .12298584-.0107421879 .18899536-.0107421879 .22499085 .059280397 .22799683 .0652771 .23999024 .028274537 .27598573-.0107421879 .33599855-.0107421879 .43899537-.0107421879 .49598695 .118270877 .49598695 .14328003 .49598695 .1532898 .4869995 .1532898 .48399354 .1532898 .47499085 .1532898 .47299195 .14929199 .47099305 .14228821 .43798829 .03527832 .36999513 .011245728 .33799745 .011245728 .29899598 .011245728 .2829895 .043273927 .2829895 .07727051 .2829895 .09927368 .2889862 .121276859 .2999878 .16529846L.33399964 .30233766Z"/>
<path id="font_1_6" d="M.48599244 .38136292C.48999024 .39537049 .48999024 .39736939 .48999024 .40437318 .48999024 .42237855 .47599793 .43138124 .46099855 .43138124 .45098878 .43138124 .43499757 .42536927 .42599488 .41036988 .42399598 .405365 .41600038 .37435914 .4119873 .35635377 .40499879 .33035279 .397995 .30334474 .3919983 .27633668L.34700013 .09628296C.34298707 .08126831 .2999878 .011245728 .23399353 .011245728 .18299866 .011245728 .17199707 .055267335 .17199707 .0922699 .17199707 .1382904 .18899536 .20030213 .22299195 .28833009 .23899842 .3293457 .24299622 .3403473 .24299622 .36035157 .24299622 .405365 .21099854 .4423828 .16099549 .4423828 .06599426 .4423828 .0289917 .29733277 .0289917 .28833009 .0289917 .27833558 .038986207 .27833558 .040985109 .27833558 .050994874 .27833558 .051986696 .28033448 .056991579 .29634095 .083999637 .3903656 .12399292 .42037965 .1579895 .42037965 .1659851 .42037965 .18299866 .42037965 .18299866 .3883667 .18299866 .36335755 .17298889 .3373413 .1659851 .31834413 .12599182 .21231079 .10798645 .1552887 .10798645 .10827637 .10798645 .019256592 .17098999-.0107421879 .22999573-.0107421879 .2689972-.0107421879 .30299378 .0062561037 .33099366 .03425598 .31799317-.017745972 .30599977-.06674194 .2659912-.11973572 .23999024-.15385437 .20199585-.18309021 .1559906-.18309021 .14199829-.18309021 .09700012-.18005371 .07998657-.14074707 .09599304-.14074707 .10899353-.14074707 .12298584-.1287384 .1329956-.11973572 .14299011-.10673523 .14299011-.08773804 .14299011-.056747438 .115997318-.052734376 .10598755-.052734376 .08299255-.052734376 .049987794-.068740848 .049987794-.11773682 .049987794-.16796875 .09399414-.20507813 .1559906-.20507813 .25898744-.20507813 .3619995-.11373901 .3899994-.00074768069L.48599244 .38136292Z"/>
<path id="font_2_4" d="M.68699648 .32714845C.70199587 .32714845 .72099307 .32714845 .72099307 .34713746 .72099307 .36714173 .70199587 .36714173 .6879883 .36714173H.08898926C.07499695 .36714173 .055999757 .36714173 .055999757 .34713746 .055999757 .32714845 .07499695 .32714845 .08999634 .32714845H.68699648M.6879883 .13284302C.70199587 .13284302 .72099307 .13284302 .72099307 .15284729 .72099307 .17285156 .70199587 .17285156 .68699648 .17285156H.08999634C.07499695 .17285156 .055999757 .17285156 .055999757 .15284729 .055999757 .13284302 .07499695 .13284302 .08898926 .13284302H.6879883Z"/>
<path id="font_1_2" d="M.36698915 .3996582H.45298768C.47299195 .3996582 .48298646 .3996582 .48298646 .41966249 .48298646 .43066407 .47299195 .43066407 .45599366 .43066407H.37298585L.3939972 .5449524C.397995 .5660095 .4119873 .6370239 .41799928 .6490326 .4269867 .66804507 .44400025 .68307498 .46499635 .68307498 .46899415 .68307498 .49499513 .68307498 .5139923 .66503909 .46998597 .661026 .45999146 .6260376 .45999146 .6110382 .45999146 .58802798 .47799684 .57603457 .49699403 .57603457 .522995 .57603457 .5519867 .5980377 .5519867 .6360321 .5519867 .6820679 .5059967 .7050781 .46499635 .7050781 .43099977 .7050781 .36799623 .68707278 .33799745 .58802798 .33198548 .56700137 .32899476 .5569763 .30499269 .43066407H.23599243C.21699524 .43066407 .20599365 .43066407 .20599365 .4116516 .20599365 .3996582 .21499634 .3996582 .23399353 .3996582H.2999878L.22499085 .0048828127C.20698548-.09207153 .18998719-.18309021 .13798523-.18309021 .13398743-.18309021 .10899353-.18309021 .08999634-.16506958 .13598633-.1620636 .14498902-.12606812 .14498902-.111068729 .14498902-.08807373 .1269989-.07606506 .10798645-.07606506 .08198547-.07606506 .052993776-.09806824 .052993776-.13606262 .052993776-.18109131 .09700012-.20507813 .13798523-.20507813 .19299317-.20507813 .23298645-.14607239 .25099183-.108062747 .2829895-.04508972 .30599977 .07583618 .30699159 .082839969L.36698915 .3996582Z"/>
<path id="font_2_1" d="M.33099366-.2400055C.33099366-.23701477 .33099366-.23500061 .31399537-.21800232 .18899536-.0920105 .15699768 .09700012 .15699768 .25 .15699768 .42399598 .19499207 .59799197 .31799317 .72299197 .33099366 .73498538 .33099366 .7369995 .33099366 .73999026 .33099366 .746994 .32699586 .75 .32099916 .75 .31098939 .75 .22099304 .6819916 .1619873 .5549927 .11099243 .44499208 .09899902 .33399964 .09899902 .25 .09899902 .17199707 .10998535 .050994874 .16499329-.06201172 .22499085-.18501282 .31098939-.25 .32099916-.25 .32699586-.25 .33099366-.24700928 .33099366-.2400055Z"/>
<path id="font_2_2" d="M.2889862 .25C.2889862 .32798768 .27799989 .44898988 .22299195 .56199648 .16299439 .68499758 .07699585 .75 .066986087 .75 .06098938 .75 .056991579 .74598696 .056991579 .73999026 .056991579 .7369995 .056991579 .73498538 .07598877 .71699526 .17399597 .6179962 .23098755 .45899964 .23098755 .25 .23098755 .07899475 .19400025-.09700012 .069992069-.2230072 .056991579-.23500061 .056991579-.23701477 .056991579-.2400055 .056991579-.2460022 .06098938-.25 .066986087-.25 .07699585-.25 .16699219-.18200684 .22599793-.055007936 .2769928 .054992677 .2889862 .16600037 .2889862 .25Z"/>
<path id="font_1_3" d="M.47099305 .3773346C.47200013 .3833313 .47399903 .38833619 .47399903 .39535523 .47399903 .41236878 .46199037 .42237855 .44499208 .42237855 .43499757 .42237855 .4079895 .41537477 .4039917 .3793335 .38598634 .41636659 .35099793 .4423828 .31098939 .4423828 .19699097 .4423828 .07299805 .30226136 .07299805 .15812683 .07299805 .059020997 .13398743 0 .20599365 0 .2649994 0 .31199647 .04701233 .32199098 .058029176L.32299806 .057022096C.3019867-.031982423 .2899933-.07295227 .2899933-.07495117 .28599549-.08395386 .2519989-.18309021 .1459961-.18309021 .1269989-.18309021 .09399414-.18206787 .06599426-.17297364 .09599304-.16394043 .10699463-.13793946 .10699463-.12094116 .10699463-.10494995 .09599304-.0859375 .068984989-.0859375 .04699707-.0859375 .01499939-.10394287 .01499939-.14395142 .01499939-.18508911 .051986696-.20507813 .147995-.20507813 .272995-.20507813 .34498597-.12693787 .3600006-.06695557L.47099305 .3773346M.34098817 .12809754C.33499146 .10206604 .31199647 .077041629 .2899933 .058029176 .2689972 .040008546 .23799134 .021987915 .20899964 .021987915 .15899658 .021987915 .14399719 .074035648 .14399719 .11407471 .14399719 .16212464 .17298889 .28024293 .19999695 .33128358 .22698975 .38034059 .269989 .42037965 .31199647 .42037965 .37799073 .42037965 .3919983 .33929444 .3919983 .33428956 .3919983 .32928468 .3899994 .3232727 .3889923 .3192749L.34098817 .12809754Z"/>
<path id="font_1_4" d="M.2869873 .68333438C.2869873 .6843262 .2869873 .69433596 .27398683 .69433596 .25099183 .69433596 .17799378 .6863251 .1519928 .6843262 .14399719 .68333438 .1329956 .6823273 .1329956 .6643219 .1329956 .6523285 .14199829 .6523285 .15699768 .6523285 .20498657 .6523285 .20698548 .6453247 .20698548 .6353302L.20399475 .6153412 .05899048 .039260866C.054992677 .025253296 .054992677 .023254395 .054992677 .01725769 .054992677-.0057525637 .07499695-.0107421879 .083999637-.0107421879 .099990848-.0107421879 .115997318 .0012512207 .12098694 .015258789L.13999939 .091278079 .1619873 .18130493C.16799927 .2033081 .17399597 .22531128 .1789856 .24832154 .18099976 .25431825 .18899536 .28733827 .18998719 .29333497 .19299317 .30233766 .22399903 .35835267 .2579956 .38536073 .27999879 .4013672 .31098939 .42037965 .35398866 .42037965 .39698792 .42037965 .4079895 .3863678 .4079895 .35035707 .4079895 .29634095 .36999513 .18730164 .34599305 .12628174 .33799745 .103271488 .33299256 .091278079 .33299256 .0712738 .33299256 .024261475 .36799623-.0107421879 .4149933-.0107421879 .5089874-.0107421879 .54599 .13528443 .54599 .14329529 .54599 .1532898 .5369873 .1532898 .5339966 .1532898 .5239868 .1532898 .5239868 .15029907 .5189972 .13528443 .5039978 .08227539 .47200013 .011245728 .4169922 .011245728 .3999939 .011245728 .3929901 .021255494 .3929901 .044265748 .3929901 .0692749 .4019928 .09327698 .41099549 .11528015 .4269867 .15829468 .47200013 .2773285 .47200013 .3353424 .47200013 .4003601 .43199159 .4423828 .35699464 .4423828 .2939911 .4423828 .24598694 .41137696 .20899964 .36535646L.2869873 .68333438Z"/>
<path id="font_3_1" d="M.44400025 .24998474C.44400025 .35688783 .35499574 .44381715 .25 .44381715 .14199829 .44381715 .054992677 .35488893 .054992677 .24998474 .054992677 .14407349 .14199829 .056137086 .25 .056137086 .35499574 .056137086 .44400025 .14308167 .44400025 .24998474Z"/>
<path id="font_2_3" d="M.45999146 .31976319C.45999146 .39982606 .45498658 .47988893 .41999818 .5539398 .37399293 .65000918 .2919922 .6660156 .25 .6660156 .18998719 .6660156 .116989139 .64001467 .07598877 .54693606 .04399109 .47789 .038986207 .39982606 .038986207 .31976319 .038986207 .24472046 .042999269 .15464783 .083999637 .07859802 .1269989-.0024719239 .19999695-.022460938 .24899292-.022460938 .30299378-.022460938 .3789978-.0014648438 .4229889 .09359741 .45498658 .16265869 .45999146 .2407074 .45999146 .31976319M.24899292-.00047302247C.20999146-.00047302247 .15098572 .024551392 .1329956 .12062073 .12199402 .18066406 .12199402 .2727356 .12199402 .3317871 .12199402 .39582826 .12199402 .46188355 .12998963 .5159149 .14898682 .63500979 .22399903 .64401248 .24899292 .64401248 .28199769 .64401248 .34799195 .6259918 .36698915 .52693179 .3769989 .47088624 .3769989 .39482118 .3769989 .3317871 .3769989 .25672914 .3769989 .18867493 .3659973 .12461853 .35099793 .029556275 .2939911-.00047302247 .24899292-.00047302247Z"/>
<path id="font_1_1" d="M.20298767 .0009918213C.20298767 .066986087 .17799378 .10598755 .13899231 .10598755 .10598755 .10598755 .085998538 .08099365 .085998538 .052993776 .085998538 .025985718 .10598755 0 .13899231 0 .15098572 0 .1639862 .0039978029 .17399597 .0129852299 .1769867 .01499939 .17799378 .015991211 .1789856 .015991211 .17999268 .015991211 .18099976 .01499939 .18099976 .0009918213 .18099976-.07316589 .1459961-.13328552 .11299133-.16635132 .101989749-.17736817 .101989749-.17936707 .101989749-.18237305 .101989749-.18936157 .10699463-.19335938 .11199951-.19335938 .12298584-.19335938 .20298767-.116256717 .20298767 .0009918213Z"/>
</defs>
<path transform="matrix(1,0,0,-1.00005,63.856004,131.1259)" stroke-width=".19925" stroke-linecap="butt" stroke-miterlimit="10" stroke-linejoin="miter" fill="none" stroke="#929292" d="M-56.69362 0H56.69362M-56.69362 28.3468H56.69362M-56.69362 56.69362H56.69362M-56.69362 85.04042H56.69362M-56.69362 113.37727H56.69362M-56.69362 0V113.38724M-28.3468 0V113.38724M0 0V113.38724M28.3468 0V113.38724M56.68365 0V113.38724M56.69362 113.38724"/>
<path transform="matrix(1,0,0,-1.00005,63.856004,131.1259)" stroke-width="1.19553" stroke-linecap="butt" stroke-miterlimit="10" stroke-linejoin="miter" fill="none" stroke="#000000" d="M-62.36288 0H61.40646"/>
<path transform="matrix(1,0,0,-1.00005,125.26247,131.1259)" stroke-width=".9564" stroke-linecap="round" stroke-linejoin="round" fill="none" stroke="#000000" d="M-1.91284 2.55046C-1.75343 1.59402 0 .15938 .4782 0 0-.15938-1.75343-1.59402-1.91284-2.55046"/>
<use data-text="x" xlink:href="#font_1_5" transform="matrix(9.9626,0,0,-9.963098,130.137,133.27101)"/>
<path transform="matrix(1,0,0,-1.00005,63.856004,131.1259)" stroke-width="1.19553" stroke-linecap="butt" stroke-miterlimit="10" stroke-linejoin="miter" fill="none" stroke="#000000" d="M0-5.66927V118.10008"/>
<path transform="matrix(0,-1.00005,-1,-0,63.856004,13.01992)" stroke-width=".9564" stroke-linecap="round" stroke-linejoin="round" fill="none" stroke="#000000" d="M-1.91284 2.55046C-1.75343 1.59402 0 .15938 .4782 0 0-.15938-1.75343-1.59402-1.91284-2.55046"/>
<use data-text="y" xlink:href="#font_1_6" transform="matrix(9.9626,0,0,-9.963098,61.235,6.207657)"/>
<path transform="matrix(1,0,0,-1.00005,63.856004,131.1259)" stroke-width=".79701" stroke-linecap="butt" stroke-miterlimit="10" stroke-linejoin="miter" fill="none" stroke="#0000ff" d="M-56.69362 113.38724C-56.69362 113.38724-56.52954 112.73172-56.46652 112.48064-56.40352 112.22954-56.30244 111.82756-56.23944 111.57748-56.17642 111.32741-56.07536 110.92723-56.01234 110.67824-55.94934 110.42924-55.8483 110.03087-55.78528 109.78288-55.72226 109.53491-55.6212 109.138-55.5582 108.89099-55.49518 108.64397-55.39412 108.24854-55.3311 108.00255-55.2681 107.75658-55.16704 107.36298-55.10403 107.11801-55.04102 106.87305-54.93996 106.48094-54.87694 106.23694-54.81393 105.99294-54.71288 105.60231-54.64986 105.35933-54.58685 105.11633-54.4858 104.72755-54.42279 104.4856-54.35977 104.24362-54.25871 103.85628-54.1957 103.61533-54.13269 103.37437-54.03163 102.98888-53.96861 102.74895-53.9056 102.50902-53.80455 102.12495-53.74155 101.88603-53.67853 101.64713-53.57747 101.26491-53.51445 101.02702-53.45145 100.78914-53.35037 100.40837-53.28737 100.17145-53.22435 99.93452-53.12329 99.55525-53.06027 99.31935-52.99727 99.08345-52.89622 98.70604-52.8332 98.47116-52.77019 98.23627-52.66913 97.86026-52.60612 97.6264-52.5431 97.39253-52.44205 97.0184-52.37903 96.78555-52.31602 96.5527-52.21497 96.18005-52.15196 95.94817-52.08894 95.71626-51.98788 95.3451-51.92487 95.11423-51.86186 94.88335-51.7608 94.51402-51.69778 94.28418-51.63478 94.05434-51.53372 93.68643-51.47072 93.45761-51.4077 93.22879-51.30664 92.86272-51.24362 92.63492-51.18062 92.40712-51.07956 92.04247-51.01654 91.81569-50.95352 91.5889-50.85248 91.22618-50.78947 91.00035-50.72646 90.77454-50.6254 90.41286-50.56238 90.18805-50.49937 89.96324-50.3983 89.60385-50.3353 89.38007-50.27228 89.15628-50.17122 88.79788-50.1082 88.5751-50.0452 88.35234-49.94415 87.99623-49.88113 87.77448-49.81812 87.55273-49.71706 87.19766-49.65405 86.97688-49.59103 86.7561-49.48997 86.40288-49.42696 86.18318-49.36395 85.96349-49.2629 85.6121-49.19989 85.39337-49.13687 85.17462-49.03581 84.82436-48.9728 84.60657-48.90979 84.3888-48.80873 84.04039-48.74571 83.82368-48.68271 83.60698-48.58165 83.26038-48.51865 83.0447-48.45563 82.82901-48.35457 82.48381-48.29155 82.26915-48.22855 82.05447-48.12749 81.71118-48.06447 81.4975-48.00145 81.2838-47.9004 80.94156-47.8374 80.72888-47.77438 80.5162-47.67332 80.17624-47.6103 79.96458-47.5473 79.75293-47.44623 79.41402-47.38322 79.20332-47.3202 78.99261-47.21916 78.65556-47.15614 78.44594-47.09314 78.23631-46.99208 77.90106-46.92906 77.69246-46.86604 77.48386-46.76498 77.15009-46.70198 76.94243-46.63896 76.73479-46.5379 76.40251-46.47488 76.19588-46.41188 75.98926-46.31082 75.65881-46.24782 75.4532-46.1848 75.24759-46.08374 74.91864-46.02072 74.714-45.95772 74.50937-45.85666 74.18187-45.79364 73.97826-45.73064 73.77464-45.62958 73.44894-45.56657 73.24641-45.50356 73.04387-45.4025 72.71997-45.33948 72.51845-45.27647 72.31693-45.17542 71.99449-45.1124 71.79393-45.04938 71.59337-44.94833 71.2725-44.88533 71.0729-44.82231 70.8733-44.72125 70.5539-44.65823 70.35532-44.59523 70.15672-44.49416 69.83913-44.43115 69.64162-44.36813 69.44412-44.26709 69.1283-44.20407 68.93182-44.14107 68.73535-44.04001 68.421-43.97699 68.2255-43.91397 68.02998-43.81291 67.71718-43.74991 67.52261-43.68689 67.32806-43.58583 67.01668-43.52281 66.82321-43.45981 66.62973-43.35875 66.32059-43.29575 66.12813-43.23273 65.93567-43.13167 65.62756-43.06865 65.43605-43.00565 65.24455-42.90459 64.93837-42.84157 64.7479-42.77856 64.55742-42.6775 64.25264-42.6145 64.06319-42.55148 63.87372-42.45042 63.5708-42.3874 63.38237-42.3244 63.19395-42.22334 62.89243-42.16032 62.70502-42.0973 62.51761-41.99626 62.21796-41.93326 62.03156-41.87024 61.84517-41.76918 61.547-41.70616 61.36156-41.64316 61.17613-41.54208 60.87943-41.47908 60.69502-41.41606 60.5106-41.31502 60.21576-41.252 60.03236-41.189 59.84897-41.08794 59.55562-41.02492 59.37317-40.9619 59.19073-40.86084 58.89886-40.79784 58.71745-40.73482 58.53603-40.63376 58.24596-40.57074 58.06563-40.50774 57.88528-40.40668 57.59697-40.34367 57.41766-40.28065 57.23836-40.1796 56.95154-40.11658 56.7732-40.05357 56.59485-39.95251 56.30951-39.8895 56.13217-39.82649 55.95483-39.72543 55.67136-39.66243 55.49504-39.59941 55.31873-39.49835 55.03673-39.43533 54.86137-39.37233 54.68602-39.27127 54.4055-39.20825 54.23117-39.14523 54.05682-39.04419 53.77817-38.98119 53.60484-38.91817 53.43152-38.81711 53.15428-38.75409 52.98201-38.69109 52.80972-38.59001 52.53432-38.52701 52.36304-38.46399 52.19176-38.36295 51.91777-38.29993 51.74753-38.23692 51.57729-38.13586 51.30515-38.07285 51.13593-38.00983 50.96669-37.90877 50.69604-37.84576 50.52779-37.78275 50.35951-37.6817 50.09035-37.61868 49.9231-37.55568 49.75584-37.4546 49.48853-37.3916 49.3223-37.32858 49.15607-37.22752 48.89024-37.1645 48.72496-37.1015 48.5597-37.00044 48.29533-36.93742 48.13109-36.87442 47.96683-36.77336 47.70425-36.71036 47.54109-36.64734 47.37793-36.54628 47.11716-36.48326 46.95502-36.42026 46.79286-36.31918 46.53357-36.25618 46.37238-36.19316 46.2112-36.09212 45.95338-36.02911 45.79321-35.9661 45.63304-35.86504 45.37709-35.80202 45.21794-35.73901 45.05879-35.63794 44.8043-35.57494 44.64612-35.51192 44.48793-35.41087 44.23494-35.34785 44.07776-35.28485 43.9206-35.18379 43.66945-35.12077 43.5133-35.05775 43.35715-34.9567 43.10742-34.89369 42.9523-34.83067 42.79718-34.72963 42.5493-34.66661 42.39519-34.6036 42.24109-34.50253 41.99464-34.43953 41.84155-34.37651 41.68846-34.27545 41.44385-34.21243 41.2918-34.14943 41.13972-34.04837 40.89659-33.98535 40.74548-33.92235 40.59438-33.82129 40.35275-33.75829 40.20265-33.69527 40.05257-33.59421 39.81279-33.53119 39.66371-33.46819 39.51465-33.36711 39.27635-33.30411 39.12825-33.24109 38.98013-33.14005 38.74332-33.07704 38.59622-33.01402 38.44913-32.91296 38.21408-32.84995 38.06808-32.78694 37.92209-32.68587 37.68883-32.62286 37.54385-32.55984 37.39886-32.4588 37.1671-32.39578 37.02307-32.33278 36.87904-32.23172 36.64883-32.1687 36.50577-32.10568 36.3627-32.00462 36.1339-31.94162 35.99191-31.8786 35.84991-31.77756 35.62334-31.71454 35.48236-31.65154 35.3414-31.55046 35.11588-31.48746 34.97586-31.42444 34.83586-31.32338 34.61224-31.26036 34.47327-31.19736 34.33429-31.0963 34.11208-31.03328 33.97412-30.97028 33.83617-30.86922 33.6158-30.80621 33.47885-30.7432 33.34192-30.64214 33.12305-30.57912 32.98708-30.51611 32.85109-30.41504 32.63368-30.35204 32.49872-30.28902 32.36375-30.18797 32.14816-30.12497 32.01428-30.06195 31.8804-29.96089 31.66666-29.89787 31.53374-29.83487 31.4008-29.7338 31.18811-29.67079 31.0562-29.60777 30.9243-29.50673 30.7139-29.44371 30.58301-29.3807 30.45212-29.27965 30.24277-29.21663 30.11285-29.15361 29.98293-29.05255 29.7754-28.98955 29.64658-28.92653 29.51773-28.82549 29.31207-28.76247 29.18419-28.69946 29.0563-28.59839 28.85168-28.53539 28.72482-28.47237 28.59798-28.3713 28.39565-28.30829 28.2698-28.24529 28.14397-28.14424 27.94269-28.08122 27.81781-28.01822 27.69292-27.91714 27.4935-27.85414 27.36969-27.79112 27.2459-27.69006 27.04826-27.62704 26.92548-27.56404 26.80269-27.46297 26.60652-27.39996 26.48471-27.33694 26.3629-27.2359 26.16823-27.1729 26.04742-27.10988 25.92664-27.00882 25.7338-26.9458 25.61401-26.8828 25.49425-26.78172 25.3029-26.71872 25.18408-26.6557 25.06526-26.55466 24.8754-26.49164 24.7576-26.42863 24.6398-26.32758 24.45178-26.26456 24.335-26.20154 24.21822-26.10048 24.03165-26.03748 23.91588-25.97446 23.80013-25.87341 23.61539-25.8104 23.50064-25.74739 23.3859-25.64632 23.20259-25.58331 23.08887-25.5203 22.97514-25.41924 22.79367-25.35622 22.68098-25.29321 22.56828-25.19217 22.38829-25.12915 22.27657-25.06615 22.16483-24.96507 21.98631-24.90207 21.8756-24.83905 21.76488-24.73799 21.58821-24.67497 21.47852-24.61197 21.36882-24.5109 21.19359-24.44789 21.08492-24.38487 20.97623-24.28383 20.80286-24.22083 20.69519-24.1578 20.58752-24.05675 20.41563-23.99373 20.30894-23.93073 20.20224-23.82965 20.0318-23.76665 19.92613-23.70363 19.82047-23.60258 19.65184-23.53957 19.54724-23.47656 19.44266-23.3755 19.27586-23.31248 19.17223-23.24947 19.06859-23.1484 18.90292-23.0854 18.80025-23.02238 18.69757-22.92134 18.53375-22.85832 18.43216-22.79532 18.33057-22.69424 18.16855-22.63124 18.06796-22.56822 17.96739-22.46716 17.80684-22.40414 17.70723-22.34114 17.6076-22.2401 17.44855-22.17708 17.34995-22.11407 17.25134-22.013 17.09415-21.95 16.99657-21.88698 16.89899-21.78592 16.7432-21.7229 16.64665-21.6599 16.5501-21.55882 16.39615-21.49582 16.30061-21.4328 16.2051-21.33176 16.05261-21.26875 15.95804-21.20573 15.86346-21.10468 15.71248-21.04166 15.61893-20.97865 15.52538-20.87758 15.37625-20.81458 15.2837-20.75156 15.19118-20.65051 15.04347-20.5875 14.95197-20.52449 14.86044-20.42343 14.7146-20.36041 14.6241-20.2974 14.5336-20.19633 14.38922-20.13333 14.29968-20.07031 14.21014-19.96927 14.06725-19.90625 13.97874-19.84325 13.89024-19.74217 13.74918-19.67917 13.6617-19.61615 13.5742-19.51509 13.43457-19.45207 13.3481-19.38907 13.26164-19.28802 13.12386-19.225 13.0384-19.16199 12.95296-19.06093 12.81667-18.99792 12.73216-18.9349 12.64767-18.83385 12.51288-18.77083 12.4294-18.70782 12.34593-18.60677 12.2129-18.54376 12.13052-18.48074 12.04813-18.37968 11.91696-18.31668 11.83553-18.25366 11.75409-18.1526 11.62402-18.08958 11.54355-18.02658 11.46309-17.9255 11.33487-17.8625 11.2555-17.79948 11.1761-17.69844 11.04967-17.63542 10.9713-17.57242 10.89294-17.47136 10.768-17.40834 10.6906-17.34532 10.61319-17.24426 10.48972-17.18126 10.41333-17.11824 10.33694-17.0172 10.21535-16.95418 10.13997-16.89117 10.0646-16.7901 9.94443-16.7271 9.87007-16.66408 9.79572-16.56302 9.67738-16.5 9.60405-16.437 9.53072-16.33595 9.41388-16.27293 9.3415-16.20992 9.26912-16.10886 9.15376-16.04585 9.08241-15.98283 9.01108-15.88177 8.89748-15.81876 8.82722-15.75575 8.75696-15.6547 8.64522-15.59169 8.57591-15.52867 8.5066-15.42761 8.39598-15.36461 8.32764-15.30159 8.2593-15.20053 8.15051-15.13751 8.08325-15.07451 8.01598-14.97343 7.90901-14.91043 7.84277-14.84741 7.77652-14.74637 7.67104-14.68335 7.60574-14.62035 7.54045-14.51929 7.43643-14.45627 7.37216-14.39325 7.30789-14.29219 7.20573-14.22919 7.14249-14.16617 7.07925-14.06512 6.97855-14.0021 6.91628-13.9391 6.85399-13.83803 6.75478-13.77502 6.69351-13.712 6.63225-13.61095 6.53484-13.54793 6.47466-13.48492 6.41447-13.38388 6.31885-13.32086 6.25967-13.25784 6.20052-13.15678 6.10637-13.09378 6.04816-13.03076 5.98994-12.9297 5.89735-12.86668 5.8401-12.80368 5.78285-12.70262 5.69176-12.63962 5.63551-12.5766 5.57928-12.47554 5.48996-12.41254 5.43481-12.34952 5.37968-12.24846 5.29213-12.18544 5.23802-12.12244 5.1839-12.02138 5.09784-11.95837 5.04468-11.89536 4.99152-11.7943 4.90694-11.73128 4.8548-11.66827 4.80264-11.56721 4.71992-11.5042 4.6688-11.44118 4.61768-11.34012 4.53642-11.27711 4.48627-11.2141 4.4361-11.11305 4.35635-11.05003 4.3072-10.98703 4.25806-10.88596 4.18016-10.82295 4.13203-10.75993 4.0839-10.65887 4.00742-10.59586 3.96031-10.53285 3.9132-10.43181 3.83855-10.36879 3.79248-10.30577 3.7464-10.20471 3.67317-10.14171 3.62811-10.07869 3.58305-9.97763 3.51167-9.91461 3.46764-9.85161 3.4236-9.75055 3.35371-9.68755 3.31064-9.62453 3.26755-9.52347 3.19914-9.46046 3.15707-9.39745 3.11502-9.29639 3.04846-9.23337 3.00742-9.17036 2.96637-9.0693 2.90125-9.0063 2.86122-8.94328 2.8212-8.84222 2.75792-8.7792 2.71892-8.7162 2.6799-8.61514 2.6181-8.55212 2.58008-8.4891 2.54204-8.38805 2.4817-8.32504 2.44469-8.26202 2.40767-8.16098 2.3492-8.09796 2.3132-8.03496 2.2772-7.93388 2.22015-7.87088 2.18517-7.80786 2.15019-7.7068 2.09499-7.64378 2.06104-7.58078 2.02707-7.47974 1.97336-7.41672 1.94035-7.3537 1.90735-7.25264 1.85512-7.18964 1.82314-7.12662 1.79115-7.02556 1.7407-6.96254 1.70981-6.89954 1.6789-6.79848 1.63031-6.73547 1.60039-6.67245 1.57045-6.5714 1.52295-6.50839 1.49397-6.44537 1.465-6.34431 1.41936-6.2813 1.39146-6.21829 1.36357-6.11723 1.31972-6.05423 1.29285-5.99121 1.26596-5.89015 1.2236-5.82713 1.19768-5.76413 1.17177-5.66307 1.13089-5.60005 1.10599-5.53703 1.08109-5.43597 1.04205-5.37297 1.01817-5.30995 .9943-5.20891 .9567-5.14589 .93384-5.08289 .91096-4.98181 .87523-4.91881 .85338-4.85579 .83154-4.75473 .79726-4.69171 .77638-4.62871 .75551-4.52766 .7227-4.46465 .70285-4.40163 .683-4.30057 .65205-4.23756 .63321-4.17455 .61438-4.07349 .58485-4.01047 .56705-3.94746 .54922-3.8464 .52156-3.7834 .50476-3.72038 .48796-3.61932 .46176-3.55632 .44592-3.4933 .43008-3.39224 .40538-3.32922 .39056-3.26622 .37573-3.16516 .35281-3.10216 .33908-3.03914 .32536-2.93808 .30429-2.87506 .29152-2.81206 .27875-2.711 .25871-2.64798 .24696-2.58496 .23521-2.48392 .21747-2.42091 .20674-2.3579 .196-2.25684 .17932-2.19382 .16954-2.13081 .15976-2.02974 .14499-1.96674 .13623-1.90372 .12747-1.80266 .11414-1.73964 .10638-1.67664 .09865-1.57559 .08716-1.51257 .08044-1.44955 .07372-1.3485 .06364-1.28549 .05794-1.22247 .05225-1.12141 .04402-1.0584 .03935-.99539 .03468-.89433 .02792-.83133 .02422-.76831 .0205-.66725 .01523-.60425 .01253-.54123 .00984-.44017 .00641-.37715 .00473-.31415 .00307-.21307 .00107-.15009 .00041-.08708-.00021 .01396-.00034 .07698 0 .13998 .00034 .24104 .00165 .30406 .00302 .36708 .00438 .46812 .00761 .53113 .00993 .59415 .01225 .6952 .01651 .75822 .01988 .82123 .02324 .9223 .02977 .9853 .03415 1.04832 .03853 1.14938 .04605 1.2124 .05145 1.2754 .05685 1.37645 .06667 1.43947 .07309 1.50249 .0795 1.60355 .09036 1.66655 .09775 1.72957 .10512 1.83063 .1179 1.89365 .1263 1.95665 .13469 2.05771 .14888 2.12071 .1583 2.18373 .1677 2.28479 .18376 2.3478 .1942 2.41081 .20462 2.51187 .2221 2.57489 .23355 2.6379 .245 2.73895 .26433 2.80196 .27681 2.86497 .28929 2.96603 .31009 3.02905 .32352 3.09206 .33696 3.19312 .35925 3.25613 .3737 3.31915 .38815 3.4202 .4123 3.4832 .42776 3.54622 .44324 3.64728 .4688 3.7103 .48529 3.7733 .50179 3.87437 .5292 3.93738 .54672 4.0004 .56422 4.10146 .59312 4.16447 .6116 4.22748 .63007 4.32852 .66043 4.39154 .67993 4.45456 .69943 4.55562 .73158 4.61862 .75217 4.68164 .77275 4.7827 .80676 4.84572 .82831 4.90872 .84984 5.00978 .88495 5.07278 .90744 5.1358 .92995 5.23686 .96692 5.29987 .9905 5.36288 1.01407 5.46394 1.05284 5.52696 1.07744 5.58997 1.10204 5.69102 1.14229 5.75403 1.16783 5.81705 1.19339 5.9181 1.23512 5.98112 1.26169 6.04413 1.28827 6.14519 1.33185 6.2082 1.35945 6.27122 1.38704 6.37227 1.43204 6.43527 1.46066 6.49829 1.48929 6.59935 1.53612 6.66237 1.56577 6.72537 1.59541 6.82645 1.64374 6.88945 1.67433 6.95247 1.70494 7.05351 1.75475 7.11653 1.78636 7.17953 1.81798 7.2806 1.86966 7.34361 1.9023 7.40663 1.93494 7.50769 1.98802 7.5707 2.02167 7.63371 2.05533 7.73477 2.11028 7.79779 2.14494 7.8608 2.17963 7.96185 2.23604 8.02486 2.27167 8.08788 2.3073 8.18893 2.3652 8.25194 2.40187 8.31496 2.43854 8.41602 2.49828 8.47903 2.53595 8.54204 2.57364 8.6431 2.6348 8.7061 2.67351 8.76912 2.7122 8.87018 2.77522 8.9332 2.81494 8.9962 2.85466 9.09726 2.91911 9.16028 2.95985 9.2233 3.0006 9.32434 3.06686 9.38734 3.10863 9.45036 3.15039 9.55142 3.21817 9.61444 3.2609 9.67744 3.3036 9.77852 3.37286 9.84152 3.41661 9.90454 3.46034 10.00558 3.53146 10.0686 3.57622 10.1316 3.62097 10.23267 3.69354 10.29568 3.73927 10.3587 3.785 10.45976 3.85905 10.52277 3.9058 10.58578 3.95255 10.68684 4.0284 10.74986 4.07622 10.81287 4.12404 10.91393 4.20169 10.97693 4.25053 11.03995 4.2994 11.141 4.37851 11.20403 4.42831 11.26703 4.47812 11.36809 4.55878 11.4311 4.60954 11.49411 4.6603 11.59517 4.7424 11.65817 4.79424 11.72119 4.84608 11.82225 4.93039 11.88527 4.98326 11.94827 5.03613 12.04933 5.12148 12.11235 5.17531 12.17537 5.22914 12.27641 5.31639 12.33942 5.37125 12.40244 5.4261 12.5035 5.51477 12.56651 5.57063 12.62952 5.62651 12.73059 5.71704 12.7936 5.77393 12.85661 5.83081 12.95766 5.92285 13.02068 5.9807 13.08368 6.03854 13.18474 6.13205 13.24776 6.1909 13.31078 6.24977 13.41183 6.34508 13.47484 6.40501 13.53786 6.46495 13.63892 6.5621 13.70193 6.623 13.76494 6.68391 13.866 6.78209 13.929 6.84402 13.99202 6.90596 14.09308 7.00644 14.1561 7.06938 14.2191 7.13234 14.32016 7.23386 14.38318 7.29776 14.44618 7.36168 14.54724 7.4651 14.61024 7.53003 14.67326 7.59496 14.77432 7.69983 14.83734 7.76578 14.90034 7.83171 15.0014 7.93843 15.06442 8.0054 15.12744 8.07236 15.22849 8.1805 15.29149 8.24847 15.3545 8.31647 15.45557 8.42647 15.51859 8.49547 15.58159 8.56447 15.68266 8.67589 15.74567 8.74591 15.80869 8.81592 15.90973 8.92924 15.97275 9.00023 16.03575 9.07123 16.13681 9.1856 16.19983 9.2576 16.26285 9.32962 16.3639 9.44624 16.42691 9.51927 16.48993 9.5923 16.59097 9.71 16.65399 9.784 16.717 9.85799 16.81807 9.97754 16.88107 10.0526 16.94409 10.12767 17.04515 10.24901 17.10817 10.3251 17.17117 10.40118 17.27223 10.52402 17.33525 10.60106 17.39825 10.6781 17.49931 10.8024 17.56232 10.88048 17.62534 10.95856 17.7264 11.0847 17.78941 11.16379 17.85242 11.24289 17.95348 11.37045 18.0165 11.45056 18.07951 11.53067 18.18056 11.6601 18.24356 11.74123 18.30658 11.82236 18.40764 11.95326 18.47066 12.03535 18.53366 12.11745 18.63474 12.24983 18.69774 12.33295 18.76076 12.41606 18.8618 12.5503 18.92482 12.63441 18.98782 12.71855 19.08888 12.8542 19.1519 12.93935 19.21492 13.0245 19.31598 13.16203 19.37898 13.2482 19.442 13.33437 19.54305 13.47334 19.60606 13.56047 19.66907 13.64761 19.77014 13.78809 19.83315 13.87624 19.89616 13.96439 19.99722 14.10672 20.06024 14.19589 20.12325 14.28506 20.2243 14.4288 20.28732 14.519 20.35033 14.60919 20.45139 14.75478 20.51439 14.846 20.57741 14.9372 20.67847 15.08427 20.74149 15.17645 20.80449 15.26862 20.90555 15.41718 20.96857 15.51036 21.03159 15.60355 21.13263 15.75389 21.19563 15.84818 21.25865 15.94246 21.35971 16.09465 21.42273 16.18988 21.48573 16.28513 21.5868 16.43837 21.64981 16.53462 21.71283 16.63087 21.81387 16.78639 21.87689 16.88367 21.9399 16.98096 22.04095 17.13751 22.10397 17.23575 22.16699 17.33398 22.26805 17.49248 22.33105 17.59174 22.39407 17.691 22.49512 17.8509 22.55814 17.95117 22.62114 18.05144 22.72221 18.21323 22.78522 18.31451 22.84824 18.4158 22.9493 18.57898 23.01231 18.68129 23.07532 18.7836 23.17638 18.94864 23.2394 19.05197 23.3024 19.15532 23.40346 19.32182 23.46646 19.42613 23.52948 19.53043 23.63054 19.69841 23.69356 19.80373 23.75656 19.90906 23.85762 20.07884 23.92064 20.18524 23.98366 20.29164 24.0847 20.46327 24.1477 20.57063 24.21072 20.67798 24.31178 20.85074 24.3748 20.95905 24.4378 21.06737 24.53888 21.24196 24.60188 21.35135 24.6649 21.46075 24.76595 21.63715 24.82896 21.74756 24.89197 21.85797 24.99303 22.03584 25.05605 22.14722 25.11906 22.2586 25.22012 22.43794 25.28313 22.55035 25.34615 22.66275 25.44719 22.84395 25.51021 22.95737 25.57321 23.07079 25.67429 23.25346 25.73729 23.36784 25.80031 23.48222 25.90137 23.66638 25.96439 23.78178 26.02739 23.89719 26.12843 24.08315 26.19145 24.19963 26.25446 24.3161 26.35553 24.50385 26.41853 24.62134 26.48155 24.73885 26.58261 24.92807 26.64563 25.04652 26.70863 25.16498 26.8097 25.35576 26.87271 25.47517 26.93573 25.5946 27.03677 25.78683 27.09978 25.90727 27.1628 26.02773 27.26385 26.22174 27.32687 26.34328 27.38988 26.4648 27.49095 26.66063 27.55396 26.78317 27.61697 26.90572 27.71802 27.10303 27.78104 27.22652 27.84404 27.35002 27.9451 27.54881 28.00812 27.67334 28.07114 27.79785 28.1722 27.99849 28.2352 28.12404 28.29822 28.24957 28.39926 28.4517 28.46228 28.5782 28.52528 28.7047 28.62636 28.90833 28.68936 29.03583 28.75238 29.16335 28.85344 29.3688 28.91646 29.49734 28.97946 29.6259 29.0805 29.83275 29.14352 29.96231 29.20653 30.09189 29.3076 30.30061 29.3706 30.4312 29.43362 30.56178 29.53468 30.77193 29.5977 30.90353 29.6607 31.03514 29.76176 31.24713 29.82478 31.37975 29.8878 31.51237 29.98885 31.72585 30.05185 31.85944 30.11487 31.99301 30.21593 32.20798 30.27895 32.34258 30.34195 32.47717 30.44302 32.694 30.50603 32.82962 30.56905 32.96524 30.67009 33.18346 30.73311 33.32011 30.79611 33.45677 30.89717 33.67685 30.96019 33.81451 31.02321 33.95218 31.12427 34.17374 31.18727 34.31236 31.25029 34.45099 31.35133 34.67401 31.41435 34.81366 31.47736 34.95331 31.57843 35.1782 31.64143 35.31886 31.70445 35.45953 31.80551 35.68587 31.86853 35.82755 31.93153 35.96922 32.03258 36.19739 32.0956 36.34009 32.1586 36.48279 32.25967 36.71245 32.32268 36.85611 32.3857 36.99977 32.48676 37.2309 32.54977 37.3756 32.61278 37.52028 32.71382 37.75325 32.77684 37.89897 32.83986 38.04468 32.94092 38.27907 33.00392 38.4258 33.06694 38.57253 33.168 38.80878 33.23102 38.95653 33.29402 39.10426 33.3951 39.34193 33.4581 39.4907 33.52112 39.63947 33.62216 39.879 33.68518 40.02878 33.74818 40.17856 33.84924 40.41957 33.91226 40.57031 33.97528 40.72105 34.07634 40.96355 34.13934 41.11531 34.20236 41.26707 34.3034 41.51141 34.36642 41.6642 34.42943 41.817 34.5305 42.06274 34.5935 42.21655 34.65652 42.37036 34.75758 42.61797 34.8206 42.7728 34.8836 42.92763 34.98465 43.17671 35.04767 43.3325 35.11067 43.4883 35.21175 43.73886 35.27475 43.89568 35.33777 44.05249 35.43883 44.3049 35.50185 44.46272 35.56485 44.62054 35.6659 44.87439 35.72891 45.03323 35.79193 45.19208 35.89299 45.4478 35.956 45.60767 36.01901 45.76752 36.12007 46.02472 36.18309 46.18553 36.2461 46.34636 36.34717 46.605 36.41017 46.76686 36.47319 46.92871 36.57423 47.18921 36.63725 47.35208 36.70026 47.51497 36.80132 47.77687 36.86433 47.94077 36.92735 48.10466 37.02841 48.36842 37.09142 48.53334 37.15443 48.69826 37.25548 48.96346 37.3185 49.12938 37.3815 49.2953 37.48257 49.56236 37.54558 49.72931 37.6086 49.89626 37.70966 50.1648 37.77267 50.33269 37.83568 50.5006 37.93672 50.77061 37.99974 50.93956 38.06274 51.10849 38.16382 51.38034 38.22682 51.5503 38.28984 51.72026 38.3909 51.99353 38.45392 52.1645 38.51692 52.33548 38.61797 52.61061 38.68098 52.7826 38.744 52.95459 38.84506 53.2312 38.90807 53.40414 38.97108 53.5771 39.07214 53.85521 39.13516 54.02917 39.19817 54.20316 39.29924 54.4831 39.36224 54.65808 39.42526 54.83307 39.5263 55.11444 39.58932 55.29045 39.65233 55.46646 39.75339 55.7497 39.8164 55.92671 39.87943 56.10374 39.98048 56.38843 40.04349 56.56644 40.1065 56.74443 40.20755 57.03061 40.27057 57.20963 40.33357 57.38864 40.43465 57.67667 40.49765 57.8567 40.56067 58.03674 40.66173 58.32619 40.72475 58.50723 40.78775 58.6883 40.8888 58.9796 40.95181 59.16167 41.01482 59.34375 41.11589 59.63646 41.1789 59.81955 41.24191 60.00264 41.34297 60.29723 41.40599 60.48134 41.469 60.66545 41.57005 60.9615 41.63306 61.14658 41.69608 61.33165 41.79713 61.62918 41.86014 61.81528 41.92316 62.00139 42.02422 62.30075 42.08723 62.48787 42.15024 62.675 42.2513 62.9758 42.3143 63.16394 42.37732 63.35208 42.47838 63.65474 42.5414 63.84389 42.6044 64.03305 42.70546 64.33719 42.76848 64.5273 42.8315 64.7174 42.93256 65.02304 42.99556 65.21417 43.05858 65.4053 43.15962 65.71278 43.22264 65.90494 43.28564 66.09709 43.38672 66.40599 43.44972 66.59917 43.51274 66.79233 43.6138 67.10309 43.67682 67.29729 43.73982 67.49147 43.84087 67.8037 43.90388 67.99886 43.96689 68.19402 44.06796 68.5077 44.13097 68.70389 44.19398 68.90007 44.29504 69.21562 44.35806 69.41281 44.42107 69.61002 44.52213 69.927 44.58513 70.12521 44.64815 70.32343 44.7492 70.64224 44.81221 70.84149 44.87523 71.04073 44.97629 71.36098 45.0393 71.56123 45.10231 71.76149 45.20337 72.08359 45.26637 72.28487 45.32939 72.48615 45.43045 72.80972 45.49347 73.01196 45.55647 73.2142 45.65753 73.53926 45.72055 73.74252 45.78357 73.94579 45.88463 74.27269 45.94763 74.47697 46.01065 74.68126 46.1117 75.00964 46.17471 75.21487 46.23772 75.42012 46.33879 75.74998 46.4018 75.95625 46.46481 76.1625 46.56587 76.49417 46.62889 76.7015 46.6919 76.90886 46.79294 77.24231 46.85596 77.45067 46.91896 77.65903 47.02003 77.99397 47.08304 78.2033 47.14606 78.4126 47.24712 78.74908 47.31013 78.95935 47.37314 79.16963 47.4742 79.50758 47.5372 79.71889 47.60022 79.9302 47.70128 80.26993 47.76428 80.48232 47.8273 80.6947 47.92836 81.03625 47.99138 81.24965 48.05438 81.46306 48.15544 81.80606 48.21844 82.02043 48.28146 82.23479 48.38252 82.5793 48.44554 82.79468 48.50854 83.01006 48.6096 83.35641 48.67262 83.57281 48.73564 83.78922 48.8367 84.13704 48.8997 84.3544 48.96272 84.57176 49.06377 84.92108 49.12679 85.13947 49.18979 85.35783 49.29086 85.70894 49.35387 85.92842 49.41689 86.14789 49.51794 86.50082 49.58096 86.72125 49.64397 86.94168 49.74501 87.29575 49.80803 87.51714 49.87103 87.73851 49.9721 88.09442 50.03511 88.3169 50.09813 88.53935 50.19919 88.89706 50.2622 89.12054 50.32521 89.34402 50.42627 89.70322 50.48927 89.92766 50.55229 90.1521 50.65335 90.51277 50.71635 90.73824 50.77937 90.96368 50.88043 91.32623 50.94345 91.5527 51.00645 91.77919 51.10751 92.14314 51.17052 92.37064 51.23354 92.59813 51.3346 92.96393 51.39761 93.19246 51.46062 93.42099 51.56168 93.7882 51.6247 94.01773 51.68771 94.24728 51.78876 94.61641 51.85176 94.84691 51.91478 95.07742 52.01584 95.44759 52.07886 95.67912 52.14186 95.91064 52.24294 96.28311 52.30594 96.51566 52.36896 96.7482 52.47002 97.1217 52.53304 97.35521 52.59604 97.58871 52.69708 97.96407 52.7601 98.19864 52.8231 98.43323 52.92418 98.81038 52.98718 99.04599 53.0502 99.2816 53.15126 99.66023 53.21428 99.8968 53.27728 100.13338 53.37834 100.51347 53.44135 100.75105 53.50436 100.98865 53.60542 101.3706 53.66843 101.6092 53.73145 101.84782 53.8325 102.2312 53.89552 102.47083 53.95853 102.71045 54.05959 103.09569 54.12259 103.33633 54.18561 103.57698 54.28667 103.96371 54.34969 104.2053 54.41269 104.44691 54.51375 104.83511 54.57677 105.07774 54.63979 105.32036 54.74083 105.71042 54.80383 105.95406 54.86685 106.1977 54.96791 106.58917 55.03093 106.83385 55.09393 107.07852 55.195 107.47182 55.25801 107.71751 55.32103 107.96321 55.42209 108.358 55.4851 108.60466 55.54811 108.85132 55.64915 109.24757 55.71217 109.49525 55.77518 109.74292 55.87625 110.14105 55.93925 110.38974 56.00227 110.63843 56.10333 111.03798 56.16635 111.28769 56.22935 111.5374 56.33041 111.9388 56.39342 112.18953 56.45644 112.44026 56.6205 113.09482 56.6205 113.09482"/>
<use data-text="y" xlink:href="#font_1_6" transform="matrix(9.9626,0,0,-9.963098,124.196,11.814941)" fill="#0000ff"/>
<use data-text="=" xlink:href="#font_2_4" transform="matrix(9.9626,0,0,-9.963098,132.206,11.814941)" fill="#0000ff"/>
<use data-text="f" xlink:href="#font_1_2" transform="matrix(9.9626,0,0,-9.963098,142.722,11.814941)" fill="#0000ff"/>
<use data-text="(" xlink:href="#font_2_1" transform="matrix(9.9626,0,0,-9.963098,148.672,11.814941)" fill="#0000ff"/>
<use data-text="x" xlink:href="#font_1_5" transform="matrix(9.9626,0,0,-9.963098,152.54599,11.814941)" fill="#0000ff"/>
<use data-text=")" xlink:href="#font_2_2" transform="matrix(9.9626,0,0,-9.963098,158.23999,11.814941)" fill="#0000ff"/>
<path transform="matrix(1,0,0,-1.00005,63.856004,131.1259)" stroke-width=".79701" stroke-linecap="butt" stroke-miterlimit="10" stroke-linejoin="miter" fill="none" stroke="#ff0000" d="M-28.3468 113.38724C-28.3468 113.38724-28.26491 112.73296-28.23347 112.48235-28.20203 112.23175-28.15158 111.83054-28.12015 111.58095-28.0887 111.33136-28.03827 110.93193-28.00682 110.68343-27.97539 110.43492-27.92493 110.03735-27.8935 109.78981-27.86206 109.54225-27.8116 109.1458-27.78017 108.89922-27.74873 108.65262-27.69829 108.25803-27.66685 108.01251-27.6354 107.767-27.58496 107.37419-27.55351 107.1297-27.52208 106.88521-27.47163 106.49388-27.4402 106.25035-27.40877 106.0068-27.3583 105.61702-27.32687 105.37445-27.29544 105.13188-27.24498 104.74358-27.21355 104.50203-27.1821 104.26048-27.13167 103.87396-27.10022 103.63348-27.06879 103.39302-27.01833 103.0083-26.9869 102.76884-26.95546 102.5294-26.905 102.14616-26.87357 101.90767-26.84213 101.66919-26.79169 101.28748-26.76025 101.04994-26.7288 100.81241-26.67836 100.43219-26.64691 100.19568-26.61548 99.95917-26.56503 99.58081-26.5336 99.34532-26.50217 99.10982-26.4517 98.73286-26.42027 98.4984-26.38884 98.26393-26.33838 97.88882-26.30695 97.6554-26.2755 97.42195-26.22507 97.04831-26.19362 96.81583-26.16219 96.58334-26.11172 96.2112-26.08029 95.97974-26.04886 95.74828-25.99841 95.37798-25.96698 95.14754-25.93555 94.91708-25.88509 94.54822-25.85365 94.31879-25.8222 94.08936-25.77176 93.72235-25.74031 93.49394-25.70888 93.26553-25.65843 92.9-25.627 92.67255-25.59557 92.4451-25.5451 92.08104-25.51367 91.85461-25.48224 91.6282-25.43178 91.26598-25.40034 91.04059-25.3689 90.81519-25.31847 90.45445-25.28702 90.23001-25.25558 90.00557-25.20512 89.64632-25.17369 89.4229-25.14226 89.19946-25.09181 88.84207-25.06038 88.61966-25.02895 88.39726-24.97849 88.04129-24.94705 87.8199-24.9156 87.59853-24.86516 87.2444-24.83371 87.02403-24.80228 86.80367-24.75183 86.45103-24.7204 86.23161-24.68896 86.0122-24.6385 85.66106-24.60707 85.44269-24.57564 85.2243-24.52518 84.87498-24.49374 84.65762-24.4623 84.44026-24.41187 84.09242-24.38042 83.87602-24.34898 83.65962-24.29854 83.31326-24.26709 83.09789-24.23566 82.8825-24.18521 82.53801-24.15378 82.32364-24.12234 82.10928-24.07188 81.7662-24.04045 81.55286-24.009 81.33951-23.95856 80.99829-23.92711 80.78596-23.89568 80.57364-23.84525 80.23389-23.8138 80.02254-23.78236 79.81119-23.7319 79.47292-23.70047 79.26257-23.66904 79.05225-23.61859 78.7158-23.58716 78.50648-23.55571 78.29718-23.50526 77.96219-23.47382 77.75389-23.44238 77.5456-23.39194 77.21243-23.36049 77.00516-23.32906 76.79788-23.27861 76.46622-23.24718 76.2599-23.21574 76.05357-23.16528 75.72339-23.13385 75.51808-23.1024 75.31279-23.05196 74.98447-23.02052 74.78018-22.98907 74.5759-22.93864 74.24905-22.9072 74.04573-22.87576 73.8424-22.8253 73.51703-22.79387 73.31474-22.76244 73.11244-22.71199 72.78893-22.68056 72.58765-22.64911 72.38637-22.59866 72.06433-22.56723 71.86401-22.53578 71.6637-22.48534 71.34314-22.45389 71.14384-22.42245 70.94453-22.37201 70.62576-22.34058 70.42755-22.30914 70.22934-22.25868 69.91241-22.22725 69.71515-22.1958 69.5179-22.14536 69.2021-22.11392 69.0058-22.08247 68.8095-22.03204 68.49554-22.0006 68.30032-21.96916 68.1051-21.9187 67.79294-21.88727 67.59875-21.85583 67.40456-21.80539 67.09386-21.77396 66.90063-21.74251 66.7074-21.69206 66.39825-21.66063 66.20598-21.62918 66.0137-21.57874 65.70604-21.54729 65.51479-21.51585 65.32353-21.46541 65.01765-21.43398 64.82747-21.40254 64.6373-21.35208 64.3333-21.32065 64.14407-21.28922 63.95485-21.23877 63.65189-21.20734 63.46368-21.17589 63.2755-21.12544 62.97481-21.094 62.78763-21.06256 62.60045-21.0121 62.30081-20.98067 62.11461-20.94923 61.9284-20.89879 61.63065-20.86736 61.44547-20.83592 61.26027-20.78546 60.96397-20.75403 60.7798-20.72258 60.59563-20.67213 60.30116-20.64069 60.11801-20.60925 59.93486-20.5588 59.64188-20.52737 59.45969-20.49594 59.2775-20.44548 58.986-20.41405 58.80482-20.38261 58.62364-20.33217 58.33401-20.30074 58.15385-20.26929 57.9737-20.21884 57.68555-20.1874 57.50635-20.15596 57.32713-20.1055 57.04047-20.07407 56.86229-20.04263 56.68413-19.99219 56.39923-19.96075 56.22214-19.92932 56.04504-19.87886 55.76201-19.84743 55.58588-19.81598 55.40974-19.76553 55.1278-19.73409 54.95264-19.70265 54.77747-19.6522 54.49738-19.62077 54.32329-19.58934 54.1492-19.53888 53.87099-19.50745 53.69785-19.47601 53.52472-19.42557 53.24754-19.39413 53.07542-19.36269 52.9033-19.31224 52.6284-19.28079 52.45732-19.24936 52.28624-19.1989 52.01239-19.16747 51.84227-19.13603 51.67213-19.08559 51.40019-19.05415 51.23108-19.02272 51.06198-18.97226 50.79146-18.94083 50.62337-18.90938 50.45528-18.85895 50.18661-18.8275 50.01955-18.79607 49.85248-18.7456 49.58522-18.71417 49.41917-18.68274 49.25313-18.63228 48.98781-18.60085 48.82271-18.56941 48.65762-18.51897 48.39334-18.48753 48.22928-18.45609 48.0652-18.40564 47.8032-18.37419 47.64015-18.34276 47.4771-18.2923 47.21616-18.26086 47.05406-18.22943 46.89198-18.17899 46.63293-18.14755 46.47186-18.11612 46.31079-18.06566 46.05318-18.03423 45.89313-18.00278 45.73308-17.95235 45.47733-17.9209 45.3183-17.88947 45.15926-17.83902 44.90492-17.80757 44.7469-17.77614 44.5889-17.72568 44.33641-17.69424 44.17941-17.66281 44.02243-17.61237 43.77141-17.58093 43.61539-17.54948 43.45935-17.49904 43.2099-17.46759 43.05482-17.43616 42.89975-17.38571 42.65176-17.35426 42.4977-17.32283 42.34364-17.27238 42.09744-17.24095 41.94449-17.20952 41.79152-17.15906 41.54716-17.12762 41.39516-17.09618 41.24316-17.04575 40.99986-17.0143 40.84888-16.98286 40.69789-16.93242 40.45686-16.90097 40.3069-16.86954 40.15694-16.81908 39.91696-16.78764 39.76796-16.75621 39.61894-16.70576 39.3809-16.67433 39.23291-16.64288 39.08492-16.59244 38.8483-16.561 38.70132-16.52956 38.55435-16.47913 38.31956-16.44768 38.17361-16.41624 38.02768-16.36578 37.79437-16.33435 37.6494-16.30292 37.50441-16.25246 37.27258-16.22102 37.12862-16.18958 36.98466-16.13914 36.75468-16.10771 36.61174-16.07626 36.4688-16.02582 36.24023-15.99437 36.09831-15.96294 35.95638-15.91248 35.72969-15.88104 35.58878-15.84961 35.44788-15.79916 35.22266-15.76773 35.0827-15.73628 34.94276-15.68584 34.71902-15.6544 34.5801-15.62296 34.44116-15.57253 34.21928-15.54108 34.08139-15.50964 33.94348-15.45918 33.72307-15.42775 33.58614-15.39632 33.44919-15.34586 33.23026-15.31442 33.09433-15.28299 32.95842-15.23254 32.74133-15.20111 32.60643-15.16966 32.47153-15.11922 32.25587-15.08777 32.12198-15.05634 31.9881-15.00587 31.7743-14.97444 31.64143-14.94301 31.50858-14.89256 31.29626-14.86113 31.16435-14.8297 31.03244-14.77924 30.82161-14.7478 30.69072-14.71635 30.55983-14.66592 30.35085-14.63448 30.22098-14.60304 30.09111-14.55258 29.8836-14.52115 29.7547-14.48972 29.62581-14.43925 29.41977-14.40782 29.2919-14.37639 29.16402-14.32594 28.95976-14.29451 28.83296-14.26306 28.70616-14.21262 28.50378-14.18117 28.37793-14.14973 28.25209-14.09929 28.05083-14.06786 27.92593-14.03642 27.80106-13.98596 27.60164-13.95453 27.47783-13.9231 27.35402-13.87263 27.15646-13.8412 27.03362-13.80975 26.91077-13.75932 26.7143-13.72787 26.59242-13.69644 26.47055-13.64598 26.27591-13.61455 26.15512-13.58311 26.03432-13.53265 25.8415-13.50122 25.72173-13.46979 25.60194-13.41934 25.4106-13.38791 25.29178-13.35646 25.17296-13.30602 24.9831-13.27457 24.8653-13.24313 24.7475-13.19269 24.5595-13.16125 24.4427-13.12982 24.32593-13.07936 24.13939-13.04793 24.02357-13.0165 23.90775-12.96603 23.72272-12.9346 23.60791-12.90315 23.4931-12.85272 23.3099-12.82127 23.19612-12.78984 23.08235-12.73938 22.90057-12.70795 22.78781-12.67651 22.67506-12.62605 22.49513-12.59462 22.3834-12.56319 22.27167-12.51274 22.09322-12.48131 21.98244-12.44986 21.87166-12.39941 21.69469-12.36797 21.58493-12.33653 21.47517-12.28609 21.30006-12.25465 21.19131-12.22322 21.08258-12.17276 20.90895-12.14133 20.80116-12.1099 20.69337-12.05943 20.52126-12.028 20.41449-11.99655 20.30772-11.94612 20.13744-11.91467 20.0317-11.88324 19.92593-11.8328 19.75706-11.80135 19.65234-11.76991 19.54764-11.71947 19.3806-11.68803 19.2769-11.6566 19.17322-11.60614 19.00766-11.5747 18.90492-11.54326 18.8022-11.49281 18.63812-11.46136 18.5364-11.42993 18.4347-11.3795 18.27246-11.34805 18.17177-11.31662 18.07108-11.26616 17.91034-11.23473 17.8106-11.2033 17.71086-11.15283 17.55162-11.1214 17.4529-11.08995 17.35417-11.03952 17.19676-11.00807 17.09908-10.97664 17.00139-10.9262 16.8454-10.89474 16.74873-10.86331 16.65205-10.81287 16.49791-10.78143 16.40225-10.75 16.30661-10.69954 16.15395-10.6681 16.05925-10.63666 15.96457-10.58621 15.8134-10.55478 15.71973-10.52333 15.62604-10.4729 15.47672-10.44145 15.38406-10.41002 15.2914-10.35956 15.14352-10.32813 15.05188-10.29669 14.96025-10.24623 14.8142-10.2148 14.72359-10.18335 14.63297-10.13292 14.4884-10.10149 14.39874-10.07004 14.30908-10.01959 14.16599-9.98814 14.07736-9.95671 13.98872-9.90627 13.84749-9.87483 13.75989-9.8434 13.67227-9.79294 13.5325-9.7615 13.44585-9.73006 13.3592-9.67961 13.22093-9.64818 13.1353-9.61673 13.04965-9.5663 12.91324-9.53485 12.82863-9.50342 12.744-9.45296 12.60901-9.42152 12.52542-9.39009 12.44182-9.33965 12.30875-9.30821 12.2261-9.27678 12.14346-9.22632 12.01143-9.19489 11.92982-9.16344 11.84822-9.11299 11.71844-9.08154 11.63785-9.05011 11.55727-8.99966 11.4285-8.96823 11.34892-8.9368 11.26935-8.88634 11.14285-8.8549 11.06432-8.82347 10.98576-8.77301 10.86032-8.74158 10.78273-8.71013 10.70514-8.6597 10.5816-8.62825 10.50504-8.59682 10.42845-8.54636 10.30635-8.51492 10.2308-8.48349 10.15524-8.43304 10.035-8.40161 9.96046-8.37018 9.88593-8.31972 9.76715-8.28828 9.69359-8.25684 9.62003-8.20639 9.50272-8.17494 9.43018-8.14351 9.35764-8.09306 9.24219-8.06163 9.17065-8.0302 9.09914-7.97974 8.98517-7.9483 8.9146-7.91687 8.84402-7.86641 8.73154-7.83498 8.66199-7.80353 8.59244-7.7531 8.48181-7.72165 8.41328-7.69022 8.34476-7.63976 8.23555-7.60832 8.16803-7.57689 8.10052-7.52644 7.99316-7.49501 7.92667-7.46358 7.86017-7.41312 7.75429-7.38168 7.68877-7.35023 7.62325-7.29979 7.51884-7.26834 7.45435-7.23691 7.38985-7.18646 7.2873-7.15503 7.2238-7.1236 7.16032-7.07314 7.05919-7.0417 6.99672-7.01027 6.93425-6.95982 6.83498-6.92839 6.77353-6.89694 6.71208-6.8465 6.61429-6.81505 6.55379-6.78362 6.4933-6.73315 6.397-6.70172 6.33752-6.67029 6.27806-6.61984 6.18361-6.58841 6.12515-6.55698 6.06671-6.50652 5.97371-6.47508 5.91624-6.44363 5.85876-6.39319 5.76724-6.36174 5.71078-6.3303 5.65433-6.27986 5.56467-6.24843 5.50922-6.217 5.45378-6.16653 5.3656-6.1351 5.31113-6.10367 5.25664-6.05322 5.16994-6.02179 5.11647-5.99034 5.06302-5.9399 4.9781-5.90845 4.92572-5.87701 4.87334-5.82657 4.7903-5.79512 4.73888-5.76369 4.68744-5.71324 4.60551-5.68181 4.55504-5.65038 4.50456-5.59991 4.42448-5.56848 4.3751-5.53703 4.32573-5.4866 4.24742-5.45515 4.19907-5.42372 4.15071-5.37328 4.07388-5.34183 4.02647-5.3104 3.97908-5.25993 3.90373-5.2285 3.85736-5.19707 3.81097-5.14662 3.73755-5.11519 3.69212-5.08374 3.6467-5.0333 3.57433-5.00185 3.52992-4.97041 3.48552-4.91997 3.41537-4.88852 3.37206-4.85709 3.32872-4.80664 3.26-4.7752 3.21762-4.74377 3.17526-4.69331 3.10806-4.66188 3.06667-4.63043 3.02528-4.58 2.95956-4.54857 2.91919-4.51712 2.8788-4.46667 2.81494-4.43523 2.77559-4.4038 2.73622-4.35333 2.67378-4.3219 2.63544-4.29047 2.59709-4.24002 2.5365-4.20859 2.49918-4.17714 2.46187-4.1267 2.40276-4.09526 2.3664-4.06381 2.33003-4.01337 2.27242-3.98192 2.23708-3.95049 2.20172-3.90004 2.14597-3.8686 2.11163-3.83717 2.07732-3.78671 2.02295-3.75528 1.98965-3.72383 1.95636-3.6734 1.90385-3.64197 1.87158-3.61052 1.83931-3.56007 1.78828-3.52863 1.75696-3.4972 1.72565-3.44673 1.67609-3.4153 1.64578-3.38387 1.6155-3.33342 1.56781-3.30199 1.53853-3.27055 1.50925-3.2201 1.46303-3.18866 1.43471-3.15721 1.40639-3.10678 1.36166-3.07533 1.33437-3.0439 1.30705-2.99344 1.26419-2.962 1.2379-2.93057 1.21162-2.88011 1.17023-2.84868 1.14491-2.81725 1.1196-2.7668 1.07967-2.73537 1.05537-2.70392 1.03108-2.65347 .99295-2.62202 .96974-2.59059 .94653-2.54013 .91025-2.5087 .88799-2.47726 .86572-2.42682 .83057-2.39539 .80927-2.36395 .78798-2.31349 .75465-2.28206 .73444-2.25061 .71422-2.20018 .6827-2.16873 .6635-2.1373 .6443-2.08684 .61426-2.0554 .59602-2.02397 .57777-1.97351 .54922-1.94208 .532-1.91064 .51477-1.8602 .48807-1.82877 .47188-1.79732 .45569-1.74687 .43045-1.71542 .41522-1.68399 .4-1.63353 .37622-1.6021 .36201-1.57066 .3478-1.52022 .32591-1.48878 .31271-1.45735 .29951-1.40689 .2791-1.37546 .26686-1.34401 .25462-1.29358 .23569-1.26213 .22447-1.2307 .21324-1.18024 .19615-1.1488 .18597-1.11737 .17578-1.06691 .16011-1.03548 .15096-1.00404 .14178-.9536 .12794-.92216 .1198-.89072 .11165-.84027 .0993-.80882 .09212-.77739 .08493-.72694 .07407-.69551 .0679-.66408 .06172-.61362 .05272-.58218 .04756-.55075 .0424-.50029 .03484-.46886 .0307-.43741 .02657-.38698 .02083-.35553 .01772-.3241 .0146-.27364 .01036-.2422 .0082-.21077 .00604-.16031 .00328-.12888 .00215-.09744 .00102-.047 .00009-.01556 0 .01587-.00009 .0663 .00044 .09775 .00128 .12918 .00212 .17963 .00418 .21106 .00604 .2425 .0079 .29295 .01183 .32439 .0147 .35582 .01756 .40628 .02292 .43771 .02681 .46916 .0307 .51959 .03789 .55104 .0428 .58247 .04771 .63292 .05641 .66437 .06227 .6958 .06815 .74626 .07831 .7777 .0852 .80913 .09209 .85957 .10411 .891 .11201 .92245 .11992 .9729 .1334 1.00435 .14229 1.03578 .15115 1.08621 .16614 1.11766 .17603 1.1491 .18593 1.19955 .20274 1.23099 .21365 1.26242 .22456 1.31288 .24281 1.34431 .25475 1.37576 .26668 1.4262 .28677 1.45764 .29973 1.48907 .31268 1.53952 .33427 1.57097 .34818 1.6024 .36209 1.65285 .38513 1.68428 .40009 1.71571 .41502 1.76617 .43993 1.7976 .45589 1.82906 .47185 1.8795 .49821 1.91093 .51514 1.94238 .53206 1.99281 .5599 2.02426 .57785 2.0557 .5958 2.10616 .6255 2.13759 .64447 2.16902 .66342 2.21948 .69455 2.25092 .71454 2.28236 .73451 2.3328 .76752 2.36423 .7885 2.39568 .8095 2.44612 .84398 2.47757 .86592 2.509 .88788 2.55945 .92384 2.59088 .94682 2.62231 .96979 2.67278 1.00758 2.70421 1.03159 2.73566 1.05559 2.7861 1.0948 2.81754 1.11983 2.84898 1.14485 2.89941 1.18591 2.93086 1.21196 2.9623 1.23799 3.01276 1.28055 3.04419 1.30754 3.07562 1.33455 3.12608 1.37859 3.15752 1.4066 3.18895 1.43462 3.2394 1.48051 3.27083 1.50955 3.30228 1.53859 3.35272 1.58595 3.38417 1.61595 3.4156 1.64594 3.46605 1.6948 3.49748 1.72581 3.52892 1.75682 3.57938 1.80753 3.61081 1.83957 3.64224 1.87161 3.6927 1.92372 3.72414 1.95679 3.75558 1.98985 3.80602 2.04381 3.83746 2.0779 3.8689 2.11197 3.91936 2.16743 3.95079 2.20247 3.98222 2.23752 4.03267 2.29445 4.0641 2.3305 4.09554 2.36656 4.146 2.42535 4.17743 2.46242 4.20888 2.4995 4.25932 2.55978 4.29077 2.59781 4.3222 2.63585 4.37265 2.6976 4.40408 2.73665 4.43552 2.77571 4.48598 2.8393 4.51741 2.87938 4.54884 2.91946 4.5993 2.98448 4.63074 3.02557 4.66219 3.06668 4.71262 3.13356 4.74406 3.17569 4.7755 3.2178 4.82596 3.28615 4.85739 3.32922 4.88882 3.37231 4.93927 3.44214 4.9707 3.48625 5.00214 3.53035 5.0526 3.60202 5.08403 3.64714 5.11548 3.69226 5.16592 3.76537 5.19737 3.81151 5.2288 3.85765 5.27925 3.93266 5.31068 3.97977 5.34212 4.02686 5.39258 4.10292 5.42401 4.15105 5.45544 4.19917 5.5059 4.27751 5.53734 4.32666 5.56879 4.37581 5.61922 4.45518 5.65067 4.5053 5.6821 4.5554 5.73256 4.63664 5.76399 4.68782 5.79543 4.73901 5.84587 4.82211 5.8773 4.87425 5.90874 4.92639 5.9592 5.01054 5.99063 5.0637 6.02208 5.11687 6.07253 5.20331 6.10397 5.25749 6.1354 5.31168 6.18585 5.39915 6.21729 5.4543 6.24872 5.50943 6.29918 5.59882 6.33061 5.655 6.36205 5.71117 6.41249 5.80196 6.44392 5.85915 6.47537 5.91634 6.52582 6.00899 6.55727 6.0672 6.5887 6.1254 6.63914 6.21954 6.6706 6.27872 6.70203 6.33788 6.75247 6.4335 6.7839 6.49368 6.81534 6.55386 6.8658 6.65135 6.89723 6.71255 6.92868 6.77376 6.97913 6.87263 7.01057 6.93486 7.042 6.99709 7.09244 7.09782 7.12389 7.16109 7.15532 7.22433 7.20578 7.32655 7.23721 7.39076 7.26865 7.45499 7.31909 7.55867 7.35052 7.6239 7.38197 7.68913 7.43242 7.79468 7.46387 7.86093 7.4953 7.92719 7.54575 8.03421 7.5772 8.10141 7.60863 8.16862 7.65907 8.27715 7.6905 8.34538 7.72194 8.4136 7.7724 8.52391 7.80383 8.59322 7.83528 8.66252 7.88573 8.77469 7.91716 8.84496 7.94861 8.91522 7.99904 9.02849 8.03049 9.09972 8.06192 9.17093 8.11238 9.28612 8.14381 9.35838 8.17525 9.43063 8.2257 9.54721 8.25713 9.62048 8.28857 9.69376 8.33902 9.81221 8.37045 9.8865 8.4019 9.9608 8.45235 10.08067 8.4838 10.15598 8.51523 10.2313 8.56567 10.35301 8.5971 10.42934 8.62854 10.50568 8.679 10.62888 8.71043 10.70616 8.74188 10.78346 8.79231 10.90814 8.82375 10.98645 8.8552 11.06476 8.90564 11.1913 8.93709 11.27063 8.96852 11.34998 9.01898 11.47797 9.05042 11.55827 9.08185 11.63857 9.1323 11.76804 9.16373 11.84935 9.19516 11.93068 9.24562 12.06201 9.27705 12.14435 9.3085 12.22668 9.35895 12.35953 9.3904 12.44281 9.42183 12.52611 9.47227 12.66042 9.50371 12.74472 9.53514 12.82904 9.5856 12.96513 9.61703 13.05052 9.64847 13.13591 9.69891 13.27388 9.73035 13.36021 9.7618 13.44656 9.81224 13.58562 9.84369 13.67294 9.87512 13.76025 9.92558 13.90117 9.95702 13.98956 9.98845 14.07797 10.0389 14.22066 10.07033 14.31007 10.10176 14.39949 10.15222 14.54367 10.18365 14.63403 10.2151 14.72441 10.26555 14.87015 10.297 14.96147 10.32843 15.05281 10.37888 15.20001 10.41031 15.29236 10.44174 15.38472 10.4922 15.53372 10.52364 15.62715 10.55507 15.72058 10.60551 15.87143 10.63695 15.96582 10.6684 16.06021 10.71884 16.21217 10.75029 16.30754 10.78172 16.4029 10.83218 16.55672 10.86362 16.65314 10.89505 16.74956 10.9455 16.90515 10.97693 17.00261 11.00836 17.10007 11.05882 17.25716 11.09026 17.35558 11.1217 17.454 11.17213 17.61261 11.20358 17.71199 11.23502 17.81136 11.28548 17.97147 11.31691 18.07185 11.34834 18.17226 11.3988 18.33414 11.43024 18.43561 11.46167 18.5371 11.51212 18.70084 11.54355 18.80327 11.575 18.9057 11.62544 19.0705 11.65689 19.17397 11.68832 19.27742 11.73878 19.44449 11.77022 19.54898 11.80165 19.65346 11.8521 19.82156 11.88353 19.927 11.91496 20.03244 11.96542 20.20248 11.99686 20.30894 12.0283 20.4154 12.07874 20.58687 12.11018 20.69434 12.14162 20.80182 12.19208 20.97511 12.22351 21.08362 12.25494 21.19211 12.3054 21.3669 12.33684 21.47636 12.36827 21.58582 12.41872 21.7621 12.45015 21.87257 12.4816 21.98305 12.53204 22.16118 12.56349 22.27267 12.59492 22.38416 12.64537 22.56369 12.67682 22.67622 12.70825 22.78874 12.7587 22.97014 12.79013 23.08368 12.82156 23.19722 12.87202 23.38008 12.90346 23.49458 12.9349 23.60909 12.98534 23.79343 13.01678 23.90895 13.04822 24.02448 13.09866 24.21068 13.13011 24.32721 13.16154 24.44376 13.212 24.63145 13.24344 24.74895 13.27487 24.86644 13.32532 25.05562 13.35675 25.17413 13.3882 25.29265 13.43864 25.48367 13.4701 25.60321 13.50153 25.72275 13.55196 25.91519 13.5834 26.03574 13.61484 26.1563 13.6653 26.35059 13.69673 26.47217 13.72816 26.59375 13.77863 26.78952 13.81006 26.91206 13.8415 27.0346 13.89194 27.23186 13.92337 27.35542 13.95482 27.47899 14.00526 27.67809 14.03671 27.80266 14.06815 27.92725 14.1186 28.12784 14.15004 28.25337 14.18147 28.3789 14.23192 28.58098 14.26335 28.70753 14.2948 28.83409 14.34525 29.03801 14.37668 29.16559 14.40813 29.29318 14.45856 29.4985 14.49 29.6271 14.52144 29.75572 14.5719 29.96289 14.60333 30.09251 14.63477 30.22215 14.68523 30.43082 14.71666 30.5614 14.74811 30.69199 14.79854 30.90211 14.82997 31.03372 14.86142 31.16533 14.91187 31.37732 14.94331 31.50993 14.97475 31.64256 15.0252 31.856 15.05664 31.98964 15.08807 32.12328 15.13852 32.33861 15.16995 32.4732 15.20139 32.6078 15.25185 32.82419 15.28328 32.95981 15.31473 33.09543 15.36516 33.31409 15.3966 33.45074 15.42804 33.5874 15.4785 33.8071 15.50993 33.9447 15.54137 34.0823 15.59183 34.30386 15.62326 34.44255 15.6547 34.58124 15.70514 34.80464 15.73657 34.94429 15.76802 35.08394 15.81847 35.30841 15.84991 35.44908 15.88135 35.58974 15.9318 35.81648 15.96323 35.95816 15.99466 36.09984 16.04512 36.32764 16.07655 36.47028 16.10799 36.61293 16.15845 36.84265 16.18988 36.98631 16.22133 37.12997 16.27176 37.3611 16.3032 37.50578 16.33464 37.65045 16.3851 37.88344 16.41653 38.02916 16.44797 38.17487 16.49843 38.40933 16.52986 38.556 16.5613 38.70267 16.61174 38.9386 16.64317 39.08629 16.67462 39.23398 16.72507 39.47176 16.75652 39.62047 16.78795 39.76918 16.8384 40.00839 16.86983 40.15811 16.90126 40.30785 16.95172 40.5489 16.98315 40.69965 17.01459 40.85039 17.06505 41.09293 17.09648 41.24464 17.12793 41.39636 17.17836 41.64037 17.20981 41.7931 17.24124 41.94583 17.2917 42.1917 17.32314 42.34546 17.35457 42.4992 17.40501 42.74649 17.43645 42.90126 17.46788 43.05605 17.51834 43.30525 17.54977 43.46097 17.58122 43.6167 17.63167 43.86696 17.66312 44.02371 17.69455 44.18045 17.745 44.43298 17.77643 44.59076 17.80786 44.74852 17.85832 45.00212 17.88976 45.16084 17.92119 45.31956 17.97165 45.57503 18.00308 45.73482 18.03453 45.89462 18.08496 46.15192 18.11641 46.3127 18.14784 46.47348 18.1983 46.73186 18.22974 46.8936 18.26117 47.05533 18.31161 47.31557 18.34305 47.47838 18.37448 47.6412 18.42494 47.90323 18.45638 48.06706 18.48782 48.2309 18.53827 48.49443 18.56972 48.65921 18.60115 48.824 18.6516 49.089 18.68303 49.2548 18.71446 49.42062 18.76492 49.68748 18.79636 49.85432 18.82779 50.02115 18.87825 50.28949 18.90968 50.45728 18.94113 50.62506 18.99156 50.8949 19.02301 51.06369 19.05444 51.2325 19.10489 51.50417 19.13634 51.674 19.16777 51.84383 19.21822 52.11691 19.24965 52.28778 19.28108 52.45863 19.33154 52.73355 19.36298 52.90543 19.39442 53.0773 19.44487 53.35374 19.47632 53.52657 19.50775 53.6994 19.55818 53.9773 19.58963 54.15114 19.62106 54.325 19.67152 54.60475 19.70296 54.77962 19.73439 54.95448 19.78484 55.23573 19.81627 55.41158 19.84772 55.5874 19.89816 55.8701 19.92961 56.04697 19.96104 56.22383 20.01149 56.50838 20.04294 56.68625 20.07437 56.86414 20.12482 57.15012 20.15625 57.32901 20.18768 57.5079 20.23814 57.79573 20.26958 57.97565 20.30103 58.15556 20.35147 58.44489 20.3829 58.62575 20.41435 58.80663 20.46478 59.09743 20.49623 59.27931 20.52766 59.46121 20.57813 59.75386 20.60956 59.93677 20.64099 60.11967 20.69144 60.41382 20.72287 60.59769 20.75432 60.78156 20.80476 61.07716 20.8362 61.26207 20.86765 61.44696 20.91809 61.74443 20.94954 61.93034 20.98097 62.11626 21.03142 62.41513 21.06285 62.60208 21.09428 62.78902 21.14474 63.08974 21.17618 63.2777 21.20763 63.46565 21.25807 63.76787 21.2895 63.95679 21.32095 64.14569 21.37138 64.44939 21.40283 64.63933 21.43427 64.82925 21.48473 65.13481 21.51616 65.32576 21.54759 65.51672 21.59804 65.82368 21.62947 66.01566 21.6609 66.20763 21.71136 66.51651 21.7428 66.70946 21.77425 66.90239 21.82469 67.21231 21.85614 67.40628 21.88757 67.60023 21.93802 67.91243 21.96945 68.1074 22.00089 68.30238 22.05135 68.61566 22.08278 68.8116 22.11421 69.00754 22.16466 69.32265 22.19609 69.51965 22.22754 69.71667 22.27798 70.03357 22.30943 70.23161 22.34087 70.42964 22.39133 70.74803 22.42276 70.94704 22.4542 71.14603 22.50464 71.46596 22.53607 71.66591 22.5675 71.86586 22.61797 72.18726 22.6494 72.38824 22.68085 72.58923 22.7313 72.91246 22.76274 73.11447 22.79417 73.31647 22.84462 73.64114 22.87605 73.84416 22.90749 74.04718 22.95795 74.3737 22.98938 74.57776 23.02081 74.7818 23.07126 75.10974 23.10269 75.3148 23.13414 75.51987 23.18459 75.84972 23.21603 76.05574 23.24747 76.26175 23.29793 76.59267 23.32936 76.7997 23.3608 77.00674 23.41124 77.33994 23.44267 77.54799 23.4741 77.75604 23.52457 78.09027 23.556 78.2993 23.58745 78.50833 23.6379 78.84448 23.66934 79.05452 23.70078 79.26457 23.75122 79.60213 23.78265 79.81319 23.81409 80.02426 23.86455 80.36366 23.89598 80.57576 23.92741 80.78784 23.97786 81.12868 24.0093 81.34178 24.04074 81.55489 24.09119 81.89758 24.12263 82.1117 24.15407 82.32582 24.20453 82.67 24.23596 82.88507 24.2674 83.10014 24.31784 83.44589 24.34927 83.66193 24.3807 83.87796 24.43117 84.22516 24.4626 84.44221 24.49405 84.65926 24.54448 85.00826 24.57593 85.22641 24.60736 85.44455 24.65782 85.79532 24.68925 86.0145 24.72069 86.23366 24.77115 86.58592 24.80258 86.80605 24.83401 87.02617 24.88446 87.37996 24.9159 87.60104 24.94734 87.82213 24.99779 88.17741 25.02924 88.3995 25.06067 88.62161 25.11111 88.97874 25.14256 89.20186 25.174 89.42497 25.22444 89.78354 25.25587 90.00769 25.28731 90.23183 25.33777 90.59221 25.3692 90.81738 25.40065 91.04256 25.45108 91.40443 25.48253 91.63057 25.51396 91.8567 25.5644 92.22005 25.59586 92.44719 25.62729 92.67433 25.67775 93.03955 25.70918 93.26772 25.74062 93.49588 25.79106 93.86252 25.8225 94.0917 25.85394 94.32089 25.90439 94.68938 25.93584 94.91959 25.96727 95.14978 26.01772 95.51976 26.04916 95.75092 26.0806 95.98207 26.13104 96.35353 26.16248 96.58572 26.19391 96.8179 26.24437 97.19121 26.2758 97.42441 26.30725 97.65761 26.35768 98.03238 26.38911 98.26656 26.42056 98.50073 26.47101 98.87698 26.50246 99.11218 26.53389 99.34737 26.58435 99.72548 26.61578 99.96169 26.64722 100.19789 26.69766 100.57742 26.7291 100.81465 26.76054 101.05188 26.81099 101.43324 26.84242 101.6715 26.87387 101.90974 26.9243 102.29262 26.95575 102.53181 26.98718 102.77103 27.03764 103.15538 27.06908 103.3956 27.10051 103.63582 27.15097 104.022 27.1824 104.26326 27.21385 104.50452 27.26428 104.89218 27.29572 105.1344 27.32716 105.37662 27.37761 105.76576 27.40906 106.009 27.44049 106.25223 27.49095 106.64322 27.52238 106.88747 27.55382 107.13173 27.60426 107.52415 27.6357 107.76941 27.66713 108.01468 27.71759 108.40897 27.74902 108.65526 27.78047 108.90154 27.8309 109.2973 27.86235 109.54456 27.89378 109.7918 27.94424 110.18906 27.97568 110.43732 28.00711 110.68558 28.05757 111.08469 28.089 111.33395 28.12044 111.58324 28.17088 111.98375 28.20232 112.23407 28.23376 112.48439 28.31566 113.13809 28.31566 113.13809"/>
<use data-text="y" xlink:href="#font_1_6" transform="matrix(9.9626,0,0,-9.963098,73.633,11.771942)" fill="#ff0000"/>
<use data-text="=" xlink:href="#font_2_4" transform="matrix(9.9626,0,0,-9.963098,81.643,11.771942)" fill="#ff0000"/>
<use data-text="g" xlink:href="#font_1_3" transform="matrix(9.9626,0,0,-9.963098,92.159008,11.771942)" fill="#ff0000"/>
<use data-text="(" xlink:href="#font_2_1" transform="matrix(9.9626,0,0,-9.963098,97.268,11.771942)" fill="#ff0000"/>
<use data-text="x" xlink:href="#font_1_5" transform="matrix(9.9626,0,0,-9.963098,101.143,11.771942)" fill="#ff0000"/>
<use data-text=")" xlink:href="#font_2_2" transform="matrix(9.9626,0,0,-9.963098,106.83599,11.771942)" fill="#ff0000"/>
<path transform="matrix(1,0,0,-1.00005,63.856004,131.1259)" stroke-width=".79701" stroke-linecap="butt" stroke-miterlimit="10" stroke-linejoin="miter" fill="none" stroke="#00ff00" d="M-56.69362 50.3924C-56.69362 50.3924-56.52954 50.10124-56.46652 49.98969-56.40352 49.87814-56.30244 49.69945-56.23944 49.5883-56.17642 49.47716-56.07536 49.2993-56.01234 49.18864-55.94934 49.07799-55.8483 48.90088-55.78528 48.7907-55.72226 48.68051-55.6212 48.50426-55.5582 48.3945-55.49518 48.28474-55.39412 48.10892-55.3311 47.99959-55.2681 47.89026-55.16704 47.71533-55.10403 47.60641-55.04102 47.4975-54.93996 47.32298-54.87694 47.21454-54.81393 47.10611-54.71288 46.93279-54.64986 46.82483-54.58685 46.71686-54.4858 46.54393-54.42279 46.4364-54.35977 46.32886-54.25871 46.15675-54.1957 46.0497-54.13269 45.94266-54.03163 45.7714-53.96861 45.66475-53.9056 45.5581-53.80455 45.38731-53.74155 45.2811-53.67853 45.17488-53.57747 45.0049-53.51445 44.89915-53.45145 44.79341-53.35037 44.6242-53.28737 44.51895-53.22435 44.4137-53.12329 44.24532-53.06027 44.14049-52.99727 44.03566-52.89622 43.86774-52.8332 43.7633-52.77019 43.65889-52.66913 43.4918-52.60612 43.38786-52.5431 43.28394-52.44205 43.1176-52.37903 43.01416-52.31602 42.9107-52.21497 42.74522-52.15196 42.64218-52.08894 42.53914-51.98788 42.37411-51.92487 42.2715-51.86186 42.16888-51.7608 42.00467-51.69778 41.90253-51.63478 41.80038-51.53372 41.63702-51.47072 41.53531-51.4077 41.4336-51.30664 41.27061-51.24362 41.16939-51.18062 41.06815-51.07956 40.90637-51.01654 40.80562-50.95352 40.70485-50.85248 40.54355-50.78947 40.44315-50.72646 40.34276-50.6254 40.1819-50.56238 40.08199-50.49937 39.98206-50.3983 39.82242-50.3353 39.72298-50.27228 39.62354-50.17122 39.46428-50.1082 39.36526-50.0452 39.26627-49.94415 39.10783-49.88113 39.0093-49.81812 38.91075-49.71706 38.75314-49.65405 38.65503-49.59103 38.55692-49.48997 38.39978-49.42696 38.3021-49.36395 38.2044-49.2629 38.04808-49.19989 37.95087-49.13687 37.85365-49.03581 37.6981-48.9728 37.60136-48.90979 37.50464-48.80873 37.34993-48.74571 37.25362-48.68271 37.15729-48.58165 37.00299-48.51865 36.90715-48.45563 36.81133-48.35457 36.65825-48.29155 36.56285-48.22855 36.46744-48.12749 36.31442-48.06447 36.21942-48.00145 36.12442-47.9004 35.97266-47.8374 35.87816-47.77438 35.78365-47.67332 35.63228-47.6103 35.53818-47.5473 35.44408-47.44623 35.29355-47.38322 35.19994-47.3202 35.10632-47.21916 34.95654-47.15614 34.86342-47.09314 34.7703-46.99208 34.62134-46.92906 34.52863-46.86604 34.43591-46.76498 34.28743-46.70198 34.19514-46.63896 34.10284-46.5379 33.9552-46.47488 33.86339-46.41188 33.77156-46.31082 33.62474-46.24782 33.53336-46.1848 33.44196-46.08374 33.29553-46.02072 33.20462-45.95772 33.11372-45.85666 32.96849-45.79364 32.87805-45.73064 32.78761-45.62958 32.64287-45.56657 32.5528-45.50356 32.46272-45.4025 32.31842-45.33948 32.22882-45.27647 32.13922-45.17542 31.99612-45.1124 31.90701-45.04938 31.8179-44.94833 31.6752-44.88533 31.58652-44.82231 31.49782-44.72125 31.35594-44.65823 31.26773-44.59523 31.1795-44.49416 31.03847-44.43115 30.95067-44.36813 30.86288-44.26709 30.72229-44.20407 30.63493-44.14107 30.54756-44.04001 30.40779-43.97699 30.3209-43.91397 30.23401-43.81291 30.09502-43.74991 30.0086-43.68689 29.9222-43.58583 29.78404-43.52281 29.69804-43.45981 29.61205-43.35875 29.47435-43.29575 29.38878-43.23273 29.3032-43.13167 29.16632-43.06865 29.08124-43.00565 28.99615-42.90459 28.86005-42.84157 28.77544-42.77856 28.69083-42.6775 28.55556-42.6145 28.47137-42.55148 28.38718-42.45042 28.25237-42.3874 28.1686-42.3244 28.08481-42.22334 27.95084-42.16032 27.86754-42.0973 27.78426-41.99626 27.65103-41.93326 27.56824-41.87024 27.48543-41.76918 27.35303-41.70616 27.27065-41.64316 27.18825-41.54208 27.05632-41.47908 26.97435-41.41606 26.89238-41.31502 26.76129-41.252 26.6798-41.189 26.5983-41.08794 26.46803-41.02492 26.38696-40.9619 26.3059-40.86084 26.17609-40.79784 26.09543-40.73482 26.01479-40.63376 25.88582-40.57074 25.80563-40.50774 25.72546-40.40668 25.59724-40.34367 25.51756-40.28065 25.43787-40.1796 25.31044-40.11658 25.23122-40.05357 25.152-39.95251 25.02539-39.8895 24.94661-39.82649 24.86781-39.72543 24.74167-39.66243 24.6633-39.59941 24.58493-39.49835 24.45967-39.43533 24.38171-39.37233 24.30376-39.27127 24.17891-39.20825 24.10144-39.14523 24.02397-39.04419 23.90031-38.98119 23.82332-38.91817 23.74632-38.81711 23.62306-38.75409 23.5465-38.69109 23.46991-38.59001 23.34753-38.52701 23.2714-38.46399 23.19525-38.36295 23.07327-38.29993 22.99759-38.23692 22.92192-38.13586 22.80115-38.07285 22.72597-38.00983 22.65077-37.90877 22.5304-37.84576 22.45563-37.78275 22.38086-37.6817 22.26137-37.61868 22.18703-37.55568 22.11267-37.4546 21.99358-37.3916 21.91971-37.32858 21.84584-37.22752 21.72797-37.1645 21.65457-37.1015 21.58118-37.00044 21.46375-36.93742 21.39072-36.87442 21.31769-36.77336 21.20071-36.71036 21.12817-36.64734 21.05563-36.54628 20.93985-36.48326 20.86778-36.42026 20.7957-36.31918 20.68034-36.25618 20.60869-36.19316 20.53705-36.09212 20.42252-36.02911 20.35133-35.9661 20.28017-35.86504 20.16644-35.80202 20.0957-35.73901 20.02495-35.63794 19.91164-35.57494 19.84137-35.51192 19.7711-35.41087 19.659-35.34785 19.5892-35.28485 19.51941-35.18379 19.40775-35.12077 19.33832-35.05775 19.26889-34.9567 19.1577-34.89369 19.08875-34.83067 19.0198-34.72963 18.9098-34.66661 18.84134-34.6036 18.77287-34.50253 18.66327-34.43953 18.59521-34.37651 18.52718-34.27545 18.41849-34.21243 18.35085-34.14943 18.28322-34.04837 18.1749-33.98535 18.10776-33.92235 18.0406-33.82129 17.93349-33.75829 17.86684-33.69527 17.80017-33.59421 17.69345-33.53119 17.6272-33.46819 17.56096-33.36711 17.45514-33.30411 17.38931-33.24109 17.32349-33.14005 17.21806-33.07704 17.15271-33.01402 17.08736-32.91296 16.98314-32.84995 16.91827-32.78694 16.85341-32.68587 16.74957-32.62286 16.68513-32.55984 16.6207-32.4588 16.51776-32.39578 16.45374-32.33278 16.3897-32.23172 16.28717-32.1687 16.22362-32.10568 16.16008-32.00462 16.05875-31.94162 15.99567-31.8786 15.93259-31.77756 15.83173-31.71454 15.76901-31.65154 15.70631-31.55046 15.60588-31.48746 15.54367-31.42444 15.48145-31.32338 15.38223-31.26036 15.32048-31.19736 15.25873-31.0963 15.15991-31.03328 15.09859-30.97028 15.03726-30.86922 14.93929-30.80621 14.87843-30.7432 14.81757-30.64214 14.72041-30.57912 14.65999-30.51611 14.59956-30.41504 14.5028-30.35204 14.44286-30.28902 14.38292-30.18797 14.28735-30.12497 14.22789-30.06195 14.16841-29.96089 14.07332-29.89787 14.0142-29.83487 13.95511-29.7338 13.86046-29.67079 13.80183-29.60777 13.74323-29.50673 13.64978-29.44371 13.59163-29.3807 13.53348-29.27965 13.44043-29.21663 13.3827-29.15361 13.32498-29.05255 13.23285-28.98955 13.17554-28.92653 13.11823-28.82549 13.02646-28.76247 12.96964-28.69946 12.91281-28.59839 12.82225-28.53539 12.76591-28.47237 12.70958-28.3713 12.61942-28.30829 12.56349-28.24529 12.50755-28.14424 12.41829-28.08122 12.3628-28.01822 12.30728-27.91714 12.21841-27.85414 12.16339-27.79112 12.10835-27.69006 12.02069-27.62704 11.96616-27.56404 11.9116-27.46297 11.8244-27.39996 11.77022-27.33694 11.71603-27.2359 11.62927-27.1729 11.57558-27.10988 11.52187-27.00882 11.43631-26.9458 11.38309-26.8828 11.32986-26.78172 11.2447-26.71872 11.1919-26.6557 11.1391-26.55466 11.05478-26.49164 11.00246-26.42863 10.95013-26.32758 10.86656-26.26456 10.81473-26.20154 10.7629-26.10048 10.68018-26.03748 10.62874-25.97446 10.57732-25.87341 10.49504-25.8104 10.44405-25.74739 10.39304-25.64632 10.31166-25.58331 10.26108-25.5203 10.21051-25.41924 10.12953-25.35622 10.07942-25.29321 10.02931-25.19217 9.94954-25.12915 9.89992-25.06615 9.8503-24.96507 9.7709-24.90207 9.72171-24.83905 9.6725-24.73799 9.59396-24.67497 9.54524-24.61197 9.49652-24.5109 9.41881-24.44789 9.3705-24.38487 9.32217-24.28383 9.24492-24.22083 9.19704-24.1578 9.14915-24.05675 9.07271-23.99373 9.02531-23.93073 8.97792-23.82965 8.90227-23.76665 8.85535-23.70363 8.80841-23.60258 8.73358-23.53957 8.68707-23.47656 8.64056-23.3755 8.56621-23.31248 8.52013-23.24947 8.47404-23.1484 8.4005-23.0854 8.35489-23.02238 8.30928-22.92134 8.23651-22.85832 8.19139-22.79532 8.14627-22.69424 8.07433-22.63124 8.02962-22.56822 7.98491-22.46716 7.91342-22.40414 7.86914-22.34114 7.82486-22.2401 7.7542-22.17708 7.7104-22.11407 7.66661-22.013 7.59679-21.95 7.5534-21.88698 7.51001-21.78592 7.44064-21.7229 7.39769-21.6599 7.35472-21.55882 7.28613-21.49582 7.2437-21.4328 7.20128-21.33176 7.13388-21.26875 7.09189-21.20573 7.04988-21.10468 6.9825-21.04166 6.94093-20.97865 6.89935-20.87758 6.83324-20.81458 6.79213-20.75156 6.75102-20.65051 6.68532-20.5875 6.64464-20.52449 6.60396-20.42343 6.53908-20.36041 6.49887-20.2974 6.45866-20.19633 6.3946-20.13333 6.35483-20.07031 6.31505-19.96927 6.25145-19.90625 6.2121-19.84325 6.17274-19.74217 6.10997-19.67917 6.07109-19.61615 6.0322-19.51509 5.9702-19.45207 5.93181-19.38907 5.8934-19.28802 5.83223-19.225 5.79425-19.16199 5.75629-19.06093 5.69559-18.99792 5.65802-18.9349 5.62045-18.83385 5.56058-18.77083 5.5235-18.70782 5.48642-18.60677 5.4273-18.54376 5.3907-18.48074 5.3541-18.37968 5.29582-18.31668 5.25964-18.25366 5.22346-18.1526 5.16563-18.08958 5.12988-18.02658 5.09413-17.9255 5.03714-17.8625 5.00185-17.79948 4.96657-17.69844 4.91035-17.63542 4.87555-17.57242 4.84076-17.47136 4.78537-17.40834 4.75098-17.34532 4.71658-17.24426 4.66167-17.18126 4.6277-17.11824 4.59373-17.0172 4.53964-16.95418 4.50616-16.89117 4.47269-16.7901 4.41942-16.7271 4.38635-16.66408 4.35329-16.56302 4.30048-16.5 4.26784-16.437 4.2352-16.33595 4.18321-16.27293 4.15105-16.20992 4.11888-16.10886 4.06767-16.04585 4.036-15.98283 4.00432-15.88177 3.95386-15.81876 3.92267-15.75575 3.89146-15.6547 3.84187-15.59169 3.81108-15.52867 3.7803-15.42761 3.73114-15.36461 3.70078-15.30159 3.67043-15.20053 3.62215-15.13751 3.59222-15.07451 3.56229-14.97343 3.5144-14.91043 3.48494-14.84741 3.45547-14.74637 3.40881-14.68335 3.37984-14.62035 3.35086-14.51929 3.3046-14.45627 3.27603-14.39325 3.24747-14.29219 3.20203-14.22919 3.17395-14.16617 3.14587-14.06512 3.10126-14.0021 3.07361-13.9391 3.04596-13.83803 3.00172-13.77502 2.97455-13.712 2.94737-13.61095 2.90442-13.54793 2.87767-13.48492 2.8509-13.38388 2.80798-13.32086 2.78163-13.25784 2.7553-13.15678 2.71364-13.09378 2.68777-13.03076 2.66193-12.9297 2.62065-12.86668 2.59521-12.80368 2.56978-12.70262 2.52934-12.63962 2.50438-12.5766 2.47942-12.47554 2.43976-12.41254 2.41528-12.34952 2.39081-12.24846 2.35196-12.18544 2.3279-12.12244 2.30383-12.02138 2.26547-11.95837 2.24182-11.89536 2.21819-11.7943 2.18063-11.73128 2.15749-11.66827 2.13434-11.56721 2.09761-11.5042 2.07486-11.44118 2.05212-11.34012 2.01587-11.27711 1.99355-11.2141 1.97124-11.11305 1.9358-11.05003 1.91397-10.98703 1.89212-10.88596 1.85747-10.82295 1.8361-10.75993 1.81474-10.65887 1.78091-10.59586 1.75998-10.53285 1.73906-10.43181 1.70561-10.36879 1.68515-10.30577 1.66469-10.20471 1.63246-10.14171 1.61249-10.07869 1.5925-9.97763 1.56073-9.91461 1.54112-9.85161 1.52151-9.75055 1.49019-9.68755 1.47104-9.62453 1.4519-9.52347 1.42178-9.46046 1.40314-9.39745 1.38448-9.29639 1.35477-9.23337 1.33652-9.17036 1.31828-9.0693 1.28947-9.0063 1.27165-8.94328 1.25383-8.84222 1.22539-8.7792 1.20807-8.7162 1.19073-8.61514 1.16351-8.55212 1.14665-8.4891 1.12979-8.38805 1.10301-8.32504 1.08652-8.26202 1.07002-8.16098 1.04372-8.09796 1.0277-8.03496 1.01167-7.93388 .98657-7.87088 .97104-7.80786 .95549-7.7068 .93079-7.64378 .91566-7.58078 .90056-7.47974 .87668-7.41672 .86203-7.3537 .8474-7.25264 .82428-7.18964 .81012-7.12662 .79597-7.02556 .77368-6.96254 .75995-6.89954 .74623-6.79848 .7244-6.73547 .71107-6.67245 .69777-6.5714 .67676-6.50839 .66393-6.44537 .6511-6.34431 .63094-6.2813 .61852-6.21829 .6061-6.11723 .5864-6.05423 .5744-5.99121 .56241-5.89015 .5435-5.82713 .532-5.76413 .5205-5.66307 .50238-5.60005 .49135-5.53703 .48032-5.43597 .46303-5.37297 .45242-5.30995 .4418-5.20891 .42499-5.14589 .4148-5.08289 .40459-4.98181 .3886-4.91881 .37889-4.85579 .36917-4.75473 .35394-4.69171 .34471-4.62871 .33548-4.52766 .32109-4.46465 .31227-4.40163 .30345-4.30057 .28954-4.23756 .28114-4.17455 .27275-4.07349 .25964-4.01047 .25172-3.94746 .2438-3.8464 .23148-3.7834 .22404-3.72038 .2166-3.61932 .2051-3.55632 .19809-3.4933 .19109-3.39224 .18002-3.32922 .17343-3.26622 .16684-3.16516 .15662-3.10216 .15051-3.03914 .1444-2.93808 .13495-2.87506 .12932-2.81206 .12367-2.711 .11505-2.64798 .10985-2.58496 .10463-2.48392 .09647-2.42091 .09167-2.3579 .08688-2.25684 .07956-2.19382 .07524-2.13081 .07092-2.02974 .06444-1.96674 .06055-1.90372 .05666-1.80266 .0506-1.73964 .04713-1.67664 .04367-1.57559 .03845-1.51257 .03546-1.44955 .03247-1.3485 .02802-1.28549 .0255-1.22247 .023-1.12141 .01933-1.0584 .01729-.99539 .01526-.89433 .0124-.83133 .0108-.76831 .00919-.66725 .00679-.60425 .0056-.54123 .00441-.44017 .00293-.37715 .00215-.31415 .00137-.21307 .00027-.15009 0-.08708-.00027 .01396-.00015 .07698 0 .13998 .00015 .24104 .00069 .30406 .00128 .36708 .00188 .46812 .0033 .53113 .0043 .59415 .00533 .6952 .00716 .75822 .00864 .82123 .01013 .9223 .01314 .9853 .01512 1.04832 .01709 1.14938 .02051 1.2124 .0229 1.2754 .02528 1.37645 .0296 1.43947 .03242 1.50249 .03523 1.60355 .04001 1.66655 .04324 1.72957 .04648 1.83063 .05208 1.89365 .05579 1.95665 .0595 2.05771 .06586 2.12071 .07005 2.18373 .07425 2.28479 .0814 2.3478 .08606 2.41081 .09073 2.51187 .0987 2.57489 .10379 2.6379 .10889 2.73895 .11731 2.80196 .12282 2.86497 .12834 2.96603 .1376 3.02905 .14359 3.09206 .14958 3.19312 .15965 3.25613 .16608 3.31915 .17249 3.4202 .18303 3.4832 .18987 3.54622 .1967 3.64728 .20808 3.7103 .2154 3.7733 .2227 3.87437 .23483 3.93738 .24263 4.0004 .25043 4.10146 .26341 4.16447 .27162 4.22748 .27983 4.32852 .29321 4.39154 .30191 4.45456 .3106 4.55562 .32523 4.61862 .33434 4.68164 .34343 4.7827 .35811 4.84572 .36763 4.90872 .37717 5.00978 .39302 5.07278 .4031 5.1358 .41318 5.23686 .42981 5.29987 .4403 5.36288 .45079 5.46394 .46796 5.52696 .4788 5.58997 .48967 5.69102 .50725 5.75403 .51859 5.81705 .52994 5.9181 .54874 5.98112 .56055 6.04413 .57236 6.14519 .59158 6.2082 .60382 6.27122 .61606 6.37227 .6361 6.43527 .6488 6.49829 .6615 6.59935 .68231 6.66237 .69551 6.72537 .70871 6.82645 .73033 6.88945 .74394 6.95247 .75757 7.05351 .77966 7.11653 .79369 7.17953 .80772 7.2806 .83064 7.34361 .84517 7.40663 .85968 7.50769 .88342 7.5707 .89836 7.63371 .91331 7.73477 .93745 7.79779 .95287 7.8608 .96828 7.96185 .99362 8.02486 1.00952 8.08788 1.02542 8.18893 1.05124 8.25194 1.06749 8.31496 1.08374 8.41602 1.11002 8.47903 1.12675 8.54204 1.14348 8.6431 1.17094 8.7061 1.18817 8.76912 1.20538 8.87018 1.23325 8.9332 1.25089 8.9962 1.26852 9.09726 1.29721 9.16028 1.31532 9.2233 1.33345 9.32434 1.36299 9.38734 1.38152 9.45036 1.40005 9.55142 1.43002 9.61444 1.44899 9.67744 1.46794 9.77852 1.49875 9.84152 1.5182 9.90454 1.53764 10.00558 1.56921 10.0686 1.58913 10.1316 1.60904 10.23267 1.64145 10.29568 1.6618 10.3587 1.68214 10.45976 1.715 10.52277 1.73575 10.58578 1.7565 10.68684 1.79022 10.74986 1.81146 10.81287 1.8327 10.91393 1.86722 10.97693 1.88889 11.03995 1.91055 11.141 1.94547 11.20403 1.9676 11.26703 1.98973 11.36809 2.02586 11.4311 2.0485 11.49411 2.0711 11.59517 2.10764 11.65817 2.13068 11.72119 2.1537 11.82225 2.19113 11.88527 2.21458 11.94827 2.23804 12.04933 2.27591 12.11235 2.29979 12.17537 2.32367 12.27641 2.36238 12.33942 2.38673 12.40244 2.41109 12.5035 2.45056 12.56651 2.4754 12.62952 2.50024 12.73059 2.54048 12.7936 2.5658 12.85661 2.59111 12.95766 2.6322 13.02068 2.65794 13.08368 2.68367 13.18474 2.72519 13.24776 2.75136 13.31078 2.77751 13.41183 2.81995 13.47484 2.84651 13.53786 2.8731 13.63892 2.91591 13.70193 2.94298 13.76494 2.97003 13.866 3.01404 13.929 3.0416 13.99202 3.06914 14.09308 3.11356 14.1561 3.14151 14.2191 3.16946 14.32016 3.2147 14.38318 3.24315 14.44618 3.27159 14.54724 3.31767 14.61024 3.34653 14.67326 3.37538 14.77432 3.42192 14.83734 3.4512 14.90034 3.48048 15.0014 3.52783 15.06442 3.5576 15.12744 3.58737 15.22849 3.63551 15.29149 3.66576 15.3545 3.69598 15.45557 3.74493 15.51859 3.7756 15.58159 3.80626 15.68266 3.85568 15.74567 3.88678 15.80869 3.91786 15.90973 3.96811 15.97275 3.99966 16.03575 4.03122 16.13681 4.0823 16.19983 4.11429 16.26285 4.14627 16.3639 4.19774 16.42691 4.2302 16.48993 4.26266 16.59097 4.31535 16.65399 4.3483 16.717 4.38123 16.81807 4.43431 16.88107 4.46767 16.94409 4.50102 17.04515 4.55501 17.10817 4.58879 17.17117 4.62256 17.27223 4.67699 17.33525 4.7112 17.39825 4.74539 17.49931 4.80066 17.56232 4.83533 17.62534 4.87001 17.7264 4.92603 17.78941 4.96118 17.85242 4.99635 17.95348 5.0532 18.0165 5.08879 18.07951 5.12437 18.18056 5.18163 18.24356 5.2177 18.30658 5.25375 18.40764 5.3122 18.47066 5.34875 18.53366 5.3853 18.63474 5.44421 18.69774 5.48111 18.76076 5.518 18.8618 5.5774 18.92482 5.61476 18.98782 5.65215 19.08888 5.71272 19.1519 5.75058 19.21492 5.78844 19.31598 5.84941 19.37898 5.8877 19.442 5.92596 19.54305 5.98784 19.60606 6.02655 19.66907 6.06525 19.77014 6.1275 19.83315 6.16667 19.89616 6.20586 19.99722 6.26932 20.06024 6.30898 20.12325 6.34865 20.2243 6.4125 20.28732 6.45259 20.35033 6.49268 20.45139 6.55743 20.51439 6.59793 20.57741 6.63843 20.67847 6.70357 20.74149 6.74455 20.80449 6.78554 20.90555 6.85188 20.96857 6.89334 21.03159 6.9348 21.13263 7.00162 21.19563 7.04343 21.25865 7.08525 21.35971 7.15251 21.42273 7.19481 21.48573 7.23712 21.5868 7.30559 21.64981 7.34837 21.71283 7.39114 21.81387 7.46 21.87689 7.50322 21.9399 7.54642 22.04095 7.6161 22.10397 7.6598 22.16699 7.70349 22.26805 7.77396 22.33105 7.81812 22.39407 7.86227 22.49512 7.93355 22.55814 7.97815 22.62114 8.02274 22.72221 8.09448 22.78522 8.13948 22.84824 8.18448 22.9493 8.25713 23.01231 8.30255 23.07532 8.34798 23.17638 8.42102 23.2394 8.46692 23.3024 8.51282 23.40346 8.58705 23.46646 8.63344 23.52948 8.67982 23.63054 8.75446 23.69356 8.80127 23.75656 8.84807 23.85762 8.92354 23.92064 8.97081 23.98366 9.0181 24.0847 9.0944 24.1477 9.1421 24.21072 9.18982 24.31178 9.26656 24.3748 9.31468 24.4378 9.36281 24.53888 9.4404 24.60188 9.48901 24.6649 9.53761 24.76595 9.61595 24.82896 9.66504 24.89197 9.71413 24.99303 9.79332 25.05605 9.84282 25.11906 9.89232 25.22012 9.97197 25.28313 10.0219 25.34615 10.07182 25.44719 10.15228 25.51021 10.2027 25.57321 10.2531 25.67429 10.33434 25.73729 10.38522 25.80031 10.43611 25.90137 10.51817 25.96439 10.56949 26.02739 10.62079 26.12843 10.70332 26.19145 10.75504 26.25446 10.80676 26.35553 10.89012 26.41853 10.94234 26.48155 10.99454 26.58261 11.07872 26.64563 11.13135 26.70863 11.18398 26.8097 11.26863 26.87271 11.32167 26.93573 11.37471 27.03677 11.46019 27.09978 11.51372 27.1628 11.56725 27.26385 11.65347 27.32687 11.70749 27.38988 11.7615 27.49095 11.84853 27.55396 11.903 27.61697 11.95749 27.71802 12.04532 27.78104 12.10023 27.84404 12.15515 27.9451 12.24345 28.00812 12.29877 28.07114 12.3541 28.1722 12.44334 28.2352 12.49902 28.29822 12.55472 28.39926 12.644 28.46228 12.70016 28.52528 12.75633 28.62636 12.84718 28.68936 12.90388 28.75238 12.96059 28.85344 13.05179 28.91646 13.10892 28.97946 13.16605 29.0805 13.25812 29.14352 13.31566 29.20653 13.3732 29.3076 13.4657 29.3706 13.52371 29.43362 13.58174 29.53468 13.67542 29.5977 13.73393 29.6607 13.79245 29.76176 13.88652 29.82478 13.94543 29.8878 14.00436 29.98885 14.09933 30.05185 14.15869 30.11487 14.21803 30.21593 14.3134 30.27895 14.37321 30.34195 14.43304 30.44302 14.52962 30.50603 14.58992 30.56905 14.65022 30.67009 14.74725 30.73311 14.80792 30.79611 14.86859 30.89717 14.96608 30.96019 15.02722 31.02321 15.08836 31.12427 15.18706 31.18727 15.24869 31.25029 15.31032 31.35133 15.40941 31.41435 15.47144 31.47736 15.53348 31.57843 15.6334 31.64143 15.69592 31.70445 15.75845 31.80551 15.85912 31.86853 15.92213 31.93153 15.98515 32.03258 16.08667 32.0956 16.15009 32.1586 16.21352 32.25967 16.31549 32.32268 16.37933 32.3857 16.44318 32.48676 16.54604 32.54977 16.6103 32.61278 16.67459 32.71382 16.77783 32.77684 16.84259 32.83986 16.90733 32.94092 17.01178 33.00392 17.07701 33.06694 17.14224 33.168 17.2471 33.23102 17.31274 33.29402 17.37839 33.3951 17.48409 33.4581 17.55022 33.52112 17.61635 33.62216 17.72285 33.68518 17.78941 33.74818 17.85596 33.84924 17.96294 33.91226 18.0299 33.97528 18.09686 34.07634 18.20467 34.13934 18.27211 34.20236 18.33957 34.3034 18.44815 34.36642 18.51608 34.42943 18.584 34.5305 18.6934 34.5935 18.76176 34.65652 18.83011 34.75758 18.93996 34.8206 19.00873 34.8836 19.0775 34.98465 19.1882 35.04767 19.25745 35.11067 19.32669 35.21175 19.43816 35.27475 19.50789 35.33777 19.57762 35.43883 19.68991 35.50185 19.76006 35.56485 19.8302 35.6659 19.94295 35.72891 20.01352 35.79193 20.08409 35.89299 20.19766 35.956 20.2687 36.01901 20.33977 36.12007 20.45418 36.18309 20.52565 36.2461 20.5971 36.34717 20.71198 36.41017 20.78386 36.47319 20.85576 36.57423 20.97144 36.63725 21.04382 36.70026 21.1162 36.80132 21.23265 36.86433 21.30551 36.92735 21.37836 37.02841 21.49559 37.09142 21.56892 37.15443 21.64226 37.25548 21.76033 37.3185 21.83408 37.3815 21.90782 37.48257 22.02634 37.54558 22.10051 37.6086 22.17468 37.70966 22.29402 37.77267 22.36868 37.83568 22.44334 37.93672 22.56352 37.99974 22.6386 38.06274 22.71367 38.16382 22.8343 38.22682 22.9098 38.28984 22.98529 38.3909 23.10675 38.45392 23.18272 38.51692 23.25868 38.61797 23.38094 38.68098 23.4574 38.744 23.53384 38.84506 23.6569 38.90807 23.73378 38.97108 23.81065 39.07214 23.93419 39.13516 24.01147 39.19817 24.08876 39.29924 24.2131 39.36224 24.29088 39.42526 24.36865 39.5263 24.49379 39.58932 24.57204 39.65233 24.65027 39.75339 24.77626 39.8164 24.85492 39.87943 24.9336 39.98048 25.06 40.04349 25.1391 40.1065 25.21819 40.20755 25.34543 40.27057 25.425 40.33357 25.50456 40.43465 25.63264 40.49765 25.71263 40.56067 25.79263 40.66173 25.92111 40.72475 26.00157 40.78775 26.08205 40.8888 26.21172 40.95181 26.29266 41.01482 26.37361 41.11589 26.50368 41.1789 26.58507 41.24191 26.66644 41.34297 26.7974 41.40599 26.87918 41.469 26.96097 41.57005 27.0924 41.63306 27.17462 41.69608 27.25684 41.79713 27.3891 41.86014 27.47177 41.92316 27.55446 42.02422 27.68748 42.08723 27.77065 42.15024 27.85382 42.2513 27.98761 42.3143 28.07127 42.37732 28.15492 42.47838 28.28955 42.5414 28.37361 42.6044 28.45769 42.70546 28.59276 42.76848 28.67725 42.8315 28.76173 42.93256 28.8977 42.99556 28.98262 43.05858 29.06755 43.15962 29.2039 43.22264 29.28929 43.28564 29.37468 43.38672 29.51225 43.44972 29.59813 43.51274 29.684 43.6138 29.82198 43.67682 29.90826 43.73982 29.99454 43.84087 30.13339 43.90388 30.22011 43.96689 30.30682 44.06796 30.44608 44.13097 30.53328 44.19398 30.62047 44.29504 30.76093 44.35806 30.84859 44.42107 30.93626 44.52213 31.07712 44.58513 31.16522 44.64815 31.25331 44.7492 31.39505 44.81221 31.48357 44.87523 31.57207 44.97629 31.7142 45.0393 31.8032 45.10231 31.8922 45.20337 32.03554 45.26637 32.12502 45.32939 32.2145 45.43045 32.35823 45.49347 32.44812 45.55647 32.53801 45.65753 32.68263 45.72055 32.77295 45.78357 32.86327 45.88463 33.00835 45.94763 33.09909 46.01065 33.18983 46.1117 33.33574 46.17471 33.42696 46.23772 33.51817 46.33879 33.66486 46.4018 33.75655 46.46481 33.84825 46.56587 33.99571 46.62889 34.08788 46.6919 34.18004 46.79294 34.32832 46.85596 34.42091 46.91896 34.51352 47.02003 34.66225 47.08304 34.75528 47.14606 34.8483 47.24712 34.99792 47.31013 35.09135 47.37314 35.18478 47.4742 35.33482 47.5372 35.42874 47.60022 35.52266 47.70128 35.6739 47.76428 35.76828 47.8273 35.86267 47.92836 36.0143 47.99138 36.10912 48.05438 36.20393 48.15544 36.35638 48.21844 36.45169 48.28146 36.547 48.38252 36.70027 48.44554 36.79599 48.50854 36.8917 48.6096 37.04546 48.67262 37.14159 48.73564 37.23773 48.8367 37.39232 48.8997 37.48892 48.96272 37.58553 49.06377 37.74088 49.12679 37.83798 49.18979 37.93507 49.29086 38.09125 49.35387 38.18877 49.41689 38.28629 49.51794 38.44292 49.58096 38.54085 49.64397 38.63878 49.74501 38.79625 49.80803 38.89467 49.87103 38.99309 49.9721 39.15132 50.03511 39.25021 50.09813 39.34909 50.19919 39.50816 50.2622 39.60748 50.32521 39.7068 50.42627 39.86633 50.48927 39.96606 50.55229 40.06581 50.65335 40.22617 50.71635 40.32637 50.77937 40.42659 50.88043 40.58777 50.94345 40.6884 51.00645 40.78905 51.10751 40.95068 51.17052 41.05173 51.23354 41.15279 51.3346 41.31526 51.39761 41.4168 51.46062 41.51833 51.56168 41.68156 51.6247 41.78358 51.68771 41.8856 51.78876 42.04962 51.85176 42.15211 51.91478 42.25461 52.01584 42.41943 52.07886 42.52235 52.14186 42.62527 52.24294 42.79057 52.30594 42.8939 52.36896 42.99725 52.47002 43.16338 52.53304 43.2672 52.59604 43.371 52.69708 43.53796 52.7601 43.6422 52.8231 43.74643 52.92418 43.91385 52.98718 44.01851 53.0502 44.12315 53.15126 44.29141 53.21428 44.39655 53.27728 44.5017 53.37834 44.6707 53.44135 44.77632 53.50436 44.88194 53.60542 45.05179 53.66843 45.15782 53.73145 45.26385 53.8325 45.43416 53.89552 45.54062 53.95853 45.64708 54.05959 45.8182 54.12259 45.92514 54.18561 46.03207 54.28667 46.20398 54.34969 46.31139 54.41269 46.41881 54.51375 46.59154 54.57677 46.69937 54.63979 46.80722 54.74083 46.98041 54.80383 47.08867 54.86685 47.19691 54.96791 47.37094 55.03093 47.47968 55.09393 47.58842 55.195 47.76326 55.25801 47.87242 55.32103 47.98158 55.42209 48.15683 55.4851 48.26646 55.54811 48.37611 55.64915 48.55254 55.71217 48.66266 55.77518 48.77278 55.87625 48.94963 55.93925 49.06017 56.00227 49.1707 56.10333 49.34843 56.16635 49.4594 56.22935 49.57036 56.33041 49.74855 56.39342 49.85994 56.45644 49.97133 56.6205 50.2622 56.6205 50.2622"/>
<use data-text="y" xlink:href="#font_1_6" transform="matrix(9.9626,0,0,-9.963098,124.196,92.05295)" fill="#00ff00"/>
<use data-text="=" xlink:href="#font_2_4" transform="matrix(9.9626,0,0,-9.963098,132.206,92.05295)" fill="#00ff00"/>
<use data-text="h" xlink:href="#font_1_4" transform="matrix(9.9626,0,0,-9.963098,142.722,92.05295)" fill="#00ff00"/>
<use data-text="(" xlink:href="#font_2_1" transform="matrix(9.9626,0,0,-9.963098,148.462,92.05295)" fill="#00ff00"/>
<use data-text="x" xlink:href="#font_1_5" transform="matrix(9.9626,0,0,-9.963098,152.336,92.05295)" fill="#00ff00"/>
<use data-text=")" xlink:href="#font_2_2" transform="matrix(9.9626,0,0,-9.963098,158.03,92.05295)" fill="#00ff00"/>
<use data-text="&#x2022;" xlink:href="#font_3_1" transform="matrix(9.9626,0,0,-9.963098,61.365007,133.34001)"/>
<use data-text="(" xlink:href="#font_2_1" transform="matrix(9.9626,0,0,-9.963098,67.376,142.11846)"/>
<use data-text="0" xlink:href="#font_2_3" transform="matrix(9.9626,0,0,-9.963098,71.24149,142.11846)"/>
<use data-text="," xlink:href="#font_1_1" transform="matrix(9.9626,0,0,-9.963098,76.232,142.11846)"/>
<use data-text="0" xlink:href="#font_2_3" transform="matrix(9.9626,0,0,-9.963098,80.659999,142.11846)"/>
<use data-text=")" xlink:href="#font_2_2" transform="matrix(9.9626,0,0,-9.963098,85.64129,142.11846)"/>
</svg>
