<svg xmlns="http://www.w3.org/2000/svg" xmlns:xlink="http://www.w3.org/1999/xlink" version="1.1" width="60" height="60" viewBox="0 0 60 60">
<defs>
<path id="font_1_1" d="M.44400025 .24998474C.44400025 .35688783 .35499574 .44381715 .25 .44381715 .14199829 .44381715 .054992677 .35488893 .054992677 .24998474 .054992677 .14407349 .14199829 .056137086 .25 .056137086 .35499574 .056137086 .44400025 .14308167 .44400025 .24998474Z"/>
<path id="font_2_1" d="M.08799744 .059265138C.084991458 .044265748 .07899475 .021255494 .07899475 .01625061 .07899475-.0017547608 .09298706-.0107421879 .10798645-.0107421879 .11999512-.0107421879 .13798523-.002746582 .14498902 .01725769 .14698792 .021255494 .18099976 .15730286 .18499756 .17530823 .19299317 .20831299 .21099854 .27833558 .21699524 .30534364 .22099304 .31835938 .24899292 .36535646 .272995 .38734437 .2809906 .39434815 .30999757 .42037965 .35299684 .42037965 .3789978 .42037965 .3939972 .4083557 .394989 .4083557 .36499024 .40335084 .34298707 .37934876 .34298707 .35334779 .34298707 .33735658 .35398866 .31835938 .3809967 .31835938 .4079895 .31835938 .43598939 .34135438 .43598939 .37734986 .43598939 .41235353 .4039917 .4423828 .35299684 .4423828 .28799439 .4423828 .24398804 .39335633 .22499085 .36535646 .21699524 .4103546 .18099976 .4423828 .13398743 .4423828 .08799744 .4423828 .068984989 .40335084 .05999756 .38534547 .041992189 .35134889 .0289917 .29133607 .0289917 .28834535 .0289917 .27833558 .038986207 .27833558 .040985109 .27833558 .050994874 .27833558 .051986696 .27934266 .057998659 .30134584 .07499695 .37234498 .09498596 .42037965 .1309967 .42037965 .147995 .42037965 .1619873 .41235353 .1619873 .37435914 .1619873 .35334779 .15899658 .3423462 .1459961 .29034425L.08799744 .059265138Z"/>
</defs>
<path transform="matrix(1,0,0,-1,30.442002,30.146)" stroke-width=".3985" stroke-linecap="butt" stroke-miterlimit="10" stroke-linejoin="miter" fill="none" stroke="#000000" d="M-20.04422-20.04422 20.04422 20.04422"/>
<path transform="matrix(1,0,0,-1,30.442002,30.146)" stroke-width=".3985" stroke-linecap="butt" stroke-miterlimit="10" stroke-linejoin="miter" fill="none" stroke="#000000" d="M28.3468 0C28.3468 15.6557 15.6557 28.3468 0 28.3468-15.6557 28.3468-28.3468 15.6557-28.3468 0-28.3468-15.6557-15.6557-28.3468 0-28.3468 15.6557-28.3468 28.3468-15.6557 28.3468 0ZM0 0"/>
<use data-text="&#x2022;" xlink:href="#font_1_1" transform="matrix(9.9626,0,0,-9.9626,47.996004,12.316)"/>
<use data-text="&#x2022;" xlink:href="#font_1_1" transform="matrix(9.9626,0,0,-9.9626,27.951004,32.36)"/>
<use data-text="&#x2022;" xlink:href="#font_1_1" transform="matrix(9.9626,0,0,-9.9626,7.9069979,52.404)"/>
<path transform="matrix(1,0,0,-1,30.442002,30.146)" stroke-width=".79701" stroke-linecap="butt" stroke-miterlimit="10" stroke-linejoin="miter" fill="none" stroke="#000000" d="M0 0C-.52838 1.58504 0 3.52235 1.76118 5.28354L4.73792 8.26027C6.49911 10.02147 7.0275 11.95879 6.4991 13.54384 8.08417 13.01544 10.02147 13.54382 11.78267 15.30502L14.75941 18.28177C16.5206 20.04297 18.45792 20.57135 20.04297 20.04297"/>
<use data-text="r" xlink:href="#font_2_1" transform="matrix(9.9626,0,0,-9.9626,32.100999,14.412)"/>
<path transform="matrix(1,0,0,-1,30.442002,30.146)" stroke-width=".79701" stroke-linecap="butt" stroke-miterlimit="10" stroke-linejoin="miter" fill="none" stroke="#000000" d="M-20.04422-20.04422C-20.57262-18.45918-20.04422-16.52187-18.28304-14.76067L-15.3063-11.78394C-13.5451-10.02275-13.01672-8.08543-13.54512-6.50037-11.96005-7.02878-10.02275-6.50038-8.26155-4.7392L-5.2848-1.76245C-3.52362-.00125-1.5863 .52711-.00125-.00125"/>
<use data-text="r" xlink:href="#font_2_1" transform="matrix(9.9626,0,0,-9.9626,12.056,34.456)"/>
</svg>
