<svg xmlns="http://www.w3.org/2000/svg" xmlns:xlink="http://www.w3.org/1999/xlink" version="1.1" width="228" height="140" viewBox="0 0 228 140">
<defs>
<path id="font_1_4" d="M.33399964 .30233766C.33999635 .32835389 .36299134 .42037965 .43299867 .42037965 .43798829 .42037965 .46199037 .42037965 .48298646 .40734864 .45498658 .402359 .43499757 .37734986 .43499757 .35334779 .43499757 .33735658 .44599916 .31835938 .47299195 .31835938 .49499513 .31835938 .5269928 .3363495 .5269928 .37635804 .5269928 .42837525 .46798707 .4423828 .43399049 .4423828 .37599183 .4423828 .34098817 .38935853 .32899476 .36634828 .3039856 .43237306 .25 .4423828 .22099304 .4423828 .116989139 .4423828 .05999756 .3133545 .05999756 .28834535 .05999756 .27833558 .069992069 .27833558 .07199097 .27833558 .07998657 .27833558 .08299255 .28033448 .084991458 .28933717 .11898804 .39535523 .18499756 .42037965 .21899414 .42037965 .23799134 .42037965 .272995 .4113617 .272995 .35334779 .272995 .32235719 .2559967 .25532533 .21899414 .11528015 .20298767 .053268434 .16799927 .011245728 .12399292 .011245728 .117996219 .011245728 .09498596 .011245728 .07398987 .024276734 .09899902 .029266358 .12098694 .05027771 .12098694 .07827759 .12098694 .105270389 .09899902 .11328125 .083999637 .11328125 .053985597 .11328125 .0289917 .08728027 .0289917 .055267335 .0289917 .009246826 .07899475-.0107421879 .12298584-.0107421879 .18899536-.0107421879 .22499085 .059280397 .22799683 .0652771 .23999024 .028274537 .27598573-.0107421879 .33599855-.0107421879 .43899537-.0107421879 .49598695 .118270877 .49598695 .14328003 .49598695 .1532898 .4869995 .1532898 .48399354 .1532898 .47499085 .1532898 .47299195 .14929199 .47099305 .14228821 .43798829 .03527832 .36999513 .011245728 .33799745 .011245728 .29899598 .011245728 .2829895 .043273927 .2829895 .07727051 .2829895 .09927368 .2889862 .121276859 .2999878 .16529846L.33399964 .30233766Z"/>
<path id="font_1_5" d="M.48599244 .38136292C.48999024 .39537049 .48999024 .39736939 .48999024 .40437318 .48999024 .42237855 .47599793 .43138124 .46099855 .43138124 .45098878 .43138124 .43499757 .42536927 .42599488 .41036988 .42399598 .405365 .41600038 .37435914 .4119873 .35635377 .40499879 .33035279 .397995 .30334474 .3919983 .27633668L.34700013 .09628296C.34298707 .08126831 .2999878 .011245728 .23399353 .011245728 .18299866 .011245728 .17199707 .055267335 .17199707 .0922699 .17199707 .1382904 .18899536 .20030213 .22299195 .28833009 .23899842 .3293457 .24299622 .3403473 .24299622 .36035157 .24299622 .405365 .21099854 .4423828 .16099549 .4423828 .06599426 .4423828 .0289917 .29733277 .0289917 .28833009 .0289917 .27833558 .038986207 .27833558 .040985109 .27833558 .050994874 .27833558 .051986696 .28033448 .056991579 .29634095 .083999637 .3903656 .12399292 .42037965 .1579895 .42037965 .1659851 .42037965 .18299866 .42037965 .18299866 .3883667 .18299866 .36335755 .17298889 .3373413 .1659851 .31834413 .12599182 .21231079 .10798645 .1552887 .10798645 .10827637 .10798645 .019256592 .17098999-.0107421879 .22999573-.0107421879 .2689972-.0107421879 .30299378 .0062561037 .33099366 .03425598 .31799317-.017745972 .30599977-.06674194 .2659912-.11973572 .23999024-.15385437 .20199585-.18309021 .1559906-.18309021 .14199829-.18309021 .09700012-.18005371 .07998657-.14074707 .09599304-.14074707 .10899353-.14074707 .12298584-.1287384 .1329956-.11973572 .14299011-.10673523 .14299011-.08773804 .14299011-.056747438 .115997318-.052734376 .10598755-.052734376 .08299255-.052734376 .049987794-.068740848 .049987794-.11773682 .049987794-.16796875 .09399414-.20507813 .1559906-.20507813 .25898744-.20507813 .3619995-.11373901 .3899994-.00074768069L.48599244 .38136292Z"/>
<path id="font_2_2" d="M.49198915 .40434266C.45498658 .39733888 .44400025 .3653412 .44400025 .3503418 .44400025 .33132936 .45799256 .31433106 .48298646 .31433106 .5109863 .31433106 .5379944 .33833314 .5379944 .3733368 .5379944 .41937257 .48799134 .4423828 .44099427 .4423828 .3809967 .4423828 .34599305 .38934327 .33399964 .3683319 .31498719 .41737367 .2709961 .4423828 .22299195 .4423828 .115997318 .4423828 .057998659 .31433106 .057998659 .28833009 .057998659 .2793274 .06498718 .2763214 .07199097 .2763214 .08099365 .2763214 .083999637 .2813263 .085998538 .287323 .116989139 .38633729 .18299866 .41737367 .22099304 .41737367 .25 .41737367 .27598573 .3983307 .27598573 .35133363 .27598573 .31533814 .23298645 .15530396 .21998596 .107284549 .21199036 .076293949 .18199158 .014251709 .1269989 .014251709 .10699463 .014251709 .085998538 .021270752 .07598877 .027282715 .102996829 .032287599 .12298584 .055282594 .12298584 .08128357 .12298584 .106292728 .10398865 .11729431 .084991458 .11729431 .055999757 .11729431 .02999878 .092285159 .02999878 .058288576 .02999878 .009246826 .083999637-.0107421879 .12599182-.0107421879 .18399048-.0107421879 .21798706 .03729248 .23298645 .06428528 .2579956-.0017547608 .31698609-.0107421879 .34399415-.0107421879 .45199586-.0107421879 .5089874 .11929321 .5089874 .14329529 .5089874 .14830017 .5059967 .15530396 .49598695 .15530396 .4850006 .15530396 .48399354 .1512909 .47898866 .1362915 .45700074 .06428528 .39898683 .014251709 .34700013 .014251709 .31799317 .014251709 .29100038 .032287599 .29100038 .08029175 .29100038 .10229492 .30499269 .15730286 .31399537 .1953125 .31799317 .21331787 .34498597 .32133485 .34700013 .32833863 .35899354 .3643341 .3889923 .41737367 .43998719 .41737367 .45799256 .41737367 .47698976 .41436769 .49198915 .40434266Z"/>
<path id="font_3_2" d="M.35899354 .6349335C.35899354 .66503909 .35499574 .66503909 .32499696 .66503909 .25898744 .60058596 .15699768 .60058596 .12098694 .60058596V.5615845C.14698792 .5615845 .21299744 .5615845 .272995 .58958438V.08496094C.272995 .051986696 .272995 .038986207 .16999817 .038986207H.1269989V0C.18199158 .0039978029 .2599945 .0039978029 .31599427 .0039978029 .37199403 .0039978029 .44999696 .0039978029 .5049896 0V.038986207H.46199037C.35899354 .038986207 .35899354 .051986696 .35899354 .08496094V.6349335Z"/>
<path id="font_3_3" d="M.5379944 .18702698H.5009918C.49899293 .17301941 .4889984 .10699463 .47399903 .09599304 .46699525 .08999634 .38598634 .08999634 .37199403 .08999634H.18499756L.31298829 .19403076C.34700013 .22103882 .43598939 .28504945 .46699525 .31506349 .49699403 .3450775 .5379944 .39608766 .5379944 .46710206 .5379944 .5920563 .4249878 .66503909 .29100038 .66503909 .1619873 .66503909 .07199097 .58006289 .07199097 .48609925 .07199097 .43510438 .114990238 .42910768 .12599182 .42910768 .15098572 .42910768 .17999268 .44709779 .17999268 .48310853 .17999268 .50509646 .16699219 .5371094 .12298584 .5371094 .1459961 .5880585 .20698548 .6260376 .27598573 .6260376 .3809967 .6260376 .43699647 .5480957 .43699647 .46710206 .43699647 .39608766 .3899994 .32305909 .31999208 .25904847L.08299255 .041992189C.07299805 .03199768 .07199097 .0309906 .07199097 0H.5069885L.5379944 .18702698Z"/>
<path id="font_4_1" d="M.5629883 .39352418C.5279999 .38352967 .519989 .3545227 .519989 .33952333 .519989 .30752564 .54599 .30052186 .55999758 .30052186 .58898928 .30052186 .6179962 .32452394 .6179962 .3635254 .6179962 .41740418 .5589905 .44140626 .5079956 .44140626 .44198609 .44140626 .4019928 .3905182 .3909912 .371521 .37799073 .39649964 .33999635 .44140626 .2649994 .44140626 .1499939 .44140626 .08198547 .32252503 .08198547 .28749085 .08198547 .2824707 .085998538 .27345277 .099990848 .27345277 .11399841 .27345277 .116989139 .27946473 .11999512 .28848268 .14498902 .3695221 .21299744 .4084015 .2619934 .4084015 .31098939 .4084015 .32598878 .37652589 .32598878 .34352113 .32598878 .3315277 .32598878 .32252503 .31799317 .29148866 .29499818 .19825745 .272995 .10707092 .2679901 .095077518 .25299073 .05708313 .21699524 .023223877 .1749878 .023223877 .16899109 .023223877 .14099121 .023223877 .117996219 .038085939 .15699768 .051071168 .16099549 .08407593 .16099549 .09207153 .16099549 .11807251 .14099121 .13108826 .12098694 .13108826 .09298706 .13108826 .06298828 .10908508 .06298828 .06808472 .06298828 .011230469 .12599182-.009765625 .17298889-.009765625 .22999573-.009765625 .2709961 .029159546 .2899933 .060073854 .30999757 .018234253 .35798646-.009765625 .4149933-.009765625 .5329895-.009765625 .598999 .111083988 .598999 .14411927 .598999 .14611817 .59799197 .15815735 .5799866 .15815735 .56599429 .15815735 .56399539 .1511383 .5609894 .1421051 .5319977 .05508423 .46099855 .023223877 .4189911 .023223877 .3809967 .023223877 .35398866 .045074464 .35398866 .08708191 .35398866 .1060791 .35899354 .12808228 .36799623 .16316223L.3999939 .2935028C.4099884 .33251954 .4149933 .3505249 .43598939 .37452699 .44999696 .38952638 .47399903 .4084015 .5059967 .4084015 .5109863 .4084015 .54100039 .4084015 .5629883 .39352418Z"/>
<path id="font_5_1" d="M.397995 .63591006C.397995 .6660156 .394989 .6660156 .3619995 .6660156 .29100038 .6016083 .17999268 .6016083 .1599884 .6016083H.14299011V.5576172H.1599884C.18299866 .5576172 .24798584 .5606079 .30599977 .58561709V.08596802C.30599977 .054977418 .30599977 .04399109 .19999695 .04399109H.1499939V0C.20498657 .0039978029 .2939911 .0039978029 .35198976 .0039978029 .4099884 .0039978029 .49899293 .0039978029 .55400088 0V.04399109H.5039978C.397995 .04399109 .397995 .054977418 .397995 .08596802V.63591006Z"/>
<path id="font_3_1" d="M.49299623 .22436524H.81599429C.8299866 .22436524 .8549957 .22436524 .8549957 .2503662 .8549957 .2763672 .8299866 .2763672 .81599429 .2763672H.49299623V.60014346C.49299623 .61413577 .49299623 .63912966 .46699525 .63912966 .44099427 .63912966 .44099427 .61413577 .44099427 .60014346V.2763672H.117996219C.10398865 .2763672 .07899475 .2763672 .07899475 .2503662 .07899475 .22436524 .10398865 .22436524 .117996219 .22436524H.44099427V-.10014343C.44099427-.11416626 .44099427-.13917542 .46699525-.13917542 .49299623-.13917542 .49299623-.11416626 .49299623-.10014343V.22436524Z"/>
<path id="font_5_2" d="M.58898928 .19296265H.5469971C.5439911 .17396546 .5339966 .11198425 .5179901 .101989749 .5099945 .09599304 .42599488 .09599304 .41099549 .09599304H.21499634C.2809906 .14497376 .35499574 .20095825 .4149933 .24093628 .5049896 .30291749 .58898928 .36090089 .58898928 .46687318 .58898928 .59495547 .46798707 .6660156 .32499696 .6660156 .18998719 .6660156 .09098816 .58795168 .09098816 .48986817 .09098816 .4378662 .1349945 .42886354 .14898682 .42886354 .17599488 .42886354 .20799256 .4468689 .20799256 .48786927 .20799256 .52386477 .18199158 .543869 .15098572 .546875 .1789856 .59194949 .23699951 .6220093 .3039856 .6220093 .40098573 .6220093 .48199464 .5639038 .48199464 .4658661 .48199464 .3818817 .42399598 .31791688 .34700013 .2529297L.102996829 .04598999C.09298706 .036987306 .09199524 .036987306 .09098816 .02999878V0H.55599978L.58898928 .19296265Z"/>
<path id="font_2_3" d="M.5019989 .38536073C.5029907 .3903656 .5049896 .39637757 .5049896 .40237428 .5049896 .41537477 .49598695 .43138124 .47399903 .43138124 .46099855 .43138124 .44299317 .42337037 .43499757 .40437318 .43399049 .40037538 .42399598 .35935975 .41799928 .33735658L.36799623 .13728333C.3600006 .10827637 .3600006 .106277469 .35798646 .09727478 .35699464 .09327698 .31498719 .014251709 .24299622 .014251709 .18099976 .014251709 .18099976 .07727051 .18099976 .09628296 .18099976 .14129639 .19400025 .19030762 .23699951 .30233766 .24499512 .3253479 .25099183 .33935548 .25099183 .35835267 .25099183 .40737916 .21398926 .4423828 .16499329 .4423828 .068984989 .4423828 .0289917 .30033876 .0289917 .28833009 .0289917 .2793274 .035995485 .27633668 .042999269 .27633668 .053985597 .27633668 .054992677 .28233338 .05899048 .29533387 .07998657 .3693695 .11999512 .41737367 .1619873 .41737367 .18598938 .41737367 .18598938 .39837647 .18598938 .3843689 .18598938 .36735536 .18199158 .34934999 .17298889 .3253479 .12599182 .2013092 .11299133 .15930176 .11299133 .11128235 .11299133 .00024414063 .20298767-.0107421879 .23999024-.0107421879 .2889862-.0107421879 .32398988 .01524353 .34199525 .0332489 .32899476-.017745972 .31799317-.0627594 .2789917-.11276245 .24899292-.15286255 .20899964-.18008423 .16499329-.18008423 .13699341-.18008423 .10398865-.16999817 .08999634-.14176941 .14299011-.14176941 .1499939-.09776306 .1499939-.087768558 .1499939-.06576538 .13398743-.051757814 .11199951-.051757814 .08799744-.051757814 .055999757-.07077026 .055999757-.116760257 .055999757-.16899109 .101989749-.20507813 .16499329-.20507813 .2669983-.20507813 .37599183-.117767337 .40499879-.00074768069L.5019989 .38536073Z"/>
<path id="font_4_2" d="M.59599307 .38438417C.59799197 .39138795 .598999 .395401 .598999 .39839173 .598999 .4104004 .58999636 .43139649 .5629883 .43139649 .54599 .43139649 .5289917 .4203949 .5219879 .4064026 .5179901 .3993988 .5109863 .3683777 .5059967 .3493805L.4850006 .26634217 .45399476 .14128113C.44699098 .11326599 .44299317 .09725952 .40299989 .059249879 .3919983 .049240114 .3600006 .023223877 .31698609 .023223877 .24299622 .023223877 .24299622 .088256839 .24299622 .10626221 .24299622 .15028382 .25498963 .19529724 .29899598 .3053589 .30899049 .32936097 .31199647 .33636476 .31199647 .35437013 .31199647 .4104004 .2619934 .44140626 .21199036 .44140626 .10998535 .44140626 .06098938 .3093567 .06098938 .28733827 .06098938 .28234864 .06498718 .27334596 .07899475 .27334596 .09298706 .27334596 .09599304 .27934266 .09899902 .28834535 .1269989 .38539125 .17999268 .4084015 .20799256 .4084015 .22799683 .4084015 .23498535 .395401 .23498535 .37239076 .23498535 .3513794 .22200012 .3173523 .21099854 .29034425 .17599488 .20230103 .1639862 .15628052 .1639862 .120269779 .1639862 .025222779 .23498535-.009765625 .31298829-.009765625 .32699586-.009765625 .37399293-.009765625 .4269867 .036239625 .4139862-.01878357 .40499879-.05781555 .35699464-.109817508 .33898927-.12980652 .2939911-.1710968 .23399353-.1710968 .22499085-.1710968 .18199158-.17008972 .15899658-.14382935 .20298767-.13581848 .20899964-.09681702 .20899964-.08781433 .20899964-.060806276 .18699646-.049804689 .16799927-.049804689 .14299011-.049804689 .10998535-.06980896 .10998535-.11581421 .10998535-.16403198 .15699768-.20410156 .23498535-.20410156 .34098817-.20410156 .46899415-.12580872 .5-.00077819827L.59599307 .38438417Z"/>
<path id="font_6_1" d="M.44400025 .24998474C.44400025 .35688783 .35499574 .44381715 .25 .44381715 .14199829 .44381715 .054992677 .35488893 .054992677 .24998474 .054992677 .14407349 .14199829 .056137086 .25 .056137086 .35499574 .056137086 .44400025 .14308167 .44400025 .24998474Z"/>
<path id="font_7_1" d="M.34098817-.23803711C.34098817-.23303223 .33799745-.23002625 .33198548-.22303772 .20298767-.105026248 .1639862 .07498169 .1639862 .24996948 .1639862 .40498353 .19400025 .59298709 .33499146 .72698977 .33898927 .73098757 .34098817 .73399356 .34098817 .7389984 .34098817 .74598696 .33599855 .75 .32899476 .75 .31698609 .75 .22698975 .6779785 .17298889 .568985 .125 .47297669 .100997928 .36997987 .100997928 .25097657 .100997928 .17897034 .10998535 .064971927 .16499329-.053024293 .22399903-.17602539 .31698609-.24902344 .32899476-.24902344 .33599855-.24902344 .34098817-.24502564 .34098817-.23803711Z"/>
<path id="font_2_1" d="M.18199158 .015991211C.18199158-.017044068 .18199158-.09921265 .10798645-.17036438 .101989749-.17636109 .101989749-.17736817 .101989749-.18136597 .101989749-.18836975 .10899353-.19335938 .114990238-.19335938 .12599182-.19335938 .20698548-.115249637 .20698548 .0019989014 .20698548 .06399536 .18499756 .10798645 .14199829 .10798645 .10798645 .10798645 .08799744 .08198547 .08799744 .053985597 .08799744 .025985718 .10798645 0 .14199829 0 .15699768 0 .17199707 .004989624 .18199158 .015991211Z"/>
<path id="font_7_2" d="M.2979889 .25097657C.2979889 .3329773 .28599549 .4429779 .23399353 .5539856 .1749878 .6769867 .08198547 .75 .069992069 .75 .05999756 .75 .057998659 .74198916 .057998659 .7389984 .057998659 .73399356 .05999756 .73098757 .066986087 .72398379 .125 .6719818 .23498535 .5359802 .23498535 .25097657 .23498535 .10797119 .20899964-.091033939 .06399536-.22602844 .06199646-.22903443 .057998659-.23303223 .057998659-.23803711 .057998659-.24102783 .05999756-.24902344 .069992069-.24902344 .08198547-.24902344 .17199707-.17703247 .22599793-.06802368 .27398683 .02796936 .2979889 .13098145 .2979889 .25097657Z"/>
<path id="font_1_2" d="M.23899842 .68333438C.23899842 .6843262 .23899842 .69433596 .22599793 .69433596 .20298767 .69433596 .12998963 .6863251 .10398865 .6843262 .09599304 .68333438 .084991458 .6823273 .084991458 .6643219 .084991458 .6523285 .09399414 .6523285 .10899353 .6523285 .15699768 .6523285 .15899658 .6453247 .15899658 .6353302 .15899658 .6283264 .1499939 .5943451 .14498902 .573349L.06298828 .24731446C.050994874 .1973114 .04699707 .18130493 .04699707 .14628601 .04699707 .05126953 .099990848-.0107421879 .17399597-.0107421879 .2919922-.0107421879 .4149933 .1382904 .4149933 .28233338 .4149933 .37335206 .3619995 .4423828 .28199769 .4423828 .23599243 .4423828 .19499207 .41337586 .16499329 .38235475L.23899842 .68333438M.14498902 .30534364C.15098572 .3273468 .15098572 .3293457 .1599884 .3403473 .20899964 .405365 .2539978 .42037965 .27999879 .42037965 .31599427 .42037965 .34298707 .3903656 .34298707 .32633973 .34298707 .26733399 .30999757 .15229798 .2919922 .11428833 .25898744 .04725647 .21299744 .011245728 .17399597 .011245728 .13999939 .011245728 .10699463 .038253786 .10699463 .11227417 .10699463 .13128662 .10699463 .15029907 .12298584 .21331787L.14498902 .30534364Z"/>
<path id="font_1_1" d="M.37298585 .37835694C.35499574 .41537477 .32598878 .4423828 .2809906 .4423828 .1639862 .4423828 .039993287 .29533387 .039993287 .14929199 .039993287 .055267335 .09498596-.0107421879 .17298889-.0107421879 .19299317-.0107421879 .24299622-.0067443849 .30299378 .06427002 .31098939 .022247315 .34599305-.0107421879 .3939972-.0107421879 .42900086-.0107421879 .45199586 .012252808 .46798707 .044265748 .4850006 .08027649 .49798585 .14129639 .49798585 .14329529 .49798585 .1532898 .4889984 .1532898 .48599244 .1532898 .47599793 .1532898 .47499085 .14929199 .47200013 .13528443 .45498658 .07026672 .43699647 .011245728 .3959961 .011245728 .36898805 .011245728 .3659973 .037261964 .3659973 .057266237 .3659973 .07926941 .36799623 .08728027 .3789978 .13128662 .3899994 .17329407 .3919983 .18330384 .40098573 .22131348L.43699647 .36135865C.44400025 .38935853 .44400025 .39135743 .44400025 .39537049 .44400025 .41236878 .43199159 .42237855 .4149933 .42237855 .3909912 .42237855 .37599183 .4003601 .37298585 .37835694M.30799867 .119277957C.30299378 .10127258 .30299378 .09927368 .28799439 .08227539 .24398804 .027252198 .20298767 .011245728 .1749878 .011245728 .125 .011245728 .11099243 .06626892 .11099243 .105285648 .11099243 .1552887 .14299011 .27833558 .1659851 .32434083 .19699097 .38336183 .24198914 .42037965 .28199769 .42037965 .34700013 .42037965 .36099244 .3383484 .36099244 .33235169 .36099244 .32633973 .35899354 .32034303 .35798646 .31533814L.30799867 .119277957Z"/>
<path id="font_1_3" d="M.3959961 .37998963C.37998963 .37998963 .3659973 .37998963 .35198976 .36598207 .33599855 .35098268 .33399964 .33398438 .33399964 .3269806 .33399964 .30297853 .35198976 .2919922 .37098695 .2919922 .3999939 .2919922 .4269867 .315979 .4269867 .35598756 .4269867 .40522767 .37998963 .4423828 .30899049 .4423828 .17399597 .4423828 .040985109 .2989807 .040985109 .15811157 .040985109 .06819153 .09899902-.0107421879 .20298767-.0107421879 .34599305-.0107421879 .42999269 .09516907 .42999269 .107162479 .42999269 .11315918 .42399598 .120147708 .41799928 .120147708 .41299439 .120147708 .41099549 .1181488 .40499879 .1101532 .32598878 .011245728 .21699524 .011245728 .20498657 .011245728 .14199829 .011245728 .114990238 .06021118 .114990238 .120147708 .114990238 .1611023 .1349945 .25801087 .16899109 .31999208 .19999695 .37698365 .25498963 .42037965 .30999757 .42037965 .34399415 .42037965 .38198854 .40724183 .3959961 .37998963Z"/>
</defs>
<path transform="matrix(1.00005,0,0,-1.00006,29.954796,121.26149)" d="M79.37114 77.10335V52.72508H121.89136" fill="#008080"/>
<path transform="matrix(1.00005,0,0,-1.00006,29.954796,121.26149)" stroke-width=".3985" stroke-linecap="butt" stroke-miterlimit="10" stroke-linejoin="miter" fill="none" stroke="#000000" d="M79.37114 77.10335V52.72508H121.89136"/>
<path transform="matrix(1.00005,0,0,-1.00006,29.954796,121.26149)" d="M121.89136 52.72508V28.3468H164.41156" fill="#bf0040"/>
<path transform="matrix(1.00005,0,0,-1.00006,29.954796,121.26149)" stroke-width=".3985" stroke-linecap="butt" stroke-miterlimit="10" stroke-linejoin="miter" fill="none" stroke="#000000" d="M121.89136 52.72508V28.3468H164.41156"/>
<path transform="matrix(1.00005,0,0,-1.00006,29.954796,121.26149)" stroke-width="1.19553" stroke-linecap="butt" stroke-miterlimit="10" stroke-linejoin="miter" fill="none" stroke="#000000" d="M0 0H171.95929"/>
<path transform="matrix(1.00005,0,0,-1.00006,201.92267,121.26149)" stroke-width=".9564" stroke-linecap="round" stroke-linejoin="round" fill="none" stroke="#000000" d="M-1.91284 2.55046C-1.75343 1.59402 0 .15938 .4782 0 0-.15938-1.75343-1.59402-1.91284-2.55046"/>
<use data-text="x" xlink:href="#font_1_4" transform="matrix(9.963098,0,0,-9.963197,200.03229,117.343257)"/>
<path transform="matrix(1.00005,0,0,-1.00006,29.954796,121.26149)" stroke-width="1.19553" stroke-linecap="butt" stroke-miterlimit="10" stroke-linejoin="miter" fill="none" stroke="#000000" d="M0 0V115.26567"/>
<path transform="matrix(0,-1.00006,-1.00005,-0,29.954796,5.988907)" stroke-width=".9564" stroke-linecap="round" stroke-linejoin="round" fill="none" stroke="#000000" d="M-1.91284 2.55046C-1.75343 1.59402 0 .15938 .4782 0 0-.15938-1.75343-1.59402-1.91284-2.55046"/>
<use data-text="y" xlink:href="#font_1_5" transform="matrix(9.963098,0,0,-9.963197,33.872995,6.2085955)"/>
<path transform="matrix(1.00005,0,0,-1.00006,29.954796,121.26149)" stroke-width=".19925" stroke-linecap="butt" stroke-miterlimit="10" stroke-linejoin="miter" fill="none" stroke="#929292" stroke-opacity=".5" d="M0 0H170.08086M0 28.3468H170.08086M0 56.69362H170.08086M0 85.04042H170.08086M0 113.37727H170.08086M0 0V113.38724M28.3468 0V113.38724M56.69362 0V113.38724M85.04042 0V113.38724M113.38724 0V113.38724M141.73404 0V113.38724M170.07089 0V113.38724M170.08086 113.38724"/>
<path transform="matrix(1.00005,0,0,-1.00006,29.954796,121.26149)" stroke-width="1.19553" stroke-linecap="butt" stroke-miterlimit="10" stroke-linejoin="miter" fill="none" stroke="#00ff00" d="M79.37114 0H164.41156"/>
<path transform="matrix(1.00005,0,0,-1.00006,29.954796,121.26149)" stroke-width="1.19553" stroke-linecap="butt" stroke-miterlimit="10" stroke-linejoin="miter" fill="none" stroke="#ff0000" d="M0 77.10335V28.3468"/>
<path transform="matrix(1.00005,0,0,-1.00006,29.954796,121.26149)" stroke-width="1.19553" stroke-linecap="butt" stroke-miterlimit="10" stroke-linejoin="miter" fill="none" stroke="#000000" d="M79.37114 2.49069V-2.49069"/>
<use data-text="x" xlink:href="#font_2_2" transform="matrix(8.966848,0,0,-8.966938,104.642528,131.5321)"/>
<use data-text="1" xlink:href="#font_3_2" transform="matrix(5.9778988,0,0,-5.9779589,109.86578,132.52817)"/>
<path transform="matrix(1.00005,0,0,-1.00006,29.954796,121.26149)" stroke-width="1.19553" stroke-linecap="butt" stroke-miterlimit="10" stroke-linejoin="miter" fill="none" stroke="#000000" d="M164.41156 2.49069V-2.49069"/>
<use data-text="x" xlink:href="#font_2_2" transform="matrix(8.966848,0,0,-8.966938,189.68677,131.5321)"/>
<use data-text="2" xlink:href="#font_3_3" transform="matrix(5.9778988,0,0,-5.9779589,194.91004,132.52817)"/>
<path transform="matrix(1.00005,0,0,-1.00006,29.954796,121.26149)" stroke-width="1.19553" stroke-linecap="butt" stroke-miterlimit="10" stroke-linejoin="miter" fill="none" stroke="#000000" d="M121.89136 2.49069V-2.49069"/>
<use data-text="x" xlink:href="#font_4_1" transform="matrix(5.9778988,0,0,-5.9779589,140.99634,131.49011)"/>
<use data-text="1" xlink:href="#font_5_1" transform="matrix(4.981549,0,0,-4.9815986,145.16855,132.64218)"/>
<use data-text="+" xlink:href="#font_3_1" transform="matrix(5.9778988,0,0,-5.9779589,149.05675,131.49011)"/>
<use data-text="x" xlink:href="#font_4_1" transform="matrix(5.9778988,0,0,-5.9779589,154.64704,131.49011)"/>
<use data-text="2" xlink:href="#font_5_2" transform="matrix(4.981549,0,0,-4.9815986,158.81925,132.64218)"/>
<path transform="matrix(1.00005,0,0,-1.00006,23.842492,27.181847)" stroke-width=".3786" stroke-linecap="butt" stroke-miterlimit="10" stroke-linejoin="miter" fill="none" stroke="#000000" d="M117.148-106.022H138.858"/>
<use data-text="2" xlink:href="#font_3_3" transform="matrix(5.9778988,0,0,-5.9779589,150.02579,138.49452)"/>
<path transform="matrix(1.00005,0,0,-1.00006,29.954796,121.26149)" stroke-width="1.19553" stroke-linecap="butt" stroke-miterlimit="10" stroke-linejoin="miter" fill="none" stroke="#000000" d="M2.49069 77.10335H-2.49069"/>
<use data-text="y" xlink:href="#font_2_3" transform="matrix(8.966848,0,0,-8.966938,14.8550419,45.21193)"/>
<use data-text="1" xlink:href="#font_3_2" transform="matrix(5.9778988,0,0,-5.9779589,19.393273,46.207994)"/>
<path transform="matrix(1.00005,0,0,-1.00006,29.954796,121.26149)" stroke-width="1.19553" stroke-linecap="butt" stroke-miterlimit="10" stroke-linejoin="miter" fill="none" stroke="#000000" d="M2.49069 28.3468H-2.49069"/>
<use data-text="y" xlink:href="#font_2_3" transform="matrix(8.966848,0,0,-8.966938,14.8550419,93.971858)"/>
<use data-text="2" xlink:href="#font_3_3" transform="matrix(5.9778988,0,0,-5.9779589,19.393273,94.96792)"/>
<path transform="matrix(1.00005,0,0,-1.00006,29.954796,121.26149)" stroke-width="1.19553" stroke-linecap="butt" stroke-miterlimit="10" stroke-linejoin="miter" fill="none" stroke="#000000" d="M2.49069 52.72508H-2.49069"/>
<use data-text="y" xlink:href="#font_4_2" transform="matrix(5.9778988,0,0,-5.9779589,1.4123688,66.935237)"/>
<use data-text="1" xlink:href="#font_5_1" transform="matrix(4.981549,0,0,-4.9815986,5.196556,68.0873)"/>
<use data-text="+" xlink:href="#font_3_1" transform="matrix(5.9778988,0,0,-5.9779589,9.085747,66.935237)"/>
<use data-text="y" xlink:href="#font_4_2" transform="matrix(5.9778988,0,0,-5.9779589,14.676025,66.935237)"/>
<use data-text="2" xlink:href="#font_5_2" transform="matrix(4.981549,0,0,-4.9815986,18.460206,68.0873)"/>
<path transform="matrix(1.00005,0,0,-1.00006,-115.741489,-37.362024)" stroke-width=".3786" stroke-linecap="butt" stroke-miterlimit="10" stroke-linejoin="miter" fill="none" stroke="#000000" d="M117.148-106.022H138.083"/>
<use data-text="2" xlink:href="#font_3_3" transform="matrix(5.9778988,0,0,-5.9779589,10.0538029,73.95065)"/>
<path transform="matrix(1.00005,0,0,-1.00006,29.954796,121.26149)" stroke-width=".79701" stroke-linecap="butt" stroke-miterlimit="10" stroke-linejoin="miter" fill="none" stroke="#0000ff" d="M79.37114 77.10335 164.41156 28.3468"/>
<path transform="matrix(1.00005,0,0,-1.00006,29.954796,121.26149)" stroke-width=".79701" stroke-linecap="butt" stroke-miterlimit="10" stroke-linejoin="miter" fill="none" stroke="#00ff00" d="M164.41156 28.3468H79.37114"/>
<path transform="matrix(1.00005,0,0,-1.00006,29.954796,121.26149)" stroke-width=".79701" stroke-linecap="butt" stroke-miterlimit="10" stroke-linejoin="miter" fill="none" stroke="#ff0000" d="M79.37114 28.3468V77.10335"/>
<use data-text="&#x2022;" xlink:href="#font_6_1" transform="matrix(9.963098,0,0,-9.963197,106.83863,46.367998)"/>
<use data-text="&#x2022;" xlink:href="#font_6_1" transform="matrix(9.963098,0,0,-9.963197,191.88388,95.12692)"/>
<use data-text="&#x2022;" xlink:href="#font_6_1" transform="matrix(9.963098,0,0,-9.963197,106.83863,95.12692)"/>
<use data-text="&#x2022;" xlink:href="#font_6_1" transform="matrix(9.963098,0,0,-9.963197,149.36176,95.12692)"/>
<use data-text="&#x2022;" xlink:href="#font_6_1" transform="matrix(9.963098,0,0,-9.963197,106.83863,70.74746)"/>
<use data-text="&#x2022;" xlink:href="#font_6_1" transform="matrix(9.963098,0,0,-9.963197,149.36176,70.74746)"/>
<use data-text="(" xlink:href="#font_7_1" transform="matrix(8.966848,0,0,-8.966938,94.66503,38.391527)"/>
<use data-text="x" xlink:href="#font_2_2" transform="matrix(8.966848,0,0,-8.966938,98.248218,38.391527)"/>
<use data-text="1" xlink:href="#font_3_2" transform="matrix(5.9778988,0,0,-5.9779589,103.47247,39.38759)"/>
<use data-text="," xlink:href="#font_2_1" transform="matrix(8.966848,0,0,-8.966938,107.62367,38.391527)"/>
<use data-text="y" xlink:href="#font_2_3" transform="matrix(8.966848,0,0,-8.966938,111.71254,38.391527)"/>
<use data-text="1" xlink:href="#font_3_2" transform="matrix(5.9778988,0,0,-5.9779589,116.2581,39.38759)"/>
<use data-text=")" xlink:href="#font_7_2" transform="matrix(8.966848,0,0,-8.966938,120.40932,38.391527)"/>
<use data-text="(" xlink:href="#font_7_1" transform="matrix(8.966848,0,0,-8.966938,197.8942,103.1584)"/>
<use data-text="x" xlink:href="#font_2_2" transform="matrix(8.966848,0,0,-8.966938,201.47737,103.1584)"/>
<use data-text="2" xlink:href="#font_3_3" transform="matrix(5.9778988,0,0,-5.9779589,206.70163,104.154468)"/>
<use data-text="," xlink:href="#font_2_1" transform="matrix(8.966848,0,0,-8.966938,210.85283,103.1584)"/>
<use data-text="y" xlink:href="#font_2_3" transform="matrix(8.966848,0,0,-8.966938,214.9417,103.1584)"/>
<use data-text="2" xlink:href="#font_3_3" transform="matrix(5.9778988,0,0,-5.9779589,219.48726,104.154468)"/>
<use data-text=")" xlink:href="#font_7_2" transform="matrix(8.966848,0,0,-8.966938,223.63848,103.1584)"/>
<use data-text="(" xlink:href="#font_7_1" transform="matrix(8.966848,0,0,-8.966938,76.48112,103.1584)"/>
<use data-text="x" xlink:href="#font_2_2" transform="matrix(8.966848,0,0,-8.966938,80.0643,103.1584)"/>
<use data-text="1" xlink:href="#font_3_2" transform="matrix(5.9778988,0,0,-5.9779589,85.28856,104.154468)"/>
<use data-text="," xlink:href="#font_2_1" transform="matrix(8.966848,0,0,-8.966938,89.43976,103.1584)"/>
<use data-text="y" xlink:href="#font_2_3" transform="matrix(8.966848,0,0,-8.966938,93.528629,103.1584)"/>
<use data-text="2" xlink:href="#font_3_3" transform="matrix(5.9778988,0,0,-5.9779589,98.07419,104.154468)"/>
<use data-text=")" xlink:href="#font_7_2" transform="matrix(8.966848,0,0,-8.966938,102.2254,103.1584)"/>
<path transform="matrix(1.00005,0,0,-1.00006,29.954796,121.26149)" stroke-width=".3985" stroke-linecap="butt" stroke-miterlimit="10" stroke-linejoin="miter" fill="none" stroke="#000000" d="M79.37114 77.10335C76.38228 75.609 74.38976 72.12196 74.38976 67.14058V62.68785C74.38976 57.70647 72.39723 54.21944 69.40837 52.72508 72.39723 51.23071 74.38976 47.7437 74.38976 42.76231V38.30957C74.38976 33.32819 76.38228 29.84116 79.37114 28.3468"/>
<use data-text="b" xlink:href="#font_1_2" transform="matrix(9.963098,0,0,-9.963197,93.24296,71.99254)"/>
<path transform="matrix(1.00005,0,0,-1.00006,29.954796,121.26149)" stroke-width=".3985" stroke-linecap="butt" stroke-miterlimit="10" stroke-linejoin="miter" fill="none" stroke="#000000" d="M79.37114 28.3468C80.8655 25.35794 84.35252 23.36542 89.33391 23.36542H111.92857C116.90996 23.36542 120.39699 21.3729 121.89134 18.38403 123.3857 21.3729 126.87273 23.36542 131.85411 23.36542H154.44879C159.43018 23.36542 162.9172 25.35794 164.41156 28.3468"/>
<use data-text="a" xlink:href="#font_1_1" transform="matrix(9.963098,0,0,-9.963197,149.21875,109.00676)"/>
<path transform="matrix(1.00005,0,0,-1.00006,29.954796,121.26149)" stroke-width=".3985" stroke-linecap="butt" stroke-miterlimit="10" stroke-linejoin="miter" fill="none" stroke="#000000" d="M79.37114 77.10335C82.15399 78.95293 86.16998 78.94711 90.4913 76.46957L115.7001 62.0166C120.02142 59.53906 124.0374 59.53323 126.82028 61.38283 126.63007 58.04678 128.66405 54.58397 132.98537 52.10643L158.19417 37.65346C162.51549 35.17592 164.54944 31.71309 164.35926 28.37706"/>
<use data-text="c" xlink:href="#font_1_3" transform="matrix(8.642987,4.9552958,4.955246,-8.643074,155.4736,58.283266)"/>
</svg>
