<svg xmlns="http://www.w3.org/2000/svg" xmlns:xlink="http://www.w3.org/1999/xlink" version="1.1" width="163" height="146" viewBox="0 0 163 146">
<defs>
<path id="font_1_5" d="M.33399964 .30233766C.33999635 .32835389 .36299134 .42037965 .43299867 .42037965 .43798829 .42037965 .46199037 .42037965 .48298646 .40734864 .45498658 .402359 .43499757 .37734986 .43499757 .35334779 .43499757 .33735658 .44599916 .31835938 .47299195 .31835938 .49499513 .31835938 .5269928 .3363495 .5269928 .37635804 .5269928 .42837525 .46798707 .4423828 .43399049 .4423828 .37599183 .4423828 .34098817 .38935853 .32899476 .36634828 .3039856 .43237306 .25 .4423828 .22099304 .4423828 .116989139 .4423828 .05999756 .3133545 .05999756 .28834535 .05999756 .27833558 .069992069 .27833558 .07199097 .27833558 .07998657 .27833558 .08299255 .28033448 .084991458 .28933717 .11898804 .39535523 .18499756 .42037965 .21899414 .42037965 .23799134 .42037965 .272995 .4113617 .272995 .35334779 .272995 .32235719 .2559967 .25532533 .21899414 .11528015 .20298767 .053268434 .16799927 .011245728 .12399292 .011245728 .117996219 .011245728 .09498596 .011245728 .07398987 .024276734 .09899902 .029266358 .12098694 .05027771 .12098694 .07827759 .12098694 .105270389 .09899902 .11328125 .083999637 .11328125 .053985597 .11328125 .0289917 .08728027 .0289917 .055267335 .0289917 .009246826 .07899475-.0107421879 .12298584-.0107421879 .18899536-.0107421879 .22499085 .059280397 .22799683 .0652771 .23999024 .028274537 .27598573-.0107421879 .33599855-.0107421879 .43899537-.0107421879 .49598695 .118270877 .49598695 .14328003 .49598695 .1532898 .4869995 .1532898 .48399354 .1532898 .47499085 .1532898 .47299195 .14929199 .47099305 .14228821 .43798829 .03527832 .36999513 .011245728 .33799745 .011245728 .29899598 .011245728 .2829895 .043273927 .2829895 .07727051 .2829895 .09927368 .2889862 .121276859 .2999878 .16529846L.33399964 .30233766Z"/>
<path id="font_1_6" d="M.48599244 .38136292C.48999024 .39537049 .48999024 .39736939 .48999024 .40437318 .48999024 .42237855 .47599793 .43138124 .46099855 .43138124 .45098878 .43138124 .43499757 .42536927 .42599488 .41036988 .42399598 .405365 .41600038 .37435914 .4119873 .35635377 .40499879 .33035279 .397995 .30334474 .3919983 .27633668L.34700013 .09628296C.34298707 .08126831 .2999878 .011245728 .23399353 .011245728 .18299866 .011245728 .17199707 .055267335 .17199707 .0922699 .17199707 .1382904 .18899536 .20030213 .22299195 .28833009 .23899842 .3293457 .24299622 .3403473 .24299622 .36035157 .24299622 .405365 .21099854 .4423828 .16099549 .4423828 .06599426 .4423828 .0289917 .29733277 .0289917 .28833009 .0289917 .27833558 .038986207 .27833558 .040985109 .27833558 .050994874 .27833558 .051986696 .28033448 .056991579 .29634095 .083999637 .3903656 .12399292 .42037965 .1579895 .42037965 .1659851 .42037965 .18299866 .42037965 .18299866 .3883667 .18299866 .36335755 .17298889 .3373413 .1659851 .31834413 .12599182 .21231079 .10798645 .1552887 .10798645 .10827637 .10798645 .019256592 .17098999-.0107421879 .22999573-.0107421879 .2689972-.0107421879 .30299378 .0062561037 .33099366 .03425598 .31799317-.017745972 .30599977-.06674194 .2659912-.11973572 .23999024-.15385437 .20199585-.18309021 .1559906-.18309021 .14199829-.18309021 .09700012-.18005371 .07998657-.14074707 .09599304-.14074707 .10899353-.14074707 .12298584-.1287384 .1329956-.11973572 .14299011-.10673523 .14299011-.08773804 .14299011-.056747438 .115997318-.052734376 .10598755-.052734376 .08299255-.052734376 .049987794-.068740848 .049987794-.11773682 .049987794-.16796875 .09399414-.20507813 .1559906-.20507813 .25898744-.20507813 .3619995-.11373901 .3899994-.00074768069L.48599244 .38136292Z"/>
<path id="font_2_4" d="M.68699648 .32714845C.70199587 .32714845 .72099307 .32714845 .72099307 .34713746 .72099307 .36714173 .70199587 .36714173 .6879883 .36714173H.08898926C.07499695 .36714173 .055999757 .36714173 .055999757 .34713746 .055999757 .32714845 .07499695 .32714845 .08999634 .32714845H.68699648M.6879883 .13284302C.70199587 .13284302 .72099307 .13284302 .72099307 .15284729 .72099307 .17285156 .70199587 .17285156 .68699648 .17285156H.08999634C.07499695 .17285156 .055999757 .17285156 .055999757 .15284729 .055999757 .13284302 .07499695 .13284302 .08898926 .13284302H.6879883Z"/>
<path id="font_1_2" d="M.36698915 .3996582H.45298768C.47299195 .3996582 .48298646 .3996582 .48298646 .41966249 .48298646 .43066407 .47299195 .43066407 .45599366 .43066407H.37298585L.3939972 .5449524C.397995 .5660095 .4119873 .6370239 .41799928 .6490326 .4269867 .66804507 .44400025 .68307498 .46499635 .68307498 .46899415 .68307498 .49499513 .68307498 .5139923 .66503909 .46998597 .661026 .45999146 .6260376 .45999146 .6110382 .45999146 .58802798 .47799684 .57603457 .49699403 .57603457 .522995 .57603457 .5519867 .5980377 .5519867 .6360321 .5519867 .6820679 .5059967 .7050781 .46499635 .7050781 .43099977 .7050781 .36799623 .68707278 .33799745 .58802798 .33198548 .56700137 .32899476 .5569763 .30499269 .43066407H.23599243C.21699524 .43066407 .20599365 .43066407 .20599365 .4116516 .20599365 .3996582 .21499634 .3996582 .23399353 .3996582H.2999878L.22499085 .0048828127C.20698548-.09207153 .18998719-.18309021 .13798523-.18309021 .13398743-.18309021 .10899353-.18309021 .08999634-.16506958 .13598633-.1620636 .14498902-.12606812 .14498902-.111068729 .14498902-.08807373 .1269989-.07606506 .10798645-.07606506 .08198547-.07606506 .052993776-.09806824 .052993776-.13606262 .052993776-.18109131 .09700012-.20507813 .13798523-.20507813 .19299317-.20507813 .23298645-.14607239 .25099183-.108062747 .2829895-.04508972 .30599977 .07583618 .30699159 .082839969L.36698915 .3996582Z"/>
<path id="font_2_1" d="M.33099366-.2400055C.33099366-.23701477 .33099366-.23500061 .31399537-.21800232 .18899536-.0920105 .15699768 .09700012 .15699768 .25 .15699768 .42399598 .19499207 .59799197 .31799317 .72299197 .33099366 .73498538 .33099366 .7369995 .33099366 .73999026 .33099366 .746994 .32699586 .75 .32099916 .75 .31098939 .75 .22099304 .6819916 .1619873 .5549927 .11099243 .44499208 .09899902 .33399964 .09899902 .25 .09899902 .17199707 .10998535 .050994874 .16499329-.06201172 .22499085-.18501282 .31098939-.25 .32099916-.25 .32699586-.25 .33099366-.24700928 .33099366-.2400055Z"/>
<path id="font_2_2" d="M.2889862 .25C.2889862 .32798768 .27799989 .44898988 .22299195 .56199648 .16299439 .68499758 .07699585 .75 .066986087 .75 .06098938 .75 .056991579 .74598696 .056991579 .73999026 .056991579 .7369995 .056991579 .73498538 .07598877 .71699526 .17399597 .6179962 .23098755 .45899964 .23098755 .25 .23098755 .07899475 .19400025-.09700012 .069992069-.2230072 .056991579-.23500061 .056991579-.23701477 .056991579-.2400055 .056991579-.2460022 .06098938-.25 .066986087-.25 .07699585-.25 .16699219-.18200684 .22599793-.055007936 .2769928 .054992677 .2889862 .16600037 .2889862 .25Z"/>
<path id="font_1_3" d="M.47099305 .3773346C.47200013 .3833313 .47399903 .38833619 .47399903 .39535523 .47399903 .41236878 .46199037 .42237855 .44499208 .42237855 .43499757 .42237855 .4079895 .41537477 .4039917 .3793335 .38598634 .41636659 .35099793 .4423828 .31098939 .4423828 .19699097 .4423828 .07299805 .30226136 .07299805 .15812683 .07299805 .059020997 .13398743 0 .20599365 0 .2649994 0 .31199647 .04701233 .32199098 .058029176L.32299806 .057022096C.3019867-.031982423 .2899933-.07295227 .2899933-.07495117 .28599549-.08395386 .2519989-.18309021 .1459961-.18309021 .1269989-.18309021 .09399414-.18206787 .06599426-.17297364 .09599304-.16394043 .10699463-.13793946 .10699463-.12094116 .10699463-.10494995 .09599304-.0859375 .068984989-.0859375 .04699707-.0859375 .01499939-.10394287 .01499939-.14395142 .01499939-.18508911 .051986696-.20507813 .147995-.20507813 .272995-.20507813 .34498597-.12693787 .3600006-.06695557L.47099305 .3773346M.34098817 .12809754C.33499146 .10206604 .31199647 .077041629 .2899933 .058029176 .2689972 .040008546 .23799134 .021987915 .20899964 .021987915 .15899658 .021987915 .14399719 .074035648 .14399719 .11407471 .14399719 .16212464 .17298889 .28024293 .19999695 .33128358 .22698975 .38034059 .269989 .42037965 .31199647 .42037965 .37799073 .42037965 .3919983 .33929444 .3919983 .33428956 .3919983 .32928468 .3899994 .3232727 .3889923 .3192749L.34098817 .12809754Z"/>
<path id="font_1_4" d="M.2869873 .68333438C.2869873 .6843262 .2869873 .69433596 .27398683 .69433596 .25099183 .69433596 .17799378 .6863251 .1519928 .6843262 .14399719 .68333438 .1329956 .6823273 .1329956 .6643219 .1329956 .6523285 .14199829 .6523285 .15699768 .6523285 .20498657 .6523285 .20698548 .6453247 .20698548 .6353302L.20399475 .6153412 .05899048 .039260866C.054992677 .025253296 .054992677 .023254395 .054992677 .01725769 .054992677-.0057525637 .07499695-.0107421879 .083999637-.0107421879 .099990848-.0107421879 .115997318 .0012512207 .12098694 .015258789L.13999939 .091278079 .1619873 .18130493C.16799927 .2033081 .17399597 .22531128 .1789856 .24832154 .18099976 .25431825 .18899536 .28733827 .18998719 .29333497 .19299317 .30233766 .22399903 .35835267 .2579956 .38536073 .27999879 .4013672 .31098939 .42037965 .35398866 .42037965 .39698792 .42037965 .4079895 .3863678 .4079895 .35035707 .4079895 .29634095 .36999513 .18730164 .34599305 .12628174 .33799745 .103271488 .33299256 .091278079 .33299256 .0712738 .33299256 .024261475 .36799623-.0107421879 .4149933-.0107421879 .5089874-.0107421879 .54599 .13528443 .54599 .14329529 .54599 .1532898 .5369873 .1532898 .5339966 .1532898 .5239868 .1532898 .5239868 .15029907 .5189972 .13528443 .5039978 .08227539 .47200013 .011245728 .4169922 .011245728 .3999939 .011245728 .3929901 .021255494 .3929901 .044265748 .3929901 .0692749 .4019928 .09327698 .41099549 .11528015 .4269867 .15829468 .47200013 .2773285 .47200013 .3353424 .47200013 .4003601 .43199159 .4423828 .35699464 .4423828 .2939911 .4423828 .24598694 .41137696 .20899964 .36535646L.2869873 .68333438Z"/>
<path id="font_3_1" d="M.44400025 .24998474C.44400025 .35688783 .35499574 .44381715 .25 .44381715 .14199829 .44381715 .054992677 .35488893 .054992677 .24998474 .054992677 .14407349 .14199829 .056137086 .25 .056137086 .35499574 .056137086 .44400025 .14308167 .44400025 .24998474Z"/>
<path id="font_2_3" d="M.45999146 .31976319C.45999146 .39982606 .45498658 .47988893 .41999818 .5539398 .37399293 .65000918 .2919922 .6660156 .25 .6660156 .18998719 .6660156 .116989139 .64001467 .07598877 .54693606 .04399109 .47789 .038986207 .39982606 .038986207 .31976319 .038986207 .24472046 .042999269 .15464783 .083999637 .07859802 .1269989-.0024719239 .19999695-.022460938 .24899292-.022460938 .30299378-.022460938 .3789978-.0014648438 .4229889 .09359741 .45498658 .16265869 .45999146 .2407074 .45999146 .31976319M.24899292-.00047302247C.20999146-.00047302247 .15098572 .024551392 .1329956 .12062073 .12199402 .18066406 .12199402 .2727356 .12199402 .3317871 .12199402 .39582826 .12199402 .46188355 .12998963 .5159149 .14898682 .63500979 .22399903 .64401248 .24899292 .64401248 .28199769 .64401248 .34799195 .6259918 .36698915 .52693179 .3769989 .47088624 .3769989 .39482118 .3769989 .3317871 .3769989 .25672914 .3769989 .18867493 .3659973 .12461853 .35099793 .029556275 .2939911-.00047302247 .24899292-.00047302247Z"/>
<path id="font_1_1" d="M.20298767 .0009918213C.20298767 .066986087 .17799378 .10598755 .13899231 .10598755 .10598755 .10598755 .085998538 .08099365 .085998538 .052993776 .085998538 .025985718 .10598755 0 .13899231 0 .15098572 0 .1639862 .0039978029 .17399597 .0129852299 .1769867 .01499939 .17799378 .015991211 .1789856 .015991211 .17999268 .015991211 .18099976 .01499939 .18099976 .0009918213 .18099976-.07316589 .1459961-.13328552 .11299133-.16635132 .101989749-.17736817 .101989749-.17936707 .101989749-.18237305 .101989749-.18936157 .10699463-.19335938 .11199951-.19335938 .12298584-.19335938 .20298767-.116256717 .20298767 .0009918213Z"/>
</defs>
<path transform="matrix(1,0,0,-1.00005,63.856004,131.1259)" stroke-width=".19925" stroke-linecap="butt" stroke-miterlimit="10" stroke-linejoin="miter" fill="none" stroke="#929292" d="M-56.69362 0H56.69362M-56.69362 28.3468H56.69362M-56.69362 56.69362H56.69362M-56.69362 85.04042H56.69362M-56.69362 113.37727H56.69362M-56.69362 0V113.38724M-28.3468 0V113.38724M0 0V113.38724M28.3468 0V113.38724M56.68365 0V113.38724M56.69362 113.38724"/>
<path transform="matrix(1,0,0,-1.00005,63.856004,131.1259)" stroke-width="1.19553" stroke-linecap="butt" stroke-miterlimit="10" stroke-linejoin="miter" fill="none" stroke="#000000" d="M-62.36288 0H61.40646"/>
<path transform="matrix(1,0,0,-1.00005,125.26247,131.1259)" stroke-width=".9564" stroke-linecap="round" stroke-linejoin="round" fill="none" stroke="#000000" d="M-1.91284 2.55046C-1.75343 1.59402 0 .15938 .4782 0 0-.15938-1.75343-1.59402-1.91284-2.55046"/>
<use data-text="x" xlink:href="#font_1_5" transform="matrix(9.9626,0,0,-9.963098,130.137,133.27101)"/>
<path transform="matrix(1,0,0,-1.00005,63.856004,131.1259)" stroke-width="1.19553" stroke-linecap="butt" stroke-miterlimit="10" stroke-linejoin="miter" fill="none" stroke="#000000" d="M0-5.66927V118.10008"/>
<path transform="matrix(0,-1.00005,-1,-0,63.856004,13.01992)" stroke-width=".9564" stroke-linecap="round" stroke-linejoin="round" fill="none" stroke="#000000" d="M-1.91284 2.55046C-1.75343 1.59402 0 .15938 .4782 0 0-.15938-1.75343-1.59402-1.91284-2.55046"/>
<use data-text="y" xlink:href="#font_1_6" transform="matrix(9.9626,0,0,-9.963098,61.235,6.207657)"/>
<path transform="matrix(1,0,0,-1.00005,63.856004,131.1259)" stroke-width=".79701" stroke-linecap="butt" stroke-miterlimit="10" stroke-linejoin="miter" fill="none" stroke="#0000ff" d="M-56.69362 113.38724C-56.69362 113.38724-56.52954 112.73172-56.46652 112.48064-56.40352 112.22954-56.30244 111.82756-56.23944 111.57748-56.17642 111.32741-56.07536 110.92723-56.01234 110.67824-55.94934 110.42924-55.8483 110.03087-55.78528 109.78288-55.72226 109.53491-55.6212 109.138-55.5582 108.89099-55.49518 108.64397-55.39412 108.24854-55.3311 108.00255-55.2681 107.75658-55.16704 107.36298-55.10403 107.11801-55.04102 106.87305-54.93996 106.48094-54.87694 106.23694-54.81393 105.99294-54.71288 105.60231-54.64986 105.35933-54.58685 105.11633-54.4858 104.72755-54.42279 104.4856-54.35977 104.24362-54.25871 103.85628-54.1957 103.61533-54.13269 103.37437-54.03163 102.98888-53.96861 102.74895-53.9056 102.50902-53.80455 102.12495-53.74155 101.88603-53.67853 101.64713-53.57747 101.26491-53.51445 101.02702-53.45145 100.78914-53.35037 100.40837-53.28737 100.17145-53.22435 99.93452-53.12329 99.55525-53.06027 99.31935-52.99727 99.08345-52.89622 98.70604-52.8332 98.47116-52.77019 98.23627-52.66913 97.86026-52.60612 97.6264-52.5431 97.39253-52.44205 97.0184-52.37903 96.78555-52.31602 96.5527-52.21497 96.18005-52.15196 95.94817-52.08894 95.71626-51.98788 95.3451-51.92487 95.11423-51.86186 94.88335-51.7608 94.51402-51.69778 94.28418-51.63478 94.05434-51.53372 93.68643-51.47072 93.45761-51.4077 93.22879-51.30664 92.86272-51.24362 92.63492-51.18062 92.40712-51.07956 92.04247-51.01654 91.81569-50.95352 91.5889-50.85248 91.22618-50.78947 91.00035-50.72646 90.77454-50.6254 90.41286-50.56238 90.18805-50.49937 89.96324-50.3983 89.60385-50.3353 89.38007-50.27228 89.15628-50.17122 88.79788-50.1082 88.5751-50.0452 88.35234-49.94415 87.99623-49.88113 87.77448-49.81812 87.55273-49.71706 87.19766-49.65405 86.97688-49.59103 86.7561-49.48997 86.40288-49.42696 86.18318-49.36395 85.96349-49.2629 85.6121-49.19989 85.39337-49.13687 85.17462-49.03581 84.82436-48.9728 84.60657-48.90979 84.3888-48.80873 84.04039-48.74571 83.82368-48.68271 83.60698-48.58165 83.26038-48.51865 83.0447-48.45563 82.82901-48.35457 82.48381-48.29155 82.26915-48.22855 82.05447-48.12749 81.71118-48.06447 81.4975-48.00145 81.2838-47.9004 80.94156-47.8374 80.72888-47.77438 80.5162-47.67332 80.17624-47.6103 79.96458-47.5473 79.75293-47.44623 79.41402-47.38322 79.20332-47.3202 78.99261-47.21916 78.65556-47.15614 78.44594-47.09314 78.23631-46.99208 77.90106-46.92906 77.69246-46.86604 77.48386-46.76498 77.15009-46.70198 76.94243-46.63896 76.73479-46.5379 76.40251-46.47488 76.19588-46.41188 75.98926-46.31082 75.65881-46.24782 75.4532-46.1848 75.24759-46.08374 74.91864-46.02072 74.714-45.95772 74.50937-45.85666 74.18187-45.79364 73.97826-45.73064 73.77464-45.62958 73.44894-45.56657 73.24641-45.50356 73.04387-45.4025 72.71997-45.33948 72.51845-45.27647 72.31693-45.17542 71.99449-45.1124 71.79393-45.04938 71.59337-44.94833 71.2725-44.88533 71.0729-44.82231 70.8733-44.72125 70.5539-44.65823 70.35532-44.59523 70.15672-44.49416 69.83913-44.43115 69.64162-44.36813 69.44412-44.26709 69.1283-44.20407 68.93182-44.14107 68.73535-44.04001 68.421-43.97699 68.2255-43.91397 68.02998-43.81291 67.71718-43.74991 67.52261-43.68689 67.32806-43.58583 67.01668-43.52281 66.82321-43.45981 66.62973-43.35875 66.32059-43.29575 66.12813-43.23273 65.93567-43.13167 65.62756-43.06865 65.43605-43.00565 65.24455-42.90459 64.93837-42.84157 64.7479-42.77856 64.55742-42.6775 64.25264-42.6145 64.06319-42.55148 63.87372-42.45042 63.5708-42.3874 63.38237-42.3244 63.19395-42.22334 62.89243-42.16032 62.70502-42.0973 62.51761-41.99626 62.21796-41.93326 62.03156-41.87024 61.84517-41.76918 61.547-41.70616 61.36156-41.64316 61.17613-41.54208 60.87943-41.47908 60.69502-41.41606 60.5106-41.31502 60.21576-41.252 60.03236-41.189 59.84897-41.08794 59.55562-41.02492 59.37317-40.9619 59.19073-40.86084 58.89886-40.79784 58.71745-40.73482 58.53603-40.63376 58.24596-40.57074 58.06563-40.50774 57.88528-40.40668 57.59697-40.34367 57.41766-40.28065 57.23836-40.1796 56.95154-40.11658 56.7732-40.05357 56.59485-39.95251 56.30951-39.8895 56.13217-39.82649 55.95483-39.72543 55.67136-39.66243 55.49504-39.59941 55.31873-39.49835 55.03673-39.43533 54.86137-39.37233 54.68602-39.27127 54.4055-39.20825 54.23117-39.14523 54.05682-39.04419 53.77817-38.98119 53.60484-38.91817 53.43152-38.81711 53.15428-38.75409 52.98201-38.69109 52.80972-38.59001 52.53432-38.52701 52.36304-38.46399 52.19176-38.36295 51.91777-38.29993 51.74753-38.23692 51.57729-38.13586 51.30515-38.07285 51.13593-38.00983 50.96669-37.90877 50.69604-37.84576 50.52779-37.78275 50.35951-37.6817 50.09035-37.61868 49.9231-37.55568 49.75584-37.4546 49.48853-37.3916 49.3223-37.32858 49.15607-37.22752 48.89024-37.1645 48.72496-37.1015 48.5597-37.00044 48.29533-36.93742 48.13109-36.87442 47.96683-36.77336 47.70425-36.71036 47.54109-36.64734 47.37793-36.54628 47.11716-36.48326 46.95502-36.42026 46.79286-36.31918 46.53357-36.25618 46.37238-36.19316 46.2112-36.09212 45.95338-36.02911 45.79321-35.9661 45.63304-35.86504 45.37709-35.80202 45.21794-35.73901 45.05879-35.63794 44.8043-35.57494 44.64612-35.51192 44.48793-35.41087 44.23494-35.34785 44.07776-35.28485 43.9206-35.18379 43.66945-35.12077 43.5133-35.05775 43.35715-34.9567 43.10742-34.89369 42.9523-34.83067 42.79718-34.72963 42.5493-34.66661 42.39519-34.6036 42.24109-34.50253 41.99464-34.43953 41.84155-34.37651 41.68846-34.27545 41.44385-34.21243 41.2918-34.14943 41.13972-34.04837 40.89659-33.98535 40.74548-33.92235 40.59438-33.82129 40.35275-33.75829 40.20265-33.69527 40.05257-33.59421 39.81279-33.53119 39.66371-33.46819 39.51465-33.36711 39.27635-33.30411 39.12825-33.24109 38.98013-33.14005 38.74332-33.07704 38.59622-33.01402 38.44913-32.91296 38.21408-32.84995 38.06808-32.78694 37.92209-32.68587 37.68883-32.62286 37.54385-32.55984 37.39886-32.4588 37.1671-32.39578 37.02307-32.33278 36.87904-32.23172 36.64883-32.1687 36.50577-32.10568 36.3627-32.00462 36.1339-31.94162 35.99191-31.8786 35.84991-31.77756 35.62334-31.71454 35.48236-31.65154 35.3414-31.55046 35.11588-31.48746 34.97586-31.42444 34.83586-31.32338 34.61224-31.26036 34.47327-31.19736 34.33429-31.0963 34.11208-31.03328 33.97412-30.97028 33.83617-30.86922 33.6158-30.80621 33.47885-30.7432 33.34192-30.64214 33.12305-30.57912 32.98708-30.51611 32.85109-30.41504 32.63368-30.35204 32.49872-30.28902 32.36375-30.18797 32.14816-30.12497 32.01428-30.06195 31.8804-29.96089 31.66666-29.89787 31.53374-29.83487 31.4008-29.7338 31.18811-29.67079 31.0562-29.60777 30.9243-29.50673 30.7139-29.44371 30.58301-29.3807 30.45212-29.27965 30.24277-29.21663 30.11285-29.15361 29.98293-29.05255 29.7754-28.98955 29.64658-28.92653 29.51773-28.82549 29.31207-28.76247 29.18419-28.69946 29.0563-28.59839 28.85168-28.53539 28.72482-28.47237 28.59798-28.3713 28.39565-28.30829 28.2698-28.24529 28.14397-28.14424 27.94269-28.08122 27.81781-28.01822 27.69292-27.91714 27.4935-27.85414 27.36969-27.79112 27.2459-27.69006 27.04826-27.62704 26.92548-27.56404 26.80269-27.46297 26.60652-27.39996 26.48471-27.33694 26.3629-27.2359 26.16823-27.1729 26.04742-27.10988 25.92664-27.00882 25.7338-26.9458 25.61401-26.8828 25.49425-26.78172 25.3029-26.71872 25.18408-26.6557 25.06526-26.55466 24.8754-26.49164 24.7576-26.42863 24.6398-26.32758 24.45178-26.26456 24.335-26.20154 24.21822-26.10048 24.03165-26.03748 23.91588-25.97446 23.80013-25.87341 23.61539-25.8104 23.50064-25.74739 23.3859-25.64632 23.20259-25.58331 23.08887-25.5203 22.97514-25.41924 22.79367-25.35622 22.68098-25.29321 22.56828-25.19217 22.38829-25.12915 22.27657-25.06615 22.16483-24.96507 21.98631-24.90207 21.8756-24.83905 21.76488-24.73799 21.58821-24.67497 21.47852-24.61197 21.36882-24.5109 21.19359-24.44789 21.08492-24.38487 20.97623-24.28383 20.80286-24.22083 20.69519-24.1578 20.58752-24.05675 20.41563-23.99373 20.30894-23.93073 20.20224-23.82965 20.0318-23.76665 19.92613-23.70363 19.82047-23.60258 19.65184-23.53957 19.54724-23.47656 19.44266-23.3755 19.27586-23.31248 19.17223-23.24947 19.06859-23.1484 18.90292-23.0854 18.80025-23.02238 18.69757-22.92134 18.53375-22.85832 18.43216-22.79532 18.33057-22.69424 18.16855-22.63124 18.06796-22.56822 17.96739-22.46716 17.80684-22.40414 17.70723-22.34114 17.6076-22.2401 17.44855-22.17708 17.34995-22.11407 17.25134-22.013 17.09415-21.95 16.99657-21.88698 16.89899-21.78592 16.7432-21.7229 16.64665-21.6599 16.5501-21.55882 16.39615-21.49582 16.30061-21.4328 16.2051-21.33176 16.05261-21.26875 15.95804-21.20573 15.86346-21.10468 15.71248-21.04166 15.61893-20.97865 15.52538-20.87758 15.37625-20.81458 15.2837-20.75156 15.19118-20.65051 15.04347-20.5875 14.95197-20.52449 14.86044-20.42343 14.7146-20.36041 14.6241-20.2974 14.5336-20.19633 14.38922-20.13333 14.29968-20.07031 14.21014-19.96927 14.06725-19.90625 13.97874-19.84325 13.89024-19.74217 13.74918-19.67917 13.6617-19.61615 13.5742-19.51509 13.43457-19.45207 13.3481-19.38907 13.26164-19.28802 13.12386-19.225 13.0384-19.16199 12.95296-19.06093 12.81667-18.99792 12.73216-18.9349 12.64767-18.83385 12.51288-18.77083 12.4294-18.70782 12.34593-18.60677 12.2129-18.54376 12.13052-18.48074 12.04813-18.37968 11.91696-18.31668 11.83553-18.25366 11.75409-18.1526 11.62402-18.08958 11.54355-18.02658 11.46309-17.9255 11.33487-17.8625 11.2555-17.79948 11.1761-17.69844 11.04967-17.63542 10.9713-17.57242 10.89294-17.47136 10.768-17.40834 10.6906-17.34532 10.61319-17.24426 10.48972-17.18126 10.41333-17.11824 10.33694-17.0172 10.21535-16.95418 10.13997-16.89117 10.0646-16.7901 9.94443-16.7271 9.87007-16.66408 9.79572-16.56302 9.67738-16.5 9.60405-16.437 9.53072-16.33595 9.41388-16.27293 9.3415-16.20992 9.26912-16.10886 9.15376-16.04585 9.08241-15.98283 9.01108-15.88177 8.89748-15.81876 8.82722-15.75575 8.75696-15.6547 8.64522-15.59169 8.57591-15.52867 8.5066-15.42761 8.39598-15.36461 8.32764-15.30159 8.2593-15.20053 8.15051-15.13751 8.08325-15.07451 8.01598-14.97343 7.90901-14.91043 7.84277-14.84741 7.77652-14.74637 7.67104-14.68335 7.60574-14.62035 7.54045-14.51929 7.43643-14.45627 7.37216-14.39325 7.30789-14.29219 7.20573-14.22919 7.14249-14.16617 7.07925-14.06512 6.97855-14.0021 6.91628-13.9391 6.85399-13.83803 6.75478-13.77502 6.69351-13.712 6.63225-13.61095 6.53484-13.54793 6.47466-13.48492 6.41447-13.38388 6.31885-13.32086 6.25967-13.25784 6.20052-13.15678 6.10637-13.09378 6.04816-13.03076 5.98994-12.9297 5.89735-12.86668 5.8401-12.80368 5.78285-12.70262 5.69176-12.63962 5.63551-12.5766 5.57928-12.47554 5.48996-12.41254 5.43481-12.34952 5.37968-12.24846 5.29213-12.18544 5.23802-12.12244 5.1839-12.02138 5.09784-11.95837 5.04468-11.89536 4.99152-11.7943 4.90694-11.73128 4.8548-11.66827 4.80264-11.56721 4.71992-11.5042 4.6688-11.44118 4.61768-11.34012 4.53642-11.27711 4.48627-11.2141 4.4361-11.11305 4.35635-11.05003 4.3072-10.98703 4.25806-10.88596 4.18016-10.82295 4.13203-10.75993 4.0839-10.65887 4.00742-10.59586 3.96031-10.53285 3.9132-10.43181 3.83855-10.36879 3.79248-10.30577 3.7464-10.20471 3.67317-10.14171 3.62811-10.07869 3.58305-9.97763 3.51167-9.91461 3.46764-9.85161 3.4236-9.75055 3.35371-9.68755 3.31064-9.62453 3.26755-9.52347 3.19914-9.46046 3.15707-9.39745 3.11502-9.29639 3.04846-9.23337 3.00742-9.17036 2.96637-9.0693 2.90125-9.0063 2.86122-8.94328 2.8212-8.84222 2.75792-8.7792 2.71892-8.7162 2.6799-8.61514 2.6181-8.55212 2.58008-8.4891 2.54204-8.38805 2.4817-8.32504 2.44469-8.26202 2.40767-8.16098 2.3492-8.09796 2.3132-8.03496 2.2772-7.93388 2.22015-7.87088 2.18517-7.80786 2.15019-7.7068 2.09499-7.64378 2.06104-7.58078 2.02707-7.47974 1.97336-7.41672 1.94035-7.3537 1.90735-7.25264 1.85512-7.18964 1.82314-7.12662 1.79115-7.02556 1.7407-6.96254 1.70981-6.89954 1.6789-6.79848 1.63031-6.73547 1.60039-6.67245 1.57045-6.5714 1.52295-6.50839 1.49397-6.44537 1.465-6.34431 1.41936-6.2813 1.39146-6.21829 1.36357-6.11723 1.31972-6.05423 1.29285-5.99121 1.26596-5.89015 1.2236-5.82713 1.19768-5.76413 1.17177-5.66307 1.13089-5.60005 1.10599-5.53703 1.08109-5.43597 1.04205-5.37297 1.01817-5.30995 .9943-5.20891 .9567-5.14589 .93384-5.08289 .91096-4.98181 .87523-4.91881 .85338-4.85579 .83154-4.75473 .79726-4.69171 .77638-4.62871 .75551-4.52766 .7227-4.46465 .70285-4.40163 .683-4.30057 .65205-4.23756 .63321-4.17455 .61438-4.07349 .58485-4.01047 .56705-3.94746 .54922-3.8464 .52156-3.7834 .50476-3.72038 .48796-3.61932 .46176-3.55632 .44592-3.4933 .43008-3.39224 .40538-3.32922 .39056-3.26622 .37573-3.16516 .35281-3.10216 .33908-3.03914 .32536-2.93808 .30429-2.87506 .29152-2.81206 .27875-2.711 .25871-2.64798 .24696-2.58496 .23521-2.48392 .21747-2.42091 .20674-2.3579 .196-2.25684 .17932-2.19382 .16954-2.13081 .15976-2.02974 .14499-1.96674 .13623-1.90372 .12747-1.80266 .11414-1.73964 .10638-1.67664 .09865-1.57559 .08716-1.51257 .08044-1.44955 .07372-1.3485 .06364-1.28549 .05794-1.22247 .05225-1.12141 .04402-1.0584 .03935-.99539 .03468-.89433 .02792-.83133 .02422-.76831 .0205-.66725 .01523-.60425 .01253-.54123 .00984-.44017 .00641-.37715 .00473-.31415 .00307-.21307 .00107-.15009 .00041-.08708-.00021 .01396-.00034 .07698 0 .13998 .00034 .24104 .00165 .30406 .00302 .36708 .00438 .46812 .00761 .53113 .00993 .59415 .01225 .6952 .01651 .75822 .01988 .82123 .02324 .9223 .02977 .9853 .03415 1.04832 .03853 1.14938 .04605 1.2124 .05145 1.2754 .05685 1.37645 .06667 1.43947 .07309 1.50249 .0795 1.60355 .09036 1.66655 .09775 1.72957 .10512 1.83063 .1179 1.89365 .1263 1.95665 .13469 2.05771 .14888 2.12071 .1583 2.18373 .1677 2.28479 .18376 2.3478 .1942 2.41081 .20462 2.51187 .2221 2.57489 .23355 2.6379 .245 2.73895 .26433 2.80196 .27681 2.86497 .28929 2.96603 .31009 3.02905 .32352 3.09206 .33696 3.19312 .35925 3.25613 .3737 3.31915 .38815 3.4202 .4123 3.4832 .42776 3.54622 .44324 3.64728 .4688 3.7103 .48529 3.7733 .50179 3.87437 .5292 3.93738 .54672 4.0004 .56422 4.10146 .59312 4.16447 .6116 4.22748 .63007 4.32852 .66043 4.39154 .67993 4.45456 .69943 4.55562 .73158 4.61862 .75217 4.68164 .77275 4.7827 .80676 4.84572 .82831 4.90872 .84984 5.00978 .88495 5.07278 .90744 5.1358 .92995 5.23686 .96692 5.29987 .9905 5.36288 1.01407 5.46394 1.05284 5.52696 1.07744 5.58997 1.10204 5.69102 1.14229 5.75403 1.16783 5.81705 1.19339 5.9181 1.23512 5.98112 1.26169 6.04413 1.28827 6.14519 1.33185 6.2082 1.35945 6.27122 1.38704 6.37227 1.43204 6.43527 1.46066 6.49829 1.48929 6.59935 1.53612 6.66237 1.56577 6.72537 1.59541 6.82645 1.64374 6.88945 1.67433 6.95247 1.70494 7.05351 1.75475 7.11653 1.78636 7.17953 1.81798 7.2806 1.86966 7.34361 1.9023 7.40663 1.93494 7.50769 1.98802 7.5707 2.02167 7.63371 2.05533 7.73477 2.11028 7.79779 2.14494 7.8608 2.17963 7.96185 2.23604 8.02486 2.27167 8.08788 2.3073 8.18893 2.3652 8.25194 2.40187 8.31496 2.43854 8.41602 2.49828 8.47903 2.53595 8.54204 2.57364 8.6431 2.6348 8.7061 2.67351 8.76912 2.7122 8.87018 2.77522 8.9332 2.81494 8.9962 2.85466 9.09726 2.91911 9.16028 2.95985 9.2233 3.0006 9.32434 3.06686 9.38734 3.10863 9.45036 3.15039 9.55142 3.21817 9.61444 3.2609 9.67744 3.3036 9.77852 3.37286 9.84152 3.41661 9.90454 3.46034 10.00558 3.53146 10.0686 3.57622 10.1316 3.62097 10.23267 3.69354 10.29568 3.73927 10.3587 3.785 10.45976 3.85905 10.52277 3.9058 10.58578 3.95255 10.68684 4.0284 10.74986 4.07622 10.81287 4.12404 10.91393 4.20169 10.97693 4.25053 11.03995 4.2994 11.141 4.37851 11.20403 4.42831 11.26703 4.47812 11.36809 4.55878 11.4311 4.60954 11.49411 4.6603 11.59517 4.7424 11.65817 4.79424 11.72119 4.84608 11.82225 4.93039 11.88527 4.98326 11.94827 5.03613 12.04933 5.12148 12.11235 5.17531 12.17537 5.22914 12.27641 5.31639 12.33942 5.37125 12.40244 5.4261 12.5035 5.51477 12.56651 5.57063 12.62952 5.62651 12.73059 5.71704 12.7936 5.77393 12.85661 5.83081 12.95766 5.92285 13.02068 5.9807 13.08368 6.03854 13.18474 6.13205 13.24776 6.1909 13.31078 6.24977 13.41183 6.34508 13.47484 6.40501 13.53786 6.46495 13.63892 6.5621 13.70193 6.623 13.76494 6.68391 13.866 6.78209 13.929 6.84402 13.99202 6.90596 14.09308 7.00644 14.1561 7.06938 14.2191 7.13234 14.32016 7.23386 14.38318 7.29776 14.44618 7.36168 14.54724 7.4651 14.61024 7.53003 14.67326 7.59496 14.77432 7.69983 14.83734 7.76578 14.90034 7.83171 15.0014 7.93843 15.06442 8.0054 15.12744 8.07236 15.22849 8.1805 15.29149 8.24847 15.3545 8.31647 15.45557 8.42647 15.51859 8.49547 15.58159 8.56447 15.68266 8.67589 15.74567 8.74591 15.80869 8.81592 15.90973 8.92924 15.97275 9.00023 16.03575 9.07123 16.13681 9.1856 16.19983 9.2576 16.26285 9.32962 16.3639 9.44624 16.42691 9.51927 16.48993 9.5923 16.59097 9.71 16.65399 9.784 16.717 9.85799 16.81807 9.97754 16.88107 10.0526 16.94409 10.12767 17.04515 10.24901 17.10817 10.3251 17.17117 10.40118 17.27223 10.52402 17.33525 10.60106 17.39825 10.6781 17.49931 10.8024 17.56232 10.88048 17.62534 10.95856 17.7264 11.0847 17.78941 11.16379 17.85242 11.24289 17.95348 11.37045 18.0165 11.45056 18.07951 11.53067 18.18056 11.6601 18.24356 11.74123 18.30658 11.82236 18.40764 11.95326 18.47066 12.03535 18.53366 12.11745 18.63474 12.24983 18.69774 12.33295 18.76076 12.41606 18.8618 12.5503 18.92482 12.63441 18.98782 12.71855 19.08888 12.8542 19.1519 12.93935 19.21492 13.0245 19.31598 13.16203 19.37898 13.2482 19.442 13.33437 19.54305 13.47334 19.60606 13.56047 19.66907 13.64761 19.77014 13.78809 19.83315 13.87624 19.89616 13.96439 19.99722 14.10672 20.06024 14.19589 20.12325 14.28506 20.2243 14.4288 20.28732 14.519 20.35033 14.60919 20.45139 14.75478 20.51439 14.846 20.57741 14.9372 20.67847 15.08427 20.74149 15.17645 20.80449 15.26862 20.90555 15.41718 20.96857 15.51036 21.03159 15.60355 21.13263 15.75389 21.19563 15.84818 21.25865 15.94246 21.35971 16.09465 21.42273 16.18988 21.48573 16.28513 21.5868 16.43837 21.64981 16.53462 21.71283 16.63087 21.81387 16.78639 21.87689 16.88367 21.9399 16.98096 22.04095 17.13751 22.10397 17.23575 22.16699 17.33398 22.26805 17.49248 22.33105 17.59174 22.39407 17.691 22.49512 17.8509 22.55814 17.95117 22.62114 18.05144 22.72221 18.21323 22.78522 18.31451 22.84824 18.4158 22.9493 18.57898 23.01231 18.68129 23.07532 18.7836 23.17638 18.94864 23.2394 19.05197 23.3024 19.15532 23.40346 19.32182 23.46646 19.42613 23.52948 19.53043 23.63054 19.69841 23.69356 19.80373 23.75656 19.90906 23.85762 20.07884 23.92064 20.18524 23.98366 20.29164 24.0847 20.46327 24.1477 20.57063 24.21072 20.67798 24.31178 20.85074 24.3748 20.95905 24.4378 21.06737 24.53888 21.24196 24.60188 21.35135 24.6649 21.46075 24.76595 21.63715 24.82896 21.74756 24.89197 21.85797 24.99303 22.03584 25.05605 22.14722 25.11906 22.2586 25.22012 22.43794 25.28313 22.55035 25.34615 22.66275 25.44719 22.84395 25.51021 22.95737 25.57321 23.07079 25.67429 23.25346 25.73729 23.36784 25.80031 23.48222 25.90137 23.66638 25.96439 23.78178 26.02739 23.89719 26.12843 24.08315 26.19145 24.19963 26.25446 24.3161 26.35553 24.50385 26.41853 24.62134 26.48155 24.73885 26.58261 24.92807 26.64563 25.04652 26.70863 25.16498 26.8097 25.35576 26.87271 25.47517 26.93573 25.5946 27.03677 25.78683 27.09978 25.90727 27.1628 26.02773 27.26385 26.22174 27.32687 26.34328 27.38988 26.4648 27.49095 26.66063 27.55396 26.78317 27.61697 26.90572 27.71802 27.10303 27.78104 27.22652 27.84404 27.35002 27.9451 27.54881 28.00812 27.67334 28.07114 27.79785 28.1722 27.99849 28.2352 28.12404 28.29822 28.24957 28.39926 28.4517 28.46228 28.5782 28.52528 28.7047 28.62636 28.90833 28.68936 29.03583 28.75238 29.16335 28.85344 29.3688 28.91646 29.49734 28.97946 29.6259 29.0805 29.83275 29.14352 29.96231 29.20653 30.09189 29.3076 30.30061 29.3706 30.4312 29.43362 30.56178 29.53468 30.77193 29.5977 30.90353 29.6607 31.03514 29.76176 31.24713 29.82478 31.37975 29.8878 31.51237 29.98885 31.72585 30.05185 31.85944 30.11487 31.99301 30.21593 32.20798 30.27895 32.34258 30.34195 32.47717 30.44302 32.694 30.50603 32.82962 30.56905 32.96524 30.67009 33.18346 30.73311 33.32011 30.79611 33.45677 30.89717 33.67685 30.96019 33.81451 31.02321 33.95218 31.12427 34.17374 31.18727 34.31236 31.25029 34.45099 31.35133 34.67401 31.41435 34.81366 31.47736 34.95331 31.57843 35.1782 31.64143 35.31886 31.70445 35.45953 31.80551 35.68587 31.86853 35.82755 31.93153 35.96922 32.03258 36.19739 32.0956 36.34009 32.1586 36.48279 32.25967 36.71245 32.32268 36.85611 32.3857 36.99977 32.48676 37.2309 32.54977 37.3756 32.61278 37.52028 32.71382 37.75325 32.77684 37.89897 32.83986 38.04468 32.94092 38.27907 33.00392 38.4258 33.06694 38.57253 33.168 38.80878 33.23102 38.95653 33.29402 39.10426 33.3951 39.34193 33.4581 39.4907 33.52112 39.63947 33.62216 39.879 33.68518 40.02878 33.74818 40.17856 33.84924 40.41957 33.91226 40.57031 33.97528 40.72105 34.07634 40.96355 34.13934 41.11531 34.20236 41.26707 34.3034 41.51141 34.36642 41.6642 34.42943 41.817 34.5305 42.06274 34.5935 42.21655 34.65652 42.37036 34.75758 42.61797 34.8206 42.7728 34.8836 42.92763 34.98465 43.17671 35.04767 43.3325 35.11067 43.4883 35.21175 43.73886 35.27475 43.89568 35.33777 44.05249 35.43883 44.3049 35.50185 44.46272 35.56485 44.62054 35.6659 44.87439 35.72891 45.03323 35.79193 45.19208 35.89299 45.4478 35.956 45.60767 36.01901 45.76752 36.12007 46.02472 36.18309 46.18553 36.2461 46.34636 36.34717 46.605 36.41017 46.76686 36.47319 46.92871 36.57423 47.18921 36.63725 47.35208 36.70026 47.51497 36.80132 47.77687 36.86433 47.94077 36.92735 48.10466 37.02841 48.36842 37.09142 48.53334 37.15443 48.69826 37.25548 48.96346 37.3185 49.12938 37.3815 49.2953 37.48257 49.56236 37.54558 49.72931 37.6086 49.89626 37.70966 50.1648 37.77267 50.33269 37.83568 50.5006 37.93672 50.77061 37.99974 50.93956 38.06274 51.10849 38.16382 51.38034 38.22682 51.5503 38.28984 51.72026 38.3909 51.99353 38.45392 52.1645 38.51692 52.33548 38.61797 52.61061 38.68098 52.7826 38.744 52.95459 38.84506 53.2312 38.90807 53.40414 38.97108 53.5771 39.07214 53.85521 39.13516 54.02917 39.19817 54.20316 39.29924 54.4831 39.36224 54.65808 39.42526 54.83307 39.5263 55.11444 39.58932 55.29045 39.65233 55.46646 39.75339 55.7497 39.8164 55.92671 39.87943 56.10374 39.98048 56.38843 40.04349 56.56644 40.1065 56.74443 40.20755 57.03061 40.27057 57.20963 40.33357 57.38864 40.43465 57.67667 40.49765 57.8567 40.56067 58.03674 40.66173 58.32619 40.72475 58.50723 40.78775 58.6883 40.8888 58.9796 40.95181 59.16167 41.01482 59.34375 41.11589 59.63646 41.1789 59.81955 41.24191 60.00264 41.34297 60.29723 41.40599 60.48134 41.469 60.66545 41.57005 60.9615 41.63306 61.14658 41.69608 61.33165 41.79713 61.62918 41.86014 61.81528 41.92316 62.00139 42.02422 62.30075 42.08723 62.48787 42.15024 62.675 42.2513 62.9758 42.3143 63.16394 42.37732 63.35208 42.47838 63.65474 42.5414 63.84389 42.6044 64.03305 42.70546 64.33719 42.76848 64.5273 42.8315 64.7174 42.93256 65.02304 42.99556 65.21417 43.05858 65.4053 43.15962 65.71278 43.22264 65.90494 43.28564 66.09709 43.38672 66.40599 43.44972 66.59917 43.51274 66.79233 43.6138 67.10309 43.67682 67.29729 43.73982 67.49147 43.84087 67.8037 43.90388 67.99886 43.96689 68.19402 44.06796 68.5077 44.13097 68.70389 44.19398 68.90007 44.29504 69.21562 44.35806 69.41281 44.42107 69.61002 44.52213 69.927 44.58513 70.12521 44.64815 70.32343 44.7492 70.64224 44.81221 70.84149 44.87523 71.04073 44.97629 71.36098 45.0393 71.56123 45.10231 71.76149 45.20337 72.08359 45.26637 72.28487 45.32939 72.48615 45.43045 72.80972 45.49347 73.01196 45.55647 73.2142 45.65753 73.53926 45.72055 73.74252 45.78357 73.94579 45.88463 74.27269 45.94763 74.47697 46.01065 74.68126 46.1117 75.00964 46.17471 75.21487 46.23772 75.42012 46.33879 75.74998 46.4018 75.95625 46.46481 76.1625 46.56587 76.49417 46.62889 76.7015 46.6919 76.90886 46.79294 77.24231 46.85596 77.45067 46.91896 77.65903 47.02003 77.99397 47.08304 78.2033 47.14606 78.4126 47.24712 78.74908 47.31013 78.95935 47.37314 79.16963 47.4742 79.50758 47.5372 79.71889 47.60022 79.9302 47.70128 80.26993 47.76428 80.48232 47.8273 80.6947 47.92836 81.03625 47.99138 81.24965 48.05438 81.46306 48.15544 81.80606 48.21844 82.02043 48.28146 82.23479 48.38252 82.5793 48.44554 82.79468 48.50854 83.01006 48.6096 83.35641 48.67262 83.57281 48.73564 83.78922 48.8367 84.13704 48.8997 84.3544 48.96272 84.57176 49.06377 84.92108 49.12679 85.13947 49.18979 85.35783 49.29086 85.70894 49.35387 85.92842 49.41689 86.14789 49.51794 86.50082 49.58096 86.72125 49.64397 86.94168 49.74501 87.29575 49.80803 87.51714 49.87103 87.73851 49.9721 88.09442 50.03511 88.3169 50.09813 88.53935 50.19919 88.89706 50.2622 89.12054 50.32521 89.34402 50.42627 89.70322 50.48927 89.92766 50.55229 90.1521 50.65335 90.51277 50.71635 90.73824 50.77937 90.96368 50.88043 91.32623 50.94345 91.5527 51.00645 91.77919 51.10751 92.14314 51.17052 92.37064 51.23354 92.59813 51.3346 92.96393 51.39761 93.19246 51.46062 93.42099 51.56168 93.7882 51.6247 94.01773 51.68771 94.24728 51.78876 94.61641 51.85176 94.84691 51.91478 95.07742 52.01584 95.44759 52.07886 95.67912 52.14186 95.91064 52.24294 96.28311 52.30594 96.51566 52.36896 96.7482 52.47002 97.1217 52.53304 97.35521 52.59604 97.58871 52.69708 97.96407 52.7601 98.19864 52.8231 98.43323 52.92418 98.81038 52.98718 99.04599 53.0502 99.2816 53.15126 99.66023 53.21428 99.8968 53.27728 100.13338 53.37834 100.51347 53.44135 100.75105 53.50436 100.98865 53.60542 101.3706 53.66843 101.6092 53.73145 101.84782 53.8325 102.2312 53.89552 102.47083 53.95853 102.71045 54.05959 103.09569 54.12259 103.33633 54.18561 103.57698 54.28667 103.96371 54.34969 104.2053 54.41269 104.44691 54.51375 104.83511 54.57677 105.07774 54.63979 105.32036 54.74083 105.71042 54.80383 105.95406 54.86685 106.1977 54.96791 106.58917 55.03093 106.83385 55.09393 107.07852 55.195 107.47182 55.25801 107.71751 55.32103 107.96321 55.42209 108.358 55.4851 108.60466 55.54811 108.85132 55.64915 109.24757 55.71217 109.49525 55.77518 109.74292 55.87625 110.14105 55.93925 110.38974 56.00227 110.63843 56.10333 111.03798 56.16635 111.28769 56.22935 111.5374 56.33041 111.9388 56.39342 112.18953 56.45644 112.44026 56.6205 113.09482 56.6205 113.09482"/>
<use data-text="y" xlink:href="#font_1_6" transform="matrix(9.9626,0,0,-9.963098,124.196,11.814941)" fill="#0000ff"/>
<use data-text="=" xlink:href="#font_2_4" transform="matrix(9.9626,0,0,-9.963098,132.206,11.814941)" fill="#0000ff"/>
<use data-text="f" xlink:href="#font_1_2" transform="matrix(9.9626,0,0,-9.963098,142.722,11.814941)" fill="#0000ff"/>
<use data-text="(" xlink:href="#font_2_1" transform="matrix(9.9626,0,0,-9.963098,148.672,11.814941)" fill="#0000ff"/>
<use data-text="x" xlink:href="#font_1_5" transform="matrix(9.9626,0,0,-9.963098,152.54599,11.814941)" fill="#0000ff"/>
<use data-text=")" xlink:href="#font_2_2" transform="matrix(9.9626,0,0,-9.963098,158.23999,11.814941)" fill="#0000ff"/>
<path transform="matrix(1,0,0,-1.00005,63.856004,131.1259)" stroke-width=".79701" stroke-linecap="butt" stroke-miterlimit="10" stroke-linejoin="miter" fill="none" stroke="#ff0000" d="M-40.08847 113.38724C-40.08847 113.38724-39.97253 112.73245-39.92801 112.48148-39.88348 112.23051-39.81206 111.82823-39.76753 111.57835-39.723 111.32846-39.65158 110.92921-39.60706 110.6804-39.56253 110.43158-39.49112 110.0329-39.4466 109.78505-39.40205 109.5372-39.33064 109.14091-39.28612 108.89401-39.2416 108.64713-39.17017 108.2515-39.12564 108.00558-39.08112 107.75966-39.0097 107.36632-38.96516 107.12148-38.92064 106.87663-38.84923 106.48459-38.8047 106.24083-38.76018 105.99707-38.68875 105.60732-38.64423 105.3645-38.5997 105.1217-38.52827 104.73262-38.48375 104.49077-38.43922 104.24893-38.36781 103.86214-38.32329 103.62137-38.27876 103.3806-38.20734 102.99525-38.16281 102.75543-38.11829 102.51563-38.04686 102.13168-38.00233 101.89296-37.95781 101.65422-37.8864 101.27257-37.84187 101.0348-37.79733 100.79704-37.72592 100.41605-37.6814 100.17924-37.63687 99.94244-37.56544 99.56374-37.52092 99.32802-37.4764 99.0923-37.40498 98.715-37.36044 98.48024-37.31592 98.24547-37.2445 97.86972-37.19998 97.63591-37.15546 97.40211-37.08403 97.02779-37.0395 96.79506-36.99498 96.56233-36.92355 96.19019-36.87903 95.95854-36.8345 95.7269-36.76309 95.35617-36.71857 95.12547-36.67404 94.89479-36.60262 94.52559-36.55809 94.29585-36.51357 94.06613-36.44214 93.69849-36.39761 93.46973-36.35309 93.24097-36.28168 92.8747-36.23715 92.64702-36.19261 92.41934-36.1212 92.05527-36.07668 91.82867-36.03215 91.60207-35.96074 91.23953-35.91621 91.01376-35.87169 90.788-35.80028 90.42615-35.75574 90.20146-35.71121 89.97678-35.6398 89.61795-35.59528 89.39435-35.55075 89.17075-35.47932 88.81247-35.4348 88.58983-35.39027 88.36717-35.31885 88.0113-35.27432 87.78963-35.2298 87.56793-35.15839 87.21274-35.11386 86.99202-35.06934 86.7713-34.99791 86.4184-34.95338 86.19875-34.90886 85.97911-34.83743 85.62749-34.79291 85.40894-34.74838 85.19037-34.67697 84.84105-34.63245 84.62344-34.58792 84.40585-34.5165 84.0572-34.47197 83.84056-34.42744 83.62392-34.35602 83.27756-34.3115 83.062-34.26697 82.84642-34.19556 82.50148-34.15103 82.28687-34.10649 82.07227-34.03508 81.72876-33.99055 81.51523-33.94603 81.30171-33.8746 80.96046-33.83008 80.7479-33.78555 80.53532-33.71414 80.19478-33.6696 79.98318-33.62508 79.77158-33.55367 79.43329-33.50914 79.22278-33.46461 79.01225-33.39319 78.6754-33.34866 78.46584-33.30414 78.25629-33.23271 77.92084-33.18819 77.71236-33.14366 77.50388-33.07225 77.17072-33.02773 76.9632-32.9832 76.75568-32.91177 76.42322-32.86725 76.21664-32.82272 76.01009-32.7513 75.6799-32.70677 75.47441-32.66225 75.26892-32.59084 74.94014-32.54631 74.73563-32.50177 74.53111-32.43036 74.20387-32.38583 74.00032-32.34131 73.79677-32.26988 73.47095-32.22536 73.26846-32.18083 73.066-32.10942 72.74232-32.06488 72.54092-32.02036 72.33954-31.94894 72.0173-31.90442 71.81686-31.8599 71.61642-31.78847 71.29573-31.74394 71.09625-31.69942 70.89677-31.62799 70.57762-31.58347 70.3791-31.53894 70.18057-31.46753 69.86285-31.423 69.66542-31.37848 69.46797-31.30705 69.15242-31.26253 68.95605-31.218 68.75969-31.14658 68.44554-31.10205 68.25015-31.05753 68.05476-30.98613 67.74216-30.9416 67.54771-30.89706 67.35329-30.82565 67.0422-30.78113 66.84872-30.7366 66.65526-30.66518 66.34561-30.62065 66.15321-30.57613 65.96082-30.50471 65.65334-30.46017 65.46202-30.41565 65.2707-30.34424 64.96465-30.29971 64.77429-30.25519 64.58392-30.18376 64.2794-30.13924 64.09-30.09471 63.90059-30.02328 63.59763-29.97876 63.4092-29.93423 63.22076-29.86282 62.91919-29.8183 62.73184-29.77377 62.5445-29.70235 62.2452-29.65782 62.0588-29.6133 61.8724-29.54187 61.5738-29.49734 61.38838-29.45282 61.20294-29.38141 60.9065-29.33688 60.72226-29.29234 60.53802-29.22093 60.24376-29.1764 60.06049-29.13188 59.87721-29.06046 59.58362-29.01593 59.40129-28.9714 59.21898-28.9 58.92778-28.85545 58.74643-28.81093 58.56506-28.73952 58.27454-28.69499 58.09416-28.65047 57.91377-28.57904 57.6254-28.53452 57.44621-28.48999 57.26703-28.41856 56.98083-28.37404 56.80261-28.32951 56.62439-28.2581 56.33885-28.21358 56.16159-28.16905 55.98431-28.09763 55.7012-28.0531 55.52489-28.00858 55.34857-27.93715 55.06613-27.89262 54.89078-27.8481 54.71542-27.77669 54.43517-27.73216 54.261-27.68762 54.08685-27.61621 53.80876-27.57169 53.63557-27.52716 53.46237-27.45573 53.18507-27.41121 53.01271-27.36668 52.84035-27.29527 52.56458-27.25073 52.39331-27.2062 52.22205-27.1348 51.94844-27.09027 51.77824-27.04575 51.60806-26.97432 51.33586-26.9298 51.16663-26.88527 50.9974-26.81384 50.72664-26.76932 50.55849-26.7248 50.39034-26.65338 50.12186-26.60886 49.95467-26.56433 49.78748-26.4929 49.51967-26.44838 49.35342-26.40385 49.1872-26.33243 48.92169-26.2879 48.75653-26.24338 48.59138-26.17197 48.32729-26.12744 48.16309-26.0829 47.99889-26.0115 47.7362-25.96698 47.5731-25.92245 47.41-25.85103 47.1496-25.8065 46.98746-25.76198 46.8253-25.69057 46.56558-25.64603 46.4044-25.6015 46.24321-25.53009 45.98576-25.48557 45.82565-25.44104 45.66554-25.36961 45.40953-25.32509 45.25038-25.28056 45.09123-25.20914 44.83662-25.16461 44.67856-25.12009 44.5205-25.04868 44.26819-25.00415 44.11107-24.95963 43.95396-24.8882 43.70233-24.84367 43.54619-24.79915 43.39003-24.72772 43.14069-24.6832 42.98561-24.63867 42.83054-24.56726 42.58261-24.52274 42.4285-24.4782 42.2744-24.40678 42.02788-24.36226 41.87486-24.31773 41.72183-24.2463 41.4776-24.20178 41.32553-24.15726 41.17348-24.08585 40.9299-24.0413 40.7788-23.99678 40.62769-23.92537 40.38643-23.88084 40.2364-23.83632 40.08638-23.7649 39.84653-23.72037 39.69745-23.67584 39.54839-23.60442 39.30997-23.55989 39.16197-23.51537 39.01399-23.44395 38.77783-23.39943 38.63081-23.3549 38.4838-23.28348 38.24832-23.23895 38.10226-23.19443 37.9562-23.123 37.723-23.07848 37.57802-23.03395 37.43304-22.96254 37.20126-22.91801 37.05725-22.87349 36.91322-22.80206 36.68286-22.75754 36.53992-22.71301 36.39697-22.64159 36.16891-22.59706 36.02693-22.55254 35.88495-22.48112 35.65758-22.4366 35.51654-22.39206 35.37552-22.32065 35.15042-22.27612 35.01047-22.2316 34.87051-22.16017 34.64684-22.11565 34.50786-22.07112 34.36888-21.99971 34.14662-21.95517 34.00871-21.91064 33.87082-21.83923 33.65083-21.79471 33.5139-21.75018 33.37695-21.67876 33.15765-21.63423 33.02167-21.5897 32.88568-21.51828 32.66867-21.47375 32.53377-21.42923 32.39886-21.35782 32.18326-21.3133 32.04932-21.26877 31.91537-21.19734 31.7012-21.15282 31.56834-21.10829 31.43549-21.03688 31.22359-20.99236 31.09169-20.94783 30.95978-20.87642 30.74857-20.8319 30.61761-20.78735 30.48666-20.71594 30.27774-20.67142 30.14789-20.62689 30.01804-20.55547 29.81052-20.51094 29.68161-20.46642 29.55272-20.395 29.3466-20.35046 29.21878-20.30594 29.09097-20.23453 28.88704-20.19 28.7603-20.14548 28.63356-20.07405 28.43117-20.02953 28.30527-19.985 28.17937-19.91357 27.97777-19.86905 27.85283-19.82452 27.72789-19.75311 27.52846-19.70859 27.40472-19.66406 27.28098-19.59264 27.08372-19.54811 26.96094-19.50359 26.83817-19.43216 26.64157-19.38763 26.51974-19.34311 26.39793-19.2717 26.20375-19.22717 26.08289-19.18263 25.96204-19.11122 25.76851-19.0667 25.64862-19.02217 25.52872-18.95074 25.33737-18.90622 25.21867-18.8617 25.09998-18.79028 24.91081-18.74574 24.79306-18.70122 24.67532-18.6298 24.48682-18.58528 24.37004-18.54076 24.25327-18.46933 24.06717-18.4248 23.95135-18.38028 23.83553-18.30885 23.6501-18.26433 23.53523-18.2198 23.42038-18.14839 23.23712-18.10387 23.12346-18.05934 23.0098-17.98792 22.8287-17.94339 22.71602-17.89886 22.60333-17.82744 22.4229-17.78291 22.31116-17.73839 22.19943-17.66698 22.02129-17.62245 21.91063-17.57791 21.79997-17.5065 21.62326-17.46198 21.51357-17.41745 21.40385-17.34602 21.22868-17.3015 21.11995-17.25697 21.01122-17.18556 20.83759-17.14102 20.72981-17.0965 20.62202-17.02509 20.44981-16.98056 20.34311-16.93604 20.2364-16.86461 20.06638-16.82008 19.96075-16.77556 19.85513-16.70413 19.6865-16.6596 19.58185-16.61508 19.47719-16.54367 19.31009-16.49915 19.2064-16.45462 19.1027-16.3832 18.93716-16.33867 18.83443-16.29414 18.73169-16.22272 18.56755-16.17819 18.4659-16.13367 18.36424-16.06226 18.20229-16.01773 18.1017-15.97319 18.00113-15.9018 17.84058-15.85727 17.74097-15.81274 17.64134-15.74132 17.48235-15.6968 17.38368-15.65227 17.28502-15.58086 17.12756-15.53632 17.02988-15.49179 16.93219-15.42038 16.77612-15.37585 16.6795-15.33133 16.5829-15.2599 16.42902-15.21538 16.33348-15.17085 16.23796-15.09943 16.08548-15.0549 15.9909-15.01038 15.89633-14.93896 15.7454-14.89444 15.6518-14.84991 15.55818-14.77849 15.40869-14.73396 15.31615-14.68944 15.22362-14.61801 15.0764-14.57349 14.98483-14.52896 14.89325-14.45755 14.74672-14.41302 14.6561-14.36848 14.56548-14.29707 14.42123-14.25255 14.3317-14.20802 14.24217-14.1366 14.09933-14.09207 14.01076-14.04755 13.92218-13.97614 13.78075-13.9316 13.69327-13.88707 13.60577-13.81566 13.46664-13.77113 13.38013-13.72661 13.2936-13.65518 13.15514-13.61066 13.06956-13.56613 12.984-13.4947 12.84781-13.45018 12.76332-13.40565 12.67882-13.33424 12.54407-13.28972 12.46054-13.2452 12.377-13.17377 12.24368-13.12924 12.16122-13.08472 12.07877-13.01329 11.94772-12.96877 11.86623-12.92424 11.78473-12.85283 11.65436-12.8083 11.57384-12.76376 11.49332-12.69235 11.3652-12.64783 11.28575-12.6033 11.20631-12.53188 11.07953-12.48735 11.00116-12.44283 10.92279-12.37141 10.79828-12.32687 10.72087-12.28235 10.64346-12.21094 10.51964-12.16641 10.44319-12.12189 10.36674-12.05046 10.2453-12.00594 10.16982-11.96141 10.09431-11.88998 9.97346-11.84546 9.89905-11.80093 9.82463-11.72952 9.7068-11.685 9.63347-11.64047 9.56013-11.56905 9.44298-11.52452 9.3705-11.48 9.298-11.40857 9.18237-11.36404 9.11096-11.31952 9.03957-11.24811 8.92609-11.20358 8.85577-11.15906 8.78545-11.08763 8.67339-11.0431 8.60402-10.99858 8.53465-10.92717 8.42416-10.88264 8.35576-10.83812 8.28735-10.76671 8.17839-10.72218 8.11093-10.67764 8.04349-10.60623 7.93596-10.5617 7.86958-10.51718 7.8032-10.44576 7.69785-10.40123 7.63255-10.3567 7.56726-10.2853 7.46332-10.24075 7.39897-10.19623 7.33464-10.12482 7.23222-10.08029 7.16887-10.03577 7.1055-9.96434 7.0045-9.91982 6.94221-9.87529 6.87994-9.80386 6.78122-9.75934 6.7199-9.71481 6.65857-9.6434 6.56053-9.59888 6.50017-9.55435 6.43979-9.48293 6.34406-9.4384 6.28476-9.39388 6.22548-9.32245 6.13115-9.27792 6.07281-9.2334 6.01448-9.16199 5.92159-9.11746 5.86433-9.07292 5.80708-9.00151 5.71646-8.95699 5.66017-8.91246 5.60388-8.84103 5.51393-8.79651 5.45862-8.75198 5.40329-8.68057 5.31563-8.63603 5.26138-8.5915 5.20714-8.5201 5.12076-8.47557 5.0676-8.43105 5.01443-8.35962 4.93036-8.3151 4.87816-8.27057 4.82596-8.19914 4.74254-8.15462 4.6913-8.11009 4.64005-8.03868 4.55893-7.99416 4.50876-7.94963 4.4586-7.8782 4.37889-7.83368 4.32968-7.78915 4.28047-7.71773 4.20233-7.6732 4.15408-7.62868 4.10583-7.55727 4.0292-7.51274 3.98192-7.4682 3.93465-7.39679 3.85944-7.35226 3.81325-7.30774 3.76704-7.23631 3.694-7.19179 3.64888-7.14726 3.60376-7.07585 3.53212-7.03131 3.48796-6.98679 3.4438-6.91537 3.37373-6.87085 3.33054-6.82632 3.28732-6.7549 3.21878-6.71037 3.17654-6.66585 3.1343-6.59442 3.06718-6.5499 3.02602-6.50537 2.98485-6.43396 2.9199-6.38943 2.87982-6.34491 2.83974-6.27348 2.7762-6.22896 2.73708-6.18443 2.69797-6.113 2.63597-6.06848 2.59781-6.02396 2.55966-5.95256 2.49907-5.90804 2.462-5.8635 2.42493-5.79208 2.36662-5.74756 2.3305-5.70303 2.29439-5.6316 2.23677-5.58708 2.2016-5.54256 2.16644-5.47115 2.11111-5.4266 2.07704-5.38208 2.04295-5.31067 1.98892-5.26614 1.95592-5.22162 1.92293-5.15019 1.87119-5.10567 1.83914-5.06114 1.8071-4.98972 1.75603-4.94519 1.72495-4.90067 1.69386-4.82925 1.64508-4.78473 1.61508-4.7402 1.58508-4.66878 1.53772-4.62425 1.50868-4.57973 1.47964-4.5083 1.4338-4.46378 1.40573-4.41925 1.37766-4.34784 1.33337-4.30331 1.30626-4.25877 1.27913-4.18736 1.23627-4.14284 1.21022-4.09831 1.18417-4.02689 1.14348-3.98236 1.11853-3.93784 1.09357-3.86642 1.05429-3.82188 1.03029-3.77736 1.00629-3.70595 .96854-3.66142 .94551-3.6169 .92249-3.54547 .88614-3.50095 .8642-3.45642 .84224-3.385 .8082-3.34047 .7872-3.29594 .7662-3.22453 .73285-3.18001 .71281-3.13548 .69278-3.06406 .66168-3.01953 .64273-2.975 .62378-2.90358 .59413-2.85905 .57613-2.81453 .55814-2.74312 .52989-2.6986 .51297-2.65405 .49605-2.58264 .46999-2.53812 .45415-2.49359 .43831-2.42216 .41377-2.37764 .39879-2.33311 .3838-2.2617 .35992-2.21716 .34602-2.17264 .3321-2.10123 .31126-2.0567 .29843-2.01218 .28561-1.94075 .26544-1.89622 .25345-1.8517 .24146-1.78027 .22284-1.73575 .21193-1.69122 .201-1.61981 .18456-1.57529 .17473-1.53076 .16489-1.45934 .14987-1.41481 .14099-1.37029 .13211-1.29886 .11862-1.25433 .1107-1.20981 .10278-1.1384 .09071-1.09387 .0839-1.04935 .07707-.97794 .06728-.93341 .0614-.88889 .05554-.81746 .04642-.77293 .0415-.72841 .0366-.657 .02977-.61246 .02594-.56793 .02211-.49652 .0167-.452 .01382-.40747 .01096-.33604 .00697-.29152 .00517-.247 .00339-.17557 .00156-.13104 .00084-.08652 .00012-.01512-.00009 .02939 0 .07391 .00009 .14534 .00052 .18987 .00171 .23439 .0029 .30582 .00636 .35034 .00864 .39487 .01093 .46628 .01505 .5108 .01816 .55533 .02127 .62675 .02693 .67128 .03113 .7158 .03532 .78723 .04315 .83176 .04843 .87628 .0537 .9477 .06296 .99222 .0692 1.03676 .07542 1.10817 .08621 1.1527 .09341 1.19722 .1006 1.26865 .11282 1.31317 .1211 1.3577 .12936 1.42911 .14388 1.47365 .1531 1.51817 .16234 1.58958 .1775 1.63411 .18771 1.67863 .1979 1.75006 .21536 1.79459 .22664 1.83911 .23792 1.91054 .25667 1.95506 .26903 1.99959 .28139 2.071 .30241 2.11552 .31573 2.16005 .32906 2.23148 .35078 2.276 .36505 2.32053 .37933 2.39195 .40334 2.43648 .41869 2.481 .43404 2.55241 .45947 2.59694 .47578 2.64148 .4921 2.71289 .51906 2.75742 .53633 2.80194 .5536 2.87337 .5821 2.9179 .60034 2.96242 .61859 3.03383 .64851 3.07837 .66783 3.1229 .68715 3.1943 .71922 3.23883 .73962 3.28336 .76003 3.35478 .79352 3.3993 .81488 3.44383 .83624 3.51526 .87129 3.55978 .89362 3.60431 .91592 3.67572 .9524 3.72025 .9758 3.76477 .99919 3.8362 1.03793 3.88072 1.06229 3.92525 1.08664 3.99666 1.1261 4.04118 1.15141 4.08571 1.17671 4.15712 1.21843 4.20164 1.24483 4.24619 1.27121 4.3176 1.31424 4.36212 1.34172 4.40665 1.3692 4.47807 1.41449 4.5226 1.44293 4.56712 1.47137 4.63853 1.51735 4.68307 1.54675 4.7276 1.57614 4.79901 1.6244 4.84354 1.65488 4.88806 1.68536 4.95949 1.73505 5.00401 1.76648 5.04854 1.79791 5.11996 1.84914 5.16449 1.88153 5.20901 1.91393 5.28043 1.96657 5.32495 2.00005 5.36948 2.03351 5.4409 2.08844 5.48543 2.1229 5.52995 2.15733 5.60138 2.21292 5.6459 2.24832 5.69043 2.28372 5.76184 2.3416 5.80637 2.37808 5.8509 2.41457 5.92232 2.47374 5.96684 2.51129 6.01137 2.54886 6.0828 2.61032 6.12732 2.64885 6.17184 2.68736 6.24326 2.74951 6.2878 2.78899 6.33232 2.82848 6.40373 2.8929 6.44826 2.93346 6.49278 2.97401 6.56421 3.03987 6.60873 3.08139 6.65326 3.12291 6.72469 3.19029 6.76921 3.23277 6.81374 3.27524 6.88515 3.34406 6.92967 3.38762 6.9742 3.43118 7.04562 3.50227 7.09015 3.5468 7.13467 3.59132 7.2061 3.66307 7.25063 3.70856 7.29515 3.75404 7.36656 3.8281 7.41109 3.87466 7.45563 3.92122 7.52704 3.9967 7.57156 4.04422 7.61609 4.09174 7.68752 4.16864 7.73204 4.21724 7.77657 4.26584 7.84798 4.34488 7.89252 4.39456 7.93704 4.44424 8.00845 4.52473 8.05298 4.57538 8.0975 4.62602 8.16893 4.70801 8.21346 4.75963 8.25798 4.81123 8.3294 4.89479 8.37393 4.94736 8.41846 4.99992 8.48987 5.085 8.5344 5.13853 8.57892 5.19206 8.65034 5.27858 8.69487 5.33318 8.7394 5.38779 8.81082 5.47646 8.85535 5.53215 8.89987 5.58783 8.97127 5.67793 9.0158 5.73457 9.06033 5.79121 9.13174 5.88286 9.17627 5.94046 9.2208 5.99806 9.29222 6.09114 9.33675 6.14981 9.38127 6.2085 9.45268 6.30373 9.49722 6.36348 9.54175 6.42323 9.61316 6.5199 9.65768 6.58063 9.70221 6.64136 9.77364 6.73952 9.81816 6.80121 9.86269 6.8629 9.93411 6.96262 9.97864 7.02527 10.02316 7.08792 10.09457 7.18918 10.1391 7.25278 10.18362 7.31639 10.25505 7.41907 10.29958 7.48376 10.3441 7.54845 10.41553 7.65329 10.46005 7.71906 10.50458 7.78482 10.57599 7.8911 10.62051 7.95782 10.66505 8.02454 10.73647 8.13235 10.78099 8.20004 10.82552 8.26775 10.89694 8.37695 10.94147 8.44572 10.986 8.5145 11.0574 8.62587 11.10194 8.69572 11.14647 8.76558 11.21788 8.87839 11.2624 8.9492 11.30693 9.02 11.37836 9.13435 11.42288 9.20613 11.4674 9.2779 11.53883 9.39378 11.58336 9.4665 11.62788 9.53923 11.6993 9.65666 11.74382 9.73035 11.78835 9.80403 11.85977 9.92288 11.9043 9.99767 11.94882 10.07245 12.02025 10.19347 12.06477 10.2693 12.1093 10.34515 12.18071 10.46758 12.22523 10.54439 12.26976 10.6212 12.34119 10.74518 12.38571 10.82295 12.43024 10.90073 12.50166 11.02611 12.54619 11.10497 12.59071 11.1838 12.66212 11.31137 12.70665 11.39131 12.75119 11.47124 12.8226 11.6002 12.86713 11.6811 12.91165 11.762 12.98308 11.89252 13.0276 11.97437 13.07213 12.05621 13.14354 12.18828 13.18808 12.27109 13.2326 12.3539 13.30402 12.48738 13.34854 12.57127 13.39307 12.65515 13.4645 12.79092 13.50902 12.87578 13.55354 12.96063 13.62497 13.09706 13.6695 13.18288 13.71402 13.26869 13.78543 13.40741 13.82996 13.49431 13.87448 13.58119 13.94589 13.72122 13.99042 13.80919 14.03494 13.89717 14.10637 14.03947 14.1509 14.1284 14.19542 14.21735 14.26683 14.36032 14.31136 14.45021 14.3559 14.5401 14.4273 14.68538 14.47183 14.77635 14.51636 14.86731 14.58778 15.01399 14.63231 15.10594 14.67683 15.19788 14.74825 15.3461 14.79279 15.439 14.83731 15.5319 14.90872 15.68153 14.95325 15.77551 14.99777 15.86949 15.0692 16.02142 15.11372 16.11635 15.15825 16.21129 15.22968 16.36389 15.2742 16.45978 15.31873 16.55568 15.39014 16.71057 15.43466 16.80754 15.47919 16.90451 15.55061 17.06071 15.59514 17.15877 15.63966 17.25682 15.71109 17.4153 15.75562 17.51431 15.80014 17.61333 15.87155 17.77249 15.91608 17.87245 15.96062 17.97243 16.03203 18.13387 16.07655 18.23492 16.12108 18.33597 16.1925 18.49883 16.23703 18.60085 16.28156 18.70287 16.35297 18.86726 16.3975 18.97023 16.44203 19.07321 16.51344 19.23903 16.55797 19.34308 16.6025 19.44714 16.67392 19.61513 16.71844 19.72026 16.76297 19.8254 16.8344 19.99492 16.87892 20.10089 16.92345 20.20686 16.99486 20.37708 17.03938 20.48413 17.08391 20.59117 17.15533 20.7644 17.19986 20.87254 17.24438 20.98067 17.31581 21.15456 17.36034 21.26355 17.40486 21.37253 17.47627 21.54796 17.5208 21.65802 17.56534 21.76808 17.63675 21.9457 17.68127 22.05684 17.7258 22.16797 17.79723 22.34698 17.84175 22.45909 17.88628 22.5712 17.95769 22.75174 18.00223 22.8648 18.04675 22.97786 18.11816 23.15985 18.16269 23.27399 18.20721 23.38812 18.27864 23.57228 18.32317 23.6875 18.36769 23.80272 18.43912 23.98828 18.48364 24.10446 18.52817 24.22064 18.59958 24.40775 18.6441 24.52489 18.68863 24.64203 18.76006 24.83067 18.80458 24.94878 18.8491 25.06688 18.92052 25.25694 18.96504 25.37613 19.00957 25.4953 19.08098 25.68765 19.1255 25.8078 19.17004 25.92793 19.24146 26.12096 19.28598 26.24207 19.3305 26.36316 19.40193 26.55849 19.44646 26.68066 19.49098 26.80284 19.5624 26.99945 19.60693 27.12271 19.65146 27.24597 19.72287 27.44487 19.7674 27.56909 19.81192 27.6933 19.88335 27.89287 19.92787 28.01807 19.9724 28.14325 20.04382 28.3451 20.08835 28.47137 20.13287 28.59764 20.20428 28.8009 20.24881 28.92813 20.29333 29.05534 20.36476 29.26016 20.40929 29.38835 20.45381 29.51654 20.52524 29.72276 20.56976 29.85202 20.61429 29.9813 20.6857 30.1897 20.73022 30.32004 20.77477 30.45038 20.84618 30.66019 20.8907 30.79149 20.93523 30.92279 21.00665 31.13417 21.05118 31.26643 21.0957 31.3987 21.16711 31.61157 21.21165 31.74481 21.25618 31.87804 21.32759 32.09236 21.37212 32.22667 21.41664 32.36098 21.48807 32.57756 21.5326 32.71283 21.57712 32.8481 21.64854 33.06537 21.69307 33.2016 21.7376 33.33783 21.809 33.55739 21.85353 33.69469 21.89806 33.832 21.96948 34.05287 22.014 34.19125 22.05853 34.32964 22.12996 34.55278 22.17448 34.69212 22.21901 34.83147 22.29042 35.0553 22.33495 35.1956 22.37947 35.33589 22.4509 35.56203 22.49542 35.7034 22.53995 35.84479 22.61137 36.07231 22.6559 36.21466 22.70042 36.35701 22.77184 36.58607 22.81636 36.72939 22.8609 36.8727 22.93231 37.10316 22.97684 37.24756 23.02136 37.39195 23.09279 37.6246 23.13731 37.77007 23.18184 37.91554 23.25325 38.14961 23.29779 38.29604 23.34232 38.44246 23.41373 38.67809 23.45825 38.82547 23.50278 38.97285 23.5742 39.21 23.61873 39.35834 23.66325 39.50668 23.73468 39.74525 23.7792 39.8947 23.82373 40.04413 23.89513 40.28497 23.93965 40.43536 23.98418 40.58577 24.0556 40.82727 24.10013 40.97862 24.14465 41.12997 24.21608 41.37381 24.2606 41.52623 24.30513 41.67867 24.37654 41.92377 24.42107 42.07727 24.4656 42.23079 24.53702 42.4782 24.58154 42.63266 24.62607 42.78712 24.6975 43.03522 24.74202 43.19064 24.78654 43.34607 24.85796 43.59642 24.9025 43.75293 24.94702 43.90944 25.01843 44.16124 25.06296 44.3187 25.10748 44.47617 25.17891 44.72948 25.22343 44.88791 25.26796 45.04634 25.33939 45.30109 25.38391 45.4606 25.42844 45.62012 25.49985 45.87701 25.54437 46.0376 25.5889 46.1982 25.66032 46.45651 25.70485 46.61806 25.74937 46.77962 25.8208 47.03947 25.86533 47.20198 25.90985 47.36449 25.98126 47.6259 26.02579 47.78937 26.07033 47.95284 26.14174 48.21568 26.18626 48.38023 26.23079 48.54477 26.30222 48.80977 26.34674 48.9754 26.39127 49.14102 26.46268 49.40755 26.50722 49.57402 26.55174 49.7405 26.62315 50.0077 26.66768 50.17526 26.7122 50.34282 26.78363 50.61304 26.82816 50.78166 26.87268 50.9503 26.9441 51.22122 26.98863 51.39069 27.03316 51.56017 27.10457 51.83261 27.1491 52.00316 27.19362 52.17372 27.26505 52.44833 27.30957 52.61996 27.3541 52.7916 27.42552 53.06764 27.47005 53.24022 27.51457 53.41281 27.58598 53.69028 27.63051 53.86395 27.67505 54.03761 27.74646 54.31737 27.79099 54.49199 27.83551 54.66661 27.90694 54.94702 27.95146 55.12262 27.99599 55.29822 28.0674 55.58092 28.11194 55.7576 28.15646 55.93428 28.22787 56.21838 28.2724 56.39601 28.31693 56.57365 28.38835 56.85931 28.43288 57.0379 28.4774 57.21649 28.54883 57.50357 28.59335 57.68324 28.63788 57.86292 28.70929 58.15216 28.75381 58.33292 28.79834 58.51367 28.86975 58.80435 28.91428 58.98605 28.9588 59.16777 29.03023 59.45998 29.07475 59.64264 29.11928 59.82532 29.19069 60.11906 29.23521 60.3027 29.27975 60.48634 29.35117 60.7815 29.39569 60.96622 29.44022 61.15094 29.51164 61.44826 29.55617 61.63406 29.6007 61.81985 29.6721 62.11859 29.71664 62.30534 29.76117 62.4921 29.83258 62.7924 29.8771 62.98012 29.92163 63.16783 29.99306 63.46967 30.03758 63.65834 30.0821 63.84702 30.15353 64.15025 30.19806 64.34001 30.24258 64.52975 30.314 64.8353 30.35852 65.02602 30.40305 65.21674 30.47447 65.52293 30.519 65.71461 30.56352 65.9063 30.63495 66.21478 30.67947 66.40755 30.724 66.6003 30.79541 66.91008 30.83994 67.10393 30.88448 67.29776 30.95589 67.60985 31.00041 67.80464 31.04494 67.99945 31.11636 68.3122 31.16089 68.50795 31.20541 68.7037 31.27682 69.01874 31.32137 69.21558 31.36589 69.41241 31.4373 69.72888 31.48183 69.92668 31.52635 70.12447 31.59778 70.44235 31.6423 70.64124 31.68683 70.8401 31.75826 71.16028 31.80278 71.3601 31.8473 71.55994 31.91872 71.88077 31.96324 72.08157 32.00777 72.28238 32.0792 72.6055 32.12372 72.80737 32.16824 73.00926 32.23967 73.33379 32.2842 73.53664 32.32872 73.73947 32.40013 74.06555 32.44466 74.26935 32.4892 74.47314 32.56061 74.80066 32.60513 75.00554 32.64966 75.21042 32.72108 75.54008 32.76561 75.74603 32.81013 75.952 32.88155 76.2831 32.92609 76.49 32.97061 76.69693 33.04202 77.02954 33.08655 77.23743 33.13107 77.44531 33.2025 77.77946 33.24702 77.98831 33.29155 78.19716 33.36298 78.53275 33.4075 78.74266 33.45203 78.95259 33.52344 79.29033 33.56796 79.50134 33.61249 79.71234 33.68391 80.0515 33.72844 80.26346 33.77296 80.47542 33.84439 80.81615 33.88892 81.02907 33.93344 81.24197 34.00484 81.58424 34.04936 81.79811 34.09389 82.012 34.16531 82.35567 34.20984 82.57062 34.25436 82.78557 34.32579 83.13153 34.37032 83.34746 34.41484 83.56339 34.48625 83.91 34.53079 84.12689 34.57532 84.34378 34.64673 84.69257 34.69125 84.91066 34.73578 85.12874 34.8072 85.4797 34.85173 85.69875 34.89626 85.91779 34.96768 86.26941 35.0122 86.48941 35.05673 86.70941 35.12814 87.06346 35.17267 87.28442 35.2172 87.50537 35.28862 87.8601 35.33315 88.08202 35.37767 88.30394 35.4491 88.66095 35.49362 88.88396 35.53815 89.10695 35.60956 89.46526 35.65408 89.68935 35.69861 89.91342 35.77003 90.27399 35.81456 90.49904 35.85909 90.72409 35.93051 91.08534 35.97504 91.31134 36.01956 91.53735 36.09097 91.9009 36.1355 92.12798 36.18004 92.35507 36.25145 92.72003 36.29597 92.94807 36.3405 93.17613 36.41193 93.54251 36.45645 93.77164 36.50098 94.00076 36.57239 94.36942 36.61693 94.5995 36.66145 94.82959 36.73286 95.19893 36.77739 95.42998 36.82191 95.66101 36.89334 96.03264 36.93787 96.26477 36.98239 96.4969 37.05382 96.86995 37.09834 97.10304 37.14287 97.33614 37.21428 97.71059 37.2588 97.94476 37.30333 98.17892 37.37476 98.55566 37.41928 98.79079 37.4638 99.02592 37.53523 99.40334 37.57976 99.63943 37.62428 99.87552 37.6957 100.25523 37.74022 100.4924 37.78476 100.72957 37.85617 101.1107 37.9007 101.34883 37.94522 101.58696 38.01665 101.96951 38.06117 102.20871 38.1057 102.44792 38.17711 102.83276 38.22165 103.07292 38.26617 103.31308 38.33759 103.6986 38.38211 103.93973 38.42664 104.18086 38.49806 104.56865 38.54259 104.81087 38.58711 105.05309 38.65854 105.44228 38.70306 105.68546 38.74759 105.92862 38.819 106.31938 38.86353 106.5635 38.90805 106.80763 38.97946 107.19981 39.02399 107.44502 39.06851 107.69023 39.13994 108.08456 39.18446 108.33086 39.22899 108.57715 39.3004 108.97292 39.34492 109.22015 39.38947 109.4674 39.46088 109.8647 39.5054 110.11292 39.54993 110.36111 39.62135 110.75995 39.66588 111.00912 39.7104 111.2583 39.78181 111.65855 39.82635 111.90881 39.87088 112.15906 39.98682 112.8128 39.98682 112.8128"/>
<use data-text="y" xlink:href="#font_1_6" transform="matrix(9.9626,0,0,-9.963098,85.304,12.096954)" fill="#ff0000"/>
<use data-text="=" xlink:href="#font_2_4" transform="matrix(9.9626,0,0,-9.963098,93.313999,12.096954)" fill="#ff0000"/>
<use data-text="g" xlink:href="#font_1_3" transform="matrix(9.9626,0,0,-9.963098,103.83,12.096954)" fill="#ff0000"/>
<use data-text="(" xlink:href="#font_2_1" transform="matrix(9.9626,0,0,-9.963098,108.938999,12.096954)" fill="#ff0000"/>
<use data-text="x" xlink:href="#font_1_5" transform="matrix(9.9626,0,0,-9.963098,112.813999,12.096954)" fill="#ff0000"/>
<use data-text=")" xlink:href="#font_2_2" transform="matrix(9.9626,0,0,-9.963098,118.50699,12.096954)" fill="#ff0000"/>
<path transform="matrix(1,0,0,-1.00005,63.856004,131.1259)" stroke-width=".79701" stroke-linecap="butt" stroke-miterlimit="10" stroke-linejoin="miter" fill="none" stroke="#00ff00" d="M-56.69362 75.59033C-56.69362 75.59033-56.52954 75.15308-56.46652 74.98564-56.40352 74.8182-56.30244 74.55025-56.23944 74.38354-56.17642 74.21684-56.07536 73.95003-56.01234 73.78404-55.94934 73.61806-55.8483 73.35243-55.78528 73.18715-55.72226 73.02188-55.6212 72.75749-55.5582 72.59283-55.49518 72.42816-55.39412 72.16428-55.3311 72.00026-55.2681 71.83624-55.16704 71.57399-55.10403 71.4107-55.04102 71.24742-54.93996 70.98601-54.87694 70.82332-54.81393 70.66063-54.71288 70.40009-54.64986 70.2381-54.58685 70.07613-54.4858 69.8172-54.42279 69.6559-54.35977 69.49458-54.25871 69.2361-54.1957 69.07544-54.13269 68.91478-54.03163 68.65791-53.96861 68.498-53.9056 68.33807-53.80455 68.08199-53.74155 67.92271-53.67853 67.76344-53.57747 67.50865-53.51445 67.35005-53.45145 67.19145-53.35037 66.93748-53.28737 66.77953-53.22435 66.62158-53.12329 66.36884-53.06027 66.2116-52.99727 66.05437-52.89622 65.80284-52.8332 65.64627-52.77019 65.4897-52.66913 65.23903-52.60612 65.08311-52.5431 64.9272-52.44205 64.67778-52.37903 64.52254-52.31602 64.3673-52.21497 64.11873-52.15196 63.96414-52.08894 63.80956-51.98788 63.5622-51.92487 63.40833-51.86186 63.25446-51.7608 63.00832-51.69778 62.85512-51.63478 62.7019-51.53372 62.4566-51.47072 62.30405-51.4077 62.1515-51.30664 61.90749-51.24362 61.7556-51.18062 61.60371-51.07956 61.36053-51.01654 61.2093-50.95352 61.05807-50.85248 60.81616-50.78947 60.6656-50.72646 60.51505-50.6254 60.27391-50.56238 60.12405-50.49937 59.97421-50.3983 59.73476-50.3353 59.58556-50.27228 59.43637-50.17122 59.1973-50.1082 59.04878-50.0452 58.90025-49.94415 58.66283-49.88113 58.51501-49.81812 58.36722-49.71706 58.13058-49.65405 57.98344-49.59103 57.8363-49.48997 57.60092-49.42696 57.45444-49.36395 57.30795-49.2629 57.07344-49.19989 56.9276-49.13687 56.78177-49.03581 56.54854-48.9728 56.40338-48.90979 56.25821-48.80873 56.02574-48.74571 55.8813-48.68271 55.73685-48.58165 55.50603-48.51865 55.36226-48.45563 55.21848-48.35457 54.98805-48.29155 54.84492-48.22855 54.7018-48.12749 54.4731-48.06447 54.33064-48.00145 54.18819-47.9004 53.9599-47.8374 53.8181-47.77438 53.6763-47.67332 53.44965-47.6103 53.30856-47.5473 53.16747-47.44623 52.9416-47.38322 52.8012-47.3202 52.66077-47.21916 52.43619-47.15614 52.29642-47.09314 52.15666-46.99208 51.93292-46.92906 51.79382-46.86604 51.65472-46.76498 51.43217-46.70198 51.2938-46.63896 51.15541-46.5379 50.93411-46.47488 50.79639-46.41188 50.65866-46.31082 50.43819-46.24782 50.30112-46.1848 50.16406-46.08374 49.94487-46.02072 49.80847-45.95772 49.67206-45.85666 49.4537-45.79364 49.31796-45.73064 49.18222-45.62958 48.96509-45.56657 48.83006-45.50356 48.69505-45.4025 48.47913-45.33948 48.34476-45.27647 48.21039-45.17542 47.99532-45.1124 47.86162-45.04938 47.7279-44.94833 47.51411-44.88533 47.38106-44.82231 47.24802-44.72125 47.03505-44.65823 46.90266-44.59523 46.7703-44.49416 46.55855-44.43115 46.42688-44.36813 46.29521-44.26709 46.08469-44.20407 45.95369-44.14107 45.8227-44.04001 45.61299-43.97699 45.48265-43.91397 45.35231-43.81291 45.1439-43.74991 45.01422-43.68689 44.88454-43.58583 44.6769-43.52281 44.54793-43.45981 44.41898-43.35875 44.213-43.29575 44.0847-43.23273 43.95639-43.13167 43.75085-43.06865 43.62317-43.00565 43.49547-42.90459 43.29123-42.84157 43.16425-42.77856 43.03726-42.6775 42.83418-42.6145 42.70792-42.55148 42.58165-42.45042 42.37979-42.3874 42.2542-42.3244 42.1286-42.22334 41.92757-42.16032 41.80263-42.0973 41.67767-41.99626 41.47792-41.93326 41.35365-41.87024 41.22937-41.76918 41.03046-41.70616 40.90683-41.64316 40.7832-41.54208 40.58557-41.47908 40.46262-41.41606 40.33966-41.31502 40.14287-41.252 40.02057-41.189 39.89827-41.08794 39.7027-41.02492 39.58112-40.9619 39.45952-40.86084 39.26515-40.79784 39.14424-40.73482 39.02332-40.63376 38.8298-40.57074 38.70953-40.50774 38.58928-40.40668 38.39697-40.34367 38.27744-40.28065 38.1579-40.1796 37.9668-40.11658 37.84792-40.05357 37.72903-39.95251 37.53879-39.8895 37.42058-39.82649 37.30237-39.72543 37.11333-39.66243 36.99583-39.59941 36.87834-39.49835 36.69058-39.43533 36.57367-39.37233 36.45677-39.27127 36.26949-39.20825 36.15324-39.14523 36.03702-39.04419 35.85136-38.98119 35.73584-38.91817 35.62033-38.81711 35.43547-38.75409 35.3206-38.69109 35.20573-38.59001 35.02216-38.52701 34.90796-38.46399 34.79376-38.36295 34.61098-38.29993 34.4975-38.23692 34.384-38.13586 34.20285-38.07285 34.09003-38.00983 33.97722-37.90877 33.79652-37.84576 33.68431-37.78275 33.57208-37.6817 33.39267-37.61868 33.28119-37.55568 33.1697-37.4546 32.99144-37.3916 32.88066-37.32858 32.76988-37.22752 32.59291-37.1645 32.48273-37.1015 32.37254-37.00044 32.19603-36.93742 32.08652-36.87442 31.977-36.77336 31.80208-36.71036 31.69333-36.64734 31.5846-36.54628 31.41084-36.48326 31.30276-36.42026 31.1947-36.31918 31.02182-36.25618 30.91434-36.19316 30.80687-36.09212 30.63492-36.02911 30.52809-35.9661 30.42126-35.86504 30.25052-35.80202 30.14442-35.73901 30.03833-35.63794 29.86879-35.57494 29.76335-35.51192 29.65791-35.41087 29.48923-35.34785 29.38446-35.28485 29.2797-35.18379 29.11227-35.12077 29.00815-35.05775 28.90404-34.9567 28.73738-34.89369 28.634-34.83067 28.53061-34.72963 28.36555-34.66661 28.2629-34.6036 28.16022-34.50253 27.996-34.43953 27.89392-34.37651 27.79184-34.27545 27.62856-34.21243 27.52715-34.14943 27.42574-34.04837 27.26363-33.98535 27.16293-33.92235 27.06224-33.82129 26.90137-33.75829 26.80135-33.69527 26.70131-33.59421 26.54128-33.53119 26.44191-33.46819 26.34253-33.36711 26.18378-33.30411 26.08505-33.24109 25.98633-33.14005 25.82843-33.07704 25.73038-33.01402 25.63232-32.91296 25.47562-32.84995 25.37828-32.78694 25.28094-32.68587 25.12547-32.62286 25.02881-32.55984 24.93213-32.4588 24.77748-32.39578 24.68147-32.33278 24.58545-32.23172 24.43208-32.1687 24.33673-32.10568 24.24138-32.00462 24.08887-31.94162 23.99417-31.8786 23.89948-31.77756 23.74817-31.71454 23.65419-31.65154 23.56021-31.55046 23.41013-31.48746 23.31682-31.42444 23.22351-31.32338 23.07425-31.26036 22.9816-31.19736 22.88895-31.0963 22.74097-31.03328 22.64897-30.97028 22.55699-30.86922 22.40985-30.80621 22.31851-30.7432 22.22719-30.64214 22.08127-30.57912 21.99065-30.51611 21.90002-30.41504 21.75533-30.35204 21.66537-30.28902 21.57542-30.18797 21.43158-30.12497 21.34229-30.06195 21.25298-29.96089 21.11038-29.89787 21.02176-29.83487 20.93314-29.7338 20.79132-29.67079 20.70341-29.60777 20.61551-29.50673 20.47536-29.44371 20.38809-29.3807 20.30084-29.27965 20.1611-29.21663 20.07451-29.15361 19.98792-29.05255 19.84982-28.98955 19.76395-28.92653 19.67807-28.82549 19.54082-28.76247 19.45555-28.69946 19.37027-28.59839 19.23386-28.53539 19.1493-28.47237 19.06474-28.3713 18.92998-28.30829 18.8461-28.24529 18.7622-28.14424 18.62784-28.08122 18.54462-28.01822 18.46138-27.91714 18.32869-27.85414 18.24617-27.79112 18.16365-27.69006 18.03172-27.62704 17.94987-27.56404 17.86803-27.46297 17.73737-27.39996 17.65617-27.33694 17.57498-27.2359 17.44518-27.1729 17.36465-27.10988 17.28412-27.00882 17.1556-26.9458 17.07571-26.8828 16.99585-26.78172 16.86816-26.71872 16.78896-26.6557 16.70973-26.55466 16.58331-26.49164 16.50476-26.42863 16.42622-26.32758 16.30064-26.26456 16.22275-26.20154 16.14485-26.10048 16.02051-26.03748 15.94334-25.97446 15.86618-25.87341 15.74297-25.8104 15.66652-25.74739 15.59006-25.64632 15.46808-25.58331 15.39229-25.5203 15.31648-25.41924 15.19534-25.35622 15.12021-25.29321 15.04509-25.19217 14.92522-25.12915 14.85074-25.06615 14.77628-24.96507 14.65724-24.90207 14.58344-24.83905 14.50963-24.73799 14.39188-24.67497 14.31873-24.61197 14.24557-24.5109 14.12865-24.44789 14.05617-24.38487 13.98369-24.28383 13.86798-24.22083 13.79622-24.1578 13.72444-24.05675 13.60997-23.99373 13.53886-23.93073 13.46774-23.82965 13.35411-23.76665 13.28366-23.70363 13.21321-23.60258 13.10078-23.53957 13.03105-23.47656 12.96132-23.3755 12.85011-23.31248 12.78105-23.24947 12.71199-23.1484 12.60167-23.0854 12.5332-23.02238 12.46474-22.92134 12.35529-22.85832 12.28752-22.79532 12.21977-22.69424 12.1119-22.63124 12.04488-22.56822 11.97784-22.46716 11.8708-22.40414 11.80437-22.34114 11.73795-22.2401 11.63176-22.17708 11.56606-22.11407 11.50035-22.013 11.39581-21.95 11.33075-21.88698 11.2657-21.78592 11.16156-21.7229 11.09718-21.6599 11.03279-21.55882 10.93031-21.49582 10.86664-21.4328 10.80298-21.33176 10.70134-21.26875 10.63826-21.20573 10.5752-21.10468 10.47438-21.04166 10.41203-20.97865 10.3497-20.87758 10.25053-20.81458 10.18884-20.75156 10.12715-20.65051 10.02841-20.5875 9.96739-20.52449 9.90637-20.42343 9.80927-20.36041 9.74896-20.2974 9.68866-20.19633 9.59235-20.13333 9.5327-20.07031 9.47304-19.96927 9.378-19.90625 9.31902-19.84325 9.26004-19.74217 9.16583-19.67917 9.1075-19.61615 9.04916-19.51509 8.95625-19.45207 8.89859-19.38907 8.84093-19.28802 8.74884-19.225 8.69183-19.16199 8.63483-19.06093 8.54396-18.99792 8.48769-18.9349 8.43141-18.83385 8.34175-18.77083 8.28612-18.70782 8.2305-18.60677 8.1417-18.54376 8.08672-18.48074 8.03174-18.37968 7.94421-18.31668 7.88991-18.25366 7.8356-18.1526 7.74892-18.08958 7.69527-18.02658 7.64162-17.9255 7.55614-17.8625 7.50322-17.79948 7.4503-17.69844 7.36597-17.63542 7.31377-17.57242 7.26157-17.47136 7.17851-17.40834 7.1269-17.34532 7.0753-17.24426 6.99274-17.18126 6.94179-17.11824 6.89085-17.0172 6.80992-16.95418 6.75969-16.89117 6.70946-16.7901 6.62932-16.7271 6.57976-16.66408 6.5302-16.56302 6.45131-16.5 6.4024-16.437 6.3535-16.33595 6.2755-16.27293 6.22723-16.20992 6.17899-16.10886 6.10217-16.04585 6.05466-15.98283 6.00713-15.88177 5.93153-15.81876 5.88466-15.75575 5.8378-15.6547 5.76303-15.59169 5.71683-15.52867 5.67064-15.42761 5.59715-15.36461 5.5516-15.30159 5.50606-15.20053 5.43343-15.13751 5.38855-15.07451 5.34367-14.97343 5.27223-14.91043 5.22807-14.84741 5.18391-14.74637 5.11371-14.68335 5.0702-14.62035 5.02669-14.51929 4.95732-14.45627 4.91449-14.39325 4.87164-14.29219 4.80354-14.22919 4.76135-14.16617 4.71918-14.06512 4.65192-14.0021 4.6104-13.9391 4.5689-13.83803 4.50285-13.77502 4.46205-13.712 4.42125-13.61095 4.35643-13.54793 4.31627-13.48492 4.27612-13.38388 4.21216-13.32086 4.17268-13.25784 4.1332-13.15678 4.07045-13.09378 4.03168-13.03076 3.99292-12.9297 3.93143-12.86668 3.89326-12.80368 3.8551-12.70262 3.79408-12.63962 3.75658-12.5766 3.71909-12.47554 3.65965-12.41254 3.62292-12.34952 3.5862-12.24846 3.52791-12.18544 3.49185-12.12244 3.4558-12.02138 3.39844-11.95837 3.36298-11.89536 3.32751-11.7943 3.27103-11.73128 3.23624-11.66827 3.20143-11.56721 3.14618-11.5042 3.11209-11.44118 3.07802-11.34012 3.02397-11.27711 2.99055-11.2141 2.95714-11.11305 2.90393-11.05003 2.87117-10.98703 2.83841-10.88596 2.7865-10.82295 2.7544-10.75993 2.72229-10.65887 2.67114-10.59586 2.63977-10.53285 2.6084-10.43181 2.5589-10.36879 2.52817-10.30577 2.49745-10.20471 2.44836-10.14171 2.4183-10.07869 2.38826-9.97763 2.3408-9.91461 2.31146-9.85161 2.28214-9.75055 2.23552-9.68755 2.20679-9.62453 2.17805-9.52347 2.1323-9.46046 2.10428-9.39745 2.07626-9.29639 2.03217-9.23337 2.00479-9.17036 1.97743-9.0693 1.93375-9.0063 1.90704-8.94328 1.88036-8.84222 1.83829-8.7792 1.81232-8.7162 1.78633-8.61514 1.74513-8.55212 1.71976-8.4891 1.6944-8.38805 1.654-8.32504 1.62935-8.26202 1.60469-8.16098 1.566-8.09796 1.54199-8.03496 1.51799-7.93388 1.47968-7.87088 1.45634-7.80786 1.43301-7.7068 1.39635-7.64378 1.37372-7.58078 1.3511-7.47974 1.31528-7.41672 1.29327-7.3537 1.27126-7.25264 1.23628-7.18964 1.21498-7.12662 1.19368-7.02556 1.1603-6.96254 1.13971-6.89954 1.11913-6.79848 1.0866-6.73547 1.06662-6.67245 1.04665-6.5714 1.01501-6.50839 .9957-6.44537 .97636-6.34431 .94594-6.2813 .92734-6.21829 .90875-6.11723 .87953-6.05423 .86159-5.99121 .84366-5.89015 .81529-5.82713 .79802-5.76413 .78075-5.66307 .75359-5.60005 .73703-5.53703 .72047-5.43597 .69453-5.37297 .67863-5.30995 .66273-5.20891 .63763-5.14589 .6224-5.08289 .60718-4.98181 .58336-4.91881 .56877-4.85579 .5542-4.75473 .5312-4.69171 .5173-4.62871 .50339-4.52766 .48169-4.46465 .46843-4.40163 .45517-4.30057 .43431-4.23756 .4217-4.17455 .4091-4.07349 .38947-4.01047 .3776-3.94746 .36572-3.8464 .34721-3.7834 .33606-3.72038 .3249-3.61932 .3077-3.55632 .29715-3.4933 .28659-3.39224 .26984-3.32922 .25995-3.26622 .25005-3.16516 .2349-3.10216 .22577-3.03914 .21664-2.93808 .20271-2.87506 .1942-2.81206 .18568-2.711 .17221-2.64798 .16435-2.58496 .1565-2.48392 .14465-2.42091 .13753-2.3579 .1304-2.25684 .11942-2.19382 .11288-2.13081 .10634-2.02974 .09625-1.96674 .09038-1.90372 .08452-1.80266 .07564-1.73964 .07048-1.67664 .06532-1.57559 .05762-1.51257 .05318-1.44955 .04875-1.3485 .04225-1.28549 .03848-1.22247 .03471-1.12141 .02905-1.0584 .02594-.99539 .02283-.89433 .01843-.83133 .01599-.76831 .01353-.66725 .01-.60425 .0082-.54123 .00641-.44017 .00414-.37715 .00302-.31415 .00189-.21307 .0004-.15009 0-.08708-.0004 .01396-.00021 .07698 0 .13998 .00021 .24104 .00081 .30406 .00171 .36708 .00261 .46812 .00491 .53113 .00647 .59415 .00803 .6952 .01074 .75822 .01295 .82123 .01518 .9223 .01955 .9853 .02248 1.04832 .0254 1.14938 .03056 1.2124 .03415 1.2754 .03773 1.37645 .04417 1.43947 .04843 1.50249 .05269 1.60355 .05995 1.66655 .06487 1.72957 .06976 1.83063 .07831 1.89365 .0839 1.95665 .08948 2.05771 .0988 2.12071 .1051 2.18373 .11139 2.28479 .12238 2.3478 .12932 2.41081 .13626 2.51187 .14764 2.57489 .15526 2.6379 .16289 2.73895 .1759 2.80196 .18423 2.86497 .19257 2.96603 .20645 3.02905 .2154 3.09206 .22433 3.19312 .23904 3.25613 .2487 3.31915 .25835 3.4202 .2747 3.4832 .28503 3.54622 .29535 3.64728 .31212 3.7103 .32309 3.7733 .33408 3.87437 .3525 3.93738 .36418 4.0004 .37587 4.10146 .39514 4.16447 .40744 4.22748 .41974 4.32852 .43985 4.39154 .45287 4.45456 .46587 4.55562 .48756 4.61862 .5013 4.68164 .51501 4.7827 .53757 4.84572 .5519 4.90872 .56624 5.00978 .58968 5.07278 .60466 5.1358 .61966 5.23686 .64432 5.29987 .66003 5.36288 .67575 5.46394 .70163 5.52696 .718 5.58997 .73438 5.69102 .76108 5.75403 .77812 5.81705 .79517 5.9181 .82309 5.98112 .84085 6.04413 .8586 6.14519 .88774 6.2082 .90616 6.27122 .92456 6.37227 .95456 6.43527 .97363 6.49829 .9927 6.59935 1.02397 6.66237 1.0437 6.72537 1.06343 6.82645 1.09554 6.88945 1.11594 6.95247 1.13634 7.05351 1.16971 7.11653 1.19077 7.17953 1.21182 7.2806 1.24602 7.34361 1.26775 7.40663 1.28947 7.50769 1.3249 7.5707 1.34735 7.63371 1.36978 7.73477 1.40637 7.79779 1.42952 7.8608 1.45268 7.96185 1.49054 8.02486 1.51431 8.08788 1.53807 8.18893 1.57639 8.25194 1.6008 8.31496 1.62521 8.41602 1.6652 8.47903 1.69035 8.54204 1.71548 8.6431 1.75624 8.7061 1.78204 8.76912 1.80785 8.87018 1.84988 8.9332 1.87634 8.9962 1.90279 9.09726 1.9456 9.16028 1.97278 9.2233 1.99997 9.32434 2.04445 9.38734 2.07228 9.45036 2.10011 9.55142 2.14505 9.61444 2.1735 9.67744 2.20193 9.77852 2.24814 9.84152 2.2773 9.90454 2.30646 10.00558 2.35382 10.0686 2.38371 10.1316 2.41359 10.23267 2.46222 10.29568 2.4927 10.3587 2.5232 10.45976 2.57231 10.52277 2.60344 10.58578 2.63457 10.68684 2.68527 10.74986 2.7172 10.81287 2.74911 10.91393 2.80096 10.97693 2.83354 11.03995 2.86612 11.141 2.91887 11.20403 2.95206 11.26703 2.98523 11.36809 3.0389 11.4311 3.07274 11.49411 3.10658 11.59517 3.16145 11.65817 3.19601 11.72119 3.23056 11.82225 3.28667 11.88527 3.32188 11.94827 3.3571 12.04933 3.41403 12.11235 3.44992 12.17537 3.4858 12.27641 3.54399 12.33942 3.58054 12.40244 3.61708 12.5035 3.67606 12.56651 3.71332 12.62952 3.75058 12.73059 3.81122 12.7936 3.84914 12.85661 3.88705 12.95766 3.94817 13.02068 3.98668 13.08368 4.0252 13.18474 4.08759 13.24776 4.12683 13.31078 4.16606 13.41183 4.22961 13.47484 4.26958 13.53786 4.30954 13.63892 4.37428 13.70193 4.4149 13.76494 4.45552 13.866 4.52112 13.929 4.5624 13.99202 4.60367 14.09308 4.67055 14.1561 4.71248 14.2191 4.75443 14.32016 4.82214 14.38318 4.86475 14.44618 4.90735 14.54724 4.97627 14.61024 5.01959 14.67326 5.06293 14.77432 5.13304 14.83734 5.17703 14.90034 5.22101 15.0014 5.29198 15.06442 5.33662 15.12744 5.38129 15.22849 5.45354 15.29149 5.49884 15.3545 5.54414 15.45557 5.61723 15.51859 5.66321 15.58159 5.70917 15.68266 5.78348 15.74567 5.83017 15.80869 5.87685 15.90973 5.9524 15.97275 5.99973 16.03575 6.04707 16.13681 6.12343 16.19983 6.17143 16.26285 6.21944 16.3639 6.29709 16.42691 6.34575 16.48993 6.39441 16.59097 6.47289 16.65399 6.52222 16.717 6.57155 16.81807 6.65126 16.88107 6.7013 16.94409 6.75134 17.04515 6.8322 17.10817 6.88297 17.17117 6.93372 17.27223 7.01585 17.33525 7.06723 17.39825 7.11859 17.49931 7.2012 17.56232 7.25322 17.62534 7.30524 17.7264 7.38948 17.78941 7.44223 17.85242 7.49498 17.95348 7.58002 18.0165 7.63342 18.07951 7.68683 18.18056 7.77313 18.24356 7.8272 18.30658 7.88124 18.40764 7.9684 18.47066 8.02313 18.53366 8.07785 18.63474 8.16621 18.69774 8.22166 18.76076 8.2771 18.8618 8.36668 18.92482 8.4228 18.98782 8.47891 19.08888 8.56934 19.1519 8.6261 19.21492 8.68286 19.31598 8.77457 19.37898 8.83197 19.442 8.88939 19.54305 8.98195 19.60606 9.04002 19.66907 9.09811 19.77014 9.19193 19.83315 9.25067 19.89616 9.30942 19.99722 9.40407 20.06024 9.46349 20.12325 9.52289 20.2243 9.61877 20.28732 9.6789 20.35033 9.73901 20.45139 9.83612 20.51439 9.8969 20.57741 9.95767 20.67847 10.0556 20.74149 10.11705 20.80449 10.1785 20.90555 10.27763 20.96857 10.3398 21.03159 10.40196 21.13263 10.50232 21.19563 10.56516 21.25865 10.62799 21.35971 10.72919 21.42273 10.79266 21.48573 10.85616 21.5868 10.95857 21.64981 11.02278 21.71283 11.08699 21.81387 11.19069 21.87689 11.2555 21.9399 11.3203 22.04095 11.42445 22.10397 11.48991 22.16699 11.55539 22.26805 11.66121 22.33105 11.72739 22.39407 11.79358 22.49512 11.90018 22.55814 11.96703 22.62114 12.03386 22.72221 12.14172 22.78522 12.20923 22.84824 12.27675 22.9493 12.38539 23.01231 12.45361 23.07532 12.52185 23.17638 12.63214 23.2394 12.70103 23.3024 12.76993 23.40346 12.88069 23.46646 12.95018 23.52948 13.01967 23.63054 13.1317 23.69356 13.2019 23.75656 13.27211 23.85762 13.3853 23.92064 13.45624 23.98366 13.52718 24.0847 13.64159 24.1477 13.71317 24.21072 13.78474 24.31178 13.9 24.3748 13.97226 24.4378 14.04451 24.53888 14.16103 24.60188 14.23393 24.6649 14.30685 24.76595 14.42424 24.82896 14.4978 24.89197 14.57137 24.99303 14.68994 25.05605 14.76424 25.11906 14.83852 25.22012 14.95833 25.28313 15.03328 25.34615 15.10822 25.44719 15.22887 25.51021 15.30447 25.57321 15.3801 25.67429 15.50201 25.73729 15.57828 25.80031 15.65456 25.90137 15.7773 25.96439 15.85423 26.02739 15.93115 26.12843 16.05513 26.19145 16.13278 26.25446 16.21043 26.35553 16.33563 26.41853 16.41394 26.48155 16.49223 26.58261 16.61827 26.64563 16.69725 26.70863 16.77623 26.8097 16.90353 26.87271 16.98315 26.93573 17.06279 27.03677 17.19093 27.09978 17.27124 27.1628 17.35153 27.26385 17.48088 27.32687 17.56189 27.38988 17.64291 27.49095 17.7735 27.55396 17.85516 27.61697 17.93683 27.71802 18.06824 27.78104 18.15057 27.84404 18.23291 27.9451 18.36562 28.00812 18.4486 28.07114 18.53159 28.1722 18.66512 28.2352 18.74878 28.29822 18.83243 28.39926 18.96724 28.46228 19.05156 28.52528 19.13586 28.62636 19.27145 28.68936 19.35649 28.75238 19.44153 28.85344 19.57877 28.91646 19.66446 28.97946 19.75015 29.0805 19.88782 29.14352 19.97417 29.20653 20.0605 29.3076 20.1998 29.3706 20.28688 29.43362 20.37396 29.53468 20.51404 29.5977 20.60178 29.6607 20.6895 29.76176 20.83086 29.82478 20.91925 29.8878 21.00764 29.98885 21.14986 30.05185 21.2389 30.11487 21.32796 30.21593 21.47137 30.27895 21.56114 30.34195 21.65091 30.44302 21.79555 30.50603 21.88597 30.56905 21.97641 30.67009 22.12189 30.73311 22.21297 30.79611 22.30406 30.89717 22.4508 30.96019 22.54257 31.02321 22.63432 31.12427 22.7819 31.18727 22.87431 31.25029 22.96674 31.35133 23.11559 31.41435 23.20866 31.47736 23.30176 31.57843 23.45146 31.64143 23.5452 31.70445 23.63893 31.80551 23.78986 31.86853 23.88431 31.93153 23.97876 32.03258 24.13083 32.0956 24.226 32.1586 24.32118 32.25967 24.47453 32.32268 24.57031 32.3857 24.66608 32.48676 24.81992 32.54977 24.91634 32.61278 25.01277 32.71382 25.16823 32.77684 25.2654 32.83986 25.36255 32.94092 25.51881 33.00392 25.61662 33.06694 25.71443 33.168 25.87195 33.23102 25.97043 33.29402 26.06891 33.3951 26.22722 33.4581 26.32642 33.52112 26.42561 33.62216 26.58556 33.68518 26.68542 33.74818 26.78528 33.84924 26.9457 33.91226 27.04616 33.97528 27.1466 34.07634 27.3083 34.13934 27.40948 34.20236 27.51065 34.3034 27.67351 34.36642 27.7754 34.42943 27.8773 34.5305 28.04138 34.5935 28.14394 34.65652 28.24649 34.75758 28.41145 34.8206 28.51462 34.8836 28.61778 34.98465 28.78365 35.04767 28.88747 35.11067 28.99127 35.21175 29.15836 35.27475 29.26291 35.33777 29.36745 35.43883 29.53569 35.50185 29.64095 35.56485 29.7462 35.6659 29.91568 35.72891 30.02159 35.79193 30.1275 35.89299 30.29779 35.956 30.40437 36.01901 30.51096 36.12007 30.68254 36.18309 30.78978 36.2461 30.897 36.34717 31.06941 36.41017 31.17732 36.47319 31.28522 36.57423 31.45892 36.63725 31.56747 36.70026 31.67604 36.80132 31.85057 36.86433 31.95978 36.92735 32.06898 37.02841 32.24475 37.09142 32.35469 37.15443 32.46465 37.25548 32.64154 37.3185 32.7522 37.3815 32.86285 37.48257 33.04095 37.54558 33.15228 37.6086 33.26361 37.70966 33.44264 37.77267 33.55457 37.83568 33.66647 37.93672 33.8464 37.99974 33.95898 38.06274 34.07155 38.16382 34.2527 38.22682 34.366 38.28984 34.4793 38.3909 34.66159 38.45392 34.77562 38.51692 34.88963 38.61797 35.07314 38.68098 35.18782 38.744 35.30249 38.84506 35.48691 38.90807 35.60219 38.97108 35.71747 39.07214 35.90277 39.13516 36.01872 39.19817 36.13467 39.29924 36.3212 39.36224 36.43785 39.42526 36.55452 39.5263 36.7422 39.58932 36.85957 39.65233 36.97694 39.75339 37.16585 39.8164 37.28389 39.87943 37.40193 39.98048 37.59174 40.04349 37.71037 40.1065 37.82901 40.20755 38.01971 40.27057 38.13902 40.33357 38.25833 40.43465 38.45026 40.49765 38.57027 40.56067 38.69029 40.66173 38.88342 40.72475 39.0041 40.78775 39.12477 40.8888 39.31876 40.95181 39.4401 41.01482 39.56143 41.11589 39.75664 41.1789 39.8787 41.24191 40.00075 41.34297 40.1971 41.40599 40.31989 41.469 40.44267 41.57005 40.64027 41.63306 40.76366 41.69608 40.88704 41.79713 41.08513 41.86014 41.20918 41.92316 41.33324 42.02422 41.53296 42.08723 41.65771 42.15024 41.78247 42.2513 41.983 42.3143 42.10843 42.37732 42.23384 42.47838 42.43564 42.5414 42.56172 42.6044 42.6878 42.70546 42.89044 42.76848 43.01718 42.8315 43.14392 42.93256 43.34778 42.99556 43.47525 43.05858 43.60272 43.15962 43.80777 43.22264 43.9359 43.28564 44.06403 43.38672 44.26993 43.44972 44.39871 43.51274 44.52748 43.6138 44.73466 43.67682 44.86412 43.73982 44.99356 43.84087 45.2016 43.90388 45.3317 43.96689 45.46179 44.06796 45.6711 44.13097 45.80186 44.19398 45.93263 44.29504 46.14278 44.35806 46.27419 44.42107 46.40561 44.52213 46.61697 44.58513 46.74911 44.64815 46.88126 44.7492 47.09384 44.81221 47.22664 44.87523 47.35945 44.97629 47.5728 45.0393 47.70633 45.10231 47.83984 45.20337 48.05486 45.26637 48.18904 45.32939 48.32324 45.43045 48.53871 45.49347 48.6735 45.55647 48.80827 45.65753 49.02502 45.72055 49.16054 45.78357 49.29604 45.88463 49.51393 45.94763 49.65016 46.01065 49.78638 46.1117 50.00557 46.17471 50.14238 46.23772 50.2792 46.33879 50.49886 46.4018 50.63634 46.46481 50.77382 46.56587 50.99506 46.62889 51.13332 46.6919 51.27158 46.79294 51.49397 46.85596 51.6329 46.91896 51.77184 47.02003 51.99513 47.08304 52.13466 47.14606 52.27419 47.24712 52.49838 47.31013 52.63857 47.37314 52.77873 47.4742 53.00421 47.5372 53.14507 47.60022 53.2859 47.70128 53.51218 47.76428 53.65373 47.8273 53.79529 47.92836 54.02313 47.99138 54.16542 48.05438 54.30771 48.15544 54.53639 48.21844 54.67928 48.28146 54.82216 48.38252 55.0517 48.44554 55.1953 48.50854 55.33888 48.6096 55.57007 48.67262 55.71432 48.73564 55.8586 48.8367 56.09026 48.8997 56.23512 48.96272 56.37997 49.06377 56.61288 49.12679 56.75848 49.18979 56.90407 49.29086 57.13815 49.35387 57.28445 49.41689 57.43076 49.51794 57.66603 49.58096 57.813 49.64397 57.95998 49.74501 58.19618 49.80803 58.34373 49.87103 58.4913 49.9721 58.72833 50.03511 58.87662 50.09813 59.0249 50.19919 59.26352 50.2622 59.41254 50.32521 59.56154 50.42627 59.80103 50.48927 59.95062 50.55229 60.10022 50.65335 60.34052 50.71635 60.49086 50.77937 60.64119 50.88043 60.88313 50.94345 61.03413 51.00645 61.18512 51.10751 61.42747 51.17052 61.57912 51.23354 61.73076 51.3346 61.97478 51.39761 62.12715 51.46062 62.27953 51.56168 62.52432 51.6247 62.67734 51.68771 62.83037 51.78876 63.07642 51.85176 63.23012 51.91478 63.3838 52.01584 63.63072 52.07886 63.78506 52.14186 63.9394 52.24294 64.18759 52.30594 64.3426 52.36896 64.49762 52.47002 64.74664 52.53304 64.90231 52.59604 65.05798 52.69708 65.30823 52.7601 65.4646 52.8231 65.62099 52.92418 65.87247 52.98718 66.02951 53.0502 66.18657 53.15126 66.43886 53.21428 66.59656 53.27728 66.75427 53.37834 67.00783 53.44135 67.16621 53.50436 67.32458 53.60542 67.57901 53.66843 67.73804 53.73145 67.89706 53.8325 68.1527 53.89552 68.31244 53.95853 68.47218 54.05959 68.72897 54.12259 68.88945 54.18561 69.04991 54.28667 69.30798 54.34969 69.46906 54.41269 69.63011 54.51375 69.88864 54.57677 70.05037 54.63979 70.21211 54.74083 70.47229 54.80383 70.63474 54.86685 70.79718 54.96791 71.05817 55.03093 71.22127 55.09393 71.38437 55.195 71.64659 55.25801 71.81036 55.32103 71.97414 55.42209 72.23723 55.4851 72.40164 55.54811 72.56607 55.64915 72.83037 55.71217 72.99553 55.77518 73.16069 55.87625 73.4262 55.93925 73.592 56.00227 73.7578 56.10333 74.02415 56.16635 74.19063 56.22935 74.35712 56.33041 74.62473 56.39342 74.79185 56.45644 74.95898 56.6205 75.39525 56.6205 75.39525"/>
<use data-text="y" xlink:href="#font_1_6" transform="matrix(9.9626,0,0,-9.963098,124.196,66.91869)" fill="#00ff00"/>
<use data-text="=" xlink:href="#font_2_4" transform="matrix(9.9626,0,0,-9.963098,132.206,66.91869)" fill="#00ff00"/>
<use data-text="h" xlink:href="#font_1_4" transform="matrix(9.9626,0,0,-9.963098,142.722,66.91869)" fill="#00ff00"/>
<use data-text="(" xlink:href="#font_2_1" transform="matrix(9.9626,0,0,-9.963098,148.462,66.91869)" fill="#00ff00"/>
<use data-text="x" xlink:href="#font_1_5" transform="matrix(9.9626,0,0,-9.963098,152.336,66.91869)" fill="#00ff00"/>
<use data-text=")" xlink:href="#font_2_2" transform="matrix(9.9626,0,0,-9.963098,158.03,66.91869)" fill="#00ff00"/>
<use data-text="&#x2022;" xlink:href="#font_3_1" transform="matrix(9.9626,0,0,-9.963098,61.365007,133.34001)"/>
<use data-text="(" xlink:href="#font_2_1" transform="matrix(9.9626,0,0,-9.963098,67.376,142.11846)"/>
<use data-text="0" xlink:href="#font_2_3" transform="matrix(9.9626,0,0,-9.963098,71.24149,142.11846)"/>
<use data-text="," xlink:href="#font_1_1" transform="matrix(9.9626,0,0,-9.963098,76.232,142.11846)"/>
<use data-text="0" xlink:href="#font_2_3" transform="matrix(9.9626,0,0,-9.963098,80.659999,142.11846)"/>
<use data-text=")" xlink:href="#font_2_2" transform="matrix(9.9626,0,0,-9.963098,85.64129,142.11846)"/>
</svg>
