<svg xmlns="http://www.w3.org/2000/svg" xmlns:xlink="http://www.w3.org/1999/xlink" version="1.1" width="307" height="167" viewBox="0 0 307 167">
<defs>
<path id="font_1_2" d="M.33399964 .30233766C.33999635 .32835389 .36299134 .42037965 .43299867 .42037965 .43798829 .42037965 .46199037 .42037965 .48298646 .40734864 .45498658 .402359 .43499757 .37734986 .43499757 .35334779 .43499757 .33735658 .44599916 .31835938 .47299195 .31835938 .49499513 .31835938 .5269928 .3363495 .5269928 .37635804 .5269928 .42837525 .46798707 .4423828 .43399049 .4423828 .37599183 .4423828 .34098817 .38935853 .32899476 .36634828 .3039856 .43237306 .25 .4423828 .22099304 .4423828 .116989139 .4423828 .05999756 .3133545 .05999756 .28834535 .05999756 .27833558 .069992069 .27833558 .07199097 .27833558 .07998657 .27833558 .08299255 .28033448 .084991458 .28933717 .11898804 .39535523 .18499756 .42037965 .21899414 .42037965 .23799134 .42037965 .272995 .4113617 .272995 .35334779 .272995 .32235719 .2559967 .25532533 .21899414 .11528015 .20298767 .053268434 .16799927 .011245728 .12399292 .011245728 .117996219 .011245728 .09498596 .011245728 .07398987 .024276734 .09899902 .029266358 .12098694 .05027771 .12098694 .07827759 .12098694 .105270389 .09899902 .11328125 .083999637 .11328125 .053985597 .11328125 .0289917 .08728027 .0289917 .055267335 .0289917 .009246826 .07899475-.0107421879 .12298584-.0107421879 .18899536-.0107421879 .22499085 .059280397 .22799683 .0652771 .23999024 .028274537 .27598573-.0107421879 .33599855-.0107421879 .43899537-.0107421879 .49598695 .118270877 .49598695 .14328003 .49598695 .1532898 .4869995 .1532898 .48399354 .1532898 .47499085 .1532898 .47299195 .14929199 .47099305 .14228821 .43798829 .03527832 .36999513 .011245728 .33799745 .011245728 .29899598 .011245728 .2829895 .043273927 .2829895 .07727051 .2829895 .09927368 .2889862 .121276859 .2999878 .16529846L.33399964 .30233766Z"/>
<path id="font_1_3" d="M.48599244 .38136292C.48999024 .39537049 .48999024 .39736939 .48999024 .40437318 .48999024 .42237855 .47599793 .43138124 .46099855 .43138124 .45098878 .43138124 .43499757 .42536927 .42599488 .41036988 .42399598 .405365 .41600038 .37435914 .4119873 .35635377 .40499879 .33035279 .397995 .30334474 .3919983 .27633668L.34700013 .09628296C.34298707 .08126831 .2999878 .011245728 .23399353 .011245728 .18299866 .011245728 .17199707 .055267335 .17199707 .0922699 .17199707 .1382904 .18899536 .20030213 .22299195 .28833009 .23899842 .3293457 .24299622 .3403473 .24299622 .36035157 .24299622 .405365 .21099854 .4423828 .16099549 .4423828 .06599426 .4423828 .0289917 .29733277 .0289917 .28833009 .0289917 .27833558 .038986207 .27833558 .040985109 .27833558 .050994874 .27833558 .051986696 .28033448 .056991579 .29634095 .083999637 .3903656 .12399292 .42037965 .1579895 .42037965 .1659851 .42037965 .18299866 .42037965 .18299866 .3883667 .18299866 .36335755 .17298889 .3373413 .1659851 .31834413 .12599182 .21231079 .10798645 .1552887 .10798645 .10827637 .10798645 .019256592 .17098999-.0107421879 .22999573-.0107421879 .2689972-.0107421879 .30299378 .0062561037 .33099366 .03425598 .31799317-.017745972 .30599977-.06674194 .2659912-.11973572 .23999024-.15385437 .20199585-.18309021 .1559906-.18309021 .14199829-.18309021 .09700012-.18005371 .07998657-.14074707 .09599304-.14074707 .10899353-.14074707 .12298584-.1287384 .1329956-.11973572 .14299011-.10673523 .14299011-.08773804 .14299011-.056747438 .115997318-.052734376 .10598755-.052734376 .08299255-.052734376 .049987794-.068740848 .049987794-.11773682 .049987794-.16796875 .09399414-.20507813 .1559906-.20507813 .25898744-.20507813 .3619995-.11373901 .3899994-.00074768069L.48599244 .38136292Z"/>
<clipPath id="clip_2">
<path transform="matrix(1.00008,0,0,-1.00006,148.90847,159.47679)" d="M-141.73404 0V141.73404H141.73404V0ZM141.73404 141.73404"/>
</clipPath>
<path id="font_3_1" d="M.44400025 .24998474C.44400025 .35688783 .35499574 .44381715 .25 .44381715 .14199829 .44381715 .054992677 .35488893 .054992677 .24998474 .054992677 .14407349 .14199829 .056137086 .25 .056137086 .35499574 .056137086 .44400025 .14308167 .44400025 .24998474Z"/>
<path id="font_4_1" d="M.33099366-.2400055C.33099366-.23701477 .33099366-.23500061 .31399537-.21800232 .18899536-.0920105 .15699768 .09700012 .15699768 .25 .15699768 .42399598 .19499207 .59799197 .31799317 .72299197 .33099366 .73498538 .33099366 .7369995 .33099366 .73999026 .33099366 .746994 .32699586 .75 .32099916 .75 .31098939 .75 .22099304 .6819916 .1619873 .5549927 .11099243 .44499208 .09899902 .33399964 .09899902 .25 .09899902 .17199707 .10998535 .050994874 .16499329-.06201172 .22499085-.18501282 .31098939-.25 .32099916-.25 .32699586-.25 .33099366-.24700928 .33099366-.2400055Z"/>
<path id="font_4_3" d="M.45999146 .31976319C.45999146 .39982606 .45498658 .47988893 .41999818 .5539398 .37399293 .65000918 .2919922 .6660156 .25 .6660156 .18998719 .6660156 .116989139 .64001467 .07598877 .54693606 .04399109 .47789 .038986207 .39982606 .038986207 .31976319 .038986207 .24472046 .042999269 .15464783 .083999637 .07859802 .1269989-.0024719239 .19999695-.022460938 .24899292-.022460938 .30299378-.022460938 .3789978-.0014648438 .4229889 .09359741 .45498658 .16265869 .45999146 .2407074 .45999146 .31976319M.24899292-.00047302247C.20999146-.00047302247 .15098572 .024551392 .1329956 .12062073 .12199402 .18066406 .12199402 .2727356 .12199402 .3317871 .12199402 .39582826 .12199402 .46188355 .12998963 .5159149 .14898682 .63500979 .22399903 .64401248 .24899292 .64401248 .28199769 .64401248 .34799195 .6259918 .36698915 .52693179 .3769989 .47088624 .3769989 .39482118 .3769989 .3317871 .3769989 .25672914 .3769989 .18867493 .3659973 .12461853 .35099793 .029556275 .2939911-.00047302247 .24899292-.00047302247Z"/>
<path id="font_1_1" d="M.20298767 .0009918213C.20298767 .066986087 .17799378 .10598755 .13899231 .10598755 .10598755 .10598755 .085998538 .08099365 .085998538 .052993776 .085998538 .025985718 .10598755 0 .13899231 0 .15098572 0 .1639862 .0039978029 .17399597 .0129852299 .1769867 .01499939 .17799378 .015991211 .1789856 .015991211 .17999268 .015991211 .18099976 .01499939 .18099976 .0009918213 .18099976-.07316589 .1459961-.13328552 .11299133-.16635132 .101989749-.17736817 .101989749-.17936707 .101989749-.18237305 .101989749-.18936157 .10699463-.19335938 .11199951-.19335938 .12298584-.19335938 .20298767-.116256717 .20298767 .0009918213Z"/>
<path id="font_4_4" d="M.2939911 .64004519C.2939911 .66400149 .2939911 .6660156 .2709961 .6660156 .20899964 .60227969 .12098694 .60227969 .08898926 .60227969V.57128909C.10899353 .57128909 .16799927 .57128909 .21998596 .5972748V.07902527C.21998596 .042999269 .21699524 .0309906 .1269989 .0309906H.09498596V0C.12998963 .0029907227 .21699524 .0029907227 .25698854 .0029907227 .29699708 .0029907227 .38398744 .0029907227 .4189911 0V.0309906H.3869934C.29699708 .0309906 .2939911 .041992189 .2939911 .07902527V.64004519Z"/>
<path id="font_4_2" d="M.2889862 .25C.2889862 .32798768 .27799989 .44898988 .22299195 .56199648 .16299439 .68499758 .07699585 .75 .066986087 .75 .06098938 .75 .056991579 .74598696 .056991579 .73999026 .056991579 .7369995 .056991579 .73498538 .07598877 .71699526 .17399597 .6179962 .23098755 .45899964 .23098755 .25 .23098755 .07899475 .19400025-.09700012 .069992069-.2230072 .056991579-.23500061 .056991579-.23701477 .056991579-.2400055 .056991579-.2460022 .06098938-.25 .066986087-.25 .07699585-.25 .16699219-.18200684 .22599793-.055007936 .2769928 .054992677 .2889862 .16600037 .2889862 .25Z"/>
</defs>
<path transform="matrix(1.00008,0,0,-1.00006,148.90847,159.47679)" stroke-width=".19925" stroke-linecap="butt" stroke-miterlimit="10" stroke-linejoin="miter" fill="none" stroke="#929292" d="M-141.73404 0H141.73404M-141.73404 28.3468H141.73404M-141.73404 56.69362H141.73404M-141.73404 85.04042H141.73404M-141.73404 113.38724H141.73404M-141.73404 141.72409H141.73404M-141.73404 0V141.73404M-113.38724 0V141.73404M-85.04042 0V141.73404M-56.69362 0V141.73404M-28.3468 0V141.73404M0 0V141.73404M28.3468 0V141.73404M56.69362 0V141.73404M85.04042 0V141.73404M113.38724 0V141.73404M141.72409 0V141.73404M141.73404 141.73404"/>
<path transform="matrix(1.00008,0,0,-1.00006,148.90847,159.47679)" stroke-width="1.19553" stroke-linecap="butt" stroke-miterlimit="10" stroke-linejoin="miter" fill="none" stroke="#000000" d="M-147.40332 0H146.4469"/>
<path transform="matrix(1.00008,0,0,-1.00006,295.36708,159.47679)" stroke-width=".9564" stroke-linecap="round" stroke-linejoin="round" fill="none" stroke="#000000" d="M-1.91284 2.55046C-1.75343 1.59402 0 .15938 .4782 0 0-.15938-1.75343-1.59402-1.91284-2.55046"/>
<use data-text="x" xlink:href="#font_1_2" transform="matrix(9.963397,0,0,-9.963197,300.24256,161.62192)"/>
<path transform="matrix(1.00008,0,0,-1.00006,148.90847,159.47679)" stroke-width="1.19553" stroke-linecap="butt" stroke-miterlimit="10" stroke-linejoin="miter" fill="none" stroke="#000000" d="M0-5.66927V146.4469"/>
<path transform="matrix(0,-1.00006,-1.00008,-0,148.90847,13.021118)" stroke-width=".9564" stroke-linecap="round" stroke-linejoin="round" fill="none" stroke="#000000" d="M-1.91284 2.55046C-1.75343 1.59402 0 .15938 .4782 0 0-.15938-1.75343-1.59402-1.91284-2.55046"/>
<use data-text="y" xlink:href="#font_1_3" transform="matrix(9.963397,0,0,-9.963197,146.28726,6.208603)"/>
<g clip-path="url(#clip_2)">
<path transform="matrix(1.00008,0,0,-1.00006,148.90847,159.47679)" stroke-width=".79701" stroke-linecap="butt" stroke-miterlimit="10" stroke-linejoin="miter" fill="none" stroke="#0000ff" d="M-141.73404 .88452C-141.73404 .88452-141.3237 .89224-141.1661 .89577-141.00853 .89929-140.75579 .90651-140.59819 .91005-140.44062 .91357-140.18785 .91777-140.03026 .9213-139.87268 .92482-139.61994 .93204-139.46236 .93556-139.30477 .9391-139.052 .94328-138.89443 .94682-138.73683 .95035-138.48409 .95718-138.3265 .96107-138.16892 .96497-137.91616 .97104-137.75858 .97493-137.60099 .97882-137.34824 .98524-137.19066 .9892-137.03307 .99315-136.7803 .99953-136.62273 1.00348-136.46515 1.00743-136.21239 1.0138-136.05481 1.01775-135.89723 1.0217-135.64449 1.02814-135.4869 1.03203-135.32932 1.03592-135.07656 1.04196-134.91896 1.04585-134.76139 1.04974-134.50864 1.05618-134.35105 1.06013-134.19347 1.06409-133.9407 1.07045-133.78311 1.0744-133.62554 1.07835-133.37279 1.08437-133.21521 1.08868-133.05762 1.093-132.80486 1.10124-132.64728 1.10556-132.48969 1.10988-132.23694 1.11551-132.07936 1.11983-131.92177 1.12415-131.669 1.13237-131.51143 1.13669-131.35384 1.141-131.10109 1.14665-130.94351 1.15097-130.78592 1.15529-130.53316 1.16316-130.37558 1.16783-130.218 1.17252-129.96524 1.18-129.80767 1.18471-129.65009 1.18944-129.39734 1.19728-129.23975 1.20201-129.08217 1.20674-128.8294 1.2142-128.67182 1.21887-128.51424 1.22354-128.26149 1.23102-128.1039 1.23575-127.94632 1.24048-127.69356 1.24832-127.53596 1.25305-127.37839 1.25777-127.12564 1.26526-126.96806 1.26991-126.81047 1.27458-126.55771 1.2817-126.40013 1.28677-126.24254 1.29187-125.98979 1.30153-125.83221 1.30667-125.67462 1.31183-125.42186 1.31883-125.26428 1.32397-125.10669 1.32913-124.85394 1.33879-124.69637 1.34387-124.53877 1.34897-124.28601 1.35565-124.12843 1.36075-123.97086 1.36584-123.7181 1.37514-123.56052 1.38065-123.40294 1.38617-123.15019 1.39502-122.9926 1.40053-122.83502 1.40605-122.58226 1.41492-122.42467 1.42044-122.26709 1.42595-122.01434 1.43488-121.85675 1.44034-121.69917 1.44579-121.44641 1.45435-121.28882 1.45981-121.13124 1.46527-120.8785 1.47417-120.72092 1.47969-120.56332 1.48521-120.31056 1.49367-120.15298 1.49959-119.99539 1.50552-119.74265 1.51659-119.58507 1.52252-119.42747 1.52844-119.17471 1.53654-119.01714 1.54242-118.85954 1.54828-118.6068 1.55905-118.44922 1.56491-118.29163 1.57079-118.03888 1.57893-117.8813 1.5848-117.72372 1.59067-117.47095 1.601-117.31337 1.6073-117.15579 1.61359-116.90305 1.62393-116.74545 1.63022-116.58788 1.63652-116.33511 1.64641-116.17752 1.65271-116.01994 1.659-115.7672 1.66891-115.6096 1.67563-115.45203 1.68234-115.19926 1.69449-115.04167 1.70116-114.8841 1.70781-114.63135 1.717-114.47377 1.72365-114.31618 1.73032-114.06342 1.74251-113.90584 1.74916-113.74825 1.75581-113.4955 1.765-113.33792 1.77167-113.18033 1.77832-112.92757 1.79012-112.76999 1.79718-112.6124 1.80426-112.35965 1.81563-112.20207 1.8227-112.04448 1.82976-111.79173 1.84116-111.63416 1.84822-111.47658 1.85529-111.2238 1.86667-111.06622 1.87375-110.90865 1.88081-110.6559 1.89175-110.4983 1.89925-110.34073 1.90675-110.08797 1.9203-109.93037 1.9278-109.7728 1.9353-109.52005 1.94589-109.36246 1.95332-109.20488 1.96075-108.95212 1.97359-108.79453 1.98145-108.63695 1.9893-108.3842 2.00208-108.22662 2.00998-108.06903 2.01788-107.81627 2.03067-107.65869 2.03853-107.5011 2.04639-107.24835 2.05879-107.09077 2.06665-106.93318 2.07451-106.68042 2.08734-106.52284 2.0952-106.36525 2.10306-106.1125 2.1151-105.95493 2.1233-105.79733 2.13152-105.54459 2.1462-105.38701 2.15446-105.22943 2.16273-104.97665 2.17473-104.81908 2.183-104.6615 2.19127-104.40875 2.2055-104.25116 2.21414-104.09358 2.22278-103.84082 2.23666-103.68323 2.2453-103.52565 2.25392-103.2729 2.26779-103.11531 2.27643-102.95773 2.28506-102.70497 2.29852-102.54738 2.30757-102.3898 2.31664-102.13705 2.33269-101.97948 2.34175-101.82188 2.35081-101.56912 2.36383-101.41154 2.37288-101.25395 2.38194-101.0012 2.39764-100.84363 2.40706-100.68604 2.41647-100.43327 2.43138-100.2757 2.4408-100.1181 2.4502-99.86536 2.4655-99.70778 2.47496-99.55019 2.48444-99.29744 2.49973-99.13986 2.50914-98.98228 2.51855-98.7295 2.53304-98.57193 2.54288-98.41435 2.5527-98.1616 2.56981-98.00401 2.58008-97.84644 2.59033-97.59367 2.60664-97.43608 2.61685-97.2785 2.62704-97.02576 2.6434-96.86816 2.65361-96.71059 2.6638-96.45782 2.68011-96.30023 2.69038-96.14265 2.70064-95.88991 2.71732-95.73233 2.72757-95.57474 2.73784-95.32198 2.75378-95.1644 2.76433-95.0068 2.77489-94.75406 2.79272-94.59648 2.8037-94.43889 2.81467-94.18614 2.83246-94.02856 2.84349-93.87097 2.85452-93.61821 2.87224-93.46063 2.88327-93.30304 2.89432-93.0503 2.91167-92.89272 2.92308-92.73514 2.93448-92.48236 2.95407-92.32478 2.96547-92.1672 2.97687-91.91446 2.99385-91.75687 3.00525-91.59929 3.01666-91.34653 3.03584-91.18893 3.04765-91.03136 3.05946-90.77861 3.07864-90.62102 3.09047-90.46344 3.10228-90.21068 3.12068-90.05309 3.13286-89.89551 3.14503-89.64276 3.16566-89.48518 3.17827-89.32759 3.19087-89.07483 3.21152-88.91725 3.2237-88.75966 3.23587-88.50691 3.25356-88.34933 3.26608-88.19174 3.27861-87.939 3.30113-87.78142 3.31409-87.62383 3.32704-87.37106 3.34691-87.21349 3.35951-87.0559 3.37212-86.80315 3.3919-86.64557 3.40492-86.48799 3.41792-86.23521 3.43999-86.07764 3.45337-85.92006 3.46674-85.66731 3.48763-85.50972 3.50137-85.35214 3.51512-85.09938 3.53862-84.94179 3.55241-84.78421 3.56622-84.53146 3.58708-84.37387 3.60088-84.2163 3.61465-83.96353 3.63776-83.80594 3.6519-83.64836 3.66606-83.39561 3.68878-83.23804 3.70294-83.08044 3.71709-82.82768 3.73947-82.6701 3.75398-82.51251 3.76851-82.25977 3.7931-82.10219 3.80762-81.9446 3.82213-81.69185 3.8437-81.53427 3.85864-81.37668 3.8736-81.12392 3.89996-80.96634 3.91533-80.80875 3.93068-80.556 3.95445-80.39842 3.96938-80.24084 3.98431-79.98807 4.00772-79.83049 4.02301-79.67291 4.0383-79.42017 4.06396-79.26257 4.07968-79.105 4.0954-78.85223 4.12021-78.69464 4.13634-78.53706 4.15248-78.28432 4.17949-78.12672 4.19604-77.96915 4.2126-77.71638 4.2396-77.55879 4.25572-77.40121 4.27185-77.14847 4.29588-76.99089 4.31238-76.8333 4.32887-76.58054 4.35776-76.42296 4.37468-76.26537 4.3916-76.01262 4.41745-75.85504 4.43436-75.69745 4.45128-75.4447 4.47937-75.28712 4.49664-75.12953 4.51392-74.87677 4.54123-74.7192 4.55893-74.5616 4.57663-74.30885 4.60612-74.15128 4.62425-73.9937 4.64238-73.74092 4.6715-73.58334 4.68956-73.42577 4.70763-73.17302 4.73639-73.01543 4.75444-72.85785 4.7725-72.60509 4.80122-72.4475 4.81975-72.28992 4.83829-72.03717 4.8692-71.87958 4.88809-71.722 4.907-71.46924 4.93674-71.31165 4.95601-71.15407 4.97527-70.90132 5.00726-70.74374 5.02693-70.58615 5.04662-70.3334 5.07822-70.17583 5.09789-70.01823 5.11755-69.76547 5.1492-69.6079 5.16882-69.4503 5.18843-69.19756 5.21928-69.03998 5.23932-68.88239 5.25935-68.62962 5.29282-68.47205 5.31328-68.31445 5.33374-68.0617 5.366-67.90413 5.38681-67.74655 5.40762-67.49377 5.44214-67.3362 5.46336-67.17862 5.4846-66.92587 5.51869-66.76828 5.53993-66.6107 5.56117-66.35794 5.59482-66.20035 5.61649-66.04277 5.63815-65.79002 5.67407-65.63243 5.69608-65.47485 5.7181-65.22209 5.75322-65.0645 5.77524-64.90692 5.79726-64.65417 5.83238-64.4966 5.85483-64.339 5.87726-64.08626 5.91379-63.92868 5.937-63.77109 5.96022-63.51833 5.999-63.36075 6.02222-63.20316 6.04543-62.95041 6.08124-62.79283 6.10439-62.63524 6.12755-62.38248 6.16518-62.2249 6.18918-62.0673 6.21318-61.81456 6.25299-61.65698 6.2774-61.4994 6.30182-61.24663 6.34087-61.08905 6.36522-60.93147 6.38957-60.67873 6.42824-60.52113 6.45302-60.36356 6.4778-60.1108 6.51865-59.9532 6.54385-59.79562 6.56906-59.54288 6.60913-59.38528 6.63469-59.2277 6.66023-58.97495 6.7022-58.81735 6.72812-58.65977 6.75403-58.40703 6.7952-58.24945 6.82155-58.09186 6.84789-57.83911 6.89125-57.68153 6.918-57.52394 6.94476-57.27118 6.98734-57.1136 7.01447-56.95601 7.04158-56.70326 7.08597-56.54568 7.1135-56.38809 7.14104-56.13533 7.18544-55.97775 7.21298-55.82016 7.24052-55.56741 7.28415-55.40984 7.31204-55.25226 7.33994-54.99948 7.38539-54.8419 7.41412-54.68433 7.44286-54.43158 7.49013-54.27399 7.51923-54.11641 7.54832-53.86365 7.59445-53.70605 7.6239-53.54848 7.65337-53.29573 7.70166-53.13814 7.7316-52.98056 7.76154-52.7278 7.80943-52.5702 7.83972-52.41263 7.87003-52.15988 7.91937-52.0023 7.95003-51.84471 7.9807-51.59196 8.0297-51.43439 8.06076-51.2768 8.09184-51.02403 8.14264-50.86646 8.17409-50.70886 8.20552-50.45612 8.25555-50.29854 8.28741-50.14095 8.31927-49.88818 8.37149-49.7306 8.40376-49.57301 8.43604-49.32027 8.48749-49.16269 8.52013-49.00511 8.55276-48.75233 8.60565-48.59476 8.63907-48.43718 8.67249-48.18443 8.7272-48.02684 8.76105-47.86926 8.79489-47.6165 8.8488-47.45891 8.88301-47.30133 8.91722-47.04858 8.97298-46.89099 9.00758-46.73341 9.0422-46.48067 9.09755-46.32307 9.1326-46.1655 9.16763-45.91273 9.22443-45.75516 9.2602-45.59756 9.29594-45.34482 9.35422-45.18724 9.3904-45.02965 9.42657-44.77689 9.4844-44.61931 9.52101-44.46172 9.55762-44.20897 9.61685-44.05139 9.65424-43.8938 9.69162-43.64104 9.75273-43.48346 9.79048-43.32587 9.82822-43.07312 9.88821-42.91554 9.9263-42.75797 9.9644-42.50519 10.02621-42.34761 10.06514-42.19003 10.10408-41.93729 10.16765-41.7797 10.20702-41.62212 10.24637-41.36935 10.30917-41.21176 10.34889-41.05418 10.38861-40.80144 10.45285-40.64384 10.49336-40.48627 10.53386-40.23352 10.5995-40.07593 10.64084-39.91835 10.68219-39.66559 10.74968-39.50801 10.79138-39.35042 10.83307-39.09767 10.8994-38.9401 10.94147-38.7825 10.98354-38.52974 11.0521-38.37216 11.09457-38.21457 11.13707-37.96182 11.20444-37.80424 11.24771-37.64665 11.29097-37.39389 11.36241-37.23631 11.40645-37.07872 11.45049-36.82597 11.52072-36.6684 11.56519-36.51082 11.60965-36.25804 11.68172-36.10046 11.72694-35.94289 11.77219-35.69014 11.84528-35.53255 11.89131-35.37497 11.93735-35.12221 12.01234-34.96461 12.05872-34.80704 12.1051-34.55429 12.17886-34.3967 12.22566-34.23912 12.27248-33.98637 12.34808-33.82878 12.3961-33.6712 12.4441-33.41844 12.5229-33.26086 12.5717-33.10327 12.62048-32.85052 12.69853-32.69295 12.74774-32.53535 12.79695-32.2826 12.87683-32.12502 12.92639-31.96742 12.97595-31.71468 13.05467-31.5571 13.10503-31.3995 13.15538-31.14674 13.23816-30.98917 13.28929-30.83157 13.34041-30.57883 13.42163-30.42125 13.47354-30.26367 13.52544-30.0109 13.61073-29.85332 13.66342-29.69574 13.71611-29.443 13.79985-29.2854 13.85332-29.12782 13.90678-28.87508 13.99452-28.71748 14.04883-28.5599 14.10312-28.30714 14.19003-28.14955 14.24477-27.99197 14.29948-27.73923 14.38786-27.58163 14.4433-27.42406 14.49875-27.1713 14.58778-27.01372 14.64442-26.85612 14.70107-26.60338 14.79419-26.4458 14.85161-26.28821 14.90903-26.03545 15.00058-25.87787 15.05836-25.72028 15.11613-25.46753 15.20952-25.30995 15.26814-25.15236 15.32678-24.8996 15.42114-24.74202 15.48096-24.58443 15.54077-24.33168 15.63882-24.1741 15.69939-24.01653 15.75993-23.76375 15.85605-23.60617 15.91737-23.4486 15.9787-23.19585 16.07925-23.03825 16.14143-22.88068 16.20361-22.62793 16.30255-22.47034 16.3655-22.31276 16.42845-22.06 16.53102-21.9024 16.59517-21.74483 16.65932-21.49208 16.76294-21.33449 16.82787-21.17691 16.89279-20.92415 16.99754-20.76657 17.06319-20.60898 17.12881-20.35623 17.23424-20.19865 17.30107-20.04106 17.36792-19.7883 17.47734-19.63072 17.54503-19.47313 17.6127-19.22038 17.7205-19.0628 17.78897-18.90521 17.85744-18.65245 17.96895-18.49487 18.03856-18.33728 18.10817-18.08453 18.22034-17.92696 18.29073-17.76938 18.36111-17.5166 18.4747-17.35902 18.54591-17.20145 18.61714-16.9487 18.73177-16.7911 18.80414-16.63353 18.87651-16.38078 18.99405-16.22319 19.06757-16.06561 19.14108-15.81285 19.25925-15.65526 19.334-15.49768 19.40877-15.24493 19.53094-15.08734 19.6065-14.92976 19.68205-14.677 19.8023-14.51942 19.87857-14.36183 19.95483-14.10909 20.07835-13.9515 20.15625-13.79391 20.23415-13.54115 20.3609-13.38358 20.44-13.22598 20.51909-12.97324 20.64647-12.81566 20.72633-12.65807 20.80621-12.4053 20.9347-12.24773 21.01572-12.09013 21.09673-11.83739 21.22804-11.67981 21.31026-11.52223 21.39247-11.26945 21.5253-11.11188 21.60828-10.9543 21.69127-10.70155 21.82433-10.54396 21.90846-10.38638 21.99258-10.13364 22.12895-9.97604 22.2147-9.81847 22.30046-9.5657 22.4396-9.40811 22.52655-9.25053 22.61351-8.99779 22.7533-8.8402 22.84145-8.68262 22.92961-8.42986 23.07266-8.27228 23.16196-8.11469 23.25125-7.86194 23.39458-7.70436 23.48508-7.54677 23.57558-7.294 23.72253-7.13643 23.81422-6.97884 23.90593-6.72609 24.05315-6.56851 24.14598-6.41092 24.23882-6.15816 24.38898-6.00058 24.48337-5.84299 24.57776-5.59024 24.73079-5.43266 24.82637-5.27509 24.92197-5.02232 25.07567-4.86475 25.1724-4.70717 25.26913-4.4544 25.42532-4.29681 25.5236-4.13924 25.6219-3.88649 25.78096-3.7289 25.88089-3.57132 25.9808-3.31856 26.14226-3.16096 26.24379-3.00339 26.34532-2.75064 26.51007-2.59305 26.61275-2.43547 26.71542-2.18271 26.88005-2.02513 26.98387-1.86754 27.08768-1.61479 27.2556-1.45721 27.36104-1.29962 27.46649-1.04686 27.63719-.88928 27.74384-.73169 27.85048-.47894 28.02225-.32137 28.12965-.16377 28.23708 .08896 28.40898 .24654 28.51808 .40413 28.62718 .65688 28.80463 .81445 28.91602 .97203 29.02739 1.2248 29.20787 1.38237 29.32086 1.53995 29.43387 1.79271 29.61592 1.9503 29.73048 2.10788 29.84505 2.36063 30.03047 2.51822 30.14658 2.6758 30.2627 2.92856 30.4497 3.08615 30.56744 3.24373 30.68518 3.49648 30.87576 3.65407 30.99522 3.81165 31.1147 4.0644 31.30753 4.22198 31.42862 4.37958 31.54973 4.63232 31.7453 4.7899 31.86809 4.9475 31.99088 5.20026 32.18903 5.35783 32.31361 5.51543 32.43819 5.76817 32.63983 5.92575 32.76604 6.08334 32.89224 6.3361 33.09523 6.49368 33.22324 6.65128 33.35123 6.90402 33.55879 7.0616 33.68864 7.21918 33.8185 7.47194 34.02763 7.62952 34.15923 7.7871 34.29083 8.03986 34.5038 8.19745 34.63719 8.35503 34.7706 8.60777 34.98544 8.76537 35.12077 8.92294 35.2561 9.1757 35.47527 9.3333 35.61258 9.49088 35.74988 9.74362 35.97127 9.90121 36.11043 10.05879 36.24959 10.31155 36.47453 10.46913 36.61563 10.62672 36.75671 10.87947 36.98425 11.03705 37.12732 11.19464 37.27039 11.4474 37.50175 11.60498 37.64679 11.76257 37.79184 12.01532 38.02562 12.1729 38.17276 12.33049 38.3199 12.58325 38.55824 12.74083 38.70738 12.89842 38.8565 13.15117 39.09645 13.30875 39.24762 13.46632 39.39879 13.71909 39.64355 13.87666 39.79695 14.03424 39.95033 14.287 40.19771 14.4446 40.3532 14.60217 40.50867 14.85492 40.75995 15.01251 40.91765 15.17009 41.07536 15.42285 41.32997 15.58044 41.4899 15.73802 41.64983 15.99077 41.90822 16.14836 42.07036 16.30594 42.2325 16.5587 42.49413 16.71628 42.65862 16.87387 42.8231 17.12662 43.0893 17.2842 43.25595 17.44179 43.42259 17.69455 43.69089 17.85213 43.85977 18.00972 44.02864 18.26247 44.30183 18.42004 44.47311 18.57764 44.64438 18.83038 44.92044 18.98796 45.09422 19.14555 45.26802 19.39832 45.5496 19.5559 45.72574 19.71347 45.90187 19.96623 46.18507 20.12381 46.36372 20.28139 46.54239 20.53415 46.83205 20.69174 47.0134 20.84932 47.19476 21.10207 47.48715 21.25966 47.67085 21.41724 47.85455 21.67 48.15114 21.82759 48.3374 21.98517 48.52367 22.23792 48.8245 22.39551 49.01347 22.55309 49.20244 22.80585 49.50803 22.96342 49.69948 23.12102 49.89091 23.37376 50.19917 23.53134 50.39326 23.68893 50.58734 23.9417 50.90134 24.09927 51.0983 24.25687 51.29526 24.50961 51.61319 24.66719 51.81285 24.82478 52.01251 25.07753 52.33499 25.2351 52.53734 25.3927 52.7397 25.64546 53.066 25.80304 53.27136 25.96062 53.47672 26.21338 53.80925 26.37096 54.01749 26.52853 54.22572 26.7813 54.56126 26.93889 54.77226 27.09647 54.98326 27.34921 55.3243 27.5068 55.5383 27.66438 55.75229 27.91714 56.0977 28.07474 56.3147 28.23232 56.53171 28.48506 56.88246 28.64265 57.10234 28.80023 57.32224 29.053 57.67635 29.21057 57.89952 29.36816 58.12271 29.62091 58.48466 29.77849 58.71095 29.93608 58.93726 30.18884 59.3012 30.34642 59.53062 30.50401 59.76006 30.75676 60.13188 30.91434 60.36456 31.07193 60.59723 31.32468 60.97179 31.48225 61.20757 31.63985 61.44334 31.89261 61.82474 32.05019 62.064 32.20776 62.30327 32.46053 62.68959 32.6181 62.9321 32.77568 63.17459 33.02844 63.566 33.18604 63.81187 33.34361 64.05775 33.59636 64.45474 33.75395 64.70421 33.91153 64.95367 34.16429 65.35718 34.32188 65.60994 34.47946 65.8627 34.73221 66.26968 34.8898 66.52605 35.04738 66.78242 35.30014 67.19783 35.45772 67.45773 35.61531 67.71765 35.86806 68.1358 36.02563 68.39938 36.18323 68.66295 36.43599 69.09016 36.59357 69.35745 36.75116 69.62476 37.0039 70.05501 37.16148 70.32591 37.31908 70.59682 37.57182 71.03514 37.7294 71.30994 37.887 71.58473 38.13976 72.02792 38.29733 72.3065 38.45491 72.58508 38.70767 73.03528 38.86525 73.31776 39.02283 73.60025 39.27559 74.05577 39.43318 74.34245 39.59076 74.62914 39.8435 75.09354 40.0011 75.384 40.15868 75.67447 40.41144 76.14128 40.56903 76.43593 40.72661 76.73059 40.97935 77.20901 41.13695 77.50777 41.29453 77.80652 41.54729 78.28647 41.70486 78.58911 41.86246 78.89175 42.1152 79.38197 42.27278 79.68906 42.43037 79.99612 42.68312 80.49101 42.8407 80.80241 42.99829 81.11382 43.25105 81.61769 43.40863 81.93349 43.56622 82.24928 43.81897 82.75838 43.97655 83.07843 44.13414 83.39847 44.3869 83.91544 44.54448 84.24022 44.70206 84.56502 44.95482 85.0899 45.1124 85.41931 45.26997 85.74873 45.52274 86.28087 45.68033 86.61443 45.8379 86.94797 46.09065 87.48506 46.24825 87.82336 46.40582 88.16165 46.65858 88.70966 46.81618 89.05263 46.97375 89.3956 47.2265 89.94742 47.3841 90.29532 47.54167 90.64322 47.79443 91.20714 47.95201 91.56006 48.1096 91.913 48.36235 92.48134 48.51993 92.83907 48.67752 93.1968 48.93027 93.77547 49.08784 94.13843 49.24544 94.50139 49.4982 95.0872 49.65578 95.45506 49.81337 95.82294 50.06612 96.41696 50.2237 96.78989 50.38129 97.1628 50.63405 97.76448 50.79163 98.14285 50.9492 98.52122 51.20197 99.13348 51.35954 99.51703 51.51712 99.90057 51.76988 100.51819 51.92747 100.9072 52.08505 101.2962 52.3378 101.9265 52.49539 102.32074 52.65297 102.71497 52.90573 103.34892 53.06332 103.74855 53.2209 104.14818 53.47365 104.79575 53.63124 105.20102 53.78882 105.60628 54.04158 106.25851 54.19916 106.66948 54.35675 107.08044 54.6095 107.74599 54.76707 108.16302 54.92467 108.58006 55.17741 109.25238 55.33499 109.67519 55.49258 110.09798 55.74535 110.78165 55.90292 111.21027 56.06052 111.63889 56.31326 112.32977 56.47084 112.76437 56.62843 113.19899 56.8812 113.90216 57.03877 114.34271 57.19635 114.78326 57.44911 115.49289 57.60669 115.93964 57.76427 116.38637 58.01703 117.1093 58.17462 117.56252 58.3322 118.01573 58.58495 118.74681 58.74254 119.20615 58.90012 119.6655 59.15288 120.40746 59.31047 120.87315 59.46805 121.33885 59.7208 122.09053 59.87839 122.56265 60.03596 123.03479 60.28873 123.79709 60.4463 124.27594 60.6039 124.75479 60.85664 125.52818 61.01422 126.01387 61.17181 126.49956 61.42456 127.28387 61.58214 127.77647 61.73973 128.26906 61.9925 129.06459 62.15007 129.56415 62.30766 130.06369 62.56041 130.8709 62.71799 131.37693 62.87558 131.88295 63.12834 132.69785 63.28592 133.2113 63.4435 133.72478 63.69626 134.55727 63.85384 135.0777 64.01141 135.59815 64.26418 136.43447 64.42177 136.96228 64.57935 137.4901 64.83209 138.34662 64.98969 138.88188 65.14726 139.41715 65.40002 140.27758 65.55762 140.82009 65.7152 141.3626 65.96794 142.24166 66.12553 142.79203 66.28311 143.34239 66.53586 144.22907 66.69344 144.78688 66.85103 145.34471 67.10379 146.24654 67.26137 146.81246 67.41896 147.37839 67.6717 148.29187 67.82928 148.86573 67.98688 149.43956 68.23964 150.36693 68.39722 150.94838 68.55481 151.52985 68.80756 152.46654 68.96513 153.05658 69.12273 153.64664 69.37549 154.60289 69.53307 155.20111 69.69064 155.79932 69.9434 156.76181 70.10098 157.36812 70.25856 157.97444 70.51132 158.95597 70.66891 159.57105 70.82649 160.18611 71.07924 161.17803 71.23683 161.8012 71.39441 162.42438 71.64717 163.43004 71.80476 164.06252 71.96234 164.69499 72.21509 165.71843 72.37268 166.35973 72.53026 167.00102 72.783 168.03473 72.94058 168.68462 73.09818 169.33449 73.35094 170.3843 73.50851 171.04367 73.6661 171.70304 73.91885 172.76877 74.07643 173.4369 74.23402 174.10503 74.48679 175.18128 74.64436 175.85913 74.80196 176.53699 75.0547 177.63523 75.21228 178.32242 75.36987 179.00963 75.62263 180.11554 75.78021 180.8121 75.93779 181.50868 76.19055 182.6366 76.34813 183.3429 76.5057 184.0492 76.75847 185.18627 76.91606 185.90265 77.07364 186.61902 77.32639 187.77915 77.48398 188.50609 77.64156 189.23303 77.89432 190.40526 78.05191 191.14199 78.20949 191.8787 78.46223 193.06919 78.61983 193.81594 78.7774 194.56269 79.03015 195.76657 79.18773 196.52405 79.34532 197.28154 79.59808 198.50745 79.75566 199.27544 79.91325 200.04341 80.166 201.28075 80.32358 202.05925 80.48117 202.83774 80.73393 204.09708 80.89151 204.8863 81.0491 205.67555 81.30185 206.94686 81.45943 207.74756 81.61702 208.54827 81.86978 209.8453 82.02736 210.65723 82.18494 211.46915 82.4377 212.77646 82.59528 213.59935 82.75285 214.42226 83.00562 215.75322 83.16321 216.58818 83.32079 217.42316 83.57353 218.77095 83.73112 219.61727 83.8887 220.46356 84.14145 221.82965 84.29904 222.68785 84.45662 223.54604 84.70938 224.93175 84.86697 225.80255 85.02455 226.67336 85.2773 228.08184 85.43488 228.96398 85.59247 229.8461 85.84523 231.26593 86.0028 232.16043 86.1604 233.05493 86.41315 234.50385 86.57072 235.41095 86.72832 236.31804 86.98108 237.77841 87.13866 238.69823 87.29625 239.61806 87.549 241.10803 87.70657 242.04047 87.86417 242.9729 88.11693 244.4729 88.2745 245.4186 88.43208 246.36428 88.68484 247.8966 88.84242 248.8564 89 249.8162 89.25276 251.36377 89.41035 252.33615 89.56793 253.30855 89.82068 254.87892 89.97827 255.8648 90.13585 256.8507 90.3886 258.44197 90.54619 259.4419 90.70377 260.44184 90.95653 262.05818 91.11412 263.07176 91.2717 264.0853 91.52444 265.71925 91.68202 266.747 91.83961 267.7748 92.09238 269.43684 92.24995 270.4794 92.40755 271.52198 92.6603 273.2039 92.81787 274.26109 92.97546 275.31828 93.22823 277.02796 93.3858 278.099 93.5434 279.17005 93.79614 280.89479 93.95372 281.9806 94.11131 283.0664 94.36407 284.82246 94.52165 285.9249 94.67923 287.02735 94.93199 288.8085 95.08957 289.9263 95.24715 291.0441 95.49991 292.84846 95.6575 293.98136 95.81508 295.11424 96.06783 296.94209 96.22542 298.0913 96.383 299.2406 96.63574 301.0998 96.79333 302.26445 96.95091 303.42915 97.20367 305.3044 97.36127 306.4856 97.51884 307.66676 97.77159 309.58036 97.92917 310.77766 98.08676 311.97499 98.33952 313.90116 98.4971 315.11518 98.6547 316.3292 98.90744 318.29606 99.06502 319.52748 99.22261 320.7589 99.47537 322.74208 99.63295 323.9904 99.79054 325.23875 100.04329 327.2577 100.20087 328.5247 100.35846 329.79173 100.61122 331.8382 100.7688 333.12217 100.92638 334.40608 101.17914 336.4772 101.33672 337.77845 101.4943 339.07966 101.74706 341.18003 101.90465 342.50044 102.06223 343.82087 102.31497 345.95695 102.47256 347.2951 102.63014 348.6333 102.88289 350.78858 103.04048 352.14518 103.19806 353.5018 103.45082 355.69633 103.60841 357.07264 103.76599 358.44895 104.01874 360.6695 104.17632 362.06459 104.33391 363.45964 104.58667 365.71305 104.74425 367.12745 104.90184 368.5418 105.15459 370.824 105.31216 372.2586 105.46976 373.69325 105.72252 376.01216 105.8801 377.46726 106.03769 378.92234 106.29044 381.27116 106.44801 382.74595 106.6056 384.2207 106.85837 386.60118 107.01595 388.0964 107.17352 389.59169 107.42628 392.0055 107.58386 393.5226 107.74144 395.03977 107.99419 397.49345 108.15178 399.03099 108.30936 400.56855 108.56212 403.04487 108.71971 404.60423 108.87729 406.16365 109.13004 408.68925 109.28763 410.27009 109.4452 411.8509 109.69797 414.39466 109.85556 415.99775 110.01314 417.6008 110.26588 420.19844 110.42346 421.824 110.58105 423.44963 110.83382 426.06587 110.9914 427.71388 111.14899 429.3619 111.40173 432.02946 111.55931 433.70195 111.7169 435.3744 111.96967 438.07325 112.12724 439.76786 112.28484 441.46247 112.53758 444.19758 112.69516 445.9155 112.85275 447.63346 113.10551 450.40696 113.26309 452.1497 113.42067 453.89244 113.67343 456.7091 113.83101 458.47599 113.98859 460.24287 114.24133 463.09245 114.39893 464.88404 114.5565 466.6756 114.80927 469.5726 114.96686 471.38853 115.12444 473.20448 115.37718 476.13053 115.53477 477.9722 115.69235 479.8139 115.94511 482.79454 116.1027 484.66227 116.26028 486.53 116.51303 489.54005 116.67061 491.43367 116.8282 493.32728 117.08096 496.38865 117.23854 498.31013 117.39613 500.23167 117.64888 503.33534 117.80646 505.28266 117.96405 507.22999 118.21681 510.37117 118.37439 512.3451 118.53198 514.3191 118.78473 517.5062 118.9423 519.5097 119.0999 521.5132 119.35266 524.7549 119.51024 526.785 119.66782 528.81509 119.92058 532.0833 120.07816 534.1411 120.23573 536.1989 120.48848 539.52987 120.64607 541.6163 120.80365 543.7027 121.05641 547.0619 121.214 549.1788 121.37158 551.2957 121.62433 554.7271 121.78192 556.87368 121.9395 559.02017 122.19226 562.4738 122.34985 564.64938 122.50743 566.8249 122.76018 570.3463 122.91776 572.5535 123.07535 574.7608 123.32811 578.32058 123.48569 580.5577 123.64328 582.7948 123.89603 586.40859 124.0536 588.67727 124.2112 590.946 124.46396 594.6076 124.62154 596.9089 124.77913 599.2102 125.03188 602.9315 125.18945 605.26339 125.34705 607.5952 125.59981 611.35147 125.75739 613.71517 125.91496 616.0789 126.16772 619.90206 126.3253 622.29977 126.48288 624.6975 126.73563 628.5644 126.89322 630.99636 127.0508 633.4283 127.30356 637.3615 127.46115 639.82748 127.61873 642.29348 127.87148 646.2695 128.02907 648.76937 128.18665 651.2692 128.4394 655.30947 128.597 657.84487 128.75458 660.38027 129.00733 664.47219 129.1649 667.0428 129.3225 669.6134 129.57526 673.7663 129.73284 676.3722 129.89043 678.9781 130.14318 683.17996 130.30075 685.8244 130.45835 688.46896 130.7111 692.75149 130.86869 695.432 131.02628 698.1125 131.27902 702.4268 131.4366 705.14376 131.5942 707.8607 131.84694 712.2584 132.00452 715.0138 132.1621 717.7692 132.41487 722.20919 132.57245 725.00289 132.73003 727.7966 132.98278 732.31668 133.14037 735.1489 133.29795 737.9812 133.5507 742.5442 133.7083 745.4161 133.86588 748.28799 134.11862 752.9326 134.27622 755.8476 134.43379 758.7626 134.68656 763.4711 134.84415 766.4253 135.00173 769.37948 135.25447 774.14608 135.41205 777.1393 135.56964 780.1325 135.8224 784.96017 135.97998 787.9986 136.13758 791.037 136.39032 795.9578 136.5479 799.03829 136.70549 802.11868 136.95825 807.0788 137.11583 810.2003 137.27342 813.3218 137.52617 818.37106 137.68375 821.5358 137.84134 824.70059 138.09409 829.80038 138.25167 833.00979 138.40924 836.2192 138.66202 841.4121 138.8196 844.6671 138.97718 847.92208 139.22992 853.1694 139.38751 856.46939 139.54509 859.7693 139.79785 865.10317 139.95545 868.45108 140.11302 871.799 140.36577 877.2046 140.52336 880.5989 140.68094 883.9932 140.9337 889.4753 141.0913 892.915 141.24887 896.3547 141.6592 905.38986 141.6592 905.38986"/>
</g>
<use data-text="&#x2022;" xlink:href="#font_3_1" transform="matrix(9.963397,0,0,-9.963197,146.41727,133.34223)"/>
<use data-text="(" xlink:href="#font_4_1" transform="matrix(9.963397,0,0,-9.963197,123.247409,125.11774)"/>
<use data-text="0" xlink:href="#font_4_3" transform="matrix(9.963397,0,0,-9.963197,127.11322,125.11774)"/>
<use data-text="," xlink:href="#font_1_1" transform="matrix(9.963397,0,0,-9.963197,132.10413,125.11774)"/>
<use data-text="1" xlink:href="#font_4_4" transform="matrix(9.963397,0,0,-9.963197,136.53148,125.11774)"/>
<use data-text=")" xlink:href="#font_4_2" transform="matrix(9.963397,0,0,-9.963197,141.51317,125.11774)"/>
</svg>
