<svg xmlns="http://www.w3.org/2000/svg" xmlns:xlink="http://www.w3.org/1999/xlink" version="1.1" width="242" height="211" viewBox="0 0 242 211">
<defs>
<path id="font_1_2" d="M.49198915 .40434266C.45498658 .39733888 .44400025 .3653412 .44400025 .3503418 .44400025 .33132936 .45799256 .31433106 .48298646 .31433106 .5109863 .31433106 .5379944 .33833314 .5379944 .3733368 .5379944 .41937257 .48799134 .4423828 .44099427 .4423828 .3809967 .4423828 .34599305 .38934327 .33399964 .3683319 .31498719 .41737367 .2709961 .4423828 .22299195 .4423828 .115997318 .4423828 .057998659 .31433106 .057998659 .28833009 .057998659 .2793274 .06498718 .2763214 .07199097 .2763214 .08099365 .2763214 .083999637 .2813263 .085998538 .287323 .116989139 .38633729 .18299866 .41737367 .22099304 .41737367 .25 .41737367 .27598573 .3983307 .27598573 .35133363 .27598573 .31533814 .23298645 .15530396 .21998596 .107284549 .21199036 .076293949 .18199158 .014251709 .1269989 .014251709 .10699463 .014251709 .085998538 .021270752 .07598877 .027282715 .102996829 .032287599 .12298584 .055282594 .12298584 .08128357 .12298584 .106292728 .10398865 .11729431 .084991458 .11729431 .055999757 .11729431 .02999878 .092285159 .02999878 .058288576 .02999878 .009246826 .083999637-.0107421879 .12599182-.0107421879 .18399048-.0107421879 .21798706 .03729248 .23298645 .06428528 .2579956-.0017547608 .31698609-.0107421879 .34399415-.0107421879 .45199586-.0107421879 .5089874 .11929321 .5089874 .14329529 .5089874 .14830017 .5059967 .15530396 .49598695 .15530396 .4850006 .15530396 .48399354 .1512909 .47898866 .1362915 .45700074 .06428528 .39898683 .014251709 .34700013 .014251709 .31799317 .014251709 .29100038 .032287599 .29100038 .08029175 .29100038 .10229492 .30499269 .15730286 .31399537 .1953125 .31799317 .21331787 .34498597 .32133485 .34700013 .32833863 .35899354 .3643341 .3889923 .41737367 .43998719 .41737367 .45799256 .41737367 .47698976 .41436769 .49198915 .40434266Z"/>
<path id="font_2_1" d="M.35899354 .6349335C.35899354 .66503909 .35499574 .66503909 .32499696 .66503909 .25898744 .60058596 .15699768 .60058596 .12098694 .60058596V.5615845C.14698792 .5615845 .21299744 .5615845 .272995 .58958438V.08496094C.272995 .051986696 .272995 .038986207 .16999817 .038986207H.1269989V0C.18199158 .0039978029 .2599945 .0039978029 .31599427 .0039978029 .37199403 .0039978029 .44999696 .0039978029 .5049896 0V.038986207H.46199037C.35899354 .038986207 .35899354 .051986696 .35899354 .08496094V.6349335Z"/>
<path id="font_2_2" d="M.5379944 .18702698H.5009918C.49899293 .17301941 .4889984 .10699463 .47399903 .09599304 .46699525 .08999634 .38598634 .08999634 .37199403 .08999634H.18499756L.31298829 .19403076C.34700013 .22103882 .43598939 .28504945 .46699525 .31506349 .49699403 .3450775 .5379944 .39608766 .5379944 .46710206 .5379944 .5920563 .4249878 .66503909 .29100038 .66503909 .1619873 .66503909 .07199097 .58006289 .07199097 .48609925 .07199097 .43510438 .114990238 .42910768 .12599182 .42910768 .15098572 .42910768 .17999268 .44709779 .17999268 .48310853 .17999268 .50509646 .16699219 .5371094 .12298584 .5371094 .1459961 .5880585 .20698548 .6260376 .27598573 .6260376 .3809967 .6260376 .43699647 .5480957 .43699647 .46710206 .43699647 .39608766 .3899994 .32305909 .31999208 .25904847L.08299255 .041992189C.07299805 .03199768 .07199097 .0309906 .07199097 0H.5069885L.5379944 .18702698Z"/>
<path id="font_3_1" d="M.33399964 .30233766C.33999635 .32835389 .36299134 .42037965 .43299867 .42037965 .43798829 .42037965 .46199037 .42037965 .48298646 .40734864 .45498658 .402359 .43499757 .37734986 .43499757 .35334779 .43499757 .33735658 .44599916 .31835938 .47299195 .31835938 .49499513 .31835938 .5269928 .3363495 .5269928 .37635804 .5269928 .42837525 .46798707 .4423828 .43399049 .4423828 .37599183 .4423828 .34098817 .38935853 .32899476 .36634828 .3039856 .43237306 .25 .4423828 .22099304 .4423828 .116989139 .4423828 .05999756 .3133545 .05999756 .28834535 .05999756 .27833558 .069992069 .27833558 .07199097 .27833558 .07998657 .27833558 .08299255 .28033448 .084991458 .28933717 .11898804 .39535523 .18499756 .42037965 .21899414 .42037965 .23799134 .42037965 .272995 .4113617 .272995 .35334779 .272995 .32235719 .2559967 .25532533 .21899414 .11528015 .20298767 .053268434 .16799927 .011245728 .12399292 .011245728 .117996219 .011245728 .09498596 .011245728 .07398987 .024276734 .09899902 .029266358 .12098694 .05027771 .12098694 .07827759 .12098694 .105270389 .09899902 .11328125 .083999637 .11328125 .053985597 .11328125 .0289917 .08728027 .0289917 .055267335 .0289917 .009246826 .07899475-.0107421879 .12298584-.0107421879 .18899536-.0107421879 .22499085 .059280397 .22799683 .0652771 .23999024 .028274537 .27598573-.0107421879 .33599855-.0107421879 .43899537-.0107421879 .49598695 .118270877 .49598695 .14328003 .49598695 .1532898 .4869995 .1532898 .48399354 .1532898 .47499085 .1532898 .47299195 .14929199 .47099305 .14228821 .43798829 .03527832 .36999513 .011245728 .33799745 .011245728 .29899598 .011245728 .2829895 .043273927 .2829895 .07727051 .2829895 .09927368 .2889862 .121276859 .2999878 .16529846L.33399964 .30233766Z"/>
<path id="font_3_2" d="M.48599244 .38136292C.48999024 .39537049 .48999024 .39736939 .48999024 .40437318 .48999024 .42237855 .47599793 .43138124 .46099855 .43138124 .45098878 .43138124 .43499757 .42536927 .42599488 .41036988 .42399598 .405365 .41600038 .37435914 .4119873 .35635377 .40499879 .33035279 .397995 .30334474 .3919983 .27633668L.34700013 .09628296C.34298707 .08126831 .2999878 .011245728 .23399353 .011245728 .18299866 .011245728 .17199707 .055267335 .17199707 .0922699 .17199707 .1382904 .18899536 .20030213 .22299195 .28833009 .23899842 .3293457 .24299622 .3403473 .24299622 .36035157 .24299622 .405365 .21099854 .4423828 .16099549 .4423828 .06599426 .4423828 .0289917 .29733277 .0289917 .28833009 .0289917 .27833558 .038986207 .27833558 .040985109 .27833558 .050994874 .27833558 .051986696 .28033448 .056991579 .29634095 .083999637 .3903656 .12399292 .42037965 .1579895 .42037965 .1659851 .42037965 .18299866 .42037965 .18299866 .3883667 .18299866 .36335755 .17298889 .3373413 .1659851 .31834413 .12599182 .21231079 .10798645 .1552887 .10798645 .10827637 .10798645 .019256592 .17098999-.0107421879 .22999573-.0107421879 .2689972-.0107421879 .30299378 .0062561037 .33099366 .03425598 .31799317-.017745972 .30599977-.06674194 .2659912-.11973572 .23999024-.15385437 .20199585-.18309021 .1559906-.18309021 .14199829-.18309021 .09700012-.18005371 .07998657-.14074707 .09599304-.14074707 .10899353-.14074707 .12298584-.1287384 .1329956-.11973572 .14299011-.10673523 .14299011-.08773804 .14299011-.056747438 .115997318-.052734376 .10598755-.052734376 .08299255-.052734376 .049987794-.068740848 .049987794-.11773682 .049987794-.16796875 .09399414-.20507813 .1559906-.20507813 .25898744-.20507813 .3619995-.11373901 .3899994-.00074768069L.48599244 .38136292Z"/>
<path id="font_1_3" d="M.5019989 .38536073C.5029907 .3903656 .5049896 .39637757 .5049896 .40237428 .5049896 .41537477 .49598695 .43138124 .47399903 .43138124 .46099855 .43138124 .44299317 .42337037 .43499757 .40437318 .43399049 .40037538 .42399598 .35935975 .41799928 .33735658L.36799623 .13728333C.3600006 .10827637 .3600006 .106277469 .35798646 .09727478 .35699464 .09327698 .31498719 .014251709 .24299622 .014251709 .18099976 .014251709 .18099976 .07727051 .18099976 .09628296 .18099976 .14129639 .19400025 .19030762 .23699951 .30233766 .24499512 .3253479 .25099183 .33935548 .25099183 .35835267 .25099183 .40737916 .21398926 .4423828 .16499329 .4423828 .068984989 .4423828 .0289917 .30033876 .0289917 .28833009 .0289917 .2793274 .035995485 .27633668 .042999269 .27633668 .053985597 .27633668 .054992677 .28233338 .05899048 .29533387 .07998657 .3693695 .11999512 .41737367 .1619873 .41737367 .18598938 .41737367 .18598938 .39837647 .18598938 .3843689 .18598938 .36735536 .18199158 .34934999 .17298889 .3253479 .12599182 .2013092 .11299133 .15930176 .11299133 .11128235 .11299133 .00024414063 .20298767-.0107421879 .23999024-.0107421879 .2889862-.0107421879 .32398988 .01524353 .34199525 .0332489 .32899476-.017745972 .31799317-.0627594 .2789917-.11276245 .24899292-.15286255 .20899964-.18008423 .16499329-.18008423 .13699341-.18008423 .10398865-.16999817 .08999634-.14176941 .14299011-.14176941 .1499939-.09776306 .1499939-.087768558 .1499939-.06576538 .13398743-.051757814 .11199951-.051757814 .08799744-.051757814 .055999757-.07077026 .055999757-.116760257 .055999757-.16899109 .101989749-.20507813 .16499329-.20507813 .2669983-.20507813 .37599183-.117767337 .40499879-.00074768069L.5019989 .38536073Z"/>
<path id="font_4_1" d="M.34098817-.23803711C.34098817-.23303223 .33799745-.23002625 .33198548-.22303772 .20298767-.105026248 .1639862 .07498169 .1639862 .24996948 .1639862 .40498353 .19400025 .59298709 .33499146 .72698977 .33898927 .73098757 .34098817 .73399356 .34098817 .7389984 .34098817 .74598696 .33599855 .75 .32899476 .75 .31698609 .75 .22698975 .6779785 .17298889 .568985 .125 .47297669 .100997928 .36997987 .100997928 .25097657 .100997928 .17897034 .10998535 .064971927 .16499329-.053024293 .22399903-.17602539 .31698609-.24902344 .32899476-.24902344 .33599855-.24902344 .34098817-.24502564 .34098817-.23803711Z"/>
<path id="font_1_1" d="M.18199158 .015991211C.18199158-.017044068 .18199158-.09921265 .10798645-.17036438 .101989749-.17636109 .101989749-.17736817 .101989749-.18136597 .101989749-.18836975 .10899353-.19335938 .114990238-.19335938 .12599182-.19335938 .20698548-.115249637 .20698548 .0019989014 .20698548 .06399536 .18499756 .10798645 .14199829 .10798645 .10798645 .10798645 .08799744 .08198547 .08799744 .053985597 .08799744 .025985718 .10798645 0 .14199829 0 .15699768 0 .17199707 .004989624 .18199158 .015991211Z"/>
<path id="font_4_2" d="M.2979889 .25097657C.2979889 .3329773 .28599549 .4429779 .23399353 .5539856 .1749878 .6769867 .08198547 .75 .069992069 .75 .05999756 .75 .057998659 .74198916 .057998659 .7389984 .057998659 .73399356 .05999756 .73098757 .066986087 .72398379 .125 .6719818 .23498535 .5359802 .23498535 .25097657 .23498535 .10797119 .20899964-.091033939 .06399536-.22602844 .06199646-.22903443 .057998659-.23303223 .057998659-.23803711 .057998659-.24102783 .05999756-.24902344 .069992069-.24902344 .08198547-.24902344 .17199707-.17703247 .22599793-.06802368 .27398683 .02796936 .2979889 .13098145 .2979889 .25097657Z"/>
<path id="font_5_2" d="M.5049896 .18203736H.47099305C.46798707 .16001892 .45799256 .100997928 .44499208 .09098816 .43699647 .084991458 .3600006 .084991458 .34599305 .084991458H.1619873C.2669983 .17803955 .3019867 .20603943 .3619995 .25306703 .43598939 .312088 .5049896 .374115 .5049896 .46914674 .5049896 .5900879 .39898683 .6640625 .2709961 .6640625 .14698792 .6640625 .06298828 .57710269 .06298828 .4851532 .06298828 .43414308 .10598755 .42915345 .115997318 .42915345 .13999939 .42915345 .16899109 .44615174 .16899109 .48214723 .16899109 .5001526 .1619873 .53515627 .10998535 .53515627 .14099121 .6060791 .20899964 .62805178 .2559967 .62805178 .35598756 .62805178 .4079895 .5501404 .4079895 .46914674 .4079895 .38212586 .34599305 .3130951 .31399537 .27708436L.07299805 .038986207C.06298828 .02999878 .06298828 .027999878 .06298828 0H.47499085L.5049896 .18203736Z"/>
<path id="font_6_1" d="M.6589966 .23046875C.6759949 .23046875 .69400027 .23046875 .69400027 .25045777 .69400027 .27046205 .6759949 .27046205 .6589966 .27046205H.117996219C.100997928 .27046205 .08299255 .27046205 .08299255 .25045777 .08299255 .23046875 .100997928 .23046875 .117996219 .23046875H.6589966Z"/>
<path id="font_5_1" d="M.33499146 .63612368C.33499146 .6630554 .33299256 .6640625 .30499269 .6640625 .24099732 .6014404 .1499939 .6004486 .10899353 .6004486V.5644531C.1329956 .5644531 .19898987 .5644531 .2539978 .592453V.08203125C.2539978 .04899597 .2539978 .035995485 .1539917 .035995485H.115997318V0C.13398743 .0009918213 .25698854 .0039978029 .2939911 .0039978029 .32499696 .0039978029 .45098878 .0009918213 .47299195 0V.035995485H.43499757C.33499146 .035995485 .33499146 .04899597 .33499146 .08203125V.63612368Z"/>
<path id="font_6_2" d="M.44400025 .24998474C.44400025 .35688783 .35499574 .44381715 .25 .44381715 .14199829 .44381715 .054992677 .35488893 .054992677 .24998474 .054992677 .14407349 .14199829 .056137086 .25 .056137086 .35499574 .056137086 .44400025 .14308167 .44400025 .24998474Z"/>
</defs>
<path transform="matrix(1.00003,0,0,-1.00005,58.18921,180.78939)" stroke-width=".19925" stroke-linecap="butt" stroke-miterlimit="10" stroke-linejoin="miter" fill="none" stroke="#929292" stroke-opacity=".5" d="M-56.69362-28.3468H170.08086M-56.69362 0H170.08086M-56.69362 28.3468H170.08086M-56.69362 56.69362H170.08086M-56.69362 85.04042H170.08086M-56.69362 113.38724H170.08086M-56.69362 141.73404H170.08086M-56.69362 170.07089H170.08086M-56.69362-28.3468V170.08086M-28.3468-28.3468V170.08086M0-28.3468V170.08086M28.3468-28.3468V170.08086M56.69362-28.3468V170.08086M85.04042-28.3468V170.08086M113.38724-28.3468V170.08086M141.73404-28.3468V170.08086M170.07089-28.3468V170.08086M170.08086 170.08086"/>
<path transform="matrix(1.00003,0,0,-1.00005,58.18921,180.78939)" stroke-width="1.19553" stroke-linecap="butt" stroke-miterlimit="10" stroke-linejoin="miter" fill="none" stroke="#000000" d="M85.04042 2.49069V-2.49069M141.73404 2.49069V-2.49069"/>
<use data-text="x" xlink:href="#font_1_2" transform="matrix(8.966669,0,0,-8.966848,138.54462,191.05989)"/>
<use data-text="1" xlink:href="#font_2_1" transform="matrix(5.97778,0,0,-5.9778988,143.76877,192.05695)"/>
<use data-text="x" xlink:href="#font_1_2" transform="matrix(8.966669,0,0,-8.966848,195.24033,191.05989)"/>
<use data-text="2" xlink:href="#font_2_2" transform="matrix(5.97778,0,0,-5.9778988,200.46448,192.05695)"/>
<path transform="matrix(1.00003,0,0,-1.00005,58.18921,180.78939)" stroke-width="1.19553" stroke-linecap="butt" stroke-miterlimit="10" stroke-linejoin="miter" fill="none" stroke="#000000" d="M-56.69362 0H174.7937"/>
<path transform="matrix(1.00003,0,0,-1.00005,232.98816,180.78939)" stroke-width=".9564" stroke-linecap="round" stroke-linejoin="round" fill="none" stroke="#000000" d="M-1.91284 2.55046C-1.75343 1.59402 0 .15938 .4782 0 0-.15938-1.75343-1.59402-1.91284-2.55046"/>
<use data-text="x" xlink:href="#font_3_1" transform="matrix(9.962899,0,0,-9.963098,231.0974,176.87119)"/>
<path transform="matrix(1.00003,0,0,-1.00005,58.18921,180.78939)" stroke-width="1.19553" stroke-linecap="butt" stroke-miterlimit="10" stroke-linejoin="miter" fill="none" stroke="#000000" d="M0-28.3468V174.7937"/>
<path transform="matrix(0,-1.00005,-1.00003,-0,58.18921,5.9869539)" stroke-width=".9564" stroke-linecap="round" stroke-linejoin="round" fill="none" stroke="#000000" d="M-1.91284 2.55046C-1.75343 1.59402 0 .15938 .4782 0 0-.15938-1.75343-1.59402-1.91284-2.55046"/>
<use data-text="y" xlink:href="#font_3_2" transform="matrix(9.962899,0,0,-9.963098,62.10733,6.206665)"/>
<path transform="matrix(1.00003,0,0,-1.00005,58.18921,180.78939)" stroke-width=".79701" stroke-linecap="butt" stroke-miterlimit="10" stroke-linejoin="miter" fill="none" stroke="#00ff00" d="M85.04042 0H141.73404"/>
<path transform="matrix(1.00003,0,0,-1.00005,58.18921,180.78939)" stroke-width=".79701" stroke-linecap="butt" stroke-miterlimit="10" stroke-linejoin="miter" fill="none" stroke="#ff0000" d="M0 62.36288V85.04042"/>
<path transform="matrix(1.00003,0,0,-1.00005,58.18921,180.78939)" stroke-width="1.19553" stroke-linecap="butt" stroke-miterlimit="10" stroke-linejoin="miter" fill="none" stroke="#000000" d="M85.04042 2.49069V-2.49069M141.73404 2.49069V-2.49069M2.49069 62.36288H-2.49069M2.49069 85.04042H-2.49069"/>
<use data-text="x" xlink:href="#font_1_2" transform="matrix(8.966669,0,0,-8.966848,138.54462,191.05989)"/>
<use data-text="1" xlink:href="#font_2_1" transform="matrix(5.97778,0,0,-5.9778988,143.76877,192.05695)"/>
<use data-text="x" xlink:href="#font_1_2" transform="matrix(8.966669,0,0,-8.966848,195.24033,191.05989)"/>
<use data-text="2" xlink:href="#font_2_2" transform="matrix(5.97778,0,0,-5.9778988,200.46448,192.05695)"/>
<use data-text="y" xlink:href="#font_1_3" transform="matrix(8.966669,0,0,-8.966848,43.089754,119.482318)"/>
<use data-text="1" xlink:href="#font_2_1" transform="matrix(5.97778,0,0,-5.9778988,47.62889,120.47937)"/>
<use data-text="y" xlink:href="#font_1_3" transform="matrix(8.966669,0,0,-8.966848,43.089754,96.803188)"/>
<use data-text="2" xlink:href="#font_2_2" transform="matrix(5.97778,0,0,-5.9778988,47.62889,97.80024)"/>
<path transform="matrix(1.00003,0,0,-1.00005,58.18921,180.78939)" stroke-width=".79701" stroke-linecap="butt" stroke-miterlimit="10" stroke-linejoin="miter" fill="none" stroke="#0000ff" d="M-56.69362 5.66927 170.08086 96.37897"/>
<use data-text="(" xlink:href="#font_4_1" transform="matrix(8.966669,0,0,-8.966848,110.38377,112.66198)"/>
<use data-text="x" xlink:href="#font_1_2" transform="matrix(8.966669,0,0,-8.966848,113.96788,112.66198)"/>
<use data-text="1" xlink:href="#font_2_1" transform="matrix(5.97778,0,0,-5.9778988,119.19104,113.659038)"/>
<use data-text="," xlink:href="#font_1_1" transform="matrix(8.966669,0,0,-8.966848,123.34317,112.66198)"/>
<use data-text="y" xlink:href="#font_1_3" transform="matrix(8.966669,0,0,-8.966848,127.43196,112.66198)"/>
<use data-text="1" xlink:href="#font_2_1" transform="matrix(5.97778,0,0,-5.9778988,131.97743,113.659038)"/>
<use data-text=")" xlink:href="#font_4_2" transform="matrix(8.966669,0,0,-8.966848,136.12856,112.66198)"/>
<use data-text="(" xlink:href="#font_4_1" transform="matrix(8.966669,0,0,-8.966848,167.07949,89.98285)"/>
<use data-text="x" xlink:href="#font_1_2" transform="matrix(8.966669,0,0,-8.966848,170.66359,89.98285)"/>
<use data-text="2" xlink:href="#font_2_2" transform="matrix(5.97778,0,0,-5.9778988,175.88675,90.979907)"/>
<use data-text="," xlink:href="#font_1_1" transform="matrix(8.966669,0,0,-8.966848,180.03888,89.98285)"/>
<use data-text="y" xlink:href="#font_1_3" transform="matrix(8.966669,0,0,-8.966848,184.12767,89.98285)"/>
<use data-text="2" xlink:href="#font_2_2" transform="matrix(5.97778,0,0,-5.9778988,188.67314,90.979907)"/>
<use data-text=")" xlink:href="#font_4_2" transform="matrix(8.966669,0,0,-8.966848,192.82427,89.98285)"/>
<path transform="matrix(1.00003,0,0,-1.00005,58.18921,180.78939)" stroke-width=".79701" stroke-linecap="butt" stroke-miterlimit="10" stroke-linejoin="miter" fill="none" stroke="#000000" d="M85.04042 62.36288C86.53477 59.37402 90.0218 57.3815 95.00319 57.3815H103.42447C108.40585 57.3815 111.89288 55.38898 113.38724 52.40012 114.88159 55.38898 118.36862 57.3815 123.35 57.3815H131.77127C136.75266 57.3815 140.23969 59.37402 141.73404 62.36288"/>
<use data-text="x" xlink:href="#font_3_1" transform="matrix(9.962899,0,0,-9.963098,155.32712,132.93599)"/>
<use data-text="2" xlink:href="#font_5_2" transform="matrix(6.9740097,0,0,-6.9741489,161.0213,134.43106)"/>
<use data-text="&#x2212;" xlink:href="#font_6_1" transform="matrix(9.962899,0,0,-9.963098,167.7045,132.93599)"/>
<use data-text="x" xlink:href="#font_3_1" transform="matrix(9.962899,0,0,-9.963098,177.66779,132.93599)"/>
<use data-text="1" xlink:href="#font_5_1" transform="matrix(6.9740097,0,0,-6.9741489,183.36197,134.43106)"/>
<path transform="matrix(1.00003,0,0,-1.00005,58.18921,180.78939)" stroke-width=".79701" stroke-linecap="butt" stroke-miterlimit="10" stroke-linejoin="miter" fill="none" stroke="#00ff00" d="M85.04042 62.36288H141.73404"/>
<path transform="matrix(1.00003,0,0,-1.00005,58.18921,180.78939)" stroke-width=".79701" stroke-linecap="butt" stroke-miterlimit="10" stroke-linejoin="miter" fill="none" stroke="#000000" d="M141.73404 62.36288C144.7229 63.21326 146.71543 65.19757 146.71543 68.03227 146.71543 70.86696 148.70795 72.85127 151.69681 73.70164 148.70795 74.55202 146.71543 76.53633 146.71543 79.37103V79.37105C146.71543 82.20573 144.7229 84.19005 141.73404 85.04042"/>
<use data-text="y" xlink:href="#font_3_2" transform="matrix(9.962899,0,0,-9.963098,210.62079,109.0218)"/>
<use data-text="2" xlink:href="#font_5_2" transform="matrix(6.9740097,0,0,-6.9741489,215.50594,110.51687)"/>
<use data-text="&#x2212;" xlink:href="#font_6_1" transform="matrix(9.962899,0,0,-9.963098,222.18914,109.0218)"/>
<use data-text="y" xlink:href="#font_3_2" transform="matrix(9.962899,0,0,-9.963098,232.15242,109.0218)"/>
<use data-text="1" xlink:href="#font_5_1" transform="matrix(6.9740097,0,0,-6.9741489,237.03658,110.51687)"/>
<path transform="matrix(1.00003,0,0,-1.00005,58.18921,180.78939)" stroke-width=".79701" stroke-linecap="butt" stroke-miterlimit="10" stroke-linejoin="miter" fill="none" stroke="#ff0000" d="M141.73404 62.36288V85.04042"/>
<use data-text="&#x2022;" xlink:href="#font_6_2" transform="matrix(9.962899,0,0,-9.963098,140.7417,120.637378)"/>
<use data-text="&#x2022;" xlink:href="#font_6_2" transform="matrix(9.962899,0,0,-9.963098,197.43639,97.95925)"/>
</svg>
