<svg xmlns="http://www.w3.org/2000/svg" xmlns:xlink="http://www.w3.org/1999/xlink" version="1.1" width="250" height="161" viewBox="0 0 250 161">
<defs>
<path id="font_1_2" d="M.33399964 .30233766C.33999635 .32835389 .36299134 .42037965 .43299867 .42037965 .43798829 .42037965 .46199037 .42037965 .48298646 .40734864 .45498658 .402359 .43499757 .37734986 .43499757 .35334779 .43499757 .33735658 .44599916 .31835938 .47299195 .31835938 .49499513 .31835938 .5269928 .3363495 .5269928 .37635804 .5269928 .42837525 .46798707 .4423828 .43399049 .4423828 .37599183 .4423828 .34098817 .38935853 .32899476 .36634828 .3039856 .43237306 .25 .4423828 .22099304 .4423828 .116989139 .4423828 .05999756 .3133545 .05999756 .28834535 .05999756 .27833558 .069992069 .27833558 .07199097 .27833558 .07998657 .27833558 .08299255 .28033448 .084991458 .28933717 .11898804 .39535523 .18499756 .42037965 .21899414 .42037965 .23799134 .42037965 .272995 .4113617 .272995 .35334779 .272995 .32235719 .2559967 .25532533 .21899414 .11528015 .20298767 .053268434 .16799927 .011245728 .12399292 .011245728 .117996219 .011245728 .09498596 .011245728 .07398987 .024276734 .09899902 .029266358 .12098694 .05027771 .12098694 .07827759 .12098694 .105270389 .09899902 .11328125 .083999637 .11328125 .053985597 .11328125 .0289917 .08728027 .0289917 .055267335 .0289917 .009246826 .07899475-.0107421879 .12298584-.0107421879 .18899536-.0107421879 .22499085 .059280397 .22799683 .0652771 .23999024 .028274537 .27598573-.0107421879 .33599855-.0107421879 .43899537-.0107421879 .49598695 .118270877 .49598695 .14328003 .49598695 .1532898 .4869995 .1532898 .48399354 .1532898 .47499085 .1532898 .47299195 .14929199 .47099305 .14228821 .43798829 .03527832 .36999513 .011245728 .33799745 .011245728 .29899598 .011245728 .2829895 .043273927 .2829895 .07727051 .2829895 .09927368 .2889862 .121276859 .2999878 .16529846L.33399964 .30233766Z"/>
<path id="font_1_3" d="M.48599244 .38136292C.48999024 .39537049 .48999024 .39736939 .48999024 .40437318 .48999024 .42237855 .47599793 .43138124 .46099855 .43138124 .45098878 .43138124 .43499757 .42536927 .42599488 .41036988 .42399598 .405365 .41600038 .37435914 .4119873 .35635377 .40499879 .33035279 .397995 .30334474 .3919983 .27633668L.34700013 .09628296C.34298707 .08126831 .2999878 .011245728 .23399353 .011245728 .18299866 .011245728 .17199707 .055267335 .17199707 .0922699 .17199707 .1382904 .18899536 .20030213 .22299195 .28833009 .23899842 .3293457 .24299622 .3403473 .24299622 .36035157 .24299622 .405365 .21099854 .4423828 .16099549 .4423828 .06599426 .4423828 .0289917 .29733277 .0289917 .28833009 .0289917 .27833558 .038986207 .27833558 .040985109 .27833558 .050994874 .27833558 .051986696 .28033448 .056991579 .29634095 .083999637 .3903656 .12399292 .42037965 .1579895 .42037965 .1659851 .42037965 .18299866 .42037965 .18299866 .3883667 .18299866 .36335755 .17298889 .3373413 .1659851 .31834413 .12599182 .21231079 .10798645 .1552887 .10798645 .10827637 .10798645 .019256592 .17098999-.0107421879 .22999573-.0107421879 .2689972-.0107421879 .30299378 .0062561037 .33099366 .03425598 .31799317-.017745972 .30599977-.06674194 .2659912-.11973572 .23999024-.15385437 .20199585-.18309021 .1559906-.18309021 .14199829-.18309021 .09700012-.18005371 .07998657-.14074707 .09599304-.14074707 .10899353-.14074707 .12298584-.1287384 .1329956-.11973572 .14299011-.10673523 .14299011-.08773804 .14299011-.056747438 .115997318-.052734376 .10598755-.052734376 .08299255-.052734376 .049987794-.068740848 .049987794-.11773682 .049987794-.16796875 .09399414-.20507813 .1559906-.20507813 .25898744-.20507813 .3619995-.11373901 .3899994-.00074768069L.48599244 .38136292Z"/>
<clipPath id="clip_2">
<path transform="matrix(1.00009,0,0,-1.00005,120.56023,46.082654)" d="M-113.38724-113.38724V28.3468H113.38724V-113.38724ZM113.38724 28.3468"/>
</clipPath>
<path id="font_3_1" d="M.44400025 .24998474C.44400025 .35688783 .35499574 .44381715 .25 .44381715 .14199829 .44381715 .054992677 .35488893 .054992677 .24998474 .054992677 .14407349 .14199829 .056137086 .25 .056137086 .35499574 .056137086 .44400025 .14308167 .44400025 .24998474Z"/>
<path id="font_4_1" d="M.33099366-.2400055C.33099366-.23701477 .33099366-.23500061 .31399537-.21800232 .18899536-.0920105 .15699768 .09700012 .15699768 .25 .15699768 .42399598 .19499207 .59799197 .31799317 .72299197 .33099366 .73498538 .33099366 .7369995 .33099366 .73999026 .33099366 .746994 .32699586 .75 .32099916 .75 .31098939 .75 .22099304 .6819916 .1619873 .5549927 .11099243 .44499208 .09899902 .33399964 .09899902 .25 .09899902 .17199707 .10998535 .050994874 .16499329-.06201172 .22499085-.18501282 .31098939-.25 .32099916-.25 .32699586-.25 .33099366-.24700928 .33099366-.2400055Z"/>
<path id="font_4_3" d="M.45999146 .31976319C.45999146 .39982606 .45498658 .47988893 .41999818 .5539398 .37399293 .65000918 .2919922 .6660156 .25 .6660156 .18998719 .6660156 .116989139 .64001467 .07598877 .54693606 .04399109 .47789 .038986207 .39982606 .038986207 .31976319 .038986207 .24472046 .042999269 .15464783 .083999637 .07859802 .1269989-.0024719239 .19999695-.022460938 .24899292-.022460938 .30299378-.022460938 .3789978-.0014648438 .4229889 .09359741 .45498658 .16265869 .45999146 .2407074 .45999146 .31976319M.24899292-.00047302247C.20999146-.00047302247 .15098572 .024551392 .1329956 .12062073 .12199402 .18066406 .12199402 .2727356 .12199402 .3317871 .12199402 .39582826 .12199402 .46188355 .12998963 .5159149 .14898682 .63500979 .22399903 .64401248 .24899292 .64401248 .28199769 .64401248 .34799195 .6259918 .36698915 .52693179 .3769989 .47088624 .3769989 .39482118 .3769989 .3317871 .3769989 .25672914 .3769989 .18867493 .3659973 .12461853 .35099793 .029556275 .2939911-.00047302247 .24899292-.00047302247Z"/>
<path id="font_1_1" d="M.20298767 .0009918213C.20298767 .066986087 .17799378 .10598755 .13899231 .10598755 .10598755 .10598755 .085998538 .08099365 .085998538 .052993776 .085998538 .025985718 .10598755 0 .13899231 0 .15098572 0 .1639862 .0039978029 .17399597 .0129852299 .1769867 .01499939 .17799378 .015991211 .1789856 .015991211 .17999268 .015991211 .18099976 .01499939 .18099976 .0009918213 .18099976-.07316589 .1459961-.13328552 .11299133-.16635132 .101989749-.17736817 .101989749-.17936707 .101989749-.18237305 .101989749-.18936157 .10699463-.19335938 .11199951-.19335938 .12298584-.19335938 .20298767-.116256717 .20298767 .0009918213Z"/>
<path id="font_4_2" d="M.2889862 .25C.2889862 .32798768 .27799989 .44898988 .22299195 .56199648 .16299439 .68499758 .07699585 .75 .066986087 .75 .06098938 .75 .056991579 .74598696 .056991579 .73999026 .056991579 .7369995 .056991579 .73498538 .07598877 .71699526 .17399597 .6179962 .23098755 .45899964 .23098755 .25 .23098755 .07899475 .19400025-.09700012 .069992069-.2230072 .056991579-.23500061 .056991579-.23701477 .056991579-.2400055 .056991579-.2460022 .06098938-.25 .066986087-.25 .07699585-.25 .16699219-.18200684 .22599793-.055007936 .2769928 .054992677 .2889862 .16600037 .2889862 .25Z"/>
</defs>
<path transform="matrix(1.00009,0,0,-1.00005,120.56023,46.082654)" stroke-width=".19925" stroke-linecap="butt" stroke-miterlimit="10" stroke-linejoin="miter" fill="none" stroke="#929292" d="M-113.38724-113.38724H113.38724M-113.38724-85.04042H113.38724M-113.38724-56.69362H113.38724M-113.38724-28.3468H113.38724M-113.38724 0H113.38724M-113.38724 28.33684H113.38724M-113.38724-113.38724V28.3468M-85.04042-113.38724V28.3468M-56.69362-113.38724V28.3468M-28.3468-113.38724V28.3468M0-113.38724V28.3468M28.3468-113.38724V28.3468M56.69362-113.38724V28.3468M85.04042-113.38724V28.3468M113.37727-113.38724V28.3468M113.38724 28.3468"/>
<path transform="matrix(1.00009,0,0,-1.00005,120.56023,46.082654)" stroke-width="1.19553" stroke-linecap="butt" stroke-miterlimit="10" stroke-linejoin="miter" fill="none" stroke="#000000" d="M-119.0565 0H118.10008"/>
<path transform="matrix(1.00009,0,0,-1.00005,238.67093,46.082654)" stroke-width=".9564" stroke-linecap="round" stroke-linejoin="round" fill="none" stroke="#000000" d="M-1.91284 2.55046C-1.75343 1.59402 0 .15938 .4782 0 0-.15938-1.75343-1.59402-1.91284-2.55046"/>
<use data-text="x" xlink:href="#font_1_2" transform="matrix(9.963496,0,0,-9.963098,243.5463,48.22776)"/>
<path transform="matrix(1.00009,0,0,-1.00005,120.56023,46.082654)" stroke-width="1.19553" stroke-linecap="butt" stroke-miterlimit="10" stroke-linejoin="miter" fill="none" stroke="#000000" d="M0-113.38724V33.05966"/>
<path transform="matrix(0,-1.00005,-1.00009,-0,120.56023,13.021339)" stroke-width=".9564" stroke-linecap="round" stroke-linejoin="round" fill="none" stroke="#000000" d="M-1.91284 2.55046C-1.75343 1.59402 0 .15938 .4782 0 0-.15938-1.75343-1.59402-1.91284-2.55046"/>
<use data-text="y" xlink:href="#font_1_3" transform="matrix(9.963496,0,0,-9.963098,117.93899,6.20866)"/>
<g clip-path="url(#clip_2)">
<path transform="matrix(1.00009,0,0,-1.00005,120.56023,46.082654)" stroke-width=".79701" stroke-linecap="butt" stroke-miterlimit="10" stroke-linejoin="miter" fill="none" stroke="#0000ff" d="M453.54896-113.38724C453.54896-113.38724 452.23719-113.22316 451.734-113.16014 451.23088-113.09714 450.42469-112.99606 449.92256-112.93306 449.42045-112.87004 448.616-112.76898 448.11497-112.70596 447.61396-112.64296 446.8113-112.54192 446.3113-112.4789 445.81126-112.4159 445.01014-112.31482 444.51106-112.25182 444.012-112.1888 443.21238-112.08774 442.71434-112.02472 442.21626-111.96172 441.41847-111.86066 440.92143-111.79765 440.4244-111.73463 439.62809-111.63358 439.13203-111.57057 438.63594-111.50755 437.84114-111.4065 437.34608-111.34348 436.85105-111.28047 436.05805-111.17941 435.564-111.11641 435.06999-111.05339 434.27845-110.95233 433.78544-110.88931 433.29243-110.82631 432.5027-110.72525 432.0107-110.66223 431.5187-110.59921 430.73045-110.49817 430.23948-110.43517 429.7485-110.37215 428.96208-110.27109 428.4721-110.20807 427.98219-110.14507 427.19725-110.04399 426.70826-109.98099 426.21925-109.91797 425.43577-109.81691 424.9478-109.75389 424.4598-109.69089 423.67823-109.58984 423.19129-109.52682 422.7043-109.46382 421.92414-109.36275 421.4382-109.29974 420.95228-109.23672 420.1739-109.13567 419.689-109.07265 419.2041-109.00964 418.42723-108.90858 417.94328-108.84558 417.45936-108.78256 416.68394-108.6815 416.20103-108.6185 415.7181-108.55548 414.94456-108.45442 414.46266-108.3914 413.98075-108.3284 413.20863-108.22734 412.72776-108.16434 412.24684-108.10132 411.4766-108.00026 410.99674-107.93724 410.51686-107.87424 409.748-107.77318 409.26918-107.71016 408.7903-107.64714 408.02339-107.5461 407.5455-107.4831 407.0676-107.42007 406.3017-107.31902 405.82487-107.256 405.348-107.193 404.5844-107.09192 404.10859-107.02892 403.63273-106.9659 402.8701-106.86484 402.39527-106.80182 401.92045-106.73882 401.1601-106.63777 400.6863-106.57475 400.21253-106.51175 399.45323-106.41068 398.98039-106.34767 398.50755-106.28465 397.7501-106.1836 397.27836-106.12057 396.80659-106.05757 396.051-105.95651 395.5802-105.89351 395.1094-105.83049 394.35493-105.72943 393.8851-105.66643 393.41526-105.60341 392.66264-105.50235 392.19386-105.43933 391.72508-105.37633 390.97428-105.27527 390.50654-105.21227 390.0388-105.14925 389.28938-105.04819 388.82267-104.98517 388.35597-104.92216 387.60844-104.8211 387.14268-104.75809 386.67695-104.69507 385.93049-104.59402 385.46574-104.53102 385.00099-104.468 384.2568-104.36694 383.7931-104.30392 383.32939-104.24092 382.5863-104.13985 382.12355-104.07684 381.66075-104.01382 380.9195-103.91278 380.45783-103.84976 379.99613-103.78676 379.25669-103.6857 378.796-103.62268 378.33534-103.55968 377.59736-103.4586 377.13768-103.3956 376.67796-103.33258 375.94145-103.23152 375.48277-103.1685 375.0241-103.1055 374.2894-103.00444 373.83177-102.94144 373.3741-102.87842 372.6409-102.77736 372.18424-102.71436 371.7275-102.65134 370.99583-102.55028 370.54017-102.48726 370.08448-102.42426 369.35456-102.3232 368.89997-102.2602 368.44538-102.19717 367.71726-102.09612 367.26368-102.0331 366.8101-101.9701 366.08345-101.86903 365.63084-101.80602 365.1782-101.743 364.45314-101.64195 364.00148-101.57895 363.54985-101.51593 362.8262-101.41487 362.37556-101.35185 361.92494-101.28885 361.2031-101.18777 360.75355-101.12477 360.304-101.06175 359.58396-100.96071 359.1354-100.89769 358.6869-100.83469 357.96833-100.73363 357.52076-100.67061 357.07319-100.6076 356.35618-100.50653 355.90956-100.44353 355.46293-100.38051 354.74736-100.27945 354.3018-100.21643 353.85627-100.15343 353.1429-100.05237 352.6984-99.98936 352.25386-99.92635 351.54158-99.82529 351.098-99.76228 350.65446-99.69926 349.94404-99.5982 349.5015-99.53519 349.059-99.47218 348.34996-99.37112 347.90846-99.30812 347.46696-99.2451 346.7598-99.14404 346.3193-99.08102 345.87886-99.01802 345.1731-98.91696 344.73365-98.85394 344.29417-98.79092 343.5903-98.68988 343.15184-98.62688 342.71339-98.56386 342.011-98.4628 341.5735-98.39978 341.136-98.33678 340.43513-98.2357 339.99864-98.1727 339.56217-98.10968 338.8631-98.00864 338.42768-97.94562 337.9922-97.88261 337.29463-97.78156 336.86015-97.71854 336.42567-97.65553 335.72956-97.55446 335.2961-97.49146 334.86265-97.42844 334.16835-97.32738 333.73594-97.26436 333.30354-97.20135 332.61103-97.1003 332.17967-97.0373 331.7483-96.97427 331.05726-96.87321 330.62684-96.81021 330.1964-96.7472 329.50688-96.64613 329.07749-96.58311 328.6481-96.52011 327.9604-96.41905 327.53205-96.35605 327.10365-96.29303 326.41746-96.19197 325.99006-96.12895 325.5626-96.06595 324.87788-95.96489 324.45149-95.90187 324.0251-95.83885 323.34223-95.73781 322.91685-95.6748 322.4915-95.61179 321.81-95.51073 321.38566-95.44771 320.9613-95.3847 320.2817-95.28363 319.85838-95.22063 319.43504-95.15761 318.75685-95.05656 318.33457-94.99355 317.91224-94.93054 317.2359-94.82948 316.8146-94.76646 316.3933-94.70346 315.71846-94.60239 315.2981-94.53938 314.87779-94.47636 314.2044-94.37532 313.7851-94.3123 313.3658-94.2493 312.69429-94.14822 312.27598-94.08522 311.8577-94.0222 311.18766-93.92114 310.77033-93.85814 310.35298-93.79512 309.68443-93.69406 309.2681-93.63104 308.8518-93.56804 308.185-93.46698 307.76979-93.40398 307.35459-93.34096 306.68959-93.2399 306.2754-93.17688 305.86116-93.11388 305.1977-93.01282 304.78443-92.9498 304.37117-92.88678 303.70918-92.78574 303.2969-92.72273 302.8847-92.65971 302.22453-92.55865 301.81333-92.49564 301.4021-92.43263 300.7434-92.33156 300.33317-92.26855 299.92295-92.20554 299.26573-92.10449 298.85649-92.04147 298.44728-91.97847 297.7919-91.87741 297.3837-91.81439 296.9755-91.75137 296.32157-91.65031 295.91438-91.58731 295.50718-91.52429 294.8551-91.42325 294.4489-91.36023 294.04277-91.29723 293.3921-91.19615 292.98695-91.13315 292.5818-91.07013 291.933-90.96907 291.52888-90.90607 291.12474-90.84305 290.4774-90.74199 290.07423-90.67897 289.67109-90.61597 289.0252-90.51491 288.62306-90.4519 288.22093-90.38889 287.57695-90.28783 287.1758-90.22481 286.77467-90.1618 286.13215-90.06075 285.732-89.99773 285.33183-89.93471 284.69078-89.83366 284.29164-89.77066 283.8925-89.70764 283.25325-89.60658 282.8552-89.54356 282.4571-89.48056 281.81968-89.37949 281.4226-89.31648 281.02558-89.25346 280.3896-89.15242 279.99354-89.0894 279.59745-89.0264 278.96299-88.92534 278.56788-88.86232 278.17274-88.7993 277.53974-88.69824 277.1457-88.63524 276.75166-88.57222 276.12083-88.47118 275.7278-88.40816 275.3348-88.34515 274.70506-88.24408 274.313-88.18108 273.92094-88.11806 273.2931-88.017 272.90205-87.954 272.511-87.89098 271.8846-87.78992 271.49458-87.7269 271.10456-87.6639 270.48-87.56284 270.091-87.49983 269.70198-87.43681 269.0789-87.33575 268.69087-87.27274 268.3028-87.20973 267.6812-87.10867 267.2942-87.04565 266.90718-86.98264 266.28739-86.88159 265.9014-86.81859 265.51548-86.75557 264.8975-86.65451 264.51255-86.59149 264.12757-86.52849 263.51066-86.42741 263.1267-86.36441 262.74275-86.30139 262.1281-86.20035 261.74516-86.13733 261.36225-86.07433 260.74864-85.97327 260.36668-85.91025 259.98469-85.84723 259.37297-85.74617 258.99205-85.68317 258.61116-85.62015 258.00129-85.5191 257.62135-85.45609 257.2414-85.39308 256.63258-85.292 256.25367-85.229 255.87474-85.16599 255.2682-85.06493 254.8903-85.00192 254.51239-84.9389 253.9069-84.83786 253.52997-84.77484 253.15303-84.71184 252.54938-84.61076 252.17353-84.54776 251.79767-84.48474 251.19582-84.38368 250.82097-84.32066 250.44614-84.25766 249.84577-84.1566 249.4719-84.09358 249.098-84.03056 248.49913-83.92952 248.12627-83.86652 247.75342-83.8035 247.15637-83.70244 246.78453-83.63942 246.41269-83.57642 245.81716-83.47534 245.44628-83.41234 245.0754-83.34932 244.48131-83.24828 244.11145-83.18526 243.74158-83.12225 243.14936-83.0212 242.78054-82.95818 242.4117-82.89516 241.82089-82.7941 241.45308-82.7311 241.08527-82.66808 240.49629-82.56703 240.1295-82.50401 239.76271-82.44101 239.17519-82.33994 238.8094-82.27693 238.44364-82.21391 237.85794-82.11285 237.4932-82.04985 237.12844-81.98683 236.54424-81.88579 236.18044-81.82277 235.81664-81.75977 235.23392-81.65869 234.87114-81.59569 234.50836-81.53267 233.9275-81.43161 233.56574-81.36859 233.20398-81.30559 232.62453-81.20453 232.2638-81.14151 231.90308-81.07849 231.32547-80.97745 230.96576-80.91444 230.60605-80.85143 230.02993-80.75037 229.67118-80.68735 229.31243-80.62434 228.73778-80.52327 228.38005-80.46027 228.02231-80.39725 227.44947-80.2962 227.09282-80.23318 226.73616-80.17018 226.16516-80.06912 225.80947-80.0061 225.45377-79.94308 224.8839-79.84203 224.52916-79.77902 224.17443-79.716 223.6064-79.61496 223.25273-79.55194 222.89908-79.48894 222.33286-79.38786 221.98021-79.32486 221.62757-79.26184 221.06282-79.16078 220.71115-79.09778 220.35948-79.03476 219.79619-78.93372 219.44554-78.8707 219.0949-78.8077 218.53347-78.70662 218.18384-78.64362 217.8342-78.5806 217.27419-78.47954 216.92559-78.41652 216.57697-78.35352 216.01882-78.25246 215.67122-78.18944 215.32363-78.12642 214.76696-78.02538 214.4203-77.96237 214.07367-77.89935 213.5185-77.7983 213.17288-77.73528 212.82727-77.67227 212.27393-77.5712 211.92932-77.5082 211.58473-77.44518 211.0328-77.34413 210.68924-77.28111 210.34568-77.21811 209.7956-77.11705 209.45305-77.05403 209.1105-76.99101 208.5619-76.88995 208.22032-76.82695 207.87874-76.76393 207.33162-76.66289 206.99105-76.59987 206.65047-76.53687 206.10521-76.43579 205.76566-76.37279 205.4261-76.30977 204.88227-76.20871 204.54373-76.1457 204.2052-76.08269 203.66323-75.98164 203.32572-75.91862 202.98819-75.85562 202.44771-75.75455 202.11115-75.69154 201.7746-75.62852 201.23557-75.52747 200.90004-75.46445 200.56452-75.40144 200.02727-75.3004 199.69283-75.23738 199.35839-75.17436 198.82299-75.0733 198.4895-75.0103 198.15602-74.94728 197.62175-74.84622 197.28922-74.7832 196.95668-74.7202 196.42427-74.61913 196.09282-74.55612 195.76137-74.4931 195.23073-74.39206 194.9003-74.32904 194.56987-74.26604 194.04074-74.16498 193.71126-74.10196 193.38179-74.03894 192.85413-73.93788 192.52568-73.87488 192.19722-73.81186 191.6714-73.71082 191.34398-73.6478 191.01656-73.5848 190.49216-73.48372 190.16576-73.42072 189.83936-73.3577 189.31679-73.25664 188.9914-73.19363 188.66602-73.13062 188.14496-73.02957 187.82053-72.96655 187.4961-72.90355 186.97652-72.80247 186.6531-72.73947 186.3297-72.67645 185.8119-72.5754 185.48958-72.51237 185.16725-72.44937 184.6513-72.34833 184.32994-72.28531 184.00858-72.22229 183.49376-72.12123 183.17334-72.05823 182.85294-71.99521 182.33995-71.89415 182.02062-71.83113 181.7013-71.76813 181.19011-71.66705 180.87181-71.60405 180.55352-71.54103 180.0438-71.43999 179.72644-71.37697 179.4091-71.31396 178.90087-71.2129 178.58454-71.14989 178.26822-71.08687 177.76184-70.98581 177.44654-70.9228 177.13123-70.85979 176.62635-70.75874 176.312-70.69572 175.99765-70.63272 175.49423-70.53165 175.18091-70.46864 174.86757-70.40562 174.36595-70.30457 174.05371-70.24156 173.74146-70.17854 173.24164-70.0775 172.9304-70.01448 172.61917-69.95148 172.12082-69.8504 171.81056-69.7874 171.5003-69.72438 171.00348-69.62332 170.69417-69.5603 170.38488-69.4973 169.88956-69.39626 169.58127-69.33324 169.273-69.27022 168.77944-69.16916 168.47225-69.10616 168.16504-69.04314 167.67328-68.94208 167.3671-68.87906 167.06092-68.81606 166.57065-68.715 166.26543-68.652 165.9602-68.58897 165.47142-68.48792 165.1672-68.4249 164.863-68.3619 164.37609-68.26083 164.07289-68.19781 163.7697-68.1348 163.28424-68.03374 162.98203-67.97073 162.67981-67.90771 162.19583-67.80667 161.89464-67.74365 161.59343-67.68065 161.1113-67.57957 160.81113-67.51657 160.51094-67.45355 160.03023-67.3525 159.73107-67.28949 159.43192-67.22647 158.95307-67.12543 158.65493-67.06241 158.35678-66.9994 157.87935-66.89833 157.58223-66.83533 157.28511-66.77231 156.80953-66.67125 156.51343-66.60823 156.21732-66.54523 155.74323-66.44418 155.44808-66.38116 155.15294-66.31815 154.68033-66.21709 154.3862-66.15408 154.09209-66.09106 153.6213-65.99 153.32822-65.92699 153.03511-65.86398 152.56577-65.76292 152.2737-65.69992 151.98162-65.6369 151.51412-65.53584 151.22306-65.47282 150.93199-65.40982 150.46599-65.30876 150.17589-65.24574 149.88579-65.18272 149.42124-65.08167 149.13216-65.01866 148.84308-64.95564 148.3804-64.8546 148.09235-64.79158 147.80428-64.72858 147.34302-64.6275 147.05599-64.5645 146.76894-64.50148 146.30954-64.40042 146.02352-64.33742 145.73749-64.2744 145.27956-64.17336 144.9945-64.11034 144.70944-64.04733 144.25299-63.94626 143.96897-63.88326 143.68492-63.82024 143.23026-63.71918 142.9473-63.65616 142.66434-63.59315 142.21154-63.49211 141.92954-63.4291 141.64754-63.36607 141.19585-63.26501 140.91481-63.20201 140.63378-63.13899 140.18393-63.03793 139.90396-62.97491 139.62401-62.91191 139.17597-62.81085 138.89702-62.74785 138.61808-62.68483 138.17153-62.58377 137.89354-62.52075 137.61556-62.45775 137.17047-62.35669 136.89351-62.29367 136.61653-62.23065 136.1733-62.1296 135.89737-62.06659 135.62143-62.00357 135.1796-61.90253 134.9047-61.83951 134.62978-61.7765 134.1898-61.67543 133.91591-61.61243 133.64202-61.54941 133.20352-61.44835 132.93059-61.38535 132.65766-61.32233 132.22064-61.22128 131.94873-61.15826 131.6768-61.09526 131.24166-60.99419 130.97075-60.93118 130.69986-60.86816 130.26613-60.7671 129.99625-60.70409 129.72637-60.64108 129.29448-60.54004 129.02564-60.47702 128.75678-60.414 128.32637-60.31294 128.05847-60.24994 127.79059-60.18692 127.36165-60.08586 127.09477-60.02284 126.82791-59.95984 126.40077-59.85878 126.135-59.79578 125.8692-59.73276 125.44391-59.6317 125.17908-59.56868 124.91425-59.50568 124.49-59.40462 124.2262-59.3416 123.96239-59.27858 123.54044-59.17754 123.27763-59.11453 123.01485-59.05151 122.59395-58.95045 122.3321-58.88744 122.07027-58.82443 121.65129-58.72336 121.39049-58.66035 121.12967-58.59734 120.7121-58.49628 120.4523-58.43326 120.19252-58.37025 119.7768-58.26921 119.51802-58.20619 119.25925-58.14319 118.84494-58.04211 118.58719-57.97911 118.32944-57.91609 117.91699-57.81503 117.66026-57.75201 117.40353-57.68901 116.99258-57.58797 116.7368-57.52495 116.48103-57.46193 116.07155-57.36087 115.8168-57.29787 115.56204-57.23485 115.15442-57.13379 114.90068-57.07077 114.64694-57.00777 114.24074-56.90671 113.988-56.8437 113.73529-56.78069 113.33093-56.67963 113.07925-56.61661 112.82758-56.5536 112.42462-56.45255 112.17397-56.38953 111.9233-56.3265 111.52225-56.22546 111.27255-56.16246 111.02284-56.09944 110.62286-55.99838 110.37418-55.93536 110.12547-55.87236 109.72778-55.77129 109.48012-55.70828 109.23244-55.64526 108.83572-55.5442 108.58908-55.48119 108.34242-55.41818 107.94801-55.31714 107.70238-55.25412 107.45674-55.19112 107.06337-55.09004 106.8187-55.02704 106.57402-54.96402 106.18256-54.86296 105.93892-54.79994 105.69527-54.73694 105.30522-54.6359 105.06259-54.57288 104.81998-54.50986 104.43178-54.4088 104.19017-54.3458 103.94856-54.28278 103.56178-54.18172 103.3212-54.1187 103.08061-54.0557 102.6957-53.95464 102.45613-53.89163 102.21655-53.82861 101.83311-53.72755 101.59451-53.66454 101.3559-53.60153 100.97395-53.50047 100.73636-53.43745 100.49876-53.37444 100.11865-53.27339 99.88208-53.21039 99.64551-53.14737 99.26683-53.04631 99.0313-52.98329 98.79575-52.92029 98.4189-52.81921 98.18437-52.75621 97.94984-52.69319 97.5745-52.59213 97.34094-52.52911 97.10738-52.46611 96.73347-52.36507 96.50093-52.30205 96.26839-52.23904 95.8963-52.13797 95.66484-52.07497 95.43338-52.01195 95.06314-51.91089 94.83264-51.84787 94.60213-51.78487 94.23302-51.68382 94.00346-51.6208 93.77391-51.55779 93.40665-51.45673 93.17818-51.39372 92.9497-51.3307 92.58424-51.22964 92.3568-51.16663 92.12936-51.10362 91.76535-51.00256 91.53888-50.93956 91.3124-50.87654 90.94986-50.77548 90.7244-50.71246 90.49893-50.64946 90.13828-50.5484 89.91383-50.48538 89.68939-50.42236 89.33012-50.32132 89.1067-50.25832 88.88329-50.1953 88.52588-50.09424 88.30348-50.03122 88.08107-49.96822 87.72517-49.86714 87.50372-49.80414 87.28227-49.74112 86.92784-49.64008 86.70741-49.57706 86.48698-49.51405 86.13441-49.413 85.91501-49.34998 85.6956-49.28697 85.34444-49.1859 85.12605-49.1229 84.90768-49.05988 84.55835-48.95882 84.34099-48.8958 84.12364-48.8328 83.7758-48.73175 83.5594-48.66873 83.343-48.60571 82.99666-48.50465 82.78127-48.44165 82.56589-48.37863 82.22139-48.27757 82.00702-48.21455 81.79266-48.15155 81.4496-48.05049 81.23625-47.98749 81.0229-47.92447 80.68169-47.82341 80.46936-47.76039 80.25703-47.69739 79.91724-47.59633 79.70593-47.53331 79.49461-47.47029 79.15668-47.36925 78.9464-47.30624 78.7361-47.24323 78.39963-47.14217 78.1903-47.07915 77.98099-47.01614 77.646-46.91507 77.4377-46.85207 77.2294-46.78905 76.89626-46.688 76.68896-46.62498 76.48169-46.56198 76.15002-46.46092 75.94371-46.3979 75.7374-46.3349 75.4072-46.23383 75.2019-46.17082 74.9966-46.1078 74.66821-46.00674 74.46399-45.94373 74.25977-45.88072 73.93318-45.77968 73.72998-45.71666 73.52678-45.65364 73.20168-45.55258 72.99942-45.48958 72.79718-45.42656 72.4736-45.3255 72.27232-45.26248 72.07104-45.19948 71.74889-45.09842 71.54869-45.03542 71.3485-44.9724 71.02856-44.87134 70.82939-44.80832 70.6302-44.74532 70.31131-44.64426 70.1131-44.58124 69.91489-44.51822 69.5979-44.41718 69.4007-44.35417 69.2035-44.29115 68.88795-44.1901 68.69177-44.12708 68.49559-44.06407 68.1819-43.963 67.98674-43.9 67.79158-43.83698 67.47935-43.73593 67.28517-43.67291 67.09097-43.60991 66.78021-43.50885 66.58705-43.44583 66.39388-43.38283 66.08492-43.28175 65.89282-43.21875 65.70073-43.15573 65.39363-43.05467 65.2025-42.99165 65.01135-42.92865 64.70529-42.8276 64.51518-42.76459 64.32507-42.70157 64.02132-42.60051 63.83221-42.5375 63.64313-42.47449 63.34041-42.37343 63.15227-42.31041 62.96413-42.2474 62.66333-42.14635 62.4762-42.08334 62.28908-42.02032 61.9897-41.91927 61.8036-41.85625 61.61751-41.79324 61.31998-41.69218 61.1349-41.62917 60.94983-41.56615 60.65372-41.4651 60.46967-41.4021 60.28561-41.33908 59.99135-41.23802 59.80832-41.175 59.62529-41.112 59.33243-41.01093 59.15042-40.94792 58.9684-40.8849 58.67749-40.78386 58.49643-40.72084 58.31537-40.65784 58.02548-40.55678 57.84544-40.49376 57.66542-40.43076 57.37782-40.32968 57.1988-40.26668 57.01979-40.20366 56.73325-40.10262 56.55519-40.0396 56.37715-39.9766 56.09245-39.87553 55.91547-39.81252 55.73848-39.7495 55.45558-39.64844 55.27963-39.58543 55.10368-39.52242 54.82227-39.42136 54.64728-39.35834 54.47229-39.29533 54.19232-39.19427 54.01836-39.13127 53.84438-39.06825 53.56628-38.9672 53.39334-38.90417 53.22038-38.84117 52.94371-38.74011 52.77177-38.6771 52.59984-38.61407 52.32503-38.51303 52.15411-38.45003 51.9832-38.38701 51.70987-38.28595 51.53992-38.22293 51.36995-38.15993 51.0981-38.05885 50.92917-37.99585 50.76025-37.93283 50.49023-37.83179 50.32233-37.76877 50.15442-37.70576 49.88582-37.6047 49.71893-37.54169 49.55205-37.47868 49.28531-37.37761 49.11945-37.3146 48.95357-37.25159 48.68831-37.15054 48.5234-37.08752 48.35849-37.02452 48.09471-36.92346 47.93082-36.86044 47.76692-36.79742 47.505-36.69637 47.34213-36.63336 47.17926-36.57034 46.91878-36.46928 46.75691-36.40627 46.59506-36.34326 46.33641-36.2422 46.17558-36.1792 46.01474-36.11618 45.75757-36.01512 45.5977-35.9521 45.43784-35.8891 45.18214-35.78804 45.0233-35.72502 44.86446-35.662 44.61055-35.56096 44.45277-35.49796 44.29501-35.43494 44.04297-35.33388 43.88615-35.27086 43.72935-35.20786 43.47835-35.10678 43.32256-35.04378 43.16676-34.98076 42.91805-34.87971 42.76328-34.8167 42.6085-34.7537 42.36086-34.65263 42.20703-34.58961 42.05322-34.52661 41.80746-34.42554 41.6547-34.36253 41.5019-34.29951 41.25757-34.19847 41.1058-34.13545 40.95404-34.07245 40.71155-33.97139 40.5608-33.90837 40.41006-33.84535 40.16899-33.7443 40.01926-33.68129 39.86954-33.61827 39.63033-33.51721 39.48161-33.4542 39.3329-33.39119 39.09518-33.29013 38.94743-33.22713 38.79968-33.16411 38.56345-33.06305 38.41672-33.00003 38.26999-32.93703 38.03552-32.83597 37.88988-32.77295 37.74422-32.70993 37.51161-32.60889 37.36694-32.54588 37.22226-32.48286 36.99075-32.3818 36.84703-32.31879 36.70331-32.25578 36.47366-32.15471 36.33102-32.0917 36.18839-32.02869 35.96051-31.92764 35.8189-31.86462 35.67728-31.80162 35.45088-31.70056 35.31023-31.63754 35.16956-31.57454 34.94466-31.47346 34.80501-31.41046 34.66537-31.34744 34.44234-31.2464 34.30371-31.18338 34.16508-31.12038 33.94353-31.01932 33.80586-30.9563 33.6682-30.89328 33.44812-30.79222 33.31146-30.72922 33.17482-30.6662 32.95654-30.56516 32.82097-30.50214 32.6854-30.43913 32.46889-30.33806 32.33435-30.27505 32.19981-30.21204 31.9848-30.11098 31.85123-30.04796 31.71764-29.98495 31.50417-29.8839 31.37154-29.82088 31.23892-29.75786 31.02692-29.65681 30.89531-29.59381 30.7637-29.53079 30.55351-29.42973 30.42299-29.36671 30.29247-29.30371 30.08405-29.20264 29.95453-29.13963 29.82503-29.07661 29.61812-28.97557 29.48956-28.91255 29.36102-28.84955 29.15556-28.74849 29.02805-28.68547 28.90053-28.62247 28.69691-28.5214 28.57042-28.45839 28.44392-28.39537 28.24179-28.29433 28.11624-28.23131 27.9907-28.1683 27.79005-28.06723 27.66554-28.00423 27.54102-27.94121 27.34224-27.84015 27.21873-27.77715 27.09525-27.71413 26.89787-27.61308 26.77539-27.55006 26.65291-27.48706 26.4574-27.38599 26.33594-27.32298 26.21446-27.25996 26.02037-27.1589 25.89992-27.09589 25.77948-27.03288 25.58725-26.93182 25.46782-26.8688 25.34839-26.80579 25.15762-26.70474 25.03917-26.64174 24.92072-26.57872 24.73141-26.47766 24.61398-26.41464 24.49655-26.35164 24.30911-26.25056 24.19269-26.18756 24.07628-26.12454 23.89026-26.0235 23.77487-25.96048 23.65947-25.89748 23.47531-25.79642 23.36093-25.7334 23.24655-25.6704 23.06387-25.56932 22.95045-25.50632 22.83702-25.4433 22.65584-25.34225 22.54343-25.27924 22.43103-25.21623 22.2517-25.11516 22.1403-25.05215 22.02892-24.98914 21.851-24.88808 21.74065-24.82507 21.6303-24.76205 21.4542-24.66101 21.34486-24.59799 21.23553-24.53499 21.06093-24.43391 20.95256-24.37091 20.8442-24.30789 20.67107-24.20683 20.5637-24.14381 20.45634-24.08081 20.28508-23.97977 20.17874-23.91675 20.07242-23.85373 19.90257-23.75267 19.79726-23.68967 19.69194-23.62665 19.52394-23.52559 19.41963-23.46257 19.31534-23.39957 19.14879-23.2985 19.0455-23.23549 18.94221-23.17247 18.77751-23.07143 18.67525-23.0084 18.57298-22.9454 18.40974-22.84435 18.30846-22.78133 18.20715-22.71832 18.0454-22.61725 17.94513-22.55424 17.84485-22.49123 17.68494-22.39018 17.5857-22.32716 17.48643-22.26416 17.32794-22.16309 17.2297-22.10008 17.13147-22.03706 16.97484-21.936 16.87762-21.873 16.78041-21.80998 16.62526-21.70894 16.52899-21.64592 16.43274-21.58292 16.27907-21.48184 16.18382-21.41884 16.08858-21.35582 15.93675-21.25476 15.84254-21.19174 15.74835-21.12874 15.59793-21.0277 15.50475-20.96468 15.41156-20.90166 15.26299-20.8006 15.17082-20.7376 15.07866-20.67458 14.93158-20.57352 14.84036-20.5105 14.74915-20.4475 14.60356-20.34642 14.51337-20.28342 14.42317-20.2204 14.27943-20.11935 14.19026-20.05634 14.10109-19.99333 13.95877-19.89227 13.8706-19.82925 13.78246-19.76625 13.642-19.66518 13.55487-19.60217 13.46773-19.53915 13.32869-19.43811 13.24257-19.37509 13.15645-19.31209 13.01926-19.21101 12.93417-19.14801 12.84909-19.08499 12.71336-18.98393 12.62923-18.92093 12.5451-18.85791 12.41086-18.75687 12.32774-18.69385 12.24464-18.63084 12.11226-18.52977 12.03017-18.46677 11.94807-18.40375 11.81711-18.30269 11.73604-18.23967 11.65497-18.17667 11.52586-18.07562 11.4458-18.0126 11.36575-17.94958 11.23813-17.84853 11.15904-17.78552 11.07994-17.7225 10.9538-17.62144 10.87572-17.55843 10.79764-17.49542 10.67334-17.39435 10.5963-17.33134 10.51926-17.26833 10.39636-17.16728 10.32034-17.10426 10.24432-17.04126 10.12328-16.9402 10.04828-16.87718 9.97327-16.81418 9.85371-16.7131 9.77966-16.6501 9.70561-16.58708 9.58754-16.48604 9.51451-16.42302 9.44148-16.36002 9.32529-16.25894 9.25327-16.19594 9.18126-16.13292 9.06647-16.03186 8.99547-15.96886 8.92448-15.90584 8.81154-15.8048 8.74158-15.74178 8.6716-15.67877 8.56007-15.5777 8.49113-15.5147 8.4222-15.45168 8.31252-15.35062 8.24458-15.2876 8.17667-15.2246 8.06847-15.12355 8.00151-15.06053 7.93454-14.99751 7.82782-14.89645 7.76189-14.83345 7.69594-14.77043 7.59106-14.66937 7.52614-14.60635 7.46121-14.54335 7.35777-14.44229 7.29387-14.37929 7.22997-14.31627 7.12839-14.21521 7.06549-14.15219 7.0026-14.08919 6.90251-13.98813 6.84058-13.92511 6.77864-13.8621 6.68002-13.76103 6.61911-13.69803 6.5582-13.63501 6.46143-13.53397 6.40155-13.47095 6.34166-13.40794 6.2463-13.30687 6.18744-13.24387 6.12859-13.18085 6.03506-13.07979 5.97723-13.01678 5.91939-12.95377 5.82736-12.85272 5.77048-12.7897 5.7136-12.7267 5.62305-12.62563 5.56718-12.56262 5.51132-12.4996 5.42262-12.39854 5.36778-12.33553 5.31293-12.27252 5.22568-12.17148 5.17184-12.10846 5.11801-12.04544 5.0326-11.94438 4.9798-11.88138 4.927-11.81836 4.84299-11.7173 4.79121-11.65428 4.73944-11.59128 4.65727-11.49022 4.6065-11.42722 4.55576-11.3642 4.47508-11.26314 4.4253-11.20012 4.37549-11.13712 4.29628-11.03606 4.2475-10.97304 4.19872-10.91003 4.12138-10.80896 4.07362-10.74596 4.02586-10.68294 3.95001-10.5819 3.90321-10.51888 3.8564-10.45587 3.78203-10.3548 3.73624-10.2918 3.69046-10.22878 3.61789-10.12772 3.57318-10.06471 3.52847-10.0017 3.4577-9.90065 3.414-9.83763 3.37032-9.77463 3.30101-9.67355 3.2583-9.61055 3.21558-9.54753 3.14781-9.44647 3.10605-9.38345 3.06429-9.32045 2.99799-9.2194 2.95724-9.15639 2.9165-9.09337 2.852-8.99231 2.81235-8.9293 2.77267-8.86629 2.70999-8.76523 2.67134-8.70221 2.6327-8.6392 2.57149-8.53815 2.5338-8.47514 2.49611-8.41212 2.43637-8.31107 2.3997-8.24805 2.36304-8.18504 2.30515-8.08398 2.26952-8.02097 2.23387-7.95796 2.17744-7.85689 2.14278-7.79388 2.1081-7.73087 2.05316-7.62982 2.0195-7.5668 1.98584-7.5038 1.9327-7.40273 1.90012-7.33972 1.86754-7.2767 1.81627-7.17564 1.78464-7.11264 1.75302-7.04962 1.70284-6.94858 1.67218-6.88556 1.64151-6.82256 1.59319-6.72148 1.56361-6.65848 1.53403-6.59546 1.4875-6.4944 1.45894-6.43138 1.43037-6.36838 1.38533-6.26733 1.35773-6.20432 1.33012-6.1413 1.28653-6.04024 1.25996-5.97723 1.23338-5.91422 1.19167-5.81316 1.1661-5.75014 1.14055-5.68713 1.10023-5.58607 1.0757-5.52307 1.05116-5.46005 1.01271-5.359 .9892-5.29597 .96568-5.23297 .92865-5.13191 .90616-5.0689 .88365-5.00587 .84854-4.90483 .827-4.84183 .80545-4.77881 .7714-4.67775 .75087-4.61473 .73035-4.55173 .69856-4.45065 .67906-4.38765 .65956-4.32463 .62881-4.22357 .61029-4.16057 .59177-4.09755 .56287-3.9965 .54541-3.93349 .52795-3.87048 .50087-3.76941 .48444-3.7064 .468-3.64339 .44237-3.54233 .4269-3.47931 .41142-3.4163 .3873-3.31526 .37283-3.25224 .35838-3.18922 .33609-3.08817 .32265-3.02516 .30922-2.96214 .28836-2.86108 .27594-2.79807 .26352-2.73506 .24454-2.634 .23312-2.571 .22173-2.50798 .20418-2.40692 .19376-2.3439 .18333-2.2809 .16728-2.17984 .15787-2.11682 .14845-2.0538 .13425-1.95276 .12585-1.88976 .11746-1.82674 .10468-1.72568 .0973-1.66266 .08992-1.59966 .07901-1.49858 .07266-1.43558 .0663-1.37256 .05685-1.2715 .05145-1.2085 .04605-1.14548 .0381-1.04443 .03372-.98141 .02934-.91841 .02324-.81734 .01988-.75433 .01651-.69131 .01183-.59026 .00949-.52724 .00717-.46423 .00432-.36319 .00302-.30017 .00171-.23715 0-.07309 0-.07309"/>
<path transform="matrix(1.00009,0,0,-1.00005,120.56023,46.082654)" stroke-width=".79701" stroke-linecap="butt" stroke-dasharray="2.98883,2.98883" stroke-miterlimit="10" stroke-linejoin="miter" fill="none" stroke="#000000" d="M28.3468 113.38724V-113.38724"/>
<path transform="matrix(1.00009,0,0,-1.00005,120.56023,46.082654)" stroke-width=".79701" stroke-linecap="butt" stroke-dasharray="2.98883,2.98883" stroke-miterlimit="10" stroke-linejoin="miter" fill="none" stroke="#000000" d="M0 28.3468H28.3468"/>
</g>
<use data-text="&#x2022;" xlink:href="#font_3_1" transform="matrix(9.963496,0,0,-9.963098,146.41855,19.948349)"/>
<use data-text="&#x2022;" xlink:href="#font_3_1" transform="matrix(9.963496,0,0,-9.963098,146.41855,48.296766)"/>
<use data-text="&#x2022;" xlink:href="#font_3_1" transform="matrix(9.963496,0,0,-9.963098,118.069,48.296766)"/>
<use data-text="(" xlink:href="#font_4_1" transform="matrix(9.963496,0,0,-9.963098,109.48923,57.075204)"/>
<use data-text="0" xlink:href="#font_4_3" transform="matrix(9.963496,0,0,-9.963098,113.35507,57.075204)"/>
<use data-text="," xlink:href="#font_1_1" transform="matrix(9.963496,0,0,-9.963098,118.34602,57.075204)"/>
<use data-text="0" xlink:href="#font_4_3" transform="matrix(9.963496,0,0,-9.963098,122.774417,57.075204)"/>
<use data-text=")" xlink:href="#font_4_2" transform="matrix(9.963496,0,0,-9.963098,127.75615,57.075204)"/>
</svg>
