<svg xmlns="http://www.w3.org/2000/svg" xmlns:xlink="http://www.w3.org/1999/xlink" version="1.1" width="210" height="209" viewBox="0 0 210 209">
<defs>
<path id="font_1_1" d="M.3039856 .6392822C.3039856 .6642761 .30299378 .666275 .27799989 .666275 .21598816 .60227969 .12399292 .60227969 .09298706 .60227969V.57128909C.11199951 .57128909 .17298889 .57128909 .22698975 .5972748V.08001709C.22698975 .042999269 .22399903 .0309906 .1309967 .0309906H.09899902V0C.1349945 .0029907227 .22399903 .0029907227 .2649994 .0029907227 .30599977 .0029907227 .3959961 .0029907227 .43199159 0V.0309906H.3999939C.30699159 .0309906 .3039856 .042999269 .3039856 .08001709V.6392822Z"/>
<path id="font_2_1" d="M.6749878 .22944641C.69299319 .22944641 .71199038 .22944641 .71199038 .25144959 .71199038 .27246095 .69200137 .27246095 .6749878 .27246095H.12298584C.10598755 .27246095 .085998538 .27246095 .085998538 .25144959 .085998538 .22944641 .10499573 .22944641 .12298584 .22944641H.6749878Z"/>
<path id="font_1_2" d="M.46199037 .17704773H.43399049C.43199159 .16404724 .42399598 .10501099 .41099549 .08900452 .40499879 .07998657 .33599855 .07998657 .31599427 .07998657H.13798523L.23699951 .17404175C.40098573 .3161316 .46199037 .36915589 .46199037 .4711914 .46199037 .5860901 .36698915 .6660156 .24398804 .6660156 .1289978 .6660156 .050994874 .575119 .050994874 .4841919 .050994874 .43418885 .09399414 .42919923 .102996829 .42919923 .125 .42919923 .15499878 .44519044 .15499878 .48120118 .15499878 .51119998 .13398743 .5332031 .102996829 .5332031 .09799194 .5332031 .09498596 .5332031 .09098816 .53219607 .114990238 .6030731 .1789856 .63500979 .23298645 .63500979 .33499146 .63500979 .36999513 .5401764 .36999513 .4711914 .36999513 .36915589 .29299928 .28611756 .24499512 .23408509L.06199646 .035995485C.050994874 .024993897 .050994874 .022994996 .050994874 0H.43399049L.46199037 .17704773Z"/>
<path id="font_1_3" d="M.30499269 .35195924C.397995 .38697816 .44198609 .46006776 .44198609 .5290985 .44198609 .60606387 .35699464 .6660156 .25299073 .6660156 .14898682 .6660156 .070999149 .60705569 .070999149 .5310974 .070999149 .49809266 .09298706 .47909547 .12199402 .47909547 .15098572 .47909547 .17199707 .50009158 .17199707 .5290985 .17199707 .5640869 .147995 .57910159 .11399841 .57910159 .13999939 .6210327 .20098877 .64100649 .25 .64100649 .33299256 .64100649 .34899903 .5750885 .34899903 .52809146 .34899903 .49809266 .34298707 .45005799 .31799317 .41201783 .2869873 .36695863 .2519989 .36495973 .22299195 .36296083 .19799805 .36094667 .19599915 .36094667 .18798828 .36094667 .1789856 .35995484 .17098999 .35894776 .17098999 .34794618 .17098999 .33496095 .1789856 .33496095 .19599915 .33496095H.24299622C.32998658 .33496095 .36799623 .2646637 .36799623 .16937256 .36799623 .04145813 .2999878 .0055389406 .24899292 .0055389406 .22999573 .0055389406 .1329956 .010528564 .08799744 .0843811 .12399292 .07939148 .1519928 .10437012 .1519928 .13838196 .1519928 .17137146 .1269989 .19238281 .09799194 .19238281 .07299805 .19238281 .042999269 .17736817 .042999269 .13537598 .042999269 .046447755 .13598633-.022460938 .2519989-.022460938 .3769989-.022460938 .46998597 .06741333 .46998597 .16937256 .46998597 .25663758 .40098573 .33093263 .30499269 .35195924Z"/>
<path id="font_1_4" d="M.0289917 .19602967V.16503906H.3019867V.07901001C.3019867 .041992189 .29899598 .0309906 .22399903 .0309906H.20199585V0C.2649994 .0029907227 .33499146 .0029907227 .34199525 .0029907227 .34700013 .0029907227 .4189911 .0029907227 .48199464 0V.0309906H.45999146C.3849945 .0309906 .38198854 .041992189 .38198854 .07901001V.16503906H.48399354V.19602967H.38198854V.64974978C.38198854 .669754 .38198854 .6767578 .36299134 .6767578 .35099793 .6767578 .34999085 .67575076 .34098817 .66174319L.0289917 .19602967M.06098938 .19602967 .30799867 .56581118V.19602967H.06098938Z"/>
<path id="font_1_5" d="M.10398865 .3444519C.10398865 .32641603 .10398865 .31539918 .117996219 .31539918 .12599182 .31539918 .1289978 .31941224 .1349945 .32843019 .16499329 .3704834 .21299744 .39453126 .2649994 .39453126 .37199403 .39453126 .37199403 .24029541 .37199403 .20425415 .37199403 .17324829 .37199403 .11125183 .34399415 .06637573 .31698609 .024475098 .2749939 .0055389406 .23599243 .0055389406 .1769867 .0055389406 .10998535 .042434694 .085998538 .116256717 .08699036 .116256717 .09298706 .11425781 .099990848 .11425781 .11999512 .11425781 .14898682 .12724304 .14898682 .16325379 .14898682 .19424439 .1269989 .21224976 .099990848 .21224976 .07899475 .21224976 .050994874 .20025635 .050994874 .1602478 .050994874 .069366458 .1269989-.022460938 .23799134-.022460938 .35899354-.022460938 .46199037 .0753479 .46199037 .19924927 .46199037 .3204193 .37599183 .41952516 .2669983 .41952516 .21899414 .41952516 .16999817 .40351869 .1349945 .36747743V.56477358C.16499329 .5557709 .19599915 .55078127 .22698975 .55078127 .34999085 .55078127 .42199708 .6397705 .42199708 .652771 .42199708 .6617737 .41600038 .6657715 .41099549 .6657715 .40899659 .6657715 .40699769 .6657715 .397995 .6607666 .35099793 .6417694 .30499269 .6337738 .2630005 .6337738 .21998596 .6337738 .1749878 .6417694 .1289978 .6607666 .11898804 .6657715 .116989139 .6657715 .115997318 .6657715 .10398865 .6657715 .10398865 .655777 .10398865 .6387787V.3444519Z"/>
<path id="font_1_6" d="M.13398743 .33073426C.13398743 .43276979 .14498902 .4897766 .17199707 .54177859 .19198609 .58277896 .24099732 .64100649 .31498719 .64100649 .33499146 .64100649 .3809967 .63697817 .4039917 .6007843 .36698915 .6007843 .35099793 .5817871 .35099793 .55477908 .35099793 .5287781 .36898805 .50878909 .39698792 .50878909 .4249878 .50878909 .44400025 .5267792 .44400025 .55677798 .44400025 .612854 .4039917 .6660156 .31298829 .6660156 .18399048 .6660156 .042999269 .53878787 .042999269 .3157196 .042999269 .044555665 .16499329-.022460938 .25898744-.022460938 .36999513-.022460938 .46998597 .0705719 .46998597 .20265198 .46998597 .32972718 .37799073 .42578126 .2649994 .42578126 .20498657 .42578126 .1619873 .39076234 .13398743 .33073426M.2579956 .0055389406C.20098877 .0055389406 .16799927 .05256653 .1559906 .08157349 .13699341 .12660218 .13598633 .20965576 .13598633 .22566223 .13598633 .29270936 .16699219 .4007721 .2630005 .4007721 .2789917 .4007721 .32798768 .4007721 .3600006 .33872987 .3789978 .30070497 .3789978 .25167848 .3789978 .20365906 .3789978 .15562439 .3789978 .1065979 .3600006 .06956482 .32899476 .012542725 .2849884 .0055389406 .2579956 .0055389406Z"/>
<path id="font_1_7" d="M.48999024 .60954287C.49899293 .62054446 .49899293 .62254336 .49899293 .6435547H.25C.12399292 .6435547 .12098694 .6565399 .117996219 .67555239H.08999634L.056991579 .46655274H.084991458C.08898926 .48954774 .09700012 .5455475 .10998535 .55755618 .116989139 .56355288 .19599915 .56355288 .20999146 .56355288H.41999818L.32398988 .4325409C.19400025 .25354005 .18199158 .090530399 .18199158 .03353882 .18199158 .022537232 .18199158-.022460938 .22799683-.022460938 .2749939-.022460938 .2749939 .021530152 .2749939 .03453064V.08352661C.2749939 .23054505 .29699708 .34654237 .34999085 .41854859L.48999024 .60954287Z"/>
<path id="font_3_1" d="M.33399964 .30233766C.33999635 .32835389 .36299134 .42037965 .43299867 .42037965 .43798829 .42037965 .46199037 .42037965 .48298646 .40734864 .45498658 .402359 .43499757 .37734986 .43499757 .35334779 .43499757 .33735658 .44599916 .31835938 .47299195 .31835938 .49499513 .31835938 .5269928 .3363495 .5269928 .37635804 .5269928 .42837525 .46798707 .4423828 .43399049 .4423828 .37599183 .4423828 .34098817 .38935853 .32899476 .36634828 .3039856 .43237306 .25 .4423828 .22099304 .4423828 .116989139 .4423828 .05999756 .3133545 .05999756 .28834535 .05999756 .27833558 .069992069 .27833558 .07199097 .27833558 .07998657 .27833558 .08299255 .28033448 .084991458 .28933717 .11898804 .39535523 .18499756 .42037965 .21899414 .42037965 .23799134 .42037965 .272995 .4113617 .272995 .35334779 .272995 .32235719 .2559967 .25532533 .21899414 .11528015 .20298767 .053268434 .16799927 .011245728 .12399292 .011245728 .117996219 .011245728 .09498596 .011245728 .07398987 .024276734 .09899902 .029266358 .12098694 .05027771 .12098694 .07827759 .12098694 .105270389 .09899902 .11328125 .083999637 .11328125 .053985597 .11328125 .0289917 .08728027 .0289917 .055267335 .0289917 .009246826 .07899475-.0107421879 .12298584-.0107421879 .18899536-.0107421879 .22499085 .059280397 .22799683 .0652771 .23999024 .028274537 .27598573-.0107421879 .33599855-.0107421879 .43899537-.0107421879 .49598695 .118270877 .49598695 .14328003 .49598695 .1532898 .4869995 .1532898 .48399354 .1532898 .47499085 .1532898 .47299195 .14929199 .47099305 .14228821 .43798829 .03527832 .36999513 .011245728 .33799745 .011245728 .29899598 .011245728 .2829895 .043273927 .2829895 .07727051 .2829895 .09927368 .2889862 .121276859 .2999878 .16529846L.33399964 .30233766Z"/>
<path id="font_3_2" d="M.48599244 .38136292C.48999024 .39537049 .48999024 .39736939 .48999024 .40437318 .48999024 .42237855 .47599793 .43138124 .46099855 .43138124 .45098878 .43138124 .43499757 .42536927 .42599488 .41036988 .42399598 .405365 .41600038 .37435914 .4119873 .35635377 .40499879 .33035279 .397995 .30334474 .3919983 .27633668L.34700013 .09628296C.34298707 .08126831 .2999878 .011245728 .23399353 .011245728 .18299866 .011245728 .17199707 .055267335 .17199707 .0922699 .17199707 .1382904 .18899536 .20030213 .22299195 .28833009 .23899842 .3293457 .24299622 .3403473 .24299622 .36035157 .24299622 .405365 .21099854 .4423828 .16099549 .4423828 .06599426 .4423828 .0289917 .29733277 .0289917 .28833009 .0289917 .27833558 .038986207 .27833558 .040985109 .27833558 .050994874 .27833558 .051986696 .28033448 .056991579 .29634095 .083999637 .3903656 .12399292 .42037965 .1579895 .42037965 .1659851 .42037965 .18299866 .42037965 .18299866 .3883667 .18299866 .36335755 .17298889 .3373413 .1659851 .31834413 .12599182 .21231079 .10798645 .1552887 .10798645 .10827637 .10798645 .019256592 .17098999-.0107421879 .22999573-.0107421879 .2689972-.0107421879 .30299378 .0062561037 .33099366 .03425598 .31799317-.017745972 .30599977-.06674194 .2659912-.11973572 .23999024-.15385437 .20199585-.18309021 .1559906-.18309021 .14199829-.18309021 .09700012-.18005371 .07998657-.14074707 .09599304-.14074707 .10899353-.14074707 .12298584-.1287384 .1329956-.11973572 .14299011-.10673523 .14299011-.08773804 .14299011-.056747438 .115997318-.052734376 .10598755-.052734376 .08299255-.052734376 .049987794-.068740848 .049987794-.11773682 .049987794-.16796875 .09399414-.20507813 .1559906-.20507813 .25898744-.20507813 .3619995-.11373901 .3899994-.00074768069L.48599244 .38136292Z"/>
<clipPath id="clip_4">
<path transform="matrix(1.00005,0,0,-1.00005,105.322559,105.66863)" d="M-99.21382-99.21382V99.21382H99.21382V-99.21382ZM99.21382 99.21382"/>
</clipPath>
</defs>
<path transform="matrix(1.00005,0,0,-1.00005,105.322559,105.66863)" stroke-width=".19925" stroke-linecap="butt" stroke-miterlimit="10" stroke-linejoin="miter" fill="none" stroke="#929292" stroke-opacity=".5" d="M-99.21382-99.21382H99.21382M-99.21382-85.04042H99.21382M-99.21382-70.867H99.21382M-99.21382-56.69362H99.21382M-99.21382-42.5202H99.21382M-99.21382-28.3468H99.21382M-99.21382-14.17339H99.21382M-99.21382 0H99.21382M-99.21382 14.17339H99.21382M-99.21382 28.3468H99.21382M-99.21382 42.5202H99.21382M-99.21382 56.69362H99.21382M-99.21382 70.867H99.21382M-99.21382 85.04042H99.21382M-99.21382 99.20885H99.21382M-99.21382-99.21382V99.21382M-85.04042-99.21382V99.21382M-70.867-99.21382V99.21382M-56.69362-99.21382V99.21382M-42.5202-99.21382V99.21382M-28.3468-99.21382V99.21382M-14.17339-99.21382V99.21382M0-99.21382V99.21382M14.17339-99.21382V99.21382M28.3468-99.21382V99.21382M42.5202-99.21382V99.21382M56.69362-99.21382V99.21382M70.867-99.21382V99.21382M85.04042-99.21382V99.21382M99.20885-99.21382V99.21382M99.21382 99.21382"/>
<path transform="matrix(1.00005,0,0,-1.00005,105.322559,105.66863)" stroke-width="1.19553" stroke-linecap="butt" stroke-miterlimit="10" stroke-linejoin="miter" fill="none" stroke="#000000" d="M14.17339 1.24535V-1.24535M-14.17339 1.24535V-1.24535M1.24535 14.17339H-1.24535M1.24535-14.17339H-1.24535"/>
<use data-text="1" xlink:href="#font_1_1" transform="matrix(8.966848,0,0,-8.966848,117.193149,116.611179)"/>
<use data-text="&#x2212;" xlink:href="#font_2_1" transform="matrix(8.966848,0,0,-8.966848,85.26055,116.611179)"/>
<use data-text="1" xlink:href="#font_1_1" transform="matrix(8.966848,0,0,-8.966848,92.42892,116.611179)"/>
<use data-text="1" xlink:href="#font_1_1" transform="matrix(8.966848,0,0,-8.966848,95.55107,94.38407)"/>
<use data-text="&#x2212;" xlink:href="#font_2_1" transform="matrix(8.966848,0,0,-8.966848,88.382709,122.31647)"/>
<use data-text="1" xlink:href="#font_1_1" transform="matrix(8.966848,0,0,-8.966848,95.55107,122.31647)"/>
<path transform="matrix(1.00005,0,0,-1.00005,105.322559,105.66863)" stroke-width="1.19553" stroke-linecap="butt" stroke-miterlimit="10" stroke-linejoin="miter" fill="none" stroke="#000000" d="M28.3468 1.24535V-1.24535M-28.3468 1.24535V-1.24535M1.24535 28.3468H-1.24535M1.24535-28.3468H-1.24535"/>
<use data-text="2" xlink:href="#font_1_2" transform="matrix(8.966848,0,0,-8.966848,131.36685,116.611179)"/>
<use data-text="&#x2212;" xlink:href="#font_2_1" transform="matrix(8.966848,0,0,-8.966848,71.086849,116.611179)"/>
<use data-text="2" xlink:href="#font_1_2" transform="matrix(8.966848,0,0,-8.966848,78.25521,116.611179)"/>
<use data-text="2" xlink:href="#font_1_2" transform="matrix(8.966848,0,0,-8.966848,95.55107,80.20936)"/>
<use data-text="&#x2212;" xlink:href="#font_2_1" transform="matrix(8.966848,0,0,-8.966848,88.382709,136.49118)"/>
<use data-text="2" xlink:href="#font_1_2" transform="matrix(8.966848,0,0,-8.966848,95.55107,136.49118)"/>
<path transform="matrix(1.00005,0,0,-1.00005,105.322559,105.66863)" stroke-width="1.19553" stroke-linecap="butt" stroke-miterlimit="10" stroke-linejoin="miter" fill="none" stroke="#000000" d="M42.5202 1.24535V-1.24535M-42.5202 1.24535V-1.24535M1.24535 42.5202H-1.24535M1.24535-42.5202H-1.24535"/>
<use data-text="3" xlink:href="#font_1_3" transform="matrix(8.966848,0,0,-8.966848,145.54056,116.611179)"/>
<use data-text="&#x2212;" xlink:href="#font_2_1" transform="matrix(8.966848,0,0,-8.966848,56.91214,116.611179)"/>
<use data-text="3" xlink:href="#font_1_3" transform="matrix(8.966848,0,0,-8.966848,64.080509,116.611179)"/>
<use data-text="3" xlink:href="#font_1_3" transform="matrix(8.966848,0,0,-8.966848,95.55107,66.03565)"/>
<use data-text="&#x2212;" xlink:href="#font_2_1" transform="matrix(8.966848,0,0,-8.966848,88.382709,150.66489)"/>
<use data-text="3" xlink:href="#font_1_3" transform="matrix(8.966848,0,0,-8.966848,95.55107,150.66489)"/>
<path transform="matrix(1.00005,0,0,-1.00005,105.322559,105.66863)" stroke-width="1.19553" stroke-linecap="butt" stroke-miterlimit="10" stroke-linejoin="miter" fill="none" stroke="#000000" d="M56.69362 1.24535V-1.24535M-56.69362 1.24535V-1.24535M1.24535 56.69362H-1.24535M1.24535-56.69362H-1.24535"/>
<use data-text="4" xlink:href="#font_1_4" transform="matrix(8.966848,0,0,-8.966848,159.71527,116.611179)"/>
<use data-text="&#x2212;" xlink:href="#font_2_1" transform="matrix(8.966848,0,0,-8.966848,42.738435,116.611179)"/>
<use data-text="4" xlink:href="#font_1_4" transform="matrix(8.966848,0,0,-8.966848,49.9068,116.611179)"/>
<use data-text="4" xlink:href="#font_1_4" transform="matrix(8.966848,0,0,-8.966848,95.55107,51.861948)"/>
<use data-text="&#x2212;" xlink:href="#font_2_1" transform="matrix(8.966848,0,0,-8.966848,88.382709,164.83959)"/>
<use data-text="4" xlink:href="#font_1_4" transform="matrix(8.966848,0,0,-8.966848,95.55107,164.83959)"/>
<path transform="matrix(1.00005,0,0,-1.00005,105.322559,105.66863)" stroke-width="1.19553" stroke-linecap="butt" stroke-miterlimit="10" stroke-linejoin="miter" fill="none" stroke="#000000" d="M70.867 1.24535V-1.24535M-70.867 1.24535V-1.24535M1.24535 70.867H-1.24535M1.24535-70.867H-1.24535"/>
<use data-text="5" xlink:href="#font_1_5" transform="matrix(8.966848,0,0,-8.966848,173.88898,116.611179)"/>
<use data-text="&#x2212;" xlink:href="#font_2_1" transform="matrix(8.966848,0,0,-8.966848,28.56372,116.611179)"/>
<use data-text="5" xlink:href="#font_1_5" transform="matrix(8.966848,0,0,-8.966848,35.732088,116.611179)"/>
<use data-text="5" xlink:href="#font_1_5" transform="matrix(8.966848,0,0,-8.966848,95.55107,37.68724)"/>
<use data-text="&#x2212;" xlink:href="#font_2_1" transform="matrix(8.966848,0,0,-8.966848,88.382709,179.0133)"/>
<use data-text="5" xlink:href="#font_1_5" transform="matrix(8.966848,0,0,-8.966848,95.55107,179.0133)"/>
<path transform="matrix(1.00005,0,0,-1.00005,105.322559,105.66863)" stroke-width="1.19553" stroke-linecap="butt" stroke-miterlimit="10" stroke-linejoin="miter" fill="none" stroke="#000000" d="M85.04042 1.24535V-1.24535M-85.04042 1.24535V-1.24535M1.24535 85.04042H-1.24535M1.24535-85.04042H-1.24535"/>
<use data-text="6" xlink:href="#font_1_6" transform="matrix(8.966848,0,0,-8.966848,188.06369,116.611179)"/>
<use data-text="&#x2212;" xlink:href="#font_2_1" transform="matrix(8.966848,0,0,-8.966848,14.390015,116.611179)"/>
<use data-text="6" xlink:href="#font_1_6" transform="matrix(8.966848,0,0,-8.966848,21.55838,116.611179)"/>
<use data-text="6" xlink:href="#font_1_6" transform="matrix(8.966848,0,0,-8.966848,95.55107,23.513527)"/>
<use data-text="&#x2212;" xlink:href="#font_2_1" transform="matrix(8.966848,0,0,-8.966848,88.382709,193.188)"/>
<use data-text="6" xlink:href="#font_1_6" transform="matrix(8.966848,0,0,-8.966848,95.55107,193.188)"/>
<path transform="matrix(1.00005,0,0,-1.00005,105.322559,105.66863)" stroke-width="1.19553" stroke-linecap="butt" stroke-miterlimit="10" stroke-linejoin="miter" fill="none" stroke="#000000" d="M99.21382 1.24535V-1.24535M-99.21382 1.24535V-1.24535M1.24535 99.21382H-1.24535M1.24535-99.21382H-1.24535"/>
<use data-text="7" xlink:href="#font_1_7" transform="matrix(8.966848,0,0,-8.966848,202.2374,116.611179)"/>
<use data-text="&#x2212;" xlink:href="#font_2_1" transform="matrix(8.966848,0,0,-8.966848,.21531677,116.611179)"/>
<use data-text="7" xlink:href="#font_1_7" transform="matrix(8.966848,0,0,-8.966848,7.3836824,116.611179)"/>
<use data-text="7" xlink:href="#font_1_7" transform="matrix(8.966848,0,0,-8.966848,95.55107,9.338821)"/>
<use data-text="&#x2212;" xlink:href="#font_2_1" transform="matrix(8.966848,0,0,-8.966848,88.382709,207.36173)"/>
<use data-text="7" xlink:href="#font_1_7" transform="matrix(8.966848,0,0,-8.966848,95.55107,207.36173)"/>
<path transform="matrix(1.00005,0,0,-1.00005,105.322559,105.66863)" stroke-width="1.19553" stroke-linecap="butt" stroke-miterlimit="10" stroke-linejoin="miter" fill="none" stroke="#000000" d="M-99.21382 0H99.67484"/>
<path transform="matrix(1.00005,0,0,-1.00005,205.00238,105.66863)" stroke-width=".9564" stroke-linecap="round" stroke-linejoin="round" fill="none" stroke="#000000" d="M-1.91284 2.55046C-1.75343 1.59402 0 .15938 .4782 0 0-.15938-1.75343-1.59402-1.91284-2.55046"/>
<use data-text="x" xlink:href="#font_3_1" transform="matrix(9.963098,0,0,-9.963098,203.11144,101.750438)"/>
<path transform="matrix(1.00005,0,0,-1.00005,105.322559,105.66863)" stroke-width="1.19553" stroke-linecap="butt" stroke-miterlimit="10" stroke-linejoin="miter" fill="none" stroke="#000000" d="M0-99.21382V99.67484"/>
<path transform="matrix(0,-1.00005,-1.00005,-0,105.322559,5.9888079)" stroke-width=".9564" stroke-linecap="round" stroke-linejoin="round" fill="none" stroke="#000000" d="M-1.91284 2.55046C-1.75343 1.59402 0 .15938 .4782 0 0-.15938-1.75343-1.59402-1.91284-2.55046"/>
<use data-text="y" xlink:href="#font_3_2" transform="matrix(9.963098,0,0,-9.963098,109.24075,6.208664)"/>
<path transform="matrix(1.00005,0,0,-1.00005,105.322559,105.66863)" stroke-width=".79701" stroke-linecap="butt" stroke-miterlimit="10" stroke-linejoin="miter" fill="none" stroke="#ff0000" d="M-41.10278 0C-41.10278 .78282-41.73738 1.4174-42.5202 1.4174-43.30302 1.4174-43.93762 .78282-43.93762 0-43.93762-.78282-43.30302-1.4174-42.5202-1.4174-41.73738-1.4174-41.10278-.78282-41.10278 0ZM-42.5202 0"/>
<path transform="matrix(1.00005,0,0,-1.00005,105.322559,105.66863)" stroke-width=".79701" stroke-linecap="butt" stroke-miterlimit="10" stroke-linejoin="miter" fill="none" stroke="#ff0000" d="M29.76422 0C29.76422 .78282 29.12962 1.4174 28.3468 1.4174 27.56398 1.4174 26.92938 .78282 26.92938 0 26.92938-.78282 27.56398-1.4174 28.3468-1.4174 29.12962-1.4174 29.76422-.78282 29.76422 0ZM28.3468 0"/>
<path transform="matrix(1.00005,0,0,-1.00005,105.322559,105.66863)" stroke-width="1.19553" stroke-linecap="butt" stroke-miterlimit="10" stroke-linejoin="miter" fill="none" stroke="#ff0000" d="M-41.10277 0H26.92937"/>
<g clip-path="url(#clip_4)">
<path transform="matrix(1.00005,0,0,-1.00005,105.322559,105.66863)" stroke-width=".79701" stroke-linecap="butt" stroke-miterlimit="10" stroke-linejoin="miter" fill="none" stroke="#0000ff" d="M-70.867 198.42766C-70.867 198.42766-70.66185 196.58367-70.58305 195.87763-70.50426 195.1716-70.37788 194.04193-70.29909 193.33905-70.2203 192.63619-70.09392 191.51148-70.01512 190.81174-69.93633 190.11202-69.80995 188.99243-69.73117 188.29589-69.65237 187.59934-69.526 186.48485-69.4472 185.79149-69.36841 185.09813-69.24203 183.9888-69.16325 183.29857-69.08446 182.60832-68.95807 181.50374-68.87927 180.81665-68.80048 180.12957-68.6741 179.03035-68.59532 178.34642-68.51653 177.66252-68.39015 176.5682-68.31136 175.88745-68.23257 175.20668-68.10619 174.11756-68.0274 173.43994-67.94861 172.76233-67.82224 171.6781-67.74344 171.00366-67.66466 170.32923-67.53827 169.25035-67.45947 168.57907-67.38068 167.90779-67.2543 166.83368-67.1755 166.16551-67.09673 165.49735-66.97035 164.42839-66.89156 163.76342-66.81276 163.09844-66.68639 162.03456-66.6076 161.37277-66.52881 160.71097-66.40242 159.65225-66.32362 158.99359-66.24483 158.33495-66.11845 157.28116-66.03967 156.62567-65.96088 155.97019-65.8345 154.92154-65.7557 154.2692-65.67691 153.61685-65.55054 152.57318-65.47176 151.92398-65.39296 151.2748-65.26657 150.23627-65.18777 149.59023-65.109 148.94417-64.9826 147.9106-64.90382 147.26772-64.82503 146.62482-64.69865 145.59638-64.61986 144.95667-64.54108 144.31696-64.4147 143.2936-64.3359 142.65708-64.25711 142.02054-64.13074 141.00232-64.05194 140.36894-63.97316 139.73557-63.84677 138.72232-63.76797 138.09206-63.68918 137.46179-63.5628 136.45354-63.48402 135.82643-63.40523 135.19933-63.27885 134.19618-63.20006 133.57225-63.12126 132.94834-62.99489 131.95029-62.9161 131.32955-62.83731 130.70879-62.71092 129.71591-62.63213 129.09832-62.55333 128.48072-62.42696 127.49278-62.34818 126.8783-62.26938 126.26382-62.143 125.28084-62.06421 124.66954-61.98543 124.05824-61.85904 123.08063-61.78026 122.47247-61.70146 121.86432-61.57509 120.89142-61.49629 120.28642-61.41751 119.68143-61.29112 118.71387-61.21233 118.11205-61.13353 117.51024-61.00716 116.54759-60.92836 115.94893-60.84958 115.35027-60.7232 114.39278-60.64441 113.79727-60.56561 113.20175-60.43924 112.2492-60.36046 111.65685-60.28166 111.06448-60.15527 110.11713-60.07648 109.52791-59.99768 108.93869-59.8713 107.99623-59.79253 107.41019-59.71373 106.82417-59.58736 105.88705-59.50856 105.30417-59.42976 104.72128-59.30339 103.7889-59.22461 103.20917-59.14581 102.62944-59.01944 101.7024-58.94064 101.12585-58.86186 100.5493-58.73546 99.62721-58.65668 99.05377-58.57788 98.48035-58.4515 97.5632-58.37271 96.99295-58.29393 96.4227-58.16756 95.51091-58.08876 94.94382-58.00996 94.37672-57.88359 93.46964-57.8048 92.90569-57.72601 92.34174-57.59962 91.44002-57.52083 90.87924-57.44203 90.31848-57.31566 89.42169-57.23688 88.86406-57.15808 88.3064-57.03171 87.41457-56.95291 86.86009-56.87411 86.30563-56.74774 85.41911-56.66896 84.86783-56.59016 84.31654-56.46378 83.43497-56.38498 82.88681-56.30618 82.33865-56.17981 81.46204-56.10103 80.91702-56.02223 80.37201-55.89586 79.50055-55.81706 78.95872-55.73828 78.41689-55.6119 77.55054-55.53311 77.01186-55.45432 76.47318-55.32794 75.61177-55.24915 75.07625-55.17036 74.54073-55.04398 73.68445-54.96518 73.15211-54.88638 72.61975-54.76001 71.76863-54.68121 71.23943-54.60243 70.71024-54.47606 69.86404-54.39726 69.338-54.31847 68.81195-54.1921 67.97092-54.11331 67.44801-54.03452 66.92513-53.90813 66.08904-53.82933 65.56929-53.75053 65.04953-53.62416 64.21858-53.54538 63.70201-53.46658 63.18546-53.34021 62.35963-53.26141 61.84622-53.18262 61.3328-53.05624 60.51192-52.97746 60.00165-52.89867 59.4914-52.7723 58.67567-52.6935 58.16855-52.61472 57.66145-52.48831 56.85066-52.40953 56.34671-52.33073 55.84274-52.20436 55.0371-52.12556 54.53632-52.04678 54.03554-51.92041 53.23503-51.84161 52.73738-51.76282 52.23976-51.63644 51.4442-51.55765 50.9497-51.47887 50.45523-51.35248 49.66483-51.27368 49.1735-51.19489 48.68217-51.06851 47.89671-50.98973 47.40854-50.91093 46.92035-50.78456 46.14001-50.70576 45.65501-50.62697 45.17003-50.5006 44.39482-50.42181 43.91298-50.34302 43.43112-50.21663 42.66086-50.13783 42.18217-50.05904 41.70348-49.93266 40.93835-49.85388 40.46284-49.77509 39.98732-49.64871 39.22731-49.56992 38.75496-49.49113 38.2826-49.36475 37.52754-49.28596 37.05832-49.20717 36.5891-49.0808 35.83922-49.002 35.37315-48.92322 34.90709-48.79683 34.16216-48.71803 33.69923-48.63924 33.23633-48.51286 32.4965-48.43407 32.03677-48.35529 31.57704-48.22891 30.84236-48.15012 30.38579-48.07132 29.92918-47.94495 29.19945-47.86617 28.74602-47.78737 28.29259-47.66098 27.56802-47.58218 27.11774-47.50339 26.66745-47.37701 25.94783-47.29823 25.50069-47.21944 25.05357-47.09306 24.33907-47.01427 23.89511-46.93547 23.45116-46.8091 22.74179-46.73032 22.301-46.65152 21.8602-46.52515 21.15576-46.44635 20.71811-46.36757 20.28047-46.24117 19.58118-46.16238 19.14671-46.08359 18.71225-45.95721 18.01808-45.87842 17.58676-45.79964 17.15544-45.67326 16.46623-45.59447 16.03807-45.51567 15.6099-45.3893 14.92584-45.3105 14.50082-45.23172 14.0758-45.10533 13.39668-45.02654 12.97482-44.94774 12.55296-44.82137 11.87901-44.74258 11.4603-44.66379 11.04158-44.53741 10.37257-44.45862 9.95702-44.37982 9.54146-44.25345 8.87756-44.17467 8.46518-44.09587 8.0528-43.9695 7.39403-43.8907 6.98483-43.8119 6.57562-43.68552 5.92198-43.60674 5.51593-43.52794 5.10988-43.40157 4.4612-43.32277 4.05827-43.24399 3.65533-43.1176 3.01164-43.03882 2.61186-42.96002 2.21208-42.83365 1.57352-42.75485 1.17691-42.67607 .78032-42.54968 .14687-42.47089-.24654-42.39209-.63995-42.26572-1.2683-42.18692-1.65855-42.10814-2.04883-41.98177-2.67218-41.90297-3.05933-41.82417-3.44647-41.6978-4.0649-41.61902-4.44885-41.54022-4.83282-41.41383-5.44592-41.33504-5.82669-41.25624-6.20749-41.12987-6.81564-41.05109-7.19331-40.97229-7.57097-40.84592-8.17416-40.76712-8.54868-40.68832-8.92319-40.56195-9.52124-40.48317-9.89256-40.40437-10.2639-40.278-10.85681-40.1992-11.22499-40.12042-11.59317-39.99402-12.18115-39.91524-12.54619-39.83644-12.91121-39.71007-13.49406-39.63127-13.85591-39.55249-14.21776-39.42612-14.79547-39.34732-15.15417-39.26852-15.51286-39.14215-16.08563-39.06335-16.4412-38.98457-16.79674-38.85818-17.36435-38.77939-17.71674-38.70059-18.06914-38.57422-18.63179-38.49544-18.98105-38.41664-19.33029-38.29027-19.88783-38.21147-20.2339-38.13268-20.57996-38.0063-21.13235-37.92752-21.47528-37.84872-21.81819-37.72235-22.36566-37.64355-22.70543-37.56476-23.04518-37.43837-23.58748-37.35959-23.92409-37.28079-24.26071-37.15442-24.79807-37.07562-25.13152-36.99684-25.465-36.87045-25.9972-36.79167-26.3275-36.71288-26.65778-36.5865-27.18488-36.5077-27.512-36.42892-27.83913-36.30254-28.36127-36.22374-28.68526-36.14494-29.00923-36.01857-29.52625-35.93977-29.84706-35.861-30.16785-35.73462-30.67973-35.65582-30.99739-35.57703-31.31503-35.45065-31.82195-35.37187-32.13647-35.29308-32.451-35.1667-32.95297-35.0879-33.26433-35.00911-33.57567-34.88272-34.07233-34.80394-34.38048-34.72514-34.68866-34.59877-35.18036-34.51997-35.48541-34.44118-35.79045-34.3148-36.27718-34.23602-36.57907-34.15723-36.88097-34.03085-37.36256-33.95206-37.66129-33.87328-37.96-33.74687-38.4365-33.66809-38.73204-33.5893-39.02756-33.46292-39.49893-33.38412-39.79132-33.30534-40.08371-33.17897-40.5501-33.10017-40.83936-33.02138-41.12863-32.895-41.59007-32.81621-41.87616-32.73743-42.16222-32.61104-42.61833-32.53224-42.90126-32.45345-43.18419-32.32707-43.63557-32.24829-43.91534-32.1695-44.19514-32.04312-44.64116-31.96432-44.91777-31.88553-45.19437-31.75916-45.63548-31.68037-45.90892-31.60158-46.18237-31.4752-46.61832-31.39641-46.88861-31.31761-47.15892-31.19122-47.58992-31.11244-47.85707-31.03365-48.1242-30.90727-48.55006-30.82848-48.81406-30.7497-49.07806-30.6233-49.49896-30.54453-49.75981-30.46573-50.02065-30.33936-50.43642-30.26056-50.69409-30.18178-50.95175-30.05539-51.3624-29.9766-51.61691-29.8978-51.87143-29.77142-52.27711-29.69263-52.52849-29.61385-52.77985-29.48747-53.1804-29.40868-53.42859-29.32988-53.67677-29.2035-54.07222-29.12473-54.31725-29.04593-54.56229-28.91956-54.95277-28.84076-55.19466-28.76196-55.43652-28.63557-55.82185-28.5568-56.0606-28.478-56.29932-28.35162-56.6797-28.27283-56.91528-28.19403-57.15086-28.06766-57.52612-27.98888-57.75851-27.91008-57.99092-27.7837-58.36104-27.70491-58.59029-27.62613-58.81953-27.49973-59.18471-27.42094-59.41081-27.34215-59.63692-27.21577-59.99693-27.13698-60.21986-27.0582-60.44281-26.93182-60.79791-26.85303-61.0177-26.77423-61.23746-26.64786-61.5872-26.56906-61.80382-26.49028-62.02043-26.36389-62.36543-26.2851-62.57893-26.2063-62.79243-26.07993-63.13228-26.00114-63.34258-25.92235-63.5529-25.79597-63.88763-25.71718-64.09476-25.63838-64.3019-25.51201-64.6315-25.43323-64.8355-25.35443-65.03947-25.22806-65.36412-25.14926-65.56496-25.07047-65.7658-24.94408-66.08528-24.8653-66.28297-24.7865-66.48065-24.66013-66.79521-24.58133-66.98975-24.50255-67.18427-24.37616-67.49368-24.29738-67.68504-24.21858-67.87639-24.09221-68.18068-24.01341-68.36888-23.93463-68.55708-23.80824-68.85645-23.72945-69.04147-23.65065-69.22653-23.52428-69.52072-23.44548-69.70262-23.3667-69.88452-23.24033-70.17375-23.16153-70.3525-23.08273-70.53125-22.95636-70.81537-22.87758-70.99094-22.79878-71.1665-22.67241-71.44548-22.59361-71.61789-22.51482-71.7903-22.38843-72.06435-22.30965-72.23361-22.23085-72.40288-22.10448-72.67175-22.02568-72.83788-21.94688-73.00398-21.82051-73.26791-21.74173-73.43088-21.66293-73.59384-21.53656-73.85265-21.45776-74.01242-21.37898-74.17221-21.25258-74.42589-21.1738-74.5825-21.095-74.73915-20.96863-74.98787-20.88983-75.14134-20.81105-75.29483-20.68468-75.53842-20.60588-75.68872-20.52708-75.83904-20.40071-76.07748-20.32191-76.22464-20.24313-76.37178-20.11676-76.60532-20.03796-76.74931-19.95917-76.89331-19.83278-77.12166-19.754-77.26251-19.6752-77.40335-19.54883-77.62679-19.47003-77.76448-19.39124-77.90218-19.26486-78.12044-19.18608-78.25497-19.10728-78.38953-18.98091-78.60286-18.90211-78.73424-18.82332-78.86559-18.69693-79.07358-18.61815-79.2018-18.53935-79.33002-18.41298-79.53328-18.33418-79.65834-18.2554-79.78342-18.12901-79.98132-18.05023-80.10321-17.97144-80.22508-17.84506-80.41806-17.76627-80.53683-17.68748-80.6556-17.5611-80.84363-17.4823-80.95921-17.4035-81.07478-17.27713-81.2575-17.19833-81.3699-17.11955-81.48232-16.99318-81.66006-16.91438-81.76935-16.83559-81.87862-16.70921-82.0514-16.63043-82.15755-16.55164-82.26367-16.42526-82.43134-16.34647-82.53429-16.26767-82.63724-16.14128-82.79977-16.0625-82.89957-15.9837-82.99937-15.85733-83.15695-15.77853-83.2536-15.69974-83.35025-15.57336-83.50267-15.49458-83.59618-15.41579-83.68967-15.28941-83.83719-15.21062-83.9275-15.13184-84.01782-15.00543-84.15997-14.92665-84.24713-14.84785-84.3343-14.72148-84.47174-14.64268-84.55576-14.5639-84.63977-14.43753-84.77187-14.35873-84.85269-14.27994-84.93353-14.15356-85.06067-14.07477-85.13838-13.99599-85.2161-13.86961-85.33826-13.79082-85.41283-13.71202-85.4874-13.58563-85.60443-13.50685-85.67581-13.42805-85.7472-13.30168-85.85913-13.22289-85.92734-13.14409-85.99553-13.01772-86.10234-12.93893-86.16739-12.86014-86.23244-12.73376-86.33427-12.65497-86.39621-12.57617-86.45815-12.44978-86.55502-12.371-86.61377-12.2922-86.67252-12.16583-86.76405-12.08704-86.81966-12.00826-86.87526-11.88187-86.96207-11.80309-87.01453-11.72429-87.06697-11.59792-87.14844-11.51912-87.19771-11.44034-87.24698-11.31396-87.32352-11.23517-87.36964-11.15637-87.41574-11.02998-87.48714-10.95119-87.53009-10.8724-87.57307-10.74603-87.63953-10.66724-87.67934-10.58844-87.71915-10.46207-87.78043-10.38329-87.8171-10.30449-87.85376-10.17812-87.91013-10.09932-87.9436-10.02052-87.9771-9.89413-88.0281-9.81535-88.05846-9.73656-88.08879-9.61018-88.13507-9.53139-88.16226-9.45259-88.18944-9.32622-88.2304-9.24744-88.2544-9.16864-88.2784-9.04227-88.31439-8.96347-88.33527-8.88469-88.35616-8.75829-88.38718-8.6795-88.4049-8.60071-88.42265-8.47433-88.44853-8.39554-88.46309-8.31676-88.47763-8.19038-88.49843-8.11159-88.5098-8.03279-88.52118-7.90642-88.53683-7.82762-88.54506-7.74884-88.55327-7.62247-88.56395-7.54367-88.56906-7.46487-88.57416-7.33849-88.5799-7.2597-88.58182-7.18091-88.58372-7.05453-88.58412-6.97574-88.58289-6.89694-88.58168-6.77057-88.57733-6.69179-88.57295-6.61299-88.56857-6.48662-88.55887-6.40782-88.55132-6.32903-88.54376-6.20264-88.52917-6.12386-88.51845-6.04506-88.50775-5.91869-88.48798-5.83989-88.47412-5.76111-88.46027-5.63472-88.43555-5.55594-88.41853-5.47714-88.40152-5.35077-88.37164-5.27197-88.35149-5.19319-88.33133-5.06682-88.29655-4.98802-88.2732-4.90923-88.24986-4.78284-88.20973-4.70404-88.18323-4.62526-88.15675-4.49889-88.11188-4.42009-88.08223-4.3413-88.05258-4.21492-88.00238-4.13614-87.96956-4.05734-87.93674-3.93097-87.88158-3.85217-87.84564-3.77338-87.8097-3.64699-87.74957-3.5682-87.71046-3.48941-87.67139-3.36304-87.60612-3.28424-87.56384-3.20544-87.52156-3.07907-87.4512-3.00029-87.40575-2.9215-87.36029-2.79512-87.28479-2.71632-87.23619-2.63754-87.18758-2.51115-87.10712-2.43237-87.0554-2.35358-87.00366-2.22719-86.91826-2.14839-86.86336-2.06961-86.80844-1.94324-86.71767-1.86444-86.65962-1.78564-86.60156-1.65927-86.50607-1.58047-86.44487-1.5017-86.38365-1.37532-86.28282-1.29652-86.21844-1.21773-86.15404-1.09134-86.0483-1.01256-85.98076-.93376-85.91321-.80739-85.80229-.72859-85.73161-.6498-85.66092-.52342-85.54506-.44464-85.47122-.36584-85.39738-.23947-85.27635-.16068-85.19937-.08188-85.12238 .04448-84.99646 .12326-84.91628 .20206-84.8361 .32843-84.70483 .40723-84.6215 .48601-84.53818 .6124-84.40216 .69118-84.3157 .76997-84.22922 .89635-84.08786 .97514-83.99821 1.05392-83.90855 1.1803-83.76227 1.2591-83.6695 1.33789-83.57672 1.46428-83.42548 1.54308-83.32951 1.62186-83.23357 1.74823-83.07697 1.82703-82.97786 1.90582-82.87875 2.0322-82.71742 2.11098-82.61517 2.18977-82.51291 2.31615-82.34625 2.39494-82.24081 2.47374-82.13538 2.60013-81.96378 2.67891-81.8552 2.7577-81.74664 2.88408-81.5701 2.96288-81.45834 3.04167-81.34662 3.16805-81.16473 3.24683-81.0498 3.32562-80.9349 3.452-80.74808 3.53079-80.63004 3.60957-80.512 3.73596-80.3202 3.81474-80.19902 3.89354-80.0778 4.01993-79.8809 4.09872-79.75653 4.1775-79.63216 4.30388-79.4301 4.38268-79.30258 4.46147-79.17506 4.58784-78.96806 4.66664-78.83739 4.74542-78.70671 4.8718-78.49458 4.95059-78.36073 5.02939-78.22687 5.15578-78.00961 5.23456-77.87262 5.31335-77.7356 5.43973-77.51341 5.51852-77.37325 5.59732-77.23308 5.7237-77.00572 5.80247-76.86241 5.88127-76.7191 6.00764-76.4868 6.08644-76.34035 6.16524-76.1939 6.29163-75.95642 6.3704-75.80682 6.4492-75.6572 6.57558-75.41483 6.65437-75.26202 6.73315-75.10922 6.85954-74.86151 6.93832-74.70557 7.01712-74.54962 7.1435-74.29716 7.22229-74.13808 7.30107-73.97899 7.42744-73.72118 7.50624-73.55891 7.58504-73.39664 7.71143-73.13393 7.79022-72.9685 7.869-72.80307 7.99538-72.5352 8.07417-72.36662 8.15297-72.19804 8.27934-71.92522 8.35812-71.7535 8.43692-71.58176 8.5633-71.30379 8.64209-71.1289 8.72089-70.95404 8.84727-70.67111 8.92606-70.49309 9.00485-70.31506 9.13123-70.027 9.21002-69.84578 9.28882-69.66458 9.41519-69.3714 9.49397-69.18704 9.57277-69.00267 9.69914-68.70454 9.77794-68.51703 9.85672-68.32953 9.98311-68.02626 10.06189-67.83557 10.14069-67.64487 10.26707-67.33649 10.34587-67.14264 10.42465-66.9488 10.55103-66.63547 10.62982-66.43848 10.70862-66.24147 10.83499-65.92297 10.91379-65.72284 10.99257-65.52269 11.11894-65.19925 11.19774-64.99596 11.27654-64.79266 11.40292-64.46408 11.4817-64.25761 11.5605-64.05115 11.68687-63.71744 11.76567-63.50781 11.84447-63.29819 11.97084-62.95953 12.04962-62.74675 12.12842-62.53398 12.25479-62.19017 12.33359-61.97424 12.41238-61.75832 12.53876-61.40956 12.61754-61.19048 12.69633-60.9714 12.82272-60.61754 12.90152-60.39526 12.9803-60.173 13.10669-59.81398 13.18547-59.5886 13.26427-59.36317 13.39064-58.99922 13.46944-58.77066 13.54822-58.5421 13.67459-58.17299 13.75339-57.94125 13.83218-57.70952 13.95857-57.3353 14.03737-57.1004 14.11615-56.86551 14.24252-56.48631 14.32132-56.2483 14.40012-56.0103 14.52649-55.62616 14.60527-55.38496 14.68407-55.14377 14.81044-54.75432 14.88924-54.50993 14.96803-54.26556 15.09442-53.87117 15.1732-53.62366 15.252-53.37617 15.37837-52.97679 15.45717-52.72615 15.53596-52.47551 15.66234-52.071 15.74112-51.81717 15.81992-51.56334 15.94629-51.1537 16.02509-50.89673 16.10387-50.63976 16.23026-50.22517 16.30904-49.96504 16.38783-49.70491 16.51422-49.2852 16.59302-49.02188 16.6718-48.75859 16.79817-48.33374 16.87697-48.06728 16.95576-47.80083 17.08214-47.37103 17.16093-47.10143 17.23972-46.83182 17.36609-46.3969 17.44489-46.1241 17.52368-45.85132 17.65007-45.41127 17.72885-45.13531 17.80765-44.85939 17.93402-44.41437 18.01282-44.1353 18.09161-43.85625 18.21799-43.40627 18.29677-43.12402 18.37556-42.84178 18.50194-42.38647 18.58073-42.10106 18.65953-41.81567 18.7859-41.35564 18.86469-41.0671 18.94348-40.77855 19.06987-40.31316 19.14867-40.02144 19.22745-39.7297 19.35384-39.25938 19.43262-38.96452 19.51141-38.66965 19.63779-38.19417 19.71658-37.89615 19.79536-37.59811 19.92174-37.1177 20.00053-36.81654 20.07933-36.51535 20.20572-36.02982 20.28452-35.72546 20.3633-35.4211 20.48967-34.93044 20.56847-34.62292 20.64726-34.31541 20.77364-33.81976 20.85242-33.50914 20.93121-33.1985 21.05759-32.6979 21.13638-32.3841 21.21518-32.0703 21.34155-31.56439 21.42033-31.2474 21.49913-30.9304 21.62552-30.41954 21.70432-30.09944 21.78311-29.77933 21.90948-29.26353 21.98827-28.94025 22.06706-28.61694 22.19344-28.09583 22.27223-27.76935 22.35101-27.44289 22.4774-26.91682 22.55618-26.58723 22.63498-26.25764 22.76137-25.72661 22.84016-25.39386 22.91895-25.06113 23.04532-24.52495 23.12411-24.18903 23.20291-23.8531 23.32928-23.3118 23.40808-22.97272 23.48686-22.63365 23.61324-22.08742 23.69203-21.7452 23.77083-21.40297 23.89722-20.85156 23.976-20.50618 24.0548-20.16081 24.18117-19.60445 24.25996-19.25592 24.33876-18.9074 24.46513-18.34592 24.54391-17.99422 24.62271-17.64252 24.74908-17.07593 24.82788-16.72104 24.90668-16.36615 25.03305-15.7944 25.11183-15.4364 25.19063-15.0784 25.31702-14.50189 25.39581-14.14073 25.4746-13.77957 25.60098-13.19772 25.67976-12.83337 25.75856-12.46906 25.88493-11.88228 25.96373-11.51479 26.04251-11.1473 26.16888-10.55537 26.24768-10.18474 26.32648-9.8141 26.45287-9.21724 26.53166-8.84344 26.61044-8.46965 26.73682-7.86766 26.81561-7.49068 26.89441-7.11371 27.02078-6.50658 27.09956-6.12645 27.17836-5.74632 27.30473-5.13425 27.38353-4.75098 27.46233-4.3677 27.5887-3.75047 27.66748-3.36406 27.74628-2.97762 27.87267-2.35548 27.95146-1.96587 28.03026-1.57626 28.15663-.94878 28.23541-.55602 28.31421-.16327 28.44058 .46898 28.51938 .86485 28.59816 1.26073 28.72455 1.89815 28.80333 2.2972 28.88213 2.69626 29.00851 3.33878 29.08731 3.741 29.16609 4.14325 29.29247 4.7909 29.37126 5.19629 29.45006 5.60168 29.57643 6.25427 29.65523 6.66281 29.73401 7.07135 29.86038 7.7291 29.93918 8.1408 30.01797 8.55247 30.14436 9.21518 30.22314 9.63 30.30194 10.04485 30.42831 10.71268 30.50711 11.13069 30.5859 11.54872 30.71228 12.22168 30.79106 12.64285 30.86986 13.06403 30.99623 13.74193 31.07503 14.16626 31.15382 14.59058 31.2802 15.27365 31.35898 15.70111 31.43777 16.12859 31.56416 16.81659 31.64296 17.24721 31.72174 17.67784 31.84813 18.37099 31.92691 18.8048 32.0057 19.2386 32.13208 19.93687 32.21088 20.37383 32.28966 20.81079 32.41603 21.51399 32.49483 21.9541 32.57362 22.39421 32.70001 23.10257 32.77881 23.54584 32.85759 23.98909 32.98396 24.70242 33.06276 25.14882 33.14156 25.59523 33.26793 26.31369 33.34671 26.76328 33.4255 27.21288 33.55188 27.93645 33.63068 28.38919 33.70947 28.84192 33.83585 29.57045 33.91463 30.02635 33.99342 30.48224 34.11981 31.21588 34.19861 31.67496 34.2774 32.13402 34.40378 32.87282 34.48256 33.33504 34.56136 33.79726 34.68773 34.54103 34.76653 35.00636 34.8453 35.47171 34.9717 36.22041 35.05048 36.68893 35.12927 37.15746 35.25566 37.9115 35.33446 38.3832 35.41324 38.85489 35.53961 39.61386 35.61841 40.08868 35.6972 40.5635 35.82358 41.32745 35.90237 41.80544 35.98116 42.28342 36.10753 43.05247 36.18633 43.53365 36.26512 44.0148 36.3915 44.78897 36.47028 45.27332 36.54907 45.75764 36.67546 46.53694 36.75426 47.02444 36.83305 47.51192 36.95943 48.2962 37.03821 48.7868 37.117 49.27742 37.24338 50.06668 37.32217 50.56044 37.40097 51.0542 37.52734 51.84857 37.60612 52.3455 37.68492 52.84245 37.81131 53.64194 37.8901 54.14206 37.96889 54.64218 38.09528 55.44681 38.17406 55.95007 38.25285 56.45334 38.37923 57.26292 38.45802 57.76932 38.5368 58.27571 38.66318 59.09026 38.74197 59.59982 38.82077 60.1094 38.94716 60.92924 39.02596 61.44202 39.10474 61.95476 39.23111 62.77956 39.3099 63.29544 39.3887 63.81131 39.51508 64.64108 39.59386 65.16011 39.67265 65.67914 39.79903 66.51402 39.87782 67.03624 39.95662 67.55844 40.083 68.39848 40.16177 68.92383 40.24057 69.4492 40.36696 70.29417 40.44576 70.82268 40.52455 71.35118 40.65092 72.2013 40.7297 72.73297 40.8085 73.26466 40.93488 74.11992 41.01367 74.65475 41.09245 75.18959 41.21884 76.04976 41.29762 76.58775 41.37642 77.12573 41.5028 77.99109 41.5816 78.53223 41.66039 79.07336 41.78676 79.94365 41.86555 80.48795 41.94435 81.03224 42.07072 81.90765 42.14952 82.45512 42.2283 83.00261 42.35468 83.88316 42.43347 84.43379 42.51227 84.9844 42.63864 85.8699 42.71742 86.42366 42.79622 86.97745 42.9226 87.86807 43.0014 88.42502 43.0802 88.98198 43.20657 89.87773 43.28535 90.43784 43.36415 90.99796 43.49052 91.89867 43.56932 92.4619 43.64812 93.02513 43.77449 93.9308 43.85327 94.49721 43.93207 95.06361 44.05846 95.97464 44.13725 96.5442 44.21603 97.11375 44.34242 98.0295 44.4212 98.60222 44.5 99.17491 44.62637 100.09602 44.70517 100.6719 44.78395 101.2478 44.91032 102.17381 44.98912 102.75284 45.06792 103.33188 45.19429 104.26305 45.27309 104.84525 45.35187 105.42743 45.47826 106.36356 45.55705 106.94888 45.63585 107.53424 45.76222 108.4755 45.841 109.064 45.9198 109.65253 46.04617 110.5989 46.12497 111.19058 46.20377 111.78226 46.33014 112.73358 46.40892 113.3284 46.48772 113.92322 46.6141 114.8797 46.6929 115.47769 46.7717 116.07565 46.89807 117.0371 46.97685 117.63821 47.05565 118.23933 47.18202 119.2059 47.26082 119.81021 47.3396 120.4145 47.46599 121.3862 47.54477 121.99365 47.62357 122.6011 47.74995 123.57774 47.82875 124.18834 47.90753 124.79897 48.0339 125.78075 48.1127 126.3945 48.1915 127.00827 48.31787 127.995 48.39667 128.61191 48.47545 129.22882 48.60182 130.22069 48.68062 130.84078 48.75941 131.46086 48.88579 132.45787 48.96457 133.0811 49.04337 133.70436 49.16975 134.7063 49.24855 135.33269 49.32735 135.95909 49.45372 136.96616 49.5325 137.59574 49.6113 138.2253 49.73767 139.23752 49.81647 139.87024 49.89526 140.50296 50.02164 141.52011 50.10042 142.15598 50.17921 142.79186 50.3056 143.81417 50.3844 144.45319 50.46318 145.09221 50.58957 146.11946 50.66835 146.76165 50.74715 147.40383 50.87352 148.4362 50.95232 149.08156 51.0311 149.72692 51.15747 150.76444 51.23627 151.41295 51.31506 152.06145 51.44144 153.10391 51.52023 153.75557 51.59901 154.40721 51.7254 155.45485 51.8042 156.10965 51.883 156.76447 52.00937 157.81702 52.08815 158.47498 52.16695 159.13294 52.29332 160.19065 52.37212 160.85178 52.45091 161.51293 52.57729 162.57576 52.65607 163.24004 52.73486 163.90433 52.86125 164.9721 52.94005 165.63954 53.01884 166.30699 53.14522 167.37992 53.224 168.0505 53.3028 168.7211 53.42917 169.79898 53.50797 170.47274 53.58675 171.14647 53.71313 172.22948 53.79192 172.9064 53.87071 173.58333 53.99709 174.67145 54.07588 175.35153 54.15466 176.0316 54.28105 177.12471 54.35985 177.80792 54.43864 178.49115 54.56502 179.58936 54.64381 180.27577 54.7226 180.96218 54.84897 182.0655 54.92776 182.75508 55.00656 183.44463 55.13293 184.55292 55.21172 185.24564 55.29051 185.93834 55.4169 187.05179 55.4957 187.74765 55.5745 188.4435 55.70087 189.5619 55.77965 190.2609 55.85844 190.95992 55.98482 192.08344 56.06361 192.78563 56.14241 193.48781 56.26878 194.61649 56.34756 195.32183 56.42636 196.02716 56.55275 197.16075 56.63155 197.86925 56.71033 198.57773 56.83672 199.7165 56.9155 200.42813 56.9943 201.13979 57.12067 202.2835 57.19946 202.99829 57.27824 203.71308 57.40462 204.86191 57.48341 205.5799 57.56221 206.29787 57.68858 207.45183 57.76738 208.17295 57.84616 208.89408 57.97255 210.053 58.05135 210.77727 58.13014 211.50154 58.25652 212.6656 58.3353 213.39304 58.4141 214.12046 58.54047 215.28949 58.61926 216.02007 58.69806 216.75064 58.82443 217.92478 58.90321 218.65853 58.98201 219.39229 59.1084 220.57158 59.1872 221.30847 59.26599 222.0454 59.39236 223.22962 59.47115 223.96968 59.54994 224.70972 59.67632 225.89908 59.75511 226.64232 59.8339 227.38556 59.96028 228.58007 60.03906 229.32645 60.11786 230.07283 60.24423 231.27225 60.32303 232.0218 60.40181 232.77133 60.5282 233.97594 60.607 234.72863 60.68579 235.48131 60.81216 236.69084 60.89096 237.44669 60.96974 238.20253 61.09612 239.41719 61.17491 240.17621 61.25371 240.93524 61.38008 242.15505 61.45886 242.9172 61.53766 243.6794 61.66405 244.90415 61.74284 245.66945 61.82164 246.43479 61.94801 247.66468 62.0268 248.43315 62.10559 249.20163 62.23196 250.4365 62.31076 251.20812 62.38956 251.97974 62.51593 253.21971 62.59471 253.9945 62.67351 254.76932 62.7999 256.01445 62.8787 256.7924 62.95747 257.57035 63.08386 258.8204 63.16264 259.6015 63.24144 260.3826 63.36781 261.63783 63.44661 262.42207 63.52539 263.20634 63.65176 264.4665 63.73056 265.2539 63.80936 266.04133 63.93573 267.3066 64.01453 268.0972 64.0933 268.8878 64.2197 270.15824 64.2985 270.95195 64.37729 271.7457 64.50366 273.02107 64.58244 273.81797 64.66124 274.61485 64.78761 275.89533 64.86641 276.6954 64.9452 277.49549 65.07158 278.7811 65.15036 279.58433 65.22916 280.38755 65.35555 281.67814 65.43434 282.4845 65.51314 283.29087 65.63951 284.5866 65.71829 285.39613 65.79709 286.20564 65.92346 287.50633 66.00226 288.319 66.08104 289.13169 66.20743 290.43748 66.28621 291.25334 66.365 292.06919 66.49138 293.38014 66.57018 294.19914 66.64896 295.01814 66.77534 296.334 66.85414 297.15617 66.93294 297.97834 67.05931 299.2994 67.1381 300.1247 67.21689 300.95 67.34326 302.276 67.42206 303.10447 67.50085 303.9329 67.62723 305.264 67.70601 306.09568 67.7848 306.92729 67.9112 308.26356 67.98999 309.09834 68.06879 309.9331 68.19516 311.27433 68.27394 312.11228 68.35274 312.9502 68.47911 314.29658 68.5579 315.13768 68.6367 315.97874 68.76308 317.33003 68.84186 318.1743 68.92065 319.01856 69.04703 320.37519 69.12582 321.2226 69.2046 322.07 69.33101 323.43135 69.40979 324.28196 69.48859 325.1325 69.61496 326.4992 69.69376 327.35295 69.77254 328.2067 69.89891 329.57835 69.9777 330.43525 70.0565 331.2921 70.18288 332.66874 70.26167 333.52873 70.34045 334.38877 70.46684 335.7705 70.54564 336.6337 70.62444 337.49693 70.82959 339.75016 70.82959 339.75016"/>
</g>
</svg>
