<svg xmlns="http://www.w3.org/2000/svg" xmlns:xlink="http://www.w3.org/1999/xlink" version="1.1" width="292" height="154" viewBox="0 0 292 154">
<defs>
<path id="font_1_1" d="M.33399964 .30233766C.33999635 .32835389 .36299134 .42037965 .43299867 .42037965 .43798829 .42037965 .46199037 .42037965 .48298646 .40734864 .45498658 .402359 .43499757 .37734986 .43499757 .35334779 .43499757 .33735658 .44599916 .31835938 .47299195 .31835938 .49499513 .31835938 .5269928 .3363495 .5269928 .37635804 .5269928 .42837525 .46798707 .4423828 .43399049 .4423828 .37599183 .4423828 .34098817 .38935853 .32899476 .36634828 .3039856 .43237306 .25 .4423828 .22099304 .4423828 .116989139 .4423828 .05999756 .3133545 .05999756 .28834535 .05999756 .27833558 .069992069 .27833558 .07199097 .27833558 .07998657 .27833558 .08299255 .28033448 .084991458 .28933717 .11898804 .39535523 .18499756 .42037965 .21899414 .42037965 .23799134 .42037965 .272995 .4113617 .272995 .35334779 .272995 .32235719 .2559967 .25532533 .21899414 .11528015 .20298767 .053268434 .16799927 .011245728 .12399292 .011245728 .117996219 .011245728 .09498596 .011245728 .07398987 .024276734 .09899902 .029266358 .12098694 .05027771 .12098694 .07827759 .12098694 .105270389 .09899902 .11328125 .083999637 .11328125 .053985597 .11328125 .0289917 .08728027 .0289917 .055267335 .0289917 .009246826 .07899475-.0107421879 .12298584-.0107421879 .18899536-.0107421879 .22499085 .059280397 .22799683 .0652771 .23999024 .028274537 .27598573-.0107421879 .33599855-.0107421879 .43899537-.0107421879 .49598695 .118270877 .49598695 .14328003 .49598695 .1532898 .4869995 .1532898 .48399354 .1532898 .47499085 .1532898 .47299195 .14929199 .47099305 .14228821 .43798829 .03527832 .36999513 .011245728 .33799745 .011245728 .29899598 .011245728 .2829895 .043273927 .2829895 .07727051 .2829895 .09927368 .2889862 .121276859 .2999878 .16529846L.33399964 .30233766Z"/>
<path id="font_1_2" d="M.48599244 .38136292C.48999024 .39537049 .48999024 .39736939 .48999024 .40437318 .48999024 .42237855 .47599793 .43138124 .46099855 .43138124 .45098878 .43138124 .43499757 .42536927 .42599488 .41036988 .42399598 .405365 .41600038 .37435914 .4119873 .35635377 .40499879 .33035279 .397995 .30334474 .3919983 .27633668L.34700013 .09628296C.34298707 .08126831 .2999878 .011245728 .23399353 .011245728 .18299866 .011245728 .17199707 .055267335 .17199707 .0922699 .17199707 .1382904 .18899536 .20030213 .22299195 .28833009 .23899842 .3293457 .24299622 .3403473 .24299622 .36035157 .24299622 .405365 .21099854 .4423828 .16099549 .4423828 .06599426 .4423828 .0289917 .29733277 .0289917 .28833009 .0289917 .27833558 .038986207 .27833558 .040985109 .27833558 .050994874 .27833558 .051986696 .28033448 .056991579 .29634095 .083999637 .3903656 .12399292 .42037965 .1579895 .42037965 .1659851 .42037965 .18299866 .42037965 .18299866 .3883667 .18299866 .36335755 .17298889 .3373413 .1659851 .31834413 .12599182 .21231079 .10798645 .1552887 .10798645 .10827637 .10798645 .019256592 .17098999-.0107421879 .22999573-.0107421879 .2689972-.0107421879 .30299378 .0062561037 .33099366 .03425598 .31799317-.017745972 .30599977-.06674194 .2659912-.11973572 .23999024-.15385437 .20199585-.18309021 .1559906-.18309021 .14199829-.18309021 .09700012-.18005371 .07998657-.14074707 .09599304-.14074707 .10899353-.14074707 .12298584-.1287384 .1329956-.11973572 .14299011-.10673523 .14299011-.08773804 .14299011-.056747438 .115997318-.052734376 .10598755-.052734376 .08299255-.052734376 .049987794-.068740848 .049987794-.11773682 .049987794-.16796875 .09399414-.20507813 .1559906-.20507813 .25898744-.20507813 .3619995-.11373901 .3899994-.00074768069L.48599244 .38136292Z"/>
<clipPath id="clip_2">
<path transform="matrix(1.00003,0,0,-1.00006,143.23177,149.6102)" d="M-141.73404 0V141.73404H141.73404V0ZM141.73404 141.73404"/>
</clipPath>
</defs>
<path transform="matrix(1.00003,0,0,-1.00006,143.23177,149.6102)" stroke-width=".19925" stroke-linecap="butt" stroke-miterlimit="10" stroke-linejoin="miter" fill="none" stroke="#929292" stroke-opacity=".5" d="M-141.73404 0H141.73404M-141.73404 28.3468H141.73404M-141.73404 56.69362H141.73404M-141.73404 85.04042H141.73404M-141.73404 113.38724H141.73404M-141.73404 141.72409H141.73404M-141.73404 0V141.73404M-113.38724 0V141.73404M-85.04042 0V141.73404M-56.69362 0V141.73404M-28.3468 0V141.73404M0 0V141.73404M28.3468 0V141.73404M56.69362 0V141.73404M85.04042 0V141.73404M113.38724 0V141.73404M141.72409 0V141.73404M141.73404 141.73404"/>
<path transform="matrix(1.00003,0,0,-1.00006,143.23177,149.6102)" stroke-width="1.19553" stroke-linecap="butt" stroke-miterlimit="10" stroke-linejoin="miter" fill="none" stroke="#000000" d="M-141.73404 0H143.61248"/>
<path transform="matrix(1.00003,0,0,-1.00006,286.84858,149.6102)" stroke-width=".9564" stroke-linecap="round" stroke-linejoin="round" fill="none" stroke="#000000" d="M-1.91284 2.55046C-1.75343 1.59402 0 .15938 .4782 0 0-.15938-1.75343-1.59402-1.91284-2.55046"/>
<use data-text="x" xlink:href="#font_1_1" transform="matrix(9.962899,0,0,-9.963197,284.958,145.69197)"/>
<path transform="matrix(1.00003,0,0,-1.00006,143.23177,149.6102)" stroke-width="1.19553" stroke-linecap="butt" stroke-miterlimit="10" stroke-linejoin="miter" fill="none" stroke="#000000" d="M0 0V143.61248"/>
<path transform="matrix(0,-1.00006,-1.00003,-0,143.23177,5.9891207)" stroke-width=".9564" stroke-linecap="round" stroke-linejoin="round" fill="none" stroke="#000000" d="M-1.91284 2.55046C-1.75343 1.59402 0 .15938 .4782 0 0-.15938-1.75343-1.59402-1.91284-2.55046"/>
<use data-text="y" xlink:href="#font_1_2" transform="matrix(9.962899,0,0,-9.963197,147.14989,6.208603)"/>
<g clip-path="url(#clip_2)">
<path transform="matrix(1.00003,0,0,-1.00006,143.23177,149.6102)" stroke-width=".79701" stroke-linecap="butt" stroke-miterlimit="10" stroke-linejoin="miter" fill="none" stroke="#0000ff" d="M0 0C0 0 .20499 .00102 .28372 .00258 .36246 .00412 .48874 .00806 .56747 .01123 .6462 .0144 .77248 .02077 .85121 .0255 .92995 .03023 1.05623 .03911 1.13496 .0454 1.21368 .0517 1.33997 .06306 1.4187 .07092 1.49744 .07878 1.62372 .09265 1.70245 .10207 1.78117 .11147 1.90746 .12779 1.98619 .13882 2.06493 .14987 2.19121 .16905 2.26994 .18166 2.34866 .19426 2.47495 .21552 2.55368 .22966 2.63242 .24382 2.7587 .26794 2.83743 .28372 2.91615 .2995 3.04243 .3261 3.12117 .34341 3.1999 .36075 3.32619 .38983 3.40492 .40872 3.48364 .42763 3.60992 .45915 3.68866 .47968 3.7674 .5002 3.89368 .53459 3.97241 .55666 4.05113 .57874 4.17741 .6152 4.25615 .63884 4.33488 .66248 4.46117 .70189 4.5399 .72708 4.61862 .75229 4.7449 .79375 4.82364 .82051 4.90237 .84726 5.02866 .8916 5.10739 .91998 5.18611 .94836 5.3124 .99518 5.39113 1.0251 5.46986 1.05504 5.59615 1.10432 5.67488 1.13582 5.7536 1.16733 5.87988 1.21906 5.95862 1.25218 6.03735 1.28531 6.16364 1.3399 6.24237 1.37459 6.32109 1.40926 6.44737 1.46594 6.52611 1.5022 6.60484 1.53844 6.73112 1.59798 6.80986 1.63585 6.88858 1.67372 7.01486 1.73576 7.0936 1.77513 7.17233 1.81448 7.29861 1.87866 7.37735 1.91959 7.45607 1.96051 7.58235 2.02751 7.66109 2.07011 7.73982 2.1127 7.8661 2.18253 7.94484 2.22668 8.02356 2.27084 8.14986 2.3428 8.22858 2.38847 8.30731 2.43413 8.4336 2.50858 8.51233 2.55586 8.59105 2.60313 8.71735 2.68039 8.79607 2.7293 8.8748 2.7782 9.00108 2.85797 9.07982 2.90837 9.15854 2.95879 9.28484 3.04068 9.36356 3.09264 9.44229 3.14459 9.56857 3.22937 9.64731 3.28294 9.72603 3.33653 9.85233 3.42369 9.93105 3.47888 10.00978 3.53409 10.13606 3.62411 10.2148 3.68088 10.29352 3.73764 10.41982 3.8298 10.49854 3.88806 10.57727 3.94633 10.70355 4.041 10.78229 4.10088 10.86102 4.16075 10.9873 4.25824 11.06602 4.31975 11.14476 4.38124 11.27104 4.48116 11.34978 4.54424 11.42851 4.6073 11.5548 4.70972 11.63351 4.77434 11.71225 4.83896 11.83853 4.9439 11.91727 5.01007 11.996 5.07626 12.12228 5.18367 12.201 5.25142 12.27974 5.31918 12.40602 5.42911 12.48476 5.49841 12.56349 5.56772 12.68977 5.68007 12.7685 5.751 12.84723 5.82195 12.97351 5.93712 13.05225 6.00967 13.13098 6.08221 13.25726 6.19984 13.33598 6.27396 13.41472 6.34807 13.541 6.46823 13.61974 6.54385 13.69847 6.61946 13.82475 6.74171 13.90347 6.81894 13.98221 6.89618 14.10849 7.02168 14.18723 7.10052 14.26596 7.17938 14.39224 7.30695 14.47096 7.3873 14.5497 7.46767 14.67598 7.59773 14.75471 7.6797 14.83345 7.76167 14.95973 7.8946 15.03845 7.97815 15.11719 8.06168 15.24347 8.1967 15.3222 8.28178 15.40094 8.36687 15.52722 8.50478 15.60594 8.59148 15.68468 8.67819 15.81096 8.81853 15.8897 8.9068 15.96843 8.99507 16.09471 9.13792 16.17343 9.22775 16.25217 9.31758 16.37845 9.46292 16.45718 9.55432 16.53592 9.6457 16.6622 9.79349 16.74092 9.8865 16.81966 9.97952 16.94594 10.13017 17.02467 10.22475 17.10341 10.31932 17.22969 10.47205 17.30841 10.56818 17.38715 10.66432 17.51343 10.81993 17.59216 10.91768 17.6709 11.01543 17.79718 11.17348 17.8759 11.2728 17.95464 11.3721 18.08092 11.53264 18.15965 11.63351 18.23839 11.7344 18.36467 11.89746 18.44339 11.9999 18.52213 12.10231 18.6484 12.26787 18.72714 12.37186 18.80588 12.47586 18.93216 12.64386 19.0109 12.74948 19.08961 12.8551 19.2159 13.02596 19.29463 13.13313 19.37337 13.24031 19.49965 13.41324 19.57838 13.52199 19.6571 13.63072 19.78339 13.80655 19.86212 13.9169 19.94086 14.02725 20.06714 14.2055 20.14587 14.31743 20.2246 14.42935 20.35088 14.61009 20.42961 14.72359 20.50835 14.83707 20.63463 15.02032 20.71336 15.13536 20.79208 15.25038 20.91837 15.4361 20.9971 15.55275 21.07584 15.66942 21.20212 15.85799 21.28085 15.97621 21.35957 16.09444 21.48586 16.28508 21.56459 16.40486 21.64333 16.52463 21.7696 16.71815 21.84834 16.83955 21.92706 16.96097 22.05334 17.157 22.13208 17.27988 22.21082 17.40277 22.3371 17.60088 22.41583 17.72539 22.49455 17.84991 22.62083 18.05125 22.69957 18.1774 22.7783 18.30354 22.90459 18.50696 22.98332 18.6346 23.06204 18.76222 23.18832 18.9682 23.26706 19.0974 23.3458 19.22661 23.47208 19.43501 23.55081 19.56584 23.62953 19.69667 23.75581 19.9079 23.83455 20.04033 23.91328 20.17278 24.03957 20.38646 24.1183 20.52046 24.19702 20.65446 24.3233 20.87064 24.40204 21.0062 24.48077 21.14175 24.60706 21.36043 24.68579 21.49754 24.76451 21.63467 24.8908 21.85587 24.96953 21.99455 25.04826 22.13324 25.17455 22.35692 25.25328 22.49716 25.332 22.63739 25.45828 22.86353 25.53702 23.00539 25.61575 23.14725 25.74203 23.37617 25.82077 23.51967 25.89949 23.66316 26.02577 23.89459 26.1045 24.03958 26.18324 24.18456 26.30952 24.41814 26.38826 24.56468 26.46698 24.71123 26.59326 24.94768 26.672 25.09584 26.75073 25.24402 26.87701 25.48283 26.95575 25.63263 27.03447 25.78241 27.16077 26.02411 27.23949 26.17546 27.31822 26.32681 27.4445 26.57063 27.52324 26.72348 27.60196 26.87631 27.72826 27.12267 27.80698 27.27713 27.88571 27.4316 28.012 27.68074 28.09073 27.83684 28.16945 27.99294 28.29575 28.24457 28.37447 28.40215 28.4532 28.55974 28.57948 28.81354 28.65822 28.97269 28.73694 29.13184 28.86324 29.38843 28.94196 29.54926 29.02069 29.71007 29.14697 29.9695 29.22571 30.13188 29.30443 30.29427 29.43073 30.5558 29.50945 30.7197 29.58818 30.88359 29.71446 31.14763 29.7932 31.31314 29.87193 31.47864 29.99821 31.74557 30.07693 31.91264 30.15567 32.07971 30.28195 32.3487 30.36069 32.51733 30.43942 32.68596 30.5657 32.95782 30.64442 33.12807 30.72316 33.29831 30.84944 33.57262 30.92818 33.74443 31.00691 33.91624 31.1332 34.19304 31.21191 34.36642 31.29065 34.5398 31.41693 34.81905 31.49567 34.99403 31.5744 35.16902 31.70068 35.45116 31.7794 35.62772 31.85814 35.80428 31.98442 36.08846 32.06316 36.26656 32.14189 36.44467 32.26817 36.7318 32.3469 36.91147 32.42563 37.09114 32.55191 37.38036 32.63065 37.56158 32.70938 37.74283 32.83566 38.0349 32.91438 38.21776 32.99312 38.4006 33.1194 38.69511 33.19814 38.87952 33.27687 39.06393 33.40315 39.36096 33.48187 39.54694 33.56061 39.73291 33.68689 40.03236 33.76563 40.21996 33.84436 40.40755 33.97064 40.70988 34.04936 40.89905 34.1281 41.08821 34.25438 41.3926 34.33311 41.58331 34.41185 41.77405 34.53813 42.08131 34.61685 42.27365 34.69559 42.46599 34.82187 42.7757 34.9006 42.9696 34.97934 43.1635 35.10562 43.47574 35.18434 43.67119 35.26308 43.86664 35.38936 44.18137 35.4681 44.37839 35.54683 44.5754 35.67311 44.89262 35.75183 45.0912 35.83057 45.28978 35.95685 45.60945 36.03558 45.80965 36.11432 46.00984 36.2406 46.33238 36.31932 46.53415 36.39806 46.7359 36.52434 47.06052 36.60307 47.26384 36.68181 47.46716 36.80809 47.79465 36.88681 47.99959 36.96555 48.20453 37.09183 48.53445 37.17056 48.74095 37.2493 48.94746 37.37558 49.27989 37.4543 49.48795 37.53304 49.696 37.65932 50.03094 37.73805 50.24057 37.81679 50.4502 37.94307 50.78763 38.0218 50.99881 38.10052 51.21 38.2268 51.54987 38.30554 51.76266 38.38428 51.97546 38.51056 52.31822 38.5893 52.5326 38.66801 52.74695 38.7943 53.09177 38.87303 53.3077 38.95177 53.52362 39.07805 53.87132 39.15678 54.08885 39.2355 54.3064 39.36179 54.65654 39.44052 54.87566 39.51926 55.09476 39.64554 55.4474 39.72427 55.66806 39.803 55.88872 39.92928 56.2438 40.00801 56.46608 40.08675 56.68837 40.21303 57.04633 40.29176 57.27017 40.37048 57.49403 40.49677 57.85405 40.5755 58.07945 40.65424 58.30486 40.78052 58.66783 40.85925 58.89479 40.93797 59.12177 41.06425 59.48677 41.14299 59.71532 41.22173 59.94385 41.348 60.31175 41.42674 60.5419 41.50546 60.77205 41.63174 61.1424 41.71048 61.3741 41.78922 61.60582 41.9155 61.97867 41.99423 62.21193 42.07295 62.44519 42.19923 62.82048 42.27797 63.05536 42.3567 63.29025 42.48299 63.66843 42.56172 63.90488 42.64044 64.14134 42.76672 64.52156 42.84546 64.75957 42.9242 64.99757 43.05048 65.38069 43.12921 65.62032 43.20793 65.85995 43.33421 66.24556 43.41295 66.4867 43.49168 66.72783 43.61797 67.11557 43.6967 67.35826 43.77542 67.60094 43.9017 67.99152 43.98044 68.23589 44.05917 68.48026 44.18546 68.87364 44.26419 69.11955 44.34291 69.36548 44.4692 69.76099 44.54793 70.00842 44.62666 70.25584 44.75294 70.65387 44.83168 70.90292 44.9104 71.15198 45.03668 71.55278 45.11542 71.80345 45.19415 72.05412 45.32043 72.45746 45.39917 72.70963 45.47789 72.96179 45.60417 73.36725 45.6829 73.62099 45.76164 73.87473 45.88792 74.28305 45.96666 74.53839 46.04538 74.79375 46.17168 75.20445 46.2504 75.46143 46.32913 75.7184 46.45541 76.132 46.53415 76.39053 46.61287 76.64905 46.73917 77.06476 46.81789 77.3248 46.89662 77.58482 47.0229 78.00305 47.10164 78.26471 47.18036 78.52635 47.30666 78.94739 47.38538 79.21066 47.46411 79.47392 47.5904 79.89742 47.66913 80.16225 47.74785 80.42708 47.87415 80.85306 47.95287 81.11945 48.0316 81.38585 48.15788 81.81433 48.23662 82.08229 48.31534 82.35023 48.44164 82.78122 48.52036 83.05074 48.59909 83.32025 48.72537 83.75372 48.80411 84.02481 48.88284 84.29588 49.00912 84.73183 49.08784 85.00452 49.16658 85.2772 49.29286 85.71596 49.3716 85.99026 49.45033 86.26459 49.57661 86.70576 49.65533 86.98164 49.73407 87.2575 49.86035 87.70126 49.93909 87.97864 50.01782 88.25603 50.1441 88.70183 50.22282 88.98083 50.30156 89.25984 50.42784 89.70891 50.50658 89.98952 50.58531 90.27013 50.7116 90.72127 50.79031 91.00339 50.86905 91.2855 50.99533 91.73912 51.07407 92.02287 51.1528 92.30663 51.27908 92.76314 51.3578 93.04843 51.43654 93.33372 51.56282 93.7923 51.64156 94.07915 51.72029 94.36601 51.84657 94.82747 51.9253 95.11595 52.00403 95.40445 52.13031 95.86833 52.20905 96.15837 52.28778 96.44841 52.41406 96.91481 52.49278 97.2064 52.57152 97.49802 52.6978 97.96692 52.77654 98.26007 52.85527 98.55324 52.98155 99.02457 53.06027 99.31935 53.139 99.61414 53.26529 100.08836 53.34402 100.3847 53.42276 100.68106 53.54904 101.15733 53.62776 101.45523 53.7065 101.75313 53.83278 102.2323 53.91151 102.53181 53.99025 102.83134 54.11653 103.31296 54.19525 103.61403 54.27399 103.9151 54.40027 104.39922 54.479 104.70186 54.55774 105.0045 54.68402 105.4911 54.76274 105.79532 54.84148 106.09952 54.96776 106.58864 55.0465 106.8944 55.12523 107.20015 55.25151 107.69173 55.33023 107.9991 55.40897 108.30649 55.53525 108.80092 55.61398 109.10985 55.69272 109.4188 55.819 109.9153 55.89772 110.2258 55.97646 110.5363 56.10274 111.03569 56.18147 111.34781 56.26021 111.65994 56.38649 112.16176 56.46521 112.47543 56.54395 112.78911 56.67023 113.29344 56.74896 113.60867 56.8277 113.92392 56.95398 114.43074 57.03271 114.74754 57.11143 115.06436 57.23772 115.57362 57.31645 115.89204 57.39519 116.21046 57.52147 116.72263 57.6002 117.0426 57.67892 117.3626 57.8052 117.87679 57.88394 118.19833 57.96268 118.5199 58.08896 119.03697 58.1677 119.36014 58.24641 119.6833 58.3727 120.20288 58.45143 120.52756 58.53017 120.85222 58.65645 121.37389 58.73518 121.70018 58.8139 122.02647 58.94019 122.55136 59.01892 122.87927 59.09766 123.20718 59.22394 123.73416 59.30267 124.06357 59.3814 124.39297 59.50768 124.9225 59.58641 125.25346 59.66515 125.58443 59.79143 126.11641 59.87016 126.449 59.94888 126.78159 60.07516 127.31638 60.1539 127.65059 60.23264 127.98482 60.35892 128.52205 60.43765 128.85782 60.51637 129.19358 60.64265 129.7333 60.72139 130.07065 60.80013 130.40798 60.9264 130.95021 61.00514 131.28911 61.08386 131.628 61.21014 132.17275 61.28888 132.51319 61.36761 132.85364 61.4939 133.40088 61.57263 133.74289 61.65135 134.08492 61.77763 134.6346 61.85637 134.97823 61.9351 135.32186 62.06139 135.87435 62.14012 136.2196 62.21884 136.56485 62.34512 137.11986 62.42386 137.46662 62.5026 137.81337 62.62888 138.3705 62.70761 138.71881 62.78633 139.06711 62.91261 139.62712 62.99135 139.97705 63.07008 140.327 63.19637 140.88938 63.2751 141.24094 63.35382 141.5925 63.4801 142.15776 63.55884 142.51088 63.63757 142.86399 63.76385 143.43137 63.84259 143.786 63.92131 144.14061 64.04759 144.7105 64.12633 145.06674 64.20506 145.42299 64.33134 145.99568 64.41008 146.35355 64.4888 146.7114 64.61508 147.2866 64.69382 147.64597 64.77255 148.00533 64.89883 148.58267 64.97757 148.94358 65.05629 149.30449 65.18259 149.88465 65.2613 150.24724 65.34004 150.60984 65.46632 151.19281 65.54506 151.55696 65.62378 151.92113 65.75008 152.50624 65.8288 152.87189 65.90753 153.23755 66.03381 153.82515 66.11255 154.19243 66.19127 154.55971 66.31757 155.15018 66.39629 155.51902 66.47502 155.88785 66.6013 156.48041 66.68004 156.8508 66.75876 157.22119 66.88506 157.81662 66.96378 158.18865 67.04251 158.56067 67.1688 159.15854 67.24753 159.5321 67.32626 159.90569 67.45255 160.50606 67.53127 160.8812 67.61 161.25634 67.73628 161.85913 67.81502 162.2359 67.89375 162.61267 68.02003 163.21834 68.09875 163.59667 68.17749 163.97498 68.30377 164.58274 68.3825 164.96262 68.46124 165.3425 68.58752 165.95319 68.66624 166.33463 68.74498 166.71608 68.87126 167.32884 68.95 167.71184 69.02873 168.09484 69.15501 168.71047 69.23373 169.0951 69.31247 169.47972 69.43875 170.0978 69.51749 170.48397 69.59622 170.87014 69.7225 171.49073 69.80122 171.87847 69.87996 172.2662 70.00624 172.88924 70.08498 173.27861 70.16371 173.66797 70.29 174.29387 70.36871 174.68479 70.44745 175.0757 70.57373 175.70368 70.65247 176.09615 70.7312 176.48863 70.85748 177.11948 70.9362 177.51357 71.01494 177.90767 71.14122 178.54097 71.21996 178.93663 71.29869 179.33229 71.42497 179.96807 71.5037 180.3653 71.58243 180.76253 71.70871 181.40082 71.78745 181.7996 71.86618 182.19838 71.99246 182.83917 72.07118 183.23952 72.14992 183.63986 72.2762 184.28308 72.35493 184.68506 72.43367 185.08702 72.55995 185.73313 72.63867 186.13665 72.7174 186.54018 72.84369 187.18836 72.92242 187.59345 73.00116 187.99852 73.12744 188.64958 73.20616 189.05628 73.2849 189.46298 73.41118 190.11649 73.48991 190.52475 73.56865 190.93302 73.69493 191.589 73.77365 191.99884 73.85239 192.40866 73.97867 193.06717 74.0574 193.47855 74.13614 193.88994 74.26242 194.55095 74.34114 194.9639 74.41988 195.37683 74.54616 196.04029 74.6249 196.45485 74.70363 196.86943 74.82991 197.53574 74.90863 197.95186 74.98737 198.36798 75.11365 199.03638 75.19238 199.45407 75.27112 199.87177 75.3974 200.54303 75.47614 200.96233 75.55486 201.38164 75.68114 202.05535 75.75987 202.47621 75.83861 202.89708 75.96489 203.57329 76.04362 203.99573 76.12234 204.41815 76.24863 205.0968 76.32736 205.52085 76.4061 205.94489 76.53238 206.62642 76.61111 207.05204 76.68983 207.47765 76.81612 208.16123 76.89485 208.58841 76.97359 209.01558 77.09987 209.7021 77.1786 210.13083 77.25732 210.55956 77.3836 211.24816 77.46234 211.67845 77.54108 212.10875 77.66736 212.80022 77.7461 213.23213 77.82481 213.66407 77.9511 214.35797 78.02983 214.79145 78.10857 215.2249 78.23485 215.92133 78.31358 216.35636 78.3923 216.7914 78.51859 217.49027 78.59732 217.92691 78.67606 218.36356 78.80234 219.06529 78.88107 219.5035 78.9598 219.94171 79.08607 220.64553 79.16481 221.0853 79.24355 221.52507 79.36983 222.23175 79.44856 222.67314 79.52728 223.11454 79.65356 223.8237 79.7323 224.2666 79.81104 224.70949 79.93732 225.4208 80.01605 225.86527 80.09477 226.30974 80.22105 227.02387 80.29979 227.46999 80.37852 227.91613 80.5048 228.63307 80.58354 229.08077 80.66226 229.52846 80.78854 230.24753 80.86728 230.69672 80.94601 231.1459 81.0723 231.86748 81.15103 232.3183 81.22975 232.76912 81.35603 233.4935 81.43477 233.94594 81.5135 234.39839 81.63979 235.12529 81.71852 235.57921 81.79724 236.03314 81.92352 236.76218 82.00226 237.21767 82.081 237.67317 82.20728 238.40505 82.28601 238.86217 82.36473 239.31929 82.49101 240.05358 82.56975 240.5123 82.64848 240.97104 82.77477 241.70819 82.8535 242.1685 82.93222 242.6288 83.0585 243.36808 83.13724 243.82988 83.21597 244.29169 83.34225 245.03347 83.42099 245.49687 83.49971 245.9603 83.626 246.7049 83.70473 247.16994 83.78346 247.63498 83.90974 248.38202 83.98848 248.84862 84.0672 249.3152 84.1935 250.06476 84.27222 250.53292 84.35095 251.00107 84.47723 251.75312 84.55597 252.22284 84.63469 252.69257 84.76099 253.4471 84.8397 253.91838 84.91844 254.38965 85.04472 255.14672 85.12346 255.61956 85.20218 256.09239 85.32848 256.8519 85.4072 257.32637 85.48593 257.8008 85.61221 258.5631 85.69095 259.0392 85.76967 259.51527 85.89597 260.28004 85.97469 260.7577 86.05342 261.23533 86.1797 262.00263 86.25844 262.48179 86.33717 262.9609 86.46346 263.7303 86.54218 264.21107 86.62091 264.69184 86.7472 265.46446 86.82593 265.94685 86.90466 266.42924 87.03094 267.20393 87.10966 267.6878 87.1884 268.1717 87.31468 268.94889 87.39342 269.4344 87.47215 269.9199 87.59843 270.69999 87.67715 271.18705 87.75589 271.6741 87.88217 272.45625 87.9609 272.9449 88.03964 273.4335 88.16592 274.2185 88.24464 274.70878 88.32338 275.199 88.44966 275.98649 88.5284 276.47828 88.60713 276.97007 88.73341 277.76005 88.81213 278.2534 88.89087 278.74678 89.01715 279.5392 89.09589 280.03416 89.17462 280.5291 89.3009 281.324 89.37962 281.82054 89.45836 282.3171 89.58464 283.11488 89.66338 283.61299 89.74211 284.11109 89.8684 284.91093 89.94711 285.4106 90.02585 285.9103 90.15213 286.713 90.23087 287.2143 90.3096 287.71559 90.43588 288.52076 90.5146 289.0236 90.59334 289.52647 90.71962 290.3341 90.79836 290.83854 90.87709 291.34294 91.00337 292.1531 91.08209 292.6591 91.16083 293.16505 91.28711 293.97773 91.36584 294.48527 91.44458 294.99278 91.57086 295.80793 91.64958 296.31706 91.72832 296.8262 91.8546 297.6442 91.93333 298.1549 92.01207 298.66563 92.13835 299.4857 92.21707 299.99797 92.2958 300.51026 92.42209 301.33317 92.50082 301.84706 92.57956 302.36097 92.70584 303.18635 92.78456 303.70179 92.8633 304.21723 92.98958 305.0451 93.06831 305.56214 93.14705 306.07917 93.27333 306.90953 93.35205 307.4281 93.43079 307.94667 93.55707 308.7795 93.6358 309.29969 93.71454 309.8199 93.84082 310.65559 93.91954 311.1773 93.99828 311.69908 94.12456 312.53688 94.2033 313.06019 94.28203 313.58348 94.40831 314.42414 94.48705 314.94908 94.56577 315.474 94.69205 316.31715 94.77078 316.84358 94.84952 317.37 94.9758 318.21525 95.05453 318.7433 95.13326 319.27137 95.25954 320.1198 95.33827 320.64949 95.417 321.17915 95.54329 322.0297 95.62202 322.56089 95.70074 323.09205 95.82703 323.94514 95.90576 324.47789 95.9845 325.01063 96.11078 325.86616 96.18951 326.4005 96.26823 326.93486 96.39452 327.7932 96.47325 328.3292 96.55199 328.86518 96.67827 329.72599 96.757 330.2635 96.83572 330.80104 96.962 331.66435 97.04074 332.20344 97.11948 332.74253 97.24576 333.60835 97.3245 334.149 97.40321 334.68965 97.5295 335.55796 97.60823 336.10017 97.68697 336.6424 97.81325 337.5132 97.89198 338.05696 97.9707 338.60075 98.09698 339.474 98.17572 340.0194 98.25446 340.5648 98.38074 341.44087 98.45947 341.98789 98.5382 342.5349 98.66447 343.41346 98.74321 343.96199 98.82195 344.5105 98.94823 345.3912 99.02696 345.94129 99.10568 346.49137 99.23196 347.3749 99.3107 347.9266 99.38943 348.47834 99.51572 349.36427 99.59445 349.9176 99.67317 350.47093 99.79945 351.35975 99.87819 351.9146 99.95692 352.4695 100.0832 353.36048 100.16194 353.91685 100.24066 354.4732 100.36694 355.36668 100.44568 355.92469 100.52441 356.4827 100.6507 357.37898 100.72943 357.93858 100.80815 358.4982 100.93443 359.397 101.01317 359.9581 101.0919 360.51924 101.21819 361.4201 101.29692 361.98283 101.37564 362.5455 101.50192 363.44923 101.58066 364.01359 101.6594 364.57795 101.78568 365.48448 101.86441 366.0504 101.94313 366.61634 102.06941 367.525 102.14815 368.0924 102.22688 368.65986 102.35316 369.571 102.4319 370.14006 102.51062 370.70909 102.63692 371.62315 102.71564 372.19374 102.79437 372.76435 102.92065 373.68049 102.99939 374.25263 103.07811 374.82478 103.2044 375.74378 103.28313 376.31755 103.36186 376.89134 103.48814 377.81278 103.56688 378.38813 103.6456 378.96348 103.7719 379.8874 103.85062 380.4643 103.92935 381.0412 104.05563 381.9676 104.13437 382.5461 104.21309 383.12464 104.33939 384.05387 104.4181 384.63398 104.49684 385.21406 104.62312 386.14537 104.70186 386.727 104.78058 387.30867 104.90688 388.2429 104.9856 388.8261 105.06433 389.40934 105.19061 390.34565 105.26935 390.93043 105.34808 391.5152 105.47437 392.45439 105.55309 393.04078 105.63182 393.62718 105.7581 394.5688 105.83684 395.15675 105.91557 395.7447 106.04185 396.68885 106.12057 397.27836 106.19931 397.86784 106.32559 398.81446 106.40433 399.40556 106.48306 399.9967 106.60934 400.94615 106.68806 401.53886 106.7668 402.13157 106.89308 403.08308 106.97182 403.6773 107.05055 404.27156 107.17683 405.22599 107.25555 405.82185 107.33429 406.41773 107.46057 407.37455 107.5393 407.972 107.61804 408.5694 107.74432 409.52876 107.82304 410.12776 107.90178 410.72676 108.02806 411.68858 108.1068 412.28916 108.18553 412.8897 108.31181 413.85408 108.39053 414.45616 108.46927 415.0583 108.59555 416.02507 108.67429 416.6288 108.75302 417.23255 108.8793 418.2022 108.95802 418.8075 109.03676 419.41279 109.16304 420.38453 109.24178 420.9914 109.32051 421.5982 109.4468 422.5728 109.52551 423.1813 109.60425 423.7898 109.73053 424.7668 109.80927 425.3769 109.888 425.9869 110.01428 426.96647 110.093 427.57807 110.17174 428.18965 110.29802 429.1717 110.37675 429.78489 110.45549 430.39805 110.58177 431.38258 110.66049 431.9973 110.73923 432.61204 110.86551 433.59904 110.94424 434.21537 111.02298 434.8317 111.14926 435.8216 111.22798 436.43949 111.30672 437.05738 111.433 438.04933 111.51173 438.66877 111.59047 439.2882 111.71675 440.28306 111.79547 440.90415 111.8742 441.5252 112.00049 442.5225 112.07922 443.1451 112.15796 443.76777 112.28424 444.76753 112.36296 445.39173 112.4417 446.0159 112.56798 447.0181 112.64671 447.64396 112.72545 448.26976 112.85173 449.27485 112.93045 449.9022 113.00919 450.52958 113.13547 451.53678 113.2142 452.1657 113.29294 452.79463 113.41922 453.8047 113.49796 454.4352 113.57668 455.06575 113.70296 456.07789 113.7817 456.70994 113.86043 457.34199 113.98671 458.35704 114.06544 458.9907 114.14417 459.62437 114.27045 460.64186 114.34918 461.2771 114.42792 461.91236 114.5542 462.93235 114.63293 463.56913 114.71165 464.20594 114.83794 465.22837 114.91667 465.86677 114.9954 466.5052 115.12169 467.5305 115.20042 468.17048 115.27914 468.81044 115.40543 469.8378 115.48416 470.47935 115.5629 471.12089 115.68918 472.15113 115.76791 472.7943 115.84663 473.43745 115.97292 474.4702 116.05165 475.11485 116.13039 475.7595 116.25667 476.7944 116.3354 477.4406 116.41412 478.08683 116.5404 479.1245 116.61914 479.77244 116.69788 480.42033 116.82416 481.46083 116.9029 482.1103 116.98161 482.75975 117.1079 483.8024 117.18663 484.45335 117.26537 485.1043 117.39165 486.14949 117.47038 486.80204 117.5491 487.4546 117.67538 488.50257 117.75412 489.15678 117.83286 489.81098 117.95914 490.86143 118.03787 491.51713 118.1166 492.17286 118.24287 493.2254 118.32161 493.8827 118.40034 494.53996 118.52663 495.5954 118.60536 496.2543 118.68408 496.91319 118.81036 497.971 118.8891 498.63154 118.96783 499.29203 119.09412 500.35276 119.17285 501.0148 119.25157 501.67686 119.37785 502.73973 119.45659 503.40327 119.53532 504.06687 119.6616 505.1322 119.74034 505.7974 119.81906 506.46257 119.94534 507.53074 120.02408 508.19755 120.10281 508.86433 120.2291 509.9349 120.30783 510.6033 120.38655 511.27168 120.51283 512.3448 120.59157 513.0147 120.6703 513.68466 120.79659 514.76028 120.87532 515.4317 120.95404 516.1032 121.08032 517.18136 121.15906 517.8544 121.2378 518.5274 121.36407 519.60806 121.44281 520.28268 121.52153 520.9572 121.64783 522.0403 121.72655 522.7165 121.80528 523.39279 121.93156 524.4786 122.0103 525.15646 122.08902 525.8343 122.21532 526.92269 122.29404 527.60208 122.37277 528.28146 122.49905 529.3723 122.57779 530.0532 122.65651 530.73416 122.7828 531.8271 122.86153 532.50967 122.94026 533.19216 123.06654 534.2883 123.14528 534.9725 123.224 535.6567 123.3503 536.7549 123.42902 537.44058 123.50775 538.1262 123.63403 539.227 123.71277 539.91427 123.79149 540.6015 123.91779 541.70516 123.9965 542.394 124.07524 543.0828 124.20152 544.1885 124.28026 544.8789 124.359 545.5693 124.48528 546.6779 124.564 547.3699 124.64273 548.0619 124.76901 549.1729 124.84775 549.8665 124.92648 550.56008 125.05276 551.6736 125.13148 552.3687 125.21022 553.0639 125.3365 554.1799 125.41524 554.8766 125.49397 555.5733 125.62025 556.6917 125.69897 557.3901 125.77771 558.0884 125.90399 559.2097 125.98273 559.9096 126.06146 560.6095 126.18774 561.7329 126.26646 562.4343 126.3452 563.13577 126.47148 564.262 126.55022 564.9651 126.62895 565.66818 126.75523 566.7969 126.83395 567.5015 126.91269 568.2061 127.03897 569.33737 127.1177 570.0435 127.19644 570.7497 127.32272 571.8834 127.40144 572.5912 127.48018 573.29898 127.60646 574.4352 127.6852 575.1445 127.76393 575.85379 127.89021 576.99246 127.96893 577.70339 128.04767 578.4143 128.17395 579.55587 128.25269 580.2683 128.33142 580.9808 128.4577 582.1244 128.53643 582.83847 128.61516 583.5525 128.74144 584.699 128.82018 585.4146 128.89891 586.1303 129.02519 587.27926 129.10391 587.99649 129.18265 588.7137 129.30893 589.8651 129.38767 590.5839 129.4664 591.3027 129.59268 592.4566 129.6714 593.17697 129.75014 593.8973 129.87642 595.0537 129.95516 595.77566 130.03389 596.4976 130.16017 597.65689 130.23889 598.3804 130.31763 599.10397 130.44391 600.26528 130.52265 600.99038 130.60138 601.7154 130.72766 602.87966 130.80638 603.6063 130.88512 604.333 131.0114 605.49978 131.09014 606.22799 131.16887 606.9562 131.29515 608.12496 131.37387 608.85476 131.4526 609.58456 131.57889 610.7566 131.65763 611.48806 131.73636 612.2195 131.86264 613.39358 131.94136 614.1265 132.0201 614.85946 132.14638 616.03616 132.22512 616.7706 132.30385 617.5051 132.43013 618.6842 132.50887 619.42037 132.58759 620.15646 132.71387 621.3384 132.7926 622.0761 132.87134 622.81387 132.99762 623.9982 133.07636 624.73757 133.15508 625.47689 133.28136 626.6637 133.36009 627.40457 133.43883 628.14547 133.56511 629.3348 133.64385 630.0772 133.72257 630.81967 133.84885 632.0115 133.92758 632.7555 134.00632 633.49948 134.1326 634.69387 134.21134 635.4394 134.29006 636.18496 134.41634 637.3817 134.49507 638.1289 134.5738 638.8761 134.70009 640.0757 134.77883 640.82449 134.85755 641.57327 134.98383 642.7754 135.06256 643.5257 135.1413 644.276 135.26758 645.4802 135.34632 646.2321 135.42504 646.98397 135.55132 648.19107 135.63005 648.9445 135.70879 649.698 135.83507 650.90756 135.9138 651.6626 135.99253 652.41769 136.1188 653.63009 136.19754 654.3867 136.27628 655.1434 136.40256 656.3579 136.4813 657.116 136.56002 657.8742 136.6863 659.0912 136.76503 659.85098 136.84377 660.6107 136.97005 661.83059 137.04878 662.592 137.1275 663.35336 137.25379 664.5757 137.33252 665.33859 137.41126 666.10147 137.53754 667.3259 137.61627 668.0904 137.69499 668.85488 137.82128 670.0821 137.90001 670.84829 137.97875 671.6144 138.10503 672.8445 138.18376 673.6122 138.26248 674.3798 138.38877 675.61209 138.4675 676.3813 138.54624 677.15048 138.67252 678.3852 138.75125 679.156 138.82997 679.9268 138.95626 681.1644 139.03499 681.93679 139.11373 682.70919 139.24 683.9488 139.31874 684.7228 139.39746 685.4967 139.52375 686.73928 139.60248 687.5148 139.68122 688.29037 139.8075 689.53536 139.88623 690.31246 139.96495 691.08956 140.09123 692.33706 140.16997 693.1157 140.2487 693.8944 140.37499 695.14437 140.45372 695.9246 140.53244 696.70498 140.65874 697.9577 140.73746 698.7396 140.8162 699.5214 140.94248 700.7763 141.02121 701.55978 141.09993 702.34317 141.22623 703.60098 141.30495 704.3859 141.38368 705.1709 141.5887 707.21737 141.5887 707.21737"/>
</g>
</svg>
